<?xml version="1.0" encoding="UTF-8" standalone="no"?>
<!-- Created with Sodipodi ("http://www.sodipodi.com/") -->
<svg
   xmlns:dc="http://purl.org/dc/elements/1.1/"
   xmlns:cc="http://creativecommons.org/ns#"
   xmlns:rdf="http://www.w3.org/1999/02/22-rdf-syntax-ns#"
   xmlns:svg="http://www.w3.org/2000/svg"
   xmlns="http://www.w3.org/2000/svg"
   xmlns:xlink="http://www.w3.org/1999/xlink"
   xmlns:sodipodi="http://sodipodi.sourceforge.net/DTD/sodipodi-0.dtd"
   xmlns:inkscape="http://www.inkscape.org/namespaces/inkscape"
   version="1.0"
   x="0"
   y="0"
   width="90"
   height="90"
   id="svg602"
   xml:space="preserve"
   sodipodi:version="0.32"
   inkscape:version="0.46+devel"
   sodipodi:docname="preferences-desktop-peripherals.svg"
   sodipodi:docbase="/home/tweenk/dev/GartoonRedux/scalable/categories"
   inkscape:output_extension="org.inkscape.output.svg.inkscape"><metadata
     id="metadata4130"><rdf:RDF><cc:Work
         rdf:about=""><dc:format>image/svg+xml</dc:format><dc:type
           rdf:resource="http://purl.org/dc/dcmitype/StillImage" /></cc:Work></rdf:RDF></metadata><sodipodi:namedview
     inkscape:window-height="724"
     inkscape:window-width="795"
     inkscape:pageshadow="2"
     inkscape:pageopacity="0.0"
     guidetolerance="10.0"
     gridtolerance="10.0"
     objecttolerance="10.0"
     borderopacity="1.0"
     bordercolor="#666666"
     pagecolor="#ffffff"
     id="base"
     inkscape:zoom="2.2611112"
     inkscape:cx="94.783682"
     inkscape:cy="25.129708"
     inkscape:window-x="114"
     inkscape:window-y="9"
     inkscape:current-layer="svg602"
     showgrid="false" /><defs
     id="defs604"><inkscape:perspective
       sodipodi:type="inkscape:persp3d"
       inkscape:vp_x="0 : 45 : 1"
       inkscape:vp_y="0 : 1000 : 0"
       inkscape:vp_z="90 : 45 : 1"
       inkscape:persp3d-origin="45 : 30 : 1"
       id="perspective75" /><linearGradient
       xlink:href="#linearGradient554"
       id="linearGradient559"
       x1="7.79836702"
       y1="68.6560287"
       x2="12.9945765"
       y2="78.4289169"
       gradientUnits="userSpaceOnUse"
       spreadMethod="pad"
       gradientTransform="scale(1.122498,0.89087)" /><linearGradient
       id="linearGradient554"><stop
         style="stop-color:#666565;stop-opacity:1;"
         offset="0.000000"
         id="stop555" /><stop
         style="stop-color:#ffffff;stop-opacity:1;"
         offset="1.000000"
         id="stop556" /></linearGradient><linearGradient
       xlink:href="#linearGradient554"
       id="linearGradient557"
       x1="12.9236002"
       y1="79.9603500"
       x2="8.33575153"
       y2="72.2902298"
       gradientUnits="userSpaceOnUse"
       spreadMethod="pad"
       gradientTransform="scale(1.122498,0.89087)" /><linearGradient
       id="linearGradient895"><stop
         style="stop-color:#437caf;stop-opacity:1;"
         offset="0"
         id="stop896" /><stop
         style="stop-color:#9bb9e3;stop-opacity:1;"
         offset="1"
         id="stop897" /></linearGradient><linearGradient
       xlink:href="#linearGradient895"
       id="linearGradient898"
       x1="50.5546532"
       y1="68.4698563"
       x2="51.8096619"
       y2="18.5831013"
       gradientUnits="userSpaceOnUse"
       gradientTransform="matrix(0.902492,0,0,1.108043,108.71465,88.818327)" /></defs><g
     id="g2442"
     transform="matrix(0.7346314,0,0,0.7346314,-56.901971,-64.579786)"><path
       id="path894"
       d="M 192.22156,168.41712 C 192.22156,172.0279 174.79189,174.95502 153.29129,174.95502 C 131.7907,174.95502 114.36103,172.0279 114.36103,168.41712 C 114.36103,164.80633 131.7907,161.87921 153.29129,161.87921 C 174.79189,161.87921 192.22156,164.80633 192.22156,168.41712 z "
       style="font-size:12px;fill:#000000;fill-opacity:0.32289997;fill-rule:evenodd;stroke-width:1" /><path
       sodipodi:nodetypes="cccccccccccccccc"
       id="path923"
       d="M 121.94149,165.87903 C 119.35363,162.42855 116.19069,154.37743 118.49101,141.72568 C 120.79133,129.07391 125.39197,118.14741 125.39197,118.14741 C 125.39197,118.14741 116.76577,120.44772 114.17791,109.52121 C 113.89037,105.20811 112.45267,98.307148 118.49102,93.706509 C 124.2418,90.543562 131.4303,90.543572 134.3057,94.856669 C 135.45586,97.156988 136.60602,98.307138 136.60602,98.307138 C 136.60602,98.307138 143.21944,90.543562 150.98302,91.406179 C 156.73382,89.968487 162.48462,93.418966 163.92232,98.019606 C 165.07248,96.006838 167.37279,89.680935 173.98621,89.968477 C 180.59963,90.25602 184.62519,93.994041 185.77535,96.294361 C 186.92551,98.594681 189.22582,106.93335 185.20028,112.68414 C 182.03734,115.84708 178.8744,117.28478 175.71146,116.99724 C 178.01178,120.16018 182.89996,134.82472 184.05011,141.43814 C 187.50058,157.25284 183.76257,165.59149 179.16193,169.04197 C 174.56128,172.49245 130.28014,177.95571 121.94149,165.87903 z "
       style="fill:#000000;fill-opacity:1;fill-rule:evenodd;stroke:none;stroke-width:1pt;stroke-linecap:butt;stroke-linejoin:miter;stroke-opacity:1" /><path
       id="path873"
       d="M 181.52317,152.36952 C 181.52317,169.27457 167.81017,168.71429 149.42799,168.71429 C 131.0458,168.71429 121.49329,167.4915 121.49329,150.58645 C 121.49329,133.68141 132.23451,95.014235 150.6167,95.014235 C 168.99888,95.014235 181.52317,135.46447 181.52317,152.36952 z "
       style="font-size:12px;fill:url(#linearGradient898);fill-opacity:1;fill-rule:evenodd" /><path
       id="path874"
       d="M 135.16346,104.8211 C 135.16346,110.56554 130.97235,115.22232 125.80236,115.22232 C 120.63237,115.22232 116.44127,110.56554 116.44127,104.8211 C 116.44127,99.076667 120.63237,94.419885 125.80236,94.419885 C 130.97235,94.419885 135.16346,99.076667 135.16346,104.8211 z "
       style="font-size:12px;fill:#9bb9e3;fill-opacity:1;fill-rule:evenodd;stroke-width:1" /><path
       id="path875"
       d="M 184.49495,103.03803 C 184.49495,108.78247 180.30384,113.43925 175.13385,113.43925 C 169.96386,113.43925 165.77276,108.78247 165.77276,103.03803 C 165.77276,97.293601 169.96386,92.636819 175.13385,92.636819 C 180.30384,92.636819 184.49495,97.293601 184.49495,103.03803 z "
       style="font-size:12px;fill:#9bb9e3;fill-opacity:1;fill-rule:evenodd;stroke-width:1" /><path
       id="path876"
       d="M 147.34774,117.30256 C 147.34774,121.2416 144.28756,124.43482 140.51266,124.43482 C 136.73774,124.43482 133.67757,121.2416 133.67757,117.30256 C 133.67757,113.36352 136.73774,110.17029 140.51266,110.17029 C 144.28756,110.17029 147.34774,113.36352 147.34774,117.30256 z "
       style="font-size:12px;fill:#ffffff;fill-rule:evenodd;stroke-width:1" /><path
       id="path877"
       d="M 167.25864,117.00537 C 167.25864,120.94441 164.19846,124.13763 160.42356,124.13763 C 156.64864,124.13763 153.58848,120.94441 153.58848,117.00537 C 153.58848,113.06633 156.64864,109.8731 160.42356,109.8731 C 164.19846,109.8731 167.25864,113.06633 167.25864,117.00537 z "
       style="font-size:12px;fill:#ffffff;fill-rule:evenodd;stroke-width:1" /><path
       id="path878"
       d="M 153.2913,126.0693 C 153.2913,127.46438 152.16036,128.59532 150.76529,128.59532 C 149.37021,128.59532 148.23928,127.46438 148.23928,126.0693 C 148.23928,124.67422 149.37021,123.54329 150.76529,123.54329 C 152.16036,123.54329 153.2913,124.67422 153.2913,126.0693 z "
       style="font-size:12px;fill:#f55959;fill-rule:evenodd;stroke-width:1" /><path
       id="path880"
       d="M 145.56467,117.00538 C 145.56467,118.81078 144.10111,120.27434 142.29572,120.27434 C 140.49033,120.27434 139.02677,118.81078 139.02677,117.00538 C 139.02677,115.19999 140.49033,113.73643 142.29572,113.73643 C 144.10111,113.73643 145.56467,115.19999 145.56467,117.00538 z "
       style="font-size:12px;fill-rule:evenodd;stroke-width:1" /><path
       id="path881"
       d="M 162.20661,116.41103 C 162.20661,118.21643 160.74305,119.67999 158.93766,119.67999 C 157.13227,119.67999 155.66871,118.21643 155.66871,116.41103 C 155.66871,114.60564 157.13227,113.14208 158.93766,113.14208 C 160.74305,113.14208 162.20661,114.60564 162.20661,116.41103 z "
       style="font-size:12px;fill-rule:evenodd;stroke-width:1" /><path
       id="path882"
       d="M 159.8292,127.10942 C 159.8292,127.10942 178.55139,118.49127 181.52317,119.38281"
       style="fill:none;fill-opacity:1;fill-rule:evenodd;stroke:#3d4e67;stroke-width:1pt;stroke-linecap:butt;stroke-linejoin:miter;stroke-opacity:1" /><path
       id="path883"
       d="M 160.94629,128.50221 C 160.94629,128.50221 181.375,125.7708 183.9532,127.49684"
       style="font-size:12px;fill:none;fill-rule:evenodd;stroke:#3d4e67;stroke-width:1" /><path
       id="path884"
       d="M 139.37658,126.51507 C 139.37658,126.51507 120.65439,117.89692 117.68261,118.78846"
       style="fill:none;fill-opacity:1;fill-rule:evenodd;stroke:#3d4e67;stroke-width:1pt;stroke-linecap:butt;stroke-linejoin:miter;stroke-opacity:1" /><path
       id="path885"
       d="M 138.25949,127.90786 C 138.25949,127.90786 117.83078,125.17645 115.25258,126.90249"
       style="font-size:12px;fill:none;fill-rule:evenodd;stroke:#3d4e67;stroke-width:1" /><path
       id="path889"
       d="M 132.78604,106.75274 C 132.78604,110.60973 129.92544,113.73642 126.39672,113.73642 C 122.868,113.73642 120.0074,110.60973 120.0074,106.75274 C 120.0074,102.89576 122.868,99.76906 126.39672,99.76906 C 129.92544,99.76906 132.78604,102.89576 132.78604,106.75274 z "
       style="font-size:12px;fill:#ff933d;fill-rule:evenodd;stroke-width:1" /><path
       id="path888"
       d="M 181.22599,104.37533 C 181.22599,108.23231 178.36539,111.35901 174.83667,111.35901 C 171.30795,111.35901 168.44735,108.23231 168.44735,104.37533 C 168.44735,100.51835 171.30795,97.391645 174.83667,97.391645 C 178.36539,97.391645 181.22599,100.51835 181.22599,104.37533 z "
       style="font-size:12px;fill:#ff933d;fill-rule:evenodd;stroke-width:1" /><path
       sodipodi:nodetypes="ccccc"
       id="path891"
       d="M 170.5276,160.24476 C 170.5276,167.87664 159.71457,167.82279 151.50823,167.82279 C 143.3019,167.82279 133.08322,167.57946 133.08322,159.94759 C 133.08322,152.31569 142.70755,137.21349 150.91388,137.21349 C 159.12022,137.21349 170.5276,152.61287 170.5276,160.24476 z "
       style="font-size:12px;fill:#ffffff;fill-rule:evenodd;stroke-width:1" /><path
       sodipodi:nodetypes="cc"
       id="path892"
       d="M 143.18725,129.18967 C 144.67314,136.02475 154.48001,139.29371 157.74896,128.89249"
       style="fill:none;fill-opacity:1;fill-rule:evenodd;stroke:#652929;stroke-width:1pt;stroke-linecap:butt;stroke-linejoin:miter;stroke-opacity:1" /></g><g
     id="g2392"
     transform="matrix(0.7913408,0.52775,-0.52775,0.7913408,28.908171,3.0282415)"><path
       id="path684"
       style="font-size:12px;fill:none;stroke:#283d53;stroke-width:5.3499999;stroke-linecap:round"
       d="m 28.40699,28.65262 c 0,0 -22.142951,-6.83269 -17.23787,8.39102 4.90508,15.22371 19.05976,23.25511 19.05976,23.25511" /><path
       id="path683"
       style="font-size:12px;fill:#283d53;fill-rule:evenodd;stroke-width:1"
       d="m 10.21814,44.17174 c 0,0 -6.629124,6.18718 -6.187183,9.72272 0.441942,3.53554 5.303306,9.28079 7.071073,10.60661 2.20971,3.0936 1.32582,1.32583 4.86136,1.76776 6.18718,9.28078 14.14213,15.46798 19.88738,17.67769 C 39.38631,82.62069 86.23215,34.44901 87.99991,30.47154 87.55797,26.93601 84.90634,21.63271 79.16108,18.98106 73.41583,16.3294 61.04146,11.0261 58.83175,12.35192 55.29621,11.0261 39.38631,22.51659 36.73465,25.16824 c -1.76776,-1.76776 -4.86136,-2.20971 -6.62912,-1.76777 -1.76777,0.44194 -7.51302,6.18719 -6.62913,7.51301 0.88388,1.32583 1.76777,2.65166 1.76777,2.65166 z" /><path
       id="path682"
       style="font-size:12px;fill:none;stroke:#ffc93f;stroke-width:1.97011197;stroke-linecap:round"
       d="m 28.40699,28.65262 c 0,0 -22.142951,-6.83269 -17.23787,8.39102 4.90508,15.22371 19.05976,23.25511 19.05976,23.25511" /><path
       id="path676"
       style="font-size:12px;fill:#437caf;fill-rule:evenodd;stroke-width:1"
       d="m 30.64932,32.48851 -3.92407,-1.91795 c 0,0 1.54159,-4.31537 3.78391,-3.3564 2.24232,0.95898 4.48465,2.75705 4.48465,2.75705 z" /><path
       id="path652"
       style="font-size:12px;fill:#437caf;fill-rule:evenodd;stroke-width:1"
       d="m 9.057813,48.52887 c 0,0 -1.302694,2.2285 -0.930494,5.57123 0.930494,2.86519 1.116594,5.25286 9.677151,9.55068 1.86099,2.22848 16.56281,16.39531 18.79599,15.28107 2.2332,-1.11425 46.52479,-47.27584 48.19968,-49.6635 0.18611,-1.4326 0.3722,-3.34274 -1.48879,-3.18356 C 81.45036,26.24397 9.057813,48.52887 9.057813,48.52887 z" /><path
       id="path616"
       style="font-size:12px;fill:#558ada;fill-rule:evenodd;stroke-width:1"
       d="m 9.982833,47.56079 c 0,0 -2.631844,3.15156 -0.39477,5.40267 2.237057,2.25112 25.134037,22.96138 26.318377,22.96138 1.18433,0 46.97832,-47.16087 48.95219,-48.8492 C 86.83251,25.38731 63.40915,14.80707 59.1982,14.91963 54.98726,15.03218 13.00945,44.52179 9.982833,47.56079 z" /><g
       style="fill:#a9e2f5"
       id="g4142"><path
         d="m 40.88076,61.89982 c 0,0 2.23318,3.66109 3.53588,2.70601 1.30269,-0.95506 25.68167,-23.87667 25.12337,-24.99091 -0.55829,-1.11425 -1.86099,-2.54686 -3.16368,-1.91015 -1.30269,0.63672 -24.75117,23.23997 -25.49557,24.19505 z"
         style="font-size:12px;fill:#a9e2f5;fill-rule:evenodd;stroke-width:1"
         id="path653" /><path
         d="m 10.9188,49.80229 3.34979,2.86521 4.28028,-4.13863 -3.72199,-2.22849 z"
         style="font-size:12px;fill:#a9e2f5;fill-rule:evenodd;stroke-width:1"
         id="path660" /><path
         d="m 18.54887,44.70861 3.34978,2.8652 7.25786,-6.52628 -3.72198,-2.2285 z"
         style="font-size:12px;fill:#a9e2f5;fill-rule:evenodd;stroke-width:1"
         id="path661" /><path
         d="m 28.22601,36.74971 3.53589,3.18356 8.00225,-5.7304 -3.16367,-2.70603 z"
         style="font-size:12px;fill:#a9e2f5;fill-rule:evenodd;stroke-width:1"
         id="path662" /><path
         d="m 39.39197,29.58671 3.16367,2.70602 8.00226,-5.25287 -3.16367,-2.54685 z"
         style="font-size:12px;fill:#a9e2f5;fill-rule:evenodd;stroke-width:1"
         id="path663" /><path
         d="m 51.1162,21.94617 3.34978,2.8652 7.81616,-5.7304 -3.34977,-2.54685 z"
         style="font-size:12px;fill:#a9e2f5;fill-rule:evenodd;stroke-width:1"
         id="path664" /><path
         d="m 58.56017,29.26835 6.69956,4.45698 -5.95516,4.93451 -2.7915,-1.27342 1.48881,-3.18355 -5.76909,-3.34274 z"
         style="font-size:12px;fill:#a9e2f5;fill-rule:evenodd;stroke-width:1"
         id="path665" /><path
         d="M 50.9301,31.81519 15.94348,55.85105 c 0,0 17.67941,17.19122 17.8655,16.71369 0.18611,-0.47754 8.74667,-7.00383 8.74667,-7.00383 l -3.72199,-4.13863 28.28707,-25.46846 -1.3027,-1.43261 -6.88567,5.25288 -3.53587,-2.38767 0.93049,-3.18355 z"
         style="font-size:12px;fill:#a9e2f5;fill-rule:evenodd;stroke-width:1"
         id="path666" /><path
         d="M 63.39875,20.19522 80.51986,25.76644 71.9593,37.38642 56.51307,26.7215 z"
         style="font-size:12px;fill:#a9e2f5;fill-rule:evenodd;stroke-width:1"
         id="path667" /></g><g
       style="fill:#558ada;stroke:#558ada"
       id="g4132"><path
         d="M 17.19537,58.8603 C 17.75595,58.62055 55.03456,33.44749 55.03456,33.44749"
         style="font-size:12px;fill:#558ada;fill-rule:evenodd;stroke:#558ada;stroke-width:0.829521"
         id="path668" /><path
         d="M 21.68001,63.17568 56.9966,38.24236"
         style="font-size:12px;fill:#558ada;fill-rule:evenodd;stroke:#558ada;stroke-width:0.829521"
         id="path669" /><path
         d="M 26.16465,67.49106 59.51922,39.20133"
         style="font-size:12px;fill:#558ada;fill-rule:evenodd;stroke:#558ada;stroke-width:0.829521"
         id="path670" /><path
         d="M 21.96031,50.70903 38.77773,68.68978"
         style="font-size:12px;fill:#558ada;fill-rule:evenodd;stroke:#558ada;stroke-width:0.829521"
         id="path671" /><path
         d="M 29.24785,45.43467 39.61859,61.49748"
         style="font-size:12px;fill:#558ada;fill-rule:evenodd;stroke:#558ada;stroke-width:0.829521"
         id="path672" /><path
         d="m 36.53541,41.59878 10.37073,12.7064"
         style="font-size:12px;fill:#558ada;fill-rule:evenodd;stroke:#558ada;stroke-width:0.829521"
         id="path673" /><path
         d="M 41.30034,38.24236 53.9134,47.8321"
         style="font-size:12px;fill:#558ada;fill-rule:evenodd;stroke:#558ada;stroke-width:0.829521"
         id="path674" /><path
         d="m 46.06528,34.64621 10.37074,3.8359"
         style="font-size:12px;fill:#558ada;fill-rule:evenodd;stroke:#558ada;stroke-width:0.829521"
         id="path675" /></g><path
       id="path681"
       style="font-size:12px;fill:#ffffff;fill-rule:evenodd;stroke-width:1"
       d="m 29.6683,27.81352 3.64377,1.91795 c 0,0 -0.28029,0.83909 -0.98102,0.59935 -0.70072,-0.23975 -3.50362,-1.91795 -3.50362,-1.91795 z" /></g></svg>