<?xml version="1.0" encoding="UTF-8" standalone="no"?>
<!-- Created with Sodipodi ("http://www.sodipodi.com/") -->
<svg
   xmlns:dc="http://purl.org/dc/elements/1.1/"
   xmlns:cc="http://creativecommons.org/ns#"
   xmlns:rdf="http://www.w3.org/1999/02/22-rdf-syntax-ns#"
   xmlns:svg="http://www.w3.org/2000/svg"
   xmlns="http://www.w3.org/2000/svg"
   xmlns:xlink="http://www.w3.org/1999/xlink"
   xmlns:sodipodi="http://sodipodi.sourceforge.net/DTD/sodipodi-0.dtd"
   xmlns:inkscape="http://www.inkscape.org/namespaces/inkscape"
   version="1.0"
   x="0"
   y="0"
   width="90"
   height="90"
   id="svg602"
   xml:space="preserve"
   sodipodi:version="0.32"
   sodipodi:docname="bookmark-toolbar.svg"
   sodipodi:docbase="/home/tweenk/dev/GartoonRedux/scalable/apps"
   inkscape:version="0.46+devel"
   inkscape:output_extension="org.inkscape.output.svg.inkscape"><metadata
     id="metadata21"><rdf:RDF><cc:Work
         rdf:about=""><dc:format>image/svg+xml</dc:format><dc:type
           rdf:resource="http://purl.org/dc/dcmitype/StillImage" /></cc:Work></rdf:RDF></metadata><sodipodi:namedview
     id="base"
     inkscape:zoom="2.2833333"
     inkscape:cx="100.55367"
     inkscape:cy="70.245742"
     inkscape:window-width="795"
     inkscape:window-height="724"
     inkscape:window-x="114"
     inkscape:window-y="9"
     inkscape:current-layer="svg602"
     width="90px"
     height="90px"
     showgrid="false" /><defs
     id="defs604"><inkscape:perspective
       sodipodi:type="inkscape:persp3d"
       inkscape:vp_x="0 : 45 : 1"
       inkscape:vp_y="0 : 1000 : 0"
       inkscape:vp_z="90 : 45 : 1"
       inkscape:persp3d-origin="45 : 30 : 1"
       id="perspective27" /><linearGradient
       id="linearGradient5087"><stop
         style="stop-color:#9b9a9a;stop-opacity:1;"
         offset="0"
         id="stop5089" /><stop
         style="stop-color:#9b9a9a;stop-opacity:0;"
         offset="1"
         id="stop5091" /></linearGradient><linearGradient
       id="linearGradient3141"><stop
         style="stop-color:#c2c2c2;stop-opacity:1;"
         offset="0"
         id="stop3143" /><stop
         style="stop-color:#8f8f8f;stop-opacity:0;"
         offset="1"
         id="stop3145" /></linearGradient><linearGradient
       id="linearGradient12147"><stop
         style="stop-color:#ff933d;stop-opacity:1;"
         offset="0"
         id="stop12149" /><stop
         style="stop-color:#ffc93f;stop-opacity:1;"
         offset="1"
         id="stop12151" /></linearGradient><linearGradient
       id="linearGradient11160"><stop
         style="stop-color:#ffffff;stop-opacity:1;"
         offset="0"
         id="stop11162" /><stop
         style="stop-color:#c2c2c2;stop-opacity:1;"
         offset="1"
         id="stop11164" /></linearGradient><linearGradient
       inkscape:collect="always"
       xlink:href="#linearGradient3141"
       id="linearGradient3147"
       x1="4.8357663"
       y1="47.271904"
       x2="58.339417"
       y2="47.271904"
       gradientUnits="userSpaceOnUse"
       gradientTransform="translate(2.189781,-1.7518248)" /><linearGradient
       inkscape:collect="always"
       xlink:href="#linearGradient5087"
       id="linearGradient5093"
       x1="60.711674"
       y1="42.454384"
       x2="84.178833"
       y2="42.01643"
       gradientUnits="userSpaceOnUse"
       gradientTransform="translate(2.189781,-1.7518248)" /><linearGradient
       y2="21.479431"
       x2="68.360306"
       y1="32.868805"
       x1="28.252045"
       spreadMethod="pad"
       gradientTransform="matrix(1.036821,-1.811349e-6,3.827296e-7,0.964487,2.057071e-6,1.075978e-6)"
       gradientUnits="userSpaceOnUse"
       id="linearGradient1115"
       xlink:href="#linearGradient584"
       inkscape:collect="always" /><linearGradient
       y2="95.556686"
       x2="54.929543"
       y1="97.850601"
       x1="24.872091"
       spreadMethod="pad"
       gradientTransform="matrix(1.203807,0,0,0.830698,0.247934,5.950413)"
       gradientUnits="userSpaceOnUse"
       id="linearGradient1094"
       xlink:href="#linearGradient660"
       inkscape:collect="always" /><linearGradient
       y2="83.43174"
       x2="55.602474"
       y1="65.408142"
       x1="77.360474"
       spreadMethod="pad"
       gradientTransform="matrix(1.203807,0,0,0.830698,0.247934,5.950413)"
       gradientUnits="userSpaceOnUse"
       id="linearGradient1093"
       xlink:href="#linearGradient666"
       inkscape:collect="always" /><linearGradient
       y2="95.556686"
       x2="54.929543"
       y1="97.850601"
       x1="24.872091"
       spreadMethod="pad"
       gradientTransform="matrix(1.203807,0,0,0.830698,0.247934,5.950413)"
       gradientUnits="userSpaceOnUse"
       id="linearGradient1092"
       xlink:href="#linearGradient660"
       inkscape:collect="always" /><linearGradient
       y2="83.43174"
       x2="55.602474"
       y1="65.408142"
       x1="77.360474"
       spreadMethod="pad"
       gradientTransform="matrix(1.203807,0,0,0.830698,0.247934,5.950413)"
       gradientUnits="userSpaceOnUse"
       id="linearGradient1091"
       xlink:href="#linearGradient666"
       inkscape:collect="always" /><defs
       id="defs654"><linearGradient
         id="linearGradient666"><stop
           id="stop667"
           offset="0.000000"
           style="stop-color:#a6d7ff;stop-opacity:1;" /><stop
           id="stop668"
           offset="1.000000"
           style="stop-color:#ffffff;stop-opacity:0.396078;" /></linearGradient><linearGradient
         id="linearGradient660"><stop
           id="stop661"
           offset="0.000000"
           style="stop-color:#3882d2;stop-opacity:1;" /><stop
           id="stop662"
           offset="1.000000"
           style="stop-color:#ffffff;stop-opacity:1;" /></linearGradient><linearGradient
         spreadMethod="pad"
         gradientTransform="scale(1.203807,0.830698)"
         gradientUnits="userSpaceOnUse"
         y2="95.556686"
         x2="54.929543"
         y1="97.850601"
         x1="24.872091"
         id="linearGradient663"
         xlink:href="#linearGradient660" /><linearGradient
         spreadMethod="pad"
         gradientTransform="scale(1.203807,0.830698)"
         gradientUnits="userSpaceOnUse"
         y2="83.43174"
         x2="55.602474"
         y1="65.408142"
         x1="77.360474"
         id="linearGradient665"
         xlink:href="#linearGradient666" /></defs><inkscape:perspective
       id="perspective2551"
       inkscape:persp3d-origin="45 : 30 : 1"
       inkscape:vp_z="90 : 45 : 1"
       inkscape:vp_y="0 : 1000 : 0"
       inkscape:vp_x="0 : 45 : 1"
       sodipodi:type="inkscape:persp3d" /></defs><path
     style="opacity:1;color:#000000;fill:url(#linearGradient3147);fill-opacity:1;fill-rule:evenodd;stroke:url(#linearGradient5093);stroke-width:5;stroke-linecap:butt;stroke-linejoin:miter;marker:none;marker-start:none;marker-mid:none;marker-end:none;stroke-miterlimit:4;stroke-dasharray:none;stroke-dashoffset:0;stroke-opacity:1;visibility:visible;display:inline;overflow:visible;enable-background:accumulate"
     d="M 83.868613,7.8832117 C 83.868613,7.8832117 28.686131,7.8832117 19.270073,7.8832117 C 9.8540146,7.8832117 9.5255474,10.729927 9.5255474,17.627737 C 9.5255474,24.525547 9.5255474,66.569343 9.5255474,74.890511 C 9.5255474,83.211679 11.934307,83.156934 17.791971,83.156934 C 23.649635,83.156934 83.430657,83.156934 83.430657,83.156934"
     id="path2168" /><g
     transform="matrix(0.730085,0,0,0.730085,16.944139,14.606534)"
     id="g2212"><path
       style="font-size:12px;fill:#000000;fill-opacity:0.17857098;fill-rule:evenodd;stroke-width:1pt"
       d="m 11.279064,29.160423 c -2.3093081,-0.17759 -3.9524721,2.30932 -3.9968811,3.33079 -1.865206,4.48536 -1.865206,8.43787 -0.799376,12.65676 1.110245,3.19751 1.554342,4.9295 4.2633371,3.99691 -3.6860081,4.97389 -2.9754521,9.14839 -0.7993771,14.12229 l 33.8402071,25.04707 45.56437,-19.98438 -7.72726,-5.32916 -0.39966,-3.46398 4.79623,-1.99845 -5.99528,-3.86364 5.32916,-1.86517 -7.32762,-4.92959 -0.39966,-9.45916 c -0.93267,-0.79941 -29.5769,-17.18661 -31.84183,-18.78541 -2.53139,0.93268 -33.17408,10.12546 -34.50636,10.52512 z"
       id="path819"
       sodipodi:nodetypes="cccccccccccccccc" /><path
       style="font-size:12px;fill:#00043b;fill-rule:evenodd;stroke-width:1pt"
       d="m 7.3790649,28.260423 c -2.309309,-0.17758 -3.952473,2.30932 -3.996882,3.33079 -1.865206,4.48536 -1.865206,8.43788 -0.799376,12.65678 1.110245,3.1975 1.554342,4.92949 4.263343,3.9969 -3.686014,4.9739 -2.975458,9.14839 -0.799383,14.12228 l 33.8402071,25.04707 45.56438,-19.98438 -7.72727,-5.32914 -0.39966,-3.46399 4.79622,-1.99845 -5.99528,-3.86363 5.32916,-1.86518 -7.32761,-4.92959 -0.39965,-9.45917 c -0.93269,-0.7994 -29.57692,-17.18661 -31.84183,-18.7854 -2.53139,0.93267 -33.1740801,10.12546 -34.5063691,10.52511 z"
       id="path690"
       sodipodi:nodetypes="cccccccccccccccc" /><path
       style="font-size:12px;fill:#00660d;fill-rule:evenodd;stroke-width:1pt"
       d="m 39.439304,83.225153 35.089,-16.97114 -5.27475,-3.89882 9.63219,4.58687 z"
       id="path657"
       sodipodi:nodetypes="ccccc" /><path
       style="font-size:12px;fill:url(#linearGradient1094);fill-rule:evenodd;stroke-width:1pt"
       d="m 38.063294,68.318063 -2.52274,10.779 4.12817,3.6694 35.08893,-16.05375 -1.376,-11.00834 z"
       id="path659" /><path
       style="font-size:12px;fill:url(#linearGradient1093);fill-rule:evenodd;stroke-width:1pt"
       d="m 38.063294,68.318063 -2.52274,10.779 4.12817,3.6694 35.08893,-16.05375 -1.376,-11.00834 z"
       id="path664" /><path
       style="font-size:12px;fill:#009414;fill-rule:evenodd;stroke-width:1pt"
       d="m 9.8545149,48.136153 31.4195691,22.934 34.17161,-15.13644 -30.73149,-18.34722 z"
       id="path655" /><path
       style="font-size:12px;fill:#00660d;fill-rule:evenodd;stroke-width:1pt"
       d="m 10.083855,48.136153 c -2.8285251,5.1219 -3.5929901,9.09714 -0.2293401,13.30173 l 30.2728291,22.24596 c -1.91112,-4.05166 -2.21697,-8.10333 1.14674,-12.84304 z"
       id="path656"
       sodipodi:nodetypes="ccccc" /><path
       style="font-size:12px;fill:#a55800;fill-rule:evenodd;stroke-width:1pt"
       d="m 36.241804,66.438293 35.089,-16.97114 -5.27475,-3.89882 9.63219,4.58686 z"
       id="path680"
       sodipodi:nodetypes="ccccc" /><path
       style="font-size:12px;fill:url(#linearGradient1092);fill-rule:evenodd;stroke-width:1pt"
       d="m 34.865794,51.531203 -2.52274,10.77899 4.12817,3.6694 35.08893,-16.05375 -1.376,-11.00834 z"
       id="path681" /><path
       style="font-size:12px;fill:url(#linearGradient1091);fill-rule:evenodd;stroke-width:1pt"
       d="m 34.865794,51.531203 -2.52274,10.77899 4.12817,3.6694 35.08893,-16.05375 -1.376,-11.00834 z"
       id="path682" /><path
       style="font-size:12px;fill:#ff8900;fill-rule:evenodd;stroke-width:1pt"
       d="m 6.6570169,31.349283 31.4195671,22.93401 34.17162,-15.13645 -30.7315,-18.34721 z"
       id="path683" /><path
       style="font-size:12px;fill:#a45800;fill-rule:evenodd;stroke-width:1pt"
       d="m 6.8863569,31.349283 c -2.828526,5.1219 -3.592991,9.09715 -0.22934,13.30174 l 30.2728271,22.24596 c -1.91111,-4.05167 -2.21697,-8.10333 1.14674,-12.84304 z"
       id="path684"
       sodipodi:nodetypes="ccccc" /><path
       style="font-size:12px;fill:none;stroke:#ababab;stroke-width:0.90235901"
       d="m 36.156534,57.837343 25.58008,-11.19125"
       id="path685" /><path
       style="font-size:12px;fill:none;stroke:#afafaf;stroke-width:0.90235901"
       d="m 35.890154,61.301313 25.04706,-10.65831"
       id="path686" /><path
       style="font-size:12px;fill:none;stroke:#bfbfbf;stroke-width:0.90235901"
       d="m 39.620514,75.157133 25.31352,-11.72417"
       id="path687" /><path
       style="font-size:12px;fill:none;stroke:#bdbdbd;stroke-width:0.90235901;stroke-opacity:0.60714297"
       d="m 39.354044,79.154053 23.71481,-10.65832"
       id="path688" /><path
       style="font-size:12px;fill:#bd0000;fill-rule:evenodd;stroke-width:1pt"
       d="m 40.153434,56.238633 0.79941,9.8589 2.39811,-4.79622 3.19751,3.99692 -1.33224,-11.19125 z"
       id="path689" /><g
       id="g1095"
       transform="matrix(0.493722,0,0,0.493722,22.73281,0.566517)"><defs
         id="defs571"><linearGradient
           id="linearGradient584"><stop
             style="stop-color:#ffffff;stop-opacity:0;"
             offset="0.000000"
             id="stop585" /><stop
             style="stop-color:#ffffff;stop-opacity:1;"
             offset="1.000000"
             id="stop586" /></linearGradient></defs><sodipodi:namedview
         id="namedview1101" /><path
         sodipodi:type="arc"
         style="font-size:12px;fill:none;stroke:#000000;stroke-width:8.5;stroke-opacity:0.3"
         id="path589"
         d="m 83.823837,45.390781 a 40.459526,40.459522 0 1 1 -80.9190518,0 40.459526,40.459522 0 1 1 80.9190518,0 z"
         sodipodi:cx="43.364311"
         sodipodi:cy="45.390781"
         sodipodi:rx="40.459526"
         sodipodi:ry="40.459522"
         transform="matrix(0.941981,0,0,0.941981,5.915554,5.37508)" /><path
         sodipodi:type="arc"
         style="font-size:12px;fill:#31baff;fill-rule:evenodd;stroke-width:1pt"
         id="path573"
         d="m 83.823837,45.390781 a 40.459526,40.459522 0 1 1 -80.9190518,0 40.459526,40.459522 0 1 1 80.9190518,0 z"
         sodipodi:cx="43.364311"
         sodipodi:cy="45.390781"
         sodipodi:rx="40.459526"
         sodipodi:ry="40.459522"
         transform="matrix(0.846155,0,0,0.846155,6.256445,5.738268)" /><path
         style="font-size:12px;fill:#e48e6f;fill-rule:evenodd;stroke-width:1pt"
         d="m 28.507,13.4277 5.0005,8.6389 -12.0802,14.964 c 0,0 5.8765,13.7192 10.1312,13.5473 -2.6408,0.5617 -2.6365,11.904 -1.3161,15.4251 4.135,-3.5715 -15.3747,-8.5174 -13.7148,-18.4766 1.6598,-9.9593 0.4862,-12.5098 -4.0785,-5.4553 -4.56468,7.0544 -5.39462,8.9218 -4.97965,5.602 0.41497,-3.3197 -1.00614,-27.895 21.03755,-34.2454 z"
         id="path576"
         sodipodi:nodetypes="ccccccccc" /><path
         style="font-size:12px;fill:#fffcac;fill-rule:evenodd;stroke-width:1pt"
         d="m 30.7077,12.4007 7.0545,9.9593 -13.694,14.5239 c 0,0 9.5443,13.279 9.5443,13.694 0,0.415 -3.7347,10.7892 -3.7347,10.7892 0,0 -13.279,-7.0545 -11.6191,-17.0137 1.6598,-9.9593 0,-13.694 -4.5647,-6.6395 -4.56467,7.0544 -6.63952,13.279 -6.22455,9.9592 0.41497,-3.3197 2.07485,-31.1227 23.23825,-35.2724 z"
         id="path574" /><path
         style="font-size:12px;fill:#ffd87c;fill-rule:evenodd;stroke-width:1pt"
         d="m 28.507,13.4277 5.0005,8.6389 -12.0802,14.964 c 0,0 5.8765,13.7192 10.1312,13.5473 -2.6408,0.5617 -3.8814,6.0944 -2.561,9.6155 -1.4671,-4.4014 -12.4699,-3.9527 -10.81,-13.9119 1.6598,-9.9593 0.0712,-15.6221 -4.4935,-8.5676 -4.56467,7.0544 -6.63952,13.279 -6.22455,9.9592 0.41497,-3.3197 -1.00614,-27.895 21.03755,-34.2454 z"
         id="path575"
         sodipodi:nodetypes="ccccccccc" /><path
         style="font-size:12px;fill:#e48e6f;fill-rule:evenodd;stroke-width:1pt"
         d="m 42.8405,18.697 c 0,0 5.2817,3.8146 -0.5869,9.3897 -5.8686,5.5752 -14.0845,7.6292 -7.0423,11.4437 7.0423,3.8146 16.7254,4.4014 15.8451,-2.3474 -0.8802,-6.7488 -2.0539,-21.1268 -8.2159,-18.486 z"
         id="path577" /><path
         style="font-size:12px;fill:#fffbaa;fill-rule:evenodd;stroke-width:1pt"
         d="m 42.8405,18.697 c 0,0 5.2817,3.8146 -0.5869,9.3897 -5.8686,5.5752 -14.0845,7.6292 -7.0423,11.4437 7.0423,3.8146 16.7254,4.4014 15.8451,-2.3474 -0.8802,-6.7488 -2.0539,-21.1268 -8.2159,-18.486 z"
         id="path578"
         transform="matrix(0.968474,0,0,0.938789,2.198177,1.124868)" /><path
         style="font-size:12px;fill:#ffd87c;fill-rule:evenodd;stroke-width:1pt"
         d="m 42.8405,18.697 c 0,0 5.2817,3.8146 -0.5869,9.3897 -5.8686,5.5752 -14.0845,7.6292 -7.0423,11.4437 7.0423,3.8146 16.7254,4.4014 15.8451,-2.3474 -0.8802,-6.7488 -2.0539,-21.1268 -8.2159,-18.486 z"
         id="path579"
         transform="matrix(0.82661,0,0,0.889821,6.808317,2.024765)" /><path
         style="font-size:12px;fill:#e48e6f;fill-rule:evenodd;stroke-width:1pt"
         d="m 77.1715,47.1595 c 0,0 -14.0845,-2.054 -14.9648,-1.4671 -0.8803,0.5869 -13.2043,1.7606 -12.0305,8.216 1.1737,6.4554 5.2817,11.7371 0,15.5517 -5.2817,3.8145 -11.1503,6.7488 -5.8686,8.5094 5.2817,1.7605 12.6174,-0.2935 14.9648,-2.3475 2.3474,-2.054 -2.6408,-3.2277 -2.054,-9.0962 0.5869,-5.8686 -1.1737,-9.6831 4.9883,-7.6292 6.162,2.054 5.8686,4.4015 9.9765,0 4.108,-4.4014 7.6292,-5.5751 4.9883,-11.7371 z"
         id="path580" /><path
         style="font-size:12px;fill:#fffcac;fill-rule:evenodd;stroke-width:1pt"
         d="m 77.1715,47.1595 c 1.1737,-1.5497 -14.0845,-5.7733 -14.9648,-3.3267 -0.8803,-1.8926 -15.8452,0.8308 -14.6713,7.2861 1.1737,6.4555 6.1619,13.5968 0.8802,17.4114 -5.2817,3.8145 -9.3897,7.6786 -4.108,9.4392 5.2817,1.7605 12.6174,-0.2935 14.9648,-2.3475 2.3474,-2.054 -3.8145,-3.2277 -3.2277,-9.0962 0.5869,-5.8686 0,-11.2328 6.162,-9.1789 6.162,2.054 5.8686,4.4015 9.9765,0 4.108,-4.4014 7.6292,-4.0254 4.9883,-10.1874 z"
         id="path582"
         transform="matrix(1,0,0,0.946729,0,2.428446)"
         sodipodi:nodetypes="cccccccccc" /><path
         style="font-size:12px;fill:#ffd87c;fill-rule:evenodd;stroke-width:1pt"
         d="m 77.1715,47.1595 c 0,0 -14.0845,-2.054 -14.9648,-1.4671 -0.8803,0.5869 -13.2043,1.7606 -12.0305,8.216 1.1737,6.4554 5.2817,11.7371 0,15.5517 -5.2817,3.8145 -11.1503,6.7488 -5.8686,8.5094 5.2817,1.7605 12.6174,-0.2935 14.9648,-2.3475 2.3474,-2.054 -3.8145,-3.2277 -3.2277,-9.0962 0.5869,-5.8686 0,-11.2328 6.162,-9.1789 6.162,2.054 5.8686,4.4015 9.9765,0 4.108,-4.4014 7.6292,-4.0254 4.9883,-10.1874 z"
         id="path581"
         transform="matrix(1,0,0,0.946729,0,2.428446)"
         sodipodi:nodetypes="cccccccccc" /><path
         transform="matrix(0.920224,0,0,0.920224,3.044474,1.961231)"
         style="font-size:12px;fill:none;stroke:#283d53;stroke-width:8.5"
         d="m 83.8238,45.3908 c 0,22.3336 -18.1258,40.4595 -40.4595,40.4595 -22.3336,0 -40.45951,-18.1259 -40.45951,-40.4595 0,-22.3337 18.12591,-40.45954 40.45951,-40.45954 22.3337,0 40.4595,18.12584 40.4595,40.45954 z"
         id="path654" /><path
         transform="matrix(0.933582,-0.664775,0.918324,1.029434,-29.83966,37.88266)"
         style="font-size:12px;fill:url(#linearGradient1115);fill-rule:evenodd;stroke-width:1pt"
         d="m 72.1832,30.4342 c 0,9.7183 -8.4788,17.6056 -18.9261,17.6056 -10.4472,0 -18.926,-7.8873 -18.926,-17.6056 0,-9.7184 8.4788,-17.6057 18.926,-17.6057 10.4473,0 18.9261,7.8873 18.9261,17.6057 z"
         id="path588" /></g></g></svg>