<?xml version="1.0" encoding="UTF-8" standalone="no"?>
<!-- Created with Sodipodi ("http://www.sodipodi.com/") -->
<svg
   xmlns:dc="http://purl.org/dc/elements/1.1/"
   xmlns:cc="http://web.resource.org/cc/"
   xmlns:rdf="http://www.w3.org/1999/02/22-rdf-syntax-ns#"
   xmlns:svg="http://www.w3.org/2000/svg"
   xmlns="http://www.w3.org/2000/svg"
   xmlns:xlink="http://www.w3.org/1999/xlink"
   xmlns:sodipodi="http://sodipodi.sourceforge.net/DTD/sodipodi-0.dtd"
   xmlns:inkscape="http://www.inkscape.org/namespaces/inkscape"
   id="svg604"
   sodipodi:version="0.32"
   width="90"
   height="90"
   sodipodi:docbase="/home/tweenk/GNUtoon/apps"
   sodipodi:docname="epiphany-bookmars.svg"
   inkscape:version="0.45.1"
   inkscape:output_extension="org.inkscape.output.svg.inkscape"
   version="1.0">
  <metadata
     id="metadata35">
    <rdf:RDF>
      <cc:Work
         rdf:about="">
        <dc:format>image/svg+xml</dc:format>
        <dc:type
           rdf:resource="http://purl.org/dc/dcmitype/StillImage" />
      </cc:Work>
    </rdf:RDF>
  </metadata>
  <defs
     id="defs606">
    <defs
       id="defs654">
      <linearGradient
         id="linearGradient666">
        <stop
           style="stop-color:#a6d7ff;stop-opacity:1;"
           offset="0.000000"
           id="stop667" />
        <stop
           style="stop-color:#ffffff;stop-opacity:0.396078;"
           offset="1.000000"
           id="stop668" />
      </linearGradient>
      <linearGradient
         id="linearGradient660">
        <stop
           style="stop-color:#3882d2;stop-opacity:1;"
           offset="0.000000"
           id="stop661" />
        <stop
           style="stop-color:#ffffff;stop-opacity:1;"
           offset="1.000000"
           id="stop662" />
      </linearGradient>
      <linearGradient
         xlink:href="#linearGradient660"
         id="linearGradient663"
         x1="24.872091"
         y1="97.850601"
         x2="54.929543"
         y2="95.556686"
         gradientUnits="userSpaceOnUse"
         gradientTransform="scale(1.203807,0.830698)"
         spreadMethod="pad" />
      <linearGradient
         xlink:href="#linearGradient666"
         id="linearGradient665"
         x1="77.360474"
         y1="65.408142"
         x2="55.602474"
         y2="83.43174"
         gradientUnits="userSpaceOnUse"
         gradientTransform="scale(1.203807,0.830698)"
         spreadMethod="pad" />
    </defs>
    <linearGradient
       inkscape:collect="always"
       xlink:href="#linearGradient666"
       id="linearGradient1091"
       gradientUnits="userSpaceOnUse"
       gradientTransform="matrix(1.203807,0,0,0.830698,0.247934,5.950413)"
       spreadMethod="pad"
       x1="77.360474"
       y1="65.408142"
       x2="55.602474"
       y2="83.43174" />
    <linearGradient
       inkscape:collect="always"
       xlink:href="#linearGradient660"
       id="linearGradient1092"
       gradientUnits="userSpaceOnUse"
       gradientTransform="matrix(1.203807,0,0,0.830698,0.247934,5.950413)"
       spreadMethod="pad"
       x1="24.872091"
       y1="97.850601"
       x2="54.929543"
       y2="95.556686" />
    <linearGradient
       inkscape:collect="always"
       xlink:href="#linearGradient666"
       id="linearGradient1093"
       gradientUnits="userSpaceOnUse"
       gradientTransform="matrix(1.203807,0,0,0.830698,0.247934,5.950413)"
       spreadMethod="pad"
       x1="77.360474"
       y1="65.408142"
       x2="55.602474"
       y2="83.43174" />
    <linearGradient
       inkscape:collect="always"
       xlink:href="#linearGradient660"
       id="linearGradient1094"
       gradientUnits="userSpaceOnUse"
       gradientTransform="matrix(1.203807,0,0,0.830698,0.247934,5.950413)"
       spreadMethod="pad"
       x1="24.872091"
       y1="97.850601"
       x2="54.929543"
       y2="95.556686" />
    <linearGradient
       inkscape:collect="always"
       xlink:href="#linearGradient584"
       id="linearGradient1115"
       gradientUnits="userSpaceOnUse"
       gradientTransform="matrix(1.036821,-1.811349e-6,3.827296e-7,0.964487,2.057071e-6,1.075978e-6)"
       spreadMethod="pad"
       x1="28.252045"
       y1="32.868805"
       x2="68.360306"
       y2="21.479431" />
  </defs>
  <sodipodi:namedview
     id="base"
     inkscape:zoom="4.5222222"
     inkscape:cx="45"
     inkscape:cy="45"
     inkscape:window-width="795"
     inkscape:window-height="619"
     inkscape:window-x="155"
     inkscape:window-y="110"
     inkscape:current-layer="svg604"
     width="90px"
     height="90px" />
  <g
     id="g2212"
     transform="matrix(0.9731973,0,0,0.9731973,0.8752842,1.2145248)">
    <path
       sodipodi:nodetypes="cccccccccccccccc"
       id="path819"
       d="M 11.279064,29.160423 C 8.9697559,28.982833 7.3265919,31.469743 7.2821829,32.491213 C 5.4169769,36.976573 5.4169769,40.929083 6.4828069,45.147973 C 7.5930519,48.345483 8.0371489,50.077473 10.746144,49.144883 C 7.0601359,54.118773 7.7706919,58.293273 9.9467669,63.267173 L 43.786974,88.314243 L 89.351344,68.329863 L 81.624084,63.000703 L 81.224424,59.536723 L 86.020654,57.538273 L 80.025374,53.674633 L 85.354534,51.809463 L 78.026914,46.879873 L 77.627254,37.420713 C 76.694584,36.621303 48.050354,20.234103 45.785424,18.635303 C 43.254034,19.567983 12.611344,28.760763 11.279064,29.160423 z "
       style="font-size:12px;fill:#000000;fill-opacity:0.17857098;fill-rule:evenodd;stroke-width:1pt" />
    <path
       sodipodi:nodetypes="cccccccccccccccc"
       id="path690"
       d="M 7.3790649,28.260423 C 5.0697559,28.082843 3.4265919,30.569743 3.3821829,31.591213 C 1.5169769,36.076573 1.5169769,40.029093 2.5828069,44.247993 C 3.6930519,47.445493 4.1371489,49.177483 6.8461499,48.244893 C 3.1601359,53.218793 3.8706919,57.393283 6.0467669,62.367173 L 39.886974,87.414243 L 85.451354,67.429863 L 77.724084,62.100723 L 77.324424,58.636733 L 82.120644,56.638283 L 76.125364,52.774653 L 81.454524,50.909473 L 74.126914,45.979883 L 73.727264,36.520713 C 72.794574,35.721313 44.150344,19.334103 41.885434,17.735313 C 39.354044,18.667983 8.7113539,27.860773 7.3790649,28.260423 z "
       style="font-size:12px;fill:#00043b;fill-rule:evenodd;stroke-width:1pt" />
    <path
       sodipodi:nodetypes="ccccc"
       id="path657"
       d="M 39.439304,83.225153 L 74.528304,66.254013 L 69.253554,62.355193 L 78.885744,66.942063 L 39.439304,83.225153 z "
       style="font-size:12px;fill:#00660d;fill-rule:evenodd;stroke-width:1pt" />
    <path
       id="path659"
       d="M 38.063294,68.318063 L 35.540554,79.097063 L 39.668724,82.766463 L 74.757654,66.712713 L 73.381654,55.704373 L 38.063294,68.318063 z "
       style="font-size:12px;fill:url(#linearGradient1094);fill-rule:evenodd;stroke-width:1pt" />
    <path
       id="path664"
       d="M 38.063294,68.318063 L 35.540554,79.097063 L 39.668724,82.766463 L 74.757654,66.712713 L 73.381654,55.704373 L 38.063294,68.318063 z "
       style="font-size:12px;fill:url(#linearGradient1093);fill-rule:evenodd;stroke-width:1pt" />
    <path
       id="path655"
       d="M 9.8545149,48.136153 L 41.274084,71.070153 L 75.445694,55.933713 L 44.714204,37.586493 L 9.8545149,48.136153 z "
       style="font-size:12px;fill:#009414;fill-rule:evenodd;stroke-width:1pt" />
    <path
       sodipodi:nodetypes="ccccc"
       id="path656"
       d="M 10.083855,48.136153 C 7.2553299,53.258053 6.4908649,57.233293 9.8545149,61.437883 L 40.127344,83.683843 C 38.216224,79.632183 37.910374,75.580513 41.274084,70.840803 L 10.083855,48.136153 z "
       style="font-size:12px;fill:#00660d;fill-rule:evenodd;stroke-width:1pt" />
    <path
       sodipodi:nodetypes="ccccc"
       id="path680"
       d="M 36.241804,66.438293 L 71.330804,49.467153 L 66.056054,45.568333 L 75.688244,50.155193 L 36.241804,66.438293 z "
       style="font-size:12px;fill:#a55800;fill-rule:evenodd;stroke-width:1pt" />
    <path
       id="path681"
       d="M 34.865794,51.531203 L 32.343054,62.310193 L 36.471224,65.979593 L 71.560154,49.925843 L 70.184154,38.917503 L 34.865794,51.531203 z "
       style="font-size:12px;fill:url(#linearGradient1092);fill-rule:evenodd;stroke-width:1pt" />
    <path
       id="path682"
       d="M 34.865794,51.531203 L 32.343054,62.310193 L 36.471224,65.979593 L 71.560154,49.925843 L 70.184154,38.917503 L 34.865794,51.531203 z "
       style="font-size:12px;fill:url(#linearGradient1091);fill-rule:evenodd;stroke-width:1pt" />
    <path
       id="path683"
       d="M 6.6570169,31.349283 L 38.076584,54.283293 L 72.248204,39.146843 L 41.516704,20.799633 L 6.6570169,31.349283 z "
       style="font-size:12px;fill:#ff8900;fill-rule:evenodd;stroke-width:1pt" />
    <path
       sodipodi:nodetypes="ccccc"
       id="path684"
       d="M 6.8863569,31.349283 C 4.0578309,36.471183 3.2933659,40.446433 6.6570169,44.651023 L 36.929844,66.896983 C 35.018734,62.845313 34.712874,58.793653 38.076584,54.053943 L 6.8863569,31.349283 z "
       style="font-size:12px;fill:#a45800;fill-rule:evenodd;stroke-width:1pt" />
    <path
       id="path685"
       d="M 36.156534,57.837343 L 61.736614,46.646093"
       style="font-size:12px;fill:none;fill-rule:evenodd;stroke:#ababab;stroke-width:0.90235901" />
    <path
       id="path686"
       d="M 35.890154,61.301313 L 60.937214,50.643003"
       style="font-size:12px;fill:none;fill-rule:evenodd;stroke:#afafaf;stroke-width:0.90235901" />
    <path
       id="path687"
       d="M 39.620514,75.157133 L 64.934034,63.432963"
       style="font-size:12px;fill:none;fill-rule:evenodd;stroke:#bfbfbf;stroke-width:0.90235901" />
    <path
       id="path688"
       d="M 39.354044,79.154053 L 63.068854,68.495733"
       style="font-size:12px;fill:none;fill-rule:evenodd;stroke:#bdbdbd;stroke-width:0.90235901;stroke-opacity:0.60714297" />
    <path
       id="path689"
       d="M 40.153434,56.238633 L 40.952844,66.097533 L 43.350954,61.301313 L 46.548464,65.298233 L 45.216224,54.106983 L 40.153434,56.238633 z "
       style="font-size:12px;fill:#bd0000;fill-rule:evenodd;stroke-width:1pt" />
    <g
       transform="matrix(0.493722,0,0,0.493722,22.73281,0.566517)"
       id="g1095">
      <defs
         id="defs571">
        <linearGradient
           id="linearGradient584">
          <stop
             id="stop585"
             offset="0.000000"
             style="stop-color:#ffffff;stop-opacity:0;" />
          <stop
             id="stop586"
             offset="1.000000"
             style="stop-color:#ffffff;stop-opacity:1;" />
        </linearGradient>
      </defs>
      <sodipodi:namedview
         id="namedview1101" />
      <path
         transform="matrix(0.941981,0,0,0.941981,5.915554,5.37508)"
         sodipodi:ry="40.459522"
         sodipodi:rx="40.459526"
         sodipodi:cy="45.390781"
         sodipodi:cx="43.364311"
         d="M 83.823837 45.390781 A 40.459526 40.459522 0 1 1  2.9047852,45.390781 A 40.459526 40.459522 0 1 1  83.823837 45.390781 z"
         id="path589"
         style="font-size:12px;fill:none;fill-rule:evenodd;stroke:#000000;stroke-width:8.5;stroke-opacity:0.3"
         sodipodi:type="arc" />
      <path
         transform="matrix(0.846155,0,0,0.846155,6.256445,5.738268)"
         sodipodi:ry="40.459522"
         sodipodi:rx="40.459526"
         sodipodi:cy="45.390781"
         sodipodi:cx="43.364311"
         d="M 83.823837 45.390781 A 40.459526 40.459522 0 1 1  2.9047852,45.390781 A 40.459526 40.459522 0 1 1  83.823837 45.390781 z"
         id="path573"
         style="font-size:12px;fill:#31baff;fill-rule:evenodd;stroke-width:1pt"
         sodipodi:type="arc" />
      <path
         sodipodi:nodetypes="ccccccccc"
         id="path576"
         d="M 28.507,13.4277 L 33.5075,22.0666 L 21.4273,37.0306 C 21.4273,37.0306 27.3038,50.7498 31.5585,50.5779 C 28.9177,51.1396 28.922,62.4819 30.2424,66.003 C 34.3774,62.4315 14.8677,57.4856 16.5276,47.5264 C 18.1874,37.5671 17.0138,35.0166 12.4491,42.0711 C 7.88442,49.1255 7.05448,50.9929 7.46945,47.6731 C 7.88442,44.3534 6.46331,19.7781 28.507,13.4277 z "
         style="font-size:12px;fill:#e48e6f;fill-rule:evenodd;stroke-width:1pt" />
      <path
         id="path574"
         d="M 30.7077,12.4007 L 37.7622,22.36 L 24.0682,36.8839 C 24.0682,36.8839 33.6125,50.1629 33.6125,50.5779 C 33.6125,50.9929 29.8778,61.3671 29.8778,61.3671 C 29.8778,61.3671 16.5988,54.3126 18.2587,44.3534 C 19.9185,34.3941 18.2587,30.6594 13.694,37.7139 C 9.12933,44.7683 7.05448,50.9929 7.46945,47.6731 C 7.88442,44.3534 9.5443,16.5504 30.7077,12.4007 z "
         style="font-size:12px;fill:#fffcac;fill-rule:evenodd;stroke-width:1pt" />
      <path
         sodipodi:nodetypes="ccccccccc"
         id="path575"
         d="M 28.507,13.4277 L 33.5075,22.0666 L 21.4273,37.0306 C 21.4273,37.0306 27.3038,50.7498 31.5585,50.5779 C 28.9177,51.1396 27.6771,56.6723 28.9975,60.1934 C 27.5304,55.792 16.5276,56.2407 18.1875,46.2815 C 19.8473,36.3222 18.2587,30.6594 13.694,37.7139 C 9.12933,44.7683 7.05448,50.9929 7.46945,47.6731 C 7.88442,44.3534 6.46331,19.7781 28.507,13.4277 z "
         style="font-size:12px;fill:#ffd87c;fill-rule:evenodd;stroke-width:1pt" />
      <path
         id="path577"
         d="M 42.8405,18.697 C 42.8405,18.697 48.1222,22.5116 42.2536,28.0867 C 36.385,33.6619 28.1691,35.7159 35.2113,39.5304 C 42.2536,43.345 51.9367,43.9318 51.0564,37.183 C 50.1762,30.4342 49.0025,16.0562 42.8405,18.697 z "
         style="font-size:12px;fill:#e48e6f;fill-rule:evenodd;stroke-width:1pt" />
      <path
         transform="matrix(0.968474,0,0,0.938789,2.198177,1.124868)"
         id="path578"
         d="M 42.8405,18.697 C 42.8405,18.697 48.1222,22.5116 42.2536,28.0867 C 36.385,33.6619 28.1691,35.7159 35.2113,39.5304 C 42.2536,43.345 51.9367,43.9318 51.0564,37.183 C 50.1762,30.4342 49.0025,16.0562 42.8405,18.697 z "
         style="font-size:12px;fill:#fffbaa;fill-rule:evenodd;stroke-width:1pt" />
      <path
         transform="matrix(0.82661,0,0,0.889821,6.808317,2.024765)"
         id="path579"
         d="M 42.8405,18.697 C 42.8405,18.697 48.1222,22.5116 42.2536,28.0867 C 36.385,33.6619 28.1691,35.7159 35.2113,39.5304 C 42.2536,43.345 51.9367,43.9318 51.0564,37.183 C 50.1762,30.4342 49.0025,16.0562 42.8405,18.697 z "
         style="font-size:12px;fill:#ffd87c;fill-rule:evenodd;stroke-width:1pt" />
      <path
         id="path580"
         d="M 77.1715,47.1595 C 77.1715,47.1595 63.087,45.1055 62.2067,45.6924 C 61.3264,46.2793 49.0024,47.453 50.1762,53.9084 C 51.3499,60.3638 55.4579,65.6455 50.1762,69.4601 C 44.8945,73.2746 39.0259,76.2089 44.3076,77.9695 C 49.5893,79.73 56.925,77.676 59.2724,75.622 C 61.6198,73.568 56.6316,72.3943 57.2184,66.5258 C 57.8053,60.6572 56.0447,56.8427 62.2067,58.8966 C 68.3687,60.9506 68.0753,63.2981 72.1832,58.8966 C 76.2912,54.4952 79.8124,53.3215 77.1715,47.1595 z "
         style="font-size:12px;fill:#e48e6f;fill-rule:evenodd;stroke-width:1pt" />
      <path
         sodipodi:nodetypes="cccccccccc"
         transform="matrix(1,0,0,0.946729,0,2.428446)"
         id="path582"
         d="M 77.1715,47.1595 C 78.3452,45.6098 63.087,41.3862 62.2067,43.8328 C 61.3264,41.9402 46.3615,44.6636 47.5354,51.1189 C 48.7091,57.5744 53.6973,64.7157 48.4156,68.5303 C 43.1339,72.3448 39.0259,76.2089 44.3076,77.9695 C 49.5893,79.73 56.925,77.676 59.2724,75.622 C 61.6198,73.568 55.4579,72.3943 56.0447,66.5258 C 56.6316,60.6572 56.0447,55.293 62.2067,57.3469 C 68.3687,59.4009 68.0753,61.7484 72.1832,57.3469 C 76.2912,52.9455 79.8124,53.3215 77.1715,47.1595 z "
         style="font-size:12px;fill:#fffcac;fill-rule:evenodd;stroke-width:1pt" />
      <path
         sodipodi:nodetypes="cccccccccc"
         transform="matrix(1,0,0,0.946729,0,2.428446)"
         id="path581"
         d="M 77.1715,47.1595 C 77.1715,47.1595 63.087,45.1055 62.2067,45.6924 C 61.3264,46.2793 49.0024,47.453 50.1762,53.9084 C 51.3499,60.3638 55.4579,65.6455 50.1762,69.4601 C 44.8945,73.2746 39.0259,76.2089 44.3076,77.9695 C 49.5893,79.73 56.925,77.676 59.2724,75.622 C 61.6198,73.568 55.4579,72.3943 56.0447,66.5258 C 56.6316,60.6572 56.0447,55.293 62.2067,57.3469 C 68.3687,59.4009 68.0753,61.7484 72.1832,57.3469 C 76.2912,52.9455 79.8124,53.3215 77.1715,47.1595 z "
         style="font-size:12px;fill:#ffd87c;fill-rule:evenodd;stroke-width:1pt" />
      <path
         id="path654"
         d="M 83.8238,45.3908 C 83.8238,67.7244 65.698,85.8503 43.3643,85.8503 C 21.0307,85.8503 2.90479,67.7244 2.90479,45.3908 C 2.90479,23.0571 21.0307,4.93126 43.3643,4.93126 C 65.698,4.93126 83.8238,23.0571 83.8238,45.3908 z "
         style="font-size:12px;fill:none;fill-rule:evenodd;stroke:#283d53;stroke-width:8.5"
         transform="matrix(0.920224,0,0,0.920224,3.044474,1.961231)" />
      <path
         id="path588"
         d="M 72.1832,30.4342 C 72.1832,40.1525 63.7044,48.0398 53.2571,48.0398 C 42.8099,48.0398 34.3311,40.1525 34.3311,30.4342 C 34.3311,20.7158 42.8099,12.8285 53.2571,12.8285 C 63.7044,12.8285 72.1832,20.7158 72.1832,30.4342 z "
         style="font-size:12px;fill:url(#linearGradient1115);fill-rule:evenodd;stroke-width:1pt"
         transform="matrix(0.933582,-0.664775,0.918324,1.029434,-29.83966,37.88266)" />
    </g>
  </g>
</svg>
