<?xml version="1.0" encoding="UTF-8" standalone="no"?>
<!DOCTYPE svg PUBLIC "-//W3C//DTD SVG 20010904//EN"
"http://www.w3.org/TR/2001/REC-SVG-20010904/DTD/svg10.dtd">
<!-- Created with Sodipodi ("http://www.sodipodi.com/") -->
<svg
   version="1"
   x="0.00000000"
   y="0.00000000"
   width="90.0000000"
   height="90.0000000"
   id="svg548"
   sodipodi:version="0.32"
   sodipodi:docname="gnome-fs-ssh.svg"
   sodipodi:docbase="/home/zeus/.icons/gartoon/scalable/filesystems"
   xmlns="http://www.w3.org/2000/svg"
   xmlns:sodipodi="http://sodipodi.sourceforge.net/DTD/sodipodi-0.dtd"
   xmlns:xlink="http://www.w3.org/1999/xlink"
   xmlns:inkscape="http://www.inkscape.org/namespaces/inkscape"
   inkscape:version="0.40"
   xmlns:rdf="http://www.w3.org/1999/02/22-rdf-syntax-ns#"
   xmlns:cc="http://web.resource.org/cc/"
   xmlns:dc="http://purl.org/dc/elements/1.1/">
  <metadata
     id="metadata18">
    <rdf:RDF
       id="RDF19">
      <cc:Work
         rdf:about=""
         id="Work20">
        <dc:format
           id="format21">image/svg+xml</dc:format>
        <dc:type
           id="type23"
           rdf:resource="http://purl.org/dc/dcmitype/StillImage" />
      </cc:Work>
    </rdf:RDF>
  </metadata>
  <sodipodi:namedview
     id="base"
     inkscape:zoom="1.7824983"
     inkscape:cx="38.585203"
     inkscape:cy="39.108043"
     inkscape:window-width="640"
     inkscape:window-height="537"
     inkscape:window-x="5"
     inkscape:window-y="46"
     inkscape:current-layer="svg548" />
  <defs
     id="defs550">
    <linearGradient
       x1="0.00000000"
       y1="0.00000000"
       x2="1.00000000"
       y2="0.00000000"
       id="linearGradient632"
       gradientUnits="objectBoundingBox"
       spreadMethod="pad">
      <stop
         style="stop-color:#ffb700;stop-opacity:1;"
         offset="0.00000000"
         id="stop633" />
      <stop
         style="stop-color:#ffd58f;stop-opacity:0;"
         offset="1.00000000"
         id="stop634" />
    </linearGradient>
    <linearGradient
       x1="0.00000000"
       y1="0.00000000"
       x2="1.00000000"
       y2="0.00000000"
       id="linearGradient556"
       gradientUnits="objectBoundingBox"
       spreadMethod="pad">
      <stop
         style="stop-color:#000000;stop-opacity:1;"
         offset="0.00000000"
         id="stop557" />
      <stop
         style="stop-color:#bdf2ff;stop-opacity:0.384314;"
         offset="1.00000000"
         id="stop558" />
    </linearGradient>
    <linearGradient
       x1="60.6446152"
       y1="19.2956886"
       x2="35.3705750"
       y2="69.1427994"
       id="linearGradient559"
       xlink:href="#linearGradient632"
       gradientUnits="userSpaceOnUse"
       spreadMethod="pad" />
    <linearGradient
       x1="85.6376572"
       y1="17.4438438"
       x2="73.9162979"
       y2="54.6281815"
       id="linearGradient631"
       xlink:href="#linearGradient632"
       gradientUnits="userSpaceOnUse"
       gradientTransform="scale(0.740666,1.350136)"
       spreadMethod="pad" />
    <linearGradient
       inkscape:collect="always"
       xlink:href="#linearGradient718"
       id="linearGradient1117"
       gradientUnits="userSpaceOnUse"
       gradientTransform="scale(1.033999,0.967119)"
       spreadMethod="pad"
       x1="45.4330635"
       y1="41.9262352"
       x2="24.0375099"
       y2="27.2048512" />
    <linearGradient
       inkscape:collect="always"
       xlink:href="#linearGradient724"
       id="linearGradient1118"
       gradientUnits="userSpaceOnUse"
       gradientTransform="scale(1.185464,0.843551)"
       spreadMethod="pad"
       x1="40.2607956"
       y1="39.8445053"
       x2="37.3197212"
       y2="68.6665039" />
    <linearGradient
       inkscape:collect="always"
       xlink:href="#linearGradient584"
       id="linearGradient1119"
       gradientUnits="userSpaceOnUse"
       gradientTransform="matrix(1.036821,-1.811349e-6,3.827296e-7,0.964487,2.057071e-6,1.075978e-6)"
       spreadMethod="pad"
       x1="28.2520447"
       y1="32.8688049"
       x2="68.3603058"
       y2="21.4794312" />
    <defs
       id="defs706">
      <linearGradient
         id="linearGradient734">
        <stop
           style="stop-color:#2a2535;stop-opacity:1;"
           offset="0"
           id="stop735" />
        <stop
           style="stop-color:#e3e1cf;stop-opacity:1;"
           offset="1"
           id="stop736" />
      </linearGradient>
      <linearGradient
         id="linearGradient724">
        <stop
           style="stop-color:#ffffff;stop-opacity:0.4902;"
           offset="0"
           id="stop725" />
        <stop
           style="stop-color:#ffffff;stop-opacity:0.1765;"
           offset="1"
           id="stop726" />
      </linearGradient>
      <linearGradient
         id="linearGradient718">
        <stop
           style="stop-color:#e3e1cf;stop-opacity:1;"
           offset="0"
           id="stop719" />
        <stop
           style="stop-color:#ffffff;stop-opacity:1;"
           offset="1"
           id="stop720" />
      </linearGradient>
      <linearGradient
         x1="45.433064"
         y1="41.926235"
         x2="24.037510"
         y2="27.204851"
         id="linearGradient721"
         xlink:href="#linearGradient718"
         gradientUnits="userSpaceOnUse"
         gradientTransform="scale(1.033999,0.967119)"
         spreadMethod="pad" />
      <linearGradient
         x1="40.260796"
         y1="39.844505"
         x2="37.319721"
         y2="68.666504"
         id="linearGradient723"
         xlink:href="#linearGradient724"
         gradientUnits="userSpaceOnUse"
         gradientTransform="scale(1.185464,0.843551)"
         spreadMethod="pad" />
      <linearGradient
         id="linearGradient732"
         xlink:href="#linearGradient734" />
      <radialGradient
         cx="33.213421"
         cy="118.19096"
         r="14.894540"
         fx="33.213421"
         fy="118.19096"
         id="radialGradient733"
         xlink:href="#linearGradient734"
         gradientUnits="userSpaceOnUse"
         gradientTransform="scale(1.559286,0.641319)"
         spreadMethod="pad" />
      <radialGradient
         id="radialGradient738"
         xlink:href="#linearGradient734" />
    </defs>
    <linearGradient
       inkscape:collect="always"
       xlink:href="#linearGradient718"
       id="linearGradient1174"
       gradientUnits="userSpaceOnUse"
       gradientTransform="scale(1.033999,0.967119)"
       spreadMethod="pad"
       x1="45.4330635"
       y1="41.9262352"
       x2="24.0375099"
       y2="27.2048512" />
    <linearGradient
       inkscape:collect="always"
       xlink:href="#linearGradient724"
       id="linearGradient1175"
       gradientUnits="userSpaceOnUse"
       gradientTransform="scale(1.185464,0.843551)"
       spreadMethod="pad"
       x1="40.2607956"
       y1="39.8445053"
       x2="37.3197212"
       y2="68.6665039" />
  </defs>
  <path
     d="M 32.5076 12.1608 C 32.0388 12.0045 25.3201 7.94201 25.0076 12.942 C 24.6951 17.942 23.7434 54.4234 26.2434 59.4235 C 27.3371 62.5485 30.1496 67.236 35.1496 70.5173 C 39.2121 73.1735 62.9754 88.0916 64.8504 88.2478 C 66.7254 88.4041 70.6317 89.6541 71.4129 84.3416 C 72.1942 79.029 74.9934 64.7445 75.3535 59.0032 C 75.1973 53.847 77.3856 50.4095 72.8268 45.8031 C 69.7018 43.9281 38.2679 19.4101 36.5491 18.3164 C 34.8304 17.2226 33.3974 16.6862 32.5076 12.1608 z "
     transform="matrix(1.418885,-0.200635,0.127692,1.110535,-25.42418,4.539042)"
     style="font-size:12;fill:#000009;fill-opacity:0.301471;fill-rule:evenodd;stroke-width:1pt;"
     id="path783" />
  <path
     d="M 27.3438 9.06248 C 26.875 8.90623 20.1563 4.84373 19.8438 9.84373 C 19.5313 14.8437 21.7948 51.43 24.2948 56.43 C 25.3885 59.555 28.201 64.2425 33.201 67.5238 C 37.2635 70.18 63.75 84.2187 65.625 84.375 C 67.5 84.5312 71.4063 85.7812 72.1875 80.4687 C 72.9688 75.1562 80.0121 45.1117 79.8558 44.018 C 79.6996 38.8617 76.4114 33.4873 74.6927 32.2372 C 71.5677 30.3622 37.2457 8.74632 35.5269 7.65262 C 33.8082 6.55886 28.75 6.87498 27.3438 9.06248 z "
     transform="matrix(1.418885,-0.200635,0.127692,1.110535,-28.98864,5.917244)"
     style="font-size:12;fill:#593a28;fill-rule:evenodd;stroke-width:1pt;"
     id="path554" />
  <path
     d="M 34.7347 11.5278 C 31.8242 11.9203 31.7279 18.5979 27.9688 13.75 C 25.6793 11.7389 22.2842 11.565 22.7529 14.69 C 22.9092 18.2838 23.8556 53.0977 29.6369 59.0352 C 35.2619 66.8477 65.625 80.7812 66.4063 81.25 C 67.1875 81.7187 68.9063 81.5625 69.2188 77.8125 C 69.5313 74.0625 76.8092 46.3935 76.3405 44.6747 C 76.3404 42.0185 75.5592 38.8935 72.7467 36.706 C 69.9342 34.5185 35.6722 11.5278 34.7347 11.5278 z "
     transform="matrix(1.418885,-0.200635,0.127692,1.110535,-28.98864,5.917244)"
     style="font-size:12;fill:#f1e36c;fill-rule:evenodd;stroke-width:1pt;"
     id="path552" />
  <path
     d="M 35.3959 15.4436 C 40.9841 18.8409 71.8791 39.6105 73.1291 42.2667 C 74.3791 44.923 66.7188 75.625 66.7188 76.4062 C 66.7188 77.1875 61.1313 48.9239 58.0063 46.8926 C 54.8813 44.8614 41.631 37.9363 40.381 33.2488 C 39.131 28.5613 31.7315 17.5287 34.1459 14.5061 "
     transform="matrix(1.418885,-0.200635,0.127692,1.110535,-28.98864,5.917244)"
     style="font-size:12;fill:url(#linearGradient631);fill-rule:evenodd;stroke-width:1pt;"
     id="path562" />
  <path
     d="M 65.6315 77.8438 C 61.7252 64.2501 61.1816 55.4139 59.1502 50.7265 C 57.2752 46.6639 56.6502 46.3515 53.8378 44.4766 C 48.994 42.1328 39.4397 36.434 39.2835 34.7152 C 37.0959 34.5589 39.2188 24.375 34.2188 20 C 30.9375 17.1875 22.5 9.8437 22.5 9.8437 L 28.125 10.9375 C 30 12.9687 38.4375 20 39.2188 21.4062 C 40.9375 22.3438 39.4397 29.4027 41.0022 31.7465 C 42.4085 35.6527 56.3377 42.4452 57.4315 43.3827 C 58.5252 44.3202 60.7128 47.4452 61.494 50.414 C 65.0307 63.6693 65.3959 72.4748 65.6315 77.8438 z "
     transform="matrix(1.418885,-0.200635,0.127692,1.110535,-28.98864,5.917244)"
     style="font-size:12;fill:#593a28;fill-rule:evenodd;stroke-width:1pt;"
     id="path553" />
  <path
     d="M 32.2401 16.3592 C 34.0465 17.0528 40.7504 22.4843 42.7984 25.8628 C 43.6822 29.3984 42.4278 36.1872 46.8472 40.1647 C 51.2666 44.1421 62.0666 47.0499 63.6134 50.5854 C 65.1602 54.121 71.1434 74.6929 71.5854 76.6816 C 72.0273 78.6704 38.4557 61.3834 37.3508 56.3011 C 35.6801 51.1165 33.3449 40.666 32.2401 16.3592 z "
     transform="matrix(1.418885,-0.200635,0.127692,1.110535,-42.08894,7.593317)"
     style="font-size:12;fill:url(#linearGradient559);fill-rule:evenodd;stroke-width:1pt;"
     id="path635" />
  <g
     id="g1165"
     transform="matrix(0.566357,0.000000,0.000000,0.559315,-61.42335,59.67538)">
    <path
       d="M 12.545890,66.085180 C 10.539060,63.220300 0.80491900,39.688180 9.1499070,5.5730480 C 43.469380,-1.4688310 73.212380,11.656890 88.653650,21.527390 C 91.804620,28.065330 86.424370,77.181330 74.901300,81.994020 C 67.173840,84.513890 26.738510,83.819250 12.545890,66.085180 z "
       style="font-size:12.000000;fill-opacity:0.29999998;fill-rule:evenodd;stroke-width:1.0000000"
       id="path743"
       transform="translate(112.9033,-33.66062)" />
    <path
       d="M 7.6845350,66.328260 C 5.6777070,63.463380 -4.0564390,39.931270 4.2885490,5.8161300 C 38.608020,-1.2257490 68.351020,11.899970 83.792290,21.770480 C 86.943260,28.308420 81.563020,77.424410 70.039940,82.237100 C 62.312480,84.756970 21.877150,84.062340 7.6845350,66.328260 z "
       style="font-size:12.000000;fill:#211301;fill-rule:evenodd;stroke-width:1.0000000"
       id="path715"
       transform="translate(112.9033,-33.66062)" />
    <path
       d="M 12.305970,64.447910 C 10.671390,61.342460 1.5183720,43.853510 7.7294340,10.183330 C 42.870630,3.8088690 66.243590,17.374990 80.790480,25.547370 C 82.424950,31.431590 77.031130,75.562350 68.204960,78.177510 C 60.686370,80.629280 23.093410,79.158200 12.305970,64.447910 z "
       style="font-size:12.000000;fill:url(#linearGradient1174);fill-rule:evenodd;stroke-width:1.0000000"
       id="path713"
       transform="translate(112.9033,-33.66062)" />
    <path
       d="M 16.065210,20.807450 L 13.450050,21.624630 C 13.123160,24.076400 9.0370150,44.017010 12.959760,52.843180 C 17.536300,60.525170 19.661060,61.996250 19.170770,61.178960 C 13.613450,51.862500 11.815570,37.642500 16.065210,20.807450 z "
       style="font-size:12.000000;fill:#b5a794;fill-rule:evenodd;stroke-width:1.0000000"
       id="path717"
       transform="translate(112.9033,-33.66062)" />
    <path
       d="M 15.825460,20.413060 C 15.825460,20.413060 9.2163810,44.477170 17.689620,59.051030 C 24.129290,68.032720 44.973400,75.150240 62.089400,70.066300 C 65.309290,65.999140 72.596110,43.968720 65.817630,31.767260 C 63.275600,27.530580 32.602530,14.481840 15.825460,20.413060 z "
       style="font-size:12.000000;fill-rule:evenodd;stroke-width:1.0000000"
       id="path711"
       transform="translate(112.9033,-33.66062)" />
    <path
       d="M 14.594240,44.670800 C 14.594240,44.670800 28.160340,26.201170 41.072650,37.969390 C 46.303080,55.458240 65.426400,59.544480 65.426400,59.544480 L 61.667160,68.861050 C 47.447160,73.927980 20.151460,63.467230 18.843880,59.544480 C 17.536300,55.621740 18.516980,61.669350 14.594240,44.670800 z "
       style="font-size:12.000000;fill:url(#linearGradient1175);fill-rule:evenodd;stroke-width:1.0000000"
       id="path722"
       transform="translate(112.9033,-33.66062)" />
    <path
       d="M 81.117370,25.874270 C 81.117370,25.874270 75.723650,26.037770 75.560260,26.037770 C 75.396650,26.037770 76.377440,39.930770 75.723650,44.997700 C 75.069860,50.064520 73.435390,61.996250 72.454700,65.101700 C 71.474010,68.207260 65.753290,78.177510 65.263000,78.831300 C 64.772610,79.485090 66.570590,78.667800 69.349140,77.850620 C 76.867730,69.187840 80.627080,48.430150 81.117370,25.874270 z "
       style="font-size:12.000000;fill:#b5a794;fill-rule:evenodd;stroke-width:1.0000000"
       id="path716"
       transform="translate(112.9033,-33.66062)" />
    <path
       d="M 64.936110,78.504410 C 64.936110,78.504410 77.685020,68.534150 74.416070,26.691560 C 71.637410,23.912900 67.387770,20.807450 67.387770,20.807450 C 67.387770,20.807450 75.560150,24.730190 76.050550,26.037770 C 76.867730,27.835640 77.358020,71.149320 64.936110,78.504410 z "
       style="font-size:12.000000;fill:#211301;fill-rule:evenodd;stroke-width:1.0000000"
       id="path712"
       transform="translate(112.9033,-33.66062)" />
  </g>
</svg>
