<?xml version="1.0" encoding="UTF-8" standalone="no"?>
<!-- Created with Sodipodi ("http://www.sodipodi.com/") -->
<svg
   xmlns:dc="http://purl.org/dc/elements/1.1/"
   xmlns:cc="http://creativecommons.org/ns#"
   xmlns:rdf="http://www.w3.org/1999/02/22-rdf-syntax-ns#"
   xmlns:svg="http://www.w3.org/2000/svg"
   xmlns="http://www.w3.org/2000/svg"
   xmlns:xlink="http://www.w3.org/1999/xlink"
   xmlns:sodipodi="http://sodipodi.sourceforge.net/DTD/sodipodi-0.dtd"
   xmlns:inkscape="http://www.inkscape.org/namespaces/inkscape"
   version="1"
   x="0.00000000"
   y="0.00000000"
   width="90.0000000"
   height="90.0000000"
   id="svg548"
   sodipodi:version="0.32"
   sodipodi:docname="folder-saved-search.svg"
   sodipodi:docbase="/home/tweenk/GNUtoon/places"
   inkscape:version="0.46+devel"
   inkscape:output_extension="org.inkscape.output.svg.inkscape">
  <metadata
     id="metadata19">
    <rdf:RDF>
      <cc:Work
         rdf:about="">
        <dc:format>image/svg+xml</dc:format>
        <dc:type
           rdf:resource="http://purl.org/dc/dcmitype/StillImage" />
      </cc:Work>
    </rdf:RDF>
  </metadata>
  <sodipodi:namedview
     id="base"
     inkscape:zoom="2.2611111"
     inkscape:cx="18.9283"
     inkscape:cy="37.847952"
     inkscape:window-width="795"
     inkscape:window-height="724"
     inkscape:window-x="114"
     inkscape:window-y="9"
     inkscape:current-layer="svg548"
     showgrid="false" />
  <defs
     id="defs550">
    <linearGradient
       id="linearGradient612">
      <stop
         style="stop-color:#7fa8e3;stop-opacity:0.7412;"
         offset="0"
         id="stop613" />
      <stop
         style="stop-color:#ffffff;stop-opacity:0;"
         offset="1"
         id="stop614" />
    </linearGradient>
    <linearGradient
       x1="50.643887"
       y1="5.3679295"
       x2="35.752094"
       y2="68.044357"
       id="linearGradient615"
       xlink:href="#linearGradient612"
       gradientUnits="userSpaceOnUse"
       spreadMethod="pad"
       gradientTransform="matrix(0.947964,0,0,0.947964,16.236234,5.2489137)" />
    <linearGradient
       x1="0.00000000"
       y1="0.00000000"
       x2="1.00000000"
       y2="0.00000000"
       id="linearGradient632"
       gradientUnits="objectBoundingBox"
       spreadMethod="pad">
      <stop
         style="stop-color:#ffb700;stop-opacity:1;"
         offset="0.000000"
         id="stop633" />
      <stop
         style="stop-color:#ffd58f;stop-opacity:0;"
         offset="1.000000"
         id="stop634" />
    </linearGradient>
    <linearGradient
       id="linearGradient559"
       xlink:href="#linearGradient632"
       x1="60.6446152"
       y1="19.2956886"
       x2="35.3705750"
       y2="69.1427994"
       gradientUnits="userSpaceOnUse"
       spreadMethod="pad" />
    <linearGradient
       xlink:href="#linearGradient632"
       id="linearGradient631"
       x1="85.6376572"
       y1="17.4438438"
       x2="73.9162979"
       y2="54.6281815"
       gradientUnits="userSpaceOnUse"
       spreadMethod="pad"
       gradientTransform="scale(0.740666,1.350136)" />
  </defs>
  <path
     d="M 32.5076 12.1608 C 32.0388 12.0045 25.3201 7.94201 25.0076 12.942 C 24.6951 17.942 23.7434 54.4234 26.2434 59.4235 C 27.3371 62.5485 30.1496 67.236 35.1496 70.5173 C 39.2121 73.1735 62.9754 88.0916 64.8504 88.2478 C 66.7254 88.4041 70.6317 89.6541 71.4129 84.3416 C 72.1942 79.029 74.9934 64.7445 75.3535 59.0032 C 75.1973 53.847 77.3856 50.4095 72.8268 45.8031 C 69.7018 43.9281 38.2679 19.4101 36.5491 18.3164 C 34.8304 17.2226 33.3974 16.6862 32.5076 12.1608 z "
     transform="matrix(1.418885,-0.200635,0.127692,1.110535,-25.22021,4.335069)"
     style="font-size:12;fill:#000009;fill-opacity:0.301471;fill-rule:evenodd;stroke-width:1pt;"
     id="path783"
     sodipodi:nodetypes="cccccccccc" />
  <path
     d="M 27.3438 9.06248 C 26.875 8.90623 20.1563 4.84373 19.8438 9.84373 C 19.5313 14.8437 21.7948 51.43 24.2948 56.43 C 25.3885 59.555 28.201 64.2425 33.201 67.5238 C 37.2635 70.18 63.75 84.2187 65.625 84.375 C 67.5 84.5312 71.4063 85.7812 72.1875 80.4687 C 72.9688 75.1562 75.2238 42.4099 75.0675 41.3162 C 74.9113 36.1599 71.1613 32.7225 69.4426 31.4724 C 66.3176 29.5974 36.7188 11.4062 35 10.3125 C 33.2813 9.21873 28.75 6.87498 27.3438 9.06248 z "
     transform="matrix(1.418885,-0.200635,0.127692,1.110535,-28.78467,5.713269)"
     style="font-size:12;fill:#593a28;fill-rule:evenodd;stroke-width:1pt;"
     id="path554"
     sodipodi:nodetypes="cccccccccc" />
  <path
     d="M 30.1918 10.8907 C 30.1918 10.8907 28.125 13.9062 27.9688 13.75 C 25.6793 11.7389 22.2842 11.565 22.7529 14.69 C 22.9092 18.2838 23.8556 53.0977 29.6369 59.0352 C 35.2619 66.8477 65.625 80.7812 66.4063 81.25 C 67.1875 81.7187 68.9063 81.5625 69.2188 77.8125 C 69.5313 74.0625 72.2663 45.7564 71.7976 44.0376 C 71.7975 41.3814 71.0163 38.2564 68.2038 36.0689 C 65.3913 33.8814 31.1293 10.8907 30.1918 10.8907 z "
     transform="matrix(1.418885,-0.200635,0.127692,1.110535,-28.78467,5.713269)"
     style="font-size:12;fill:#f1e36c;fill-rule:evenodd;stroke-width:1pt;"
     id="path552"
     sodipodi:nodetypes="ccccccccc" />
  <path
     d="M 37.1875 21.0937 C 37.1875 21.0937 67.0095 37.8124 68.2595 40.4686 C 69.5095 43.1249 66.7188 75.625 66.7188 76.4062 C 66.7188 77.1875 61.1313 48.9239 58.0063 46.8926 C 54.8813 44.8614 41.631 37.9363 40.381 33.2488 C 39.131 28.5613 39.2188 22.1875 35.9375 20.1562 "
     transform="matrix(1.418885,-0.200635,0.127692,1.110535,-28.78467,5.713269)"
     style="font-size:12;fill:url(#linearGradient631);fill-rule:evenodd;stroke-width:1pt;"
     id="path562"
     sodipodi:nodetypes="cccccc" />
  <path
     d="M 65.6315 77.8438 C 61.7252 64.2501 61.1816 55.4139 59.1502 50.7265 C 57.2752 46.6639 56.6502 46.3515 53.8378 44.4766 C 48.994 42.1328 39.4397 36.434 39.2835 34.7152 C 37.0959 34.5589 39.2188 24.375 34.2188 20 C 30.9375 17.1875 22.5 9.8437 22.5 9.8437 L 28.125 10.9375 C 30 12.9687 38.4375 20 39.2188 21.4062 C 40.9375 22.3438 39.4397 29.4027 41.0022 31.7465 C 42.4085 35.6527 56.3377 42.4452 57.4315 43.3827 C 58.5252 44.3202 60.7128 47.4452 61.494 50.414 C 65.0307 63.6693 65.3959 72.4748 65.6315 77.8438 z "
     transform="matrix(1.418885,-0.200635,0.127692,1.110535,-28.78467,5.713269)"
     style="font-size:12;fill:#593a28;fill-rule:evenodd;stroke-width:1pt;"
     id="path553"
     sodipodi:nodetypes="cccccccccccc" />
  <path
     style="font-size:12;fill:url(#linearGradient559);fill-rule:evenodd;stroke-width:1pt;"
     d="M 32.2401 16.3592 C 34.0465 17.0528 40.7504 22.4843 42.7984 25.8628 C 43.6822 29.3984 42.4278 36.1872 46.8472 40.1647 C 51.2666 44.1421 62.0666 47.0499 63.6134 50.5854 C 65.1602 54.121 71.1434 74.6929 71.5854 76.6816 C 72.0273 78.6704 38.4557 61.3834 37.3508 56.3011 C 35.6801 51.1165 33.3449 40.666 32.2401 16.3592 z "
     id="path635"
     transform="matrix(1.418885,-0.200635,0.127692,1.110535,-41.88497,7.389349)"
     sodipodi:nodetypes="ccccccc" />
  <g
     id="g2576"
     transform="matrix(0.6585495,0,0,0.6585495,-1.0473248,30.700747)">
    <path
       id="path609"
       style="font-size:12px;fill:#3d4e67;fill-rule:evenodd;stroke-width:1"
       d="M 20.646386,86.256259 C 17.190731,86.205979 11.397374,84.108712 10.891525,78.480679 9.107691,72.794377 2.90653,19.049059 5.89886,15.305564 7.445027,12.35835 10.811924,10.194834 16.802245,9.444817 21.703737,8.698905 66.288366,2.869497 69.575949,3.774288 c 3.287685,0.904853 5.877459,1.669982 6.113967,6.207819 -0.243162,2.467883 8.037909,52.805257 9.308334,55.773601 0.606186,3.47688 -0.388893,8.335608 -5.45841,9.936126 -5.069433,1.600485 -54.891553,9.885123 -58.893454,10.564425 z" />
    <path
       id="path608"
       style="font-size:12px;fill:#ffffff;fill-rule:evenodd;stroke-width:1"
       d="m 24.638675,80.29501 c -3.350289,0.439581 -8.004011,1.358538 -8.559879,-3.193848 -2.314703,-10.776627 -7.621922,-53.486911 -3.840282,-60.42777 0.844627,-1.63213 5.430427,-3.847534 15.847389,-4.772369 11.8378,-1.183314 36.127171,-2.982769 38.683195,-2.865879 2.555913,0.116921 3.337854,-0.1707 3.893787,4.381789 -0.225777,4.840026 7.484943,42.701998 7.940469,49.405552 0.354426,4.758756 0.964392,6.780663 -2.163057,7.931103" />
    <path
       id="path636"
       style="font-size:12px;fill:url(#linearGradient615);fill-rule:evenodd;stroke-width:1"
       d="m 13.076685,23.118238 c 0,0 0.301311,-6.458563 8.974585,-7.744714 8.673266,-1.286124 43.02317,-5.669833 43.841615,-3.431814 0.818418,2.238003 1.831677,16.782272 2.084397,17.958857 0.252726,1.176548 -28.825005,11.23805 -36.809619,20.840246 -7.984617,9.602166 -13.576606,17.372097 -13.576606,17.372097 0,0 -4.572245,-33.864993 -4.514372,-44.994672 z" />
    <g
       transform="matrix(1.0016495,0.146782,-0.146782,1.0016495,23.002935,17.863934)"
       style="font-size:12px"
       id="g1271">
      <defs
         id="defs1272">
        <linearGradient
           id="linearGradient621">
          <stop
             style="stop-color:#666565;stop-opacity:1;"
             offset="0"
             id="stop623" />
          <stop
             style="stop-color:#ffffff;stop-opacity:1;"
             offset="1"
             id="stop622" />
        </linearGradient>
        <linearGradient
           id="linearGradient610">
          <stop
             style="stop-color:#666565;stop-opacity:1;"
             offset="0"
             id="stop612" />
          <stop
             style="stop-color:#ffffff;stop-opacity:1;"
             offset="1"
             id="stop611" />
        </linearGradient>
        <defs
           id="defs1283">
          <linearGradient
             x1="0"
             y1="0"
             x2="1"
             y2="0"
             id="linearGradient554"
             xlink:href="#linearGradient610"
             gradientUnits="objectBoundingBox"
             spreadMethod="pad" />
          <linearGradient
             x1="12.9236"
             y1="79.96035"
             x2="8.3357515"
             y2="72.29023"
             id="linearGradient557"
             xlink:href="#linearGradient554"
             gradientUnits="userSpaceOnUse"
             gradientTransform="scale(1.122498,0.89087)"
             spreadMethod="pad" />
          <linearGradient
             x1="7.798367"
             y1="68.656029"
             x2="12.994576"
             y2="78.428917"
             id="linearGradient2592"
             xlink:href="#linearGradient554"
             gradientUnits="userSpaceOnUse"
             gradientTransform="scale(1.122498,0.89087)"
             spreadMethod="pad" />
          <linearGradient
             id="linearGradient563"
             xlink:href="#linearGradient554" />
        </defs>
        <defs
           id="defs573">
          <linearGradient
             x1="0"
             y1="0"
             x2="1"
             y2="0"
             id="linearGradient604"
             xlink:href="#linearGradient621"
             gradientUnits="objectBoundingBox"
             spreadMethod="pad" />
          <linearGradient
             id="linearGradient600">
            <stop
               style="stop-color:#000000;stop-opacity:1;"
               offset="0"
               id="stop601" />
            <stop
               style="stop-color:#ffffff;stop-opacity:1;"
               offset="1"
               id="stop602" />
          </linearGradient>
          <linearGradient
             x1="61.04689"
             y1="28.657213"
             x2="79.628151"
             y2="14.15477"
             id="linearGradient603"
             xlink:href="#linearGradient604"
             gradientUnits="userSpaceOnUse"
             gradientTransform="scale(0.994399,1.005632)"
             spreadMethod="pad" />
        </defs>
      </defs>
      <path
         d="M 48.81122,55.61913 39.40311,47.06217 C 39.31588,46.98283 30.45357,50.30231 26.40083,50.26261 16.98036,50.16918 3.817009,44.17875 2.741079,27.77976 1.890729,14.71088 10.51725,2.547793 26.23738,2.522773 39.15413,2.502398 51.08589,11.9679 49.8154,27.53133 49.2088,35.19649 45.52692,39.62464 46.16072,40.3028 l 10.3121,11.0338 c 1.67569,1.79296 -0.23896,11.03364 -7.6616,4.28253 z"
         style="fill:none;stroke:#000000;stroke-width:4.30358124"
         id="path634" />
      <path
         d="m 47.76238,26.53993 c 0,3.02175 -0.6131,5.90117 -1.72163,8.52057 -0.55426,1.3097 -1.70537,4.57037 -2.60027,5.65485 l 8.3026,11.08066 -0.78685,1.18252 -11.10871,-9.63797 c -1.08448,0.8949 -4.1516,2.82021 -5.4613,3.37447 -2.6194,1.10852 -5.49882,1.72163 -8.52057,1.72163 -12.08699,0 -21.89673,-9.80973 -21.89673,-21.89673 0,-12.08699 9.80974,-21.896733 21.89673,-21.896733 12.087,0 21.89673,9.809743 21.89673,21.896733 z"
         style="fill:none;stroke:#efe16b;stroke-width:3.25"
         id="path620" />
      <path
         d="m 44.24797,38.76775 11.91834,13.30281 c 1.92841,2.74655 -1.1645,6.19535 -4.37187,4.52296 L 38.14389,44.66903 c 0.2607,-2.76584 4.09625,-5.40882 6.10408,-5.90128 z"
         style="fill:#ffc83d;fill-rule:evenodd"
         id="path2603" />
      <path
         d="m 43.86792,39.16621 11.89502,13.11666 c 0.83409,2.11662 -0.53462,-1.44297 -2.29362,2.23907 L 41.29443,41.50412 c 0.02179,-0.85513 0.48208,-1.9203 2.57349,-2.33791 z"
         style="fill:#ff933d;fill-rule:evenodd"
         id="path567" />
      <path
         d="m 40.04615,42.27535 12.65327,12.48017 c 0.51713,0.14775 -0.60624,0.40213 -0.41976,1.70134 C 51.83815,55.8353 38.85772,43.95679 38.85772,43.95679 z"
         style="fill:#ffffff;fill-rule:evenodd"
         id="path568" />
      <ellipse
         sodipodi:ry="18.451067"
         sodipodi:rx="18.451067"
         sodipodi:cy="28.953592"
         sodipodi:cx="29.499611"
         cx="29.499611"
         cy="28.953592"
         rx="18.451067"
         ry="18.451067"
         transform="matrix(1.106369,0,0,1.106369,-7.012474,-6.130595)"
         style="fill:#bae6ff;fill-opacity:0.431;fill-rule:evenodd;stroke-width:1"
         id="path611" />
      <path
         d="m 38.94959,11.01917 c 4.25334,3.03534 7.34957,7.69212 8.27822,13.24924 0.92864,5.55712 -0.48527,10.96758 -3.52061,15.22092 -3.03535,4.25335 -7.69213,7.34957 -13.24925,8.27821 -5.55711,0.92865 -9.21286,-0.19281 -15.22092,-3.5206 m 0,0 c 29.2168,-8.79323 22.0325,-15.93489 23.71256,-33.22777"
         style="fill:#437caf;fill-opacity:0.34479998;fill-rule:evenodd;stroke-width:1"
         id="path610" />
      <path
         d="m 44.19708,38.5588 c -2.0449,0.76964 -1.41633,0.65419 -3.29481,1.86762 -0.10454,0.17099 -1.23455,0.05918 -2.70765,4.31979 l 3.13238,2.80668 c 0.84957,-1.12667 2.09479,-3.17528 2.83341,-3.69175 1.07102,-0.79427 1.60107,-1.20024 3.17135,-1.82809 z"
         style="fill:#ff0000;fill-rule:evenodd;stroke-width:1"
         id="path651" />
      <path
         d="m 41.76381,44.43223 -0.98475,1.40744 -1.89339,-1.57431 0.88755,-1.38681 z"
         style="fill:#ffffff;fill-rule:evenodd;stroke-width:1"
         id="path652" />
    </g>
  </g>
</svg>
