<?xml version="1.0" encoding="UTF-8" standalone="no"?>
<!-- Created with Sodipodi ("http://www.sodipodi.com/") -->
<svg
   xmlns:dc="http://purl.org/dc/elements/1.1/"
   xmlns:cc="http://creativecommons.org/ns#"
   xmlns:rdf="http://www.w3.org/1999/02/22-rdf-syntax-ns#"
   xmlns:svg="http://www.w3.org/2000/svg"
   xmlns="http://www.w3.org/2000/svg"
   xmlns:xlink="http://www.w3.org/1999/xlink"
   xmlns:sodipodi="http://sodipodi.sourceforge.net/DTD/sodipodi-0.dtd"
   xmlns:inkscape="http://www.inkscape.org/namespaces/inkscape"
   version="1.0"
   x="0"
   y="0"
   width="90"
   height="90"
   id="svg1101"
   xml:space="preserve"
   sodipodi:version="0.32"
   inkscape:version="0.46"
   sodipodi:docname="lastfm-recommended.svg"
   inkscape:output_extension="org.inkscape.output.svg.inkscape"><metadata
     id="metadata46"><rdf:RDF><cc:Work
         rdf:about=""><dc:format>image/svg+xml</dc:format><dc:type
           rdf:resource="http://purl.org/dc/dcmitype/StillImage" /></cc:Work></rdf:RDF></metadata><sodipodi:namedview
     inkscape:window-height="724"
     inkscape:window-width="676"
     inkscape:pageshadow="2"
     inkscape:pageopacity="0.0"
     guidetolerance="10.0"
     gridtolerance="10.0"
     objecttolerance="10.0"
     borderopacity="1.0"
     bordercolor="#666666"
     pagecolor="#ffffff"
     id="base"
     showgrid="false"
     inkscape:zoom="2.9444444"
     inkscape:cx="27.495673"
     inkscape:cy="35.92113"
     inkscape:window-x="50"
     inkscape:window-y="1"
     inkscape:current-layer="svg1101" /><defs
     id="defs1103"><linearGradient
       gradientUnits="userSpaceOnUse"
       y2="68.928574"
       x2="58.392857"
       y1="60.357143"
       x1="50.535713"
       id="linearGradient3337"
       xlink:href="#linearGradient3331"
       inkscape:collect="always" /><linearGradient
       gradientUnits="userSpaceOnUse"
       y2="31.428572"
       x2="61.964287"
       y1="12.5"
       x1="50.714287"
       id="linearGradient3329"
       xlink:href="#linearGradient3323"
       inkscape:collect="always" /><linearGradient
       gradientUnits="userSpaceOnUse"
       y2="35"
       x2="31.785715"
       y1="14.285714"
       x1="12.5"
       id="linearGradient3314"
       xlink:href="#linearGradient3308"
       inkscape:collect="always" /><linearGradient
       id="linearGradient3308"
       inkscape:collect="always"><stop
         id="stop3310"
         offset="0"
         style="stop-color:#ffbfbc;stop-opacity:1;" /><stop
         id="stop3312"
         offset="1"
         style="stop-color:#ffbfbc;stop-opacity:0;" /></linearGradient><linearGradient
       id="linearGradient3323"
       inkscape:collect="always"><stop
         id="stop3325"
         offset="0"
         style="stop-color:#ffbfbc;stop-opacity:1;" /><stop
         id="stop3327"
         offset="1"
         style="stop-color:#ffbfbc;stop-opacity:0;" /></linearGradient><linearGradient
       id="linearGradient3331"
       inkscape:collect="always"><stop
         id="stop3333"
         offset="0"
         style="stop-color:#ed0000;stop-opacity:1;" /><stop
         id="stop3335"
         offset="1"
         style="stop-color:#b01911;stop-opacity:1" /></linearGradient><linearGradient
       inkscape:collect="always"
       xlink:href="#linearGradient3331"
       id="linearGradient3391"
       gradientUnits="userSpaceOnUse"
       x1="50.535713"
       y1="60.357143"
       x2="58.392857"
       y2="68.928574" /><linearGradient
       inkscape:collect="always"
       xlink:href="#linearGradient3308"
       id="linearGradient3393"
       gradientUnits="userSpaceOnUse"
       x1="12.5"
       y1="14.285714"
       x2="31.785715"
       y2="35" /><linearGradient
       inkscape:collect="always"
       xlink:href="#linearGradient3323"
       id="linearGradient3395"
       gradientUnits="userSpaceOnUse"
       x1="50.714287"
       y1="12.5"
       x2="61.964287"
       y2="31.428572" /></defs><g
     id="g2414"
     transform="matrix(1.2729465,0,0,1.2729465,-1.0497521,-6.2143388)"><path
       id="path1145"
       style="font-size:12px;fill-rule:evenodd;stroke-width:1"
       d="M 18.782014,48.396589 L 10.582206,75.045939 L 48.506268,55.05892 L 18.782014,48.396589 z" /><path
       id="path1142"
       style="font-size:12px;fill-rule:evenodd"
       d="M 70.543187,33.278203 C 70.543187,48.703823 55.05545,59.158808 35.950327,59.158808 C 16.845202,59.158808 1.357433,48.703823 1.357433,33.278203 C 1.357433,17.852583 16.845204,5.347649 35.950327,5.347649 C 55.055452,5.347649 70.543187,17.852583 70.543187,33.278203 z" /><path
       id="path1143"
       style="font-size:12px;fill:#fffff9;fill-rule:evenodd"
       d="M 64.393339,33.278203 C 64.393339,46.439513 51.658984,57.108859 35.950325,57.108859 C 20.241668,57.108859 7.507275,46.439513 7.507275,33.278203 C 7.507275,20.116893 20.241667,9.447547 35.950325,9.447547 C 51.658982,9.447547 64.393339,20.116893 64.393339,33.278203 z" /><path
       id="path1144"
       style="font-size:12px;fill:#fffff9;fill-rule:evenodd;stroke-width:1"
       d="M 23.394396,53.521455 L 15.707084,68.896067 L 38.769019,54.03394 L 35.694091,50.446527" /></g><g
     id="layer1"
     inkscape:label="Layer 1"
     transform="matrix(0.5762556,0,0,0.5762556,18.564527,12.128639)"><path
       transform="translate(3.3928571,3.2142857)"
       sodipodi:type="inkscape:offset"
       inkscape:radius="4.2857141"
       inkscape:original="M 63.34375 11.0625 C 51.745308 11.062328 45.924796 17.151785 45.125 27.6875 C 45.125 17.330358 39.39083 11.312576 25.46875 11.4375 C 14.285978 11.534639 8.4750369 16.606972 8.5625 32.5 C 8.6667263 51.617714 34.56158 76.623193 44.75 76.4375 C 54.156627 76.266053 81.670896 50.372795 81.5625 32.3125 C 81.467226 16.595653 74.594668 11.062669 63.34375 11.0625 z "
       style="opacity:1;fill:#000000;fill-opacity:0.29411765;fill-rule:evenodd;stroke:none;stroke-width:3;marker:none;marker-start:none;marker-mid:none;marker-end:none;visibility:visible;display:inline;overflow:visible;enable-background:accumulate"
       id="path3343"
       d="M 63.34375,6.78125 C 56.794485,6.7811529 51.20146,8.5788055 47.25,12.3125 C 46.510552,13.011197 45.885765,13.82052 45.28125,14.625 C 44.677655,13.857169 44.097177,13.067017 43.34375,12.40625 C 39.08481,8.6710955 33.021241,7.0882005 25.4375,7.15625 C 19.204657,7.2103915 13.423492,8.7768986 9.5625,13.21875 C 5.7015077,17.660601 4.2346303,24.059925 4.28125,32.53125 C 4.3438564,44.014827 11.506584,55.477523 19.6875,64.5625 C 23.777958,69.104988 28.181988,73.012682 32.40625,75.875 C 36.630512,78.737318 40.480123,80.797711 44.8125,80.71875 C 49.091303,80.640764 52.718779,78.488023 56.9375,75.53125 C 61.156221,72.574477 65.660332,68.556323 69.875,63.96875 C 78.304337,54.793604 85.911083,43.499954 85.84375,32.28125 C 85.792345,23.801233 83.89165,17.295883 79.75,12.875 C 75.60835,8.454117 69.67174,6.7813451 63.34375,6.78125 z" /><path
       d="M 63.34375,6.78125 C 56.794485,6.7811529 51.20146,8.5788055 47.25,12.3125 C 46.510552,13.011197 45.885765,13.82052 45.28125,14.625 C 44.677655,13.857169 44.097177,13.067017 43.34375,12.40625 C 39.08481,8.6710955 33.021241,7.0882005 25.4375,7.15625 C 19.204657,7.2103915 13.423492,8.7768986 9.5625,13.21875 C 5.7015077,17.660601 4.2346303,24.059925 4.28125,32.53125 C 4.3438564,44.014827 11.506584,55.477523 19.6875,64.5625 C 23.777958,69.104988 28.181988,73.012682 32.40625,75.875 C 36.630512,78.737318 40.480123,80.797711 44.8125,80.71875 C 49.091303,80.640764 52.718779,78.488023 56.9375,75.53125 C 61.156221,72.574477 65.660332,68.556323 69.875,63.96875 C 78.304337,54.793604 85.911083,43.499954 85.84375,32.28125 C 85.792345,23.801233 83.89165,17.295883 79.75,12.875 C 75.60835,8.454117 69.67174,6.7813451 63.34375,6.78125 z"
       id="path3341"
       style="opacity:1;fill:#593a28;fill-opacity:1;fill-rule:evenodd;stroke:none;stroke-width:3;marker:none;marker-start:none;marker-mid:none;marker-end:none;visibility:visible;display:inline;overflow:visible;enable-background:accumulate"
       inkscape:original="M 63.34375 11.0625 C 51.745308 11.062328 45.924796 17.151785 45.125 27.6875 C 45.125 17.330358 39.39083 11.312576 25.46875 11.4375 C 14.285978 11.534639 8.4750369 16.606972 8.5625 32.5 C 8.6667263 51.617714 34.56158 76.623193 44.75 76.4375 C 54.156627 76.266053 81.670896 50.372795 81.5625 32.3125 C 81.467226 16.595653 74.594668 11.062669 63.34375 11.0625 z "
       inkscape:radius="4.2857141"
       sodipodi:type="inkscape:offset" /><path
       sodipodi:nodetypes="csscsss"
       id="path2486"
       d="M 44.763186,76.428571 C 34.574767,76.614267 8.6765613,51.617714 8.572335,32.5 C 8.4848721,16.606972 14.270828,11.52571 25.4536,11.428571 C 39.37568,11.303647 45.112781,17.321429 45.112781,27.678571 C 45.912578,17.142857 51.760042,11.071257 63.358484,11.071429 C 74.6094,11.071598 81.45861,16.604582 81.553884,32.321429 C 81.662282,50.381725 54.169813,76.257124 44.763186,76.428571 z"
       style="opacity:1;fill:url(#linearGradient3391);fill-opacity:1;fill-rule:evenodd;stroke:none;stroke-width:3;marker:none;marker-start:none;marker-mid:none;marker-end:none;visibility:visible;display:inline;overflow:visible;enable-background:accumulate" /><path
       id="path3303"
       d="M 25.46875,11.4375 C 14.285978,11.534639 8.4750369,16.606972 8.5625,32.5 C 8.5994301,39.273906 11.863883,46.787942 16.53125,53.65625 C 16.534567,53.661131 16.559182,53.651369 16.5625,53.65625 C 25.722113,49.871245 41.863449,32.844306 44.71875,23.40625 C 43.234694,15.693421 37.344005,11.330943 25.46875,11.4375 z"
       style="opacity:1;fill:url(#linearGradient3393);fill-opacity:1;fill-rule:evenodd;stroke:none;stroke-width:3;marker:none;marker-start:none;marker-mid:none;marker-end:none;visibility:visible;display:inline;overflow:visible;enable-background:accumulate" /><path
       id="path3316"
       d="M 63.34375,11.0625 C 52.532821,11.06234 46.731177,16.345349 45.34375,25.59375 C 44.992868,34.933947 44.926053,39.546102 45.53125,40 C 46.154685,40.467575 73.840172,38.631895 81.46875,29.84375 C 80.684893,16.032294 73.977334,11.062659 63.34375,11.0625 z"
       style="opacity:1;fill:url(#linearGradient3395);fill-opacity:1;fill-rule:evenodd;stroke:none;stroke-width:3;marker:none;marker-start:none;marker-mid:none;marker-end:none;visibility:visible;display:inline;overflow:visible;enable-background:accumulate" /></g></svg>