<?xml version="1.0" encoding="UTF-8" standalone="no"?>
<!-- Created with Sodipodi ("http://www.sodipodi.com/") -->
<svg
   xmlns:dc="http://purl.org/dc/elements/1.1/"
   xmlns:cc="http://creativecommons.org/ns#"
   xmlns:rdf="http://www.w3.org/1999/02/22-rdf-syntax-ns#"
   xmlns:svg="http://www.w3.org/2000/svg"
   xmlns="http://www.w3.org/2000/svg"
   xmlns:xlink="http://www.w3.org/1999/xlink"
   xmlns:sodipodi="http://sodipodi.sourceforge.net/DTD/sodipodi-0.dtd"
   xmlns:inkscape="http://www.inkscape.org/namespaces/inkscape"
   id="svg569"
   sodipodi:version="0.32"
   width="72pt"
   height="72pt"
   sodipodi:docbase="/home/zeus/.icons/gartoon/scalable/filesystems/"
   sodipodi:docname="library-podcast.svg"
   inkscape:version="0.45+devel"
   inkscape:output_extension="org.inkscape.output.svg.inkscape">
  <metadata
     id="metadata24">
    <rdf:RDF>
      <cc:Work
         rdf:about="">
        <dc:format>image/svg+xml</dc:format>
        <dc:type
           rdf:resource="http://purl.org/dc/dcmitype/StillImage" />
      </cc:Work>
    </rdf:RDF>
  </metadata>
  <defs
     id="defs571">
    <linearGradient
       inkscape:collect="always"
       id="linearGradient1862">
      <stop
         style="stop-color:#7a889e;stop-opacity:1;"
         offset="0"
         id="stop1863" />
      <stop
         style="stop-color:#7a889e;stop-opacity:0;"
         offset="1"
         id="stop1864" />
    </linearGradient>
    <linearGradient
       id="linearGradient1755">
      <stop
         style="stop-color:#c2c2c2;stop-opacity:1.0000000;"
         offset="0.0000000"
         id="stop1756" />
      <stop
         style="stop-color:#7e7e7e;stop-opacity:1.0000000;"
         offset="1.0000000"
         id="stop1757" />
    </linearGradient>
    <linearGradient
       inkscape:collect="always"
       id="linearGradient1746">
      <stop
         style="stop-color:#9b9a9a;stop-opacity:1;"
         offset="0"
         id="stop1747" />
      <stop
         style="stop-color:#9b9a9a;stop-opacity:0;"
         offset="1"
         id="stop1748" />
    </linearGradient>
    <linearGradient
       id="linearGradient1742">
      <stop
         style="stop-color:#697689;stop-opacity:1.0000000;"
         offset="0.0000000"
         id="stop1743" />
      <stop
         style="stop-color:#323841;stop-opacity:1.0000000;"
         offset="1.0000000"
         id="stop1744" />
    </linearGradient>
    <radialGradient
       inkscape:collect="always"
       xlink:href="#linearGradient1742"
       id="radialGradient1745"
       gradientTransform="scale(0.784465,1.274755)"
       cx="63.274918"
       cy="45.159443"
       fx="63.274918"
       fy="45.159443"
       r="36.745846"
       gradientUnits="userSpaceOnUse" />
    <linearGradient
       id="linearGradient1773">
      <stop
         style="stop-color:#ffffff;stop-opacity:1.0000000;"
         offset="0.0000000"
         id="stop1774" />
      <stop
         style="stop-color:#c2c2c2;stop-opacity:0;"
         offset="1"
         id="stop1775" />
    </linearGradient>
    <linearGradient
       id="linearGradient1765">
      <stop
         style="stop-color:#b01911;stop-opacity:1"
         offset="0.0000000"
         id="stop1766" />
      <stop
         style="stop-color:#ffc93f;stop-opacity:1"
         offset="1.0000000"
         id="stop1767" />
    </linearGradient>
    <linearGradient
       id="linearGradient1776">
      <stop
         style="stop-color:#ff933d;stop-opacity:1.0000000;"
         offset="0.0000000"
         id="stop1777" />
      <stop
         style="stop-color:#ffc93f;stop-opacity:1.0000000;"
         offset="1.0000000"
         id="stop1778" />
    </linearGradient>
    <linearGradient
       id="linearGradient1867">
      <stop
         style="stop-color:#558ada;stop-opacity:1.0000000;"
         offset="0.0000000"
         id="stop1868" />
      <stop
         style="stop-color:#ffffff;stop-opacity:1.0000000;"
         offset="1.0000000"
         id="stop1869" />
    </linearGradient>
    <linearGradient
       id="linearGradient584">
      <stop
         style="stop-color:#ffffff;stop-opacity:0;"
         offset="0.000000"
         id="stop585" />
      <stop
         style="stop-color:#ffffff;stop-opacity:1;"
         offset="1.000000"
         id="stop586" />
    </linearGradient>
    <linearGradient
       inkscape:collect="always"
       xlink:href="#linearGradient1867"
       id="linearGradient3585"
       gradientUnits="userSpaceOnUse"
       gradientTransform="matrix(0.874475,0,0,1.143544,22.912586,89.817384)"
       x1="33.838795"
       y1="55.787796"
       x2="33.206974"
       y2="61.570423" />
    <linearGradient
       inkscape:collect="always"
       xlink:href="#linearGradient1776"
       id="linearGradient3587"
       gradientUnits="userSpaceOnUse"
       gradientTransform="matrix(1.037713,0,0,0.963658,22.912586,89.817384)"
       x1="20.357403"
       y1="64.732994"
       x2="19.238430"
       y2="55.011913" />
    <linearGradient
       inkscape:collect="always"
       xlink:href="#linearGradient1867"
       id="linearGradient3589"
       gradientUnits="userSpaceOnUse"
       gradientTransform="matrix(0.57735,0,0,1.732051,22.912586,89.817384)"
       x1="65.236572"
       y1="36.108150"
       x2="65.236572"
       y2="40.606052" />
    <linearGradient
       inkscape:collect="always"
       xlink:href="#linearGradient1765"
       id="linearGradient3591"
       gradientUnits="userSpaceOnUse"
       gradientTransform="matrix(0.980206,0,0,1.020194,22.912586,89.817384)"
       x1="47.365814"
       y1="68.037910"
       x2="46.654697"
       y2="36.945923" />
    <linearGradient
       inkscape:collect="always"
       xlink:href="#linearGradient1773"
       id="linearGradient3593"
       gradientUnits="userSpaceOnUse"
       gradientTransform="matrix(1.221261,0,0,0.818826,22.912586,89.817384)"
       x1="28.591198"
       y1="45.317245"
       x2="30.966982"
       y2="57.908516" />
    <radialGradient
       inkscape:collect="always"
       xlink:href="#linearGradient1742"
       id="radialGradient3595"
       gradientUnits="userSpaceOnUse"
       gradientTransform="scale(0.784465,1.274755)"
       cx="63.274918"
       cy="45.159443"
       fx="63.274918"
       fy="45.159443"
       r="36.745846" />
    <linearGradient
       inkscape:collect="always"
       xlink:href="#linearGradient1746"
       id="linearGradient3597"
       gradientUnits="userSpaceOnUse"
       gradientTransform="matrix(0.826445,0,0,1.210002,22.912586,89.817384)"
       x1="69.968788"
       y1="46.796841"
       x2="69.304581"
       y2="26.938019" />
    <linearGradient
       inkscape:collect="always"
       xlink:href="#linearGradient1755"
       id="linearGradient3599"
       gradientUnits="userSpaceOnUse"
       gradientTransform="scale(0.7698,1.299038)"
       x1="85.628265"
       y1="28.431770"
       x2="84.307259"
       y2="34.954239" />
    <radialGradient
       inkscape:collect="always"
       xlink:href="#linearGradient1755"
       id="radialGradient3601"
       gradientUnits="userSpaceOnUse"
       gradientTransform="scale(0.7698,1.299038)"
       cx="74.074181"
       cy="33.478851"
       fx="73.597748"
       fy="33.670494"
       r="14.731020" />
    <radialGradient
       inkscape:collect="always"
       xlink:href="#linearGradient1862"
       id="radialGradient3603"
       gradientUnits="userSpaceOnUse"
       gradientTransform="scale(0.791148,1.263986)"
       cx="103.42607"
       cy="32.260498"
       fx="103.42607"
       fy="32.260498"
       r="42.612907" />
    <linearGradient
       inkscape:collect="always"
       xlink:href="#linearGradient584"
       id="linearGradient3660"
       gradientUnits="userSpaceOnUse"
       gradientTransform="matrix(1.036821,-1.811349e-6,3.827296e-7,0.964487,2.057071e-6,1.075978e-6)"
       spreadMethod="pad"
       x1="28.2520447"
       y1="32.8688049"
       x2="68.3603058"
       y2="21.4794312" />
  </defs>
  <sodipodi:namedview
     id="base"
     showgrid="false"
     inkscape:zoom="3.9126575"
     inkscape:cx="65.330537"
     inkscape:cy="34.739465"
     inkscape:window-width="964"
     inkscape:window-height="708"
     inkscape:window-x="0"
     inkscape:window-y="1"
     inkscape:current-layer="svg569" />
  <g
     id="g3643"
     transform="translate(-0.7667423,-10.223231)">
    <path
       transform="matrix(0.754176,0,0,0.754176,13.7671,13.54871)"
       sodipodi:ry="40.459522"
       sodipodi:rx="40.459526"
       sodipodi:cy="45.390781"
       sodipodi:cx="43.364311"
       d="M 83.823837,45.390781 A 40.459526,40.459522 0 1 1 2.9047852,45.390781 A 40.459526,40.459522 0 1 1 83.823837,45.390781 z"
       id="path589"
       style="font-size:12px;fill:none;fill-rule:evenodd;stroke:#000000;stroke-width:8.5;stroke-opacity:0.3"
       sodipodi:type="arc" />
    <path
       transform="matrix(0.677455,0,0,0.677455,14.04003,13.83949)"
       sodipodi:ry="40.459522"
       sodipodi:rx="40.459526"
       sodipodi:cy="45.390781"
       sodipodi:cx="43.364311"
       d="M 83.823837,45.390781 A 40.459526,40.459522 0 1 1 2.9047852,45.390781 A 40.459526,40.459522 0 1 1 83.823837,45.390781 z"
       id="path573"
       style="font-size:12px;fill:#31baff;fill-rule:evenodd;stroke-width:1pt"
       sodipodi:type="arc" />
    <path
       transform="matrix(0.800627,0,0,0.800627,9.030947,9.245272)"
       sodipodi:nodetypes="ccccccccc"
       id="path576"
       d="M 28.507,13.4277 L 33.5075,22.0666 L 21.4273,37.0306 C 21.4273,37.0306 27.3038,50.7498 31.5585,50.5779 C 28.9177,51.1396 28.922,62.4819 30.2424,66.003 C 34.3774,62.4315 14.8677,57.4856 16.5276,47.5264 C 18.1874,37.5671 17.0138,35.0166 12.4491,42.0711 C 7.88442,49.1255 7.05448,50.9929 7.46945,47.6731 C 7.88442,44.3534 6.46331,19.7781 28.507,13.4277 z"
       style="font-size:12px;fill:#e48e6f;fill-rule:evenodd;stroke-width:1pt" />
    <path
       transform="matrix(0.800627,0,0,0.800627,9.030947,9.245272)"
       id="path574"
       d="M 30.7077,12.4007 L 37.7622,22.36 L 24.0682,36.8839 C 24.0682,36.8839 33.6125,50.1629 33.6125,50.5779 C 33.6125,50.9929 29.8778,61.3671 29.8778,61.3671 C 29.8778,61.3671 16.5988,54.3126 18.2587,44.3534 C 19.9185,34.3941 18.2587,30.6594 13.694,37.7139 C 9.12933,44.7683 7.05448,50.9929 7.46945,47.6731 C 7.88442,44.3534 9.5443,16.5504 30.7077,12.4007 z"
       style="font-size:12px;fill:#fffcac;fill-rule:evenodd;stroke-width:1pt" />
    <path
       transform="matrix(0.800627,0,0,0.800627,9.030947,9.245272)"
       sodipodi:nodetypes="ccccccccc"
       id="path575"
       d="M 28.507,13.4277 L 33.5075,22.0666 L 21.4273,37.0306 C 21.4273,37.0306 27.3038,50.7498 31.5585,50.5779 C 28.9177,51.1396 27.6771,56.6723 28.9975,60.1934 C 27.5304,55.792 16.5276,56.2407 18.1875,46.2815 C 19.8473,36.3222 18.2587,30.6594 13.694,37.7139 C 9.12933,44.7683 7.05448,50.9929 7.46945,47.6731 C 7.88442,44.3534 6.46331,19.7781 28.507,13.4277 z"
       style="font-size:12px;fill:#ffd87c;fill-rule:evenodd;stroke-width:1pt" />
    <path
       transform="matrix(0.800627,0,0,0.800627,9.030947,9.245272)"
       id="path577"
       d="M 42.8405,18.697 C 42.8405,18.697 48.1222,22.5116 42.2536,28.0867 C 36.385,33.6619 28.1691,35.7159 35.2113,39.5304 C 42.2536,43.345 51.9367,43.9318 51.0564,37.183 C 50.1762,30.4342 49.0025,16.0562 42.8405,18.697 z"
       style="font-size:12px;fill:#e48e6f;fill-rule:evenodd;stroke-width:1pt" />
    <path
       transform="matrix(0.775387,0,0,0.75162,10.79087,10.14587)"
       id="path578"
       d="M 42.8405,18.697 C 42.8405,18.697 48.1222,22.5116 42.2536,28.0867 C 36.385,33.6619 28.1691,35.7159 35.2113,39.5304 C 42.2536,43.345 51.9367,43.9318 51.0564,37.183 C 50.1762,30.4342 49.0025,16.0562 42.8405,18.697 z"
       style="font-size:12px;fill:#fffbaa;fill-rule:evenodd;stroke-width:1pt" />
    <path
       transform="matrix(0.661806,0,0,0.712415,14.48187,10.86636)"
       id="path579"
       d="M 42.8405,18.697 C 42.8405,18.697 48.1222,22.5116 42.2536,28.0867 C 36.385,33.6619 28.1691,35.7159 35.2113,39.5304 C 42.2536,43.345 51.9367,43.9318 51.0564,37.183 C 50.1762,30.4342 49.0025,16.0562 42.8405,18.697 z"
       style="font-size:12px;fill:#ffd87c;fill-rule:evenodd;stroke-width:1pt" />
    <path
       transform="matrix(0.800627,0,0,0.800627,9.030947,9.245272)"
       id="path580"
       d="M 77.1715,47.1595 C 77.1715,47.1595 63.087,45.1055 62.2067,45.6924 C 61.3264,46.2793 49.0024,47.453 50.1762,53.9084 C 51.3499,60.3638 55.4579,65.6455 50.1762,69.4601 C 44.8945,73.2746 39.0259,76.2089 44.3076,77.9695 C 49.5893,79.73 56.925,77.676 59.2724,75.622 C 61.6198,73.568 56.6316,72.3943 57.2184,66.5258 C 57.8053,60.6572 56.0447,56.8427 62.2067,58.8966 C 68.3687,60.9506 68.0753,63.2981 72.1832,58.8966 C 76.2912,54.4952 79.8124,53.3215 77.1715,47.1595 z"
       style="font-size:12px;fill:#e48e6f;fill-rule:evenodd;stroke-width:1pt" />
    <path
       sodipodi:nodetypes="cccccccccc"
       transform="matrix(0.800627,0,0,0.757977,9.030947,11.18955)"
       id="path582"
       d="M 77.1715,47.1595 C 78.3452,45.6098 63.087,41.3862 62.2067,43.8328 C 61.3264,41.9402 46.3615,44.6636 47.5354,51.1189 C 48.7091,57.5744 53.6973,64.7157 48.4156,68.5303 C 43.1339,72.3448 39.0259,76.2089 44.3076,77.9695 C 49.5893,79.73 56.925,77.676 59.2724,75.622 C 61.6198,73.568 55.4579,72.3943 56.0447,66.5258 C 56.6316,60.6572 56.0447,55.293 62.2067,57.3469 C 68.3687,59.4009 68.0753,61.7484 72.1832,57.3469 C 76.2912,52.9455 79.8124,53.3215 77.1715,47.1595 z"
       style="font-size:12px;fill:#fffcac;fill-rule:evenodd;stroke-width:1pt" />
    <path
       sodipodi:nodetypes="cccccccccc"
       transform="matrix(0.800627,0,0,0.757977,9.030947,11.18955)"
       id="path581"
       d="M 77.1715,47.1595 C 77.1715,47.1595 63.087,45.1055 62.2067,45.6924 C 61.3264,46.2793 49.0024,47.453 50.1762,53.9084 C 51.3499,60.3638 55.4579,65.6455 50.1762,69.4601 C 44.8945,73.2746 39.0259,76.2089 44.3076,77.9695 C 49.5893,79.73 56.925,77.676 59.2724,75.622 C 61.6198,73.568 55.4579,72.3943 56.0447,66.5258 C 56.6316,60.6572 56.0447,55.293 62.2067,57.3469 C 68.3687,59.4009 68.0753,61.7484 72.1832,57.3469 C 76.2912,52.9455 79.8124,53.3215 77.1715,47.1595 z"
       style="font-size:12px;fill:#ffd87c;fill-rule:evenodd;stroke-width:1pt" />
    <path
       id="path654"
       d="M 83.8238,45.3908 C 83.8238,67.7244 65.698,85.8503 43.3643,85.8503 C 21.0307,85.8503 2.90479,67.7244 2.90479,45.3908 C 2.90479,23.0571 21.0307,4.93126 43.3643,4.93126 C 65.698,4.93126 83.8238,23.0571 83.8238,45.3908 z"
       style="font-size:12px;fill:none;fill-rule:evenodd;stroke:#283d53;stroke-width:8.5"
       transform="matrix(0.736756,0,0,0.736756,11.46844,10.81549)" />
    <path
       transform="matrix(0.747451,-0.532237,0.735235,0.824193,-14.8595,39.57516)"
       id="path588"
       d="M 72.1832,30.4342 C 72.1832,40.1525 63.7044,48.0398 53.2571,48.0398 C 42.8099,48.0398 34.3311,40.1525 34.3311,30.4342 C 34.3311,20.7158 42.8099,12.8285 53.2571,12.8285 C 63.7044,12.8285 72.1832,20.7158 72.1832,30.4342 z"
       style="font-size:12px;fill:url(#linearGradient3660);fill-rule:evenodd;stroke-width:1pt" />
    <path
       sodipodi:nodetypes="ccccc"
       id="path1066"
       d="M 72.701,17.3918 C 78.866,18.6809 86.6325,20.3152 88.2965,29.1009 C 87.5137,38.4186 69.472,47.1293 46.2776,47.1293 C 23.0832,47.1293 4.25867,39.0526 4.25867,29.1009 C 4.82498,20.9309 10.8693,17.4523 17.3592,17.02"
       style="font-size:12px;fill:none;fill-rule:evenodd;stroke:#000000;stroke-width:3.75"
       transform="matrix(0.976813,0.596147,-0.310505,0.607309,9.115366,-0.119572)" />
    <path
       sodipodi:nodetypes="ccccc"
       id="path1067"
       d="M 75.9724,18.7286 C 82.1374,20.0177 86.6325,20.3152 88.2965,29.1009 C 87.5137,38.4186 69.472,47.1293 46.2776,47.1293 C 23.0832,47.1293 4.25867,39.0526 4.25867,29.1009 C 4.82498,20.9309 9.48119,19.3619 15.9711,18.9296"
       style="font-size:12px;fill:none;fill-rule:evenodd;stroke:#000000;stroke-width:3.75"
       transform="matrix(1.010367,-0.414862,0.28842,0.590484,-9.398251,49.84187)" />
  </g>
  <g
     id="g3605"
     transform="matrix(0.7841053,0,0,0.7841053,-20.788642,-47.21448)">
    <path
       sodipodi:nodetypes="cccccccccccccc"
       id="path1875"
       d="M 85.537586,101.84863 C 74.820064,102.89782 67.029523,113.44101 65.412586,127.16113 C 65.220273,127.3362 57.055195,132.25948 52.635778,133.14337 C 48.21636,134.02725 40.282987,134.46475 37.631336,135.34863 C 27.466676,140.43096 32.095802,156.79962 35.631336,158.56738 C 39.829783,161.66098 42.924006,161.88877 48.006336,161.00488 L 51.756336,170.50488 C 53.303132,172.71459 57.943994,173.37766 61.037586,173.59863 C 65.457004,172.27281 69.006336,171.58515 69.006336,169.81738 C 69.006337,168.04962 69.883557,165.83959 69.662586,163.62988 C 73.46148,164.89618 77.438817,165.89274 80.881336,166.72363 C 85.110771,169.68536 89.828568,171.28755 94.631336,170.81738 C 108.22622,169.48653 117.20406,152.94392 114.69384,133.91113 C 112.18362,114.87835 99.132474,100.51778 85.537586,101.84863 z"
       style="fill:#000000;fill-opacity:0.39215686;fill-rule:nonzero;stroke:none;stroke-width:7.5;stroke-linecap:round;stroke-linejoin:round;stroke-miterlimit:4;stroke-opacity:1" />
    <path
       sodipodi:nodetypes="cccccccccccccc"
       id="path1859"
       d="M 82.100086,97.473634 C 71.382564,98.522816 63.592023,109.06601 61.975086,122.78613 C 61.782773,122.9612 53.617695,127.88448 49.198278,128.76837 C 44.77886,129.65225 36.845487,130.08975 34.193836,130.97363 C 24.029176,136.05596 28.658302,152.42462 32.193836,154.19238 C 36.392283,157.28598 39.486506,157.51377 44.568836,156.62988 L 48.318836,166.12988 C 49.865632,168.33959 54.506494,169.00266 57.600086,169.22363 C 62.019504,167.89781 65.568836,167.21015 65.568836,165.44238 C 65.568837,163.67462 66.446057,161.46459 66.225086,159.25488 C 70.02398,160.52118 74.001317,161.51774 77.443836,162.34863 C 81.673271,165.31036 86.391068,166.91255 91.193836,166.44238 C 104.78872,165.11153 113.76656,148.56892 111.25634,129.53613 C 108.74612,110.50335 95.694974,96.142775 82.100086,97.473634 z"
       style="fill:#000000;fill-opacity:1;fill-rule:nonzero;stroke:none;stroke-width:7.5;stroke-linecap:round;stroke-linejoin:round;stroke-miterlimit:4;stroke-opacity:1" />
    <path
       id="path1119"
       d="M 56.573206,154.22129 L 56.923838,165.44149 L 50.612471,164.74023 L 47.80742,153.52002 L 56.573206,154.22129 z"
       style="fill:url(#linearGradient3585);fill-opacity:1;fill-rule:evenodd;stroke:none;stroke-width:0.25pt;stroke-linecap:butt;stroke-linejoin:miter;stroke-opacity:1" />
    <path
       sodipodi:nodetypes="ccccccc"
       id="path1118"
       d="M 51.33291,132.63097 C 51.33291,132.63097 41.496053,132.13151 39.742896,132.83277 C 35.645989,132.98716 33.782161,134.71559 32.547647,137.52064 C 30.760704,140.9886 32.288325,150.25386 34.483424,151.41624 C 35.905126,152.91007 36.731483,152.81876 40.794791,153.16939 C 46.404894,153.52002 54.820049,153.87066 54.820049,153.87066 L 51.33291,132.63097 z"
       style="fill:url(#linearGradient3587);fill-opacity:1;fill-rule:evenodd;stroke:none;stroke-width:0.25pt;stroke-linecap:butt;stroke-linejoin:miter;stroke-opacity:1" />
    <path
       id="path1120"
       d="M 58.676995,153.16939 L 58.326364,164.3896 L 62.533941,163.68834 L 62.533941,151.76687 L 58.676995,153.16939 z"
       style="fill:url(#linearGradient3589);fill-opacity:1;fill-rule:evenodd;stroke:none;stroke-width:0.25pt;stroke-linecap:butt;stroke-linejoin:miter;stroke-opacity:1" />
    <path
       sodipodi:nodetypes="ccccccc"
       id="path1117"
       d="M 71.299728,116.70372 C 71.299728,116.70372 68.513851,122.13577 60.780784,127.55869 C 52.71626,131.76626 48.508683,132.48214 48.508683,132.48214 C 48.508683,132.48214 42.851098,143.62016 49.805288,153.70264 C 63.609576,155.94066 71.381907,154.30803 85.056534,161.32066 C 89.781841,156.95329 89.181932,153.16939 89.181932,153.16939 L 71.299728,116.70372 z"
       style="fill:url(#linearGradient3591);fill-opacity:1;fill-rule:evenodd;stroke:none;stroke-width:0.25pt;stroke-linecap:butt;stroke-linejoin:miter;stroke-opacity:1" />
    <path
       sodipodi:nodetypes="ccccc"
       id="path1768"
       d="M 66.193836,126.22363 C 66.193836,126.22363 55.178211,133.25488 49.318836,133.41113 L 48.225086,139.03613 C 48.225086,139.03613 62.990711,130.36426 66.506336,135.44238 C 68.537586,133.87988 66.193836,126.22363 66.193836,126.22363 z"
       style="fill:url(#linearGradient3593);fill-opacity:1;fill-rule:evenodd;stroke:none;stroke-width:0.25pt;stroke-linecap:butt;stroke-linejoin:miter;stroke-opacity:1" />
    <path
       transform="matrix(1.328797,-0.138292,0.150988,1.217067,-6.8768839,89.786464)"
       d="M 81.3465,42.138805 A 15.427784,25.07015 0 1 1 50.490932,42.138805 A 15.427784,25.07015 0 1 1 81.3465,42.138805 z"
       sodipodi:ry="25.07015"
       sodipodi:rx="15.427784"
       sodipodi:cy="42.138805"
       sodipodi:cx="65.918716"
       id="path1116"
       style="fill:#383e49;fill-opacity:1;fill-rule:nonzero;stroke:none;stroke-width:7.5;stroke-linecap:round;stroke-linejoin:round;stroke-miterlimit:4;stroke-opacity:1"
       sodipodi:type="arc" />
    <path
       transform="matrix(0.993606,-0.112901,0.112901,0.993606,18.576558,97.529064)"
       d="M 81.3465,42.138805 A 15.427784,25.07015 0 1 1 50.490932,42.138805 A 15.427784,25.07015 0 1 1 81.3465,42.138805 z"
       sodipodi:ry="25.07015"
       sodipodi:rx="15.427784"
       sodipodi:cy="42.138805"
       sodipodi:cx="65.918716"
       id="path1115"
       style="fill:url(#radialGradient3595);fill-opacity:1;fill-rule:nonzero;stroke:none;stroke-width:7.5;stroke-linecap:round;stroke-linejoin:round;stroke-miterlimit:4;stroke-opacity:1"
       sodipodi:type="arc" />
    <path
       sodipodi:nodetypes="ccccc"
       id="path1114"
       d="M 86.026249,125.20653 C 82.169303,125.9078 77.78641,131.60556 73.052885,128.27456 C 73.052885,130.46601 73.315859,142.56279 78.925962,149.04947 C 80.24083,145.01721 82.958224,144.8419 87.341118,143.52703 C 92.249958,142.47513 86.639854,126.95969 86.026249,125.20653 z"
       style="fill:url(#linearGradient3597);fill-opacity:1;fill-rule:evenodd;stroke:none;stroke-width:0.25pt;stroke-linecap:butt;stroke-linejoin:miter;stroke-opacity:1" />
    <path
       transform="matrix(0.897027,-0.128966,0.142307,0.989823,23.145746,98.982087)"
       d="M 70.476925,44.06728 A 5.6101036,9.4670496 0 1 1 59.256718,44.06728 A 5.6101036,9.4670496 0 1 1 70.476925,44.06728 z"
       sodipodi:ry="9.4670496"
       sodipodi:rx="5.6101036"
       sodipodi:cy="44.06728"
       sodipodi:cx="64.866821"
       id="path1113"
       style="fill:url(#linearGradient3599);fill-opacity:1;fill-rule:nonzero;stroke:none;stroke-width:7.5;stroke-linecap:round;stroke-linejoin:round;stroke-miterlimit:4;stroke-opacity:1"
       sodipodi:type="arc" />
    <path
       transform="matrix(0.6254,-8.991402e-2,9.921525e-2,0.690096,42.664276,109.65704)"
       d="M 70.476925,44.06728 A 5.6101036,9.4670496 0 1 1 59.256718,44.06728 A 5.6101036,9.4670496 0 1 1 70.476925,44.06728 z"
       sodipodi:ry="9.4670496"
       sodipodi:rx="5.6101036"
       sodipodi:cy="44.06728"
       sodipodi:cx="64.866821"
       id="path1758"
       style="fill:url(#radialGradient3601);fill-opacity:1;fill-rule:nonzero;stroke:none;stroke-width:7.5;stroke-linecap:round;stroke-linejoin:round;stroke-miterlimit:4;stroke-opacity:1"
       sodipodi:type="arc" />
    <rect
       rx="1.328125"
       ry="1.328125"
       y="135.98926"
       x="34.631336"
       height="2.03125"
       width="9.0625"
       id="rect1855"
       style="fill:#b01911;fill-opacity:1;fill-rule:nonzero;stroke:none;stroke-width:7.5;stroke-linecap:round;stroke-linejoin:round;stroke-miterlimit:4;stroke-opacity:1" />
    <rect
       rx="1.328125"
       ry="1.328125"
       y="139.73926"
       x="34.006336"
       height="2.03125"
       width="9.0625"
       id="rect1856"
       style="fill:#b01911;fill-opacity:1;fill-rule:nonzero;stroke:none;stroke-width:7.5;stroke-linecap:round;stroke-linejoin:round;stroke-miterlimit:4;stroke-opacity:1" />
    <rect
       rx="1.328125"
       ry="1.328125"
       y="143.33301"
       x="34.006336"
       height="2.03125"
       width="9.0625"
       id="rect1854"
       style="fill:#b01911;fill-opacity:1;fill-rule:nonzero;stroke:none;stroke-width:7.5;stroke-linecap:round;stroke-linejoin:round;stroke-miterlimit:4;stroke-opacity:1" />
    <path
       transform="matrix(1.174144,-0.128592,0.133415,1.131696,4.9956061,92.431949)"
       d="M 81.3465,42.138805 A 15.427784,25.07015 0 1 1 50.490932,42.138805 A 15.427784,25.07015 0 1 1 81.3465,42.138805 z"
       sodipodi:ry="25.07015"
       sodipodi:rx="15.427784"
       sodipodi:cy="42.138805"
       sodipodi:cx="65.918716"
       id="path1861"
       style="fill:none;fill-opacity:1;fill-rule:nonzero;stroke:url(#radialGradient3603);stroke-width:1.41146481;stroke-linecap:round;stroke-linejoin:round;stroke-miterlimit:4;stroke-opacity:1"
       sodipodi:type="arc" />
  </g>
</svg>
