<?xml version="1.0" encoding="UTF-8" standalone="no"?>
<!-- Created with Sodipodi ("http://www.sodipodi.com/") -->
<svg
   xmlns:dc="http://purl.org/dc/elements/1.1/"
   xmlns:cc="http://web.resource.org/cc/"
   xmlns:rdf="http://www.w3.org/1999/02/22-rdf-syntax-ns#"
   xmlns:svg="http://www.w3.org/2000/svg"
   xmlns="http://www.w3.org/2000/svg"
   xmlns:xlink="http://www.w3.org/1999/xlink"
   xmlns:sodipodi="http://sodipodi.sourceforge.net/DTD/sodipodi-0.dtd"
   xmlns:inkscape="http://www.inkscape.org/namespaces/inkscape"
   id="svg604"
   sodipodi:version="0.32"
   width="90"
   height="90"
   sodipodi:docbase="/home/tweenk/GNUtoon/stock/document"
   sodipodi:docname="stock_todo.svg"
   inkscape:version="0.45.1"
   inkscape:output_extension="org.inkscape.output.svg.inkscape"
   version="1.0">
  <metadata
     id="metadata23">
    <rdf:RDF>
      <cc:Work
         rdf:about="">
        <dc:format>image/svg+xml</dc:format>
        <dc:type
           rdf:resource="http://purl.org/dc/dcmitype/StillImage" />
      </cc:Work>
    </rdf:RDF>
  </metadata>
  <defs
     id="defs606">
    <linearGradient
       id="linearGradient671">
      <stop
         style="stop-color:#7fa8e3;stop-opacity:0.741176;"
         offset="0.000000"
         id="stop672" />
      <stop
         style="stop-color:#ffffff;stop-opacity:0;"
         offset="1.000000"
         id="stop673" />
    </linearGradient>
    <linearGradient
       id="linearGradient612">
      <stop
         style="stop-color:#955801;stop-opacity:0.4471;"
         offset="0"
         id="stop613" />
      <stop
         style="stop-color:#000500;stop-opacity:0;"
         offset="1"
         id="stop614" />
    </linearGradient>
    <linearGradient
       xlink:href="#linearGradient612"
       id="linearGradient615"
       x1="36.216915"
       y1="12.409"
       x2="37.964546"
       y2="72.903305"
       gradientUnits="userSpaceOnUse"
       spreadMethod="pad"
       gradientTransform="matrix(0.9890292,0,0,0.9890292,1.104983,-1.209964)" />
    <linearGradient
       inkscape:collect="always"
       xlink:href="#linearGradient671"
       id="linearGradient2180"
       gradientUnits="userSpaceOnUse"
       gradientTransform="matrix(0.321682,0,0,0.321682,0.752234,0.87654)"
       x1="36.216915"
       y1="12.409"
       x2="37.964546"
       y2="72.903305" />
  </defs>
  <sodipodi:namedview
     id="base"
     inkscape:zoom="14.259987"
     inkscape:cx="22.46006"
     inkscape:cy="18.498377"
     inkscape:window-width="874"
     inkscape:window-height="723"
     inkscape:window-x="140"
     inkscape:window-y="6"
     inkscape:current-layer="svg604"
     width="90px"
     height="90px" />
  <path
     style="fill:#000000;fill-opacity:0.27981651;fill-rule:evenodd;stroke:none;stroke-width:1pt;stroke-linecap:butt;stroke-linejoin:miter;stroke-opacity:1"
     d="M 47.848509,5.297292 C 44.413512,5.407213 32.956134,7.411049 32.956134,7.411049 C 32.956134,7.411049 33.384834,9.397354 33.72477,11.158163 C 28.544338,11.912672 24.36746,12.581935 23.155985,12.791521 C 17.969792,13.529692 14.982689,15.655645 13.644079,18.556312 C 11.053436,22.240687 16.423296,75.123482 17.967672,80.719979 C 18.40562,86.259122 23.430933,88.356878 26.4227,88.406369 C 29.887392,87.737798 73.052184,79.604954 77.441106,78.029744 C 81.830097,76.454507 82.673841,71.651561 82.149018,68.229599 C 81.049128,65.308133 73.867794,15.700827 74.07831,13.27192 C 73.873551,8.805751 71.64027,8.109451 68.793918,7.218889 C 67.529808,6.823391 58.997055,7.844145 49.770108,9.044406 C 49.4973,7.532952 49.235337,5.74144 48.713229,5.393372 C 48.60555,5.321587 48.339225,5.281589 47.848509,5.297292 z "
     id="path2188" />
  <path
     style="fill:#7e0000;fill-opacity:1;fill-rule:evenodd;stroke:none;stroke-width:1pt;stroke-linecap:butt;stroke-linejoin:miter;stroke-opacity:1"
     d="M 20.957196,84.729437 C 17.965428,84.679946 12.94976,82.615799 12.511812,77.076662 C 10.967436,71.480162 5.598713,18.583664 8.189356,14.899289 C 9.527966,11.998622 12.442897,9.869272 17.629089,9.131101 C 21.872612,8.396969 60.472257,2.659627 63.318516,3.550129 C 66.164865,4.44069 68.406996,5.193736 68.611755,9.659905 C 68.401242,12.088811 75.570651,61.631195 76.670544,64.552658 C 77.195364,67.97462 76.333857,72.756614 71.944866,74.331854 C 67.555947,75.907064 24.421887,84.060866 20.957196,84.729437 z "
     id="path609"
     sodipodi:nodetypes="ccccccccc" />
  <path
     style="fill:#ffd056;fill-opacity:1;fill-rule:evenodd;stroke:none;stroke-width:1pt;stroke-linecap:butt;stroke-linejoin:miter;stroke-opacity:1"
     d="M 24.413569,78.862334 C 21.513011,79.294976 17.484009,80.199413 17.002756,75.718925 C 14.998773,65.1125 10.403982,23.076759 13.677983,16.245508 C 14.409232,14.639155 18.379437,12.458748 27.398047,11.548514 C 37.646757,10.383892 58.675539,8.612854 60.888459,8.727898 C 63.101265,8.842972 63.778236,8.559893 64.25955,13.040486 C 64.064079,17.804071 70.739724,55.068065 71.134089,61.665746 C 71.440947,66.349361 71.969031,68.33933 69.261399,69.471599"
     id="path608"
     sodipodi:nodetypes="cccccccs" />
  <path
     style="fill:url(#linearGradient615);fill-opacity:1;fill-rule:evenodd;stroke:none;stroke-width:1pt;stroke-linecap:butt;stroke-linejoin:miter;stroke-opacity:1"
     d="M 12.726614,21.368915 C 12.726614,21.368915 12.98748,15.012349 20.496465,13.746509 C 28.005441,12.480699 57.744249,8.166229 58.452831,10.368901 C 59.161383,12.571561 60.038634,26.88612 60.257424,28.044127 C 60.476217,29.202094 35.301837,39.104696 28.389085,48.555239 C 21.476317,58.005758 16.634985,65.652965 16.634985,65.652965 C 16.634985,65.652965 12.67652,32.322821 12.726614,21.368915 z "
     id="path636" />
  <g
     id="g2175"
     transform="matrix(2.9890293,0,0,2.9890293,-13.233072,-12.710384)">
    <path
       sodipodi:nodetypes="ccccccccc"
       id="path703"
       d="M 12.849031,28.48975 C 12.078719,28.477007 10.787295,27.945537 10.67454,26.519332 C 10.276895,25.078363 8.8945711,11.458716 9.5616017,10.510075 C 9.9062658,9.7632181 10.656792,9.2149588 11.992118,9.024896 C 13.084732,8.8358754 23.023256,7.3586394 23.756112,7.5879217 C 24.488997,7.8172233 25.066273,8.0111141 25.119003,9.1610513 C 25.064809,9.7864404 26.91077,22.542476 27.193973,23.294689 C 27.329063,24.175768 27.10727,25.40702 25.977193,25.81261 C 24.847145,26.218187 13.741108,28.317608 12.849031,28.48975 z "
       style="fill:#3d4e67;fill-opacity:1;fill-rule:evenodd;stroke:none;stroke-width:1pt;stroke-linecap:butt;stroke-linejoin:miter;stroke-opacity:1" />
    <path
       sodipodi:nodetypes="cccccccs"
       id="path704"
       d="M 13.738965,26.979103 C 12.992141,27.090499 11.954761,27.323371 11.830849,26.169747 C 11.314874,23.438832 10.131819,12.615585 10.974798,10.856693 C 11.163078,10.443093 12.185314,9.8816873 14.507404,9.6473257 C 17.146212,9.347463 22.560651,8.891459 23.130414,8.9210795 C 23.700187,8.9507097 23.874469,8.8778229 23.998393,10.031475 C 23.948069,11.257986 25.666911,20.852621 25.768441,22.551371 C 25.847465,23.757297 25.983408,24.26967 25.286281,24.561204"
       style="fill:#ffffff;fill-opacity:1;fill-rule:evenodd;stroke:none;stroke-width:1pt;stroke-linecap:butt;stroke-linejoin:miter;stroke-opacity:1" />
    <path
       id="path705"
       d="M 11.16164,12.489891 C 11.16164,12.489891 11.228807,10.853216 13.162199,10.527294 C 15.09559,10.201375 22.752659,9.0904968 22.935088,9.6576355 C 23.117518,10.224771 23.343416,13.910444 23.399723,14.208604 C 23.456085,14.506755 16.974248,17.056451 15.19437,19.48975 C 13.414487,21.923042 12.167956,23.892027 12.167956,23.892027 C 12.167956,23.892027 11.148741,15.31027 11.16164,12.489891 z "
       style="fill:url(#linearGradient2180);fill-opacity:1;fill-rule:evenodd;stroke:none;stroke-width:1pt;stroke-linecap:butt;stroke-linejoin:miter;stroke-opacity:1" />
  </g>
  <path
     style="fill:#4e4e4e;fill-opacity:1;fill-rule:evenodd;stroke:none;stroke-width:1pt;stroke-linecap:butt;stroke-linejoin:miter;stroke-opacity:1"
     d="M 27.475864,3.74249 C 27.475864,3.74249 42.407037,1.158247 43.268448,1.732522 C 44.129868,2.306796 44.129859,6.901007 44.991273,7.475281 C 45.852687,8.049557 50.159757,7.188139 50.734035,8.33669 C 51.308307,9.48524 51.882579,14.366588 51.882579,14.366588 L 24.317356,18.673656 C 24.317356,18.673656 20.584559,13.792308 23.455941,12.069486 C 26.327323,10.346654 28.624426,11.20807 28.624426,9.772382 C 28.624426,8.33669 27.475864,3.74249 27.475864,3.74249 z "
     id="path674" />
  <path
     style="fill:#a4a4a4;fill-opacity:1;fill-rule:evenodd;stroke:none;stroke-width:1pt;stroke-linecap:butt;stroke-linejoin:miter;stroke-opacity:1"
     d="M 28.978182,4.608595 C 28.978182,4.608595 41.584989,2.373049 42.312312,2.869828 C 43.039638,3.36662 42.752496,8.202348 43.479819,8.699138 C 44.207136,9.195928 48.130851,7.589325 48.615735,8.582896 C 49.100604,9.576477 49.011195,11.502079 49.29834,13.22491 L 26.598495,16.950815 C 25.73709,15.802264 23.733938,13.876671 26.158316,12.386312 C 28.582719,10.895943 31.096497,11.066846 31.096497,9.824872 C 31.096497,8.582896 28.978182,4.608595 28.978182,4.608595 z "
     id="path675"
     sodipodi:nodetypes="ccccccccc" />
  <path
     style="fill:#f8f8f8;fill-opacity:1;fill-rule:evenodd;stroke:none;stroke-width:1pt;stroke-linecap:butt;stroke-linejoin:miter;stroke-opacity:1"
     d="M 47.575509,9.772382 L 47.862642,12.930901 L 28.911559,15.802273 C 28.911559,15.802273 46.714101,13.218037 47.575509,9.772382 z "
     id="path676" />
  <path
     style="fill:#656565;fill-opacity:1;fill-rule:evenodd;stroke:none;stroke-width:1pt;stroke-linecap:butt;stroke-linejoin:miter;stroke-opacity:1"
     d="M 30.347244,5.178182 L 32.357214,9.198106 C 32.357214,9.198106 25.465898,12.356621 25.465898,13.505172 C 25.465898,14.653723 27.475864,16.376554 27.475864,16.376554 L 29.485831,15.802273 C 29.485831,15.802273 27.188727,14.366588 28.337279,13.218037 C 29.485831,12.069486 35.802864,11.20806 34.654314,8.910964 C 33.505761,6.613865 30.921516,4.89104 30.347244,5.178182 z "
     id="path677" />
  <g
     id="g5023"
     transform="matrix(3.0646917,0,0,3.0646917,-2.538769,-0.942195)">
    <path
       sodipodi:nodetypes="csssssss"
       id="path574"
       d="M 10.955831,13.111697 C 11.173129,16.22593 13.884133,20.332419 15.406493,20.205782 C 17.644922,20.068481 19.284162,18.604683 21.961452,15.274986 C 23.736631,13.006414 24.309958,12.141463 25.750648,8.3206928 C 26.148329,7.228975 24.520189,5.5031484 23.286473,7.1823523 C 19.377329,12.55196 17.328916,14.031349 16.440024,14.264604 C 15.328173,14.529393 15.242773,11.375632 14.015869,10.156071 C 13.741237,9.8830852 10.751748,10.235752 10.955831,13.111697 z "
       style="fill:#002f77;fill-opacity:1;fill-rule:evenodd;stroke:none;stroke-width:1pt;stroke-linecap:butt;stroke-linejoin:miter;stroke-opacity:1" />
    <path
       sodipodi:nodetypes="csssssss"
       id="path584"
       d="M 11.734369,13.342059 C 12.113414,15.388158 14.462516,19.758327 15.458062,19.544417 C 16.493913,19.317988 17.74639,18.22972 20.022012,15.656865 C 23.069393,12.266734 24.190498,9.831797 24.75882,8.9234668 C 25.998788,6.8927648 24.312944,7.4641681 22.910134,9.4816417 C 21.796911,11.121448 17.157854,17.002865 16.034085,15.669313 C 15.493863,15.004736 14.58482,12.079546 13.767,11.266622 C 13.583937,11.084656 11.370133,11.424813 11.734369,13.342059 z "
       style="fill:#31baff;fill-opacity:1;fill-rule:evenodd;stroke:none;stroke-width:1pt;stroke-linecap:butt;stroke-linejoin:miter;stroke-opacity:1" />
    <path
       sodipodi:nodetypes="csss"
       id="path587"
       d="M 12.196622,13.084723 C 12.340889,12.774539 12.672215,12.675675 12.924912,12.841958 C 13.288305,13.063335 13.277554,13.674587 13.005833,13.839987 C 12.764797,13.962781 12.108239,13.533707 12.196622,13.084723 z "
       style="fill:#ffffff;fill-opacity:1;fill-rule:evenodd;stroke:#ffffff;stroke-width:0.25265377pt;stroke-linecap:butt;stroke-linejoin:miter;stroke-opacity:1" />
    <path
       sodipodi:nodetypes="csss"
       id="path589"
       d="M 14.109171,17.486784 C 14.647884,18.38314 16.790885,18.015531 17.326544,17.486784 C 18.587502,16.207867 16.857144,18.83721 15.307129,18.82165 C 14.195036,18.810236 13.284734,16.171967 14.109171,17.486784 z "
       style="fill:#558ada;fill-opacity:1;fill-rule:evenodd;stroke:none;stroke-width:0.25265377pt;stroke-linecap:butt;stroke-linejoin:miter;stroke-opacity:1" />
  </g>
</svg>
