<?xml version="1.0" encoding="UTF-8" standalone="no"?>
<!-- Created with Sodipodi ("http://www.sodipodi.com/") -->
<svg
   xmlns:dc="http://purl.org/dc/elements/1.1/"
   xmlns:cc="http://web.resource.org/cc/"
   xmlns:rdf="http://www.w3.org/1999/02/22-rdf-syntax-ns#"
   xmlns:svg="http://www.w3.org/2000/svg"
   xmlns="http://www.w3.org/2000/svg"
   xmlns:xlink="http://www.w3.org/1999/xlink"
   xmlns:sodipodi="http://sodipodi.sourceforge.net/DTD/sodipodi-0.dtd"
   xmlns:inkscape="http://www.inkscape.org/namespaces/inkscape"
   id="svg604"
   sodipodi:version="0.32"
   width="90"
   height="90"
   sodipodi:docbase="/home/tweenk/GNUtoon/stock/document"
   sodipodi:docname="stock_task-recurring.svg"
   inkscape:version="0.45.1"
   inkscape:output_extension="org.inkscape.output.svg.inkscape"
   version="1.0">
  <metadata
     id="metadata23">
    <rdf:RDF>
      <cc:Work
         rdf:about="">
        <dc:format>image/svg+xml</dc:format>
        <dc:type
           rdf:resource="http://purl.org/dc/dcmitype/StillImage" />
      </cc:Work>
    </rdf:RDF>
  </metadata>
  <defs
     id="defs606">
    <linearGradient
       id="linearGradient671">
      <stop
         style="stop-color:#7fa8e3;stop-opacity:0.741176;"
         offset="0.000000"
         id="stop672" />
      <stop
         style="stop-color:#ffffff;stop-opacity:0;"
         offset="1.000000"
         id="stop673" />
    </linearGradient>
    <linearGradient
       id="linearGradient612">
      <stop
         style="stop-color:#955801;stop-opacity:0.4471;"
         offset="0"
         id="stop613" />
      <stop
         style="stop-color:#000500;stop-opacity:0;"
         offset="1"
         id="stop614" />
    </linearGradient>
    <linearGradient
       xlink:href="#linearGradient612"
       id="linearGradient615"
       x1="36.216915"
       y1="12.409"
       x2="37.964546"
       y2="72.903305"
       gradientUnits="userSpaceOnUse"
       spreadMethod="pad"
       gradientTransform="matrix(0.9890292,0,0,0.9890292,1.1049811,-1.2099644)" />
    <linearGradient
       inkscape:collect="always"
       xlink:href="#linearGradient671"
       id="linearGradient2180"
       gradientUnits="userSpaceOnUse"
       gradientTransform="matrix(0.321682,0,0,0.321682,0.752234,0.87654)"
       x1="36.216915"
       y1="12.409"
       x2="37.964546"
       y2="72.903305" />
  </defs>
  <sodipodi:namedview
     id="base"
     inkscape:zoom="14.259987"
     inkscape:cx="22.46006"
     inkscape:cy="14.570146"
     inkscape:window-width="874"
     inkscape:window-height="723"
     inkscape:window-x="140"
     inkscape:window-y="6"
     inkscape:current-layer="svg604"
     width="90px"
     height="90px" />
  <path
     style="fill:#000000;fill-opacity:0.27981651;fill-rule:evenodd;stroke:none;stroke-width:1pt;stroke-linecap:butt;stroke-linejoin:miter;stroke-opacity:1"
     d="M 47.848509,5.2972906 C 44.413512,5.4072136 32.956134,7.4110486 32.956134,7.4110486 C 32.956134,7.4110486 33.384834,9.3973546 33.72477,11.158163 C 28.544337,11.912672 24.367458,12.581936 23.155986,12.791522 C 17.969793,13.529693 14.98269,15.655646 13.644078,18.556313 C 11.053437,22.240688 16.423296,75.123482 17.967672,80.719979 C 18.405618,86.259122 23.430933,88.356878 26.422701,88.406369 C 29.887392,87.737798 73.052184,79.604954 77.441106,78.029744 C 81.830097,76.454507 82.673841,71.651561 82.149018,68.229599 C 81.049128,65.308133 73.867794,15.700826 74.07831,13.271921 C 73.873551,8.8057516 71.64027,8.1094516 68.793918,7.2188896 C 67.529808,6.8233906 58.997055,7.8441436 49.770108,9.0444076 C 49.4973,7.5329506 49.235337,5.7414406 48.713229,5.3933716 C 48.60555,5.3215876 48.339225,5.2815886 47.848509,5.2972906 z "
     id="path2188" />
  <path
     style="fill:#7e0000;fill-opacity:1;fill-rule:evenodd;stroke:none;stroke-width:1pt;stroke-linecap:butt;stroke-linejoin:miter;stroke-opacity:1"
     d="M 20.957196,84.729437 C 17.965428,84.679946 12.949761,82.615799 12.511812,77.076662 C 10.967436,71.480162 5.5987141,18.583664 8.1893551,14.899289 C 9.5279671,11.998622 12.442896,9.8692726 17.629089,9.1311016 C 21.872613,8.3969686 60.472257,2.6596276 63.318516,3.5501296 C 66.164865,4.4406886 68.406996,5.1937366 68.611755,9.6599056 C 68.401242,12.088811 75.570651,61.631195 76.670544,64.552658 C 77.195364,67.97462 76.333857,72.756614 71.944866,74.331854 C 67.555947,75.907064 24.421887,84.060866 20.957196,84.729437 z "
     id="path609"
     sodipodi:nodetypes="ccccccccc" />
  <path
     style="fill:#ffd056;fill-opacity:1;fill-rule:evenodd;stroke:none;stroke-width:1pt;stroke-linecap:butt;stroke-linejoin:miter;stroke-opacity:1"
     d="M 24.413568,78.862334 C 21.513012,79.294976 17.484009,80.199413 17.002755,75.718925 C 14.998773,65.1125 10.403982,23.076758 13.677984,16.245509 C 14.409231,14.639156 18.379437,12.458747 27.398046,11.548514 C 37.646757,10.383893 58.675539,8.6128546 60.888459,8.7278986 C 63.101265,8.8429726 63.778236,8.5598926 64.25955,13.040486 C 64.064079,17.804072 70.739724,55.068065 71.134089,61.665746 C 71.440947,66.349361 71.969031,68.33933 69.261399,69.471599"
     id="path608"
     sodipodi:nodetypes="cccccccs" />
  <path
     style="fill:url(#linearGradient615);fill-opacity:1;fill-rule:evenodd;stroke:none;stroke-width:1pt;stroke-linecap:butt;stroke-linejoin:miter;stroke-opacity:1"
     d="M 12.726615,21.368915 C 12.726615,21.368915 12.98748,15.01235 20.496465,13.746509 C 28.005441,12.480698 57.744249,8.1662296 58.452831,10.368902 C 59.161383,12.571562 60.038634,26.886119 60.257424,28.044128 C 60.476217,29.202095 35.301837,39.104696 28.389084,48.555239 C 21.476316,58.005758 16.634985,65.652965 16.634985,65.652965 C 16.634985,65.652965 12.676518,32.322821 12.726615,21.368915 z "
     id="path636" />
  <g
     id="g2175"
     transform="matrix(2.9890293,0,0,2.9890293,-13.233072,-12.710383)">
    <path
       sodipodi:nodetypes="ccccccccc"
       id="path703"
       d="M 12.849031,28.48975 C 12.078719,28.477007 10.787295,27.945537 10.67454,26.519332 C 10.276895,25.078363 8.8945711,11.458716 9.5616017,10.510075 C 9.9062658,9.7632181 10.656792,9.2149588 11.992118,9.024896 C 13.084732,8.8358754 23.023256,7.3586394 23.756112,7.5879217 C 24.488997,7.8172233 25.066273,8.0111141 25.119003,9.1610513 C 25.064809,9.7864404 26.91077,22.542476 27.193973,23.294689 C 27.329063,24.175768 27.10727,25.40702 25.977193,25.81261 C 24.847145,26.218187 13.741108,28.317608 12.849031,28.48975 z "
       style="fill:#3d4e67;fill-opacity:1;fill-rule:evenodd;stroke:none;stroke-width:1pt;stroke-linecap:butt;stroke-linejoin:miter;stroke-opacity:1" />
    <path
       sodipodi:nodetypes="cccccccs"
       id="path704"
       d="M 13.738965,26.979103 C 12.992141,27.090499 11.954761,27.323371 11.830849,26.169747 C 11.314874,23.438832 10.131819,12.615585 10.974798,10.856693 C 11.163078,10.443093 12.185314,9.8816873 14.507404,9.6473257 C 17.146212,9.347463 22.560651,8.891459 23.130414,8.9210795 C 23.700187,8.9507097 23.874469,8.8778229 23.998393,10.031475 C 23.948069,11.257986 25.666911,20.852621 25.768441,22.551371 C 25.847465,23.757297 25.983408,24.26967 25.286281,24.561204"
       style="fill:#ffffff;fill-opacity:1;fill-rule:evenodd;stroke:none;stroke-width:1pt;stroke-linecap:butt;stroke-linejoin:miter;stroke-opacity:1" />
    <path
       id="path705"
       d="M 11.16164,12.489891 C 11.16164,12.489891 11.228807,10.853216 13.162199,10.527294 C 15.09559,10.201375 22.752659,9.0904968 22.935088,9.6576355 C 23.117518,10.224771 23.343416,13.910444 23.399723,14.208604 C 23.456085,14.506755 16.974248,17.056451 15.19437,19.48975 C 13.414487,21.923042 12.167956,23.892027 12.167956,23.892027 C 12.167956,23.892027 11.148741,15.31027 11.16164,12.489891 z "
       style="fill:url(#linearGradient2180);fill-opacity:1;fill-rule:evenodd;stroke:none;stroke-width:1pt;stroke-linecap:butt;stroke-linejoin:miter;stroke-opacity:1" />
  </g>
  <path
     style="fill:#4e4e4e;fill-opacity:1;fill-rule:evenodd;stroke:none;stroke-width:1pt;stroke-linecap:butt;stroke-linejoin:miter;stroke-opacity:1"
     d="M 27.475863,3.7424896 C 27.475863,3.7424896 42.407037,1.1582476 43.268448,1.7325226 C 44.129868,2.3067976 44.129859,6.9010066 44.991273,7.4752816 C 45.852687,8.0495566 50.159757,7.1881396 50.734035,8.3366896 C 51.308307,9.4852396 51.882579,14.366588 51.882579,14.366588 L 24.317355,18.673655 C 24.317355,18.673655 20.58456,13.792307 23.455941,12.069485 C 26.327322,10.346654 28.624425,11.208071 28.624425,9.7723816 C 28.624425,8.3366896 27.475863,3.7424896 27.475863,3.7424896 z "
     id="path674" />
  <path
     style="fill:#a4a4a4;fill-opacity:1;fill-rule:evenodd;stroke:none;stroke-width:1pt;stroke-linecap:butt;stroke-linejoin:miter;stroke-opacity:1"
     d="M 28.978182,4.6085956 C 28.978182,4.6085956 41.584989,2.3730496 42.312312,2.8698286 C 43.039638,3.3666196 42.752496,8.2023496 43.479819,8.6991376 C 44.207136,9.1959286 48.130851,7.5893266 48.615735,8.5828966 C 49.100604,9.5764756 49.011195,11.50208 49.29834,13.224911 L 26.598495,16.950815 C 25.73709,15.802265 23.733936,13.876673 26.158314,12.386312 C 28.582719,10.895942 31.096497,11.066846 31.096497,9.8248726 C 31.096497,8.5828966 28.978182,4.6085956 28.978182,4.6085956 z "
     id="path675"
     sodipodi:nodetypes="ccccccccc" />
  <path
     style="fill:#f8f8f8;fill-opacity:1;fill-rule:evenodd;stroke:none;stroke-width:1pt;stroke-linecap:butt;stroke-linejoin:miter;stroke-opacity:1"
     d="M 47.575509,9.7723816 L 47.862642,12.930902 L 28.911558,15.802274 C 28.911558,15.802274 46.714101,13.218038 47.575509,9.7723816 z "
     id="path676" />
  <path
     style="fill:#656565;fill-opacity:1;fill-rule:evenodd;stroke:none;stroke-width:1pt;stroke-linecap:butt;stroke-linejoin:miter;stroke-opacity:1"
     d="M 30.347244,5.1781816 L 32.357214,9.1981066 C 32.357214,9.1981066 25.465896,12.356621 25.465896,13.505171 C 25.465896,14.653724 27.475863,16.376555 27.475863,16.376555 L 29.48583,15.802274 C 29.48583,15.802274 27.188727,14.366588 28.33728,13.218038 C 29.48583,12.069485 35.802864,11.208059 34.654314,8.9109646 C 33.505761,6.6138646 30.921516,4.8910396 30.347244,5.1781816 z "
     id="path677" />
  <g
     id="g622"
     transform="matrix(0.4897536,-2.2688738e-2,1.9293589e-2,0.4164666,21.149931,21.183764)">
    <sodipodi:namedview
       id="namedview623"
       inkscape:zoom="9.65625000"
       inkscape:cx="16.0000000"
       inkscape:cy="20.1423948"
       inkscape:window-width="1014"
       inkscape:window-height="696"
       inkscape:window-x="0"
       inkscape:window-y="0" />
    <defs
       id="defs624" />
    <path
       d="M 60.01725,23.99648 C 59.53549,18.42523 39.28151,-0.155997 34.6921,1.525979 C 26.26824,2.875133 27.80318,12.48977 24.47333,13.67308 C 21.12074,14.2603 -7.972638,17.44191 5.187324,48.65893 C 7.581571,54.25087 9.102327,55.29983 11.60488,57.13311 C 14.0401,58.78143 17.95009,58.8779 21.12059,55.3124 C 24.01675,51.00947 22.76623,46.76743 21.42301,43.20362 C 17.19612,32.53529 24.99563,32.40727 29.30969,30.15509 C 30.31799,33.8884 32.17592,42.69868 34.68069,42.57612 C 37.18548,42.45358 60.64089,35.12471 60.01725,23.99648 z "
       style="font-size:12px;fill:#0d3c07;fill-rule:evenodd"
       id="path582"
       sodipodi:nodetypes="cccsscsccc" />
    <path
       d="M 56.43394,23.6407 C 56.27621,19.46667 39.11294,4.640965 35.3464,6.096892 C 31.57967,7.552896 33.49308,12.85851 31.87806,15.80547 C -4.80765,16.56439 4.758002,57.5538 16.64254,52.80007 C 23.15131,50.27578 12.05925,39.66178 17.21876,32.46884 C 21.59482,26.19341 33.14937,25.01374 33.38684,26.55734 C 33.86179,29.64459 34.44591,38.87531 36.46869,38.67948 C 38.4915,38.48365 57.31595,28.02613 56.43394,23.6407 z "
       style="font-size:12px;fill:#2aaf18;fill-rule:evenodd"
       id="path581"
       sodipodi:nodetypes="ccccsccc" />
    <path
       d="M 6.835245,41.70574 C 8.271465,32.53362 10.38564,27.15574 15.38294,23.37504 C 20.88176,19.00195 30.21643,18.33108 30.49849,17.5357 C 30.78051,16.74034 23.72856,18.85646 18.28161,20.48563 C 8.069523,23.49743 5.940525,35.37665 6.835245,41.70574 z "
       style="font-size:12px;fill:#ffffff;fill-rule:evenodd"
       id="path588"
       sodipodi:nodetypes="cscsc" />
    <path
       d="M 48.10932,19.7236 C 46.94802,18.36876 38.77247,11.53838 36.54244,11.06304 C 34.31254,10.58784 35.79821,14.70468 35.79821,14.70468 C 35.79821,14.70468 47.19147,18.18673 48.10932,19.7236 z "
       style="font-size:12px;fill:#ffffff;fill-rule:evenodd"
       id="path589"
       sodipodi:nodetypes="cccc" />
    <path
       style="font-size:12px;fill:none;fill-rule:evenodd;stroke-width:1pt"
       d="M 48.89974,35.68601 C 48.89974,35.68601 58.05552,31.86359 58.04005,31.98362 C 58.02458,32.10363 56.33631,30.05579 56.33631,30.05579 L 53.96308,30.48197 L 48.70187,32.48812 L 48.89974,35.68601 z "
       id="path576" />
    <path
       style="fill:#1f8b10;fill-opacity:0.9899;fill-rule:evenodd;stroke:none;stroke-width:1pt;stroke-linecap:butt;stroke-linejoin:miter;stroke-opacity:1"
       d="M 56.32258,23.6129 C 57.29033,29.41935 36.19355,39.09677 36.19355,39.09677 C 34.25806,37.54839 33.09677,27.09678 31.16129,25.74193 C 27.67742,27.29032 16.83871,30.38709 16.25807,34.45161 C 15.67741,38.51613 18.58065,46.64516 18.96775,48.58064 C 19.74194,51.48388 17.22581,54.19355 14.70968,53.03226 C 12.19355,51.87097 11.80645,49.54838 11.80645,49.54838 C 11.80645,49.54838 14.51613,49.54839 14.90323,47.41935 C 15.29032,45.29032 9.67742,34.83871 12.58065,30.77419 C 15.48387,26.70968 27.09677,21.09678 34.25806,21.67742 L 37.16129,33.67741 C 37.16129,33.67741 40.06451,33.48388 56.32258,23.6129 z "
       id="path615"
       sodipodi:nodetypes="cccccccccccc" />
  </g>
  <g
     id="g855"
     transform="matrix(-0.4897536,2.2688738e-2,-1.9293589e-2,-0.4164666,60.970485,60.683546)">
    <sodipodi:namedview
       id="namedview856"
       inkscape:zoom="9.65625000"
       inkscape:cx="16.0000000"
       inkscape:cy="20.1423948"
       inkscape:window-width="1014"
       inkscape:window-height="696"
       inkscape:window-x="0"
       inkscape:window-y="0" />
    <defs
       id="defs857" />
    <path
       d="M 60.01725,23.99648 C 59.53549,18.42523 39.28151,-0.155997 34.6921,1.525979 C 26.26824,2.875133 27.80318,12.48977 24.47333,13.67308 C 21.12074,14.2603 -7.972638,17.44191 5.187324,48.65893 C 7.581571,54.25087 9.102327,55.29983 11.60488,57.13311 C 14.0401,58.78143 17.95009,58.8779 21.12059,55.3124 C 24.01675,51.00947 22.76623,46.76743 21.42301,43.20362 C 17.19612,32.53529 24.99563,32.40727 29.30969,30.15509 C 30.31799,33.8884 32.17592,42.69868 34.68069,42.57612 C 37.18548,42.45358 60.64089,35.12471 60.01725,23.99648 z "
       style="font-size:12px;fill:#0d3c07;fill-rule:evenodd"
       id="path862"
       sodipodi:nodetypes="cccsscsccc" />
    <path
       d="M 56.43394,23.6407 C 56.27621,19.46667 39.11294,4.640965 35.3464,6.096892 C 31.57967,7.552896 33.49308,12.85851 31.87806,15.80547 C -4.80765,16.56439 4.758002,57.5538 16.64254,52.80007 C 23.15131,50.27578 12.05925,39.66178 17.21876,32.46884 C 21.59482,26.19341 33.14937,25.01374 33.38684,26.55734 C 33.86179,29.64459 34.44591,38.87531 36.46869,38.67948 C 38.4915,38.48365 57.31595,28.02613 56.43394,23.6407 z "
       style="font-size:12px;fill:#2aaf18;fill-rule:evenodd"
       id="path863"
       sodipodi:nodetypes="ccccsccc" />
    <path
       d="M 6.835245,41.70574 C 8.271465,32.53362 10.38564,27.15574 15.38294,23.37504 C 20.88176,19.00195 30.21643,18.33108 30.49849,17.5357 C 30.78051,16.74034 23.72856,18.85646 18.28161,20.48563 C 8.069523,23.49743 5.940525,35.37665 6.835245,41.70574 z "
       style="font-size:12px;fill:#ffffff;fill-rule:evenodd"
       id="path864"
       sodipodi:nodetypes="cscsc" />
    <path
       d="M 48.10932,19.7236 C 46.94802,18.36876 38.77247,11.53838 36.54244,11.06304 C 34.31254,10.58784 35.79821,14.70468 35.79821,14.70468 C 35.79821,14.70468 47.19147,18.18673 48.10932,19.7236 z "
       style="font-size:12px;fill:#ffffff;fill-rule:evenodd"
       id="path865"
       sodipodi:nodetypes="cccc" />
    <path
       style="font-size:12px;fill:none;fill-rule:evenodd;stroke-width:1pt"
       d="M 48.89974,35.68601 C 48.89974,35.68601 58.05552,31.86359 58.04005,31.98362 C 58.02458,32.10363 56.33631,30.05579 56.33631,30.05579 L 53.96308,30.48197 L 48.70187,32.48812 L 48.89974,35.68601 z "
       id="path866" />
    <path
       style="fill:#1f8b10;fill-opacity:0.9899;fill-rule:evenodd;stroke:none;stroke-width:1pt;stroke-linecap:butt;stroke-linejoin:miter;stroke-opacity:1"
       d="M 56.32258,23.6129 C 57.29033,29.41935 36.19355,39.09677 36.19355,39.09677 C 34.25806,37.54839 33.09677,27.09678 31.16129,25.74193 C 27.67742,27.29032 16.83871,30.38709 16.25807,34.45161 C 15.67741,38.51613 18.58065,46.64516 18.96775,48.58064 C 19.74194,51.48388 17.22581,54.19355 14.70968,53.03226 C 12.19355,51.87097 11.80645,49.54838 11.80645,49.54838 C 11.80645,49.54838 14.51613,49.54839 14.90323,47.41935 C 15.29032,45.29032 9.67742,34.83871 12.58065,30.77419 C 15.48387,26.70968 27.09677,21.09678 34.25806,21.67742 L 37.16129,33.67741 C 37.16129,33.67741 40.06451,33.48388 56.32258,23.6129 z "
       id="path867"
       sodipodi:nodetypes="cccccccccccc" />
  </g>
</svg>
