<?xml version="1.0" encoding="UTF-8" standalone="no"?>
<!-- Created with Sodipodi ("http://www.sodipodi.com/") -->
<svg
   xmlns:dc="http://purl.org/dc/elements/1.1/"
   xmlns:cc="http://web.resource.org/cc/"
   xmlns:rdf="http://www.w3.org/1999/02/22-rdf-syntax-ns#"
   xmlns:svg="http://www.w3.org/2000/svg"
   xmlns="http://www.w3.org/2000/svg"
   xmlns:xlink="http://www.w3.org/1999/xlink"
   xmlns:sodipodi="http://sodipodi.sourceforge.net/DTD/sodipodi-0.dtd"
   xmlns:inkscape="http://www.inkscape.org/namespaces/inkscape"
   id="svg604"
   sodipodi:version="0.32"
   width="90"
   height="90"
   sodipodi:docbase="/home/tweenk/GNUtoon/stock/document"
   sodipodi:docname="stock_task-assigned-to.svg"
   inkscape:version="0.45.1"
   inkscape:output_extension="org.inkscape.output.svg.inkscape"
   version="1.0">
  <metadata
     id="metadata23">
    <rdf:RDF>
      <cc:Work
         rdf:about="">
        <dc:format>image/svg+xml</dc:format>
        <dc:type
           rdf:resource="http://purl.org/dc/dcmitype/StillImage" />
      </cc:Work>
    </rdf:RDF>
  </metadata>
  <defs
     id="defs606">
    <linearGradient
       id="linearGradient671">
      <stop
         style="stop-color:#7fa8e3;stop-opacity:0.741176;"
         offset="0.000000"
         id="stop672" />
      <stop
         style="stop-color:#ffffff;stop-opacity:0;"
         offset="1.000000"
         id="stop673" />
    </linearGradient>
    <linearGradient
       id="linearGradient612">
      <stop
         style="stop-color:#955801;stop-opacity:0.4471;"
         offset="0"
         id="stop613" />
      <stop
         style="stop-color:#000500;stop-opacity:0;"
         offset="1"
         id="stop614" />
    </linearGradient>
    <linearGradient
       xlink:href="#linearGradient612"
       id="linearGradient615"
       x1="36.216915"
       y1="12.409"
       x2="37.964546"
       y2="72.903305"
       gradientUnits="userSpaceOnUse"
       spreadMethod="pad"
       gradientTransform="matrix(0.9890292,0,0,0.9890292,-1.056407,-1.209964)" />
    <linearGradient
       inkscape:collect="always"
       xlink:href="#linearGradient671"
       id="linearGradient2180"
       gradientUnits="userSpaceOnUse"
       gradientTransform="matrix(0.321682,0,0,0.321682,0.752234,0.87654)"
       x1="36.216915"
       y1="12.409"
       x2="37.964546"
       y2="72.903305" />
  </defs>
  <sodipodi:namedview
     id="base"
     inkscape:zoom="14.259987"
     inkscape:cx="22.46006"
     inkscape:cy="15.693325"
     inkscape:window-width="874"
     inkscape:window-height="723"
     inkscape:window-x="140"
     inkscape:window-y="6"
     inkscape:current-layer="svg604"
     width="90px"
     height="90px" />
  <path
     style="fill:#000000;fill-opacity:0.27981651;fill-rule:evenodd;stroke:none;stroke-width:1pt;stroke-linecap:butt;stroke-linejoin:miter;stroke-opacity:1"
     d="M 45.68712,5.297292 C 42.252123,5.407213 30.794745,7.411049 30.794745,7.411049 C 30.794745,7.411049 31.223445,9.397354 31.563381,11.158163 C 26.382948,11.912672 22.20607,12.581935 20.994596,12.791521 C 15.808403,13.529692 12.8213,15.655645 11.48269,18.556312 C 8.892046,22.240687 14.261906,75.123482 15.806283,80.719979 C 16.24423,86.259122 21.269543,88.356878 24.261311,88.406369 C 27.726002,87.737798 70.890795,79.604954 75.279717,78.029744 C 79.668708,76.454507 80.512452,71.651561 79.987629,68.229599 C 78.887739,65.308133 71.706405,15.700827 71.916921,13.27192 C 71.712162,8.805751 69.478881,8.109451 66.632529,7.218889 C 65.368419,6.823391 56.835666,7.844145 47.608719,9.044406 C 47.335911,7.532952 47.073948,5.74144 46.55184,5.393372 C 46.444161,5.321587 46.177836,5.281589 45.68712,5.297292 z "
     id="path2188" />
  <path
     style="fill:#7e0000;fill-opacity:1;fill-rule:evenodd;stroke:none;stroke-width:1pt;stroke-linecap:butt;stroke-linejoin:miter;stroke-opacity:1"
     d="M 18.795806,84.729437 C 15.804039,84.679946 10.788371,82.615799 10.350423,77.076662 C 8.806047,71.480162 3.437323,18.583664 6.027967,14.899289 C 7.366577,11.998622 10.281508,9.869272 15.4677,9.131101 C 19.711223,8.396969 58.310868,2.659627 61.157127,3.550129 C 64.003476,4.44069 66.245607,5.193736 66.450366,9.659905 C 66.239853,12.088811 73.409262,61.631195 74.509155,64.552658 C 75.033975,67.97462 74.172468,72.756614 69.783477,74.331854 C 65.394558,75.907064 22.260498,84.060866 18.795806,84.729437 z "
     id="path609"
     sodipodi:nodetypes="ccccccccc" />
  <path
     style="fill:#ffd056;fill-opacity:1;fill-rule:evenodd;stroke:none;stroke-width:1pt;stroke-linecap:butt;stroke-linejoin:miter;stroke-opacity:1"
     d="M 22.25218,78.862334 C 19.351621,79.294976 15.322619,80.199413 14.841367,75.718925 C 12.837384,65.1125 8.242593,23.076759 11.516594,16.245508 C 12.247843,14.639155 16.218048,12.458748 25.236658,11.548514 C 35.485368,10.383892 56.51415,8.612854 58.72707,8.727898 C 60.939876,8.842972 61.616847,8.559893 62.098161,13.040486 C 61.90269,17.804071 68.578335,55.068065 68.9727,61.665746 C 69.279558,66.349361 69.807642,68.33933 67.10001,69.471599"
     id="path608"
     sodipodi:nodetypes="cccccccs" />
  <path
     style="fill:url(#linearGradient615);fill-opacity:1;fill-rule:evenodd;stroke:none;stroke-width:1pt;stroke-linecap:butt;stroke-linejoin:miter;stroke-opacity:1"
     d="M 10.565225,21.368915 C 10.565225,21.368915 10.826091,15.012349 18.335076,13.746509 C 25.844052,12.480699 55.58286,8.166229 56.291442,10.368901 C 56.999994,12.571561 57.877245,26.88612 58.096035,28.044127 C 58.314828,29.202094 33.140448,39.104696 26.227696,48.555239 C 19.314928,58.005758 14.473595,65.652965 14.473595,65.652965 C 14.473595,65.652965 10.51513,32.322821 10.565225,21.368915 z "
     id="path636" />
  <g
     id="g2175"
     transform="matrix(2.9890293,0,0,2.9890293,-15.394461,-12.710384)">
    <path
       sodipodi:nodetypes="ccccccccc"
       id="path703"
       d="M 12.849031,28.48975 C 12.078719,28.477007 10.787295,27.945537 10.67454,26.519332 C 10.276895,25.078363 8.8945711,11.458716 9.5616017,10.510075 C 9.9062658,9.7632181 10.656792,9.2149588 11.992118,9.024896 C 13.084732,8.8358754 23.023256,7.3586394 23.756112,7.5879217 C 24.488997,7.8172233 25.066273,8.0111141 25.119003,9.1610513 C 25.064809,9.7864404 26.91077,22.542476 27.193973,23.294689 C 27.329063,24.175768 27.10727,25.40702 25.977193,25.81261 C 24.847145,26.218187 13.741108,28.317608 12.849031,28.48975 z "
       style="fill:#3d4e67;fill-opacity:1;fill-rule:evenodd;stroke:none;stroke-width:1pt;stroke-linecap:butt;stroke-linejoin:miter;stroke-opacity:1" />
    <path
       sodipodi:nodetypes="cccccccs"
       id="path704"
       d="M 13.738965,26.979103 C 12.992141,27.090499 11.954761,27.323371 11.830849,26.169747 C 11.314874,23.438832 10.131819,12.615585 10.974798,10.856693 C 11.163078,10.443093 12.185314,9.8816873 14.507404,9.6473257 C 17.146212,9.347463 22.560651,8.891459 23.130414,8.9210795 C 23.700187,8.9507097 23.874469,8.8778229 23.998393,10.031475 C 23.948069,11.257986 25.666911,20.852621 25.768441,22.551371 C 25.847465,23.757297 25.983408,24.26967 25.286281,24.561204"
       style="fill:#ffffff;fill-opacity:1;fill-rule:evenodd;stroke:none;stroke-width:1pt;stroke-linecap:butt;stroke-linejoin:miter;stroke-opacity:1" />
    <path
       id="path705"
       d="M 11.16164,12.489891 C 11.16164,12.489891 11.228807,10.853216 13.162199,10.527294 C 15.09559,10.201375 22.752659,9.0904968 22.935088,9.6576355 C 23.117518,10.224771 23.343416,13.910444 23.399723,14.208604 C 23.456085,14.506755 16.974248,17.056451 15.19437,19.48975 C 13.414487,21.923042 12.167956,23.892027 12.167956,23.892027 C 12.167956,23.892027 11.148741,15.31027 11.16164,12.489891 z "
       style="fill:url(#linearGradient2180);fill-opacity:1;fill-rule:evenodd;stroke:none;stroke-width:1pt;stroke-linecap:butt;stroke-linejoin:miter;stroke-opacity:1" />
  </g>
  <path
     style="fill:#4e4e4e;fill-opacity:1;fill-rule:evenodd;stroke:none;stroke-width:1pt;stroke-linecap:butt;stroke-linejoin:miter;stroke-opacity:1"
     d="M 25.314475,3.74249 C 25.314475,3.74249 40.245648,1.158247 41.107059,1.732522 C 41.968479,2.306796 41.96847,6.901007 42.829884,7.475281 C 43.691298,8.049557 47.998368,7.188139 48.572646,8.33669 C 49.146918,9.48524 49.72119,14.366588 49.72119,14.366588 L 22.155967,18.673656 C 22.155967,18.673656 18.423169,13.792308 21.294552,12.069486 C 24.165933,10.346654 26.463037,11.20807 26.463037,9.772382 C 26.463037,8.33669 25.314475,3.74249 25.314475,3.74249 z "
     id="path674" />
  <path
     style="fill:#a4a4a4;fill-opacity:1;fill-rule:evenodd;stroke:none;stroke-width:1pt;stroke-linecap:butt;stroke-linejoin:miter;stroke-opacity:1"
     d="M 26.816793,4.608595 C 26.816793,4.608595 39.4236,2.373049 40.150923,2.869828 C 40.878249,3.36662 40.591107,8.202348 41.31843,8.699138 C 42.045747,9.195928 45.969462,7.589325 46.454346,8.582896 C 46.939215,9.576477 46.849806,11.502079 47.136951,13.22491 L 24.437106,16.950815 C 23.575701,15.802264 21.572548,13.876671 23.996926,12.386312 C 26.421329,10.895943 28.935108,11.066846 28.935108,9.824872 C 28.935108,8.582896 26.816793,4.608595 26.816793,4.608595 z "
     id="path675"
     sodipodi:nodetypes="ccccccccc" />
  <path
     style="fill:#f8f8f8;fill-opacity:1;fill-rule:evenodd;stroke:none;stroke-width:1pt;stroke-linecap:butt;stroke-linejoin:miter;stroke-opacity:1"
     d="M 45.41412,9.772382 L 45.701253,12.930901 L 26.75017,15.802273 C 26.75017,15.802273 44.552712,13.218037 45.41412,9.772382 z "
     id="path676" />
  <path
     style="fill:#656565;fill-opacity:1;fill-rule:evenodd;stroke:none;stroke-width:1pt;stroke-linecap:butt;stroke-linejoin:miter;stroke-opacity:1"
     d="M 28.185855,5.178182 L 30.195825,9.198106 C 30.195825,9.198106 23.304508,12.356621 23.304508,13.505172 C 23.304508,14.653723 25.314475,16.376554 25.314475,16.376554 L 27.324441,15.802273 C 27.324441,15.802273 25.027338,14.366588 26.17589,13.218037 C 27.324441,12.069486 33.641475,11.20806 32.492925,8.910964 C 31.344372,6.613865 28.760127,4.89104 28.185855,5.178182 z "
     id="path677" />
  <g
     id="g3825"
     transform="matrix(3,0,0,3,-1.101062,-12.257596)">
    <path
       id="path582"
       style="fill:#437caf;fill-opacity:1;fill-rule:evenodd;stroke-width:1pt"
       d="M 29.199516,16.591231 C 28.853656,18.179181 22.588734,24.239375 21.328382,23.584046 C 18.950423,22.882183 19.586596,20.550195 18.670771,20.085405 C 17.726245,19.791569 12.650357,20.614445 11.974739,19.611089 C 11.00345,17.432932 10.823241,13.359099 13.14019,12.268435 C 15.525283,11.611231 19.440546,12.863422 19.825828,11.698438 C 20.211112,10.533454 21.078781,9.8868302 21.796202,10.015221 C 22.513622,10.143612 29.821734,14.941869 29.199516,16.591231 z " />
    <path
       id="path581"
       style="fill:#bae6ff;fill-opacity:1;fill-rule:evenodd;stroke-width:1pt"
       d="M 27.133626,16.58835 C 26.933077,17.785603 22.818586,21.984658 21.787015,21.425062 C 20.755399,20.865434 21.133169,19.029694 20.369347,18.761101 C 19.605482,18.492477 13.544058,18.778464 13.453604,17.848962 C 13.363073,16.919471 12.977896,13.76027 13.907354,13.669784 C 14.836889,13.579285 20.851744,14.410894 21.103349,13.538682 C 21.354955,12.66647 21.201786,11.691347 21.777558,11.822947 C 22.353331,11.954547 27.550793,15.357071 27.133626,16.58835 z " />
    <path
       id="path583"
       style="fill:#31baff;fill-opacity:1;fill-rule:evenodd;stroke-width:1pt"
       d="M 13.385528,17.415574 C 13.385528,17.415574 13.304953,18.316431 14.376872,18.425608 C 15.448715,18.534797 20.552004,18.51037 20.665743,18.881075 C 20.727584,19.981563 21.512986,21.801127 22.208776,21.636364 C 23.446257,21.386474 27.098715,17.426524 27.213328,16.742361 C 27.327865,16.058209 23.51608,19.710125 22.404763,18.996486 C 21.293446,18.282848 21.67662,16.834907 20.775762,16.754331 C 19.874948,16.673788 13.677362,16.092923 13.528711,16.560392 C 13.380092,17.027818 13.590596,17.660913 13.385528,17.415574 z " />
    <path
       id="path588"
       style="font-size:12px;fill:#ffffff;fill-rule:evenodd;stroke-width:1pt"
       d="M 13.868611,14.601101 C 13.868611,14.601101 20.534444,14.275698 20.819254,14.675084 C 21.10402,15.074439 15.424114,16.022122 13.868611,14.601101 z " />
    <path
       id="path589"
       style="font-size:12px;fill:#ffffff;fill-rule:evenodd;stroke-width:1pt"
       d="M 26.092714,15.734149 C 26.092714,15.734149 23.528872,13.194743 22.89037,13.017451 C 22.251908,12.840196 22.610128,14.06068 22.610128,14.06068 C 22.610128,14.06068 25.853613,15.272111 26.092714,15.734149 z " />
  </g>
</svg>
