<?xml version="1.0" encoding="UTF-8" standalone="no"?>
<!-- Created with Sodipodi ("http://www.sodipodi.com/") -->
<svg
   xmlns:dc="http://purl.org/dc/elements/1.1/"
   xmlns:cc="http://web.resource.org/cc/"
   xmlns:rdf="http://www.w3.org/1999/02/22-rdf-syntax-ns#"
   xmlns:svg="http://www.w3.org/2000/svg"
   xmlns="http://www.w3.org/2000/svg"
   xmlns:sodipodi="http://sodipodi.sourceforge.net/DTD/sodipodi-0.dtd"
   xmlns:inkscape="http://www.inkscape.org/namespaces/inkscape"
   version="1.0"
   x="0"
   y="0"
   width="90"
   height="90"
   id="svg548"
   sodipodi:version="0.32"
   inkscape:version="0.45.1"
   sodipodi:docname="stock_undo-history.svg"
   sodipodi:docbase="/home/tweenk/dev/GartoonRedux/scalable/stock/document"
   inkscape:output_extension="org.inkscape.output.svg.inkscape">
  <metadata
     id="metadata14">
    <rdf:RDF>
      <cc:Work
         rdf:about="">
        <dc:format>image/svg+xml</dc:format>
        <dc:type
           rdf:resource="http://purl.org/dc/dcmitype/StillImage" />
      </cc:Work>
    </rdf:RDF>
  </metadata>
  <sodipodi:namedview
     id="base"
     pagecolor="#ffffff"
     bordercolor="#666666"
     borderopacity="1.0"
     inkscape:pageopacity="0.0"
     inkscape:pageshadow="2"
     inkscape:zoom="4.5222222"
     inkscape:cx="45"
     inkscape:cy="53.845209"
     inkscape:window-width="864"
     inkscape:window-height="619"
     inkscape:window-x="59"
     inkscape:window-y="38"
     inkscape:current-layer="svg548"
     width="90px"
     height="90px" />
  <defs
     id="defs550" />
  <g
     id="g2174"
     transform="translate(1.1056511,0.8845209)">
    <path
       d="M 23.010033,26.398599 C 23.545586,20.205252 46.061159,-0.45078901 51.163032,1.419 C 60.527514,2.918802 58.821181,13.607028 62.522848,14.922468 C 66.249795,15.575258 98.591799,19.112133 83.96237,53.814904 C 81.300774,60.031251 79.610215,61.197338 76.828212,63.235326 C 74.121071,65.067701 69.774485,65.174943 66.249961,61.211312 C 63.030411,56.42791 64.420566,51.712195 65.913772,47.750443 C 70.612646,35.890868 61.942226,35.748553 57.146451,33.244889 C 56.025562,37.395068 53.960172,47.189121 51.175716,47.052876 C 48.391236,46.916653 22.316756,38.769427 23.010033,26.398599 z "
       style="font-size:12px;fill:#727272;fill-opacity:1;fill-rule:evenodd"
       id="path2162" />
    <path
       d="M 26.993462,26.003092 C 27.168804,21.362982 46.248551,4.881811 50.435672,6.500309 C 54.623,8.118894 52.495936,14.016942 54.291292,17.292965 C 95.073397,18.136628 84.439629,63.702991 71.228039,58.418451 C 63.992486,55.612294 76.323108,43.813116 70.587477,35.816997 C 65.722778,28.840841 52.878024,27.529449 52.614038,29.245409 C 52.086055,32.677388 51.436711,42.938827 49.188063,42.72113 C 46.939383,42.503432 26.012964,30.878208 26.993462,26.003092 z "
       style="font-size:12px;fill:#c2c2c2;fill-rule:evenodd"
       id="path2164" />
    <path
       d="M 82.130439,46.085308 C 80.533848,35.889012 78.183595,29.910628 72.628288,25.707766 C 66.51546,20.84637 56.138464,20.100589 55.824908,19.216396 C 55.511397,18.332224 63.350779,20.684634 69.405947,22.495721 C 80.758339,25.843823 83.125065,39.0495 82.130439,46.085308 z "
       style="font-size:12px;fill:#ffffff;fill-rule:evenodd"
       id="path2166" />
    <path
       d="M 36.247619,21.648602 C 37.538593,20.142476 46.627038,12.549404 49.10608,12.020987 C 51.584974,11.492725 49.93341,16.069259 49.93341,16.069259 C 49.93341,16.069259 37.267958,19.940121 36.247619,21.648602 z "
       style="font-size:12px;fill:#ffffff;fill-rule:evenodd"
       id="path2168" />
    <path
       d="M 27.117256,25.945319 C 26.041446,32.321244 49.493927,42.947776 49.493927,42.947776 C 51.645537,41.247533 52.936498,29.770881 55.088099,28.283153 C 58.960984,29.983408 71.009964,33.383893 71.655438,37.847036 C 72.300936,42.310182 69.073517,51.236469 68.643191,53.361767 C 67.782553,56.549747 70.57964,59.525165 73.376725,58.24999 C 76.173812,56.974802 76.604135,54.424428 76.604135,54.424428 C 76.604135,54.424428 73.591888,54.42444 73.161564,52.086592 C 72.73125,49.748756 78.970896,38.272103 75.743486,33.808958 C 72.516087,29.345814 59.60647,23.18244 51.645537,23.820021 L 48.418127,36.996905 C 48.418127,36.996905 45.190729,36.784399 27.117256,25.945319 z "
       style="font-size:12px;fill:#9b9a9a;fill-rule:evenodd;stroke-width:1"
       id="path2172" />
  </g>
  <path
     d="M 15.68835,60.400775 C 15.68835,60.400775 5.5102229,56.151534 5.5274198,56.284969 C 5.5446176,56.418379 7.4214035,54.141873 7.4214035,54.141873 L 10.059633,54.615642 L 15.908314,56.845802 L 15.68835,60.400775 z "
     style="font-size:12px;fill:none;fill-rule:evenodd;stroke-width:1"
     id="path576" />
  <g
     id="g3152"
     transform="translate(-1.5479115,1.990172)">
    <path
       id="path582"
       style="font-size:12px;fill:#7e0000;fill-rule:evenodd"
       d="M 3.3294434,47.40597 C 3.8649967,41.212623 26.380569,20.556582 31.482442,22.426371 C 40.846924,23.926173 39.140591,34.614399 42.842258,35.929839 C 46.569205,36.582629 78.911209,40.119504 64.28178,74.822275 C 61.620184,81.038622 59.929625,82.204709 57.147622,84.242697 C 54.440481,86.075072 50.093895,86.182314 46.569371,82.218683 C 43.349821,77.435281 44.739976,72.719566 46.233182,68.757814 C 50.932056,56.898239 42.261636,56.755924 37.465861,54.25226 C 36.344972,58.402439 34.279582,68.196492 31.495126,68.060247 C 28.710646,67.924024 2.6361666,59.776798 3.3294434,47.40597 z " />
    <path
       id="path581"
       style="font-size:12px;fill:#ff1500;fill-rule:evenodd"
       d="M 7.312872,47.010463 C 7.4882148,42.370353 26.567961,25.889182 30.755082,27.50768 C 34.94241,29.126265 32.815346,35.024313 34.610702,38.300336 C 75.392807,39.143999 64.759039,84.710362 51.547449,79.425822 C 44.311896,76.619665 56.642518,64.820487 50.906887,56.824368 C 46.042188,49.848212 33.197434,48.53682 32.933448,50.25278 C 32.405465,53.684759 31.756121,63.946198 29.507473,63.728501 C 27.258793,63.510803 6.332374,51.885579 7.312872,47.010463 z " />
    <path
       id="path588"
       style="font-size:12px;fill:#ffffff;fill-rule:evenodd"
       d="M 62.449849,67.092679 C 60.853258,56.896383 58.503005,50.917999 52.947698,46.715137 C 46.83487,41.853741 36.457874,41.10796 36.144318,40.223767 C 35.830807,39.339595 43.670189,41.692005 49.725357,43.503092 C 61.077749,46.851194 63.444475,60.056871 62.449849,67.092679 z " />
    <path
       id="path589"
       style="font-size:12px;fill:#ffffff;fill-rule:evenodd"
       d="M 16.567029,42.655973 C 17.858003,41.149847 26.946448,33.556775 29.42549,33.028358 C 31.904384,32.500096 30.25282,37.07663 30.25282,37.07663 C 30.25282,37.07663 17.587368,40.947492 16.567029,42.655973 z " />
    <path
       id="path615"
       style="font-size:12px;fill:#cb0000;fill-rule:evenodd;stroke-width:1"
       d="M 7.4366661,46.95269 C 6.3608564,53.328615 29.813337,63.955147 29.813337,63.955147 C 31.964947,62.254904 33.255908,50.778252 35.407509,49.290524 C 39.280394,50.990779 51.329374,54.391264 51.974848,58.854407 C 52.620346,63.317553 49.392927,72.24384 48.962601,74.369138 C 48.101963,77.557118 50.89905,80.532536 53.696135,79.257361 C 56.493222,77.982173 56.923545,75.431799 56.923545,75.431799 C 56.923545,75.431799 53.911298,75.431811 53.480974,73.093963 C 53.05066,70.756127 59.290306,59.279474 56.062896,54.816329 C 52.835497,50.353185 39.92588,44.189811 31.964947,44.827392 L 28.737537,58.004276 C 28.737537,58.004276 25.510139,57.79177 7.4366661,46.95269 z " />
  </g>
  <path
     id="path2170"
     style="font-size:12px;fill:none;fill-rule:evenodd;stroke-width:1"
     d="M 35.36894,39.393404 C 35.36894,39.393404 25.190813,35.144163 25.208009,35.277598 C 25.225207,35.411008 27.101993,33.134502 27.101993,33.134502 L 29.740223,33.608271 L 35.588904,35.838431 L 35.36894,39.393404 z " />
</svg>
