<?xml version="1.0" encoding="UTF-8" standalone="no"?>
<!-- Created with Sodipodi ("http://www.sodipodi.com/") -->
<svg
   xmlns:dc="http://purl.org/dc/elements/1.1/"
   xmlns:cc="http://web.resource.org/cc/"
   xmlns:rdf="http://www.w3.org/1999/02/22-rdf-syntax-ns#"
   xmlns:svg="http://www.w3.org/2000/svg"
   xmlns="http://www.w3.org/2000/svg"
   xmlns:sodipodi="http://sodipodi.sourceforge.net/DTD/sodipodi-0.dtd"
   xmlns:inkscape="http://www.inkscape.org/namespaces/inkscape"
   version="1.0"
   x="0"
   y="0"
   width="90"
   height="90"
   id="svg704"
   sodipodi:version="0.32"
   sodipodi:docname="security-low.svg"
   sodipodi:docbase="/home/tweenk/GNUtoon/status"
   inkscape:version="0.45.1"
   inkscape:output_extension="org.inkscape.output.svg.inkscape">
  <metadata
     id="metadata32">
    <rdf:RDF>
      <cc:Work
         rdf:about="">
        <dc:format>image/svg+xml</dc:format>
        <dc:type
           rdf:resource="http://purl.org/dc/dcmitype/StillImage" />
      </cc:Work>
    </rdf:RDF>
  </metadata>
  <sodipodi:namedview
     id="base"
     inkscape:zoom="5.2666667"
     inkscape:cx="45"
     inkscape:cy="45"
     inkscape:window-width="1014"
     inkscape:window-height="686"
     inkscape:window-x="0"
     inkscape:window-y="41"
     inkscape:current-layer="svg704"
     width="90px"
     height="90px" />
  <defs
     id="defs706" />
  <path
     sodipodi:type="inkscape:offset"
     inkscape:radius="1.4160534"
     inkscape:original="M 13.6875 2.46875 C 10.481183 2.4661913 8.0206471 4.2923732 8 7.375 L 8 11.625 C 6.690965 12.088687 5.8125 12.91445 5.8125 13.875 L 5.8125 14.03125 L 5.78125 14.03125 L 5.8125 23.78125 C 6.1416031 26.699215 7.8611266 27.813523 10.84375 28.09375 L 19.9375 28.09375 C 22.663239 28.146948 23.972703 26.304865 23.96875 24.15625 L 23.96875 16.25 C 23.982136 16.159331 24 16.065706 24 15.96875 L 24 13.875 C 24 12.965512 23.22541 12.163533 22.03125 11.6875 L 22.03125 7.5 C 22.031251 4.6228379 19.350915 2.4971534 16.4375 2.46875 L 13.6875 2.46875 z M 13.65625 5.8125 L 16.375 5.8125 C 17.858289 5.8125001 18.6875 6.8094536 18.6875 7.5 L 18.6875 11.21875 L 11.34375 11.21875 L 11.34375 7.375 C 11.34375 6.6844342 12.172955 5.8125001 13.65625 5.8125 z "
     style="font-size:12px;fill:#761700;fill-opacity:1;fill-rule:evenodd"
     id="path3240"
     d="M 13.6875,1.0625 C 11.815211,1.0610059 10.071976,1.5951981 8.75,2.6875 C 7.4280237,3.7798019 6.6065843,5.4588227 6.59375,7.375 L 6.59375,10.84375 C 6.1890138,11.06895 5.7303381,11.237376 5.40625,11.5625 C 4.9406638,12.029574 4.6599583,12.676237 4.53125,13.375 C 4.5252509,13.407569 4.5049203,13.435845 4.5,13.46875 C 4.4890709,13.489323 4.478651,13.510163 4.46875,13.53125 C 4.4075765,13.690892 4.3758142,13.860291 4.375,14.03125 L 4.40625,23.78125 C 4.4033746,23.833294 4.4033746,23.885456 4.40625,23.9375 C 4.5993342,25.649465 5.277791,27.098984 6.4375,28.03125 C 7.597209,28.963516 9.0786341,29.345906 10.71875,29.5 C 10.760396,29.50184 10.802104,29.50184 10.84375,29.5 L 19.9375,29.5 C 21.623605,29.532908 23.078778,28.936991 24.03125,27.90625 C 24.983722,26.875509 25.377507,25.51897 25.375,24.15625 L 25.375,16.46875 L 25.375,16.25 C 25.387162,16.165603 25.40625,16.121589 25.40625,15.96875 L 25.40625,13.875 C 25.40625,12.537489 24.516057,11.636668 23.4375,10.96875 L 23.4375,7.5 C 23.437501,3.7433833 20.031138,1.097535 16.4375,1.0625 L 13.6875,1.0625 z M 13.65625,7.21875 L 16.375,7.21875 C 17.22378,7.2187501 17.28125,7.9430555 17.28125,7.5 L 17.28125,9.8125 L 12.75,9.8125 L 12.75,7.375 C 12.75,7.8179961 12.727893,7.2187501 13.65625,7.21875 z "
     transform="matrix(3,0,0,3,0.21875,-0.5638767)" />
  <path
     sodipodi:nodetypes="ccccccc"
     id="path3177"
     d="M 17.584193,41.529873 L 17.65625,70.779873 C 18.643559,79.533768 23.802131,82.876692 32.75,83.717373 L 60.03125,83.717373 C 68.208467,83.876967 72.180245,78.350718 72.168386,71.904873 L 72.146693,47.245524 L 17.584193,41.529873 z "
     style="font-size:12px;fill:#ed0000;fill-opacity:1;fill-rule:evenodd" />
  <path
     sodipodi:nodetypes="ccccccccc"
     d="M 31.309955,33.135144 C 23.750309,33.135144 17.664395,36.676317 17.664395,41.075001 L 17.613146,46.089615 C 17.613146,50.488278 21.814763,54.029448 29.374388,54.029448 L 60.037424,54.029448 C 67.597049,54.029448 72.246569,51.784302 72.246569,47.385636 L 72.246569,41.075001 C 72.246569,36.676317 66.160655,33.135144 58.60103,33.135144 L 31.309955,33.135144 z "
     style="font-size:12px;fill:#ff5b3d;fill-opacity:1;fill-rule:evenodd"
     id="path3179" />
  <path
     style="font-size:12px;fill:#bf0808;fill-opacity:1;fill-rule:evenodd;stroke:none;stroke-width:3.33820772;stroke-linecap:round;stroke-opacity:1"
     d="M 24.21875,21.561123 L 24.21875,40.967373 C 24.21875,43.737426 26.464322,45.982998 29.234375,45.982998 C 32.004428,45.982998 34.25,43.737426 34.25,40.967373 L 34.25,21.561123 C 34.25,19.489425 36.737615,16.873623 41.1875,16.873623 L 49.34375,16.901517 C 53.793617,16.901517 56.28125,19.864485 56.28125,21.936123 L 56.28125,41.342373 C 56.28125,44.112426 58.526822,46.357998 61.296875,46.357998 C 64.066928,46.357998 66.3125,44.112426 66.3125,41.342373 L 66.3125,21.936123 C 66.312503,13.304637 58.271495,6.9554763 49.53125,6.8702673 L 41.28125,6.8423733 C 31.662299,6.8346963 24.280691,12.313242 24.21875,21.561123 z "
     id="path3187"
     sodipodi:nodetypes="ccsccccccsccccc" />
  <path
     style="font-size:12px;fill:#593a28;fill-rule:evenodd"
     d="M 46.625,57.373623 C 42.438176,57.373623 39.03125,60.64728 39.03125,64.686123 C 39.03125,67.311384 40.533908,69.58371 42.6875,70.873623 C 42.651911,71.072484 42.59375,71.223594 42.59375,71.436123 L 42.59375,77.154873 C 42.59375,78.717546 43.58381,79.967373 44.84375,79.967373 L 49.34375,79.967373 C 50.60369,79.96737 51.6875,78.717546 51.6875,77.154873 L 51.6875,71.436123 C 51.6875,70.998564 51.548423,70.679979 51.40625,70.311123 C 53.091074,68.96982 54.21875,66.957981 54.21875,64.686123 C 54.21875,60.64728 50.811806,57.373623 46.625,57.373623 z "
     id="path3181" />
  <path
     id="path3185"
     d="M 45.21875,57.842373 C 41.825192,57.842373 39.03125,60.952029 39.03125,64.779873 C 39.03125,67.291161 40.258538,69.470298 42.03125,70.686123 C 42.001868,70.876239 41.9375,71.045283 41.9375,71.248623 L 41.9375,76.592373 C 41.9375,78.073428 42.697562,79.217373 43.71875,79.217373 L 47.46875,79.217373 C 48.489959,79.217373 49.25,78.073425 49.25,76.592373 L 49.25,71.248623 C 49.25,70.829463 49.180082,70.476045 49.0625,70.123623 C 50.428091,68.852388 51.312503,66.933057 51.3125,64.779873 C 51.3125,60.952029 48.612266,57.842373 45.21875,57.842373 z "
     style="font-size:12px;fill:#b01911;fill-rule:evenodd" />
  <path
     style="font-size:12px;fill:#ff9a73;fill-opacity:1;fill-rule:evenodd;stroke:none;stroke-width:0.96294451;stroke-linecap:round;stroke-opacity:1"
     d="M 39.78125,9.9361233 C 32.520731,9.9361233 26.28125,14.754717 26.28125,21.092373 L 26.28125,40.592373 C 26.28125,41.394912 26.931836,42.045498 27.734375,42.045498 C 28.536914,42.045498 29.1875,41.394912 29.1875,40.592373 L 29.1875,21.092373 C 29.1875,16.689609 33.735605,12.885054 39.6875,12.842373 L 39.78125,12.842373 L 47.84375,12.91443 C 53.845733,12.91443 58.437503,17.133609 58.4375,21.561123 L 58.4375,40.967373 C 58.301063,41.547933 58.535417,42.152658 59.027447,42.489663 C 59.519474,42.826668 60.168026,42.826668 60.660053,42.489663 C 61.152083,42.152658 61.386437,41.547933 61.25,40.967373 L 61.25,21.561123 C 61.250003,15.251535 55.155992,10.050624 47.9375,10.00818 L 47.84375,10.00818 L 39.78125,9.9361233 z "
     id="path3189"
     sodipodi:nodetypes="cccscccccccssccccc" />
</svg>
