<?xml version="1.0" encoding="UTF-8" standalone="no"?>
<!-- Created with Sodipodi ("http://www.sodipodi.com/") -->
<svg
   xmlns:ns="http://creativecommons.org/ns#"
   xmlns:dc="http://purl.org/dc/elements/1.1/"
   xmlns:cc="http://web.resource.org/cc/"
   xmlns:rdf="http://www.w3.org/1999/02/22-rdf-syntax-ns#"
   xmlns:svg="http://www.w3.org/2000/svg"
   xmlns="http://www.w3.org/2000/svg"
   xmlns:xlink="http://www.w3.org/1999/xlink"
   xmlns:sodipodi="http://sodipodi.sourceforge.net/DTD/sodipodi-0.dtd"
   xmlns:inkscape="http://www.inkscape.org/namespaces/inkscape"
   id="svg548"
   sodipodi:version="0.32"
   width="72pt"
   height="72pt"
   sodipodi:docbase="/home/tweenk/dev/GartoonRedux/scalable/mimetypes"
   sodipodi:docname="preferences-other.svg"
   inkscape:version="0.45.1"
   inkscape:output_extension="org.inkscape.output.svg.inkscape">
  <metadata
     id="metadata27">
    <rdf:RDF>
      <ns:Work
         rdf:about="">
        <dc:format>image/svg+xml</dc:format>
        <dc:type
           rdf:resource="http://purl.org/dc/dcmitype/StillImage" />
      </ns:Work>
      <cc:Work
         rdf:about="">
        <dc:format>image/svg+xml</dc:format>
        <dc:type
           rdf:resource="http://purl.org/dc/dcmitype/StillImage" />
      </cc:Work>
    </rdf:RDF>
  </metadata>
  <defs
     id="defs550">
    <linearGradient
       id="linearGradient604">
      <stop
         id="stop606"
         style="stop-color:#666565;stop-opacity:1;"
         offset="0.000000" />
      <stop
         id="stop605"
         style="stop-color:#ffffff;stop-opacity:1;"
         offset="1.000000" />
    </linearGradient>
    <linearGradient
       gradientTransform="scale(0.994399,1.005632)"
       spreadMethod="pad"
       gradientUnits="userSpaceOnUse"
       y2="14.1547699"
       x2="79.6281509"
       y1="28.6572132"
       x1="61.0468903"
       id="linearGradient603"
       xlink:href="#linearGradient604" />
    <linearGradient
       id="linearGradient554">
      <stop
         style="stop-color:#666565;stop-opacity:1;"
         offset="0.000000"
         id="stop555" />
      <stop
         style="stop-color:#ffffff;stop-opacity:1;"
         offset="1.000000"
         id="stop556" />
    </linearGradient>
    <linearGradient
       xlink:href="#linearGradient554"
       id="linearGradient557"
       x1="12.9236002"
       y1="79.9603500"
       x2="8.33575153"
       y2="72.2902298"
       gradientUnits="userSpaceOnUse"
       spreadMethod="pad"
       gradientTransform="scale(1.122498,0.89087)" />
    <inkscape:perspective
       sodipodi:type="inkscape:persp3d"
       inkscape:vp_x="-50 : 600 : 1"
       inkscape:vp_y="0 : 1000 : 0"
       inkscape:vp_z="700 : 600 : 1"
       inkscape:persp3d-origin="300 : 400 : 1"
       id="perspective29" />
    <linearGradient
       id="linearGradient569">
      <stop
         style="stop-color:#c57700;stop-opacity:1;"
         offset="0.000000"
         id="stop570" />
      <stop
         style="stop-color:#ffa75f;stop-opacity:0;"
         offset="1.000000"
         id="stop571" />
    </linearGradient>
    <linearGradient
       id="linearGradient559">
      <stop
         style="stop-color:#945700;stop-opacity:1;"
         offset="0.000000"
         id="stop560" />
      <stop
         style="stop-color:#ffa75f;stop-opacity:0;"
         offset="1.000000"
         id="stop561" />
    </linearGradient>
    <linearGradient
       xlink:href="#linearGradient559"
       id="linearGradient562"
       x1="40.9153252"
       y1="31.7318363"
       x2="42.7533417"
       y2="35.4855690"
       gradientUnits="userSpaceOnUse"
       spreadMethod="pad"
       gradientTransform="matrix(1.2287685,0,0,0.7275398,-7.1389191,1.8739714)" />
    <linearGradient
       xlink:href="#linearGradient559"
       id="linearGradient566"
       x1="59.0300407"
       y1="48.8431816"
       x2="58.3435440"
       y2="23.6183739"
       gradientUnits="userSpaceOnUse"
       spreadMethod="pad"
       gradientTransform="matrix(0.5734264,0,0,1.5590094,-6.8541051,2.1587764)" />
    <linearGradient
       xlink:href="#linearGradient569"
       id="linearGradient568"
       x1="92.7804184"
       y1="64.9443817"
       x2="90.8925323"
       y2="42.8786545"
       gradientUnits="userSpaceOnUse"
       spreadMethod="pad"
       gradientTransform="matrix(0.7296653,0,0,1.2251888,-7.1389191,1.8739714)" />
    <linearGradient
       inkscape:collect="always"
       xlink:href="#linearGradient559"
       id="linearGradient2544"
       gradientTransform="scale(1.1224975,0.8908706)"
       x1="6.2540186"
       y1="75.414543"
       x2="14.462394"
       y2="75.414543"
       gradientUnits="userSpaceOnUse" />
  </defs>
  <sodipodi:namedview
     id="base"
     showgrid="false"
     inkscape:zoom="3.9205143"
     inkscape:cx="67.82325"
     inkscape:cy="40.330759"
     inkscape:window-width="795"
     inkscape:window-height="711"
     inkscape:window-x="0"
     inkscape:window-y="1"
     inkscape:current-layer="svg548" />
  <path
     style="fill:#000000;fill-opacity:0.3;fill-rule:evenodd;stroke:none;stroke-width:1pt;stroke-linecap:butt;stroke-linejoin:miter;stroke-opacity:1"
     d="M 41.126783,86.944379 C 40.267791,86.568459 6.0797264,81.723193 6.0797264,81.723193 L 2.987337,83.117462 L 2.1283386,79.619442 L 4.7053256,76.584302 L 2.1283386,75.664742 L 16.731279,64.779378 L 18.105647,65.755471 L 18.44926,63.449718 L 22.572446,63.047793 L 67.240265,72.39582 L 41.126783,86.944379 z "
     id="path594" />
  <path
     style="fill:#593a28;fill-opacity:1;fill-rule:evenodd;stroke:none;stroke-width:1pt;stroke-linecap:butt;stroke-linejoin:miter;stroke-opacity:1"
     d="M 16.673693,33.243336 C 19.97407,48.138049 19.287161,71.577094 13.758515,83.054094 L 40.68316,87.362945 L 73.900512,75.358259 C 72.191703,59.003214 70.767585,40.369694 74.185298,24.584221 L 80.04279,11.201955 L 74.138779,11.989068 L 74.926006,8.0531426 C 67.428537,2.8625904 57.937379,1.9442 48.161435,5.2979534 L 47.571062,9.6275486 L 41.863905,4.7075618 C 29.375972,5.2465936 18.027277,8.6337294 7.8178196,18.286692 L 16.673693,33.243336 z "
     id="path564"
     sodipodi:nodetypes="ccccccccccccc" />
  <path
     style="fill:url(#linearGradient562);fill-opacity:1;fill-rule:evenodd;stroke:none;stroke-width:1pt;stroke-linecap:butt;stroke-linejoin:miter;stroke-opacity:1"
     d="M 49.539129,19.270583 C 49.145515,19.270583 21.003251,29.307392 21.003251,29.307392 C 21.003251,29.307392 23.56169,48.003221 29.071993,48.396834 C 34.58239,48.790447 68.431717,22.025876 68.431717,22.025876"
     id="path558"
     sodipodi:nodetypes="cccc" />
  <path
     style="fill:#e9a93d;fill-opacity:1;fill-rule:evenodd;stroke:none;stroke-width:1pt;stroke-linecap:butt;stroke-linejoin:miter;stroke-opacity:1"
     d="M 20.806491,31.472123 L 38.911947,33.046576 C 36.895849,50.497649 36.58856,67.09427 39.699079,82.836533 C 39.699079,82.836533 21.200105,81.065415 21.200105,79.884575 C 21.200105,78.70383 26.217894,52.087231 20.806491,31.472123 z "
     id="path552"
     sodipodi:nodetypes="ccccc" />
  <path
     style="fill:#ffe6ba;fill-opacity:1;fill-rule:evenodd;stroke:none;stroke-width:1pt;stroke-linecap:butt;stroke-linejoin:miter;stroke-opacity:1"
     d="M 69.394996,23.885021 L 38.518334,33.44019 L 39.305561,83.033387 C 39.305561,83.033387 68.82533,72.012687 68.82533,70.831847 C 68.82533,69.651102 64.837951,35.955892 69.394996,23.885021 z "
     id="path553"
     sodipodi:nodetypes="ccccc" />
  <path
     style="fill:#e3c084;fill-opacity:1;fill-rule:evenodd;stroke:none;stroke-width:1pt;stroke-linecap:butt;stroke-linejoin:miter;stroke-opacity:1"
     d="M 50.326261,19.270678 L 42.847891,9.8243269 C 33.663927,11.08821 23.625606,12.352141 15.296094,20.451423 L 20.412878,29.897764 L 50.326261,19.270678 z "
     id="path556"
     sodipodi:nodetypes="ccccc" />
  <path
     style="fill:#e3b463;fill-opacity:1;fill-rule:evenodd;stroke:none;stroke-width:1pt;stroke-linecap:butt;stroke-linejoin:miter;stroke-opacity:1"
     d="M 49.539034,19.467532 L 69.612462,23.206622 L 71.186916,12.973148 C 64.079751,10.608282 57.542253,9.3826536 50.719874,11.005129 L 49.539034,19.467532 z "
     id="path557"
     sodipodi:nodetypes="ccccc" />
  <path
     style="fill:#c89134;fill-opacity:1;fill-rule:evenodd;stroke:none;stroke-width:1pt;stroke-linecap:butt;stroke-linejoin:miter;stroke-opacity:1"
     d="M 38.911947,33.046576 C 37.731107,30.422614 36.550362,27.798556 35.369522,25.174594 C 28.832024,22.217719 21.724859,20.400082 14.902481,23.993848 C 16.739311,26.486575 18.576047,28.979396 20.412878,31.472123 C 26.579266,31.996972 32.745559,32.521727 38.911947,33.046576 z "
     id="path554"
     sodipodi:nodetypes="ccccc" />
  <path
     style="fill:#e3c084;fill-opacity:1;fill-rule:evenodd;stroke:none;stroke-width:1pt;stroke-linecap:butt;stroke-linejoin:miter;stroke-opacity:1"
     d="M 38.518334,34.227322 L 43.241505,24.78098 C 53.343837,18.915263 63.730955,16.182567 73.548406,15.728252 C 72.039666,18.483451 70.53083,21.23865 69.02209,23.993848 L 38.518334,34.227322 z "
     id="path555"
     sodipodi:nodetypes="ccccc" />
  <path
     style="fill:url(#linearGradient566);fill-opacity:1;fill-rule:evenodd;stroke:none;stroke-width:1pt;stroke-linecap:butt;stroke-linejoin:miter;stroke-opacity:1"
     d="M 21.091305,31.756928 C 27.126457,32.281777 33.161609,32.806532 39.196761,33.331381 C 35.75664,51.06724 37.158255,66.823205 39.983893,82.850254 C 39.983893,82.850254 21.123473,81.079136 21.123473,79.898296 C 25.658665,49.125869 21.99492,37.572228 21.091305,31.756928 z "
     id="path565"
     sodipodi:nodetypes="ccccc" />
  <path
     style="fill:url(#linearGradient568);fill-opacity:1;fill-rule:evenodd;stroke:none;stroke-width:1pt;stroke-linecap:butt;stroke-linejoin:miter;stroke-opacity:1"
     d="M 59.426642,32.144566 L 38.518334,33.44019 L 39.305561,83.033387 C 39.305561,83.033387 68.82533,72.012687 68.82533,70.831847 C 67.740993,53.386042 59.426642,32.538179 59.426642,32.144566 z "
     id="path567"
     sodipodi:nodetypes="ccccc" />
  <path
     style="font-size:12px;fill:#ffffff;fill-opacity:0.70434804;fill-rule:evenodd;stroke-width:1pt"
     d="M 23.012112,70.804052 L 23.012112,77.880852 L 35.292412,79.754152 L 35.292412,72.677352 L 23.012112,70.804052 z "
     id="path573"
     sodipodi:nodetypes="ccccc" />
  <g
     id="g2191"
     transform="matrix(0.6906013,0,0,0.6906013,27.701084,28.131076)">
    <path
       transform="matrix(0.920161,0,0,0.966658,7.26221,-1.76816)"
       sodipodi:nodetypes="ccccccccccccc"
       id="path570"
       d="M 55.2834,50.5792 L 11.8464,78.0058 C 3.99756,81.1118 -5.7526,71.3491 1.75504,62.3527 L 45.0457,33.9235 L 45.192,20.5864 L 69.47,8.84539 L 76.0513,19.8466 L 65.6673,28.3996 L 67.1299,31.4034 L 81.7552,25.268 L 87.6052,38.4206 L 68.7387,52.181 L 55.2834,50.5792 z "
       style="fill:#000000;fill-opacity:0.3;fill-rule:evenodd;stroke:none;stroke-width:1pt;stroke-linecap:butt;stroke-linejoin:miter;stroke-opacity:1" />
    <path
       transform="matrix(0.920161,0,0,0.966658,3.752153,-4.985714)"
       sodipodi:nodetypes="ccccccccccccc"
       id="path569"
       d="M 55.2834,50.5792 L 11.8464,78.0058 C 3.99756,81.1118 -5.7526,71.3491 1.75504,62.3527 L 45.0457,33.9235 L 45.192,20.5864 L 69.47,8.84539 L 76.0513,19.8466 L 65.6673,28.3996 L 67.1299,31.4034 L 81.7552,25.268 L 87.6052,38.4206 L 68.7387,52.181 L 55.2834,50.5792 z "
       style="fill:#000000;fill-opacity:1;fill-rule:evenodd;stroke:none;stroke-width:1pt;stroke-linecap:butt;stroke-linejoin:miter;stroke-opacity:1" />
    <path
       transform="matrix(0.920161,0,0,0.920161,3.752153,-2.945213)"
       sodipodi:nodetypes="ccccccccccccc"
       id="path2508"
       d="M 54.9909,46.1242 L 12.2852,75.0822 C 6.3376,77.9098 0.682512,70.7922 4.97259,65.1371 L 49.4333,35.5941 L 49.2871,21.7001 L 68.1537,12.0474 L 70.9325,17.8976 L 61.426,27.8427 L 65.8136,35.3015 L 80.1464,29.3053 L 82.7789,36.4716 L 67.8612,47.5868 L 54.9909,46.1242 z "
       style="fill:#c9c9c9;fill-opacity:1;fill-rule:evenodd;stroke:none;stroke-width:1pt;stroke-linecap:butt;stroke-linejoin:miter;stroke-opacity:1" />
    <path
       transform="matrix(0.920161,0,0,0.920161,3.752153,-2.945213)"
       sodipodi:nodetypes="ccccc"
       id="path566"
       d="M 54.6984,46.2705 C 54.5522,45.8318 51.3346,44.3692 52.5046,42.3217 L 38.4644,51.6819 C 38.7569,53.1444 40.0732,55.6307 40.0732,55.7769 C 40.0732,55.9232 54.2597,46.7093 54.6984,46.2705 z "
       style="fill:#9d9d9d;fill-opacity:1;fill-rule:evenodd;stroke:none;stroke-width:1pt;stroke-linecap:butt;stroke-linejoin:miter;stroke-opacity:1" />
    <path
       transform="matrix(0.920161,0,0,0.920161,3.752153,-2.945213)"
       sodipodi:nodetypes="ccccc"
       id="path562"
       d="M 43.5832,53.7293 L 12.2852,75.0822 C 6.3376,77.9098 0.682512,70.7922 4.97259,65.1371 L 37.0018,43.7842 C 42.2669,45.198 43.2907,49.683 43.5832,53.7293 z "
       style="fill:#ffc83d;fill-opacity:1;fill-rule:evenodd;stroke:none;stroke-width:1pt;stroke-linecap:butt;stroke-linejoin:miter;stroke-opacity:1" />
    <path
       transform="matrix(0.920161,0,0,0.920161,3.752153,-2.945213)"
       id="path568"
       d="M 38.6107,47.148 L 8.48264,66.8921 C 8.48264,66.8921 6.28886,65.8683 6.58136,65.7221 C 6.87387,65.5758 36.7094,45.2467 36.7094,45.2467 L 38.6107,47.148 z "
       style="fill:#ffffff;fill-opacity:1;fill-rule:evenodd;stroke:none;stroke-width:1pt;stroke-linecap:butt;stroke-linejoin:miter;stroke-opacity:1" />
    <path
       transform="matrix(0.920161,0,0,0.920161,3.752153,-2.945213)"
       sodipodi:nodetypes="ccccc"
       id="path2513"
       d="M 43.5832,53.7293 L 12.2852,75.0822 C 8.09263,76.1548 14.1377,74.156 7.60514,69.9634 L 39.7806,48.318 C 41.3894,48.5618 43.2907,49.683 43.5832,53.7293 z "
       style="fill:#ff933d;fill-opacity:1;fill-rule:evenodd;stroke:none;stroke-width:1pt;stroke-linecap:butt;stroke-linejoin:miter;stroke-opacity:1" />
    <path
       id="path561"
       d="M 16.234,67.1846 C 16.234,69.2029 14.1701,70.8409 11.6271,70.8409 C 9.08404,70.8409 7.02012,69.2029 7.02012,67.1846 C 7.02012,65.1663 9.08404,63.5283 11.6271,63.5283 C 14.1701,63.5283 16.234,65.1663 16.234,67.1846 z "
       style="font-size:12px;fill:url(#linearGradient557);fill-rule:evenodd;stroke-width:1pt"
       transform="matrix(0.837932,-0.483709,0.480913,0.842803,-27.39991,8.07806)" />
    <path
       id="path560"
       d="M 16.234,67.1846 C 16.234,69.2029 14.1701,70.8409 11.6271,70.8409 C 9.08404,70.8409 7.02012,69.2029 7.02012,67.1846 C 7.02012,65.1663 9.08404,63.5283 11.6271,63.5283 C 14.1701,63.5283 16.234,65.1663 16.234,67.1846 z "
       style="font-size:12px;fill:url(#linearGradient2544);fill-rule:evenodd;stroke-width:1pt"
       transform="matrix(0.625296,-0.360962,0.358875,0.628931,-16.72849,21.01979)" />
    <path
       transform="matrix(0.920161,0,0,0.920161,3.752153,-2.945213)"
       sodipodi:nodetypes="ccccccccccc"
       id="path2517"
       d="M 66.9836,14.9725 L 52.2121,22.7239 L 52.2121,33.6928 L 57.7697,42.7604 L 67.4224,43.9305 L 80.4389,35.8866 L 79.1226,32.5228 L 64.4973,39.1041 L 58.2085,28.1352 L 68.1537,17.1663 L 66.9836,14.9725 z "
       style="fill:#969696;fill-opacity:1;fill-rule:evenodd;stroke:none;stroke-width:1pt;stroke-linecap:butt;stroke-linejoin:miter;stroke-opacity:1" />
    <path
       transform="matrix(0.920161,0,0,0.920161,3.752153,-2.945213)"
       sodipodi:nodetypes="ccccccccccc"
       id="path2519"
       d="M 67.5686,16.1425 L 53.2359,24.4789 L 53.8209,33.254 L 58.6472,41.1516 L 67.4224,43.9305 L 80.4389,35.8866 L 79.4151,33.5466 L 65.2286,40.1279 L 58.501,28.2815 L 68.1537,17.1663 L 67.5686,16.1425 z "
       style="fill:#bbbbbb;fill-opacity:1;fill-rule:evenodd;stroke:none;stroke-width:1pt;stroke-linecap:butt;stroke-linejoin:miter;stroke-opacity:1" />
    <g
       transform="matrix(-1,0,0,1,89.02518,1.132078)"
       id="g790">
      <defs
         id="defs573">
        <linearGradient
           id="linearGradient2523">
          <stop
             id="stop2525"
             style="stop-color:#666565;stop-opacity:1;"
             offset="0.000000" />
          <stop
             id="stop2527"
             style="stop-color:#ffffff;stop-opacity:1;"
             offset="1.000000" />
        </linearGradient>
        <linearGradient
           gradientTransform="scale(0.994399,1.005632)"
           spreadMethod="pad"
           gradientUnits="userSpaceOnUse"
           y2="14.15477"
           x2="79.628151"
           y1="28.657213"
           x1="61.04689"
           id="linearGradient2529"
           xlink:href="#linearGradient604" />
      </defs>
      <sodipodi:namedview
         id="namedview799" />
      <path
         transform="matrix(0.949606,0,0,0.949606,3.089142,0.15748)"
         sodipodi:nodetypes="ccccccccccccc"
         id="path613"
         d="M 1.25,73.9062 L 31.7187,41.8749 C 35.3646,40.8853 38.2292,39.8957 39.6876,41.7187 L 53.5938,27.9686 L 54.0626,15.6249 L 73.5938,3.12489 L 86.4064,16.0937 C 85.7814,17.4999 75.0001,36.0936 74.2188,37.1874 C 73.2813,37.0312 64.8438,37.6562 63.2813,37.6562 C 62.0313,37.3437 51.2501,49.2187 50.6251,50.4687 C 52.0834,52.1354 51.9793,55.2083 51.0938,57.3437 L 20.1562,89.6875 C 10.3646,93.3333 -0.208344,88.2291 1.25,73.9062 z "
         style="fill:#000000;fill-opacity:0.30275197;fill-rule:evenodd;stroke:none;stroke-width:1pt;stroke-linecap:butt;stroke-linejoin:miter;stroke-opacity:1" />
      <path
         transform="matrix(0.949606,0,0,0.949606,-4.456341e-3,-2.494173)"
         sodipodi:nodetypes="ccccccccccccc"
         id="path612"
         d="M 1.25,73.9062 L 31.7187,41.8749 C 35.3646,40.8853 38.2292,39.8957 39.6876,41.7187 L 53.5938,27.9686 L 54.0626,15.6249 L 73.5938,3.12489 L 86.4064,16.0937 C 85.7814,17.4999 75.0001,36.0936 74.2188,37.1874 C 73.2813,37.0312 64.8438,37.6562 63.2813,37.6562 C 62.0313,37.3437 51.2501,49.2187 50.6251,50.4687 C 52.0834,52.1354 51.9793,55.2083 51.0938,57.3437 L 20.1562,89.6875 C 10.3646,93.3333 -0.208344,88.2291 1.25,73.9062 z "
         style="fill:#000000;fill-opacity:1;fill-rule:evenodd;stroke:none;stroke-width:1pt;stroke-linecap:butt;stroke-linejoin:miter;stroke-opacity:1" />
      <path
         transform="matrix(0.877883,0.215653,2.038332e-2,0.922358,-3.265319,-3.362741)"
         sodipodi:ry="6.2976718"
         sodipodi:rx="7.1815591"
         sodipodi:cy="78.619995"
         sodipodi:cx="15.799429"
         d="M 22.980988 78.619995 A 7.1815591 6.2976718 0 1 1  8.6178699,78.619995 A 7.1815591 6.2976718 0 1 1  22.980988 78.619995 z"
         id="path596"
         style="fill:#ff933d;fill-opacity:1;fill-rule:evenodd;stroke:none;stroke-width:1pt;stroke-linecap:butt;stroke-linejoin:miter;stroke-opacity:1"
         sodipodi:type="arc" />
      <path
         transform="matrix(0.949606,0,0,0.949606,-4.456341e-3,-2.494173)"
         sodipodi:nodetypes="ccccccccc"
         id="path598"
         d="M 39.5538,47.3526 C 39.3329,47.3526 57.6735,29.4539 57.6735,29.4539 L 58.1154,18.6263 L 72.6995,8.46167 L 81.5384,17.0796 L 71.5946,33.2104 L 61.6509,32.7685 L 43.7523,51.772 L 39.5538,47.3526 z "
         style="fill:#c2c2c2;fill-opacity:1;fill-rule:evenodd;stroke:none;stroke-width:1pt;stroke-linecap:butt;stroke-linejoin:miter;stroke-opacity:1" />
      <path
         transform="matrix(0.949606,0,0,0.949606,-4.456341e-3,-2.494173)"
         id="path607"
         d="M 41.7635,47.5735 C 42.4265,47.1316 58.3364,30.7797 58.3364,30.7797 L 59.4412,32.3265 L 43.3103,48.8994 L 41.7635,47.5735 z "
         style="fill:#ffffff;fill-opacity:0.98165134;fill-rule:evenodd;stroke:none;stroke-width:1pt;stroke-linecap:butt;stroke-linejoin:miter;stroke-opacity:1" />
      <path
         transform="matrix(0.949606,0,0,0.949606,-4.456341e-3,-2.494173)"
         sodipodi:nodetypes="ccccc"
         id="path597"
         d="M 29.6875,50.3125 C 29.6875,50.4687 33.75,46.25 35,45.4688 C 40,43.125 45.9375,49.8437 46.4063,54.375 C 45.4688,55.1562 41.4063,60.1562 41.4063,60.1562 C 38.9063,53.9062 35.625,51.25 29.6875,50.3125 z "
         style="fill:#e32116;fill-opacity:1;fill-rule:evenodd;stroke:none;stroke-width:1pt;stroke-linecap:butt;stroke-linejoin:miter;stroke-opacity:1" />
      <path
         transform="matrix(0.949606,0,0,0.949606,-4.456341e-3,-2.494173)"
         sodipodi:nodetypes="ccccc"
         id="path575"
         d="M 8.61787,72.7643 C 15.6889,72.5433 19.2245,79.3934 18.7825,83.8128 C 21.4342,80.7192 41.5426,59.9479 41.5426,59.9479 C 41.6899,53.0242 35.65,48.0892 29.3891,50.4462 L 8.61787,72.7643 z "
         style="fill:#ffc93f;fill-opacity:1;fill-rule:evenodd;stroke:none;stroke-width:1pt;stroke-linecap:butt;stroke-linejoin:miter;stroke-opacity:1" />
      <path
         transform="matrix(0.949606,0,0,0.949606,-4.456341e-3,-2.494173)"
         sodipodi:nodetypes="ccccc"
         id="path610"
         d="M 37.7529,51.3069 C 42.7248,48.701 40.0477,48.4597 41.2977,47.6785 C 41.5468,45.3347 45.9375,49.8437 46.4063,54.375 C 45.4688,55.1562 41.4063,60.1562 41.4063,60.1562 C 38.9063,53.9062 39.492,53.4597 37.7529,51.3069 z "
         style="fill:#b01911;fill-opacity:1;fill-rule:evenodd;stroke:none;stroke-width:1pt;stroke-linecap:butt;stroke-linejoin:miter;stroke-opacity:1" />
      <path
         transform="matrix(0.949606,0,0,0.949606,-4.456341e-3,-2.494173)"
         id="path599"
         d="M 60.1041,19.9522 L 70.0478,30.3378 C 70.0478,30.3378 79.5496,16.8586 79.3286,16.8586 C 79.1077,16.8586 72.6995,10.8923 72.6995,10.8923 L 60.1041,19.9522 z "
         style="fill:url(#linearGradient603);fill-opacity:1;fill-rule:evenodd;stroke:none;stroke-width:1pt;stroke-linecap:butt;stroke-linejoin:miter;stroke-opacity:1" />
      <path
         transform="matrix(0.949606,0,0,0.949606,-4.456341e-3,-2.494173)"
         sodipodi:nodetypes="ccccc"
         id="path608"
         d="M 13.9212,76.0789 C 17.4567,77.6256 19.2245,79.3934 18.7825,83.8128 C 21.4342,80.7192 41.5426,59.9479 41.5426,59.9479 C 41.6899,55.2339 38.7436,52.0666 37.1231,52.4349 L 13.9212,76.0789 z "
         style="fill:#ff933d;fill-opacity:1;fill-rule:evenodd;stroke:none;stroke-width:1pt;stroke-linecap:butt;stroke-linejoin:miter;stroke-opacity:1" />
      <path
         transform="matrix(0.949606,0,0,0.949606,-4.456341e-3,-2.494173)"
         id="path609"
         d="M 31.3779,50.8881 L 11.9324,70.7755 L 15.468,72.7643 L 15.6889,70.1126 L 32.9247,51.772 L 31.3779,50.8881 z "
         style="fill:#ffffff;fill-opacity:1;fill-rule:evenodd;stroke:none;stroke-width:1pt;stroke-linecap:butt;stroke-linejoin:miter;stroke-opacity:1" />
      <path
         transform="matrix(0.949606,0,0,0.949606,-4.456341e-3,-2.494173)"
         id="path611"
         d="M 36.5707,46.2477 L 32.8142,49.0099 C 32.8142,49.0099 34.9134,49.6728 35.0239,49.5623 C 35.1344,49.4518 38.5595,46.2477 38.5595,46.2477 C 38.5595,46.2477 36.3498,46.5792 36.5707,46.2477 z "
         style="fill:#ffffff;fill-opacity:1;fill-rule:evenodd;stroke:none;stroke-width:1pt;stroke-linecap:butt;stroke-linejoin:miter;stroke-opacity:1" />
    </g>
  </g>
</svg>
