<?xml version="1.0" encoding="UTF-8" standalone="no"?>
<!-- Created with Sodipodi ("http://www.sodipodi.com/") -->
<svg
   xmlns:dc="http://purl.org/dc/elements/1.1/"
   xmlns:cc="http://web.resource.org/cc/"
   xmlns:rdf="http://www.w3.org/1999/02/22-rdf-syntax-ns#"
   xmlns:svg="http://www.w3.org/2000/svg"
   xmlns="http://www.w3.org/2000/svg"
   xmlns:sodipodi="http://sodipodi.sourceforge.net/DTD/sodipodi-0.dtd"
   xmlns:inkscape="http://www.inkscape.org/namespaces/inkscape"
   id="svg1"
   sodipodi:version="0.32"
   inkscape:version="0.45.1"
   width="90"
   height="90"
   sodipodi:docbase="/home/tweenk/dev/GartoonRedux/scalable/stock/generic"
   sodipodi:docname="stock_mark.svg"
   inkscape:output_extension="org.inkscape.output.svg.inkscape"
   version="1.0">
  <metadata
     id="metadata9">
    <rdf:RDF>
      <cc:Work
         rdf:about="">
        <dc:format>image/svg+xml</dc:format>
        <dc:type
           rdf:resource="http://purl.org/dc/dcmitype/StillImage" />
      </cc:Work>
    </rdf:RDF>
  </metadata>
  <defs
     id="defs3" />
  <sodipodi:namedview
     id="base"
     pagecolor="#ffffff"
     bordercolor="#666666"
     borderopacity="1.0"
     inkscape:pageopacity="0.0"
     inkscape:pageshadow="2"
     inkscape:zoom="4.139521"
     inkscape:cx="88.519142"
     inkscape:cy="45.527292"
     inkscape:window-width="1014"
     inkscape:window-height="696"
     inkscape:window-x="0"
     inkscape:window-y="33"
     inkscape:current-layer="svg1"
     width="90px"
     height="90px">
    <sodipodi:guide
       orientation="horizontal"
       position="48.3416371"
       id="guide579" />
  </sodipodi:namedview>
  <path
     style="fill:#7e0000;fill-opacity:1;fill-rule:evenodd;stroke:none;stroke-width:1pt;stroke-linecap:butt;stroke-linejoin:miter;stroke-opacity:1"
     d="M 5.708772,45.849967 C 6.863529,62.399524 21.270256,84.2221 29.360335,83.549128 C 41.255722,82.819483 49.966918,75.040615 64.19449,57.346051 C 73.628086,45.290473 76.674841,40.693984 84.330907,20.389764 C 86.444248,14.588195 77.792041,5.416863 71.235871,14.340434 C 50.46202,42.875434 39.576409,50.737153 34.85269,51.976708 C 28.944129,53.38384 28.490301,36.624226 21.970323,30.143272 C 20.510882,28.692583 4.624242,30.566713 5.708772,45.849967 z "
     id="path574"
     sodipodi:nodetypes="csssssss" />
  <path
     style="fill:#ff1500;fill-opacity:1;fill-rule:evenodd;stroke:none;stroke-width:1pt;stroke-linecap:butt;stroke-linejoin:miter;stroke-opacity:1"
     d="M 9.846048,47.07415 C 11.860364,57.947464 24.343879,81.171277 29.634381,80.034526 C 35.139064,78.831238 41.794939,73.047997 53.887975,59.375416 C 70.082269,41.359693 76.040011,28.420027 79.060171,23.593006 C 85.649572,12.801518 76.690711,15.838051 69.235945,26.559241 C 63.320083,35.273446 38.667358,66.528292 32.695462,59.441572 C 29.824633,55.909891 24.993827,40.364944 20.647793,36.044932 C 19.674965,35.077933 7.910444,36.885586 9.846048,47.07415 z "
     id="path584"
     sodipodi:nodetypes="csssssss" />
  <path
     style="fill:#cb0000;fill-opacity:1;fill-rule:evenodd;stroke:none;stroke-width:1.3426445pt;stroke-linecap:butt;stroke-linejoin:miter;stroke-opacity:1"
     d="M 21.996694,65.499118 C 21.753591,65.431102 21.318369,65.423514 20.988836,65.660375 C 20.659304,65.897236 20.54673,66.188663 20.505065,66.386032 C 20.421734,66.780772 20.493257,66.989574 20.545379,67.232632 C 20.597501,67.475691 20.687453,67.761829 20.787265,68.038918 C 20.986888,68.593097 21.257442,69.224299 21.633865,69.93369 C 22.38671,71.35247 23.472866,72.984756 24.818694,74.327947 C 26.164521,75.671138 27.808508,76.767325 29.737037,76.787118 C 34.540251,76.835333 39.071316,73.086502 41.71038,70.296518 C 42.370146,69.599023 42.885334,68.942879 43.282637,68.401747 C 43.481289,68.13118 43.635265,67.905916 43.766409,67.67609 C 43.897552,67.446263 44.033838,67.271028 44.088923,66.869804 C 44.116466,66.669192 44.14486,66.283762 43.806723,65.902261 C 43.468586,65.52076 42.95509,65.498145 42.718237,65.539432 C 42.244532,65.622008 42.114238,65.768286 41.871637,65.942575 C 41.386436,66.291154 40.769459,66.871059 39.896237,67.756718 C 38.873635,68.766125 35.343519,70.061325 31.914008,70.296518 C 30.199253,70.414115 28.485481,70.333859 27.116608,69.93369 C 25.747735,69.53352 24.761535,68.869356 24.213979,67.95829 L 24.213979,67.917975 C 23.637739,66.998986 23.194861,66.428931 22.802979,66.023204 C 22.607038,65.82034 22.482898,65.635151 21.996694,65.499118 z "
     id="path589"
     sodipodi:nodetypes="csssssssssssssscssccsc" />
  <path
     style="fill:#ffffff;fill-opacity:1;fill-rule:evenodd;stroke:#ffffff;stroke-width:1.3426445pt;stroke-linecap:butt;stroke-linejoin:miter;stroke-opacity:1"
     d="M 12.302542,45.706621 C 13.069203,44.058253 14.829927,43.532875 16.172797,44.416534 C 18.103926,45.592963 18.046793,48.841255 16.602827,49.720219 C 15.321916,50.37277 11.832859,48.092596 12.302542,45.706621 z "
     id="path587"
     sodipodi:nodetypes="csss" />
</svg>
