<?xml version="1.0" encoding="UTF-8" standalone="no"?>
<!-- Created with Sodipodi ("http://www.sodipodi.com/") -->
<svg
   xmlns:dc="http://purl.org/dc/elements/1.1/"
   xmlns:cc="http://web.resource.org/cc/"
   xmlns:rdf="http://www.w3.org/1999/02/22-rdf-syntax-ns#"
   xmlns:svg="http://www.w3.org/2000/svg"
   xmlns="http://www.w3.org/2000/svg"
   xmlns:sodipodi="http://sodipodi.sourceforge.net/DTD/sodipodi-0.dtd"
   xmlns:inkscape="http://www.inkscape.org/namespaces/inkscape"
   version="1.0"
   x="0"
   y="0"
   width="90"
   height="90"
   id="svg704"
   sodipodi:version="0.32"
   sodipodi:docname="stock_new-meeting.svg"
   sodipodi:docbase="/home/tweenk/dev/GartoonRedux/scalable/stock/generic"
   inkscape:version="0.45.1"
   inkscape:output_extension="org.inkscape.output.svg.inkscape">
  <metadata
     id="metadata43">
    <rdf:RDF>
      <cc:Work
         rdf:about="">
        <dc:format>image/svg+xml</dc:format>
        <dc:type
           rdf:resource="http://purl.org/dc/dcmitype/StillImage" />
      </cc:Work>
    </rdf:RDF>
  </metadata>
  <sodipodi:namedview
     id="base"
     inkscape:zoom="3.7948064"
     inkscape:cx="16.57137"
     inkscape:cy="45.010546"
     inkscape:window-width="1014"
     inkscape:window-height="695"
     inkscape:window-x="0"
     inkscape:window-y="1"
     inkscape:current-layer="svg704"
     width="90px"
     height="90px" />
  <defs
     id="defs706" />
  <path
     transform="matrix(0.9765314,0,0,0.9765314,2.2400473,4.792981)"
     d="M 33.4375,13.90625 C 27.987944,13.878421 22.352621,15.164385 17.0625,18.40625 C 16.652076,18.514205 16.273993,18.53712 15.90625,18.71875 C 14.989103,17.883825 13.797852,17.034034 11.75,17.09375 C 10.040202,17.143609 8.2589654,18.171332 7.1875,19.59375 C 5.7645292,21.482814 3.5244564,25.032236 1.90625,29.125 C 1.0971468,31.171382 0.45850721,33.343837 0.28125,35.59375 C 0.10399279,37.843663 0.41944835,40.343648 2.03125,42.4375 C 3.7258654,44.638934 4.7693758,46.404136 6.15625,47.90625 C 6.8496871,48.657307 7.7657736,49.789268 9.9375,49.8125 C 9.9477516,49.81261 9.9584946,49.812482 9.96875,49.8125 C 10.159028,50.214928 10.254499,50.591926 10.46875,51 C 10.478731,51.031394 10.489148,51.062647 10.5,51.09375 C 9.6834376,52.567632 9.3503084,54.248048 9.5625,55.71875 C 9.8869632,57.967607 11.040453,59.869113 12.625,61.3125 C 14.046511,62.607375 15.987077,63.461171 18.1875,63.53125 C 18.211057,63.691742 18.154515,63.875096 18.1875,64.03125 C 18.67829,66.354703 19.965682,68.268814 21.6875,69.65625 C 23.409318,71.043686 25.740068,72.015555 28.3125,71.5 C 28.606562,71.441065 28.873132,71.287095 29.15625,71.1875 C 29.908769,72.735067 30.958406,74.095269 32.34375,75.03125 C 34.170754,76.26563 36.579903,76.953267 39.0625,76.25 C 39.60721,76.095695 40.12846,75.847741 40.625,75.5625 C 41.7176,76.803157 42.98592,77.769233 44.4375,78.3125 C 46.433714,79.059601 48.696292,79.341429 50.96875,78.5 C 52.356427,77.986181 53.598169,76.829224 54.46875,75.40625 C 56.028561,75.722184 57.589384,75.649434 59,74.96875 C 59.994565,74.488829 60.980676,73.74207 61.65625,72.53125 C 61.958383,71.989741 62.127052,71.345973 62.21875,70.6875 C 63.37221,70.79452 64.512222,70.79151 65.65625,70.59375 C 67.860311,70.21275 70.308916,69.132762 71.5625,66.625 C 72.131663,65.486405 72.344313,64.129406 72.25,62.78125 C 73.937009,62.783469 75.50952,62.647346 77,62.03125 C 78.788654,61.291903 80.439946,59.736598 81.15625,57.84375 C 81.763194,56.239888 81.550284,54.515822 80.9375,52.9375 C 83.705845,52.033756 85.775114,49.698777 86.3125,47.0625 C 86.423335,46.518772 86.34173,45.940594 86.3125,45.375 C 86.451974,45.219697 86.577462,45.05238 86.6875,44.875 C 87.088668,44.167036 87.569266,43.347163 88.25,42.40625 C 89.842485,40.205114 90.006069,37.640841 89.71875,35.34375 C 89.431431,33.046659 88.695684,30.82001 87.78125,28.71875 C 85.952383,24.51623 83.538182,20.881452 82.03125,19 C 80.947751,17.647225 79.115074,16.655287 77.4375,16.65625 C 75.152828,16.657562 73.89484,17.757003 73,18.6875 C 72.279894,18.184473 71.442183,17.894171 70.5625,17.625 C 68.503912,16.390447 66.105698,15.793077 63.21875,15.3125 C 60.331802,14.831923 57.04126,14.592972 53.65625,14.59375 C 49.907186,14.594612 46.233112,14.943754 42.875,15.78125 C 42.363247,15.218229 41.683957,14.834759 40.9375,14.6875 C 38.481257,14.206312 35.981886,13.919244 33.4375,13.90625 z M 17.5625,25.65625 C 17.572264,25.704145 17.530602,25.795687 17.375,25.9375 C 17.391865,25.910831 17.42208,25.836231 17.4375,25.8125 C 17.480546,25.746255 17.472358,25.75741 17.5,25.71875 C 17.5214,25.68882 17.557575,25.66328 17.5625,25.65625 z "
     id="path2168"
     style="font-size:12px;fill:#000000;fill-opacity:0.29411765;fill-rule:evenodd;stroke-width:1"
     inkscape:original="M 33.40625 17.4375 C 28.377215 17.411818 23.37525 18.57481 18.5625 21.625 C 15.647315 21.055293 13.742845 27.999322 11.6875 34 C 10.31544 38.005741 10.236588 42.949516 13.59375 49.34375 C 19.238654 45.04417 25.899057 47.473956 24.96875 54.84375 C 28.222164 52.475352 34.915742 51.210396 33.71875 60.4375 C 39.568622 55.321738 45.355822 58.713841 43.5 65.6875 C 48.320459 60.157631 54.412721 66.737962 54.21875 71.78125 C 56.172293 72.815137 59.390741 71.574477 58.6875 69.3125 C 57.632198 65.918125 42.617949 62.353067 40.375 55.78125 C 50.892317 63.927444 57.246612 65.759369 60.125 66.6875 C 63.374604 67.735323 67.279632 67.28502 68.40625 65.03125 C 69.555852 62.731502 68.640569 61.546684 66.75 60.9375 C 59.235132 58.516036 49.032672 55.841962 46.28125 48.34375 C 51.780869 54.215532 64.801371 58.970893 71.40625 59.28125 C 74.914659 59.447755 77.094686 58.573167 77.84375 56.59375 C 78.594414 54.610104 77.541429 52.266971 74.90625 51.65625 C 63.641963 49.045685 53.437956 45.70657 51.625 39.625 C 54.811671 42.900967 65.751308 48.600012 78.0625 49.78125 C 83.272648 50.281154 85.179083 42.927399 79.375 41.34375 C 74.947096 40.135593 62.797696 35.995746 52.09375 30.5 C 48.738067 30.670883 46.36398 29.88996 42.15625 32.65625 C 42.062187 32.736679 41.967938 32.823518 41.875 32.90625 C 41.845235 32.87277 41.810991 32.846285 41.78125 32.8125 C 41.035352 33.552233 40.285751 34.367856 39.5625 35.15625 C 39.59187 35.165085 39.626567 35.178904 39.65625 35.1875 C 38.300353 36.68955 36.972225 38.241142 35.65625 39.5625 C 34.656039 40.541745 33.641836 41.337969 32.5625 41.90625 C 32.585416 41.922675 32.601702 41.952525 32.625 41.96875 C 32.192656 42.185656 31.7388 42.358657 31.28125 42.46875 C 22.466641 42.944683 24.648665 33.517157 27.09375 29.90625 C 33.290369 20.482313 36.362181 19.199812 40.25 18.15625 C 37.976309 17.710825 35.692175 17.449174 33.40625 17.4375 z M 53.65625 18.125 C 47.077285 18.126512 40.598955 19.470847 37.125 22.125 C 31.006063 26.799958 22.446154 40.168158 30.21875 39.78125 C 33.69237 39.608339 36.885356 33.666455 39.75 31.1875 C 42.693123 28.640628 47.428162 28.059127 52.40625 28.125 C 58.112492 31.153269 76.37404 38.572389 79.65625 39.15625 C 78.517938 32.974679 74.001189 21.05845 68.75 20.65625 C 66.201992 19.128188 60.054636 18.12353 53.65625 18.125 z M 77.4375 20.1875 C 75.680739 20.188509 74.218748 22.75 74.21875 22.75 C 74.997427 22.950485 81.076603 32.926247 81.5625 40.46875 C 82.47956 41.49031 82.898283 42.28252 83.59375 43.125 C 84.037423 42.342024 84.602201 41.411916 85.375 40.34375 C 88.815311 35.588543 81.689303 24.264296 79.25 21.21875 C 78.64017 20.457362 78.023087 20.187164 77.4375 20.1875 z M 11.84375 20.625 C 11.258411 20.642069 10.618181 20.939573 10.03125 21.71875 C 7.6835404 24.835451 1.2636253 35.630397 4.84375 40.28125 C 8.4238745 44.932104 9.668274 47.822699 11 45.40625 C 5.9404833 39.152484 14.187954 23.36495 15.125 23.09375 C 15.125 23.09375 13.599766 20.573794 11.84375 20.625 z M 19.34375 49.59375 C 18.062841 49.570393 16.421754 50.177004 14.40625 51.78125 C 9.7809205 55.462793 17.877501 64.6087 22.59375 57.46875 C 23.911452 55.473876 23.186477 49.66382 19.34375 49.59375 z M 28.96875 55.3125 C 27.202802 55.368997 24.925387 56.617456 22.75 59.09375 C 18.183724 64.29165 27.660824 72.844298 30.90625 64.75 C 33.446616 58.414159 31.911996 55.218338 28.96875 55.3125 z M 38.8125 60 C 36.987334 60.165952 34.716919 61.633077 32.65625 64.46875 C 28.588957 70.065729 38.266783 77.546546 41.3125 69.375 C 43.68268 63.015891 41.854443 59.723413 38.8125 60 z M 47.625 65.46875 C 46.027864 65.563388 44.2868 66.551737 42.9375 68.5 C 38.9138 74.309842 51.272126 78.850171 52.0625 72 C 52.569013 67.610065 50.286894 65.31102 47.625 65.46875 z "
     inkscape:radius="3.5452728"
     sodipodi:type="inkscape:offset" />
  <path
     sodipodi:type="inkscape:offset"
     inkscape:radius="3.5452728"
     inkscape:original="M 33.40625 17.4375 C 28.377215 17.411818 23.37525 18.57481 18.5625 21.625 C 15.647315 21.055293 13.742845 27.999322 11.6875 34 C 10.31544 38.005741 10.236588 42.949516 13.59375 49.34375 C 19.238654 45.04417 25.899057 47.473956 24.96875 54.84375 C 28.222164 52.475352 34.915742 51.210396 33.71875 60.4375 C 39.568622 55.321738 45.355822 58.713841 43.5 65.6875 C 48.320459 60.157631 54.412721 66.737962 54.21875 71.78125 C 56.172293 72.815137 59.390741 71.574477 58.6875 69.3125 C 57.632198 65.918125 42.617949 62.353067 40.375 55.78125 C 50.892317 63.927444 57.246612 65.759369 60.125 66.6875 C 63.374604 67.735323 67.279632 67.28502 68.40625 65.03125 C 69.555852 62.731502 68.640569 61.546684 66.75 60.9375 C 59.235132 58.516036 49.032672 55.841962 46.28125 48.34375 C 51.780869 54.215532 64.801371 58.970893 71.40625 59.28125 C 74.914659 59.447755 77.094686 58.573167 77.84375 56.59375 C 78.594414 54.610104 77.541429 52.266971 74.90625 51.65625 C 63.641963 49.045685 53.437956 45.70657 51.625 39.625 C 54.811671 42.900967 65.751308 48.600012 78.0625 49.78125 C 83.272648 50.281154 85.179083 42.927399 79.375 41.34375 C 74.947096 40.135593 62.797696 35.995746 52.09375 30.5 C 48.738067 30.670883 46.36398 29.88996 42.15625 32.65625 C 42.062187 32.736679 41.967938 32.823518 41.875 32.90625 C 41.845235 32.87277 41.810991 32.846285 41.78125 32.8125 C 41.035352 33.552233 40.285751 34.367856 39.5625 35.15625 C 39.59187 35.165085 39.626567 35.178904 39.65625 35.1875 C 38.300353 36.68955 36.972225 38.241142 35.65625 39.5625 C 34.656039 40.541745 33.641836 41.337969 32.5625 41.90625 C 32.585416 41.922675 32.601702 41.952525 32.625 41.96875 C 32.192656 42.185656 31.7388 42.358657 31.28125 42.46875 C 22.466641 42.944683 24.648665 33.517157 27.09375 29.90625 C 33.290369 20.482313 36.362181 19.199812 40.25 18.15625 C 37.976309 17.710825 35.692175 17.449174 33.40625 17.4375 z M 53.65625 18.125 C 47.077285 18.126512 40.598955 19.470847 37.125 22.125 C 31.006063 26.799958 22.446154 40.168158 30.21875 39.78125 C 33.69237 39.608339 36.885356 33.666455 39.75 31.1875 C 42.693123 28.640628 47.428162 28.059127 52.40625 28.125 C 58.112492 31.153269 76.37404 38.572389 79.65625 39.15625 C 78.517938 32.974679 74.001189 21.05845 68.75 20.65625 C 66.201992 19.128188 60.054636 18.12353 53.65625 18.125 z M 77.4375 20.1875 C 75.680739 20.188509 74.218748 22.75 74.21875 22.75 C 74.997427 22.950485 81.076603 32.926247 81.5625 40.46875 C 82.47956 41.49031 82.898283 42.28252 83.59375 43.125 C 84.037423 42.342024 84.602201 41.411916 85.375 40.34375 C 88.815311 35.588543 81.689303 24.264296 79.25 21.21875 C 78.64017 20.457362 78.023087 20.187164 77.4375 20.1875 z M 11.84375 20.625 C 11.258411 20.642069 10.618181 20.939573 10.03125 21.71875 C 7.6835404 24.835451 1.2636253 35.630397 4.84375 40.28125 C 8.4238745 44.932104 9.668274 47.822699 11 45.40625 C 5.9404833 39.152484 14.187954 23.36495 15.125 23.09375 C 15.125 23.09375 13.599766 20.573794 11.84375 20.625 z M 19.34375 49.59375 C 18.062841 49.570393 16.421754 50.177004 14.40625 51.78125 C 9.7809205 55.462793 17.877501 64.6087 22.59375 57.46875 C 23.911452 55.473876 23.186477 49.66382 19.34375 49.59375 z M 28.96875 55.3125 C 27.202802 55.368997 24.925387 56.617456 22.75 59.09375 C 18.183724 64.29165 27.660824 72.844298 30.90625 64.75 C 33.446616 58.414159 31.911996 55.218338 28.96875 55.3125 z M 38.8125 60 C 36.987334 60.165952 34.716919 61.633077 32.65625 64.46875 C 28.588957 70.065729 38.266783 77.546546 41.3125 69.375 C 43.68268 63.015891 41.854443 59.723413 38.8125 60 z M 47.625 65.46875 C 46.027864 65.563388 44.2868 66.551737 42.9375 68.5 C 38.9138 74.309842 51.272126 78.850171 52.0625 72 C 52.569013 67.610065 50.286894 65.31102 47.625 65.46875 z "
     style="font-size:12px;fill:#000000;fill-opacity:1;fill-rule:evenodd;stroke-width:1"
     id="path2325"
     d="M 33.4375,13.90625 C 27.987944,13.878421 22.352621,15.164385 17.0625,18.40625 C 16.652076,18.514205 16.273993,18.53712 15.90625,18.71875 C 14.989103,17.883825 13.797852,17.034034 11.75,17.09375 C 10.040202,17.143609 8.2589654,18.171332 7.1875,19.59375 C 5.7645292,21.482814 3.5244564,25.032236 1.90625,29.125 C 1.0971468,31.171382 0.45850721,33.343837 0.28125,35.59375 C 0.10399279,37.843663 0.41944835,40.343648 2.03125,42.4375 C 3.7258654,44.638934 4.7693758,46.404136 6.15625,47.90625 C 6.8496871,48.657307 7.7657736,49.789268 9.9375,49.8125 C 9.9477516,49.81261 9.9584946,49.812482 9.96875,49.8125 C 10.159028,50.214928 10.254499,50.591926 10.46875,51 C 10.478731,51.031394 10.489148,51.062647 10.5,51.09375 C 9.6834376,52.567632 9.3503084,54.248048 9.5625,55.71875 C 9.8869632,57.967607 11.040453,59.869113 12.625,61.3125 C 14.046511,62.607375 15.987077,63.461171 18.1875,63.53125 C 18.211057,63.691742 18.154515,63.875096 18.1875,64.03125 C 18.67829,66.354703 19.965682,68.268814 21.6875,69.65625 C 23.409318,71.043686 25.740068,72.015555 28.3125,71.5 C 28.606562,71.441065 28.873132,71.287095 29.15625,71.1875 C 29.908769,72.735067 30.958406,74.095269 32.34375,75.03125 C 34.170754,76.26563 36.579903,76.953267 39.0625,76.25 C 39.60721,76.095695 40.12846,75.847741 40.625,75.5625 C 41.7176,76.803157 42.98592,77.769233 44.4375,78.3125 C 46.433714,79.059601 48.696292,79.341429 50.96875,78.5 C 52.356427,77.986181 53.598169,76.829224 54.46875,75.40625 C 56.028561,75.722184 57.589384,75.649434 59,74.96875 C 59.994565,74.488829 60.980676,73.74207 61.65625,72.53125 C 61.958383,71.989741 62.127052,71.345973 62.21875,70.6875 C 63.37221,70.79452 64.512222,70.79151 65.65625,70.59375 C 67.860311,70.21275 70.308916,69.132762 71.5625,66.625 C 72.131663,65.486405 72.344313,64.129406 72.25,62.78125 C 73.937009,62.783469 75.50952,62.647346 77,62.03125 C 78.788654,61.291903 80.439946,59.736598 81.15625,57.84375 C 81.763194,56.239888 81.550284,54.515822 80.9375,52.9375 C 83.705845,52.033756 85.775114,49.698777 86.3125,47.0625 C 86.423335,46.518772 86.34173,45.940594 86.3125,45.375 C 86.451974,45.219697 86.577462,45.05238 86.6875,44.875 C 87.088668,44.167036 87.569266,43.347163 88.25,42.40625 C 89.842485,40.205114 90.006069,37.640841 89.71875,35.34375 C 89.431431,33.046659 88.695684,30.82001 87.78125,28.71875 C 85.952383,24.51623 83.538182,20.881452 82.03125,19 C 80.947751,17.647225 79.115074,16.655287 77.4375,16.65625 C 75.152828,16.657562 73.89484,17.757003 73,18.6875 C 72.279894,18.184473 71.442183,17.894171 70.5625,17.625 C 68.503912,16.390447 66.105698,15.793077 63.21875,15.3125 C 60.331802,14.831923 57.04126,14.592972 53.65625,14.59375 C 49.907186,14.594612 46.233112,14.943754 42.875,15.78125 C 42.363247,15.218229 41.683957,14.834759 40.9375,14.6875 C 38.481257,14.206312 35.981886,13.919244 33.4375,13.90625 z M 17.5625,25.65625 C 17.572264,25.704145 17.530602,25.795687 17.375,25.9375 C 17.391865,25.910831 17.42208,25.836231 17.4375,25.8125 C 17.480546,25.746255 17.472358,25.75741 17.5,25.71875 C 17.5214,25.68882 17.557575,25.66328 17.5625,25.65625 z "
     transform="matrix(0.9765314,0,0,0.9765314,0.4008462,0.3263499)" />
  <path
     d="M 72.881032,22.545225 C 72.881032,22.545225 75.407598,18.080604 77.789669,21.054683 C 80.171726,24.028753 87.143081,35.064795 83.783509,39.708404 C 83.028846,40.7515 82.466901,41.665907 82.03364,42.430507 C 81.354494,41.607801 80.954595,40.852367 80.059057,39.854781 C 79.584566,32.489288 73.641434,22.741005 72.881032,22.545225 z "
     style="font-size:12px;fill:#ffffff;fill-opacity:1;fill-rule:evenodd;stroke-width:1"
     id="path2215"
     sodipodi:nodetypes="cssccc" />
  <path
     sodipodi:nodetypes="ccccccsscssscssscsccccccc"
     id="path648"
     style="font-size:12px;fill:#ffffff;fill-rule:evenodd;stroke-width:1"
     d="M 18.523805,21.455917 C 25.359879,17.123398 32.615043,16.661857 39.7201,18.053766 C 35.923522,19.072839 32.920946,20.325774 26.869753,29.528545 C 24.48205,33.054708 22.338515,42.248129 30.946258,41.783365 C 34.870095,40.839233 37.72793,35.506653 41.571791,32.219937 C 45.68077,29.518566 47.98131,30.262267 51.25824,30.095395 C 61.710982,35.462163 73.57971,39.505678 77.903697,40.685482 C 83.571567,42.231964 81.727011,49.420939 76.639137,48.932767 C 64.616871,47.779249 53.939376,42.220597 50.827491,39.021513 C 52.597902,44.960359 62.556358,48.218976 73.556287,50.768274 C 76.129623,51.364662 77.135866,53.658974 76.402819,55.596067 C 75.671334,57.529029 73.570887,58.377739 70.144815,58.215141 C 63.694941,57.912067 50.95987,53.262504 45.589319,47.528524 C 48.27617,54.850765 58.236802,57.455402 65.575307,59.820037 C 67.42151,60.414925 68.337656,61.591488 67.215034,63.837263 C 66.114856,66.038141 62.276743,66.470825 59.103403,65.447592 C 56.292565,64.541246 50.108765,62.74394 39.838274,54.788926 C 42.665452,61.070039 56.775593,65.436085 57.715148,68.022948 C 58.504827,70.197165 55.24956,71.426448 53.341864,70.416826 C 53.531282,65.491896 47.602237,59.058524 42.894908,64.458614 C 44.707176,57.648618 39.027431,54.363119 33.314847,59.358821 C 34.483746,50.348264 27.961312,51.575824 24.784251,53.888639 C 25.692725,46.691802 19.200131,44.320627 13.687705,48.519301 C 10.409331,42.275131 10.488797,37.425288 11.828657,33.513556 C 13.835766,27.653703 15.677036,20.89958 18.523805,21.455917 z " />
  <path
     id="path651"
     style="font-size:12px;fill:#5fa2c7;fill-rule:evenodd;stroke-width:1"
     d="M 31.905471,50.306188 C 29.288314,49.03179 27.027651,40.835965 25.396044,42.246673 C 23.764442,43.657431 23.335557,49.872495 31.905471,50.306188 z " />
  <path
     id="path652"
     style="font-size:12px;fill:#ffffff;fill-rule:evenodd;stroke-width:1"
     d="M 15.161737,22.873932 C 15.161737,22.873932 12.503591,18.486377 10.210964,21.529942 C 7.9183525,24.573497 1.6472289,35.115286 5.143333,39.65699 C 8.6394369,44.198696 9.8528732,47.020938 11.153346,44.661199 C 6.2125686,38.554202 14.246682,23.138766 15.161737,22.873932 z " />
  <path
     style="font-size:12px;fill:#5fa2c7;fill-rule:evenodd;stroke-width:1"
     d="M 35.227064,38.950921 C 34.250325,39.907186 33.247723,40.695069 32.193717,41.250014 C 33.590094,42.250875 35.71161,42.876242 38.902111,42.636936 C 37.70418,42.229671 36.442733,40.621266 35.227064,38.950921 z "
     id="use2282" />
  <path
     style="font-size:12px;fill:#5fa2c7;fill-rule:evenodd;stroke-width:1"
     d="M 41.211287,32.371522 C 40.482894,33.093897 39.755064,33.877948 39.048786,34.647839 C 40.43028,35.06341 42.164644,35.21079 44.39813,34.913409 C 43.40104,34.637226 42.296934,33.604812 41.211287,32.371522 z "
     id="use2286" />
  <path
     style="opacity:1;color:#000000;fill:#ffffff;fill-opacity:1;fill-rule:evenodd;stroke:none;stroke-width:1.64835155;stroke-linecap:butt;stroke-linejoin:miter;marker:none;marker-start:none;marker-mid:none;marker-end:none;stroke-miterlimit:4;stroke-dasharray:none;stroke-dashoffset:0;stroke-opacity:1;visibility:visible;display:inline;overflow:visible;enable-background:accumulate"
     d="M 14.482542,50.893991 C 22.355354,44.627605 24.174466,53.837574 22.458763,56.434984 C 17.853197,63.407367 9.9657631,54.489132 14.482542,50.893991 z "
     id="path2194"
     sodipodi:nodetypes="css" />
  <path
     sodipodi:nodetypes="css"
     id="path2209"
     d="M 22.620731,58.018739 C 28.285622,51.570262 34.566146,53.660298 30.596951,63.559735 C 27.427691,71.464074 18.16162,63.094652 22.620731,58.018739 z "
     style="opacity:1;color:#000000;fill:#ffffff;fill-opacity:1;fill-rule:evenodd;stroke:none;stroke-width:1.64835155;stroke-linecap:butt;stroke-linejoin:miter;marker:none;marker-start:none;marker-mid:none;marker-end:none;stroke-miterlimit:4;stroke-dasharray:none;stroke-dashoffset:0;stroke-opacity:1;visibility:visible;display:inline;overflow:visible;enable-background:accumulate" />
  <path
     style="opacity:1;color:#000000;fill:#ffffff;fill-opacity:1;fill-rule:evenodd;stroke:none;stroke-width:1.64835155;stroke-linecap:butt;stroke-linejoin:miter;marker:none;marker-start:none;marker-mid:none;marker-end:none;stroke-miterlimit:4;stroke-dasharray:none;stroke-dashoffset:0;stroke-opacity:1;visibility:visible;display:inline;overflow:visible;enable-background:accumulate"
     d="M 32.300126,63.274562 C 37.666278,55.890231 44.444956,58.141174 40.741667,68.076965 C 37.76743,76.056735 28.328287,68.740187 32.300126,63.274562 z "
     id="path2211"
     sodipodi:nodetypes="css" />
  <path
     sodipodi:nodetypes="css"
     id="path2213"
     d="M 42.344317,67.216818 C 45.858007,62.143381 52.040049,63.78778 51.248648,70.646835 C 50.47682,77.33624 38.415048,72.890311 42.344317,67.216818 z "
     style="opacity:1;color:#000000;fill:#ffffff;fill-opacity:1;fill-rule:evenodd;stroke:none;stroke-width:1.64835155;stroke-linecap:butt;stroke-linejoin:miter;marker:none;marker-start:none;marker-mid:none;marker-end:none;stroke-miterlimit:4;stroke-dasharray:none;stroke-dashoffset:0;stroke-opacity:1;visibility:visible;display:inline;overflow:visible;enable-background:accumulate" />
  <path
     style="opacity:1;color:#000000;fill:#ffffff;fill-opacity:1;fill-rule:evenodd;stroke:none;stroke-width:1.64835155;stroke-linecap:butt;stroke-linejoin:miter;marker:none;marker-start:none;marker-mid:none;marker-end:none;stroke-miterlimit:4;stroke-dasharray:none;stroke-dashoffset:0;stroke-opacity:1;visibility:visible;display:inline;overflow:visible;enable-background:accumulate"
     d="M 52.785764,18.026986 C 46.361198,18.028462 40.045469,19.337427 36.653043,21.929291 C 30.677709,26.494534 22.31409,39.563537 29.904275,39.18571 C 33.296374,39.016856 36.429721,33.188713 39.227136,30.767936 C 42.101189,28.280836 46.713963,27.737781 51.575222,27.802108 C 57.147545,30.759307 74.970547,38.003483 78.175729,38.573641 C 77.064127,32.537142 72.652058,20.901357 67.524107,20.508597 C 65.035893,19.016396 59.033988,18.025551 52.785764,18.026986 z "
     id="path2207"
     sodipodi:nodetypes="cssscccc" />
</svg>
