<?xml version="1.0" encoding="UTF-8" standalone="no"?>
<!-- Created with Inkscape (http://www.inkscape.org/) -->
<svg
   xmlns:dc="http://purl.org/dc/elements/1.1/"
   xmlns:cc="http://web.resource.org/cc/"
   xmlns:rdf="http://www.w3.org/1999/02/22-rdf-syntax-ns#"
   xmlns:svg="http://www.w3.org/2000/svg"
   xmlns="http://www.w3.org/2000/svg"
   xmlns:xlink="http://www.w3.org/1999/xlink"
   xmlns:sodipodi="http://sodipodi.sourceforge.net/DTD/sodipodi-0.dtd"
   xmlns:inkscape="http://www.inkscape.org/namespaces/inkscape"
   version="1.0"
   x="0.00000000"
   y="0.00000000"
   width="90"
   height="90"
   id="svg548"
   sodipodi:version="0.32"
   sodipodi:docname="stock_link.svg"
   sodipodi:docbase="/home/tweenk/GNUtoon/stock/generic"
   inkscape:version="0.45.1"
   inkscape:output_extension="org.inkscape.output.svg.inkscape">
  <metadata
     id="metadata15">
    <rdf:RDF>
      <cc:Work
         rdf:about="">
        <dc:format>image/svg+xml</dc:format>
        <dc:type
           rdf:resource="http://purl.org/dc/dcmitype/StillImage" />
      </cc:Work>
    </rdf:RDF>
  </metadata>
  <sodipodi:namedview
     id="base"
     inkscape:zoom="5.3777778"
     inkscape:cx="45"
     inkscape:cy="45"
     inkscape:window-width="1014"
     inkscape:window-height="696"
     inkscape:window-x="0"
     inkscape:window-y="33"
     inkscape:current-layer="svg548"
     width="90px"
     height="90px" />
  <defs
     id="defs550">
    <linearGradient
       id="linearGradient3180">
      <stop
         style="stop-color:#7a889e;stop-opacity:1;"
         offset="0"
         id="stop3182" />
      <stop
         style="stop-color:#ffffff;stop-opacity:1;"
         offset="1"
         id="stop3184" />
    </linearGradient>
    <linearGradient
       inkscape:collect="always"
       xlink:href="#linearGradient3180"
       id="linearGradient3219"
       gradientUnits="userSpaceOnUse"
       x1="13.886501"
       y1="29.150877"
       x2="1.6384482"
       y2="-0.36767793"
       gradientTransform="matrix(2.4751344,1.0330923,-1.0330923,2.4751344,22.551637,-5.2637341)" />
    <linearGradient
       inkscape:collect="always"
       xlink:href="#linearGradient3180"
       id="linearGradient3336"
       gradientUnits="userSpaceOnUse"
       gradientTransform="matrix(-0.9162504,2.5207248,-2.5207248,-0.9162504,99.061486,40.906932)"
       x1="19.60615"
       y1="17.629801"
       x2="-1.430788"
       y2="14.805571" />
    <linearGradient
       inkscape:collect="always"
       xlink:href="#linearGradient3180"
       id="linearGradient3355"
       gradientUnits="userSpaceOnUse"
       gradientTransform="matrix(-0.9162504,2.5207248,-2.5207248,-0.9162504,99.061486,40.906932)"
       x1="19.60615"
       y1="17.629801"
       x2="-1.430788"
       y2="14.805571" />
  </defs>
  <path
     style="fill:#000000;fill-opacity:0.29411765;fill-rule:evenodd;stroke:none;stroke-width:1px;stroke-linecap:butt;stroke-linejoin:miter;stroke-opacity:1"
     d="M 49.59064,13.894224 C 47.120362,12.789972 44.217571,12.536562 40.802344,13.415424 C 21.354241,18.420153 8.7615396,37.202769 5.0695956,50.400141 C -0.0054863962,68.541726 12.453772,80.907186 29.254423,71.41566 C 31.562875,70.111503 34.268644,67.987317 37.079335,65.403627 C 43.697014,71.019447 52.498312,76.529175 62.407135,79.744368 C 71.75206,82.776591 82.302274,79.542798 85.264942,71.985231 C 86.252494,69.466044 86.369761,66.395583 85.332199,63.025182 C 80.890318,48.596286 68.848921,38.497752 57.454972,33.026727 C 58.895572,24.956013 55.93066,16.728312 49.59064,13.894224 z M 52.583131,45.393594 C 58.693372,48.359949 66.295111,53.907051 67.873726,59.700723 C 69.66691,66.281898 64.769209,65.931108 59.884912,64.484589 C 55.510792,63.189153 49.918705,59.417058 45.750211,55.975476 C 48.210988,52.772556 50.522383,49.221861 52.583131,45.393594 z M 23.021884,42.816366 C 23.076826,46.270647 24.276475,50.184615 26.843122,54.269247 C 27.213511,54.858702 27.705994,55.544505 28.172926,56.177346 C 27.410446,56.848293 26.757037,57.484698 26.244076,57.78843 C 19.566301,61.742412 17.291566,58.207107 19.312348,50.546112 C 19.830706,48.58095 21.194053,45.718938 23.021884,42.816366 z "
     id="path3357" />
  <path
     style="fill:#000000;fill-opacity:1;fill-rule:evenodd;stroke:none;stroke-width:1px;stroke-linecap:butt;stroke-linejoin:miter;stroke-opacity:1"
     d="M 84.82942,68.284569 C 85.816975,65.765379 85.973224,62.775561 84.935656,59.405157 C 79.027207,40.212291 59.618359,28.531812 46.262818,25.460883 C 27.903799,21.239466 16.149793,34.280868 26.416375,50.619405 C 31.367119,58.498155 45.15832,70.663329 62.001802,76.128666 C 71.346727,79.160889 81.866755,75.842136 84.82942,68.284569 z M 59.506876,60.863763 C 52.391767,58.756563 41.945419,50.093151 39.89029,46.965669 C 35.628436,40.480041 39.051031,38.07021 46.798123,39.730632 C 52.475977,40.947558 65.377807,48.342279 67.49134,56.099175 C 69.284527,62.680347 64.391173,62.310285 59.506876,60.863763 z "
     id="path3228"
     sodipodi:nodetypes="cssssccssss" />
  <path
     style="fill:url(#linearGradient3355);fill-opacity:1;fill-rule:evenodd;stroke:none;stroke-width:1px;stroke-linecap:butt;stroke-linejoin:miter;stroke-opacity:1"
     d="M 81.955123,59.92968 C 77.402119,42.380424 58.045138,31.252227 45.969622,28.475619 C 29.370169,24.658788 19.689991,34.457247 28.9726,49.229874 C 33.448855,56.353506 45.946414,68.079057 61.21369,72.899247 C 72.287557,76.395492 85.051333,71.863809 81.955123,59.92968 z M 57.946954,62.258721 C 49.443505,58.545981 42.221398,52.716099 39.397861,49.008873 C 31.553443,38.709363 38.6311,34.805463 49.250614,38.586246 C 56.012071,40.99347 64.409728,46.00911 68.861575,54.627273 C 73.87885,64.339998 64.649341,65.185083 57.946954,62.258721 z "
     id="path3230"
     sodipodi:nodetypes="csssscssss" />
  <path
     style="fill:#000000;fill-opacity:1;fill-rule:evenodd;stroke:none;stroke-width:1px;stroke-linecap:butt;stroke-linejoin:miter;stroke-opacity:1"
     d="M 49.234006,10.232682 C 46.763731,9.1284299 43.784485,8.8325759 40.369258,9.7114439 C 20.921155,14.71617 8.3460906,33.557724 4.6541436,46.755099 C -0.4209354,64.896684 12.056716,77.247519 28.857367,67.755999 C 36.958936,63.179013 49.755556,49.971609 56.002342,33.402051 C 59.468125,24.209103 56.64481,13.545426 49.234006,10.232682 z M 40.637494,35.180613 C 38.19997,42.189429 29.05765,52.219332 25.83751,54.126009 C 19.159732,58.079997 16.912546,54.548487 18.933325,46.887495 C 20.414359,41.272737 28.404157,28.730715 36.251368,26.982129 C 42.909193,25.498578 42.310774,30.369282 40.637494,35.180613 z "
     id="path3161"
     sodipodi:nodetypes="cssssccssss" />
  <path
     style="fill:url(#linearGradient3219);fill-opacity:1;fill-rule:evenodd;stroke:none;stroke-width:1px;stroke-linecap:butt;stroke-linejoin:miter;stroke-opacity:1"
     d="M 40.75387,12.713238 C 23.010943,16.44084 10.989979,35.256408 7.6518816,47.188911 C 3.0632076,63.591768 12.39841,73.719441 27.588856,65.137605 C 34.913956,60.999291 47.21095,49.063563 52.739611,34.03833 C 56.749732,23.14002 52.819708,10.178343 40.75387,12.713238 z M 41.957998,36.804042 C 37.851787,45.124623 31.690639,52.066287 27.855457,54.713418 C 17.200489,62.06775 13.631734,54.815328 17.904838,44.384184 C 20.625535,37.742655 26.02828,29.588661 34.845139,25.54458 C 44.781811,20.986872 45.194494,30.245796 41.957998,36.804042 z "
     id="path2181"
     sodipodi:nodetypes="csssscssss" />
  <path
     style="fill:#ffffff;fill-opacity:1;fill-rule:evenodd;stroke:none;stroke-width:1px;stroke-linecap:butt;stroke-linejoin:miter;stroke-opacity:1"
     d="M 27.442741,21.693165 C 30.922819,17.648676 43.210171,11.260347 48.828778,15.717225 C 50.968552,17.414571 49.008229,22.849092 45.810076,19.268979 C 43.575343,16.767354 37.3123,15.889173 27.442741,21.693165 z "
     id="path3188"
     sodipodi:nodetypes="cssc" />
  <path
     style="fill:#ffffff;fill-opacity:1;fill-rule:evenodd;stroke:none;stroke-width:1px;stroke-linecap:butt;stroke-linejoin:miter;stroke-opacity:1"
     d="M 17.956672,58.447431 C 24.600385,60.785064 29.766658,54.93108 34.853389,49.92261 C 30.119671,56.939973 25.579132,65.07198 18.537649,62.554344 C 15.955474,61.631106 16.808737,58.043526 17.956672,58.447431 z "
     id="path3193"
     sodipodi:nodetypes="ccss" />
  <path
     style="fill:#000000;fill-opacity:1;fill-rule:evenodd;stroke:none;stroke-width:1px;stroke-linecap:butt;stroke-linejoin:miter;stroke-opacity:1"
     d="M 22.66609,39.287286 L 38.480047,41.437521 C 39.230413,39.427089 42.09835,38.729118 46.81747,39.740556 C 47.715106,39.932943 49.323103,41.076306 50.510668,41.554524 L 54.954439,28.51434 C 51.966373,27.226905 48.914404,26.039253 46.252456,25.427172 C 32.435554,22.250154 22.429672,28.862148 22.66609,39.287286 z "
     id="path3340" />
  <path
     style="fill:url(#linearGradient3336);fill-opacity:1;fill-rule:evenodd;stroke:none;stroke-width:1px;stroke-linecap:butt;stroke-linejoin:miter;stroke-opacity:1"
     d="M 26.576542,44.27991 L 35.977786,41.573811 C 36.556249,37.569252 42.721198,36.084951 49.216597,38.562177 C 51.008443,39.24555 53.238508,40.167486 55.172305,41.202117 L 58.36144,33.253704 C 53.969458,30.923847 49.640755,29.332752 45.973339,28.489476 C 31.301359,25.115844 21.682579,32.432094 26.576542,44.27991 z "
     id="path3290"
     sodipodi:nodetypes="ccsccsc" />
  <path
     sodipodi:nodetypes="cssc"
     id="path3351"
     d="M 52.833796,31.87152 C 48.423988,28.973949 37.832629,26.883393 31.68445,30.57555 C 29.077357,32.14119 30.190702,36.815397 34.586026,33.847674 C 37.366069,31.970592 42.133765,27.796722 52.833796,31.87152 z "
     style="fill:#ffffff;fill-opacity:1;fill-rule:evenodd;stroke:none;stroke-width:1px;stroke-linecap:butt;stroke-linejoin:miter;stroke-opacity:1" />
</svg>
