<?xml version="1.0" encoding="UTF-8" standalone="no"?>
<!-- Created with Sodipodi ("http://www.sodipodi.com/") -->
<svg
   xmlns:dc="http://purl.org/dc/elements/1.1/"
   xmlns:cc="http://creativecommons.org/ns#"
   xmlns:rdf="http://www.w3.org/1999/02/22-rdf-syntax-ns#"
   xmlns:svg="http://www.w3.org/2000/svg"
   xmlns="http://www.w3.org/2000/svg"
   xmlns:sodipodi="http://sodipodi.sourceforge.net/DTD/sodipodi-0.dtd"
   xmlns:inkscape="http://www.inkscape.org/namespaces/inkscape"
   id="svg548"
   sodipodi:version="0.32"
   width="72pt"
   height="72pt"
   sodipodi:docbase="/home/tweenk/GNUtoon/apps"
   sodipodi:docname="stock_unknown.svg"
   inkscape:version="0.46+devel"
   inkscape:output_extension="org.inkscape.output.svg.inkscape">
  <metadata
     id="metadata15">
    <rdf:RDF>
      <cc:Work
         rdf:about="">
        <dc:format>image/svg+xml</dc:format>
        <dc:type
           rdf:resource="http://purl.org/dc/dcmitype/StillImage" />
      </cc:Work>
    </rdf:RDF>
  </metadata>
  <defs
     id="defs550" />
  <sodipodi:namedview
     id="base"
     inkscape:zoom="3.197694"
     inkscape:cx="35.946505"
     inkscape:cy="65.739754"
     inkscape:window-width="795"
     inkscape:window-height="724"
     inkscape:window-x="0"
     inkscape:window-y="1"
     inkscape:current-layer="svg548"
     showgrid="false" />
  <path
     sodipodi:type="star"
     style="opacity:1;color:#000000;fill:#31baff;fill-opacity:1;fill-rule:evenodd;stroke:none;stroke-width:2;marker:none;marker-start:none;marker-mid:none;marker-end:none;visibility:visible;display:inline;overflow:visible;enable-background:accumulate"
     id="path3278"
     sodipodi:sides="8"
     sodipodi:cx="45.970627"
     sodipodi:cy="44.967548"
     sodipodi:r1="46.939026"
     sodipodi:r2="29.583391"
     sodipodi:arg1="1.008666"
     sodipodi:arg2="1.367929"
     inkscape:flatsided="false"
     inkscape:rounded="0"
     inkscape:randomized="0"
     d="M 70.988655,84.683672 51.931049,73.94427 35.577504,90.741505 29.695646,69.67184 6.2545037,69.985576 16.993905,50.927971 0.19666976,34.574425 21.266335,28.692567 20.952599,5.2514252 40.010204,15.990827 56.36375,-0.8064087 62.245608,20.263257 85.68675,19.949521 74.947348,39.007126 91.744584,55.360671 70.674918,61.242529 z"
     transform="matrix(0.9031887,-0.3243818,0.3243818,0.9031887,-10.13618,19.265403)" />
  <g
     id="g2314"
     transform="matrix(0.9232242,0.1643462,-0.1643462,0.9232242,12.461583,-3.9924235)">
    <path
       transform="matrix(1.097592,0,0,1.071284,3.493831,5.744114)"
       sodipodi:nodetypes="ccccccccccc"
       id="path577"
       d="m 20.3183,54.3906 11.7301,6.703 C 34.981,60.4652 43.1502,57.3232 46.5017,55.019 45.2449,53.3432 44.826,50.2013 43.9881,47.8971 47.3396,47.0593 66.4011,34.7006 61.1645,16.8959 46.7113,-16.6188 10.6828,6.21315 10.4733,8.09835 10.2639,9.98353 15.5006,18.9907 16.9669,21.2948 l 9.2165,4.1893 6.0746,-3.5609 c -5.0272,9.426 -12.3586,12.149 -14.0344,14.2437 -0.8378,0.4189 2.3042,18.8521 2.0947,18.2237 z"
       style="fill:#000000;fill-opacity:0.3;fill-rule:evenodd;stroke:none" />
    <path
       transform="matrix(1.226628,0,0,1.25224,-3.373398,-10.63585)"
       sodipodi:ry="10.997026"
       sodipodi:rx="11.939625"
       sodipodi:cy="68.73909"
       sodipodi:cx="40.008221"
       d="m 51.947845,68.73909 a 11.939625,10.997026 0 1 1 -23.87925,0 11.939625,10.997026 0 1 1 23.87925,0 z"
       id="path575"
       style="fill:#000000;fill-opacity:0.3;fill-rule:evenodd;stroke:none"
       sodipodi:type="arc" />
    <path
       transform="matrix(1.102574,0,0,1.171428,-0.335725,-6.265821)"
       sodipodi:ry="10.997026"
       sodipodi:rx="11.939625"
       sodipodi:cy="68.73909"
       sodipodi:cx="40.008221"
       d="m 51.947845,68.73909 a 11.939625,10.997026 0 1 1 -23.87925,0 11.939625,10.997026 0 1 1 23.87925,0 z"
       id="path558"
       style="fill:#34674b;fill-opacity:1;fill-rule:evenodd;stroke:none"
       sodipodi:type="arc" />
    <path
       transform="translate(4.219115,4.470692)"
       sodipodi:nodetypes="ccccccccccc"
       id="path556"
       d="m 20.3183,54.3906 11.7301,6.703 C 34.981,60.4652 43.1502,57.3232 46.5017,55.019 45.2449,53.3432 44.826,50.2013 43.9881,47.8971 47.3396,47.0593 66.4011,34.7006 61.1645,16.8959 46.7113,-16.6188 10.6828,6.21315 10.4733,8.09835 10.2639,9.98353 15.5006,18.9907 16.9669,21.2948 l 9.2165,4.1893 6.0746,-3.5609 c -5.0272,9.426 -12.3586,12.149 -14.0344,14.2437 -0.8378,0.4189 2.3042,18.8521 2.0947,18.2237 z"
       style="fill:#34674b;fill-opacity:1;fill-rule:evenodd;stroke:none" />
    <path
       transform="translate(4.219115,4.470692)"
       sodipodi:nodetypes="ccccc"
       id="path553"
       d="m 24.2982,51.877 9.2165,-3.5609 8.1692,5.0271 -9.426,3.3515 z"
       style="fill:#2aaf18;fill-opacity:1;fill-rule:evenodd;stroke:none" />
    <path
       transform="translate(4.219115,4.470692)"
       sodipodi:nodetypes="ccccccc"
       id="path554"
       d="m 33.5147,48.316 c 0,0 7.3313,5.4462 7.5408,5.4462 0.2095,0 -1.6757,-7.7503 -1.6757,-7.7503 C 74.5702,22.9705 47.7585,7.88889 45.4544,5.79422 55.5089,24.4368 37.7041,38.8901 32.2579,43.0794 c -0.4189,3.3515 1.4663,5.8651 1.4663,5.8651 z"
       style="fill:#2aaf18;fill-opacity:1;fill-rule:evenodd;stroke:none" />
    <path
       transform="translate(4.219115,4.470692)"
       sodipodi:nodetypes="cccc"
       id="path557"
       d="m 18.4331,16.8959 c 2.9326,2.0948 8.7976,4.1894 8.7976,4.1894 L 37.7041,16.477 c -2.5136,-3.7704 -10.8923,-3.142 -19.271,0.4189 z"
       style="fill:#2aaf18;fill-opacity:1;fill-rule:evenodd;stroke:none" />
    <path
       sodipodi:nodetypes="ccccc"
       transform="matrix(1.003436,0,0,1.091012,2.269937,-1.679497)"
       id="path562"
       d="m 51.1099,70.2053 c 0,4.5672 -3.9882,8.2739 -8.9022,8.2739 -4.9142,0 -8.9024,-3.7067 -8.9024,-8.2739 0,-4.5672 11.1101,-1.7804 8.9024,-8.2739 4.914,0 8.9022,3.7067 8.9022,8.2739 z"
       style="font-size:12px;fill:#2aaf18;fill-opacity:1;fill-rule:evenodd;stroke-width:1pt" />
    <path
       id="path561"
       d="m 47.549,68.2154 c 0,4.1625 -3.7536,7.5408 -8.3786,7.5408 -4.6251,0 -8.3787,-3.3783 -8.3787,-7.5408 0,-4.1625 3.7536,-7.5408 8.3787,-7.5408 4.625,0 8.3786,3.3783 8.3786,7.5408 z"
       style="font-size:12px;fill:#7de813;fill-opacity:1;fill-rule:evenodd;stroke-width:1pt"
       transform="matrix(0.976369,0,0,1.122264,3.744994,-2.956772)" />
    <path
       transform="translate(4.219115,4.470692)"
       sodipodi:nodetypes="ccccccccc"
       id="path552"
       d="m 21.7846,38.0522 2.3041,14.2437 9.426,-3.3515 -1.0473,-5.865 c 0,0 24.0887,-14.6627 17.5952,-31.6296 C 43.5692,0.976467 31.839,-0.699263 15.71,10.4025 c 2.0947,3.3515 3.7704,7.9598 4.6083,7.9598 7.1218,-3.9799 17.5952,-6.4935 18.2237,0.4189 0.6284,3.142 -12.5681,18.852 -16.7574,19.271 z"
       style="fill:#7de813;fill-opacity:1;fill-rule:evenodd;stroke:none" />
  </g>
</svg>
