<?xml version="1.0" encoding="UTF-8" standalone="no"?>
<!-- Created with Sodipodi ("http://www.sodipodi.com/") -->
<svg
   xmlns:dc="http://purl.org/dc/elements/1.1/"
   xmlns:cc="http://creativecommons.org/ns#"
   xmlns:rdf="http://www.w3.org/1999/02/22-rdf-syntax-ns#"
   xmlns:svg="http://www.w3.org/2000/svg"
   xmlns="http://www.w3.org/2000/svg"
   xmlns:xlink="http://www.w3.org/1999/xlink"
   xmlns:sodipodi="http://sodipodi.sourceforge.net/DTD/sodipodi-0.dtd"
   xmlns:inkscape="http://www.inkscape.org/namespaces/inkscape"
   version="1.0"
   x="0"
   y="0"
   width="90"
   height="90"
   id="svg704"
   sodipodi:version="0.32"
   sodipodi:docname="adjust-colors.svg"
   sodipodi:docbase="/home/tweenk/dev/GartoonRedux/scalable/stock/generic"
   inkscape:version="0.46+devel"
   inkscape:output_extension="org.inkscape.output.svg.inkscape">
  <metadata
     id="metadata43">
    <rdf:RDF>
      <cc:Work
         rdf:about="">
        <dc:format>image/svg+xml</dc:format>
        <dc:type
           rdf:resource="http://purl.org/dc/dcmitype/StillImage" />
      </cc:Work>
    </rdf:RDF>
  </metadata>
  <sodipodi:namedview
     id="base"
     inkscape:zoom="5.3666667"
     inkscape:cx="34.960979"
     inkscape:cy="45.283926"
     inkscape:window-width="1014"
     inkscape:window-height="724"
     inkscape:window-x="0"
     inkscape:window-y="9"
     inkscape:current-layer="svg704"
     width="90px"
     height="90px"
     showgrid="false" />
  <defs
     id="defs706">
    <linearGradient
       gradientTransform="scale(1.122498,0.89087)"
       spreadMethod="pad"
       gradientUnits="userSpaceOnUse"
       y2="72.2902298"
       x2="8.33575153"
       y1="79.9603500"
       x1="12.9236002"
       id="linearGradient557"
       xlink:href="#linearGradient554" />
    <linearGradient
       id="linearGradient554">
      <stop
         id="stop555"
         offset="0.000000"
         style="stop-color:#666565;stop-opacity:1;" />
      <stop
         id="stop556"
         offset="1.000000"
         style="stop-color:#ffffff;stop-opacity:1;" />
    </linearGradient>
    <linearGradient
       gradientTransform="scale(1.122498,0.89087)"
       spreadMethod="pad"
       gradientUnits="userSpaceOnUse"
       y2="78.4289169"
       x2="12.9945765"
       y1="68.6560287"
       x1="7.79836702"
       id="linearGradient559"
       xlink:href="#linearGradient554" />
  </defs>
  <path
     sodipodi:type="arc"
     style="fill:#000000;fill-opacity:1;stroke:none;stroke-width:0;stroke-linecap:round;stroke-linejoin:miter;stroke-miterlimit:4;stroke-dasharray:none;stroke-opacity:1"
     id="path2193"
     sodipodi:cx="63.243244"
     sodipodi:cy="28.746929"
     sodipodi:rx="24.103193"
     sodipodi:ry="24.103193"
     d="M 87.346437 28.746929 A 24.103193 24.103193 0 1 1  39.140051,28.746929 A 24.103193 24.103193 0 1 1  87.346437 28.746929 z"
     transform="matrix(1.7840923,0,0,1.7840923,-67.865434,-6.6576173)" />
  <path
     sodipodi:type="arc"
     style="fill:#ffc93f;fill-opacity:1;stroke:none;stroke-width:0;stroke-linecap:round;stroke-linejoin:miter;stroke-miterlimit:4;stroke-dasharray:none;stroke-opacity:1"
     id="path3185"
     sodipodi:cx="63.243244"
     sodipodi:cy="28.746929"
     sodipodi:rx="24.103193"
     sodipodi:ry="24.103193"
     d="M 84.86143,39.406101 A 24.103193,24.103193 0 0 1 42.298788,40.675621 L 63.243244,28.746929 z"
     transform="matrix(1.5473969,0,0,1.5473969,-53.350093,0.6007034)"
     sodipodi:start="0.45808427"
     sodipodi:end="2.6238719" />
  <path
     sodipodi:end="6.7477898"
     sodipodi:start="4.6320389"
     transform="matrix(1.5473969,0,0,1.5473969,-53.350093,0.6007034)"
     d="M 61.308634,4.7215008 A 24.103193,24.103193 0 0 1 84.791471,39.546829 L 63.243244,28.746929 z"
     sodipodi:ry="24.103193"
     sodipodi:rx="24.103193"
     sodipodi:cy="28.746929"
     sodipodi:cx="63.243244"
     id="path2171"
     style="fill:#31baff;fill-opacity:1;stroke:none;stroke-width:0;stroke-linecap:round;stroke-linejoin:miter;stroke-miterlimit:4;stroke-dasharray:none;stroke-opacity:1"
     sodipodi:type="arc" />
  <path
     sodipodi:type="arc"
     style="fill:#ed0000;fill-opacity:1;stroke:none;stroke-width:0;stroke-linecap:round;stroke-linejoin:miter;stroke-miterlimit:4;stroke-dasharray:none;stroke-opacity:1"
     id="path2173"
     sodipodi:cx="63.243244"
     sodipodi:cy="28.746929"
     sodipodi:rx="24.103193"
     sodipodi:ry="24.103193"
     d="M 42.516503,41.050023 A 24.103193,24.103193 0 0 1 63.206998,4.6437631 L 63.243244,28.746929 z"
     transform="matrix(1.5473969,0,0,1.5473969,-53.350093,0.6007034)"
     sodipodi:start="2.605903"
     sodipodi:end="4.7108852"
     inkscape:transform-center-y="-10.034182"
     inkscape:transform-center-x="-18.74343" />
  <g
     transform="matrix(0.9008302,-0.1959949,0.1959949,0.9008302,-10.183911,25.363517)"
     id="g650">
    <defs
       id="defs550" />
    <sodipodi:namedview
       id="namedview658" />
    <path
       transform="matrix(0.920161,0,0,0.966658,7.26221,-1.76816)"
       sodipodi:nodetypes="ccccccccccccc"
       id="path570"
       d="M 55.2834,50.5792 11.8464,78.0058 C 3.99756,81.1118 -5.7526,71.3491 1.75504,62.3527 L 45.0457,33.9235 45.192,20.5864 69.47,8.84539 76.0513,19.8466 65.6673,28.3996 67.1299,31.4034 81.7552,25.268 87.6052,38.4206 68.7387,52.181 z"
       style="fill:#000000;fill-opacity:0.3;fill-rule:evenodd;stroke:none" />
    <path
       transform="matrix(0.920161,0,0,0.966658,3.752153,-4.985714)"
       sodipodi:nodetypes="ccccccccccccc"
       id="path569"
       d="M 55.2834,50.5792 11.8464,78.0058 C 3.99756,81.1118 -5.7526,71.3491 1.75504,62.3527 L 45.0457,33.9235 45.192,20.5864 69.47,8.84539 76.0513,19.8466 65.6673,28.3996 67.1299,31.4034 81.7552,25.268 87.6052,38.4206 68.7387,52.181 z"
       style="fill:#000000;fill-opacity:1;fill-rule:evenodd;stroke:none" />
    <path
       transform="matrix(0.920161,0,0,0.920161,3.752153,-2.945213)"
       sodipodi:nodetypes="ccccccccccccc"
       id="path552"
       d="m 54.9909,46.1242 -42.7057,28.958 c -5.9476,2.8276 -11.602688,-4.29 -7.31261,-9.9451 l 44.46071,-29.543 -0.1462,-13.894 18.8666,-9.6527 2.7788,5.8502 -9.5065,9.9451 4.3876,7.4588 14.3328,-5.9962 2.6325,7.1663 -14.9177,11.1152 z"
       style="fill:#c9c9c9;fill-opacity:1;fill-rule:evenodd;stroke:none" />
    <path
       transform="matrix(0.920161,0,0,0.920161,3.752153,-2.945213)"
       sodipodi:nodetypes="ccccc"
       id="path566"
       d="m 54.6984,46.2705 c -0.1462,-0.4387 -3.3638,-1.9013 -2.1938,-3.9488 l -14.0402,9.3602 c 0.2925,1.4625 1.6088,3.9488 1.6088,4.095 0,0.1463 14.1865,-9.0676 14.6252,-9.5064 z"
       style="fill:#9d9d9d;fill-opacity:1;fill-rule:evenodd;stroke:none" />
    <path
       transform="matrix(0.920161,0,0,0.920161,3.752153,-2.945213)"
       sodipodi:nodetypes="ccccc"
       id="path562"
       d="m 43.5832,53.7293 -31.298,21.3529 c -5.9476,2.8276 -11.602688,-4.29 -7.31261,-9.9451 l 32.02921,-21.3529 c 5.2651,1.4138 6.2889,5.8988 6.5814,9.9451 z"
       style="fill:#ffc83d;fill-opacity:1;fill-rule:evenodd;stroke:none" />
    <path
       transform="matrix(0.920161,0,0,0.920161,3.752153,-2.945213)"
       id="path568"
       d="m 38.6107,47.148 -30.12806,19.7441 c 0,0 -2.19378,-1.0238 -1.90128,-1.17 0.29251,-0.1463 30.12804,-20.4754 30.12804,-20.4754 z"
       style="fill:#ffffff;fill-opacity:1;fill-rule:evenodd;stroke:none" />
    <path
       transform="matrix(0.920161,0,0,0.920161,3.752153,-2.945213)"
       sodipodi:nodetypes="ccccc"
       id="path567"
       d="m 43.5832,53.7293 -31.298,21.3529 c -4.19257,1.0726 1.8525,-0.9262 -4.68006,-5.1188 l 32.17546,-21.6454 c 1.6088,0.2438 3.5101,1.365 3.8026,5.4113 z"
       style="fill:#ff933d;fill-opacity:1;fill-rule:evenodd;stroke:none" />
    <path
       id="path561"
       d="m 16.234,67.1846 c 0,2.0183 -2.0639,3.6563 -4.6069,3.6563 -2.54306,0 -4.60698,-1.638 -4.60698,-3.6563 0,-2.0183 2.06392,-3.6563 4.60698,-3.6563 2.543,0 4.6069,1.638 4.6069,3.6563 z"
       style="font-size:12px;fill:url(#linearGradient557);fill-rule:evenodd;stroke-width:1pt"
       transform="matrix(0.837932,-0.483709,0.480913,0.842803,-27.39991,8.07806)" />
    <path
       id="path560"
       d="m 16.234,67.1846 c 0,2.0183 -2.0639,3.6563 -4.6069,3.6563 -2.54306,0 -4.60698,-1.638 -4.60698,-3.6563 0,-2.0183 2.06392,-3.6563 4.60698,-3.6563 2.543,0 4.6069,1.638 4.6069,3.6563 z"
       style="font-size:12px;fill:url(#linearGradient559);fill-rule:evenodd;stroke-width:1pt"
       transform="matrix(0.625296,-0.360962,0.358875,0.628931,-16.72849,21.01979)" />
    <path
       transform="matrix(0.920161,0,0,0.920161,3.752153,-2.945213)"
       sodipodi:nodetypes="ccccccccccc"
       id="path564"
       d="m 66.9836,14.9725 -14.7715,7.7514 0,10.9689 5.5576,9.0676 9.6527,1.1701 13.0165,-8.0439 -1.3163,-3.3638 -14.6253,6.5813 -6.2888,-10.9689 9.9452,-10.9689 z"
       style="fill:#969696;fill-opacity:1;fill-rule:evenodd;stroke:none" />
    <path
       transform="matrix(0.920161,0,0,0.920161,3.752153,-2.945213)"
       sodipodi:nodetypes="ccccccccccc"
       id="path565"
       d="m 67.5686,16.1425 -14.3327,8.3364 0.585,8.7751 4.8263,7.8976 8.7752,2.7789 13.0165,-8.0439 -1.0238,-2.34 -14.1865,6.5813 -6.7276,-11.8464 9.6527,-11.1152 z"
       style="fill:#bbbbbb;fill-opacity:1;fill-rule:evenodd;stroke:none" />
  </g>
</svg>
