<?xml version="1.0" encoding="UTF-8" standalone="no"?>
<!-- Created with Sodipodi ("http://www.sodipodi.com/") -->
<svg
   xmlns:dc="http://purl.org/dc/elements/1.1/"
   xmlns:cc="http://creativecommons.org/ns#"
   xmlns:rdf="http://www.w3.org/1999/02/22-rdf-syntax-ns#"
   xmlns:svg="http://www.w3.org/2000/svg"
   xmlns="http://www.w3.org/2000/svg"
   xmlns:xlink="http://www.w3.org/1999/xlink"
   xmlns:sodipodi="http://sodipodi.sourceforge.net/DTD/sodipodi-0.dtd"
   xmlns:inkscape="http://www.inkscape.org/namespaces/inkscape"
   id="svg704"
   sodipodi:version="0.32"
   width="72pt"
   height="72pt"
   sodipodi:docbase="/home/tweenk/dev/GartoonRedux/scalable/apps"
   sodipodi:docname="startupmanager.svg"
   inkscape:version="0.45.1+0.46pre1"
   inkscape:output_extension="org.inkscape.output.svg.inkscape">
  <metadata
     id="metadata79">
    <rdf:RDF>
      <cc:Work
         rdf:about="">
        <dc:format>image/svg+xml</dc:format>
        <dc:type
           rdf:resource="http://purl.org/dc/dcmitype/StillImage" />
      </cc:Work>
    </rdf:RDF>
  </metadata>
  <defs
     id="defs706">
    <inkscape:perspective
       sodipodi:type="inkscape:persp3d"
       inkscape:vp_x="-50 : 600 : 1"
       inkscape:vp_y="0 : 1000 : 0"
       inkscape:vp_z="700 : 600 : 1"
       inkscape:persp3d-origin="300 : 400 : 1"
       id="perspective46" />
    <linearGradient
       xlink:href="#linearGradient554"
       id="linearGradient559"
       x1="7.79836702"
       y1="68.6560287"
       x2="12.9945765"
       y2="78.4289169"
       gradientUnits="userSpaceOnUse"
       spreadMethod="pad"
       gradientTransform="scale(1.122498,0.89087)" />
    <linearGradient
       id="linearGradient554">
      <stop
         style="stop-color:#666565;stop-opacity:1;"
         offset="0.000000"
         id="stop555" />
      <stop
         style="stop-color:#ffffff;stop-opacity:1;"
         offset="1.000000"
         id="stop556" />
    </linearGradient>
    <linearGradient
       xlink:href="#linearGradient554"
       id="linearGradient557"
       x1="12.9236002"
       y1="79.9603500"
       x2="8.33575153"
       y2="72.2902298"
       gradientUnits="userSpaceOnUse"
       spreadMethod="pad"
       gradientTransform="scale(1.122498,0.89087)" />
    <linearGradient
       id="linearGradient734">
      <stop
         style="stop-color:#2a2535;stop-opacity:1;"
         offset="0.000000"
         id="stop735" />
      <stop
         style="stop-color:#e3e1cf;stop-opacity:1;"
         offset="1.000000"
         id="stop736" />
    </linearGradient>
    <linearGradient
       id="linearGradient724">
      <stop
         style="stop-color:#ffffff;stop-opacity:0.490196;"
         offset="0.000000"
         id="stop725" />
      <stop
         style="stop-color:#ffffff;stop-opacity:0.176471;"
         offset="1.000000"
         id="stop726" />
    </linearGradient>
    <linearGradient
       id="linearGradient718">
      <stop
         style="stop-color:#e3e1cf;stop-opacity:1;"
         offset="0.000000"
         id="stop719" />
      <stop
         style="stop-color:#ffffff;stop-opacity:1;"
         offset="1.000000"
         id="stop720" />
    </linearGradient>
    <linearGradient
       xlink:href="#linearGradient718"
       id="linearGradient721"
       x1="45.4330635"
       y1="41.9262352"
       x2="24.0375099"
       y2="27.2048512"
       gradientUnits="userSpaceOnUse"
       spreadMethod="pad"
       gradientTransform="scale(1.033999,0.967119)" />
    <linearGradient
       xlink:href="#linearGradient724"
       id="linearGradient723"
       x1="40.2607956"
       y1="39.8445053"
       x2="37.3197212"
       y2="68.6665039"
       gradientUnits="userSpaceOnUse"
       spreadMethod="pad"
       gradientTransform="scale(1.185464,0.843551)" />
    <linearGradient
       xlink:href="#linearGradient724"
       id="linearGradient732" />
    <radialGradient
       xlink:href="#linearGradient734"
       id="radialGradient733"
       cx="33.2134209"
       cy="118.190964"
       fx="33.2134209"
       fy="118.190964"
       r="14.8945398"
       gradientUnits="userSpaceOnUse"
       spreadMethod="pad"
       gradientTransform="scale(1.559286,0.641319)" />
    <radialGradient
       xlink:href="#linearGradient734"
       id="radialGradient738" />
    <linearGradient
       inkscape:collect="always"
       xlink:href="#linearGradient604"
       id="linearGradient1135"
       gradientUnits="userSpaceOnUse"
       gradientTransform="scale(0.994399,1.005632)"
       spreadMethod="pad"
       x1="61.0468903"
       y1="28.6572132"
       x2="79.6281509"
       y2="14.1547699" />
  </defs>
  <sodipodi:namedview
     id="base"
     inkscape:zoom="3.525713"
     inkscape:cx="33.632406"
     inkscape:cy="50.840003"
     inkscape:window-width="795"
     inkscape:window-height="711"
     inkscape:window-x="5"
     inkscape:window-y="18"
     inkscape:current-layer="svg704"
     showgrid="false" />
  <g
     id="g650"
     transform="matrix(-1.0681157,-0.2323914,-0.2323914,1.0681157,103.38807,12.877991)">
    <defs
       id="defs550">
      <linearGradient
         id="linearGradient2239">
        <stop
           style="stop-color:#666565;stop-opacity:1;"
           offset="0.000000"
           id="stop2241" />
        <stop
           style="stop-color:#ffffff;stop-opacity:1;"
           offset="1.000000"
           id="stop2243" />
      </linearGradient>
      <linearGradient
         xlink:href="#linearGradient554"
         id="linearGradient2245"
         x1="12.9236"
         y1="79.96035"
         x2="8.3357515"
         y2="72.29023"
         gradientUnits="userSpaceOnUse"
         spreadMethod="pad"
         gradientTransform="scale(1.122498,0.89087)" />
      <linearGradient
         xlink:href="#linearGradient554"
         id="linearGradient2247"
         x1="7.798367"
         y1="68.656029"
         x2="12.994576"
         y2="78.428917"
         gradientUnits="userSpaceOnUse"
         spreadMethod="pad"
         gradientTransform="scale(1.122498,0.89087)" />
      <linearGradient
         xlink:href="#linearGradient554"
         id="linearGradient563" />
    </defs>
    <sodipodi:namedview
       id="namedview658" />
    <path
       style="fill:#000000;fill-opacity:0.3;fill-rule:evenodd;stroke:none;stroke-width:1pt;stroke-linecap:butt;stroke-linejoin:miter;stroke-opacity:1"
       d="M 55.2834,50.5792 L 11.8464,78.0058 C 3.99756,81.1118 -5.7526,71.3491 1.75504,62.3527 L 45.0457,33.9235 L 45.192,20.5864 L 69.47,8.84539 L 76.0513,19.8466 L 65.6673,28.3996 L 67.1299,31.4034 L 81.7552,25.268 L 87.6052,38.4206 L 68.7387,52.181 L 55.2834,50.5792 z"
       id="path570"
       sodipodi:nodetypes="ccccccccccccc"
       transform="matrix(0.920161,0,0,0.966658,7.26221,-1.76816)" />
    <path
       style="fill:#000000;fill-opacity:1;fill-rule:evenodd;stroke:none;stroke-width:1pt;stroke-linecap:butt;stroke-linejoin:miter;stroke-opacity:1"
       d="M 55.2834,50.5792 L 11.8464,78.0058 C 3.99756,81.1118 -5.7526,71.3491 1.75504,62.3527 L 45.0457,33.9235 L 45.192,20.5864 L 69.47,8.84539 L 76.0513,19.8466 L 65.6673,28.3996 L 67.1299,31.4034 L 81.7552,25.268 L 87.6052,38.4206 L 68.7387,52.181 L 55.2834,50.5792 z"
       id="path569"
       sodipodi:nodetypes="ccccccccccccc"
       transform="matrix(0.920161,0,0,0.966658,3.752153,-4.985714)" />
    <path
       style="fill:#c9c9c9;fill-opacity:1;fill-rule:evenodd;stroke:none;stroke-width:1pt;stroke-linecap:butt;stroke-linejoin:miter;stroke-opacity:1"
       d="M 54.9909,46.1242 L 12.2852,75.0822 C 6.3376,77.9098 0.682512,70.7922 4.97259,65.1371 L 49.4333,35.5941 L 49.2871,21.7001 L 68.1537,12.0474 L 70.9325,17.8976 L 61.426,27.8427 L 65.8136,35.3015 L 80.1464,29.3053 L 82.7789,36.4716 L 67.8612,47.5868 L 54.9909,46.1242 z"
       id="path552"
       sodipodi:nodetypes="ccccccccccccc"
       transform="matrix(0.920161,0,0,0.920161,3.752153,-2.945213)" />
    <path
       style="fill:#9d9d9d;fill-opacity:1;fill-rule:evenodd;stroke:none;stroke-width:1pt;stroke-linecap:butt;stroke-linejoin:miter;stroke-opacity:1"
       d="M 54.6984,46.2705 C 54.5522,45.8318 51.3346,44.3692 52.5046,42.3217 L 38.4644,51.6819 C 38.7569,53.1444 40.0732,55.6307 40.0732,55.7769 C 40.0732,55.9232 54.2597,46.7093 54.6984,46.2705 z"
       id="path566"
       sodipodi:nodetypes="ccccc"
       transform="matrix(0.920161,0,0,0.920161,3.752153,-2.945213)" />
    <path
       style="fill:#ffc83d;fill-opacity:1;fill-rule:evenodd;stroke:none;stroke-width:1pt;stroke-linecap:butt;stroke-linejoin:miter;stroke-opacity:1"
       d="M 43.5832,53.7293 L 12.2852,75.0822 C 6.3376,77.9098 0.682512,70.7922 4.97259,65.1371 L 37.0018,43.7842 C 42.2669,45.198 43.2907,49.683 43.5832,53.7293 z"
       id="path562"
       sodipodi:nodetypes="ccccc"
       transform="matrix(0.920161,0,0,0.920161,3.752153,-2.945213)" />
    <path
       style="fill:#ffffff;fill-opacity:1;fill-rule:evenodd;stroke:none;stroke-width:1pt;stroke-linecap:butt;stroke-linejoin:miter;stroke-opacity:1"
       d="M 38.6107,47.148 L 8.48264,66.8921 C 8.48264,66.8921 6.28886,65.8683 6.58136,65.7221 C 6.87387,65.5758 36.7094,45.2467 36.7094,45.2467 L 38.6107,47.148 z"
       id="path568"
       transform="matrix(0.920161,0,0,0.920161,3.752153,-2.945213)" />
    <path
       style="fill:#ff933d;fill-opacity:1;fill-rule:evenodd;stroke:none;stroke-width:1pt;stroke-linecap:butt;stroke-linejoin:miter;stroke-opacity:1"
       d="M 43.5832,53.7293 L 12.2852,75.0822 C 8.09263,76.1548 14.1377,74.156 7.60514,69.9634 L 39.7806,48.318 C 41.3894,48.5618 43.2907,49.683 43.5832,53.7293 z"
       id="path567"
       sodipodi:nodetypes="ccccc"
       transform="matrix(0.920161,0,0,0.920161,3.752153,-2.945213)" />
    <path
       transform="matrix(0.837932,-0.483709,0.480913,0.842803,-27.39991,8.07806)"
       style="font-size:12px;fill:url(#linearGradient557);fill-rule:evenodd;stroke-width:1pt"
       d="M 16.234,67.1846 C 16.234,69.2029 14.1701,70.8409 11.6271,70.8409 C 9.08404,70.8409 7.02012,69.2029 7.02012,67.1846 C 7.02012,65.1663 9.08404,63.5283 11.6271,63.5283 C 14.1701,63.5283 16.234,65.1663 16.234,67.1846 z"
       id="path561" />
    <path
       transform="matrix(0.625296,-0.360962,0.358875,0.628931,-16.72849,21.01979)"
       style="font-size:12px;fill:url(#linearGradient559);fill-rule:evenodd;stroke-width:1pt"
       d="M 16.234,67.1846 C 16.234,69.2029 14.1701,70.8409 11.6271,70.8409 C 9.08404,70.8409 7.02012,69.2029 7.02012,67.1846 C 7.02012,65.1663 9.08404,63.5283 11.6271,63.5283 C 14.1701,63.5283 16.234,65.1663 16.234,67.1846 z"
       id="path560" />
    <path
       style="fill:#969696;fill-opacity:1;fill-rule:evenodd;stroke:none;stroke-width:1pt;stroke-linecap:butt;stroke-linejoin:miter;stroke-opacity:1"
       d="M 66.9836,14.9725 L 52.2121,22.7239 L 52.2121,33.6928 L 57.7697,42.7604 L 67.4224,43.9305 L 80.4389,35.8866 L 79.1226,32.5228 L 64.4973,39.1041 L 58.2085,28.1352 L 68.1537,17.1663 L 66.9836,14.9725 z"
       id="path564"
       sodipodi:nodetypes="ccccccccccc"
       transform="matrix(0.920161,0,0,0.920161,3.752153,-2.945213)" />
    <path
       style="fill:#bbbbbb;fill-opacity:1;fill-rule:evenodd;stroke:none;stroke-width:1pt;stroke-linecap:butt;stroke-linejoin:miter;stroke-opacity:1"
       d="M 67.5686,16.1425 L 53.2359,24.4789 L 53.8209,33.254 L 58.6472,41.1516 L 67.4224,43.9305 L 80.4389,35.8866 L 79.4151,33.5466 L 65.2286,40.1279 L 58.501,28.2815 L 68.1537,17.1663 L 67.5686,16.1425 z"
       id="path565"
       sodipodi:nodetypes="ccccccccccc"
       transform="matrix(0.920161,0,0,0.920161,3.752153,-2.945213)" />
  </g>
</svg>
