<?xml version="1.0" encoding="UTF-8" standalone="no"?>
<!DOCTYPE svg PUBLIC "-//W3C//DTD SVG 20010904//EN"
"http://www.w3.org/TR/2001/REC-SVG-20010904/DTD/svg10.dtd">
<!-- Created with Sodipodi ("http://www.sodipodi.com/") -->
<svg
   version="1.0"
   x="0"
   y="0"
   width="24.000000pt"
   height="24.000000pt"
   id="svg604"
   sodipodi:version="0.32"
   inkscape:version="0.40"
   sodipodi:docname="stock_print-preview.svg"
   sodipodi:docbase="/home/zeus/.icons/gartoon/scalable/stock-gar"
   xmlns="http://www.w3.org/2000/svg"
   xmlns:inkscape="http://www.inkscape.org/namespaces/inkscape"
   xmlns:sodipodi="http://sodipodi.sourceforge.net/DTD/sodipodi-0.dtd"
   xmlns:xlink="http://www.w3.org/1999/xlink"
   xmlns:rdf="http://www.w3.org/1999/02/22-rdf-syntax-ns#"
   xmlns:cc="http://web.resource.org/cc/"
   xmlns:dc="http://purl.org/dc/elements/1.1/">
  <metadata
     id="metadata74">
    <rdf:RDF
       id="RDF75">
      <cc:Work
         rdf:about=""
         id="Work76">
        <dc:format
           id="format77">image/svg+xml</dc:format>
        <dc:type
           id="type79"
           rdf:resource="http://purl.org/dc/dcmitype/StillImage" />
      </cc:Work>
    </rdf:RDF>
  </metadata>
  <sodipodi:namedview
     id="base"
     pagecolor="#ffffff"
     bordercolor="#666666"
     borderopacity="1.0"
     inkscape:pageopacity="0.0"
     inkscape:pageshadow="2"
     inkscape:zoom="7.5625000"
     inkscape:cx="21.355372"
     inkscape:cy="10.909091"
     inkscape:window-width="794"
     inkscape:window-height="722"
     showguides="true"
     snaptoguides="true"
     inkscape:window-x="5"
     inkscape:window-y="32"
     inkscape:current-layer="svg604" />
  <defs
     id="defs606">
    <linearGradient
       id="linearGradient612">
      <stop
         style="stop-color:#7fa8e3;stop-opacity:0.7412;"
         offset="0"
         id="stop613" />
      <stop
         style="stop-color:#ffffff;stop-opacity:0;"
         offset="1"
         id="stop614" />
    </linearGradient>
    <linearGradient
       x1="50.6438866"
       y1="5.36792946"
       x2="35.7520943"
       y2="68.0443573"
       id="linearGradient615"
       xlink:href="#linearGradient612"
       gradientUnits="userSpaceOnUse"
       spreadMethod="pad" />
    <linearGradient
       id="linearGradient571"
       xlink:href="#linearGradient612" />
    <defs
       id="defs621">
      <linearGradient
         id="linearGradient585">
        <stop
           style="stop-color:#5cb2ff;stop-opacity:1;"
           offset="0"
           id="stop586" />
        <stop
           style="stop-color:#ffffff;stop-opacity:1;"
           offset="1"
           id="stop587" />
      </linearGradient>
      <linearGradient
         id="linearGradient576">
        <stop
           style="stop-color:#ffffff;stop-opacity:1;"
           offset="0"
           id="stop577" />
        <stop
           style="stop-color:#370000;stop-opacity:0;"
           offset="1"
           id="stop578" />
      </linearGradient>
      <linearGradient
         id="linearGradient569">
        <stop
           style="stop-color:#ff3a00;stop-opacity:1;"
           offset="0"
           id="stop570" />
        <stop
           style="stop-color:#370000;stop-opacity:1;"
           offset="1"
           id="stop571" />
      </linearGradient>
      <linearGradient
         id="linearGradient562">
        <stop
           style="stop-color:#000000;stop-opacity:1;"
           offset="0"
           id="stop563" />
        <stop
           style="stop-color:#ffffff;stop-opacity:1;"
           offset="1"
           id="stop564" />
      </linearGradient>
      <linearGradient
         x1="30.5917225"
         y1="65.8304825"
         x2="18.4360981"
         y2="42.3886795"
         id="linearGradient565"
         xlink:href="#linearGradient562"
         gradientUnits="userSpaceOnUse"
         gradientTransform="scale(1.323326,0.755672)"
         spreadMethod="pad" />
      <linearGradient
         x1="24.9874783"
         y1="44.9967537"
         x2="33.7596359"
         y2="60.752861"
         id="linearGradient567"
         xlink:href="#linearGradient562"
         gradientUnits="userSpaceOnUse"
         gradientTransform="scale(1.587744,0.629824)"
         spreadMethod="pad" />
      <linearGradient
         x1="0.8273406"
         y1="0.11727467"
         x2="0.57553899"
         y2="0.88281417"
         id="linearGradient568"
         xlink:href="#linearGradient576"
         gradientUnits="objectBoundingBox"
         spreadMethod="pad" />
      <radialGradient
         cx="39.9771919"
         cy="62.0348434"
         r="2.87974644"
         fx="39.9771919"
         fy="62.0348434"
         id="radialGradient573"
         xlink:href="#linearGradient569"
         gradientUnits="userSpaceOnUse"
         gradientTransform="scale(1.181249,0.846561)"
         spreadMethod="pad" />
      <radialGradient
         id="radialGradient575"
         xlink:href="#linearGradient576" />
      <linearGradient
         x1="0.48992321"
         y1="-4.50217798e-2"
         x2="0.53917038"
         y2="1.25967419"
         id="linearGradient580"
         xlink:href="#linearGradient562"
         gradientUnits="objectBoundingBox"
         spreadMethod="pad" />
      <linearGradient
         x1="38.9676552"
         y1="112.42765"
         x2="34.3394775"
         y2="55.2668114"
         id="linearGradient584"
         xlink:href="#linearGradient585"
         gradientUnits="userSpaceOnUse"
         gradientTransform="scale(1.107407,0.90301)"
         spreadMethod="pad" />
      <linearGradient
         x1="18.5747337"
         y1="70.6098175"
         x2="21.0069866"
         y2="44.9572525"
         id="linearGradient588"
         xlink:href="#linearGradient585"
         gradientUnits="userSpaceOnUse"
         gradientTransform="scale(0.777781,1.285709)"
         spreadMethod="pad" />
    </defs>
    <linearGradient
       inkscape:collect="always"
       xlink:href="#linearGradient562"
       id="linearGradient1130"
       gradientUnits="userSpaceOnUse"
       gradientTransform="matrix(0.790439,0.000000,0.000000,0.313550,2.946498e-2,0.546086)"
       spreadMethod="pad"
       x1="24.9874783"
       y1="44.9967537"
       x2="33.7596359"
       y2="60.752861" />
    <linearGradient
       inkscape:collect="always"
       xlink:href="#linearGradient562"
       id="linearGradient1131"
       gradientUnits="userSpaceOnUse"
       gradientTransform="matrix(0.658802,0.000000,0.000000,0.376202,2.946498e-2,0.546086)"
       spreadMethod="pad"
       x1="30.5917225"
       y1="65.8304825"
       x2="18.4360981"
       y2="42.3886795" />
    <linearGradient
       inkscape:collect="always"
       xlink:href="#linearGradient585"
       id="linearGradient1132"
       gradientUnits="userSpaceOnUse"
       gradientTransform="matrix(0.551309,0.000000,0.000000,0.449553,2.946498e-2,0.546086)"
       spreadMethod="pad"
       x1="38.9676552"
       y1="112.42765"
       x2="34.3394775"
       y2="55.2668114" />
    <linearGradient
       inkscape:collect="always"
       xlink:href="#linearGradient585"
       id="linearGradient1133"
       gradientUnits="userSpaceOnUse"
       gradientTransform="matrix(0.387209,0.000000,0.000000,0.640075,2.946498e-2,0.546086)"
       spreadMethod="pad"
       x1="18.5747337"
       y1="70.6098175"
       x2="21.0069866"
       y2="44.9572525" />
  </defs>
  <path
     d="M 2.7803086,12.115779 C 2.2774309,15.036067 1.7288352,17.334292 1.4088204,20.150940 C 2.4145764,22.950314 5.2032572,25.127594 8.0833900,25.542308 C 9.6377200,25.283098 10.963518,25.231303 12.517878,24.350000 C 14.879876,25.438638 17.196167,26.734620 19.558165,27.823263 C 22.727835,25.732407 27.040363,22.760219 30.210033,20.669364 C 28.411847,19.736231 25.379341,19.010503 23.581155,18.077365 C 24.846007,13.066157 24.053573,9.3509995 19.649588,6.4652711 C 19.055303,5.9468524 17.500943,5.5839334 16.129459,6.1542268 C 16.129459,6.1542268 15.489434,3.7695714 14.620816,2.2143800 C 13.386466,2.0070050 3.8774965,4.9618797 3.5574827,5.6876430 C 3.7708227,7.3119443 4.2584531,9.1436251 4.5632276,10.612422 C 3.6946276,11.303591 3.5117647,11.580085 2.7803086,12.115779 z "
     style="fill-opacity:0.29999998;fill-rule:evenodd"
     id="path592" />
  <path
     d="M 2.0856323,10.382779 C 1.5827546,13.303063 1.0341589,15.601293 0.71414408,18.417941 C 1.7199000,21.217314 4.5085809,23.394594 7.3887117,23.809309 C 8.9430419,23.550099 10.268844,23.498299 11.823205,22.616996 C 14.185202,23.705639 16.501489,25.001621 18.863491,26.090263 C 22.033162,23.999408 26.345689,21.027215 29.515360,18.936365 C 27.717169,18.003227 24.684667,17.277503 22.886476,16.344371 C 24.151329,11.333157 23.358900,7.6180002 18.954909,4.7322728 C 18.360625,4.2138536 16.806265,3.8509386 15.434786,4.4212285 C 15.434786,4.4212285 14.794755,2.0365711 13.926132,0.48138118 C 12.691793,0.27400573 3.1828207,3.2288834 2.8628064,3.9546407 C 3.0761474,5.5789500 3.5637749,7.4106258 3.8685533,8.8794224 C 2.9999513,9.5705909 2.8170884,9.8470803 2.0856323,10.382779 z "
     style="fill-rule:evenodd"
     id="path561" />
  <path
     d="M 12.326066,21.113645 L 18.680611,23.912978 L 26.543804,19.299249 C 26.543804,19.299249 20.326394,16.966459 20.280682,17.018289 C 20.234971,17.070124 12.371777,21.165475 12.326066,21.113645 z "
     style="fill:#c7eeff;fill-rule:evenodd"
     id="path556" />
  <path
     d="M 3.4571170,11.108543 C 2.6951803,13.475882 2.2532584,15.843262 1.9941994,18.210606 C 3.3504502,20.768040 5.7581974,21.614754 7.4801646,22.202287 C 8.0440060,20.698931 8.1963843,16.137031 7.0686964,14.063416 C 5.9562822,12.404555 4.7066986,11.315917 3.4571170,11.108543 z "
     style="fill:url(#linearGradient1133);fill-rule:evenodd"
     id="path557" />
  <path
     d="M 3.8685827,10.486484 C 9.8421620,13.804207 7.8153888,20.647061 8.0744538,22.254087 C 13.362291,20.785291 17.187201,18.124177 21.697878,15.670442 C 22.322670,12.871109 22.810292,8.4128734 18.086296,5.4061629 C 13.301341,6.0628088 8.0135035,7.8080649 3.8685827,10.486484 z "
     style="fill:url(#linearGradient1132);fill-rule:evenodd;stroke:#000000;stroke-width:0.33181506"
     id="path559" />
  <path
     d="M 7.0686964,8.8794224 C 9.1563954,9.5015159 9.4154600,12.767434 10.314551,12.922944 C 13.057519,13.683257 17.857734,11.229488 17.994868,10.071735 C 18.223461,8.8621474 16.714812,6.2528685 15.526209,5.9763841 C 12.615603,6.7367024 9.8421620,7.5488505 7.0686964,8.8794224 z "
     style="fill:url(#linearGradient1131);fill-rule:evenodd"
     id="path558" />
  <path
     d="M 5.3772019,9.4496810 L 4.3714455,4.6804050 L 13.240395,2.0365711 L 14.200436,5.8208794 L 12.920380,6.2874334 L 12.143185,4.1101444 L 6.5658351,5.8208794 L 7.1601194,8.6720878"
     style="fill:#ffffff;fill-rule:evenodd"
     id="path560" />
  <path
     d="M 7.0686964,8.8794224 C 7.7340271,9.0433008 7.8131137,9.3061891 8.7842166,10.330945 C 12.807241,11.194967 14.411017,7.8201076 17.062557,7.3362438 C 16.272866,6.3099705 16.303374,6.3565383 15.526209,5.9763841 C 12.615603,6.7367024 9.8421620,7.5488505 7.0686964,8.8794224 z "
     style="fill:url(#linearGradient1130);fill-rule:evenodd"
     id="path566" />
  <path
     d="M 23.973376,19.334436 C 23.917818,19.306099 23.568574,18.986995 23.391493,19.187838 C 23.123701,19.423340 23.132891,19.491922 23.132891,19.920944 C 23.036639,20.248387 22.860708,20.144324 22.615662,19.994266 C 22.412659,19.959741 22.345351,19.827380 22.292411,20.067582 C 22.206190,20.165318 22.249283,20.409687 22.163098,20.507452 C 21.827719,20.507452 21.402695,20.403324 21.193299,20.507452 C 21.193299,20.904503 21.147528,20.900754 20.805389,20.947327 C 20.423457,20.947327 20.283365,20.894292 20.094217,21.167247 C 19.950257,21.405323 19.885543,21.610089 19.706306,21.680433 C 19.388566,21.669312 19.019942,21.556417 18.801167,21.680433 C 18.727567,22.035158 18.719437,22.155396 18.348602,22.193630 C 18.088288,22.193630 18.090000,22.191683 18.090000,22.486896 C 17.993743,22.533648 17.992250,22.586753 17.896028,22.633500"
     style="fill:none;fill-rule:evenodd;stroke:#000000;stroke-width:0.33181506"
     id="path589" />
  <path
     d="M 21.451921,18.308068 C 21.383742,18.245241 21.088156,18.088113 20.805379,18.088113 C 20.635745,18.265702 20.660886,18.428804 20.546782,18.601305 C 20.228479,18.601305 19.950810,18.505122 19.770956,18.601305 C 19.560251,18.840232 19.491479,18.966942 19.447699,19.334446 C 19.332191,19.441616 19.358830,19.481049 19.124413,19.481049 C 18.795581,19.453454 18.640649,19.293957 18.542560,19.627683 C 18.303966,19.841633 18.231456,19.847642 17.831364,19.847642 C 17.637326,19.847642 17.411168,19.810932 17.314165,19.920954 C 17.237572,20.290056 17.201927,20.367117 16.861595,20.507427 C 16.598607,20.711098 16.483437,20.644597 16.473684,21.020624 C 16.300745,21.092387 16.025660,21.093945 15.762488,21.093945"
     style="fill:none;fill-rule:evenodd;stroke:#000000;stroke-width:0.33181506"
     id="path590" />
  <g
     transform="matrix(0.281210,0.000000,0.000000,0.281210,10.52857,8.102496)"
     style="font-size:12.000000"
     id="g902">
    <defs
       id="defs903">
      <linearGradient
         id="linearGradient621">
        <stop
           style="stop-color:#666565;stop-opacity:1;"
           offset="0"
           id="stop623" />
        <stop
           style="stop-color:#ffffff;stop-opacity:1;"
           offset="1"
           id="stop622" />
      </linearGradient>
      <linearGradient
         id="linearGradient610">
        <stop
           style="stop-color:#666565;stop-opacity:1;"
           offset="0"
           id="stop612" />
        <stop
           style="stop-color:#ffffff;stop-opacity:1;"
           offset="1"
           id="stop611" />
      </linearGradient>
      <linearGradient
         id="linearGradient910">
        <stop
           style="stop-color:#7fa8e3;stop-opacity:0.7412;"
           offset="0"
           id="stop911" />
        <stop
           style="stop-color:#ffffff;stop-opacity:0;"
           offset="1"
           id="stop912" />
      </linearGradient>
      <linearGradient
         x1="0.0076835002"
         y1="0.96245670"
         x2="1.0219058"
         y2="0.077617466"
         id="linearGradient913"
         xlink:href="#linearGradient610"
         gradientUnits="objectBoundingBox"
         gradientTransform="scale(0.993504,1.006539)" />
      <defs
         id="defs550">
        <linearGradient
           x1="0.0000000"
           y1="0.0000000"
           x2="1.0000000"
           y2="0.0000000"
           id="linearGradient554"
           xlink:href="#linearGradient610"
           gradientUnits="objectBoundingBox"
           spreadMethod="pad" />
        <linearGradient
           x1="12.923600"
           y1="79.960350"
           x2="8.3357515"
           y2="72.290230"
           id="linearGradient557"
           xlink:href="#linearGradient554"
           gradientUnits="userSpaceOnUse"
           gradientTransform="scale(1.122498,0.890870)"
           spreadMethod="pad" />
        <linearGradient
           x1="7.7983670"
           y1="68.656029"
           x2="12.994576"
           y2="78.428917"
           id="linearGradient559"
           xlink:href="#linearGradient554"
           gradientUnits="userSpaceOnUse"
           gradientTransform="scale(1.122498,0.890870)"
           spreadMethod="pad" />
        <linearGradient
           id="linearGradient563"
           xlink:href="#linearGradient554" />
      </defs>
      <defs
         id="defs573">
        <linearGradient
           x1="0.0000000"
           y1="0.0000000"
           x2="1.0000000"
           y2="0.0000000"
           id="linearGradient604"
           xlink:href="#linearGradient621"
           gradientUnits="objectBoundingBox"
           spreadMethod="pad" />
        <linearGradient
           id="linearGradient600">
          <stop
             style="stop-color:#000000;stop-opacity:1;"
             offset="0"
             id="stop601" />
          <stop
             style="stop-color:#ffffff;stop-opacity:1;"
             offset="1"
             id="stop602" />
        </linearGradient>
        <linearGradient
           x1="61.046890"
           y1="28.657213"
           x2="79.628151"
           y2="14.154770"
           id="linearGradient603"
           xlink:href="#linearGradient604"
           gradientUnits="userSpaceOnUse"
           gradientTransform="scale(0.994399,1.005632)"
           spreadMethod="pad" />
      </defs>
      <linearGradient
         x1="26.441227"
         y1="54.839890"
         x2="29.670187"
         y2="59.914223"
         id="linearGradient613"
         xlink:href="#linearGradient610"
         gradientUnits="userSpaceOnUse"
         gradientTransform="scale(1.122498,0.890870)" />
      <radialGradient
         cx="0.062015511"
         cy="0.11718750"
         r="0.76277786"
         fx="0.062015511"
         fy="0.11718750"
         id="radialGradient614"
         xlink:href="#linearGradient612"
         spreadMethod="repeat" />
    </defs>
    <path
       d="M 50.084090,57.909150 L 38.755550,48.417210 C 38.660950,48.337950 30.558020,51.380890 26.292320,51.339650 C 16.376810,51.242600 2.5217280,45.019870 1.3892580,27.984960 C 0.49422200,14.409310 9.5740610,1.7745690 26.120280,1.7485790 C 39.715790,1.7274150 52.274560,11.559970 50.937320,27.726900 C 50.298830,35.689300 48.080440,38.455520 48.720340,39.184130 L 58.963190,50.846850 C 60.009770,52.038510 59.424820,56.096270 57.573350,57.627770 C 55.575960,59.241340 51.381560,58.996270 50.084090,57.909150 z "
       style="fill-rule:evenodd;stroke:#000000;stroke-width:1.1010700"
       id="path634" />
    <path
       d="M 47.762390,26.152830 C 47.762390,29.174580 47.149280,32.054000 46.040750,34.673400 C 45.486490,35.983100 44.916020,37.308280 44.021120,38.392760 L 56.388240,54.312140 L 54.827200,56.462400 L 38.105580,44.308300 C 37.021100,45.203200 35.695920,45.773670 34.386220,46.327930 C 31.766820,47.436460 28.887400,48.049570 25.865650,48.049570 C 13.778660,48.049570 3.9689200,38.239830 3.9689200,26.152830 C 3.9689200,14.065840 13.778660,4.2561010 25.865650,4.2561010 C 37.952650,4.2561010 47.762390,14.065840 47.762390,26.152830 z "
       style="fill:#efe16b;fill-rule:evenodd;stroke-width:1.0000000"
       id="path620" />
    <path
       d="M 44.247970,38.380650 L 56.166310,51.683460 C 58.094720,54.430010 55.001810,57.878820 51.794440,56.206420 L 38.143890,44.281930 C 38.404590,41.516090 42.240140,38.873110 44.247970,38.380650 z "
       style="fill:#ffc83d;fill-rule:evenodd"
       id="path562" />
    <path
       d="M 43.867920,38.779120 L 55.762940,51.895780 C 56.597030,54.012390 55.228320,50.452810 53.469320,54.134850 L 41.294430,41.117020 C 41.316220,40.261890 41.776510,39.196720 43.867920,38.779120 z "
       style="fill:#ff933d;fill-rule:evenodd"
       id="path567" />
    <path
       d="M 40.046150,41.888250 L 52.699420,54.368420 C 53.216550,54.516170 52.093180,54.770550 52.279660,56.069760 C 51.838150,55.448200 38.857720,43.569690 38.857720,43.569690 L 40.046150,41.888250 z "
       style="fill:#ffffff;fill-rule:evenodd"
       id="path568" />
    <ellipse
       cx="29.499611"
       cy="28.953592"
       rx="18.451067"
       ry="18.451067"
       transform="matrix(1.035494,0.000000,0.000000,1.035494,-4.681022,-3.828444)"
       style="fill:#bae6ff;fill-rule:evenodd;stroke-width:1.0000000"
       id="path611"
       sodipodi:cx="29.499611"
       sodipodi:cy="28.953592"
       sodipodi:rx="18.451067"
       sodipodi:ry="18.451067" />
    <path
       d="M 37.756020,11.254950 C 41.736890,14.095850 44.634770,18.454310 45.503930,23.655440 C 46.373080,28.856560 45.049750,33.920430 42.208850,37.901290 C 39.367960,41.882170 35.009490,44.780040 29.808370,45.649200 C 24.607240,46.518350 21.185690,45.468740 15.562510,42.354130 M 15.562510,42.354130 C 42.907650,34.124200 36.183590,27.440040 37.756020,11.254950"
       style="fill:#437caf;fill-rule:evenodd;stroke-width:1.0000000"
       id="path610" />
    <path
       d="M 44.197080,38.171700 C 42.152180,38.941350 42.780750,38.825900 40.902270,40.039320 C 40.797730,40.210320 39.667720,40.098500 38.194620,44.359110 L 41.327000,47.165800 C 42.176570,46.039130 43.421790,43.990520 44.160410,43.474040 C 45.231430,42.679770 45.761480,42.273810 47.331760,41.645950 L 44.197080,38.171700 z "
       style="fill:#ff0000;fill-rule:evenodd;stroke-width:1.0000000"
       id="path651" />
    <path
       d="M 41.763810,44.045140 L 40.779060,45.452580 L 38.885670,43.878260 L 39.773220,42.491450 L 41.763810,44.045140 z "
       style="fill:#ffffff;fill-rule:evenodd;stroke-width:1.0000000"
       id="path652" />
  </g>
</svg>
