<?xml version="1.0" encoding="UTF-8" standalone="no"?>
<!-- Created with Sodipodi ("http://www.sodipodi.com/") -->
<svg
   xmlns:dc="http://purl.org/dc/elements/1.1/"
   xmlns:cc="http://web.resource.org/cc/"
   xmlns:rdf="http://www.w3.org/1999/02/22-rdf-syntax-ns#"
   xmlns:svg="http://www.w3.org/2000/svg"
   xmlns="http://www.w3.org/2000/svg"
   xmlns:xlink="http://www.w3.org/1999/xlink"
   xmlns:sodipodi="http://sodipodi.sourceforge.net/DTD/sodipodi-0.dtd"
   xmlns:inkscape="http://www.inkscape.org/namespaces/inkscape"
   id="svg548"
   sodipodi:version="0.32"
   width="90"
   height="90"
   sodipodi:docbase="/home/tweenk/GNUtoon/actions"
   sodipodi:docname="fileimport.svg"
   inkscape:version="0.45.1"
   inkscape:output_extension="org.inkscape.output.svg.inkscape"
   version="1.0">
  <metadata
     id="metadata36">
    <rdf:RDF>
      <cc:Work
         rdf:about="">
        <dc:format>image/svg+xml</dc:format>
        <dc:type
           rdf:resource="http://purl.org/dc/dcmitype/StillImage" />
      </cc:Work>
    </rdf:RDF>
  </metadata>
  <defs
     id="defs550">
    <defs
       id="defs848">
      <linearGradient
         x1="0"
         y1="0"
         x2="1"
         y2="0"
         id="linearGradient556"
         gradientUnits="objectBoundingBox"
         spreadMethod="pad">
        <stop
           style="stop-color:#ff8700;stop-opacity:1;"
           offset="0.00000000"
           id="stop557" />
        <stop
           style="stop-color:#ffff8d;stop-opacity:0;"
           offset="1.00000000"
           id="stop558" />
      </linearGradient>
      <linearGradient
         x1="0"
         y1="0"
         x2="1"
         y2="0"
         id="linearGradient852"
         xlink:href="#linearGradient556"
         gradientUnits="objectBoundingBox"
         spreadMethod="pad" />
    </defs>
    <defs
       id="defs606">
      <linearGradient
         id="linearGradient612">
        <stop
           style="stop-color:#7fa8e3;stop-opacity:0.741176;"
           offset="0.000000"
           id="stop613" />
        <stop
           style="stop-color:#ffffff;stop-opacity:0;"
           offset="1.000000"
           id="stop614" />
      </linearGradient>
      <linearGradient
         xlink:href="#linearGradient612"
         id="linearGradient615"
         x1="50.643887"
         y1="5.3679295"
         x2="35.752094"
         y2="68.044357"
         gradientUnits="userSpaceOnUse"
         spreadMethod="pad" />
      <sodipodi:namedview
         id="namedview833"
         inkscape:zoom="9.6562500"
         inkscape:cx="16.776699"
         inkscape:cy="27.650485"
         inkscape:window-width="1014"
         inkscape:window-height="696"
         inkscape:window-x="0"
         inkscape:window-y="0" />
      <defs
         id="defs1099">
        <linearGradient
           x1="0"
           y1="0"
           x2="1"
           y2="0"
           id="linearGradient1100"
           gradientUnits="objectBoundingBox"
           spreadMethod="pad">
          <stop
             style="stop-color:#ff8700;stop-opacity:1;"
             offset="0.00000000"
             id="stop1101" />
          <stop
             style="stop-color:#ffff8d;stop-opacity:0;"
             offset="1.00000000"
             id="stop1102" />
        </linearGradient>
        <linearGradient
           x1="0"
           y1="0"
           x2="1"
           y2="0"
           id="linearGradient1103"
           xlink:href="#linearGradient556"
           gradientUnits="objectBoundingBox"
           spreadMethod="pad" />
      </defs>
    </defs>
    <linearGradient
       inkscape:collect="always"
       xlink:href="#linearGradient612"
       id="linearGradient1138"
       gradientUnits="userSpaceOnUse"
       spreadMethod="pad"
       x1="50.643887"
       y1="5.3679295"
       x2="35.752094"
       y2="68.044357"
       gradientTransform="matrix(0.988665,0,0,0.988665,-2.2043935,0.5222842)" />
  </defs>
  <sodipodi:namedview
     id="base"
     inkscape:zoom="7.1299932"
     inkscape:cx="17.060014"
     inkscape:cy="20.727225"
     inkscape:window-width="830"
     inkscape:window-height="686"
     inkscape:window-x="184"
     inkscape:window-y="43"
     inkscape:current-layer="svg548"
     width="90px"
     height="90px" />
  <path
     style="fill:#3d4e67;fill-opacity:1;fill-rule:evenodd;stroke:none;stroke-width:1pt;stroke-linecap:butt;stroke-linejoin:miter;stroke-opacity:1"
     d="M 17.751663,88.655222 C 14.172414,88.602773 8.1718565,86.41547 7.6479215,80.545799 C 5.8002875,74.615345 -0.62265554,18.562478 2.4766925,14.658257 C 4.0781585,11.584505 7.5654725,9.3281002 13.770027,8.5458802 C 18.846828,7.7679442 65.026005,1.6882462 68.431167,2.6318872 C 71.836428,3.5755912 74.518839,4.3735702 74.763798,9.1062382 C 74.511948,11.680079 83.089176,64.178681 84.405042,67.27448 C 85.032906,70.900631 84.002238,75.96797 78.751404,77.637203 C 73.500669,79.306409 21.896682,87.946754 17.751663,88.655222 z "
     id="path609"
     sodipodi:nodetypes="ccccccccc" />
  <path
     style="fill:#ffffff;fill-opacity:1;fill-rule:evenodd;stroke:none;stroke-width:1pt;stroke-linecap:butt;stroke-linejoin:miter;stroke-opacity:1"
     d="M 21.886728,82.438028 C 18.416619,82.896479 13.596456,83.854883 13.020708,79.107053 C 10.623213,67.86773 5.1261935,23.323676 9.0430775,16.084802 C 9.9179105,14.382596 14.667717,12.072086 25.457244,11.107541 C 37.718421,9.8734282 62.876487,7.9967092 65.523936,8.1186172 C 68.171256,8.2405582 68.981151,7.9405882 69.55698,12.688538 C 69.32313,17.736368 77.309613,57.223931 77.781426,64.215311 C 78.148536,69.178394 78.780324,71.2871 75.541011,72.486935"
     id="path608"
     sodipodi:nodetypes="cccccccs" />
  <path
     style="fill:url(#linearGradient1138);fill-opacity:1;fill-rule:evenodd;stroke:none;stroke-width:1pt;stroke-linecap:butt;stroke-linejoin:miter;stroke-opacity:1"
     d="M 9.9112265,22.806368 C 9.9112265,22.806368 10.223316,16.070498 19.206801,14.729123 C 28.190253,13.38779 63.768657,8.8158712 64.616388,11.149976 C 65.464062,13.484066 66.51357,28.65278 66.775329,29.879894 C 67.037088,31.106957 36.919401,41.600459 28.649232,51.614915 C 20.379042,61.629356 14.58705,69.732887 14.58705,69.732887 C 14.58705,69.732887 9.8513015,34.413908 9.9112265,22.806368 z "
     id="path636" />
  <path
     style="font-size:12px;fill:#ffffff;fill-opacity:0.70434804;fill-rule:evenodd;stroke-width:1pt"
     d="M 14.221809,73.348298 L 14.221809,80.039195 L 25.832454,81.810341 L 25.832454,75.119444 L 14.221809,73.348298 z "
     id="path573"
     sodipodi:nodetypes="ccccc" />
  <g
     id="g921"
     transform="matrix(0.945468,0,0,0.945468,-4.1299465,-123.49479)">
    <path
       d="M 51.9665,36.0486 C 53.9602,37.0454 65.4724,34.7713 65.7572,32.6353 C 66.8738,29.0839 63.8447,27.7777 64.064,26.2358 C 64.4912,24.8117 69.3897,19.3094 68.8358,17.5805 C 67.2423,14.4362 62.9702,10.5668 59.9594,12.4381 C 57.3645,14.7813 55.6307,20.7151 54.0642,20.1455 C 52.4977,19.5759 51.1121,20.0634 50.6849,21.0602 C 50.2577,22.057 49.6881,35.3365 51.9665,36.0486 z "
       transform="matrix(1.435965,1.971143,-1.73768,1.265889,27.79248,15.41795)"
       style="fill:#3c4c65;fill-opacity:0.98131355;fill-rule:evenodd;stroke-width:1pt"
       id="path582" />
    <path
       d="M 51.5506,35.4589 C 53.5443,36.4557 64.2247,34.8892 64.5095,32.7532 C 64.7943,30.6171 61.6614,29.193 62.0886,27.769 C 62.5158,26.3449 69.4937,17.6582 68.212,16.519 C 66.9304,15.3797 62.6582,11.3924 61.519,12.674 C 60.3797,13.9557 55.1108,23.7816 53.5443,23.212 C 51.9778,22.6424 50.6962,21.3608 50.269,22.3576 C 49.8418,23.3544 49.2722,34.7468 51.5506,35.4589 z "
       style="fill:#9bb9e3;fill-opacity:1;fill-rule:evenodd;stroke-width:1pt"
       id="path581"
       transform="matrix(1.048427,1.439171,-1.439171,1.048427,43.51239,52.10931)" />
    <path
       d="M 67.6424,15.9494 C 67.6424,15.9494 69.0665,16.8038 68.0696,18.5127 C 67.0728,20.2215 61.519,27.769 61.9462,28.3386 C 63.5126,29.6202 65.3639,32.7531 64.3671,33.6076 C 62.6583,35.174 52.8323,36.3133 51.693,35.7437 C 50.5538,35.174 60.0949,33.4652 60.2373,31.0443 C 60.3797,28.6234 57.8165,27.6266 58.6709,26.2025 C 59.5253,24.7785 65.3639,14.9525 66.2184,15.2373 C 67.0728,15.5221 67.7848,16.519 67.6424,15.9494 z "
       style="fill:#437caf;fill-opacity:1;fill-rule:evenodd;stroke-width:1pt"
       id="path583"
       transform="matrix(1.048427,1.439171,-1.439171,1.048427,43.51239,52.10931)" />
    <path
       d="M 89.897203,156.97832 C 89.897203,156.97832 68.103661,155.91443 67.172492,157.2202 C 66.241467,158.52587 84.811579,161.62427 89.897203,156.97832 z "
       style="font-size:12px;fill:#ffffff;fill-rule:evenodd;stroke-width:1pt"
       id="path588" />
    <path
       d="M 49.931228,160.68275 C 49.931228,160.68275 58.313558,152.38032 60.401104,151.80067 C 62.488516,151.22115 61.317336,155.21145 61.317336,155.21145 C 61.317336,155.21145 50.712957,159.17215 49.931228,160.68275 z "
       style="font-size:12px;fill:#ffffff;fill-rule:evenodd;stroke-width:1pt"
       id="path589" />
  </g>
</svg>
