<?xml version="1.0" encoding="UTF-8" standalone="no"?>
<!-- Created with Sodipodi ("http://www.sodipodi.com/") -->
<svg
   xmlns:dc="http://purl.org/dc/elements/1.1/"
   xmlns:cc="http://creativecommons.org/ns#"
   xmlns:rdf="http://www.w3.org/1999/02/22-rdf-syntax-ns#"
   xmlns:svg="http://www.w3.org/2000/svg"
   xmlns="http://www.w3.org/2000/svg"
   xmlns:xlink="http://www.w3.org/1999/xlink"
   xmlns:sodipodi="http://sodipodi.sourceforge.net/DTD/sodipodi-0.dtd"
   xmlns:inkscape="http://www.inkscape.org/namespaces/inkscape"
   id="svg848"
   sodipodi:version="0.32"
   width="90"
   height="90"
   sodipodi:docbase="/home/tweenk/GNUtoon/actions"
   sodipodi:docname="edit-find-mail.svg"
   inkscape:version="0.46+devel"
   inkscape:output_extension="org.inkscape.output.svg.inkscape"
   version="1.0">
  <metadata
     id="metadata33">
    <rdf:RDF>
      <cc:Work
         rdf:about="">
        <dc:format>image/svg+xml</dc:format>
        <dc:type
           rdf:resource="http://purl.org/dc/dcmitype/StillImage" />
      </cc:Work>
    </rdf:RDF>
  </metadata>
  <defs
     id="defs850">
    <linearGradient
       id="linearGradient867">
      <stop
         style="stop-color:#92b5d7;stop-opacity:0.780392;"
         offset="0.000000"
         id="stop868" />
      <stop
         style="stop-color:#ffffff;stop-opacity:0.321569;"
         offset="1.000000"
         id="stop869" />
    </linearGradient>
    <linearGradient
       id="linearGradient860">
      <stop
         style="stop-color:#92b5d7;stop-opacity:1;"
         offset="0.000000"
         id="stop861" />
      <stop
         style="stop-color:#ffffff;stop-opacity:1;"
         offset="1.000000"
         id="stop862" />
    </linearGradient>
    <linearGradient
       xlink:href="#linearGradient860"
       id="linearGradient863"
       x1="37.126305"
       y1="43.838791"
       x2="68.40992"
       y2="44.934666"
       gradientUnits="userSpaceOnUse"
       gradientTransform="scale(1.036866,0.964444)"
       spreadMethod="reflect" />
    <linearGradient
       xlink:href="#linearGradient867"
       id="linearGradient866"
       x1="38.646523"
       y1="64.399437"
       x2="39.494808"
       y2="29.977726"
       gradientUnits="userSpaceOnUse"
       spreadMethod="pad"
       gradientTransform="scale(1.261031,0.793002)" />
    <linearGradient
       xlink:href="#linearGradient867"
       id="linearGradient871"
       x1="28.197727"
       y1="108.28517"
       x2="33.435261"
       y2="93.438599"
       gradientUnits="userSpaceOnUse"
       spreadMethod="pad"
       gradientTransform="scale(1.52092,0.657497)" />
    <defs
       id="defs550">
      <linearGradient
         x1="0"
         y1="0"
         x2="1"
         y2="0"
         id="linearGradient556"
         gradientUnits="objectBoundingBox"
         spreadMethod="pad">
        <stop
           style="stop-color:#ff8700;stop-opacity:1;"
           offset="0.00000000"
           id="stop557" />
        <stop
           style="stop-color:#ffff8d;stop-opacity:0;"
           offset="1.00000000"
           id="stop558" />
      </linearGradient>
      <linearGradient
         x1="0"
         y1="0"
         x2="1"
         y2="0"
         id="linearGradient559"
         xlink:href="#linearGradient556"
         gradientUnits="objectBoundingBox"
         spreadMethod="pad" />
    </defs>
  </defs>
  <sodipodi:namedview
     id="base"
     inkscape:zoom="2.0255663"
     inkscape:cx="-101.9925"
     inkscape:cy="12.497988"
     inkscape:window-width="1014"
     inkscape:window-height="724"
     inkscape:window-x="0"
     inkscape:window-y="1"
     inkscape:current-layer="svg848"
     width="90px"
     height="90px"
     showgrid="false" />
  <g
     id="g852"
     transform="matrix(0.888426,0,0,0.888426,5.529183,2.609016)">
    <path
       style="font-size:12px;fill:#000000;fill-opacity:0.3;fill-rule:evenodd;stroke-width:1pt"
       d="M 11.2695,13.5441 C 10.8576,13.5441 9.2958,56.3824 12.3893,59.6969 C 21.0436,69.8079 74.9091,82.708 76.235,80.7192 C 77.5608,78.7305 87.0025,39.5285 83.4669,36.8769 C 72.929,23.7217 12.5953,10.2295 11.2695,13.5441 z "
       id="path914"
       transform="matrix(1.124488,0,0,1.124488,-6.54284,-1.6541)"
       sodipodi:nodetypes="ccccc" />
    <path
       style="font-size:12px;fill:#3d4e67;fill-rule:evenodd;stroke-width:1pt"
       d="M 11.2695,13.5441 C 10.8576,13.5441 9.2958,56.3824 12.3893,59.6969 C 21.0436,69.8079 74.9091,82.708 76.235,80.7192 C 77.5608,78.7305 87.0025,39.5285 83.4669,36.8769 C 72.929,23.7217 12.5953,10.2295 11.2695,13.5441 z "
       id="path859"
       transform="matrix(1.124488,0,0,1.124488,-10.96226,-8.946139)"
       sodipodi:nodetypes="ccccc" />
    <path
       style="font-size:12px;fill:url(#linearGradient863);stroke-width:1pt"
       d="M 11.2695,13.5441 C 11.2695,13.5441 9.50175,55.9705 12.5953,59.285 C 15.6889,62.5996 74.9091,82.708 76.235,80.7192 C 77.5608,78.7305 86.1787,38.2928 82.6431,35.6412 C 79.1076,32.9895 12.5953,10.2295 11.2695,13.5441 z "
       id="path856"
       transform="translate(-5.082326,-3.093586)" />
    <path
       style="font-size:12px;fill:#3d4e67;fill-rule:evenodd;stroke-width:1pt"
       d="M 13.9212,59.948 C 13.2582,60.169 27.6213,56.4124 32.4828,53.0978 C 32.9247,52.8769 42.8684,53.5398 45.962,56.6334 C 49.0555,59.727 68.28,76.0789 74.4672,80.7192 C 64.3026,80.0563 21.4341,72.9852 13.9212,59.948 z "
       id="path855"
       sodipodi:nodetypes="ccccc"
       transform="translate(-5.082326,-3.093586)" />
    <path
       style="font-size:12px;fill:#ffffff;fill-rule:evenodd;stroke-width:1pt"
       d="M 13.9212,59.948 C 14.1421,59.948 28.2842,57.9592 33.1457,54.6446 C 33.5876,54.4237 42.8684,54.2027 45.962,57.2963 C 49.0555,60.3899 72.6994,80.4983 74.4672,80.7192 C 76.235,80.9402 19.4454,68.7868 13.9212,59.948 z "
       id="path858"
       sodipodi:nodetypes="ccccc"
       transform="matrix(0.83768,0,0,0.83768,0.105843,7.220649)" />
    <path
       style="font-size:12px;fill:#3d4e67;fill-rule:evenodd;stroke-width:1pt"
       d="M 81.7593,35.4202 C 81.7593,35.4202 39.7747,60.169 36.0182,56.8544 C 27.6213,48.8994 11.0485,13.1021 11.7115,12.4392 C 14.1422,10.4505 64.9654,20.1732 81.7593,35.4202 z "
       id="path854"
       sodipodi:nodetypes="cccc"
       transform="translate(-5.082326,-3.093586)" />
    <path
       style="font-size:12px;fill:#ffffff;fill-rule:evenodd;stroke-width:1pt"
       d="M 84.0393,35.6735 C 81.7593,36.6869 39.7747,60.169 36.0182,56.8544 C 27.6213,48.8994 10.2885,12.0888 10.9515,11.4259 C 13.3822,9.43718 65.9787,20.9332 84.0393,35.6735 z "
       id="path857"
       sodipodi:nodetypes="cccc"
       transform="matrix(0.872265,0,0,0.872265,0.223256,0.893154)" />
    <path
       style="font-size:12px;fill:url(#linearGradient866);fill-rule:evenodd;stroke-width:1pt"
       d="M 84.0393,35.6735 C 81.7593,36.6869 39.7747,60.169 36.0182,56.8544 C 27.6213,48.8994 10.2885,12.0888 10.9515,11.4259 C 13.3822,9.43718 65.9787,20.9332 84.0393,35.6735 z "
       id="path865"
       sodipodi:nodetypes="cccc"
       transform="matrix(0.872265,0,0,0.872265,0.223256,0.893154)" />
    <path
       style="font-size:12px;fill:url(#linearGradient871);fill-rule:evenodd;stroke-width:1pt"
       d="M 13.9212,59.948 C 14.1421,59.948 28.2842,57.9592 33.1457,54.6446 C 33.5876,54.4237 42.8684,54.2027 45.962,57.2963 C 49.0555,60.3899 72.6994,80.4983 74.4672,80.7192 C 76.235,80.9402 19.4454,68.7868 13.9212,59.948 z "
       id="path870"
       sodipodi:nodetypes="ccccc"
       transform="matrix(0.83768,0,0,0.83768,0.105843,7.220649)" />
  </g>
  <g
     id="g1271"
     style="font-size:12px"
     transform="matrix(0.9999288,0,0,0.9999288,4.3498391,28.058348)">
    <defs
       id="defs1272">
      <linearGradient
         id="linearGradient621">
        <stop
           id="stop623"
           offset="0"
           style="stop-color:#666565;stop-opacity:1;" />
        <stop
           id="stop622"
           offset="1"
           style="stop-color:#ffffff;stop-opacity:1;" />
      </linearGradient>
      <linearGradient
         id="linearGradient610">
        <stop
           id="stop612"
           offset="0"
           style="stop-color:#666565;stop-opacity:1;" />
        <stop
           id="stop611"
           offset="1"
           style="stop-color:#ffffff;stop-opacity:1;" />
      </linearGradient>
      <defs
         id="defs1283">
        <linearGradient
           spreadMethod="pad"
           gradientUnits="objectBoundingBox"
           xlink:href="#linearGradient610"
           id="linearGradient554"
           y2="0"
           x2="1"
           y1="0"
           x1="0" />
        <linearGradient
           spreadMethod="pad"
           gradientTransform="scale(1.122498,0.89087)"
           gradientUnits="userSpaceOnUse"
           xlink:href="#linearGradient554"
           id="linearGradient557"
           y2="72.29023"
           x2="8.3357515"
           y1="79.96035"
           x1="12.9236" />
        <linearGradient
           spreadMethod="pad"
           gradientTransform="scale(1.122498,0.89087)"
           gradientUnits="userSpaceOnUse"
           xlink:href="#linearGradient554"
           id="linearGradient2544"
           y2="78.428917"
           x2="12.994576"
           y1="68.656029"
           x1="7.798367" />
        <linearGradient
           xlink:href="#linearGradient554"
           id="linearGradient563" />
      </defs>
      <defs
         id="defs573">
        <linearGradient
           spreadMethod="pad"
           gradientUnits="objectBoundingBox"
           xlink:href="#linearGradient621"
           id="linearGradient604"
           y2="0"
           x2="1"
           y1="0"
           x1="0" />
        <linearGradient
           id="linearGradient600">
          <stop
             id="stop601"
             offset="0"
             style="stop-color:#000000;stop-opacity:1;" />
          <stop
             id="stop602"
             offset="1"
             style="stop-color:#ffffff;stop-opacity:1;" />
        </linearGradient>
        <linearGradient
           spreadMethod="pad"
           gradientTransform="scale(0.994399,1.005632)"
           gradientUnits="userSpaceOnUse"
           xlink:href="#linearGradient604"
           id="linearGradient603"
           y2="14.15477"
           x2="79.628151"
           y1="28.657213"
           x1="61.04689" />
      </defs>
    </defs>
    <path
       id="path634"
       style="fill:none;stroke:#000000;stroke-width:4.30358124"
       d="M 48.81122,55.61913 39.40311,47.06217 C 39.31588,46.98283 30.45357,50.30231 26.40083,50.26261 16.98036,50.16918 3.817009,44.17875 2.741079,27.77976 1.890729,14.71088 10.51725,2.547793 26.23738,2.522773 39.15413,2.502398 51.08589,11.9679 49.8154,27.53133 49.2088,35.19649 45.52692,39.62464 46.16072,40.3028 l 10.3121,11.0338 c 1.67569,1.79296 -0.23896,11.03364 -7.6616,4.28253 z" />
    <path
       id="path620"
       style="fill:none;stroke:#efe16b;stroke-width:3.25"
       d="m 47.76238,26.53993 c 0,3.02175 -0.6131,5.90117 -1.72163,8.52057 -0.55426,1.3097 -1.70537,4.57037 -2.60027,5.65485 l 8.3026,11.08066 -0.78685,1.18252 -11.10871,-9.63797 c -1.08448,0.8949 -4.1516,2.82021 -5.4613,3.37447 -2.6194,1.10852 -5.49882,1.72163 -8.52057,1.72163 -12.08699,0 -21.89673,-9.80973 -21.89673,-21.89673 0,-12.08699 9.80974,-21.896733 21.89673,-21.896733 12.087,0 21.89673,9.809743 21.89673,21.896733 z" />
    <path
       id="path562"
       style="fill:#ffc83d;fill-rule:evenodd"
       d="m 44.24797,38.76775 11.91834,13.30281 c 1.92841,2.74655 -1.1645,6.19535 -4.37187,4.52296 L 38.14389,44.66903 c 0.2607,-2.76584 4.09625,-5.40882 6.10408,-5.90128 z" />
    <path
       id="path567"
       style="fill:#ff933d;fill-rule:evenodd"
       d="m 43.86792,39.16621 11.89502,13.11666 c 0.83409,2.11662 -0.53462,-1.44297 -2.29362,2.23907 L 41.29443,41.50412 c 0.02179,-0.85513 0.48208,-1.9203 2.57349,-2.33791 z" />
    <path
       id="path568"
       style="fill:#ffffff;fill-rule:evenodd"
       d="m 40.04615,42.27535 12.65327,12.48017 c 0.51713,0.14775 -0.60624,0.40213 -0.41976,1.70134 C 51.83815,55.8353 38.85772,43.95679 38.85772,43.95679 z" />
    <ellipse
       id="path611"
       style="fill:#bae6ff;fill-opacity:0.431;fill-rule:evenodd;stroke-width:1"
       transform="matrix(1.106369,0,0,1.106369,-7.012474,-6.130595)"
       ry="18.451067"
       rx="18.451067"
       cy="28.953592"
       cx="29.499611"
       sodipodi:cx="29.499611"
       sodipodi:cy="28.953592"
       sodipodi:rx="18.451067"
       sodipodi:ry="18.451067" />
    <path
       id="path610"
       style="fill:#437caf;fill-opacity:0.34479998;fill-rule:evenodd;stroke-width:1"
       d="m 38.94959,11.01917 c 4.25334,3.03534 7.34957,7.69212 8.27822,13.24924 0.92864,5.55712 -0.48527,10.96758 -3.52061,15.22092 -3.03535,4.25335 -7.69213,7.34957 -13.24925,8.27821 -5.55711,0.92865 -9.21286,-0.19281 -15.22092,-3.5206 m 0,0 c 29.2168,-8.79323 22.0325,-15.93489 23.71256,-33.22777" />
    <path
       id="path651"
       style="fill:#ff0000;fill-rule:evenodd;stroke-width:1"
       d="m 44.19708,38.5588 c -2.0449,0.76964 -1.41633,0.65419 -3.29481,1.86762 -0.10454,0.17099 -1.23455,0.05918 -2.70765,4.31979 l 3.13238,2.80668 c 0.84957,-1.12667 2.09479,-3.17528 2.83341,-3.69175 1.07102,-0.79427 1.60107,-1.20024 3.17135,-1.82809 z" />
    <path
       id="path652"
       style="fill:#ffffff;fill-rule:evenodd;stroke-width:1"
       d="m 41.76381,44.43223 -0.98475,1.40744 -1.89339,-1.57431 0.88755,-1.38681 z" />
  </g>
</svg>
