<?xml version="1.0" encoding="UTF-8" standalone="no"?>
<!-- Created with Sodipodi ("http://www.sodipodi.com/") -->
<svg
   xmlns:dc="http://purl.org/dc/elements/1.1/"
   xmlns:cc="http://creativecommons.org/ns#"
   xmlns:rdf="http://www.w3.org/1999/02/22-rdf-syntax-ns#"
   xmlns:svg="http://www.w3.org/2000/svg"
   xmlns="http://www.w3.org/2000/svg"
   xmlns:xlink="http://www.w3.org/1999/xlink"
   xmlns:sodipodi="http://sodipodi.sourceforge.net/DTD/sodipodi-0.dtd"
   xmlns:inkscape="http://www.inkscape.org/namespaces/inkscape"
   id="svg604"
   sodipodi:version="0.32"
   width="90"
   height="90"
   sodipodi:docbase="/home/tweenk/GNUtoon/apps"
   sodipodi:docname="filter-notes-unfiled.svg"
   inkscape:version="0.46+devel"
   inkscape:output_extension="org.inkscape.output.svg.inkscape"
   version="1.0">
  <metadata
     id="metadata39">
    <rdf:RDF>
      <cc:Work
         rdf:about="">
        <dc:format>image/svg+xml</dc:format>
        <dc:type
           rdf:resource="http://purl.org/dc/dcmitype/StillImage" />
      </cc:Work>
    </rdf:RDF>
  </metadata>
  <defs
     id="defs606">
    <linearGradient
       id="linearGradient6184">
      <stop
         id="stop6186"
         offset="0.000000"
         style="stop-color:#593a28;stop-opacity:1" />
      <stop
         id="stop6188"
         offset="1.000000"
         style="stop-color:#ff933d;stop-opacity:0" />
    </linearGradient>
    <linearGradient
       id="linearGradient4218">
      <stop
         id="stop4220"
         offset="0"
         style="stop-color:#b01911;stop-opacity:1" />
      <stop
         id="stop4222"
         offset="1"
         style="stop-color:#ffc93f;stop-opacity:1" />
    </linearGradient>
    <linearGradient
       id="linearGradient3217">
      <stop
         style="stop-color:#ffe6ba;stop-opacity:1"
         offset="0"
         id="stop3219" />
      <stop
         style="stop-color:#ffc93f;stop-opacity:1"
         offset="1"
         id="stop3221" />
    </linearGradient>
    <linearGradient
       inkscape:collect="always"
       xlink:href="#linearGradient6184"
       id="linearGradient2672"
       gradientUnits="userSpaceOnUse"
       gradientTransform="matrix(2.2843493,-0.1950936,0.1950936,2.2843493,-1.5937957,3.6718231)"
       x1="25.653496"
       y1="20.317675"
       x2="18.965466"
       y2="15.304358" />
    <linearGradient
       inkscape:collect="always"
       xlink:href="#linearGradient3217"
       id="linearGradient2735"
       gradientUnits="userSpaceOnUse"
       gradientTransform="matrix(2.2843493,-0.1950936,0.1950936,2.2843493,-1.5937957,3.6718231)"
       x1="10.446366"
       y1="7.4949131"
       x2="17.217117"
       y2="16.213354" />
    <linearGradient
       inkscape:collect="always"
       xlink:href="#linearGradient4218"
       id="linearGradient2737"
       gradientUnits="userSpaceOnUse"
       gradientTransform="matrix(2.2843493,-0.1950936,0.1950936,2.2843493,-1.5937957,3.6718231)"
       x1="25.096966"
       y1="19.736431"
       x2="22.915148"
       y2="17.301367" />
    <linearGradient
       inkscape:collect="always"
       xlink:href="#linearGradient6184"
       id="linearGradient2739"
       gradientUnits="userSpaceOnUse"
       gradientTransform="matrix(2.2843493,-0.1950936,0.1950936,2.2843493,-1.5937957,3.6718231)"
       x1="25.653496"
       y1="20.317675"
       x2="18.965466"
       y2="15.304358" />
  </defs>
  <sodipodi:namedview
     id="base"
     inkscape:zoom="5.0416665"
     inkscape:cx="41.770216"
     inkscape:cy="48.331248"
     inkscape:window-width="1014"
     inkscape:window-height="724"
     inkscape:window-x="0"
     inkscape:window-y="1"
     inkscape:current-layer="svg604"
     width="90px"
     height="90px"
     showgrid="false" />
  <path
     style="fill:#000000;fill-opacity:0.29411765;fill-rule:evenodd;stroke:none"
     d="m 13.035577,3.4649086 c -5.9628862,8.4804976 -13.485653,36.629377 -12.226899,45.820301 2.4388308,0.938153 5.2580187,1.978435 8.2531562,3.026157 -2.381755,10.867223 -3.7539319,22.924016 -2.5982158,28.244136 9.0467904,2.693982 23.029065,6.299345 32.95149,7.275004 9.566671,-1.954417 14.786265,-8.202272 19.3185,-16.659149 6.206651,-1.348876 12.500495,-2.966596 17.453898,-4.76849 C 84.217056,60.318724 86.111825,52.10203 86.458099,42.101906 81.867733,31.931986 81.456967,25.504232 79.488767,14.98876 73.264199,17.895442 66.75254,20.558996 59.314385,22.783408 60.060977,20.768319 60.862557,18.669159 61.69863,16.303151 47.430721,15.046801 32.67601,12.244136 13.035576,3.4649082 z"
     id="path2624" />
  <g
     id="g2570"
     transform="matrix(0.8809191,0.4251615,-0.4251615,0.8809191,12.937086,-15.302938)">
    <path
       sodipodi:nodetypes="cccccc"
       id="path2234"
       d="m 10.094378,12.923004 c -1.7216466,10.4578 3.869213,39.729317 9.112303,47.632158 9.617452,-0.794611 24.257947,-2.533886 34.071118,-5.290405 C 61.929943,49.677682 64.492253,41.458485 65.611766,31.290312 61.711595,20.57065 61.797969,13.984511 60.597473,3.1135595 46.902563,8.2970072 32.078747,12.278585 10.094378,12.923004 z"
       style="fill:#593a28;fill-opacity:1;fill-rule:evenodd;stroke:none" />
    <path
       sodipodi:nodetypes="ccccscc"
       id="path2189"
       d="m 14.307764,16.989541 c 12.464703,-1.246622 30.171542,-2.429627 43.024263,-7.9607727 0.580218,6.8534547 1.393859,14.14357 3.649886,21.220442 -0.337952,5.498969 -6.078478,4.976509 -10.797821,7.13701 2.100985,4.093318 3.487246,10.503875 -0.169246,12.799415 -7.408904,4.651311 -27.290653,6.620408 -28.271591,5.570667 C 16.945884,43.561019 14.208662,30.117318 14.307764,16.989541 z"
       style="fill:url(#linearGradient2735);fill-opacity:1;fill-rule:evenodd;stroke:none" />
    <path
       sodipodi:nodetypes="cccc"
       id="path3164"
       d="m 52.23305,50.156765 c 4.210264,-1.906693 8.685715,-9.969982 9.13927,-17.027263 -2.04798,4.380587 -6.215575,4.465288 -8.272429,5.466922 0.837658,2.013627 3.092538,8.36415 -0.866841,11.560341 z"
       style="fill:url(#linearGradient2737);fill-opacity:1;fill-rule:evenodd;stroke:none" />
    <path
       sodipodi:nodetypes="ccsccc"
       id="path4224"
       d="M 58.272656,17.887149 C 36.525054,23.256495 30.621602,28.048172 30.330882,55.546616 36.944584,54.74001 45.627602,52.947371 50.003134,50.200406 53.659621,47.904869 52.290525,41.464618 50.18954,37.3713 54.908883,35.210797 60.675601,35.773357 61.01356,30.274395 59.710576,26.18709 58.846279,21.991505 58.272656,17.887149 z"
       style="fill:url(#linearGradient2739);fill-opacity:1;fill-rule:evenodd;stroke:none" />
  </g>
  <use
     x="0"
     y="0"
     xlink:href="#g2570"
     id="use2582"
     transform="matrix(0.8654725,-0.5009564,0.5009564,0.8654725,19.929577,33.039174)"
     width="90"
     height="90" />
  <use
     x="0"
     y="0"
     xlink:href="#g2570"
     id="use2584"
     transform="matrix(0.9969751,-7.7723414e-2,7.7723414e-2,0.9969751,2.0859264,31.711488)"
     width="90"
     height="90" />
</svg>
