<?xml version="1.0" encoding="UTF-8" standalone="no"?>
<!-- Created with Sodipodi ("http://www.sodipodi.com/") -->
<svg
   xmlns:dc="http://purl.org/dc/elements/1.1/"
   xmlns:cc="http://web.resource.org/cc/"
   xmlns:rdf="http://www.w3.org/1999/02/22-rdf-syntax-ns#"
   xmlns:svg="http://www.w3.org/2000/svg"
   xmlns="http://www.w3.org/2000/svg"
   xmlns:xlink="http://www.w3.org/1999/xlink"
   xmlns:sodipodi="http://sodipodi.sourceforge.net/DTD/sodipodi-0.dtd"
   xmlns:inkscape="http://www.inkscape.org/namespaces/inkscape"
   id="svg604"
   sodipodi:version="0.32"
   width="90"
   height="90"
   sodipodi:docbase="/home/tweenk/GNUtoon/actions"
   sodipodi:docname="format-justify-right.svg"
   inkscape:version="0.45.1"
   inkscape:output_extension="org.inkscape.output.svg.inkscape"
   version="1.0">
  <metadata
     id="metadata16">
    <rdf:RDF>
      <cc:Work
         rdf:about="">
        <dc:format>image/svg+xml</dc:format>
        <dc:type
           rdf:resource="http://purl.org/dc/dcmitype/StillImage" />
      </cc:Work>
    </rdf:RDF>
  </metadata>
  <defs
     id="defs606">
    <linearGradient
       id="linearGradient612">
      <stop
         style="stop-color:#7fa8e3;stop-opacity:0.741176;"
         offset="0.000000"
         id="stop613" />
      <stop
         style="stop-color:#ffffff;stop-opacity:0;"
         offset="1.000000"
         id="stop614" />
    </linearGradient>
    <linearGradient
       xlink:href="#linearGradient612"
       id="linearGradient615"
       x1="50.643887"
       y1="5.3679295"
       x2="35.752094"
       y2="68.044357"
       gradientUnits="userSpaceOnUse"
       spreadMethod="pad"
       gradientTransform="matrix(0.956727,0,0,0.956727,2.498777,1.899841)" />
  </defs>
  <sodipodi:namedview
     id="base"
     inkscape:zoom="7.1299934"
     inkscape:cx="16.364628"
     inkscape:cy="15.382868"
     inkscape:window-width="903"
     inkscape:window-height="619"
     inkscape:window-x="5"
     inkscape:window-y="32"
     inkscape:current-layer="svg604"
     width="90px"
     height="90px" />
  <path
     style="fill:#3d4e67;fill-opacity:1;fill-rule:evenodd;stroke:none;stroke-width:1pt;stroke-linecap:butt;stroke-linejoin:miter;stroke-opacity:1"
     d="M 20.351389,87.463399 C 16.77987,87.411964 10.792278,85.267087 10.269471,79.511332 C 8.425824,73.695955 2.016747,18.730755 5.109405,14.902288 C 6.707412,11.888186 10.187197,9.675564 16.378361,8.908524 C 21.444192,8.145682 67.523675,2.183961 70.921472,3.109289 C 74.319392,4.034678 76.995998,4.817175 77.240432,9.458009 C 76.989128,11.981907 85.547828,63.461806 86.860859,66.49753 C 87.48737,70.053331 86.458937,75.022333 81.21944,76.659178 C 75.980042,78.295993 24.487464,86.768671 20.351389,87.463399 z "
     id="path609"
     sodipodi:nodetypes="ccccccccc" />
  <path
     style="fill:#ffffff;fill-opacity:1;fill-rule:evenodd;stroke:none;stroke-width:1pt;stroke-linecap:butt;stroke-linejoin:miter;stroke-opacity:1"
     d="M 24.477533,81.366838 C 21.014908,81.816403 16.205164,82.756207 15.630659,78.100495 C 13.238335,67.079269 7.753176,23.399573 11.661613,16.301166 C 12.534557,14.631993 17.274125,12.36631 28.040336,11.420477 C 40.275047,10.210311 65.378798,8.370009 68.020523,8.489552 C 70.662131,8.609126 71.470277,8.314977 72.04487,12.97079 C 71.811515,17.920675 79.780754,56.642008 80.251541,63.497722 C 80.617871,68.364496 81.248285,70.432291 78.015974,71.608843"
     id="path608"
     sodipodi:nodetypes="cccccccs" />
  <path
     style="fill:url(#linearGradient615);fill-opacity:1;fill-rule:evenodd;stroke:none;stroke-width:1pt;stroke-linecap:butt;stroke-linejoin:miter;stroke-opacity:1"
     d="M 12.527879,22.892297 C 12.527879,22.892297 12.839303,16.287131 21.803385,14.971794 C 30.767438,13.656476 66.269042,9.173274 67.114922,11.462086 C 67.960784,13.750895 69.008027,28.625273 69.269213,29.828557 C 69.530399,31.031815 39.477749,41.321701 31.225433,51.141832 C 22.973099,60.961948 17.193626,68.908234 17.193626,68.908234 C 17.193626,68.908234 12.468084,34.274584 12.527879,22.892297 z "
     id="path636" />
  <path
     style="font-size:12px;fill:none;fill-rule:evenodd;stroke:#3d4e67;stroke-width:4.03026772;stroke-linecap:round;stroke-opacity:1"
     d="M 18.359628,25.98507 L 65.181893,19.71936"
     id="path706"
     sodipodi:nodetypes="cc" />
  <path
     style="font-size:12px;fill:none;fill-rule:evenodd;stroke:#3d4e67;stroke-width:4.03026772;stroke-linecap:round;stroke-opacity:1"
     d="M 32.219024,36.129562 L 66.305618,30.758956"
     id="path707"
     sodipodi:nodetypes="cc" />
  <path
     style="font-size:12px;fill:none;fill-rule:evenodd;stroke:#3d4e67;stroke-width:4.03026772;stroke-linecap:round;stroke-opacity:1"
     d="M 21.356268,48.660991 L 67.42937,41.500177"
     id="path708"
     sodipodi:nodetypes="cc" />
  <path
     style="font-size:12px;fill:none;fill-rule:evenodd;stroke:#3d4e67;stroke-width:4.03026772;stroke-linecap:round;stroke-opacity:1"
     d="M 39.38219,58.262332 L 69.34841,53.190079"
     id="path709"
     sodipodi:nodetypes="cc" />
  <path
     style="font-size:12px;fill:none;fill-rule:evenodd;stroke:#3d4e67;stroke-width:4.03026772;stroke-linecap:round;stroke-opacity:1"
     d="M 25.102036,72.828748 L 71.924294,63.877735"
     id="path710"
     sodipodi:nodetypes="cc" />
</svg>
