<?xml version="1.0" encoding="UTF-8" standalone="no"?>
<!-- Created with Sodipodi ("http://www.sodipodi.com/") -->
<svg
   xmlns:dc="http://purl.org/dc/elements/1.1/"
   xmlns:cc="http://web.resource.org/cc/"
   xmlns:rdf="http://www.w3.org/1999/02/22-rdf-syntax-ns#"
   xmlns:svg="http://www.w3.org/2000/svg"
   xmlns="http://www.w3.org/2000/svg"
   xmlns:xlink="http://www.w3.org/1999/xlink"
   xmlns:sodipodi="http://sodipodi.sourceforge.net/DTD/sodipodi-0.dtd"
   xmlns:inkscape="http://www.inkscape.org/namespaces/inkscape"
   id="svg604"
   sodipodi:version="0.32"
   width="90"
   height="90"
   sodipodi:docbase="/home/tweenk/GNUtoon/actions"
   sodipodi:docname="format-justify-left.svg"
   inkscape:version="0.45.1"
   inkscape:output_extension="org.inkscape.output.svg.inkscape"
   version="1.0">
  <metadata
     id="metadata16">
    <rdf:RDF>
      <cc:Work
         rdf:about="">
        <dc:format>image/svg+xml</dc:format>
        <dc:type
           rdf:resource="http://purl.org/dc/dcmitype/StillImage" />
      </cc:Work>
    </rdf:RDF>
  </metadata>
  <defs
     id="defs606">
    <linearGradient
       id="linearGradient612">
      <stop
         style="stop-color:#7fa8e3;stop-opacity:0.741176;"
         offset="0.000000"
         id="stop613" />
      <stop
         style="stop-color:#ffffff;stop-opacity:0;"
         offset="1.000000"
         id="stop614" />
    </linearGradient>
    <linearGradient
       xlink:href="#linearGradient612"
       id="linearGradient615"
       x1="50.643887"
       y1="5.3679295"
       x2="35.752094"
       y2="68.044357"
       gradientUnits="userSpaceOnUse"
       spreadMethod="pad"
       gradientTransform="matrix(0.955887,0,0,0.955887,2.2745077,1.4169238)" />
  </defs>
  <sodipodi:namedview
     id="base"
     inkscape:zoom="4.5222222"
     inkscape:cx="45"
     inkscape:cy="45"
     inkscape:window-width="820"
     inkscape:window-height="619"
     inkscape:window-x="5"
     inkscape:window-y="32"
     inkscape:current-layer="svg604"
     width="90px"
     height="90px" />
  <path
     style="fill:#3d4e67;fill-opacity:1;fill-rule:evenodd;stroke:none;stroke-width:1pt;stroke-linecap:butt;stroke-linejoin:miter;stroke-opacity:1"
     d="M 20.836144,86.627652 C 17.291731,86.576283 11.349571,84.433293 10.830733,78.682596 C 9.0010627,72.872343 2.6406247,17.955513 5.7098167,14.130414 C 7.2957007,11.118966 10.749082,8.9082868 16.893271,8.1419218 C 21.920665,7.3797508 67.650502,1.4232778 71.022529,2.3477908 C 74.394661,3.2723668 77.050972,4.0541728 77.293546,8.6909218 C 77.044147,11.212596 85.537912,62.647194 86.840974,65.680245 C 87.46273,69.232905 86.442091,74.197542 81.242365,75.832959 C 76.042714,77.468322 24.94084,85.933554 20.836144,86.627652 z "
     id="path609"
     sodipodi:nodetypes="ccccccccc" />
  <path
     style="fill:#ffffff;fill-opacity:1;fill-rule:evenodd;stroke:none;stroke-width:1pt;stroke-linecap:butt;stroke-linejoin:miter;stroke-opacity:1"
     d="M 24.930994,80.536467 C 21.494644,80.985636 16.721386,81.924621 16.151236,77.273007 C 13.777075,66.261471 8.3335297,22.620213 12.212311,15.528051 C 13.07863,13.860348 17.782225,11.596668 28.466764,10.651665 C 40.608637,9.4425598 65.521897,7.6038808 68.143585,7.7233198 C 70.765147,7.8427888 71.567173,7.5488968 72.137398,12.200616 C 71.905825,17.146146 79.814596,55.833393 80.281813,62.683077 C 80.645347,67.545576 81.270985,69.611541 78.063196,70.787061"
     id="path608"
     sodipodi:nodetypes="cccccccs" />
  <path
     style="fill:url(#linearGradient615);fill-opacity:1;fill-rule:evenodd;stroke:none;stroke-width:1pt;stroke-linecap:butt;stroke-linejoin:miter;stroke-opacity:1"
     d="M 13.072006,22.113384 C 13.072006,22.113384 13.381063,15.514038 22.277131,14.199849 C 31.173172,12.885699 66.405394,8.4064408 67.244872,10.693239 C 68.084299,12.980025 69.123595,27.841314 69.382813,29.043549 C 69.64201,30.245739 39.817393,40.526577 31.627675,50.338068 C 23.437969,60.149532 17.702344,68.088828 17.702344,68.088828 C 17.702344,68.088828 13.012654,33.485673 13.072006,22.113384 z "
     id="path636" />
  <path
     style="font-size:12px;fill:none;fill-rule:evenodd;stroke:#3d4e67;stroke-width:4.01318169;stroke-linecap:round;stroke-opacity:1"
     d="M 18.859501,25.203444 L 65.326504,18.943248"
     id="path706"
     sodipodi:nodetypes="cc" />
  <path
     style="font-size:12px;fill:none;fill-rule:evenodd;stroke:#3d4e67;stroke-width:4.01318169;stroke-linecap:round;stroke-opacity:1"
     d="M 20.420002,36.53142 L 39.378538,33.848487"
     id="path707"
     sodipodi:nodetypes="cc" />
  <path
     style="font-size:12px;fill:none;fill-rule:evenodd;stroke:#3d4e67;stroke-width:4.01318169;stroke-linecap:round;stroke-opacity:1"
     d="M 21.833401,47.859411 L 59.006998,42.19542"
     id="path708"
     sodipodi:nodetypes="cc" />
  <path
     style="font-size:12px;fill:none;fill-rule:evenodd;stroke:#3d4e67;stroke-width:4.01318169;stroke-linecap:round;stroke-opacity:1"
     d="M 23.320348,61.274121 L 45.996214,57.398751"
     id="path709"
     sodipodi:nodetypes="cc" />
  <path
     style="font-size:12px;fill:none;fill-rule:evenodd;stroke:#3d4e67;stroke-width:4.01318169;stroke-linecap:round;stroke-opacity:1"
     d="M 25.550752,72.005892 L 72.01774,63.062754"
     id="path710"
     sodipodi:nodetypes="cc" />
</svg>
