<?xml version="1.0" encoding="UTF-8" standalone="no"?>
<!DOCTYPE svg PUBLIC "-//W3C//DTD SVG 20010904//EN"
"http://www.w3.org/TR/2001/REC-SVG-20010904/DTD/svg10.dtd">
<!-- Created with Sodipodi ("http://www.sodipodi.com/") -->
<svg
   version="1"
   x="0.00000000"
   y="0.00000000"
   width="90.0000000"
   height="90.0000000"
   id="svg548"
   sodipodi:version="0.32"
   sodipodi:docname="gnome-searchtool-animation-rest.svg"
   sodipodi:docbase="/home/zeus/.icons/gartoon/scalable/apps"
   xmlns="http://www.w3.org/2000/svg"
   xmlns:sodipodi="http://sodipodi.sourceforge.net/DTD/sodipodi-0.dtd"
   xmlns:xlink="http://www.w3.org/1999/xlink"
   xmlns:inkscape="http://www.inkscape.org/namespaces/inkscape"
   inkscape:version="0.40"
   xmlns:rdf="http://www.w3.org/1999/02/22-rdf-syntax-ns#"
   xmlns:cc="http://web.resource.org/cc/"
   xmlns:dc="http://purl.org/dc/elements/1.1/">
  <metadata
     id="metadata27">
    <rdf:RDF
       id="RDF28">
      <cc:Work
         rdf:about=""
         id="Work29">
        <dc:format
           id="format30">image/svg+xml</dc:format>
        <dc:type
           id="type32"
           rdf:resource="http://purl.org/dc/dcmitype/StillImage" />
      </cc:Work>
    </rdf:RDF>
  </metadata>
  <sodipodi:namedview
     id="base"
     inkscape:zoom="1.7824983"
     inkscape:cx="55.657506"
     inkscape:cy="43.280592"
     inkscape:window-width="640"
     inkscape:window-height="536"
     inkscape:window-x="0"
     inkscape:window-y="25"
     inkscape:current-layer="svg548" />
  <defs
     id="defs550">
    <linearGradient
       x1="0.00000000"
       y1="0.00000000"
       x2="1.00000000"
       y2="0.00000000"
       id="linearGradient632"
       gradientUnits="objectBoundingBox"
       spreadMethod="pad">
      <stop
         style="stop-color:#ffb700;stop-opacity:1;"
         offset="0.000000"
         id="stop633" />
      <stop
         style="stop-color:#ffd58f;stop-opacity:0;"
         offset="1.000000"
         id="stop634" />
    </linearGradient>
    <linearGradient
       x1="0.00000000"
       y1="0.00000000"
       x2="1.00000000"
       y2="0.00000000"
       id="linearGradient556"
       gradientUnits="objectBoundingBox"
       spreadMethod="pad">
      <stop
         style="stop-color:#000000;stop-opacity:1;"
         offset="0.000000"
         id="stop557" />
      <stop
         style="stop-color:#bdf2ff;stop-opacity:0.384314;"
         offset="1.000000"
         id="stop558" />
    </linearGradient>
    <linearGradient
       id="linearGradient559"
       xlink:href="#linearGradient632"
       x1="60.6446152"
       y1="19.2956886"
       x2="35.3705750"
       y2="69.1427994"
       gradientUnits="userSpaceOnUse"
       spreadMethod="pad" />
    <linearGradient
       xlink:href="#linearGradient632"
       id="linearGradient631"
       x1="85.6376572"
       y1="17.4438438"
       x2="73.9162979"
       y2="54.6281815"
       gradientUnits="userSpaceOnUse"
       spreadMethod="pad"
       gradientTransform="scale(0.740666,1.350136)" />
    <linearGradient
       inkscape:collect="always"
       xlink:href="#linearGradient632"
       id="linearGradient1104"
       gradientUnits="userSpaceOnUse"
       gradientTransform="matrix(1.050920,-0.148604,0.172402,1.499373,226.4751,-2.000624)"
       spreadMethod="pad"
       x1="85.6376572"
       y1="17.4438438"
       x2="73.9162979"
       y2="54.6281815" />
  </defs>
  <g
     id="g1115">
    <defs
       id="defs606">
      <linearGradient
         id="linearGradient612">
        <stop
           style="stop-color:#7fa8e3;stop-opacity:0.741176;"
           offset="0.000000"
           id="stop613" />
        <stop
           style="stop-color:#ffffff;stop-opacity:0;"
           offset="1.000000"
           id="stop614" />
      </linearGradient>
      <linearGradient
         xlink:href="#linearGradient612"
         id="linearGradient615"
         x1="50.6438866"
         y1="5.36792946"
         x2="35.7520943"
         y2="68.0443573"
         gradientUnits="userSpaceOnUse"
         spreadMethod="pad" />
    </defs>
    <sodipodi:namedview
       id="namedview1121" />
    <path
       style="fill:#000000;fill-rule:evenodd;stroke:none;stroke-opacity:1;stroke-width:1pt;stroke-linejoin:miter;stroke-linecap:butt;fill-opacity:0.301471;"
       d="M 12.8163 74.753 C 10.3856 73.6481 7.07107 70.1126 8.83884 65.2512 C 9.72267 59.948 25.6326 13.1021 29.1682 10.8924 C 31.3778 8.90368 34.582 8.13026 39.1119 9.34561 C 42.8684 10.2295 76.6769 19.0684 78.6656 20.8361 C 80.6544 22.6039 82.2012 24.0402 80.6544 27.9072 C 79.5496 29.8959 66.4017 74.532 66.1808 77.4047 C 65.2969 80.4983 62.7558 84.2548 58.5573 84.0338 C 54.3589 83.8128 15.9099 75.4159 12.8163 74.753 z "
       id="path794"
       sodipodi:nodetypes="ccccccccc"
       transform="matrix(1.114903,0.000000,0.000000,1.114903,-5.305332,-3.889256)" />
    <path
       style="fill:#3d4e67;fill-rule:evenodd;stroke:none;stroke-opacity:1;stroke-width:1pt;stroke-linejoin:miter;stroke-linecap:butt;fill-opacity:1;"
       d="M 12.8163 74.753 C 10.3856 73.6481 7.07107 70.1126 8.83884 65.2512 C 9.72267 59.948 25.6326 13.1021 29.1682 10.8924 C 31.3778 8.90368 34.582 8.13026 39.1119 9.34561 C 42.8684 10.2295 76.6769 19.0684 78.6656 20.8361 C 80.6544 22.6039 82.2012 24.0402 80.6544 27.9072 C 79.5496 29.8959 66.4017 74.532 66.1808 77.4047 C 65.2969 80.4983 62.7558 84.2548 58.5573 84.0338 C 54.3589 83.8128 15.9099 75.4159 12.8163 74.753 z "
       id="path609"
       sodipodi:nodetypes="ccccccccc"
       transform="matrix(1.114903,0.000000,0.000000,1.114903,-8.162471,-8.460684)" />
    <path
       style="fill:#ffffff;fill-rule:evenodd;stroke:none;stroke-opacity:1;stroke-width:1pt;stroke-linejoin:miter;stroke-linecap:butt;fill-opacity:1;"
       d="M 17.8987 70.9965 C 15.3576 70.3336 11.7114 69.6706 13.0373 65.6932 C 15.468 55.9705 27.8424 18.6264 33.1456 13.986 C 34.361 12.8811 38.4489 12.4392 46.1829 14.8699 C 55.0218 17.5215 72.9204 23.4877 74.6882 24.3716 C 76.4559 25.2555 77.1189 25.2555 75.793 29.233 C 73.8043 33.2105 64.9655 67.24 62.7557 72.9852 C 61.209 77.0732 60.8775 78.9514 58.2258 78.9514 "
       id="path608"
       sodipodi:nodetypes="cccccccs"
       transform="matrix(1.114903,0.000000,0.000000,1.114903,-8.162471,-8.460684)" />
    <path
       style="fill:url(#linearGradient615);fill-rule:evenodd;stroke:none;stroke-opacity:1;stroke-width:1pt;stroke-linejoin:miter;stroke-linecap:butt;fill-opacity:1;"
       d="M 28.75 13.75 C 28.75 13.75 31.875 7.49995 39.6875 9.37495 C 47.5 11.25 78.125 19.375 77.8125 21.875 C 77.5 24.375 71.875 39.0625 71.5625 40.3125 C 71.25 41.5625 42.5 40.9375 31.5625 47.5 C 20.625 54.0625 12.5 59.6875 12.5 59.6875 C 12.5 59.6875 23.75 24.6875 28.75 13.75 z "
       id="path636"
       transform="matrix(0.946780,0.000000,0.000000,0.946780,-0.480566,0.409517)" />
  </g>
  <g
     id="g1105"
     transform="matrix(0.684458,0.000000,0.000000,0.684458,-90.27349,55.35063)">
    <path
       style="font-size:12.000000;fill:none;fill-rule:evenodd;stroke:#000000;stroke-width:4.7923589"
       d="M 230.25704,37.276672 L 223.83873,24.652742 C 223.77923,24.535692 213.24089,24.493642 209.03663,22.852462 C 199.26439,19.036352 187.92274,7.6024317 193.27607,-9.8978483 C 197.54969,-23.841568 211.33361,-33.101058 227.71217,-26.921448 C 241.16985,-21.843658 249.85727,-7.2774783 242.39056,8.4264817 C 238.73305,16.168432 233.15122,19.325792 233.54345,20.282132 L 239.92531,35.841952 C 240.96234,38.370372 235.32085,47.236482 230.25704,37.276672 z "
       id="path634"
       sodipodi:nodetypes="cssssssss" />
    <path
       style="font-size:12.000000;fill:none;fill-rule:evenodd;stroke:#efe16b;stroke-width:3.6191180"
       d="M 240.64421,6.5837417 C 239.45135,9.7301517 237.67627,12.486342 235.48798,14.776202 C 234.39384,15.921132 231.90806,18.861922 230.54813,19.637872 L 234.81908,34.453202 L 233.53295,35.373892 L 225.77061,20.953032 C 224.28812,21.456752 220.33443,22.250722 218.75190,22.310822 C 215.58683,22.431042 212.34659,21.932772 209.20019,20.739902 C 196.61452,15.968452 190.27255,1.8815317 195.04400,-10.704118 C 199.81545,-23.289778 213.90238,-29.631738 226.48804,-24.860288 C 239.07369,-20.088838 245.41566,-6.0019083 240.64421,6.5837417 z "
       id="path620"
       sodipodi:nodetypes="csccccscccc" />
    <path
       style="font-size:12.000000;fill:#ffc83d;fill-rule:evenodd"
       d="M 232.15777,17.928682 L 239.31640,36.485182 C 240.24015,40.106302 235.65819,42.476432 232.97869,39.468902 L 223.47227,21.663792 C 224.83556,18.886752 229.87270,17.648852 232.15777,17.928682 z "
       id="path1170"
       sodipodi:nodetypes="ccccc" />
    <path
       style="font-size:12.000000;fill:#ff933d;fill-rule:evenodd"
       d="M 231.60474,18.193552 L 238.81258,36.547022 C 238.84553,39.080222 238.82553,34.833482 235.54045,37.973042 L 228.00217,19.612012 C 228.36244,18.730202 229.26219,17.802782 231.60474,18.193552 z "
       id="path567"
       sodipodi:nodetypes="ccccc" />
    <path
       style="font-size:12.000000;fill:#ffffff;fill-rule:evenodd"
       d="M 226.39794,19.922282 L 234.64658,37.912332 C 235.12671,38.270312 233.85658,38.091722 233.53788,39.518152 C 233.32352,38.696662 224.49672,21.203962 224.49672,21.203962 L 226.39794,19.922282 z "
       id="path568"
       sodipodi:nodetypes="ccccc" />
    <path
       sodipodi:type="arc"
       style="font-size:12.000000;fill:#bae6ff;fill-opacity:0.43099996;fill-rule:evenodd;stroke:none;stroke-width:1.0000000pt"
       id="path611"
       sodipodi:cx="29.499611"
       sodipodi:cy="28.953592"
       sodipodi:rx="18.451067"
       sodipodi:ry="18.451067"
       d="M 47.950678 28.953592 A 18.451067 18.451067 0 1 1  11.048544,28.953592 A 18.451067 18.451067 0 1 1  47.950678 28.953592 z"
       transform="matrix(1.152014,0.436749,-0.436749,1.152014,196.8115,-47.96003)" />
    <path
       style="font-size:12.000000;fill:#437caf;fill-opacity:0.34479997;fill-rule:evenodd;stroke-width:1.0000000pt"
       d="M 237.59480,-13.056268 C 240.82539,-8.2166583 242.21104,-2.1454983 240.98429,4.0074717 C 239.75752,10.160462 236.14944,15.235982 231.30983,18.466562 C 226.47021,21.697162 220.39906,23.082812 214.24608,21.856032 C 208.09312,20.629282 204.72924,18.018422 199.78699,12.181602 M 199.78699,12.181602 C 233.68037,14.559172 229.01890,4.2868317 237.59480,-13.056268"
       id="path610"
       sodipodi:nodetypes="ccscscs" />
    <path
       style="fill:#ff0000;fill-opacity:1.0000000;fill-rule:evenodd;stroke:none;stroke-width:1.0000000pt;stroke-linecap:butt;stroke-linejoin:miter;stroke-opacity:1.0000000"
       d="M 232.18726,17.691022 C 229.75417,17.685172 230.45426,17.813092 228.01927,18.335042 C 227.84291,18.471812 226.71042,17.909312 223.49462,21.764182 L 225.64827,25.923182 C 226.97766,25.085412 229.08296,23.443832 230.05594,23.197642 C 231.48469,22.793402 232.19687,22.579922 234.07978,22.546052 L 232.18726,17.691022 z "
       id="path651"
       sodipodi:nodetypes="ccccccc" />
    <path
       style="fill:#ffffff;fill-opacity:1.0000000;fill-rule:evenodd;stroke:none;stroke-width:1.0000000pt;stroke-linecap:butt;stroke-linejoin:miter;stroke-opacity:1.0000000"
       d="M 227.33501,22.846212 L 225.75404,23.922972 L 224.40402,21.536282 L 225.87563,20.442632 L 227.33501,22.846212 z "
       id="path652"
       sodipodi:nodetypes="ccccc" />
  </g>
</svg>
