<?xml version="1.0" encoding="UTF-8" standalone="no"?>
<!DOCTYPE svg PUBLIC "-//W3C//DTD SVG 20010904//EN"
"http://www.w3.org/TR/2001/REC-SVG-20010904/DTD/svg10.dtd">
<!-- Created with Sodipodi ("http://www.sodipodi.com/") -->
<svg
   version="1.0"
   x="0"
   y="0"
   width="24.000000pt"
   height="24.000000pt"
   id="svg548"
   sodipodi:version="0.32"
   sodipodi:docname="gtk-sort-descending.svg"
   sodipodi:docbase="/home/zeus/.icons/gartoon/scalable/stock"
   xmlns="http://www.w3.org/2000/svg"
   xmlns:sodipodi="http://sodipodi.sourceforge.net/DTD/sodipodi-0.dtd"
   xmlns:xlink="http://www.w3.org/1999/xlink"
   xmlns:inkscape="http://www.inkscape.org/namespaces/inkscape"
   inkscape:version="0.40"
   xmlns:rdf="http://www.w3.org/1999/02/22-rdf-syntax-ns#"
   xmlns:cc="http://web.resource.org/cc/"
   xmlns:dc="http://purl.org/dc/elements/1.1/">
  <metadata
     id="metadata22">
    <rdf:RDF
       id="RDF23">
      <cc:Work
         rdf:about=""
         id="Work24">
        <dc:format
           id="format25">image/svg+xml</dc:format>
        <dc:type
           id="type27"
           rdf:resource="http://purl.org/dc/dcmitype/StillImage" />
      </cc:Work>
    </rdf:RDF>
  </metadata>
  <sodipodi:namedview
     id="base"
     inkscape:zoom="7.5625000"
     inkscape:cx="24.264463"
     inkscape:cy="3.1074380"
     inkscape:window-width="880"
     inkscape:window-height="536"
     inkscape:window-x="39"
     inkscape:window-y="99"
     inkscape:current-layer="svg548" />
  <defs
     id="defs550">
    <linearGradient
       x1="0"
       y1="0"
       x2="1"
       y2="0"
       id="linearGradient556"
       gradientUnits="objectBoundingBox"
       spreadMethod="pad">
      <stop
         style="stop-color:#ff8700;stop-opacity:1;"
         offset="0"
         id="stop557" />
      <stop
         style="stop-color:#ffff8d;stop-opacity:0;"
         offset="1"
         id="stop558" />
    </linearGradient>
    <linearGradient
       x1="0"
       y1="0"
       x2="1"
       y2="0"
       id="linearGradient559"
       xlink:href="#linearGradient556"
       gradientUnits="objectBoundingBox"
       spreadMethod="pad" />
  </defs>
  <path
     d="M 9.5577861,28.771359 C 10.911965,28.232127 15.989373,25.263123 17.179528,20.165654 C 15.569358,18.384842 12.752339,18.916842 12.356261,17.486554 C 12.105967,16.011541 12.625029,3.9446073 11.769636,2.8891223 C 9.9125430,1.3713413 6.7148427,0.99580435 5.9682123,4.6131063 C 5.6832199,8.9812663 6.8419156,17.396338 5.8483984,17.997347 C 4.8548798,18.598351 2.0024340,20.136929 2.1117127,21.257233 C 2.2209913,22.377537 8.1511596,29.742084 9.5577861,28.771359 z "
     style="font-size:12.000000;fill:#0d3c07;fill-rule:evenodd"
     id="path582"
     sodipodi:nodetypes="cccccccc" />
  <path
     d="M 9.4638985,27.846301 C 10.484884,27.533768 15.447164,22.951894 14.970284,21.340826 C 14.493366,19.729692 11.823486,20.226576 11.594671,19.033744 C 11.365821,17.840845 11.427337,4.3267683 10.634753,4.1850443 C 9.8421832,4.0432003 7.1483616,3.4401133 7.0709405,4.8913983 C 6.9935100,6.3428023 7.8850027,19.784740 7.1411768,20.177166 C 6.3973461,20.569592 4.3694601,20.329911 4.4815156,21.229041 C 4.5935717,22.128165 8.4138405,28.497061 9.4638985,27.846301 z "
     style="font-size:12.000000;fill:#2aaf18;fill-rule:evenodd"
     id="path581" />
  <path
     d="M 10.265213,4.0785213 C 10.265213,4.0785213 11.033418,3.9531713 11.126212,5.6270073 C 11.219020,7.3007273 11.380809,19.594925 11.696889,19.772720 C 12.635280,19.869855 14.922910,20.268895 14.782209,21.355277 C 14.568776,23.287451 10.178638,26.871899 9.5952080,27.050507 C 9.0117780,27.229005 14.059615,21.554959 10.966514,20.647579 C 10.358292,18.911906 10.319914,17.024601 10.251461,15.617888 C 10.183032,14.211243 9.1372770,4.5335273 9.5359369,4.3016543 C 9.9345682,4.0698313 10.474362,4.3988573 10.265213,4.0785213 z "
     style="font-size:12.000000;fill:#208c11;fill-rule:evenodd"
     id="path583" />
  <path
     d="M 7.8651125,4.8313843 C 7.8651125,4.8313843 7.5857463,15.239789 7.9262334,15.684720 C 8.2666920,16.129584 9.0764128,7.2610093 7.8651125,4.8313843 z "
     style="font-size:12.000000;fill:#ffffff;fill-rule:evenodd"
     id="path588" />
  <path
     d="M 8.3676693,21.066676 C 6.1588933,21.250743 5.4667239,22.307814 5.3157234,21.310713 C 5.1647542,20.313673 6.5735191,21.333822 7.4938415,20.137400 C 8.8743297,21.425855 8.6179730,19.680729 8.3676693,21.066676 z "
     style="font-size:12.000000;fill:#ffffff;fill-rule:evenodd"
     id="path589" />
  <path
     style="font-size:12.000000;fill:none;fill-rule:evenodd;stroke:#000000;stroke-width:1.9114957;stroke-linecap:round"
     d="M 21.088435,2.5426733 C 20.307976,4.6075153 18.938334,6.8456023 17.945013,8.8786063 C 17.560856,9.6648463 17.191230,10.471253 16.738995,11.227856"
     id="path677" />
  <path
     style="font-size:12.000000;fill:none;fill-rule:evenodd;stroke:#000000;stroke-width:2.0328608;stroke-linecap:round"
     d="M 21.272496,2.6347063 C 22.341489,5.6620903 24.021333,8.6683773 25.618441,11.468388"
     id="path678" />
  <path
     style="fill:none;fill-opacity:1.0000000;fill-rule:evenodd;stroke:#000000;stroke-width:1.6048154;stroke-linecap:round;stroke-linejoin:miter;stroke-opacity:1.0000000"
     d="M 19.063719,8.0646203 C 20.265352,8.4651293 22.044862,8.5065933 23.303522,8.5261123"
     id="path679" />
  <path
     style="fill:none;fill-opacity:1.0000000;fill-rule:evenodd;stroke:#000000;stroke-width:1.6048154;stroke-linecap:round;stroke-linejoin:miter;stroke-opacity:1.0000000"
     d="M 19.615913,21.225256 C 21.256258,21.225256 22.899351,21.396308 24.535335,21.504099"
     id="path680" />
  <path
     style="fill:none;fill-opacity:1.0000000;fill-rule:evenodd;stroke:#000000;stroke-width:1.6048154;stroke-linecap:round;stroke-linejoin:miter;stroke-opacity:1.0000000"
     d="M 24.493634,21.501351 C 23.828808,22.830913 20.894088,24.982797 19.687985,26.156342 C 19.396027,26.440421 19.218437,26.801987 18.929062,27.081605"
     id="path681" />
  <path
     style="fill:none;fill-opacity:1.0000000;fill-rule:evenodd;stroke:#000000;stroke-width:1.6048154;stroke-linecap:round;stroke-linejoin:miter;stroke-opacity:1.0000000"
     d="M 18.879657,27.207361 C 20.158683,26.567840 23.100426,27.238097 24.574250,27.295866"
     id="path682" />
  <path
     style="font-size:12.000000;fill:none;fill-rule:evenodd;stroke:#000000;stroke-width:1.4159440;stroke-linecap:round"
     d="M 22.008762,11.469814 C 22.008762,11.793226 22.008762,12.116633 22.008762,12.440040"
     id="path683" />
  <path
     style="font-size:12.000000;fill:none;fill-rule:evenodd;stroke:#000000;stroke-width:1.2993579;stroke-linecap:round"
     d="M 22.008757,14.782985 C 22.008757,15.191683 22.008757,15.600381 22.008757,16.009078"
     id="path684" />
  <path
     style="font-size:12.000000;fill:none;fill-rule:evenodd;stroke:#000000;stroke-width:1.2718977;stroke-linecap:round"
     d="M 22.008757,18.004118 C 22.008757,18.418669 22.008757,18.833225 22.008757,19.247776"
     id="path685" />
</svg>
