<?xml version="1.0" encoding="UTF-8" standalone="no"?>
<!DOCTYPE svg PUBLIC "-//W3C//DTD SVG 20010904//EN"
"http://www.w3.org/TR/2001/REC-SVG-20010904/DTD/svg10.dtd">
<!-- Created with Sodipodi ("http://www.sodipodi.com/") -->
<svg
   version="1.0"
   x="0"
   y="0"
   width="24.000000pt"
   height="24.000000pt"
   id="svg704"
   sodipodi:version="0.32"
   sodipodi:docname="stock_screenshot.svg"
   sodipodi:docbase="/home/zeus/.icons/gartoon/scalable/stock-gar"
   inkscape:version="0.40"
   xmlns="http://www.w3.org/2000/svg"
   xmlns:inkscape="http://www.inkscape.org/namespaces/inkscape"
   xmlns:sodipodi="http://sodipodi.sourceforge.net/DTD/sodipodi-0.dtd"
   xmlns:xlink="http://www.w3.org/1999/xlink"
   xmlns:rdf="http://www.w3.org/1999/02/22-rdf-syntax-ns#"
   xmlns:cc="http://web.resource.org/cc/"
   xmlns:dc="http://purl.org/dc/elements/1.1/">
  <metadata
     id="metadata35">
    <rdf:RDF
       id="RDF36">
      <cc:Work
         rdf:about=""
         id="Work37">
        <dc:format
           id="format38">image/svg+xml</dc:format>
        <dc:type
           id="type40"
           rdf:resource="http://purl.org/dc/dcmitype/StillImage" />
      </cc:Work>
    </rdf:RDF>
  </metadata>
  <sodipodi:namedview
     id="base"
     inkscape:zoom="3.5649967"
     inkscape:cx="17.752070"
     inkscape:cy="-1.6859501"
     inkscape:window-width="1014"
     inkscape:window-height="695"
     inkscape:window-x="0"
     inkscape:window-y="25"
     inkscape:current-layer="svg704" />
  <defs
     id="defs706">
    <linearGradient
       id="linearGradient633">
      <stop
         style="stop-color:#2ec2ff;stop-opacity:0.9294;"
         offset="0"
         id="stop634" />
      <stop
         style="stop-color:#ede29d;stop-opacity:1;"
         offset="1"
         id="stop635" />
    </linearGradient>
    <linearGradient
       id="linearGradient734">
      <stop
         style="stop-color:#2a2535;stop-opacity:1;"
         offset="0"
         id="stop735" />
      <stop
         style="stop-color:#e3e1cf;stop-opacity:1;"
         offset="1"
         id="stop736" />
    </linearGradient>
    <linearGradient
       id="linearGradient724">
      <stop
         style="stop-color:#ffffff;stop-opacity:0.4902;"
         offset="0"
         id="stop725" />
      <stop
         style="stop-color:#ffffff;stop-opacity:0.1765;"
         offset="1"
         id="stop726" />
    </linearGradient>
    <linearGradient
       id="linearGradient718">
      <stop
         style="stop-color:#e3e1cf;stop-opacity:1;"
         offset="0"
         id="stop719" />
      <stop
         style="stop-color:#ffffff;stop-opacity:1;"
         offset="1"
         id="stop720" />
    </linearGradient>
    <linearGradient
       x1="45.4330635"
       y1="41.9262352"
       x2="24.0375099"
       y2="27.2048512"
       id="linearGradient721"
       xlink:href="#linearGradient718"
       gradientUnits="userSpaceOnUse"
       gradientTransform="matrix(0.325935,0.000000,0.000000,0.304853,0.657610,2.451707)"
       spreadMethod="pad" />
    <linearGradient
       x1="40.2607956"
       y1="39.8445053"
       x2="37.3197212"
       y2="68.6665039"
       id="linearGradient723"
       xlink:href="#linearGradient724"
       gradientUnits="userSpaceOnUse"
       gradientTransform="matrix(0.373680,0.000000,0.000000,0.265902,0.657610,2.451707)"
       spreadMethod="pad" />
    <linearGradient
       id="linearGradient732"
       xlink:href="#linearGradient633"
       x1="40.102423"
       y1="20.578099"
       x2="33.246366"
       y2="77.997576"
       gradientTransform="matrix(0.322201,0.000000,0.000000,0.308387,0.657610,2.451707)"
       gradientUnits="userSpaceOnUse" />
    <radialGradient
       cx="33.2134209"
       cy="118.190964"
       r="14.8945398"
       fx="33.2134209"
       fy="118.190964"
       id="radialGradient733"
       xlink:href="#linearGradient734"
       gradientUnits="userSpaceOnUse"
       gradientTransform="scale(1.559286,0.641319)"
       spreadMethod="pad" />
    <radialGradient
       id="radialGradient738"
       xlink:href="#linearGradient734" />
  </defs>
  <path
     d="M 4.6123008,23.282948 C 3.9797118,22.379886 0.91133486,14.962137 3.5418257,4.2084319 C 14.359943,1.9887045 23.735473,6.1261687 28.602840,9.2375284 C 29.596083,11.298405 27.900131,26.780655 24.267851,28.297701 C 21.832017,29.092010 9.0860708,28.873047 4.6123008,23.282948 z "
     style="font-size:12.000000;fill-opacity:0.29999998;fill-rule:evenodd;stroke-width:1.0000000"
     id="path743" />
  <path
     d="M 3.0799140,23.359571 C 2.4473256,22.456509 -0.62105292,15.038764 2.0094379,4.2850557 C 12.827555,2.0653284 22.203085,6.2027919 27.070452,9.3141548 C 28.063695,11.375031 26.367746,26.857278 22.735463,28.374325 C 20.299628,29.168633 7.5536824,28.949673 3.0799140,23.359571 z "
     style="font-size:12.000000;fill:#211301;fill-rule:evenodd;stroke-width:1.0000000"
     id="path715" />
  <path
     d="M 4.5366737,22.766851 C 4.0214246,21.787957 1.1362281,16.275124 3.0940670,5.6616760 C 14.171206,3.6523308 21.538785,7.9286170 26.124227,10.504699 C 26.639442,12.359511 24.939212,26.270323 22.157044,27.094669 C 19.787049,27.867511 7.9370695,27.403800 4.5366737,22.766851 z "
     style="font-size:12.000000;fill:url(#linearGradient721);fill-rule:evenodd;stroke-width:1.0000000"
     id="path713" />
  <path
     d="M 5.7216540,9.0105903 L 4.9870856,8.4601849 C 4.8840440,9.2330271 3.5062401,16.326663 4.7427601,19.108831 C 6.1853681,21.709887 7.7529033,22.802039 7.5983551,22.544414 C 5.8465875,19.607698 4.3820908,14.317302 5.7216540,9.0105903 z "
     style="font-size:12.000000;fill:#b5a794;fill-rule:evenodd;stroke-width:1.0000000"
     id="path717"
     sodipodi:nodetypes="ccccc" />
  <path
     d="M 5.6460805,8.8862715 C 5.6460805,8.8862715 3.5627795,16.471713 6.2336973,21.065657 C 8.2635975,23.896848 14.834037,26.140418 20.229309,24.537869 C 21.244277,23.255827 23.541214,16.311441 21.404515,12.465320 C 20.603221,11.129842 10.934516,7.0166439 5.6460805,8.8862715 z "
     style="font-size:12.000000;fill:url(#linearGradient732);fill-rule:evenodd;stroke-width:1.0000000"
     id="path711" />
  <path
     d="M 5.2579777,16.532749 C 5.2579777,16.532749 9.5342572,10.710788 13.604450,14.420344 C 15.253176,19.933145 21.281192,21.221201 21.281192,21.221201 L 20.096212,24.157952 C 15.613811,25.755140 7.0097137,22.457723 6.5975409,21.221201 C 6.1853681,19.984683 6.4944961,21.890999 5.2579777,16.532749 z "
     style="font-size:12.000000;fill:url(#linearGradient723);fill-rule:evenodd;stroke-width:1.0000000"
     id="path722" />
  <path
     d="M 26.227269,10.607743 C 26.227269,10.607743 24.527071,10.659282 24.475567,10.659282 C 24.423995,10.659282 24.733157,15.038606 24.527071,16.635794 C 24.320985,18.232947 23.805770,21.994043 23.496639,22.972937 C 23.187508,23.951866 21.384234,27.094669 21.229685,27.300755 C 21.075106,27.506841 21.641861,27.249217 22.517710,26.991627 C 24.887706,24.260962 26.072721,17.717764 26.227269,10.607743 z "
     style="font-size:12.000000;fill:#b5a794;fill-rule:evenodd;stroke-width:1.0000000"
     id="path716" />
  <path
     d="M 21.126644,27.197713 C 21.126644,27.197713 25.145330,24.054907 24.114898,10.865368 C 23.239014,9.9894842 21.899451,9.0105903 21.899451,9.0105903 C 21.899451,9.0105903 24.475533,10.247109 24.630116,10.659282 C 24.887706,11.226003 25.042254,24.879256 21.126644,27.197713 z "
     style="font-size:12.000000;fill:#211301;fill-rule:evenodd;stroke-width:1.0000000"
     id="path712" />
  <path
     d="M 13.508221,28.184645 C 12.166561,26.484183 15.335524,28.017198 10.651699,22.788245 C 9.1953884,20.310492 7.6480618,18.080520 9.8325197,17.089411 C 12.108003,16.593863 12.108003,20.558269 13.018198,20.723453 C 13.837371,19.567167 12.472077,14.694252 12.563102,13.868340 C 12.745141,12.794647 14.383483,11.886135 15.202659,13.042425 C 16.203871,14.116117 16.511029,17.454945 16.511029,17.454945 C 16.511029,17.454945 16.658967,13.372792 17.387121,12.464280 C 18.297316,11.803548 19.662604,11.720952 19.844646,13.125015 C 20.026684,14.529072 20.242813,15.390150 19.696698,16.794210 C 20.606890,15.555333 20.754835,13.455382 22.848283,14.363888 C 24.395600,14.859439 23.405667,16.956944 22.677504,18.278408 C 23.769731,17.617679 23.633355,17.209623 24.759686,16.836733 C 26.489054,15.928227 27.353587,18.781319 25.624222,20.846111 C 24.167908,22.580538 19.904033,28.427521 18.515916,29.343384 C 16.877571,29.508567 14.078541,29.510396 13.508221,28.184645 z "
     style="font-size:12.000000;fill:#000001;fill-opacity:1.0000000;fill-rule:evenodd;stroke-width:1.0000000"
     id="path647"
     sodipodi:nodetypes="cccccccccccccccc" />
  <path
     d="M 14.140576,25.758614 C 13.386477,25.352912 12.580455,24.612869 11.644387,23.114294 C 10.396290,20.973478 8.3420269,19.129332 10.214173,18.272998 C 12.164329,17.844831 11.254134,20.361636 13.217441,21.825827 C 14.556639,20.000866 13.022463,15.377620 13.100473,14.664017 C 13.256487,13.736324 14.387534,13.033955 15.089591,14.033007 C 15.765620,16.034383 16.467752,20.037838 16.467752,20.037838 C 17.013874,20.203022 17.156863,13.988082 17.780913,13.203110 C 18.560977,12.632225 19.366989,12.726047 19.523003,13.939179 C 19.679011,15.152308 19.028868,18.336411 19.197963,19.632134 C 19.978027,18.561722 20.758160,14.224625 22.552306,15.009584 C 23.878403,15.437754 22.071179,18.915246 21.447126,20.057016 C 22.383194,19.486131 23.787456,18.205617 24.645520,17.991534 C 26.127635,17.206572 26.348647,18.686653 23.865315,21.626947 C 22.617222,23.125525 20.537079,26.400858 19.132971,26.543576 C 17.728861,26.686300 14.296587,26.400858 14.140576,25.758614 z "
     style="font-size:12.000000;fill:#ffffff;fill-rule:evenodd;stroke-width:1.0000000"
     id="path648" />
  <path
     d="M 15.930813,20.806043 C 16.021829,21.301591 15.111640,22.457877 15.475714,22.540468 C 15.839794,22.623061 16.749989,22.044916 15.930813,20.806043 z "
     style="font-size:12.000000;fill:#5fa2c7;fill-rule:evenodd;stroke-width:1.0000000"
     id="path649" />
  <path
     d="M 18.388335,20.971230 C 18.479351,21.466778 17.569162,22.623061 17.933236,22.705654 C 18.297316,22.788245 19.207508,22.210103 18.388335,20.971230 z "
     style="font-size:12.000000;fill:#5fa2c7;fill-rule:evenodd;stroke-width:1.0000000"
     id="path650" />
  <path
     d="M 20.481777,21.384188 C 20.572793,21.879736 19.662604,23.036016 20.026678,23.118612 C 20.390758,23.201202 21.300950,22.623061 20.481777,21.384188 z "
     style="font-size:12.000000;fill:#5fa2c7;fill-rule:evenodd;stroke-width:1.0000000"
     id="path651" />
  <path
     d="M 14.432336,26.356248 C 14.432336,26.356248 13.558703,27.132813 14.335268,27.521096 C 15.111829,27.909375 17.732726,28.880076 18.606356,27.909375 C 19.479986,26.938673 20.062404,26.550394 19.479986,26.356255 C 18.315145,27.715232 14.529410,26.550388 14.432336,26.356248 z "
     style="font-size:12.000000;fill:#ffffff;fill-rule:evenodd;stroke-width:1.0000000"
     id="path652" />
</svg>
