<?xml version="1.0" encoding="UTF-8" standalone="no"?>
<!-- Created with Sodipodi ("http://www.sodipodi.com/") -->
<svg
   xmlns:dc="http://purl.org/dc/elements/1.1/"
   xmlns:cc="http://web.resource.org/cc/"
   xmlns:rdf="http://www.w3.org/1999/02/22-rdf-syntax-ns#"
   xmlns:svg="http://www.w3.org/2000/svg"
   xmlns="http://www.w3.org/2000/svg"
   xmlns:xlink="http://www.w3.org/1999/xlink"
   xmlns:sodipodi="http://sodipodi.sourceforge.net/DTD/sodipodi-0.dtd"
   xmlns:inkscape="http://www.inkscape.org/namespaces/inkscape"
   version="1"
   x="0.00000000"
   y="0.00000000"
   width="90.0000000"
   height="90.0000000"
   id="svg548"
   sodipodi:version="0.32"
   sodipodi:docname="history-view.svg"
   sodipodi:docbase="/home/tweenk/dev/GartoonRedux/scalable/actions"
   inkscape:version="0.45.1"
   inkscape:output_extension="org.inkscape.output.svg.inkscape">
  <metadata
     id="metadata41">
    <rdf:RDF>
      <cc:Work
         rdf:about="">
        <dc:format>image/svg+xml</dc:format>
        <dc:type
           rdf:resource="http://purl.org/dc/dcmitype/StillImage" />
      </cc:Work>
    </rdf:RDF>
  </metadata>
  <sodipodi:namedview
     id="base"
     inkscape:zoom="4.5222222"
     inkscape:cx="50.857575"
     inkscape:cy="45.142775"
     inkscape:window-width="795"
     inkscape:window-height="619"
     inkscape:window-x="152"
     inkscape:window-y="98"
     inkscape:current-layer="svg548" />
  <defs
     id="defs550">
    <linearGradient
       inkscape:collect="always"
       id="linearGradient3180">
      <stop
         style="stop-color:#a9e2f5;stop-opacity:0.73394495"
         offset="0"
         id="stop3182" />
      <stop
         style="stop-color:#a9e2f5;stop-opacity:0;"
         offset="1"
         id="stop3184" />
    </linearGradient>
    <linearGradient
       id="linearGradient2197">
      <stop
         id="stop2199"
         offset="0"
         style="stop-color:#cbff87;stop-opacity:1" />
      <stop
         id="stop2201"
         offset="1"
         style="stop-color:#ffe6ba;stop-opacity:1" />
    </linearGradient>
    <linearGradient
       id="linearGradient2191">
      <stop
         id="stop2193"
         offset="0"
         style="stop-color:#f1e36c;stop-opacity:1" />
      <stop
         id="stop2195"
         offset="1"
         style="stop-color:#ffe6ba;stop-opacity:1" />
    </linearGradient>
    <linearGradient
       id="linearGradient2185">
      <stop
         id="stop2187"
         offset="0"
         style="stop-color:#cbff87;stop-opacity:1" />
      <stop
         id="stop2189"
         offset="1"
         style="stop-color:#ffe6ba;stop-opacity:1" />
    </linearGradient>
    <linearGradient
       id="linearGradient17887">
      <stop
         style="stop-color:#558ada;stop-opacity:0.79607844"
         offset="0"
         id="stop17889" />
      <stop
         style="stop-color:#ffffff;stop-opacity:0.1122449"
         offset="1"
         id="stop17891" />
    </linearGradient>
    <linearGradient
       id="linearGradient11952">
      <stop
         style="stop-color:#cbff87;stop-opacity:1"
         offset="0"
         id="stop11954" />
      <stop
         style="stop-color:#ffe6ba;stop-opacity:1"
         offset="1"
         id="stop11956" />
    </linearGradient>
    <linearGradient
       inkscape:collect="always"
       xlink:href="#linearGradient2197"
       id="linearGradient12961"
       x1="35.269405"
       y1="81.979561"
       x2="35.250793"
       y2="68.577507"
       gradientUnits="userSpaceOnUse"
       gradientTransform="matrix(1.152011,0,0,1.152011,-1.4676125,-9.1059077)" />
    <linearGradient
       inkscape:collect="always"
       xlink:href="#linearGradient2185"
       id="linearGradient16902"
       gradientUnits="userSpaceOnUse"
       x1="41.354321"
       y1="29.327749"
       x2="41.354321"
       y2="12.812184"
       gradientTransform="matrix(1.152011,0,0,1.152011,-1.4676125,-9.1059077)" />
    <linearGradient
       inkscape:collect="always"
       xlink:href="#linearGradient11952"
       id="linearGradient16910"
       gradientUnits="userSpaceOnUse"
       x1="40.545868"
       y1="52.395794"
       x2="40.545868"
       y2="44.416973"
       gradientTransform="matrix(1.152011,0,0,1.152011,-1.4676125,-9.1059078)" />
    <linearGradient
       inkscape:collect="always"
       xlink:href="#linearGradient3180"
       id="linearGradient3186"
       x1="68.393204"
       y1="53.732754"
       x2="24.504692"
       y2="49.973541"
       gradientUnits="userSpaceOnUse"
       gradientTransform="matrix(0.9786376,0,0,0.9786376,-0.590753,-0.192071)" />
  </defs>
  <path
     transform="matrix(1.152011,0,0,1.152011,2.4277018,-6.7254378)"
     d="M 40.21875,8.90625 C 28.6409,9.0362424 20.5725,10.395224 15.78125,13.375 C 15.467201,13.573172 15.18308,13.815201 14.9375,14.09375 C 14.927024,14.104108 14.916608,14.114524 14.90625,14.125 C 14.590099,14.332736 14.305869,14.585384 14.0625,14.875 C 12.613407,16.699717 12.144753,19.167881 12.625,21.34375 C 13.078889,23.400195 14.340674,25.193601 16.03125,26.59375 L 16.5,67.0625 C 16.414165,67.120582 16.140121,67.283661 16.09375,67.3125 C 13.301358,69.049147 12.520404,72.085039 12.84375,74.75 C 13.167096,77.414961 14.968983,80.328145 18.125,81.40625 C 22.568473,82.924155 29.498099,83.555067 40.65625,83.28125 C 53.23497,82.97257 61.121689,81.889052 65.875,79.90625 C 68.77271,78.697494 69.952803,76.173637 70.40625,74 C 70.632974,72.913181 70.695007,71.833943 70.5,70.6875 C 70.304993,69.541057 69.886123,68.145006 68.4375,67 C 67.740782,66.449308 66.807037,65.97601 65.75,65.53125 L 65.9375,25.6875 C 68.019081,24.638704 69.21872,22.851194 69.78125,21.1875 C 70.384386,19.403713 70.557988,17.690461 69.90625,15.71875 C 69.695526,15.070274 69.318394,14.488412 68.8125,14.03125 C 68.556512,13.558205 68.2054,13.143254 67.78125,12.8125 C 65.203882,10.775322 62.270814,10.303171 57.8125,9.71875 C 53.354186,9.1343292 47.536294,8.8240908 40.21875,8.90625 z M 54.03125,42.53125 L 54.03125,51.78125 C 53.978961,51.741289 53.926832,51.664092 53.875,51.625 C 52.439107,50.54203 51.836533,49.957556 50.96875,49.25 C 51.098071,48.594409 51.298149,47.913374 51.28125,47.3125 C 51.264055,46.701111 51.099597,46.112459 50.96875,45.53125 C 51.857181,44.651615 52.835328,43.65775 54.03125,42.53125 z M 28,44.125 C 28.898229,44.803595 29.526031,45.363619 30.21875,45.875 C 30.107565,46.54074 29.936503,47.206803 29.9375,47.84375 C 29.938731,48.63009 30.169282,49.436475 30.40625,50.25 C 29.719094,50.82493 28.958442,51.606597 28.0625,52.375 L 28,44.125 z "
     id="path2465"
     style="fill:#000000;fill-opacity:0.29411765;fill-rule:evenodd;stroke:none;stroke-width:1px;stroke-linecap:butt;stroke-linejoin:miter;stroke-opacity:1"
     inkscape:original="M 40.25 12.8125 C 29.0639 12.938094 21.015093 14.715177 17.84375 16.6875 C 18.700453 17.659781 23.355226 19.674746 40.125 20 C 22.495735 20.242314 18.700812 18.358722 17.125 17.3125 C 15.67982 19.13229 16.179106 21.863339 18.65625 23.78125 C 22.088749 24.953803 29.310033 25.705966 40.25 25.4375 C 47.445271 25.260929 53.061491 24.746826 57.25 24.0625 C 55.163376 24.483257 52.836742 24.875732 50.25 25.21875 C 48.66003 25.42959 46.993199 25.617101 45.3125 25.78125 C 42.791451 26.027473 40.202371 26.208422 37.6875 26.3125 C 36.84921 26.347193 36.037659 26.390648 35.21875 26.40625 C 30.888533 26.488749 26.904108 26.283699 23.9375 25.6875 L 23.9375 25.65625 C 23.881338 25.657566 23.808996 25.656939 23.75 25.65625 C 23.419633 25.586876 23.083969 25.517352 22.78125 25.4375 C 22.780932 25.480672 22.781378 25.519569 22.78125 25.5625 C 21.735911 25.433996 20.579751 25.187215 19.90625 25.09375 L 20.46875 71.21875 C 21.164986 72.667434 23.403731 72.492884 24.3125 71.3125 L 24 33 C 26.467092 39.486499 32.05777 41.497256 35.0625 44.78125 C 33.43323 45.86035 33.386297 49.896277 35.125 50.6875 C 35.208265 50.734675 35.290524 50.767965 35.375 50.8125 C 31.86575 55.720104 24.426921 56.561537 24.3125 69.3125 C 24.810044 73.541615 41.939381 73.805129 51.8125 72.3125 C 52.63526 72.188114 53.385199 72.053526 54.09375 71.90625 C 55.823954 71.546617 57.1714 71.125782 57.9375 70.65625 L 57.9375 71.09375 C 58.956834 71.721308 61.116262 72.104935 61.8125 70.65625 L 62.03125 23.21875 C 61.742826 23.258776 61.270294 23.298969 60.84375 23.34375 C 62.125052 23.032256 63.232035 22.721421 64.0625 22.375 C 66.053433 21.544499 66.750006 18.544716 66.21875 16.9375 C 63.646456 18.27382 56.09655 19.543572 47.21875 19.6875 C 56.239962 18.751381 64.020732 17.933219 65.375 15.875 C 62.972173 13.975781 54.628804 12.651059 40.25 12.8125 z M 57.9375 29.46875 L 57.9375 64.875 C 57.772772 64.000613 57.555259 63.20754 57.3125 62.46875 C 57.199578 62.125093 57.096423 61.78595 56.96875 61.46875 C 54.347272 54.955766 48.753461 53.823696 46.0625 50.15625 C 46.094153 50.134798 46.124831 50.115576 46.15625 50.09375 C 48.002833 49.36599 47.522919 45.454806 46.375 44.71875 C 46.325102 44.750378 46.269273 44.78178 46.21875 44.8125 C 49.508839 40.375841 55.745859 37.34055 57.9375 29.46875 z M 62.78125 68.5625 C 62.72735 69.496183 62.72076 70.470668 62.6875 71.4375 C 62.205222 72.361297 59.484133 73.147825 57.3125 72.03125 C 53.675424 73.499482 45.408404 74.068837 40.40625 74.125 C 34.605002 74.190134 28.192844 73.591802 25.125 71.75 C 24.877002 71.852439 24.896818 72.160622 24.65625 72.25 C 23.357257 73.339193 21.036498 73.557416 19.6875 71.96875 C 19.62652 71.439613 19.726238 70.821651 19.65625 69.75 C 19.125857 69.981957 18.543842 70.383952 18.15625 70.625 C 15.915308 72.018689 16.113689 76.604676 19.375 77.71875 C 22.807499 78.891303 29.622533 79.643463 40.5625 79.375 C 52.918364 79.071789 60.764413 77.818625 64.375 76.3125 C 66.795511 75.302804 67.323243 71.083704 66.03125 70.0625 C 65.363043 69.534343 64.407019 69.007556 62.78125 68.5625 z "
     inkscape:radius="3.8977988"
     sodipodi:type="inkscape:offset" />
  <path
     sodipodi:type="inkscape:offset"
     inkscape:radius="3.8977988"
     inkscape:original="M 40.25 12.8125 C 29.0639 12.938094 21.015093 14.715177 17.84375 16.6875 C 18.700453 17.659781 23.355226 19.674746 40.125 20 C 22.495735 20.242314 18.700812 18.358722 17.125 17.3125 C 15.67982 19.13229 16.179106 21.863339 18.65625 23.78125 C 22.088749 24.953803 29.310033 25.705966 40.25 25.4375 C 47.445271 25.260929 53.061491 24.746826 57.25 24.0625 C 55.163376 24.483257 52.836742 24.875732 50.25 25.21875 C 48.66003 25.42959 46.993199 25.617101 45.3125 25.78125 C 42.791451 26.027473 40.202371 26.208422 37.6875 26.3125 C 36.84921 26.347193 36.037659 26.390648 35.21875 26.40625 C 30.888533 26.488749 26.904108 26.283699 23.9375 25.6875 L 23.9375 25.65625 C 23.881338 25.657566 23.808996 25.656939 23.75 25.65625 C 23.419633 25.586876 23.083969 25.517352 22.78125 25.4375 C 22.780932 25.480672 22.781378 25.519569 22.78125 25.5625 C 21.735911 25.433996 20.579751 25.187215 19.90625 25.09375 L 20.46875 71.21875 C 21.164986 72.667434 23.403731 72.492884 24.3125 71.3125 L 24 33 C 26.467092 39.486499 32.05777 41.497256 35.0625 44.78125 C 33.43323 45.86035 33.386297 49.896277 35.125 50.6875 C 35.208265 50.734675 35.290524 50.767965 35.375 50.8125 C 31.86575 55.720104 24.426921 56.561537 24.3125 69.3125 C 24.810044 73.541615 41.939381 73.805129 51.8125 72.3125 C 52.63526 72.188114 53.385199 72.053526 54.09375 71.90625 C 55.823954 71.546617 57.1714 71.125782 57.9375 70.65625 L 57.9375 71.09375 C 58.956834 71.721308 61.116262 72.104935 61.8125 70.65625 L 62.03125 23.21875 C 61.742826 23.258776 61.270294 23.298969 60.84375 23.34375 C 62.125052 23.032256 63.232035 22.721421 64.0625 22.375 C 66.053433 21.544499 66.750006 18.544716 66.21875 16.9375 C 63.646456 18.27382 56.09655 19.543572 47.21875 19.6875 C 56.239962 18.751381 64.020732 17.933219 65.375 15.875 C 62.972173 13.975781 54.628804 12.651059 40.25 12.8125 z M 57.9375 29.46875 L 57.9375 64.875 C 57.772772 64.000613 57.555259 63.20754 57.3125 62.46875 C 57.199578 62.125093 57.096423 61.78595 56.96875 61.46875 C 54.347272 54.955766 48.753461 53.823696 46.0625 50.15625 C 46.094153 50.134798 46.124831 50.115576 46.15625 50.09375 C 48.002833 49.36599 47.522919 45.454806 46.375 44.71875 C 46.325102 44.750378 46.269273 44.78178 46.21875 44.8125 C 49.508839 40.375841 55.745859 37.34055 57.9375 29.46875 z M 62.78125 68.5625 C 62.72735 69.496183 62.72076 70.470668 62.6875 71.4375 C 62.205222 72.361297 59.484133 73.147825 57.3125 72.03125 C 53.675424 73.499482 45.408404 74.068837 40.40625 74.125 C 34.605002 74.190134 28.192844 73.591802 25.125 71.75 C 24.877002 71.852439 24.896818 72.160622 24.65625 72.25 C 23.357257 73.339193 21.036498 73.557416 19.6875 71.96875 C 19.62652 71.439613 19.726238 70.821651 19.65625 69.75 C 19.125857 69.981957 18.543842 70.383952 18.15625 70.625 C 15.915308 72.018689 16.113689 76.604676 19.375 77.71875 C 22.807499 78.891303 29.622533 79.643463 40.5625 79.375 C 52.918364 79.071789 60.764413 77.818625 64.375 76.3125 C 66.795511 75.302804 67.323243 71.083704 66.03125 70.0625 C 65.363043 69.534343 64.407019 69.007556 62.78125 68.5625 z "
     style="fill:#283d53;fill-opacity:1;fill-rule:evenodd;stroke:none;stroke-width:1px;stroke-linecap:butt;stroke-linejoin:miter;stroke-opacity:1"
     id="path16898"
     d="M 40.21875,8.90625 C 28.6409,9.0362424 20.5725,10.395224 15.78125,13.375 C 15.467201,13.573172 15.18308,13.815201 14.9375,14.09375 C 14.927024,14.104108 14.916608,14.114524 14.90625,14.125 C 14.590099,14.332736 14.305869,14.585384 14.0625,14.875 C 12.613407,16.699717 12.144753,19.167881 12.625,21.34375 C 13.078889,23.400195 14.340674,25.193601 16.03125,26.59375 L 16.5,67.0625 C 16.414165,67.120582 16.140121,67.283661 16.09375,67.3125 C 13.301358,69.049147 12.520404,72.085039 12.84375,74.75 C 13.167096,77.414961 14.968983,80.328145 18.125,81.40625 C 22.568473,82.924155 29.498099,83.555067 40.65625,83.28125 C 53.23497,82.97257 61.121689,81.889052 65.875,79.90625 C 68.77271,78.697494 69.952803,76.173637 70.40625,74 C 70.632974,72.913181 70.695007,71.833943 70.5,70.6875 C 70.304993,69.541057 69.886123,68.145006 68.4375,67 C 67.740782,66.449308 66.807037,65.97601 65.75,65.53125 L 65.9375,25.6875 C 68.019081,24.638704 69.21872,22.851194 69.78125,21.1875 C 70.384386,19.403713 70.557988,17.690461 69.90625,15.71875 C 69.695526,15.070274 69.318394,14.488412 68.8125,14.03125 C 68.556512,13.558205 68.2054,13.143254 67.78125,12.8125 C 65.203882,10.775322 62.270814,10.303171 57.8125,9.71875 C 53.354186,9.1343292 47.536294,8.8240908 40.21875,8.90625 z M 54.03125,42.53125 L 54.03125,51.78125 C 53.978961,51.741289 53.926832,51.664092 53.875,51.625 C 52.439107,50.54203 51.836533,49.957556 50.96875,49.25 C 51.098071,48.594409 51.298149,47.913374 51.28125,47.3125 C 51.264055,46.701111 51.099597,46.112459 50.96875,45.53125 C 51.857181,44.651615 52.835328,43.65775 54.03125,42.53125 z M 28,44.125 C 28.898229,44.803595 29.526031,45.363619 30.21875,45.875 C 30.107565,46.54074 29.936503,47.206803 29.9375,47.84375 C 29.938731,48.63009 30.169282,49.436475 30.40625,50.25 C 29.719094,50.82493 28.958442,51.606597 28.0625,52.375 L 28,44.125 z "
     transform="matrix(1.152011,0,0,1.152011,-1.4676125,-9.1059077)" />
  <path
     sodipodi:nodetypes="ccccssssscccc"
     id="path5112"
     d="M 45.163441,76.581354 C 50.925976,76.516655 60.30593,75.870193 64.495881,74.178774 C 66.997625,75.465077 70.281354,74.330766 70.836945,73.266542 C 70.875259,72.15274 70.790688,70.971742 70.852781,69.896129 C 72.725683,70.408841 73.83109,70.986338 74.600872,71.594781 C 76.089261,72.77122 75.48959,77.629768 72.701136,78.792949 C 68.541697,80.528025 59.512081,81.976188 45.27799,82.32549 C 32.675029,82.634766 24.813593,81.779863 20.859317,80.429069 C 17.102253,79.145643 16.87234,73.848135 19.453929,72.242589 C 19.90044,71.964897 20.558427,71.531744 21.169447,71.264527 C 21.250074,72.499084 21.135637,73.197299 21.205886,73.80687 C 23.297054,75.939929 25.530916,75.371684 27.463956,73.860775 C 30.998148,75.982548 38.480339,76.65639 45.163441,76.581354 z "
     style="fill:url(#linearGradient12961);fill-opacity:1;fill-rule:evenodd;stroke:none;stroke-width:1px;stroke-linecap:butt;stroke-linejoin:miter;stroke-opacity:1" />
  <path
     style="fill:url(#linearGradient16902);fill-opacity:1;fill-rule:evenodd;stroke:none;stroke-width:1px;stroke-linecap:butt;stroke-linejoin:miter;stroke-opacity:1"
     d="M 44.895872,5.6692696 C 61.460414,5.4832882 70.172276,6.8478518 72.940359,9.0357731 C 71.38023,11.406864 63.319972,12.511139 52.927437,13.589559 C 63.154759,13.423752 71.850029,11.931497 74.813341,10.392043 C 75.425353,12.243571 74.612596,15.700416 72.31902,16.657161 C 68.159581,18.392237 59.129964,19.8404 44.895873,20.189702 C 32.292913,20.498979 23.981149,19.644075 20.026872,18.293281 C 17.173175,16.083826 16.596957,12.931562 18.26182,10.835144 C 20.077173,12.040403 24.431309,14.197751 44.740415,13.918602 C 25.421454,13.543905 20.823856,10.767814 19.836925,9.6477346 C 23.490346,7.3755979 32.009363,5.8139555 44.895872,5.6692696 z "
     id="path2195"
     sodipodi:nodetypes="ccccssccccs" />
  <path
     style="fill:#a9e2f5;fill-opacity:1;fill-rule:evenodd;stroke:none;stroke-width:1px;stroke-linecap:butt;stroke-linejoin:miter;stroke-opacity:1"
     d="M 27.182209,31.114526 C 31.28663,38.598089 39.34215,40.072666 40.947336,45.91889 C 38.971292,53.555224 30.596234,53.738996 27.613208,63.213186 L 27.757803,72.480362 C 33.450811,76.495821 57.474244,75.477871 64.291255,72.76461 L 64.256509,61.961322 C 60.641313,52.567515 51.750084,52.695993 50.118135,45.409402 C 52.60429,39.138223 60.52887,36.444577 64.230927,28.219721 L 64.108958,19.244948 C 53.716531,21.231138 36.695993,22.315027 27.171861,20.698745 L 27.182209,31.114526 z "
     id="path2203"
     sodipodi:nodetypes="ccccccccccc" />
  <path
     style="fill:#b01911;fill-opacity:1;fill-rule:evenodd;stroke:none;stroke-width:1px;stroke-linecap:butt;stroke-linejoin:miter;stroke-opacity:1"
     d="M 27.700626,71.520706 C 34.960841,75.851361 61.581634,74.195522 63.61959,71.265961 C 65.657544,68.3364 51.264485,56.618156 45.532735,56.618156 C 39.905246,56.618158 26.681648,67.954283 27.700626,71.520706 z "
     id="path8041"
     sodipodi:nodetypes="cssc" />
  <path
     sodipodi:nodetypes="cssc"
     id="path10958"
     d="M 33.543252,33.736823 C 38.220608,30.94682 55.370915,32.013586 56.683857,33.900939 C 57.996799,35.788295 48.724144,43.337712 45.031495,43.337712 C 41.406014,43.337711 32.88678,36.034471 33.543252,33.736823 z "
     style="fill:#b01911;fill-opacity:1;fill-rule:evenodd;stroke:none;stroke-width:1px;stroke-linecap:butt;stroke-linejoin:miter;stroke-opacity:1" />
  <path
     style="fill:#cbff87;fill-opacity:1;fill-rule:evenodd;stroke:none;stroke-width:1px;stroke-linecap:butt;stroke-linejoin:miter;stroke-opacity:1"
     d="M 21.459387,19.807585 L 22.096248,72.9218 C 22.898318,74.590703 25.507362,74.408987 26.554275,73.049172 L 26.108472,20.444445 C 24.722818,20.476924 22.544551,19.958179 21.459387,19.807585 z "
     id="path3168"
     sodipodi:nodetypes="ccccc" />
  <path
     sodipodi:nodetypes="ccccc"
     id="path5110"
     d="M 69.9882,18.033769 L 69.733454,72.284939 C 68.931383,73.953843 66.449711,73.517381 65.275427,72.794427 L 65.329529,18.925996 C 66.715182,18.958474 68.903035,18.184364 69.9882,18.033769 z "
     style="fill:#cbff87;fill-opacity:1;fill-rule:evenodd;stroke:none;stroke-width:1px;stroke-linecap:butt;stroke-linejoin:miter;stroke-opacity:1" />
  <path
     sodipodi:nodetypes="ccccccccccc"
     id="path2207"
     d="M 27.182209,31.114526 C 31.28663,38.598089 39.34215,40.072666 40.947336,45.91889 C 38.971292,53.555224 30.596234,53.738996 27.613208,63.213186 L 27.757803,72.480362 C 33.450811,76.495821 57.474244,75.477871 64.291255,72.76461 L 64.256509,61.961322 C 60.641313,52.567515 51.750084,52.695993 50.118135,45.409402 C 52.60429,39.138223 60.52887,36.444577 64.230927,28.219721 L 64.108958,19.244948 C 53.716531,21.231138 36.695993,22.315027 27.171861,20.698745 L 27.182209,31.114526 z "
     style="fill:url(#linearGradient3186);fill-opacity:1;fill-rule:evenodd;stroke:none;stroke-width:1px;stroke-linecap:butt;stroke-linejoin:miter;stroke-opacity:1" />
  <path
     style="fill:#ffffff;fill-opacity:1;fill-rule:evenodd;stroke:none;stroke-width:1px;stroke-linecap:butt;stroke-linejoin:miter;stroke-opacity:1"
     d="M 32.397113,71.338111 C 33.252738,71.788441 35.054052,72.103672 36.314973,71.92354 C 34.87392,69.356666 34.513657,62.061339 39.467274,55.9819 C 37.98119,56.432229 30.956059,61.746108 32.397113,71.338111 z "
     id="path14919"
     sodipodi:nodetypes="cccc" />
  <path
     sodipodi:nodetypes="cccc"
     id="path16867"
     d="M 31.316322,22.393882 C 32.622277,23.114407 34.063329,22.889242 35.954709,22.709111 C 35.054052,26.807103 34.513657,29.41901 37.125565,35.228251 C 33.748098,33.426937 30.415664,29.013713 31.316322,22.393882 z "
     style="fill:#ffffff;fill-opacity:1;fill-rule:evenodd;stroke:none;stroke-width:1px;stroke-linecap:butt;stroke-linejoin:miter;stroke-opacity:1" />
  <path
     sodipodi:nodetypes="ccccc"
     id="path5114"
     d="M 52.269134,42.405458 C 53.591549,43.253402 54.111757,48.044788 51.984473,48.883175 C 48.286445,51.452129 42.520944,51.557272 38.601299,49.336549 C 36.568503,48.411494 36.556675,43.96252 38.516194,42.805289 C 41.190589,45.315642 48.100468,45.047769 52.269134,42.405458 z "
     style="fill:url(#linearGradient16910);fill-opacity:1;fill-rule:evenodd;stroke:#283d53;stroke-width:0.68504632;stroke-linecap:butt;stroke-linejoin:miter;stroke-miterlimit:4;stroke-dasharray:none;stroke-opacity:1" />
</svg>
