<?xml version="1.0" encoding="UTF-8" standalone="no"?>
<!-- Created with Inkscape (http://www.inkscape.org/) -->
<svg
   xmlns:dc="http://purl.org/dc/elements/1.1/"
   xmlns:cc="http://web.resource.org/cc/"
   xmlns:rdf="http://www.w3.org/1999/02/22-rdf-syntax-ns#"
   xmlns:svg="http://www.w3.org/2000/svg"
   xmlns="http://www.w3.org/2000/svg"
   xmlns:xlink="http://www.w3.org/1999/xlink"
   xmlns:sodipodi="http://sodipodi.sourceforge.net/DTD/sodipodi-0.dtd"
   xmlns:inkscape="http://www.inkscape.org/namespaces/inkscape"
   version="1.0"
   x="0.00000000"
   y="0.00000000"
   width="90"
   height="90"
   id="svg548"
   sodipodi:version="0.32"
   sodipodi:docname="insert-image.svg"
   sodipodi:docbase="/home/tweenk/GNUtoon/actions"
   inkscape:version="0.45.1"
   inkscape:output_extension="org.inkscape.output.svg.inkscape">
  <metadata
     id="metadata15">
    <rdf:RDF>
      <cc:Work
         rdf:about="">
        <dc:format>image/svg+xml</dc:format>
        <dc:type
           rdf:resource="http://purl.org/dc/dcmitype/StillImage" />
      </cc:Work>
    </rdf:RDF>
  </metadata>
  <sodipodi:namedview
     id="base"
     inkscape:zoom="9.65625"
     inkscape:cx="16"
     inkscape:cy="14.241116"
     inkscape:window-width="1014"
     inkscape:window-height="696"
     inkscape:window-x="0"
     inkscape:window-y="33"
     inkscape:current-layer="svg548"
     width="90px"
     height="90px" />
  <defs
     id="defs550">
    <linearGradient
       id="linearGradient612">
      <stop
         style="stop-color:#7fa8e3;stop-opacity:0.741176;"
         offset="0.000000"
         id="stop613" />
      <stop
         style="stop-color:#ffffff;stop-opacity:0;"
         offset="1.000000"
         id="stop614" />
    </linearGradient>
    <linearGradient
       inkscape:collect="always"
       xlink:href="#linearGradient612"
       id="linearGradient2415"
       gradientUnits="userSpaceOnUse"
       gradientTransform="matrix(0.614283,0,0,0.614283,1.7858706,-3.0618346)"
       spreadMethod="pad"
       x1="50.643887"
       y1="5.3679295"
       x2="35.752094"
       y2="68.044357" />
  </defs>
  <g
     id="g2402"
     transform="matrix(2.4781011,0,0,2.4781011,-5.121554,6.154225)">
    <path
       sodipodi:nodetypes="ccccccccc"
       id="path794"
       d="M 5.6698256,29.469037 C 4.5695716,28.968904 3.0692506,27.368562 3.8694296,25.168051 C 4.2694956,22.767559 11.471119,1.5627834 13.071507,0.56256337 C 14.071681,-0.33762963 15.522061,-0.68771763 17.572517,-0.13759063 C 19.272896,0.26250137 34.5763,4.2634274 35.476483,5.0635744 C 36.376713,5.8637684 37.076871,6.5139104 36.376713,8.2643064 C 35.876626,9.1644894 29.925234,29.369 29.825245,30.669327 C 29.425147,32.069644 28.27492,33.770021 26.37447,33.669987 C 24.474066,33.569951 7.0701426,29.769098 5.6698256,29.469037 z "
       style="fill:#000000;fill-opacity:0.30147095;fill-rule:evenodd;stroke:none;stroke-width:1pt;stroke-linecap:butt;stroke-linejoin:miter;stroke-opacity:1" />
    <path
       sodipodi:nodetypes="ccccccccc"
       id="path609"
       d="M 4.5098296,27.61304 C 3.4095746,27.112909 1.9092536,25.512566 2.7094346,23.312056 C 3.1094996,20.911564 10.311123,-0.29321163 11.911511,-1.2934316 C 12.911685,-2.1936256 14.362066,-2.5437126 16.412523,-1.9935856 C 18.112899,-1.5934936 33.416304,2.4074314 34.316489,3.2075804 C 35.216717,4.0077734 35.916876,4.6579134 35.216717,6.4083114 C 34.71663,7.3084944 28.76524,27.513005 28.665248,28.813333 C 28.265152,30.213648 27.114923,31.914026 25.214474,31.813992 C 23.314069,31.713955 5.9101476,27.913102 4.5098296,27.61304 z "
       style="fill:#3d4e67;fill-opacity:1;fill-rule:evenodd;stroke:none;stroke-width:1pt;stroke-linecap:butt;stroke-linejoin:miter;stroke-opacity:1" />
    <path
       sodipodi:nodetypes="cccccccs"
       id="path608"
       d="M 6.8103756,25.912662 C 5.6601486,25.612601 4.0096986,25.312494 4.6098656,23.512126 C 5.7101206,19.111151 11.311388,2.2073604 13.711879,0.10688537 C 14.262029,-0.39324663 16.112416,-0.59327363 19.613208,0.50698137 C 23.614132,1.7072274 31.715925,4.4078254 32.516119,4.8079224 C 33.316267,5.2080194 33.616374,5.2080194 33.016206,7.0084334 C 32.116023,8.8088464 28.115144,24.212285 27.114878,26.812846 C 26.414765,28.663278 26.264712,29.513445 25.064421,29.513445"
       style="fill:#ffffff;fill-opacity:1;fill-rule:evenodd;stroke:none;stroke-width:1pt;stroke-linecap:butt;stroke-linejoin:miter;stroke-opacity:1" />
    <path
       id="path636"
       d="M 12.878647,2.6628084 C 12.878647,2.6628084 14.079872,0.26034137 17.082932,0.98107437 C 20.085994,1.7018284 31.857993,4.8250124 31.737871,5.7859914 C 31.617747,6.7469714 29.455545,12.392725 29.335421,12.873215 C 29.215298,13.353704 18.164035,13.113459 13.95975,15.636031 C 9.7554656,18.158602 6.6322816,20.320806 6.6322816,20.320806 C 6.6322816,20.320806 10.956689,6.8670924 12.878647,2.6628084 z "
       style="fill:url(#linearGradient2415);fill-opacity:1;fill-rule:evenodd;stroke:none;stroke-width:1pt;stroke-linecap:butt;stroke-linejoin:miter;stroke-opacity:1" />
    <path
       sodipodi:nodetypes="ccccccc"
       id="path570"
       d="M 13.460997,3.4780994 C 13.460997,3.4780994 14.196343,1.4250204 17.199403,2.1457744 C 20.202465,2.8665244 31.50858,5.0579544 31.388463,6.0189344 C 31.268339,6.9799134 29.455545,12.392725 29.335421,12.873215 C 29.215298,13.353704 26.200457,14.045217 18.61854,12.433109 C 14.297787,12.626286 10.301078,11.643806 10.301078,11.643806 C 10.301078,11.643806 11.539039,7.6823854 13.460997,3.4780994 z "
       style="fill:#a4cff8;fill-opacity:1;fill-rule:evenodd;stroke:none;stroke-width:1pt;stroke-linecap:butt;stroke-linejoin:miter;stroke-opacity:1" />
    <path
       sodipodi:nodetypes="csssscc"
       id="path575"
       d="M 7.2053996,18.609999 L 5.9242306,23.094089 C 5.7957686,23.543705 6.4418416,24.007128 6.8996656,24.102277 L 23.8169,27.61821 C 24.309666,27.720623 25.097185,27.666685 25.265492,27.192368 L 26.947027,22.453503 L 7.2053996,18.609999 z "
       style="fill:#188103;fill-opacity:0.98430002;fill-rule:evenodd;stroke:none;stroke-width:1pt;stroke-linecap:butt;stroke-linejoin:miter;stroke-opacity:1" />
    <path
       sodipodi:nodetypes="ccccccssscccccc"
       id="path576"
       d="M 13.785943,21.638213 C 13.785943,21.638213 17.163563,22.395267 17.221799,22.395267 C 17.280035,22.395267 18.910612,17.67824 18.910612,17.67824 L 25.374686,14.824731 L 23.918814,14.533554 L 18.968846,16.455305 L 20.599427,14.067677 C 20.9891,13.497087 21.722737,12.987213 21.64765,12.611807 C 21.586854,12.307806 22.027041,10.832689 21.64765,11.330635 L 17.920616,16.222367 L 17.68768,12.961214 L 16.173573,11.854751 L 16.814156,15.52355 L 17.047094,17.328833 L 13.785943,21.638213 z "
       style="fill:#9c3031;fill-opacity:1;fill-rule:evenodd;stroke:none;stroke-width:1pt;stroke-linecap:butt;stroke-linejoin:miter;stroke-opacity:1" />
    <path
       sodipodi:nodetypes="csssssssssss"
       id="path574"
       d="M 20.774129,6.0894974 C 19.569484,6.7365374 18.119687,6.9211204 16.63945,6.3224384 C 15.918119,6.0590754 15.957984,7.9544864 14.834167,7.9530154 C 13.639875,7.9513674 12.36597,9.0308414 13.028887,11.097697 C 13.228027,11.778362 14.426537,11.421595 14.950639,12.961214 C 15.387206,14.195174 16.723406,13.630325 18.211791,15.174138 C 19.05234,16.0131 20.526782,14.330237 21.938826,15.174138 C 23.728779,16.170071 27.320436,16.124136 28.053492,14.475321 C 28.534029,13.336238 27.19938,11.796515 28.868775,11.097697 C 28.868775,11.097697 28.1929,8.1324314 28.169962,8.1859544 C 27.412906,9.8165314 24.442926,6.9047874 24.442926,6.9047874 C 22.579412,8.2053654 22.011662,5.3665624 20.774129,6.0894974 z "
       style="fill:#9ccf00;fill-opacity:1;fill-rule:evenodd;stroke:none;stroke-width:1pt;stroke-linecap:butt;stroke-linejoin:miter;stroke-opacity:1" />
    <path
       sodipodi:nodetypes="csssssss"
       id="path577"
       d="M 24.606974,15.364707 C 26.052738,15.439029 26.994606,14.724122 26.994606,14.724122 C 27.417857,14.722864 27.140572,12.856985 27.693424,12.103552 C 28.31153,11.245331 27.942269,10.332739 28.101072,9.6576834 C 28.148667,9.4694104 27.231048,9.5762894 27.111076,10.531207 C 26.966511,11.808074 27.174963,13.194735 26.581511,14.003989 C 26.107323,14.650603 24.383878,14.527171 23.908157,14.898827 C 23.762704,15.012462 24.334013,15.353667 24.606974,15.364707 z "
       style="fill:#058c00;fill-opacity:1;fill-rule:evenodd;stroke:none;stroke-width:1pt;stroke-linecap:butt;stroke-linejoin:miter;stroke-opacity:1" />
    <path
       sodipodi:nodetypes="csssssssss"
       id="path578"
       d="M 18.421047,12.689871 C 19.063841,14.005427 20.420308,12.875246 21.244011,13.514557 C 22.10142,14.163518 23.686348,13.536411 23.686348,14.402679 C 23.686348,14.497839 23.764084,14.790166 23.289865,14.989475 C 22.88005,15.167675 21.417226,14.55512 20.197297,14.592992 C 19.537419,14.614023 19.172682,15.421483 18.563784,14.957757 C 18.088063,14.607535 17.339818,13.729729 16.327618,13.625573 C 15.430747,13.53182 14.376919,11.53214 14.376919,11.53214 C 14.376919,11.53214 14.059022,10.40303 14.820979,11.103937 C 16.870163,12.985451 17.972808,11.707577 18.421047,12.689871 z "
       style="fill:#058c00;fill-opacity:1;fill-rule:evenodd;stroke:none;stroke-width:1pt;stroke-linecap:butt;stroke-linejoin:miter;stroke-opacity:1" />
    <path
       sodipodi:nodetypes="cssssss"
       id="path579"
       d="M 16.549647,6.9805094 C 15.967821,7.5875434 15.456279,7.8070794 15.344337,8.2175404 C 15.28183,8.4467384 15.418346,9.4175644 16.422773,8.8043364 C 16.422773,8.8043364 17.279178,8.0748074 17.961127,8.2175404 C 17.992141,8.2241874 18.722376,7.6148834 18.722376,7.6148834 C 17.046573,7.4457194 17.731957,7.2459404 17.310896,6.9646514 C 16.866565,6.6572254 16.716461,6.8110144 16.549647,6.9805094 z "
       style="fill:#058c00;fill-opacity:1;fill-rule:evenodd;stroke:none;stroke-width:1pt;stroke-linecap:butt;stroke-linejoin:miter;stroke-opacity:1" />
  </g>
  <g
     id="g2188"
     transform="matrix(3,0,0,3,-2.2354e-2,-0.164131)">
    <path
       id="path582"
       style="font-size:12px;fill:#b01911;fill-rule:evenodd;stroke-width:1pt"
       d="M 22.932261,29.249741 C 24.451229,28.919436 30.249736,22.929034 29.623323,21.723311 C 28.952755,19.448594 26.722031,20.056344 26.277756,19.180219 C 25.997005,18.276695 26.785695,13.421922 25.826211,12.775381 C 23.743136,11.845659 19.846615,11.671992 18.802668,13.887782 C 18.173299,16.16889 19.36976,19.914198 18.255342,20.282346 C 17.140924,20.650493 16.522159,21.480204 16.644735,22.166451 C 16.767311,22.852697 21.354464,29.84436 22.932261,29.249741 z " />
    <path
       id="path581"
       style="font-size:12px;fill:#ffc93f;fill-rule:evenodd;stroke-width:1pt"
       d="M 22.930176,27.273727 C 24.0754,27.082285 28.093063,23.148154 27.558144,22.161288 C 27.023195,21.17438 25.267208,21.535128 25.010545,20.804456 C 24.753852,20.073741 25.029326,14.276141 24.140295,14.189327 C 23.251276,14.102439 20.229655,13.733015 20.142809,14.622003 C 20.055953,15.511065 20.849462,21.264477 20.01512,21.504857 C 19.180778,21.745238 18.248131,21.598422 18.373822,22.149185 C 18.499513,22.699947 21.752337,27.672351 22.930176,27.273727 z " />
    <path
       id="path583"
       style="font-size:12px;fill:#ff933d;fill-rule:evenodd;stroke-width:1pt"
       d="M 23.725786,14.124075 C 23.725786,14.124075 24.587472,14.047292 24.691558,15.072607 C 24.795654,16.097849 24.770665,20.979085 25.125204,21.087993 C 26.17779,21.147494 27.917934,21.899302 27.760118,22.564766 C 27.520707,23.748324 23.731892,27.240602 23.07746,27.35001 C 22.42304,27.459346 25.917274,23.814575 25.23504,22.751385 C 24.552806,21.688194 23.167743,22.054234 23.09096,21.192548 C 23.014208,20.330903 22.460591,14.40279 22.907768,14.260756 C 23.354903,14.118752 23.960385,14.320298 23.725786,14.124075 z " />
    <path
       d="M 21.033623,14.585241 C 21.033623,14.585241 20.720254,20.960938 21.102173,21.233483 C 21.484061,21.505986 22.39232,16.073516 21.033623,14.585241 z "
       style="font-size:12px;fill:#ffffff;fill-rule:evenodd;stroke-width:1pt"
       id="path588" />
    <path
       d="M 22.113478,26.277832 C 22.113478,26.277832 19.685379,23.824734 19.516004,23.213956 C 19.346665,22.603218 20.513931,22.946241 20.513931,22.946241 C 20.513931,22.946241 21.67162,26.048986 22.113478,26.277832 z "
       style="font-size:12px;fill:#ffffff;fill-rule:evenodd;stroke-width:1pt"
       id="path589" />
  </g>
</svg>
