<?xml version="1.0" encoding="UTF-8" standalone="no"?>
<!-- Created with Inkscape (http://www.inkscape.org/) -->
<svg
   xmlns:dc="http://purl.org/dc/elements/1.1/"
   xmlns:cc="http://creativecommons.org/ns#"
   xmlns:rdf="http://www.w3.org/1999/02/22-rdf-syntax-ns#"
   xmlns:svg="http://www.w3.org/2000/svg"
   xmlns="http://www.w3.org/2000/svg"
   xmlns:xlink="http://www.w3.org/1999/xlink"
   xmlns:sodipodi="http://sodipodi.sourceforge.net/DTD/sodipodi-0.dtd"
   xmlns:inkscape="http://www.inkscape.org/namespaces/inkscape"
   version="1.0"
   x="0.00000000"
   y="0.00000000"
   width="90"
   height="90"
   id="svg548"
   sodipodi:version="0.32"
   sodipodi:docname="insert-object.svg"
   sodipodi:docbase="/home/tweenk/GNUtoon/actions"
   inkscape:version="0.46+devel"
   inkscape:output_extension="org.inkscape.output.svg.inkscape">
  <metadata
     id="metadata15">
    <rdf:RDF>
      <cc:Work
         rdf:about="">
        <dc:format>image/svg+xml</dc:format>
        <dc:type
           rdf:resource="http://purl.org/dc/dcmitype/StillImage" />
      </cc:Work>
    </rdf:RDF>
  </metadata>
  <sodipodi:namedview
     id="base"
     inkscape:zoom="1.707"
     inkscape:cx="36.093096"
     inkscape:cy="20.037724"
     inkscape:window-width="1014"
     inkscape:window-height="724"
     inkscape:window-x="0"
     inkscape:window-y="1"
     inkscape:current-layer="svg548"
     width="90px"
     height="90px"
     showgrid="false" />
  <defs
     id="defs550">
    <inkscape:perspective
       sodipodi:type="inkscape:persp3d"
       inkscape:vp_x="0 : 45 : 1"
       inkscape:vp_y="0 : 1000 : 0"
       inkscape:vp_z="90 : 45 : 1"
       inkscape:persp3d-origin="45 : 30 : 1"
       id="perspective34" />
    <linearGradient
       id="linearGradient612">
      <stop
         style="stop-color:#7fa8e3;stop-opacity:0.741176;"
         offset="0.000000"
         id="stop613" />
      <stop
         style="stop-color:#ffffff;stop-opacity:0;"
         offset="1.000000"
         id="stop614" />
    </linearGradient>
    <linearGradient
       inkscape:collect="always"
       xlink:href="#linearGradient612"
       id="linearGradient2519"
       gradientUnits="userSpaceOnUse"
       gradientTransform="matrix(0.4511585,0,0,0.4511585,-1.3306533,-10.313291)"
       spreadMethod="pad"
       x1="48.696156"
       y1="23.546736"
       x2="35.752094"
       y2="68.044357" />
    <linearGradient
       spreadMethod="pad"
       gradientUnits="userSpaceOnUse"
       y2="61.6665344"
       x2="24.6243172"
       y1="10.6072874"
       x1="16.4110699"
       id="linearGradient636"
       xlink:href="#linearGradient612"
       gradientTransform="matrix(0.94678,0,0,0.94678,-121.30473,3.0708701)" />
    <linearGradient
       inkscape:collect="always"
       xlink:href="#linearGradient612"
       id="linearGradient3393"
       gradientUnits="userSpaceOnUse"
       gradientTransform="matrix(0.94678,0,0,0.94678,-1.23589,-0.2595074)"
       spreadMethod="pad"
       x1="16.4110699"
       y1="10.6072874"
       x2="24.6243172"
       y2="61.6665344" />
  </defs>
  <path
     style="fill:#000000;fill-opacity:0.30147101;fill-rule:evenodd;stroke:none"
     d="M 8.6009014,78.614357 C 5.9063506,77.389521 2.2320291,73.470243 4.1916897,68.081141 5.1714594,62.20228 22.808406,10.271276 26.727794,7.8217142 29.177246,5.6171193 32.72926,4.7597441 37.750879,6.1070205 41.915146,7.0868558 79.393545,16.885215 81.598117,18.844798 83.802802,20.804493 85.517506,22.396702 83.802802,26.683464 82.578076,28.888036 68.002977,78.369367 67.758098,81.553898 66.778251,84.983307 63.961315,89.147574 59.307069,88.902585 54.652935,88.657595 12.030311,79.349214 8.6009014,78.614357 z"
     id="path794"
     sodipodi:nodetypes="ccccccccc" />
  <path
     style="fill:#3d4e67;fill-opacity:1;fill-rule:evenodd;stroke:none"
     d="M 5.7600441,74.06898 C 3.0654933,72.844144 -0.60882825,68.924866 1.3508324,63.535763 2.3306021,57.656903 19.967549,5.7258988 23.886937,3.2763369 26.336388,1.071742 29.888403,0.21436687 34.910022,1.5616433 39.074289,2.5414786 76.552688,12.339838 78.75726,14.299421 80.961944,16.259115 82.676649,17.851325 80.961944,22.138086 79.737219,24.342659 65.162119,73.82399 64.917241,77.008521 63.937394,80.43793 61.120458,84.602196 56.466212,84.357207 51.812078,84.112217 9.1894532,74.803837 5.7600441,74.06898 z"
     id="path609"
     sodipodi:nodetypes="ccccccccc" />
  <path
     style="fill:#ffffff;fill-opacity:1;fill-rule:evenodd;stroke:none"
     d="M 11.394137,69.904713 C 8.5772012,69.169856 4.5352079,68.434887 6.005034,64.025742 8.6995858,53.247646 22.417221,11.849859 28.296082,6.7057451 29.643413,5.4809089 34.175053,4.9910405 42.748576,7.6855923 52.546935,10.625023 72.388422,17.238851 74.348115,18.218698 76.307698,19.198546 77.042667,19.198546 75.572841,23.607801 73.368269,28.017058 63.57002,65.740447 61.120347,72.109286 59.405754,76.641037 59.038269,78.723115 56.098728,78.723115"
     id="path608"
     sodipodi:nodetypes="cccccccs" />
  <path
     id="path2589"
     d="m 25.984032,12.758717 c 0,0 2.9586875,-5.9174223 10.355406,-4.1422098 C 43.736157,10.391768 72.731294,18.084355 72.435425,20.451305 72.139556,22.818255 66.813919,36.724086 66.51805,37.907561 66.222181,39.091036 39.002256,38.499298 28.64685,44.712542 18.29144,50.925786 10.59886,56.251423 10.59886,56.251423 c 0,0 10.651275,-33.1373 15.385175,-43.492706 z"
     style="fill:url(#linearGradient3393);fill-opacity:1;fill-rule:evenodd;stroke:none" />
  <g
     id="g1092"
     transform="matrix(1.1270322,-4.7797026e-2,4.7797026e-2,1.1270322,-16.025999,7.8028421)">
    <polygon
       sodipodi:type="star"
       style="font-size:12px;fill:#f17419;fill-opacity:1;fill-rule:evenodd;stroke-width:1pt"
       id="polygon1234"
       sodipodi:sides="6"
       sodipodi:cx="31.528662"
       sodipodi:cy="26.082802"
       sodipodi:r1="18.471146"
       sodipodi:r2="15.996481"
       sodipodi:arg1="0.73050851"
       sodipodi:arg2="1.2541074"
       points="45.2866,38.4076 36.5103,41.2838 27.734,44.16 20.855,37.9975 13.9761,31.8351 15.8734,22.7965 17.7707,13.758 26.547,10.8818 35.3233,8.00564 42.2023,14.1681 49.0813,20.3305 47.1839,29.3691 45.2866,38.4076 "
       transform="matrix(1.244941,0,0,1.244941,10.33465,2.496595)"
       inkscape:flatsided="false"
       inkscape:rounded="0"
       inkscape:randomized="0"
       d="M 45.286621,38.407646 36.510315,41.283806 27.734014,44.159966 20.855033,37.997543 13.976054,31.835122 15.873379,22.796538 17.770702,13.757958 26.547008,10.881798 35.32331,8.0056376 42.202291,14.168061 49.081269,20.330481 47.183944,29.369065 z" />
    <path
       style="fill:#8f450e;fill-opacity:1;fill-rule:evenodd;stroke:none"
       d="M 49.0127,34.3949 45,57.0382 66.2102,49.8726 70.2229,27.5159 z"
       id="path1271" />
    <path
       style="fill:#f1e36c;fill-opacity:1;fill-rule:evenodd;stroke:none"
       d="M 49.439262,34.992765 44.7134,56.465 28.0892,41.5605 33.326877,20.215502 c -0.2866,1.4331 15.539184,15.350564 16.112384,14.777264 z"
       id="path1270"
       sodipodi:nodetypes="ccccc" />
    <path
       style="fill:none;stroke:#00ff00;stroke-width:1pt;stroke-linecap:butt;stroke-linejoin:miter;stroke-opacity:1"
       d="M 32.9618,20.0637 49.2994,34.9682 70.7962,27.8025"
       id="path1237" />
    <path
       style="fill:none;stroke:#00ff00;stroke-width:1pt;stroke-linecap:butt;stroke-linejoin:miter;stroke-opacity:1"
       d="m 49.2994,34.9682 -4.586,22.07"
       id="path1238" />
    <path
       style="fill:none;stroke:#00ff00;stroke-width:1pt;stroke-linecap:butt;stroke-linejoin:miter;stroke-opacity:1"
       d="M 32.9618,20.0637 28.0892,42.1338 45,57.0382 65.9236,50.4459 70.7962,28.0892 54.172,12.8981 z"
       id="path1239"
       sodipodi:nodetypes="ccccccc" />
    <path
       style="fill:none;stroke:#00ff00;stroke-width:1pt;stroke-linecap:butt;stroke-linejoin:miter;stroke-opacity:1"
       d="M 41.8471,27.8025 61.9108,20.9236"
       id="path1241" />
    <path
       style="fill:none;stroke:#00ff00;stroke-width:1pt;stroke-linecap:butt;stroke-linejoin:miter;stroke-opacity:1"
       d="m 41.2739,28.0892 -4.586,21.2102"
       id="path1242"
       sodipodi:nodetypes="cc" />
    <path
       style="fill:none;stroke:#00ff00;stroke-width:1pt;stroke-linecap:butt;stroke-linejoin:miter;stroke-opacity:1"
       d="M 60.752303,31.503878 56.465,53.5987"
       id="path1243"
       sodipodi:nodetypes="cc" />
    <path
       style="fill:none;stroke:#00ff00;stroke-width:1pt;stroke-linecap:butt;stroke-linejoin:miter;stroke-opacity:1"
       d="m 43.2803,16.3375 c 1.1465,0.8599 17.490048,15.490211 17.490048,15.490211"
       id="path1244"
       sodipodi:nodetypes="cc" />
    <path
       style="fill:none;stroke:#00ff00;stroke-width:1pt;stroke-linecap:butt;stroke-linejoin:miter;stroke-opacity:1"
       d="M 30.0955,30.9554 47.2929,45.8599 68.5032,38.4076"
       id="path1245"
       sodipodi:nodetypes="ccc" />
  </g>
  <g
     id="g2188"
     transform="matrix(3,0,0,3,9.5297e-2,0.169889)">
    <path
       id="path582"
       style="font-size:12px;fill:#b01911;fill-rule:evenodd;stroke-width:1pt"
       d="M 22.932261,29.249741 C 24.451229,28.919436 30.249736,22.929034 29.623323,21.723311 C 28.952755,19.448594 26.722031,20.056344 26.277756,19.180219 C 25.997005,18.276695 26.785695,13.421922 25.826211,12.775381 C 23.743136,11.845659 19.846615,11.671992 18.802668,13.887782 C 18.173299,16.16889 19.36976,19.914198 18.255342,20.282346 C 17.140924,20.650493 16.522159,21.480204 16.644735,22.166451 C 16.767311,22.852697 21.354464,29.84436 22.932261,29.249741 z " />
    <path
       id="path581"
       style="font-size:12px;fill:#ffc93f;fill-rule:evenodd;stroke-width:1pt"
       d="M 22.930176,27.273727 C 24.0754,27.082285 28.093063,23.148154 27.558144,22.161288 C 27.023195,21.17438 25.267208,21.535128 25.010545,20.804456 C 24.753852,20.073741 25.029326,14.276141 24.140295,14.189327 C 23.251276,14.102439 20.229655,13.733015 20.142809,14.622003 C 20.055953,15.511065 20.849462,21.264477 20.01512,21.504857 C 19.180778,21.745238 18.248131,21.598422 18.373822,22.149185 C 18.499513,22.699947 21.752337,27.672351 22.930176,27.273727 z " />
    <path
       id="path583"
       style="font-size:12px;fill:#ff933d;fill-rule:evenodd;stroke-width:1pt"
       d="M 23.725786,14.124075 C 23.725786,14.124075 24.587472,14.047292 24.691558,15.072607 C 24.795654,16.097849 24.770665,20.979085 25.125204,21.087993 C 26.17779,21.147494 27.917934,21.899302 27.760118,22.564766 C 27.520707,23.748324 23.731892,27.240602 23.07746,27.35001 C 22.42304,27.459346 25.917274,23.814575 25.23504,22.751385 C 24.552806,21.688194 23.167743,22.054234 23.09096,21.192548 C 23.014208,20.330903 22.460591,14.40279 22.907768,14.260756 C 23.354903,14.118752 23.960385,14.320298 23.725786,14.124075 z " />
    <path
       d="M 21.033623,14.585241 C 21.033623,14.585241 20.720254,20.960938 21.102173,21.233483 C 21.484061,21.505986 22.39232,16.073516 21.033623,14.585241 z "
       style="font-size:12px;fill:#ffffff;fill-rule:evenodd;stroke-width:1pt"
       id="path588" />
    <path
       d="M 22.113478,26.277832 C 22.113478,26.277832 19.685379,23.824734 19.516004,23.213956 C 19.346665,22.603218 20.513931,22.946241 20.513931,22.946241 C 20.513931,22.946241 21.67162,26.048986 22.113478,26.277832 z "
       style="font-size:12px;fill:#ffffff;fill-rule:evenodd;stroke-width:1pt"
       id="path589" />
  </g>
</svg>
