<?xml version="1.0" encoding="UTF-8" standalone="no"?>
<!-- Created with Sodipodi ("http://www.sodipodi.com/") -->
<svg
   xmlns:dc="http://purl.org/dc/elements/1.1/"
   xmlns:cc="http://web.resource.org/cc/"
   xmlns:rdf="http://www.w3.org/1999/02/22-rdf-syntax-ns#"
   xmlns:svg="http://www.w3.org/2000/svg"
   xmlns="http://www.w3.org/2000/svg"
   xmlns:xlink="http://www.w3.org/1999/xlink"
   xmlns:sodipodi="http://sodipodi.sourceforge.net/DTD/sodipodi-0.dtd"
   xmlns:inkscape="http://www.inkscape.org/namespaces/inkscape"
   id="svg604"
   sodipodi:version="0.32"
   width="90"
   height="90"
   sodipodi:docbase="/home/tweenk/GNUtoon/actions"
   sodipodi:docname="insert-text.svg"
   inkscape:version="0.45.1"
   inkscape:output_extension="org.inkscape.output.svg.inkscape"
   version="1.0">
  <metadata
     id="metadata2894">
    <rdf:RDF>
      <cc:Work
         rdf:about="">
        <dc:format>image/svg+xml</dc:format>
        <dc:type
           rdf:resource="http://purl.org/dc/dcmitype/StillImage" />
      </cc:Work>
    </rdf:RDF>
  </metadata>
  <defs
     id="defs606">
    <linearGradient
       id="linearGradient612">
      <stop
         style="stop-color:#7fa8e3;stop-opacity:0.741176;"
         offset="0.000000"
         id="stop613" />
      <stop
         style="stop-color:#ffffff;stop-opacity:0;"
         offset="1.000000"
         id="stop614" />
    </linearGradient>
    <linearGradient
       xlink:href="#linearGradient612"
       id="linearGradient615"
       x1="50.643887"
       y1="5.3679295"
       x2="35.752094"
       y2="68.044357"
       gradientUnits="userSpaceOnUse"
       spreadMethod="pad"
       gradientTransform="matrix(0.9221466,0,0,0.9221466,0.1857013,1.2582194)" />
  </defs>
  <sodipodi:namedview
     id="base"
     width="90px"
     height="90px"
     inkscape:zoom="4.5222222"
     inkscape:cx="45"
     inkscape:cy="0.77395577"
     inkscape:window-width="795"
     inkscape:window-height="619"
     inkscape:window-x="114"
     inkscape:window-y="74"
     inkscape:current-layer="svg604" />
  <path
     style="fill:#000000;fill-opacity:0.30147101;fill-rule:evenodd;stroke:none;stroke-width:1pt;stroke-linecap:butt;stroke-linejoin:miter;stroke-opacity:1"
     d="M 9.4036303,78.245242 C 6.7641433,77.045434 3.1649083,73.20625 5.0845243,67.927279 C 6.0442693,62.168557 23.320792,11.298805 27.160084,8.8993004 C 29.559478,6.7397594 33.038905,5.8999064 37.957903,7.2196484 C 42.037072,8.1794624 78.749569,17.777584 80.909092,19.697122 C 83.06872,21.616768 84.748384,23.176438 83.06872,27.375598 C 81.86902,29.535115 67.591777,78.00526 67.351903,81.124711 C 66.392077,84.484039 63.63271,88.563202 59.073577,88.323223 C 54.514552,88.083241 12.762955,78.965086 9.4036303,78.245242 z "
     id="path794"
     sodipodi:nodetypes="ccccccccc" />
  <path
     style="fill:#3d4e67;fill-opacity:1;fill-rule:evenodd;stroke:none;stroke-width:1pt;stroke-linecap:butt;stroke-linejoin:miter;stroke-opacity:1"
     d="M 6.6208273,73.792753 C 3.9813403,72.592945 0.38210835,68.753761 2.3017213,63.47479 C 3.2614693,57.716068 20.537989,6.8463164 24.377281,4.4468114 C 26.776678,2.2872704 30.256102,1.4474174 35.175103,2.7671594 C 39.254269,3.7269734 75.966766,13.325095 78.126289,15.244633 C 80.28592,17.164279 81.965581,18.723949 80.28592,22.923109 C 79.086217,25.082629 64.808974,73.552771 64.5691,76.672222 C 63.609277,80.03155 60.84991,84.110716 56.290774,83.870731 C 51.731752,83.630752 9.9801553,74.512594 6.6208273,73.792753 z "
     id="path609"
     sodipodi:nodetypes="ccccccccc" />
  <path
     style="fill:#ffffff;fill-opacity:1;fill-rule:evenodd;stroke:none;stroke-width:1pt;stroke-linecap:butt;stroke-linejoin:miter;stroke-opacity:1"
     d="M 12.139783,69.713587 C 9.3804133,68.993746 5.4210223,68.2738 6.8608093,63.954757 C 9.5002963,53.396923 22.937602,12.845128 28.696324,7.8061394 C 30.01612,6.6063344 34.455154,6.1264754 42.853468,8.7659624 C 52.451593,11.645323 71.887603,18.123991 73.807246,19.083814 C 75.726787,20.043637 76.446736,20.043637 75.006946,24.362788 C 72.847426,28.681939 63.249409,65.634421 60.849799,71.873107 C 59.170246,76.312246 58.81027,78.351781 55.930801,78.351781"
     id="path608"
     sodipodi:nodetypes="cccccccs" />
  <path
     style="fill:url(#linearGradient615);fill-opacity:1;fill-rule:evenodd;stroke:none;stroke-width:1pt;stroke-linecap:butt;stroke-linejoin:miter;stroke-opacity:1"
     d="M 26.697421,13.937737 C 26.697421,13.937737 29.579128,8.1742754 36.783403,9.9033014 C 43.987672,11.632372 72.228415,19.124815 71.940247,21.43018 C 71.652076,23.735548 66.465004,37.279579 66.176827,38.432263 C 65.888656,39.584947 39.376939,39.008602 29.29096,45.060193 C 19.204978,51.111781 11.712538,56.298856 11.712538,56.298856 C 11.712538,56.298856 22.086688,24.023719 26.697421,13.937737 z "
     id="path636" />
  <path
     style="fill:none;fill-opacity:1;fill-rule:evenodd;stroke:#42667e;stroke-width:0.97398214pt;stroke-linecap:butt;stroke-linejoin:miter;stroke-opacity:1"
     d="M 30.241924,17.174374 L 69.785011,27.682276"
     id="path671" />
  <path
     style="fill:none;fill-opacity:1;fill-rule:evenodd;stroke:#42667e;stroke-width:0.97398224pt;stroke-linecap:butt;stroke-linejoin:miter;stroke-opacity:1"
     d="M 27.382891,24.14389 L 66.560455,34.815517"
     id="path672" />
  <path
     style="fill:none;fill-opacity:1;fill-rule:evenodd;stroke:#42667e;stroke-width:0.97398214pt;stroke-linecap:butt;stroke-linejoin:miter;stroke-opacity:1"
     d="M 23.881852,32.93629 L 63.424942,43.444192"
     id="path673" />
  <path
     style="fill:none;fill-opacity:1;fill-rule:evenodd;stroke:#42667e;stroke-width:0.97398214pt;stroke-linecap:butt;stroke-linejoin:miter;stroke-opacity:1"
     d="M 18.074827,49.527784 L 57.617914,60.035686"
     id="path675" />
  <path
     style="fill:none;fill-opacity:1;fill-rule:evenodd;stroke:#42667e;stroke-width:0.97398224pt;stroke-linecap:butt;stroke-linejoin:miter;stroke-opacity:1"
     d="M 15.2158,56.497303 L 54.393367,67.16893"
     id="path676" />
  <path
     style="fill:none;fill-opacity:1;fill-rule:evenodd;stroke:#42667e;stroke-width:0.97398224pt;stroke-linecap:butt;stroke-linejoin:miter;stroke-opacity:1"
     d="M 21.022819,39.905812 L 60.200383,50.577436"
     id="path674" />
  <path
     style="fill:none;fill-opacity:1;fill-rule:evenodd;stroke:#414141;stroke-width:3.04369426;stroke-linecap:round;stroke-linejoin:round;stroke-dasharray:none;stroke-opacity:1"
     d="M 7.0138393,44.550244 C 2.1285583,41.370193 3.3210523,34.263826 8.9495023,34.076824 C 14.431618,33.618271 19.088713,40.955473 15.862591,45.103273"
     id="path699"
     sodipodi:nodetypes="csc" />
  <path
     style="fill:none;fill-opacity:1;fill-rule:evenodd;stroke:#414141;stroke-width:3.04369426;stroke-linecap:round;stroke-linejoin:round;stroke-dasharray:none;stroke-opacity:1"
     d="M 10.608664,35.424922 C 5.7233833,32.244871 6.9158773,25.138504 12.544327,24.951499 C 18.026443,24.492949 22.683538,31.830151 19.457416,35.977951"
     id="path701"
     sodipodi:nodetypes="csc" />
  <path
     style="fill:none;fill-opacity:1;fill-rule:evenodd;stroke:#414141;stroke-width:3.04369426;stroke-linecap:round;stroke-linejoin:round;stroke-dasharray:none;stroke-opacity:1"
     d="M 13.926961,26.299606 C 9.0416803,23.119552 10.234177,16.013185 15.862624,15.82618 C 21.34474,15.36763 26.001835,22.704832 22.775713,26.852632"
     id="path703"
     sodipodi:nodetypes="csc" />
  <path
     style="fill:none;fill-opacity:1;fill-rule:evenodd;stroke:#b9b9b9;stroke-width:0.73048657;stroke-linecap:round;stroke-linejoin:round;stroke-dasharray:none;stroke-opacity:1"
     d="M 13.09738,24.778711 C 9.5947273,23.119534 10.234177,15.460138 15.862624,15.273133 C 21.34474,14.814583 25.863529,21.460453 23.743561,26.299585"
     id="path704"
     sodipodi:nodetypes="csc" />
  <path
     style="fill:none;fill-opacity:1;fill-rule:evenodd;stroke:#b9b9b9;stroke-width:0.73048657;stroke-linecap:round;stroke-linejoin:round;stroke-dasharray:none;stroke-opacity:1"
     d="M 9.7790833,33.904033 C 6.2764303,32.244853 6.9158773,24.58546 12.544327,24.398455 C 18.026443,23.939905 22.545232,30.585775 20.425264,35.424907"
     id="path702"
     sodipodi:nodetypes="csc" />
  <path
     style="fill:none;fill-opacity:1;fill-rule:evenodd;stroke:#b9b9b9;stroke-width:0.73048657;stroke-linecap:round;stroke-linejoin:round;stroke-dasharray:none;stroke-opacity:1"
     d="M 6.1842583,43.029358 C 2.6816053,41.370178 3.3210523,33.710785 8.9495023,33.52378 C 14.431618,33.065227 18.950407,39.7111 16.830439,44.550226"
     id="path700"
     sodipodi:nodetypes="csc" />
  <g
     id="g2188"
     transform="matrix(3,0,0,3,-0.3857957,-0.4692256)">
    <path
       id="path582"
       style="font-size:12px;fill:#b01911;fill-rule:evenodd;stroke-width:1pt"
       d="M 22.932261,29.249741 C 24.451229,28.919436 30.249736,22.929034 29.623323,21.723311 C 28.952755,19.448594 26.722031,20.056344 26.277756,19.180219 C 25.997005,18.276695 26.785695,13.421922 25.826211,12.775381 C 23.743136,11.845659 19.846615,11.671992 18.802668,13.887782 C 18.173299,16.16889 19.36976,19.914198 18.255342,20.282346 C 17.140924,20.650493 16.522159,21.480204 16.644735,22.166451 C 16.767311,22.852697 21.354464,29.84436 22.932261,29.249741 z " />
    <path
       id="path581"
       style="font-size:12px;fill:#ffc93f;fill-rule:evenodd;stroke-width:1pt"
       d="M 22.930176,27.273727 C 24.0754,27.082285 28.093063,23.148154 27.558144,22.161288 C 27.023195,21.17438 25.267208,21.535128 25.010545,20.804456 C 24.753852,20.073741 25.029326,14.276141 24.140295,14.189327 C 23.251276,14.102439 20.229655,13.733015 20.142809,14.622003 C 20.055953,15.511065 20.849462,21.264477 20.01512,21.504857 C 19.180778,21.745238 18.248131,21.598422 18.373822,22.149185 C 18.499513,22.699947 21.752337,27.672351 22.930176,27.273727 z " />
    <path
       id="path583"
       style="font-size:12px;fill:#ff933d;fill-rule:evenodd;stroke-width:1pt"
       d="M 23.725786,14.124075 C 23.725786,14.124075 24.587472,14.047292 24.691558,15.072607 C 24.795654,16.097849 24.770665,20.979085 25.125204,21.087993 C 26.17779,21.147494 27.917934,21.899302 27.760118,22.564766 C 27.520707,23.748324 23.731892,27.240602 23.07746,27.35001 C 22.42304,27.459346 25.917274,23.814575 25.23504,22.751385 C 24.552806,21.688194 23.167743,22.054234 23.09096,21.192548 C 23.014208,20.330903 22.460591,14.40279 22.907768,14.260756 C 23.354903,14.118752 23.960385,14.320298 23.725786,14.124075 z " />
    <path
       d="M 21.033623,14.585241 C 21.033623,14.585241 20.720254,20.960938 21.102173,21.233483 C 21.484061,21.505986 22.39232,16.073516 21.033623,14.585241 z "
       style="font-size:12px;fill:#ffffff;fill-rule:evenodd;stroke-width:1pt"
       id="path588" />
    <path
       d="M 22.113478,26.277832 C 22.113478,26.277832 19.685379,23.824734 19.516004,23.213956 C 19.346665,22.603218 20.513931,22.946241 20.513931,22.946241 C 20.513931,22.946241 21.67162,26.048986 22.113478,26.277832 z "
       style="font-size:12px;fill:#ffffff;fill-rule:evenodd;stroke-width:1pt"
       id="path589" />
  </g>
</svg>
