<?xml version="1.0" encoding="UTF-8" standalone="no"?>
<!-- Created with Sodipodi ("http://www.sodipodi.com/") -->
<svg
   xmlns:dc="http://purl.org/dc/elements/1.1/"
   xmlns:cc="http://creativecommons.org/ns#"
   xmlns:rdf="http://www.w3.org/1999/02/22-rdf-syntax-ns#"
   xmlns:svg="http://www.w3.org/2000/svg"
   xmlns="http://www.w3.org/2000/svg"
   xmlns:xlink="http://www.w3.org/1999/xlink"
   xmlns:sodipodi="http://sodipodi.sourceforge.net/DTD/sodipodi-0.dtd"
   xmlns:inkscape="http://www.inkscape.org/namespaces/inkscape"
   id="svg604"
   sodipodi:version="0.32"
   width="72pt"
   height="72pt"
   sodipodi:docbase="/home/tweenk/GNUtoon/mimetypes"
   sodipodi:docname="iso-image-new.svg"
   inkscape:version="0.46+devel"
   inkscape:output_extension="org.inkscape.output.svg.inkscape">
  <metadata
     id="metadata39">
    <rdf:RDF>
      <cc:Work
         rdf:about="">
        <dc:format>image/svg+xml</dc:format>
        <dc:type
           rdf:resource="http://purl.org/dc/dcmitype/StillImage" />
      </cc:Work>
    </rdf:RDF>
  </metadata>
  <defs
     id="defs606">
    <inkscape:perspective
       sodipodi:type="inkscape:persp3d"
       inkscape:vp_x="0 : 45 : 1"
       inkscape:vp_y="0 : 1000 : 0"
       inkscape:vp_z="90 : 45 : 1"
       inkscape:persp3d-origin="45 : 30 : 1"
       id="perspective37" />
    <linearGradient
       inkscape:collect="always"
       xlink:href="#linearGradient558"
       id="linearGradient4204"
       gradientUnits="userSpaceOnUse"
       gradientTransform="matrix(0.766548,0,0,1.30455,24.43299,30.58893)"
       spreadMethod="pad"
       x1="73.0144653"
       y1="38.8011742"
       x2="46.2984352"
       y2="43.8150940" />
    <linearGradient
       id="linearGradient612">
      <stop
         style="stop-color:#7fa8e3;stop-opacity:0.741176;"
         offset="0.000000"
         id="stop613" />
      <stop
         style="stop-color:#ffffff;stop-opacity:0;"
         offset="1.000000"
         id="stop614" />
    </linearGradient>
    <linearGradient
       xlink:href="#linearGradient612"
       id="linearGradient615"
       x1="50.6438866"
       y1="5.36792946"
       x2="35.7520943"
       y2="68.0443573"
       gradientUnits="userSpaceOnUse"
       spreadMethod="pad" />
    <defs
       id="defs550">
      <linearGradient
         id="linearGradient566">
        <stop
           style="stop-color:#b89282;stop-opacity:1;"
           offset="0.000000"
           id="stop567" />
        <stop
           style="stop-color:#ffffff;stop-opacity:0;"
           offset="1.000000"
           id="stop568" />
      </linearGradient>
      <linearGradient
         id="linearGradient558">
        <stop
           style="stop-color:#7fa8e3;stop-opacity:0.741176;"
           offset="0.000000"
           id="stop559" />
        <stop
           style="stop-color:#ffffff;stop-opacity:0;"
           offset="1.000000"
           id="stop560" />
      </linearGradient>
      <linearGradient
         xlink:href="#linearGradient558"
         id="linearGradient561"
         x1="73.0144653"
         y1="38.8011742"
         x2="46.2984352"
         y2="43.8150940"
         gradientUnits="userSpaceOnUse"
         gradientTransform="scale(0.766548,1.304550)"
         spreadMethod="pad" />
      <linearGradient
         xlink:href="#linearGradient558"
         id="linearGradient563"
         x1="23.9531670"
         y1="24.2094688"
         x2="45.7012291"
         y2="18.4172096"
         gradientUnits="userSpaceOnUse"
         gradientTransform="matrix(0.986297,0,0,1.013893,24.43299,30.58893)"
         spreadMethod="pad" />
      <linearGradient
         xlink:href="#linearGradient566"
         id="linearGradient565"
         x1="23.8109703"
         y1="38.8476372"
         x2="46.7923088"
         y2="38.8476372"
         gradientUnits="userSpaceOnUse"
         spreadMethod="pad"
         gradientTransform="scale(0.839949,1.190549)" />
      <linearGradient
         xlink:href="#linearGradient566"
         id="linearGradient570"
         x1="37.2327957"
         y1="15.7551279"
         x2="53.1239204"
         y2="17.6949825"
         gradientUnits="userSpaceOnUse"
         spreadMethod="pad"
         gradientTransform="scale(0.982487,1.017825)" />
    </defs>
    <linearGradient
       inkscape:collect="always"
       xlink:href="#linearGradient558"
       id="linearGradient1121"
       gradientUnits="userSpaceOnUse"
       gradientTransform="matrix(0.739484,0,0,0.760174,17.127017,17.726784)"
       spreadMethod="pad"
       x1="23.9531670"
       y1="24.2094688"
       x2="45.7012291"
       y2="18.4172096" />
    <linearGradient
       inkscape:collect="always"
       xlink:href="#linearGradient558"
       id="linearGradient1122"
       gradientUnits="userSpaceOnUse"
       gradientTransform="matrix(0.739484,0.000000,0.000000,0.760174,18.31710,18.71852)"
       spreadMethod="pad"
       x1="23.9531670"
       y1="24.2094688"
       x2="45.7012291"
       y2="18.4172096" />
    <linearGradient
       inkscape:collect="always"
       xlink:href="#linearGradient558"
       id="linearGradient1123"
       gradientUnits="userSpaceOnUse"
       gradientTransform="matrix(0.574725,0.000000,0.000000,0.978097,18.31710,18.71852)"
       spreadMethod="pad"
       x1="73.0144653"
       y1="38.8011742"
       x2="46.2984352"
       y2="43.8150940" />
    <linearGradient
       inkscape:collect="always"
       xlink:href="#linearGradient558"
       id="linearGradient3998"
       gradientUnits="userSpaceOnUse"
       gradientTransform="matrix(0.986297,0,0,1.013893,24.43299,30.58893)"
       spreadMethod="pad"
       x1="23.9531670"
       y1="24.2094688"
       x2="45.7012291"
       y2="18.4172096" />
    <linearGradient
       inkscape:collect="always"
       xlink:href="#linearGradient558"
       id="linearGradient4000"
       gradientUnits="userSpaceOnUse"
       gradientTransform="matrix(0.766548,0,0,1.30455,24.43299,30.58893)"
       spreadMethod="pad"
       x1="73.0144653"
       y1="38.8011742"
       x2="46.2984352"
       y2="43.8150940" />
    <inkscape:perspective
       id="perspective2517"
       inkscape:persp3d-origin="0.5 : 0.33333333 : 1"
       inkscape:vp_z="1 : 0.5 : 1"
       inkscape:vp_y="0 : 1000 : 0"
       inkscape:vp_x="0 : 0.5 : 1"
       sodipodi:type="inkscape:persp3d" />
  </defs>
  <sodipodi:namedview
     id="base"
     inkscape:zoom="5.0416667"
     inkscape:cx="37.487603"
     inkscape:cy="51.9242"
     inkscape:window-width="795"
     inkscape:window-height="724"
     inkscape:window-x="219"
     inkscape:window-y="9"
     inkscape:current-layer="svg604"
     showgrid="false" />
  <path
     style="fill:#000000;fill-rule:evenodd;stroke:none;stroke-opacity:1;stroke-width:1pt;stroke-linejoin:miter;stroke-linecap:butt;fill-opacity:0.301471;"
     d="M 12.8163 74.753 C 10.3856 73.6481 7.07107 70.1126 8.83884 65.2512 C 9.72267 59.948 25.6326 13.1021 29.1682 10.8924 C 31.3778 8.90368 34.582 8.13026 39.1119 9.34561 C 42.8684 10.2295 76.6769 19.0684 78.6656 20.8361 C 80.6544 22.6039 82.2012 24.0402 80.6544 27.9072 C 79.5496 29.8959 66.4017 74.532 66.1808 77.4047 C 65.2969 80.4983 62.7558 84.2548 58.5573 84.0338 C 54.3589 83.8128 15.9099 75.4159 12.8163 74.753 z "
     id="path794"
     sodipodi:nodetypes="ccccccccc"
     transform="matrix(1.114903,0.000000,0.000000,1.114903,-5.305332,-3.889256)" />
  <path
     style="fill:#3d4e67;fill-rule:evenodd;stroke:none;stroke-opacity:1;stroke-width:1pt;stroke-linejoin:miter;stroke-linecap:butt;fill-opacity:1;"
     d="M 12.8163 74.753 C 10.3856 73.6481 7.07107 70.1126 8.83884 65.2512 C 9.72267 59.948 25.6326 13.1021 29.1682 10.8924 C 31.3778 8.90368 34.582 8.13026 39.1119 9.34561 C 42.8684 10.2295 76.6769 19.0684 78.6656 20.8361 C 80.6544 22.6039 82.2012 24.0402 80.6544 27.9072 C 79.5496 29.8959 66.4017 74.532 66.1808 77.4047 C 65.2969 80.4983 62.7558 84.2548 58.5573 84.0338 C 54.3589 83.8128 15.9099 75.4159 12.8163 74.753 z "
     id="path609"
     sodipodi:nodetypes="ccccccccc"
     transform="matrix(1.114903,0.000000,0.000000,1.114903,-8.162471,-8.460684)" />
  <path
     style="fill:#ffffff;fill-rule:evenodd;stroke:none;stroke-opacity:1;stroke-width:1pt;stroke-linejoin:miter;stroke-linecap:butt;fill-opacity:1;"
     d="M 17.8987 70.9965 C 15.3576 70.3336 11.7114 69.6706 13.0373 65.6932 C 15.468 55.9705 27.8424 18.6264 33.1456 13.986 C 34.361 12.8811 38.4489 12.4392 46.1829 14.8699 C 55.0218 17.5215 72.9204 23.4877 74.6882 24.3716 C 76.4559 25.2555 77.1189 25.2555 75.793 29.233 C 73.8043 33.2105 64.9655 67.24 62.7557 72.9852 C 61.209 77.0732 60.8775 78.9514 58.2258 78.9514 "
     id="path608"
     sodipodi:nodetypes="cccccccs"
     transform="matrix(1.114903,0.000000,0.000000,1.114903,-8.162471,-8.460684)" />
  <path
     style="fill:url(#linearGradient615);fill-rule:evenodd;stroke:none;stroke-opacity:1;stroke-width:1pt;stroke-linejoin:miter;stroke-linecap:butt;fill-opacity:1;"
     d="M 28.75 13.75 C 28.75 13.75 31.875 7.49995 39.6875 9.37495 C 47.5 11.25 78.125 19.375 77.8125 21.875 C 77.5 24.375 71.875 39.0625 71.5625 40.3125 C 71.25 41.5625 42.5 40.9375 31.5625 47.5 C 20.625 54.0625 12.5 59.6875 12.5 59.6875 C 12.5 59.6875 23.75 24.6875 28.75 13.75 z "
     id="path636"
     transform="matrix(0.946780,0.000000,0.000000,0.946780,-0.480566,0.409517)" />
  <g
     id="g3991"
     transform="matrix(0.5715658,0,0,0.5715658,2.5697009,2.84838)">
    <path
       style="font-size:12px;fill:#000000;fill-opacity:0.29411765;fill-rule:evenodd;stroke-width:1pt"
       d="M 74.580203,39.476731 C 56.222573,39.500217 38.405637,51.98936 32.611453,70.070482 C 25.989497,90.734724 37.566884,110.92936 58.455203,115.13298 C 79.343416,119.33658 101.677,105.98473 108.29895,85.320482 C 114.92088,64.65634 103.34342,44.461578 82.455203,40.257981 C 79.844163,39.732529 77.202722,39.473376 74.580203,39.476731 z M 68.517703,67.914232 C 69.076179,67.913539 69.649171,67.961896 70.205203,68.070482 C 74.653435,68.939167 77.115361,73.112689 75.705203,77.382982 C 74.295036,81.653295 69.528434,84.439167 65.080203,83.570482 C 60.63195,82.701792 58.170038,78.528296 59.580203,74.257982 C 60.814091,70.521474 64.608371,67.919084 68.517703,67.914232 z"
       id="path2421" />
    <path
       id="path613"
       d="M 69.33924,33.15143 C 50.98161,33.174916 33.164673,45.664058 27.37049,63.74518 C 20.748533,84.409422 32.32592,104.60406 53.21424,108.80768 C 74.102453,113.01128 96.436036,99.659424 103.05799,78.99518 C 109.67991,58.331038 98.102454,38.136276 77.21424,33.93268 C 74.6032,33.407227 71.961759,33.148075 69.33924,33.15143 z M 63.27674,61.58893 C 63.835216,61.588237 64.408208,61.636594 64.96424,61.74518 C 69.412472,62.613865 71.874398,66.787387 70.46424,71.05768 C 69.054073,75.327993 64.287471,78.113865 59.83924,77.24518 C 55.390987,76.37649 52.929075,72.202994 54.33924,67.93268 C 55.573128,64.196172 59.367408,61.593782 63.27674,61.58893 z"
       style="font-size:12px;fill:#143c69;fill-rule:evenodd;stroke-width:1pt" />
    <path
       id="path612"
       d="M 68.49549,37.83893 C 52.449585,37.859531 36.903773,48.81978 31.83924,64.68268 C 26.051173,82.811796 36.143826,100.52602 54.40174,104.21393 C 72.659559,107.90183 92.176171,96.186794 97.96424,78.05768 C 103.75228,59.928652 93.659557,42.214326 75.40174,38.52643 C 73.119501,38.06544 70.787762,37.835987 68.49549,37.83893 z M 64.08924,56.90143 C 64.957323,56.900325 65.818706,56.97838 66.68299,57.15143 C 73.597226,58.535825 77.437407,65.189752 75.24549,71.99518 C 73.053563,78.80064 65.659725,83.223326 58.74549,81.83893 C 51.83122,80.454529 47.991063,73.800641 50.18299,66.99518 C 52.100918,61.040432 58.012659,56.909162 64.08924,56.90143 z"
       style="font-size:12px;fill:#ffffff;fill-rule:evenodd;stroke-width:1pt" />
    <path
       id="path562"
       d="M 65.71424,40.83893 C 56.366134,40.628105 43.18299,50.90143 43.18299,50.90143 C 43.18299,50.90143 49.105402,61.77681 51.02674,64.96393 C 53.501146,60.115641 58.727045,56.908253 64.08924,56.90143 C 64.957323,56.900325 65.818706,56.97838 66.68299,57.15143 C 66.932106,57.201309 67.160743,57.275609 67.40174,57.33893 L 66.62049,40.90143 C 66.327521,40.872132 66.015792,40.845731 65.71424,40.83893 z M 63.27674,61.58893 C 60.8567,61.591934 58.497256,62.598516 56.74549,64.24518 C 59.946697,63.175455 62.213211,62.393662 64.40174,61.65143 C 64.026343,61.605109 63.648558,61.588469 63.27674,61.58893 z"
       style="fill:url(#linearGradient3998);fill-opacity:1;fill-rule:evenodd;stroke:none;stroke-width:1pt;stroke-linecap:butt;stroke-linejoin:miter;stroke-opacity:1" />
    <path
       id="path557"
       d="M 73.08924,76.08893 C 69.809107,80.452165 64.139925,82.919025 58.74549,81.83893 C 58.432823,81.776327 58.139061,81.703861 57.83924,81.62018 L 53.30799,103.96393 C 53.671513,104.05015 54.031435,104.13913 54.40174,104.21393 C 59.94573,105.33376 65.607729,105.02659 70.96424,103.55768 C 74.162662,102.51435 78.052205,100.74715 83.02674,97.90143 C 83.411575,97.635497 83.807351,97.368245 84.18299,97.08893 C 84.188253,97.081488 84.177845,97.065215 84.18299,97.05768 C 86.353072,93.879638 78.124948,82.524388 73.08924,76.08893 z"
       style="fill:url(#linearGradient4000);fill-opacity:1;fill-rule:evenodd;stroke:none;stroke-width:1pt;stroke-linecap:butt;stroke-linejoin:miter;stroke-opacity:1" />
  </g>
  <g
     id="g4655"
     transform="matrix(2.6726989,0,0,2.6726989,9.452042,9.628493)">
    <path
       sodipodi:nodetypes="csscssscssscssscs"
       id="path584"
       d="m 14.230456,18.757556 c -0.676682,-0.013059 -0.946923,1.93754 -0.946923,2.614346 0,0.676807 0.270148,2.567937 0.946923,2.561264 l 4.726329,-0.046599 0.0131,4.861961 c 0.001823,0.676806 1.831371,0.890745 2.508181,0.890745 0.676806,0 2.405006,-0.213944 2.402008,-0.890745 l -0.021832,-4.934631 4.685333,0.066187 c 0.67674,0.009555 1.238285,-1.831375 1.238285,-2.508182 0,-0.676806 -0.455329,-2.396734 -1.132119,-2.402015 l -5.039452,-0.039297 -0.101801,-4.842718 c -0.014224,-0.676658 -1.353616,-0.983344 -2.030422,-0.983344 -0.67681,0 -2.398841,0.412709 -2.402013,1.089511 l -0.021832,4.656582 z"
       style="font-size:12px;fill:#0d3d07;fill-rule:evenodd;stroke:#0d3d07;stroke-width:0.26984996" />
    <path
       sodipodi:nodetypes="csscssscssscssscs"
       id="path589"
       d="m 14.700826,19.599684 c -0.449181,0.000799 -0.761731,1.323035 -0.761731,1.772218 0,0.449183 0.206382,1.665673 0.655563,1.66605 l 5.152486,0.004304 0.008695,5.504413 c 0.000711,0.449183 1.163783,0.619144 1.612965,0.619144 0.44918,0 1.720315,-0.116878 1.719133,-0.566061 l -0.014489,-5.517412 5.215186,-0.044388 c 0.449166,-0.003825 0.764822,-1.216867 0.764822,-1.66605 0,-0.449183 -0.368773,-1.65942 -0.817909,-1.666049 l -5.362844,-0.07917 0.055986,-5.227694 c 0.004807,-0.449157 -1.110705,-0.602478 -1.559885,-0.602478 -0.449182,0 -1.597788,0.206638 -1.612965,0.655562 l -0.173742,5.138913 z"
       style="font-size:12px;fill:#2aaf18;fill-opacity:1;fill-rule:evenodd;stroke:none" />
    <path
       sodipodi:nodetypes="cssscsssss"
       id="path592"
       d="m 21.781987,22.556248 0.040858,5.775348 c 0.00162,0.22918 0.057745,0.400623 0.286928,0.400623 0.229183,0 0.689288,-0.171443 0.68755,-0.400623 l -0.043813,-5.781983 5.727703,0.040858 c 0.229178,0.001636 0.437044,-0.458367 0.437044,-0.687548 0,-0.229186 -0.207866,-0.284938 -0.437044,-0.286931 l -5.721787,-0.049729 c -0.652562,-0.005672 -0.982055,0.337412 -0.977439,0.989985 z"
       style="font-size:12px;fill:#208c11;fill-opacity:1;fill-rule:evenodd;stroke:none" />
    <path
       sodipodi:nodetypes="cssscsssss"
       id="path3559"
       d="m 21.142896,20.056349 -0.004437,-5.520408 c -0.000183,-0.229183 -0.094164,-0.400622 -0.323348,-0.400622 -0.229186,0 -0.687857,0.171439 -0.687551,0.400622 l 0.007394,5.52704 -5.399921,-0.040857 c -0.229177,-0.001734 -0.437041,0.458369 -0.437041,0.687553 0,0.229183 0.207868,0.284819 0.437041,0.286931 l 5.394005,0.049726 c 0.652561,0.006016 1.014383,-0.337399 1.013858,-0.989985 z"
       style="font-size:12px;fill:#ebf8e9;fill-opacity:1;fill-rule:evenodd;stroke:none" />
  </g>
</svg>
