<?xml version="1.0" encoding="UTF-8" standalone="no"?>
<!DOCTYPE svg PUBLIC "-//W3C//DTD SVG 20010904//EN"
"http://www.w3.org/TR/2001/REC-SVG-20010904/DTD/svg10.dtd">
<!-- Created with Sodipodi ("http://www.sodipodi.com/") -->
<svg
   id="svg848"
   sodipodi:version="0.32"
   width="24.000000pt"
   height="24.000000pt"
   sodipodi:docbase="/home/zeus/.icons/gartoon/scalable/stock-gar"
   sodipodi:docname="stock_mail-forward.svg"
   inkscape:version="0.40"
   xmlns="http://www.w3.org/2000/svg"
   xmlns:inkscape="http://www.inkscape.org/namespaces/inkscape"
   xmlns:sodipodi="http://sodipodi.sourceforge.net/DTD/sodipodi-0.dtd"
   xmlns:xlink="http://www.w3.org/1999/xlink"
   xmlns:rdf="http://www.w3.org/1999/02/22-rdf-syntax-ns#"
   xmlns:cc="http://web.resource.org/cc/"
   xmlns:dc="http://purl.org/dc/elements/1.1/">
  <metadata
     id="metadata38">
    <rdf:RDF
       id="RDF39">
      <cc:Work
         rdf:about=""
         id="Work40">
        <dc:format
           id="format41">image/svg+xml</dc:format>
        <dc:type
           id="type43"
           rdf:resource="http://purl.org/dc/dcmitype/StillImage" />
      </cc:Work>
    </rdf:RDF>
  </metadata>
  <defs
     id="defs850">
    <linearGradient
       id="linearGradient658">
      <stop
         style="stop-color:#ffff32;stop-opacity:1;"
         offset="0"
         id="stop659" />
      <stop
         style="stop-color:#ffad00;stop-opacity:1;"
         offset="1"
         id="stop660" />
    </linearGradient>
    <linearGradient
       id="linearGradient867">
      <stop
         style="stop-color:#92b5d7;stop-opacity:0.780392;"
         offset="0.000000"
         id="stop868" />
      <stop
         style="stop-color:#ffffff;stop-opacity:0.321569;"
         offset="1.000000"
         id="stop869" />
    </linearGradient>
    <linearGradient
       id="linearGradient860">
      <stop
         style="stop-color:#92b5d7;stop-opacity:1;"
         offset="0.000000"
         id="stop861" />
      <stop
         style="stop-color:#ffffff;stop-opacity:1;"
         offset="1.000000"
         id="stop862" />
    </linearGradient>
    <linearGradient
       xlink:href="#linearGradient860"
       id="linearGradient863"
       x1="37.1263046"
       y1="43.8387909"
       x2="68.4099197"
       y2="44.9346657"
       gradientUnits="userSpaceOnUse"
       gradientTransform="scale(1.036866,0.964444)"
       spreadMethod="reflect" />
    <radialGradient
       xlink:href="#linearGradient658"
       id="radialGradient864"
       r="35.8405914"
       fy="37.0078964"
       fx="52.7579117"
       cy="37.0078964"
       cx="52.7579117"
       spreadMethod="reflect"
       gradientTransform="matrix(1.036866,0,0,0.964444,1.409599e-6,3.093137e-8)"
       gradientUnits="userSpaceOnUse" />
    <linearGradient
       xlink:href="#linearGradient867"
       id="linearGradient866"
       x1="38.6465225"
       y1="64.3994370"
       x2="39.4948082"
       y2="29.9777260"
       gradientUnits="userSpaceOnUse"
       spreadMethod="pad"
       gradientTransform="scale(1.261031,0.793002)" />
    <linearGradient
       xlink:href="#linearGradient867"
       id="linearGradient871"
       x1="28.1977272"
       y1="108.285172"
       x2="33.4352608"
       y2="93.4385986"
       gradientUnits="userSpaceOnUse"
       spreadMethod="pad"
       gradientTransform="scale(1.520920,0.657497)" />
    <sodipodi:namedview
       id="namedview863"
       inkscape:zoom="9.65625000"
       inkscape:cx="16.0000000"
       inkscape:cy="20.1423948"
       inkscape:window-width="1014"
       inkscape:window-height="696"
       inkscape:window-x="0"
       inkscape:window-y="0" />
    <defs
       id="defs550">
      <linearGradient
         x1="0.00000000"
         y1="0.00000000"
         x2="1.00000000"
         y2="0.00000000"
         id="linearGradient556"
         gradientUnits="objectBoundingBox"
         spreadMethod="pad">
        <stop
           style="stop-color:#ff8700;stop-opacity:1;"
           offset="0.00000000"
           id="stop557" />
        <stop
           style="stop-color:#ffff8d;stop-opacity:0;"
           offset="1.00000000"
           id="stop558" />
      </linearGradient>
      <linearGradient
         x1="0.00000000"
         y1="0.00000000"
         x2="1.00000000"
         y2="0.00000000"
         id="linearGradient559"
         xlink:href="#linearGradient556"
         gradientUnits="objectBoundingBox"
         spreadMethod="pad" />
    </defs>
  </defs>
  <sodipodi:namedview
     id="base"
     inkscape:zoom="2.0255662"
     inkscape:cx="23.999998"
     inkscape:cy="21.596096"
     inkscape:window-width="1014"
     inkscape:window-height="686"
     inkscape:window-x="0"
     inkscape:window-y="25"
     showguides="true"
     snaptoguides="true"
     inkscape:current-layer="svg848" />
  <g
     id="g852"
     transform="matrix(0.273978,0.000000,0.000000,0.273978,1.767065,-0.194027)">
    <path
       style="font-size:12.000000;fill:#000000;fill-opacity:0.29999998;fill-rule:evenodd;stroke-width:1.0000000pt"
       d="M 11.269500,13.544100 C 10.857600,13.544100 9.2958000,56.382400 12.389300,59.696900 C 21.043600,69.807900 74.909100,82.708000 76.235000,80.719200 C 77.560800,78.730500 87.002500,39.528500 83.466900,36.876900 C 72.929000,23.721700 12.595300,10.229500 11.269500,13.544100 z "
       id="path914"
       transform="matrix(1.124488,0.000000,0.000000,1.124488,-6.542840,-1.654100)"
       sodipodi:nodetypes="ccccc" />
    <path
       style="font-size:12.000000;fill:#3d4e67;fill-rule:evenodd;stroke-width:1.0000000pt"
       d="M 11.269500,13.544100 C 10.857600,13.544100 9.2958000,56.382400 12.389300,59.696900 C 21.043600,69.807900 74.909100,82.708000 76.235000,80.719200 C 77.560800,78.730500 87.002500,39.528500 83.466900,36.876900 C 72.929000,23.721700 12.595300,10.229500 11.269500,13.544100 z "
       id="path859"
       transform="matrix(1.124488,0.000000,0.000000,1.124488,-10.96226,-8.946139)"
       sodipodi:nodetypes="ccccc" />
    <path
       style="font-size:12.000000;fill:url(#linearGradient863);stroke-width:1.0000000pt"
       d="M 11.269500,13.544100 C 11.269500,13.544100 9.5017500,55.970500 12.595300,59.285000 C 15.688900,62.599600 74.909100,82.708000 76.235000,80.719200 C 77.560800,78.730500 86.178700,38.292800 82.643100,35.641200 C 79.107600,32.989500 12.595300,10.229500 11.269500,13.544100 z "
       id="path856"
       transform="translate(-5.082326,-3.093586)" />
    <path
       style="font-size:12.000000;fill:#3d4e67;fill-rule:evenodd;stroke-width:1.0000000pt"
       d="M 13.921200,59.948000 C 13.258200,60.169000 27.621300,56.412400 32.482800,53.097800 C 32.924700,52.876900 42.868400,53.539800 45.962000,56.633400 C 49.055500,59.727000 68.280000,76.078900 74.467200,80.719200 C 64.302600,80.056300 21.434100,72.985200 13.921200,59.948000 z "
       id="path855"
       sodipodi:nodetypes="ccccc"
       transform="translate(-5.082326,-3.093586)" />
    <path
       style="font-size:12.000000;fill:#ffffff;fill-rule:evenodd;stroke-width:1.0000000pt"
       d="M 13.921200,59.948000 C 14.142100,59.948000 28.284200,57.959200 33.145700,54.644600 C 33.587600,54.423700 42.868400,54.202700 45.962000,57.296300 C 49.055500,60.389900 72.699400,80.498300 74.467200,80.719200 C 76.235000,80.940200 19.445400,68.786800 13.921200,59.948000 z "
       id="path858"
       sodipodi:nodetypes="ccccc"
       transform="matrix(0.837680,0.000000,0.000000,0.837680,0.105843,7.220649)" />
    <path
       style="font-size:12.000000;fill:#3d4e67;fill-rule:evenodd;stroke-width:1.0000000pt"
       d="M 81.759300,35.420200 C 81.759300,35.420200 39.774700,60.169000 36.018200,56.854400 C 27.621300,48.899400 11.048500,13.102100 11.711500,12.439200 C 14.142200,10.450500 64.965400,20.173200 81.759300,35.420200 z "
       id="path854"
       sodipodi:nodetypes="cccc"
       transform="translate(-5.082326,-3.093586)" />
    <path
       style="font-size:12.000000;fill:#ffffff;fill-rule:evenodd;stroke-width:1.0000000pt"
       d="M 84.039300,35.673500 C 81.759300,36.686900 39.774700,60.169000 36.018200,56.854400 C 27.621300,48.899400 10.288500,12.088800 10.951500,11.425900 C 13.382200,9.4371800 65.978700,20.933200 84.039300,35.673500 z "
       id="path857"
       sodipodi:nodetypes="cccc"
       transform="matrix(0.872265,0.000000,0.000000,0.872265,0.223256,0.893154)" />
    <path
       style="font-size:12.000000;fill:url(#linearGradient866);fill-rule:evenodd;stroke-width:1.0000000pt"
       d="M 84.039300,35.673500 C 81.759300,36.686900 39.774700,60.169000 36.018200,56.854400 C 27.621300,48.899400 10.288500,12.088800 10.951500,11.425900 C 13.382200,9.4371800 65.978700,20.933200 84.039300,35.673500 z "
       id="path865"
       sodipodi:nodetypes="cccc"
       transform="matrix(0.872265,0.000000,0.000000,0.872265,0.223256,0.893154)" />
    <path
       style="font-size:12.000000;fill:url(#linearGradient871);fill-rule:evenodd;stroke-width:1.0000000pt"
       d="M 13.921200,59.948000 C 14.142100,59.948000 28.284200,57.959200 33.145700,54.644600 C 33.587600,54.423700 42.868400,54.202700 45.962000,57.296300 C 49.055500,60.389900 72.699400,80.498300 74.467200,80.719200 C 76.235000,80.940200 19.445400,68.786800 13.921200,59.948000 z "
       id="path870"
       sodipodi:nodetypes="ccccc"
       transform="matrix(0.837680,0.000000,0.000000,0.837680,0.105843,7.220649)" />
  </g>
  <path
     d="M 26.827694,22.749844 C 26.489998,24.300310 20.372965,30.217448 19.142365,29.577588 C 16.820541,28.892294 17.441695,26.615354 16.547490,26.161535 C 15.625259,25.874635 10.669191,26.678086 10.009522,25.698416 C 9.0611610,23.571676 8.8852058,19.594009 11.147461,18.529092 C 13.476252,17.887401 17.299093,19.110034 17.675280,17.972550 C 18.051469,16.835065 18.898657,16.203706 19.599141,16.329066 C 20.299626,16.454426 27.435224,21.139417 26.827694,22.749844 z "
     style="fill:#437caf;fill-opacity:1.0000000;fill-rule:evenodd;stroke-width:1.0000000pt"
     id="path582" />
  <path
     d="M 24.810571,22.747031 C 24.614756,23.916022 20.597391,28.015955 19.590171,27.469569 C 18.582908,26.923151 18.951760,25.130745 18.205969,24.868494 C 17.460135,24.606210 11.541796,24.885447 11.453477,23.977885 C 11.365084,23.070336 10.988999,19.985710 11.896517,19.897360 C 12.804109,19.808999 18.676978,20.620975 18.922644,19.769353 C 19.168311,18.917730 19.018757,17.965626 19.580937,18.094120 C 20.143119,18.222613 25.217891,21.544818 24.810571,22.747031 z "
     style="fill:#bae6ff;fill-opacity:1.0000000;fill-rule:evenodd;stroke-width:1.0000000pt"
     id="path581" />
  <path
     d="M 11.387009,23.554727 C 11.387009,23.554727 11.308335,24.434319 12.354952,24.540919 C 13.401493,24.647531 18.384314,24.623681 18.495367,24.985635 C 18.555749,26.060145 19.322611,27.836757 20.001976,27.675883 C 21.210246,27.431892 24.776484,23.565420 24.888392,22.897407 C 25.000225,22.229406 21.278421,25.795114 20.193337,25.098321 C 19.108254,24.401529 19.482382,22.987769 18.602790,22.909094 C 17.723241,22.830452 11.671953,22.263299 11.526812,22.719734 C 11.381702,23.176125 11.587236,23.794275 11.387009,23.554727 z "
     style="fill:#31baff;fill-opacity:1.0000000;fill-rule:evenodd;stroke-width:1.0000000pt"
     id="path583" />
  <path
     d="M 11.858688,20.806694 C 11.858688,20.806694 18.367168,20.488971 18.645255,20.878931 C 18.923299,21.268857 13.377473,22.194169 11.858688,20.806694 z "
     style="font-size:12.000000;fill:#ffffff;fill-rule:evenodd;stroke-width:1.0000000pt"
     id="path588" />
  <path
     d="M 23.794231,21.912995 C 23.794231,21.912995 21.290910,19.433533 20.667480,19.260426 C 20.044090,19.087356 20.393854,20.279029 20.393854,20.279029 C 20.393854,20.279029 23.560774,21.461864 23.794231,21.912995 z "
     style="font-size:12.000000;fill:#ffffff;fill-rule:evenodd;stroke-width:1.0000000pt"
     id="path589" />
</svg>
