<?xml version="1.0" encoding="UTF-8" standalone="no"?>
<!DOCTYPE svg PUBLIC "-//W3C//DTD SVG 20010904//EN"
"http://www.w3.org/TR/2001/REC-SVG-20010904/DTD/svg10.dtd">
<!-- Created with Sodipodi ("http://www.sodipodi.com/") -->
<svg
   id="svg848"
   sodipodi:version="0.32"
   width="24.000000pt"
   height="24.000000pt"
   sodipodi:docbase="/home/zeus/.icons/gartoon/scalable/stock-gar"
   sodipodi:docname="stock_mail-reply-all.svg"
   inkscape:version="0.40"
   xmlns="http://www.w3.org/2000/svg"
   xmlns:inkscape="http://www.inkscape.org/namespaces/inkscape"
   xmlns:sodipodi="http://sodipodi.sourceforge.net/DTD/sodipodi-0.dtd"
   xmlns:xlink="http://www.w3.org/1999/xlink"
   xmlns:rdf="http://www.w3.org/1999/02/22-rdf-syntax-ns#"
   xmlns:cc="http://web.resource.org/cc/"
   xmlns:dc="http://purl.org/dc/elements/1.1/">
  <metadata
     id="metadata46">
    <rdf:RDF
       id="RDF47">
      <cc:Work
         rdf:about=""
         id="Work48">
        <dc:format
           id="format49">image/svg+xml</dc:format>
        <dc:type
           id="type51"
           rdf:resource="http://purl.org/dc/dcmitype/StillImage" />
      </cc:Work>
    </rdf:RDF>
  </metadata>
  <defs
     id="defs850">
    <linearGradient
       id="linearGradient658">
      <stop
         style="stop-color:#ffff32;stop-opacity:1;"
         offset="0"
         id="stop659" />
      <stop
         style="stop-color:#ffad00;stop-opacity:1;"
         offset="1"
         id="stop660" />
    </linearGradient>
    <linearGradient
       id="linearGradient867">
      <stop
         style="stop-color:#92b5d7;stop-opacity:0.780392;"
         offset="0.000000"
         id="stop868" />
      <stop
         style="stop-color:#ffffff;stop-opacity:0.321569;"
         offset="1.000000"
         id="stop869" />
    </linearGradient>
    <linearGradient
       id="linearGradient860">
      <stop
         style="stop-color:#92b5d7;stop-opacity:1;"
         offset="0.000000"
         id="stop861" />
      <stop
         style="stop-color:#ffffff;stop-opacity:1;"
         offset="1.000000"
         id="stop862" />
    </linearGradient>
    <linearGradient
       xlink:href="#linearGradient860"
       id="linearGradient863"
       x1="37.1263046"
       y1="43.8387909"
       x2="68.4099197"
       y2="44.9346657"
       gradientUnits="userSpaceOnUse"
       gradientTransform="scale(1.036866,0.964444)"
       spreadMethod="reflect" />
    <radialGradient
       xlink:href="#linearGradient658"
       id="radialGradient864"
       r="35.8405914"
       fy="37.0078964"
       fx="52.7579117"
       cy="37.0078964"
       cx="52.7579117"
       spreadMethod="reflect"
       gradientTransform="matrix(1.036866,0,0,0.964444,1.409599e-6,3.093137e-8)"
       gradientUnits="userSpaceOnUse" />
    <linearGradient
       xlink:href="#linearGradient867"
       id="linearGradient866"
       x1="38.6465225"
       y1="64.3994370"
       x2="39.4948082"
       y2="29.9777260"
       gradientUnits="userSpaceOnUse"
       spreadMethod="pad"
       gradientTransform="scale(1.261031,0.793002)" />
    <linearGradient
       xlink:href="#linearGradient867"
       id="linearGradient871"
       x1="28.1977272"
       y1="108.285172"
       x2="33.4352608"
       y2="93.4385986"
       gradientUnits="userSpaceOnUse"
       spreadMethod="pad"
       gradientTransform="scale(1.520920,0.657497)" />
    <sodipodi:namedview
       id="namedview863"
       inkscape:zoom="9.65625000"
       inkscape:cx="16.0000000"
       inkscape:cy="20.1423948"
       inkscape:window-width="1014"
       inkscape:window-height="696"
       inkscape:window-x="0"
       inkscape:window-y="0" />
    <defs
       id="defs550">
      <linearGradient
         x1="0.00000000"
         y1="0.00000000"
         x2="1.00000000"
         y2="0.00000000"
         id="linearGradient556"
         gradientUnits="objectBoundingBox"
         spreadMethod="pad">
        <stop
           style="stop-color:#ff8700;stop-opacity:1;"
           offset="0.00000000"
           id="stop557" />
        <stop
           style="stop-color:#ffff8d;stop-opacity:0;"
           offset="1.00000000"
           id="stop558" />
      </linearGradient>
      <linearGradient
         x1="0.00000000"
         y1="0.00000000"
         x2="1.00000000"
         y2="0.00000000"
         id="linearGradient559"
         xlink:href="#linearGradient556"
         gradientUnits="objectBoundingBox"
         spreadMethod="pad" />
    </defs>
    <linearGradient
       inkscape:collect="always"
       xlink:href="#linearGradient867"
       id="linearGradient1102"
       gradientUnits="userSpaceOnUse"
       gradientTransform="matrix(0.352132,0.000000,0.000000,0.152227,1.279635,0.843525)"
       spreadMethod="pad"
       x1="28.1977272"
       y1="108.285172"
       x2="33.4352608"
       y2="93.4385986" />
    <linearGradient
       inkscape:collect="always"
       xlink:href="#linearGradient867"
       id="linearGradient1103"
       gradientUnits="userSpaceOnUse"
       gradientTransform="matrix(0.304015,0.000000,0.000000,0.191180,1.312087,-0.905326)"
       spreadMethod="pad"
       x1="38.6465225"
       y1="64.3994370"
       x2="39.4948082"
       y2="29.9777260" />
    <linearGradient
       inkscape:collect="always"
       xlink:href="#linearGradient860"
       id="linearGradient1104"
       gradientUnits="userSpaceOnUse"
       gradientTransform="matrix(0.286578,0.000000,0.000000,0.266562,-0.154318,-2.007218)"
       spreadMethod="reflect"
       x1="37.1263046"
       y1="43.8387909"
       x2="68.4099197"
       y2="44.9346657" />
  </defs>
  <sodipodi:namedview
     id="base"
     inkscape:zoom="2.8645833"
     inkscape:cx="39.132508"
     inkscape:cy="24.000001"
     inkscape:window-width="1014"
     inkscape:window-height="686"
     inkscape:window-x="0"
     inkscape:window-y="25"
     inkscape:current-layer="svg848" />
  <g
     id="g859"
     transform="matrix(0.276389,0.000000,0.000000,0.276389,5.112692,3.794318)">
    <path
       style="font-size:12.000000;fill:#000000;fill-opacity:0.29999998;fill-rule:evenodd;stroke-width:1.0000000pt"
       d="M 11.269500,13.544100 C 10.857600,13.544100 9.2958000,56.382400 12.389300,59.696900 C 21.043600,69.807900 74.909100,82.708000 76.235000,80.719200 C 77.560800,78.730500 87.002500,39.528500 83.466900,36.876900 C 72.929000,23.721700 12.595300,10.229500 11.269500,13.544100 z "
       id="path860"
       transform="matrix(1.124488,0.000000,0.000000,1.124488,-6.542840,-1.654100)"
       sodipodi:nodetypes="ccccc" />
    <path
       style="font-size:12.000000;fill:#3d4e67;fill-rule:evenodd;stroke-width:1.0000000pt"
       d="M 11.269500,13.544100 C 10.857600,13.544100 9.2958000,56.382400 12.389300,59.696900 C 21.043600,69.807900 74.909100,82.708000 76.235000,80.719200 C 77.560800,78.730500 87.002500,39.528500 83.466900,36.876900 C 72.929000,23.721700 12.595300,10.229500 11.269500,13.544100 z "
       id="path861"
       transform="matrix(1.124488,0.000000,0.000000,1.124488,-10.96226,-8.946139)"
       sodipodi:nodetypes="ccccc" />
    <path
       style="font-size:12.000000;fill:url(#linearGradient863);stroke-width:1.0000000pt"
       d="M 11.269500,13.544100 C 11.269500,13.544100 9.5017500,55.970500 12.595300,59.285000 C 15.688900,62.599600 74.909100,82.708000 76.235000,80.719200 C 77.560800,78.730500 86.178700,38.292800 82.643100,35.641200 C 79.107600,32.989500 12.595300,10.229500 11.269500,13.544100 z "
       id="path862"
       transform="translate(-5.082326,-3.093586)" />
    <path
       style="font-size:12.000000;fill:#3d4e67;fill-rule:evenodd;stroke-width:1.0000000pt"
       d="M 13.921200,59.948000 C 13.258200,60.169000 27.621300,56.412400 32.482800,53.097800 C 32.924700,52.876900 42.868400,53.539800 45.962000,56.633400 C 49.055500,59.727000 68.280000,76.078900 74.467200,80.719200 C 64.302600,80.056300 21.434100,72.985200 13.921200,59.948000 z "
       id="path863"
       sodipodi:nodetypes="ccccc"
       transform="translate(-5.082326,-3.093586)" />
    <path
       style="font-size:12.000000;fill:#ffffff;fill-rule:evenodd;stroke-width:1.0000000pt"
       d="M 13.921200,59.948000 C 14.142100,59.948000 28.284200,57.959200 33.145700,54.644600 C 33.587600,54.423700 42.868400,54.202700 45.962000,57.296300 C 49.055500,60.389900 72.699400,80.498300 74.467200,80.719200 C 76.235000,80.940200 19.445400,68.786800 13.921200,59.948000 z "
       id="path864"
       sodipodi:nodetypes="ccccc"
       transform="matrix(0.837680,0.000000,0.000000,0.837680,0.105843,7.220649)" />
    <path
       style="font-size:12.000000;fill:#3d4e67;fill-rule:evenodd;stroke-width:1.0000000pt"
       d="M 81.759300,35.420200 C 81.759300,35.420200 39.774700,60.169000 36.018200,56.854400 C 27.621300,48.899400 11.048500,13.102100 11.711500,12.439200 C 14.142200,10.450500 64.965400,20.173200 81.759300,35.420200 z "
       id="path866"
       sodipodi:nodetypes="cccc"
       transform="translate(-5.082326,-3.093586)" />
    <path
       style="font-size:12.000000;fill:#ffffff;fill-rule:evenodd;stroke-width:1.0000000pt"
       d="M 84.039300,35.673500 C 81.759300,36.686900 39.774700,60.169000 36.018200,56.854400 C 27.621300,48.899400 10.288500,12.088800 10.951500,11.425900 C 13.382200,9.4371800 65.978700,20.933200 84.039300,35.673500 z "
       id="path867"
       sodipodi:nodetypes="cccc"
       transform="matrix(0.872265,0.000000,0.000000,0.872265,0.223256,0.893154)" />
    <path
       style="font-size:12.000000;fill:url(#linearGradient866);fill-rule:evenodd;stroke-width:1.0000000pt"
       d="M 84.039300,35.673500 C 81.759300,36.686900 39.774700,60.169000 36.018200,56.854400 C 27.621300,48.899400 10.288500,12.088800 10.951500,11.425900 C 13.382200,9.4371800 65.978700,20.933200 84.039300,35.673500 z "
       id="path868"
       sodipodi:nodetypes="cccc"
       transform="matrix(0.872265,0.000000,0.000000,0.872265,0.223256,0.893154)" />
    <path
       style="font-size:12.000000;fill:url(#linearGradient871);fill-rule:evenodd;stroke-width:1.0000000pt"
       d="M 13.921200,59.948000 C 14.142100,59.948000 28.284200,57.959200 33.145700,54.644600 C 33.587600,54.423700 42.868400,54.202700 45.962000,57.296300 C 49.055500,60.389900 72.699400,80.498300 74.467200,80.719200 C 76.235000,80.940200 19.445400,68.786800 13.921200,59.948000 z "
       id="path869"
       sodipodi:nodetypes="ccccc"
       transform="matrix(0.837680,0.000000,0.000000,0.837680,0.105843,7.220649)" />
  </g>
  <path
     style="font-size:12.000000;fill:#3d4e67;fill-rule:evenodd;stroke-width:1.0000000pt"
     d="M 1.7230505,0.58465602 C 1.5950335,0.58465602 1.1096319,13.898640 2.0710801,14.928774 C 4.7608043,18.071235 21.502001,22.080538 21.914085,21.462426 C 22.326139,20.844346 25.260584,8.6605105 24.161733,7.8364031 C 20.886593,3.7478161 2.1351042,-0.44550928 1.7230505,0.58465602 z "
     id="path859"
     sodipodi:nodetypes="ccccc" />
  <path
     style="font-size:12.000000;fill:url(#linearGradient1104);stroke-width:1.0000000pt"
     d="M 2.9604488,1.7362238 C 2.9604488,1.7362238 2.4718619,13.462419 3.3268854,14.378510 C 4.1819228,15.294630 20.549741,20.852373 20.916205,20.302690 C 21.282642,19.753035 23.664536,8.5764949 22.687335,7.8436216 C 21.710161,7.1107206 3.3268854,0.82010442 2.9604488,1.7362238 z "
     id="path856" />
  <path
     style="font-size:12.000000;fill:#3d4e67;fill-rule:evenodd;stroke-width:1.0000000pt"
     d="M 3.6933498,14.561756 C 3.5101038,14.622838 7.4799082,13.584555 8.8235739,12.668436 C 8.9457102,12.607381 11.694041,12.790600 12.549078,13.645637 C 13.404088,14.500674 18.717530,19.020161 20.427605,20.302690 C 17.618220,20.119472 5.7698335,18.165096 3.6933498,14.561756 z "
     id="path855"
     sodipodi:nodetypes="ccccc" />
  <path
     style="font-size:12.000000;fill:#ffffff;fill-rule:evenodd;stroke-width:1.0000000pt"
     d="M 4.5027492,14.723021 C 4.5538932,14.723021 7.8281515,14.262563 8.9537132,13.495149 C 9.0560244,13.444005 11.204767,13.392837 11.921015,14.109085 C 12.637239,14.825333 18.111407,19.480942 18.520698,19.532086 C 18.929989,19.583253 5.7817430,16.769430 4.5027492,14.723021 z "
     id="path858"
     sodipodi:nodetypes="ccccc" />
  <path
     style="font-size:12.000000;fill:#3d4e67;fill-rule:evenodd;stroke-width:1.0000000pt"
     d="M 22.443062,7.7825396 C 22.443062,7.7825396 10.838976,14.622838 9.8007199,13.706719 C 7.4799082,11.508044 2.8993668,1.6140598 3.0826127,1.4308414 C 3.7544318,0.88118641 17.801411,3.5684348 22.443062,7.7825396 z "
     id="path854"
     sodipodi:nodetypes="cccc" />
  <path
     style="font-size:12.000000;fill:#ffffff;fill-rule:evenodd;stroke-width:1.0000000pt"
     d="M 21.572644,7.6949953 C 21.022972,7.9393101 10.901143,13.600476 9.9955101,12.801378 C 7.9711491,10.883552 3.7924828,2.0090939 3.9523217,1.8492791 C 4.5383254,1.3698299 17.218517,4.1413401 21.572644,7.6949953 z "
     id="path857"
     sodipodi:nodetypes="cccc" />
  <path
     style="font-size:12.000000;fill:url(#linearGradient1103);fill-rule:evenodd;stroke-width:1.0000000pt"
     d="M 21.572644,7.6949953 C 21.022972,7.9393101 10.901143,13.600476 9.9955101,12.801378 C 7.9711491,10.883552 3.7924828,2.0090939 3.9523217,1.8492791 C 4.5383254,1.3698299 17.218517,4.1413401 21.572644,7.6949953 z "
     id="path865"
     sodipodi:nodetypes="cccc" />
  <path
     style="font-size:12.000000;fill:url(#linearGradient1102);fill-rule:evenodd;stroke-width:1.0000000pt"
     d="M 4.5027492,14.723021 C 4.5538932,14.723021 7.8281515,14.262563 8.9537132,13.495149 C 9.0560244,13.444005 11.204767,13.392837 11.921015,14.109085 C 12.637239,14.825333 18.111407,19.480942 18.520698,19.532086 C 18.929989,19.583253 5.7817430,16.769430 4.5027492,14.723021 z "
     id="path870"
     sodipodi:nodetypes="ccccc" />
  <path
     d="M 0.89843203,22.196775 C 1.2390993,23.760885 7.4099640,29.730095 8.6513939,29.084605 C 10.993651,28.393279 10.367029,26.096302 11.269105,25.638490 C 12.199451,25.349065 17.199133,26.159587 17.864607,25.171295 C 18.821314,23.025839 18.998818,19.013168 16.716654,17.938878 C 14.367369,17.291541 10.510887,18.524933 10.131389,17.377439 C 9.7518903,16.229945 8.8972474,15.593030 8.1905978,15.719493 C 7.4839483,15.845956 0.28555557,20.572175 0.89843203,22.196775 z "
     style="fill:#ff933d;fill-opacity:1.0000000;fill-rule:evenodd;stroke-width:1.0000000pt"
     id="path582" />
  <path
     d="M 2.9333057,22.193937 C 3.1308440,23.373215 7.1835629,27.509228 8.1996470,26.958034 C 9.2157744,26.406808 8.8436766,24.598628 9.5960302,24.334069 C 10.348427,24.069477 16.318849,24.351171 16.407946,23.435623 C 16.497117,22.520087 16.876511,19.408316 15.961007,19.319188 C 15.045428,19.230049 9.1208764,20.049172 8.8730482,19.190055 C 8.6252200,18.330937 8.7760895,17.370454 8.2089613,17.500079 C 7.6418331,17.629703 2.5224016,20.981144 2.9333057,22.193937 z "
     style="fill:#ffe6ba;fill-opacity:1.0000000;fill-rule:evenodd;stroke-width:1.0000000pt"
     id="path581" />
  <path
     d="M 16.474999,23.008742 C 16.474999,23.008742 16.554365,23.896074 15.498538,24.003612 C 14.442787,24.111162 9.4161161,24.087101 9.3040844,24.452241 C 9.2431720,25.536207 8.4695615,27.328453 7.7842176,27.166163 C 6.5653155,26.920026 2.9676932,23.019528 2.8548006,22.345636 C 2.7419830,21.671756 6.4965405,25.268844 7.5911730,24.565919 C 8.6858055,23.862995 8.3083846,22.436793 9.1957171,22.357427 C 10.083006,22.278092 16.187547,21.705948 16.333966,22.166399 C 16.480353,22.626807 16.273010,23.250397 16.474999,23.008742 z "
     style="fill:#ffd056;fill-opacity:1.0000000;fill-rule:evenodd;stroke-width:1.0000000pt"
     id="path583" />
  <path
     d="M 15.999168,20.236524 C 15.999168,20.236524 9.4334121,19.916005 9.1528781,20.309396 C 8.8723875,20.702755 14.467019,21.636210 15.999168,20.236524 z "
     style="font-size:12.000000;fill:#ffffff;fill-rule:evenodd;stroke-width:1.0000000pt"
     id="path588" />
  <path
     d="M 3.9585900,21.352561 C 3.9585900,21.352561 6.4839404,18.851280 7.1128569,18.676650 C 7.7417332,18.502056 7.3888908,19.704216 7.3888908,19.704216 C 7.3888908,19.704216 4.1941021,20.897460 3.9585900,21.352561 z "
     style="font-size:12.000000;fill:#ffffff;fill-rule:evenodd;stroke-width:1.0000000pt"
     id="path589" />
</svg>
