<?xml version="1.0" encoding="UTF-8" standalone="no"?>
<!-- Created with Sodipodi ("http://www.sodipodi.com/") -->
<svg
   xmlns:dc="http://purl.org/dc/elements/1.1/"
   xmlns:cc="http://web.resource.org/cc/"
   xmlns:rdf="http://www.w3.org/1999/02/22-rdf-syntax-ns#"
   xmlns:svg="http://www.w3.org/2000/svg"
   xmlns="http://www.w3.org/2000/svg"
   xmlns:xlink="http://www.w3.org/1999/xlink"
   xmlns:sodipodi="http://sodipodi.sourceforge.net/DTD/sodipodi-0.dtd"
   xmlns:inkscape="http://www.inkscape.org/namespaces/inkscape"
   id="svg848"
   sodipodi:version="0.32"
   width="90"
   height="90"
   sodipodi:docbase="/home/tweenk/GNUtoon/stock/net"
   sodipodi:docname="stock_mail-move.svg"
   inkscape:version="0.45.1"
   inkscape:output_extension="org.inkscape.output.svg.inkscape"
   version="1.0">
  <metadata
     id="metadata46">
    <rdf:RDF>
      <cc:Work
         rdf:about="">
        <dc:format>image/svg+xml</dc:format>
        <dc:type
           rdf:resource="http://purl.org/dc/dcmitype/StillImage" />
      </cc:Work>
    </rdf:RDF>
  </metadata>
  <defs
     id="defs850">
    <linearGradient
       id="linearGradient867">
      <stop
         style="stop-color:#92b5d7;stop-opacity:0.780392;"
         offset="0.000000"
         id="stop868" />
      <stop
         style="stop-color:#ffffff;stop-opacity:0.321569;"
         offset="1.000000"
         id="stop869" />
    </linearGradient>
    <linearGradient
       id="linearGradient860">
      <stop
         style="stop-color:#92b5d7;stop-opacity:1;"
         offset="0.000000"
         id="stop861" />
      <stop
         style="stop-color:#ffffff;stop-opacity:1;"
         offset="1.000000"
         id="stop862" />
    </linearGradient>
    <defs
       id="defs550">
      <linearGradient
         x1="0"
         y1="0"
         x2="1"
         y2="0"
         id="linearGradient556"
         gradientUnits="objectBoundingBox"
         spreadMethod="pad">
        <stop
           style="stop-color:#ff8700;stop-opacity:1;"
           offset="0.00000000"
           id="stop557" />
        <stop
           style="stop-color:#ffff8d;stop-opacity:0;"
           offset="1.00000000"
           id="stop558" />
      </linearGradient>
      <linearGradient
         x1="0"
         y1="0"
         x2="1"
         y2="0"
         id="linearGradient559"
         xlink:href="#linearGradient556"
         gradientUnits="objectBoundingBox"
         spreadMethod="pad" />
    </defs>
    <linearGradient
       inkscape:collect="always"
       xlink:href="#linearGradient867"
       id="linearGradient3156"
       gradientUnits="userSpaceOnUse"
       gradientTransform="matrix(0.3521318,0,0,0.1522273,0.9528549,7.0118442)"
       spreadMethod="pad"
       x1="28.197727"
       y1="108.28517"
       x2="33.435261"
       y2="93.438599" />
    <linearGradient
       inkscape:collect="always"
       xlink:href="#linearGradient867"
       id="linearGradient3159"
       gradientUnits="userSpaceOnUse"
       gradientTransform="matrix(0.304015,0,0,0.1911805,0.9853066,5.2629941)"
       spreadMethod="pad"
       x1="38.646523"
       y1="64.399437"
       x2="39.494808"
       y2="29.977726" />
    <linearGradient
       inkscape:collect="always"
       xlink:href="#linearGradient860"
       id="linearGradient3166"
       gradientUnits="userSpaceOnUse"
       gradientTransform="matrix(0.2865784,0,0,0.2665617,-0.4810979,4.1611031)"
       spreadMethod="reflect"
       x1="37.126305"
       y1="43.838791"
       x2="68.40992"
       y2="44.934666" />
  </defs>
  <sodipodi:namedview
     id="base"
     inkscape:zoom="2.8645833"
     inkscape:cx="69.297927"
     inkscape:cy="37.950173"
     inkscape:window-width="1014"
     inkscape:window-height="686"
     inkscape:window-x="5"
     inkscape:window-y="41"
     inkscape:current-layer="svg848"
     width="90px"
     height="90px" />
  <path
     style="font-size:12px;fill:none;fill-rule:evenodd;stroke:#283d53;stroke-width:5.70379925;stroke-miterlimit:4;stroke-dasharray:11.4075985,5.70379925;stroke-dashoffset:18.82253752;stroke-opacity:1"
     d="M 23.521359,6.9143273 C 23.17765,6.9143273 21.874419,42.66039 24.455764,45.426147 C 31.677271,53.863189 76.624888,64.627567 77.731278,62.96803 C 78.837577,61.308574 86.716128,28.596793 83.765874,26.384187 C 74.972611,15.40694 24.627658,4.1484866 23.521359,6.9143273 z "
     id="path2181"
     sodipodi:nodetypes="ccccc" />
  <g
     id="g3171"
     transform="matrix(2.9796347,0,0,2.9796347,0.1469361,-0.2778642)">
    <path
       style="font-size:12px;fill:#000000;fill-opacity:0.3;fill-rule:evenodd;stroke-width:1pt"
       d="M 2.6177487,8.7684147 C 2.4897318,8.7684147 2.0043305,22.082391 2.9657782,23.112525 C 5.6555009,26.254984 22.396688,30.264285 22.808773,29.646174 C 23.220826,29.028093 26.15527,16.844265 25.056419,16.020158 C 21.781281,11.931573 3.0298022,7.7382499 2.6177487,8.7684147 z "
       id="path860"
       sodipodi:nodetypes="ccccc" />
    <path
       style="font-size:12px;fill:#3d4e67;fill-rule:evenodd;stroke-width:1pt"
       d="M 1.3962696,6.7529753 C 1.2682527,6.7529753 0.7828514,20.066952 1.7442991,21.097085 C 4.4340218,24.239545 21.175209,28.248845 21.587294,27.630734 C 21.999347,27.012654 24.933791,14.828825 23.83494,14.004718 C 20.559802,9.9161336 1.8083231,5.7228105 1.3962696,6.7529753 z "
       id="path861"
       sodipodi:nodetypes="ccccc" />
    <path
       style="font-size:12px;fill:url(#linearGradient3166);stroke-width:1pt"
       d="M 2.6336679,7.9045434 C 2.6336679,7.9045434 2.1450813,19.630733 3.0001045,20.546825 C 3.8551415,21.462944 20.222953,27.020684 20.589417,26.471002 C 20.955854,25.921347 23.337747,14.744812 22.360546,14.011939 C 21.383372,13.279038 3.0001045,6.9884244 2.6336679,7.9045434 z "
       id="path862" />
    <path
       style="font-size:12px;fill:#3d4e67;fill-rule:evenodd;stroke-width:1pt"
       d="M 3.3665686,20.730071 C 3.1833227,20.791153 7.1531251,19.75287 8.4967911,18.836751 C 8.6189271,18.775696 11.367256,18.958915 12.222293,19.813952 C 13.077303,20.668989 18.390743,25.188474 20.100817,26.471002 C 17.291433,26.287784 5.4430516,24.333409 3.3665686,20.730071 z "
       id="path863"
       sodipodi:nodetypes="ccccc" />
    <path
       style="font-size:12px;fill:#ffffff;fill-rule:evenodd;stroke-width:1pt"
       d="M 4.1759677,20.891335 C 4.2271117,20.891335 7.5013681,20.430877 8.6269301,19.663462 C 8.7292411,19.612318 10.877983,19.561151 11.59423,20.277399 C 12.310454,20.993646 17.78462,25.649253 18.193911,25.700397 C 18.603201,25.751564 5.4549609,22.937742 4.1759677,20.891335 z "
       id="path864"
       sodipodi:nodetypes="ccccc" />
    <path
       style="font-size:12px;fill:#3d4e67;fill-rule:evenodd;stroke-width:1pt"
       d="M 22.116273,13.950857 C 22.116273,13.950857 10.512192,20.791153 9.4739361,19.875034 C 7.1531251,17.676359 2.572586,7.7823794 2.7558319,7.5991611 C 3.4276506,7.0495063 17.474624,9.7367537 22.116273,13.950857 z "
       id="path866"
       sodipodi:nodetypes="cccc" />
    <path
       style="font-size:12px;fill:#ffffff;fill-rule:evenodd;stroke-width:1pt"
       d="M 21.245879,13.863322 C 20.696206,14.107637 10.57437,19.768807 9.6687361,18.969708 C 7.6443741,17.051881 3.4657045,8.1774164 3.6255435,8.0176015 C 4.2115476,7.5381519 16.891748,10.309664 21.245879,13.863322 z "
       id="path867"
       sodipodi:nodetypes="cccc" />
    <path
       style="font-size:12px;fill:url(#linearGradient3159);fill-rule:evenodd;stroke-width:1pt"
       d="M 21.245879,13.863322 C 20.696206,14.107637 10.57437,19.768807 9.6687361,18.969708 C 7.6443741,17.051881 3.4657045,8.1774164 3.6255435,8.0176015 C 4.2115476,7.5381519 16.891748,10.309664 21.245879,13.863322 z "
       id="path868"
       sodipodi:nodetypes="cccc" />
    <path
       style="font-size:12px;fill:url(#linearGradient3156);fill-rule:evenodd;stroke-width:1pt"
       d="M 4.1759677,20.891335 C 4.2271117,20.891335 7.5013681,20.430877 8.6269301,19.663462 C 8.7292411,19.612318 10.877983,19.561151 11.59423,20.277399 C 12.310454,20.993646 17.78462,25.649253 18.193911,25.700397 C 18.603201,25.751564 5.4549609,22.937742 4.1759677,20.891335 z "
       id="path869"
       sodipodi:nodetypes="ccccc" />
  </g>
</svg>
