<?xml version="1.0" encoding="UTF-8" standalone="no"?>
<!-- Created with Sodipodi ("http://www.sodipodi.com/") -->
<svg
   xmlns:dc="http://purl.org/dc/elements/1.1/"
   xmlns:cc="http://web.resource.org/cc/"
   xmlns:rdf="http://www.w3.org/1999/02/22-rdf-syntax-ns#"
   xmlns:svg="http://www.w3.org/2000/svg"
   xmlns="http://www.w3.org/2000/svg"
   xmlns:xlink="http://www.w3.org/1999/xlink"
   xmlns:sodipodi="http://sodipodi.sourceforge.net/DTD/sodipodi-0.dtd"
   xmlns:inkscape="http://www.inkscape.org/namespaces/inkscape"
   id="svg848"
   sodipodi:version="0.32"
   width="90"
   height="90"
   sodipodi:docbase="/home/tweenk/GNUtoon/stock/net"
   sodipodi:docname="stock_mail-copy.svg"
   inkscape:version="0.45.1"
   inkscape:output_extension="org.inkscape.output.svg.inkscape"
   version="1.0">
  <metadata
     id="metadata46">
    <rdf:RDF>
      <cc:Work
         rdf:about="">
        <dc:format>image/svg+xml</dc:format>
        <dc:type
           rdf:resource="http://purl.org/dc/dcmitype/StillImage" />
        <cc:license
           rdf:resource="http://creativecommons.org/licenses/GPL/2.0/" />
      </cc:Work>
      <cc:License
         rdf:about="http://creativecommons.org/licenses/GPL/2.0/">
        <cc:permits
           rdf:resource="http://web.resource.org/cc/Reproduction" />
        <cc:permits
           rdf:resource="http://web.resource.org/cc/Distribution" />
        <cc:requires
           rdf:resource="http://web.resource.org/cc/Notice" />
        <cc:permits
           rdf:resource="http://web.resource.org/cc/DerivativeWorks" />
        <cc:requires
           rdf:resource="http://web.resource.org/cc/ShareAlike" />
        <cc:requires
           rdf:resource="http://web.resource.org/cc/SourceCode" />
      </cc:License>
    </rdf:RDF>
  </metadata>
  <defs
     id="defs850">
    <linearGradient
       id="linearGradient867">
      <stop
         style="stop-color:#92b5d7;stop-opacity:0.780392;"
         offset="0.000000"
         id="stop868" />
      <stop
         style="stop-color:#ffffff;stop-opacity:0.321569;"
         offset="1.000000"
         id="stop869" />
    </linearGradient>
    <linearGradient
       id="linearGradient860">
      <stop
         style="stop-color:#92b5d7;stop-opacity:1;"
         offset="0.000000"
         id="stop861" />
      <stop
         style="stop-color:#ffffff;stop-opacity:1;"
         offset="1.000000"
         id="stop862" />
    </linearGradient>
    <defs
       id="defs550">
      <linearGradient
         x1="0"
         y1="0"
         x2="1"
         y2="0"
         id="linearGradient556"
         gradientUnits="objectBoundingBox"
         spreadMethod="pad">
        <stop
           style="stop-color:#ff8700;stop-opacity:1;"
           offset="0.00000000"
           id="stop557" />
        <stop
           style="stop-color:#ffff8d;stop-opacity:0;"
           offset="1.00000000"
           id="stop558" />
      </linearGradient>
      <linearGradient
         x1="0"
         y1="0"
         x2="1"
         y2="0"
         id="linearGradient559"
         xlink:href="#linearGradient556"
         gradientUnits="objectBoundingBox"
         spreadMethod="pad" />
    </defs>
    <linearGradient
       inkscape:collect="always"
       xlink:href="#linearGradient860"
       id="linearGradient2237"
       gradientUnits="userSpaceOnUse"
       gradientTransform="matrix(0.2865784,0,0,0.2665617,3.707993,2.9392849)"
       spreadMethod="reflect"
       x1="37.126305"
       y1="43.838791"
       x2="68.40992"
       y2="44.934666" />
    <linearGradient
       inkscape:collect="always"
       xlink:href="#linearGradient867"
       id="linearGradient2239"
       gradientUnits="userSpaceOnUse"
       gradientTransform="matrix(0.304015,0,0,0.1911805,5.1743975,4.0411759)"
       spreadMethod="pad"
       x1="38.646523"
       y1="64.399437"
       x2="39.494808"
       y2="29.977726" />
    <linearGradient
       inkscape:collect="always"
       xlink:href="#linearGradient867"
       id="linearGradient2241"
       gradientUnits="userSpaceOnUse"
       gradientTransform="matrix(0.3521318,0,0,0.1522273,5.1419458,5.790026)"
       spreadMethod="pad"
       x1="28.197727"
       y1="108.28517"
       x2="33.435261"
       y2="93.438599" />
  </defs>
  <sodipodi:namedview
     id="base"
     inkscape:zoom="4.0511326"
     inkscape:cx="16.032106"
     inkscape:cy="48.367975"
     inkscape:window-width="1014"
     inkscape:window-height="686"
     inkscape:window-x="5"
     inkscape:window-y="41"
     inkscape:current-layer="svg848"
     borderlayer="false"
     width="90px"
     height="90px" />
  <use
     x="0"
     y="0"
     xlink:href="#g2226"
     id="use2243"
     transform="translate(11.741342,-16.335781)"
     width="30"
     height="30" />
  <g
     id="g2226"
     transform="matrix(2.9247002,0,0,2.9247002,-11.33058,3.3757154)">
    <path
       style="font-size:12px;fill:#000000;fill-opacity:0.3;fill-rule:evenodd;stroke-width:1pt"
       d="M 6.8068396,7.5465965 C 6.6788227,7.5465965 6.1934214,20.860573 7.1548691,21.890707 C 9.8445918,25.033166 26.585779,29.042467 26.997864,28.424356 C 27.409917,27.806275 30.344361,15.622447 29.24551,14.79834 C 25.970372,10.709755 7.2188931,6.5164317 6.8068396,7.5465965 z "
       id="path860"
       sodipodi:nodetypes="ccccc" />
    <path
       style="font-size:12px;fill:#3d4e67;fill-rule:evenodd;stroke-width:1pt"
       d="M 5.5853605,5.5311571 C 5.4573436,5.5311571 4.9719423,18.845134 5.93339,19.875267 C 8.6231127,23.017727 25.3643,27.027027 25.776385,26.408916 C 26.188438,25.790836 29.122882,13.607007 28.024031,12.7829 C 24.748893,8.6943154 5.997414,4.5009923 5.5853605,5.5311571 z "
       id="path861"
       sodipodi:nodetypes="ccccc" />
    <path
       style="font-size:12px;fill:url(#linearGradient2237);stroke-width:1pt"
       d="M 6.8227588,6.6827252 C 6.8227588,6.6827252 6.3341722,18.408915 7.1891954,19.325007 C 8.0442324,20.241126 24.412044,25.798866 24.778508,25.249184 C 25.144945,24.699529 27.526838,13.522994 26.549637,12.790121 C 25.572463,12.05722 7.1891954,5.7666062 6.8227588,6.6827252 z "
       id="path862" />
    <path
       style="font-size:12px;fill:#3d4e67;fill-rule:evenodd;stroke-width:1pt"
       d="M 7.5556595,19.508253 C 7.3724136,19.569335 11.342216,18.531052 12.685882,17.614933 C 12.808018,17.553878 15.556347,17.737097 16.411384,18.592134 C 17.266394,19.447171 22.579834,23.966656 24.289908,25.249184 C 21.480524,25.065966 9.6321425,23.111591 7.5556595,19.508253 z "
       id="path863"
       sodipodi:nodetypes="ccccc" />
    <path
       style="font-size:12px;fill:#ffffff;fill-rule:evenodd;stroke-width:1pt"
       d="M 8.3650586,19.669517 C 8.4162026,19.669517 11.690459,19.209059 12.816021,18.441644 C 12.918332,18.3905 15.067074,18.339333 15.783321,19.055581 C 16.499545,19.771828 21.973711,24.427435 22.383002,24.478579 C 22.792292,24.529746 9.6440518,21.715924 8.3650586,19.669517 z "
       id="path864"
       sodipodi:nodetypes="ccccc" />
    <path
       style="font-size:12px;fill:#3d4e67;fill-rule:evenodd;stroke-width:1pt"
       d="M 26.305364,12.729039 C 26.305364,12.729039 14.701283,19.569335 13.663027,18.653216 C 11.342216,16.454541 6.7616769,6.5605612 6.9449228,6.3773429 C 7.6167415,5.8276881 21.663715,8.5149355 26.305364,12.729039 z "
       id="path866"
       sodipodi:nodetypes="cccc" />
    <path
       style="font-size:12px;fill:#ffffff;fill-rule:evenodd;stroke-width:1pt"
       d="M 25.43497,12.641504 C 24.885297,12.885819 14.763461,18.546989 13.857827,17.74789 C 11.833465,15.830063 7.6547954,6.9555982 7.8146344,6.7957833 C 8.4006385,6.3163337 21.080839,9.087846 25.43497,12.641504 z "
       id="path867"
       sodipodi:nodetypes="cccc" />
    <path
       style="font-size:12px;fill:url(#linearGradient2239);fill-rule:evenodd;stroke-width:1pt"
       d="M 25.43497,12.641504 C 24.885297,12.885819 14.763461,18.546989 13.857827,17.74789 C 11.833465,15.830063 7.6547954,6.9555982 7.8146344,6.7957833 C 8.4006385,6.3163337 21.080839,9.087846 25.43497,12.641504 z "
       id="path868"
       sodipodi:nodetypes="cccc" />
    <path
       style="font-size:12px;fill:url(#linearGradient2241);fill-rule:evenodd;stroke-width:1pt"
       d="M 8.3650586,19.669517 C 8.4162026,19.669517 11.690459,19.209059 12.816021,18.441644 C 12.918332,18.3905 15.067074,18.339333 15.783321,19.055581 C 16.499545,19.771828 21.973711,24.427435 22.383002,24.478579 C 22.792292,24.529746 9.6440518,21.715924 8.3650586,19.669517 z "
       id="path869"
       sodipodi:nodetypes="ccccc" />
  </g>
</svg>
