<?xml version="1.0" encoding="UTF-8" standalone="no"?>
<!DOCTYPE svg PUBLIC "-//W3C//DTD SVG 20010904//EN"
"http://www.w3.org/TR/2001/REC-SVG-20010904/DTD/svg10.dtd">
<!-- Created with Inkscape (http://www.inkscape.org/) -->
<svg
   version="1"
   x="0.00000000"
   y="0.00000000"
   width="24.000000pt"
   height="24.000000pt"
   id="svg548"
   sodipodi:version="0.32"
   sodipodi:docname="gtk-media-forward-rtl.svg"
   sodipodi:docbase="/home/zeus/.icons/gartoon/scalable/stock"
   inkscape:version="0.40"
   xmlns="http://www.w3.org/2000/svg"
   xmlns:cc="http://web.resource.org/cc/"
   xmlns:inkscape="http://www.inkscape.org/namespaces/inkscape"
   xmlns:sodipodi="http://sodipodi.sourceforge.net/DTD/sodipodi-0.dtd"
   xmlns:rdf="http://www.w3.org/1999/02/22-rdf-syntax-ns#"
   xmlns:dc="http://purl.org/dc/elements/1.1/"
   xmlns:xlink="http://www.w3.org/1999/xlink">
  <metadata
     id="metadata22">
    <rdf:RDF
       id="RDF23">
      <cc:Work
         rdf:about=""
         id="Work24">
        <dc:format
           id="format25">image/svg+xml</dc:format>
        <dc:type
           id="type27"
           rdf:resource="http://purl.org/dc/dcmitype/StillImage" />
      </cc:Work>
    </rdf:RDF>
  </metadata>
  <sodipodi:namedview
     id="base"
     inkscape:zoom="4.8281250"
     inkscape:cx="16.000000"
     inkscape:cy="13.446305"
     inkscape:window-width="1014"
     inkscape:window-height="696"
     inkscape:window-x="0"
     inkscape:window-y="27"
     showguides="true"
     snaptoguides="true"
     inkscape:current-layer="svg548" />
  <defs
     id="defs550">
    <linearGradient
       x1="0.00000000"
       y1="0.00000000"
       x2="1.00000000"
       y2="0.00000000"
       id="linearGradient556"
       gradientUnits="objectBoundingBox"
       spreadMethod="pad">
      <stop
         style="stop-color:#ff8700;stop-opacity:1;"
         offset="0.00000000"
         id="stop557" />
      <stop
         style="stop-color:#ffff8d;stop-opacity:0;"
         offset="1.00000000"
         id="stop558" />
    </linearGradient>
    <linearGradient
       x1="0.00000000"
       y1="0.00000000"
       x2="1.00000000"
       y2="0.00000000"
       id="linearGradient559"
       xlink:href="#linearGradient556"
       gradientUnits="objectBoundingBox"
       spreadMethod="pad" />
    <sodipodi:namedview
       id="namedview852"
       inkscape:zoom="9.65625000"
       inkscape:cx="16.0000000"
       inkscape:cy="28.4271845"
       inkscape:window-width="1014"
       inkscape:window-height="696"
       inkscape:window-x="0"
       inkscape:window-y="0" />
    <defs
       id="defs853">
      <linearGradient
         x1="0.00000000"
         y1="0.00000000"
         x2="1.00000000"
         y2="0.00000000"
         id="linearGradient854"
         gradientUnits="objectBoundingBox"
         spreadMethod="pad">
        <stop
           style="stop-color:#ff8700;stop-opacity:1;"
           offset="0.00000000"
           id="stop855" />
        <stop
           style="stop-color:#ffff8d;stop-opacity:0;"
           offset="1.00000000"
           id="stop856" />
      </linearGradient>
      <linearGradient
         x1="0.00000000"
         y1="0.00000000"
         x2="1.00000000"
         y2="0.00000000"
         id="linearGradient857"
         xlink:href="#linearGradient556"
         gradientUnits="objectBoundingBox"
         spreadMethod="pad" />
    </defs>
  </defs>
  <path
     d="M 1.5490186,15.635126 C 2.1010556,18.169710 12.100718,27.842601 14.112412,26.796607 C 18.919114,23.906815 17.125668,9.6850373 16.510705,7.8255638 C 15.895743,5.9660907 14.510824,4.9339925 13.365724,5.1389216 C 12.220623,5.3438508 0.55587464,13.002519 1.5490186,15.635126 z "
     style="fill:#0d3c07;fill-rule:evenodd;stroke-width:1.0000000pt"
     id="path582"
     sodipodi:nodetypes="ccscc" />
  <path
     d="M 4.8464996,15.630571 C 5.1666036,17.541549 11.733892,24.243813 13.380419,23.350623 C 15.027019,22.457381 13.728878,19.274501 14.948041,18.845791 C 16.293667,13.171660 14.314526,7.8142884 13.395515,8.0243399 C 12.476505,8.2343913 4.1806446,13.665283 4.8464996,15.630571 z "
     style="fill:#2aaf18;fill-rule:evenodd;stroke-width:1.0000000pt"
     id="path581"
     sodipodi:nodetypes="ccccc" />
  <path
     d="M 15.170122,19.290074 C 15.071415,21.046603 13.817807,23.950874 12.707231,23.687889 C 10.732043,23.289032 4.9022236,16.968412 4.7192846,15.876393 C 4.5364686,14.784394 10.620596,20.613350 12.394410,19.474285 C 14.168224,18.335221 13.114245,15.960914 14.552136,15.832303 C 15.989957,15.703745 15.351666,18.698378 15.170122,19.290074 z "
     style="fill:#208c11;fill-rule:evenodd;stroke-width:1.0000000pt"
     id="path583"
     sodipodi:nodetypes="cccccc" />
  <path
     d="M 6.5079396,14.267148 C 6.5079396,14.267148 10.600182,10.213912 11.619319,9.9309296 C 12.638391,9.6480065 12.066622,11.596064 12.066622,11.596064 C 12.066622,11.596064 6.8895786,13.529673 6.5079396,14.267148 z "
     style="font-size:12.000000;fill:#ffffff;fill-rule:evenodd;stroke-width:1.0000000pt"
     id="path589" />
  <path
     d="M 12.912451,15.635149 C 13.464488,18.169733 23.464149,27.842623 25.475844,26.796629 C 30.282546,23.906837 28.489100,9.6850591 27.874137,7.8255862 C 27.259175,5.9661131 25.874257,4.9340148 24.729156,5.1389440 C 23.584055,5.3438732 11.919308,13.002541 12.912451,15.635149 z "
     style="fill:#0d3c07;fill-rule:evenodd;stroke-width:1.0000000pt"
     id="path853"
     sodipodi:nodetypes="ccscc" />
  <path
     d="M 16.209933,15.630593 C 16.530036,17.541571 23.097323,24.243835 24.743852,23.350645 C 26.390450,22.457403 25.092310,19.274523 26.311472,18.845813 C 27.657099,13.171682 25.677959,7.8143108 24.758947,8.0243621 C 23.839936,8.2344135 15.544077,13.665304 16.209933,15.630593 z "
     style="fill:#2aaf18;fill-rule:evenodd;stroke-width:1.0000000pt"
     id="path854"
     sodipodi:nodetypes="ccccc" />
  <path
     d="M 26.533554,19.290095 C 26.434847,21.046626 25.181238,23.950896 24.070663,23.687911 C 22.095475,23.289053 16.265656,16.968433 16.082718,15.876415 C 15.899901,14.784416 21.984028,20.613373 23.757841,19.474307 C 25.531655,18.335243 24.477677,15.960936 25.915568,15.832326 C 27.353389,15.703767 26.715097,18.698400 26.533554,19.290095 z "
     style="fill:#208c11;fill-rule:evenodd;stroke-width:1.0000000pt"
     id="path855"
     sodipodi:nodetypes="cccccc" />
  <path
     d="M 17.871372,14.267170 C 17.871372,14.267170 21.963613,10.213933 22.982751,9.9309525 C 24.001822,9.6480283 23.430054,11.596086 23.430054,11.596086 C 23.430054,11.596086 18.253011,13.529695 17.871372,14.267170 z "
     style="font-size:12.000000;fill:#ffffff;fill-rule:evenodd;stroke-width:1.0000000pt"
     id="path856" />
</svg>
