<?xml version="1.0" encoding="UTF-8" standalone="no"?>
<!-- Created with Sodipodi ("http://www.sodipodi.com/") -->
<svg
   xmlns:dc="http://purl.org/dc/elements/1.1/"
   xmlns:cc="http://creativecommons.org/ns#"
   xmlns:rdf="http://www.w3.org/1999/02/22-rdf-syntax-ns#"
   xmlns:svg="http://www.w3.org/2000/svg"
   xmlns="http://www.w3.org/2000/svg"
   xmlns:xlink="http://www.w3.org/1999/xlink"
   xmlns:sodipodi="http://sodipodi.sourceforge.net/DTD/sodipodi-0.dtd"
   xmlns:inkscape="http://www.inkscape.org/namespaces/inkscape"
   id="svg548"
   sodipodi:version="0.32"
   width="72pt"
   height="72pt"
   sodipodi:docbase="/home/zeus"
   sodipodi:docname="media-optical-blank.svg"
   inkscape:version="0.46+devel"
   inkscape:output_extension="org.inkscape.output.svg.inkscape">
  <metadata
     id="metadata24">
    <rdf:RDF>
      <cc:Work
         rdf:about="">
        <dc:format>image/svg+xml</dc:format>
        <dc:type
           rdf:resource="http://purl.org/dc/dcmitype/StillImage" />
      </cc:Work>
    </rdf:RDF>
  </metadata>
  <defs
     id="defs550">
    <linearGradient
       inkscape:collect="always"
       id="linearGradient3293">
      <stop
         style="stop-color:#ff7068;stop-opacity:1;"
         offset="0"
         id="stop3295" />
      <stop
         style="stop-color:#ed0000;stop-opacity:1"
         offset="1"
         id="stop3297" />
    </linearGradient>
    <linearGradient
       inkscape:collect="always"
       id="linearGradient3285">
      <stop
         style="stop-color:#558ada;stop-opacity:1"
         offset="0"
         id="stop3287" />
      <stop
         style="stop-color:#31baff;stop-opacity:1"
         offset="1"
         id="stop3289" />
    </linearGradient>
    <inkscape:perspective
       sodipodi:type="inkscape:persp3d"
       inkscape:vp_x="0 : 45 : 1"
       inkscape:vp_y="0 : 1000 : 0"
       inkscape:vp_z="90 : 45 : 1"
       inkscape:persp3d-origin="45 : 30 : 1"
       id="perspective23" />
    <linearGradient
       id="linearGradient3273">
      <stop
         id="stop3275"
         offset="0"
         style="stop-color:#86dc57;stop-opacity:1" />
      <stop
         id="stop3277"
         offset="1.000000"
         style="stop-color:#86dc57;stop-opacity:0" />
    </linearGradient>
    <linearGradient
       id="linearGradient660">
      <stop
         style="stop-color:#ffff00;stop-opacity:1;"
         offset="0"
         id="stop661" />
      <stop
         style="stop-color:#ff0000;stop-opacity:1;"
         offset="1"
         id="stop662" />
    </linearGradient>
    <linearGradient
       xlink:href="#linearGradient3273"
       id="linearGradient563"
       x1="23.953167"
       y1="24.209469"
       x2="45.701229"
       y2="18.41721"
       gradientUnits="userSpaceOnUse"
       gradientTransform="scale(0.986297,1.013893)"
       spreadMethod="pad" />
    <linearGradient
       inkscape:collect="always"
       xlink:href="#linearGradient3273"
       id="linearGradient4204"
       gradientUnits="userSpaceOnUse"
       gradientTransform="scale(0.766548,1.30455)"
       spreadMethod="pad"
       x1="73.0144653"
       y1="38.8011742"
       x2="46.2984352"
       y2="43.8150940" />
    <linearGradient
       inkscape:collect="always"
       xlink:href="#linearGradient3293"
       id="linearGradient3343"
       gradientUnits="userSpaceOnUse"
       gradientTransform="matrix(-1.0669216,0,0,1.0669216,80.079791,11.45392)"
       x1="-31.308643"
       y1="37.414257"
       x2="-41.495617"
       y2="50.257191" />
    <linearGradient
       inkscape:collect="always"
       xlink:href="#linearGradient3285"
       id="linearGradient3345"
       gradientUnits="userSpaceOnUse"
       gradientTransform="matrix(-1.0669216,0,0,1.0669216,80.079791,11.45392)"
       x1="-55.01376"
       y1="32.047062"
       x2="-44.302067"
       y2="21.184879" />
  </defs>
  <sodipodi:namedview
     id="base"
     showgrid="false"
     inkscape:zoom="5.5333333"
     inkscape:cx="61.59997"
     inkscape:cy="26.102027"
     inkscape:window-width="954"
     inkscape:window-height="724"
     inkscape:window-x="60"
     inkscape:window-y="9"
     inkscape:current-layer="svg548" />
  <g
     id="g3347">
    <path
       style="font-size:12px;fill:#000000;fill-opacity:0.29411765;fill-rule:evenodd;stroke-width:1pt"
       d="M 50.147213,8.8878012 C 31.789583,8.9112875 13.972647,21.40043 8.1784639,39.481552 C 1.5565073,60.145794 13.133894,80.340435 34.022213,84.544052 C 54.910426,88.747648 77.244009,75.395796 83.865963,54.731552 C 90.487887,34.06741 78.910427,13.872648 58.022213,9.6690512 C 55.411173,9.1435989 52.769732,8.884446 50.147213,8.8878012 z M 44.084713,37.325302 C 44.643189,37.324609 45.216181,37.372966 45.772213,37.481552 C 50.220445,38.350237 52.682371,42.523759 51.272213,46.794052 C 49.862046,51.064365 45.095444,53.850237 40.647213,52.981552 C 36.19896,52.112862 33.737048,47.939366 35.147213,43.669052 C 36.381101,39.932544 40.175381,37.330154 44.084713,37.325302 z"
       id="path2421" />
    <path
       id="path613"
       d="M 44.90625 2.5625 C 26.54862 2.5859863 8.7316839 15.075128 2.9375 33.15625 C -3.6844565 53.820492 7.8929302 74.015133 28.78125 78.21875 C 49.669463 82.422346 72.003046 69.070494 78.625 48.40625 C 85.246924 27.742108 73.669464 7.5473465 52.78125 3.34375 C 50.17021 2.8182977 47.528769 2.5591448 44.90625 2.5625 z M 38.84375 31 C 39.402226 30.999307 39.975218 31.047664 40.53125 31.15625 C 44.979482 32.024935 47.441408 36.198457 46.03125 40.46875 C 44.621083 44.739063 39.854481 47.524935 35.40625 46.65625 C 30.957997 45.78756 28.496085 41.614064 29.90625 37.34375 C 31.140138 33.607242 34.934418 31.004852 38.84375 31 z "
       style="font-size:12;fill:#34674b;fill-rule:evenodd;stroke-width:1pt;fill-opacity:1" />
    <path
       id="path612"
       d="M 44.0625 7.25 C 28.016595 7.2706008 12.470783 18.23085 7.40625 34.09375 C 1.6181836 52.222866 11.710836 69.937087 29.96875 73.625 C 48.226569 77.312896 67.743181 65.597864 73.53125 47.46875 C 79.319288 29.339722 69.226567 11.625396 50.96875 7.9375 C 48.686511 7.4765106 46.354772 7.247057 44.0625 7.25 z M 39.65625 26.3125 C 40.524333 26.311395 41.385716 26.38945 42.25 26.5625 C 49.164236 27.946895 53.004417 34.600822 50.8125 41.40625 C 48.620573 48.21171 41.226735 52.634396 34.3125 51.25 C 27.39823 49.865599 23.558073 43.211711 25.75 36.40625 C 27.667928 30.451502 33.579669 26.320232 39.65625 26.3125 z "
       style="font-size:12;fill:#ffffff;fill-rule:evenodd;stroke-width:1pt;" />
    <path
       id="path562"
       d="M 41.28125 10.25 C 31.933144 10.039175 18.75 20.3125 18.75 20.3125 C 18.75 20.3125 24.672412 31.18788 26.59375 34.375 C 29.068156 29.526711 34.294055 26.319323 39.65625 26.3125 C 40.524333 26.311395 41.385716 26.38945 42.25 26.5625 C 42.499116 26.612379 42.727753 26.686679 42.96875 26.75 L 42.1875 10.3125 C 41.894531 10.283202 41.582802 10.256801 41.28125 10.25 z M 38.84375 31 C 36.42371 31.003004 34.064266 32.009586 32.3125 33.65625 C 35.513707 32.586525 37.780221 31.804732 39.96875 31.0625 C 39.593353 31.016179 39.215568 30.999539 38.84375 31 z "
       style="fill:url(#linearGradient563);fill-rule:evenodd;stroke:none;stroke-opacity:1;stroke-width:1pt;stroke-linejoin:miter;stroke-linecap:butt;fill-opacity:1.0" />
    <path
       id="path557"
       d="M 48.65625 45.5 C 45.376117 49.863235 39.706935 52.330095 34.3125 51.25 C 33.999833 51.187397 33.706071 51.114931 33.40625 51.03125 L 28.875 73.375 C 29.238523 73.461224 29.598445 73.550202 29.96875 73.625 C 35.51274 74.74483 41.174739 74.437659 46.53125 72.96875 C 49.729672 71.925417 53.619215 70.15822 58.59375 67.3125 C 58.978585 67.046567 59.374361 66.779315 59.75 66.5 C 59.755263 66.492558 59.744855 66.476285 59.75 66.46875 C 61.920082 63.290708 53.691958 51.935458 48.65625 45.5 z "
       style="fill:url(#linearGradient4204);fill-rule:evenodd;stroke:none;stroke-opacity:1;stroke-width:1pt;stroke-linejoin:miter;stroke-linecap:butt;fill-opacity:1" />
  </g>
  <g
     id="g3335"
     transform="matrix(0.8881457,0.2076205,-0.2076205,0.8881457,-35.090322,-15.464224)">
    <path
       d="m -40.90625,9.03125 c -1.74427,0 -2.606088,0.4366325 -4.125,0.96875 -1.518912,0.532117 -3.279333,1.257928 -5.09375,2.0625 -3.628833,1.609143 -7.277835,3.407647 -9.65625,5.34375 -0.404705,0.326178 -0.726044,0.743919 -0.9375,1.21875 -0.729493,0.536523 -1.204552,1.350909 -1.3125,2.25 -0.152748,1.374738 -1.5625,4.134765 -1.5625,7.78125 0,1.339158 0.283398,1.567392 0.5,2.0625 0.216602,0.495108 0.497458,0.98904 0.8125,1.5625 0.630085,1.146919 1.469874,2.566658 2.5,4.1875 2.060252,3.241683 4.820596,7.313458 7.78125,11.46875 2.960654,4.155292 6.126344,8.378875 8.9375,11.875 2.811156,3.496125 5.053433,6.146216 7.21875,7.75 0.369668,0.284612 0.795829,0.487038 1.25,0.59375 0.735277,0.516525 1.65035,0.708577 2.53125,0.53125 1.425548,-0.285111 2.564904,-0.824851 4.25,-1.59375 1.685096,-0.768899 3.620707,-1.741177 5.53125,-2.8125 1.910543,-1.071323 3.77884,-2.236243 5.3125,-3.40625 0.76683,-0.585004 1.446395,-1.162919 2.0625,-1.84375 0.616105,-0.680831 1.295893,-1.426862 1.53125,-2.90625 0.279097,-1.754328 0.366985,-4.116679 0.34375,-6.5625 -0.023235,-2.445821 -0.10572,-4.706569 -0.71875,-6.75 -0.118756,-0.421184 -0.320641,-0.814328 -0.59375,-1.15625 -0.010346,-0.010487 -0.020763,-0.020904 -0.03125,-0.03125 -0.077449,-0.285085 -0.193079,-0.558393 -0.34375,-0.8125 -2.047494,-3.469261 -7.228387,-10.886928 -12.375,-17.71875 -2.573307,-3.415911 -5.122059,-6.655767 -7.21875,-9.09375 -1.048346,-1.218991 -1.960558,-2.225557 -2.8125,-3.03125 -0.425971,-0.402846 -0.830255,-0.760574 -1.3125,-1.09375 -0.482245,-0.3331758 -0.918098,-0.84375 -2.46875,-0.84375 z"
       id="path3358"
       style="color:#000000;fill:#000000;fill-opacity:0.29411765;fill-rule:evenodd;stroke:none;stroke-width:3;marker:none;marker-start:none;marker-mid:none;marker-end:none;visibility:visible;display:inline;overflow:visible;enable-background:accumulate"
       inkscape:original="M -40.90625 12.3125 C -43.072495 12.3125 -54.21048 17.08166 -57.71875 19.9375 C -53.750403 25.155223 -40.292973 42.764418 -33.65625 50.5 C -40.422345 44.010273 -55.004135 25.687764 -58.78125 21.25 C -59.03683 23.550227 -60.3125 26.100443 -60.3125 28.65625 C -60.312499 31.00535 -39.803933 60.569268 -33.90625 64.9375 C -33.575124 63.226214 -33.273122 61.178546 -32.71875 52.8125 C -31.738488 59.982425 -32.443933 63.108499 -32.71875 65.46875 C -30.162944 64.957586 -17.072266 58.436388 -16.625 55.625 C -16.18329 52.848528 -16.108257 46.305808 -16.875 43.75 C -21.262658 47.057722 -27.06134 50.200153 -31.96875 51.15625 C -24.74108 48.292348 -18.522708 43.487678 -17.53125 42.46875 C -21.195028 36.260866 -38.578634 12.3125 -40.90625 12.3125 z "
       inkscape:radius="3.2777622"
       sodipodi:type="inkscape:offset"
       transform="matrix(-1.0669216,0,0,1.0669216,82.093266,14.509543)" />
    <path
       transform="matrix(-1.0669216,0,0,1.0669216,80.079791,11.45392)"
       sodipodi:type="inkscape:offset"
       inkscape:radius="3.2777622"
       inkscape:original="M -40.90625 12.3125 C -43.072495 12.3125 -54.21048 17.08166 -57.71875 19.9375 C -53.750403 25.155223 -40.292973 42.764418 -33.65625 50.5 C -40.422345 44.010273 -55.004135 25.687764 -58.78125 21.25 C -59.03683 23.550227 -60.3125 26.100443 -60.3125 28.65625 C -60.312499 31.00535 -39.803933 60.569268 -33.90625 64.9375 C -33.575124 63.226214 -33.273122 61.178546 -32.71875 52.8125 C -31.738488 59.982425 -32.443933 63.108499 -32.71875 65.46875 C -30.162944 64.957586 -17.072266 58.436388 -16.625 55.625 C -16.18329 52.848528 -16.108257 46.305808 -16.875 43.75 C -21.262658 47.057722 -27.06134 50.200153 -31.96875 51.15625 C -24.74108 48.292348 -18.522708 43.487678 -17.53125 42.46875 C -21.195028 36.260866 -38.578634 12.3125 -40.90625 12.3125 z "
       style="color:#000000;fill:#593a28;fill-opacity:1;fill-rule:evenodd;stroke:none;stroke-width:3;marker:none;marker-start:none;marker-mid:none;marker-end:none;visibility:visible;display:inline;overflow:visible;enable-background:accumulate"
       id="path3323"
       d="m -40.90625,9.03125 c -1.74427,0 -2.606088,0.4366325 -4.125,0.96875 -1.518912,0.532117 -3.279333,1.257928 -5.09375,2.0625 -3.628833,1.609143 -7.277835,3.407647 -9.65625,5.34375 -0.404705,0.326178 -0.726044,0.743919 -0.9375,1.21875 -0.729493,0.536523 -1.204552,1.350909 -1.3125,2.25 -0.152748,1.374738 -1.5625,4.134765 -1.5625,7.78125 0,1.339158 0.283398,1.567392 0.5,2.0625 0.216602,0.495108 0.497458,0.98904 0.8125,1.5625 0.630085,1.146919 1.469874,2.566658 2.5,4.1875 2.060252,3.241683 4.820596,7.313458 7.78125,11.46875 2.960654,4.155292 6.126344,8.378875 8.9375,11.875 2.811156,3.496125 5.053433,6.146216 7.21875,7.75 0.369668,0.284612 0.795829,0.487038 1.25,0.59375 0.735277,0.516525 1.65035,0.708577 2.53125,0.53125 1.425548,-0.285111 2.564904,-0.824851 4.25,-1.59375 1.685096,-0.768899 3.620707,-1.741177 5.53125,-2.8125 1.910543,-1.071323 3.77884,-2.236243 5.3125,-3.40625 0.76683,-0.585004 1.446395,-1.162919 2.0625,-1.84375 0.616105,-0.680831 1.295893,-1.426862 1.53125,-2.90625 0.279097,-1.754328 0.366985,-4.116679 0.34375,-6.5625 -0.023235,-2.445821 -0.10572,-4.706569 -0.71875,-6.75 -0.118756,-0.421184 -0.320641,-0.814328 -0.59375,-1.15625 -0.010346,-0.010487 -0.020763,-0.020904 -0.03125,-0.03125 -0.077449,-0.285085 -0.193079,-0.558393 -0.34375,-0.8125 -2.047494,-3.469261 -7.228387,-10.886928 -12.375,-17.71875 -2.573307,-3.415911 -5.122059,-6.655767 -7.21875,-9.09375 -1.048346,-1.218991 -1.960558,-2.225557 -2.8125,-3.03125 -0.425971,-0.402846 -0.830255,-0.760574 -1.3125,-1.09375 -0.482245,-0.3331758 -0.918098,-0.84375 -2.46875,-0.84375 z" />
    <path
       transform="matrix(-1.0669216,0,0,1.0669216,80.079791,11.45392)"
       sodipodi:type="inkscape:offset"
       inkscape:radius="1.2795002"
       inkscape:original="M -40.90625 12.3125 C -41.065988 12.3125 -41.280464 12.325826 -41.53125 12.375 C -41.755163 12.419001 -42.026169 12.483399 -42.3125 12.5625 C -42.511706 12.617458 -42.774413 12.742082 -43 12.8125 C -43.371869 12.92904 -43.72494 13.033983 -44.15625 13.1875 C -44.678232 13.373291 -45.257605 13.581752 -45.84375 13.8125 C -46.102953 13.91454 -46.356786 14.015589 -46.625 14.125 C -47.336861 14.415385 -48.065069 14.73141 -48.8125 15.0625 C -49.568815 15.397267 -50.311224 15.733908 -51.0625 16.09375 C -51.184981 16.152423 -51.315803 16.190923 -51.4375 16.25 C -52.211461 16.625768 -52.972576 17.02506 -53.6875 17.40625 C -54.022313 17.584785 -54.310692 17.760823 -54.625 17.9375 C -55.085438 18.19606 -55.533494 18.43793 -55.9375 18.6875 C -55.998718 18.725309 -56.065275 18.774978 -56.125 18.8125 C -56.267563 18.902098 -56.39772 18.97474 -56.53125 19.0625 C -56.753578 19.208483 -56.961487 19.36015 -57.15625 19.5 C -57.245804 19.564404 -57.323069 19.624605 -57.40625 19.6875 C -57.513542 19.768502 -57.622612 19.859241 -57.71875 19.9375 C -55.580967 22.748333 -50.690742 29.132686 -45.59375 35.65625 C -42.868518 33.924589 -34.20807 28.762912 -28.125 27.1875 C -28.662906 26.461423 -29.18039 25.777019 -29.71875 25.0625 C -30.611501 23.876876 -31.449372 22.766129 -32.3125 21.65625 C -32.700543 21.157364 -33.060914 20.694339 -33.4375 20.21875 C -33.733964 19.843889 -34.025074 19.513911 -34.3125 19.15625 C -34.621277 18.77227 -34.89109 18.423812 -35.1875 18.0625 C -35.526146 17.648966 -35.836629 17.286056 -36.15625 16.90625 C -36.385624 16.633765 -36.562934 16.40956 -36.78125 16.15625 C -37.137774 15.741499 -37.458013 15.389379 -37.78125 15.03125 C -38.23695 14.526365 -38.652804 14.095296 -39.03125 13.71875 C -39.075566 13.674699 -39.113114 13.604612 -39.15625 13.5625 C -39.245528 13.475132 -39.290834 13.422755 -39.375 13.34375 C -39.701578 13.034768 -39.974546 12.800252 -40.21875 12.625 C -40.5134 12.410863 -40.745612 12.3125 -40.90625 12.3125 z M -58.78125 21.25 C -58.845145 21.825057 -58.969465 22.428763 -59.125 23.03125 C -59.280535 23.633737 -59.480818 24.221471 -59.65625 24.84375 C -59.919399 25.777169 -60.143858 26.731029 -60.25 27.6875 C -60.285381 28.006324 -60.3125 28.336774 -60.3125 28.65625 C -60.3125 28.948987 -60.006442 29.65029 -59.4375 30.6875 C -59.328694 30.885971 -59.189385 31.153456 -59.0625 31.375 C -58.648388 32.09805 -58.147228 32.938926 -57.5625 33.875 C -57.387623 34.155275 -57.21946 34.39105 -57.03125 34.6875 C -57.026068 34.695653 -57.036441 34.710585 -57.03125 34.71875 C -56.031862 36.292331 -54.856389 38.060669 -53.5625 39.96875 C -52.26529 41.880775 -50.833323 43.890127 -49.375 45.9375 C -48.577002 41.740908 -47.819318 37.126647 -46.65625 36.3125 C -46.63036 36.294377 -46.472182 36.210963 -46.4375 36.1875 C -51.741034 29.85795 -56.777736 23.603945 -58.78125 21.25 z "
       style="color:#000000;fill:#593a28;fill-opacity:1;fill-rule:evenodd;stroke:none;stroke-width:3;marker:none;marker-start:none;marker-mid:none;marker-end:none;visibility:visible;display:inline;overflow:visible;enable-background:accumulate"
       id="path3319"
       d="m -40.90625,11.03125 c -0.230899,0 -0.531876,0.02647 -0.875,0.09375 -0.264016,0.051882 -0.560738,0.131933 -0.875,0.21875 -0.399233,0.110143 -0.633336,0.223338 -0.71875,0.25 -0.360497,0.112976 -0.753165,0.209284 -1.21875,0.375 -0.525046,0.186882 -1.109601,0.416446 -1.71875,0.65625 -0.26218,0.103212 -0.506735,0.200519 -0.78125,0.3125 -0.729907,0.297746 -1.496856,0.635129 -2.25,0.96875 -0.763239,0.337832 -1.514187,0.663846 -2.28125,1.03125 0.000986,-0.000473 -0.125695,0.035226 -0.375,0.15625 -0.797839,0.387361 -1.560976,0.803457 -2.28125,1.1875 -0.373782,0.199315 -0.679495,0.368656 -0.96875,0.53125 -0.448481,0.251845 -0.925605,0.503641 -1.375,0.78125 -0.134699,0.083192 -0.195885,0.130268 -0.1875,0.125 -0.109302,0.068694 -0.224624,0.16188 -0.40625,0.28125 -0.256282,0.168278 -0.498318,0.332907 -0.6875,0.46875 -0.113177,0.081393 -0.207329,0.131606 -0.28125,0.1875 -0.141219,0.106616 -0.255695,0.209571 -0.34375,0.28125 -0.308178,0.252104 -0.481447,0.633294 -0.46875,1.03125 -0.566472,0.094121 -1.000876,0.554078 -1.0625,1.125 -0.054633,0.491697 -0.167426,1.063035 -0.3125,1.625 -0.139425,0.540082 -0.31265,1.116695 -0.5,1.78125 -0.27336,0.969639 -0.538583,1.970927 -0.65625,3.03125 -0.038165,0.343916 -0.0625,0.733116 -0.0625,1.125 0,0.592276 0.170325,0.848755 0.34375,1.25 0.173425,0.401245 0.391076,0.865854 0.6875,1.40625 0.097158,0.177225 0.228104,0.431017 0.375,0.6875 0.42275,0.738132 0.938152,1.613027 1.53125,2.5625 0.190409,0.305167 0.339426,0.530736 0.5,0.78125 0.007489,0.011683 0.023768,0.019466 0.03125,0.03125 0.002556,0.00511 -3.6e-05,0.031194 0,0.03125 1.010238,1.590665 2.202045,3.367174 3.5,5.28125 1.308998,1.9294 2.760543,3.95279 4.21875,6 0.299967,0.405309 0.80999,0.596671 1.302535,0.488716 0.492546,-0.107955 0.875773,-0.495098 0.978715,-0.988716 0.401193,-2.109833 0.800164,-4.316747 1.21875,-6.03125 0.209293,-0.857251 0.417165,-1.578367 0.625,-2.09375 0.207835,-0.515383 0.46468,-0.772151 0.34375,-0.6875 0.047842,-0.026453 0.03653,-0.001725 0.21875,-0.125 0.124268,-0.094556 0.23018,-0.211059 0.3125,-0.34375 0.175658,-0.017047 0.345891,-0.070244 0.5,-0.15625 2.660996,-1.690844 11.381989,-6.833251 17.09375,-8.3125 0.413674,-0.103847 0.748416,-0.406973 0.892661,-0.80835 0.144245,-0.401378 0.07903,-0.848239 -0.173911,-1.19165 -0.542625,-0.732447 -1.056221,-1.442834 -1.59375,-2.15625 -0.893166,-1.186174 -1.754248,-2.286567 -2.625,-3.40625 -0.388188,-0.499072 -0.744126,-0.956495 -1.125,-1.4375 -0.322639,-0.407958 -0.611112,-0.765379 -0.875,-1.09375 -0.299985,-0.373047 -0.564223,-0.714926 -0.875,-1.09375 -0.349045,-0.426233 -0.68468,-0.781555 -1,-1.15625 -0.215896,-0.256474 -0.3866,-0.504637 -0.625,-0.78125 -0.370057,-0.430494 -0.710146,-0.769234 -1.03125,-1.125 -0.472405,-0.523393 -0.888911,-0.984631 -1.28125,-1.375 0.180657,0.179576 0.160333,0.122309 -0.125,-0.15625 -0.061232,-0.059922 -0.127145,-0.134679 -0.25,-0.25 -0.35035,-0.331473 -0.652202,-0.585331 -0.96875,-0.8125 -0.40253,-0.292539 -0.754547,-0.5625 -1.4375,-0.5625 z" />
    <path
       style="color:#000000;fill:#593a28;fill-opacity:1;fill-rule:evenodd;stroke:none;stroke-width:3;marker:none;marker-start:none;marker-mid:none;marker-end:none;visibility:visible;display:inline;overflow:visible;enable-background:accumulate"
       d="m 123.72355,24.590392 c 2.04976,0.238919 3.9595,1.15198 5.88939,1.847762 4.16259,1.776445 8.40456,3.560748 12.04823,6.287515 -4.27849,5.616062 -8.59132,11.20599 -12.93642,16.770674 -5.70771,-3.499246 -11.60368,-6.858334 -18.02156,-8.866932 -1.32176,-0.296777 0.98564,-1.834289 1.2621,-2.672033 3.35284,-4.376834 6.65591,-8.844412 10.6076,-12.703653 0.34486,-0.272873 0.69244,-0.608174 1.15066,-0.663333 z m 19.07123,9.535612 c 0.31174,2.775363 1.82301,5.381352 1.57321,8.216656 -1.53625,3.531109 -3.81143,6.666763 -5.8859,9.891717 -1.84934,2.783891 -3.78111,5.511555 -5.72305,8.231254 -0.68268,-3.210826 -0.99778,-6.561509 -2.34888,-9.582161 -1.6188,-1.031856 0.60452,-2.074479 1.18763,-3.184586 3.75802,-4.503079 7.43255,-9.075257 11.19699,-13.57288 z"
       id="path3321" />
    <path
       sodipodi:nodetypes="cscccscccsccc"
       id="path2492"
       d="m 114.98342,81.299138 c -2.72684,-0.545369 -16.701929,-7.482212 -17.179127,-10.481743 -0.471271,-2.962277 -0.54537,-9.969604 0.272685,-12.696451 4.681292,3.529079 10.884902,6.895071 16.120722,7.915152 -7.71136,-3.05556 -14.364065,-8.188183 -15.421873,-9.275299 3.908963,-6.623323 22.450123,-32.180064 24.933503,-32.180064 2.31122,0 14.22118,5.093217 17.96423,8.140175 -4.23391,5.566901 -18.59766,24.360124 -25.67852,32.613384 7.21889,-6.924031 22.77233,-26.47485 26.80222,-31.209596 0.27268,2.454162 1.63611,5.181009 1.63611,7.907854 0,2.506306 -21.88422,34.037992 -28.17658,38.698553 -0.35329,-1.825809 -0.68114,-3.997878 -1.27261,-12.923793 -1.04586,7.649748 -0.29396,10.973625 -0.00076,13.491828 z"
       style="color:#000000;fill:url(#linearGradient3343);fill-opacity:1;fill-rule:evenodd;stroke:none;stroke-width:3;marker:none;marker-start:none;marker-mid:none;marker-end:none;visibility:visible;display:inline;overflow:visible;enable-background:accumulate" />
    <path
       transform="matrix(-1.0669216,0,0,1.0669216,80.079791,11.45392)"
       d="m -40.90625,11.03125 c -0.230899,0 -0.531876,0.02647 -0.875,0.09375 -0.264016,0.051882 -0.560738,0.131933 -0.875,0.21875 -0.399233,0.110143 -0.633336,0.223338 -0.71875,0.25 -0.360497,0.112976 -0.753165,0.209284 -1.21875,0.375 -0.525046,0.186882 -1.109601,0.416446 -1.71875,0.65625 -0.26218,0.103212 -0.506735,0.200519 -0.78125,0.3125 -0.729907,0.297746 -1.496856,0.635129 -2.25,0.96875 -0.763239,0.337832 -1.514187,0.663846 -2.28125,1.03125 0.000986,-0.000473 -0.125695,0.035226 -0.375,0.15625 -0.797839,0.387361 -1.560976,0.803457 -2.28125,1.1875 -0.373782,0.199315 -0.679495,0.368656 -0.96875,0.53125 -0.448481,0.251845 -0.925605,0.503641 -1.375,0.78125 -0.134699,0.083192 -0.195885,0.130268 -0.1875,0.125 -0.109302,0.068694 -0.224624,0.16188 -0.40625,0.28125 -0.256282,0.168278 -0.498318,0.332907 -0.6875,0.46875 -0.113177,0.081393 -0.207329,0.131606 -0.28125,0.1875 -0.141219,0.106616 -0.255695,0.209571 -0.34375,0.28125 -0.308178,0.252104 -0.481447,0.633294 -0.46875,1.03125 -0.566472,0.094121 -1.000876,0.554078 -1.0625,1.125 -0.054633,0.491697 -0.167426,1.063035 -0.3125,1.625 -0.139425,0.540082 -0.31265,1.116695 -0.5,1.78125 -0.27336,0.969639 -0.538583,1.970927 -0.65625,3.03125 -0.038165,0.343916 -0.0625,0.733116 -0.0625,1.125 0,0.592276 0.170325,0.848755 0.34375,1.25 0.173425,0.401245 0.391076,0.865854 0.6875,1.40625 0.097158,0.177225 0.228104,0.431017 0.375,0.6875 0.42275,0.738132 0.938152,1.613027 1.53125,2.5625 0.190409,0.305167 0.339426,0.530736 0.5,0.78125 0.007489,0.011683 0.023768,0.019466 0.03125,0.03125 0.002556,0.00511 -3.6e-05,0.031194 0,0.03125 1.010238,1.590665 2.202045,3.367174 3.5,5.28125 1.308998,1.9294 2.760543,3.95279 4.21875,6 0.299967,0.405309 0.80999,0.596671 1.302535,0.488716 0.492546,-0.107955 0.875773,-0.495098 0.978715,-0.988716 0.401193,-2.109833 0.800164,-4.316747 1.21875,-6.03125 0.209293,-0.857251 0.417165,-1.578367 0.625,-2.09375 0.207835,-0.515383 0.46468,-0.772151 0.34375,-0.6875 0.047842,-0.026453 0.03653,-0.001725 0.21875,-0.125 0.124268,-0.094556 0.23018,-0.211059 0.3125,-0.34375 0.175658,-0.017047 0.345891,-0.070244 0.5,-0.15625 2.660996,-1.690844 11.381989,-6.833251 17.09375,-8.3125 0.413674,-0.103847 0.748416,-0.406973 0.892661,-0.80835 0.144245,-0.401378 0.07903,-0.848239 -0.173911,-1.19165 -0.542625,-0.732447 -1.056221,-1.442834 -1.59375,-2.15625 -0.893166,-1.186174 -1.754248,-2.286567 -2.625,-3.40625 -0.388188,-0.499072 -0.744126,-0.956495 -1.125,-1.4375 -0.322639,-0.407958 -0.611112,-0.765379 -0.875,-1.09375 -0.299985,-0.373047 -0.564223,-0.714926 -0.875,-1.09375 -0.349045,-0.426233 -0.68468,-0.781555 -1,-1.15625 -0.215896,-0.256474 -0.3866,-0.504637 -0.625,-0.78125 -0.370057,-0.430494 -0.710146,-0.769234 -1.03125,-1.125 -0.472405,-0.523393 -0.888911,-0.984631 -1.28125,-1.375 0.180657,0.179576 0.160333,0.122309 -0.125,-0.15625 -0.061232,-0.059922 -0.127145,-0.134679 -0.25,-0.25 -0.35035,-0.331473 -0.652202,-0.585331 -0.96875,-0.8125 -0.40253,-0.292539 -0.754547,-0.5625 -1.4375,-0.5625 z"
       id="path3282"
       style="color:#000000;fill:#593a28;fill-opacity:1;fill-rule:evenodd;stroke:none;stroke-width:3;marker:none;marker-start:none;marker-mid:none;marker-end:none;visibility:visible;display:inline;overflow:visible;enable-background:accumulate"
       inkscape:original="M -40.90625 12.3125 C -41.065988 12.3125 -41.280464 12.325826 -41.53125 12.375 C -41.755163 12.419001 -42.026169 12.483399 -42.3125 12.5625 C -42.511706 12.617458 -42.774413 12.742082 -43 12.8125 C -43.371869 12.92904 -43.72494 13.033983 -44.15625 13.1875 C -44.678232 13.373291 -45.257605 13.581752 -45.84375 13.8125 C -46.102953 13.91454 -46.356786 14.015589 -46.625 14.125 C -47.336861 14.415385 -48.065069 14.73141 -48.8125 15.0625 C -49.568815 15.397267 -50.311224 15.733908 -51.0625 16.09375 C -51.184981 16.152423 -51.315803 16.190923 -51.4375 16.25 C -52.211461 16.625768 -52.972576 17.02506 -53.6875 17.40625 C -54.022313 17.584785 -54.310692 17.760823 -54.625 17.9375 C -55.085438 18.19606 -55.533494 18.43793 -55.9375 18.6875 C -55.998718 18.725309 -56.065275 18.774978 -56.125 18.8125 C -56.267563 18.902098 -56.39772 18.97474 -56.53125 19.0625 C -56.753578 19.208483 -56.961487 19.36015 -57.15625 19.5 C -57.245804 19.564404 -57.323069 19.624605 -57.40625 19.6875 C -57.513542 19.768502 -57.622612 19.859241 -57.71875 19.9375 C -55.580967 22.748333 -50.690742 29.132686 -45.59375 35.65625 C -42.868518 33.924589 -34.20807 28.762912 -28.125 27.1875 C -28.662906 26.461423 -29.18039 25.777019 -29.71875 25.0625 C -30.611501 23.876876 -31.449372 22.766129 -32.3125 21.65625 C -32.700543 21.157364 -33.060914 20.694339 -33.4375 20.21875 C -33.733964 19.843889 -34.025074 19.513911 -34.3125 19.15625 C -34.621277 18.77227 -34.89109 18.423812 -35.1875 18.0625 C -35.526146 17.648966 -35.836629 17.286056 -36.15625 16.90625 C -36.385624 16.633765 -36.562934 16.40956 -36.78125 16.15625 C -37.137774 15.741499 -37.458013 15.389379 -37.78125 15.03125 C -38.23695 14.526365 -38.652804 14.095296 -39.03125 13.71875 C -39.075566 13.674699 -39.113114 13.604612 -39.15625 13.5625 C -39.245528 13.475132 -39.290834 13.422755 -39.375 13.34375 C -39.701578 13.034768 -39.974546 12.800252 -40.21875 12.625 C -40.5134 12.410863 -40.745612 12.3125 -40.90625 12.3125 z M -58.78125 21.25 C -58.845145 21.825057 -58.969465 22.428763 -59.125 23.03125 C -59.280535 23.633737 -59.480818 24.221471 -59.65625 24.84375 C -59.919399 25.777169 -60.143858 26.731029 -60.25 27.6875 C -60.285381 28.006324 -60.3125 28.336774 -60.3125 28.65625 C -60.3125 28.948987 -60.006442 29.65029 -59.4375 30.6875 C -59.328694 30.885971 -59.189385 31.153456 -59.0625 31.375 C -58.648388 32.09805 -58.147228 32.938926 -57.5625 33.875 C -57.387623 34.155275 -57.21946 34.39105 -57.03125 34.6875 C -57.026068 34.695653 -57.036441 34.710585 -57.03125 34.71875 C -56.031862 36.292331 -54.856389 38.060669 -53.5625 39.96875 C -52.26529 41.880775 -50.833323 43.890127 -49.375 45.9375 C -48.577002 41.740908 -47.819318 37.126647 -46.65625 36.3125 C -46.63036 36.294377 -46.472182 36.210963 -46.4375 36.1875 C -51.741034 29.85795 -56.777736 23.603945 -58.78125 21.25 z "
       inkscape:radius="1.2795002"
       sodipodi:type="inkscape:offset" />
    <path
       id="path3264"
       d="m 123.72355,24.590392 c 2.04976,0.238919 3.9595,1.15198 5.88939,1.847762 4.16259,1.776445 8.40456,3.560748 12.04823,6.287515 -4.27849,5.616062 -8.59132,11.20599 -12.93642,16.770674 -5.70771,-3.499246 -11.60368,-6.858334 -18.02156,-8.866932 -1.32176,-0.296777 0.98564,-1.834289 1.2621,-2.672033 3.35284,-4.376834 6.65591,-8.844412 10.6076,-12.703653 0.34486,-0.272873 0.69244,-0.608174 1.15066,-0.663333 z m 19.07123,9.535612 c 0.31174,2.775363 1.82301,5.381352 1.57321,8.216656 -1.53625,3.531109 -3.81143,6.666763 -5.8859,9.891717 -1.84934,2.783891 -3.78111,5.511555 -5.72305,8.231254 -0.68268,-3.210826 -0.99778,-6.561509 -2.34888,-9.582161 -1.6188,-1.031856 0.60452,-2.074479 1.18763,-3.184586 3.75802,-4.503079 7.43255,-9.075257 11.19699,-13.57288 z"
       style="color:#000000;fill:url(#linearGradient3345);fill-opacity:1;fill-rule:evenodd;stroke:none;stroke-width:3;marker:none;marker-start:none;marker-mid:none;marker-end:none;visibility:visible;display:inline;overflow:visible;enable-background:accumulate" />
  </g>
</svg>
