<?xml version="1.0" encoding="UTF-8" standalone="no"?>
<!DOCTYPE svg PUBLIC "-//W3C//DTD SVG 20010904//EN"
"http://www.w3.org/TR/2001/REC-SVG-20010904/DTD/svg10.dtd">
<!-- Created with Inkscape (http://www.inkscape.org/) -->
<svg
   version="1"
   x="0.00000000"
   y="0.00000000"
   width="24.000000pt"
   height="24.000000pt"
   id="svg548"
   sodipodi:version="0.32"
   sodipodi:docname="stock_cdplayer-next.svg"
   sodipodi:docbase="/home/zeus/.icons/gartoon/scalable/stock-gar"
   inkscape:version="0.40"
   xmlns="http://www.w3.org/2000/svg"
   xmlns:inkscape="http://www.inkscape.org/namespaces/inkscape"
   xmlns:sodipodi="http://sodipodi.sourceforge.net/DTD/sodipodi-0.dtd"
   xmlns:xlink="http://www.w3.org/1999/xlink"
   xmlns:rdf="http://www.w3.org/1999/02/22-rdf-syntax-ns#"
   xmlns:cc="http://web.resource.org/cc/"
   xmlns:dc="http://purl.org/dc/elements/1.1/">
  <metadata
     id="metadata23">
    <rdf:RDF
       id="RDF24">
      <cc:Work
         rdf:about=""
         id="Work25">
        <dc:format
           id="format26">image/svg+xml</dc:format>
        <dc:type
           id="type28"
           rdf:resource="http://purl.org/dc/dcmitype/StillImage" />
      </cc:Work>
    </rdf:RDF>
  </metadata>
  <sodipodi:namedview
     id="base"
     inkscape:zoom="3.4139999"
     inkscape:cx="15.999998"
     inkscape:cy="4.4325487"
     inkscape:window-width="1014"
     inkscape:window-height="696"
     inkscape:window-x="0"
     inkscape:window-y="27"
     showguides="true"
     snaptoguides="true"
     inkscape:current-layer="svg548" />
  <defs
     id="defs550">
    <linearGradient
       x1="0.00000000"
       y1="0.00000000"
       x2="1.00000000"
       y2="0.00000000"
       id="linearGradient556"
       gradientUnits="objectBoundingBox"
       spreadMethod="pad">
      <stop
         style="stop-color:#ff8700;stop-opacity:1;"
         offset="0.00000000"
         id="stop557" />
      <stop
         style="stop-color:#ffff8d;stop-opacity:0;"
         offset="1.00000000"
         id="stop558" />
    </linearGradient>
    <linearGradient
       x1="0.00000000"
       y1="0.00000000"
       x2="1.00000000"
       y2="0.00000000"
       id="linearGradient559"
       xlink:href="#linearGradient556"
       gradientUnits="objectBoundingBox"
       spreadMethod="pad" />
    <sodipodi:namedview
       id="namedview852"
       inkscape:zoom="9.65625000"
       inkscape:cx="16.0000000"
       inkscape:cy="28.4271845"
       inkscape:window-width="1014"
       inkscape:window-height="696"
       inkscape:window-x="0"
       inkscape:window-y="0" />
    <defs
       id="defs853">
      <linearGradient
         x1="0.00000000"
         y1="0.00000000"
         x2="1.00000000"
         y2="0.00000000"
         id="linearGradient854"
         gradientUnits="objectBoundingBox"
         spreadMethod="pad">
        <stop
           style="stop-color:#ff8700;stop-opacity:1;"
           offset="0.00000000"
           id="stop855" />
        <stop
           style="stop-color:#ffff8d;stop-opacity:0;"
           offset="1.00000000"
           id="stop856" />
      </linearGradient>
      <linearGradient
         x1="0.00000000"
         y1="0.00000000"
         x2="1.00000000"
         y2="0.00000000"
         id="linearGradient857"
         xlink:href="#linearGradient556"
         gradientUnits="objectBoundingBox"
         spreadMethod="pad" />
    </defs>
  </defs>
  <g
     transform="matrix(-0.547368,0.751370,0.751370,0.547368,16.97364,-43.05064)"
     style="font-size:12.000000"
     id="g584">
    <path
       d="M 51.966500,36.048600 C 53.960200,37.045400 65.472400,34.771300 65.757200,32.635300 C 66.172581,27.312501 55.630700,20.715100 54.064200,20.145500 C 52.497700,19.575900 51.112100,20.063400 50.684900,21.060200 C 50.257700,22.057000 49.688100,35.336500 51.966500,36.048600 z "
       transform="matrix(1.369638,0.000000,0.000000,1.207417,-21.85404,-4.997635)"
       style="fill:#0d3c07;fill-rule:evenodd;stroke-width:1.0000000pt"
       id="path582"
       sodipodi:nodetypes="ccscc" />
    <path
       d="M 51.550600,35.458900 C 53.544300,36.455700 64.224700,34.889200 64.509500,32.753200 C 64.794300,30.617100 60.955464,29.668153 61.382664,28.244153 C 57.018216,23.149473 50.696200,21.360800 50.269000,22.357600 C 49.841800,23.354400 49.272200,34.746800 51.550600,35.458900 z "
       style="fill:#2aaf18;fill-rule:evenodd;stroke-width:1.0000000pt"
       id="path581"
       sodipodi:nodetypes="ccccc" />
    <path
       d="M 61.946200,28.338600 C 63.512600,29.620200 65.363900,32.753100 64.367100,33.607600 C 62.658300,35.174000 52.832300,36.313300 51.693000,35.743700 C 50.553800,35.174000 60.094900,33.465200 60.237300,31.044300 C 60.379700,28.623400 57.458082,27.995128 58.312482,26.571028 C 59.166882,25.147028 61.519000,27.769000 61.946200,28.338600 z "
       style="fill:#208c11;fill-rule:evenodd;stroke-width:1.0000000pt"
       id="path583"
       sodipodi:nodetypes="cccccc" />
  </g>
  <path
     d="M 13.622467,13.633920 C 13.622467,13.633920 9.2461784,9.2993431 8.1563019,8.9967191 C 7.0664954,8.6941571 7.6779509,10.777433 7.6779509,10.777433 C 7.6779509,10.777433 13.214338,12.845256 13.622467,13.633920 z "
     style="font-size:12.000000;fill:#ffffff;fill-rule:evenodd;stroke-width:1.0000000pt"
     id="path589" />
  <path
     style="fill:#0d3c07;fill-rule:evenodd;stroke-width:1.0000000pt"
     d="M 26.720805,4.1509069 L 24.153658,3.8756357 C 22.879648,3.8022527 22.100141,3.7546464 20.408468,3.8944319 L 20.672036,26.791319 C 22.331595,27.239361 22.963254,27.370281 24.430404,27.127991 C 25.479071,26.847422 24.682116,27.094606 26.056212,26.618041 C 26.171175,26.883487 27.139647,5.0799454 26.720805,4.1509069 z "
     id="path590"
     sodipodi:nodetypes="ccccccc" />
  <path
     style="fill:#2aaf18;fill-rule:evenodd;stroke-width:1.0000000pt"
     d="M 25.438896,5.0554263 C 24.880020,4.8500916 24.321746,4.8134214 23.763481,4.7767511 C 23.205208,4.7400809 22.706632,4.6752134 22.089262,4.8354061 L 22.165551,26.199675 C 22.654782,26.437912 23.143491,26.535591 23.631918,26.548938 C 24.120336,26.562273 24.399257,26.519703 25.096087,26.279749 L 25.438896,5.0554263 z "
     id="path591"
     sodipodi:nodetypes="ccccccc" />
  <path
     style="fill:#208c11;fill-rule:evenodd;stroke-width:1.0000000pt"
     d="M 22.408691,5.0879412 L 22.429230,26.002518 C 22.429230,26.002518 22.977863,26.135252 23.529475,26.155529 C 24.081088,26.175812 24.635690,26.083645 24.649224,26.083625 C 24.676291,26.083586 24.756189,25.718019 24.375510,25.240688 C 23.944691,24.732158 23.216854,25.376202 23.210425,24.933162 L 22.923200,5.1434159 C 22.921407,5.0201798 22.408315,4.7119259 22.408691,5.0879412 z "
     id="path592"
     sodipodi:nodetypes="ccssssss" />
  <path
     style="fill:#ffffff;fill-rule:evenodd;stroke-width:1.0000000pt"
     d="M 25.039756,5.4441021 C 24.562885,4.9190781 23.772299,5.2206364 23.772432,5.2581872 C 24.332624,6.9471771 24.243909,15.358777 24.243909,15.358777 C 24.357332,15.715351 24.520300,16.859275 24.625372,16.879050 C 24.718349,16.896543 24.831428,15.799888 24.838057,15.470570 L 25.039756,5.4441021 z "
     id="path577"
     sodipodi:nodetypes="ccsssc" />
</svg>
