<?xml version="1.0" encoding="UTF-8" standalone="no"?>
<!-- Created with Sodipodi ("http://www.sodipodi.com/") -->
<svg
   xmlns:dc="http://purl.org/dc/elements/1.1/"
   xmlns:cc="http://creativecommons.org/ns#"
   xmlns:rdf="http://www.w3.org/1999/02/22-rdf-syntax-ns#"
   xmlns:svg="http://www.w3.org/2000/svg"
   xmlns="http://www.w3.org/2000/svg"
   xmlns:xlink="http://www.w3.org/1999/xlink"
   xmlns:sodipodi="http://sodipodi.sourceforge.net/DTD/sodipodi-0.dtd"
   xmlns:inkscape="http://www.inkscape.org/namespaces/inkscape"
   id="svg604"
   sodipodi:version="0.32"
   width="72pt"
   height="72pt"
   sodipodi:docbase="/home/zeus/images/icons/gartoon/svg"
   sodipodi:docname="notebook-new.svg"
   inkscape:version="0.46+devel"
   inkscape:output_extension="org.inkscape.output.svg.inkscape">
  <metadata
     id="metadata45">
    <rdf:RDF>
      <cc:Work
         rdf:about="">
        <dc:format>image/svg+xml</dc:format>
        <dc:type
           rdf:resource="http://purl.org/dc/dcmitype/StillImage" />
      </cc:Work>
    </rdf:RDF>
  </metadata>
  <defs
     id="defs606">
    <linearGradient
       id="linearGradient612">
      <stop
         style="stop-color:#7fa8e3;stop-opacity:0.741176;"
         offset="0.000000"
         id="stop613" />
      <stop
         style="stop-color:#ffffff;stop-opacity:0;"
         offset="1.000000"
         id="stop614" />
    </linearGradient>
    <linearGradient
       xlink:href="#linearGradient612"
       id="linearGradient615"
       x1="50.6438866"
       y1="5.36792946"
       x2="35.7520943"
       y2="68.0443573"
       gradientUnits="userSpaceOnUse"
       spreadMethod="pad"
       gradientTransform="matrix(0.9184512,0,0,0.9184512,2.0866636,3.0845114)" />
  </defs>
  <sodipodi:namedview
     id="base"
     showgrid="false"
     inkscape:zoom="2.9444444"
     inkscape:cx="33.286913"
     inkscape:cy="39.448148"
     inkscape:window-width="640"
     inkscape:window-height="724"
     inkscape:window-x="0"
     inkscape:window-y="1"
     inkscape:current-layer="svg604" />
  <path
     style="fill:#000000;fill-opacity:0.30147101;fill-rule:evenodd;stroke:none"
     d="M 11.267649,79.763 C 8.6387409,78.568002 5.0539318,74.744204 6.9658524,69.486388 7.9217531,63.750745 25.129038,13.084857 28.952944,10.69497 31.342722,8.5440822 34.808205,7.7075947 39.70749,9.0220488 43.770309,9.9780144 80.335679,19.537672 82.486545,21.449516 84.637519,23.361469 86.310451,24.91489 84.637519,29.097219 83.44263,31.248085 69.222601,79.523978 68.983688,82.630929 68.027711,85.976793 65.279401,90.039612 60.73854,89.80059 56.197787,89.561569 14.613513,80.479955 11.267649,79.763 z"
     id="path794"
     sodipodi:nodetypes="ccccccccc" />
  <path
     style="fill:#3d4e67;fill-opacity:1;fill-rule:evenodd;stroke:none"
     d="M 8.4959993,75.328354 C 5.8670911,74.133356 2.282282,70.309559 4.1942025,65.051742 5.1501033,59.3161 22.357388,8.6502117 26.181294,6.2603246 28.571073,4.1094371 32.036555,3.2729495 36.93584,4.5874036 40.998659,5.5433693 77.564029,15.103026 79.714895,17.014871 81.865869,18.926824 83.538801,20.480245 81.865869,24.662574 80.67098,26.81344 66.450951,75.089333 66.212038,78.196283 65.256062,81.542147 62.507751,85.604966 57.96689,85.365945 53.426137,85.126924 11.841863,76.04531 8.4959993,75.328354 z"
     id="path609"
     sodipodi:nodetypes="ccccccccc" />
  <path
     style="fill:#ffffff;fill-opacity:1;fill-rule:evenodd;stroke:none"
     d="M 13.992837,71.265535 C 11.244526,70.54858 7.3010017,69.831517 8.7350205,65.529785 11.363929,55.01426 24.747384,14.624983 30.483026,9.6061883 31.797534,8.4111906 36.218776,7.9332564 44.583436,10.562165 54.143092,13.429986 73.501211,19.882692 75.413163,20.838668 77.325008,21.794645 78.042072,21.794645 76.608052,26.096485 74.457186,30.398325 64.897638,67.202717 62.507643,73.416401 60.834819,77.837752 60.476287,79.869108 57.608358,79.869108"
     id="path608"
     sodipodi:nodetypes="cccccccs" />
  <path
     style="fill:url(#linearGradient615);fill-opacity:1;fill-rule:evenodd;stroke:none"
     d="m 28.492135,15.713215 c 0,0 2.8701598,-5.7403656 10.045559,-4.0182698 C 45.713094,13.417087 73.84066,20.879502 73.553644,23.175631 73.266628,25.471759 68.10034,38.96151 67.813324,40.109573 67.526309,41.257637 41.120837,40.683606 31.075278,46.710941 21.029718,52.738277 13.567303,57.904565 13.567303,57.904565 c 0,0 10.332576,-32.14579 14.924831,-42.19135 z"
     id="path636" />
  <path
     style="fill:none;stroke:#42667e;stroke-width:0.97007875pt;stroke-linecap:butt;stroke-linejoin:miter;stroke-opacity:1"
     d="M 32.022431,18.936878 71.407046,29.402669"
     id="path671" />
  <path
     style="fill:none;stroke:#42667e;stroke-width:0.97007885pt;stroke-linecap:butt;stroke-linejoin:miter;stroke-opacity:1"
     d="M 29.174856,25.878465 68.195412,36.507324"
     id="path672" />
  <path
     style="fill:none;stroke:#42667e;stroke-width:0.97007875pt;stroke-linecap:butt;stroke-linejoin:miter;stroke-opacity:1"
     d="M 25.687848,34.635627 65.072463,45.101419"
     id="path673" />
  <path
     style="fill:none;stroke:#42667e;stroke-width:0.97007875pt;stroke-linecap:butt;stroke-linejoin:miter;stroke-opacity:1"
     d="M 19.904096,51.160628 59.288711,61.626419"
     id="path675" />
  <path
     style="fill:none;stroke:#42667e;stroke-width:0.97007885pt;stroke-linecap:butt;stroke-linejoin:miter;stroke-opacity:1"
     d="m 17.056527,58.102218 39.020556,10.62886"
     id="path676" />
  <path
     style="fill:none;stroke:#42667e;stroke-width:0.97007885pt;stroke-linecap:butt;stroke-linejoin:miter;stroke-opacity:1"
     d="M 22.840274,41.577217 61.86083,52.206077"
     id="path674" />
  <path
     style="font-size:12px;fill:none;stroke:#4f4f4f;stroke-width:2.71652341;stroke-linecap:round;stroke-opacity:1;stroke-dasharray:none"
     d="M 38.686576,14.498478 C 35.52453,14.233648 34.205963,11.64241 34.51683,7.9307004 34.8277,4.2189621 37.646378,1.4214726 40.808424,1.6863041 c 3.162047,0.2648315 4.074623,1.4401603 3.763754,5.151889"
     id="path667"
     sodipodi:nodetypes="cccc" />
  <path
     style="font-size:12px;fill:none;stroke:#c2c2c2;stroke-width:0.59054846;stroke-linecap:round;stroke-opacity:1;stroke-dasharray:none"
     d="m 38.709562,14.224035 c -3.162047,-0.264832 -4.76397,-2.603432 -4.453103,-6.3151422 0.31087,-3.7117384 3.198508,-7.3325943 6.360555,-7.0677628 3.162046,0.26483156 4.266033,2.2853335 3.955164,5.9970622"
     id="path668"
     sodipodi:nodetypes="cccc" />
  <path
     style="font-size:12px;fill:none;stroke:#4f4f4f;stroke-width:2.71652341;stroke-linecap:round;stroke-opacity:1;stroke-dasharray:none"
     d="m 48.954988,17.293157 c -3.162047,-0.264832 -4.480614,-2.85607 -4.169747,-6.56778 0.31087,-3.7117375 3.129548,-6.5092268 6.291596,-6.2443954 3.162047,0.2648314 4.074623,1.4401603 3.763754,5.1518894"
     id="path669"
     sodipodi:nodetypes="cccc" />
  <path
     style="font-size:12px;fill:none;stroke:#c2c2c2;stroke-width:0.59054846;stroke-linecap:round;stroke-opacity:1;stroke-dasharray:none"
     d="m 48.977974,17.018713 c -3.162046,-0.264832 -4.76397,-2.603432 -4.453104,-6.315142 0.31087,-3.7117383 3.198508,-7.3325941 6.360555,-7.0677625 3.162048,0.2648314 4.266035,2.2853334 3.955166,5.9970625"
     id="path670"
     sodipodi:nodetypes="cccc" />
  <path
     sodipodi:nodetypes="cccc"
     id="path2516"
     d="m 48.954988,17.293157 c -3.162047,-0.264832 -4.480614,-2.85607 -4.169747,-6.56778 0.31087,-3.7117375 3.129548,-6.5092268 6.291596,-6.2443954 3.162047,0.2648314 4.074623,1.4401603 3.763754,5.1518894"
     style="font-size:12px;fill:none;stroke:#4f4f4f;stroke-width:2.71652341;stroke-linecap:round;stroke-opacity:1;stroke-dasharray:none" />
  <path
     sodipodi:nodetypes="cccc"
     id="path2518"
     d="m 48.977974,17.018713 c -3.162046,-0.264832 -4.76397,-2.603432 -4.453104,-6.315142 0.31087,-3.7117383 3.198508,-7.3325941 6.360555,-7.0677625 3.162048,0.2648314 4.266035,2.2853334 3.955166,5.9970625"
     style="font-size:12px;fill:none;stroke:#c2c2c2;stroke-width:0.59054846;stroke-linecap:round;stroke-opacity:1;stroke-dasharray:none" />
  <path
     sodipodi:nodetypes="cccc"
     id="path2524"
     d="m 59.295964,20.142933 c -3.162046,-0.264833 -4.480613,-2.856071 -4.169746,-6.56778 0.31087,-3.7117384 3.129548,-6.509228 6.291594,-6.2443966 3.162048,0.2648315 4.074623,1.4401603 3.763754,5.1518886"
     style="font-size:12px;fill:none;stroke:#4f4f4f;stroke-width:2.71652341;stroke-linecap:round;stroke-opacity:1;stroke-dasharray:none" />
  <path
     sodipodi:nodetypes="cccc"
     id="path2526"
     d="m 59.318951,19.868487 c -3.162048,-0.264831 -4.763971,-2.603431 -4.453104,-6.315142 0.31087,-3.7117379 3.198508,-7.3325932 6.360555,-7.0677618 3.162046,0.2648316 4.266033,2.2853335 3.955164,5.9970618"
     style="font-size:12px;fill:none;stroke:#c2c2c2;stroke-width:0.59054846;stroke-linecap:round;stroke-opacity:1;stroke-dasharray:none" />
  <path
     style="font-size:12px;fill:none;stroke:#4f4f4f;stroke-width:2.71652341;stroke-linecap:round;stroke-opacity:1;stroke-dasharray:none"
     d="m 59.295964,20.142933 c -3.162046,-0.264833 -4.480613,-2.856071 -4.169746,-6.56778 0.31087,-3.7117384 3.129548,-6.509228 6.291594,-6.2443966 3.162048,0.2648315 4.074623,1.4401603 3.763754,5.1518886"
     id="path2528"
     sodipodi:nodetypes="cccc" />
  <path
     style="font-size:12px;fill:none;stroke:#c2c2c2;stroke-width:0.59054846;stroke-linecap:round;stroke-opacity:1;stroke-dasharray:none"
     d="m 59.318951,19.868487 c -3.162048,-0.264831 -4.763971,-2.603431 -4.453104,-6.315142 0.31087,-3.7117379 3.198508,-7.3325932 6.360555,-7.0677618 3.162046,0.2648316 4.266033,2.2853335 3.955164,5.9970618"
     id="path2530"
     sodipodi:nodetypes="cccc" />
  <path
     sodipodi:nodetypes="cccc"
     id="path2532"
     d="m 59.440794,20.169788 c -3.162047,-0.264831 -4.480615,-2.856069 -4.169747,-6.56778 0.31087,-3.7117369 3.129547,-6.5092262 6.291595,-6.2443948 3.162048,0.2648315 4.074623,1.4401604 3.763755,5.1518888"
     style="font-size:12px;fill:none;stroke:#4f4f4f;stroke-width:2.71652341;stroke-linecap:round;stroke-opacity:1;stroke-dasharray:none" />
  <path
     sodipodi:nodetypes="cccc"
     id="path2534"
     d="m 59.46378,19.895344 c -3.162047,-0.264832 -4.763971,-2.603432 -4.453104,-6.315142 0.31087,-3.711738 3.198507,-7.3325939 6.360555,-7.0677623 3.162048,0.2648315 4.266034,2.2853335 3.955166,5.9970623"
     style="font-size:12px;fill:none;stroke:#c2c2c2;stroke-width:0.59054846;stroke-linecap:round;stroke-opacity:1;stroke-dasharray:none" />
  <path
     style="font-size:12px;fill:none;stroke:#4f4f4f;stroke-width:2.71652341;stroke-linecap:round;stroke-opacity:1;stroke-dasharray:none"
     d="m 69.78177,23.019564 c -3.162046,-0.264833 -4.480614,-2.856071 -4.169746,-6.56778 0.31087,-3.711738 3.129547,-6.5092278 6.291593,-6.244396 3.162049,0.264831 4.074623,1.44016 3.763755,5.151888"
     id="path2540"
     sodipodi:nodetypes="cccc" />
  <path
     style="font-size:12px;fill:none;stroke:#c2c2c2;stroke-width:0.59054846;stroke-linecap:round;stroke-opacity:1;stroke-dasharray:none"
     d="m 69.804757,22.745119 c -3.162049,-0.264832 -4.763971,-2.603432 -4.453104,-6.315142 0.31087,-3.711739 3.198507,-7.332594 6.360555,-7.0677625 3.162046,0.2648316 4.266032,2.2853335 3.955164,5.9970615"
     id="path2542"
     sodipodi:nodetypes="cccc" />
  <path
     sodipodi:nodetypes="cccc"
     id="path2544"
     d="m 69.78177,23.019564 c -3.162046,-0.264833 -4.480614,-2.856071 -4.169746,-6.56778 0.31087,-3.711738 3.129547,-6.5092278 6.291593,-6.244396 3.162049,0.264831 4.074623,1.44016 3.763755,5.151888"
     style="font-size:12px;fill:none;stroke:#4f4f4f;stroke-width:2.71652341;stroke-linecap:round;stroke-opacity:1;stroke-dasharray:none" />
  <path
     sodipodi:nodetypes="cccc"
     id="path2546"
     d="m 69.804757,22.745119 c -3.162049,-0.264832 -4.763971,-2.603432 -4.453104,-6.315142 0.31087,-3.711739 3.198507,-7.332594 6.360555,-7.0677625 3.162046,0.2648316 4.266032,2.2853335 3.955164,5.9970615"
     style="font-size:12px;fill:none;stroke:#c2c2c2;stroke-width:0.59054846;stroke-linecap:round;stroke-opacity:1;stroke-dasharray:none" />
  <g
     id="g2363"
     transform="matrix(2.8054875,0,0,2.8054875,5.7161262,6.0677052)">
    <path
       sodipodi:nodetypes="csscssscssscssscs"
       id="path2365"
       d="m 14.230456,18.757556 c -0.676682,-0.013059 -0.946923,1.93754 -0.946923,2.614346 0,0.676807 0.270148,2.567937 0.946923,2.561264 l 4.726329,-0.046599 0.0131,4.861961 c 0.001823,0.676806 1.831371,0.890745 2.508181,0.890745 0.676806,0 2.405006,-0.213944 2.402008,-0.890745 l -0.021832,-4.934631 4.685333,0.066187 c 0.67674,0.009555 1.238285,-1.831375 1.238285,-2.508182 0,-0.676806 -0.455329,-2.396734 -1.132119,-2.402015 L 23.610289,18.93059 23.508488,14.087872 c -0.014224,-0.676658 -1.353616,-0.983344 -2.030422,-0.983344 -0.67681,0 -2.398841,0.412709 -2.402013,1.089511 l -0.021832,4.656582 z"
       style="font-size:12px;fill:#0d3d07;fill-rule:evenodd;stroke:#0d3d07;stroke-width:0.26984996" />
    <path
       sodipodi:nodetypes="csscssscssscssscs"
       id="path2367"
       d="m 14.700826,19.599684 c -0.449181,0.000799 -0.761731,1.323035 -0.761731,1.772218 0,0.449183 0.206382,1.665673 0.655563,1.66605 l 5.152486,0.004304 0.008695,5.504413 c 0.000711,0.449183 1.163783,0.619144 1.612965,0.619144 0.44918,0 1.720315,-0.116878 1.719133,-0.566061 l -0.014489,-5.517412 5.215186,-0.044388 c 0.449166,-0.003825 0.764822,-1.216867 0.764822,-1.66605 0,-0.449183 -0.368773,-1.65942 -0.817909,-1.666049 l -5.362844,-0.07917 0.055986,-5.227694 c 0.004807,-0.449157 -1.110705,-0.602478 -1.559885,-0.602478 -0.449182,0 -1.597788,0.206638 -1.612965,0.655562 l -0.173742,5.138913 z"
       style="font-size:12px;fill:#2aaf18;fill-opacity:1;fill-rule:evenodd;stroke:none" />
    <path
       sodipodi:nodetypes="cssscsssss"
       id="path2369"
       d="m 21.781987,22.556248 0.040858,5.775348 c 0.00162,0.22918 0.057745,0.400623 0.286928,0.400623 0.229183,0 0.689288,-0.171443 0.68755,-0.400623 l -0.043813,-5.781983 5.727703,0.040858 c 0.229178,0.001636 0.437044,-0.458367 0.437044,-0.687548 0,-0.229186 -0.207866,-0.284938 -0.437044,-0.286931 l -5.721787,-0.049729 c -0.652562,-0.005672 -0.982055,0.337412 -0.977439,0.989985 z"
       style="font-size:12px;fill:#208c11;fill-opacity:1;fill-rule:evenodd;stroke:none" />
    <path
       sodipodi:nodetypes="cssscsssss"
       id="path2371"
       d="m 21.142896,20.056349 -0.004437,-5.520408 c -0.000183,-0.229183 -0.094164,-0.400622 -0.323348,-0.400622 -0.229186,0 -0.687857,0.171439 -0.687551,0.400622 l 0.007394,5.52704 -5.399921,-0.040857 c -0.229177,-0.001734 -0.437041,0.458369 -0.437041,0.687553 0,0.229183 0.207868,0.284819 0.437041,0.286931 l 5.394005,0.049726 c 0.652561,0.006016 1.014383,-0.337399 1.013858,-0.989985 z"
       style="font-size:12px;fill:#ebf8e9;fill-opacity:1;fill-rule:evenodd;stroke:none" />
  </g>
</svg>
