<?xml version="1.0" encoding="UTF-8" standalone="no"?>
<!-- Created with Inkscape (http://www.inkscape.org/) -->
<svg
   xmlns:dc="http://purl.org/dc/elements/1.1/"
   xmlns:cc="http://web.resource.org/cc/"
   xmlns:rdf="http://www.w3.org/1999/02/22-rdf-syntax-ns#"
   xmlns:svg="http://www.w3.org/2000/svg"
   xmlns="http://www.w3.org/2000/svg"
   xmlns:sodipodi="http://sodipodi.sourceforge.net/DTD/sodipodi-0.dtd"
   xmlns:inkscape="http://www.inkscape.org/namespaces/inkscape"
   version="1.0"
   x="0.00000000"
   y="0.00000000"
   width="90"
   height="90"
   id="svg548"
   sodipodi:version="0.32"
   sodipodi:docname="object-flip-horizontal.svg"
   sodipodi:docbase="/home/tweenk/GNUtoon/actions"
   inkscape:version="0.45.1"
   inkscape:output_extension="org.inkscape.output.svg.inkscape">
  <metadata
     id="metadata15">
    <rdf:RDF>
      <cc:Work
         rdf:about="">
        <dc:format>image/svg+xml</dc:format>
        <dc:type
           rdf:resource="http://purl.org/dc/dcmitype/StillImage" />
      </cc:Work>
    </rdf:RDF>
  </metadata>
  <sodipodi:namedview
     id="base"
     inkscape:zoom="1.707"
     inkscape:cx="30.057665"
     inkscape:cy="28.883471"
     inkscape:window-width="1014"
     inkscape:window-height="696"
     inkscape:window-x="0"
     inkscape:window-y="33"
     inkscape:current-layer="svg548"
     width="90px"
     height="90px" />
  <defs
     id="defs550" />
  <path
     style="font-size:12px;fill:#0d3c07;fill-rule:evenodd;stroke-width:1pt"
     d="M 27.63329,16.656975 C 25.028735,17.187891 -1.4711679,37.016697 0.78776012,43.837059 C 2.0433831,50.403465 24.730949,75.467205 29.306591,72.757329 C 37.23503,70.091895 35.944874,61.752813 38.255099,58.918686 C 38.962193,57.687675 49.442828,58.128555 51.204977,58.752957 C 54.529829,60.674928 52.175207,70.352217 60.808256,73.254522 C 65.383898,75.964401 88.14422,50.900658 89.39984,44.334252 C 91.658765,37.513893 65.158862,17.685087 62.554307,17.154174 C 57.695768,17.418588 56.342957,17.981931 54.308345,25.857591 C 48.763127,25.504362 42.621356,26.212272 37.076408,25.994874 C 35.962394,20.331603 33.40526,17.216874 27.63329,16.656975 z "
     id="path582"
     sodipodi:nodetypes="ccccccccccc" />
  <path
     style="font-size:12px;fill:#2aaf18;fill-rule:evenodd;stroke-width:1pt"
     d="M 27.706043,24.114924 C 25.615733,24.659112 6.7667241,38.745537 8.2812291,43.837059 C 9.0093081,48.787875 23.888228,66.204663 27.63329,63.890655 C 31.378514,61.576509 30.025682,53.980131 32.79869,52.869465 C 33.702941,52.507263 36.862019,52.334817 40.437665,52.206534 C 47.110307,52.801227 55.653503,52.61781 57.316154,53.283795 C 60.089165,54.394461 58.736333,61.990842 62.481554,64.304985 C 66.226616,66.618993 81.178292,49.285071 81.906371,44.334252 C 83.420873,39.242736 64.571867,25.156305 62.481554,24.612123 C 60.391244,24.067938 59.932847,26.92362 59.019407,30.530349 C 58.85132,31.194045 58.94684,32.810259 57.60716,33.064467 C 49.466651,32.912913 41.283236,32.570589 33.162449,32.650134 C 31.473329,32.414682 32.020208,31.124595 31.827242,30.362676 C 30.913805,26.755947 32.322716,23.131374 27.706043,24.114924 z "
     id="path581"
     sodipodi:nodetypes="ccsscsscssccsc" />
  <path
     style="font-size:12px;fill:#208c11;fill-rule:evenodd;stroke-width:1pt"
     d="M 53.751302,43.688025 C 46.271012,43.414101 38.723183,43.090602 31.343648,44.582853 C 28.073138,44.916048 29.485301,50.829987 25.450727,53.780991 C 21.41615,56.731995 7.5743991,41.670918 7.9902201,44.499987 C 8.4063141,47.329104 21.612893,63.685983 26.105498,64.719315 C 28.631522,65.400639 31.482902,57.917343 31.70741,53.366658 C 40.194848,52.147452 49.819301,52.417986 58.407437,53.780991 C 58.631945,58.331673 61.483322,65.897835 64.009349,65.216514 C 68.501951,64.183182 81.781286,47.826303 82.19738,44.997183 C 82.613201,42.168111 68.771447,57.229188 64.73687,54.278184 C 60.702296,51.327189 62.114465,45.330378 58.843949,44.997183 C 57.115115,43.929462 56.142587,43.924131 53.751302,43.688025 z "
     id="path583"
     sodipodi:nodetypes="ccssccccsscc" />
  <path
     id="path589"
     style="font-size:12px;fill:#ffffff;fill-rule:evenodd;stroke-width:1pt"
     d="M 78.124229,40.793064 C 78.124229,40.793064 68.816345,30.292248 66.498293,29.559123 C 64.180394,28.826145 65.480894,33.873027 65.480894,33.873027 C 65.480894,33.873027 77.256185,38.882472 78.124229,40.793064 z " />
  <path
     d="M 56.412077,35.638968 C 56.412077,35.638968 32.212142,34.293366 31.178156,35.944893 C 30.144329,37.596285 50.764913,41.515095 56.412077,35.638968 z "
     style="font-size:12px;fill:#ffffff;fill-rule:evenodd;stroke-width:1pt"
     id="path2255" />
  <path
     d="M 12.033149,40.324278 C 12.033149,40.324278 21.341039,29.823459 23.659085,29.090331 C 25.976987,28.357353 24.676487,33.404238 24.676487,33.404238 C 24.676487,33.404238 12.901193,38.413686 12.033149,40.324278 z "
     style="font-size:12px;fill:#ffffff;fill-rule:evenodd;stroke-width:1pt"
     id="path2257" />
</svg>
