<?xml version="1.0" encoding="UTF-8" standalone="no"?>
<!-- Created with Inkscape (http://www.inkscape.org/) -->
<svg
   xmlns:dc="http://purl.org/dc/elements/1.1/"
   xmlns:cc="http://creativecommons.org/ns#"
   xmlns:rdf="http://www.w3.org/1999/02/22-rdf-syntax-ns#"
   xmlns:svg="http://www.w3.org/2000/svg"
   xmlns="http://www.w3.org/2000/svg"
   xmlns:xlink="http://www.w3.org/1999/xlink"
   xmlns:sodipodi="http://sodipodi.sourceforge.net/DTD/sodipodi-0.dtd"
   xmlns:inkscape="http://www.inkscape.org/namespaces/inkscape"
   width="90"
   height="90"
   id="svg2"
   sodipodi:version="0.32"
   inkscape:version="0.46+devel"
   version="1.0"
   sodipodi:docname="package-downgrade.svg"
   inkscape:output_extension="org.inkscape.output.svg.inkscape">
  <defs
     id="defs4">
    <linearGradient
       inkscape:collect="always"
       id="linearGradient3275">
      <stop
         style="stop-color:#2aaf18;stop-opacity:1;"
         offset="0"
         id="stop3277" />
      <stop
         style="stop-color:#cbff87;stop-opacity:1"
         offset="1"
         id="stop3279" />
    </linearGradient>
    <linearGradient
       inkscape:collect="always"
       xlink:href="#linearGradient3275"
       id="linearGradient3281"
       x1="78.791901"
       y1="79.645935"
       x2="11.364216"
       y2="10.450487"
       gradientUnits="userSpaceOnUse" />
    <inkscape:perspective
       id="perspective12"
       inkscape:persp3d-origin="45 : 30 : 1"
       inkscape:vp_z="90 : 45 : 1"
       inkscape:vp_y="0 : 1000 : 0"
       inkscape:vp_x="0 : 45 : 1"
       sodipodi:type="inkscape:persp3d" />
  </defs>
  <sodipodi:namedview
     id="base"
     pagecolor="#ffffff"
     bordercolor="#666666"
     borderopacity="1.0"
     gridtolerance="10000"
     guidetolerance="10"
     objecttolerance="10"
     inkscape:pageopacity="0.0"
     inkscape:pageshadow="2"
     inkscape:zoom="3.959798"
     inkscape:cx="36.488507"
     inkscape:cy="36.061872"
     inkscape:document-units="px"
     inkscape:current-layer="layer1"
     showgrid="false"
     inkscape:window-width="936"
     inkscape:window-height="724"
     inkscape:window-x="0"
     inkscape:window-y="1" />
  <metadata
     id="metadata7">
    <rdf:RDF>
      <cc:Work
         rdf:about="">
        <dc:format>image/svg+xml</dc:format>
        <dc:type
           rdf:resource="http://purl.org/dc/dcmitype/StillImage" />
      </cc:Work>
    </rdf:RDF>
  </metadata>
  <g
     inkscape:label="Layer 1"
     inkscape:groupmode="layer"
     id="layer1">
    <rect
       style="opacity:1;color:#000000;fill:url(#linearGradient3281);fill-opacity:1;fill-rule:nonzero;stroke:#34674b;stroke-width:3;marker:none;marker-start:none;marker-mid:none;marker-end:none;visibility:visible;display:inline;overflow:visible;enable-background:accumulate;stroke-opacity:1;stroke-miterlimit:4;stroke-dasharray:none"
       id="rect2479"
       width="70"
       height="70"
       x="10"
       y="10" />
    <g
       id="g3440"
       transform="matrix(-4.3417419e-2,-0.8305026,-0.8305026,4.3417419e-2,75.209408,89.163001)">
      <path
         id="path3442"
         style="font-size:12px;fill:#7e0000;fill-rule:evenodd"
         d="M 3.333294,36.612433 C 4.02073,28.662655 32.921713,2.148566 39.470476,4.548626 c 12.020247,1.925146 9.829998,15.64455 14.581458,17.333049 4.783908,0.837921 46.298096,5.377852 27.519765,49.922321 -3.416424,7.979301 -5.586426,9.476091 -9.157404,12.092052 -3.474885,2.352036 -9.054162,2.489691 -13.57824,-2.598024 C 54.703441,75.15805 56.487844,69.104959 58.404523,64.019656 64.435996,48.796708 53.306647,48.614032 47.150791,45.40033 45.712018,50.727499 43.060885,63.299143 39.486757,63.124258 35.912599,62.949403 2.443404,52.491625 3.333294,36.612433 z" />
      <path
         id="path3444"
         style="font-size:12px;fill:#ff1500;fill-rule:evenodd"
         d="M 8.446422,36.104761 C 8.671492,30.148717 33.16225,8.993489 38.536837,11.070993 c 5.374854,2.077615 2.644554,9.648349 4.949073,13.853451 52.3479,1.082925 38.698398,59.571898 21.740004,52.788664 C 55.938361,74.111125 71.765944,58.965703 64.403689,48.701887 58.159363,39.747295 41.67184,38.063992 41.332987,40.266598 40.655269,44.671885 39.82177,57.843466 36.935407,57.564031 34.049002,57.284593 7.187855,42.362458 8.446422,36.104761 z" />
      <path
         id="path3446"
         style="font-size:12px;fill:#ffffff;fill-rule:evenodd"
         d="M 79.220233,61.882288 C 77.170849,48.794326 74.154064,41.120473 67.023274,35.725681 59.176849,29.485594 45.856939,28.52831 45.454459,27.393359 45.052036,26.258437 55.114666,29.27799 62.887078,31.6027 77.459005,35.900323 80.496934,52.851127 79.220233,61.882288 z" />
      <path
         id="path3448"
         style="font-size:12px;fill:#ffffff;fill-rule:evenodd"
         d="m 20.325056,30.515338 c 1.657093,-1.933262 13.32302,-11.679728 16.505117,-12.358004 3.181908,-0.678077 1.061961,5.196361 1.061961,5.196361 0,0 -16.257371,4.968638 -17.567078,7.161643 z" />
      <path
         id="path615"
         style="font-size:12px;fill:#cb0000;fill-rule:evenodd;stroke-width:1"
         d="m 8.605324,36.030604 c -1.380909,8.184135 28.72269,21.824349 28.72269,21.824349 2.761806,-2.182431 4.418883,-16.913859 7.180677,-18.823506 4.971234,2.182446 20.437302,6.547308 21.265833,12.276198 0.828561,5.728893 -3.314154,17.186673 -3.86652,19.914705 -1.104714,4.09209 2.485626,7.911336 6.075963,6.274521 3.59034,-1.63683 4.142703,-4.91049 4.142703,-4.91049 0,0 -3.86652,1.5e-05 -4.418883,-3.000846 C 67.155436,66.584689 75.164644,51.853261 71.021941,46.124368 66.879253,40.395478 50.308471,32.484172 40.08982,33.302572 l -4.142703,16.913844 c 0,0 -4.142688,-0.272772 -27.341793,-14.185812 z" />
    </g>
  </g>
</svg>
