<?xml version="1.0" encoding="UTF-8" standalone="no"?>
<!-- Created with Sodipodi ("http://www.sodipodi.com/") -->
<svg
   xmlns:dc="http://purl.org/dc/elements/1.1/"
   xmlns:cc="http://creativecommons.org/ns#"
   xmlns:rdf="http://www.w3.org/1999/02/22-rdf-syntax-ns#"
   xmlns:svg="http://www.w3.org/2000/svg"
   xmlns="http://www.w3.org/2000/svg"
   xmlns:xlink="http://www.w3.org/1999/xlink"
   xmlns:sodipodi="http://sodipodi.sourceforge.net/DTD/sodipodi-0.dtd"
   xmlns:inkscape="http://www.inkscape.org/namespaces/inkscape"
   id="svg604"
   sodipodi:version="0.32"
   width="90"
   height="90"
   sodipodi:docbase="/home/tweenk/GNUtoon/stock/document"
   sodipodi:docname="seahorse-share-keys.svg"
   inkscape:version="0.46+devel"
   inkscape:output_extension="org.inkscape.output.svg.inkscape"
   version="1.0">
  <metadata
     id="metadata23">
    <rdf:RDF>
      <cc:Work
         rdf:about="">
        <dc:format>image/svg+xml</dc:format>
        <dc:type
           rdf:resource="http://purl.org/dc/dcmitype/StillImage" />
      </cc:Work>
    </rdf:RDF>
  </metadata>
  <defs
     id="defs606"><inkscape:perspective
   sodipodi:type="inkscape:persp3d"
   inkscape:vp_x="0 : 45 : 1"
   inkscape:vp_y="0 : 1000 : 0"
   inkscape:vp_z="90 : 45 : 1"
   inkscape:persp3d-origin="45 : 30 : 1"
   id="perspective16" />

  
    
    <radialGradient
   gradientUnits="userSpaceOnUse"
   r="69.292931"
   fy="30.546623"
   fx="44.176689"
   cy="30.546623"
   cx="44.176689"
   gradientTransform="scale(0.965451,1.035785)"
   id="radialGradient1847"
   xlink:href="#linearGradient1843"
   inkscape:collect="always" />

    <metadata
   id="metadata4">
      <rdf:RDF>
        <cc:Work
   rdf:about="">
          <dc:format>image/svg+xml</dc:format>

          <dc:type
   rdf:resource="http://purl.org/dc/dcmitype/StillImage" />

        </cc:Work>

      </rdf:RDF>

    </metadata>

    <sodipodi:namedview
   inkscape:window-y="56"
   inkscape:window-x="103"
   inkscape:window-height="560"
   inkscape:window-width="812"
   inkscape:cy="73.007956"
   inkscape:cx="113.94414"
   inkscape:zoom="2.4559706"
   inkscape:pageshadow="2"
   inkscape:pageopacity="0.0"
   borderopacity="1.0"
   bordercolor="#666666"
   pagecolor="#ffffff"
   id="namedview1078" />

    <defs
   id="defs3">
      <sodipodi:namedview
   id="namedview909" />

      <defs
   id="defs550">
        <linearGradient
   xlink:href="#linearGradient1840"
   spreadMethod="pad"
   gradientUnits="objectBoundingBox"
   id="linearGradient632"
   y2="0.0000000"
   x2="1.0000000"
   y1="0.0000000"
   x1="0.0000000" />

        <linearGradient
   xlink:href="#linearGradient1853"
   spreadMethod="pad"
   gradientUnits="objectBoundingBox"
   id="linearGradient556"
   y2="0.0000000"
   x2="1.0000000"
   y1="0.0000000"
   x1="0.0000000" />

        <linearGradient
   spreadMethod="pad"
   gradientUnits="userSpaceOnUse"
   y2="69.142799"
   x2="35.370575"
   y1="19.295689"
   x1="60.644615"
   xlink:href="#linearGradient632"
   id="linearGradient559" />

        <linearGradient
   gradientTransform="scale(0.740666,1.350136)"
   spreadMethod="pad"
   gradientUnits="userSpaceOnUse"
   y2="54.628181"
   x2="73.916298"
   y1="17.443844"
   x1="85.637657"
   id="linearGradient631"
   xlink:href="#linearGradient632" />

      </defs>

    </defs>

    <linearGradient
   id="linearGradient1840">
      <stop
   id="stop1842"
   style="stop-color:#ffb700;stop-opacity:1.0000000;"
   offset="0.0000000" />

      <stop
   id="stop1841"
   style="stop-color:#ffd58f;stop-opacity:0.0000000;"
   offset="1.0000000" />

    </linearGradient>

    <linearGradient
   id="linearGradient1843">
      <stop
   id="stop1844"
   offset="0.0000000"
   style="stop-color:#ffe6bb;stop-opacity:1.0000000;" />

      <stop
   id="stop1845"
   offset="1.0000000"
   style="stop-color:#ff933d;stop-opacity:1.0000000;" />

    </linearGradient>

    <linearGradient
   id="linearGradient1853">
      <stop
   id="stop1855"
   style="stop-color:#000000;stop-opacity:1.0000000;"
   offset="0.0000000" />

      <stop
   id="stop1854"
   style="stop-color:#3b91cd;stop-opacity:0.98969072;"
   offset="1.0000000" />

    </linearGradient>

    <inkscape:perspective
   id="perspective2520"
   inkscape:persp3d-origin="45 : 30 : 1"
   inkscape:vp_z="90 : 45 : 1"
   inkscape:vp_y="0 : 1000 : 0"
   inkscape:vp_x="0 : 45 : 1"
   sodipodi:type="inkscape:persp3d" />
<radialGradient
   id="radialGradient738"
   xlink:href="#linearGradient734" />
<radialGradient
   gradientTransform="scale(1.559286,0.641319)"
   spreadMethod="pad"
   gradientUnits="userSpaceOnUse"
   r="14.8945398"
   fy="118.190964"
   fx="33.2134209"
   cy="118.190964"
   cx="33.2134209"
   id="radialGradient733"
   xlink:href="#linearGradient734" />
<linearGradient
   id="linearGradient732"
   xlink:href="#linearGradient734" />
<linearGradient
   gradientTransform="scale(1.185464,0.843551)"
   spreadMethod="pad"
   gradientUnits="userSpaceOnUse"
   y2="68.6665039"
   x2="37.3197212"
   y1="39.8445053"
   x1="40.2607956"
   id="linearGradient723"
   xlink:href="#linearGradient724" />
<linearGradient
   gradientTransform="scale(1.033999,0.967119)"
   spreadMethod="pad"
   gradientUnits="userSpaceOnUse"
   y2="27.2048512"
   x2="24.0375099"
   y1="41.9262352"
   x1="45.4330635"
   id="linearGradient721"
   xlink:href="#linearGradient718" />
<linearGradient
   id="linearGradient718">
  <stop
     id="stop719"
     offset="0.000000"
     style="stop-color:#e3e1cf;stop-opacity:1;" />
  <stop
     id="stop720"
     offset="1.000000"
     style="stop-color:#ffffff;stop-opacity:1;" />
</linearGradient>
<linearGradient
   id="linearGradient724">
  <stop
     id="stop725"
     offset="0.000000"
     style="stop-color:#ffffff;stop-opacity:0.490196;" />
  <stop
     id="stop726"
     offset="1.000000"
     style="stop-color:#ffffff;stop-opacity:0.176471;" />
</linearGradient>
<linearGradient
   id="linearGradient734">
  <stop
     id="stop735"
     offset="0.000000"
     style="stop-color:#2a2535;stop-opacity:1;" />
  <stop
     id="stop736"
     offset="1.000000"
     style="stop-color:#e3e1cf;stop-opacity:1;" />
</linearGradient>
<inkscape:perspective
   id="perspective2595"
   inkscape:persp3d-origin="45 : 30 : 1"
   inkscape:vp_z="90 : 45 : 1"
   inkscape:vp_y="0 : 1000 : 0"
   inkscape:vp_x="0 : 45 : 1"
   sodipodi:type="inkscape:persp3d" />
<inkscape:perspective
   id="perspective2629"
   inkscape:persp3d-origin="0.5 : 0.33333333 : 1"
   inkscape:vp_z="1 : 0.5 : 1"
   inkscape:vp_y="0 : 1000 : 0"
   inkscape:vp_x="0 : 0.5 : 1"
   sodipodi:type="inkscape:persp3d" />

  
    
    <radialGradient
   gradientUnits="userSpaceOnUse"
   r="69.292931"
   fy="30.546623"
   fx="44.176689"
   cy="30.546623"
   cx="44.176689"
   gradientTransform="scale(0.965451,1.035785)"
   id="radialGradient2781"
   xlink:href="#linearGradient1843"
   inkscape:collect="always" />

    <metadata
   id="metadata2779">
      <rdf:RDF>
        <cc:Work
   rdf:about="">
          <dc:format>image/svg+xml</dc:format>

          <dc:type
   rdf:resource="http://purl.org/dc/dcmitype/StillImage" />

        </cc:Work>

      </rdf:RDF>

    </metadata>

    <sodipodi:namedview
   inkscape:window-y="56"
   inkscape:window-x="103"
   inkscape:window-height="560"
   inkscape:window-width="812"
   inkscape:cy="73.007956"
   inkscape:cx="113.94414"
   inkscape:zoom="2.4559706"
   inkscape:pageshadow="2"
   inkscape:pageopacity="0.0"
   borderopacity="1.0"
   bordercolor="#666666"
   pagecolor="#ffffff"
   id="namedview2777" />

    <defs
   id="defs2763">
      <sodipodi:namedview
   id="namedview2765" />

      <defs
   id="defs2767">
        <linearGradient
   xlink:href="#linearGradient1840"
   spreadMethod="pad"
   gradientUnits="objectBoundingBox"
   id="linearGradient2769"
   y2="0.0000000"
   x2="1.0000000"
   y1="0.0000000"
   x1="0.0000000" />

        <linearGradient
   xlink:href="#linearGradient1853"
   spreadMethod="pad"
   gradientUnits="objectBoundingBox"
   id="linearGradient2771"
   y2="0.0000000"
   x2="1.0000000"
   y1="0.0000000"
   x1="0.0000000" />

        <linearGradient
   spreadMethod="pad"
   gradientUnits="userSpaceOnUse"
   y2="69.142799"
   x2="35.370575"
   y1="19.295689"
   x1="60.644615"
   xlink:href="#linearGradient632"
   id="linearGradient2773" />

        <linearGradient
   gradientTransform="scale(0.740666,1.350136)"
   spreadMethod="pad"
   gradientUnits="userSpaceOnUse"
   y2="54.628181"
   x2="73.916298"
   y1="17.443844"
   x1="85.637657"
   id="linearGradient2775"
   xlink:href="#linearGradient632" />

      </defs>

    </defs>

    <linearGradient
   id="linearGradient2757">
      <stop
   id="stop2759"
   style="stop-color:#ffb700;stop-opacity:1.0000000;"
   offset="0.0000000" />

      <stop
   id="stop2761"
   style="stop-color:#ffd58f;stop-opacity:0.0000000;"
   offset="1.0000000" />

    </linearGradient>

    <linearGradient
   id="linearGradient2751">
      <stop
   id="stop2753"
   offset="0.0000000"
   style="stop-color:#ffe6bb;stop-opacity:1.0000000;" />

      <stop
   id="stop2755"
   offset="1.0000000"
   style="stop-color:#ff933d;stop-opacity:1.0000000;" />

    </linearGradient>

    <linearGradient
   id="linearGradient2745">
      <stop
   id="stop2747"
   style="stop-color:#000000;stop-opacity:1.0000000;"
   offset="0.0000000" />

      <stop
   id="stop2749"
   style="stop-color:#3b91cd;stop-opacity:0.98969072;"
   offset="1.0000000" />

    </linearGradient>

    <inkscape:perspective
   id="perspective2742"
   inkscape:persp3d-origin="45 : 30 : 1"
   inkscape:vp_z="90 : 45 : 1"
   inkscape:vp_y="0 : 1000 : 0"
   inkscape:vp_x="0 : 45 : 1"
   sodipodi:type="inkscape:persp3d" />

  <radialGradient
   r="69.292931"
   fy="30.546623"
   fx="44.176689"
   cy="30.546623"
   cx="44.176689"
   gradientTransform="scale(0.965451,1.035785)"
   gradientUnits="userSpaceOnUse"
   id="radialGradient2875"
   xlink:href="#linearGradient1843"
   inkscape:collect="always" />

    <linearGradient
   gradientUnits="userSpaceOnUse"
   y2="15.821439"
   x2="9.1116619"
   y1="54.607960"
   x1="49.805740"
   gradientTransform="scale(1.192647,0.838471)"
   id="linearGradient2873"
   xlink:href="#linearGradient1853"
   inkscape:collect="always" />

    <radialGradient
   gradientUnits="userSpaceOnUse"
   r="69.292931"
   fy="30.546623"
   fx="44.176689"
   cy="30.546623"
   cx="44.176689"
   gradientTransform="scale(0.965451,1.035785)"
   id="radialGradient2871"
   xlink:href="#linearGradient1843"
   inkscape:collect="always" />

    <metadata
   id="metadata2869">
      <rdf:RDF>
        <cc:Work
   rdf:about="">
          <dc:format>image/svg+xml</dc:format>

          <dc:type
   rdf:resource="http://purl.org/dc/dcmitype/StillImage" />

        </cc:Work>

      </rdf:RDF>

    </metadata>

    <sodipodi:namedview
   inkscape:window-y="56"
   inkscape:window-x="103"
   inkscape:window-height="560"
   inkscape:window-width="812"
   inkscape:cy="73.007956"
   inkscape:cx="113.94414"
   inkscape:zoom="2.4559706"
   inkscape:pageshadow="2"
   inkscape:pageopacity="0.0"
   borderopacity="1.0"
   bordercolor="#666666"
   pagecolor="#ffffff"
   id="namedview2867" />

    <defs
   id="defs2853">
      <sodipodi:namedview
   id="namedview2855" />

      <defs
   id="defs2857">
        <linearGradient
   xlink:href="#linearGradient1840"
   spreadMethod="pad"
   gradientUnits="objectBoundingBox"
   id="linearGradient2859"
   y2="0.0000000"
   x2="1.0000000"
   y1="0.0000000"
   x1="0.0000000" />

        <linearGradient
   xlink:href="#linearGradient1853"
   spreadMethod="pad"
   gradientUnits="objectBoundingBox"
   id="linearGradient2861"
   y2="0.0000000"
   x2="1.0000000"
   y1="0.0000000"
   x1="0.0000000" />

        <linearGradient
   spreadMethod="pad"
   gradientUnits="userSpaceOnUse"
   y2="69.142799"
   x2="35.370575"
   y1="19.295689"
   x1="60.644615"
   xlink:href="#linearGradient632"
   id="linearGradient2863" />

        <linearGradient
   gradientTransform="scale(0.740666,1.350136)"
   spreadMethod="pad"
   gradientUnits="userSpaceOnUse"
   y2="54.628181"
   x2="73.916298"
   y1="17.443844"
   x1="85.637657"
   id="linearGradient2865"
   xlink:href="#linearGradient632" />

      </defs>

    </defs>

    <linearGradient
   id="linearGradient2847">
      <stop
   id="stop2849"
   style="stop-color:#ffb700;stop-opacity:1.0000000;"
   offset="0.0000000" />

      <stop
   id="stop2851"
   style="stop-color:#ffd58f;stop-opacity:0.0000000;"
   offset="1.0000000" />

    </linearGradient>

    <linearGradient
   id="linearGradient2841">
      <stop
   id="stop2843"
   offset="0.0000000"
   style="stop-color:#ffe6bb;stop-opacity:1.0000000;" />

      <stop
   id="stop2845"
   offset="1.0000000"
   style="stop-color:#ff933d;stop-opacity:1.0000000;" />

    </linearGradient>

    <linearGradient
   id="linearGradient2835">
      <stop
   id="stop2837"
   style="stop-color:#000000;stop-opacity:1.0000000;"
   offset="0.0000000" />

      <stop
   id="stop2839"
   style="stop-color:#3b91cd;stop-opacity:0.98969072;"
   offset="1.0000000" />

    </linearGradient>

    <inkscape:perspective
   id="perspective2832"
   inkscape:persp3d-origin="45 : 30 : 1"
   inkscape:vp_z="90 : 45 : 1"
   inkscape:vp_y="0 : 1000 : 0"
   inkscape:vp_x="0 : 45 : 1"
   sodipodi:type="inkscape:persp3d" />
<radialGradient
   inkscape:collect="always"
   xlink:href="#linearGradient1843"
   id="radialGradient2889"
   gradientUnits="userSpaceOnUse"
   gradientTransform="scale(0.965451,1.035785)"
   cx="44.176689"
   cy="30.546623"
   fx="44.176689"
   fy="30.546623"
   r="69.292931" />
<linearGradient
   inkscape:collect="always"
   xlink:href="#linearGradient1853"
   id="linearGradient2891"
   gradientUnits="userSpaceOnUse"
   gradientTransform="scale(1.192647,0.838471)"
   x1="49.805740"
   y1="54.607960"
   x2="9.1116619"
   y2="15.821439" />
<linearGradient
   gradientTransform="matrix(1.036821,-1.811349e-6,3.827296e-7,0.964487,2.057071e-6,1.075978e-6)"
   spreadMethod="pad"
   gradientUnits="userSpaceOnUse"
   y2="21.4794312"
   x2="68.3603058"
   y1="32.8688049"
   x1="28.2520447"
   id="linearGradient587"
   xlink:href="#linearGradient584" />
<linearGradient
   id="linearGradient584">
  <stop
     id="stop585"
     offset="0.000000"
     style="stop-color:#ffffff;stop-opacity:0;" />
  <stop
     id="stop586"
     offset="1.000000"
     style="stop-color:#ffffff;stop-opacity:1;" />
</linearGradient>
<inkscape:perspective
   id="perspective2935"
   inkscape:persp3d-origin="45 : 30 : 1"
   inkscape:vp_z="90 : 45 : 1"
   inkscape:vp_y="0 : 1000 : 0"
   inkscape:vp_x="0 : 45 : 1"
   sodipodi:type="inkscape:persp3d" />
</defs>
  <sodipodi:namedview
     id="base"
     inkscape:zoom="3.5649968"
     inkscape:cx="44.915957"
     inkscape:cy="47.961461"
     inkscape:window-width="874"
     inkscape:window-height="724"
     inkscape:window-x="140"
     inkscape:window-y="9"
     inkscape:current-layer="svg604"
     width="90px"
     height="90px"
     showgrid="false" />
  <g
     id="g2942"
     transform="matrix(0.8099315,0,0,0.8099315,0.4422026,0.595626)">
    <path
       transform="matrix(0.941981,0,0,0.941981,5.915554,5.37508)"
       sodipodi:ry="40.459522"
       sodipodi:rx="40.459526"
       sodipodi:cy="45.390781"
       sodipodi:cx="43.364311"
       d="M 83.823837,45.390781 A 40.459526,40.459522 0 1 1 2.9047852,45.390781 40.459526,40.459522 0 1 1 83.823837,45.390781 z"
       id="path589"
       style="font-size:12px;fill:none;stroke:#000000;stroke-width:8.5;stroke-opacity:0.3"
       sodipodi:type="arc" />
    <path
       transform="matrix(0.846155,0,0,0.846155,6.256445,5.738268)"
       sodipodi:ry="40.459522"
       sodipodi:rx="40.459526"
       sodipodi:cy="45.390781"
       sodipodi:cx="43.364311"
       d="M 83.823837,45.390781 A 40.459526,40.459522 0 1 1 2.9047852,45.390781 40.459526,40.459522 0 1 1 83.823837,45.390781 z"
       id="path573"
       style="font-size:12px;fill:#31baff;fill-rule:evenodd;stroke-width:1pt"
       sodipodi:type="arc" />
    <path
       sodipodi:nodetypes="ccccccccc"
       id="path576"
       d="m 28.507,13.4277 5.0005,8.6389 -12.0802,14.964 c 0,0 5.8765,13.7192 10.1312,13.5473 -2.6408,0.5617 -2.6365,11.904 -1.3161,15.4251 4.135,-3.5715 -15.3747,-8.5174 -13.7148,-18.4766 1.6598,-9.9593 0.4862,-12.5098 -4.0785,-5.4553 -4.56468,7.0544 -5.39462,8.9218 -4.97965,5.602 C 7.88442,44.3534 6.46331,19.7781 28.507,13.4277 z"
       style="font-size:12px;fill:#e48e6f;fill-rule:evenodd;stroke-width:1pt" />
    <path
       id="path574"
       d="m 30.7077,12.4007 7.0545,9.9593 -13.694,14.5239 c 0,0 9.5443,13.279 9.5443,13.694 0,0.415 -3.7347,10.7892 -3.7347,10.7892 0,0 -13.279,-7.0545 -11.6191,-17.0137 1.6598,-9.9593 0,-13.694 -4.5647,-6.6395 C 9.12933,44.7683 7.05448,50.9929 7.46945,47.6731 7.88442,44.3534 9.5443,16.5504 30.7077,12.4007 z"
       style="font-size:12px;fill:#fffcac;fill-rule:evenodd;stroke-width:1pt" />
    <path
       sodipodi:nodetypes="ccccccccc"
       id="path575"
       d="m 28.507,13.4277 5.0005,8.6389 -12.0802,14.964 c 0,0 5.8765,13.7192 10.1312,13.5473 -2.6408,0.5617 -3.8814,6.0944 -2.561,9.6155 C 27.5304,55.792 16.5276,56.2407 18.1875,46.2815 19.8473,36.3222 18.2587,30.6594 13.694,37.7139 9.12933,44.7683 7.05448,50.9929 7.46945,47.6731 7.88442,44.3534 6.46331,19.7781 28.507,13.4277 z"
       style="font-size:12px;fill:#ffd87c;fill-rule:evenodd;stroke-width:1pt" />
    <path
       id="path577"
       d="m 42.8405,18.697 c 0,0 5.2817,3.8146 -0.5869,9.3897 -5.8686,5.5752 -14.0845,7.6292 -7.0423,11.4437 7.0423,3.8146 16.7254,4.4014 15.8451,-2.3474 -0.8802,-6.7488 -2.0539,-21.1268 -8.2159,-18.486 z"
       style="font-size:12px;fill:#e48e6f;fill-rule:evenodd;stroke-width:1pt" />
    <path
       transform="matrix(0.968474,0,0,0.938789,2.198177,1.124868)"
       id="path578"
       d="m 42.8405,18.697 c 0,0 5.2817,3.8146 -0.5869,9.3897 -5.8686,5.5752 -14.0845,7.6292 -7.0423,11.4437 7.0423,3.8146 16.7254,4.4014 15.8451,-2.3474 -0.8802,-6.7488 -2.0539,-21.1268 -8.2159,-18.486 z"
       style="font-size:12px;fill:#fffbaa;fill-rule:evenodd;stroke-width:1pt" />
    <path
       transform="matrix(0.82661,0,0,0.889821,6.808317,2.024765)"
       id="path579"
       d="m 42.8405,18.697 c 0,0 5.2817,3.8146 -0.5869,9.3897 -5.8686,5.5752 -14.0845,7.6292 -7.0423,11.4437 7.0423,3.8146 16.7254,4.4014 15.8451,-2.3474 -0.8802,-6.7488 -2.0539,-21.1268 -8.2159,-18.486 z"
       style="font-size:12px;fill:#ffd87c;fill-rule:evenodd;stroke-width:1pt" />
    <path
       id="path580"
       d="m 77.1715,47.1595 c 0,0 -14.0845,-2.054 -14.9648,-1.4671 -0.8803,0.5869 -13.2043,1.7606 -12.0305,8.216 1.1737,6.4554 5.2817,11.7371 0,15.5517 -5.2817,3.8145 -11.1503,6.7488 -5.8686,8.5094 5.2817,1.7605 12.6174,-0.2935 14.9648,-2.3475 2.3474,-2.054 -2.6408,-3.2277 -2.054,-9.0962 0.5869,-5.8686 -1.1737,-9.6831 4.9883,-7.6292 6.162,2.054 5.8686,4.4015 9.9765,0 4.108,-4.4014 7.6292,-5.5751 4.9883,-11.7371 z"
       style="font-size:12px;fill:#e48e6f;fill-rule:evenodd;stroke-width:1pt" />
    <path
       sodipodi:nodetypes="cccccccccc"
       transform="matrix(1,0,0,0.946729,0,2.428446)"
       id="path582"
       d="m 77.1715,47.1595 c 1.1737,-1.5497 -14.0845,-5.7733 -14.9648,-3.3267 -0.8803,-1.8926 -15.8452,0.8308 -14.6713,7.2861 1.1737,6.4555 6.1619,13.5968 0.8802,17.4114 -5.2817,3.8145 -9.3897,7.6786 -4.108,9.4392 5.2817,1.7605 12.6174,-0.2935 14.9648,-2.3475 2.3474,-2.054 -3.8145,-3.2277 -3.2277,-9.0962 0.5869,-5.8686 0,-11.2328 6.162,-9.1789 6.162,2.054 5.8686,4.4015 9.9765,0 4.108,-4.4014 7.6292,-4.0254 4.9883,-10.1874 z"
       style="font-size:12px;fill:#fffcac;fill-rule:evenodd;stroke-width:1pt" />
    <path
       sodipodi:nodetypes="cccccccccc"
       transform="matrix(1,0,0,0.946729,0,2.428446)"
       id="path581"
       d="m 77.1715,47.1595 c 0,0 -14.0845,-2.054 -14.9648,-1.4671 -0.8803,0.5869 -13.2043,1.7606 -12.0305,8.216 1.1737,6.4554 5.2817,11.7371 0,15.5517 -5.2817,3.8145 -11.1503,6.7488 -5.8686,8.5094 5.2817,1.7605 12.6174,-0.2935 14.9648,-2.3475 2.3474,-2.054 -3.8145,-3.2277 -3.2277,-9.0962 0.5869,-5.8686 0,-11.2328 6.162,-9.1789 6.162,2.054 5.8686,4.4015 9.9765,0 4.108,-4.4014 7.6292,-4.0254 4.9883,-10.1874 z"
       style="font-size:12px;fill:#ffd87c;fill-rule:evenodd;stroke-width:1pt" />
    <path
       id="path654"
       d="m 83.8238,45.3908 c 0,22.3336 -18.1258,40.4595 -40.4595,40.4595 -22.3336,0 -40.45951,-18.1259 -40.45951,-40.4595 0,-22.3337 18.12591,-40.45954 40.45951,-40.45954 22.3337,0 40.4595,18.12584 40.4595,40.45954 z"
       style="font-size:12px;fill:none;stroke:#283d53;stroke-width:8.5"
       transform="matrix(0.920224,0,0,0.920224,3.044474,1.961231)" />
    <path
       id="path588"
       d="m 72.1832,30.4342 c 0,9.7183 -8.4788,17.6056 -18.9261,17.6056 -10.4472,0 -18.926,-7.8873 -18.926,-17.6056 0,-9.7184 8.4788,-17.6057 18.926,-17.6057 10.4473,0 18.9261,7.8873 18.9261,17.6057 z"
       style="font-size:12px;fill:url(#linearGradient587);fill-rule:evenodd;stroke-width:1pt"
       transform="matrix(0.933582,-0.664775,0.918324,1.029434,-29.83966,37.88266)" />
  </g>
  <g
     id="g2556"
     transform="matrix(0.6467328,0.4552676,-0.4552676,0.6467328,43.266411,18.438432)">
    <path
       style="font-size:12px;fill:#000000;fill-opacity:0.29411765;fill-rule:evenodd;stroke-width:1pt"
       d="m 52.136515,5.2265722 37.59989,20.575704 -0.468633,9.505408 -14.894685,20.981538 -18.227926,-4.205714 -10.388759,8.472226 2.745212,10.761821 -5.650102,-1.574251 -1.522678,2.002052 0,0 1.326852,2.256818 -5.760272,5.462676 -4.463647,-3.541255 -1.57308,2.439149 3.23643,3.621196 -5.835875,6.118321 L 22.362774,89.30469 13.501787,88.688912 6.3608882,84.359121 10.521433,61.401627 33.276836,41.06816 28.606966,33.553855 31.090045,22.58292 z m 0,0 m 0,0 m 0,0 m 0,0 m 0,0 m 0,0 m 0,0 m 0,0 m 0,0 m 0,0 m 0,0 m 0,0 m 0,0 m 0,0 m 0,0 m 0,0 m 0,0 m 0,0 m 0,0 m 0,0 m 0,0 m 0,0 m 0,0 m 0,0 m 0,0 m 0,0 m 0,0 m 0,0 m 0,0 m 0,0 m 0,0 m 0,0 m 0,0 m 0,0 m 0,0 m 0,0 m 0,0 m 0,0 m 0,0 m 0,0 m 0,0 m 0,0 m 0,0 m 0,0 m 0,0 m 0.220424,20.900221 -2.24569,2.285907 0.358605,1.294396 9.329341,5.190546 6.164883,1.955735 1.312359,-1.792396 z"
       id="path2514"
       sodipodi:nodetypes="ccccccccccccccccccccccccccccccc" />
    <path
       sodipodi:nodetypes="ccccccccccccccccccccccccccccccc"
       id="path2322"
       d="m 48.209442,1.2994997 37.59989,20.575703 -0.468634,9.505409 -14.894684,20.981538 -18.227926,-4.205714 -10.38876,8.472226 2.745213,10.76182 -5.650102,-1.574251 -1.522678,2.002052 0,0 1.326852,2.256818 -5.760272,5.462677 -4.463647,-3.541255 -1.57308,2.439148 3.23643,3.621197 -5.835875,6.118321 -5.896468,1.202429 L 9.5747141,84.76184 2.433815,80.432048 6.5943598,57.474554 29.349763,37.141087 24.679893,29.626783 27.162971,18.655848 z m 0,0 m 0,0 m 0,0 m 0,0 m 0,0 m 0,0 m 0,0 m 0,0 m 0,0 m 0,0 m 0,0 m 0,0 m 0,0 m 0,0 m 0,0 m 0,0 m 0,0 m 0,0 m 0,0 m 0,0 m 0,0 m 0,0 m 0,0 m 0,0 m 0,0 m 0,0 m 0,0 m 0,0 m 0,0 m 0,0 m 0,0 m 0,0 m 0,0 m 0,0 m 0,0 m 0,0 m 0,0 m 0,0 m 0,0 m 0,0 m 0,0 m 0,0 m 0,0 m 0.220424,20.90022 -2.245691,2.285908 0.358606,1.294396 9.329341,5.190546 6.164882,1.955734 1.31236,-1.792396 z"
       style="font-size:12px;fill:#421f00;fill-opacity:1;fill-rule:evenodd;stroke-width:1pt" />
    <path
       sodipodi:nodetypes="cccccccccccccccccccccccccccccsscccc"
       id="path2324"
       d="m 48.662582,10.173018 32.04054,14.693557 -0.226467,6.765154 -13.021876,17.543498 -16.839654,-5.042175 -13.958039,12.858824 3.417039,2.054933 0.452795,4.075301 -5.991971,-2.1304 -3.251372,2.909985 4.944296,0.016634 0.046168,4.397368 -3.074757,4.259077 -5.413513,-3.946058 -4.77825,4.948461 2.787981,0.709365 0.173921,3.692174 -3.20937,2.545737 -7.65477,-0.513596 L 8.9380735,76.199343 9.0148479,72.332745 38.194017,38.862208 30.18822,27.309234 30.504407,21.366426 z m 0,0 m 0,0 m 0,0 m 0,0 m 0,0 m 0,0 m 0,0 m 0,0 m 0,0 m 0,0 m 0,0 m 0,0 m 0,0 m 0,0 m 0,0 m 0,0 m 0,0 m 0,0 m 0,0 m 0,0 m 0,0 m 0,0 m 0,0 m 0,0 m 0,0 m 0,0 m 0,0 m 0,0 m 0,0 m 0,0 m 0,0 m 0,0 m 0,0 m 0,0 m 0,0 m 0,0 m 0,0 m 0,0 m 0,0 m 0,0 m 0,0 m 0,0 m 0,0 m -0.758723,8.18014 -4.954796,4.559013 c 0,0 -0.098801326,0.58837043 -0.18205482,0.93864252 L 42.747384,23.700914 c -0.238718,0.983181 -0.662874,2.950106 -0.235142,2.999428 0.542835,0.062595 9.78415,6.074044 10.146042,6.115774 0.36189,0.041731 14.567981,5.362414 11.637873,3.741075 l 4.009061,-5.959884 -0.068649,-0.044825 z"
       style="font-size:12px;fill:#b95900;fill-rule:evenodd;stroke-width:1pt" />
    <path
       sodipodi:nodetypes="cccsc"
       id="path2326"
       d="m 66.734581,44.159373 0.68197,5.041754 -16.835303,-5.05838 c 0,0 -1.4266285,-4.9441825 -0.90465637,-4.7006411 0.52197237,0.2435421 16.995393,5.2601041 17.057989,4.7172671 z"
       style="font-size:12px;fill:#763900;fill-rule:evenodd;stroke-width:1pt" />
    <path
       sodipodi:nodetypes="ccccccccccccccccccccccccccc"
       id="path2328"
       d="M 46.792113,7.189151 80.788748,24.922486 66.72174,44.32943 49.840084,39.651502 l -14.28717,14.112689 4.843456,5.688867 -7.101514,-2.110706 -2.730202,3.191536 5.66284,3.384264 -3.742933,5.25239 -5.964085,-3.972636 -5.387624,5.431828 4.71022,3.643506 -3.052447,2.785287 L 13.330042,76.521245 8.9938469,72.514869 10.392516,60.385434 39.001972,33.455924 30.491806,21.4757 z m 0,0 m 0,0 m 0,0 m 0,0 m 0,0 m 0,0 m 0,0 m 0,0 m 0,0 m 0,0 m 0,0 m 0,0 m 0,0 m 0,0 m 0,0 m 0,0 m 0,0 m 0,0 m 0,0 m 0,0 m 0,0 m 0,0 m 0,0 m 0,0 m 0,0 m 0,0 m 0,0 m 0,0 m 0,0 m 0,0 m 0,0 m 0,0 m 0,0 m 0,0 m 0,0 m 0,0 m 0,0 m 0,0 m 0,0 m 0,0 m 0,0 m 0,0 m 0,0 m 1.839896,6.449793 -5.891992,5.004579 0.136734,8.098852 10.019859,6.008885 11.122379,3.681632 6.058234,-8.399431 C 71.545741,28.019447 48.812956,13.659811 48.632009,13.638944 z"
       style="font-size:12px;fill:#fcc500;fill-rule:evenodd;stroke-width:1pt" />
    <path
       sodipodi:nodetypes="ccccc"
       id="path2330"
       d="m 40.318799,59.405154 0.210239,3.73621 -6.081693,-2.122025 -1.122246,-3.800424 z"
       style="font-size:12px;fill:#763900;fill-rule:evenodd;stroke-width:1pt" />
    <path
       sodipodi:nodetypes="ccccc"
       id="path2332"
       d="m 32.697586,69.020993 0.426032,3.489382 -5.653575,-3.631811 -0.960991,-3.64332 z"
       style="font-size:12px;fill:#763900;fill-rule:evenodd;stroke-width:1pt" />
    <path
       sodipodi:nodetypes="ccccccc"
       id="path2334"
       d="M 22.787876,77.046049 22.370572,80.664964 12.89871,80.122801 8.6879572,76.886974 9.0093335,72.522176 13.314856,76.502425 z"
       style="font-size:12px;fill:#763900;fill-rule:evenodd;stroke-width:1pt" />
    <path
       sodipodi:nodetypes="ccccc"
       id="path2336"
       d="M 13.148087,63.649722 C 13.530843,63.510506 41.206611,34.981645 41.206611,34.981645 l 2.888282,1.983307 -28.483002,29.169097 z"
       style="font-size:12px;fill:#e49f00;fill-rule:evenodd;stroke-width:1pt" />
    <path
       id="path2338"
       d="m 41.505907,35.566212 c -0.04173,0.361892 -27.794118,27.96516 -27.794118,27.96516"
       style="font-size:12px;fill:none;stroke:#946900;stroke-width:0.87234097pt" />
  </g>
</svg>
