<?xml version="1.0" encoding="UTF-8" standalone="no"?>
<!-- Created with Sodipodi ("http://www.sodipodi.com/") -->
<svg
   xmlns:dc="http://purl.org/dc/elements/1.1/"
   xmlns:cc="http://web.resource.org/cc/"
   xmlns:rdf="http://www.w3.org/1999/02/22-rdf-syntax-ns#"
   xmlns:svg="http://www.w3.org/2000/svg"
   xmlns="http://www.w3.org/2000/svg"
   xmlns:xlink="http://www.w3.org/1999/xlink"
   xmlns:sodipodi="http://sodipodi.sourceforge.net/DTD/sodipodi-0.dtd"
   xmlns:inkscape="http://www.inkscape.org/namespaces/inkscape"
   version="1"
   x="0.00000000"
   y="0.00000000"
   width="24.000000pt"
   height="24.000000pt"
   id="svg548"
   sodipodi:version="0.32"
   sodipodi:docname="stock_folder-copy.svg"
   sodipodi:docbase="/home/nathan/GNUtoon/scalable/actions"
   inkscape:version="0.45.1"
   inkscape:output_extension="org.inkscape.output.svg.inkscape">
  <metadata
     id="metadata18">
    <rdf:RDF>
      <cc:Work
         rdf:about="">
        <dc:format>image/svg+xml</dc:format>
        <dc:type
           rdf:resource="http://purl.org/dc/dcmitype/StillImage" />
      </cc:Work>
    </rdf:RDF>
  </metadata>
  <sodipodi:namedview
     id="base"
     inkscape:zoom="6.0693332"
     inkscape:cx="23.148507"
     inkscape:cy="-8.2651586"
     inkscape:window-width="1024"
     inkscape:window-height="701"
     inkscape:window-x="0"
     inkscape:window-y="42"
     inkscape:current-layer="svg548" />
  <defs
     id="defs550">
    <linearGradient
       x1="0.00000000"
       y1="0.00000000"
       x2="1.00000000"
       y2="0.00000000"
       id="linearGradient632"
       gradientUnits="objectBoundingBox"
       spreadMethod="pad">
      <stop
         style="stop-color:#ffb700;stop-opacity:1;"
         offset="0.000000"
         id="stop633" />
      <stop
         style="stop-color:#ffd58f;stop-opacity:0;"
         offset="1.000000"
         id="stop634" />
    </linearGradient>
    <linearGradient
       x1="0.00000000"
       y1="0.00000000"
       x2="1.00000000"
       y2="0.00000000"
       id="linearGradient556"
       gradientUnits="objectBoundingBox"
       spreadMethod="pad">
      <stop
         style="stop-color:#000000;stop-opacity:1;"
         offset="0.000000"
         id="stop557" />
      <stop
         style="stop-color:#bdf2ff;stop-opacity:0.384314;"
         offset="1.000000"
         id="stop558" />
    </linearGradient>
    <linearGradient
       id="linearGradient559"
       xlink:href="#linearGradient632"
       x1="60.6446152"
       y1="19.2956886"
       x2="35.3705750"
       y2="69.1427994"
       gradientUnits="userSpaceOnUse"
       spreadMethod="pad"
       gradientTransform="matrix(0.4541199,0,0,0.4541199,-1.6390619,2.714387)" />
    <linearGradient
       xlink:href="#linearGradient632"
       id="linearGradient631"
       x1="85.6376572"
       y1="17.4438438"
       x2="73.9162979"
       y2="54.6281815"
       gradientUnits="userSpaceOnUse"
       spreadMethod="pad"
       gradientTransform="matrix(0.3363513,0,0,0.6131233,-1.6390619,2.714387)" />
    <linearGradient
       inkscape:collect="always"
       xlink:href="#linearGradient632"
       id="linearGradient2182"
       gradientUnits="userSpaceOnUse"
       gradientTransform="matrix(0.3440934,0,0,0.6272361,8.8952468,10.853935)"
       spreadMethod="pad"
       x1="85.6376572"
       y1="17.4438438"
       x2="73.9162979"
       y2="54.6281815" />
    <linearGradient
       inkscape:collect="always"
       xlink:href="#linearGradient632"
       id="linearGradient2184"
       gradientUnits="userSpaceOnUse"
       gradientTransform="matrix(0.4645728,0,0,0.4645728,8.8952468,10.853935)"
       spreadMethod="pad"
       x1="60.6446152"
       y1="19.2956886"
       x2="35.3705750"
       y2="69.1427994" />
    <linearGradient
       inkscape:collect="always"
       xlink:href="#linearGradient632"
       id="linearGradient2198"
       gradientUnits="userSpaceOnUse"
       gradientTransform="matrix(0.3440934,0,0,0.6272361,1.8104493,2.4510343)"
       spreadMethod="pad"
       x1="85.6376572"
       y1="17.4438438"
       x2="73.9162979"
       y2="54.6281815" />
    <linearGradient
       inkscape:collect="always"
       xlink:href="#linearGradient632"
       id="linearGradient2200"
       gradientUnits="userSpaceOnUse"
       gradientTransform="matrix(0.4645728,0,0,0.4645728,1.8104493,2.4510343)"
       spreadMethod="pad"
       x1="60.6446152"
       y1="19.2956886"
       x2="35.3705750"
       y2="69.1427994" />
    <linearGradient
       inkscape:collect="always"
       xlink:href="#linearGradient632"
       id="linearGradient2214"
       gradientUnits="userSpaceOnUse"
       gradientTransform="matrix(0.3440934,0,0,0.6272361,1.9752119,-1.6680338)"
       spreadMethod="pad"
       x1="85.6376572"
       y1="17.4438438"
       x2="73.9162979"
       y2="54.6281815" />
    <linearGradient
       inkscape:collect="always"
       xlink:href="#linearGradient632"
       id="linearGradient2216"
       gradientUnits="userSpaceOnUse"
       gradientTransform="matrix(0.4645728,0,0,0.4645728,1.9752119,-1.6680338)"
       spreadMethod="pad"
       x1="60.6446152"
       y1="19.2956886"
       x2="35.3705750"
       y2="69.1427994" />
    <linearGradient
       inkscape:collect="always"
       xlink:href="#linearGradient632"
       id="linearGradient2230"
       gradientUnits="userSpaceOnUse"
       gradientTransform="matrix(0.2924794,0,0,0.5331507,5.4931872,-0.6579427)"
       spreadMethod="pad"
       x1="85.6376572"
       y1="17.4438438"
       x2="73.9162979"
       y2="54.6281815" />
    <linearGradient
       inkscape:collect="always"
       xlink:href="#linearGradient632"
       id="linearGradient2232"
       gradientUnits="userSpaceOnUse"
       gradientTransform="matrix(0.3948869,0,0,0.3948869,5.4931872,-0.6579427)"
       spreadMethod="pad"
       x1="60.6446152"
       y1="19.2956886"
       x2="35.3705750"
       y2="69.1427994" />
    <linearGradient
       inkscape:collect="always"
       xlink:href="#linearGradient632"
       id="linearGradient2196"
       gradientUnits="userSpaceOnUse"
       gradientTransform="matrix(0.3363513,0,0,0.6131233,1.9756671,-1.8130926)"
       spreadMethod="pad"
       x1="85.6376572"
       y1="17.4438438"
       x2="73.9162979"
       y2="54.6281815" />
    <linearGradient
       inkscape:collect="always"
       xlink:href="#linearGradient632"
       id="linearGradient2199"
       gradientUnits="userSpaceOnUse"
       gradientTransform="matrix(0.4541199,0,0,0.4541199,1.9756671,-1.8130926)"
       spreadMethod="pad"
       x1="60.6446152"
       y1="19.2956886"
       x2="35.3705750"
       y2="69.1427994" />
    <linearGradient
       inkscape:collect="always"
       xlink:href="#linearGradient632"
       id="linearGradient2201"
       gradientUnits="userSpaceOnUse"
       gradientTransform="matrix(0.3363513,0,0,0.6131233,23.065298,46.791917)"
       spreadMethod="pad"
       x1="85.6376572"
       y1="17.4438438"
       x2="73.9162979"
       y2="54.6281815" />
    <linearGradient
       inkscape:collect="always"
       xlink:href="#linearGradient632"
       id="linearGradient2203"
       gradientUnits="userSpaceOnUse"
       gradientTransform="matrix(0.4541199,0,0,0.4541199,23.065298,46.791917)"
       spreadMethod="pad"
       x1="60.6446152"
       y1="19.2956886"
       x2="35.3705750"
       y2="69.1427994" />
    <linearGradient
       inkscape:collect="always"
       xlink:href="#linearGradient632"
       id="linearGradient2217"
       gradientUnits="userSpaceOnUse"
       gradientTransform="matrix(0.3363513,0,0,0.6131233,3.293769,-2.9664317)"
       spreadMethod="pad"
       x1="85.6376572"
       y1="17.4438438"
       x2="73.9162979"
       y2="54.6281815" />
    <linearGradient
       inkscape:collect="always"
       xlink:href="#linearGradient632"
       id="linearGradient2219"
       gradientUnits="userSpaceOnUse"
       gradientTransform="matrix(0.4541199,0,0,0.4541199,3.293769,-2.9664317)"
       spreadMethod="pad"
       x1="60.6446152"
       y1="19.2956886"
       x2="35.3705750"
       y2="69.1427994" />
  </defs>
  <path
     d="M 21.655155,7.2528072 C 21.849714,7.2302239 24.704188,6.3318584 24.648796,7.9264877 C 24.593407,9.5211193 23.654001,21.080313 22.465367,22.514731 C 21.911368,23.437933 20.608156,24.755965 18.474521,25.505892 C 16.741307,26.112104 6.6254196,29.462829 5.8642659,29.40526 C 5.1031027,29.347725 3.4838132,29.519368 3.361687,27.799476 C 3.2395197,26.079555 2.6296165,21.41523 2.6927096,19.584109 C 2.9426211,17.966921 2.1855373,16.758172 4.1894465,15.565215 C 5.5165921,15.151953 19.071289,9.2107923 19.803506,8.9638049 C 20.535682,8.7167826 21.132533,8.6292653 21.655155,7.2528072 z "
     style="font-size:12px;fill:#000009;fill-opacity:0.30147095;fill-rule:evenodd;stroke-width:1pt"
     id="path783"
     sodipodi:nodetypes="cccccccccc" />
  <path
     d="M 21.4325,6.7855021 C 21.627059,6.7629364 24.481533,5.8645662 24.426141,7.4591986 C 24.370752,9.0538212 22.132047,20.462905 20.943418,21.897292 C 20.389415,22.820494 19.086201,24.138525 16.952571,24.888458 C 15.219353,25.494667 4.0381021,28.412906 3.2769391,28.355365 C 2.5157847,28.297796 0.89649547,28.469439 0.77436577,26.749554 C 0.65219647,25.029662 0.93101947,14.574136 1.0336569,14.238124 C 1.283569,12.620906 2.9191975,11.750527 3.6570461,11.454214 C 4.9841872,11.040952 17.570052,6.9904823 18.302265,6.7434988 C 19.034441,6.4964856 20.945226,6.0155213 21.4325,6.7855021 z "
     style="font-size:12px;fill:#593a28;fill-rule:evenodd;stroke-width:1pt"
     id="path554"
     sodipodi:nodetypes="cccccccccc" />
  <path
     d="M 20.218666,7.1997906 C 20.218666,7.1997906 20.942092,8.2685356 21.010698,8.2281775 C 22.006126,7.7243907 23.380418,7.8629833 23.078247,8.8217972 C 22.88495,9.9462513 21.241216,20.871423 18.696458,22.414515 C 16.146691,24.557818 3.4072577,27.222005 3.0754509,27.325335 C 2.7436855,27.428638 2.056795,27.28145 2.0668601,26.081026 C 2.0769251,24.880597 2.0013337,15.79801 2.2525131,15.282662 C 2.3488709,14.444994 2.7769563,13.503991 3.9895159,12.97437 C 5.2020781,12.444752 19.840921,7.1463771 20.218666,7.1997906 z "
     style="font-size:12px;fill:#f1e36c;fill-rule:evenodd;stroke-width:1pt"
     id="path552"
     sodipodi:nodetypes="ccccccccc" />
  <path
     d="M 17.029917,10.018884 C 17.029917,10.018884 4.4075147,13.592257 3.8075367,14.358711 C 3.2075497,15.125196 3.1535049,25.533598 3.125177,25.779963 C 3.0968445,26.026359 6.3730931,17.431351 7.7059064,16.968798 C 9.0387139,16.506279 14.628762,15.077283 15.302402,13.670229 C 15.976038,12.263172 16.171782,10.248096 17.567572,9.7944483"
     style="font-size:12px;fill:url(#linearGradient631);fill-rule:evenodd;stroke-width:1pt"
     id="path562"
     sodipodi:nodetypes="cccccc" />
  <path
     d="M 3.5111512,26.295283 C 5.5780435,22.230865 6.1174877,19.475206 7.1059736,18.112702 C 8.0087808,16.938327 8.2719386,16.875418 9.4731253,16.444378 C 11.509823,15.981202 15.566178,14.728359 15.691442,14.195211 C 16.57856,14.270557 16.092459,10.937958 18.265753,9.8431133 C 19.689871,9.1431003 23.355882,7.3078497 23.355882,7.3078497 L 21.049741,7.3323086 C 20.220596,7.8660487 16.565918,9.6027473 16.200115,10.001699 C 15.473602,10.199464 15.821142,12.510931 15.106576,13.161062 C 14.398291,14.312817 8.5395012,15.661313 8.0647828,15.894646 C 7.5901049,16.127987 6.5953386,16.988866 6.1729168,17.88061 C 4.2672235,21.859369 3.8007703,24.61551 3.5111512,26.295283 z "
     style="font-size:12px;fill:#593a28;fill-rule:evenodd;stroke-width:1pt"
     id="path553"
     sodipodi:nodetypes="cccccccccccc" />
  <path
     style="font-size:12px;fill:url(#linearGradient559);fill-rule:evenodd;stroke-width:1pt"
     d="M 22.915217,9.2836323 C 22.162216,9.3994513 19.264067,10.730398 18.316356,11.679175 C 17.832042,12.743826 18.091303,14.956246 16.16637,15.958815 C 14.241439,16.961351 9.7843623,17.263031 9.0329064,18.289876 C 8.2814477,19.316754 5.1246735,25.463518 4.8744675,26.065503 C 4.6242931,26.667524 18.778127,23.128564 19.407617,21.588736 C 20.268794,20.048881 21.588661,16.886208 22.915217,9.2836323 z "
     id="path635"
     sodipodi:nodetypes="ccccccc" />
  <path
     d="M 26.587986,1.5719883 C 26.782545,1.5494043 29.637019,0.65103926 29.581627,2.2456683 C 29.526238,3.8403003 28.586832,15.399494 27.398198,16.833912 C 26.844199,17.757114 25.540987,19.075146 23.407352,19.825073 C 21.674138,20.431285 11.55825,23.78201 10.797097,23.724441 C 10.035934,23.666906 8.416644,23.838549 8.294518,22.118657 C 8.172351,20.398736 7.562447,15.734411 7.62554,13.90329 C 7.875452,12.286102 7.118368,11.077353 9.122277,9.8843963 C 10.449423,9.4711343 24.00412,3.5299733 24.736337,3.2829853 C 25.468513,3.0359633 26.065364,2.9484463 26.587986,1.5719883 z "
     style="font-size:12px;fill:#000009;fill-opacity:0.30147095;fill-rule:evenodd;stroke-width:1pt"
     id="path2205"
     sodipodi:nodetypes="cccccccccc" />
  <path
     d="M 26.365331,1.1046833 C 26.55989,1.0821173 29.414364,0.18374726 29.358972,1.7783793 C 29.303583,3.3730023 27.064878,14.782086 25.876249,16.216473 C 25.322246,17.139675 24.019032,18.457706 21.885402,19.207639 C 20.152184,19.813848 8.970933,22.732087 8.20977,22.674546 C 7.448616,22.616977 5.829326,22.78862 5.707197,21.068735 C 5.585027,19.348843 5.86385,8.8933173 5.966488,8.5573053 C 6.2164,6.9400873 7.852028,6.0697083 8.589877,5.7733953 C 9.917018,5.3601333 22.502883,1.3096633 23.235096,1.0626793 C 23.967272,0.81566626 25.878057,0.33470226 26.365331,1.1046833 z "
     style="font-size:12px;fill:#593a28;fill-rule:evenodd;stroke-width:1pt"
     id="path2207"
     sodipodi:nodetypes="cccccccccc" />
  <path
     d="M 25.151497,1.5189713 C 25.151497,1.5189713 25.874923,2.5877163 25.943529,2.5473583 C 26.938957,2.0435713 28.313249,2.1821643 28.011078,3.1409783 C 27.817781,4.2654323 26.174047,15.190604 23.629289,16.733696 C 21.079522,18.876999 8.340089,21.541186 8.008282,21.644516 C 7.676516,21.747819 6.989626,21.600631 6.999691,20.400207 C 7.009756,19.199778 6.934165,10.117191 7.185344,9.6018433 C 7.281702,8.7641753 7.709787,7.8231723 8.922347,7.2935513 C 10.134909,6.7639333 24.773752,1.4655583 25.151497,1.5189713 z "
     style="font-size:12px;fill:#f1e36c;fill-rule:evenodd;stroke-width:1pt"
     id="path2209"
     sodipodi:nodetypes="ccccccccc" />
  <path
     d="M 21.962748,4.3380653 C 21.962748,4.3380653 9.340346,7.9114383 8.740368,8.6778923 C 8.140381,9.4443773 8.086336,19.852779 8.058008,20.099144 C 8.029675,20.34554 11.305924,11.750532 12.638737,11.287979 C 13.971545,10.82546 19.561593,9.3964643 20.235233,7.9894103 C 20.908869,6.5823533 21.104613,4.5672773 22.500403,4.1136293"
     style="font-size:12px;fill:url(#linearGradient2217);fill-rule:evenodd;stroke-width:1pt"
     id="path2211"
     sodipodi:nodetypes="cccccc" />
  <path
     d="M 8.443982,20.614464 C 10.510874,16.550046 11.050319,13.794387 12.038804,12.431883 C 12.941612,11.257508 13.204769,11.194599 14.405956,10.763559 C 16.442654,10.300383 20.499009,9.0475403 20.624273,8.5143923 C 21.511391,8.5897383 21.02529,5.2571393 23.198584,4.1622943 C 24.622702,3.4622813 28.288713,1.6270303 28.288713,1.6270303 L 25.982572,1.6514893 C 25.153427,2.1852293 21.498749,3.9219283 21.132946,4.3208803 C 20.406433,4.5186453 20.753973,6.8301123 20.039407,7.4802433 C 19.331122,8.6319983 13.472332,9.9804943 12.997614,10.213827 C 12.522936,10.447168 11.528169,11.308047 11.105748,12.199791 C 9.200054,16.17855 8.733601,18.934691 8.443982,20.614464 z "
     style="font-size:12px;fill:#593a28;fill-rule:evenodd;stroke-width:1pt"
     id="path2213"
     sodipodi:nodetypes="cccccccccccc" />
  <path
     style="font-size:12px;fill:url(#linearGradient2219);fill-rule:evenodd;stroke-width:1pt"
     d="M 27.848048,3.6028133 C 27.095047,3.7186323 24.196898,5.0495793 23.249187,5.9983563 C 22.764873,7.0630073 23.024134,9.2754273 21.099201,10.277996 C 19.17427,11.280532 14.717193,11.582212 13.965737,12.609057 C 13.214279,13.635935 10.057504,19.782699 9.807298,20.384684 C 9.557124,20.986705 23.710958,17.447745 24.340448,15.907917 C 25.201625,14.368062 26.521492,11.205389 27.848048,3.6028133 z "
     id="path2215"
     sodipodi:nodetypes="ccccccc" />
</svg>
