<?xml version="1.0" encoding="UTF-8" standalone="no"?>
<!-- Created with Sodipodi ("http://www.sodipodi.com/") -->
<svg
   xmlns:dc="http://purl.org/dc/elements/1.1/"
   xmlns:cc="http://web.resource.org/cc/"
   xmlns:rdf="http://www.w3.org/1999/02/22-rdf-syntax-ns#"
   xmlns:svg="http://www.w3.org/2000/svg"
   xmlns="http://www.w3.org/2000/svg"
   xmlns:xlink="http://www.w3.org/1999/xlink"
   xmlns:sodipodi="http://sodipodi.sourceforge.net/DTD/sodipodi-0.dtd"
   xmlns:inkscape="http://www.inkscape.org/namespaces/inkscape"
   id="svg683"
   sodipodi:version="0.32"
   width="72pt"
   height="72pt"
   xml:space="preserve"
   sodipodi:docbase="/home/tweenk/GNUtoon/apps"
   sodipodi:docname="switch.svg"
   inkscape:version="0.45.1"
   inkscape:output_extension="org.inkscape.output.svg.inkscape">
  <metadata
   id="metadata9">
    <rdf:RDF>
      <cc:Work
   rdf:about="">
        <dc:format>image/svg+xml</dc:format>
        <dc:type
   rdf:resource="http://purl.org/dc/dcmitype/StillImage" />
      </cc:Work>
    </rdf:RDF>
  </metadata>
  <defs
   id="defs685"><linearGradient
   id="linearGradient3270">
      <stop
   id="stop3272"
   style="stop-color:#610000;stop-opacity:1;"
   offset="0" />
      <stop
   id="stop3274"
   style="stop-color:#ed0000;stop-opacity:1;"
   offset="1" />
    </linearGradient>
    <linearGradient
   id="linearGradient1853">
      <stop
   offset="0.0000000"
   style="stop-color:#000000;stop-opacity:1.0000000;"
   id="stop1855" />
      <stop
   offset="1.0000000"
   style="stop-color:#3b91cd;stop-opacity:0.98969072;"
   id="stop1854" />
    </linearGradient>
    <linearGradient
   id="linearGradient1843">
      <stop
   style="stop-color:#ffe6bb;stop-opacity:1.0000000;"
   offset="0.0000000"
   id="stop1844" />
      <stop
   style="stop-color:#ff933d;stop-opacity:1.0000000;"
   offset="1.0000000"
   id="stop1845" />
    </linearGradient>
    <linearGradient
   id="linearGradient1840">
      <stop
   offset="0.0000000"
   style="stop-color:#ffb700;stop-opacity:1.0000000;"
   id="stop1842" />
      <stop
   offset="1.0000000"
   style="stop-color:#ffd58f;stop-opacity:0.0000000;"
   id="stop1841" />
    </linearGradient>
    <defs
   id="defs3">
      <sodipodi:namedview
   id="namedview909" />
      <defs
   id="defs550">
        <linearGradient
   x1="0.0000000"
   y1="0.0000000"
   x2="1.0000000"
   y2="0.0000000"
   id="linearGradient632"
   gradientUnits="objectBoundingBox"
   spreadMethod="pad"
   xlink:href="#linearGradient1840" />
        <linearGradient
   x1="0.0000000"
   y1="0.0000000"
   x2="1.0000000"
   y2="0.0000000"
   id="linearGradient556"
   gradientUnits="objectBoundingBox"
   spreadMethod="pad"
   xlink:href="#linearGradient1853" />
        <linearGradient
   id="linearGradient559"
   xlink:href="#linearGradient632"
   x1="60.644615"
   y1="19.295689"
   x2="35.370575"
   y2="69.142799"
   gradientUnits="userSpaceOnUse"
   spreadMethod="pad" />
        <linearGradient
   xlink:href="#linearGradient632"
   id="linearGradient631"
   x1="85.637657"
   y1="17.443844"
   x2="73.916298"
   y2="54.628181"
   gradientUnits="userSpaceOnUse"
   spreadMethod="pad"
   gradientTransform="scale(0.740666,1.350136)" />
      </defs>
    </defs>
    <sodipodi:namedview
   id="namedview1078"
   pagecolor="#ffffff"
   bordercolor="#666666"
   borderopacity="1.0"
   inkscape:pageopacity="0.0"
   inkscape:pageshadow="2"
   inkscape:zoom="2.4559706"
   inkscape:cx="113.94414"
   inkscape:cy="73.007956"
   inkscape:window-width="812"
   inkscape:window-height="560"
   inkscape:window-x="103"
   inkscape:window-y="56" />
    <metadata
   id="metadata4">
      <rdf:RDF>
        <cc:Work
   rdf:about="">
          <dc:format>image/svg+xml</dc:format>
          <dc:type
   rdf:resource="http://purl.org/dc/dcmitype/StillImage" />
        </cc:Work>
      </rdf:RDF>
    </metadata>
    <radialGradient
   inkscape:collect="always"
   xlink:href="#linearGradient1843"
   id="radialGradient1847"
   gradientTransform="scale(0.965451,1.035785)"
   cx="44.176689"
   cy="30.546623"
   fx="44.176689"
   fy="30.546623"
   r="69.292931"
   gradientUnits="userSpaceOnUse" />
    <linearGradient
   inkscape:collect="always"
   xlink:href="#linearGradient1853"
   id="linearGradient1852"
   gradientTransform="matrix(0.8059858,0,0,0.5666352,28.469196,28.467396)"
   x1="49.805740"
   y1="54.607960"
   x2="9.1116619"
   y2="15.821439"
   gradientUnits="userSpaceOnUse" />
    <radialGradient
   inkscape:collect="always"
   xlink:href="#linearGradient1843"
   id="radialGradient1858"
   gradientUnits="userSpaceOnUse"
   gradientTransform="scale(0.965451,1.035785)"
   cx="44.176689"
   cy="30.546623"
   fx="44.176689"
   fy="30.546623"
   r="69.292931" />
  <radialGradient
   inkscape:collect="always"
   xlink:href="#linearGradient1843"
   id="radialGradient2231"
   gradientUnits="userSpaceOnUse"
   gradientTransform="scale(0.965451,1.035785)"
   cx="44.176689"
   cy="30.546623"
   fx="44.176689"
   fy="30.546623"
   r="69.292931" /><linearGradient
   inkscape:collect="always"
   xlink:href="#linearGradient1853"
   id="linearGradient2233"
   gradientUnits="userSpaceOnUse"
   gradientTransform="matrix(-0.8059858,0,0,0.5666352,61.396304,-0.7051417)"
   x1="49.805740"
   y1="54.607960"
   x2="9.1116619"
   y2="15.821439" /><radialGradient
   inkscape:collect="always"
   xlink:href="#linearGradient1843"
   id="radialGradient2258"
   gradientUnits="userSpaceOnUse"
   gradientTransform="scale(0.965451,1.035785)"
   cx="44.176689"
   cy="30.546623"
   fx="44.176689"
   fy="30.546623"
   r="69.292931" /><linearGradient
   inkscape:collect="always"
   xlink:href="#linearGradient1853"
   id="linearGradient2260"
   gradientUnits="userSpaceOnUse"
   gradientTransform="matrix(-0.8059858,0,0,0.5666352,61.396304,-0.7051417)"
   x1="49.805740"
   y1="54.607960"
   x2="9.1116619"
   y2="15.821439" /><linearGradient
   inkscape:collect="always"
   xlink:href="#linearGradient1853"
   id="linearGradient2264"
   gradientUnits="userSpaceOnUse"
   gradientTransform="matrix(-0.8059858,0,0,0.5666352,61.396304,-0.7051417)"
   x1="49.805740"
   y1="54.607960"
   x2="9.1116619"
   y2="15.821439" /><radialGradient
   inkscape:collect="always"
   xlink:href="#linearGradient1843"
   id="radialGradient3350"
   gradientUnits="userSpaceOnUse"
   gradientTransform="scale(0.965451,1.035785)"
   cx="44.176689"
   cy="30.546623"
   fx="44.176689"
   fy="30.546623"
   r="69.292931" /><linearGradient
   inkscape:collect="always"
   xlink:href="#linearGradient3270"
   id="linearGradient3357"
   gradientUnits="userSpaceOnUse"
   gradientTransform="matrix(-0.8674879,0,0,0.6098733,63.864644,-3.4007208)"
   x1="47.021523"
   y1="56.093071"
   x2="29.645281"
   y2="8.8909264" /></defs>
  <sodipodi:namedview
   id="base"
   inkscape:zoom="5.0416666"
   inkscape:cx="50.622223"
   inkscape:cy="58.622273"
   inkscape:window-width="795"
   inkscape:window-height="709"
   inkscape:window-x="52"
   inkscape:window-y="59"
   inkscape:current-layer="svg683" />
  
  
  
  
  
  
  
  
  
  
<g
   id="g2246"
   transform="matrix(1.0050303,0,0,1.0050303,0.9608012,0.1193181)"><path
     id="path1065"
     d="M 57.609291,40.89149 C 45.296408,40.89149 35.306838,51.400075 35.306839,64.349243 C 35.306839,64.862211 35.411119,65.337826 35.442004,65.842636 C 34.619967,65.551195 33.80493,65.426041 33.121649,65.704784 C 30.593993,66.73593 29.072436,75.76057 33.369454,77.307296 C 35.906909,78.220653 37.765496,78.006258 39.068969,77.399197 C 43.073055,83.677974 49.885638,87.806995 57.609291,87.806995 C 69.922173,87.806995 79.911743,77.298415 79.911743,64.349243 C 79.911743,51.400071 69.922174,40.89149 57.609291,40.89149 z "
     style="fill:#000000;fill-opacity:0.24999994;stroke:none;stroke-width:3.3125;stroke-miterlimit:4;stroke-opacity:1" /><path
     transform="matrix(0.7057667,0,0,0.6757958,29.672666,32.19421)"
     d="M 71.528818 42.664753 A 29.628359 31.907463 0 1 1  12.2721,42.664753 A 29.628359 31.907463 0 1 1  71.528818 42.664753 z"
     sodipodi:ry="31.907463"
     sodipodi:rx="29.628359"
     sodipodi:cy="42.664753"
     sodipodi:cx="41.900459"
     id="path1857"
     style="fill:url(#radialGradient1858);fill-opacity:1;stroke:#b01911;stroke-width:3.3125;stroke-miterlimit:4;stroke-opacity:1"
     sodipodi:type="arc" /><path
     transform="matrix(0.6757958,0,0,0.6757958,50.921262,34.164187)"
     d="M 48.099174 34.214874 A 11.652892 11.652892 0 1 1  24.793389,34.214874 A 11.652892 11.652892 0 1 1  48.099174 34.214874 z"
     sodipodi:ry="11.652892"
     sodipodi:rx="11.652892"
     sodipodi:cy="34.214874"
     sodipodi:cx="36.446281"
     id="path1167"
     style="fill:#ffffff;fill-opacity:1;stroke:#000000;stroke-width:1.875;stroke-miterlimit:4;stroke-opacity:1"
     sodipodi:type="arc" /><path
     transform="matrix(0.7955678,0,0,0.7955678,32.314041,31.574183)"
     d="M 48.099174 34.214874 A 11.652892 11.652892 0 1 1  24.793389,34.214874 A 11.652892 11.652892 0 1 1  48.099174 34.214874 z"
     sodipodi:ry="11.652892"
     sodipodi:rx="11.652892"
     sodipodi:cy="34.214874"
     sodipodi:cx="36.446281"
     id="path1789"
     style="fill:#ffffff;fill-opacity:1;stroke:#000000;stroke-width:1.875;stroke-miterlimit:4;stroke-opacity:1"
     sodipodi:type="arc" /><path
     transform="matrix(0.6757958,0,0,0.6757958,29.139408,30.478028)"
     d="M 49.09091 43.140495 A 4.9586778 5.2066116 0 1 1  39.173555,43.140495 A 4.9586778 5.2066116 0 1 1  49.09091 43.140495 z"
     sodipodi:ry="5.2066116"
     sodipodi:rx="4.9586778"
     sodipodi:cy="43.140495"
     sodipodi:cx="44.132233"
     id="path1806"
     style="fill:#000000;fill-opacity:1;stroke:none;stroke-width:1.875;stroke-miterlimit:4;stroke-opacity:1"
     sodipodi:type="arc" /><path
     transform="matrix(0.6757958,0,0,0.6757958,45.559572,28.802502)"
     d="M 49.09091 43.140495 A 4.9586778 5.2066116 0 1 1  39.173555,43.140495 A 4.9586778 5.2066116 0 1 1  49.09091 43.140495 z"
     sodipodi:ry="5.2066116"
     sodipodi:rx="4.9586778"
     sodipodi:cy="43.140495"
     sodipodi:cx="44.132233"
     id="path1805"
     style="fill:#000000;fill-opacity:1;stroke:none;stroke-width:1.875;stroke-miterlimit:4;stroke-opacity:1"
     sodipodi:type="arc" /><path
     sodipodi:nodetypes="cccccccccccccc"
     id="path1807"
     d="M 53.177981,67.767924 C 53.004806,67.784197 52.838147,67.842165 52.692252,67.936873 C 52.692252,67.936873 51.270737,68.809305 49.98907,70.090972 C 49.348236,70.731806 48.720334,71.471467 48.320698,72.350664 C 47.921063,73.229862 47.774771,74.363246 48.278461,75.370627 C 48.445072,75.725923 48.791721,75.962499 49.183303,75.988151 C 49.574885,76.013802 49.949434,75.824469 50.160971,75.493944 C 50.372508,75.163419 50.387558,74.744006 50.200256,74.39917 C 50.033735,74.06613 49.385832,73.761877 49.614519,73.258765 C 49.843206,72.755653 49.804707,72.143548 50.336741,71.611512 C 51.400812,70.547442 52.492237,69.753074 52.492237,69.753074 C 52.910457,69.489172 54.435678,68.974399 54.280795,68.504757 C 54.125914,68.035115 53.671143,67.731265 53.177981,67.767924 L 53.177981,67.767924 z "
     style="fill:#000000;fill-opacity:1;fill-rule:evenodd;stroke:none;stroke-width:3.1875;stroke-linecap:round;stroke-linejoin:round;stroke-miterlimit:4;stroke-opacity:1" /><path
     sodipodi:nodetypes="ccccccccc"
     id="path1808"
     d="M 50.662073,69.834756 L 48.888109,71.439772 L 49.690617,72.347872 C 49.690617,72.347872 57.006207,80.33793 66.142021,76.318172 L 67.261308,75.832444 L 66.792509,75.311634 L 65.50567,75.797363 C 56.210687,79.149923 51.485699,70.721738 51.485699,70.721738 L 50.662073,69.834756 z "
     style="fill:#000000;fill-opacity:1;fill-rule:evenodd;stroke:none;stroke-width:3.5625;stroke-linecap:square;stroke-linejoin:round;stroke-miterlimit:4;stroke-opacity:1" /><path
     sodipodi:nodetypes="ccccccccccccc"
     id="path1848"
     d="M 48.575519,47.400849 C 48.910624,49.411481 49.915939,53.09764 48.575519,58.12422 C 45.224464,63.1508 39.862779,68.847591 39.862779,68.847591 C 38.522358,69.517803 34.501093,66.166748 33.830883,58.794431 C 33.160672,51.422113 36.17662,42.039163 40.53299,41.704057 C 43.213832,40.028531 43.548938,39.35832 43.548938,39.35832 C 43.548938,39.35832 43.548938,37.347688 46.229781,35.672161 C 48.910624,33.996634 56.282942,30.310476 63.320155,32.991318 C 70.357366,35.672161 72.367998,43.714689 78.399895,42.039163 C 84.431791,40.363635 87.782846,38.353004 87.782846,38.353004 C 87.782846,38.353004 88.453057,45.390217 83.426476,49.411481 C 78.399896,53.432745 76.054158,55.443378 68.346734,54.438061 C 60.639311,53.432745 51.591467,48.406164 48.575519,47.400849 z "
     style="fill:url(#linearGradient1852);fill-opacity:1;fill-rule:evenodd;stroke:none;stroke-width:0.25pt;stroke-linecap:butt;stroke-linejoin:miter;stroke-opacity:1" /><path
     id="path1859"
     d="M 42.686513,65.119581 C 42.686513,65.119581 38.658273,61.328297 36.288721,62.276118 C 33.919168,63.223939 32.497437,71.517373 36.525676,72.939104 C 40.553915,74.360837 42.923468,72.939104 43.634334,71.517373"
     style="fill:#ffb978;fill-opacity:1;fill-rule:evenodd;stroke:#b01911;stroke-width:2.491997;stroke-linecap:round;stroke-linejoin:miter;stroke-miterlimit:4;stroke-opacity:1" /></g><path
   id="path2211"
   d="M 32.500966,9.9714146 C 45.753404,9.9714146 56.505246,21.281875 56.505244,35.219151 C 56.505244,35.771262 56.393007,36.28317 56.359765,36.8265 C 57.244529,36.51282 58.121758,36.378116 58.857178,36.678129 C 61.577711,37.787959 63.215373,47.501239 58.590464,49.165991 C 55.859385,50.149043 53.858975,49.918288 52.456039,49.264904 C 48.146414,56.022794 40.813985,60.466887 32.500966,60.466887 C 19.248529,60.466887 8.4966877,49.156432 8.4966877,35.219151 C 8.4966877,21.281871 19.248527,9.9714146 32.500966,9.9714146 z "
   style="fill:#000000;fill-opacity:0.24999994;stroke:none;stroke-width:3.3125;stroke-miterlimit:4;stroke-opacity:1" /><path
   transform="matrix(-0.7596214,0,0,0.7273635,62.569342,0.6104741)"
   d="M 71.528818 42.664753 A 29.628359 31.907463 0 1 1  12.2721,42.664753 A 29.628359 31.907463 0 1 1  71.528818 42.664753 z"
   sodipodi:ry="31.907463"
   sodipodi:rx="29.628359"
   sodipodi:cy="42.664753"
   sodipodi:cx="41.900459"
   id="path2213"
   style="fill:url(#radialGradient3350);fill-opacity:1;stroke:#b01911;stroke-width:3.3125;stroke-miterlimit:4;stroke-opacity:1"
   sodipodi:type="arc" /><path
   transform="matrix(-0.7682544,0,0,0.7682544,41.704486,1.8465309)"
   d="M 48.099174 34.214874 A 11.652892 11.652892 0 1 1  24.793389,34.214874 A 11.652892 11.652892 0 1 1  48.099174 34.214874 z"
   sodipodi:ry="11.652892"
   sodipodi:rx="11.652892"
   sodipodi:cy="34.214874"
   sodipodi:cx="36.446281"
   id="path2215"
   style="fill:#ffffff;fill-opacity:1;stroke:#000000;stroke-width:1.875;stroke-miterlimit:4;stroke-opacity:1"
   sodipodi:type="arc" /><path
   transform="matrix(-0.8037015,0,0,0.8037015,58.47223,1.0800037)"
   d="M 48.099174 34.214874 A 11.652892 11.652892 0 1 1  24.793389,34.214874 A 11.652892 11.652892 0 1 1  48.099174 34.214874 z"
   sodipodi:ry="11.652892"
   sodipodi:rx="11.652892"
   sodipodi:cy="34.214874"
   sodipodi:cx="36.446281"
   id="path2217"
   style="fill:#ffffff;fill-opacity:1;stroke:#000000;stroke-width:1.8752017;stroke-miterlimit:4;stroke-dasharray:none;stroke-opacity:1"
   sodipodi:type="arc" /><path
   transform="matrix(-0.7273635,0,0,0.7273635,64.025859,-2.1192321)"
   d="M 49.09091 43.140495 A 4.9586778 5.2066116 0 1 1  39.173555,43.140495 A 4.9586778 5.2066116 0 1 1  49.09091 43.140495 z"
   sodipodi:ry="5.2066116"
   sodipodi:rx="4.9586778"
   sodipodi:cy="43.140495"
   sodipodi:cx="44.132233"
   id="path2219"
   style="fill:#000000;fill-opacity:1;stroke:none;stroke-width:1.875;stroke-miterlimit:4;stroke-opacity:1"
   sodipodi:type="arc" /><path
   transform="matrix(-0.7273635,0,0,0.7273635,47.235296,-2.157476)"
   d="M 49.09091 43.140495 A 4.9586778 5.2066116 0 1 1  39.173555,43.140495 A 4.9586778 5.2066116 0 1 1  49.09091 43.140495 z"
   sodipodi:ry="5.2066116"
   sodipodi:rx="4.9586778"
   sodipodi:cy="43.140495"
   sodipodi:cx="44.132233"
   id="path2221"
   style="fill:#000000;fill-opacity:1;stroke:none;stroke-width:1.875;stroke-miterlimit:4;stroke-opacity:1"
   sodipodi:type="arc" /><path
   style="fill:#000000;fill-opacity:1;fill-rule:evenodd;stroke:none;stroke-width:3.1875;stroke-linecap:round;stroke-linejoin:round;stroke-miterlimit:4;stroke-opacity:1"
   d="M 38,41.03125 C 38,41.03125 38.506519,41.413373 39.15625,41.96875 L 39.09375,42.0625 C 39.09375,42.0625 34.004252,51.139632 24,47.53125 L 22.625,47.03125 L 22.125,47.59375 L 23.3125,48.09375 C 32.612047,52.18555 40.083564,44.822476 40.875,44 C 40.954943,44.280352 40.979969,44.562183 41.09375,44.8125 C 40.836603,46.05584 44.076893,47.990995 42.5,43.84375 C 42.069869,42.897465 41.377235,42.095983 40.6875,41.40625 C 39.436401,39.679026 36.712781,39.347916 38,41.03125 z "
   id="path2223"
   sodipodi:nodetypes="cccccccccccc" /><path
   sodipodi:nodetypes="cccccscsscsscccc"
   id="path2227"
   d="M 42.224075,16.977481 C 41.8634,19.141538 40.781372,23.108976 42.224075,28.519117 C 45.830838,33.929259 51.601656,40.060753 51.601656,40.060753 C 53.04436,40.782107 54.051469,44.723084 54.772819,36.78821 C 59.934791,33.579675 59.603004,29.829928 58.64555,24.948119 C 59.667647,24.494393 63.090274,23.325783 64.120466,26.389476 C 65.29539,29.883587 72.96028,39.46309 80.483544,29.652661 C 72.878782,29.711232 76.892745,21.390434 74.826564,14.72619 C 72.161074,6.1289405 67.672098,5.5837752 63.82538,5.7835954 C 58.224179,6.0745534 56.743812,7.7527805 52.906911,12.566524 C 47.303034,4.8369133 37.608721,2.2613483 28.467692,3.1289095 C 17.454635,4.1741419 10.743998,6.8469802 5.4692623,16.792289 C 2.7633958,21.894096 0.66064608,29.995823 3.3016651,34.392352 C 4.251946,23.969952 6.5141184,23.477799 8.6385823,20.952996 C 14.048723,25.281109 16.422502,23.973206 24.718054,22.891176 C 33.013605,21.809148 38.97799,18.059509 42.224075,16.977481 z "
   style="fill:url(#linearGradient3357);fill-opacity:1;fill-rule:evenodd;stroke:none;stroke-width:0.25pt;stroke-linecap:butt;stroke-linejoin:miter;stroke-opacity:1" /><path
   id="path2229"
   d="M 48.562452,36.048271 C 48.562452,36.048271 52.898074,31.967687 55.448438,32.987833 C 57.998803,34.007979 59.529022,42.934258 55.193402,44.464476 C 50.857781,45.994697 48.307416,44.464476 47.542306,42.934258"
   style="fill:#ffb978;fill-opacity:1;fill-rule:evenodd;stroke:#b01911;stroke-width:2.68215299;stroke-linecap:round;stroke-linejoin:miter;stroke-miterlimit:4;stroke-opacity:1" /><path
   style="fill:#593a28;fill-opacity:1;fill-rule:evenodd;stroke:none;stroke-width:1px;stroke-linecap:butt;stroke-linejoin:miter;stroke-opacity:1"
   d="M 50.91948,10.445918 C 51.410082,9.4269745 53.787622,9.5779287 54.051791,10.861044 C 54.65561,12.672502 55.56134,20.899538 60.391893,24.522453 C 60.796653,25.655595 60.082856,26.574308 58.882345,26.560344 C 56.316113,25.730091 50.466615,17.842704 50.91948,10.445918 z "
   id="path3276"
   sodipodi:nodetypes="ccccc" /></svg>