<?xml version="1.0" encoding="UTF-8" standalone="no"?>
<!-- Created with Inkscape (http://www.inkscape.org/) -->

<svg
   xmlns:dc="http://purl.org/dc/elements/1.1/"
   xmlns:cc="http://creativecommons.org/ns#"
   xmlns:rdf="http://www.w3.org/1999/02/22-rdf-syntax-ns#"
   xmlns:svg="http://www.w3.org/2000/svg"
   xmlns="http://www.w3.org/2000/svg"
   xmlns:sodipodi="http://sodipodi.sourceforge.net/DTD/sodipodi-0.dtd"
   xmlns:inkscape="http://www.inkscape.org/namespaces/inkscape"
   version="1.0"
   x="0.00000000"
   y="0.00000000"
   width="90"
   height="90"
   id="svg548"
   sodipodi:version="0.32"
   sodipodi:docname="unmount.svg"
   inkscape:version="0.47pre1 r21720"
   inkscape:output_extension="org.inkscape.output.svg.inkscape">
  <metadata
     id="metadata23">
    <rdf:RDF>
      <cc:Work
         rdf:about="">
        <dc:format>image/svg+xml</dc:format>
        <dc:type
           rdf:resource="http://purl.org/dc/dcmitype/StillImage" />
        <dc:title></dc:title>
      </cc:Work>
    </rdf:RDF>
  </metadata>
  <sodipodi:namedview
     id="base"
     inkscape:zoom="5.3777778"
     inkscape:cx="43.710432"
     inkscape:cy="60.265269"
     inkscape:window-width="1014"
     inkscape:window-height="696"
     inkscape:window-x="0"
     inkscape:window-y="1"
     showguides="true"
     snaptoguides="true"
     inkscape:current-layer="svg548"
     width="90px"
     height="90px"
     showgrid="false"
     inkscape:window-maximized="0" />
  <defs
     id="defs550" />
  <g
     id="g28"
     transform="matrix(0.75693936,0,0,0.79557663,11.698937,0.32015126)">
    <path
       style="font-size:12px;fill:#283d53;fill-opacity:1;fill-rule:evenodd;stroke-width:1pt"
       d="M 44.488897,1.566117 C 25.831044,6.004088 9.0920375,23.762019 7.5170484,35.469526 10.575044,46.709144 80.810187,45.63306 83.054755,34.64747 79.866661,20.519788 59.142521,3.099021 44.488897,1.566117 z"
       id="path22"
       sodipodi:nodetypes="cccc" />
    <path
       d="M 44.041307,8.5030415 C 36.919837,9.7207807 15.981336,25.265128 16.868776,31.142515 c 11.03733,7.301025 46.3711,8.334909 57.265579,2.157902 C 73.687621,26.392763 51.345539,6.0791092 44.041307,8.5030415 z"
       style="font-size:12px;fill:#31baff;fill-rule:evenodd;stroke-width:1pt"
       id="path581"
       sodipodi:nodetypes="cccc" />
    <path
       d="M 34.690655,37.150355 C 28.183345,37.423384 19.155669,35.243075 15.177716,32.34307 18.511194,20.943443 38.850049,8.4047971 44.8779,8.4384676 48.947357,7.7429593 26.93537,21.38949 31.294737,27.500655 c 4.35937,6.111165 13.560895,1.530997 14.125244,6.527991 0.746775,4.316386 -8.116191,3.012068 -10.729326,3.121709 z"
       style="font-size:12px;fill:#009ae7;fill-rule:evenodd;stroke-width:1pt"
       id="path583"
       sodipodi:nodetypes="cccccs" />
    <path
       id="path589"
       style="font-size:12px;fill:#ffffff;fill-rule:evenodd;stroke-width:1pt"
       d="m 47.419918,10.53063 c 0,0 17.665525,11.452238 19.395287,14.762282 1.729507,3.309851 -5.816639,2.580817 -5.816639,2.580817 0,0 -10.610108,-16.501695 -13.578648,-17.343099 z" />
  </g>
  <path
     style="fill:#283d53;fill-rule:evenodd;stroke-width:1pt"
     d="m 74.084883,38.230939 c 0.927346,5.430138 1.371958,10.486862 0.02356,15.106264 L 17.417168,53.125098 c -0.840303,-4.491537 -1.143421,-11.1128 0.01899,-15.448109 -0.637272,-0.322793 54.419181,-0.619887 56.648729,0.55395 z"
     id="path590"
     sodipodi:nodetypes="ccccc" />
  <path
     style="fill:#31baff;fill-rule:evenodd;stroke-width:1pt;fill-opacity:1"
     d="m 71.066278,41.069682 c 0.46221,1.48648 0.521388,2.961871 0.580562,4.437242 0.05918,1.475394 0.188777,2.794825 -0.225507,4.415097 l -51.050889,-0.07248 c -0.544386,-1.304529 -0.752902,-3.931212 -0.759901,-5.220962 -0.0069,-1.289726 0.108974,-2.023423 0.717917,-3.848907 l 50.737818,0.290006 z"
     id="path591"
     sodipodi:nodetypes="ccccccc" />
  <path
     style="fill:#009ae7;fill-rule:evenodd;stroke-width:1pt;fill-opacity:1"
     d="m 70.73499,48.903306 -49.846989,0.126611 c 0,0 -0.445495,-2.189661 -0.480654,-3.646208 -0.03517,-1.456549 0.198499,-2.917996 0.198873,-2.953713 7.41e-4,-0.07145 0.876432,-0.272602 2.008144,0.744933 1.205068,1.150718 -0.477063,3.963879 0.582006,3.972726 l 47.418438,0.396102 c 0.294592,0.0025 1.01896,1.357267 0.120182,1.359549 z"
     id="path592"
     sodipodi:nodetypes="ccssssss" />
  <path
     style="fill:#ffffff;fill-rule:evenodd;stroke-width:1pt"
     d="m 70.117108,42.101166 c 1.230357,1.288054 0.469416,3.357503 0.379686,3.355036 -4.007672,-1.573462 -24.113626,-1.812825 -24.113626,-1.812825 -0.846332,-0.319401 -3.571691,-0.81388 -3.613592,-1.092285 -0.03707,-0.24636 2.589406,-0.483053 3.376726,-0.482009 l 23.970806,0.03208 z"
     id="path577"
     sodipodi:nodetypes="ccsssc" />
  <g
     id="g824"
     transform="matrix(0.75693936,0,0,0.79557663,13.810235,-9.147868)">
    <path
       sodipodi:nodetypes="cccc"
       id="path36"
       d="M 43.1077,122.623 C 61.765553,118.18503 78.504559,100.4271 80.079549,88.719589 77.021553,77.479971 6.7864097,78.556055 4.5418417,89.541645 7.7299357,103.66933 28.454076,121.0901 43.1077,122.623 z"
       style="font-size:12px;fill:#283d53;fill-opacity:1;fill-rule:evenodd;stroke-width:1pt" />
    <path
       sodipodi:nodetypes="cccc"
       id="path38"
       style="font-size:12px;fill:#31baff;fill-rule:evenodd;stroke-width:1pt;fill-opacity:1"
       d="M 43.55529,115.68608 C 50.67676,114.46834 71.615261,98.923987 70.727821,93.0466 59.690491,85.745575 24.356721,84.711691 13.462242,90.888698 13.908976,97.796352 36.251058,118.11001 43.55529,115.68608 z" />
    <path
       sodipodi:nodetypes="cccc"
       id="path44"
       d="M 13.57438,90.743801 C 22.128099,94.64876 23.801653,102.08678 57.830578,97.623966 55.413223,100.04132 36.260331,108.03719 41.838843,116.03306 29.380165,114.17356 12.458678,94.64876 13.57438,90.743801 z"
       style="fill:#009ae7;fill-opacity:1;stroke:none" />
  </g>
</svg>
