<?xml version="1.0" encoding="UTF-8" standalone="no"?>
<!-- Created with Sodipodi ("http://www.sodipodi.com/") -->
<svg
   xmlns:dc="http://purl.org/dc/elements/1.1/"
   xmlns:cc="http://web.resource.org/cc/"
   xmlns:rdf="http://www.w3.org/1999/02/22-rdf-syntax-ns#"
   xmlns:svg="http://www.w3.org/2000/svg"
   xmlns="http://www.w3.org/2000/svg"
   xmlns:sodipodi="http://sodipodi.sourceforge.net/DTD/sodipodi-0.dtd"
   xmlns:inkscape="http://www.inkscape.org/namespaces/inkscape"
   version="1.0"
   x="0"
   y="0"
   width="90"
   height="90"
   id="svg548"
   sodipodi:version="0.32"
   sodipodi:docname="view-sort-descending.svg"
   sodipodi:docbase="/home/tweenk/GNUtoon/actions"
   inkscape:version="0.45.1"
   inkscape:output_extension="org.inkscape.output.svg.inkscape">
  <metadata
     id="metadata24">
    <rdf:RDF>
      <cc:Work
         rdf:about="">
        <dc:format>image/svg+xml</dc:format>
        <dc:type
           rdf:resource="http://purl.org/dc/dcmitype/StillImage" />
      </cc:Work>
    </rdf:RDF>
  </metadata>
  <sodipodi:namedview
     id="base"
     inkscape:zoom="5.0777778"
     inkscape:cx="45"
     inkscape:cy="45"
     inkscape:window-width="853"
     inkscape:window-height="669"
     inkscape:window-x="5"
     inkscape:window-y="48"
     inkscape:current-layer="svg548"
     width="90px"
     height="90px" />
  <defs
     id="defs550" />
  <path
     d="M 28.28877,86.080712 C 32.310021,84.479456 47.387442,75.662966 50.921622,60.525971 C 46.140204,55.237829 37.775034,56.817608 36.598875,52.570352 C 35.855625,48.190283 37.396983,12.357383 34.856883,9.2231059 C 29.342226,4.7160379 19.846617,3.6008749 17.629488,14.342495 C 16.7832,27.313799 20.22396,52.302452 17.2737,54.087158 C 14.323437,55.871846 5.8530659,60.440672 6.1775699,63.767429 C 6.5020739,67.094183 24.111777,88.963292 28.28877,86.080712 z "
     style="font-size:12px;fill:#0d3c07;fill-rule:evenodd"
     id="path582"
     sodipodi:nodetypes="cccccccc" />
  <path
     d="M 28.009971,83.333741 C 31.041801,82.40567 45.777348,68.799743 44.361246,64.015658 C 42.945033,59.231375 35.016795,60.706877 34.337322,57.16475 C 33.657753,53.622425 33.840423,13.492214 31.486836,13.071362 C 29.133291,12.650156 21.133956,10.859282 20.904054,15.16889 C 20.674122,19.478852 23.321421,59.394842 21.11262,60.560156 C 18.903807,61.72547 12.881976,61.013735 13.214727,63.683711 C 13.547478,66.353672 24.89181,85.266182 28.009971,83.333741 z "
     style="font-size:12px;fill:#2aaf18;fill-rule:evenodd"
     id="path581" />
  <path
     d="M 30.389481,12.755039 C 30.389481,12.755039 32.670675,12.382811 32.946228,17.353289 C 33.221823,22.323419 33.702258,58.831184 34.640862,59.359148 C 37.427424,59.647592 44.22057,60.832547 43.802757,64.05857 C 43.168965,69.796181 30.132399,80.440244 28.399896,80.970623 C 26.667393,81.500675 41.657001,64.651526 32.472006,61.957052 C 30.66588,56.802953 30.551919,51.198575 30.348645,47.021327 C 30.145443,42.844277 27.040065,14.106185 28.223889,13.417637 C 29.407629,12.729236 31.010553,13.706282 30.389481,12.755039 z "
     style="font-size:12px;fill:#208c11;fill-rule:evenodd"
     id="path583" />
  <path
     d="M 23.262357,14.990675 C 23.262357,14.990675 22.432776,45.898559 23.443857,47.219786 C 24.454851,48.540815 26.859327,22.205474 23.262357,14.990675 z "
     style="font-size:12px;fill:#ffffff;fill-rule:evenodd"
     id="path588" />
  <path
     d="M 24.754704,63.201566 C 18.19572,63.748154 16.140315,66.887141 15.691917,63.926237 C 15.243612,60.965516 19.426956,63.994859 22.159863,60.44207 C 26.25924,64.268153 25.497984,59.08598 24.754704,63.201566 z "
     style="font-size:12px;fill:#ffffff;fill-rule:evenodd"
     id="path589" />
  <path
     style="font-size:12px;fill:none;fill-rule:evenodd;stroke:#000000;stroke-width:4.20466185;stroke-linecap:round"
     d="M 65.535381,30.057623 C 65.535381,31.017998 65.535381,31.978361 65.535381,32.938721"
     id="path683" />
  <path
     style="font-size:12px;fill:none;fill-rule:evenodd;stroke:#000000;stroke-width:3.85845804;stroke-linecap:round"
     d="M 65.535366,38.529656 C 65.535366,39.743288 65.535366,40.95692 65.535366,42.170552"
     id="path684" />
  <path
     style="font-size:12px;fill:none;fill-rule:evenodd;stroke:#000000;stroke-width:3.77691507;stroke-linecap:round"
     d="M 65.535366,47.001686 C 65.535366,48.2327 65.535366,49.463729 65.535366,50.694743"
     id="path685" />
  <g
     id="g686"
     transform="matrix(1.412004,0,0,1.412004,7.5975989,51.374348)">
    <path
       style="font-size:12px;fill:none;fill-rule:evenodd;stroke:#000000;stroke-width:4.01996279;stroke-linecap:round"
       d="M 41.03226,4.258064 C 39.39092,8.60052 36.5105,13.30732 34.4215,17.58282 C 33.6136,19.23632 32.83626,20.93223 31.88519,22.5234"
       id="path677" />
    <path
       style="font-size:12px;fill:none;fill-rule:evenodd;stroke:#000000;stroke-width:4.27519894;stroke-linecap:round"
       d="M 41.41935,4.451613 C 43.66749,10.81834 47.20028,17.1407 50.55907,23.02925"
       id="path678" />
    <path
       style="fill:none;fill-opacity:1;fill-rule:evenodd;stroke:#000000;stroke-width:3.375;stroke-linecap:round;stroke-linejoin:miter;stroke-opacity:1"
       d="M 36.77419,15.87097 C 39.30128,16.71326 43.04367,16.80046 45.69069,16.84151"
       id="path679" />
  </g>
  <g
     id="g690"
     transform="matrix(1.412004,0,0,1.412004,4.3181009,-54.662692)">
    <path
       style="fill:none;fill-opacity:1;fill-rule:evenodd;stroke:#000000;stroke-width:3.375;stroke-linecap:round;stroke-linejoin:miter;stroke-opacity:1"
       d="M 37.93548,43.54839 C 41.3852,43.54839 44.8407,43.90812 48.28125,44.13481"
       id="path680" />
    <path
       style="fill:none;fill-opacity:1;fill-rule:evenodd;stroke:#000000;stroke-width:3.375;stroke-linecap:round;stroke-linejoin:miter;stroke-opacity:1"
       d="M 48.19355,44.12903 C 46.79539,46.92516 40.62354,51.45067 38.08705,53.91869 C 37.47305,54.51612 37.09957,55.27651 36.491,55.86456"
       id="path681" />
    <path
       style="fill:none;fill-opacity:1;fill-rule:evenodd;stroke:#000000;stroke-width:3.375;stroke-linecap:round;stroke-linejoin:miter;stroke-opacity:1"
       d="M 36.3871,56.12903 C 39.07695,54.78409 45.26357,56.19367 48.36309,56.31516"
       id="path682" />
  </g>
</svg>
