<?xml version="1.0" encoding="UTF-8" standalone="no"?>
<!-- Created with Sodipodi ("http://www.sodipodi.com/") -->
<svg
   xmlns:dc="http://purl.org/dc/elements/1.1/"
   xmlns:cc="http://web.resource.org/cc/"
   xmlns:rdf="http://www.w3.org/1999/02/22-rdf-syntax-ns#"
   xmlns:svg="http://www.w3.org/2000/svg"
   xmlns="http://www.w3.org/2000/svg"
   xmlns:sodipodi="http://sodipodi.sourceforge.net/DTD/sodipodi-0.dtd"
   xmlns:inkscape="http://www.inkscape.org/namespaces/inkscape"
   version="1.0"
   x="0"
   y="0"
   width="90"
   height="90"
   id="svg602"
   xml:space="preserve"
   sodipodi:version="0.32"
   sodipodi:docname="window-new.svg"
   sodipodi:docbase="/home/nathan/GNUtoon/scalable/actions"
   inkscape:version="0.45.1"
   inkscape:output_extension="org.inkscape.output.svg.inkscape"><metadata
     id="metadata21"><rdf:RDF><cc:Work
         rdf:about=""><dc:format>image/svg+xml</dc:format><dc:type
           rdf:resource="http://purl.org/dc/dcmitype/StillImage" /></cc:Work></rdf:RDF></metadata><sodipodi:namedview
     id="base"
     inkscape:zoom="4.5222222"
     inkscape:cx="45"
     inkscape:cy="45"
     inkscape:window-width="1024"
     inkscape:window-height="701"
     inkscape:window-x="0"
     inkscape:window-y="42"
     inkscape:current-layer="svg602" /><defs
     id="defs604" /><rect
     width="75.000008"
     height="56.875008"
     ry="4.1143618"
     x="-77.997154"
     y="8.4152231"
     style="font-size:12px;fill-opacity:0.32289997;fill-rule:evenodd"
     id="rect683"
     transform="scale(-1,1)" /><path
     d="M 74.662081,4.4824839 C 77.496791,4.4824839 79.778881,6.8407739 79.778881,9.7701139 L 79.778881,55.132384 C 79.778881,58.061714 77.496791,60.420014 74.662081,60.420014 L 11.644731,60.420014 C 8.8100312,60.420014 6.5279312,58.061714 6.5279312,55.132384 L 6.5279312,9.7701139 C 6.5279312,6.8407739 8.8100312,4.4824839 11.644731,4.4824839 L 74.662081,4.4824839 z "
     style="font-size:12px;fill:#66758a;fill-rule:evenodd"
     id="path668" /><path
     d="M 73.373851,6.2175639 C 76.038521,6.2175639 78.183731,7.5786739 78.183731,9.2693939 L 78.183731,10.875624 C 78.183731,12.566334 76.038521,13.927454 73.373851,13.927454 L 14.136311,13.927454 C 11.471641,13.927454 9.3264412,12.566334 9.3264412,10.875624 L 9.3264412,9.2693939 C 9.3264412,7.5786739 11.471641,6.2175639 14.136311,6.2175639 L 73.373851,6.2175639 z "
     style="font-size:12px;fill:#99bed2;fill-rule:evenodd"
     id="path669" /><path
     d="M 72.600711,15.522614 C 75.251851,15.522614 77.386161,17.656924 77.386161,20.308054 L 77.386161,52.211044 C 77.386161,54.862184 75.251851,56.996494 72.600711,56.996494 L 14.377741,56.996494 C 11.726611,56.996494 9.5923012,54.862184 9.5923012,52.211044 L 9.5923012,20.308054 C 9.5923012,17.656924 11.726611,15.522614 14.377741,15.522614 L 72.600711,15.522614 z "
     style="font-size:12px;fill:#b3c3d7;fill-rule:evenodd"
     id="path670" /><path
     d="M 70.809661,10.107484 C 70.809661,11.660784 72.068861,12.919984 73.622161,12.919984 C 75.175461,12.919984 76.434661,11.660784 76.434661,10.107484 C 76.434661,8.5541839 75.175461,7.2949839 73.622161,7.2949839 C 72.068861,7.2949839 70.809661,8.5541839 70.809661,10.107484 z "
     style="font-size:12px;fill:#ff0000;fill-rule:evenodd"
     id="path671" /><path
     d="M 64.559661,10.107484 C 64.559661,11.660784 65.818861,12.919984 67.372161,12.919984 C 68.925461,12.919984 70.184661,11.660784 70.184661,10.107484 C 70.184661,8.5541839 68.925461,7.2949839 67.372161,7.2949839 C 65.818861,7.2949839 64.559661,8.5541839 64.559661,10.107484 z "
     style="font-size:12px;fill:#ff933d;fill-rule:evenodd"
     id="path672" /><path
     d="M 58.622161,10.107484 C 58.622161,11.660784 59.881361,12.919984 61.434661,12.919984 C 62.987961,12.919984 64.247161,11.660784 64.247161,10.107484 C 64.247161,8.5541839 62.987961,7.2949839 61.434661,7.2949839 C 59.881361,7.2949839 58.622161,8.5541839 58.622161,10.107484 z "
     style="font-size:12px;fill:#29ad17;fill-rule:evenodd"
     id="path673" /><path
     d="M 18.622161,7.6074839 C 20.007161,7.6074839 21.122161,8.7224839 21.122161,10.107484 C 21.122161,11.492484 20.007161,12.607484 18.622161,12.607484 L 14.247151,12.607484 C 12.862151,12.607484 11.747151,11.492484 11.747151,10.107484 C 11.747151,8.7224839 12.862151,7.6074839 14.247151,7.6074839 L 18.622161,7.6074839 z "
     style="font-size:12px;fill:#c7dfff;fill-rule:evenodd;stroke:#000000"
     id="path674" /><rect
     width="75.937508"
     height="56.875008"
     ry="4.1143618"
     x="-85.41404"
     y="26.119467"
     style="font-size:12px;fill-opacity:0.32289997;fill-rule:evenodd"
     id="rect682"
     transform="scale(-1,1)" /><path
     d="M 70.101541,41.638507 C 70.101541,43.191807 71.360741,44.451007 72.914041,44.451007 C 74.467341,44.451007 75.726541,43.191807 75.726541,41.638507 C 75.726541,40.085207 74.467341,38.826007 72.914041,38.826007 C 71.360741,38.826007 70.101541,40.085207 70.101541,41.638507 z "
     style="font-size:12px;fill:#ff0000;fill-rule:evenodd"
     id="path2393" /><path
     d="M 63.851541,41.638507 C 63.851541,43.191807 65.110741,44.451007 66.664041,44.451007 C 68.217341,44.451007 69.476541,43.191807 69.476541,41.638507 C 69.476541,40.085207 68.217341,38.826007 66.664041,38.826007 C 65.110741,38.826007 63.851541,40.085207 63.851541,41.638507 z "
     style="font-size:12px;fill:#ff933d;fill-rule:evenodd"
     id="path2395" /><path
     d="M 57.914041,41.638507 C 57.914041,43.191807 59.173241,44.451007 60.726541,44.451007 C 62.279841,44.451007 63.539041,43.191807 63.539041,41.638507 C 63.539041,40.085207 62.279841,38.826007 60.726541,38.826007 C 59.173241,38.826007 57.914041,40.085207 57.914041,41.638507 z "
     style="font-size:12px;fill:#29ad17;fill-rule:evenodd"
     id="path2397" /><path
     d="M 82.703967,22.263512 C 85.538677,22.263512 87.820767,24.621795 87.820767,27.551135 L 87.820767,72.913407 C 87.820767,75.842737 85.538677,78.201037 82.703967,78.201037 L 19.686611,78.201037 C 16.851911,78.201037 14.569811,75.842737 14.569811,72.913407 L 14.569811,27.551135 C 14.569811,24.621795 16.851911,22.263512 19.686611,22.263512 L 82.703967,22.263512 z "
     style="font-size:12px;fill:#3d4e67;fill-rule:evenodd"
     id="path611" /><path
     d="M 81.415727,23.998585 C 84.080397,23.998585 86.225607,25.359697 86.225607,27.050417 L 86.225607,28.656647 C 86.225607,30.347357 84.080397,31.708477 81.415727,31.708477 L 22.178191,31.708477 C 19.513521,31.708477 17.368321,30.347357 17.368321,28.656647 L 17.368321,27.050417 C 17.368321,25.359697 19.513521,23.998585 22.178191,23.998585 L 81.415727,23.998585 z "
     style="font-size:12px;fill:#bae6ff;fill-rule:evenodd"
     id="path610" /><path
     d="M 80.642587,33.303637 C 83.293727,33.303637 85.428037,35.437947 85.428037,38.089077 L 85.428037,69.992067 C 85.428037,72.643207 83.293727,74.777517 80.642587,74.777517 L 22.419621,74.777517 C 19.768491,74.777517 17.634181,72.643207 17.634181,69.992067 L 17.634181,38.089077 C 17.634181,35.437947 19.768491,33.303637 22.419621,33.303637 L 80.642587,33.303637 z "
     style="font-size:12px;fill:#ffffff;fill-opacity:1;fill-rule:evenodd"
     id="path609" /><path
     d="M 78.851537,27.888507 C 78.851537,29.441807 80.110737,30.701007 81.664037,30.701007 C 83.217347,30.701007 84.476537,29.441807 84.476537,27.888507 C 84.476537,26.335207 83.217347,25.076007 81.664037,25.076007 C 80.110737,25.076007 78.851537,26.335207 78.851537,27.888507 z "
     style="font-size:12px;fill:#ff0000;fill-rule:evenodd"
     id="path648" /><path
     d="M 72.601541,27.888507 C 72.601541,29.441807 73.860741,30.701007 75.414041,30.701007 C 76.967341,30.701007 78.226537,29.441807 78.226537,27.888507 C 78.226537,26.335207 76.967341,25.076007 75.414041,25.076007 C 73.860741,25.076007 72.601541,26.335207 72.601541,27.888507 z "
     style="font-size:12px;fill:#ff933d;fill-rule:evenodd"
     id="path649" /><path
     d="M 66.664041,27.888507 C 66.664041,29.441807 67.923241,30.701007 69.476541,30.701007 C 71.029841,30.701007 72.289041,29.441807 72.289041,27.888507 C 72.289041,26.335207 71.029841,25.076007 69.476541,25.076007 C 67.923241,25.076007 66.664041,26.335207 66.664041,27.888507 z "
     style="font-size:12px;fill:#29ad17;fill-rule:evenodd"
     id="path650" /><path
     d="M 26.664041,25.388507 C 28.049041,25.388507 29.164041,26.503507 29.164041,27.888507 C 29.164041,29.273507 28.049041,30.388507 26.664041,30.388507 L 22.289031,30.388507 C 20.904031,30.388507 19.789031,29.273507 19.789031,27.888507 C 19.789031,26.503507 20.904031,25.388507 22.289031,25.388507 L 26.664041,25.388507 z "
     style="font-size:12px;fill:#ffffff;fill-rule:evenodd;stroke:#000000"
     id="path658" /></svg>