<?xml version="1.0" encoding="UTF-8" standalone="no"?>
<!-- Created with Sodipodi ("http://www.sodipodi.com/") -->
<svg
   xmlns:dc="http://purl.org/dc/elements/1.1/"
   xmlns:cc="http://creativecommons.org/ns#"
   xmlns:rdf="http://www.w3.org/1999/02/22-rdf-syntax-ns#"
   xmlns:svg="http://www.w3.org/2000/svg"
   xmlns="http://www.w3.org/2000/svg"
   xmlns:xlink="http://www.w3.org/1999/xlink"
   xmlns:sodipodi="http://sodipodi.sourceforge.net/DTD/sodipodi-0.dtd"
   xmlns:inkscape="http://www.inkscape.org/namespaces/inkscape"
   version="1.0"
   x="0.00000000"
   y="0.00000000"
   width="90"
   height="90"
   id="svg548"
   sodipodi:version="0.32"
   sodipodi:docname="zoom-fit-height.svg"
   sodipodi:docbase="/home/tweenk/dev/GartoonRedux/scalable/actions"
   inkscape:version="0.46+devel"
   inkscape:output_extension="org.inkscape.output.svg.inkscape">
  <metadata
     id="metadata14">
    <rdf:RDF>
      <cc:Work
         rdf:about="">
        <dc:format>image/svg+xml</dc:format>
        <dc:type
           rdf:resource="http://purl.org/dc/dcmitype/StillImage" />
      </cc:Work>
    </rdf:RDF>
  </metadata>
  <sodipodi:namedview
     id="base"
     inkscape:zoom="3.4139999"
     inkscape:cx="20.338104"
     inkscape:cy="55.291784"
     inkscape:window-width="1014"
     inkscape:window-height="708"
     inkscape:window-x="0"
     inkscape:window-y="1"
     inkscape:current-layer="svg548"
     width="90px"
     height="90px"
     showgrid="false" />
  <defs
     id="defs550">
    <inkscape:perspective
       id="perspective3113"
       inkscape:persp3d-origin="0.5 : 0.33333333 : 1"
       inkscape:vp_z="1 : 0.5 : 1"
       inkscape:vp_y="0 : 1000 : 0"
       inkscape:vp_x="0 : 0.5 : 1"
       sodipodi:type="inkscape:persp3d" />
    <inkscape:perspective
       id="perspective2495"
       inkscape:persp3d-origin="0.5 : 0.33333333 : 1"
       inkscape:vp_z="1 : 0.5 : 1"
       inkscape:vp_y="0 : 1000 : 0"
       inkscape:vp_x="0 : 0.5 : 1"
       sodipodi:type="inkscape:persp3d" />
    <inkscape:perspective
       id="perspective2470"
       inkscape:persp3d-origin="0.5 : 0.33333333 : 1"
       inkscape:vp_z="1 : 0.5 : 1"
       inkscape:vp_y="0 : 1000 : 0"
       inkscape:vp_x="0 : 0.5 : 1"
       sodipodi:type="inkscape:persp3d" />
  </defs>
  <g
     transform="matrix(1.4454764,0,0,1.4454764,2.9405653,1.2570509)"
     style="font-size:12px"
     id="g1271">
    <defs
       id="defs1272">
      <linearGradient
         id="linearGradient621">
        <stop
           style="stop-color:#666565;stop-opacity:1;"
           offset="0"
           id="stop623" />
        <stop
           style="stop-color:#ffffff;stop-opacity:1;"
           offset="1"
           id="stop622" />
      </linearGradient>
      <linearGradient
         id="linearGradient610">
        <stop
           style="stop-color:#666565;stop-opacity:1;"
           offset="0"
           id="stop612" />
        <stop
           style="stop-color:#ffffff;stop-opacity:1;"
           offset="1"
           id="stop611" />
      </linearGradient>
      <defs
         id="defs1283">
        <linearGradient
           x1="0"
           y1="0"
           x2="1"
           y2="0"
           id="linearGradient554"
           xlink:href="#linearGradient610"
           gradientUnits="objectBoundingBox"
           spreadMethod="pad" />
        <linearGradient
           x1="12.9236"
           y1="79.96035"
           x2="8.3357515"
           y2="72.29023"
           id="linearGradient557"
           xlink:href="#linearGradient554"
           gradientUnits="userSpaceOnUse"
           gradientTransform="scale(1.122498,0.89087)"
           spreadMethod="pad" />
        <linearGradient
           x1="7.798367"
           y1="68.656029"
           x2="12.994576"
           y2="78.428917"
           id="linearGradient559"
           xlink:href="#linearGradient554"
           gradientUnits="userSpaceOnUse"
           gradientTransform="scale(1.122498,0.89087)"
           spreadMethod="pad" />
        <linearGradient
           id="linearGradient563"
           xlink:href="#linearGradient554" />
      </defs>
      <defs
         id="defs573">
        <linearGradient
           x1="0"
           y1="0"
           x2="1"
           y2="0"
           id="linearGradient604"
           xlink:href="#linearGradient621"
           gradientUnits="objectBoundingBox"
           spreadMethod="pad" />
        <linearGradient
           id="linearGradient600">
          <stop
             style="stop-color:#000000;stop-opacity:1;"
             offset="0"
             id="stop601" />
          <stop
             style="stop-color:#ffffff;stop-opacity:1;"
             offset="1"
             id="stop602" />
        </linearGradient>
        <linearGradient
           x1="61.04689"
           y1="28.657213"
           x2="79.628151"
           y2="14.15477"
           id="linearGradient603"
           xlink:href="#linearGradient604"
           gradientUnits="userSpaceOnUse"
           gradientTransform="scale(0.994399,1.005632)"
           spreadMethod="pad" />
      </defs>
    </defs>
    <path
       d="M 48.81122,55.61913 39.40311,47.06217 C 39.31588,46.98283 30.45357,50.30231 26.40083,50.26261 16.98036,50.16918 3.817009,44.17875 2.741079,27.77976 1.890729,14.71088 10.51725,2.547793 26.23738,2.522773 39.15413,2.502398 51.08589,11.9679 49.8154,27.53133 49.2088,35.19649 45.52692,39.62464 46.16072,40.3028 l 10.3121,11.0338 c 1.67569,1.79296 -0.23896,11.03364 -7.6616,4.28253 z"
       style="fill:none;stroke:#000000;stroke-width:4.30358124"
       id="path634" />
    <path
       d="m 47.76238,26.53993 c 0,3.02175 -0.6131,5.90117 -1.72163,8.52057 -0.55426,1.3097 -1.70537,4.57037 -2.60027,5.65485 l 8.3026,11.08066 -0.78685,1.18252 -11.10871,-9.63797 c -1.08448,0.8949 -4.1516,2.82021 -5.4613,3.37447 -2.6194,1.10852 -5.49882,1.72163 -8.52057,1.72163 -12.08699,0 -21.89673,-9.80973 -21.89673,-21.89673 0,-12.08699 9.80974,-21.896733 21.89673,-21.896733 12.087,0 21.89673,9.809743 21.89673,21.896733 z"
       style="fill:none;stroke:#efe16b;stroke-width:3.25"
       id="path620" />
    <path
       d="m 44.24797,38.76775 11.91834,13.30281 c 1.92841,2.74655 -1.1645,6.19535 -4.37187,4.52296 L 38.14389,44.66903 c 0.2607,-2.76584 4.09625,-5.40882 6.10408,-5.90128 z"
       style="fill:#ffc83d;fill-rule:evenodd"
       id="path562" />
    <path
       d="m 43.86792,39.16621 11.89502,13.11666 c 0.83409,2.11662 -0.53462,-1.44297 -2.29362,2.23907 L 41.29443,41.50412 c 0.02179,-0.85513 0.48208,-1.9203 2.57349,-2.33791 z"
       style="fill:#ff933d;fill-rule:evenodd"
       id="path567" />
    <path
       d="m 40.04615,42.27535 12.65327,12.48017 c 0.51713,0.14775 -0.60624,0.40213 -0.41976,1.70134 C 51.83815,55.8353 38.85772,43.95679 38.85772,43.95679 z"
       style="fill:#ffffff;fill-rule:evenodd"
       id="path568" />
    <ellipse
       sodipodi:ry="18.451067"
       sodipodi:rx="18.451067"
       sodipodi:cy="28.953592"
       sodipodi:cx="29.499611"
       cx="29.499611"
       cy="28.953592"
       rx="18.451067"
       ry="18.451067"
       transform="matrix(1.106369,0,0,1.106369,-7.012474,-6.130595)"
       style="fill:#bae6ff;fill-opacity:0.431;fill-rule:evenodd;stroke-width:1"
       id="path611" />
    <path
       d="m 38.94959,11.01917 c 4.25334,3.03534 7.34957,7.69212 8.27822,13.24924 0.92864,5.55712 -0.48527,10.96758 -3.52061,15.22092 -3.03535,4.25335 -7.69213,7.34957 -13.24925,8.27821 -5.55711,0.92865 -9.21286,-0.19281 -15.22092,-3.5206 m 0,0 c 29.2168,-8.79323 22.0325,-15.93489 23.71256,-33.22777"
       style="fill:#437caf;fill-opacity:0.34479998;fill-rule:evenodd;stroke-width:1"
       id="path610" />
    <path
       d="m 44.19708,38.5588 c -2.0449,0.76964 -1.41633,0.65419 -3.29481,1.86762 -0.10454,0.17099 -1.23455,0.05918 -2.70765,4.31979 l 3.13238,2.80668 c 0.84957,-1.12667 2.09479,-3.17528 2.83341,-3.69175 1.07102,-0.79427 1.60107,-1.20024 3.17135,-1.82809 z"
       style="fill:#ff0000;fill-rule:evenodd;stroke-width:1"
       id="path651" />
    <path
       d="m 41.76381,44.43223 -0.98475,1.40744 -1.89339,-1.57431 0.88755,-1.38681 z"
       style="fill:#ffffff;fill-rule:evenodd;stroke-width:1"
       id="path652" />
  </g>
  <g
     id="g3498">
    <path
       sodipodi:nodetypes="ccccccccccc"
       id="path582"
       d="M 21.787482,50.175 C 22.157727,51.749589 35.985812,67.770159 40.742152,66.40452 45.32139,65.64543 62.800178,51.929616 60.910382,49.163403 59.05158,44.370249 53.236124,45.150216 51.25968,43.753564 50.401205,43.326089 50.708662,36.99 51.144104,35.924689 52.484436,33.914643 59.233121,35.338134 61.257111,30.119007 63.146909,27.352794 45.668119,13.592995 41.088881,12.833907 36.332543,11.46827 22.504459,27.48884 22.134214,29.063429 22.31861,32.000668 22.71147,32.818513 28.203746,34.048542 27.957415,37.400914 28.451091,41.113934 28.299485,44.466144 24.350069,45.139623 22.177941,46.685544 21.787482,50.175 z"
       style="font-size:12px;fill:#0d3c07;fill-rule:evenodd;stroke-width:1pt" />
    <path
       sodipodi:nodetypes="ccsscsscssccsc"
       id="path581"
       d="M 26.988458,50.131017 C 27.367959,51.394719 37.19146,62.789925 40.742152,61.874328 44.19472,61.434166 56.340727,52.439085 54.726999,50.175 53.113175,47.910818 47.815661,48.728675 47.041113,47.052247 46.788523,46.505581 46.668263,44.595754 46.578803,42.43409 46.993526,38.40013 46.865615,33.235324 47.330055,32.230165 48.104604,30.553736 53.40212,31.371593 55.015942,29.107412 56.62967,26.843327 44.541451,17.804261 41.088881,17.3641 37.538192,16.448505 27.71469,27.843709 27.33519,29.107412 26.95569,30.371113 28.947166,30.648238 31.462404,31.20046 31.925249,31.302077 33.052354,31.244331 33.229631,32.054237 33.123942,36.975598 32.885215,41.922898 32.940687,46.832336 32.776489,47.853497 31.876816,47.52288 31.345474,47.639538 28.830238,48.191758 26.302554,47.339998 26.988458,50.131017 z"
       style="font-size:12px;fill:#2aaf18;fill-rule:evenodd;stroke-width:1pt" />
    <path
       sodipodi:nodetypes="ccssccccsscc"
       id="path583"
       d="M 40.63822,34.385303 C 40.447193,38.907527 40.221593,43.470583 41.262249,47.931895 41.494611,49.909089 45.618834,49.055363 47.676787,51.494473 49.734739,53.933585 39.231543,62.301643 41.20446,62.050258 43.177412,61.798706 54.584266,53.814644 55.304885,51.09863 55.780022,49.571517 50.561369,47.84771 47.387842,47.711983 46.5376,42.580885 46.726263,36.762403 47.676787,31.570428 50.850312,31.434701 56.126753,29.710895 55.651617,28.18378 54.930999,25.467769 43.524145,17.43972 41.551192,17.18817 39.578272,16.936784 50.081468,25.304845 48.023516,27.743956 45.96557,30.183066 41.783553,29.329336 41.551192,31.306534 40.806591,32.351704 40.802873,32.939647 40.63822,34.385304 z"
       style="font-size:12px;fill:#208c11;fill-rule:evenodd;stroke-width:1pt" />
    <path
       d="m 38.61935,19.650601 c 0,0 -7.322991,5.6271001 -7.8342537,7.0284831 -0.51115806,1.4012905 3.0084032,0.61507062 3.0084032,0.61507062 0,0 3.4934543,-7.1187759 4.8258505,-7.6435537 z"
       style="font-size:12px;fill:#ffffff;fill-rule:evenodd;stroke-width:1pt"
       id="path589" />
    <path
       id="path2255"
       style="font-size:12px;fill:#ffffff;fill-rule:evenodd;stroke-width:1pt"
       d="m 35.02502,32.776726 c 0,0 -0.9383872,14.63012 0.213344,15.255218 1.1516371,0.625002 3.884512,-11.841214 -0.213344,-15.255218 z" />
    <path
       id="path2257"
       style="font-size:12px;fill:#ffffff;fill-rule:evenodd;stroke-width:1pt"
       d="m 38.292432,59.606097 c 0,0 -7.3229931,-5.6271037 -7.8342572,-7.0284831 C 29.947016,51.176322 33.466579,51.962542 33.466579,51.962542 c 0,0 3.4934564,7.1187778 4.8258526,7.6435555 z" />
  </g>
</svg>
