<?xml version="1.0" encoding="UTF-8" standalone="no"?>
<!-- Created with Sodipodi ("http://www.sodipodi.com/") -->
<svg
   xmlns:dc="http://purl.org/dc/elements/1.1/"
   xmlns:cc="http://creativecommons.org/ns#"
   xmlns:rdf="http://www.w3.org/1999/02/22-rdf-syntax-ns#"
   xmlns:svg="http://www.w3.org/2000/svg"
   xmlns="http://www.w3.org/2000/svg"
   xmlns:xlink="http://www.w3.org/1999/xlink"
   xmlns:sodipodi="http://sodipodi.sourceforge.net/DTD/sodipodi-0.dtd"
   xmlns:inkscape="http://www.inkscape.org/namespaces/inkscape"
   id="svg604"
   sodipodi:version="0.32"
   width="72pt"
   height="72pt"
   sodipodi:docbase="/home/tweenk/.icons/GartoonRedux/scalable/apps"
   sodipodi:docname="stock_headphones.svg"
   inkscape:version="0.46+devel"
   inkscape:output_extension="org.inkscape.output.svg.inkscape">
  <metadata
     id="metadata42">
    <rdf:RDF>
      <cc:Work
         rdf:about="">
        <dc:format>image/svg+xml</dc:format>
        <dc:type
           rdf:resource="http://purl.org/dc/dcmitype/StillImage" />
      </cc:Work>
    </rdf:RDF>
  </metadata>
  <defs
     id="defs606">
    <linearGradient
       id="linearGradient3267">
      <stop
         id="stop3269"
         offset="0"
         style="stop-color:#31baff;stop-opacity:1" />
      <stop
         id="stop3271"
         offset="1"
         style="stop-color:#a9e2f5;stop-opacity:1" />
    </linearGradient>
    <linearGradient
       id="linearGradient2515">
      <stop
         id="stop2517"
         offset="0"
         style="stop-color:#31baff;stop-opacity:1" />
      <stop
         id="stop2519"
         offset="1"
         style="stop-color:#a9e2f5;stop-opacity:1" />
    </linearGradient>
    <linearGradient
       id="linearGradient2509">
      <stop
         id="stop2511"
         offset="0"
         style="stop-color:#ffe6ba;stop-opacity:1" />
      <stop
         id="stop2513"
         offset="1"
         style="stop-color:#ffffff;stop-opacity:1" />
    </linearGradient>
    <inkscape:perspective
       sodipodi:type="inkscape:persp3d"
       inkscape:vp_x="0 : 45 : 1"
       inkscape:vp_y="0 : 1000 : 0"
       inkscape:vp_z="90 : 45 : 1"
       inkscape:persp3d-origin="45 : 30 : 1"
       id="perspective2507" />
    <linearGradient
       id="linearGradient7122">
      <stop
         style="stop-color:#31baff;stop-opacity:1"
         offset="0"
         id="stop7124" />
      <stop
         style="stop-color:#a9e2f5;stop-opacity:1"
         offset="1"
         id="stop7126" />
    </linearGradient>
    <linearGradient
       id="linearGradient612">
      <stop
         style="stop-color:#7fa8e3;stop-opacity:0.741176;"
         offset="0.000000"
         id="stop613" />
      <stop
         style="stop-color:#ffffff;stop-opacity:0;"
         offset="1.000000"
         id="stop614" />
    </linearGradient>
    <linearGradient
       xlink:href="#linearGradient612"
       id="linearGradient615"
       x1="50.6438866"
       y1="5.36792946"
       x2="35.7520943"
       y2="68.0443573"
       gradientUnits="userSpaceOnUse"
       spreadMethod="pad" />
    <linearGradient
       inkscape:collect="always"
       xlink:href="#linearGradient2515"
       id="linearGradient7136"
       x1="43.683075"
       y1="34.036373"
       x2="52.460426"
       y2="7.9430065"
       gradientUnits="userSpaceOnUse"
       gradientTransform="matrix(-0.9998005,-1.9977742e-2,-1.9977742e-2,0.9998005,90.64226,1.3914036)" />
    <linearGradient
       inkscape:collect="always"
       xlink:href="#linearGradient3267"
       id="linearGradient2540"
       gradientUnits="userSpaceOnUse"
       gradientTransform="matrix(0.9589172,-0.2836863,0.2836863,0.9589172,-13.09196,16.77072)"
       x1="16.905485"
       y1="66.780464"
       x2="27.480824"
       y2="29.409452" />
    <linearGradient
       inkscape:collect="always"
       xlink:href="#linearGradient7122"
       id="linearGradient2542"
       gradientUnits="userSpaceOnUse"
       gradientTransform="matrix(-0.9998005,-1.9977742e-2,-1.9977742e-2,0.9998005,90.64226,1.3914036)"
       x1="16.905485"
       y1="66.780464"
       x2="27.480824"
       y2="29.409452" />
  </defs>
  <sodipodi:namedview
     id="base"
     inkscape:zoom="1.5988471"
     inkscape:cx="95.627736"
     inkscape:cy="23.36826"
     inkscape:window-width="795"
     inkscape:window-height="724"
     inkscape:window-x="114"
     inkscape:window-y="9"
     inkscape:current-layer="svg604"
     width="300px"
     height="200px"
     showgrid="false"
     showguides="true"
     inkscape:guide-bbox="true" />
  <path
     style="fill:#000000;fill-opacity:0.34117647;fill-rule:evenodd;stroke:none;stroke-width:1px;stroke-linecap:butt;stroke-linejoin:miter;stroke-opacity:1"
     d="M 76.420306,82.626054 C 63.786331,86.428529 59.971732,84.490636 49.403066,82.747759 C 44.954586,86.089393 32.755611,90.020458 25.769337,89.646843 C 17.563198,89.207991 11.102422,88.663436 3.8318895,79.255648 C 0.94337449,75.518021 2.0596115,71.070847 8.0486845,65.748236 C 29.767081,60.283623 51.49249,59.699599 73.339543,63.582216 C 89.77995,65.962277 89.519352,78.683604 76.420306,82.626054 z"
     id="path7119"
     sodipodi:nodetypes="ccssccs" />
  <path
     sodipodi:type="inkscape:offset"
     inkscape:radius="4.2014742"
     inkscape:original="M 48.28125 3.40625 C 47.657359 3.4029131 47.017688 3.4193896 46.40625 3.46875 C 34.912181 4.3966498 24.376207 12.791845 22.59375 25.90625 C 22.156259 26.497146 28.623792 28.269635 30.28125 26.625 C 30.262616 17.786505 41.835565 9.1700892 47.5625 8.1875 C 57.720857 12.786688 60.661277 20.685222 62.9375 31.3125 C 65.655776 39.228476 64.288355 55.322275 67.75 55.0625 C 73.350136 54.642243 72.231722 36.467856 71.53125 31.9375 C 68.103605 9.7690916 57.639618 3.4563032 48.28125 3.40625 z M 20.4375 27.3125 C 2.2669193 30.42677 -2.4953303 72.541557 21.34375 76.8125 C 29.712514 77.210148 37.213431 71.17691 38.875 61.09375 C 39.756634 55.743596 43.680882 35.968185 32.15625 28 C 26.881273 28.669575 26.218285 29.55519 20.4375 27.3125 z M 61.46875 30.9375 C 49.186713 37.679954 51.078748 57.712589 51.40625 63.125 C 52.023477 73.325488 58.853399 80.129812 67.21875 80.59375 C 91.370407 78.793701 90.973404 36.401447 73.21875 31.4375 C 73.185297 38.37428 74.169036 41.582415 73.28125 47.3125 C 72.304159 53.618972 68.676051 60.747016 64.625 54.28125 C 62.55273 50.973759 64.069729 40.638755 61.46875 30.9375 z "
     style="fill:#283d53;fill-opacity:1;fill-rule:evenodd;stroke:none;stroke-width:1px;stroke-linecap:butt;stroke-linejoin:miter;stroke-opacity:1"
     id="path2536"
     d="M 48.3125,-0.78125 C 47.599281,-0.78506467 46.833457,-0.78098814 46.0625,-0.71875 C 33.335074,0.30871696 21.677887,9.4765942 18.875,23.4375 C 13.24188,24.721374 8.8434403,28.703385 5.9375,33.625 C 2.8800828,38.803162 1.2054889,45.070346 0.9375,51.4375 C 0.66951111,57.804654 1.8112013,64.299457 4.9375,69.78125 C 8.0637987,75.263043 13.430262,79.654109 20.59375,80.9375 C 20.779632,80.970951 20.967558,80.991832 21.15625,81 C 31.656375,81.498921 41.083564,73.6007 43.03125,61.78125 C 43.44449,59.273522 44.758523,52.568377 44.375,45.3125 C 43.996745,38.156293 41.857197,29.808671 34.8125,24.75 C 35.485718,22.460114 37.244809,19.792235 39.65625,17.53125 C 42.282895,15.068488 45.369931,13.493738 47.15625,12.84375 C 50.605199,14.68188 52.929248,16.805586 54.59375,19.625 C 55.967512,21.951945 56.931392,24.970674 57.8125,28.3125 C 51.283542,32.773717 48.599748,40.245606 47.5625,46.875 C 46.440823,54.044006 47.065586,60.843753 47.21875,63.375 C 47.942036,75.328245 56.493064,84.198541 67,84.78125 C 67.176906,84.792456 67.354344,84.792456 67.53125,84.78125 C 74.788952,84.240326 80.576004,80.444887 84.25,75.3125 C 87.923996,70.180113 89.735616,63.830967 90.125,57.46875 C 90.514384,51.106533 89.507869,44.684826 87,39.21875 C 84.578247,33.940371 80.516357,29.455482 74.90625,27.65625 C 72.929004,18.02584 69.596902,11.058247 65.15625,6.46875 C 60.152943,1.2977379 53.927985,-0.7512156 48.3125,-0.78125 z"
     transform="matrix(-0.9966081,8.2293941e-2,8.2293941e-2,0.9966081,85.865935,-2.9378452)" />
  <path
     style="fill:url(#linearGradient7136);fill-opacity:1;fill-rule:evenodd;stroke:none;stroke-width:1px;stroke-linecap:butt;stroke-linejoin:miter;stroke-opacity:1"
     d="M 25.713411,33.441918 C 27.107354,22.663367 29.40527,14.560442 39.150685,9.1408836 C 44.939055,9.6488476 57.182098,17.271482 57.890882,26.081531 C 59.678061,27.584189 65.961295,25.308051 65.476661,24.755162 C 62.621014,11.831925 51.424557,4.3329344 39.893114,4.3540742 C 30.078302,4.3720676 18.89047,10.905557 17.192663,34.772533 C 21.414325,38.346415 23.119028,35.154216 25.713411,33.441918 z"
     id="path3180"
     sodipodi:nodetypes="ccccscc" />
  <path
     style="fill:url(#linearGradient2542);fill-opacity:1;fill-rule:evenodd;stroke:none;stroke-width:1.08528066px;stroke-linecap:butt;stroke-linejoin:miter;stroke-opacity:1"
     d="M 67.746043,25.956211 C 86.111276,27.564588 94.31564,69.157084 70.908892,75.375353 C 62.601239,76.460352 54.626066,71.052056 52.14035,61.139835 C 50.821421,55.88038 45.290346,36.518484 56.120154,27.628919 C 61.43234,27.862124 62.169426,28.667018 67.746043,25.956211 z"
     id="path4160"
     sodipodi:nodetypes="ccscc" />
  <path
     style="fill:#002f77;fill-opacity:1;fill-rule:evenodd;stroke:none;stroke-width:1px;stroke-linecap:butt;stroke-linejoin:miter;stroke-opacity:1"
     d="M 61.979705,33.420719 C 70.627152,35.718617 73.377853,47.81606 73.633221,56.310603 C 74.099152,71.809405 62.278184,73.706334 56.449207,62.917775 C 51.990672,54.665695 48.82188,29.924271 61.979705,33.420719 z"
     id="path6102"
     sodipodi:nodetypes="csss" />
  <path
     sodipodi:nodetypes="ccscc"
     id="path2521"
     d="M 15.485708,34.405429 C -1.8002208,40.813639 1.2876222,83.09499 25.505492,82.901398 C 33.804289,81.750617 40.065145,74.425678 39.84084,64.208995 C 39.721824,58.787992 39.935261,38.652693 27.140021,32.943846 C 25.274028,36.502743 20.348553,41.065687 15.485708,34.405429 z"
     style="fill:url(#linearGradient2540);fill-opacity:1;fill-rule:evenodd;stroke:none;stroke-width:1.08528066px;stroke-linecap:butt;stroke-linejoin:miter;stroke-opacity:1" />
  <path
     sodipodi:type="inkscape:offset"
     inkscape:radius="-0.5194065"
     inkscape:original="M 75.84375 40.46875 C 75.149597 41.212485 74.374904 41.811813 73.5625 42.28125 C 78.926521 45.944215 79.515232 50.930353 79.40625 56.71875 C 79.21213 67.029112 72.73267 72.295404 69.21875 72.53125 C 67.789713 72.627163 56.743062 68.632848 67.15625 43 C 66.460608 42.729235 65.797906 42.315856 65.21875 41.78125 C 59.381937 48.594574 55.053599 70.30588 65.90625 75.84375 C 68.780941 76.949403 80.262208 74.738943 82.03125 61.25 C 83.800294 47.761058 80.708615 42.680052 75.84375 40.46875 z "
     style="opacity:1;fill:#283d53;fill-opacity:1;fill-rule:evenodd;stroke:none;stroke-width:1.50000000000000000;stroke-linecap:butt;stroke-linejoin:miter;marker:none;marker-start:none;marker-mid:none;marker-end:none;stroke-miterlimit:4;stroke-dasharray:none;stroke-dashoffset:0;stroke-opacity:1;visibility:visible;display:inline;overflow:visible;enable-background:accumulate"
     id="path3324"
     d="M 75.875,41.09375 C 75.404843,41.554501 74.894781,41.933308 74.375,42.28125 C 76.78587,44.085331 78.255839,46.189796 79.03125,48.53125 C 79.866504,51.053407 79.992375,53.804146 79.9375,56.71875 C 79.838424,61.981015 78.122874,65.994419 75.96875,68.71875 C 73.814626,71.443081 71.24341,72.928707 69.25,73.0625 C 68.928894,73.084052 68.589064,73.010204 68.125,72.84375 C 67.660936,72.677296 67.107386,72.408542 66.53125,72 C 65.378978,71.182916 64.105051,69.780472 63.25,67.59375 C 61.557699,63.265832 61.461238,55.827995 66.53125,43.1875 C 66.132201,42.993857 65.767321,42.745212 65.40625,42.46875 C 62.713769,45.829771 60.248577,52.632263 59.8125,59.3125 C 59.588291,62.747141 59.878085,66.139635 60.875,68.96875 C 61.863766,71.774738 63.551096,74.023466 66.09375,75.34375 C 66.100344,75.346286 66.118225,75.341248 66.125,75.34375 C 66.690003,75.552376 67.884556,75.654783 69.3125,75.40625 C 70.757568,75.154736 72.459287,74.576436 74.125,73.5625 C 77.456426,71.534628 80.665092,67.791954 81.53125,61.1875 C 82.409606,54.490047 82.054613,49.926036 80.9375,46.8125 C 79.863608,43.819426 78.082579,42.161426 75.875,41.09375 z"
     transform="matrix(-1,0,0,1,89.82016,0)" />
</svg>
