<?xml version="1.0" encoding="UTF-8" standalone="no"?>
<!-- Created with Inkscape (http://www.inkscape.org/) -->
<svg
   xmlns:dc="http://purl.org/dc/elements/1.1/"
   xmlns:cc="http://creativecommons.org/ns#"
   xmlns:rdf="http://www.w3.org/1999/02/22-rdf-syntax-ns#"
   xmlns:svg="http://www.w3.org/2000/svg"
   xmlns="http://www.w3.org/2000/svg"
   xmlns:xlink="http://www.w3.org/1999/xlink"
   xmlns:sodipodi="http://sodipodi.sourceforge.net/DTD/sodipodi-0.dtd"
   xmlns:inkscape="http://www.inkscape.org/namespaces/inkscape"
   width="90"
   height="90"
   id="svg2"
   sodipodi:version="0.32"
   inkscape:version="0.46+devel"
   version="1.0"
   sodipodi:docname="align-horizon.svg"
   inkscape:output_extension="org.inkscape.output.svg.inkscape">
  <defs
     id="defs4">
    <linearGradient
       inkscape:collect="always"
       id="linearGradient4698">
      <stop
         style="stop-color:#2aaf18;stop-opacity:1;"
         offset="0"
         id="stop4700" />
      <stop
         style="stop-color:#34674b;stop-opacity:1"
         offset="1"
         id="stop4702" />
    </linearGradient>
    <linearGradient
       inkscape:collect="always"
       id="linearGradient4653">
      <stop
         style="stop-color:#ed0000;stop-opacity:1"
         offset="0"
         id="stop4655" />
      <stop
         style="stop-color:#558ada;stop-opacity:1"
         offset="1"
         id="stop4657" />
    </linearGradient>
    <linearGradient
       inkscape:collect="always"
       xlink:href="#linearGradient4653"
       id="linearGradient4675"
       gradientUnits="userSpaceOnUse"
       x1="31.607145"
       y1="39.642857"
       x2="31.785715"
       y2="9.6428576" />
    <linearGradient
       inkscape:collect="always"
       xlink:href="#linearGradient4698"
       id="linearGradient4704"
       x1="23.965548"
       y1="42.491718"
       x2="24.00971"
       y2="60.074455"
       gradientUnits="userSpaceOnUse" />
    <linearGradient
       inkscape:collect="always"
       xlink:href="#linearGradient4698"
       id="linearGradient4731"
       gradientUnits="userSpaceOnUse"
       x1="23.965548"
       y1="42.491718"
       x2="24.00971"
       y2="60.074455"
       gradientTransform="matrix(0.8596355,-0.1950217,0.1950217,0.8596355,-0.8662735,12.647971)" />
    <linearGradient
       inkscape:collect="always"
       xlink:href="#linearGradient4653"
       id="linearGradient4735"
       gradientUnits="userSpaceOnUse"
       x1="31.607145"
       y1="39.642857"
       x2="31.785715"
       y2="9.6428576"
       gradientTransform="matrix(0.8814798,0,0,0.8814798,-3.6430877,12.142879)" />
    <linearGradient
       inkscape:collect="always"
       xlink:href="#linearGradient4653"
       id="linearGradient4752"
       gradientUnits="userSpaceOnUse"
       gradientTransform="matrix(0.8814798,0,0,0.8814798,-3.6430877,12.142879)"
       x1="31.607145"
       y1="39.642857"
       x2="31.785715"
       y2="9.6428576" />
    <linearGradient
       inkscape:collect="always"
       xlink:href="#linearGradient4698"
       id="linearGradient4754"
       gradientUnits="userSpaceOnUse"
       gradientTransform="matrix(0.8596355,-0.1950217,0.1950217,0.8596355,-0.8662735,12.647971)"
       x1="23.965548"
       y1="42.491718"
       x2="24.00971"
       y2="60.074455" />
  </defs>
  <sodipodi:namedview
     id="base"
     pagecolor="#ffffff"
     bordercolor="#666666"
     borderopacity="1.0"
     gridtolerance="10000"
     guidetolerance="10"
     objecttolerance="10"
     inkscape:pageopacity="0.0"
     inkscape:pageshadow="2"
     inkscape:zoom="3.959798"
     inkscape:cx="31.638783"
     inkscape:cy="77.954114"
     inkscape:document-units="px"
     inkscape:current-layer="layer1"
     showgrid="false"
     inkscape:window-width="1023"
     inkscape:window-height="736"
     inkscape:window-x="0"
     inkscape:window-y="1" />
  <metadata
     id="metadata7">
    <rdf:RDF>
      <cc:Work
         rdf:about="">
        <dc:format>image/svg+xml</dc:format>
        <dc:type
           rdf:resource="http://purl.org/dc/dcmitype/StillImage" />
      </cc:Work>
    </rdf:RDF>
  </metadata>
  <g
     inkscape:label="Layer 1"
     inkscape:groupmode="layer"
     id="layer1">
    <g
       id="g4745"
       transform="translate(3.0304576,-0.7576144)">
      <path
         id="path4743"
         d="m -1.2871657,25.468675 0.29729587,1.31045 10.48141143,46.200981 0.290382,1.279974 1.2799744,-0.290382 66.162487,-15.009989 1.279974,-0.290382 -0.290382,-1.279974 -10.48141,-46.200981 -0.297296,-1.31045 -1.279975,0.290382 -66.1624873282,15.009988 z"
         style="color:#000000;fill:#000000;fill-opacity:0.29411765;stroke:none;stroke-width:2.64443946;marker:none;visibility:visible;display:inline;overflow:visible;enable-background:accumulate" />
      <rect
         transform="matrix(0.9752186,-0.2212435,0.2212435,0.9752186,0,0)"
         style="color:#000000;fill:url(#linearGradient4752);fill-opacity:1;fill-rule:evenodd;stroke:none;stroke-width:3;marker:none;marker-start:none;marker-mid:none;marker-end:none;visibility:visible;display:inline;overflow:visible;enable-background:accumulate"
         id="rect4651"
         width="67.842468"
         height="47.379539"
         x="-1.281981"
         y="20.642864" />
      <path
         transform="matrix(0.9573831,-0.2171973,0.2171973,0.9573831,-10.54199,9.3196583)"
         d="m 46.785714,41.160713 a 7.4107141,7.4107141 0 1 1 -14.821428,0 7.4107141,7.4107141 0 1 1 14.821428,0 z"
         sodipodi:ry="7.4107141"
         sodipodi:rx="7.4107141"
         sodipodi:cy="41.160713"
         sodipodi:cx="39.375"
         id="path4649"
         style="color:#000000;fill:#ffc93f;fill-opacity:1;stroke:none;stroke-width:3;marker:none;marker-start:none;marker-mid:none;marker-end:none;visibility:visible;display:inline;overflow:visible;enable-background:accumulate"
         sodipodi:type="arc" />
      <path
         sodipodi:nodetypes="csssscccc"
         id="path4647"
         d="m 10.693437,51.50707 c 4.111221,-4.645056 9.100865,-7.552511 11.096447,-8.00524 1.995582,-0.452729 9.593459,-0.400948 11.282028,-0.784027 1.68857,-0.383078 12.636551,-3.351019 15.399665,-3.977874 2.763114,-0.626856 16.912732,-1.577219 19.829353,-2.2389 2.91662,-0.66168 5.317276,-2.174749 6.698834,-2.488177 2.084478,4.207907 4.395778,17.241741 4.395778,17.241741 l -65.289225,15.296098 z"
         style="color:#000000;fill:url(#linearGradient4754);fill-opacity:1;stroke:#000000;stroke-width:0.8814798;stroke-linecap:round;stroke-linejoin:round;stroke-miterlimit:20;stroke-opacity:1;stroke-dasharray:none;stroke-dashoffset:0;marker:none;marker-start:none;marker-mid:none;marker-end:none;visibility:visible;display:inline;overflow:visible;enable-background:accumulate" />
      <rect
         transform="matrix(0.9752186,-0.2212435,0.2212435,0.9752186,0,0)"
         y="20.642864"
         x="-1.281981"
         height="47.379539"
         width="67.842468"
         id="rect4136"
         style="color:#000000;fill:none;stroke:#000000;stroke-width:2.64443946;stroke-opacity:1;marker:none;marker-start:none;marker-mid:none;marker-end:none;visibility:visible;display:inline;overflow:visible;enable-background:accumulate" />
    </g>
    <g
       transform="matrix(1.2712129,-0.9254256,0.9254256,1.2712129,25.679179,43.702735)"
       id="g572">
      <g
         id="g584"
         style="font-size:12px"
         transform="matrix(1.008714,0,0,1.008714,-45.46822,-0.252175)">
        <path
           id="path582"
           style="fill:#0d3c07;fill-rule:evenodd;stroke-width:1pt"
           transform="matrix(1.369638,0,0,1.207417,-21.85404,-4.997635)"
           d="m 51.9665,36.0486 c 1.9937,0.9968 13.5059,-1.2773 13.7907,-3.4133 1.1166,-3.5514 -1.9125,-4.8576 -1.6932,-6.3995 0.4272,-1.4241 5.3257,-6.9264 4.7718,-8.6553 -1.5935,-3.1443 -5.8656,-7.0137 -8.8764,-5.1424 -2.5949,2.3432 -4.3287,8.277 -5.8952,7.7074 -1.5665,-0.5696 -2.9521,-0.0821 -3.3793,0.9147 -0.4272,0.9968 -0.9968,14.2763 1.2816,14.9884 z" />
        <path
           id="path581"
           style="fill:#2aaf18;fill-rule:evenodd;stroke-width:1pt"
           d="m 51.5506,35.4589 c 1.9937,0.9968 12.6741,-0.5697 12.9589,-2.7057 0.2848,-2.1361 -2.8481,-3.5602 -2.4209,-4.9842 0.4272,-1.4241 7.4051,-10.1108 6.1234,-11.25 -1.2816,-1.1393 -5.5538,-5.1266 -6.693,-3.845 -1.1393,1.2817 -6.4082,11.1076 -7.9747,10.538 -1.5665,-0.5696 -2.8481,-1.8512 -3.2753,-0.8544 -0.4272,0.9968 -0.9968,12.3892 1.2816,13.1013 z" />
        <path
           id="path583"
           style="fill:#208c11;fill-rule:evenodd;stroke-width:1pt"
           d="m 67.6424,15.9494 c 0,0 1.4241,0.8544 0.4272,2.5633 -0.9968,1.7088 -6.5506,9.2563 -6.1234,9.8259 1.5664,1.2816 3.4177,4.4145 2.4209,5.269 -1.7088,1.5664 -11.5348,2.7057 -12.6741,2.1361 -1.1392,-0.5697 8.4019,-2.2785 8.5443,-4.6994 0.1424,-2.4209 -2.4208,-3.4177 -1.5664,-4.8418 0.8544,-1.424 6.693,-11.25 7.5475,-10.9652 0.8544,0.2848 1.5664,1.2817 1.424,0.7121 z" />
      </g>
      <path
         id="path588"
         style="font-size:12px;fill:#ffffff;fill-rule:evenodd;stroke-width:1pt"
         transform="matrix(1.008714,0,0,1.008714,0.929487,8.797523)"
         d="m 16.9462,4.6519 c 0,0 -7.68987,9.5411 -7.40506,10.3956 0.28481,0.8544 7.83226,-6.55067 7.40506,-10.3956 z" />
      <path
         id="path589"
         style="font-size:12px;fill:#ffffff;fill-rule:evenodd;stroke-width:1pt"
         transform="matrix(1.008714,0,0,1.008714,0.929487,8.797523)"
         d="m 5.41139,24.019 c 0,0 -0.99683,-6.5506 -0.56962,-7.6899 0.42722,-1.1392 1.85127,0.712 1.85127,0.712 0,0 -1.70886,6.1235 -1.28165,6.9779 z" />
    </g>
  </g>
</svg>
