<?xml version="1.0" encoding="UTF-8" standalone="no"?>
<!-- Created with Sodipodi ("http://www.sodipodi.com/") -->
<svg
   xmlns:dc="http://purl.org/dc/elements/1.1/"
   xmlns:cc="http://creativecommons.org/ns#"
   xmlns:rdf="http://www.w3.org/1999/02/22-rdf-syntax-ns#"
   xmlns:svg="http://www.w3.org/2000/svg"
   xmlns="http://www.w3.org/2000/svg"
   xmlns:xlink="http://www.w3.org/1999/xlink"
   xmlns:sodipodi="http://sodipodi.sourceforge.net/DTD/sodipodi-0.dtd"
   xmlns:inkscape="http://www.inkscape.org/namespaces/inkscape"
   id="svg548"
   sodipodi:version="0.32"
   width="72pt"
   height="72pt"
   sodipodi:docbase="/home/tweenk/dev/GartoonRedux/scalable/actions"
   sodipodi:docname="archive-remove.svg"
   inkscape:version="0.46+devel"
   inkscape:output_extension="org.inkscape.output.svg.inkscape">
  <metadata
     id="metadata27">
    <rdf:RDF>
      <cc:Work
         rdf:about="">
        <dc:format>image/svg+xml</dc:format>
        <dc:type
           rdf:resource="http://purl.org/dc/dcmitype/StillImage" />
      </cc:Work>
      <cc:Work
         rdf:about="">
        <dc:format>image/svg+xml</dc:format>
        <dc:type
           rdf:resource="http://purl.org/dc/dcmitype/StillImage" />
      </cc:Work>
    </rdf:RDF>
  </metadata>
  <defs
     id="defs550">
    <inkscape:perspective
       sodipodi:type="inkscape:persp3d"
       inkscape:vp_x="0 : 45 : 1"
       inkscape:vp_y="0 : 1000 : 0"
       inkscape:vp_z="90 : 45 : 1"
       inkscape:persp3d-origin="45 : 30 : 1"
       id="perspective40" />
    <linearGradient
       id="linearGradient612">
      <stop
         style="stop-color:#7fa8e3;stop-opacity:0.741176;"
         offset="0.000000"
         id="stop613" />
      <stop
         style="stop-color:#ffffff;stop-opacity:0;"
         offset="1.000000"
         id="stop614" />
    </linearGradient>
    <linearGradient
       inkscape:collect="always"
       xlink:href="#linearGradient612"
       id="linearGradient2449"
       gradientUnits="userSpaceOnUse"
       gradientTransform="matrix(0.4888523,0,0,0.4888523,0.5931344,42.011121)"
       spreadMethod="pad"
       x1="50.6438866"
       y1="5.36792946"
       x2="35.7520943"
       y2="68.0443573" />
    <linearGradient
       id="linearGradient569">
      <stop
         style="stop-color:#c57700;stop-opacity:1;"
         offset="0.000000"
         id="stop570" />
      <stop
         style="stop-color:#ffa75f;stop-opacity:0;"
         offset="1.000000"
         id="stop571" />
    </linearGradient>
    <linearGradient
       id="linearGradient559">
      <stop
         style="stop-color:#945700;stop-opacity:1;"
         offset="0.000000"
         id="stop560" />
      <stop
         style="stop-color:#ffa75f;stop-opacity:0;"
         offset="1.000000"
         id="stop561" />
    </linearGradient>
    <linearGradient
       xlink:href="#linearGradient559"
       id="linearGradient562"
       x1="40.9153252"
       y1="31.7318363"
       x2="42.7533417"
       y2="35.4855690"
       gradientUnits="userSpaceOnUse"
       spreadMethod="pad"
       gradientTransform="matrix(1.2287685,0,0,0.7275398,1.2783439,1.8739714)" />
    <linearGradient
       xlink:href="#linearGradient559"
       id="linearGradient566"
       x1="59.0300407"
       y1="48.8431816"
       x2="58.3435440"
       y2="23.6183739"
       gradientUnits="userSpaceOnUse"
       spreadMethod="pad"
       gradientTransform="matrix(0.5734264,0,0,1.5590094,1.5631579,2.1587764)" />
    <linearGradient
       xlink:href="#linearGradient569"
       id="linearGradient568"
       x1="92.7804184"
       y1="64.9443817"
       x2="90.8925323"
       y2="42.8786545"
       gradientUnits="userSpaceOnUse"
       spreadMethod="pad"
       gradientTransform="matrix(0.7296653,0,0,1.2251888,1.2783439,1.8739714)" />
    <inkscape:perspective
       id="perspective2517"
       inkscape:persp3d-origin="45 : 30 : 1"
       inkscape:vp_z="90 : 45 : 1"
       inkscape:vp_y="0 : 1000 : 0"
       inkscape:vp_x="0 : 45 : 1"
       sodipodi:type="inkscape:persp3d" />
  </defs>
  <sodipodi:namedview
     id="base"
     showgrid="false"
     inkscape:zoom="3.9205143"
     inkscape:cx="41.041049"
     inkscape:cy="19.193802"
     inkscape:window-width="795"
     inkscape:window-height="724"
     inkscape:window-x="0"
     inkscape:window-y="1"
     inkscape:current-layer="svg548" />
  <path
     style="fill:#000000;fill-opacity:0.3;fill-rule:evenodd;stroke:none;stroke-width:1pt;stroke-linecap:butt;stroke-linejoin:miter;stroke-opacity:1"
     d="M 49.544046,86.944379 C 48.685054,86.568459 14.496989,81.723193 14.496989,81.723193 L 11.4046,83.117462 L 10.545602,79.619442 L 13.122589,76.584302 L 10.545602,75.664742 L 25.148542,64.779378 L 26.52291,65.755471 L 26.866523,63.449718 L 30.989709,63.047793 L 75.657528,72.39582 L 49.544046,86.944379 z "
     id="path594" />
  <path
     style="fill:#593a28;fill-opacity:1;fill-rule:evenodd;stroke:none;stroke-width:1pt;stroke-linecap:butt;stroke-linejoin:miter;stroke-opacity:1"
     d="M 25.090956,33.243336 C 28.391333,48.138049 27.704424,71.577094 22.175778,83.054094 L 49.100423,87.362945 L 82.317775,75.358259 C 80.608966,59.003214 79.184848,40.369694 82.602561,24.584221 L 88.460053,11.201955 L 82.556042,11.989068 L 83.343269,8.0531426 C 75.8458,2.8625904 66.354642,1.9442 56.578698,5.2979534 L 55.988325,9.6275486 L 50.281168,4.7075618 C 37.793235,5.2465936 26.44454,8.6337294 16.235083,18.286692 L 25.090956,33.243336 z "
     id="path564"
     sodipodi:nodetypes="ccccccccccccc" />
  <path
     style="fill:url(#linearGradient562);fill-opacity:1;fill-rule:evenodd;stroke:none;stroke-width:1pt;stroke-linecap:butt;stroke-linejoin:miter;stroke-opacity:1"
     d="M 57.956392,19.270583 C 57.562778,19.270583 29.420514,29.307392 29.420514,29.307392 C 29.420514,29.307392 31.978953,48.003221 37.489256,48.396834 C 42.999653,48.790447 76.84898,22.025876 76.84898,22.025876"
     id="path558"
     sodipodi:nodetypes="cccc" />
  <path
     style="fill:#e9a93d;fill-opacity:1;fill-rule:evenodd;stroke:none;stroke-width:1pt;stroke-linecap:butt;stroke-linejoin:miter;stroke-opacity:1"
     d="M 29.223754,31.472123 L 47.32921,33.046576 C 45.313112,50.497649 45.005823,67.09427 48.116342,82.836533 C 48.116342,82.836533 29.617368,81.065415 29.617368,79.884575 C 29.617368,78.70383 34.635157,52.087231 29.223754,31.472123 z "
     id="path552"
     sodipodi:nodetypes="ccccc" />
  <path
     style="fill:#ffe6ba;fill-opacity:1;fill-rule:evenodd;stroke:none;stroke-width:1pt;stroke-linecap:butt;stroke-linejoin:miter;stroke-opacity:1"
     d="M 77.812259,23.885021 L 46.935597,33.44019 L 47.722824,83.033387 C 47.722824,83.033387 77.242593,72.012687 77.242593,70.831847 C 77.242593,69.651102 73.255214,35.955892 77.812259,23.885021 z "
     id="path553"
     sodipodi:nodetypes="ccccc" />
  <path
     style="fill:#e3c084;fill-opacity:1;fill-rule:evenodd;stroke:none;stroke-width:1pt;stroke-linecap:butt;stroke-linejoin:miter;stroke-opacity:1"
     d="M 58.743524,19.270678 L 51.265154,9.8243269 C 42.08119,11.08821 32.042869,12.352141 23.713357,20.451423 L 28.830141,29.897764 L 58.743524,19.270678 z "
     id="path556"
     sodipodi:nodetypes="ccccc" />
  <path
     style="fill:#e3b463;fill-opacity:1;fill-rule:evenodd;stroke:none;stroke-width:1pt;stroke-linecap:butt;stroke-linejoin:miter;stroke-opacity:1"
     d="M 57.956297,19.467532 L 78.029725,23.206622 L 79.604179,12.973148 C 72.497014,10.608282 65.959516,9.3826536 59.137137,11.005129 L 57.956297,19.467532 z "
     id="path557"
     sodipodi:nodetypes="ccccc" />
  <path
     style="fill:#c89134;fill-opacity:1;fill-rule:evenodd;stroke:none;stroke-width:1pt;stroke-linecap:butt;stroke-linejoin:miter;stroke-opacity:1"
     d="M 47.32921,33.046576 C 46.14837,30.422614 44.967625,27.798556 43.786785,25.174594 C 37.249287,22.217719 30.142122,20.400082 23.319744,23.993848 C 25.156574,26.486575 26.99331,28.979396 28.830141,31.472123 C 34.996529,31.996972 41.162822,32.521727 47.32921,33.046576 z "
     id="path554"
     sodipodi:nodetypes="ccccc" />
  <path
     style="fill:#e3c084;fill-opacity:1;fill-rule:evenodd;stroke:none;stroke-width:1pt;stroke-linecap:butt;stroke-linejoin:miter;stroke-opacity:1"
     d="M 46.935597,34.227322 L 51.658768,24.78098 C 61.7611,18.915263 72.148218,16.182567 81.965669,15.728252 C 80.456929,18.483451 78.948093,21.23865 77.439353,23.993848 L 46.935597,34.227322 z "
     id="path555"
     sodipodi:nodetypes="ccccc" />
  <path
     style="fill:url(#linearGradient566);fill-opacity:1;fill-rule:evenodd;stroke:none;stroke-width:1pt;stroke-linecap:butt;stroke-linejoin:miter;stroke-opacity:1"
     d="M 29.508568,31.756928 C 35.54372,32.281777 41.578872,32.806532 47.614024,33.331381 C 44.173903,51.06724 45.575518,66.823205 48.401156,82.850254 C 48.401156,82.850254 29.540736,81.079136 29.540736,79.898296 C 34.075928,49.125869 30.412183,37.572228 29.508568,31.756928 z "
     id="path565"
     sodipodi:nodetypes="ccccc" />
  <path
     style="fill:url(#linearGradient568);fill-opacity:1;fill-rule:evenodd;stroke:none;stroke-width:1pt;stroke-linecap:butt;stroke-linejoin:miter;stroke-opacity:1"
     d="M 67.843905,32.144566 L 46.935597,33.44019 L 47.722824,83.033387 C 47.722824,83.033387 77.242593,72.012687 77.242593,70.831847 C 76.158256,53.386042 67.843905,32.538179 67.843905,32.144566 z "
     id="path567"
     sodipodi:nodetypes="ccccc" />
  <path
     style="font-size:12px;fill:#ffffff;fill-opacity:0.70434804;fill-rule:evenodd;stroke-width:1pt"
     d="M 31.429375,70.804052 L 31.429375,77.880852 L 43.709675,79.754152 L 43.709675,72.677352 L 31.429375,70.804052 z "
     id="path573"
     sodipodi:nodetypes="ccccc" />
  <use
     x="0"
     y="0"
     xlink:href="#g2408"
     id="use2417"
     transform="translate(-16.949856,-7.5281312)"
     width="90"
     height="90" />
  <use
     x="0"
     y="0"
     xlink:href="#g2408"
     id="use2415"
     transform="translate(-8.4749279,-3.7640669)"
     width="90"
     height="90" />
  <g
     id="g2408"
     transform="matrix(0.9916167,-3.4814919e-2,3.4814919e-2,0.9916167,14.416336,-1.2217904)">
    <path
       sodipodi:nodetypes="ccccccccc"
       id="path609"
       d="M 10.460539,85.589046 C 8.6907565,85.563113 5.7237385,84.481583 5.464676,81.579286 C 4.5511014,78.646933 1.375233,50.931212 2.9077263,49.000743 C 3.699583,47.480906 5.4239074,46.36521 8.4917925,45.978437 C 11.002052,45.593781 33.83566,42.587634 35.519367,43.054223 C 37.203121,43.520843 38.529456,43.91541 38.650579,46.25551 C 38.526048,47.528164 42.76712,73.486453 43.417758,75.017193 C 43.728208,76.810169 43.218589,79.315748 40.622279,80.14111 C 38.026016,80.966461 12.510073,85.238739 10.460539,85.589046 z "
       style="fill:#3d4e67;fill-opacity:1;fill-rule:evenodd;stroke:none;stroke-width:1pt;stroke-linecap:butt;stroke-linejoin:miter;stroke-opacity:1" />
    <path
       sodipodi:nodetypes="cccccccs"
       id="path608"
       d="M 12.50515,82.514912 C 10.789331,82.741596 8.4059703,83.215486 8.1212863,80.867889 C 6.9358294,75.310531 4.2177905,53.28542 6.1545203,49.706109 C 6.5870872,48.864442 8.9356614,47.721993 14.270615,47.245069 C 20.333239,46.634852 32.772816,45.706895 34.081866,45.767174 C 35.390853,45.827469 35.79131,45.679146 36.076034,48.026803 C 35.960405,50.522736 39.909374,70.04763 40.142664,73.504567 C 40.324186,75.958596 40.636577,77.00126 39.034876,77.594527"
       style="fill:#ffffff;fill-opacity:1;fill-rule:evenodd;stroke:none;stroke-width:1pt;stroke-linecap:butt;stroke-linejoin:miter;stroke-opacity:1" />
    <path
       id="path636"
       d="M 6.5837811,53.029631 C 6.5837811,53.029631 6.7380977,49.699035 11.180043,49.035784 C 15.621972,48.372553 33.213957,46.111935 33.633126,47.26605 C 34.052262,48.420157 34.571198,55.920432 34.700626,56.527186 C 34.830056,57.133916 19.938158,62.322497 15.848918,67.274213 C 11.759665,72.225923 8.8957755,76.232768 8.8957755,76.232768 C 8.8957755,76.232768 6.5541526,58.76906 6.5837811,53.029631 z "
       style="fill:url(#linearGradient2449);fill-opacity:1;fill-rule:evenodd;stroke:none;stroke-width:1pt;stroke-linecap:butt;stroke-linejoin:miter;stroke-opacity:1" />
  </g>
  <g
     id="g2520"
     transform="matrix(0.5519604,0,0,0.5519604,43.177752,43.313937)">
    <path
       sodipodi:nodetypes="csscssscssscssscs"
       id="path584"
       d="M 25.358744,8.5675234 C 22.720108,5.8687424 16.265703,10.045995 13.560278,12.677816 10.854851,15.309638 6.4977402,21.649745 9.1261872,24.358449 L 29.336768,45.186135 7.8308842,66.208838 c -2.6990265,2.63838 1.9152229,8.66817 4.5470438,11.373599 2.631822,2.705425 8.549095,7.501669 11.243881,4.858956 L 45.172021,61.307625 64.783887,81.572751 c 2.624802,2.712232 10.22602,-0.313808 12.931448,-2.945629 2.705423,-2.631819 5.91175,-10.119429 3.301107,-12.845296 L 61.577221,45.484641 82.437525,25.225844 C 85.145155,22.596291 81.104638,15.991181 78.472816,13.285754 75.840994,10.580327 69.362967,6.3727596 66.6466,8.9932867 L 45.613651,29.284144 z"
       style="font-size:12px;fill:#2c0000;fill-opacity:1;fill-rule:evenodd;stroke:none" />
    <path
       sodipodi:nodetypes="csscssscssscssscs"
       id="path589"
       d="m 24.045281,12.678782 c -1.749562,-1.792721 -6.140265,0.872856 -7.935795,2.619536 -1.795529,1.746678 -4.582633,6.063623 -2.837381,7.860538 l 21.05076,21.673923 -23.242339,22.677638 c -1.7929181,1.749357 1.01844,5.998642 2.76512,7.794172 1.746679,1.795527 5.92377,4.730135 7.714958,2.979003 L 44.832361,55.532241 66.522217,77.898238 c 1.743885,1.798247 6.565137,-0.436106 8.360664,-2.182784 1.79553,-1.746679 4.150772,-6.49361 2.41251,-8.29729 L 55.720114,45.030887 77.901397,23.475631 c 1.796446,-1.745743 -0.872856,-6.140269 -2.619535,-7.935798 -1.746681,-1.795529 -6.060469,-4.579377 -7.860538,-2.837381 L 45.125464,34.27899 z"
       style="font-size:12px;fill:#ff1500;fill-opacity:1;fill-rule:evenodd;stroke:none" />
    <path
       sodipodi:nodetypes="cssscsssss"
       id="path592"
       d="M 41.477442,49.574167 18.55032,72.195386 c -0.909797,0.897659 -1.376868,1.788679 -0.48567,2.704805 0.8912,0.916124 3.365673,2.088639 4.275019,1.190523 L 45.281798,53.431881 67.391107,76.48628 c 0.884645,0.922459 3.531718,-0.035395 4.447844,-0.926598 0.91612,-0.891197 0.33068,-1.938913 -0.552519,-2.862747 L 49.235583,49.631678 c -2.514871,-2.630564 -5.167548,-2.613539 -7.758141,-0.057511 z"
       style="font-size:12px;fill:#cb0000;fill-opacity:1;fill-rule:evenodd;stroke:none" />
    <path
       sodipodi:nodetypes="cssscsssss"
       id="path2525"
       d="m 49.128131,42.115422 22.04966,-21.484279 c 0.915407,-0.891936 1.235245,-1.934263 0.344046,-2.850386 -0.891197,-0.916123 -3.360085,-2.082948 -4.275014,-1.190524 L 45.182151,38.112124 24.347447,16.367974 c -0.884242,-0.92284 -3.531718,0.035397 -4.447843,0.926596 -0.916122,0.891198 -0.330195,1.938449 0.552521,2.862751 L 41.228363,41.91233 c 2.513484,2.631888 5.293198,2.742823 7.899768,0.203092 z"
       style="font-size:12px;fill:#ffffff;fill-opacity:1;fill-rule:evenodd;stroke:none" />
  </g>
</svg>
