<?xml version="1.0" encoding="UTF-8" standalone="no"?>
<!-- Created with Inkscape (http://www.inkscape.org/) -->
<svg
   xmlns:dc="http://purl.org/dc/elements/1.1/"
   xmlns:cc="http://creativecommons.org/ns#"
   xmlns:rdf="http://www.w3.org/1999/02/22-rdf-syntax-ns#"
   xmlns:svg="http://www.w3.org/2000/svg"
   xmlns="http://www.w3.org/2000/svg"
   xmlns:sodipodi="http://sodipodi.sourceforge.net/DTD/sodipodi-0.dtd"
   xmlns:inkscape="http://www.inkscape.org/namespaces/inkscape"
   version="1.0"
   x="0.00000000"
   y="0.00000000"
   width="90"
   height="90"
   id="svg548"
   sodipodi:version="0.32"
   sodipodi:docname="arrow-up-double.svg"
   sodipodi:docbase="/home/tweenk/GNUtoon/actions"
   inkscape:version="0.46+devel"
   inkscape:output_extension="org.inkscape.output.svg.inkscape">
  <metadata
     id="metadata22">
    <rdf:RDF>
      <cc:Work
         rdf:about="">
        <dc:format>image/svg+xml</dc:format>
        <dc:type
           rdf:resource="http://purl.org/dc/dcmitype/StillImage" />
      </cc:Work>
    </rdf:RDF>
  </metadata>
  <sodipodi:namedview
     id="base"
     inkscape:zoom="5.3777778"
     inkscape:cx="45"
     inkscape:cy="37.454079"
     inkscape:window-width="1014"
     inkscape:window-height="724"
     inkscape:window-x="0"
     inkscape:window-y="1"
     showguides="true"
     snaptoguides="true"
     inkscape:current-layer="svg548"
     width="90px"
     height="90px"
     showgrid="false" />
  <defs
     id="defs550" />
  <path
     d="M 45.560174,5.3186953 C 53.13055,7.1212405 81.564876,37.674663 78.31101,43.648062 69.364959,57.898175 26.811404,51.695452 21.269628,49.74325 15.727852,47.791051 12.712315,43.577314 13.393285,40.154518 14.074255,36.73172 37.721324,2.1874 45.560174,5.3186953 z"
     style="fill:#0d3c07;fill-rule:evenodd;stroke-width:1pt"
     id="path582"
     sodipodi:nodetypes="ccscc" />
  <path
     d="m 45.355601,15.209033 c 5.713333,1.0707701 25.436159,21.157 22.661761,26.04395 C 65.242803,46.140148 55.7711,42.062173 54.414624,45.69416 37.317495,49.401776 21.362957,43.155287 22.046202,40.410929 22.729445,37.666574 39.499386,13.098057 45.355601,15.209033 z"
     style="fill:#2aaf18;fill-rule:evenodd;stroke-width:1pt"
     id="path581"
     sodipodi:nodetypes="ccccc" />
  <path
     d="M 55.734368,46.386001 C 61.008688,46.191631 69.792457,42.599655 69.067947,39.253321 67.985955,33.305769 49.36515,15.453629 46.100295,14.841691 42.835493,14.230122 59.966857,32.816578 56.447601,38.071081 52.928348,43.325585 45.867774,40.026774 45.398765,44.332198 44.929919,48.637414 53.949099,46.896275 55.734368,46.386001 z"
     style="fill:#208c11;fill-rule:evenodd;stroke-width:1pt"
     id="path583"
     sodipodi:nodetypes="cccccc" />
  <path
     d="m 41.169902,20.113487 c 0,0 -12.394368,12.039773 -13.30216,15.080231 -0.90761107,3.0402662 4.9685749,1.4380641 4.9685749,1.4380641 0,0 6.0994776,-15.416287 8.333586,-16.518295 z"
     style="font-size:12px;fill:#ffffff;fill-rule:evenodd;stroke-width:1pt"
     id="path589" />
  <path
     d="M 44.902345,39.402644 C 52.47272,41.205188 80.907043,71.758609 77.653177,77.732011 68.707126,91.982123 26.153571,85.7794 20.611794,83.827199 15.070018,81.875 12.054483,77.661264 12.735452,74.238466 13.416422,70.815668 37.063491,36.271352 44.902345,39.402644 z"
     style="fill:#0d3c07;fill-rule:evenodd;stroke-width:1pt"
     id="path853"
     sodipodi:nodetypes="ccscc" />
  <path
     d="M 44.697768,49.292983 C 50.411101,50.363752 70.133928,70.449979 67.35953,75.336934 64.58497,80.224092 55.113267,76.146121 53.756791,79.778106 36.659662,83.485725 20.705127,77.239239 21.388369,74.494877 22.071615,71.750518 38.841549,47.182006 44.697768,49.292983 z"
     style="fill:#2aaf18;fill-rule:evenodd;stroke-width:1pt"
     id="path854"
     sodipodi:nodetypes="ccccc" />
  <path
     d="M 55.076532,80.469949 C 60.350857,80.27558 69.134625,76.6836 68.410114,73.33727 67.328119,67.389716 48.707314,49.537577 45.442462,48.925641 42.17766,48.31407 59.309026,66.900527 55.789768,72.155026 52.270515,77.40953 45.209941,74.110722 44.740935,78.416144 44.272085,82.721362 53.291266,80.980221 55.076532,80.469949 z"
     style="fill:#208c11;fill-rule:evenodd;stroke-width:1pt"
     id="path855"
     sodipodi:nodetypes="cccccc" />
  <path
     d="m 40.512069,54.197435 c 0,0 -12.394371,12.03977 -13.302157,15.080231 -0.90761707,3.0402632 4.9685719,1.4380641 4.9685719,1.4380641 0,0 6.0994776,-15.416287 8.333586,-16.518295 z"
     style="font-size:12px;fill:#ffffff;fill-rule:evenodd;stroke-width:1pt"
     id="path856" />
</svg>
