<?xml version="1.0" encoding="UTF-8" standalone="no"?>
<!DOCTYPE svg PUBLIC "-//W3C//DTD SVG 20010904//EN"
"http://www.w3.org/TR/2001/REC-SVG-20010904/DTD/svg10.dtd">
<!-- Created with Inkscape (http://www.inkscape.org/) -->
<svg
   id="svg548"
   sodipodi:version="0.32"
   width="24.000000pt"
   height="24.000000pt"
   sodipodi:docbase="/home/zeus/.icons/gartoon/scalable/stock-gar"
   sodipodi:docname="stock_print.svg"
   inkscape:version="0.40"
   xmlns="http://www.w3.org/2000/svg"
   xmlns:inkscape="http://www.inkscape.org/namespaces/inkscape"
   xmlns:sodipodi="http://sodipodi.sourceforge.net/DTD/sodipodi-0.dtd"
   xmlns:xlink="http://www.w3.org/1999/xlink"
   xmlns:rdf="http://www.w3.org/1999/02/22-rdf-syntax-ns#"
   xmlns:cc="http://web.resource.org/cc/"
   xmlns:dc="http://purl.org/dc/elements/1.1/">
  <metadata
     id="metadata37">
    <rdf:RDF
       id="RDF38">
      <cc:Work
         rdf:about=""
         id="Work39">
        <dc:format
           id="format40">image/svg+xml</dc:format>
        <dc:type
           id="type42"
           rdf:resource="http://purl.org/dc/dcmitype/StillImage" />
      </cc:Work>
    </rdf:RDF>
  </metadata>
  <defs
     id="defs550">
    <linearGradient
       id="linearGradient585">
      <stop
         style="stop-color:#5cb2ff;stop-opacity:1;"
         offset="0.000000"
         id="stop586" />
      <stop
         style="stop-color:#ffffff;stop-opacity:1;"
         offset="1.000000"
         id="stop587" />
    </linearGradient>
    <linearGradient
       id="linearGradient576">
      <stop
         style="stop-color:#ffffff;stop-opacity:1;"
         offset="0.000000"
         id="stop577" />
      <stop
         style="stop-color:#370000;stop-opacity:0;"
         offset="1.000000"
         id="stop578" />
    </linearGradient>
    <linearGradient
       id="linearGradient569">
      <stop
         style="stop-color:#ff3a00;stop-opacity:1;"
         offset="0.000000"
         id="stop570" />
      <stop
         style="stop-color:#370000;stop-opacity:1;"
         offset="1.000000"
         id="stop571" />
    </linearGradient>
    <linearGradient
       id="linearGradient562">
      <stop
         style="stop-color:#000;stop-opacity:1;"
         offset="0"
         id="stop563" />
      <stop
         style="stop-color:#fff;stop-opacity:1;"
         offset="1"
         id="stop564" />
    </linearGradient>
    <linearGradient
       xlink:href="#linearGradient562"
       id="linearGradient565"
       x1="30.5917225"
       y1="65.8304825"
       x2="18.4360981"
       y2="42.3886795"
       gradientUnits="userSpaceOnUse"
       spreadMethod="pad"
       gradientTransform="matrix(0.642519,0.000000,0.000000,0.366904,0.501596,1.570016)" />
    <linearGradient
       xlink:href="#linearGradient562"
       id="linearGradient567"
       x1="24.9874783"
       y1="44.9967537"
       x2="33.7596359"
       y2="60.7528610"
       gradientUnits="userSpaceOnUse"
       spreadMethod="pad"
       gradientTransform="matrix(0.770902,0.000000,0.000000,0.305800,0.501596,1.570016)" />
    <linearGradient
       xlink:href="#linearGradient576"
       id="linearGradient568"
       x1="33.621712"
       y1="23.849074"
       x2="32.981986"
       y2="25.794001"
       gradientUnits="userSpaceOnUse"
       spreadMethod="pad"
       gradientTransform="matrix(0.473841,0.000000,0.000000,0.497514,0.501596,1.570016)" />
    <radialGradient
       xlink:href="#linearGradient569"
       id="radialGradient573"
       cx="39.9771919"
       cy="62.0348434"
       fx="39.9771919"
       fy="62.0348434"
       r="2.87974644"
       gradientUnits="userSpaceOnUse"
       spreadMethod="pad"
       gradientTransform="matrix(0.573536,0.000000,0.000000,0.411033,0.501596,1.570016)" />
    <radialGradient
       xlink:href="#linearGradient576"
       id="radialGradient575" />
    <linearGradient
       xlink:href="#linearGradient562"
       id="linearGradient580"
       x1="30.495738"
       y1="24.537304"
       x2="30.772134"
       y2="31.859816"
       gradientUnits="userSpaceOnUse"
       spreadMethod="pad"
       gradientTransform="matrix(0.507088,0.000000,0.000000,0.464895,0.501596,1.570016)" />
    <linearGradient
       xlink:href="#linearGradient585"
       id="linearGradient584"
       x1="38.9676552"
       y1="112.427650"
       x2="34.3394775"
       y2="55.2668114"
       gradientUnits="userSpaceOnUse"
       spreadMethod="pad"
       gradientTransform="matrix(0.537683,0.000000,0.000000,0.438441,0.501596,1.570016)" />
    <linearGradient
       xlink:href="#linearGradient585"
       id="linearGradient588"
       x1="18.5747337"
       y1="70.6098175"
       x2="21.0069866"
       y2="44.9572525"
       gradientUnits="userSpaceOnUse"
       spreadMethod="pad"
       gradientTransform="matrix(0.377638,0.000000,0.000000,0.624254,0.501596,1.570016)" />
  </defs>
  <sodipodi:namedview
     id="base"
     showborder="true"
     showgrid="false"
     snaptogrid="false"
     vertgrid="false"
     horizgrid="false"
     inkscape:zoom="6.0693333"
     inkscape:cx="33.203881"
     inkscape:cy="10.815869"
     inkscape:window-width="1014"
     inkscape:window-height="696"
     inkscape:window-x="0"
     inkscape:window-y="25"
     inkscape:current-layer="svg548" />
  <path
     style="fill:#000000;fill-opacity:0.29999998;fill-rule:evenodd;stroke:none;stroke-width:1.0000000pt;stroke-linecap:butt;stroke-linejoin:miter;stroke-opacity:1.0000000"
     d="M 3.1844474,12.853747 C 2.6939992,15.701852 2.1589629,17.943275 1.8468578,20.690306 C 2.8277547,23.420486 5.5475101,25.543950 8.3564531,25.948416 C 9.8723636,25.695614 11.165394,25.645096 12.681337,24.785577 C 14.984955,25.847306 17.243992,27.111256 19.547611,28.172991 C 22.638936,26.133818 26.844875,23.235088 29.936200,21.195911 C 28.182459,20.285843 25.224908,19.578056 23.471166,18.667981 C 24.704756,13.780631 23.931908,10.157301 19.636775,7.3429003 C 19.057177,6.8372951 17.541237,6.4833468 16.203653,7.0395440 C 16.203653,7.0395440 15.579445,4.7138277 14.732294,3.1970758 C 13.528455,2.9948265 4.2545161,5.8766665 3.9424123,6.5844892 C 4.1504793,8.1686456 4.6260569,9.9550513 4.9232987,11.387548 C 4.0761673,12.061633 3.8978242,12.331290 3.1844474,12.853747 z "
     id="path592"
     sodipodi:nodetypes="ccccccccccccc" />
  <path
     style="fill:#000000;fill-opacity:1.0000000;fill-rule:evenodd;stroke:none;stroke-width:1.0000000pt;stroke-linecap:butt;stroke-linejoin:miter;stroke-opacity:1.0000000"
     d="M 2.5069411,11.163580 C 2.0164930,14.011683 1.4814566,16.253109 1.1693516,19.000140 C 2.1502485,21.730320 4.8700022,23.853784 7.6789454,24.258250 C 9.1948562,24.005447 10.487889,23.954926 12.003832,23.095408 C 14.307450,24.157144 16.566484,25.421089 18.870106,26.482825 C 21.961432,24.443648 26.167370,21.544922 29.258696,19.505748 C 27.504951,18.595677 24.547404,17.887890 22.793659,16.977818 C 24.027248,12.090468 23.254403,8.4671344 18.959267,5.6527344 C 18.379672,5.1471289 16.863729,4.7931838 15.526148,5.3493782 C 15.526148,5.3493782 14.901937,3.0236617 14.054786,1.5069108 C 12.850951,1.3046612 3.5770109,4.1865040 3.2649061,4.8943229 C 3.4729740,6.4784827 3.9485491,8.2648855 4.2457940,9.6973817 C 3.3986614,10.371466 3.2203179,10.641120 2.5069411,11.163580 z "
     id="path561"
     sodipodi:nodetypes="ccccccccccccc" />
  <path
     style="fill:#c7eeff;fill-opacity:1.0000000;fill-rule:evenodd;stroke:none;stroke-width:1.0000000pt;stroke-linecap:butt;stroke-linejoin:miter;stroke-opacity:1.0000000"
     d="M 12.494266,21.629213 L 18.691747,24.359357 L 26.360588,19.859661 C 26.360588,19.859661 20.296852,17.584533 20.252271,17.635084 C 20.207690,17.685637 12.538846,21.679763 12.494266,21.629213 z "
     id="path556" />
  <path
     style="fill:url(#linearGradient588);fill-opacity:1.0000000;fill-rule:evenodd;stroke:none;stroke-width:1.0000000pt;stroke-linecap:butt;stroke-linejoin:miter;stroke-opacity:1.0000000"
     d="M 3.8445274,11.871403 C 3.1014232,14.180230 2.6704240,16.489096 2.4177680,18.797926 C 3.7404967,21.292151 6.0887325,22.117935 7.7681393,22.690948 C 8.3180450,21.224750 8.4666531,16.775604 7.3668413,14.753243 C 6.2819213,13.135385 5.0632232,12.073653 3.8445274,11.871403 z "
     id="path557"
     sodipodi:nodetypes="ccccc" />
  <path
     style="font-size:12.000000;fill:url(#linearGradient584);fill-rule:evenodd;stroke:#000000;stroke-width:0.32361370"
     d="M 4.2458230,11.264723 C 10.071758,14.500441 8.0950765,21.174161 8.3477378,22.741466 C 13.504880,21.308973 17.235248,18.713635 21.634436,16.320549 C 22.243785,13.590404 22.719357,9.2423619 18.112120,6.3099680 C 13.445437,6.9503860 8.2882944,8.6525007 4.2458230,11.264723 z "
     id="path559"
     sodipodi:nodetypes="ccccc" />
  <path
     style="fill:url(#linearGradient565);fill-opacity:1.0000000;fill-rule:evenodd;stroke:none;stroke-width:1.0000000pt;stroke-linecap:butt;stroke-linejoin:miter;stroke-opacity:1.0000000"
     d="M 7.3668413,9.6973817 C 9.4029363,10.304097 9.6556005,13.489294 10.532470,13.640958 C 13.207639,14.382479 17.889209,11.989361 18.022955,10.860224 C 18.245895,9.6805303 16.774535,7.1357485 15.615310,6.8660945 C 12.776648,7.6076193 10.071758,8.3996977 7.3668413,9.6973817 z "
     id="path558"
     sodipodi:nodetypes="ccccc" />
  <path
     style="fill:#ffffff;fill-opacity:1.0000000;fill-rule:evenodd;stroke:none;stroke-width:1.0000000pt;stroke-linecap:butt;stroke-linejoin:miter;stroke-opacity:1.0000000"
     d="M 5.7171530,10.253544 L 4.7362567,5.6021487 L 13.385997,3.0236617 L 14.322309,6.7144344 L 13.073890,7.1694542 L 12.315904,5.0459833 L 6.8764076,6.7144344 L 7.4560061,9.4951679"
     id="path560"
     sodipodi:nodetypes="cccccccc" />
  <path
     style="fill:url(#linearGradient567);fill-opacity:1.0000000;fill-rule:evenodd;stroke:none;stroke-width:1.0000000pt;stroke-linecap:butt;stroke-linejoin:miter;stroke-opacity:1.0000000"
     d="M 7.3668413,9.6973817 C 8.0157268,9.8572096 8.0928561,10.113597 9.0399595,11.113024 C 12.963545,11.955694 14.527685,8.6642492 17.113686,8.1923459 C 16.343516,7.1914367 16.373267,7.2368555 15.615310,6.8660945 C 12.776648,7.6076193 10.071758,8.3996977 7.3668413,9.6973817 z "
     id="path566"
     sodipodi:nodetypes="ccccc" />
  <path
     style="font-size:12.000000;fill:url(#linearGradient580);fill-rule:evenodd;stroke-width:1.0000000pt"
     d="M 17.386305,13.902998 C 17.548689,14.568841 17.056876,15.331604 16.288482,15.605574 C 15.520089,15.879550 14.764684,15.561487 14.602297,14.895643 C 14.439913,14.229801 14.931736,13.467073 15.700130,13.193103 C 16.468523,12.919130 17.223918,13.237156 17.386305,13.902998 z "
     id="path581" />
  <path
     style="font-size:12.000000;fill:url(#radialGradient573);fill-rule:evenodd;stroke-width:1.0000000pt"
     d="M 17.165813,13.793388 C 17.315478,14.368919 16.862189,15.028219 16.153983,15.265031 C 15.445776,15.501843 14.749545,15.226919 14.599879,14.651392 C 14.450211,14.075865 14.903510,13.416594 15.611716,13.179782 C 16.319922,12.942973 17.016147,13.217861 17.165813,13.793388 z "
     id="path583" />
  <path
     style="font-size:12.000000;fill:url(#linearGradient568);fill-rule:evenodd;stroke-width:1.0000000pt"
     d="M 16.640800,13.919034 C 16.640800,14.267877 16.371117,14.551007 16.038864,14.551007 C 15.706612,14.551007 15.436961,14.267877 15.436961,13.919034 C 15.436961,13.570156 15.706612,13.287026 16.038864,13.287026 C 16.371117,13.287026 16.640800,13.570156 16.640800,13.919034 z "
     id="path582" />
  <path
     style="font-size:12.000000;fill:none;fill-rule:evenodd;stroke:#000000;stroke-width:0.32361370"
     d="M 23.853692,19.893983 C 23.799506,19.866343 23.458895,19.555128 23.286191,19.751006 C 23.025017,19.980685 23.033984,20.047574 23.033984,20.465994 C 22.940110,20.785343 22.768527,20.683853 22.529539,20.537501 C 22.331551,20.503831 22.265906,20.374743 22.214276,20.609006 C 22.130185,20.704324 22.172216,20.942654 22.088157,21.038004 C 21.761071,21.038004 21.346551,20.936449 21.142330,21.038004 C 21.142330,21.425243 21.097687,21.421587 20.764007,21.467006 C 20.391515,21.467006 20.254885,21.415282 20.070415,21.681491 C 19.930014,21.913684 19.866896,22.113387 19.692093,22.181994 C 19.382206,22.171144 19.022691,22.061041 18.809325,22.181994 C 18.737543,22.527949 18.729611,22.645217 18.367943,22.682504 C 18.114064,22.682504 18.115736,22.680608 18.115736,22.968525 C 18.021859,23.014118 18.020402,23.065912 17.926558,23.111502"
     id="path589" />
  <path
     style="font-size:12.000000;fill:none;fill-rule:evenodd;stroke:#000000;stroke-width:0.32361370"
     d="M 21.394558,18.892980 C 21.328063,18.831709 21.039785,18.678463 20.763997,18.678463 C 20.598554,18.851664 20.623077,19.010731 20.511791,19.178969 C 20.201357,19.178969 19.930552,19.085166 19.755143,19.178969 C 19.549645,19.411994 19.482575,19.535570 19.439877,19.893992 C 19.327221,19.998513 19.353204,20.036969 19.124582,20.036969 C 18.803874,20.010058 18.652775,19.854501 18.557109,20.179982 C 18.324413,20.388642 18.253695,20.394502 17.863488,20.394502 C 17.674251,20.394502 17.453681,20.358698 17.359075,20.466003 C 17.284376,20.825982 17.249610,20.901139 16.917693,21.037982 C 16.661203,21.236614 16.548879,21.171759 16.539367,21.538491 C 16.370704,21.608481 16.102420,21.609999 15.845750,21.609999"
     id="path590" />
</svg>
