<?xml version="1.0" encoding="UTF-8" standalone="no"?>
<!-- Created with Sodipodi ("http://www.sodipodi.com/") -->
<svg
   xmlns:dc="http://purl.org/dc/elements/1.1/"
   xmlns:cc="http://web.resource.org/cc/"
   xmlns:rdf="http://www.w3.org/1999/02/22-rdf-syntax-ns#"
   xmlns:svg="http://www.w3.org/2000/svg"
   xmlns="http://www.w3.org/2000/svg"
   xmlns:xlink="http://www.w3.org/1999/xlink"
   xmlns:sodipodi="http://sodipodi.sourceforge.net/DTD/sodipodi-0.dtd"
   xmlns:inkscape="http://www.inkscape.org/namespaces/inkscape"
   version="1.0"
   x="0.00000000"
   y="0.00000000"
   width="90"
   height="90"
   id="svg548"
   sodipodi:version="0.32"
   sodipodi:docname="contact-new.svg"
   sodipodi:docbase="/home/tweenk/GNUtoon/actions"
   inkscape:version="0.45.1"
   inkscape:output_extension="org.inkscape.output.svg.inkscape">
  <metadata
     id="metadata12">
    <rdf:RDF>
      <cc:Work
         rdf:about="">
        <dc:format>image/svg+xml</dc:format>
        <dc:type
           rdf:resource="http://purl.org/dc/dcmitype/StillImage" />
      </cc:Work>
    </rdf:RDF>
  </metadata>
  <sodipodi:namedview
     id="base"
     inkscape:zoom="4.828125"
     inkscape:cx="-19.205117"
     inkscape:cy="-0.73483994"
     inkscape:window-width="1014"
     inkscape:window-height="696"
     inkscape:window-x="10"
     inkscape:window-y="72"
     inkscape:current-layer="svg548"
     width="90px"
     height="90px" />
  <defs
     id="defs550">
    <linearGradient
       id="linearGradient1853">
      <stop
         offset="0.0000000"
         style="stop-color:#000000;stop-opacity:1.0000000;"
         id="stop1855" />
      <stop
         offset="1.0000000"
         style="stop-color:#3b91cd;stop-opacity:0.98969072;"
         id="stop1854" />
    </linearGradient>
    <linearGradient
       inkscape:collect="always"
       xlink:href="#linearGradient1853"
       id="linearGradient2305"
       gradientUnits="userSpaceOnUse"
       gradientTransform="scale(1.192647,0.838471)"
       x1="49.80574"
       y1="54.60796"
       x2="9.1116619"
       y2="15.821439" />
    <linearGradient
       id="linearGradient1843">
      <stop
         style="stop-color:#ffe6bb;stop-opacity:1.0000000;"
         offset="0.0000000"
         id="stop1844" />
      <stop
         style="stop-color:#ff933d;stop-opacity:1.0000000;"
         offset="1.0000000"
         id="stop1845" />
    </linearGradient>
    <radialGradient
       inkscape:collect="always"
       xlink:href="#linearGradient1843"
       id="radialGradient2303"
       gradientUnits="userSpaceOnUse"
       gradientTransform="scale(0.965451,1.035785)"
       cx="44.176689"
       cy="30.546623"
       fx="44.176689"
       fy="30.546623"
       r="69.292931" />
    <linearGradient
       x1="0"
       y1="0"
       x2="1"
       y2="0"
       id="linearGradient556"
       gradientUnits="objectBoundingBox"
       spreadMethod="pad">
      <stop
         style="stop-color:#ff8700;stop-opacity:1;"
         offset="0.00000000"
         id="stop557" />
      <stop
         style="stop-color:#ffff8d;stop-opacity:0;"
         offset="1.00000000"
         id="stop558" />
    </linearGradient>
    <linearGradient
       x1="0"
       y1="0"
       x2="1"
       y2="0"
       id="linearGradient559"
       xlink:href="#linearGradient556"
       gradientUnits="objectBoundingBox"
       spreadMethod="pad" />
  </defs>
  <g
     id="g2291"
     transform="matrix(0.9107004,0,0,0.9107004,-1.229204,-1.883751)">
    <path
       id="path1065"
       d="M 43.119672,18.384392 C 24.899845,18.384392 10.11791,33.934331 10.117911,53.095694 C 10.117911,53.854752 10.272218,54.558536 10.317921,55.305522 C 9.1015223,54.874267 7.8954823,54.689072 6.8844054,55.101538 C 3.1441396,56.627362 0.89263601,69.981455 7.2510913,72.270203 C 11.005857,73.621731 13.756077,73.304484 15.684875,72.406193 C 21.609868,81.697131 31.690698,87.806995 43.119672,87.806995 C 61.339499,87.806995 76.121434,72.257061 76.121434,53.095694 C 76.121434,33.934326 61.3395,18.384392 43.119672,18.384392 z "
       style="fill:#000000;fill-opacity:0.24999994;stroke:none;stroke-width:3.3125;stroke-miterlimit:4;stroke-opacity:1" />
    <path
       transform="matrix(1.044349,0,0,1,1.780817,5.514704)"
       d="M 71.528818 42.664753 A 29.628359 31.907463 0 1 1  12.2721,42.664753 A 29.628359 31.907463 0 1 1  71.528818 42.664753 z"
       sodipodi:ry="31.907463"
       sodipodi:rx="29.628359"
       sodipodi:cy="42.664753"
       sodipodi:cx="41.900459"
       id="path1857"
       style="fill:url(#radialGradient2303);fill-opacity:1;stroke:#b01911;stroke-width:3.3125;stroke-miterlimit:4;stroke-opacity:1"
       sodipodi:type="arc" />
    <path
       transform="translate(33.22315,8.429752)"
       d="M 48.099174 34.214874 A 11.652892 11.652892 0 1 1  24.793389,34.214874 A 11.652892 11.652892 0 1 1  48.099174 34.214874 z"
       sodipodi:ry="11.652892"
       sodipodi:rx="11.652892"
       sodipodi:cy="34.214874"
       sodipodi:cx="36.446281"
       id="path1167"
       style="fill:#ffffff;fill-opacity:1;stroke:#000000;stroke-width:1.875;stroke-miterlimit:4;stroke-opacity:1"
       sodipodi:type="arc" />
    <path
       transform="matrix(1.177231,0,0,1.177231,5.689358,4.597228)"
       d="M 48.099174 34.214874 A 11.652892 11.652892 0 1 1  24.793389,34.214874 A 11.652892 11.652892 0 1 1  48.099174 34.214874 z"
       sodipodi:ry="11.652892"
       sodipodi:rx="11.652892"
       sodipodi:cy="34.214874"
       sodipodi:cx="36.446281"
       id="path1789"
       style="fill:#ffffff;fill-opacity:1;stroke:#000000;stroke-width:1.875;stroke-miterlimit:4;stroke-opacity:1"
       sodipodi:type="arc" />
    <path
       transform="translate(0.991736,2.975207)"
       d="M 49.09091 43.140495 A 4.9586778 5.2066116 0 1 1  39.173555,43.140495 A 4.9586778 5.2066116 0 1 1  49.09091 43.140495 z"
       sodipodi:ry="5.2066116"
       sodipodi:rx="4.9586778"
       sodipodi:cy="43.140495"
       sodipodi:cx="44.132233"
       id="path1806"
       style="fill:#000000;fill-opacity:1;stroke:none;stroke-width:1.875;stroke-miterlimit:4;stroke-opacity:1"
       sodipodi:type="arc" />
    <path
       transform="translate(25.28926,0.495868)"
       d="M 49.09091 43.140495 A 4.9586778 5.2066116 0 1 1  39.173555,43.140495 A 4.9586778 5.2066116 0 1 1  49.09091 43.140495 z"
       sodipodi:ry="5.2066116"
       sodipodi:rx="4.9586778"
       sodipodi:cy="43.140495"
       sodipodi:cx="44.132233"
       id="path1805"
       style="fill:#000000;fill-opacity:1;stroke:none;stroke-width:1.875;stroke-miterlimit:4;stroke-opacity:1"
       sodipodi:type="arc" />
    <path
       sodipodi:nodetypes="cccccccccccccc"
       id="path1807"
       d="M 36.5625,58.154442 C 36.306246,58.178522 36.059634,58.264299 35.84375,58.404442 C 35.84375,58.404442 33.74028,59.695412 31.84375,61.591942 C 30.895485,62.540207 29.966355,63.634711 29.375,64.935692 C 28.783645,66.236673 28.567171,67.913784 29.3125,69.404442 C 29.55904,69.930187 30.071989,70.280257 30.651428,70.318215 C 31.230866,70.356172 31.7851,70.07601 32.098119,69.58692 C 32.411138,69.09783 32.433408,68.477209 32.15625,67.966942 C 31.909843,67.474129 30.951117,67.023915 31.289514,66.279442 C 31.627911,65.534969 31.570941,64.629214 32.358213,63.841942 C 33.932757,62.267398 35.547779,61.091942 35.547779,61.091942 C 36.166634,60.701436 38.42356,59.939708 38.194375,59.244761 C 37.965191,58.549814 37.29225,58.100196 36.5625,58.154442 L 36.5625,58.154442 z "
       style="fill:#000000;fill-opacity:1;fill-rule:evenodd;stroke:none;stroke-width:3.1875;stroke-linecap:round;stroke-linejoin:round;stroke-miterlimit:4;stroke-opacity:1" />
    <path
       sodipodi:nodetypes="ccccccccc"
       id="path1808"
       d="M 32.839618,61.21281 L 30.214618,63.58781 L 31.402118,64.93156 C 31.402118,64.93156 42.227268,76.754743 55.745868,70.80656 L 57.402118,70.08781 L 56.70842,69.317149 L 54.804236,70.035899 C 41.050107,74.996806 34.058368,62.52531 34.058368,62.52531 L 32.839618,61.21281 z "
       style="fill:#000000;fill-opacity:1;fill-rule:evenodd;stroke:none;stroke-width:3.5625;stroke-linecap:square;stroke-linejoin:round;stroke-miterlimit:4;stroke-opacity:1" />
    <path
       sodipodi:nodetypes="ccccccccccccc"
       id="path1848"
       d="M 29.752067,28.016529 C 30.247934,30.991735 31.735537,36.446281 29.752066,43.884298 C 24.793388,51.322314 16.859504,59.752066 16.859504,59.752066 C 14.876033,60.743802 8.9256202,55.785124 7.9338842,44.876034 C 6.9421488,33.966943 11.404959,20.082645 17.85124,19.586777 C 21.818182,17.107438 22.314049,16.115702 22.314049,16.115702 C 22.314049,16.115702 22.31405,13.140496 26.280992,10.661157 C 30.247934,8.1818182 41.157025,2.7272728 51.570248,6.6942149 C 61.983471,10.661157 64.958677,22.561983 73.884297,20.082644 C 82.809917,17.603305 87.768595,14.628099 87.768595,14.628099 C 87.768595,14.628099 88.760331,25.041323 81.322314,30.991736 C 73.884298,36.942149 70.413223,39.917356 59.008264,38.429752 C 47.603306,36.942149 34.214876,29.504132 29.752067,28.016529 z "
       style="fill:url(#linearGradient2305);fill-opacity:1;fill-rule:evenodd;stroke:none;stroke-width:0.25pt;stroke-linecap:butt;stroke-linejoin:miter;stroke-opacity:1" />
    <path
       id="path1859"
       d="M 21.037887,54.235591 C 21.037887,54.235591 15.077152,48.625488 11.570838,50.028014 C 8.0645236,51.430539 5.9607349,63.702641 11.921469,65.806429 C 17.882204,67.910218 21.388519,65.806429 22.440413,63.702641"
       style="fill:#ffb978;fill-opacity:1;fill-rule:evenodd;stroke:#b01911;stroke-width:3.6875;stroke-linecap:round;stroke-linejoin:miter;stroke-miterlimit:4;stroke-opacity:1" />
  </g>
  <g
     id="g2326"
     transform="matrix(1.5666327,0,0,1.5666327,43.130185,41.525157)">
    <path
       sodipodi:nodetypes="csscssscssscssscs"
       id="path584"
       d="M 2.6766684,10.692536 C 1.5527151,10.670845 1.1038512,13.910744 1.1038512,15.034903 C 1.1038512,16.159063 1.5525606,19.300186 2.6766684,19.289101 L 10.526988,19.211701 L 10.548747,27.287303 C 10.551774,28.411462 13.59061,28.76681 14.714775,28.76681 C 15.838934,28.76681 18.709433,28.411453 18.704454,27.287303 L 18.668191,19.090998 L 26.450418,19.200933 C 27.574467,19.216805 28.50718,16.159063 28.50718,15.034903 C 28.50718,13.910744 27.75089,11.053984 26.626757,11.045213 L 18.256348,10.979942 L 18.087258,2.9363024 C 18.063632,1.8123895 15.838934,1.302991 14.714775,1.302991 C 13.59061,1.302991 10.730358,1.9884919 10.72509,3.1126426 L 10.688827,10.847115 L 2.6766684,10.692536 z "
       style="font-size:12px;fill:#0d3d07;fill-rule:evenodd;stroke:#0d3d07;stroke-width:0.44821438" />
    <path
       sodipodi:nodetypes="csscssscssscssscs"
       id="path589"
       d="M 3.4579417,12.091291 C 2.711862,12.092618 2.192725,14.28882 2.192725,15.034903 C 2.192725,15.780985 2.5355191,17.801547 3.2815989,17.802172 L 11.839755,17.809321 L 11.854197,26.95202 C 11.855378,27.698103 13.787213,27.980404 14.533295,27.980404 C 15.279372,27.980404 17.390696,27.786273 17.388733,27.04019 L 17.364667,17.8759 L 26.026967,17.802172 C 26.773022,17.795819 27.297318,15.780985 27.297318,15.034903 C 27.297318,14.28882 26.684796,12.278646 25.938791,12.267635 L 17.031235,12.136136 L 17.124226,3.4530601 C 17.13221,2.7070207 15.279372,2.4523578 14.533295,2.4523578 C 13.787213,2.4523578 11.879407,2.795579 11.854197,3.5412316 L 11.565616,12.076844 L 3.4579417,12.091291 z "
       style="font-size:12px;fill:#2aaf18;fill-opacity:1;fill-rule:evenodd;stroke:none;stroke-width:0.83871002pt" />
    <path
       sodipodi:nodetypes="cssscsssss"
       id="path592"
       d="M 15.219582,17.002074 L 15.287446,26.59479 C 15.290137,26.975452 15.383359,27.260215 15.764026,27.260215 C 16.144694,27.260215 16.908917,26.975452 16.906031,26.59479 L 16.833258,16.991053 L 26.346837,17.058917 C 26.727495,17.061634 27.072756,16.29758 27.072756,15.916917 C 27.072756,15.536243 26.727495,15.443641 26.346837,15.440331 L 16.843084,15.357732 C 15.759195,15.348311 15.211914,15.918165 15.219582,17.002074 z "
       style="font-size:12px;fill:#208c11;fill-opacity:1;fill-rule:evenodd;stroke:none;stroke-width:0.83871002pt" />
    <path
       sodipodi:nodetypes="cssscsssss"
       id="path594"
       d="M 14.158067,12.8498 L 14.150697,3.6805336 C 14.150392,3.2998658 13.994292,3.0151102 13.613623,3.0151102 C 13.23295,3.0151102 12.471109,3.2998658 12.471618,3.6805336 L 12.483899,12.860816 L 3.514759,12.792953 C 3.1341006,12.790073 2.788844,13.554294 2.788844,13.934963 C 2.788844,14.315631 3.1341073,14.40804 3.514759,14.411549 L 12.474073,14.494142 C 13.557961,14.504134 14.158938,13.93373 14.158067,12.8498 z "
       style="font-size:12px;fill:#ebf8e9;fill-opacity:1;fill-rule:evenodd;stroke:none;stroke-width:0.83871002pt" />
  </g>
</svg>
