<?xml version="1.0" encoding="UTF-8" standalone="no"?>
<!-- Created with Sodipodi ("http://www.sodipodi.com/") -->
<svg
   xmlns:dc="http://purl.org/dc/elements/1.1/"
   xmlns:cc="http://web.resource.org/cc/"
   xmlns:rdf="http://www.w3.org/1999/02/22-rdf-syntax-ns#"
   xmlns:svg="http://www.w3.org/2000/svg"
   xmlns="http://www.w3.org/2000/svg"
   xmlns:xlink="http://www.w3.org/1999/xlink"
   xmlns:sodipodi="http://sodipodi.sourceforge.net/DTD/sodipodi-0.dtd"
   xmlns:inkscape="http://www.inkscape.org/namespaces/inkscape"
   id="svg604"
   sodipodi:version="0.32"
   width="90"
   height="90"
   sodipodi:docbase="/home/tweenk/dev/GartoonRedux/scalable/actions"
   sodipodi:docname="document-send.svg"
   inkscape:version="0.45.1"
   inkscape:output_extension="org.inkscape.output.svg.inkscape"
   version="1.0">
  <metadata
     id="metadata11">
    <rdf:RDF>
      <cc:Work
         rdf:about="">
        <dc:format>image/svg+xml</dc:format>
        <dc:type
           rdf:resource="http://purl.org/dc/dcmitype/StillImage" />
      </cc:Work>
    </rdf:RDF>
  </metadata>
  <defs
     id="defs606">
    <linearGradient
       xlink:href="#linearGradient867"
       id="linearGradient871"
       x1="28.197727"
       y1="108.28517"
       x2="33.435261"
       y2="93.438599"
       gradientUnits="userSpaceOnUse"
       spreadMethod="pad"
       gradientTransform="scale(1.52092,0.657497)" />
    <linearGradient
       id="linearGradient867">
      <stop
         style="stop-color:#92b5d7;stop-opacity:0.780392;"
         offset="0.000000"
         id="stop868" />
      <stop
         style="stop-color:#ffffff;stop-opacity:0.321569;"
         offset="1.000000"
         id="stop869" />
    </linearGradient>
    <linearGradient
       xlink:href="#linearGradient867"
       id="linearGradient866"
       x1="38.646523"
       y1="64.399437"
       x2="39.494808"
       y2="29.977726"
       gradientUnits="userSpaceOnUse"
       spreadMethod="pad"
       gradientTransform="scale(1.261031,0.793002)" />
    <linearGradient
       id="linearGradient860">
      <stop
         style="stop-color:#92b5d7;stop-opacity:1;"
         offset="0.000000"
         id="stop861" />
      <stop
         style="stop-color:#ffffff;stop-opacity:1;"
         offset="1.000000"
         id="stop862" />
    </linearGradient>
    <linearGradient
       xlink:href="#linearGradient860"
       id="linearGradient863"
       x1="37.126305"
       y1="43.838791"
       x2="68.40992"
       y2="44.934666"
       gradientUnits="userSpaceOnUse"
       gradientTransform="scale(1.036866,0.964444)"
       spreadMethod="reflect" />
    <linearGradient
       id="linearGradient612">
      <stop
         style="stop-color:#7fa8e3;stop-opacity:0.741176;"
         offset="0.000000"
         id="stop613" />
      <stop
         style="stop-color:#ffffff;stop-opacity:0;"
         offset="1.000000"
         id="stop614" />
    </linearGradient>
    <linearGradient
       xlink:href="#linearGradient612"
       id="linearGradient615"
       x1="50.643887"
       y1="5.3679295"
       x2="35.752094"
       y2="68.044357"
       gradientUnits="userSpaceOnUse"
       spreadMethod="pad"
       gradientTransform="matrix(0.960363,0,0,0.960363,-0.3068229,1.4224045)" />
  </defs>
  <sodipodi:namedview
     id="base"
     inkscape:zoom="5.7333333"
     inkscape:cx="45"
     inkscape:cy="45"
     inkscape:window-width="968"
     inkscape:window-height="728"
     inkscape:window-x="0"
     inkscape:window-y="1"
     inkscape:current-layer="svg604"
     width="90px"
     height="90px" />
  <path
     style="fill:#3d4e67;fill-opacity:1;fill-rule:evenodd;stroke:none;stroke-width:1pt;stroke-linecap:butt;stroke-linejoin:miter;stroke-opacity:1"
     d="M 19.07795,87.032369 C 15.601166,86.981423 9.7723821,84.85673 9.2634471,79.155092 C 7.4687061,73.394408 1.2296301,18.946154 4.2402531,15.153698 C 5.7958761,12.167939 9.1833591,9.9761245 15.210296,9.2162995 C 20.141765,8.4606325 64.998983,2.5549795 68.306669,3.4716055 C 71.614448,4.3882915 74.220068,5.1634285 74.458016,9.7606165 C 74.213372,12.260777 82.545068,63.256511 83.823263,66.26369 C 84.433151,69.786038 83.431991,74.708312 78.331472,76.329758 C 73.231046,77.95118 23.104313,86.344181 19.07795,87.032369 z "
     id="path609"
     sodipodi:nodetypes="ccccccccc" />
  <path
     style="fill:#ffffff;fill-opacity:1;fill-rule:evenodd;stroke:none;stroke-width:1pt;stroke-linecap:butt;stroke-linejoin:miter;stroke-opacity:1"
     d="M 23.094641,80.993153 C 19.723871,81.438479 15.041696,82.369448 14.482427,77.757533 C 12.153566,66.83996 6.8139081,23.571056 10.618664,16.539407 C 11.468453,14.88593 16.082288,12.641561 26.562944,11.704631 C 38.473127,10.505843 62.910998,8.6828485 65.482661,8.8012675 C 68.054201,8.9197195 68.840909,8.6283355 69.400256,13.240367 C 69.173099,18.143693 76.930952,56.500853 77.389256,63.292097 C 77.74586,68.1131 78.359561,70.16144 75.212978,71.326928"
     id="path608"
     sodipodi:nodetypes="cccccccs" />
  <path
     style="fill:url(#linearGradient615);fill-opacity:1;fill-rule:evenodd;stroke:none;stroke-width:1pt;stroke-linecap:butt;stroke-linejoin:miter;stroke-opacity:1"
     d="M 11.461961,23.068553 C 11.461961,23.068553 11.765117,16.525511 20.491433,15.222539 C 29.217719,13.919603 63.777632,9.4785595 64.601099,11.745848 C 65.424503,14.013122 66.443966,28.747607 66.698231,29.939591 C 66.952499,31.131527 37.696979,41.32463 29.663561,51.052403 C 21.630116,60.780167 16.003931,68.651717 16.003931,68.651717 C 16.003931,68.651717 11.403752,34.34381 11.461961,23.068553 z "
     id="path636" />
  <g
     id="g852"
     transform="matrix(0.712096,0,0,0.712096,24.55437,25.265096)">
    <path
       style="font-size:12px;fill:#000000;fill-opacity:0.3;fill-rule:evenodd;stroke-width:1pt"
       d="M 11.2695,13.5441 C 10.8576,13.5441 9.2958,56.3824 12.3893,59.6969 C 21.0436,69.8079 74.9091,82.708 76.235,80.7192 C 77.5608,78.7305 87.0025,39.5285 83.4669,36.8769 C 72.929,23.7217 12.5953,10.2295 11.2695,13.5441 z "
       id="path914"
       transform="matrix(1.124488,0,0,1.124488,-6.54284,-1.6541)"
       sodipodi:nodetypes="ccccc" />
    <path
       style="font-size:12px;fill:#3d4e67;fill-rule:evenodd;stroke-width:1pt"
       d="M 11.2695,13.5441 C 10.8576,13.5441 9.2958,56.3824 12.3893,59.6969 C 21.0436,69.8079 74.9091,82.708 76.235,80.7192 C 77.5608,78.7305 87.0025,39.5285 83.4669,36.8769 C 72.929,23.7217 12.5953,10.2295 11.2695,13.5441 z "
       id="path859"
       transform="matrix(1.124488,0,0,1.124488,-10.96226,-8.946139)"
       sodipodi:nodetypes="ccccc" />
    <path
       style="font-size:12px;fill:url(#linearGradient863);stroke-width:1pt"
       d="M 11.2695,13.5441 C 11.2695,13.5441 9.50175,55.9705 12.5953,59.285 C 15.6889,62.5996 74.9091,82.708 76.235,80.7192 C 77.5608,78.7305 86.1787,38.2928 82.6431,35.6412 C 79.1076,32.9895 12.5953,10.2295 11.2695,13.5441 z "
       id="path856"
       transform="translate(-5.082326,-3.093586)" />
    <path
       style="font-size:12px;fill:#3d4e67;fill-rule:evenodd;stroke-width:1pt"
       d="M 13.9212,59.948 C 13.2582,60.169 27.6213,56.4124 32.4828,53.0978 C 32.9247,52.8769 42.8684,53.5398 45.962,56.6334 C 49.0555,59.727 68.28,76.0789 74.4672,80.7192 C 64.3026,80.0563 21.4341,72.9852 13.9212,59.948 z "
       id="path855"
       sodipodi:nodetypes="ccccc"
       transform="translate(-5.082326,-3.093586)" />
    <path
       style="font-size:12px;fill:#ffffff;fill-rule:evenodd;stroke-width:1pt"
       d="M 13.9212,59.948 C 14.1421,59.948 28.2842,57.9592 33.1457,54.6446 C 33.5876,54.4237 42.8684,54.2027 45.962,57.2963 C 49.0555,60.3899 72.6994,80.4983 74.4672,80.7192 C 76.235,80.9402 19.4454,68.7868 13.9212,59.948 z "
       id="path858"
       sodipodi:nodetypes="ccccc"
       transform="matrix(0.83768,0,0,0.83768,0.105843,7.220649)" />
    <path
       style="font-size:12px;fill:#3d4e67;fill-rule:evenodd;stroke-width:1pt"
       d="M 81.7593,35.4202 C 81.7593,35.4202 39.7747,60.169 36.0182,56.8544 C 27.6213,48.8994 11.0485,13.1021 11.7115,12.4392 C 14.1422,10.4505 64.9654,20.1732 81.7593,35.4202 z "
       id="path854"
       sodipodi:nodetypes="cccc"
       transform="translate(-5.082326,-3.093586)" />
    <path
       style="font-size:12px;fill:#ffffff;fill-rule:evenodd;stroke-width:1pt"
       d="M 84.0393,35.6735 C 81.7593,36.6869 39.7747,60.169 36.0182,56.8544 C 27.6213,48.8994 10.2885,12.0888 10.9515,11.4259 C 13.3822,9.43718 65.9787,20.9332 84.0393,35.6735 z "
       id="path857"
       sodipodi:nodetypes="cccc"
       transform="matrix(0.872265,0,0,0.872265,0.223256,0.893154)" />
    <path
       style="font-size:12px;fill:url(#linearGradient866);fill-rule:evenodd;stroke-width:1pt"
       d="M 84.0393,35.6735 C 81.7593,36.6869 39.7747,60.169 36.0182,56.8544 C 27.6213,48.8994 10.2885,12.0888 10.9515,11.4259 C 13.3822,9.43718 65.9787,20.9332 84.0393,35.6735 z "
       id="path865"
       sodipodi:nodetypes="cccc"
       transform="matrix(0.872265,0,0,0.872265,0.223256,0.893154)" />
    <path
       style="font-size:12px;fill:url(#linearGradient871);fill-rule:evenodd;stroke-width:1pt"
       d="M 13.9212,59.948 C 14.1421,59.948 28.2842,57.9592 33.1457,54.6446 C 33.5876,54.4237 42.8684,54.2027 45.962,57.2963 C 49.0555,60.3899 72.6994,80.4983 74.4672,80.7192 C 76.235,80.9402 19.4454,68.7868 13.9212,59.948 z "
       id="path870"
       sodipodi:nodetypes="ccccc"
       transform="matrix(0.83768,0,0,0.83768,0.105843,7.220649)" />
  </g>
  <g
     id="g859"
     transform="matrix(0,1.2651448,-1.2651448,0,107.51965,12.866492)">
    <path
       d="M 51.9665,36.0486 C 53.9602,37.0454 65.4724,34.7713 65.7572,32.6353 C 66.8738,29.0839 63.8447,27.7777 64.064,26.2358 C 64.4912,24.8117 69.3897,19.3094 68.8358,17.5805 C 67.2423,14.4362 62.9702,10.5668 59.9594,12.4381 C 57.3645,14.7813 55.6307,20.7151 54.0642,20.1455 C 52.4977,19.5759 51.1121,20.0634 50.6849,21.0602 C 50.2577,22.057 49.6881,35.3365 51.9665,36.0486 z "
       transform="matrix(0.881005,1.209351,-1.066114,0.776658,-6.41407,-46.0825)"
       style="fill:#ff933d;fill-opacity:1;fill-rule:evenodd;stroke-width:1pt"
       id="path582" />
    <path
       d="M 51.5506,35.4589 C 53.5443,36.4557 64.2247,34.8892 64.5095,32.7532 C 64.7943,30.6171 61.6614,29.193 62.0886,27.769 C 62.5158,26.3449 69.4937,17.6582 68.212,16.519 C 66.9304,15.3797 62.6582,11.3924 61.519,12.674 C 60.3797,13.9557 55.1108,23.7816 53.5443,23.212 C 51.9778,22.6424 50.6962,21.3608 50.269,22.3576 C 49.8418,23.3544 49.2722,34.7468 51.5506,35.4589 z "
       style="fill:#ffe6ba;fill-opacity:1;fill-rule:evenodd;stroke-width:1pt"
       id="path581"
       transform="matrix(0.643239,0.882971,-0.882971,0.643239,3.230534,-23.57134)" />
    <path
       d="M 67.6424,15.9494 C 67.6424,15.9494 69.0665,16.8038 68.0696,18.5127 C 67.0728,20.2215 61.519,27.769 61.9462,28.3386 C 63.5126,29.6202 65.3639,32.7531 64.3671,33.6076 C 62.6583,35.174 52.8323,36.3133 51.693,35.7437 C 50.5538,35.174 60.0949,33.4652 60.2373,31.0443 C 60.3797,28.6234 57.8165,27.6266 58.6709,26.2025 C 59.5253,24.7785 65.3639,14.9525 66.2184,15.2373 C 67.0728,15.5221 67.7848,16.519 67.6424,15.9494 z "
       style="fill:#ffd056;fill-opacity:1;fill-rule:evenodd;stroke-width:1pt"
       id="path583"
       transform="matrix(0.643239,0.882971,-0.882971,0.643239,3.230534,-23.57134)" />
    <path
       d="M 16.9462,4.6519 C 16.9462,4.6519 9.25633,14.193 9.54114,15.0475 C 9.82595,15.9019 17.3734,8.49683 16.9462,4.6519 z "
       transform="matrix(0.643239,0.882971,-0.882971,0.643239,24.89593,22.8134)"
       style="font-size:12px;fill:#ffffff;fill-rule:evenodd;stroke-width:1pt"
       id="path588" />
    <path
       d="M 5.41139,24.019 C 5.41139,24.019 4.41456,17.4684 4.84177,16.3291 C 5.26899,15.1899 6.69304,17.0411 6.69304,17.0411 C 6.69304,17.0411 4.98418,23.1646 5.41139,24.019 z "
       transform="matrix(0.643239,0.882971,-0.882971,0.643239,24.89593,22.8134)"
       style="font-size:12px;fill:#ffffff;fill-rule:evenodd;stroke-width:1pt"
       id="path589" />
  </g>
</svg>
