<?xml version="1.0" encoding="UTF-8" standalone="no"?>
<!DOCTYPE svg PUBLIC "-//W3C//DTD SVG 20010904//EN"
"http://www.w3.org/TR/2001/REC-SVG-20010904/DTD/svg10.dtd">
<!-- Created with Inkscape (http://www.inkscape.org/) -->
<svg
   id="svg604"
   sodipodi:version="0.32"
   width="24.000000pt"
   height="24.000000pt"
   sodipodi:docbase="/home/zeus/.icons/gartoon/scalable/stock"
   sodipodi:docname="gtk-properties.svg"
   inkscape:version="0.40"
   xmlns="http://www.w3.org/2000/svg"
   xmlns:inkscape="http://www.inkscape.org/namespaces/inkscape"
   xmlns:sodipodi="http://sodipodi.sourceforge.net/DTD/sodipodi-0.dtd"
   xmlns:xlink="http://www.w3.org/1999/xlink"
   xmlns:rdf="http://www.w3.org/1999/02/22-rdf-syntax-ns#"
   xmlns:cc="http://web.resource.org/cc/"
   xmlns:dc="http://purl.org/dc/elements/1.1/">
  <metadata
     id="metadata43">
    <rdf:RDF
       id="RDF44">
      <cc:Work
         rdf:about=""
         id="Work45">
        <dc:format
           id="format46">image/svg+xml</dc:format>
        <dc:type
           id="type48"
           rdf:resource="http://purl.org/dc/dcmitype/StillImage" />
      </cc:Work>
    </rdf:RDF>
  </metadata>
  <defs
     id="defs606">
    <linearGradient
       id="linearGradient610">
      <stop
         offset="0.00000000"
         style="stop-color:#666565;stop-opacity:1;"
         id="stop612" />
      <stop
         offset="1.00000000"
         style="stop-color:#ffffff;stop-opacity:1;"
         id="stop611" />
    </linearGradient>
    <linearGradient
       id="linearGradient612">
      <stop
         style="stop-color:#7fa8e3;stop-opacity:0.741176;"
         offset="0.000000"
         id="stop613" />
      <stop
         style="stop-color:#ffffff;stop-opacity:0;"
         offset="1.000000"
         id="stop614" />
    </linearGradient>
    <linearGradient
       xlink:href="#linearGradient612"
       id="linearGradient615"
       x1="50.6438866"
       y1="5.36792946"
       x2="35.7520943"
       y2="68.0443573"
       gradientUnits="userSpaceOnUse"
       spreadMethod="pad"
       gradientTransform="matrix(0.480382,0.000000,0.000000,0.480382,0.892993,3.264100e-2)" />
    <defs
       id="defs550">
      <linearGradient
         id="linearGradient554"
         x1="0.00000000"
         y1="0.00000000"
         x2="1.00000000"
         y2="0.00000000"
         gradientUnits="objectBoundingBox"
         spreadMethod="pad"
         xlink:href="#linearGradient610" />
      <linearGradient
         xlink:href="#linearGradient554"
         id="linearGradient557"
         x1="12.9236002"
         y1="79.9603500"
         x2="8.33575153"
         y2="72.2902298"
         gradientUnits="userSpaceOnUse"
         spreadMethod="pad"
         gradientTransform="scale(1.122498,0.890870)" />
      <linearGradient
         xlink:href="#linearGradient554"
         id="linearGradient559"
         x1="7.79836702"
         y1="68.6560287"
         x2="12.9945765"
         y2="78.4289169"
         gradientUnits="userSpaceOnUse"
         spreadMethod="pad"
         gradientTransform="scale(1.122498,0.890870)" />
      <linearGradient
         xlink:href="#linearGradient554"
         id="linearGradient563" />
    </defs>
    <sodipodi:namedview
       id="namedview578" />
    <defs
       id="defs573">
      <linearGradient
         id="linearGradient604">
        <stop
           offset="0.000000"
           style="stop-color:#666565;stop-opacity:1;"
           id="stop606" />
        <stop
           offset="1.000000"
           style="stop-color:#ffffff;stop-opacity:1;"
           id="stop605" />
      </linearGradient>
      <linearGradient
         id="linearGradient600">
        <stop
           style="stop-color:#000;stop-opacity:1;"
           offset="0"
           id="stop601" />
        <stop
           style="stop-color:#fff;stop-opacity:1;"
           offset="1"
           id="stop602" />
      </linearGradient>
      <linearGradient
         xlink:href="#linearGradient604"
         id="linearGradient603"
         x1="61.0468903"
         y1="28.6572132"
         x2="79.6281509"
         y2="14.1547699"
         gradientUnits="userSpaceOnUse"
         spreadMethod="pad"
         gradientTransform="scale(0.994399,1.005632)" />
    </defs>
    <sodipodi:namedview
       id="namedview799" />
    <linearGradient
       xlink:href="#linearGradient610"
       id="linearGradient613"
       x1="26.44122696"
       y1="54.83988953"
       x2="29.67018700"
       y2="59.91422272"
       gradientUnits="userSpaceOnUse"
       gradientTransform="scale(1.122498,0.890870)" />
    <radialGradient
       xlink:href="#linearGradient610"
       id="radialGradient614"
       cx="26.07568169"
       cy="54.87862015"
       r="7.29569149"
       fx="26.07568169"
       fy="54.87862015"
       gradientUnits="userSpaceOnUse"
       gradientTransform="matrix(0.539228,0.000000,0.000000,0.427958,0.892993,3.264100e-2)" />
    <linearGradient
       inkscape:collect="always"
       xlink:href="#linearGradient610"
       id="linearGradient1099"
       gradientUnits="userSpaceOnUse"
       gradientTransform="matrix(0.539228,0.000000,0.000000,0.427958,0.892993,3.264100e-2)"
       spreadMethod="pad"
       x1="12.9236002"
       y1="79.9603500"
       x2="8.33575153"
       y2="72.2902298" />
    <linearGradient
       inkscape:collect="always"
       xlink:href="#linearGradient610"
       id="linearGradient1112"
       gradientUnits="userSpaceOnUse"
       gradientTransform="matrix(0.539228,2.642537e-17,-5.167722e-17,0.427958,0.892993,3.264100e-2)"
       spreadMethod="pad"
       x1="12.9236002"
       y1="79.9603500"
       x2="8.33575153"
       y2="72.2902298" />
    <radialGradient
       inkscape:collect="always"
       xlink:href="#linearGradient610"
       id="radialGradient1113"
       gradientUnits="userSpaceOnUse"
       gradientTransform="matrix(0.539228,2.642537e-17,-5.167722e-17,0.427958,0.892993,3.264100e-2)"
       cx="26.07568169"
       cy="54.87862015"
       fx="26.07568169"
       fy="54.87862015"
       r="7.29569149" />
  </defs>
  <sodipodi:namedview
     id="base"
     inkscape:zoom="8.0000000"
     inkscape:cx="30.960796"
     inkscape:cy="-0.19858551"
     inkscape:window-width="1014"
     inkscape:window-height="696"
     inkscape:window-x="0"
     inkscape:window-y="25"
     inkscape:current-layer="svg604" />
  <path
     style="fill:#000000;fill-opacity:0.30147097;fill-rule:evenodd;stroke:none;stroke-width:1.0000000pt;stroke-linecap:butt;stroke-linejoin:miter;stroke-opacity:1.0000000"
     d="M 4.2232020,25.480585 C 3.3582744,25.087423 2.1788493,23.829370 2.8078834,22.099514 C 3.1223809,20.212451 8.7836873,3.5430508 10.041777,2.7567626 C 10.828029,2.0491069 11.968195,1.7738971 13.580091,2.2063609 C 14.916785,2.5208797 26.947025,5.6660678 27.654673,6.2950769 C 28.362357,6.9241217 28.912763,7.4352067 28.362357,8.8112200 C 27.969231,9.5188680 23.290751,25.401945 23.212147,26.424152 C 22.897625,27.524962 21.993413,28.861656 20.499441,28.783016 C 19.005504,28.704377 5.3240125,25.716468 4.2232020,25.480585 z "
     id="path794"
     sodipodi:nodetypes="ccccccccc" />
  <path
     style="fill:#3d4e67;fill-opacity:1.0000000;fill-rule:evenodd;stroke:none;stroke-width:1.0000000pt;stroke-linecap:butt;stroke-linejoin:miter;stroke-opacity:1.0000000"
     d="M 3.3113115,24.021558 C 2.4463839,23.628396 1.2669589,22.370343 1.8959929,20.640488 C 2.2104904,18.753425 7.8717965,2.0840241 9.1298860,1.2977360 C 9.9161386,0.59008030 11.056304,0.31487060 12.668200,0.74733430 C 14.004894,1.0618532 26.035134,4.2070414 26.742783,4.8360504 C 27.450467,5.4650947 28.000872,5.9761802 27.450467,7.3521933 C 27.057340,8.0598420 22.378861,23.942919 22.300257,24.965125 C 21.985734,26.065936 21.081523,27.402629 19.587550,27.323990 C 18.093613,27.245350 4.4121220,24.257441 3.3113115,24.021558 z "
     id="path609"
     sodipodi:nodetypes="ccccccccc" />
  <path
     style="fill:#ffffff;fill-opacity:1.0000000;fill-rule:evenodd;stroke:none;stroke-width:1.0000000pt;stroke-linecap:butt;stroke-linejoin:miter;stroke-opacity:1.0000000"
     d="M 5.1198063,22.684865 C 4.2155945,22.448982 2.9181497,22.213064 3.3899510,20.797767 C 4.2548786,17.338092 8.6581202,4.0497624 10.545183,2.3985465 C 10.977665,2.0053847 12.432282,1.8481413 15.184308,2.7130689 C 18.329496,3.6566006 24.698440,5.7795815 25.327485,6.0941039 C 25.956494,6.4086262 26.192413,6.4086262 25.720612,7.8239590 C 25.012963,9.2392920 21.867811,21.348172 21.081487,23.392514 C 20.531117,24.847166 20.413158,25.515495 19.469591,25.515495"
     id="path608"
     sodipodi:nodetypes="cccccccs" />
  <path
     style="fill:url(#linearGradient615);fill-opacity:1.0000000;fill-rule:evenodd;stroke:none;stroke-width:1.0000000pt;stroke-linecap:butt;stroke-linejoin:miter;stroke-opacity:1.0000000"
     d="M 9.7405926,5.2503938 C 9.7405926,5.2503938 10.630330,3.3354663 13.006364,3.8340931 C 15.382399,4.3327329 24.703167,6.5214377 24.630446,7.2792786 C 24.557728,8.0371160 22.986001,12.522263 22.902448,12.902538 C 22.818892,13.282807 14.129480,13.343240 10.882669,15.420267 C 7.6358651,17.497291 5.2304491,19.266765 5.2304491,19.266765 C 5.2304491,19.266765 8.3251435,8.5974310 9.7405926,5.2503938 z "
     id="path636" />
  <g
     id="g1100"
     transform="matrix(0.608807,-0.513280,0.513280,0.608807,0.832599,17.90607)">
    <path
       style="font-size:12.000000;fill-opacity:0.29999998;fill-rule:evenodd;stroke-width:1.0000000"
       d="M 20.344265,10.874196 L 20.229625,26.181632 C 19.735690,28.628580 15.637591,29.319184 14.568650,25.939458 L 14.402782,10.494750 L 11.014943,8.1590040 L 11.996989,0.22216120 L 15.891705,0.51680810 L 16.375018,4.5204896 L 17.383548,4.6823652 L 18.214972,0.062816700 L 22.539995,0.90657370 L 22.962923,7.8739160 L 20.344265,10.874196 z "
       id="path570"
       sodipodi:nodetypes="ccccccccccccc" />
    <path
       style="font-size:12.000000;fill-rule:evenodd;stroke-width:1.0000000"
       d="M 18.866544,11.229060 L 18.751904,26.536495 C 18.257969,28.983444 14.159870,29.674047 13.090926,26.294324 L 12.925061,10.849614 L 9.5372225,8.5138680 L 10.519268,0.57702550 L 14.413984,0.87167240 L 14.897298,4.8753529 L 15.905827,5.0372286 L 16.737248,0.41768090 L 21.062274,1.2614379 L 21.485202,8.2287790 L 18.866544,11.229060 z "
       id="path569"
       sodipodi:nodetypes="ccccccccccccc" />
    <path
       style="font-size:12.000000;fill:#c9c9c9;fill-rule:evenodd;stroke-width:1.0000000"
       d="M 17.651303,10.513399 L 17.692146,25.666641 C 17.404313,27.579144 14.742724,27.787767 14.069921,25.814713 L 14.174734,10.138068 L 10.767375,7.8927620 L 11.514061,1.7138856 L 13.394839,1.9976121 L 14.255954,5.9451937 L 16.792552,6.1012356 L 17.685348,1.6266605 L 19.862595,2.1620702 L 20.120315,7.6194350 L 17.651303,10.513399 z "
       id="path552"
       sodipodi:nodetypes="ccccccccccccc" />
    <path
       style="font-size:12.000000;fill:#9d9d9d;fill-rule:evenodd;stroke-width:1.0000000"
       d="M 17.638909,10.608644 C 17.508082,10.572227 16.623703,11.115642 16.317186,10.494607 L 16.291599,15.450179 C 16.695754,15.619045 17.517286,15.706674 17.552889,15.730675 C 17.588514,15.754692 17.673743,10.787509 17.638909,10.608644 z "
       id="path566"
       sodipodi:nodetypes="ccccc" />
    <path
       style="font-size:12.000000;fill:#ffc83d;fill-rule:evenodd;stroke-width:1.0000000"
       d="M 17.630493,14.539801 L 17.692146,25.666641 C 17.404313,27.579144 14.742724,27.787767 14.069921,25.814713 L 14.128305,14.509816 C 15.336927,13.459799 16.597152,13.946769 17.630493,14.539801 z "
       id="path562"
       sodipodi:nodetypes="ccccc" />
    <path
       style="font-size:12.000000;fill:#ffffff;fill-rule:evenodd;stroke-width:1.0000000"
       d="M 15.211557,14.670246 L 15.073513,25.248079 C 15.073513,25.248079 14.464064,25.614222 14.476479,25.518994 C 14.488876,25.423746 14.436441,14.821111 14.436441,14.821111 L 15.211557,14.670246 z "
       id="path568" />
    <path
       style="font-size:12.000000;fill:#ff933d;fill-rule:evenodd;stroke-width:1.0000000"
       d="M 17.630493,14.539801 L 17.692146,25.666641 C 17.265066,26.863665 17.770720,25.063486 15.677355,25.965964 L 15.688523,14.577437 C 16.012000,14.225698 16.597152,13.946769 17.630493,14.539801 z "
       id="path567"
       sodipodi:nodetypes="ccccc" />
    <path
       style="font-size:12.000000;fill:url(#linearGradient1112);fill-rule:evenodd;stroke-width:1.0000000"
       d="M 15.849358,23.093847 C 16.472688,23.140457 16.934222,23.814068 16.879585,24.597439 C 16.824947,25.380825 16.274725,25.978785 15.651395,25.932171 C 15.028065,25.885561 14.566531,25.211944 14.621168,24.428557 C 14.675806,23.645190 15.226028,23.047236 15.849358,23.093847 z "
       id="path561" />
    <path
       style="font-size:12.000000;fill:url(#radialGradient1113);fill-rule:evenodd;stroke-width:1.0000000"
       d="M 15.824243,23.453973 C 16.289397,23.488759 16.633811,23.991430 16.593038,24.576010 C 16.552265,25.160603 16.141669,25.606821 15.676516,25.572038 C 15.211366,25.537256 14.866952,25.034579 14.907725,24.449986 C 14.948497,23.865405 15.359093,23.419191 15.824243,23.453973 z "
       id="path560" />
    <path
       style="font-size:12.000000;fill:#969696;fill-rule:evenodd;stroke-width:1.0000000"
       d="M 12.034270,2.4790180 L 11.496868,7.3485621 L 14.167926,9.1492720 L 17.288358,9.2845100 L 19.157926,7.1260521 L 19.335993,2.6358520 L 18.300779,2.4041687 L 17.502443,7.0460224 L 13.798981,6.7767131 L 12.760574,2.5542295 L 12.034270,2.4790180 z "
       id="path564"
       sodipodi:nodetypes="ccccccccccc" />
    <path
       style="font-size:12.000000;fill:#bbbbbb;fill-rule:evenodd;stroke-width:1.0000000"
       d="M 12.415215,2.5286362 L 12.092303,7.3873631 L 14.325180,8.6854720 L 17.040650,8.8067220 L 19.157926,7.1260521 L 19.335993,2.6358520 L 18.598103,2.5010137 L 17.871802,7.0360132 L 13.882627,6.7295026 L 12.760574,2.5542295 L 12.415215,2.5286362 z "
       id="path565"
       sodipodi:nodetypes="ccccccccccc" />
  </g>
</svg>
