<?xml version="1.0" encoding="UTF-8" standalone="no"?>
<!-- Created with Sodipodi ("http://www.sodipodi.com/") -->
<svg
   xmlns:dc="http://purl.org/dc/elements/1.1/"
   xmlns:cc="http://creativecommons.org/ns#"
   xmlns:rdf="http://www.w3.org/1999/02/22-rdf-syntax-ns#"
   xmlns:svg="http://www.w3.org/2000/svg"
   xmlns="http://www.w3.org/2000/svg"
   xmlns:xlink="http://www.w3.org/1999/xlink"
   xmlns:sodipodi="http://sodipodi.sourceforge.net/DTD/sodipodi-0.dtd"
   xmlns:inkscape="http://www.inkscape.org/namespaces/inkscape"
   id="svg596"
   sodipodi:version="0.32"
   width="72pt"
   height="72pt"
   sodipodi:docbase="/home/zeus/.icons/gartoon/scalable/apps/"
   sodipodi:docname="draw-brush.svg"
   inkscape:version="0.46+devel"
   inkscape:output_extension="org.inkscape.output.svg.inkscape">
  <metadata
     id="metadata31">
    <rdf:RDF>
      <cc:Work
         rdf:about="">
        <dc:format>image/svg+xml</dc:format>
        <dc:type
           rdf:resource="http://purl.org/dc/dcmitype/StillImage" />
      </cc:Work>
    </rdf:RDF>
  </metadata>
  <defs
     id="defs598">
    <linearGradient
       id="linearGradient2548">
      <stop
         id="stop2550"
         offset="0.000000"
         style="stop-color:#593a28;stop-opacity:1" />
      <stop
         id="stop2552"
         offset="1.000000"
         style="stop-color:#b01911;stop-opacity:1" />
    </linearGradient>
    <linearGradient
       id="linearGradient618">
      <stop
         style="stop-color:#956d47;stop-opacity:1;"
         offset="0.000000"
         id="stop619" />
      <stop
         style="stop-color:#ab322d;stop-opacity:0;"
         offset="1.000000"
         id="stop620" />
    </linearGradient>
    <linearGradient
       inkscape:collect="always"
       xlink:href="#linearGradient2548"
       id="linearGradient2529"
       gradientUnits="userSpaceOnUse"
       gradientTransform="matrix(-1.4740923,-0.5776733,-0.4493208,1.1465658,104.16043,6.4062896)"
       spreadMethod="pad"
       x1="34.978291"
       y1="84.424377"
       x2="31.146042"
       y2="65.438499" />
    <linearGradient
       inkscape:collect="always"
       xlink:href="#linearGradient618"
       id="linearGradient2534"
       gradientUnits="userSpaceOnUse"
       gradientTransform="matrix(-0.9242795,-0.3622104,-0.7166015,1.8286062,104.16043,6.4062889)"
       spreadMethod="pad"
       x1="23.059704"
       y1="25.653276"
       x2="36.115116"
       y2="22.441532" />
  </defs>
  <sodipodi:namedview
     id="base"
     showgrid="false"
     inkscape:zoom="4.0226519"
     inkscape:cx="27.519973"
     inkscape:cy="57.136413"
     inkscape:window-width="691"
     inkscape:window-height="724"
     inkscape:window-x="0"
     inkscape:window-y="1"
     inkscape:current-layer="svg596" />
  <path
     sodipodi:nodetypes="cccccccc"
     id="path3511"
     d="m 26.145981,58.627111 c 0,0 1.08599,-6.627039 2.787096,-9.682597 3.383574,-6.706204 45.120769,-57.937096 55.101047,-42.2716965 14.226908,11.2565455 -27.015169,59.9388225 -30.681387,62.2242845 -3.66607,2.285521 -8.091233,3.294012 -8.091233,3.294012 0,0 -2.128353,21.499231 -23.607666,16.216109 -20.97903653,-8.846746 -0.737057,-9.480805 -3.709479,-24.276494 1.719886,-2.460414 3.591441,-4.665641 8.201622,-5.503618 z"
     style="fill:#000000;fill-opacity:0.29411765;fill-rule:evenodd;stroke:none" />
  <path
     style="fill:#230000;fill-opacity:0.99898999;fill-rule:evenodd;stroke:none"
     d="m 13.480297,71.983145 c -3.5412148,-0.604077 -1.151184,4.544377 1.921268,2.809896 0.938785,2.424877 1.871656,-2.205055 1.871656,-2.205055 l 2.52783,14.116172 c 0,0 -13.3396142,-1.309369 -15.9946179,-8.031123 -2.6550494,-6.721639 -2.2027524,-9.48305 1.1066923,-10.537004 4.1788818,-1.986417 6.2998276,0.313945 7.1917606,1.251131 0.892034,0.937358 1.195571,1.448078 1.375411,2.595983 z"
     id="path609"
     sodipodi:nodetypes="cccccccc" />
  <path
     style="fill:#230000;fill-opacity:1;fill-rule:evenodd;stroke:none"
     d="m 23.025766,56.623248 c 0,0 1.085992,-6.62704 2.787094,-9.682598 3.383576,-6.706206 45.120772,-57.937094 55.101047,-42.2716952 14.226914,11.2565452 -27.015167,59.9388222 -30.681384,62.2242842 -3.666069,2.28552 -8.091232,3.294011 -8.091232,3.294011 0,0 -2.128354,21.49923 -23.607666,16.216108 -3.230828,-13.607995 -6.79758,-19.927188 -3.709482,-24.276495 1.719888,-2.460413 3.591441,-4.66564 8.201623,-5.503615 z"
     id="path608"
     sodipodi:nodetypes="cccccccc" />
  <path
     style="fill:#f2962c;fill-opacity:1;fill-rule:evenodd;stroke:none"
     d="M 49.361587,62.046202 C 46.895622,56.769984 43.593764,52.341497 32.125851,48.826956 41.542279,35.081439 69.95976,-0.79923715 77.447493,6.4449984 86.95841,11.739419 59.734235,53.573174 49.361587,62.046202 z"
     id="path600"
     sodipodi:nodetypes="cccc" />
  <path
     style="fill:#8b8b8b;fill-opacity:1;fill-rule:evenodd;stroke:none"
     d="m 48.107556,63.317857 c 0,0 -3.894931,4.154805 -9.268169,2.44102 -1.27035,-3.828255 -6.529133,-6.476741 -11.180694,-8.103729 0.172765,-3.654489 0.830214,-7.902709 2.643411,-7.38803 2.582589,-0.163361 15.541482,2.760164 17.805452,13.050739 z"
     id="path601"
     sodipodi:nodetypes="ccccc" />
  <path
     style="fill:#65532d;fill-opacity:1;fill-rule:evenodd;stroke:none"
     d="M 37.622817,68.220649 C 37.995216,64.05674 30.696691,58.258038 25.787185,59.860259 15.304615,60.258171 15.441257,71.478301 19.304791,73.188242 15.671355,85.673582 7.7866953,74.943304 9.0032202,72.481647 1.4759797,68.55229 4.4135227,79.694613 9.8533052,81.238591 16.725608,84.911289 37.935733,87.346148 37.622817,68.220649 z"
     id="path602"
     sodipodi:nodetypes="cccccc" />
  <path
     style="fill:url(#linearGradient2534);fill-opacity:1;fill-rule:evenodd;stroke:none"
     d="M 49.361587,62.046202 C 46.895622,56.769984 43.593764,52.341497 32.125851,48.826956 41.542279,35.081439 69.95976,-0.79923715 77.447493,6.4449984 86.95841,11.739419 59.734235,53.573174 49.361587,62.046202 z"
     id="path621"
     sodipodi:nodetypes="cccc" />
  <path
     style="fill:#f2d0a8;fill-opacity:1;fill-rule:evenodd;stroke:none"
     d="M 38.638563,50.203615 C 43.437226,52.283591 79.03974,7.1485839 71.94939,7.6208325 70.240987,7.8346001 29.88943,46.768755 38.638563,50.203615 z"
     id="path622"
     sodipodi:nodetypes="css" />
  <path
     style="fill:#f2f2f2;fill-opacity:1;fill-rule:evenodd;stroke:none"
     d="m 34.716672,51.213579 -3.934756,7.469626 4.689023,2.817105 5.510902,-7.635759 c 0,0 -5.695454,-2.819476 -6.265169,-2.650972 z"
     id="path623"
     sodipodi:nodetypes="ccccc" />
  <path
     style="fill:url(#linearGradient2529);fill-opacity:1;fill-rule:evenodd;stroke:none"
     d="M 37.622817,68.220649 C 37.995216,64.05674 30.696691,58.258038 25.787185,59.860259 15.304615,60.258171 15.441257,71.478301 19.304791,73.188242 15.671355,85.673582 7.7866953,74.943304 9.0032202,72.481647 1.4759797,68.55229 4.4135227,79.694613 9.8533052,81.238591 16.725608,84.911289 37.935733,87.346148 37.622817,68.220649 z"
     id="path580"
     sodipodi:nodetypes="cccccc" />
</svg>
