<?xml version="1.0" encoding="UTF-8" standalone="no"?>
<!-- Created with Sodipodi ("http://www.sodipodi.com/") -->
<svg
   xmlns:dc="http://purl.org/dc/elements/1.1/"
   xmlns:cc="http://web.resource.org/cc/"
   xmlns:rdf="http://www.w3.org/1999/02/22-rdf-syntax-ns#"
   xmlns:svg="http://www.w3.org/2000/svg"
   xmlns="http://www.w3.org/2000/svg"
   xmlns:xlink="http://www.w3.org/1999/xlink"
   xmlns:sodipodi="http://sodipodi.sourceforge.net/DTD/sodipodi-0.dtd"
   xmlns:inkscape="http://www.inkscape.org/namespaces/inkscape"
   id="svg604"
   sodipodi:version="0.32"
   width="90"
   height="90"
   sodipodi:docbase="/home/tweenk/GNUtoon/actions"
   sodipodi:docname="format-text-bold.svg"
   inkscape:version="0.45.1"
   inkscape:output_extension="org.inkscape.output.svg.inkscape"
   version="1.0">
  <metadata
     id="metadata12">
    <rdf:RDF>
      <cc:Work
         rdf:about="">
        <dc:format>image/svg+xml</dc:format>
        <dc:type
           rdf:resource="http://purl.org/dc/dcmitype/StillImage" />
      </cc:Work>
    </rdf:RDF>
  </metadata>
  <defs
     id="defs606">
    <linearGradient
       id="linearGradient612">
      <stop
         style="stop-color:#7fa8e3;stop-opacity:0.741176;"
         offset="0.000000"
         id="stop613" />
      <stop
         style="stop-color:#ffffff;stop-opacity:0;"
         offset="1.000000"
         id="stop614" />
    </linearGradient>
    <linearGradient
       xlink:href="#linearGradient612"
       id="linearGradient615"
       x1="50.643887"
       y1="5.3679295"
       x2="35.752094"
       y2="68.044357"
       gradientUnits="userSpaceOnUse"
       spreadMethod="pad"
       gradientTransform="matrix(0.990141,0,0,0.990141,-2.2486377e-2,0.6916777)" />
  </defs>
  <sodipodi:namedview
     id="base"
     inkscape:zoom="5.0416667"
     inkscape:cx="28.066116"
     inkscape:cy="-5.6528926"
     inkscape:window-width="795"
     inkscape:window-height="671"
     inkscape:window-x="204"
     inkscape:window-y="58"
     inkscape:current-layer="svg604"
     width="90px"
     height="90px" />
  <path
     style="fill:#3d4e67;fill-opacity:1;fill-rule:evenodd;stroke:none;stroke-width:1pt;stroke-linecap:butt;stroke-linejoin:miter;stroke-opacity:1"
     d="M 19.036841,88.956067 C 15.402629,88.902847 9.3099166,86.683069 8.7779356,80.726275 C 6.9019216,74.707804 0.38033862,17.822956 3.5272846,13.860778 C 5.1533476,10.741411 8.6942176,8.4515107 14.994056,7.6576807 C 20.14883,6.8681947 67.037207,0.6982657 70.494659,1.6559077 C 73.95224,2.6136157 76.675832,3.4234447 76.924553,8.2263577 C 76.668842,10.838395 85.377791,64.116229 86.713868,67.257976 C 87.351371,70.937953 86.304881,76.080505 80.973419,77.774506 C 75.642023,79.468489 23.245523,88.237078 19.036841,88.956067 z "
     id="path609"
     sodipodi:nodetypes="ccccccccc" />
  <path
     style="fill:#ffffff;fill-opacity:1;fill-rule:evenodd;stroke:none;stroke-width:1pt;stroke-linecap:butt;stroke-linejoin:miter;stroke-opacity:1"
     d="M 23.235416,82.646581 C 19.712009,83.111848 14.817824,84.084475 14.233235,79.266175 C 11.798924,67.860028 6.2174776,22.654825 10.194509,15.308506 C 11.082785,13.581034 15.90554,11.236231 26.860763,10.257364 C 39.310247,9.0049327 64.854689,7.1003587 67.542782,7.2240757 C 70.230758,7.3478287 71.0531,7.0434037 71.637779,11.861824 C 71.400332,16.984585 79.509476,57.058249 79.988525,64.153399 C 80.361281,69.190144 81.002765,71.330155 77.713697,72.547801"
     id="path608"
     sodipodi:nodetypes="cccccccs" />
  <path
     style="fill:url(#linearGradient615);fill-opacity:1;fill-rule:evenodd;stroke:none;stroke-width:1pt;stroke-linecap:butt;stroke-linejoin:miter;stroke-opacity:1"
     d="M 11.075999,22.129828 C 11.075999,22.129828 11.392886,15.293989 20.514329,13.932703 C 29.635733,12.571456 65.76056,7.9316767 66.621299,10.300429 C 67.481999,12.669175 68.547626,28.06303 68.813402,29.308351 C 69.079175,30.553618 38.498957,41.202892 30.101762,51.36598 C 21.704576,61.529062 15.823637,69.752872 15.823637,69.752872 C 15.823637,69.752872 11.015147,33.909661 11.075999,22.129828 z "
     id="path636" />
  <path
     style="font-size:24px;font-weight:bold;fill:#3d4e67;stroke-width:1;font-family:Bitstream Vera Sans"
     d="M 57.481757,58.602523 L 34.719353,62.507032 L 32.888333,73.426027 L 18.255362,75.936073 L 29.498648,15.797416 L 46.854041,12.820399 L 77.430032,65.785636 L 62.797049,68.295691 L 57.481757,58.602523 z M 36.555815,51.392179 L 52.020626,48.739456 L 40.461287,27.56299 L 36.555815,51.392179 z "
     id="path627" />
</svg>
