<?xml version="1.0" encoding="UTF-8" standalone="no"?>
<!DOCTYPE svg PUBLIC "-//W3C//DTD SVG 20010904//EN"
"http://www.w3.org/TR/2001/REC-SVG-20010904/DTD/svg10.dtd">
<!-- Created with Sodipodi ("http://www.sodipodi.com/") -->
<svg
   id="svg704"
   sodipodi:version="0.32"
   width="72pt"
   height="72pt"
   sodipodi:docbase="/home/zeus/.icons/gartoon/scalable/apps"
   sodipodi:docname="gnome-reboot.svg"
   xmlns="http://www.w3.org/2000/svg"
   xmlns:sodipodi="http://sodipodi.sourceforge.net/DTD/sodipodi-0.dtd"
   xmlns:xlink="http://www.w3.org/1999/xlink"
   xmlns:inkscape="http://www.inkscape.org/namespaces/inkscape"
   inkscape:version="0.40"
   xmlns:rdf="http://www.w3.org/1999/02/22-rdf-syntax-ns#"
   xmlns:cc="http://web.resource.org/cc/"
   xmlns:dc="http://purl.org/dc/elements/1.1/">
  <metadata
     id="metadata37">
    <rdf:RDF
       id="RDF38">
      <cc:Work
         rdf:about=""
         id="Work39">
        <dc:format
           id="format40">image/svg+xml</dc:format>
        <dc:type
           id="type42"
           rdf:resource="http://purl.org/dc/dcmitype/StillImage" />
      </cc:Work>
    </rdf:RDF>
  </metadata>
  <defs
     id="defs706">
    <linearGradient
       id="linearGradient734">
      <stop
         style="stop-color:#2a2535;stop-opacity:1;"
         offset="0.000000"
         id="stop735" />
      <stop
         style="stop-color:#e3e1cf;stop-opacity:1;"
         offset="1.000000"
         id="stop736" />
    </linearGradient>
    <linearGradient
       id="linearGradient724">
      <stop
         style="stop-color:#ffffff;stop-opacity:0.490196;"
         offset="0.000000"
         id="stop725" />
      <stop
         style="stop-color:#ffffff;stop-opacity:0.176471;"
         offset="1.000000"
         id="stop726" />
    </linearGradient>
    <linearGradient
       id="linearGradient718">
      <stop
         style="stop-color:#e3e1cf;stop-opacity:1;"
         offset="0.000000"
         id="stop719" />
      <stop
         style="stop-color:#ffffff;stop-opacity:1;"
         offset="1.000000"
         id="stop720" />
    </linearGradient>
    <linearGradient
       xlink:href="#linearGradient718"
       id="linearGradient721"
       x1="45.4330635"
       y1="41.9262352"
       x2="24.0375099"
       y2="27.2048512"
       gradientUnits="userSpaceOnUse"
       spreadMethod="pad"
       gradientTransform="matrix(0.962434,0.000000,0.000000,0.900183,2.684005,-0.194969)" />
    <linearGradient
       xlink:href="#linearGradient724"
       id="linearGradient723"
       x1="40.2607956"
       y1="39.8445053"
       x2="37.3197212"
       y2="68.6665039"
       gradientUnits="userSpaceOnUse"
       spreadMethod="pad"
       gradientTransform="matrix(1.103416,0.000000,0.000000,0.785167,2.684005,-0.194969)" />
    <linearGradient
       xlink:href="#linearGradient724"
       id="linearGradient732" />
    <radialGradient
       xlink:href="#linearGradient734"
       id="radialGradient733"
       cx="33.2134209"
       cy="118.190964"
       fx="33.2134209"
       fy="118.190964"
       r="14.8945398"
       gradientUnits="userSpaceOnUse"
       spreadMethod="pad"
       gradientTransform="scale(1.559286,0.641319)" />
    <radialGradient
       xlink:href="#linearGradient734"
       id="radialGradient738" />
  </defs>
  <sodipodi:namedview
     id="base"
     inkscape:zoom="1.0000000"
     inkscape:cx="9.0909119"
     inkscape:cy="74.743805"
     inkscape:window-width="640"
     inkscape:window-height="536"
     inkscape:window-x="0"
     inkscape:window-y="25"
     inkscape:current-layer="svg704" />
  <path
     style="font-size:12.000000;fill:#000000;fill-opacity:0.29999998;fill-rule:evenodd;stroke-width:1.0000000pt"
     d="M 71.980115,79.808199 C 71.359475,86.383459 59.855583,90.275307 46.301777,88.495435 C 32.747972,86.715562 22.251484,79.934645 22.872123,73.359385 C 23.492763,66.784125 34.996655,62.892277 48.550461,64.672149 C 62.104267,66.452022 72.600755,73.232939 71.980115,79.808199 z "
     id="path744" />
  <path
     style="fill:#000000;fill-opacity:0.29999998;fill-rule:evenodd;stroke:none;stroke-width:1.0000000pt;stroke-linecap:butt;stroke-linejoin:miter;stroke-opacity:1.0000000"
     d="M 17.295659,57.836267 C 15.509985,55.287095 6.8485501,34.348241 14.273914,3.9926228 C 44.811352,-2.2732355 71.276649,9.4060186 85.016271,18.188785 C 87.820006,24.006239 83.032668,67.709609 72.779442,71.991935 C 65.903557,74.234119 29.924234,73.616031 17.295659,57.836267 z "
     id="path743"
     sodipodi:nodetypes="ccccc" />
  <path
     style="font-size:12.000000;fill:#211301;fill-rule:evenodd;stroke-width:1.0000000pt"
     d="M 68.305224,78.171488 C 67.731001,84.055446 57.087504,87.538118 44.547414,85.945376 C 32.007323,84.352633 22.295889,78.284641 22.870113,72.400683 C 23.444337,66.516725 34.087833,63.034053 46.627924,64.626796 C 59.168015,66.219538 68.879448,72.287530 68.305224,78.171488 z "
     id="path739" />
  <path
     sodipodi:type="arc"
     style="fill:url(#radialGradient733);fill-opacity:1.0000000;fill-rule:evenodd;stroke:none;stroke-width:1.0000000pt;stroke-linecap:butt;stroke-linejoin:miter;stroke-opacity:1.0000000"
     id="path731"
     d="M 67.656265 79.687500 A 19.375004 7.9687538 0 1 1  28.906258,79.687500 A 19.375004 7.9687538 0 1 1  67.656265 79.687500 z"
     sodipodi:cx="48.281261"
     sodipodi:cy="79.687500"
     sodipodi:rx="19.375004"
     sodipodi:ry="7.9687538"
     transform="matrix(0.970062,0.117700,-0.108001,1.057171,7.358065,-15.87606)" />
  <path
     style="font-size:12.000000;fill:#211301;fill-opacity:1.0000000;fill-rule:evenodd;stroke-width:1.0000000pt"
     d="M 60.350746,72.045705 C 59.932471,75.217776 53.598048,77.256676 46.211331,76.596813 C 38.824719,75.936961 33.169237,72.826991 33.587512,69.654920 C 34.005788,66.482849 40.340210,64.443949 47.726822,65.103802 C 55.113539,65.763665 60.769022,68.873634 60.350746,72.045705 z "
     id="path730" />
  <path
     style="font-size:12.000000;fill:#bebdae;fill-opacity:1.0000000;fill-rule:evenodd;stroke-width:1.0000000pt"
     d="M 58.608387,71.075414 C 58.244573,73.602373 52.734933,75.226614 46.310015,74.700948 C 39.885189,74.175290 34.966090,71.697802 35.329905,69.170844 C 35.693720,66.643886 41.203359,65.019644 47.628185,65.545303 C 54.053103,66.070969 58.972202,68.548456 58.608387,71.075414 z "
     id="path728" />
  <path
     style="fill:#211301;fill-opacity:1.0000000;fill-rule:evenodd;stroke:none;stroke-width:1.0000000pt;stroke-linecap:butt;stroke-linejoin:miter;stroke-opacity:1.0000000"
     d="M 12.970025,58.052550 C 11.184351,55.503378 2.5229161,34.564524 9.9482798,4.2089058 C 40.485718,-2.0569525 66.951015,9.6223016 80.690637,18.405068 C 83.494372,24.222522 78.707034,67.925892 68.453808,72.208218 C 61.577923,74.450402 25.598600,73.832314 12.970025,58.052550 z "
     id="path715"
     sodipodi:nodetypes="ccccc" />
  <path
     style="fill:url(#linearGradient721);fill-opacity:1.0000000;fill-rule:evenodd;stroke:none;stroke-width:1.0000000pt;stroke-linecap:butt;stroke-linejoin:miter;stroke-opacity:1.0000000"
     d="M 17.082179,56.379443 C 15.627729,53.616212 7.4833808,38.054554 13.009981,8.0948430 C 44.278594,2.4228536 65.075842,14.493983 78.019659,21.765764 C 79.474015,27.001539 74.674593,66.269065 66.821069,68.596035 C 60.131030,70.777616 26.680837,69.468649 17.082179,56.379443 z "
     id="path713"
     sodipodi:nodetypes="ccccc" />
  <path
     style="fill:#b5a794;fill-opacity:1.0000000;fill-rule:evenodd;stroke:none;stroke-width:1.0000000pt;stroke-linecap:butt;stroke-linejoin:miter;stroke-opacity:1.0000000"
     d="M 20.427151,17.548177 L 18.100181,18.275309 C 17.809310,20.456890 14.173466,38.200036 17.663921,46.053560 C 21.736119,52.888988 23.626735,54.197955 23.190475,53.470730 C 18.245570,45.180946 16.645825,32.528000 20.427151,17.548177 z "
     id="path717"
     sodipodi:nodetypes="ccccc" />
  <path
     style="fill:#000000;fill-opacity:1.0000000;fill-rule:evenodd;stroke:none;stroke-width:1.0000000pt;stroke-linecap:butt;stroke-linejoin:miter;stroke-opacity:1.0000000"
     d="M 20.213815,17.197252 C 20.213815,17.197252 14.333065,38.609484 21.872550,51.577300 C 27.602558,59.569202 46.149641,65.902369 61.379448,61.378678 C 64.244500,57.759726 70.728312,38.157067 64.696821,27.300209 C 62.434927,23.530419 35.142042,11.919661 20.213815,17.197252 z "
     id="path711"
     sodipodi:nodetypes="ccccc" />
  <path
     style="fill:#437caf;fill-opacity:1.0000000;fill-rule:evenodd;stroke:none;stroke-width:1.0000000pt;stroke-linecap:butt;stroke-linejoin:miter;stroke-opacity:1.0000000"
     d="M 21.008894,17.984438 C 21.008894,17.984438 15.336951,38.636389 22.608732,51.143760 C 28.135286,58.851895 46.023821,64.960191 60.712866,60.597122 C 63.476189,57.106667 69.729782,38.200036 63.912450,27.728671 C 61.730869,24.092734 35.407067,12.894237 21.008894,17.984438 z "
     id="path710"
     sodipodi:nodetypes="ccccc" />
  <path
     style="fill:url(#linearGradient723);fill-opacity:1.0000000;fill-rule:evenodd;stroke:none;stroke-width:1.0000000pt;stroke-linecap:butt;stroke-linejoin:miter;stroke-opacity:1.0000000"
     d="M 19.118277,38.781779 C 19.118277,38.781779 31.189388,22.347506 42.678755,32.818871 C 47.332789,48.380437 64.348710,52.016374 64.348710,52.016374 L 61.003737,60.306251 C 48.350791,64.814802 24.063089,55.506829 22.899604,52.016374 C 21.736119,48.525919 22.608732,53.907084 19.118277,38.781779 z "
     id="path722"
     sodipodi:nodetypes="cccccc" />
  <path
     style="fill:#000000;fill-opacity:1.0000000;fill-rule:evenodd;stroke:none;stroke-width:1.0000000pt;stroke-linecap:butt;stroke-linejoin:miter;stroke-opacity:1.0000000"
     d="M 25.081134,46.180520 L 24.945092,53.654022 C 30.701569,61.038349 48.369616,64.481911 53.731937,62.042465 C 53.577168,60.803818 53.422300,58.035909 53.131390,56.872466 C 49.350051,55.999834 31.700731,53.419491 25.081134,46.180520 z "
     id="path709"
     sodipodi:nodetypes="ccccc" />
  <path
     style="fill:#b5a794;fill-opacity:1.0000000;fill-rule:evenodd;stroke:none;stroke-width:1.0000000pt;stroke-linecap:butt;stroke-linejoin:miter;stroke-opacity:1.0000000"
     d="M 78.310530,22.056635 C 78.310530,22.056635 73.511201,22.202117 73.365812,22.202117 C 73.220237,22.202117 74.092944,34.564099 73.511201,39.072650 C 72.929459,43.581108 71.475102,54.197955 70.602489,56.961185 C 69.729875,59.724509 64.639581,68.596035 64.203321,69.177778 C 63.766968,69.759520 65.366806,69.032295 67.839165,68.305164 C 74.529204,60.597029 77.874270,42.126844 78.310530,22.056635 z "
     id="path716"
     sodipodi:nodetypes="ccccccc" />
  <path
     style="fill:#c7bda8;fill-opacity:1.0000000;fill-rule:evenodd;stroke:none;stroke-width:1.0000000pt;stroke-linecap:butt;stroke-linejoin:miter;stroke-opacity:1.0000000"
     d="M 25.662833,47.653353 L 25.808316,53.034424 C 31.625741,59.288110 48.496273,63.069436 52.713860,61.324302 C 52.568471,60.160723 52.422988,57.833846 52.422988,57.833846 C 52.422988,57.833846 31.334776,53.907038 25.662833,47.653353 z "
     id="path708"
     sodipodi:nodetypes="ccccc" />
  <path
     style="fill:#211301;fill-opacity:1.0000000;fill-rule:evenodd;stroke:none;stroke-width:1.0000000pt;stroke-linecap:butt;stroke-linejoin:miter;stroke-opacity:1.0000000"
     d="M 63.912450,68.886906 C 63.912450,68.886906 75.256429,60.015380 72.347716,22.783860 C 69.875264,20.311408 66.093938,17.548177 66.093938,17.548177 C 66.093938,17.548177 73.365719,21.038632 73.802072,22.202117 C 74.529204,23.801863 74.965464,62.342350 63.912450,68.886906 z "
     id="path712"
     sodipodi:nodetypes="ccccc" />
  <path
     style="fill:#fbfbfb;fill-opacity:1.0000000;fill-rule:evenodd;stroke:none;stroke-width:1.0000000pt;stroke-linecap:butt;stroke-linejoin:miter;stroke-opacity:1.0000000"
     d="M 27.408061,72.959104 L 28.717029,71.941101 C 33.370969,80.085496 52.422989,80.958110 53.877345,80.667239 C 55.331701,80.376367 37.733944,85.902921 27.408061,72.959104 z "
     id="path740"
     sodipodi:nodetypes="cccc" />
  <path
     style="fill:none;fill-opacity:1.0000000;fill-rule:evenodd;stroke:#000000;stroke-width:0.81443948;stroke-linecap:round;stroke-linejoin:round;stroke-opacity:1.0000000"
     d="M 28.280675,50.562018 C 28.280675,49.107661 28.280675,54.925179 28.280675,54.925179"
     id="path741"
     sodipodi:nodetypes="cc" />
  <path
     style="fill:none;fill-opacity:1.0000000;fill-rule:evenodd;stroke:#000000;stroke-width:0.81443948;stroke-linecap:round;stroke-linejoin:round;stroke-opacity:1.0000000"
     d="M 46.896442,57.106627 C 46.896442,55.652270 46.896442,61.469788 46.896442,61.469788"
     id="path742"
     sodipodi:nodetypes="cc" />
  <g
     id="g1093"
     transform="matrix(1.590658,0.000000,0.000000,1.590658,17.84010,15.79109)">
    <metadata
       id="metadata34">
      <rdf:RDF
         id="RDF35">
        <cc:Work
           rdf:about=""
           id="Work36">
          <dc:format
             id="format37">image/svg+xml</dc:format>
          <dc:type
             id="type39"
             rdf:resource="http://purl.org/dc/dcmitype/StillImage" />
        </cc:Work>
      </rdf:RDF>
    </metadata>
    <sodipodi:namedview
       id="namedview1100"
       inkscape:zoom="4.8281250"
       inkscape:cx="14.757282"
       inkscape:cy="16.621359"
       inkscape:window-width="1014"
       inkscape:window-height="696"
       inkscape:window-x="0"
       inkscape:window-y="25"
       inkscape:current-layer="svg548" />
    <defs
       id="defs550">
      <linearGradient
         x1="0.0000000"
         y1="0.0000000"
         x2="1.0000000"
         y2="0.0000000"
         id="linearGradient556"
         gradientUnits="objectBoundingBox"
         spreadMethod="pad">
        <stop
           style="stop-color:#ff8700;stop-opacity:1;"
           offset="0.00000000"
           id="stop557" />
        <stop
           style="stop-color:#ffff8d;stop-opacity:0;"
           offset="1.00000000"
           id="stop558" />
      </linearGradient>
      <linearGradient
         x1="0.0000000"
         y1="0.0000000"
         x2="1.0000000"
         y2="0.0000000"
         id="linearGradient559"
         xlink:href="#linearGradient556"
         gradientUnits="objectBoundingBox"
         spreadMethod="pad" />
    </defs>
    <g
       id="g622"
       transform="matrix(0.383874,0.000000,0.000000,0.326431,-0.143892,0.173905)">
      <sodipodi:namedview
         id="namedview623"
         inkscape:zoom="9.65625000"
         inkscape:cx="16.0000000"
         inkscape:cy="20.1423948"
         inkscape:window-width="1014"
         inkscape:window-height="696"
         inkscape:window-x="0"
         inkscape:window-y="0" />
      <defs
         id="defs624">
        <linearGradient
           x1="0.0000000"
           y1="0.0000000"
           x2="1.0000000"
           y2="0.0000000"
           id="linearGradient625"
           gradientUnits="objectBoundingBox"
           spreadMethod="pad">
          <stop
             style="stop-color:#ff0000;stop-opacity:1.0000;"
             offset="0"
             id="stop626" />
          <stop
             style="stop-color:#ffff8d;stop-opacity:0;"
             offset="1"
             id="stop627" />
        </linearGradient>
        <linearGradient
           id="linearGradient628"
           xlink:href="#linearGradient556"
           x1="0.98450798"
           y1="0.96875602"
           x2="-0.57364303"
           y2="-0.17187500" />
      </defs>
      <path
         d="M 60.017250,23.996480 C 59.535490,18.425230 39.281510,-0.15599700 34.692100,1.5259790 C 26.268240,2.8751330 27.803180,12.489770 24.473330,13.673080 C 21.120740,14.260300 -7.9726380,17.441910 5.1873240,48.658930 C 7.5815710,54.250870 9.1023270,55.299830 11.604880,57.133110 C 14.040100,58.781430 17.950090,58.877900 21.120590,55.312400 C 24.016750,51.009470 22.766230,46.767430 21.423010,43.203620 C 17.196120,32.535290 24.995630,32.407270 29.309690,30.155090 C 30.317990,33.888400 32.175920,42.698680 34.680690,42.576120 C 37.185480,42.453580 60.640890,35.124710 60.017250,23.996480 z "
         style="font-size:12.000000;fill:#0d3c07;fill-rule:evenodd"
         id="path582"
         sodipodi:nodetypes="cccsscsccc" />
      <path
         d="M 56.433940,23.640700 C 56.276210,19.466670 39.112940,4.6409650 35.346400,6.0968920 C 31.579670,7.5528960 33.493080,12.858510 31.878060,15.805470 C -4.8076500,16.564390 4.7580020,57.553800 16.642540,52.800070 C 23.151310,50.275780 12.059250,39.661780 17.218760,32.468840 C 21.594820,26.193410 33.149370,25.013740 33.386840,26.557340 C 33.861790,29.644590 34.445910,38.875310 36.468690,38.679480 C 38.491500,38.483650 57.315950,28.026130 56.433940,23.640700 z "
         style="font-size:12.000000;fill:#2aaf18;fill-rule:evenodd"
         id="path581"
         sodipodi:nodetypes="ccccsccc" />
      <path
         d="M 6.8352450,41.705740 C 8.2714650,32.533620 10.385640,27.155740 15.382940,23.375040 C 20.881760,19.001950 30.216430,18.331080 30.498490,17.535700 C 30.780510,16.740340 23.728560,18.856460 18.281610,20.485630 C 8.0695230,23.497430 5.9405250,35.376650 6.8352450,41.705740 z "
         style="font-size:12.000000;fill:#ffffff;fill-rule:evenodd"
         id="path588"
         sodipodi:nodetypes="cscsc" />
      <path
         d="M 48.109320,19.723600 C 46.948020,18.368760 38.772470,11.538380 36.542440,11.063040 C 34.312540,10.587840 35.798210,14.704680 35.798210,14.704680 C 35.798210,14.704680 47.191470,18.186730 48.109320,19.723600 z "
         style="font-size:12.000000;fill:#ffffff;fill-rule:evenodd"
         id="path589"
         sodipodi:nodetypes="cccc" />
      <path
         style="font-size:12.000000;fill:none;fill-rule:evenodd;stroke-width:1.0000000pt"
         d="M 48.899740,35.686010 C 48.899740,35.686010 58.055520,31.863590 58.040050,31.983620 C 58.024580,32.103630 56.336310,30.055790 56.336310,30.055790 L 53.963080,30.481970 L 48.701870,32.488120 L 48.899740,35.686010 z "
         id="path576" />
      <path
         style="fill:#1f8b10;fill-opacity:0.98989999;fill-rule:evenodd;stroke:none;stroke-width:1.0000000pt;stroke-linecap:butt;stroke-linejoin:miter;stroke-opacity:1.0000000"
         d="M 56.322580,23.612900 C 57.290330,29.419350 36.193550,39.096770 36.193550,39.096770 C 34.258060,37.548390 33.096770,27.096780 31.161290,25.741930 C 27.677420,27.290320 16.838710,30.387090 16.258070,34.451610 C 15.677410,38.516130 18.580650,46.645160 18.967750,48.580640 C 19.741940,51.483880 17.225810,54.193550 14.709680,53.032260 C 12.193550,51.870970 11.806450,49.548380 11.806450,49.548380 C 11.806450,49.548380 14.516130,49.548390 14.903230,47.419350 C 15.290320,45.290320 9.6774200,34.838710 12.580650,30.774190 C 15.483870,26.709680 27.096770,21.096780 34.258060,21.677420 L 37.161290,33.677410 C 37.161290,33.677410 40.064510,33.483880 56.322580,23.612900 z "
         id="path615"
         sodipodi:nodetypes="cccccccccccc" />
    </g>
    <g
       id="g855"
       transform="matrix(-0.383874,0.000000,0.000000,-0.326431,29.59929,29.54385)">
      <sodipodi:namedview
         id="namedview856"
         inkscape:zoom="9.65625000"
         inkscape:cx="16.0000000"
         inkscape:cy="20.1423948"
         inkscape:window-width="1014"
         inkscape:window-height="696"
         inkscape:window-x="0"
         inkscape:window-y="0" />
      <defs
         id="defs857">
        <linearGradient
           x1="0.0000000"
           y1="0.0000000"
           x2="1.0000000"
           y2="0.0000000"
           id="linearGradient858"
           gradientUnits="objectBoundingBox"
           spreadMethod="pad">
          <stop
             style="stop-color:#ff0000;stop-opacity:1.0000;"
             offset="0"
             id="stop859" />
          <stop
             style="stop-color:#ffff8d;stop-opacity:0;"
             offset="1"
             id="stop860" />
        </linearGradient>
        <linearGradient
           id="linearGradient861"
           xlink:href="#linearGradient556"
           x1="0.98450798"
           y1="0.96875602"
           x2="-0.57364303"
           y2="-0.17187500" />
      </defs>
      <path
         d="M 60.017250,23.996480 C 59.535490,18.425230 39.281510,-0.15599700 34.692100,1.5259790 C 26.268240,2.8751330 27.803180,12.489770 24.473330,13.673080 C 21.120740,14.260300 -7.9726380,17.441910 5.1873240,48.658930 C 7.5815710,54.250870 9.1023270,55.299830 11.604880,57.133110 C 14.040100,58.781430 17.950090,58.877900 21.120590,55.312400 C 24.016750,51.009470 22.766230,46.767430 21.423010,43.203620 C 17.196120,32.535290 24.995630,32.407270 29.309690,30.155090 C 30.317990,33.888400 32.175920,42.698680 34.680690,42.576120 C 37.185480,42.453580 60.640890,35.124710 60.017250,23.996480 z "
         style="font-size:12.000000;fill:#0d3c07;fill-rule:evenodd"
         id="path862"
         sodipodi:nodetypes="cccsscsccc" />
      <path
         d="M 56.433940,23.640700 C 56.276210,19.466670 39.112940,4.6409650 35.346400,6.0968920 C 31.579670,7.5528960 33.493080,12.858510 31.878060,15.805470 C -4.8076500,16.564390 4.7580020,57.553800 16.642540,52.800070 C 23.151310,50.275780 12.059250,39.661780 17.218760,32.468840 C 21.594820,26.193410 33.149370,25.013740 33.386840,26.557340 C 33.861790,29.644590 34.445910,38.875310 36.468690,38.679480 C 38.491500,38.483650 57.315950,28.026130 56.433940,23.640700 z "
         style="font-size:12.000000;fill:#2aaf18;fill-rule:evenodd"
         id="path863"
         sodipodi:nodetypes="ccccsccc" />
      <path
         d="M 6.8352450,41.705740 C 8.2714650,32.533620 10.385640,27.155740 15.382940,23.375040 C 20.881760,19.001950 30.216430,18.331080 30.498490,17.535700 C 30.780510,16.740340 23.728560,18.856460 18.281610,20.485630 C 8.0695230,23.497430 5.9405250,35.376650 6.8352450,41.705740 z "
         style="font-size:12.000000;fill:#ffffff;fill-rule:evenodd"
         id="path864"
         sodipodi:nodetypes="cscsc" />
      <path
         d="M 48.109320,19.723600 C 46.948020,18.368760 38.772470,11.538380 36.542440,11.063040 C 34.312540,10.587840 35.798210,14.704680 35.798210,14.704680 C 35.798210,14.704680 47.191470,18.186730 48.109320,19.723600 z "
         style="font-size:12.000000;fill:#ffffff;fill-rule:evenodd"
         id="path865"
         sodipodi:nodetypes="cccc" />
      <path
         style="font-size:12.000000;fill:none;fill-rule:evenodd;stroke-width:1.0000000pt"
         d="M 48.899740,35.686010 C 48.899740,35.686010 58.055520,31.863590 58.040050,31.983620 C 58.024580,32.103630 56.336310,30.055790 56.336310,30.055790 L 53.963080,30.481970 L 48.701870,32.488120 L 48.899740,35.686010 z "
         id="path866" />
      <path
         style="fill:#1f8b10;fill-opacity:0.98989999;fill-rule:evenodd;stroke:none;stroke-width:1.0000000pt;stroke-linecap:butt;stroke-linejoin:miter;stroke-opacity:1.0000000"
         d="M 56.322580,23.612900 C 57.290330,29.419350 36.193550,39.096770 36.193550,39.096770 C 34.258060,37.548390 33.096770,27.096780 31.161290,25.741930 C 27.677420,27.290320 16.838710,30.387090 16.258070,34.451610 C 15.677410,38.516130 18.580650,46.645160 18.967750,48.580640 C 19.741940,51.483880 17.225810,54.193550 14.709680,53.032260 C 12.193550,51.870970 11.806450,49.548380 11.806450,49.548380 C 11.806450,49.548380 14.516130,49.548390 14.903230,47.419350 C 15.290320,45.290320 9.6774200,34.838710 12.580650,30.774190 C 15.483870,26.709680 27.096770,21.096780 34.258060,21.677420 L 37.161290,33.677410 C 37.161290,33.677410 40.064510,33.483880 56.322580,23.612900 z "
         id="path867"
         sodipodi:nodetypes="cccccccccccc" />
    </g>
  </g>
</svg>
