<?xml version="1.0" encoding="UTF-8" standalone="no"?>
<!-- Created with Sodipodi ("http://www.sodipodi.com/") -->
<svg
   xmlns:dc="http://purl.org/dc/elements/1.1/"
   xmlns:cc="http://web.resource.org/cc/"
   xmlns:rdf="http://www.w3.org/1999/02/22-rdf-syntax-ns#"
   xmlns:svg="http://www.w3.org/2000/svg"
   xmlns="http://www.w3.org/2000/svg"
   xmlns:xlink="http://www.w3.org/1999/xlink"
   xmlns:sodipodi="http://sodipodi.sourceforge.net/DTD/sodipodi-0.dtd"
   xmlns:inkscape="http://www.inkscape.org/namespaces/inkscape"
   id="svg704"
   sodipodi:version="0.32"
   width="72pt"
   height="72pt"
   sodipodi:docbase="/home/nathan/GNUtoon/scalable/actions"
   sodipodi:docname="gnome-session-suspend.svg"
   inkscape:version="0.45.1"
   inkscape:output_extension="org.inkscape.output.svg.inkscape">
  <metadata
     id="metadata37">
    <rdf:RDF>
      <cc:Work
         rdf:about="">
        <dc:format>image/svg+xml</dc:format>
        <dc:type
           rdf:resource="http://purl.org/dc/dcmitype/StillImage" />
      </cc:Work>
    </rdf:RDF>
  </metadata>
  <defs
     id="defs706">
    <linearGradient
       id="linearGradient734">
      <stop
         style="stop-color:#2a2535;stop-opacity:1;"
         offset="0.000000"
         id="stop735" />
      <stop
         style="stop-color:#e3e1cf;stop-opacity:1;"
         offset="1.000000"
         id="stop736" />
    </linearGradient>
    <linearGradient
       id="linearGradient724">
      <stop
         style="stop-color:#ffffff;stop-opacity:0.490196;"
         offset="0.000000"
         id="stop725" />
      <stop
         style="stop-color:#ffffff;stop-opacity:0.176471;"
         offset="1.000000"
         id="stop726" />
    </linearGradient>
    <linearGradient
       id="linearGradient718">
      <stop
         style="stop-color:#e3e1cf;stop-opacity:1;"
         offset="0.000000"
         id="stop719" />
      <stop
         style="stop-color:#ffffff;stop-opacity:1;"
         offset="1.000000"
         id="stop720" />
    </linearGradient>
    <linearGradient
       xlink:href="#linearGradient718"
       id="linearGradient721"
       x1="45.4330635"
       y1="41.9262352"
       x2="24.0375099"
       y2="27.2048512"
       gradientUnits="userSpaceOnUse"
       spreadMethod="pad"
       gradientTransform="matrix(0.962434,0.000000,0.000000,0.900183,2.684005,-0.194969)" />
    <linearGradient
       xlink:href="#linearGradient724"
       id="linearGradient723"
       x1="40.2607956"
       y1="39.8445053"
       x2="37.3197212"
       y2="68.6665039"
       gradientUnits="userSpaceOnUse"
       spreadMethod="pad"
       gradientTransform="matrix(1.103416,0.000000,0.000000,0.785167,2.684005,-0.194969)" />
    <linearGradient
       xlink:href="#linearGradient724"
       id="linearGradient732" />
    <radialGradient
       xlink:href="#linearGradient734"
       id="radialGradient733"
       cx="33.2134209"
       cy="118.190964"
       fx="33.2134209"
       fy="118.190964"
       r="14.8945398"
       gradientUnits="userSpaceOnUse"
       spreadMethod="pad"
       gradientTransform="scale(1.559286,0.641319)" />
    <radialGradient
       xlink:href="#linearGradient734"
       id="radialGradient738" />
  </defs>
  <sodipodi:namedview
     id="base"
     inkscape:zoom="4"
     inkscape:cx="9.0909119"
     inkscape:cy="52.554348"
     inkscape:window-width="1024"
     inkscape:window-height="701"
     inkscape:window-x="0"
     inkscape:window-y="42"
     inkscape:current-layer="svg704" />
  <path
     style="font-size:12.000000;fill:#000000;fill-opacity:0.29999998;fill-rule:evenodd;stroke-width:1.0000000pt"
     d="M 71.980115,79.808199 C 71.359475,86.383459 59.855583,90.275307 46.301777,88.495435 C 32.747972,86.715562 22.251484,79.934645 22.872123,73.359385 C 23.492763,66.784125 34.996655,62.892277 48.550461,64.672149 C 62.104267,66.452022 72.600755,73.232939 71.980115,79.808199 z "
     id="path744" />
  <path
     style="fill:#000000;fill-opacity:0.29999998;fill-rule:evenodd;stroke:none;stroke-width:1.0000000pt;stroke-linecap:butt;stroke-linejoin:miter;stroke-opacity:1.0000000"
     d="M 17.295659,57.836267 C 15.509985,55.287095 6.8485501,34.348241 14.273914,3.9926228 C 44.811352,-2.2732355 71.276649,9.4060186 85.016271,18.188785 C 87.820006,24.006239 83.032668,67.709609 72.779442,71.991935 C 65.903557,74.234119 29.924234,73.616031 17.295659,57.836267 z "
     id="path743"
     sodipodi:nodetypes="ccccc" />
  <path
     style="font-size:12.000000;fill:#211301;fill-rule:evenodd;stroke-width:1.0000000pt"
     d="M 68.305224,78.171488 C 67.731001,84.055446 57.087504,87.538118 44.547414,85.945376 C 32.007323,84.352633 22.295889,78.284641 22.870113,72.400683 C 23.444337,66.516725 34.087833,63.034053 46.627924,64.626796 C 59.168015,66.219538 68.879448,72.287530 68.305224,78.171488 z "
     id="path739" />
  <path
     sodipodi:type="arc"
     style="fill:url(#radialGradient733);fill-opacity:1.0000000;fill-rule:evenodd;stroke:none;stroke-width:1.0000000pt;stroke-linecap:butt;stroke-linejoin:miter;stroke-opacity:1.0000000"
     id="path731"
     d="M 67.656265 79.687500 A 19.375004 7.9687538 0 1 1  28.906258,79.687500 A 19.375004 7.9687538 0 1 1  67.656265 79.687500 z"
     sodipodi:cx="48.281261"
     sodipodi:cy="79.687500"
     sodipodi:rx="19.375004"
     sodipodi:ry="7.9687538"
     transform="matrix(0.970062,0.117700,-0.108001,1.057171,7.358065,-15.87606)" />
  <path
     style="font-size:12.000000;fill:#211301;fill-opacity:1.0000000;fill-rule:evenodd;stroke-width:1.0000000pt"
     d="M 60.350746,72.045705 C 59.932471,75.217776 53.598048,77.256676 46.211331,76.596813 C 38.824719,75.936961 33.169237,72.826991 33.587512,69.654920 C 34.005788,66.482849 40.340210,64.443949 47.726822,65.103802 C 55.113539,65.763665 60.769022,68.873634 60.350746,72.045705 z "
     id="path730" />
  <path
     style="font-size:12.000000;fill:#bebdae;fill-opacity:1.0000000;fill-rule:evenodd;stroke-width:1.0000000pt"
     d="M 58.608387,71.075414 C 58.244573,73.602373 52.734933,75.226614 46.310015,74.700948 C 39.885189,74.175290 34.966090,71.697802 35.329905,69.170844 C 35.693720,66.643886 41.203359,65.019644 47.628185,65.545303 C 54.053103,66.070969 58.972202,68.548456 58.608387,71.075414 z "
     id="path728" />
  <path
     style="fill:#211301;fill-opacity:1.0000000;fill-rule:evenodd;stroke:none;stroke-width:1.0000000pt;stroke-linecap:butt;stroke-linejoin:miter;stroke-opacity:1.0000000"
     d="M 12.970025,58.052550 C 11.184351,55.503378 2.5229161,34.564524 9.9482798,4.2089058 C 40.485718,-2.0569525 66.951015,9.6223016 80.690637,18.405068 C 83.494372,24.222522 78.707034,67.925892 68.453808,72.208218 C 61.577923,74.450402 25.598600,73.832314 12.970025,58.052550 z "
     id="path715"
     sodipodi:nodetypes="ccccc" />
  <path
     style="fill:url(#linearGradient721);fill-opacity:1.0000000;fill-rule:evenodd;stroke:none;stroke-width:1.0000000pt;stroke-linecap:butt;stroke-linejoin:miter;stroke-opacity:1.0000000"
     d="M 17.082179,56.379443 C 15.627729,53.616212 7.4833808,38.054554 13.009981,8.0948430 C 44.278594,2.4228536 65.075842,14.493983 78.019659,21.765764 C 79.474015,27.001539 74.674593,66.269065 66.821069,68.596035 C 60.131030,70.777616 26.680837,69.468649 17.082179,56.379443 z "
     id="path713"
     sodipodi:nodetypes="ccccc" />
  <path
     style="fill:#b5a794;fill-opacity:1.0000000;fill-rule:evenodd;stroke:none;stroke-width:1.0000000pt;stroke-linecap:butt;stroke-linejoin:miter;stroke-opacity:1.0000000"
     d="M 20.427151,17.548177 L 18.100181,18.275309 C 17.809310,20.456890 14.173466,38.200036 17.663921,46.053560 C 21.736119,52.888988 23.626735,54.197955 23.190475,53.470730 C 18.245570,45.180946 16.645825,32.528000 20.427151,17.548177 z "
     id="path717"
     sodipodi:nodetypes="ccccc" />
  <path
     style="fill:#000000;fill-opacity:1.0000000;fill-rule:evenodd;stroke:none;stroke-width:1.0000000pt;stroke-linecap:butt;stroke-linejoin:miter;stroke-opacity:1.0000000"
     d="M 20.213815,17.197252 C 20.213815,17.197252 14.333065,38.609484 21.872550,51.577300 C 27.602558,59.569202 46.149641,65.902369 61.379448,61.378678 C 64.244500,57.759726 70.728312,38.157067 64.696821,27.300209 C 62.434927,23.530419 35.142042,11.919661 20.213815,17.197252 z "
     id="path711"
     sodipodi:nodetypes="ccccc" />
  <path
     style="fill:#000000;fill-opacity:1.0000000;fill-rule:evenodd;stroke:none;stroke-width:1.0000000pt;stroke-linecap:butt;stroke-linejoin:miter;stroke-opacity:1.0000000"
     d="M 25.081134,46.180520 L 24.945092,53.654022 C 30.701569,61.038349 48.369616,64.481911 53.731937,62.042465 C 53.577168,60.803818 53.422300,58.035909 53.131390,56.872466 C 49.350051,55.999834 31.700731,53.419491 25.081134,46.180520 z "
     id="path709"
     sodipodi:nodetypes="ccccc" />
  <path
     style="fill:#b5a794;fill-opacity:1.0000000;fill-rule:evenodd;stroke:none;stroke-width:1.0000000pt;stroke-linecap:butt;stroke-linejoin:miter;stroke-opacity:1.0000000"
     d="M 78.310530,22.056635 C 78.310530,22.056635 73.511201,22.202117 73.365812,22.202117 C 73.220237,22.202117 74.092944,34.564099 73.511201,39.072650 C 72.929459,43.581108 71.475102,54.197955 70.602489,56.961185 C 69.729875,59.724509 64.639581,68.596035 64.203321,69.177778 C 63.766968,69.759520 65.366806,69.032295 67.839165,68.305164 C 74.529204,60.597029 77.874270,42.126844 78.310530,22.056635 z "
     id="path716"
     sodipodi:nodetypes="ccccccc" />
  <path
     style="fill:#211301;fill-opacity:1.0000000;fill-rule:evenodd;stroke:none;stroke-width:1.0000000pt;stroke-linecap:butt;stroke-linejoin:miter;stroke-opacity:1.0000000"
     d="M 63.912450,68.886906 C 63.912450,68.886906 75.256429,60.015380 72.347716,22.783860 C 69.875264,20.311408 66.093938,17.548177 66.093938,17.548177 C 66.093938,17.548177 73.365719,21.038632 73.802072,22.202117 C 74.529204,23.801863 74.965464,62.342350 63.912450,68.886906 z "
     id="path712"
     sodipodi:nodetypes="ccccc" />
  <path
     style="fill:#fbfbfb;fill-opacity:1.0000000;fill-rule:evenodd;stroke:none;stroke-width:1.0000000pt;stroke-linecap:butt;stroke-linejoin:miter;stroke-opacity:1.0000000"
     d="M 27.408061,72.959104 L 28.717029,71.941101 C 33.370969,80.085496 52.422989,80.958110 53.877345,80.667239 C 55.331701,80.376367 37.733944,85.902921 27.408061,72.959104 z "
     id="path740"
     sodipodi:nodetypes="cccc" />
  <path
     style="fill:none;fill-opacity:1.0000000;fill-rule:evenodd;stroke:#000000;stroke-width:0.81443948;stroke-linecap:round;stroke-linejoin:round;stroke-opacity:1.0000000"
     d="M 28.280675,50.562018 C 28.280675,49.107661 28.280675,54.925179 28.280675,54.925179"
     id="path741"
     sodipodi:nodetypes="cc" />
  <path
     style="fill:none;fill-opacity:1.0000000;fill-rule:evenodd;stroke:#000000;stroke-width:0.81443948;stroke-linecap:round;stroke-linejoin:round;stroke-opacity:1.0000000"
     d="M 46.896442,57.106627 C 46.896442,55.652270 46.896442,61.469788 46.896442,61.469788"
     id="path742"
     sodipodi:nodetypes="cc" />
</svg>
