<?xml version="1.0" encoding="UTF-8" standalone="no"?>
<!-- Created with Sodipodi ("http://www.sodipodi.com/") -->
<svg
   xmlns:dc="http://purl.org/dc/elements/1.1/"
   xmlns:cc="http://web.resource.org/cc/"
   xmlns:rdf="http://www.w3.org/1999/02/22-rdf-syntax-ns#"
   xmlns:svg="http://www.w3.org/2000/svg"
   xmlns="http://www.w3.org/2000/svg"
   xmlns:xlink="http://www.w3.org/1999/xlink"
   xmlns:sodipodi="http://sodipodi.sourceforge.net/DTD/sodipodi-0.dtd"
   xmlns:inkscape="http://www.inkscape.org/namespaces/inkscape"
   id="svg548"
   sodipodi:version="0.32"
   width="72pt"
   height="72pt"
   sodipodi:docbase="/home/tweenk/GNUtoon/apps"
   sodipodi:docname="gnome-session-suspend.svg"
   inkscape:version="0.45.1"
   inkscape:output_extension="org.inkscape.output.svg.inkscape">
  <metadata
     id="metadata47">
    <rdf:RDF>
      <cc:Work
         rdf:about="">
        <dc:format>image/svg+xml</dc:format>
        <dc:type
           rdf:resource="http://purl.org/dc/dcmitype/StillImage" />
      </cc:Work>
    </rdf:RDF>
  </metadata>
  <defs
     id="defs550">
    <linearGradient
       inkscape:collect="always"
       id="linearGradient8660">
      <stop
         style="stop-color:#31baff;stop-opacity:1;"
         offset="0"
         id="stop8662" />
      <stop
         style="stop-color:#31baff;stop-opacity:0;"
         offset="1"
         id="stop8664" />
    </linearGradient>
    <linearGradient
       id="linearGradient577">
      <stop
         style="stop-color:#ffbd00;stop-opacity:1;"
         offset="0.000000"
         id="stop578" />
      <stop
         style="stop-color:#ff6d19;stop-opacity:1;"
         offset="1.000000"
         id="stop579" />
    </linearGradient>
    <linearGradient
       id="linearGradient568">
      <stop
         style="stop-color:#cfd2c2;stop-opacity:1;"
         offset="0.000000"
         id="stop569" />
      <stop
         style="stop-color:#595a59;stop-opacity:1;"
         offset="1.000000"
         id="stop570" />
    </linearGradient>
    <linearGradient
       id="linearGradient557">
      <stop
         style="stop-color:#ffff00;stop-opacity:1;"
         offset="0.000000"
         id="stop558" />
      <stop
         style="stop-color:#9d0000;stop-opacity:1;"
         offset="1.000000"
         id="stop559" />
    </linearGradient>
    <linearGradient
       inkscape:collect="always"
       xlink:href="#linearGradient577"
       id="linearGradient6658"
       gradientUnits="userSpaceOnUse"
       spreadMethod="pad"
       x1="0.93126918"
       y1="52.570902"
       x2="6.9733135"
       y2="60.732933"
       gradientTransform="scale(0.9497636,1.0528935)" />
    <linearGradient
       inkscape:collect="always"
       xlink:href="#linearGradient568"
       id="linearGradient6660"
       gradientUnits="userSpaceOnUse"
       gradientTransform="scale(1.566986,0.638168)"
       spreadMethod="pad"
       x1="23.4216499"
       y1="36.1659203"
       x2="29.5057697"
       y2="61.8460312" />
    <radialGradient
       inkscape:collect="always"
       xlink:href="#linearGradient557"
       id="radialGradient6662"
       gradientUnits="userSpaceOnUse"
       gradientTransform="scale(1.494434,0.66915)"
       spreadMethod="pad"
       cx="22.8891735"
       cy="42.2030029"
       fx="22.8891735"
       fy="42.2030029"
       r="27.1401024" />
    <linearGradient
       inkscape:collect="always"
       xlink:href="#linearGradient557"
       id="linearGradient6664"
       gradientUnits="userSpaceOnUse"
       gradientTransform="scale(1.395965,0.71635)"
       spreadMethod="pad"
       x1="19.4011784"
       y1="49.7517815"
       x2="30.0717945"
       y2="59.1887779" />
    <linearGradient
       inkscape:collect="always"
       xlink:href="#linearGradient557"
       id="linearGradient6666"
       gradientUnits="userSpaceOnUse"
       gradientTransform="scale(1.241185,0.805681)"
       spreadMethod="pad"
       x1="55.4934044"
       y1="45.3989868"
       x2="49.2034531"
       y2="41.1385117" />
    <linearGradient
       inkscape:collect="always"
       xlink:href="#linearGradient568"
       id="linearGradient6668"
       gradientUnits="userSpaceOnUse"
       gradientTransform="scale(1.301968,0.768068)"
       spreadMethod="pad"
       x1="3.44396615"
       y1="54.6343613"
       x2="12.9325171"
       y2="64.2783432" />
    <linearGradient
       inkscape:collect="always"
       xlink:href="#linearGradient577"
       id="linearGradient6670"
       gradientUnits="userSpaceOnUse"
       gradientTransform="scale(1.045857,0.956154)"
       spreadMethod="pad"
       x1="25.7572994"
       y1="57.0723801"
       x2="24.1922855"
       y2="73.3503952" />
    <linearGradient
       inkscape:collect="always"
       xlink:href="#linearGradient568"
       id="linearGradient6672"
       gradientUnits="userSpaceOnUse"
       spreadMethod="pad"
       x1="61.635069"
       y1="42.958833"
       x2="65.301711"
       y2="50.903113"
       gradientTransform="scale(1.0817637,0.9244163)" />
    <linearGradient
       inkscape:collect="always"
       xlink:href="#linearGradient577"
       id="linearGradient6674"
       gradientUnits="userSpaceOnUse"
       gradientTransform="scale(0.99172,1.008349)"
       spreadMethod="pad"
       x1="67.5966949"
       y1="48.1304512"
       x2="73.0329590"
       y2="62.9485321" />
    <linearGradient
       inkscape:collect="always"
       xlink:href="#linearGradient8660"
       id="linearGradient8666"
       x1="-5.8412147"
       y1="-3.5184457"
       x2="23.175722"
       y2="26.113005"
       gradientUnits="userSpaceOnUse"
       gradientTransform="translate(-0.7739558,-1.2162162)" />
  </defs>
  <sodipodi:namedview
     id="base"
     inkscape:zoom="4.5222222"
     inkscape:cx="49.911308"
     inkscape:cy="56.553273"
     inkscape:window-width="795"
     inkscape:window-height="619"
     inkscape:window-x="114"
     inkscape:window-y="74"
     inkscape:current-layer="svg548">
    <sodipodi:guide
       orientation="vertical"
       position="0.00000000"
       id="guide552" />
    <sodipodi:guide
       orientation="horizontal"
       position="72.0000076"
       id="guide553" />
    <sodipodi:guide
       orientation="vertical"
       position="71.7500076"
       id="guide554" />
    <sodipodi:guide
       orientation="horizontal"
       position="0.25000003"
       id="guide555" />
  </sodipodi:namedview>
  <path
     d="M 4.7300725,4.2564733 C 6.6370539,2.6076598 46.680908,2.6100092 48.33771,4.2564733 C 50.011272,5.7707617 49.432634,45.09534 47.891216,46.673459 C 46.592754,48.00638 6.3462274,48.393415 4.7300725,46.82229 C 2.9933482,44.985123 2.6618913,6.0649353 4.7300725,4.2564733 z "
     id="path712"
     style="opacity:0.29636901;fill:#000000;fill-opacity:1;fill-rule:evenodd;stroke:none;stroke-width:1.875;stroke-linecap:butt;stroke-linejoin:miter;stroke-dasharray:none;stroke-opacity:1"
     sodipodi:nodetypes="cssss" />
  <path
     d="M 3.6624909,2.9412585 C 5.4703149,1.3781774 43.432022,1.3804052 45.002676,2.9412585 C 46.589218,4.376808 46.040667,41.65664 44.579398,43.152702 C 43.348451,44.416315 5.1946103,44.783225 3.6624909,43.293794 C 2.0160701,41.552153 1.7018477,4.6556862 3.6624909,2.9412585 z "
     id="path684"
     style="font-size:12px;fill:#558ada;fill-rule:evenodd;stroke:#260000;stroke-width:1.59486783"
     sodipodi:nodetypes="cssss" />
  <path
     d="M 4.1317546,38.880979 C 3.5147875,38.264012 3.1230615,6.0943279 4.4139399,3.8899696 C 5.5384043,2.1108804 40.623334,3.2741473 41.239156,3.8899696 C 41.799107,4.4499213 11.059903,4.5393054 7.9412597,7.4172882 C 4.4330035,10.513727 4.6905606,39.439785 4.1317546,38.880979 z "
     id="path691"
     style="fill:url(#linearGradient8666);fill-opacity:1;fill-rule:evenodd;stroke:none;stroke-width:1pt;stroke-linecap:butt;stroke-linejoin:miter;stroke-opacity:1"
     sodipodi:nodetypes="cssss" />
  <path
     style="fill:#31baff;fill-opacity:1;stroke:#260000;stroke-width:1.59486783;stroke-linecap:butt;stroke-miterlimit:4;stroke-opacity:1"
     id="path1098"
     d="M 24.134855,9.4273625 C 15.917341,9.4273625 9.2494217,16.095281 9.2494217,24.312796 C 9.2494217,32.530311 15.917341,39.198231 24.134855,39.19823 C 32.35237,39.19823 39.020287,32.53031 39.020289,24.312796 C 39.020289,16.095281 32.35237,9.4273625 24.134855,9.4273625 z M 24.134855,11.71334 C 30.271986,11.71334 35.245768,16.687122 35.245768,22.824253 C 35.245769,28.961383 30.271986,33.935166 24.134855,33.935166 C 17.997725,33.935165 13.023942,28.961383 13.023942,22.824253 C 13.023941,16.687122 17.997725,11.71334 24.134855,11.71334 z " />
  <path
     sodipodi:nodetypes="cssss"
     style="fill:#31baff;fill-opacity:1;stroke:#260000;stroke-width:1.59486783;stroke-linecap:butt;stroke-linejoin:round;stroke-miterlimit:4;stroke-opacity:1"
     id="rect1725"
     d="M 22.718075,7.4395558 C 22.857705,6.6346656 25.412006,6.6346656 25.551635,7.4395558 C 26.356526,12.079305 26.356526,19.133725 25.551635,23.773475 C 25.412006,24.578365 22.857705,24.578365 22.718075,23.773475 C 21.913185,19.133725 21.913185,12.079305 22.718075,7.4395558 z " />
  <path
     sodipodi:nodetypes="cssss"
     style="opacity:0.7;fill:#a9e2f5;fill-opacity:1;fill-rule:evenodd;stroke:none;stroke-width:0.10632452;stroke-linecap:butt;stroke-linejoin:miter;stroke-miterlimit:4;stroke-opacity:1"
     id="path6749"
     d="M 23.580118,8.1021583 C 23.627139,7.8129768 24.482271,7.9444688 24.566317,8.0405207 C 24.626092,8.1088346 24.048205,8.3700127 24.01158,8.5952574 C 23.637289,10.897147 23.218312,15.88644 23.148657,15.806834 C 23.074492,15.722074 23.216224,10.340111 23.580118,8.1021583 z " />
  <g
     transform="matrix(0.8505962,0,0,0.8505962,-7.3695388,-2.4668329)"
     id="g8770"
     style="stroke:none;fill:#a9e2f5;fill-opacity:1">
    <path
       sodipodi:nodetypes="cssss"
       style="opacity:0.7;fill:#a9e2f5;fill-opacity:1;fill-rule:evenodd;stroke:none;stroke-width:0.125;stroke-linecap:butt;stroke-linejoin:miter;stroke-miterlimit:4;stroke-opacity:1"
       transform="translate(7.038014,1.483363)"
       id="path9397"
       d="M 26.521739,13.985507 C 26.461345,13.876797 21.647455,15.798255 19.710145,17.318841 C 16.021042,20.214402 14.286368,25.541549 14.347827,25.652174 C 14.407141,25.75894 18.329733,19.58002 20.072464,17.971014 C 23.035117,15.235694 26.582118,14.094188 26.521739,13.985507 z " />
  </g>
  <g
     id="g6637"
     transform="matrix(0.8920776,0,0,0.8920776,8.8114792,11.995598)">
    <path
       id="path593"
       d="M 4.0625,64.375 L 2.8125,71.25 L 7.5,69.375 L 6.5625,75.9375 L 47.8125,86.5625 L 46.25,76.5625 L 49.375,80 L 51.875,76.25 L 51.5625,85 L 86.5625,69.375 L 87.8125,55 L 89.0625,55.3125 C 89.0625,55.3125 89.0625,45.3125 89.0625,45 C 89.0625,44.6875 57.8125,32.5 57.8125,32.5 L 5.625,52.8125"
       style="fill:#000000;fill-opacity:0.3;fill-rule:evenodd;stroke:none;stroke-width:1pt;stroke-linecap:butt;stroke-linejoin:miter;stroke-opacity:1" />
    <path
       sodipodi:nodetypes="cccc"
       id="path592"
       d="M 4.6875,46.875 C 4.0625,52.5 -0.3125,54.6875 0.625,67.5 C 8.75,67.8125 14.375,61.5625 14.375,61.5625 C 12.3958,58.9583 8.54167,53.2292 5.625,49.0625"
       style="fill:#000000;fill-opacity:1;fill-rule:evenodd;stroke:none;stroke-width:1pt;stroke-linecap:butt;stroke-linejoin:miter;stroke-opacity:1" />
    <path
       sodipodi:nodetypes="cccc"
       id="path590"
       d="M 7.1875,52.8125 C 3.4375,55.7292 2.5,61.1458 3.4375,65.3125 C 7.08333,63.75 10.7292,62.1875 14.375,60.625 C 11.3542,58.6458 8.95833,56.3542 7.1875,52.8125 z "
       style="fill:url(#linearGradient6658);fill-opacity:1;fill-rule:evenodd;stroke:none;stroke-width:1pt;stroke-linecap:butt;stroke-linejoin:miter;stroke-opacity:1" />
    <path
       sodipodi:nodetypes="ccccccc"
       id="path589"
       d="M 1.5625,38.75 C 3.125,45.3125 5.625,53.75 7.1875,60.3125 C 20.4167,63.4375 36.4583,69.6875 49.6875,72.8125 C 61.9792,66.3542 75.2083,57.3958 87.5,50.9375 C 88.2292,46.0417 88.9583,39.8958 89.6875,35 C 92.5,32.8125 56.25,11.875 41.25,17.1875 C 36.25,18.75 7.1875,35.3125 1.5625,38.75 z "
       style="fill:#000000;fill-opacity:1;fill-rule:evenodd;stroke:none;stroke-width:1pt;stroke-linecap:butt;stroke-linejoin:miter;stroke-opacity:1" />
    <path
       sodipodi:nodetypes="ccccc"
       id="path567"
       d="M 50.625,53.125 C 50.3125,52.8125 6.5625,40.9375 6.5625,40.9375 C 18.9583,34.4792 31.3542,28.0208 43.75,21.5625 C 58.75,22.6042 71.875,28.6458 84.0625,35.9375 C 72.9167,41.6667 61.7708,47.3958 50.625,53.125 z "
       style="fill:url(#linearGradient6660);fill-opacity:1;fill-rule:evenodd;stroke:none;stroke-width:1pt;stroke-linecap:butt;stroke-linejoin:miter;stroke-opacity:1" />
    <path
       sodipodi:nodetypes="ccccccc"
       id="path566"
       d="M 25.3125,34.0625 C 25.3125,35.5208 25.3125,36.9792 25.3125,38.4375 C 33.75,40.8333 42.5,45.1042 50.625,49.6875 C 57.0833,44.2708 63.2292,41.9792 70,38.75 C 70.1042,36.9792 70.2083,35.2083 70.3125,33.4375 C 61.875,30.3125 53.4375,27.1875 45,24.0625 C 38.125,25.8333 31.25,29.1667 25.3125,34.0625 z "
       style="fill:#000000;fill-opacity:1;fill-rule:evenodd;stroke:none;stroke-width:1pt;stroke-linecap:butt;stroke-linejoin:miter;stroke-opacity:1" />
    <path
       sodipodi:nodetypes="ccccc"
       id="path556"
       d="M 28.125,34.6875 C 35.7292,37.7083 43.3333,40.7292 50.9375,43.75 C 56.7708,40.7292 62.6042,37.7083 68.4375,34.6875 C 60.625,31.7708 52.8125,28.8542 45,25.9375 C 39.375,27.2917 34.0625,30.2083 28.125,34.6875 z "
       style="fill:url(#radialGradient6662);fill-opacity:1;fill-rule:evenodd;stroke:none;stroke-width:1pt;stroke-linecap:butt;stroke-linejoin:miter;stroke-opacity:1" />
    <path
       sodipodi:nodetypes="ccccc"
       id="path562"
       d="M 50.625,44.375 L 49.6875,46.875 L 26.875,37.1875 L 27.1875,34.6875 L 50.625,44.375 z "
       style="fill:url(#linearGradient6664);fill-opacity:1;fill-rule:evenodd;stroke:none;stroke-width:1pt;stroke-linecap:butt;stroke-linejoin:miter;stroke-opacity:1" />
    <path
       sodipodi:nodetypes="ccccc"
       id="path564"
       d="M 50.9375,44.6875 L 50.625,46.875 L 68.4375,37.5 L 68.4375,35.3125 L 50.9375,44.6875 z "
       style="fill:url(#linearGradient6666);fill-opacity:1;fill-rule:evenodd;stroke:none;stroke-width:1pt;stroke-linecap:butt;stroke-linejoin:miter;stroke-opacity:1" />
    <path
       sodipodi:nodetypes="ccccc"
       id="path580"
       d="M 49.6875,54.0625 L 49.6875,67.1875 L 10.625,56.5625 L 6.875,41.5625 L 49.6875,54.0625 z "
       style="fill:url(#linearGradient6668);fill-opacity:1;fill-rule:evenodd;stroke:none;stroke-width:1pt;stroke-linecap:butt;stroke-linejoin:miter;stroke-opacity:1" />
    <path
       sodipodi:nodetypes="ccccc"
       id="path574"
       d="M 45.625,57.8125 C 42.1875,61.875 41.875,71.5625 42.8125,80.9375 C 36.5625,79.0625 10.625,72.1875 10.625,72.1875 C 11.0417,64.2708 10.2083,56.0417 14.6875,48.4375 C 23.9583,51.4583 34.7917,54.1667 45.625,57.8125 z "
       style="fill:#000000;fill-opacity:1;fill-rule:evenodd;stroke:none;stroke-width:1pt;stroke-linecap:butt;stroke-linejoin:miter;stroke-opacity:1" />
    <path
       sodipodi:nodetypes="ccccc"
       id="path572"
       d="M 16.5625,51.25 L 41.875,58.4375 C 39.8958,64.8958 39.1667,71.3542 39.6875,77.8125 C 39.6875,77.8125 13.4375,70 13.125,70 C 12.1875,65.3125 13.4375,54.0625 16.5625,51.25 z "
       style="fill:url(#linearGradient6670);fill-opacity:1;fill-rule:evenodd;stroke:none;stroke-width:1pt;stroke-linecap:butt;stroke-linejoin:miter;stroke-opacity:1" />
    <path
       id="path575"
       d="M 23.4375,52.8125 C 23.4375,52.8125 17.1875,67.5 20.9375,74.0625"
       style="fill:none;fill-opacity:1;fill-rule:evenodd;stroke:#000000;stroke-width:2.625;stroke-linecap:butt;stroke-linejoin:miter;stroke-dasharray:none;stroke-opacity:1" />
    <path
       sodipodi:nodetypes="cc"
       id="path576"
       d="M 34.6875,55.3125 C 34.375,55.625 29.0625,65.625 31.5625,75.9375"
       style="fill:none;fill-opacity:1;fill-rule:evenodd;stroke:#000000;stroke-width:2.5;stroke-linecap:butt;stroke-linejoin:miter;stroke-dasharray:none;stroke-opacity:1" />
    <path
       sodipodi:nodetypes="ccccc"
       id="path587"
       d="M 51.5625,53.75 L 51.25,66.5625 L 84.375,48.125 L 85.625,37.1875 L 51.5625,53.75 z "
       style="fill:url(#linearGradient6672);fill-opacity:1;fill-rule:evenodd;stroke:none;stroke-width:1pt;stroke-linecap:butt;stroke-linejoin:miter;stroke-opacity:1" />
    <path
       sodipodi:nodetypes="ccccc"
       id="path584"
       d="M 54.375,55.3125 C 57.5,61.6667 57.8125,68.9583 55,77.1875 C 59.375,75.625 81.875,66.25 85.3125,64.375 C 86.25,60 87.5,49.0625 81.25,42.8125 C 77.1875,44.375 59.0625,52.1875 54.375,55.3125 z "
       style="fill:#000000;fill-opacity:1;fill-rule:evenodd;stroke:none;stroke-width:1pt;stroke-linecap:butt;stroke-linejoin:miter;stroke-opacity:1" />
    <path
       sodipodi:nodetypes="ccccc"
       id="path582"
       d="M 57.5,56.5625 C 60,60.9375 59.375,67.8125 58.4375,72.8125 C 62.8125,72.1875 80.625,64.0625 83.125,62.8125 C 84.0625,57.5 84.0625,48.75 79.6875,46.25 C 78.125,47.5 61.875,54.0625 57.5,56.5625 z "
       style="fill:url(#linearGradient6674);fill-opacity:1;fill-rule:evenodd;stroke:none;stroke-width:1pt;stroke-linecap:butt;stroke-linejoin:miter;stroke-opacity:1" />
    <path
       sodipodi:nodetypes="cc"
       id="path585"
       d="M 64.375,53.125 C 64.375,53.125 68.4375,63.125 65.9375,70.625"
       style="fill:none;fill-opacity:1;fill-rule:evenodd;stroke:#000000;stroke-width:2;stroke-linecap:butt;stroke-linejoin:miter;stroke-dasharray:none;stroke-opacity:1" />
    <path
       sodipodi:nodetypes="cc"
       id="path586"
       d="M 74.375,48.4375 C 74.375,48.4375 79.6875,56.25 76.5625,66.25"
       style="fill:none;fill-opacity:1;fill-rule:evenodd;stroke:#000000;stroke-width:2;stroke-linecap:butt;stroke-linejoin:miter;stroke-dasharray:none;stroke-opacity:1" />
  </g>
</svg>
