<?xml version="1.0" encoding="UTF-8" standalone="no"?>
<!DOCTYPE svg PUBLIC "-//W3C//DTD SVG 20010904//EN"
"http://www.w3.org/TR/2001/REC-SVG-20010904/DTD/svg10.dtd">
<!-- Created with Sodipodi ("http://www.sodipodi.com/") -->
<svg
   version="1.0"
   x="0"
   y="0"
   width="24.000000pt"
   height="24.000000pt"
   id="svg604"
   sodipodi:version="0.32"
   sodipodi:docname="stock_strikethrough.svg"
   sodipodi:docbase="/home/zeus/.icons/gartoon/scalable/stock-gar"
   xmlns="http://www.w3.org/2000/svg"
   xmlns:sodipodi="http://sodipodi.sourceforge.net/DTD/sodipodi-0.dtd"
   xmlns:xlink="http://www.w3.org/1999/xlink"
   xmlns:inkscape="http://www.inkscape.org/namespaces/inkscape"
   inkscape:version="0.40"
   xmlns:rdf="http://www.w3.org/1999/02/22-rdf-syntax-ns#"
   xmlns:cc="http://web.resource.org/cc/"
   xmlns:dc="http://purl.org/dc/elements/1.1/">
  <metadata
     id="metadata13">
    <rdf:RDF
       id="RDF14">
      <cc:Work
         rdf:about=""
         id="Work15">
        <dc:format
           id="format16">image/svg+xml</dc:format>
        <dc:type
           id="type18"
           rdf:resource="http://purl.org/dc/dcmitype/StillImage" />
      </cc:Work>
    </rdf:RDF>
  </metadata>
  <sodipodi:namedview
     id="base"
     inkscape:zoom="5.0416667"
     inkscape:cx="36.000000"
     inkscape:cy="-7.8347107"
     inkscape:window-width="952"
     inkscape:window-height="844"
     inkscape:window-x="0"
     inkscape:window-y="25"
     inkscape:current-layer="svg604" />
  <defs
     id="defs606">
    <linearGradient
       id="linearGradient612">
      <stop
         style="stop-color:#7fa8e3;stop-opacity:0.7412;"
         offset="0"
         id="stop613" />
      <stop
         style="stop-color:#ffffff;stop-opacity:0;"
         offset="1"
         id="stop614" />
    </linearGradient>
    <linearGradient
       x1="50.6438866"
       y1="5.36792946"
       x2="35.7520943"
       y2="68.0443573"
       id="linearGradient615"
       xlink:href="#linearGradient612"
       gradientUnits="userSpaceOnUse"
       spreadMethod="pad"
       gradientTransform="matrix(0.311912,0.000000,0.000000,0.311912,1.879749,0.600119)" />
  </defs>
  <path
     d="M 7.8837751,28.404980 C 6.7389332,28.388214 4.8196196,27.688945 4.6520355,25.812448 C 4.0610590,23.916522 2.0066429,5.9967768 2.9979870,4.7486202 C 3.5102261,3.7659632 4.6256634,3.0446037 6.6102258,2.7945335 C 8.2340710,2.5458317 23.004749,0.60219248 24.093909,0.90386786 C 25.183108,1.2055632 26.041088,1.4606726 26.119440,2.9736764 C 26.038886,3.7965150 28.782361,20.579986 29.203249,21.569693 C 29.404073,22.728951 29.074411,24.348947 27.394905,24.882588 C 25.715421,25.416223 9.2095852,28.178485 7.8837751,28.404980 z "
     style="font-size:12.000000;fill:#3d4e67;fill-rule:evenodd;stroke-width:1.0000000"
     id="path609" />
  <path
     d="M 9.2064006,26.417379 C 8.0964648,26.563947 6.5547086,26.870341 6.3705526,25.352490 C 5.6037013,21.759351 3.8454463,7.5189012 5.0982822,5.2046793 C 5.3781047,4.6604957 6.8973595,3.9218413 10.348451,3.6134801 C 14.270261,3.2189422 22.317217,2.6189670 23.164015,2.6579404 C 24.010775,2.6969241 24.269827,2.6010255 24.454011,4.1189135 C 24.379211,5.7326746 26.933736,18.356596 27.084646,20.591696 C 27.202071,22.178361 27.404150,22.852503 26.368034,23.236083"
     style="font-size:12.000000;fill:#ffffff;fill-rule:evenodd;stroke-width:1.0000000"
     id="path608" />
  <path
     d="M 5.3759681,7.3535192 C 5.3759681,7.3535192 5.4757924,5.2001067 8.3492102,4.7712775 C 11.222616,4.3424609 22.602582,2.8808474 22.873730,3.6270467 C 23.144866,4.3732435 23.480558,9.2225834 23.564282,9.6148814 C 23.648005,10.007164 14.014690,13.361874 11.369423,16.563430 C 8.7241596,19.764982 6.8715582,22.355630 6.8715582,22.355630 C 6.8715582,22.355630 5.3567980,11.064377 5.3759681,7.3535192 z "
     style="font-size:12.000000;fill:url(#linearGradient615);fill-rule:evenodd;stroke-width:1.0000000"
     id="path636" />
  <path
     d="M 8.5808236,16.718927 L 24.156303,13.730607"
     style="font-size:12.000000;fill:none;fill-rule:evenodd;stroke:#3d4e67;stroke-width:1.4815822"
     id="path680" />
  <path
     style="font-size:12.000000;font-weight:normal;fill:#3d4e67;font-family:Bitstream Vera Sans"
     d="M 18.003029,4.9008729 L 18.592738,7.0236448 C 17.656857,6.8580405 16.795609,6.7800365 16.008992,6.7896317 C 15.222378,6.7992263 14.487845,6.8988172 13.805397,7.0884021 C 12.620093,7.4176807 11.768036,7.9020006 11.249228,8.5413612 C 10.737601,9.1787269 10.599531,9.9212458 10.835015,10.768917 C 11.032582,11.480100 11.394174,11.960003 11.919785,12.208627 C 12.450586,12.448073 13.343164,12.513505 14.597516,12.404924 L 15.986962,12.309111 C 17.696281,12.166997 19.044029,12.380683 20.030205,12.950169 C 21.021568,13.510476 21.698851,14.444343 22.062055,15.751766 C 22.495108,17.310627 22.298983,18.638024 21.473680,19.733955 C 20.655558,20.827892 19.237194,21.655246 17.218586,22.216017 C 16.457117,22.427554 15.621413,22.566847 14.711479,22.633915 C 13.808727,22.698987 12.850701,22.690430 11.837400,22.608246 L 11.214763,20.366944 C 12.236052,20.617152 13.205453,20.750219 14.122974,20.766165 C 15.040493,20.782112 15.908721,20.676334 16.727660,20.448832 C 17.970433,20.103588 18.861601,19.592932 19.401160,18.916845 C 19.940724,18.240776 20.084778,17.450160 19.833328,16.545014 C 19.613812,15.754825 19.197942,15.204873 18.585724,14.895188 C 17.980690,14.583509 17.094097,14.469985 15.925950,14.554618 L 14.528722,14.664200 C 12.815410,14.791948 11.500189,14.611785 10.583059,14.123712 C 9.6659296,13.635639 9.0367377,12.777400 8.6954850,11.548994 C 8.3003508,10.126630 8.4882964,8.8672828 9.2593239,7.7709520 C 10.037535,6.6726276 11.306639,5.8789990 13.066637,5.3900695 C 13.820921,5.1805286 14.608532,5.0352421 15.429468,4.9542087 C 16.250403,4.8731734 17.108257,4.8553948 18.003029,4.9008729 z "
     id="path659" />
</svg>
