<?xml version="1.0" encoding="UTF-8" standalone="no"?>
<!-- Created with Sodipodi ("http://www.sodipodi.com/") -->
<svg
   xmlns:dc="http://purl.org/dc/elements/1.1/"
   xmlns:cc="http://web.resource.org/cc/"
   xmlns:rdf="http://www.w3.org/1999/02/22-rdf-syntax-ns#"
   xmlns:svg="http://www.w3.org/2000/svg"
   xmlns="http://www.w3.org/2000/svg"
   xmlns:xlink="http://www.w3.org/1999/xlink"
   xmlns:sodipodi="http://sodipodi.sourceforge.net/DTD/sodipodi-0.dtd"
   xmlns:inkscape="http://www.inkscape.org/namespaces/inkscape"
   version="1"
   x="0.00000000"
   y="0.00000000"
   width="48pt"
   height="48pt"
   id="svg548"
   sodipodi:version="0.32"
   sodipodi:docname="gtk-cancel-old.svg"
   sodipodi:docbase="/home/nathan/GNUtoon/scalable/actions"
   inkscape:version="0.45.1"
   inkscape:output_extension="org.inkscape.output.svg.inkscape">
  <metadata
     id="metadata13">
    <rdf:RDF>
      <cc:Work
         rdf:about="">
        <dc:format>image/svg+xml</dc:format>
        <dc:type
           rdf:resource="http://purl.org/dc/dcmitype/StillImage" />
      </cc:Work>
    </rdf:RDF>
  </metadata>
  <sodipodi:namedview
     id="base"
     inkscape:zoom="13.656000"
     inkscape:cx="34.936460"
     inkscape:cy="22.244249"
     inkscape:window-width="1014"
     inkscape:window-height="696"
     inkscape:window-x="0"
     inkscape:window-y="0" />
  <defs
     id="defs550">
    <linearGradient
       x1="0.00000000"
       y1="0.00000000"
       x2="1.00000000"
       y2="0.00000000"
       id="linearGradient556"
       gradientUnits="objectBoundingBox"
       spreadMethod="pad">
      <stop
         style="stop-color:#ff8700;stop-opacity:1;"
         offset="0.00000000"
         id="stop557" />
      <stop
         style="stop-color:#ffff8d;stop-opacity:0;"
         offset="1.00000000"
         id="stop558" />
    </linearGradient>
    <linearGradient
       x1="0.00000000"
       y1="0.00000000"
       x2="1.00000000"
       y2="0.00000000"
       id="linearGradient559"
       xlink:href="#linearGradient556"
       gradientUnits="objectBoundingBox"
       spreadMethod="pad" />
  </defs>
  <path
     style="font-size:12px;fill:#000000;fill-opacity:1;fill-rule:evenodd;stroke-width:1"
     d="M 57.21738,30.12302 C 57.21738,45.06095 45.107814,57.170517 30.169895,57.170517 C 15.231974,57.170517 3.1223967,45.06095 3.1223967,30.12302 C 3.1223967,15.185102 15.231974,3.0755302 30.169895,3.0755302 C 45.107814,3.0755302 57.21738,15.185102 57.21738,30.12302 z "
     id="path749" />
  <path
     style="font-size:12px;fill:#ff1500;fill-rule:evenodd;stroke-width:1"
     d="M 53.781429,30.123017 C 53.781429,43.163323 43.210187,53.734568 30.169887,53.734568 C 17.129587,53.734568 6.5583337,43.163323 6.5583337,30.123017 C 6.5583337,17.082717 17.129587,6.5114702 30.169887,6.5114702 C 43.210187,6.5114702 53.781429,17.082717 53.781429,30.123017 z "
     id="path750" />
  <path
     style="font-size:12px;fill:#000000;fill-opacity:0.99633113;fill-rule:evenodd;stroke:none;stroke-width:0.7112"
     d="M 22.165812,13.536049 C 21.001664,12.392938 17.298995,15.363639 16.178559,16.54962 C 15.058142,17.7356 12.40084,21.49668 13.597817,22.605362 L 21.956993,30.347929 L 13.931184,38.889327 C 12.813948,40.078335 15.665742,43.481955 16.851723,44.602382 C 18.037697,45.722809 21.420233,48.208865 22.535392,47.017937 L 30.666205,38.334748 L 38.766835,46.207095 C 39.936883,47.344152 43.968464,45.047869 45.088892,43.861888 C 46.209318,42.675908 48.258705,38.908279 47.081487,37.778623 L 38.315814,29.367163 L 46.154338,20.712658 C 47.249584,19.50338 45.410259,16.748668 44.224278,15.628242 C 43.038288,14.507814 39.337522,12.380262 38.211552,13.560983 L 30.464522,21.684662 L 22.165812,13.536049 z "
     id="path2243"
     sodipodi:nodetypes="csscssscssscssscs" />
  <path
     style="font-size:12px;fill:#ffffff;fill-opacity:1;fill-rule:evenodd;stroke:none;stroke-width:0.83871002pt"
     d="M 21.595939,15.790393 C 20.807518,15.048199 18.070915,16.847764 17.327313,17.634868 C 16.583718,18.421982 14.931515,20.895324 15.717998,21.639587 L 24.739677,30.17684 L 15.642584,39.836727 C 14.900224,40.625012 16.656937,42.848258 17.44405,43.591853 C 18.231157,44.335455 20.65207,46.234955 21.393615,45.445884 L 30.502059,35.753638 L 39.714207,44.30936 C 40.507623,45.04625 43.068894,43.443155 43.812497,42.656049 C 44.556092,41.868935 45.913379,39.137732 45.137332,38.382585 L 35.870982,29.365899 L 44.623309,20.297994 C 45.375292,19.518883 43.674382,17.40354 42.887268,16.659938 C 42.100163,15.916333 39.745352,14.376964 38.975589,15.138493 L 30.16388,23.855882 L 21.595939,15.790393 z "
     id="path2245"
     sodipodi:nodetypes="csscssscssscssscs" />
  <path
     style="fill:#ffd100;fill-opacity:1;fill-rule:evenodd;stroke:none;stroke-width:1pt;stroke-linecap:butt;stroke-linejoin:miter;stroke-opacity:1"
     d="M 14.970434,13.186363 C 14.970434,13.186363 30.533213,-0.3552883 45.085433,12.984249 C 29.118419,5.1018039 25.076134,9.1440868 14.970434,13.186363 z "
     id="path751"
     sodipodi:nodetypes="ccc" />
  <path
     style="fill:#830000;fill-opacity:1;fill-rule:evenodd;stroke:none;stroke-width:1pt;stroke-linecap:butt;stroke-linejoin:miter;stroke-opacity:1"
     d="M 45.893879,46.721878 C 43.670622,50.157822 27.097278,59.252957 14.161962,46.923992 C 30.128977,52.381078 35.383952,49.551463 45.893879,46.721878 z "
     id="path752"
     sodipodi:nodetypes="ccc" />
</svg>
