<?xml version="1.0" encoding="UTF-8" standalone="no"?>
<!DOCTYPE svg PUBLIC "-//W3C//DTD SVG 20010904//EN"
"http://www.w3.org/TR/2001/REC-SVG-20010904/DTD/svg10.dtd">
<!-- Created with Inkscape (http://www.inkscape.org/) -->
<svg
   id="svg604"
   sodipodi:version="0.32"
   width="24.000000pt"
   height="24.000000pt"
   sodipodi:docbase="/home/zeus/.icons/gartoon/scalable/stock-svg"
   sodipodi:docname="gtk_execute.svg"
   inkscape:version="0.40"
   version="1.0"
   x="0.0000000"
   y="0.0000000"
   xmlns="http://www.w3.org/2000/svg"
   xmlns:cc="http://web.resource.org/cc/"
   xmlns:inkscape="http://www.inkscape.org/namespaces/inkscape"
   xmlns:sodipodi="http://sodipodi.sourceforge.net/DTD/sodipodi-0.dtd"
   xmlns:rdf="http://www.w3.org/1999/02/22-rdf-syntax-ns#"
   xmlns:dc="http://purl.org/dc/elements/1.1/"
   xmlns:xlink="http://www.w3.org/1999/xlink">
  <metadata
     id="metadata55">
    <rdf:RDF
       id="RDF56">
      <cc:Work
         rdf:about=""
         id="Work57">
        <dc:format
           id="format58">image/svg+xml</dc:format>
        <dc:type
           id="type60"
           rdf:resource="http://purl.org/dc/dcmitype/StillImage" />
      </cc:Work>
    </rdf:RDF>
  </metadata>
  <defs
     id="defs606">
    <linearGradient
       id="linearGradient1688">
      <stop
         style="stop-color:#d70025;stop-opacity:0.741176;"
         offset="0.000000"
         id="stop1689" />
      <stop
         style="stop-color:#ffffff;stop-opacity:0;"
         offset="1.000000"
         id="stop1690" />
    </linearGradient>
    <linearGradient
       id="linearGradient863">
      <stop
         style="stop-color:#d70025;stop-opacity:0.741176;"
         offset="0.000000"
         id="stop864" />
      <stop
         style="stop-color:#ffffff;stop-opacity:0;"
         offset="1.000000"
         id="stop865" />
    </linearGradient>
    <linearGradient
       id="linearGradient612">
      <stop
         style="stop-color:#7fa8e3;stop-opacity:0.741176;"
         offset="0.000000"
         id="stop613" />
      <stop
         style="stop-color:#ffffff;stop-opacity:0;"
         offset="1.000000"
         id="stop614" />
    </linearGradient>
    <linearGradient
       xlink:href="#linearGradient612"
       id="linearGradient615"
       y2="68.044357"
       x2="35.752094"
       y1="5.3679295"
       x1="50.643887"
       spreadMethod="pad"
       gradientUnits="userSpaceOnUse" />
    <defs
       id="defs561" />
    <sodipodi:namedview
       id="namedview611"
       showgrid="true"
       gridspacingx="1mm"
       gridspacingy="1mm"
       gridtolerance="1px"
       snaptogrid="true" />
    <linearGradient
       xlink:href="#linearGradient863"
       id="linearGradient862"
       x1="51.428993"
       y1="21.934958"
       x2="12.332661"
       y2="46.054565"
       gradientUnits="userSpaceOnUse"
       spreadMethod="pad"
       gradientTransform="scale(0.903424,1.106900)" />
    <linearGradient
       xlink:href="#linearGradient863"
       id="linearGradient866"
       x1="19.163351"
       y1="61.201427"
       x2="35.616890"
       y2="33.299057"
       gradientUnits="userSpaceOnUse"
       spreadMethod="pad"
       gradientTransform="scale(0.827637,1.208259)" />
    <linearGradient
       xlink:href="#linearGradient863"
       id="linearGradient980"
       x1="0.20752650"
       y1="0.80468732"
       x2="1.4528289"
       y2="0.26562491"
       gradientUnits="objectBoundingBox"
       spreadMethod="pad" />
    <defs
       id="defs1084">
      <linearGradient
         id="linearGradient1085">
        <stop
           style="stop-color:#d70025;stop-opacity:0.741176;"
           offset="0.000000"
           id="stop1086" />
        <stop
           style="stop-color:#ffffff;stop-opacity:0;"
           offset="1.000000"
           id="stop1087" />
      </linearGradient>
      <linearGradient
         id="linearGradient1088">
        <stop
           style="stop-color:#7fa8e3;stop-opacity:0.741176;"
           offset="0.000000"
           id="stop1089" />
        <stop
           style="stop-color:#ffffff;stop-opacity:0;"
           offset="1.000000"
           id="stop1090" />
      </linearGradient>
      <linearGradient
         xlink:href="#linearGradient612"
         id="linearGradient1091"
         x1="50.643887"
         y1="5.3679295"
         x2="35.752094"
         y2="68.044357"
         gradientUnits="userSpaceOnUse"
         spreadMethod="pad" />
      <defs
         id="defs1092" />
      <sodipodi:namedview
         id="namedview1093"
         showgrid="true"
         gridspacingx="1mm"
         gridspacingy="1mm"
         gridtolerance="1px"
         snaptogrid="true" />
      <linearGradient
         xlink:href="#linearGradient863"
         id="linearGradient1094"
         x1="76.955231"
         y1="34.671722"
         x2="27.436239"
         y2="67.204659"
         gradientUnits="userSpaceOnUse"
         spreadMethod="pad"
         gradientTransform="scale(0.903424,1.106900)" />
      <linearGradient
         xlink:href="#linearGradient863"
         id="linearGradient1095"
         x1="19.163353"
         y1="61.201431"
         x2="35.616894"
         y2="33.299057"
         gradientUnits="userSpaceOnUse"
         spreadMethod="pad"
         gradientTransform="scale(0.827637,1.208259)" />
      <linearGradient
         xlink:href="#linearGradient863"
         id="linearGradient1096"
         x1="0.20752650"
         y1="0.80468732"
         x2="1.4528289"
         y2="0.26562491"
         gradientUnits="objectBoundingBox"
         spreadMethod="pad" />
    </defs>
    <sodipodi:namedview
       id="namedview1097"
       showborder="true"
       inkscape:zoom="4.29166667"
       inkscape:cx="36"
       inkscape:cy="36"
       inkscape:window-width="1014"
       inkscape:window-height="696"
       inkscape:window-x="0"
       inkscape:window-y="0" />
    <defs
       id="defs1394">
      <linearGradient
         id="linearGradient1395">
        <stop
           style="stop-color:#d70025;stop-opacity:0.741176;"
           offset="0.000000"
           id="stop1396" />
        <stop
           style="stop-color:#ffffff;stop-opacity:0;"
           offset="1.000000"
           id="stop1397" />
      </linearGradient>
      <linearGradient
         id="linearGradient1398">
        <stop
           style="stop-color:#7fa8e3;stop-opacity:0.741176;"
           offset="0.000000"
           id="stop1399" />
        <stop
           style="stop-color:#ffffff;stop-opacity:0;"
           offset="1.000000"
           id="stop1400" />
      </linearGradient>
      <linearGradient
         xlink:href="#linearGradient612"
         id="linearGradient1401"
         x1="50.643887"
         y1="5.3679295"
         x2="35.752094"
         y2="68.044357"
         gradientUnits="userSpaceOnUse"
         spreadMethod="pad" />
      <defs
         id="defs1402" />
      <sodipodi:namedview
         id="namedview1403"
         showgrid="true"
         gridspacingx="1mm"
         gridspacingy="1mm"
         gridtolerance="1px"
         snaptogrid="true" />
      <linearGradient
         xlink:href="#linearGradient863"
         id="linearGradient1404"
         x1="76.955231"
         y1="34.671722"
         x2="27.436239"
         y2="67.204659"
         gradientUnits="userSpaceOnUse"
         spreadMethod="pad"
         gradientTransform="scale(0.903424,1.106900)" />
      <linearGradient
         xlink:href="#linearGradient863"
         id="linearGradient1405"
         x1="19.163353"
         y1="61.201431"
         x2="35.616894"
         y2="33.299057"
         gradientUnits="userSpaceOnUse"
         spreadMethod="pad"
         gradientTransform="scale(0.827637,1.208259)" />
      <linearGradient
         xlink:href="#linearGradient863"
         id="linearGradient1406"
         x1="0.20752650"
         y1="0.80468732"
         x2="1.4528289"
         y2="0.26562491"
         gradientUnits="objectBoundingBox"
         spreadMethod="pad" />
    </defs>
    <sodipodi:namedview
       id="namedview1407"
       showborder="true"
       inkscape:zoom="4.29166667"
       inkscape:cx="36"
       inkscape:cy="36"
       inkscape:window-width="1014"
       inkscape:window-height="696"
       inkscape:window-x="0"
       inkscape:window-y="0" />
    <linearGradient
       inkscape:collect="always"
       xlink:href="#linearGradient1828"
       id="linearGradient1157"
       gradientUnits="userSpaceOnUse"
       gradientTransform="matrix(0.408749,0.000000,0.000000,0.408757,-87.25811,-39.77247)"
       x1="32.051327"
       y1="14.657825"
       x2="32.051327"
       y2="75.934349" />
    <metadata
       id="metadata18">
      <rdf:RDF
         id="RDF19">
        <cc:Work
           rdf:about=""
           id="Work20">
          <dc:format
             id="format21">image/svg+xml</dc:format>
          <dc:type
             id="type23"
             rdf:resource="http://purl.org/dc/dcmitype/StillImage" />
        </cc:Work>
      </rdf:RDF>
    </metadata>
    <sodipodi:namedview
       id="namedview1118"
       inkscape:zoom="2.5208333"
       inkscape:cx="34.288064"
       inkscape:cy="56.314502"
       inkscape:window-width="734"
       inkscape:window-height="537"
       inkscape:window-x="5"
       inkscape:window-y="46"
       inkscape:current-layer="svg548" />
    <defs
       id="defs550">
      <linearGradient
         id="linearGradient1828">
        <stop
           style="stop-color:#ffc93f;stop-opacity:1.0000000;"
           offset="0.0000000"
           id="stop1829" />
        <stop
           style="stop-color:#f1e36c;stop-opacity:1.0000000;"
           offset="1.0000000"
           id="stop1830" />
      </linearGradient>
      <linearGradient
         id="linearGradient1825">
        <stop
           offset="0.0000000"
           style="stop-color:#ffd800;stop-opacity:1.0000000;"
           id="stop1827" />
        <stop
           offset="1.0000000"
           style="stop-color:#ffd58f;stop-opacity:0.0000000;"
           id="stop1826" />
      </linearGradient>
      <linearGradient
         x1="0.0000000"
         y1="0.0000000"
         x2="1.0000000"
         y2="0.0000000"
         id="linearGradient632"
         gradientUnits="objectBoundingBox"
         spreadMethod="pad">
        <stop
           style="stop-color:#ffb700;stop-opacity:1;"
           offset="0.00000000"
           id="stop633" />
        <stop
           style="stop-color:#ffd58f;stop-opacity:0;"
           offset="1.00000000"
           id="stop634" />
      </linearGradient>
      <linearGradient
         x1="0.0000000"
         y1="0.0000000"
         x2="1.0000000"
         y2="0.0000000"
         id="linearGradient556"
         gradientUnits="objectBoundingBox"
         spreadMethod="pad">
        <stop
           style="stop-color:#000000;stop-opacity:1;"
           offset="0.00000000"
           id="stop557" />
        <stop
           style="stop-color:#bdf2ff;stop-opacity:0.384314;"
           offset="1.00000000"
           id="stop558" />
      </linearGradient>
      <linearGradient
         x1="60.644615"
         y1="19.295689"
         x2="35.370575"
         y2="69.142799"
         id="linearGradient559"
         xlink:href="#linearGradient632"
         gradientUnits="userSpaceOnUse"
         spreadMethod="pad"
         gradientTransform="matrix(1.418885,-0.200635,0.127692,1.110535,-136.7997,-1.332303)" />
      <linearGradient
         x1="85.637657"
         y1="17.443844"
         x2="73.916298"
         y2="54.628181"
         id="linearGradient631"
         xlink:href="#linearGradient632"
         gradientUnits="userSpaceOnUse"
         gradientTransform="matrix(1.050920,-0.148604,0.172402,1.499373,-123.6994,-3.008376)"
         spreadMethod="pad" />
      <defs
         id="defs3">
        <sodipodi:namedview
           id="namedview909" />
        <defs
           id="defs1721">
          <linearGradient
             x1="0.0000000"
             y1="0.0000000"
             x2="1.0000000"
             y2="0.0000000"
             id="linearGradient1722"
             gradientUnits="objectBoundingBox"
             spreadMethod="pad"
             xlink:href="#linearGradient1825" />
          <linearGradient
             x1="0.0000000"
             y1="0.0000000"
             x2="1.0000000"
             y2="0.0000000"
             id="linearGradient1725"
             gradientUnits="objectBoundingBox"
             spreadMethod="pad">
            <stop
               style="stop-color:#000000;stop-opacity:1;"
               offset="0.000000"
               id="stop1726" />
            <stop
               style="stop-color:#bdf2ff;stop-opacity:0.384314;"
               offset="1.000000"
               id="stop1727" />
          </linearGradient>
          <linearGradient
             id="linearGradient1728"
             xlink:href="#linearGradient632"
             x1="60.644615"
             y1="19.295689"
             x2="35.370575"
             y2="69.142799"
             gradientUnits="userSpaceOnUse"
             spreadMethod="pad" />
          <linearGradient
             xlink:href="#linearGradient632"
             id="linearGradient1729"
             x1="85.637657"
             y1="17.443844"
             x2="73.916298"
             y2="54.628181"
             gradientUnits="userSpaceOnUse"
             spreadMethod="pad"
             gradientTransform="scale(0.740666,1.350136)" />
        </defs>
      </defs>
      <sodipodi:namedview
         id="namedview1730"
         pagecolor="#ffffff"
         bordercolor="#666666"
         borderopacity="1.0"
         inkscape:pageopacity="0.0"
         inkscape:pageshadow="2"
         inkscape:zoom="2.4559706"
         inkscape:cx="113.94414"
         inkscape:cy="73.007956"
         inkscape:window-width="812"
         inkscape:window-height="560"
         inkscape:window-x="103"
         inkscape:window-y="56" />
      <metadata
         id="metadata4">
        <rdf:RDF
           id="RDF5">
          <cc:Work
             rdf:about=""
             id="Work6">
            <dc:format
               id="format7">image/svg+xml</dc:format>
            <dc:type
               id="type9"
               rdf:resource="http://purl.org/dc/dcmitype/StillImage" />
          </cc:Work>
        </rdf:RDF>
      </metadata>
      <linearGradient
         inkscape:collect="always"
         xlink:href="#linearGradient1828"
         id="linearGradient1831"
         gradientTransform="matrix(0.563776,0.000000,0.000000,0.563788,50.39821,45.07308)"
         x1="32.051327"
         y1="14.657825"
         x2="32.051327"
         y2="75.934349"
         gradientUnits="userSpaceOnUse" />
    </defs>
    <linearGradient
       inkscape:collect="always"
       xlink:href="#linearGradient1828"
       id="linearGradient1192"
       gradientUnits="userSpaceOnUse"
       gradientTransform="matrix(0.396992,0.000000,0.000000,0.396999,1.493484,-2.128412)"
       x1="32.051327"
       y1="14.657825"
       x2="32.051327"
       y2="75.934349" />
  </defs>
  <sodipodi:namedview
     id="base"
     showborder="true"
     inkscape:zoom="4.2916664"
     inkscape:cx="91.277903"
     inkscape:cy="2.8021610"
     inkscape:window-width="1014"
     inkscape:window-height="696"
     inkscape:window-x="544"
     inkscape:window-y="292"
     showguides="true"
     snaptoguides="true"
     inkscape:current-layer="svg604" />
  <path
     style="fill:#000000;fill-opacity:0.34444442;stroke:none;stroke-width:3.8674629;stroke-linecap:round;stroke-linejoin:round;stroke-miterlimit:4.0000000;stroke-opacity:1.0000000"
     d="M 19.763287,3.8629350 C 18.617098,3.5321103 17.432820,4.1858723 17.101997,5.3320637 L 16.609698,7.0377059 C 16.128223,7.0527715 15.655107,7.0975043 15.188361,7.1867794 L 14.335743,5.6422816 C 13.759191,4.5978732 12.448288,4.2195093 11.403881,4.7960611 L 10.272548,5.4283483 C 9.2281391,6.0049001 8.8524341,7.3065821 9.4289861,8.3509904 L 10.275049,9.8836072 C 9.9460251,10.230147 9.6468891,10.602167 9.3730781,11.001583 L 7.7043142,10.519929 C 6.5581228,10.189104 5.3619664,10.849427 5.0311417,11.995616 L 4.6718968,13.240275 C 4.3410722,14.386467 5.0040558,15.573403 6.1502472,15.904226 L 7.7821323,16.375237 C 7.7949139,16.874258 7.8438846,17.364623 7.9363411,17.847996 L 6.4512455,18.667822 C 5.4068370,19.244373 5.0311320,20.546057 5.6076838,21.590464 L 6.2399729,22.721797 C 6.8165228,23.766206 8.1182067,24.141909 9.1626151,23.565359 L 10.623948,22.758649 C 10.988343,23.104974 11.375671,23.421893 11.798478,23.706905 L 11.338112,25.301911 C 11.007288,26.448103 11.661052,27.632379 12.807241,27.963201 L 14.051900,28.322446 C 15.198091,28.653271 16.382367,27.999507 16.713192,26.853317 L 17.176218,25.249091 C 17.681779,25.232672 18.174488,25.177214 18.663517,25.079104 L 19.470227,26.540439 C 20.046779,27.584847 21.348461,27.960550 22.392869,27.383998 L 23.530761,26.763590 C 24.575168,26.187038 24.953534,24.876136 24.376982,23.831730 L 23.563715,22.358515 C 23.899525,21.998753 24.202262,21.609901 24.478990,21.194441 L 26.110875,21.665452 C 27.257067,21.996277 28.441341,21.342513 28.772165,20.196321 L 29.131410,18.951664 C 29.462235,17.805473 28.811134,16.611977 27.664942,16.281153 L 25.996179,15.799499 C 25.977254,15.314059 25.913738,14.840184 25.819444,14.370177 L 27.352062,13.524116 C 28.396472,12.947566 28.772175,11.645882 28.195623,10.601474 L 27.575213,9.4635832 C 26.998665,8.4191754 25.696983,8.0434724 24.652574,8.6200222 L 23.096194,9.4792012 C 22.750063,9.1557872 22.382618,8.8579592 21.984778,8.5891122 L 22.477077,6.8834699 C 22.807902,5.7372785 22.154138,4.5530026 21.007946,4.2221779 L 19.763287,3.8629350 z M 18.111112,11.905620 C 20.452322,12.581362 21.803817,15.029562 21.128075,17.370772 C 20.452333,19.711981 18.004132,21.063477 15.662924,20.387735 C 13.321716,19.711993 11.970219,17.263791 12.645961,14.922584 C 13.321703,12.581376 15.769902,11.229879 18.111112,11.905620 z "
     id="path1863" />
  <path
     style="fill:url(#linearGradient1192);fill-opacity:1.0000000;stroke:#593a28;stroke-width:1.5353664;stroke-linecap:round;stroke-linejoin:round;stroke-miterlimit:4.0000000;stroke-opacity:1.0000000"
     d="M 17.991572,2.0912172 C 16.845380,1.7603926 15.661104,2.4141566 15.330280,3.5603479 L 14.837982,5.2659901 C 14.356505,5.2810557 13.883391,5.3257865 13.416645,5.4150636 L 12.564025,3.8705639 C 11.987473,2.8261574 10.676572,2.4477935 9.6321631,3.0243434 L 8.5008301,3.6566306 C 7.4564234,4.2331824 7.0807184,5.5348663 7.6572702,6.5792748 L 8.5033311,8.1118924 C 8.1743072,8.4584314 7.8751734,8.8304512 7.6013620,9.2298672 L 5.9325964,8.7482112 C 4.7864051,8.4173884 3.5902487,9.0777092 3.2594240,10.223900 L 2.9001810,11.468557 C 2.5693564,12.614749 3.2323400,13.801686 4.3785294,14.132510 L 6.0104146,14.603521 C 6.0231962,15.102540 6.0721668,15.592907 6.1646233,16.076278 L 4.6795277,16.896106 C 3.6351212,17.472656 3.2594162,18.774340 3.8359681,19.818748 L 4.4682552,20.950080 C 5.0448070,21.994488 6.3464910,22.370193 7.3908994,21.793641 L 8.8522321,20.986931 C 9.2166281,21.333258 9.6039531,21.650175 10.026760,21.935189 L 9.5663951,23.530193 C 9.2355701,24.676385 9.8893341,25.860661 11.035525,26.191485 L 12.280184,26.550730 C 13.426374,26.881555 14.610650,26.227791 14.941474,25.081600 L 15.404501,23.477375 C 15.910061,23.460956 16.402770,23.405498 16.891801,23.307388 L 17.698511,24.768721 C 18.275063,25.813129 19.576745,26.188832 20.621151,25.612283 L 21.759046,24.991874 C 22.803452,24.415322 23.181818,23.104420 22.605266,22.060012 L 21.791999,20.586799 C 22.127807,20.227037 22.430546,19.838186 22.707272,19.422724 L 24.339158,19.893734 C 25.485349,20.224559 26.669623,19.570797 27.000448,18.424606 L 27.359693,17.179947 C 27.690517,16.033755 27.039416,14.840260 25.893227,14.509435 L 24.224461,14.027783 C 24.205536,13.542342 24.142020,13.068466 24.047729,12.598462 L 25.580346,11.752400 C 26.624754,11.175850 27.000459,9.8741652 26.423907,8.8297582 L 25.803497,7.6918661 C 25.226947,6.6474596 23.925265,6.2717545 22.880857,6.8483064 L 21.324478,7.7074852 C 20.978345,7.3840701 20.610900,7.0862414 20.213060,6.8173963 L 20.705359,5.1117541 C 21.036184,3.9655628 20.382420,2.7812868 19.236231,2.4504621 L 17.991572,2.0912172 z M 16.339394,10.133905 C 18.680604,10.809645 20.032101,13.257846 19.356360,15.599054 C 18.680616,17.940264 16.232416,19.291759 13.891208,18.616019 C 11.549999,17.940277 10.198503,15.492076 10.874245,13.150866 C 11.549987,10.809658 13.998187,9.4581632 16.339394,10.133905 z "
     id="path1864" />
</svg>
