<?xml version="1.0" encoding="UTF-8" standalone="no"?>
<!DOCTYPE svg PUBLIC "-//W3C//DTD SVG 20010904//EN"
"http://www.w3.org/TR/2001/REC-SVG-20010904/DTD/svg10.dtd">
<!-- Created with Inkscape (http://www.inkscape.org/) -->
<svg
   width="24.000000pt"
   height="24.000000pt"
   xmlns="http://www.w3.org/2000/svg"
   xmlns:cc="http://web.resource.org/cc/"
   xmlns:inkscape="http://www.inkscape.org/namespaces/inkscape"
   xmlns:sodipodi="http://sodipodi.sourceforge.net/DTD/sodipodi-0.dtd"
   xmlns:rdf="http://www.w3.org/1999/02/22-rdf-syntax-ns#"
   xmlns:dc="http://purl.org/dc/elements/1.1/"
   xmlns:xlink="http://www.w3.org/1999/xlink"
   id="svg1"
   sodipodi:version="0.32"
   inkscape:version="0.40"
   sodipodi:docbase="/home/zeus/.icons/gartoon/scalable/stock"
   sodipodi:docname="gtk-convert.svg">
  <defs
     id="defs3" />
  <sodipodi:namedview
     id="base"
     pagecolor="#ffffff"
     bordercolor="#666666"
     borderopacity="1.0"
     inkscape:pageopacity="0.0"
     inkscape:pageshadow="2"
     inkscape:zoom="1.0000000"
     inkscape:cx="30.519714"
     inkscape:cy="20.034225"
     inkscape:current-layer="svg1"
     inkscape:window-width="898"
     inkscape:window-height="536"
     inkscape:window-x="44"
     inkscape:window-y="139" />
  <metadata
     id="metadata4">
    <rdf:RDF
       id="RDF5">
      <cc:Work
         rdf:about=""
         id="Work6">
        <dc:format
           id="format7">image/svg+xml</dc:format>
        <dc:type
           id="type9"
           rdf:resource="http://purl.org/dc/dcmitype/StillImage" />
      </cc:Work>
    </rdf:RDF>
  </metadata>
  <g
     inkscape:label="Layer 1"
     inkscape:groupmode="layer"
     id="layer1">
    <path
       sodipodi:type="star"
       style="fill:#ed0000;fill-opacity:1.0000000;fill-rule:nonzero;stroke:none;stroke-width:2.5000000;stroke-miterlimit:4.0000000;stroke-opacity:1.0000000;"
       id="path1139"
       sodipodi:sides="3"
       sodipodi:cx="1.2153398"
       sodipodi:cy="14.311068"
       sodipodi:r1="4.7560096"
       sodipodi:r2="5.0669155"
       sodipodi:arg1="1.5243182"
       sodipodi:arg2="-2.7166244"
       inkscape:flatsided="false"
       inkscape:rounded="0.0000000"
       inkscape:randomized="0.0000000"
       d="M 1.4363106,19.061941 L -3.4008828,12.222020 L -3.0095228,12.126997 L 5.3326197,11.357826 L 5.2192315,11.744264 L 1.7142824,19.353358 L 1.4363106,19.061941 z "
       transform="matrix(-0.994347,-0.106180,0.106180,-0.994347,7.366893,29.73256)" />
    <path
       style="fill:#b01911;fill-opacity:1.0000000;fill-rule:nonzero;stroke:none;stroke-width:2.5000000;stroke-miterlimit:4.0000000;stroke-opacity:1.0000000"
       d="M 7.6707997,8.7968725 L 6.7506395,9.3594161 L 4.1050095,13.532969 L 1.4848183,17.683336 L 1.5888309,18.687821 L 2.3497358,19.074520 L 7.6155570,19.074520 L 12.881378,19.074520 L 13.722965,18.798306 L 13.771734,17.683336 L 11.126105,13.532969 L 8.5059133,9.3594161 L 7.6707997,8.7968725 z M 7.6155570,11.678057 L 9.3708307,14.460425 L 11.126105,17.219608 L 7.6155570,17.219608 L 4.1304482,17.219608 L 5.8602833,14.460425 L 7.6155570,11.678057 z "
       id="path1061"
       sodipodi:nodetypes="cccccccccccccccccccc" />
    <path
       style="fill:#558ada;fill-opacity:1.0000000;fill-rule:nonzero;stroke:#002f77;stroke-width:2.5000000;stroke-miterlimit:4.0000000;stroke-opacity:1.0000000"
       d="M 21.442186,17.736115 L 23.746361,17.736115 C 25.893111,17.736115 27.621361,18.711740 27.621361,19.923615 L 27.621361,25.602789 C 27.621361,26.814664 25.893111,27.790289 23.746361,27.790289 L 21.442186,27.790289 C 19.295436,27.790289 17.567186,26.814664 17.567186,25.602789 L 17.567186,19.923615 C 17.567186,18.711740 19.295436,17.736115 21.442186,17.736115 z "
       id="rect1113" />
  </g>
  <g
     id="g1114"
     transform="matrix(0.257055,0.581091,-0.581091,0.257055,22.14616,-4.019551)">
    <metadata
       id="metadata14">
      <rdf:RDF
         id="RDF15">
        <cc:Work
           rdf:about=""
           id="Work16">
          <dc:format
             id="format17">image/svg+xml</dc:format>
          <dc:type
             id="type19"
             rdf:resource="http://purl.org/dc/dcmitype/StillImage" />
        </cc:Work>
      </rdf:RDF>
    </metadata>
    <sodipodi:namedview
       id="namedview1121"
       inkscape:zoom="3.4139999"
       inkscape:cx="15.999998"
       inkscape:cy="20.142398"
       inkscape:window-width="1014"
       inkscape:window-height="696"
       inkscape:window-x="0"
       inkscape:window-y="25"
       inkscape:current-layer="svg548" />
    <defs
       id="defs1122">
      <linearGradient
         x1="0.0000000"
         y1="0.0000000"
         x2="1.0000000"
         y2="0.0000000"
         id="linearGradient1123"
         gradientUnits="objectBoundingBox"
         spreadMethod="pad">
        <stop
           style="stop-color:#ff0000;stop-opacity:1.0000;"
           offset="0"
           id="stop1124" />
        <stop
           style="stop-color:#ffff8d;stop-opacity:0;"
           offset="1"
           id="stop1125" />
      </linearGradient>
      <linearGradient
         id="linearGradient1126"
         xlink:href="#linearGradient556"
         x1="0.98450798"
         y1="0.96875602"
         x2="-0.57364303"
         y2="-0.17187500" />
    </defs>
    <path
       d="M 29.634050,12.215167 C 29.403678,9.5510591 19.718456,0.66572845 17.523853,1.4700302 C 13.495659,2.1151802 14.229650,6.7127899 12.637353,7.2786352 C 11.034183,7.5594371 -2.8779381,9.0808467 3.4150055,24.008469 C 4.5599071,26.682471 5.2871152,27.184072 6.4838075,28.060726 C 7.6483019,28.848933 9.5180145,28.895064 11.034111,27.190083 C 12.419022,25.132471 11.821038,23.103976 11.178725,21.399802 C 9.1574747,16.298329 12.887111,16.237111 14.950046,15.160144 C 15.432203,16.945371 16.320644,21.158346 17.518396,21.099739 C 18.716158,21.041142 29.932268,17.536560 29.634050,12.215167 z "
       style="font-size:12.000000;fill:#0d3c07;fill-rule:evenodd"
       id="path582"
       sodipodi:nodetypes="cccsscsccc" />
    <path
       d="M 27.920552,12.045037 C 27.845128,10.049064 19.637848,2.9595809 17.836731,3.6557886 C 16.035524,4.3520331 16.950495,6.8891171 16.178211,8.2983198 C -1.3644770,8.6612267 3.2097086,28.261895 8.8927590,25.988715 C 12.005179,24.781629 6.7010821,19.706135 9.1683009,16.266553 C 11.260883,13.265714 16.786137,12.701609 16.899692,13.439741 C 17.126808,14.916029 17.406127,19.330054 18.373398,19.236410 C 19.340682,19.142767 28.342319,14.142100 27.920552,12.045037 z "
       style="font-size:12.000000;fill:#2aaf18;fill-rule:evenodd"
       id="path581"
       sodipodi:nodetypes="ccccsccc" />
    <path
       d="M 4.2030225,20.683533 C 4.8898065,16.297530 5.9007809,13.725889 8.2904327,11.918002 C 10.919906,9.8268400 15.383638,9.5060377 15.518516,9.1256960 C 15.653375,8.7453639 12.281213,9.7572684 9.6765436,10.536319 C 4.7932401,11.976527 3.7751776,17.657035 4.2030225,20.683533 z "
       style="font-size:12.000000;fill:#ffffff;fill-rule:evenodd"
       id="path588"
       sodipodi:nodetypes="cscsc" />
    <path
       d="M 23.939814,10.171925 C 23.384494,9.5240558 19.475039,6.2578460 18.408664,6.0305439 C 17.342351,5.8033087 18.052782,7.7719346 18.052782,7.7719346 C 18.052782,7.7719346 23.500909,9.4370111 23.939814,10.171925 z "
       style="font-size:12.000000;fill:#ffffff;fill-rule:evenodd"
       id="path589"
       sodipodi:nodetypes="cccc" />
    <path
       style="font-size:12.000000;fill:none;fill-rule:evenodd;stroke-width:1.0000000pt"
       d="M 24.317784,17.804967 C 24.317784,17.804967 28.695973,15.977129 28.688576,16.034526 C 28.681178,16.091914 27.873867,15.112660 27.873867,15.112660 L 26.739015,15.316455 L 24.223165,16.275773 L 24.317784,17.804967 z "
       id="path576" />
    <path
       style="fill:#1f8b10;fill-opacity:0.98989999;fill-rule:evenodd;stroke:none;stroke-width:1.0000000pt;stroke-linecap:butt;stroke-linejoin:miter;stroke-opacity:1.0000000"
       d="M 27.867301,12.031744 C 28.330068,14.808322 18.241829,19.435954 18.241829,19.435954 C 17.316300,18.695536 16.760984,13.697695 15.835460,13.049822 C 14.169513,13.790244 8.9865653,15.271084 8.7089099,17.214691 C 8.4312449,19.158298 9.8195411,23.045508 10.004648,23.971032 C 10.374857,25.359328 9.1716721,26.655061 7.9684874,26.099746 C 6.7653028,25.544430 6.5801960,24.433794 6.5801960,24.433794 C 6.5801960,24.433794 7.8759340,24.433799 8.0610408,23.415716 C 8.2461429,22.397639 5.5621181,17.399798 6.9504096,15.456191 C 8.3386963,13.512589 13.891852,10.828564 17.316300,11.106219 L 18.704591,16.844477 C 18.704591,16.844477 20.092878,16.751934 27.867301,12.031744 z "
       id="path615"
       sodipodi:nodetypes="cccccccccccc" />
  </g>
</svg>
