<?xml version="1.0" encoding="UTF-8" standalone="no"?>
<!DOCTYPE svg PUBLIC "-//W3C//DTD SVG 20010904//EN"
"http://www.w3.org/TR/2001/REC-SVG-20010904/DTD/svg10.dtd">
<!-- Created with Inkscape (http://www.inkscape.org/) -->
<svg
   id="svg604"
   sodipodi:version="0.32"
   width="24.000000pt"
   height="24.000000pt"
   sodipodi:docbase="/home/zeus/.icons/gartoon/scalable/stock-gar"
   sodipodi:docname="stock_configure-b.svg"
   inkscape:version="0.40"
   xmlns="http://www.w3.org/2000/svg"
   xmlns:inkscape="http://www.inkscape.org/namespaces/inkscape"
   xmlns:sodipodi="http://sodipodi.sourceforge.net/DTD/sodipodi-0.dtd"
   xmlns:xlink="http://www.w3.org/1999/xlink"
   xmlns:rdf="http://www.w3.org/1999/02/22-rdf-syntax-ns#"
   xmlns:cc="http://web.resource.org/cc/"
   xmlns:dc="http://purl.org/dc/elements/1.1/">
  <metadata
     id="metadata43">
    <rdf:RDF
       id="RDF44">
      <cc:Work
         rdf:about=""
         id="Work45">
        <dc:format
           id="format46">image/svg+xml</dc:format>
        <dc:type
           id="type48"
           rdf:resource="http://purl.org/dc/dcmitype/StillImage" />
      </cc:Work>
    </rdf:RDF>
  </metadata>
  <defs
     id="defs606">
    <linearGradient
       id="linearGradient610">
      <stop
         offset="0.00000000"
         style="stop-color:#666565;stop-opacity:1;"
         id="stop612" />
      <stop
         offset="1.00000000"
         style="stop-color:#ffffff;stop-opacity:1;"
         id="stop611" />
    </linearGradient>
    <linearGradient
       id="linearGradient612">
      <stop
         style="stop-color:#7fa8e3;stop-opacity:0.741176;"
         offset="0.000000"
         id="stop613" />
      <stop
         style="stop-color:#ffffff;stop-opacity:0;"
         offset="1.000000"
         id="stop614" />
    </linearGradient>
    <linearGradient
       xlink:href="#linearGradient612"
       id="linearGradient615"
       x1="50.6438866"
       y1="5.36792946"
       x2="35.7520943"
       y2="68.0443573"
       gradientUnits="userSpaceOnUse"
       spreadMethod="pad"
       gradientTransform="matrix(0.499739,0.000000,0.000000,0.499739,0.859726,3.142474e-2)" />
    <defs
       id="defs550">
      <linearGradient
         id="linearGradient554"
         x1="0.00000000"
         y1="0.00000000"
         x2="1.00000000"
         y2="0.00000000"
         gradientUnits="objectBoundingBox"
         spreadMethod="pad"
         xlink:href="#linearGradient610" />
      <linearGradient
         xlink:href="#linearGradient554"
         id="linearGradient557"
         x1="12.9236002"
         y1="79.9603500"
         x2="8.33575153"
         y2="72.2902298"
         gradientUnits="userSpaceOnUse"
         spreadMethod="pad"
         gradientTransform="scale(1.122498,0.890870)" />
      <linearGradient
         xlink:href="#linearGradient554"
         id="linearGradient559"
         x1="7.79836702"
         y1="68.6560287"
         x2="12.9945765"
         y2="78.4289169"
         gradientUnits="userSpaceOnUse"
         spreadMethod="pad"
         gradientTransform="scale(1.122498,0.890870)" />
      <linearGradient
         xlink:href="#linearGradient554"
         id="linearGradient563" />
    </defs>
    <sodipodi:namedview
       id="namedview578" />
    <defs
       id="defs573">
      <linearGradient
         id="linearGradient604">
        <stop
           offset="0.000000"
           style="stop-color:#666565;stop-opacity:1;"
           id="stop606" />
        <stop
           offset="1.000000"
           style="stop-color:#ffffff;stop-opacity:1;"
           id="stop605" />
      </linearGradient>
      <linearGradient
         id="linearGradient600">
        <stop
           style="stop-color:#000;stop-opacity:1;"
           offset="0"
           id="stop601" />
        <stop
           style="stop-color:#fff;stop-opacity:1;"
           offset="1"
           id="stop602" />
      </linearGradient>
      <linearGradient
         xlink:href="#linearGradient604"
         id="linearGradient603"
         x1="61.0468903"
         y1="28.6572132"
         x2="79.6281509"
         y2="14.1547699"
         gradientUnits="userSpaceOnUse"
         spreadMethod="pad"
         gradientTransform="scale(0.994399,1.005632)" />
    </defs>
    <sodipodi:namedview
       id="namedview799" />
    <linearGradient
       xlink:href="#linearGradient610"
       id="linearGradient613"
       x1="26.44122696"
       y1="54.83988953"
       x2="29.67018700"
       y2="59.91422272"
       gradientUnits="userSpaceOnUse"
       gradientTransform="scale(1.122498,0.890870)" />
    <radialGradient
       xlink:href="#linearGradient610"
       id="radialGradient614"
       cx="26.07568169"
       cy="54.87862015"
       r="7.29569149"
       fx="26.07568169"
       fy="54.87862015"
       gradientUnits="userSpaceOnUse"
       gradientTransform="matrix(0.560956,0.000000,0.000000,0.445203,0.859726,3.142474e-2)" />
    <linearGradient
       inkscape:collect="always"
       xlink:href="#linearGradient610"
       id="linearGradient1099"
       gradientUnits="userSpaceOnUse"
       gradientTransform="matrix(0.560956,0.000000,0.000000,0.445203,0.859726,3.142474e-2)"
       spreadMethod="pad"
       x1="12.9236002"
       y1="79.9603500"
       x2="8.33575153"
       y2="72.2902298" />
  </defs>
  <sodipodi:namedview
     id="base"
     inkscape:zoom="5.6568543"
     inkscape:cx="46.335792"
     inkscape:cy="38.051405"
     inkscape:window-width="1014"
     inkscape:window-height="696"
     inkscape:window-x="0"
     inkscape:window-y="25"
     inkscape:current-layer="svg604" />
  <path
     style="fill:#000000;fill-opacity:0.30147097;fill-rule:evenodd;stroke:none;stroke-width:1.0000000pt;stroke-linecap:butt;stroke-linejoin:miter;stroke-opacity:1.0000000"
     d="M 4.3241267,26.504793 C 3.4243469,26.095789 2.1973969,24.787042 2.8517778,22.987482 C 3.1789480,21.024380 9.0683766,3.6832868 10.377161,2.8653151 C 11.195095,2.1291444 12.381204,1.8428451 14.058051,2.2927350 C 15.448607,2.6199273 27.963606,5.8918507 28.699769,6.5462058 C 29.435969,7.2005979 30.008553,7.7322770 29.435969,9.1637366 C 29.027002,9.8999003 24.160002,26.422985 24.078231,27.486382 C 23.751035,28.631549 22.810388,30.022105 21.256216,29.940296 C 19.702081,29.858488 5.4692944,26.750182 4.3241267,26.504793 z "
     id="path794"
     sodipodi:nodetypes="ccccccccc" />
  <path
     style="fill:#3d4e67;fill-opacity:1.0000000;fill-rule:evenodd;stroke:none;stroke-width:1.0000000pt;stroke-linecap:butt;stroke-linejoin:miter;stroke-opacity:1.0000000"
     d="M 3.3754916,24.986976 C 2.4757118,24.577971 1.2487618,23.269224 1.9031428,21.469665 C 2.2303129,19.506563 8.1197413,2.1654687 9.4285255,1.3474971 C 10.246461,0.61132639 11.432569,0.32502709 13.109416,0.77491697 C 14.499971,1.1021094 27.014970,4.3740329 27.751134,5.0283878 C 28.487333,5.6827794 29.059918,6.2144591 28.487333,7.6459187 C 28.078366,8.3820821 23.211368,24.905168 23.129596,25.968564 C 22.802400,27.113731 21.861753,28.504287 20.307581,28.422479 C 18.753446,28.340671 4.5206592,25.232363 3.3754916,24.986976 z "
     id="path609"
     sodipodi:nodetypes="ccccccccc" />
  <path
     style="fill:#ffffff;fill-opacity:1.0000000;fill-rule:evenodd;stroke:none;stroke-width:1.0000000pt;stroke-linecap:butt;stroke-linejoin:miter;stroke-opacity:1.0000000"
     d="M 5.2568596,23.596420 C 4.3162126,23.351033 2.9664873,23.105607 3.4572999,21.633281 C 4.3570797,18.034199 8.9377499,4.2104163 10.900852,2.4926647 C 11.350761,2.0836604 12.863992,1.9200809 15.726910,2.8198608 C 18.998834,3.8014121 25.624415,6.0099385 26.278807,6.3371345 C 26.933162,6.6643305 27.178587,6.6643305 26.687774,8.1366942 C 25.951610,9.6090579 22.679725,22.205865 21.861716,24.332583 C 21.289169,25.845852 21.166457,26.541111 20.184869,26.541111"
     id="path608"
     sodipodi:nodetypes="cccccccs" />
  <path
     style="fill:url(#linearGradient615);fill-opacity:1.0000000;fill-rule:evenodd;stroke:none;stroke-width:1.0000000pt;stroke-linecap:butt;stroke-linejoin:miter;stroke-opacity:1.0000000"
     d="M 10.063840,5.4594271 C 10.063840,5.4594271 10.989430,3.4673376 13.461207,3.9860566 C 15.932983,4.5047890 25.629332,6.7816878 25.553680,7.5700658 C 25.478032,8.3584404 23.842973,13.024316 23.756053,13.419914 C 23.669129,13.815506 14.629578,13.878375 11.251937,16.039096 C 7.8743031,18.199813 5.3719608,20.040588 5.3719608,20.040588 C 5.3719608,20.040588 8.5913558,8.9413328 10.063840,5.4594271 z "
     id="path636" />
  <path
     style="font-size:12.000000;fill-opacity:0.29999998;fill-rule:evenodd;stroke-width:1.0000000"
     d="M 21.094788,11.309840 L 20.975528,27.234089 C 20.461690,29.779637 16.198458,30.498068 15.086444,26.982157 L 14.913893,10.915105 L 11.389541,8.4852402 L 12.411158,0.22858203 L 16.462812,0.53510172 L 16.965600,4.7001115 L 18.014769,4.8685099 L 18.879694,0.062816681 L 23.378995,0.94057287 L 23.818964,8.1886641 L 21.094788,11.309840 z "
     id="path570"
     sodipodi:nodetypes="ccccccccccccc" />
  <path
     style="font-size:12.000000;fill-rule:evenodd;stroke-width:1.0000000"
     d="M 19.557522,11.679004 L 19.438263,27.603252 C 18.924424,30.148800 14.661193,30.867231 13.549176,27.351322 L 13.376627,11.284268 L 9.8522752,8.8544027 L 10.873893,0.59774549 L 14.925546,0.90426518 L 15.428335,5.0692740 L 16.477503,5.2376725 L 17.342426,0.43198016 L 21.841729,1.3097363 L 22.281699,8.5578267 L 19.557522,11.679004 z "
     id="path569"
     sodipodi:nodetypes="ccccccccccccc" />
  <path
     style="font-size:12.000000;fill:#c9c9c9;fill-rule:evenodd;stroke-width:1.0000000"
     d="M 18.293312,10.934506 L 18.335801,26.698347 C 18.036370,28.687913 15.267533,28.904944 14.567619,26.852386 L 14.676655,10.544050 L 11.131997,8.2082698 L 11.908771,1.7804154 L 13.865335,2.0755746 L 14.761148,6.1822239 L 17.399959,6.3445536 L 18.328729,1.6896756 L 20.593709,2.2466596 L 20.861814,7.9239289 L 18.293312,10.934506 z "
     id="path552"
     sodipodi:nodetypes="ccccccccccccc" />
  <path
     style="font-size:12.000000;fill:#9d9d9d;fill-rule:evenodd;stroke-width:1.0000000"
     d="M 18.280420,11.033588 C 18.144321,10.995704 17.224306,11.561015 16.905437,10.914956 L 16.878820,16.070213 C 17.299259,16.245883 18.153896,16.337043 18.190933,16.362011 C 18.227993,16.386996 18.316657,11.219660 18.280420,11.033588 z "
     id="path566"
     sodipodi:nodetypes="ccccc" />
  <path
     style="font-size:12.000000;fill:#ffc83d;fill-rule:evenodd;stroke-width:1.0000000"
     d="M 18.271664,15.123152 L 18.335801,26.698347 C 18.036370,28.687913 15.267533,28.904944 14.567619,26.852386 L 14.628356,15.091958 C 15.885679,13.999630 17.196685,14.506223 18.271664,15.123152 z "
     id="path562"
     sodipodi:nodetypes="ccccc" />
  <path
     style="font-size:12.000000;fill:#ffffff;fill-rule:evenodd;stroke-width:1.0000000"
     d="M 15.755258,15.258853 L 15.611651,26.262919 C 15.611651,26.262919 14.977644,26.643816 14.990560,26.544750 C 15.003455,26.445665 14.948908,15.415797 14.948908,15.415797 L 15.755258,15.258853 z "
     id="path568" />
  <path
     style="font-size:12.000000;fill:#ff933d;fill-rule:evenodd;stroke-width:1.0000000"
     d="M 18.271664,15.123152 L 18.335801,26.698347 C 17.891512,27.943605 18.417542,26.070887 16.239825,27.009731 L 16.251442,15.162303 C 16.587954,14.796391 17.196685,14.506223 18.271664,15.123152 z "
     id="path567"
     sodipodi:nodetypes="ccccc" />
  <path
     style="font-size:12.000000;fill:url(#linearGradient1099);fill-rule:evenodd;stroke-width:1.0000000"
     d="M 16.418758,24.021882 C 17.067206,24.070370 17.547337,24.771124 17.490498,25.586061 C 17.433659,26.401014 16.861265,27.023069 16.212818,26.974577 C 15.564371,26.926088 15.084240,26.225327 15.141078,25.410374 C 15.197918,24.595441 15.770312,23.973393 16.418758,24.021882 z "
     id="path561" />
  <path
     style="font-size:12.000000;fill:url(#radialGradient614);fill-rule:evenodd;stroke-width:1.0000000"
     d="M 16.392632,24.396520 C 16.876528,24.432707 17.234820,24.955633 17.192405,25.563769 C 17.149989,26.171919 16.722848,26.636115 16.238952,26.599932 C 15.755058,26.563748 15.396766,26.040816 15.439182,25.432666 C 15.481598,24.824530 15.908739,24.360336 16.392632,24.396520 z "
     id="path560" />
  <path
     style="font-size:12.000000;fill:#969696;fill-rule:evenodd;stroke-width:1.0000000"
     d="M 12.449942,2.5763788 L 11.890884,7.6421411 L 14.669573,9.5154104 L 17.915743,9.6560985 L 19.860646,7.4106651 L 20.045888,2.7395324 L 18.968959,2.4985135 L 18.138454,7.3274106 L 14.285762,7.0472494 L 13.205513,2.6546210 L 12.449942,2.5763788 z "
     id="path564"
     sodipodi:nodetypes="ccccccccccc" />
  <path
     style="font-size:12.000000;fill:#bbbbbb;fill-rule:evenodd;stroke-width:1.0000000"
     d="M 12.846238,2.6279964 L 12.510313,7.6825056 L 14.833164,9.0329215 L 17.658053,9.1590571 L 19.860646,7.4106651 L 20.045888,2.7395324 L 19.278265,2.5992608 L 18.522697,7.3169980 L 14.372778,6.9981366 L 13.205513,2.6546210 L 12.846238,2.6279964 z "
     id="path565"
     sodipodi:nodetypes="ccccccccccc" />
</svg>
