<?xml version="1.0" encoding="UTF-8" standalone="no"?>
<!-- Created with Sodipodi ("http://www.sodipodi.com/") -->
<svg
   xmlns:dc="http://purl.org/dc/elements/1.1/"
   xmlns:cc="http://creativecommons.org/ns#"
   xmlns:rdf="http://www.w3.org/1999/02/22-rdf-syntax-ns#"
   xmlns:svg="http://www.w3.org/2000/svg"
   xmlns="http://www.w3.org/2000/svg"
   xmlns:xlink="http://www.w3.org/1999/xlink"
   xmlns:sodipodi="http://sodipodi.sourceforge.net/DTD/sodipodi-0.dtd"
   xmlns:inkscape="http://www.inkscape.org/namespaces/inkscape"
   id="svg569"
   sodipodi:version="0.32"
   width="72pt"
   height="72pt"
   sodipodi:docbase="/home/tweenk/GNUtoon/actions"
   sodipodi:docname="location-entry.svg"
   inkscape:version="0.46+devel"
   inkscape:output_extension="org.inkscape.output.svg.inkscape">
  <metadata
     id="metadata22">
    <rdf:RDF>
      <cc:Work
         rdf:about="">
        <dc:format>image/svg+xml</dc:format>
        <dc:type
           rdf:resource="http://purl.org/dc/dcmitype/StillImage" />
      </cc:Work>
    </rdf:RDF>
  </metadata>
  <defs
     id="defs571">
    <inkscape:perspective
       sodipodi:type="inkscape:persp3d"
       inkscape:vp_x="0 : 45 : 1"
       inkscape:vp_y="0 : 1000 : 0"
       inkscape:vp_z="90 : 45 : 1"
       inkscape:persp3d-origin="45 : 30 : 1"
       id="perspective32" />
    <linearGradient
       id="linearGradient584">
      <stop
         style="stop-color:#ffffff;stop-opacity:0;"
         offset="0.000000"
         id="stop585" />
      <stop
         style="stop-color:#ffffff;stop-opacity:1;"
         offset="1.000000"
         id="stop586" />
    </linearGradient>
    <linearGradient
       xlink:href="#linearGradient584"
       id="linearGradient587"
       x1="28.2520447"
       y1="32.8688049"
       x2="68.3603058"
       y2="21.4794312"
       gradientUnits="userSpaceOnUse"
       spreadMethod="pad"
       gradientTransform="matrix(1.036821,-1.811349e-6,3.827296e-7,0.964487,2.057071e-6,1.075978e-6)" />
    <linearGradient
       inkscape:collect="always"
       xlink:href="#linearGradient584"
       id="linearGradient3175"
       gradientUnits="userSpaceOnUse"
       gradientTransform="matrix(1.036821,-1.811349e-6,3.827296e-7,0.964487,2.057071e-6,1.075978e-6)"
       spreadMethod="pad"
       x1="28.2520447"
       y1="32.8688049"
       x2="68.3603058"
       y2="21.4794312" />
  </defs>
  <sodipodi:namedview
     id="base"
     inkscape:zoom="4.5222222"
     inkscape:cx="60.363198"
     inkscape:cy="34.017147"
     inkscape:window-width="795"
     inkscape:window-height="724"
     inkscape:window-x="0"
     inkscape:window-y="1"
     inkscape:current-layer="svg569"
     showgrid="false" />
  <path
     style="fill:#000000;fill-opacity:0.29411765;stroke:none"
     d="m 13.802672,53.177672 c -2.2598622,0 -4.3420632,0.596299 -5.96875,1.6875 -1.6266868,1.091201 -2.875,2.820086 -2.875,4.875 l 0,22.8125 c 0,2.054914 1.2483128,3.783799 2.875,4.875 1.6266872,1.091201 3.7088875,1.687502 5.96875,1.6875 l 67.03125,0 c 2.259862,0 4.342063,-0.596299 5.96875,-1.6875 1.626687,-1.091201 2.875002,-2.820086 2.875,-4.875 l 0,-22.8125 c 0,-2.054914 -1.248313,-3.783799 -2.875,-4.875 -1.626687,-1.091201 -3.708887,-1.6875 -5.96875,-1.6875 z"
     id="path3291" />
  <g
     id="g3160"
     transform="matrix(0.8562119,0,0,0.8562119,7.4726787,0.3721441)">
    <path
       transform="matrix(0.941981,0,0,0.941981,5.915554,5.37508)"
       sodipodi:ry="40.459522"
       sodipodi:rx="40.459526"
       sodipodi:cy="45.390781"
       sodipodi:cx="43.364311"
       d="M 83.823837 45.390781 A 40.459526 40.459522 0 1 1  2.9047852,45.390781 A 40.459526 40.459522 0 1 1  83.823837 45.390781 z"
       id="path589"
       style="font-size:12px;fill:none;fill-rule:evenodd;stroke:#000000;stroke-width:8.5;stroke-opacity:0.3"
       sodipodi:type="arc" />
    <path
       transform="matrix(0.846155,0,0,0.846155,6.256445,5.738268)"
       sodipodi:ry="40.459522"
       sodipodi:rx="40.459526"
       sodipodi:cy="45.390781"
       sodipodi:cx="43.364311"
       d="M 83.823837 45.390781 A 40.459526 40.459522 0 1 1  2.9047852,45.390781 A 40.459526 40.459522 0 1 1  83.823837 45.390781 z"
       id="path573"
       style="font-size:12px;fill:#31baff;fill-rule:evenodd;stroke-width:1pt"
       sodipodi:type="arc" />
    <path
       sodipodi:nodetypes="ccccccccc"
       id="path576"
       d="M 28.507,13.4277 L 33.5075,22.0666 L 21.4273,37.0306 C 21.4273,37.0306 27.3038,50.7498 31.5585,50.5779 C 28.9177,51.1396 28.922,62.4819 30.2424,66.003 C 34.3774,62.4315 14.8677,57.4856 16.5276,47.5264 C 18.1874,37.5671 17.0138,35.0166 12.4491,42.0711 C 7.88442,49.1255 7.05448,50.9929 7.46945,47.6731 C 7.88442,44.3534 6.46331,19.7781 28.507,13.4277 z "
       style="font-size:12px;fill:#e48e6f;fill-rule:evenodd;stroke-width:1pt" />
    <path
       id="path574"
       d="M 30.7077,12.4007 L 37.7622,22.36 L 24.0682,36.8839 C 24.0682,36.8839 33.6125,50.1629 33.6125,50.5779 C 33.6125,50.9929 29.8778,61.3671 29.8778,61.3671 C 29.8778,61.3671 16.5988,54.3126 18.2587,44.3534 C 19.9185,34.3941 18.2587,30.6594 13.694,37.7139 C 9.12933,44.7683 7.05448,50.9929 7.46945,47.6731 C 7.88442,44.3534 9.5443,16.5504 30.7077,12.4007 z "
       style="font-size:12px;fill:#fffcac;fill-rule:evenodd;stroke-width:1pt" />
    <path
       sodipodi:nodetypes="ccccccccc"
       id="path575"
       d="M 28.507,13.4277 L 33.5075,22.0666 L 21.4273,37.0306 C 21.4273,37.0306 27.3038,50.7498 31.5585,50.5779 C 28.9177,51.1396 27.6771,56.6723 28.9975,60.1934 C 27.5304,55.792 16.5276,56.2407 18.1875,46.2815 C 19.8473,36.3222 18.2587,30.6594 13.694,37.7139 C 9.12933,44.7683 7.05448,50.9929 7.46945,47.6731 C 7.88442,44.3534 6.46331,19.7781 28.507,13.4277 z "
       style="font-size:12px;fill:#ffd87c;fill-rule:evenodd;stroke-width:1pt" />
    <path
       id="path577"
       d="M 42.8405,18.697 C 42.8405,18.697 48.1222,22.5116 42.2536,28.0867 C 36.385,33.6619 28.1691,35.7159 35.2113,39.5304 C 42.2536,43.345 51.9367,43.9318 51.0564,37.183 C 50.1762,30.4342 49.0025,16.0562 42.8405,18.697 z "
       style="font-size:12px;fill:#e48e6f;fill-rule:evenodd;stroke-width:1pt" />
    <path
       transform="matrix(0.968474,0,0,0.938789,2.198177,1.124868)"
       id="path578"
       d="M 42.8405,18.697 C 42.8405,18.697 48.1222,22.5116 42.2536,28.0867 C 36.385,33.6619 28.1691,35.7159 35.2113,39.5304 C 42.2536,43.345 51.9367,43.9318 51.0564,37.183 C 50.1762,30.4342 49.0025,16.0562 42.8405,18.697 z "
       style="font-size:12px;fill:#fffbaa;fill-rule:evenodd;stroke-width:1pt" />
    <path
       transform="matrix(0.82661,0,0,0.889821,6.808317,2.024765)"
       id="path579"
       d="M 42.8405,18.697 C 42.8405,18.697 48.1222,22.5116 42.2536,28.0867 C 36.385,33.6619 28.1691,35.7159 35.2113,39.5304 C 42.2536,43.345 51.9367,43.9318 51.0564,37.183 C 50.1762,30.4342 49.0025,16.0562 42.8405,18.697 z "
       style="font-size:12px;fill:#ffd87c;fill-rule:evenodd;stroke-width:1pt" />
    <path
       id="path580"
       d="M 77.1715,47.1595 C 77.1715,47.1595 63.087,45.1055 62.2067,45.6924 C 61.3264,46.2793 49.0024,47.453 50.1762,53.9084 C 51.3499,60.3638 55.4579,65.6455 50.1762,69.4601 C 44.8945,73.2746 39.0259,76.2089 44.3076,77.9695 C 49.5893,79.73 56.925,77.676 59.2724,75.622 C 61.6198,73.568 56.6316,72.3943 57.2184,66.5258 C 57.8053,60.6572 56.0447,56.8427 62.2067,58.8966 C 68.3687,60.9506 68.0753,63.2981 72.1832,58.8966 C 76.2912,54.4952 79.8124,53.3215 77.1715,47.1595 z "
       style="font-size:12px;fill:#e48e6f;fill-rule:evenodd;stroke-width:1pt" />
    <path
       sodipodi:nodetypes="cccccccccc"
       transform="matrix(1,0,0,0.946729,0,2.428446)"
       id="path582"
       d="M 77.1715,47.1595 C 78.3452,45.6098 63.087,41.3862 62.2067,43.8328 C 61.3264,41.9402 46.3615,44.6636 47.5354,51.1189 C 48.7091,57.5744 53.6973,64.7157 48.4156,68.5303 C 43.1339,72.3448 39.0259,76.2089 44.3076,77.9695 C 49.5893,79.73 56.925,77.676 59.2724,75.622 C 61.6198,73.568 55.4579,72.3943 56.0447,66.5258 C 56.6316,60.6572 56.0447,55.293 62.2067,57.3469 C 68.3687,59.4009 68.0753,61.7484 72.1832,57.3469 C 76.2912,52.9455 79.8124,53.3215 77.1715,47.1595 z "
       style="font-size:12px;fill:#fffcac;fill-rule:evenodd;stroke-width:1pt" />
    <path
       sodipodi:nodetypes="cccccccccc"
       transform="matrix(1,0,0,0.946729,0,2.428446)"
       id="path581"
       d="M 77.1715,47.1595 C 77.1715,47.1595 63.087,45.1055 62.2067,45.6924 C 61.3264,46.2793 49.0024,47.453 50.1762,53.9084 C 51.3499,60.3638 55.4579,65.6455 50.1762,69.4601 C 44.8945,73.2746 39.0259,76.2089 44.3076,77.9695 C 49.5893,79.73 56.925,77.676 59.2724,75.622 C 61.6198,73.568 55.4579,72.3943 56.0447,66.5258 C 56.6316,60.6572 56.0447,55.293 62.2067,57.3469 C 68.3687,59.4009 68.0753,61.7484 72.1832,57.3469 C 76.2912,52.9455 79.8124,53.3215 77.1715,47.1595 z "
       style="font-size:12px;fill:#ffd87c;fill-rule:evenodd;stroke-width:1pt" />
    <path
       id="path654"
       d="M 83.8238,45.3908 C 83.8238,67.7244 65.698,85.8503 43.3643,85.8503 C 21.0307,85.8503 2.90479,67.7244 2.90479,45.3908 C 2.90479,23.0571 21.0307,4.93126 43.3643,4.93126 C 65.698,4.93126 83.8238,23.0571 83.8238,45.3908 z "
       style="font-size:12px;fill:none;fill-rule:evenodd;stroke:#283d53;stroke-width:8.5"
       transform="matrix(0.920224,0,0,0.920224,3.044474,1.961231)" />
    <path
       id="path588"
       d="M 72.1832,30.4342 C 72.1832,40.1525 63.7044,48.0398 53.2571,48.0398 C 42.8099,48.0398 34.3311,40.1525 34.3311,30.4342 C 34.3311,20.7158 42.8099,12.8285 53.2571,12.8285 C 63.7044,12.8285 72.1832,20.7158 72.1832,30.4342 z "
       style="font-size:12px;fill:url(#linearGradient3175);fill-rule:evenodd;stroke-width:1pt"
       transform="matrix(0.933582,-0.664775,0.918324,1.029434,-29.83966,37.88266)" />
  </g>
  <rect
     rx="6.9042134"
     ry="4.6314297"
     y="53.11224"
     x="4.9062138"
     height="32.090004"
     width="80.850143"
     id="rect3147"
     style="fill:#ffffff;fill-opacity:1;stroke:#283d53;stroke-width:3.85965918999999991;stroke-miterlimit:4;stroke-opacity:1;stroke-dasharray:none" />
  <g
     id="g2181"
     transform="matrix(0.7996946,0,0,0.7996946,5.7401363,14.061722)">
    <path
       id="path3177"
       d="m 13.408215,58.642929 9.448928,0"
       style="fill:none;stroke:#000000;stroke-width:5.6695857;stroke-linecap:round;stroke-linejoin:miter;stroke-miterlimit:4;stroke-opacity:1;stroke-dasharray:none" />
    <path
       style="fill:none;stroke:#000000;stroke-width:5.6695857;stroke-linecap:round;stroke-linejoin:miter;stroke-miterlimit:4;stroke-opacity:1;stroke-dasharray:none"
       d="m 13.408215,80.00572 9.448928,0"
       id="path4148" />
    <path
       sodipodi:nodetypes="cc"
       id="path4150"
       d="m 18.132679,79.389485 0,-19.924911"
       style="fill:none;stroke:#000000;stroke-width:5.6695857;stroke-linecap:round;stroke-linejoin:miter;stroke-miterlimit:4;stroke-opacity:1;stroke-dasharray:none" />
  </g>
</svg>
