<?xml version="1.0" encoding="UTF-8" standalone="no"?>
<!DOCTYPE svg PUBLIC "-//W3C//DTD SVG 20010904//EN"
"http://www.w3.org/TR/2001/REC-SVG-20010904/DTD/svg10.dtd">
<!-- Created with Sodipodi ("http://www.sodipodi.com/") -->
<svg
   id="svg848"
   sodipodi:version="0.32"
   width="24.000000pt"
   height="24.000000pt"
   sodipodi:docbase="/home/zeus/.icons/gartoon/scalable/stock-gar"
   sodipodi:docname="stock_mail-send-receive.svg"
   inkscape:version="0.40"
   xmlns="http://www.w3.org/2000/svg"
   xmlns:inkscape="http://www.inkscape.org/namespaces/inkscape"
   xmlns:sodipodi="http://sodipodi.sourceforge.net/DTD/sodipodi-0.dtd"
   xmlns:xlink="http://www.w3.org/1999/xlink"
   xmlns:rdf="http://www.w3.org/1999/02/22-rdf-syntax-ns#"
   xmlns:cc="http://web.resource.org/cc/"
   xmlns:dc="http://purl.org/dc/elements/1.1/">
  <metadata
     id="metadata35">
    <rdf:RDF
       id="RDF36">
      <cc:Work
         rdf:about=""
         id="Work37">
        <dc:format
           id="format38">image/svg+xml</dc:format>
        <dc:type
           id="type40"
           rdf:resource="http://purl.org/dc/dcmitype/StillImage" />
      </cc:Work>
    </rdf:RDF>
  </metadata>
  <defs
     id="defs850">
    <linearGradient
       id="linearGradient658">
      <stop
         style="stop-color:#ffff32;stop-opacity:1;"
         offset="0"
         id="stop659" />
      <stop
         style="stop-color:#ffad00;stop-opacity:1;"
         offset="1"
         id="stop660" />
    </linearGradient>
    <linearGradient
       id="linearGradient867">
      <stop
         style="stop-color:#92b5d7;stop-opacity:0.780392;"
         offset="0.000000"
         id="stop868" />
      <stop
         style="stop-color:#ffffff;stop-opacity:0.321569;"
         offset="1.000000"
         id="stop869" />
    </linearGradient>
    <linearGradient
       id="linearGradient860">
      <stop
         style="stop-color:#92b5d7;stop-opacity:1;"
         offset="0.000000"
         id="stop861" />
      <stop
         style="stop-color:#ffffff;stop-opacity:1;"
         offset="1.000000"
         id="stop862" />
    </linearGradient>
    <linearGradient
       xlink:href="#linearGradient860"
       id="linearGradient863"
       x1="37.1263046"
       y1="43.8387909"
       x2="68.4099197"
       y2="44.9346657"
       gradientUnits="userSpaceOnUse"
       gradientTransform="scale(1.036866,0.964444)"
       spreadMethod="reflect" />
    <radialGradient
       xlink:href="#linearGradient658"
       id="radialGradient864"
       r="35.8405914"
       fy="37.0078964"
       fx="52.7579117"
       cy="37.0078964"
       cx="52.7579117"
       spreadMethod="reflect"
       gradientTransform="matrix(1.036866,0,0,0.964444,1.409599e-6,3.093137e-8)"
       gradientUnits="userSpaceOnUse" />
    <linearGradient
       xlink:href="#linearGradient867"
       id="linearGradient866"
       x1="38.6465225"
       y1="64.3994370"
       x2="39.4948082"
       y2="29.9777260"
       gradientUnits="userSpaceOnUse"
       spreadMethod="pad"
       gradientTransform="scale(1.261031,0.793002)" />
    <linearGradient
       xlink:href="#linearGradient867"
       id="linearGradient871"
       x1="28.1977272"
       y1="108.285172"
       x2="33.4352608"
       y2="93.4385986"
       gradientUnits="userSpaceOnUse"
       spreadMethod="pad"
       gradientTransform="scale(1.520920,0.657497)" />
    <sodipodi:namedview
       id="namedview863"
       inkscape:zoom="9.65625000"
       inkscape:cx="16.0000000"
       inkscape:cy="20.1423948"
       inkscape:window-width="1014"
       inkscape:window-height="696"
       inkscape:window-x="0"
       inkscape:window-y="0" />
    <defs
       id="defs550">
      <linearGradient
         x1="0.00000000"
         y1="0.00000000"
         x2="1.00000000"
         y2="0.00000000"
         id="linearGradient556"
         gradientUnits="objectBoundingBox"
         spreadMethod="pad">
        <stop
           style="stop-color:#ff8700;stop-opacity:1;"
           offset="0.00000000"
           id="stop557" />
        <stop
           style="stop-color:#ffff8d;stop-opacity:0;"
           offset="1.00000000"
           id="stop558" />
      </linearGradient>
      <linearGradient
         x1="0.00000000"
         y1="0.00000000"
         x2="1.00000000"
         y2="0.00000000"
         id="linearGradient559"
         xlink:href="#linearGradient556"
         gradientUnits="objectBoundingBox"
         spreadMethod="pad" />
    </defs>
  </defs>
  <sodipodi:namedview
     id="base"
     inkscape:zoom="2.8645833"
     inkscape:cx="23.408225"
     inkscape:cy="34.752082"
     inkscape:window-width="1014"
     inkscape:window-height="686"
     inkscape:window-x="0"
     inkscape:window-y="25"
     inkscape:current-layer="svg848" />
  <g
     id="g859"
     transform="matrix(0.000000,0.538087,-0.538087,0.000000,32.39435,1.009089)">
    <path
       d="M 51.966500,36.048600 C 53.960200,37.045400 65.472400,34.771300 65.757200,32.635300 C 66.873800,29.083900 63.844700,27.777700 64.064000,26.235800 C 64.491200,24.811700 69.389700,19.309400 68.835800,17.580500 C 67.242300,14.436200 62.970200,10.566800 59.959400,12.438100 C 57.364500,14.781300 55.630700,20.715100 54.064200,20.145500 C 52.497700,19.575900 51.112100,20.063400 50.684900,21.060200 C 50.257700,22.057000 49.688100,35.336500 51.966500,36.048600 z "
       transform="matrix(0.881005,1.209351,-1.066114,0.776658,-6.414070,-46.08250)"
       style="fill:#ff933d;fill-opacity:1.0000000;fill-rule:evenodd;stroke-width:1.0000000pt"
       id="path582" />
    <path
       d="M 51.550600,35.458900 C 53.544300,36.455700 64.224700,34.889200 64.509500,32.753200 C 64.794300,30.617100 61.661400,29.193000 62.088600,27.769000 C 62.515800,26.344900 69.493700,17.658200 68.212000,16.519000 C 66.930400,15.379700 62.658200,11.392400 61.519000,12.674000 C 60.379700,13.955700 55.110800,23.781600 53.544300,23.212000 C 51.977800,22.642400 50.696200,21.360800 50.269000,22.357600 C 49.841800,23.354400 49.272200,34.746800 51.550600,35.458900 z "
       style="fill:#ffe6ba;fill-opacity:1.0000000;fill-rule:evenodd;stroke-width:1.0000000pt"
       id="path581"
       transform="matrix(0.643239,0.882971,-0.882971,0.643239,3.230534,-23.57134)" />
    <path
       d="M 67.642400,15.949400 C 67.642400,15.949400 69.066500,16.803800 68.069600,18.512700 C 67.072800,20.221500 61.519000,27.769000 61.946200,28.338600 C 63.512600,29.620200 65.363900,32.753100 64.367100,33.607600 C 62.658300,35.174000 52.832300,36.313300 51.693000,35.743700 C 50.553800,35.174000 60.094900,33.465200 60.237300,31.044300 C 60.379700,28.623400 57.816500,27.626600 58.670900,26.202500 C 59.525300,24.778500 65.363900,14.952500 66.218400,15.237300 C 67.072800,15.522100 67.784800,16.519000 67.642400,15.949400 z "
       style="fill:#ffd056;fill-opacity:1.0000000;fill-rule:evenodd;stroke-width:1.0000000pt"
       id="path583"
       transform="matrix(0.643239,0.882971,-0.882971,0.643239,3.230534,-23.57134)" />
    <path
       d="M 16.946200,4.6519000 C 16.946200,4.6519000 9.2563300,14.193000 9.5411400,15.047500 C 9.8259500,15.901900 17.373400,8.4968300 16.946200,4.6519000 z "
       transform="matrix(0.643239,0.882971,-0.882971,0.643239,24.89593,22.81340)"
       style="font-size:12.000000;fill:#ffffff;fill-rule:evenodd;stroke-width:1.0000000pt"
       id="path588" />
    <path
       d="M 5.4113900,24.019000 C 5.4113900,24.019000 4.4145600,17.468400 4.8417700,16.329100 C 5.2689900,15.189900 6.6930400,17.041100 6.6930400,17.041100 C 6.6930400,17.041100 4.9841800,23.164600 5.4113900,24.019000 z "
       transform="matrix(0.643239,0.882971,-0.882971,0.643239,24.89593,22.81340)"
       style="font-size:12.000000;fill:#ffffff;fill-rule:evenodd;stroke-width:1.0000000pt"
       id="path589" />
  </g>
  <g
     id="g876"
     transform="matrix(0.535861,0.000000,0.000000,-0.535861,-3.719730,33.92006)">
    <path
       d="M 51.966500,36.048600 C 53.960200,37.045400 65.472400,34.771300 65.757200,32.635300 C 66.873800,29.083900 63.844700,27.777700 64.064000,26.235800 C 64.491200,24.811700 69.389700,19.309400 68.835800,17.580500 C 67.242300,14.436200 62.970200,10.566800 59.959400,12.438100 C 57.364500,14.781300 55.630700,20.715100 54.064200,20.145500 C 52.497700,19.575900 51.112100,20.063400 50.684900,21.060200 C 50.257700,22.057000 49.688100,35.336500 51.966500,36.048600 z "
       transform="matrix(-1.209351,0.881005,-0.776658,-1.066114,137.7673,1.675955)"
       style="fill:#0c3c07;fill-opacity:1.0000000;fill-rule:evenodd;stroke-width:1.0000000pt"
       id="path866" />
    <path
       d="M 51.550600,35.458900 C 53.544300,36.455700 64.224700,34.889200 64.509500,32.753200 C 64.794300,30.617100 61.661400,29.193000 62.088600,27.769000 C 62.515800,26.344900 69.493700,17.658200 68.212000,16.519000 C 66.930400,15.379700 62.658200,11.392400 61.519000,12.674000 C 60.379700,13.955700 55.110800,23.781600 53.544300,23.212000 C 51.977800,22.642400 50.696200,21.360800 50.269000,22.357600 C 49.841800,23.354400 49.272200,34.746800 51.550600,35.458900 z "
       style="fill:#2aaf18;fill-opacity:1.0000000;fill-rule:evenodd;stroke-width:1.0000000pt"
       id="path867"
       transform="matrix(-0.882971,0.643239,-0.643239,-0.882971,115.2561,11.32056)" />
    <path
       d="M 67.642400,15.949400 C 67.642400,15.949400 69.066500,16.803800 68.069600,18.512700 C 67.072800,20.221500 61.519000,27.769000 61.946200,28.338600 C 63.512600,29.620200 65.363900,32.753100 64.367100,33.607600 C 62.658300,35.174000 52.832300,36.313300 51.693000,35.743700 C 50.553800,35.174000 60.094900,33.465200 60.237300,31.044300 C 60.379700,28.623400 57.816500,27.626600 58.670900,26.202500 C 59.525300,24.778500 65.363900,14.952500 66.218400,15.237300 C 67.072800,15.522100 67.784800,16.519000 67.642400,15.949400 z "
       style="fill:#208c11;fill-opacity:1.0000000;fill-rule:evenodd;stroke-width:1.0000000pt"
       id="path868"
       transform="matrix(-0.882971,0.643239,-0.643239,-0.882971,115.2561,11.32056)" />
    <path
       d="M 16.946200,4.6519000 C 16.946200,4.6519000 9.2563300,14.193000 9.5411400,15.047500 C 9.8259500,15.901900 17.373400,8.4968300 16.946200,4.6519000 z "
       transform="matrix(-0.882971,0.643239,-0.643239,-0.882971,68.87137,32.98596)"
       style="font-size:12.000000;fill:#ffffff;fill-rule:evenodd;stroke-width:1.0000000pt"
       id="path869" />
    <path
       d="M 5.4113900,24.019000 C 5.4113900,24.019000 4.4145600,17.468400 4.8417700,16.329100 C 5.2689900,15.189900 6.6930400,17.041100 6.6930400,17.041100 C 6.6930400,17.041100 4.9841800,23.164600 5.4113900,24.019000 z "
       transform="matrix(-0.882971,0.643239,-0.643239,-0.882971,68.87137,32.98596)"
       style="font-size:12.000000;fill:#ffffff;fill-rule:evenodd;stroke-width:1.0000000pt"
       id="path870" />
  </g>
</svg>
