<?xml version="1.0" encoding="UTF-8" standalone="no"?>
<!-- Created with Sodipodi ("http://www.sodipodi.com/") -->
<svg
   xmlns:dc="http://purl.org/dc/elements/1.1/"
   xmlns:cc="http://creativecommons.org/ns#"
   xmlns:rdf="http://www.w3.org/1999/02/22-rdf-syntax-ns#"
   xmlns:svg="http://www.w3.org/2000/svg"
   xmlns="http://www.w3.org/2000/svg"
   xmlns:xlink="http://www.w3.org/1999/xlink"
   xmlns:sodipodi="http://sodipodi.sourceforge.net/DTD/sodipodi-0.dtd"
   xmlns:inkscape="http://www.inkscape.org/namespaces/inkscape"
   id="svg548"
   sodipodi:version="0.32"
   width="72pt"
   height="72pt"
   sodipodi:docbase="/home/zeus"
   sodipodi:docname="media-optical-burn.svg"
   inkscape:version="0.46+devel"
   inkscape:output_extension="org.inkscape.output.svg.inkscape">
  <metadata
     id="metadata24">
    <rdf:RDF>
      <cc:Work
         rdf:about="">
        <dc:format>image/svg+xml</dc:format>
        <dc:type
           rdf:resource="http://purl.org/dc/dcmitype/StillImage" />
      </cc:Work>
    </rdf:RDF>
  </metadata>
  <defs
     id="defs550">
    <linearGradient
       inkscape:collect="always"
       id="linearGradient3374">
      <stop
         style="stop-color:#000000;stop-opacity:0.29411766"
         offset="0"
         id="stop3376" />
      <stop
         style="stop-color:#000000;stop-opacity:0;"
         offset="1"
         id="stop3378" />
    </linearGradient>
    <linearGradient
       id="linearGradient3345"
       inkscape:collect="always">
      <stop
         id="stop3347"
         offset="0"
         style="stop-color:#ff933d;stop-opacity:1" />
      <stop
         id="stop3349"
         offset="1"
         style="stop-color:#f1e36c;stop-opacity:1" />
    </linearGradient>
    <linearGradient
       inkscape:collect="always"
       id="linearGradient3337">
      <stop
         style="stop-color:#ffffff;stop-opacity:1;"
         offset="0"
         id="stop3339" />
      <stop
         style="stop-color:#ffffff;stop-opacity:0;"
         offset="1"
         id="stop3341" />
    </linearGradient>
    <linearGradient
       id="linearGradient3307"
       inkscape:collect="always">
      <stop
         id="stop3309"
         offset="0"
         style="stop-color:#ed0000;stop-opacity:1" />
      <stop
         id="stop3311"
         offset="1"
         style="stop-color:#ff933d;stop-opacity:0;" />
    </linearGradient>
    <linearGradient
       inkscape:collect="always"
       id="linearGradient3297">
      <stop
         style="stop-color:#ffc93f;stop-opacity:1"
         offset="0"
         id="stop3299" />
      <stop
         style="stop-color:#ffc93f;stop-opacity:0"
         offset="1"
         id="stop3301" />
    </linearGradient>
    <linearGradient
       inkscape:collect="always"
       id="linearGradient3285">
      <stop
         style="stop-color:#ed0000;stop-opacity:1;"
         offset="0"
         id="stop3287" />
      <stop
         style="stop-color:#ff933d;stop-opacity:1"
         offset="1"
         id="stop3289" />
    </linearGradient>
    <linearGradient
       id="linearGradient558">
      <stop
         style="stop-color:#ee8d92;stop-opacity:1;"
         offset="0"
         id="stop559" />
      <stop
         style="stop-color:#ffffff;stop-opacity:0;"
         offset="1.000000"
         id="stop560" />
    </linearGradient>
    <linearGradient
       xlink:href="#linearGradient558"
       id="linearGradient563"
       x1="23.9531670"
       y1="24.2094688"
       x2="45.7012291"
       y2="18.4172096"
       gradientUnits="userSpaceOnUse"
       gradientTransform="scale(0.986297,1.013893)"
       spreadMethod="pad" />
    <linearGradient
       inkscape:collect="always"
       xlink:href="#linearGradient558"
       id="linearGradient4204"
       gradientUnits="userSpaceOnUse"
       gradientTransform="scale(0.766548,1.30455)"
       spreadMethod="pad"
       x1="73.0144653"
       y1="38.8011742"
       x2="46.2984352"
       y2="43.8150940" />
    <linearGradient
       inkscape:collect="always"
       xlink:href="#linearGradient3307"
       id="linearGradient3360"
       gradientUnits="userSpaceOnUse"
       gradientTransform="translate(-61.339384,30.669692)"
       x1="20.063089"
       y1="43.35651"
       x2="22.398447"
       y2="86.494522" />
    <linearGradient
       inkscape:collect="always"
       xlink:href="#linearGradient3285"
       id="linearGradient3362"
       gradientUnits="userSpaceOnUse"
       gradientTransform="translate(-61.339384,30.669692)"
       x1="25.685867"
       y1="77.220963"
       x2="24.280172"
       y2="67.125519" />
    <linearGradient
       inkscape:collect="always"
       xlink:href="#linearGradient3345"
       id="linearGradient3364"
       gradientUnits="userSpaceOnUse"
       gradientTransform="translate(-61.339384,30.669692)"
       x1="31.819805"
       y1="65.400352"
       x2="69.26239"
       y2="48.532021" />
    <linearGradient
       inkscape:collect="always"
       xlink:href="#linearGradient3345"
       id="linearGradient3366"
       gradientUnits="userSpaceOnUse"
       gradientTransform="translate(-61.339384,30.669692)"
       x1="39.231647"
       y1="68.531212"
       x2="73.223892"
       y2="50.00161" />
    <linearGradient
       inkscape:collect="always"
       xlink:href="#linearGradient3297"
       id="linearGradient3368"
       gradientUnits="userSpaceOnUse"
       gradientTransform="translate(-61.339384,30.669692)"
       x1="20.446461"
       y1="48.979286"
       x2="23.002268"
       y2="80.160141" />
    <linearGradient
       inkscape:collect="always"
       xlink:href="#linearGradient3337"
       id="linearGradient3370"
       gradientUnits="userSpaceOnUse"
       gradientTransform="translate(-61.339384,30.669692)"
       x1="21.340994"
       y1="61.374954"
       x2="24.375702"
       y2="72.109344" />
    <linearGradient
       inkscape:collect="always"
       xlink:href="#linearGradient3374"
       id="linearGradient3380"
       x1="62.271317"
       y1="60.7817"
       x2="41.702854"
       y2="70.578751"
       gradientUnits="userSpaceOnUse" />
  </defs>
  <sodipodi:namedview
     id="base"
     showgrid="false"
     inkscape:zoom="3.9126575"
     inkscape:cx="33.966391"
     inkscape:cy="44.808877"
     inkscape:window-width="954"
     inkscape:window-height="724"
     inkscape:window-x="60"
     inkscape:window-y="9"
     inkscape:current-layer="g3351" />
  <path
     id="path2421"
     d="M 50.147213,8.8878012 C 31.789583,8.9112875 13.972647,21.40043 8.1784639,39.481552 C 1.5565073,60.145794 13.133894,80.340435 34.022213,84.544052 C 54.910426,88.747648 77.244009,75.395796 83.865963,54.731552 C 90.487887,34.06741 78.910427,13.872648 58.022213,9.6690512 C 55.411173,9.1435989 52.769732,8.884446 50.147213,8.8878012 z M 44.084713,37.325302 C 44.643189,37.324609 45.216181,37.372966 45.772213,37.481552 C 50.220445,38.350237 52.682371,42.523759 51.272213,46.794052 C 49.862046,51.064365 45.095444,53.850237 40.647213,52.981552 C 36.19896,52.112862 33.737048,47.939366 35.147213,43.669052 C 36.381101,39.932544 40.175381,37.330154 44.084713,37.325302 z"
     style="font-size:12px;fill:#000000;fill-opacity:0.29411765;fill-rule:evenodd;stroke-width:1pt" />
  <path
     style="font-size:12;fill:#601432;fill-rule:evenodd;stroke-width:1pt;fill-opacity:1"
     d="M 44.90625 2.5625 C 26.54862 2.5859863 8.7316839 15.075128 2.9375 33.15625 C -3.6844565 53.820492 7.8929302 74.015133 28.78125 78.21875 C 49.669463 82.422346 72.003046 69.070494 78.625 48.40625 C 85.246924 27.742108 73.669464 7.5473465 52.78125 3.34375 C 50.17021 2.8182977 47.528769 2.5591448 44.90625 2.5625 z M 38.84375 31 C 39.402226 30.999307 39.975218 31.047664 40.53125 31.15625 C 44.979482 32.024935 47.441408 36.198457 46.03125 40.46875 C 44.621083 44.739063 39.854481 47.524935 35.40625 46.65625 C 30.957997 45.78756 28.496085 41.614064 29.90625 37.34375 C 31.140138 33.607242 34.934418 31.004852 38.84375 31 z "
     id="path613" />
  <path
     style="font-size:12;fill:#ffffff;fill-rule:evenodd;stroke-width:1pt;"
     d="M 44.0625 7.25 C 28.016595 7.2706008 12.470783 18.23085 7.40625 34.09375 C 1.6181836 52.222866 11.710836 69.937087 29.96875 73.625 C 48.226569 77.312896 67.743181 65.597864 73.53125 47.46875 C 79.319288 29.339722 69.226567 11.625396 50.96875 7.9375 C 48.686511 7.4765106 46.354772 7.247057 44.0625 7.25 z M 39.65625 26.3125 C 40.524333 26.311395 41.385716 26.38945 42.25 26.5625 C 49.164236 27.946895 53.004417 34.600822 50.8125 41.40625 C 48.620573 48.21171 41.226735 52.634396 34.3125 51.25 C 27.39823 49.865599 23.558073 43.211711 25.75 36.40625 C 27.667928 30.451502 33.579669 26.320232 39.65625 26.3125 z "
     id="path612" />
  <path
     style="fill:url(#linearGradient563);fill-rule:evenodd;stroke:none;stroke-opacity:1;stroke-width:1pt;stroke-linejoin:miter;stroke-linecap:butt;fill-opacity:1"
     d="M 41.28125 10.25 C 31.933144 10.039175 18.75 20.3125 18.75 20.3125 C 18.75 20.3125 24.672412 31.18788 26.59375 34.375 C 29.068156 29.526711 34.294055 26.319323 39.65625 26.3125 C 40.524333 26.311395 41.385716 26.38945 42.25 26.5625 C 42.499116 26.612379 42.727753 26.686679 42.96875 26.75 L 42.1875 10.3125 C 41.894531 10.283202 41.582802 10.256801 41.28125 10.25 z M 38.84375 31 C 36.42371 31.003004 34.064266 32.009586 32.3125 33.65625 C 35.513707 32.586525 37.780221 31.804732 39.96875 31.0625 C 39.593353 31.016179 39.215568 30.999539 38.84375 31 z "
     id="path562" />
  <path
     style="fill:url(#linearGradient4204);fill-rule:evenodd;stroke:none;stroke-opacity:1;stroke-width:1pt;stroke-linejoin:miter;stroke-linecap:butt;fill-opacity:1"
     d="M 48.65625 45.5 C 45.376117 49.863235 39.706935 52.330095 34.3125 51.25 C 33.999833 51.187397 33.706071 51.114931 33.40625 51.03125 L 28.875 73.375 C 29.238523 73.461224 29.598445 73.550202 29.96875 73.625 C 35.51274 74.74483 41.174739 74.437659 46.53125 72.96875 C 49.729672 71.925417 53.619215 70.15822 58.59375 67.3125 C 58.978585 67.046567 59.374361 66.779315 59.75 66.5 C 59.755263 66.492558 59.744855 66.476285 59.75 66.46875 C 61.920082 63.290708 53.691958 51.935458 48.65625 45.5 z "
     id="path557" />
  <g
     id="g3351"
     transform="matrix(-1.1928823,0,0,1.1928823,20.02466,-50.968357)">
    <path
       sodipodi:type="inkscape:offset"
       inkscape:radius="2.5590005"
       inkscape:original="M 71.5625 46.03125 L 26.96875 65.21875 L 32.71875 67.625 L 75.15625 47.84375 L 71.5625 46.03125 z M 75.40625 48.84375 L 33.21875 68.53125 L 33.46875 73.90625 L 74.625 53.1875 L 75.40625 48.84375 z M 26.46875 66 C 26.260206 66.003545 26.101178 66.028261 26 66.09375 C 15.785109 68.18316 17.173997 74.218556 19.03125 77.46875 C 20.888503 80.718942 27.544369 79.888693 32.1875 74.78125 C 33.116127 72.923998 32.954294 70.500098 32.28125 68.875 C 31.654585 67.361892 27.928558 65.975185 26.46875 66 z "
       style="opacity:1;color:#000000;fill:url(#linearGradient3380);fill-opacity:1;fill-rule:evenodd;stroke:none;stroke-width:3;marker:none;marker-start:none;marker-mid:none;marker-end:none;visibility:visible;display:inline;overflow:visible;enable-background:accumulate"
       id="path3372"
       d="m 71.46875,43.46875 c -0.312928,0.016817 -0.620107,0.090963 -0.90625,0.21875 l -44.59375,19.1875 c -0.442789,0.192832 -0.821979,0.507017 -1.09375,0.90625 -5.189162,1.212929 -8.320327,3.685452 -9.3125,6.78125 -1.034969,3.229332 0.119177,6.208559 1.25,8.1875 1.628523,2.849914 5.064713,3.585718 8.1875,3.03125 3.122787,-0.554468 6.409211,-2.328258 9.09375,-5.28125 0.043688,-0.050434 0.085386,-0.102557 0.125,-0.15625 0.139608,-0.040453 0.275516,-0.092725 0.40625,-0.15625 l 41.15625,-20.71875 c 0.724236,-0.362414 1.234201,-1.046231 1.375,-1.84375 l 0.78125,-4.34375 c 0.093451,-0.530874 0.016896,-1.0777 -0.21875,-1.5625 6.4e-05,-0.010417 6.4e-05,-0.020833 0,-0.03125 -0.057733,-0.907931 -0.593121,-1.716963 -1.40625,-2.125 l -3.59375,-1.8125 c -0.38608,-0.198219 -0.816226,-0.295002 -1.25,-0.28125 z"
       transform="translate(-61.553638,33.66926)" />
    <path
       sodipodi:nodetypes="cssc"
       id="path3293"
       d="m -39.231648,64.186342 c -3.718432,12.332048 -25.415596,48.327668 0.127791,52.777428 6.656335,1.15956 14.184733,-2.6836 15.207055,-12.26788 1.088469,-10.204401 -13.673571,-18.274021 -15.334846,-40.509548 z"
       style="opacity:1;color:#000000;fill:url(#linearGradient3360);fill-opacity:1;fill-rule:evenodd;stroke:none;stroke-width:3;marker:none;marker-start:none;marker-mid:none;marker-end:none;visibility:visible;display:inline;overflow:visible;enable-background:accumulate" />
    <path
       transform="translate(-61.339384,30.669692)"
       d="m 71.46875,43.46875 c -0.312928,0.016817 -0.620107,0.090963 -0.90625,0.21875 l -44.59375,19.1875 c -0.442789,0.192832 -0.821979,0.507017 -1.09375,0.90625 -5.189162,1.212929 -8.320327,3.685452 -9.3125,6.78125 -1.034969,3.229332 0.119177,6.208559 1.25,8.1875 1.628523,2.849914 5.064713,3.585718 8.1875,3.03125 3.122787,-0.554468 6.409211,-2.328258 9.09375,-5.28125 0.043688,-0.050434 0.085386,-0.102557 0.125,-0.15625 0.139608,-0.040453 0.275516,-0.092725 0.40625,-0.15625 l 41.15625,-20.71875 c 0.724236,-0.362414 1.234201,-1.046231 1.375,-1.84375 l 0.78125,-4.34375 c 0.093451,-0.530874 0.016896,-1.0777 -0.21875,-1.5625 6.4e-05,-0.010417 6.4e-05,-0.020833 0,-0.03125 -0.057733,-0.907931 -0.593121,-1.716963 -1.40625,-2.125 l -3.59375,-1.8125 c -0.38608,-0.198219 -0.816226,-0.295002 -1.25,-0.28125 z"
       id="path3275"
       style="opacity:1;color:#000000;fill:#b01911;fill-opacity:1;fill-rule:evenodd;stroke:none;stroke-width:3;marker:none;marker-start:none;marker-mid:none;marker-end:none;visibility:visible;display:inline;overflow:visible;enable-background:accumulate"
       inkscape:original="M 71.5625 46.03125 L 26.96875 65.21875 L 32.71875 67.625 L 75.15625 47.84375 L 71.5625 46.03125 z M 75.40625 48.84375 L 33.21875 68.53125 L 33.46875 73.90625 L 74.625 53.1875 L 75.40625 48.84375 z M 26.46875 66 C 26.260206 66.003545 26.101178 66.028261 26 66.09375 C 15.785109 68.18316 17.173997 74.218556 19.03125 77.46875 C 20.888503 80.718942 27.544369 79.888693 32.1875 74.78125 C 33.116127 72.923998 32.954294 70.500098 32.28125 68.875 C 31.654585 67.361892 27.928558 65.975185 26.46875 66 z "
       inkscape:radius="2.5590005"
       sodipodi:type="inkscape:offset" />
    <path
       sodipodi:nodetypes="cscsc"
       id="path2492"
       d="m -35.337945,96.77289 c 0.809421,-0.523916 5.552041,1.056614 6.268229,2.78588 0.673045,1.6251 0.847684,4.03827 -0.080943,5.89553 -4.643131,5.10744 -11.294731,5.94446 -13.151984,2.69426 -1.857253,-3.25019 -3.250193,-9.28626 6.964698,-11.37567 z"
       style="opacity:1;color:#000000;fill:url(#linearGradient3362);fill-opacity:1;fill-rule:evenodd;stroke:none;stroke-width:3;marker:none;marker-start:none;marker-mid:none;marker-end:none;visibility:visible;display:inline;overflow:visible;enable-background:accumulate" />
    <path
       sodipodi:nodetypes="ccccc"
       id="path3264"
       d="M -34.375614,95.878358 10.22323,76.7098 13.801361,78.498866 -28.625046,98.306375 z"
       style="opacity:1;color:#000000;fill:url(#linearGradient3364);fill-opacity:1;fill-rule:evenodd;stroke:none;stroke-width:3;marker:none;marker-start:none;marker-mid:none;marker-end:none;visibility:visible;display:inline;overflow:visible;enable-background:accumulate" />
    <path
       sodipodi:nodetypes="ccccc"
       id="path3266"
       d="m -28.113884,99.200908 0.25558,5.367192 41.148503,-20.702038 0.766743,-4.344874 z"
       style="opacity:1;color:#000000;fill:url(#linearGradient3366);fill-opacity:1;fill-rule:evenodd;stroke:none;stroke-width:3;marker:none;marker-start:none;marker-mid:none;marker-end:none;visibility:visible;display:inline;overflow:visible;enable-background:accumulate" />
    <path
       sodipodi:nodetypes="cssc"
       id="path3295"
       d="M -39.8706,70.192491 C -42.815467,83.199718 -59.51036,111.83502 -38.976067,115.17471 -28.85273,116.82116 -22.410109,104.73392 -27.430256,96.5832 -34.944139,84.383638 -38.33982,82.293748 -39.8706,70.192491 z"
       style="opacity:1;color:#000000;fill:url(#linearGradient3368);fill-opacity:1;fill-rule:evenodd;stroke:none;stroke-width:3;marker:none;marker-start:none;marker-mid:none;marker-end:none;visibility:visible;display:inline;overflow:visible;enable-background:accumulate" />
    <path
       sodipodi:nodetypes="cssss"
       id="path3327"
       d="m -45.621167,101.88451 c -0.135998,-6.391914 2.954032,-14.406385 5.367196,-15.590431 3.187609,-1.564036 7.923004,7.667423 11.117764,13.2902 3.194759,5.622781 -3.45034,11.884501 -8.689746,11.884501 -5.239406,0 -7.675631,-3.96389 -7.795214,-9.58427 z"
       style="opacity:1;color:#000000;fill:url(#linearGradient3370);fill-opacity:1;fill-rule:evenodd;stroke:none;stroke-width:3;marker:none;marker-start:none;marker-mid:none;marker-end:none;visibility:visible;display:inline;overflow:visible;enable-background:accumulate" />
  </g>
</svg>
