<?xml version="1.0" encoding="UTF-8" standalone="no"?>
<!DOCTYPE svg PUBLIC "-//W3C//DTD SVG 20010904//EN"
"http://www.w3.org/TR/2001/REC-SVG-20010904/DTD/svg10.dtd">
<!-- Created with Inkscape (http://www.inkscape.org/) -->
<svg
   version="1"
   x="0.00000000"
   y="0.00000000"
   width="24.000000pt"
   height="24.000000pt"
   id="svg548"
   sodipodi:version="0.32"
   sodipodi:docname="stock_cdplayer-prev.svg"
   sodipodi:docbase="/home/zeus/.icons/gartoon/scalable/stock-gar"
   inkscape:version="0.40"
   xmlns="http://www.w3.org/2000/svg"
   xmlns:inkscape="http://www.inkscape.org/namespaces/inkscape"
   xmlns:sodipodi="http://sodipodi.sourceforge.net/DTD/sodipodi-0.dtd"
   xmlns:xlink="http://www.w3.org/1999/xlink"
   xmlns:rdf="http://www.w3.org/1999/02/22-rdf-syntax-ns#"
   xmlns:cc="http://web.resource.org/cc/"
   xmlns:dc="http://purl.org/dc/elements/1.1/">
  <metadata
     id="metadata23">
    <rdf:RDF
       id="RDF24">
      <cc:Work
         rdf:about=""
         id="Work25">
        <dc:format
           id="format26">image/svg+xml</dc:format>
        <dc:type
           id="type28"
           rdf:resource="http://purl.org/dc/dcmitype/StillImage" />
      </cc:Work>
    </rdf:RDF>
  </metadata>
  <sodipodi:namedview
     id="base"
     inkscape:zoom="9.6562500"
     inkscape:cx="16.000000"
     inkscape:cy="5.0392932"
     inkscape:window-width="1014"
     inkscape:window-height="696"
     inkscape:window-x="0"
     inkscape:window-y="27"
     showguides="true"
     snaptoguides="true"
     inkscape:current-layer="svg548" />
  <defs
     id="defs550">
    <linearGradient
       x1="0.00000000"
       y1="0.00000000"
       x2="1.00000000"
       y2="0.00000000"
       id="linearGradient556"
       gradientUnits="objectBoundingBox"
       spreadMethod="pad">
      <stop
         style="stop-color:#ff8700;stop-opacity:1;"
         offset="0.00000000"
         id="stop557" />
      <stop
         style="stop-color:#ffff8d;stop-opacity:0;"
         offset="1.00000000"
         id="stop558" />
    </linearGradient>
    <linearGradient
       x1="0.00000000"
       y1="0.00000000"
       x2="1.00000000"
       y2="0.00000000"
       id="linearGradient559"
       xlink:href="#linearGradient556"
       gradientUnits="objectBoundingBox"
       spreadMethod="pad" />
    <sodipodi:namedview
       id="namedview852"
       inkscape:zoom="9.65625000"
       inkscape:cx="16.0000000"
       inkscape:cy="28.4271845"
       inkscape:window-width="1014"
       inkscape:window-height="696"
       inkscape:window-x="0"
       inkscape:window-y="0" />
    <defs
       id="defs853">
      <linearGradient
         x1="0.00000000"
         y1="0.00000000"
         x2="1.00000000"
         y2="0.00000000"
         id="linearGradient854"
         gradientUnits="objectBoundingBox"
         spreadMethod="pad">
        <stop
           style="stop-color:#ff8700;stop-opacity:1;"
           offset="0.00000000"
           id="stop855" />
        <stop
           style="stop-color:#ffff8d;stop-opacity:0;"
           offset="1.00000000"
           id="stop856" />
      </linearGradient>
      <linearGradient
         x1="0.00000000"
         y1="0.00000000"
         x2="1.00000000"
         y2="0.00000000"
         id="linearGradient857"
         xlink:href="#linearGradient556"
         gradientUnits="objectBoundingBox"
         spreadMethod="pad" />
    </defs>
  </defs>
  <g
     transform="matrix(0.579834,0.795935,-0.795935,0.579834,12.28863,-46.67688)"
     style="font-size:12.000000"
     id="g584">
    <path
       d="M 51.966500,36.048600 C 53.960200,37.045400 65.472400,34.771300 65.757200,32.635300 C 66.172581,27.312501 55.630700,20.715100 54.064200,20.145500 C 52.497700,19.575900 51.112100,20.063400 50.684900,21.060200 C 50.257700,22.057000 49.688100,35.336500 51.966500,36.048600 z "
       transform="matrix(1.369638,0.000000,0.000000,1.207417,-21.85404,-4.997635)"
       style="fill:#0d3c07;fill-rule:evenodd;stroke-width:1.0000000pt"
       id="path582"
       sodipodi:nodetypes="ccscc" />
    <path
       d="M 51.550600,35.458900 C 53.544300,36.455700 64.224700,34.889200 64.509500,32.753200 C 64.794300,30.617100 60.955464,29.668153 61.382664,28.244153 C 57.018216,23.149473 50.696200,21.360800 50.269000,22.357600 C 49.841800,23.354400 49.272200,34.746800 51.550600,35.458900 z "
       style="fill:#2aaf18;fill-rule:evenodd;stroke-width:1.0000000pt"
       id="path581"
       sodipodi:nodetypes="ccccc" />
    <path
       d="M 61.946200,28.338600 C 63.512600,29.620200 65.363900,32.753100 64.367100,33.607600 C 62.658300,35.174000 52.832300,36.313300 51.693000,35.743700 C 50.553800,35.174000 60.094900,33.465200 60.237300,31.044300 C 60.379700,28.623400 57.458082,27.995128 58.312482,26.571028 C 59.166882,25.147028 61.519000,27.769000 61.946200,28.338600 z "
       style="fill:#208c11;fill-rule:evenodd;stroke-width:1.0000000pt"
       id="path583"
       sodipodi:nodetypes="cccccc" />
  </g>
  <path
     d="M 15.838558,13.369771 C 15.838558,13.369771 20.474415,8.7781001 21.628934,8.4575279 C 22.783380,8.1370202 22.135657,10.343860 22.135657,10.343860 C 22.135657,10.343860 16.270895,12.534330 15.838558,13.369771 z "
     style="font-size:12.000000;fill:#ffffff;fill-rule:evenodd;stroke-width:1.0000000pt"
     id="path589" />
  <path
     style="fill:#0d3c07;fill-rule:evenodd;stroke-width:1.0000000pt"
     d="M 1.9633278,3.3242991 L 4.6827391,3.0327010 C 6.0323126,2.9549655 6.8580549,2.9045355 8.6500649,3.0526120 L 8.3708631,27.307566 C 6.6128725,27.782182 5.9437481,27.920868 4.3895784,27.664207 C 3.2787123,27.366997 4.1229370,27.628842 2.6673398,27.124010 C 2.5455579,27.405201 1.5196436,4.3084411 1.9633278,3.3242991 z "
     id="path590"
     sodipodi:nodetypes="ccccccc" />
  <path
     style="fill:#2aaf18;fill-rule:evenodd;stroke-width:1.0000000pt"
     d="M 3.3212701,4.2824676 C 3.9132947,4.0649541 4.5046805,4.0261090 5.0960580,3.9872637 C 5.6874438,3.9484185 6.2155910,3.8797034 6.8695783,4.0493976 L 6.7887648,26.680830 C 6.2705167,26.933198 5.7528210,27.036670 5.2354241,27.050808 C 4.7180365,27.064934 4.4225729,27.019840 3.6844117,26.765654 L 3.3212701,4.2824676 z "
     id="path591"
     sodipodi:nodetypes="ccccccc" />
  <path
     style="fill:#208c11;fill-rule:evenodd;stroke-width:1.0000000pt"
     d="M 6.5312040,4.3169112 L 6.5094469,26.471979 C 6.5094469,26.471979 5.9282731,26.612586 5.3439433,26.634065 C 4.7596127,26.655552 4.1721159,26.557918 4.1577798,26.557897 C 4.1291068,26.557856 4.0444707,26.170606 4.4477278,25.664963 C 4.9041001,25.126271 5.6751069,25.808516 5.6819172,25.339197 L 5.9861782,4.3756761 C 5.9880768,4.2451306 6.5316016,3.9185935 6.5312040,4.3169112 z "
     id="path592"
     sodipodi:nodetypes="ccssssss" />
  <path
     style="fill:#ffffff;fill-rule:evenodd;stroke-width:1.0000000pt"
     d="M 3.7440836,4.6941967 C 4.2492389,4.1380324 5.0867169,4.4574768 5.0865759,4.4972549 C 4.4931576,6.2864225 4.5871343,15.196934 4.5871343,15.196934 C 4.4669844,15.574658 4.2943502,16.786430 4.1830464,16.807377 C 4.0845546,16.825908 3.9647682,15.664208 3.9577461,15.315357 L 3.7440836,4.6941967 z "
     id="path577"
     sodipodi:nodetypes="ccsssc" />
</svg>
