<?xml version="1.0" encoding="UTF-8" standalone="no"?>
<!-- Created with Inkscape (http://www.inkscape.org/) -->
<svg
   xmlns:dc="http://purl.org/dc/elements/1.1/"
   xmlns:cc="http://creativecommons.org/ns#"
   xmlns:rdf="http://www.w3.org/1999/02/22-rdf-syntax-ns#"
   xmlns:svg="http://www.w3.org/2000/svg"
   xmlns="http://www.w3.org/2000/svg"
   xmlns:xlink="http://www.w3.org/1999/xlink"
   xmlns:sodipodi="http://sodipodi.sourceforge.net/DTD/sodipodi-0.dtd"
   xmlns:inkscape="http://www.inkscape.org/namespaces/inkscape"
   width="90"
   height="90"
   id="svg2"
   sodipodi:version="0.32"
   inkscape:version="0.46+devel"
   version="1.0"
   sodipodi:docname="package-upgrade.svg"
   inkscape:output_extension="org.inkscape.output.svg.inkscape">
  <defs
     id="defs4">
    <linearGradient
       inkscape:collect="always"
       id="linearGradient3275">
      <stop
         style="stop-color:#2aaf18;stop-opacity:1;"
         offset="0"
         id="stop3277" />
      <stop
         style="stop-color:#cbff87;stop-opacity:1"
         offset="1"
         id="stop3279" />
    </linearGradient>
    <linearGradient
       inkscape:collect="always"
       xlink:href="#linearGradient3275"
       id="linearGradient3281"
       x1="78.791901"
       y1="79.645935"
       x2="11.364216"
       y2="10.450487"
       gradientUnits="userSpaceOnUse" />
  </defs>
  <sodipodi:namedview
     id="base"
     pagecolor="#ffffff"
     bordercolor="#666666"
     borderopacity="1.0"
     gridtolerance="10000"
     guidetolerance="10"
     objecttolerance="10"
     inkscape:pageopacity="0.0"
     inkscape:pageshadow="2"
     inkscape:zoom="3.959798"
     inkscape:cx="29.126107"
     inkscape:cy="39.413085"
     inkscape:document-units="px"
     inkscape:current-layer="layer1"
     showgrid="false"
     inkscape:window-width="936"
     inkscape:window-height="724"
     inkscape:window-x="0"
     inkscape:window-y="1" />
  <metadata
     id="metadata7">
    <rdf:RDF>
      <cc:Work
         rdf:about="">
        <dc:format>image/svg+xml</dc:format>
        <dc:type
           rdf:resource="http://purl.org/dc/dcmitype/StillImage" />
      </cc:Work>
    </rdf:RDF>
  </metadata>
  <g
     inkscape:label="Layer 1"
     inkscape:groupmode="layer"
     id="layer1">
    <rect
       style="opacity:1;color:#000000;fill:url(#linearGradient3281);fill-opacity:1;fill-rule:nonzero;stroke:#34674b;stroke-width:3;marker:none;marker-start:none;marker-mid:none;marker-end:none;visibility:visible;display:inline;overflow:visible;enable-background:accumulate;stroke-opacity:1;stroke-miterlimit:4;stroke-dasharray:none"
       id="rect2479"
       width="70"
       height="70"
       x="10"
       y="10" />
    <g
       id="g3392"
       transform="matrix(0.1260266,-1.0684711,1.0684711,0.1260266,-24.512929,83.081859)">
      <g
         transform="matrix(-0.7492422,0,0,0.7492422,66.627805,19.429291)"
         id="g3385">
        <path
           sodipodi:nodetypes="cccsscsccc"
           id="path582"
           style="font-size:12px;fill:#b01911;fill-rule:evenodd"
           d="M 2.1819511,50.751076 C 2.4413935,58.94498 30.603019,87.765299 37.45571,85.670386 49.89475,84.369473 48.417156,70.172473 53.386167,68.706741 58.34077,68.115401 101.18307,65.785914 84.416901,19.036568 81.35956,10.659354 79.217364,9.0021755 75.700741,6.1183305 72.267882,3.5106228 66.552044,3.0565576 61.625688,8.022159 57.041915,14.089182 58.533044,20.398861 60.214138,25.723145 65.547978,41.677961 54.120586,41.241299 47.625336,44.192925 46.448071,38.647321 44.433315,25.601919 40.756953,25.580912 37.080564,25.559874 2.1594509,34.411351 2.1819511,50.751076 z" />
        <path
           sodipodi:nodetypes="ccccsccc"
           id="path581"
           style="font-size:12px;fill:#ffc93f;fill-rule:evenodd"
           d="m 7.3988372,51.558588 c -0.1030865,6.122687 23.834758,29.198267 29.464822,27.36841 5.630347,-1.829953 3.25396,-9.749563 5.853868,-13.934186 53.76233,1.824402 43.039533,-58.942461 25.262242,-52.93473 -9.729703,3.174344 5.65792,19.598933 -2.470249,29.715339 -6.907919,8.836015 -23.916193,9.638337 -24.140301,7.35977 -0.448225,-4.557208 -0.5647,-18.116141 -3.541373,-17.991328 -2.976717,0.124811 -31.36923,13.926633 -30.429009,20.416725 z" />
        <path
           sodipodi:nodetypes="cscsc"
           id="path588"
           style="font-size:12px;fill:#ffffff;fill-rule:evenodd"
           d="m 68.364202,25.983557 c 1.513246,8.651306 2.85547,15.111723 -3.41595,19.624814 -8.360135,6.016189 -16.421481,5.471705 -16.89801,6.613437 -0.476468,1.141706 3.939804,0.457405 11.905864,-1.994407 14.361253,-4.42014 11.903961,-19.878422 8.408096,-24.243844 z" />
        <path
           sodipodi:nodetypes="cccc"
           id="path589"
           style="font-size:12px;fill:#ffffff;fill-rule:evenodd"
           d="m 16.258252,46.338242 c 1.856369,-1.843201 14.606684,-10.862615 17.921315,-11.294893 3.314423,-0.43209 0.659148,5.409028 0.659148,5.409028 0,0 -17.058432,3.748029 -18.580463,5.885865 z" />
        <path
           style="font-size:12px;fill:#ff933d;fill-opacity:1;fill-rule:evenodd"
           d="M 82.245349,33.578917 C 77.979454,54.097559 57.765657,61.754577 38.71875,60.062532 37.78671,66.379684 36.804044,69.232327 34.007927,72.287341 23.715676,69.108852 17.313627,60.812501 8.4314402,54.030824 9.5653272,60.95898 30.893488,80.032845 36.875,79.14462 c 5.630347,-1.829949 3.243842,-9.752877 5.84375,-13.9375 31.992806,0.697718 40.151969,-19.040034 39.526599,-31.628203 z"
           id="path2187"
           sodipodi:nodetypes="ccccccc" />
      </g>
    </g>
  </g>
</svg>
