<?xml version="1.0" encoding="UTF-8" standalone="no"?>
<!-- Created with Inkscape (http://www.inkscape.org/) -->
<svg
   xmlns:dc="http://purl.org/dc/elements/1.1/"
   xmlns:cc="http://creativecommons.org/ns#"
   xmlns:rdf="http://www.w3.org/1999/02/22-rdf-syntax-ns#"
   xmlns:svg="http://www.w3.org/2000/svg"
   xmlns="http://www.w3.org/2000/svg"
   xmlns:xlink="http://www.w3.org/1999/xlink"
   xmlns:sodipodi="http://sodipodi.sourceforge.net/DTD/sodipodi-0.dtd"
   xmlns:inkscape="http://www.inkscape.org/namespaces/inkscape"
   width="90"
   height="90"
   id="svg2"
   sodipodi:version="0.32"
   inkscape:version="0.46+devel"
   version="1.0"
   sodipodi:docname="package-purge.svg"
   inkscape:output_extension="org.inkscape.output.svg.inkscape">
  <defs
     id="defs4">
    <linearGradient
       inkscape:collect="always"
       id="linearGradient3275">
      <stop
         style="stop-color:#2aaf18;stop-opacity:1;"
         offset="0"
         id="stop3277" />
      <stop
         style="stop-color:#cbff87;stop-opacity:1"
         offset="1"
         id="stop3279" />
    </linearGradient>
    <linearGradient
       inkscape:collect="always"
       xlink:href="#linearGradient3275"
       id="linearGradient3281"
       x1="78.791901"
       y1="79.645935"
       x2="11.364216"
       y2="10.450487"
       gradientUnits="userSpaceOnUse" />
    <linearGradient
       gradientTransform="scale(1.563194,0.639716)"
       spreadMethod="pad"
       gradientUnits="userSpaceOnUse"
       y2="57.2600060"
       x2="26.1608067"
       y1="28.1627388"
       x1="26.0382957"
       id="linearGradient811"
       xlink:href="#linearGradient808" />
    <linearGradient
       id="linearGradient808">
      <stop
         id="stop809"
         offset="0"
         style="stop-color:#000;stop-opacity:1;" />
      <stop
         id="stop810"
         offset="1"
         style="stop-color:#fff;stop-opacity:1;" />
    </linearGradient>
    <linearGradient
       id="linearGradient816">
      <stop
         id="stop817"
         offset="0.000000"
         style="stop-color:#0c1535;stop-opacity:0.698039;" />
      <stop
         id="stop818"
         offset="1.000000"
         style="stop-color:#ffffff;stop-opacity:0;" />
    </linearGradient>
    <linearGradient
       y2="46.469227"
       x2="67.491096"
       y1="26.618994"
       x1="35.061417"
       spreadMethod="pad"
       gradientUnits="userSpaceOnUse"
       id="linearGradient3665"
       xlink:href="#linearGradient816"
       inkscape:collect="always" />
  </defs>
  <sodipodi:namedview
     id="base"
     pagecolor="#ffffff"
     bordercolor="#666666"
     borderopacity="1.0"
     gridtolerance="10000"
     guidetolerance="10"
     objecttolerance="10"
     inkscape:pageopacity="0.0"
     inkscape:pageshadow="2"
     inkscape:zoom="3.959798"
     inkscape:cx="36.488507"
     inkscape:cy="36.061872"
     inkscape:document-units="px"
     inkscape:current-layer="layer1"
     showgrid="false"
     inkscape:window-width="936"
     inkscape:window-height="724"
     inkscape:window-x="0"
     inkscape:window-y="1" />
  <metadata
     id="metadata7">
    <rdf:RDF>
      <cc:Work
         rdf:about="">
        <dc:format>image/svg+xml</dc:format>
        <dc:type
           rdf:resource="http://purl.org/dc/dcmitype/StillImage" />
      </cc:Work>
    </rdf:RDF>
  </metadata>
  <g
     inkscape:label="Layer 1"
     inkscape:groupmode="layer"
     id="layer1">
    <rect
       style="opacity:1;color:#000000;fill:url(#linearGradient3281);fill-opacity:1;fill-rule:nonzero;stroke:#34674b;stroke-width:3;marker:none;marker-start:none;marker-mid:none;marker-end:none;visibility:visible;display:inline;overflow:visible;enable-background:accumulate;stroke-opacity:1;stroke-miterlimit:4;stroke-dasharray:none"
       id="rect2479"
       width="70"
       height="70"
       x="10"
       y="10" />
    <g
       id="g825"
       transform="matrix(0.7438772,0,0,0.7438772,31.310413,22.062385)">
      <path
         transform="matrix(1.037424,0,0,0.954524,-4.453626,3.976088)"
         sodipodi:nodetypes="ccccccccccccccccc"
         id="path824"
         d="m 4.59365,19.0073 0.8352,12.1105 c 0,0 2.92323,1.2528 2.71443,1.4616 -0.2088,0.2088 2.92322,37.5844 2.92322,37.5844 0,0 0,2.5056 2.088,3.9672 2.0881,1.4617 20.6714,15.0338 22.5507,15.869 1.8792,0.8352 3.7584,1.044 6.4728,-0.2088 2.7145,-1.2528 19.2098,-7.9345 21.7154,-8.9785 2.5057,-1.044 4.5937,-2.088 5.2201,-6.6817 0.6264,-4.5936 4.1148,-36.6478 4.1148,-36.6478 0.443,0.1477 0,-3.4422 1.2529,-3.2334 1.2528,0.2088 3.1932,0 3.8196,-3.5496 0.6264,-3.5496 1.2528,-7.9345 1.2528,-7.9345 0,0 -1.1916,-2.8874 -3.2797,-4.5578 C 74.186,16.5375 44.8714,3.26062 44.0362,3.05182 43.201,2.84303 37.4263,3.66773 34.7118,4.71174 31.9974,5.75576 6.89047,12.952 4.59365,19.0073 z"
         style="fill:#000000;fill-opacity:0.29824602;fill-rule:evenodd;stroke:none" />
      <path
         transform="translate(-3.838782,-2.21468)"
         sodipodi:nodetypes="ccccccccccccccccc"
         id="path812"
         d="m 4.59365,19.0073 0.8352,12.1105 c 0,0 2.92323,1.2528 2.71443,1.4616 -0.2088,0.2088 2.92322,37.5844 2.92322,37.5844 0,0 0,2.5056 2.088,3.9672 2.0881,1.4617 20.6714,15.0338 22.5507,15.869 1.8792,0.8352 3.7584,1.044 6.4728,-0.2088 2.7145,-1.2528 19.2098,-7.9345 21.7154,-8.9785 2.5057,-1.044 4.5937,-2.088 5.2201,-6.6817 0.6264,-4.5936 4.1148,-36.6478 4.1148,-36.6478 0.443,0.1477 0,-3.4422 1.2529,-3.2334 1.2528,0.2088 3.1932,0 3.8196,-3.5496 0.6264,-3.5496 1.2528,-7.9345 1.2528,-7.9345 0,0 -1.1916,-2.8874 -3.2797,-4.5578 C 74.186,16.5375 44.8714,3.26062 44.0362,3.05182 43.201,2.84303 37.4263,3.66773 34.7118,4.71174 31.9974,5.75576 6.89047,12.952 4.59365,19.0073 z"
         style="fill:#1f1d1c;fill-opacity:1;fill-rule:evenodd;stroke:none" />
      <path
         transform="translate(-3.838782,-2.21468)"
         sodipodi:nodetypes="cccccccc"
         id="path803"
         d="m 9.3961,20.0513 c -0.62641,2.2968 -0.83522,6.0553 0,7.9345 1.044,0.8352 12.5282,5.0112 28.6059,13.1545 7.0992,-3.5497 32.5731,-9.6049 34.0347,-10.4401 1.4616,-0.8352 2.2969,-2.2968 2.5057,-3.5496 0.2088,-1.2528 0.8352,-4.8025 -0.6264,-5.6377 C 69.3223,17.5457 43.0132,6.47915 41.134,6.89675 39.2548,7.31436 16.0777,14.6225 9.3961,20.0513 z"
         style="fill:#ffec98;fill-opacity:1;fill-rule:evenodd;stroke:none" />
      <path
         transform="translate(-3.838782,-2.21468)"
         sodipodi:nodetypes="cccccc"
         id="path813"
         d="m 20.4626,19.6337 c 0.522,-1.044 20.3582,-8.4565 21.4022,-8.0389 1.044,0.4176 1.566,0.3132 3.0277,1.1484 1.4616,0.8352 16.7041,7.7257 16.4953,7.7257 -0.2088,0 -20.6714,7.9345 -20.6714,7.9345 0,0 -19.6274,-7.0993 -20.2538,-8.7697 z"
         style="fill:#000000;fill-opacity:1;fill-rule:evenodd;stroke:none" />
      <path
         transform="translate(-3.986428,-2.362328)"
         sodipodi:nodetypes="ccccccc"
         id="path799"
         d="m 20.045,19.8425 5.4289,2.2968 c 0,0 5.22,-2.2968 7.308,-3.132 C 34.87,18.1721 40.09,16.5017 40.09,16.5017 l 0.6264,-4.8025 c 0,0 -10.0225,2.9232 -11.9017,3.9672 -1.8792,1.0441 -7.9345,2.9233 -8.7697,4.1761 z"
         style="fill:#e9a341;fill-opacity:1;fill-rule:evenodd;stroke:none" />
      <path
         transform="translate(-3.838782,-2.21468)"
         id="path800"
         d="m 42.3868,11.908 -0.6264,5.4289 c 0,0 11.4841,5.4288 11.6929,5.4288 0.2088,0 8.3521,-2.088 8.3521,-2.088 0,0 -16.2865,-8.1433 -19.4186,-8.7697 z"
         style="fill:#e7a240;fill-opacity:1;fill-rule:evenodd;stroke:none" />
      <path
         transform="translate(-3.838782,-2.21468)"
         sodipodi:nodetypes="ccccc"
         id="path801"
         d="m 27.3531,23.1833 c 0,0 8.5609,-4.8024 12.1105,-4.5936 3.5496,0.2088 13.6765,5.1156 12.7369,5.22 -1.4616,1.044 -11.6929,4.8025 -11.9017,4.5937 C 31.1115,24.645 27.7707,22.9745 27.3531,23.1833 z"
         style="fill:url(#linearGradient811);fill-opacity:1;fill-rule:evenodd;stroke:none" />
      <path
         transform="translate(-3.838782,-2.21468)"
         sodipodi:nodetypes="cccccccc"
         id="path802"
         d="m 13.1545,31.7442 c 0,0 5.6376,1.1484 24.6387,11.1709 2.5056,0.8352 17.7482,-8.0389 32.7819,-9.9181 -4.1761,18.1658 -3.9672,35.914 -4.5936,37.3756 -0.6264,1.4616 -0.6264,4.3848 -4.1761,5.8465 -5.4288,1.2528 -21.089,8.3521 -25.0562,10.0225 -2.088,-1.044 -11.6929,-11.693 -20.2538,-14.825 -1.044,0 -2.9233,-35.2876 -3.3409,-39.6724 z"
         style="fill:#578cc7;fill-opacity:1;fill-rule:evenodd;stroke:none" />
      <path
         sodipodi:nodetypes="ccccc"
         id="path819"
         d="m 9.15402,29.3177 c 0,0 15.20748,5.02 24.80448,11.3687 1.9194,13.8787 1.0335,35.4349 0,43.7031 C 31.3008,83.3559 14.6169,68.739 11.9593,69.182 c 0,-0.443 -2.65763,-39.569 -2.80528,-39.8643 z"
         style="fill:#4c5b86;fill-opacity:1;fill-rule:evenodd;stroke:none" />
      <path
         transform="translate(-3.838782,-2.21468)"
         id="path804"
         d="m 37.5844,45.3163 0.4176,9.3961 c 0,0 2.7144,-4.176 -0.4176,-9.3961 z"
         style="fill:#1f1d1c;fill-opacity:1;fill-rule:evenodd;stroke:none" />
      <path
         id="path820"
         d="m 33.5155,32.5659 0.443,6.3488 L 5.31524,25.6266 c 0,0 -1.32881,-8.2682 0.14764,-7.3823 1.47646,0.8859 27.90502,14.174 28.05262,14.3216 z"
         style="fill:#e7a240;fill-opacity:1;fill-rule:evenodd;stroke:none" />
      <path
         transform="translate(-3.838782,-2.21468)"
         id="path805"
         d="m 39.046,62.8557 -2.088,23.5947 2.088,-1.044 c 0,0 0.8352,-15.869 0,-22.5507 z"
         style="fill:#1f1d1c;fill-opacity:1;fill-rule:evenodd;stroke:none" />
      <path
         transform="translate(-3.838782,-2.21468)"
         id="path806"
         d="m 9.3961,20.2601 c 0,0 16.2866,7.3081 19.2098,9.3961 2.9232,2.088 7.9345,5.4288 8.9785,5.22 1.044,-0.2088 -25.8915,-9.8137 -28.1883,-14.6161 z"
         style="fill:#1f1d1c;fill-opacity:0.99684101;fill-rule:evenodd;stroke:none" />
      <path
         transform="translate(-3.838782,-2.21468)"
         id="path807"
         d="m 41.3428,34.4586 c 0,0 12.9457,-5.22 16.2866,-6.6816 3.3408,-1.4616 15.2425,-6.0553 16.7042,-6.2641 1.4616,-0.2088 -30.0675,13.7809 -32.9908,12.9457 z"
         style="fill:#1f1d1c;fill-opacity:1;fill-rule:evenodd;stroke:none" />
      <path
         sodipodi:nodetypes="ccccccc"
         id="path823"
         d="M 34.2538,45.1158 C 18.9478,35.9125 16.4871,37.3397 9.59695,38.4717 9.49852,36.0601 9.1048,31.4339 9.30167,28.8747 c 6.89013,2.2639 16.14253,6.152 24.80443,11.6641 11.3195,-3.3467 21.7531,-7.8745 32.925,-10.04 -0.6398,2.4608 -1.2797,4.9216 -1.9195,7.3823 -9.2524,-0.246 -20.1289,3.199 -30.8578,7.2347 z"
         style="font-size:12px;fill:url(#linearGradient3665);fill-rule:evenodd;stroke-width:1pt" />
    </g>
  </g>
</svg>
