<?xml version="1.0" encoding="UTF-8" standalone="no"?>
<!-- Created with Sodipodi ("http://www.sodipodi.com/") -->
<svg
   xmlns:dc="http://purl.org/dc/elements/1.1/"
   xmlns:cc="http://creativecommons.org/ns#"
   xmlns:rdf="http://www.w3.org/1999/02/22-rdf-syntax-ns#"
   xmlns:svg="http://www.w3.org/2000/svg"
   xmlns="http://www.w3.org/2000/svg"
   xmlns:xlink="http://www.w3.org/1999/xlink"
   xmlns:sodipodi="http://sodipodi.sourceforge.net/DTD/sodipodi-0.dtd"
   xmlns:inkscape="http://www.inkscape.org/namespaces/inkscape"
   id="svg604"
   sodipodi:version="0.32"
   width="72pt"
   height="72pt"
   sodipodi:docbase="/home/zeus/images/icons/gartoon/svg"
   sodipodi:docname="playlist-new.svg"
   inkscape:version="0.45+devel"
   inkscape:output_extension="org.inkscape.output.svg.inkscape">
  <metadata
     id="metadata2755">
    <rdf:RDF>
      <cc:Work
         rdf:about="">
        <dc:format>image/svg+xml</dc:format>
        <dc:type
           rdf:resource="http://purl.org/dc/dcmitype/StillImage" />
      </cc:Work>
    </rdf:RDF>
  </metadata>
  <defs
     id="defs606">
    <radialGradient
       cx="28.227884"
       cy="54.918088"
       fx="28.227884"
       fy="54.918088"
       r="5.2088413"
       id="radialGradient708"
       xlink:href="#linearGradient612"
       gradientUnits="userSpaceOnUse"
       spreadMethod="pad"
       gradientTransform="scale(1.074784,0.9304195)" />
    <radialGradient
       cx="8.17300129"
       cy="62.0631676"
       fx="8.17300129"
       fy="62.0631676"
       r="4.03522396"
       id="radialGradient704"
       xlink:href="#linearGradient612"
       gradientUnits="userSpaceOnUse"
       gradientTransform="matrix(1.11195,0,0,0.899321,3.42879e-7,-1.512959e-6)"
       spreadMethod="pad" />
    <linearGradient
       id="linearGradient612">
      <stop
         style="stop-color:#7fa8e3;stop-opacity:0.741176;"
         offset="0.000000"
         id="stop613" />
      <stop
         style="stop-color:#ffffff;stop-opacity:0;"
         offset="1.000000"
         id="stop614" />
    </linearGradient>
    <linearGradient
       xlink:href="#linearGradient612"
       id="linearGradient615"
       x1="50.6438866"
       y1="5.36792946"
       x2="35.7520943"
       y2="68.0443573"
       gradientUnits="userSpaceOnUse"
       spreadMethod="pad" />
  </defs>
  <sodipodi:namedview
     id="base"
     showgrid="false"
     inkscape:zoom="5.5333333"
     inkscape:cx="45"
     inkscape:cy="45"
     inkscape:window-width="640"
     inkscape:window-height="708"
     inkscape:window-x="0"
     inkscape:window-y="1"
     inkscape:current-layer="svg604" />
  <path
     style="fill:#000000;fill-rule:evenodd;stroke:none;stroke-opacity:1;stroke-width:1pt;stroke-linejoin:miter;stroke-linecap:butt;fill-opacity:0.301471;"
     d="M 12.8163 74.753 C 10.3856 73.6481 7.07107 70.1126 8.83884 65.2512 C 9.72267 59.948 25.6326 13.1021 29.1682 10.8924 C 31.3778 8.90368 34.582 8.13026 39.1119 9.34561 C 42.8684 10.2295 76.6769 19.0684 78.6656 20.8361 C 80.6544 22.6039 82.2012 24.0402 80.6544 27.9072 C 79.5496 29.8959 66.4017 74.532 66.1808 77.4047 C 65.2969 80.4983 62.7558 84.2548 58.5573 84.0338 C 54.3589 83.8128 15.9099 75.4159 12.8163 74.753 z "
     id="path794"
     sodipodi:nodetypes="ccccccccc"
     transform="matrix(1.114903,0.000000,0.000000,1.114903,-5.305332,-3.889256)" />
  <path
     style="fill:#3d4e67;fill-rule:evenodd;stroke:none;stroke-opacity:1;stroke-width:1pt;stroke-linejoin:miter;stroke-linecap:butt;fill-opacity:1;"
     d="M 12.8163 74.753 C 10.3856 73.6481 7.07107 70.1126 8.83884 65.2512 C 9.72267 59.948 25.6326 13.1021 29.1682 10.8924 C 31.3778 8.90368 34.582 8.13026 39.1119 9.34561 C 42.8684 10.2295 76.6769 19.0684 78.6656 20.8361 C 80.6544 22.6039 82.2012 24.0402 80.6544 27.9072 C 79.5496 29.8959 66.4017 74.532 66.1808 77.4047 C 65.2969 80.4983 62.7558 84.2548 58.5573 84.0338 C 54.3589 83.8128 15.9099 75.4159 12.8163 74.753 z "
     id="path609"
     sodipodi:nodetypes="ccccccccc"
     transform="matrix(1.114903,0.000000,0.000000,1.114903,-8.162471,-8.460684)" />
  <path
     style="fill:#ffffff;fill-rule:evenodd;stroke:none;stroke-opacity:1;stroke-width:1pt;stroke-linejoin:miter;stroke-linecap:butt;fill-opacity:1;"
     d="M 17.8987 70.9965 C 15.3576 70.3336 11.7114 69.6706 13.0373 65.6932 C 15.468 55.9705 27.8424 18.6264 33.1456 13.986 C 34.361 12.8811 38.4489 12.4392 46.1829 14.8699 C 55.0218 17.5215 72.9204 23.4877 74.6882 24.3716 C 76.4559 25.2555 77.1189 25.2555 75.793 29.233 C 73.8043 33.2105 64.9655 67.24 62.7557 72.9852 C 61.209 77.0732 60.8775 78.9514 58.2258 78.9514 "
     id="path608"
     sodipodi:nodetypes="cccccccs"
     transform="matrix(1.114903,0.000000,0.000000,1.114903,-8.162471,-8.460684)" />
  <path
     style="fill:url(#linearGradient615);fill-rule:evenodd;stroke:none;stroke-opacity:1;stroke-width:1pt;stroke-linejoin:miter;stroke-linecap:butt;fill-opacity:1;"
     d="M 28.75 13.75 C 28.75 13.75 31.875 7.49995 39.6875 9.37495 C 47.5 11.25 78.125 19.375 77.8125 21.875 C 77.5 24.375 71.875 39.0625 71.5625 40.3125 C 71.25 41.5625 42.5 40.9375 31.5625 47.5 C 20.625 54.0625 12.5 59.6875 12.5 59.6875 C 12.5 59.6875 23.75 24.6875 28.75 13.75 z "
     id="path636"
     transform="matrix(0.946780,0.000000,0.000000,0.946780,-0.480566,0.409517)" />
  <path
     style="fill:none;fill-rule:evenodd;stroke:#42667e;stroke-opacity:1;stroke-width:1pt;stroke-linejoin:miter;stroke-linecap:butt;fill-opacity:1;"
     d="M 29.2429 15.8991 L 69.8423 26.6877 "
     id="path671"
     transform="translate(1.135645,0.851736)" />
  <path
     style="fill:none;fill-rule:evenodd;stroke:#42667e;stroke-opacity:1;stroke-width:1pt;stroke-linejoin:miter;stroke-linecap:butt;fill-opacity:1;"
     d="M 27.8233 19.306 L 67.8549 30.9464 "
     id="path672"
     transform="matrix(0.999855,-1.703691e-2,1.703691e-2,0.999855,-0.705041,5.077353)" />
  <path
     style="fill:none;fill-rule:evenodd;stroke:#42667e;stroke-opacity:1;stroke-width:1pt;stroke-linejoin:miter;stroke-linecap:butt;fill-opacity:1;"
     d="M 29.2429 15.8991 L 69.8423 26.6877 "
     id="path673"
     transform="translate(-5.394323,17.03470)" />
  <path
     style="fill:none;fill-rule:evenodd;stroke:#42667e;stroke-opacity:1;stroke-width:1pt;stroke-linejoin:miter;stroke-linecap:butt;fill-opacity:1;"
     d="M 29.2429 15.8991 L 69.8423 26.6877 "
     id="path675"
     transform="translate(-11.35647,34.06940)" />
  <path
     style="fill:none;fill-rule:evenodd;stroke:#42667e;stroke-opacity:1;stroke-width:1pt;stroke-linejoin:miter;stroke-linecap:butt;fill-opacity:1;"
     d="M 27.8233 19.306 L 67.8549 30.9464 "
     id="path676"
     transform="matrix(0.999855,-1.703691e-2,1.703691e-2,0.999855,-13.19715,38.29502)" />
  <path
     style="fill:none;fill-rule:evenodd;stroke:#42667e;stroke-opacity:1;stroke-width:1pt;stroke-linejoin:miter;stroke-linecap:butt;fill-opacity:1;"
     d="M 27.8233 19.306 L 67.8549 30.9464 "
     id="path674"
     transform="matrix(0.999855,-1.703691e-2,1.703691e-2,0.999855,-7.235008,21.26032)" />
  <path
     style="fill:none;fill-rule:evenodd;stroke:#414141;stroke-opacity:1;stroke-width:3.125;stroke-linejoin:round;stroke-linecap:round;fill-opacity:1;stroke-dasharray:none;"
     d="M 6.52997 44.858 C 1.51419 41.593 2.73854 34.2968 8.51734 34.1048 C 14.1459 33.634 18.9274 41.1672 15.6151 45.4258 "
     id="path699"
     sodipodi:nodetypes="csc" />
  <path
     style="fill:none;fill-rule:evenodd;stroke:#414141;stroke-opacity:1;stroke-width:3.125;stroke-linejoin:round;stroke-linecap:round;fill-opacity:1;stroke-dasharray:none;"
     d="M 6.52997 44.858 C 1.51419 41.593 2.73854 34.2968 8.51734 34.1048 C 14.1459 33.634 18.9274 41.1672 15.6151 45.4258 "
     id="path701"
     sodipodi:nodetypes="csc"
     transform="translate(3.690853,-9.369087)" />
  <path
     style="fill:none;fill-rule:evenodd;stroke:#414141;stroke-opacity:1;stroke-width:3.125;stroke-linejoin:round;stroke-linecap:round;fill-opacity:1;stroke-dasharray:none;"
     d="M 6.52997 44.858 C 1.51419 41.593 2.73854 34.2968 8.51734 34.1048 C 14.1459 33.634 18.9274 41.1672 15.6151 45.4258 "
     id="path703"
     sodipodi:nodetypes="csc"
     transform="translate(7.097792,-18.73817)" />
  <path
     style="fill:none;fill-rule:evenodd;stroke:#b9b9b9;stroke-opacity:1;stroke-width:0.75;stroke-linejoin:round;stroke-linecap:round;fill-opacity:1;stroke-dasharray:none;"
     d="M 5.67823 43.8643 C 2.08201 42.1608 2.73854 34.2968 8.51734 34.1048 C 14.1459 33.634 18.7854 40.4574 16.6088 45.4258 "
     id="path704"
     sodipodi:nodetypes="csc"
     transform="translate(7.097792,-19.30599)" />
  <path
     style="fill:none;fill-rule:evenodd;stroke:#b9b9b9;stroke-opacity:1;stroke-width:0.75;stroke-linejoin:round;stroke-linecap:round;fill-opacity:1;stroke-dasharray:none;"
     d="M 5.67823 43.8643 C 2.08201 42.1608 2.73854 34.2968 8.51734 34.1048 C 14.1459 33.634 18.7854 40.4574 16.6088 45.4258 "
     id="path702"
     sodipodi:nodetypes="csc"
     transform="translate(3.690853,-9.936905)" />
  <path
     style="fill:none;fill-rule:evenodd;stroke:#b9b9b9;stroke-opacity:1;stroke-width:0.75;stroke-linejoin:round;stroke-linecap:round;fill-opacity:1;stroke-dasharray:none;"
     d="M 5.67823 43.8643 C 2.08201 42.1608 2.73854 34.2968 8.51734 34.1048 C 14.1459 33.634 18.7854 40.4574 16.6088 45.4258 "
     id="path700"
     sodipodi:nodetypes="csc"
     transform="translate(0.000000,-0.567818)" />
  <g
     id="g5729"
     transform="translate(3.0722892,1.626506)">
    <path
       id="path635"
       style="font-size:12px;fill:#0d0000;fill-opacity:0.30147101;fill-rule:evenodd;stroke-width:1pt"
       transform="matrix(1.035546,0,0,1.035546,15.5616,-11.72637)"
       d="M 7.73398,34.2049 L 12.0429,51.3301 C 5.08232,51.2196 4.19844,55.9705 4.64039,59.1746 C 6.73961,68.2343 17.4567,65.6933 24.5277,62.7102 C 23.6438,59.506 20.3293,44.3696 19.8874,41.7178 C 23.7543,40.7235 31.8198,38.4033 31.8198,38.4033 C 31.8198,38.4033 34.6924,45.5849 35.1343,47.0212 C 26.0745,46.6897 25.4117,52.3244 26.1851,54.8656 C 27.6214,61.9367 34.0295,61.8262 37.5651,60.8318 C 40.8796,60.2795 45.52,58.2907 48.0612,57.1859 C 47.0668,53.3189 38.3384,29.233 37.2336,26.1394 C 32.9246,27.6862 7.62349,34.4258 7.73398,34.2049 z" />
    <path
       id="path616"
       style="font-size:12px;fill:#0d3c07;fill-rule:evenodd;stroke-width:1pt"
       transform="translate(14.83929,-11.4241)"
       d="M 7.73398,34.2049 L 12.0429,51.3301 C 5.08232,51.2196 4.19844,55.9705 4.64039,59.1746 C 6.73961,68.2343 17.4567,65.6933 24.5277,62.7102 C 23.6438,59.506 20.3293,44.3696 19.8874,41.7178 C 23.7543,40.7235 31.8198,38.4033 31.8198,38.4033 C 31.8198,38.4033 34.6924,45.5849 35.1343,47.0212 C 26.0745,46.6897 25.4117,52.3244 26.1851,54.8656 C 27.6214,61.9367 34.0295,61.8262 37.5651,60.8318 C 40.8796,60.2795 45.52,58.2907 48.0612,57.1859 C 47.0668,53.3189 38.3384,29.233 37.2336,26.1394 C 32.9246,27.6862 7.62349,34.4258 7.73398,34.2049 z" />
    <path
       id="path574"
       style="font-size:12px;fill:#2aaf18;fill-rule:evenodd;stroke-width:1pt"
       transform="translate(14.83929,-11.4241)"
       d="M 15.7994,54.2027 L 11.159,35.9726 L 35.7973,29.1225 L 44.7466,54.9761 C 44.7466,54.9761 33.3666,59.506 31.7093,57.5173 C 28.9471,57.4067 26.7375,51.2197 33.4771,50.0043 C 37.1231,49.8938 38.5594,49.6728 39.5538,50.0042 L 33.3666,34.0944 L 15.247,39.3977 L 20.3293,60.0584 C 20.3293,60.0584 13.7002,64.9198 7.95495,60.1689 C 6.73961,59.0641 6.62912,56.0809 8.61786,54.9761 C 10.2751,52.8769 15.6889,54.4237 15.7994,54.2027 z" />
    <path
       id="path623"
       style="font-size:12px;fill:url(#radialGradient704);fill-rule:evenodd;stroke-width:1pt"
       transform="matrix(1.488889,0,0,1.488889,8.83625,-40.12308)"
       d="M 14.4736,57.5725 C 12.6184,56.7928 11.9994,58.2032 11.601,60.0584 C 10.0153,60.0584 8.87676,59.2416 8.87676,57.8693 C 8.87676,56.4971 9.94109,55.5318 11.5268,55.5318 C 13.1125,55.5318 14.4736,56.2003 14.4736,57.5725 z" />
    <path
       transform="translate(14.83929,-11.4241)"
       id="path625"
       style="font-size:12px;fill:url(#radialGradient708);fill-rule:evenodd;stroke-width:1pt"
       d="M 37.3441,53.6503 C 33.3666,51.8834 34.4706,54.4237 33.6428,56.8544 C 31.5997,56.8544 29.9416,55.4189 29.9416,53.6503 C 29.9416,51.8816 31.5997,50.4462 33.6428,50.4462 C 35.6859,50.4462 37.3441,51.8816 37.3441,53.6503 z" />
    <path
       id="path630"
       style="font-size:12px;fill:#34674b;fill-rule:evenodd;stroke-width:1pt"
       transform="translate(14.83929,-11.4241)"
       d="M 15.3575,39.5082 L 33.3666,34.2049 L 33.8085,32.5476 L 15.7994,37.7404 L 15.3575,39.5082 z" />
    <path
       id="path631"
       style="font-size:12px;fill:#cbff87;fill-rule:evenodd;stroke-width:1pt"
       transform="translate(14.83929,-11.4241)"
       d="M 11.159,35.9726 L 13.3687,36.5251 L 36.1287,30.2274 L 35.6868,29.1225 L 11.159,35.9726 z" />
    <path
       id="path633"
       style="font-size:12px;fill:#cbff87;fill-rule:evenodd;stroke-width:1pt"
       transform="translate(14.83929,-11.4241)"
       d="M 33.6981,32.879 L 39.6643,49.8938 L 33.2561,34.2049 L 33.6981,32.879 z" />
    <path
       id="path634"
       style="font-size:12px;fill:#cbff87;fill-rule:evenodd;stroke-width:1pt"
       transform="translate(14.83929,-11.4241)"
       d="M 13.1478,36.1936 C 13.1478,36.1936 16.1309,54.3132 16.0204,54.3132 C 15.9099,54.3132 11.2695,36.0831 11.2695,36.0831 L 13.1478,36.1936 z" />
  </g>
  <g
     id="g4655"
     transform="matrix(2.6726989,0,0,2.6726989,9.4520418,9.6284937)">
    <path
       sodipodi:nodetypes="csscssscssscssscs"
       id="path584"
       d="M 14.230456,18.757556 C 13.553774,18.744497 13.283533,20.695096 13.283533,21.371902 C 13.283533,22.048709 13.553681,23.939839 14.230456,23.933166 L 18.956785,23.886567 L 18.969885,28.748528 C 18.971708,29.425334 20.801256,29.639273 21.478066,29.639273 C 22.154872,29.639273 23.883072,29.425329 23.880074,28.748528 L 23.858242,23.813897 L 28.543575,23.880084 C 29.220315,23.889639 29.78186,22.048709 29.78186,21.371902 C 29.78186,20.695096 29.326531,18.975168 28.649741,18.969887 L 23.610289,18.93059 L 23.508488,14.087872 C 23.494264,13.411214 22.154872,13.104528 21.478066,13.104528 C 20.801256,13.104528 19.079225,13.517237 19.076053,14.194039 L 19.054221,18.850621 L 14.230456,18.757556 z "
       style="font-size:12px;fill:#0d3d07;fill-rule:evenodd;stroke:#0d3d07;stroke-width:0.26984996" />
    <path
       sodipodi:nodetypes="csscssscssscssscs"
       id="path589"
       d="M 14.700826,19.599684 C 14.251645,19.600483 13.939095,20.922719 13.939095,21.371902 C 13.939095,21.821085 14.145477,23.037575 14.594658,23.037952 L 19.747144,23.042256 L 19.755839,28.546669 C 19.75655,28.995852 20.919622,29.165813 21.368804,29.165813 C 21.817984,29.165813 23.089119,29.048935 23.087937,28.599752 L 23.073448,23.08234 L 28.288634,23.037952 C 28.7378,23.034127 29.053456,21.821085 29.053456,21.371902 C 29.053456,20.922719 28.684683,19.712482 28.235547,19.705853 L 22.872703,19.626683 L 22.928689,14.398989 C 22.933496,13.949832 21.817984,13.796511 21.368804,13.796511 C 20.919622,13.796511 19.771016,14.003149 19.755839,14.452073 L 19.582097,19.590986 L 14.700826,19.599684 z "
       style="font-size:12px;fill:#2aaf18;fill-opacity:1;fill-rule:evenodd;stroke:none;stroke-width:0.83871002pt" />
    <path
       sodipodi:nodetypes="cssscsssss"
       id="path592"
       d="M 21.781987,22.556248 L 21.822845,28.331596 C 21.824465,28.560776 21.88059,28.732219 22.109773,28.732219 C 22.338956,28.732219 22.799061,28.560776 22.797323,28.331596 L 22.75351,22.549613 L 28.481213,22.590471 C 28.710391,22.592107 28.918257,22.132104 28.918257,21.902923 C 28.918257,21.673737 28.710391,21.617985 28.481213,21.615992 L 22.759426,21.566263 C 22.106864,21.560591 21.777371,21.903675 21.781987,22.556248 z "
       style="font-size:12px;fill:#208c11;fill-opacity:1;fill-rule:evenodd;stroke:none;stroke-width:0.83871002pt" />
    <path
       sodipodi:nodetypes="cssscsssss"
       id="path3559"
       d="M 21.142896,20.056349 L 21.138459,14.535941 C 21.138276,14.306758 21.044295,14.135319 20.815111,14.135319 C 20.585925,14.135319 20.127254,14.306758 20.12756,14.535941 L 20.134954,20.062981 L 14.735033,20.022124 C 14.505856,20.02039 14.297992,20.480493 14.297992,20.709677 C 14.297992,20.93886 14.50586,20.994496 14.735033,20.996608 L 20.129038,21.046334 C 20.781599,21.05235 21.143421,20.708935 21.142896,20.056349 z "
       style="font-size:12px;fill:#ebf8e9;fill-opacity:1;fill-rule:evenodd;stroke:none;stroke-width:0.83871002pt" />
  </g>
</svg>
