<?xml version="1.0" encoding="UTF-8" standalone="no"?>
<!-- Created with Sodipodi ("http://www.sodipodi.com/") -->
<svg
   xmlns:dc="http://purl.org/dc/elements/1.1/"
   xmlns:cc="http://web.resource.org/cc/"
   xmlns:rdf="http://www.w3.org/1999/02/22-rdf-syntax-ns#"
   xmlns:svg="http://www.w3.org/2000/svg"
   xmlns="http://www.w3.org/2000/svg"
   xmlns:xlink="http://www.w3.org/1999/xlink"
   xmlns:sodipodi="http://sodipodi.sourceforge.net/DTD/sodipodi-0.dtd"
   xmlns:inkscape="http://www.inkscape.org/namespaces/inkscape"
   id="svg604"
   sodipodi:version="0.32"
   width="90"
   height="90"
   sodipodi:docbase="/home/tweenk/GNUtoon/actions"
   sodipodi:docname="view-page-continuous.svg"
   inkscape:version="0.45.1"
   inkscape:output_extension="org.inkscape.output.svg.inkscape"
   version="1.0">
  <metadata
     id="metadata11">
    <rdf:RDF>
      <cc:Work
         rdf:about="">
        <dc:format>image/svg+xml</dc:format>
        <dc:type
           rdf:resource="http://purl.org/dc/dcmitype/StillImage" />
      </cc:Work>
    </rdf:RDF>
  </metadata>
  <defs
     id="defs606">
    <linearGradient
       id="linearGradient612">
      <stop
         style="stop-color:#7fa8e3;stop-opacity:0.741176;"
         offset="0.000000"
         id="stop613" />
      <stop
         style="stop-color:#ffffff;stop-opacity:0;"
         offset="1.000000"
         id="stop614" />
    </linearGradient>
    <linearGradient
       inkscape:collect="always"
       xlink:href="#linearGradient612"
       id="linearGradient2199"
       gradientUnits="userSpaceOnUse"
       gradientTransform="matrix(0.960363,0,0,0.960363,3.7752743,43.749438)"
       spreadMethod="pad"
       x1="50.643887"
       y1="5.3679295"
       x2="44.581402"
       y2="43.805611" />
  </defs>
  <sodipodi:namedview
     id="base"
     inkscape:zoom="5.7333333"
     inkscape:cx="45"
     inkscape:cy="45"
     inkscape:window-width="968"
     inkscape:window-height="728"
     inkscape:window-x="0"
     inkscape:window-y="1"
     inkscape:current-layer="svg604"
     width="90px"
     height="90px" />
  <g
     id="g2186"
     transform="matrix(3,0,0,3,2.8519463,41.709042)">
    <path
       id="path2175"
       d="M 22.6875,1.25 C 20.130277,1.2154351 6.8848336,2.9826037 5.34375,3.21875 C 3.3347702,3.472025 2.206041,4.1922464 1.6875,5.1875 C 1.1889821,5.815479 1.4426332,10.597819 1.90625,15.5 C 8.3535371,13.561785 19.800744,11.424622 26.15625,10.75 C 25.568594,7.0834519 25.059528,3.7247351 25.09375,3.375 C 25.014434,1.8426041 24.133843,1.5868121 23.03125,1.28125 C 22.96234,1.2621536 22.857982,1.2523043 22.6875,1.25 z "
       style="fill:#3d4e67;fill-opacity:1;fill-rule:evenodd;stroke:none;stroke-width:1pt;stroke-linecap:butt;stroke-linejoin:miter;stroke-opacity:1" />
    <path
       id="path2165"
       d="M 22.09375,3.0625 C 21.236529,3.0230268 13.095061,3.6316548 9.125,4.03125 C 5.6314477,4.3435602 4.0957624,5.1050911 3.8125,5.65625 C 3.1970435,6.7936878 3.2990957,10.873866 3.65625,15.087658 C 9.6392764,13.464501 18.441996,11.797744 24.375,11.038876 C 23.849082,8.0441187 23.37462,5.2452695 23.40625,4.5625 C 23.219801,3.0251565 22.95093,3.1019834 22.09375,3.0625 z "
       style="fill:#ffffff;fill-opacity:1;fill-rule:evenodd;stroke:none;stroke-width:1pt;stroke-linecap:butt;stroke-linejoin:miter;stroke-opacity:1"
       sodipodi:nodetypes="ccccccc" />
  </g>
  <path
     id="path2197"
     d="M 15.544055,65.395587 C 15.544055,65.395587 15.847214,58.852545 24.57353,57.54957 C 33.299816,56.246637 67.859729,51.805593 68.683196,54.072882 C 69.5066,56.340156 70.526063,69.884559 70.780328,71.076543 C 71.034596,72.268479 46.512602,77.971434 36.165014,82.229358 C 24.498068,87.030183 17.035535,85.628097 17.035535,85.628097 C 17.035535,85.628097 15.485849,76.670844 15.544055,65.395587 z "
     style="fill:url(#linearGradient2199);fill-opacity:1;fill-rule:evenodd;stroke:none;stroke-width:1pt;stroke-linecap:butt;stroke-linejoin:miter;stroke-opacity:1"
     sodipodi:nodetypes="csssscc" />
  <g
     id="g2211"
     transform="matrix(2.9911545,0.230205,-0.230205,2.9911545,-83.704858,-25.946706)">
    <path
       id="path2208"
       d="M 55.1875,4.9375 C 48.8927,6.8800686 37.366531,9.0658595 30.84375,9.78125 C 31.291866,14.091487 31.861653,18.092221 32.125,18.9375 C 32.294645,20.838046 34.216072,21.545517 35.375,21.5625 C 36.717121,21.333104 53.424857,18.540473 55.125,18 C 56.825173,17.459518 57.172045,15.830366 56.96875,14.65625 C 56.751963,14.14622 55.935387,9.4935308 55.1875,4.9375 z "
       style="fill:#3d4e67;fill-opacity:1;fill-rule:evenodd;stroke:none;stroke-width:1pt;stroke-linecap:butt;stroke-linejoin:miter;stroke-opacity:1" />
    <path
       id="path2205"
       d="M 53.459237,5.3451486 C 47.561205,6.9776343 38.646476,8.600547 32.586962,9.3913605 C 32.970129,13.14048 33.508787,16.898461 33.84375,18.46875 C 34.030173,20.006055 35.59516,19.710942 36.71875,19.5625 L 54.09375,16.34375 C 55.142611,15.955254 54.931367,15.263251 54.8125,13.65625 C 54.738857,12.564994 54.092996,8.8987392 53.459237,5.3451486 z "
       style="fill:#ffffff;fill-opacity:1;fill-rule:evenodd;stroke:none;stroke-width:1pt;stroke-linecap:butt;stroke-linejoin:miter;stroke-opacity:1"
       sodipodi:nodetypes="ccccccc" />
  </g>
</svg>
