<?xml version="1.0" encoding="UTF-8" standalone="no"?>
<!DOCTYPE svg PUBLIC "-//W3C//DTD SVG 20010904//EN"
"http://www.w3.org/TR/2001/REC-SVG-20010904/DTD/svg10.dtd">
<!-- Created with Sodipodi ("http://www.sodipodi.com/") -->
<svg
   version="1"
   x="0.00000000"
   y="0.00000000"
   width="24.000000pt"
   height="24.000000pt"
   id="svg548"
   sodipodi:version="0.32"
   sodipodi:docname="vim-session-save.svg"
   sodipodi:docbase="/home/zeus/.icons/gartoon/scalable/stock-gar"
   inkscape:version="0.40"
   xmlns="http://www.w3.org/2000/svg"
   xmlns:inkscape="http://www.inkscape.org/namespaces/inkscape"
   xmlns:sodipodi="http://sodipodi.sourceforge.net/DTD/sodipodi-0.dtd"
   xmlns:xlink="http://www.w3.org/1999/xlink"
   xmlns:rdf="http://www.w3.org/1999/02/22-rdf-syntax-ns#"
   xmlns:cc="http://web.resource.org/cc/"
   xmlns:dc="http://purl.org/dc/elements/1.1/">
  <metadata
     id="metadata95">
    <rdf:RDF
       id="RDF96">
      <cc:Work
         rdf:about=""
         id="Work97">
        <dc:format
           id="format98">image/svg+xml</dc:format>
        <dc:type
           id="type100"
           rdf:resource="http://purl.org/dc/dcmitype/StillImage" />
      </cc:Work>
    </rdf:RDF>
  </metadata>
  <sodipodi:namedview
     id="base"
     inkscape:zoom="4.2916667"
     inkscape:cx="36.000000"
     inkscape:cy="-11.650140"
     inkscape:window-width="1014"
     inkscape:window-height="653"
     inkscape:window-x="285"
     inkscape:window-y="132"
     inkscape:current-layer="svg548" />
  <defs
     id="defs550">
    <linearGradient
       x1="0.00000000"
       y1="0.00000000"
       x2="1.00000000"
       y2="0.00000000"
       id="linearGradient632"
       gradientUnits="objectBoundingBox"
       spreadMethod="pad">
      <stop
         style="stop-color:#ffb700;stop-opacity:1;"
         offset="0.000000"
         id="stop633" />
      <stop
         style="stop-color:#ffd58f;stop-opacity:0;"
         offset="1.000000"
         id="stop634" />
    </linearGradient>
    <linearGradient
       x1="0.00000000"
       y1="0.00000000"
       x2="1.00000000"
       y2="0.00000000"
       id="linearGradient556"
       gradientUnits="objectBoundingBox"
       spreadMethod="pad">
      <stop
         style="stop-color:#000000;stop-opacity:1;"
         offset="0.000000"
         id="stop557" />
      <stop
         style="stop-color:#bdf2ff;stop-opacity:0.384314;"
         offset="1.000000"
         id="stop558" />
    </linearGradient>
    <linearGradient
       id="linearGradient559"
       xlink:href="#linearGradient632"
       x1="60.6446152"
       y1="19.2956886"
       x2="35.3705750"
       y2="69.1427994"
       gradientUnits="userSpaceOnUse"
       spreadMethod="pad" />
    <linearGradient
       xlink:href="#linearGradient632"
       id="linearGradient631"
       x1="85.6376572"
       y1="17.4438438"
       x2="73.9162979"
       y2="54.6281815"
       gradientUnits="userSpaceOnUse"
       spreadMethod="pad"
       gradientTransform="scale(0.740666,1.350136)" />
    <defs
       id="defs606">
      <linearGradient
         id="linearGradient1688">
        <stop
           style="stop-color:#d70025;stop-opacity:0.741176;"
           offset="0.000000"
           id="stop1689" />
        <stop
           style="stop-color:#ffffff;stop-opacity:0;"
           offset="1.000000"
           id="stop1690" />
      </linearGradient>
      <linearGradient
         id="linearGradient863">
        <stop
           style="stop-color:#d70025;stop-opacity:0.741176;"
           offset="0.000000"
           id="stop864" />
        <stop
           style="stop-color:#ffffff;stop-opacity:0;"
           offset="1.000000"
           id="stop865" />
      </linearGradient>
      <linearGradient
         id="linearGradient612">
        <stop
           style="stop-color:#7fa8e3;stop-opacity:0.741176;"
           offset="0.000000"
           id="stop613" />
        <stop
           style="stop-color:#ffffff;stop-opacity:0;"
           offset="1.000000"
           id="stop614" />
      </linearGradient>
      <linearGradient
         xlink:href="#linearGradient612"
         id="linearGradient615"
         y2="68.044357"
         x2="35.752094"
         y1="5.3679295"
         x1="50.643887"
         spreadMethod="pad"
         gradientUnits="userSpaceOnUse" />
      <defs
         id="defs561" />
      <sodipodi:namedview
         id="namedview611"
         showgrid="true"
         gridspacingx="1mm"
         gridspacingy="1mm"
         gridtolerance="1px"
         snaptogrid="true" />
      <linearGradient
         xlink:href="#linearGradient863"
         id="linearGradient862"
         x1="51.428993"
         y1="21.934958"
         x2="12.332661"
         y2="46.054565"
         gradientUnits="userSpaceOnUse"
         spreadMethod="pad"
         gradientTransform="scale(0.903424,1.106900)" />
      <linearGradient
         xlink:href="#linearGradient863"
         id="linearGradient866"
         x1="19.163351"
         y1="61.201427"
         x2="35.616890"
         y2="33.299057"
         gradientUnits="userSpaceOnUse"
         spreadMethod="pad"
         gradientTransform="scale(0.827637,1.208259)" />
      <linearGradient
         xlink:href="#linearGradient863"
         id="linearGradient980"
         x1="0.20752650"
         y1="0.80468732"
         x2="1.4528289"
         y2="0.26562491"
         gradientUnits="objectBoundingBox"
         spreadMethod="pad" />
      <defs
         id="defs1084">
        <linearGradient
           id="linearGradient1085">
          <stop
             style="stop-color:#d70025;stop-opacity:0.741176;"
             offset="0.000000"
             id="stop1086" />
          <stop
             style="stop-color:#ffffff;stop-opacity:0;"
             offset="1.000000"
             id="stop1087" />
        </linearGradient>
        <linearGradient
           id="linearGradient1088">
          <stop
             style="stop-color:#7fa8e3;stop-opacity:0.741176;"
             offset="0.000000"
             id="stop1089" />
          <stop
             style="stop-color:#ffffff;stop-opacity:0;"
             offset="1.000000"
             id="stop1090" />
        </linearGradient>
        <linearGradient
           xlink:href="#linearGradient612"
           id="linearGradient1091"
           x1="50.643887"
           y1="5.3679295"
           x2="35.752094"
           y2="68.044357"
           gradientUnits="userSpaceOnUse"
           spreadMethod="pad" />
        <defs
           id="defs1092" />
        <sodipodi:namedview
           id="namedview1093"
           showgrid="true"
           gridspacingx="1mm"
           gridspacingy="1mm"
           gridtolerance="1px"
           snaptogrid="true" />
        <linearGradient
           xlink:href="#linearGradient863"
           id="linearGradient1094"
           x1="76.955231"
           y1="34.671722"
           x2="27.436239"
           y2="67.204659"
           gradientUnits="userSpaceOnUse"
           spreadMethod="pad"
           gradientTransform="scale(0.903424,1.106900)" />
        <linearGradient
           xlink:href="#linearGradient863"
           id="linearGradient1095"
           x1="19.163353"
           y1="61.201431"
           x2="35.616894"
           y2="33.299057"
           gradientUnits="userSpaceOnUse"
           spreadMethod="pad"
           gradientTransform="scale(0.827637,1.208259)" />
        <linearGradient
           xlink:href="#linearGradient863"
           id="linearGradient1096"
           x1="0.20752650"
           y1="0.80468732"
           x2="1.4528289"
           y2="0.26562491"
           gradientUnits="objectBoundingBox"
           spreadMethod="pad" />
      </defs>
      <sodipodi:namedview
         id="namedview1097"
         showborder="true"
         inkscape:zoom="4.29166667"
         inkscape:cx="36"
         inkscape:cy="36"
         inkscape:window-width="1014"
         inkscape:window-height="696"
         inkscape:window-x="0"
         inkscape:window-y="0" />
      <defs
         id="defs1394">
        <linearGradient
           id="linearGradient1395">
          <stop
             style="stop-color:#d70025;stop-opacity:0.741176;"
             offset="0.000000"
             id="stop1396" />
          <stop
             style="stop-color:#ffffff;stop-opacity:0;"
             offset="1.000000"
             id="stop1397" />
        </linearGradient>
        <linearGradient
           id="linearGradient1398">
          <stop
             style="stop-color:#7fa8e3;stop-opacity:0.741176;"
             offset="0.000000"
             id="stop1399" />
          <stop
             style="stop-color:#ffffff;stop-opacity:0;"
             offset="1.000000"
             id="stop1400" />
        </linearGradient>
        <linearGradient
           xlink:href="#linearGradient612"
           id="linearGradient1401"
           x1="50.643887"
           y1="5.3679295"
           x2="35.752094"
           y2="68.044357"
           gradientUnits="userSpaceOnUse"
           spreadMethod="pad" />
        <defs
           id="defs1402" />
        <sodipodi:namedview
           id="namedview1403"
           showgrid="true"
           gridspacingx="1mm"
           gridspacingy="1mm"
           gridtolerance="1px"
           snaptogrid="true" />
        <linearGradient
           xlink:href="#linearGradient863"
           id="linearGradient1404"
           x1="76.955231"
           y1="34.671722"
           x2="27.436239"
           y2="67.204659"
           gradientUnits="userSpaceOnUse"
           spreadMethod="pad"
           gradientTransform="scale(0.903424,1.106900)" />
        <linearGradient
           xlink:href="#linearGradient863"
           id="linearGradient1405"
           x1="19.163353"
           y1="61.201431"
           x2="35.616894"
           y2="33.299057"
           gradientUnits="userSpaceOnUse"
           spreadMethod="pad"
           gradientTransform="scale(0.827637,1.208259)" />
        <linearGradient
           xlink:href="#linearGradient863"
           id="linearGradient1406"
           x1="0.20752650"
           y1="0.80468732"
           x2="1.4528289"
           y2="0.26562491"
           gradientUnits="objectBoundingBox"
           spreadMethod="pad" />
      </defs>
      <sodipodi:namedview
         id="namedview1407"
         showborder="true"
         inkscape:zoom="4.29166667"
         inkscape:cx="36"
         inkscape:cy="36"
         inkscape:window-width="1014"
         inkscape:window-height="696"
         inkscape:window-x="0"
         inkscape:window-y="0" />
    </defs>
    <sodipodi:namedview
       id="namedview884"
       showborder="true"
       inkscape:zoom="4.2916665"
       inkscape:cx="-17.465517"
       inkscape:cy="62.116772"
       inkscape:window-width="1014"
       inkscape:window-height="696"
       inkscape:window-x="0"
       inkscape:window-y="27"
       showguides="true"
       snaptoguides="true" />
    <linearGradient
       inkscape:collect="always"
       xlink:href="#linearGradient677"
       id="linearGradient1151"
       gradientUnits="userSpaceOnUse"
       gradientTransform="scale(1.011562,0.988570)"
       spreadMethod="pad"
       x1="68.3116760"
       y1="71.2960510"
       x2="52.5783653"
       y2="39.5797806" />
    <linearGradient
       inkscape:collect="always"
       xlink:href="#linearGradient684"
       id="linearGradient1152"
       gradientUnits="userSpaceOnUse"
       gradientTransform="scale(1.017548,0.982755)"
       spreadMethod="pad"
       x1="49.0257645"
       y1="44.3401871"
       x2="56.4553261"
       y2="53.1827507" />
    <linearGradient
       inkscape:collect="always"
       xlink:href="#linearGradient689"
       id="linearGradient1153"
       gradientUnits="userSpaceOnUse"
       gradientTransform="scale(1.326975,0.753594)"
       spreadMethod="pad"
       x1="26.2959213"
       y1="98.9529343"
       x2="31.7159863"
       y2="102.827583" />
    <linearGradient
       inkscape:collect="always"
       xlink:href="#linearGradient689"
       id="linearGradient1154"
       gradientUnits="userSpaceOnUse"
       gradientTransform="scale(0.780786,1.280761)"
       spreadMethod="pad"
       x1="33.5794411"
       y1="53.8219566"
       x2="-14.0691185"
       y2="26.5526485" />
    <metadata
       id="metadata18">
      <rdf:RDF
         id="RDF19">
        <cc:Work
           rdf:about=""
           id="Work20">
          <dc:format
             id="format21">image/svg+xml</dc:format>
          <dc:type
             id="type23"
             rdf:resource="http://purl.org/dc/dcmitype/StillImage" />
        </cc:Work>
      </rdf:RDF>
    </metadata>
    <sodipodi:namedview
       id="namedview1162"
       inkscape:zoom="2.5208333"
       inkscape:cx="34.288064"
       inkscape:cy="56.314502"
       inkscape:window-width="734"
       inkscape:window-height="537"
       inkscape:window-x="5"
       inkscape:window-y="46"
       inkscape:current-layer="svg548" />
    <defs
       id="defs1163">
      <linearGradient
         id="linearGradient1828">
        <stop
           style="stop-color:#ffc93f;stop-opacity:1.0000000;"
           offset="0.0000000"
           id="stop1829" />
        <stop
           style="stop-color:#f1e36c;stop-opacity:1.0000000;"
           offset="1.0000000"
           id="stop1830" />
      </linearGradient>
      <linearGradient
         id="linearGradient1825">
        <stop
           offset="0.0000000"
           style="stop-color:#ffd800;stop-opacity:1.0000000;"
           id="stop1827" />
        <stop
           offset="1.0000000"
           style="stop-color:#ffd58f;stop-opacity:0.0000000;"
           id="stop1826" />
      </linearGradient>
      <linearGradient
         x1="0.00000000"
         y1="0.00000000"
         x2="1.00000000"
         y2="0.00000000"
         id="linearGradient1170"
         gradientUnits="objectBoundingBox"
         spreadMethod="pad">
        <stop
           style="stop-color:#ffb700;stop-opacity:1;"
           offset="0.00000000"
           id="stop1171" />
        <stop
           style="stop-color:#ffd58f;stop-opacity:0;"
           offset="1.00000000"
           id="stop1172" />
      </linearGradient>
      <linearGradient
         x1="0.00000000"
         y1="0.00000000"
         x2="1.00000000"
         y2="0.00000000"
         id="linearGradient1173"
         gradientUnits="objectBoundingBox"
         spreadMethod="pad">
        <stop
           style="stop-color:#000000;stop-opacity:1;"
           offset="0.00000000"
           id="stop1174" />
        <stop
           style="stop-color:#bdf2ff;stop-opacity:0.384314;"
           offset="1.00000000"
           id="stop1175" />
      </linearGradient>
      <linearGradient
         x1="60.6446152"
         y1="19.2956886"
         x2="35.3705750"
         y2="69.1427994"
         id="linearGradient1176"
         xlink:href="#linearGradient632"
         gradientUnits="userSpaceOnUse"
         spreadMethod="pad"
         gradientTransform="matrix(1.418885,-0.200635,0.127692,1.110535,-136.7997,-1.332303)" />
      <linearGradient
         x1="85.6376572"
         y1="17.4438438"
         x2="73.9162979"
         y2="54.6281815"
         id="linearGradient1177"
         xlink:href="#linearGradient632"
         gradientUnits="userSpaceOnUse"
         gradientTransform="matrix(1.050920,-0.148604,0.172402,1.499373,-123.6994,-3.008376)"
         spreadMethod="pad" />
      <defs
         id="defs3">
        <sodipodi:namedview
           id="namedview909" />
        <defs
           id="defs1721">
          <linearGradient
             x1="0.0000000"
             y1="0.0000000"
             x2="1.0000000"
             y2="0.0000000"
             id="linearGradient1722"
             gradientUnits="objectBoundingBox"
             spreadMethod="pad"
             xlink:href="#linearGradient1825" />
          <linearGradient
             x1="0.0000000"
             y1="0.0000000"
             x2="1.0000000"
             y2="0.0000000"
             id="linearGradient1725"
             gradientUnits="objectBoundingBox"
             spreadMethod="pad">
            <stop
               style="stop-color:#000000;stop-opacity:1;"
               offset="0.000000"
               id="stop1726" />
            <stop
               style="stop-color:#bdf2ff;stop-opacity:0.384314;"
               offset="1.000000"
               id="stop1727" />
          </linearGradient>
          <linearGradient
             id="linearGradient1728"
             xlink:href="#linearGradient632"
             x1="60.644615"
             y1="19.295689"
             x2="35.370575"
             y2="69.142799"
             gradientUnits="userSpaceOnUse"
             spreadMethod="pad" />
          <linearGradient
             xlink:href="#linearGradient632"
             id="linearGradient1729"
             x1="85.637657"
             y1="17.443844"
             x2="73.916298"
             y2="54.628181"
             gradientUnits="userSpaceOnUse"
             spreadMethod="pad"
             gradientTransform="scale(0.740666,1.350136)" />
        </defs>
      </defs>
      <sodipodi:namedview
         id="namedview1730"
         pagecolor="#ffffff"
         bordercolor="#666666"
         borderopacity="1.0"
         inkscape:pageopacity="0.0"
         inkscape:pageshadow="2"
         inkscape:zoom="2.4559706"
         inkscape:cx="113.94414"
         inkscape:cy="73.007956"
         inkscape:window-width="812"
         inkscape:window-height="560"
         inkscape:window-x="103"
         inkscape:window-y="56" />
      <metadata
         id="metadata4">
        <rdf:RDF
           id="RDF5">
          <cc:Work
             rdf:about=""
             id="Work6">
            <dc:format
               id="format7">image/svg+xml</dc:format>
            <dc:type
               id="type9"
               rdf:resource="http://purl.org/dc/dcmitype/StillImage" />
          </cc:Work>
        </rdf:RDF>
      </metadata>
      <linearGradient
         inkscape:collect="always"
         xlink:href="#linearGradient1828"
         id="linearGradient1831"
         gradientTransform="matrix(0.563776,0.000000,0.000000,0.563788,50.39821,45.07308)"
         x1="32.051327"
         y1="14.657825"
         x2="32.051327"
         y2="75.934349"
         gradientUnits="userSpaceOnUse" />
      <linearGradient
         inkscape:collect="always"
         xlink:href="#linearGradient1828"
         id="linearGradient1857"
         gradientUnits="userSpaceOnUse"
         gradientTransform="matrix(0.999990,0.000000,0.000000,1.000010,-0.701263,-7.713892)"
         x1="32.051327"
         y1="14.657825"
         x2="32.051327"
         y2="75.934349" />
    </defs>
    <linearGradient
       inkscape:collect="always"
       xlink:href="#linearGradient1828"
       id="linearGradient1414"
       gradientUnits="userSpaceOnUse"
       gradientTransform="matrix(0.176631,0.000000,0.000000,0.176635,16.97941,0.535785)"
       x1="32.051327"
       y1="14.657825"
       x2="32.051327"
       y2="75.934349" />
  </defs>
  <g
     id="g957"
     transform="matrix(0.330540,0.000000,0.000000,0.330540,0.178699,0.157149)">
    <defs
       id="defs668">
      <linearGradient
         id="linearGradient689">
        <stop
           style="stop-color:#ffb700;stop-opacity:1;"
           offset="0.000000"
           id="stop690" />
        <stop
           style="stop-color:#fdffff;stop-opacity:0;"
           offset="1.000000"
           id="stop691" />
      </linearGradient>
      <linearGradient
         id="linearGradient684">
        <stop
           style="stop-color:#ffffff;stop-opacity:0.647059;"
           offset="0.000000"
           id="stop685" />
        <stop
           style="stop-color:#fdffff;stop-opacity:0;"
           offset="1.000000"
           id="stop686" />
      </linearGradient>
      <linearGradient
         id="linearGradient677">
        <stop
           style="stop-color:#000000;stop-opacity:1;"
           offset="0.000000"
           id="stop678" />
        <stop
           style="stop-color:#6a6762;stop-opacity:1;"
           offset="1.000000"
           id="stop679" />
      </linearGradient>
      <linearGradient
         xlink:href="#linearGradient677"
         id="linearGradient680"
         x1="68.311676"
         y1="71.296051"
         x2="52.578365"
         y2="39.579781"
         gradientUnits="userSpaceOnUse"
         spreadMethod="pad"
         gradientTransform="scale(1.011562,0.988570)" />
      <linearGradient
         xlink:href="#linearGradient684"
         id="linearGradient683"
         x1="49.025764"
         y1="44.340187"
         x2="56.455326"
         y2="53.182751"
         gradientUnits="userSpaceOnUse"
         spreadMethod="pad"
         gradientTransform="scale(1.017548,0.982755)" />
      <linearGradient
         xlink:href="#linearGradient689"
         id="linearGradient688"
         x1="26.295921"
         y1="98.952934"
         x2="31.715986"
         y2="102.82758"
         gradientUnits="userSpaceOnUse"
         spreadMethod="pad"
         gradientTransform="scale(1.326975,0.753594)" />
      <linearGradient
         xlink:href="#linearGradient689"
         id="linearGradient693"
         x1="33.579441"
         y1="53.821957"
         x2="-14.069118"
         y2="26.552649"
         gradientUnits="userSpaceOnUse"
         spreadMethod="pad"
         gradientTransform="scale(0.780786,1.280761)" />
      <linearGradient
         xlink:href="#linearGradient689"
         id="linearGradient698" />
    </defs>
    <sodipodi:namedview
       id="namedview973" />
    <path
       style="fill:#000000;fill-opacity:0.29824600;fill-rule:evenodd;stroke:none;stroke-width:1.0000000pt;stroke-linecap:butt;stroke-linejoin:miter;stroke-opacity:1.0000000"
       d="M 1.4358700,43.334100 C 1.4358700,43.334100 13.982900,62.133400 24.409900,77.615600 C 26.361000,79.271000 38.751800,85.130700 41.640400,83.718000 C 44.216400,82.149200 79.089200,55.306700 79.714200,52.122500 C 80.698200,48.532700 79.488300,46.205800 78.614100,44.411000 C 77.896200,42.616100 54.563200,6.5397800 53.665800,5.6423600 C 52.768400,4.7449300 50.255600,3.4885400 47.204400,4.5654500 C 39.440100,9.0461700 15.007000,24.332000 2.5824800,37.168300 C 0.96712000,38.963200 1.2563900,41.539200 1.4358700,43.334100 z "
       id="path699"
       sodipodi:nodetypes="ccccccccc"
       transform="matrix(1.120973,0.000000,0.000000,0.970624,-0.312708,8.246927)" />
    <path
       style="fill:none;fill-opacity:1.0000000;fill-rule:evenodd;stroke:#000000;stroke-width:1.0000000pt;stroke-linecap:butt;stroke-linejoin:miter;stroke-opacity:1.0000000"
       d="M 8.7947300,37.411100 C 8.7947300,37.470900 8.7947300,37.530700 8.7947300,37.590600"
       id="path671" />
    <path
       style="fill:#261d14;fill-opacity:1.0000000;fill-rule:evenodd;stroke:none;stroke-width:1.0000000pt;stroke-linecap:butt;stroke-linejoin:miter;stroke-opacity:1.0000000"
       d="M 1.4358700,43.334100 C 1.4358700,43.334100 13.982900,62.133400 24.409900,77.615600 C 26.361000,79.271000 38.751800,85.130700 41.640400,83.718000 C 44.216400,82.149200 79.089200,55.306700 79.714200,52.122500 C 80.698200,48.532700 79.488300,46.205800 78.614100,44.411000 C 77.896200,42.616100 54.563200,6.5397800 53.665800,5.6423600 C 52.768400,4.7449300 50.255600,3.4885400 47.204400,4.5654500 C 39.440100,9.0461700 15.007000,24.332000 2.5824800,37.168300 C 0.96712000,38.963200 1.2563900,41.539200 1.4358700,43.334100 z "
       id="path676"
       sodipodi:nodetypes="ccccccccc" />
    <path
       style="fill:#f1e36c;fill-opacity:1.0000000;fill-rule:evenodd;stroke:none;stroke-width:1.0000000pt;stroke-linecap:butt;stroke-linejoin:miter;stroke-opacity:1.0000000"
       d="M 8.6152500,37.590600 C 8.6152500,37.590600 27.281600,66.846500 27.999500,68.102900 C 28.717500,69.359300 30.332900,71.154200 33.563600,72.051600 C 38.409700,74.025900 43.076200,75.820700 43.435200,75.820700 C 43.794200,75.820700 46.127500,73.666900 46.127500,73.666900 L 35.537900,60.385100 L 59.768300,39.205900 L 69.998900,54.103100 L 75.562900,49.616000 C 75.562900,49.616000 50.435100,8.6935900 50.076100,8.6935900 C 49.717200,8.6935900 43.794200,12.283300 43.794200,12.283300 L 56.358100,31.308600 C 56.358100,31.308600 31.768700,49.436600 29.614900,51.231400 C 27.640600,51.231400 13.461300,33.462400 13.461300,33.462400 L 8.6152500,37.590600 z "
       id="path672"
       sodipodi:nodetypes="ccccccccccccccc" />
    <path
       style="fill:#ffffff;fill-opacity:1.0000000;fill-rule:evenodd;stroke:none;stroke-width:1.0000000pt;stroke-linecap:butt;stroke-linejoin:miter;stroke-opacity:1.0000000"
       d="M 14.897200,32.565000 L 29.614900,49.257100 L 54.204300,30.770200 L 42.358300,12.821700 L 14.897200,32.565000 z "
       id="path673"
       sodipodi:nodetypes="ccccc" />
    <path
       style="fill:url(#linearGradient1151);fill-opacity:1.0000000;fill-rule:evenodd;stroke:none;stroke-width:1.0000000pt;stroke-linecap:butt;stroke-linejoin:miter;stroke-opacity:1.0000000"
       d="M 37.512200,60.564600 L 47.024900,72.410500 L 49.358200,70.615700 L 41.101900,60.385100 C 41.101900,60.385100 43.794200,57.333800 45.589000,57.154400 C 48.460800,59.846600 54.204300,67.026000 54.204300,67.026000 L 69.101500,55.718500 L 59.229800,41.539200 L 37.512200,60.564600 z "
       id="path674"
       sodipodi:nodetypes="ccccccccc" />
    <path
       style="fill:#f1e36c;fill-opacity:1.0000000;fill-rule:evenodd;stroke:none;stroke-width:1.0000000pt;stroke-linecap:butt;stroke-linejoin:miter;stroke-opacity:1.0000000"
       d="M 7.9205400,38.534500 C 7.2026100,38.355000 28.897000,71.872000 29.435500,71.872000 C 29.973900,71.872000 41.460900,76.718200 41.460900,76.718200 L 40.743000,79.051400 L 28.717500,75.641300 L 5.4077600,41.250000 L 7.9205400,38.534500 z "
       id="path675"
       sodipodi:nodetypes="ccccccc" />
    <path
       style="fill:#f1e36c;fill-opacity:1.0000000;fill-rule:evenodd;stroke:none;stroke-width:1.0000000pt;stroke-linecap:butt;stroke-linejoin:miter;stroke-opacity:1.0000000"
       d="M 42.358300,60.205600 L 49.717200,69.718300 L 52.947900,67.026000 L 45.230100,57.692800 L 42.358300,60.205600 z "
       id="path681" />
    <path
       style="fill:url(#linearGradient1152);fill-opacity:1.0000000;fill-rule:evenodd;stroke:none;stroke-width:1.0000000pt;stroke-linecap:butt;stroke-linejoin:miter;stroke-opacity:1.0000000"
       d="M 59.062500,42.500000 L 45.156300,54.687500 C 46.354200,58.229100 50.364600,60.989500 52.031300,62.968700 C 54.583400,43.802000 59.948000,45.416600 65.312600,52.343700 L 59.062500,42.500000 z "
       id="path682"
       sodipodi:nodetypes="ccccc" />
    <path
       style="fill:url(#linearGradient1153);fill-opacity:1.0000000;fill-rule:evenodd;stroke:none;stroke-width:1.0000000pt;stroke-linecap:butt;stroke-linejoin:miter;stroke-opacity:1.0000000"
       d="M 41.250000,76.718700 L 40.625000,79.062500 L 28.593800,75.937500 L 29.062500,71.875000 L 41.250000,76.718700 z "
       id="path687" />
    <path
       style="fill:url(#linearGradient1154);fill-opacity:1.0000000;fill-rule:evenodd;stroke:none;stroke-width:1.0000000pt;stroke-linecap:butt;stroke-linejoin:miter;stroke-opacity:1.0000000"
       d="M 28.593800,75.781200 L 29.375000,72.187500 L 12.500000,46.562500 L 11.562500,50.000000 L 28.593800,75.781200 z "
       id="path692" />
    <path
       style="fill:#bae6ff;fill-opacity:1.0000000;fill-rule:evenodd;stroke:none;stroke-width:1.0000000pt;stroke-linecap:butt;stroke-linejoin:miter;stroke-opacity:1.0000000"
       d="M 14.843800,32.500000 L 21.093800,39.531200 L 47.812600,20.781200 L 42.343800,12.812500 L 14.843800,32.500000 z "
       id="path697"
       sodipodi:nodetypes="ccccc" />
  </g>
  <path
     style="fill:#000000;fill-opacity:0.34444442;stroke:none;stroke-width:3.8674629;stroke-linecap:round;stroke-linejoin:round;stroke-miterlimit:4.0000000;stroke-opacity:1.0000000"
     d="M 25.108059,3.2014685 C 24.598092,3.0542775 24.071180,3.3451515 23.923988,3.8551185 L 23.704953,4.6139985 C 23.490733,4.6207025 23.280233,4.6406045 23.072567,4.6803255 L 22.693217,3.9931425 C 22.436696,3.5284605 21.853444,3.3601175 21.388763,3.6166385 L 20.885407,3.8979585 C 20.420726,4.1544785 20.253566,4.7336285 20.510087,5.1983095 L 20.886520,5.8802075 C 20.740130,6.0343905 20.607038,6.1999115 20.485211,6.3776205 L 19.742740,6.1633215 C 19.232773,6.0161295 18.700575,6.3099225 18.553383,6.8198895 L 18.393547,7.3736675 C 18.246355,7.8836345 18.541332,8.4117295 19.051299,8.5589215 L 19.777363,8.7684845 C 19.783049,8.9905105 19.804838,9.2086855 19.845974,9.4237495 L 19.185220,9.7885095 C 18.720539,10.045030 18.553379,10.624179 18.809901,11.088860 L 19.091221,11.592216 C 19.347741,12.056899 19.926891,12.224058 20.391572,11.967537 L 21.041753,11.608613 C 21.203882,11.762701 21.376212,11.903705 21.564329,12.030514 L 21.359502,12.740169 C 21.212310,13.250137 21.503185,13.777049 22.013152,13.924240 L 22.566929,14.084076 C 23.076896,14.231268 23.603809,13.940393 23.751000,13.430426 L 23.957011,12.716669 C 24.181947,12.709364 24.401164,12.684689 24.618745,12.641038 L 24.977669,13.291219 C 25.234191,13.755901 25.813340,13.923060 26.278021,13.666539 L 26.784296,13.390505 C 27.248977,13.133984 27.417321,12.550732 27.160799,12.086052 L 26.798958,11.430584 C 26.948367,11.270518 27.083062,11.097508 27.206185,10.912660 L 27.932248,11.122224 C 28.442215,11.269416 28.969127,10.978541 29.116318,10.468574 L 29.276155,9.9147965 C 29.423346,9.4048305 29.133656,8.8738155 28.623690,8.7266245 L 27.881218,8.5123245 C 27.872798,8.2963415 27.844538,8.0855035 27.802585,7.8763875 L 28.484482,7.4999545 C 28.949164,7.2434335 29.116323,6.6642835 28.859802,6.1996025 L 28.583767,5.6933285 C 28.327247,5.2286465 27.748098,5.0614875 27.283416,5.3180085 L 26.590946,5.7002775 C 26.436944,5.5563825 26.273460,5.4238715 26.096451,5.3042555 L 26.315487,4.5453755 C 26.462679,4.0354085 26.171804,3.5084965 25.661837,3.3613055 L 25.108059,3.2014685 z M 24.372967,6.7798475 C 25.414626,7.0805005 26.015937,8.1697625 25.715284,9.2114205 C 25.414631,10.253079 24.325370,10.854391 23.283712,10.553738 C 22.242053,10.253085 21.640740,9.1638235 21.941394,8.1221655 C 22.242047,7.0805075 23.331309,6.4791945 24.372967,6.7798475 z "
     id="path1863" />
  <path
     style="fill:url(#linearGradient1414);fill-opacity:1.0000000;stroke:#593a28;stroke-width:0.68312031;stroke-linecap:round;stroke-linejoin:round;stroke-miterlimit:4.0000000;stroke-opacity:1.0000000"
     d="M 24.319780,2.4131905 C 23.809814,2.2659985 23.282901,2.5568735 23.135711,3.0668405 L 22.916675,3.8257215 C 22.702455,3.8324245 22.491955,3.8523255 22.284289,3.8920475 L 21.904939,3.2048635 C 21.648418,2.7401825 21.065167,2.5718395 20.600485,2.8283605 L 20.097129,3.1096795 C 19.632448,3.3662015 19.465288,3.9453505 19.721809,4.4100315 L 20.098241,5.0919295 C 19.951851,5.2461125 19.818759,5.4116335 19.696934,5.5893425 L 18.954462,5.3750425 C 18.444494,5.2278525 17.912296,5.5216445 17.765105,6.0316115 L 17.605269,6.5853885 C 17.458077,7.0953555 17.753054,7.6234515 18.263021,7.7706435 L 18.989085,7.9802065 C 18.994772,8.2022325 19.016560,8.4204075 19.057696,8.6354705 L 18.396942,9.0002305 C 17.932261,9.2567515 17.765101,9.8359015 18.021622,10.300582 L 18.302942,10.803939 C 18.559463,11.268620 19.138612,11.435780 19.603294,11.179258 L 20.253475,10.820334 C 20.415603,10.974423 20.587934,11.115427 20.776050,11.242236 L 20.571223,11.951892 C 20.424032,12.461859 20.714907,12.988771 21.224873,13.135962 L 21.778651,13.295798 C 22.288618,13.442990 22.815530,13.152115 22.962722,12.642148 L 23.168733,11.928391 C 23.393669,11.921085 23.612887,11.896411 23.830467,11.852759 L 24.189391,12.502941 C 24.445913,12.967622 25.025061,13.134782 25.489743,12.878261 L 25.996018,12.602227 C 26.460699,12.345705 26.629042,11.762455 26.372521,11.297774 L 26.010679,10.642306 C 26.160089,10.482239 26.294784,10.309230 26.417906,10.124383 L 27.143970,10.333946 C 27.653938,10.481137 28.180848,10.190263 28.328040,9.6802955 L 28.487877,9.1265185 C 28.635068,8.6165515 28.345378,8.0855375 27.835411,7.9383455 L 27.092939,7.7240475 C 27.084519,7.5080635 27.056259,7.2972255 27.014306,7.0881085 L 27.696203,6.7116765 C 28.160886,6.4551555 28.328046,5.8760065 28.071524,5.4113255 L 27.795489,4.9050505 C 27.538969,4.4403695 26.959820,4.2732095 26.495138,4.5297305 L 25.802669,4.9119985 C 25.648666,4.7681045 25.485182,4.6355935 25.308174,4.5159775 L 25.527209,3.7570975 C 25.674400,3.2471305 25.383525,2.7202185 24.873559,2.5730265 L 24.319780,2.4131905 z M 23.584689,5.9915695 C 24.626348,6.2922235 25.227660,7.3814845 24.927007,8.4231425 C 24.626353,9.4648015 23.537091,10.066113 22.495433,9.7654605 C 21.453775,9.4648075 20.852463,8.3755455 21.153116,7.3338865 C 21.453769,6.2922285 22.543031,5.6909165 23.584689,5.9915695 z "
     id="path1864" />
</svg>
