<?xml version="1.0" encoding="UTF-8" standalone="no"?>
<!-- Created with Sodipodi ("http://www.sodipodi.com/") -->
<svg
   xmlns:dc="http://purl.org/dc/elements/1.1/"
   xmlns:cc="http://web.resource.org/cc/"
   xmlns:rdf="http://www.w3.org/1999/02/22-rdf-syntax-ns#"
   xmlns:svg="http://www.w3.org/2000/svg"
   xmlns="http://www.w3.org/2000/svg"
   xmlns:sodipodi="http://sodipodi.sourceforge.net/DTD/sodipodi-0.dtd"
   xmlns:inkscape="http://www.inkscape.org/namespaces/inkscape"
   version="1.0"
   x="0"
   y="0"
   width="90"
   height="90"
   id="svg548"
   sodipodi:version="0.32"
   inkscape:version="0.45.1"
   sodipodi:docname="stock_data-undo.svg"
   sodipodi:docbase="/home/tweenk/dev/GartoonRedux/scalable/stock/data"
   inkscape:output_extension="org.inkscape.output.svg.inkscape">
  <metadata
     id="metadata14">
    <rdf:RDF>
      <cc:Work
         rdf:about="">
        <dc:format>image/svg+xml</dc:format>
        <dc:type
           rdf:resource="http://purl.org/dc/dcmitype/StillImage" />
      </cc:Work>
    </rdf:RDF>
  </metadata>
  <sodipodi:namedview
     id="base"
     pagecolor="#ffffff"
     bordercolor="#666666"
     borderopacity="1.0"
     inkscape:pageopacity="0.0"
     inkscape:pageshadow="2"
     inkscape:zoom="3.197694"
     inkscape:cx="15.423011"
     inkscape:cy="36.332829"
     inkscape:window-width="864"
     inkscape:window-height="619"
     inkscape:window-x="59"
     inkscape:window-y="38"
     inkscape:current-layer="svg548"
     width="90px"
     height="90px" />
  <defs
     id="defs550" />
  <path
     d="M 13.75818,32.570106 C 14.359361,25.617807 39.634062,2.4305111 45.361134,4.5294292 C 55.873169,6.213022 53.957736,18.211016 58.113018,19.687655 C 62.296676,20.42044 98.60197,24.390733 82.179805,63.34609 C 79.192049,70.324207 77.294323,71.633191 74.171405,73.92092 C 71.132523,75.97784 66.253293,76.098223 62.296863,71.648877 C 58.682779,66.279302 60.243288,60.985708 61.919476,56.538472 C 67.194164,43.225587 57.461244,43.065832 52.07778,40.255362 C 50.819533,44.914117 48.501045,55.908364 45.375372,55.755422 C 42.249673,55.602506 12.979947,46.456893 13.75818,32.570106 z "
     style="font-size:12px;fill:#7e0000;fill-rule:evenodd"
     id="path582" />
  <path
     d="M 18.22975,32.126133 C 18.42658,26.917409 39.844418,8.4165835 44.544641,10.233418 C 49.245098,12.050349 46.857376,18.671163 48.872741,22.348639 C 94.652412,23.295687 82.715549,74.445894 67.884969,68.51377 C 59.76275,65.363738 73.604404,52.118652 67.165911,43.142664 C 61.705077,35.311628 47.286287,33.839534 46.989951,35.765773 C 46.397268,39.618317 45.66835,51.137225 43.144147,50.892851 C 40.619907,50.648475 17.129099,37.59866 18.22975,32.126133 z "
     style="font-size:12px;fill:#ff1500;fill-rule:evenodd"
     id="path581" />
  <path
     d="M 80.123384,54.669285 C 78.331142,43.223504 75.692881,36.51251 69.45681,31.794617 C 62.594896,26.33749 50.946271,25.500319 50.594291,24.507773 C 50.242361,23.515253 59.042406,26.155935 65.839593,28.188957 C 78.583142,31.947346 81.239894,46.771288 80.123384,54.669285 z "
     style="font-size:12px;fill:#ffffff;fill-rule:evenodd"
     id="path588" />
  <path
     d="M 28.617941,27.238029 C 30.067114,25.547339 40.269286,17.023788 43.052117,16.430617 C 45.834783,15.83762 43.980831,20.974976 43.980831,20.974976 C 43.980831,20.974976 29.763315,25.320186 28.617941,27.238029 z "
     style="font-size:12px;fill:#ffffff;fill-rule:evenodd"
     id="path589" />
  <path
     d="M 18.368714,32.06128 C 17.161072,39.21853 43.487492,51.14727 43.487492,51.14727 C 45.902767,49.238675 47.351927,36.355638 49.767191,34.6856 C 54.114671,36.594208 67.640171,40.411399 68.364744,45.42147 C 69.089343,50.431544 65.466425,60.451686 64.983366,62.837425 C 64.017264,66.416069 67.157114,69.756105 70.296962,68.324665 C 73.436813,66.893212 73.919869,64.030307 73.919869,64.030307 C 73.919869,64.030307 70.538492,64.03032 70.055435,61.405985 C 69.572389,58.781663 76.576661,45.898627 72.953753,40.888553 C 69.330859,35.878482 54.839257,28.959828 45.902767,29.675542 L 42.27986,44.467161 C 42.27986,44.467161 38.656966,44.228614 18.368714,32.06128 z "
     style="font-size:12px;fill:#cb0000;fill-rule:evenodd;stroke-width:1"
     id="path615" />
  <g
     id="g3290">
    <path
       id="path576"
       style="font-size:12px;fill:none;fill-rule:evenodd;stroke-width:1"
       d="M 20.581102,49.842608 C 20.581102,49.842608 6.3049367,43.882488 6.3290577,44.069647 C 6.3531798,44.256773 8.9856196,41.063673 8.9856196,41.063673 L 12.686085,41.728196 L 20.889631,44.85629 L 20.581102,49.842608 z " />
    <g
       id="g584"
       style="font-size:12px"
       transform="matrix(-1.0304971,1.4145591,1.4145591,1.0304971,32.829567,-45.128513)">
      <path
         sodipodi:nodetypes="ccscc"
         id="path3283"
         style="fill:#0d3c07;fill-rule:evenodd;stroke-width:1pt"
         transform="matrix(1.369638,0,0,1.207417,-21.85404,-4.997635)"
         d="M 51.9665,36.0486 C 54.998029,36.802602 64.797446,33.21315 65.44853,31.88003 C 65.863911,26.557231 55.6307,20.7151 54.0642,20.1455 C 52.4977,19.5759 51.1121,20.0634 50.6849,21.0602 C 50.504639,22.368231 50.844808,32.266522 51.9665,36.0486 z " />
      <path
         sodipodi:nodetypes="ccccc"
         id="path3285"
         style="fill:#2aaf18;fill-rule:evenodd;stroke-width:1pt"
         d="M 51.5506,35.4589 C 54.349102,35.350952 60.572329,33.436358 64.086734,31.841275 C 64.371534,29.705175 60.955464,29.668153 61.382664,28.244153 C 57.018216,23.149473 50.6962,21.3608 50.269,22.3576 C 50.157442,23.584343 51.161385,32.982554 51.5506,35.4589 z " />
      <path
         sodipodi:nodetypes="cccccc"
         id="path583"
         style="fill:#208c11;fill-rule:evenodd;stroke-width:1pt"
         d="M 61.9462,28.3386 C 63.5126,29.6202 64.719039,31.317014 63.722239,32.171514 C 61.618886,33.450484 53.27755,36.033719 51.693,35.7437 C 50.5538,35.174 60.0949,33.4652 60.2373,31.0443 C 60.3797,28.6234 57.458082,27.995128 58.312482,26.571028 C 59.166882,25.147028 61.519,27.769 61.9462,28.3386 z " />
    </g>
    <path
       id="path3288"
       style="font-size:12px;fill:#ffffff;fill-rule:evenodd;stroke-width:1pt"
       d="M 25.495345,63.296721 C 25.495345,63.296721 17.256368,55.136271 15.204525,54.56654 C 13.152811,53.996927 14.303961,57.918985 14.303961,57.918985 C 14.303961,57.918985 24.726986,61.81195 25.495345,63.296721 z " />
  </g>
</svg>
