<?xml version="1.0" encoding="UTF-8" standalone="no"?>
<!-- Created with Sodipodi ("http://www.sodipodi.com/") -->
<svg
   xmlns:dc="http://purl.org/dc/elements/1.1/"
   xmlns:cc="http://web.resource.org/cc/"
   xmlns:rdf="http://www.w3.org/1999/02/22-rdf-syntax-ns#"
   xmlns:svg="http://www.w3.org/2000/svg"
   xmlns="http://www.w3.org/2000/svg"
   xmlns:sodipodi="http://sodipodi.sourceforge.net/DTD/sodipodi-0.dtd"
   xmlns:inkscape="http://www.inkscape.org/namespaces/inkscape"
   version="1.0"
   x="0.00000000"
   y="0.00000000"
   width="90"
   height="90"
   id="svg548"
   sodipodi:version="0.32"
   sodipodi:docname="stock_data-delete-record.svg"
   sodipodi:docbase="/home/tweenk/dev/GartoonRedux/scalable/stock/data"
   inkscape:version="0.45.1"
   inkscape:output_extension="org.inkscape.output.svg.inkscape">
  <metadata
     id="metadata12">
    <rdf:RDF>
      <cc:Work
         rdf:about="">
        <dc:format>image/svg+xml</dc:format>
        <dc:type
           rdf:resource="http://purl.org/dc/dcmitype/StillImage" />
      </cc:Work>
    </rdf:RDF>
  </metadata>
  <sodipodi:namedview
     id="base"
     inkscape:zoom="2.6888889"
     inkscape:cx="29.114441"
     inkscape:cy="43.704827"
     inkscape:window-width="1014"
     inkscape:window-height="696"
     inkscape:window-x="0"
     inkscape:window-y="1"
     inkscape:current-layer="svg548"
     width="90px"
     height="90px" />
  <defs
     id="defs550" />
  <g
     id="g3544"
     transform="matrix(1.0357187,0,0,1.0357187,-2.3988402,-5.4747922)">
    <path
       sodipodi:nodetypes="csscssscssscssscs"
       id="path584"
       d="M 36.574339,8.2826382 C 34.234579,5.8895456 28.511258,9.5936448 26.112274,11.927362 C 23.713288,14.26108 19.849704,19.883049 22.180429,22.284941 L 40.101776,40.753495 L 21.031844,59.394976 C 18.638533,61.73451 22.73013,67.081311 25.063848,69.480299 C 27.397566,71.879283 32.644595,76.132261 35.034145,73.788885 L 54.143385,55.048919 L 71.533834,73.018634 C 73.861327,75.423654 80.601562,72.74037 83.000549,70.406653 C 85.399531,68.072938 88.242681,61.433442 85.927743,59.016332 L 68.690384,41.01819 L 87.187861,23.054087 C 89.5888,20.722381 86.005949,14.865426 83.672231,12.46644 C 81.338513,10.067454 75.594246,6.3364732 73.185559,8.6601757 L 54.534992,26.652707 L 36.574339,8.2826382 z "
       style="font-size:12px;fill:#2c0000;fill-opacity:1;fill-rule:evenodd;stroke:none;stroke-width:0.95914001pt;stroke-opacity:1" />
    <path
       sodipodi:nodetypes="csscssscssscssscs"
       id="path589"
       d="M 35.409651,11.928219 C 33.85826,10.338558 29.964888,12.702207 28.372736,14.251042 C 26.780584,15.799876 24.309173,19.627845 25.856742,21.221225 L 44.523103,40.440163 L 23.913401,60.549127 C 22.323565,62.100336 24.816483,65.868308 26.365319,67.46046 C 27.914153,69.05261 31.618109,71.654818 33.206411,70.102035 L 53.842198,49.927707 L 73.075265,69.760329 C 74.621621,71.354891 78.896775,69.373621 80.488924,67.824787 C 82.081076,66.275953 84.169542,62.066702 82.628172,60.467323 L 63.496706,40.615832 L 83.165536,21.502119 C 84.7585,19.954115 82.391547,16.057352 80.842713,14.465201 C 79.293877,12.87305 75.468708,10.404526 73.872531,11.949208 L 54.102101,31.081792 L 35.409651,11.928219 z "
       style="font-size:12px;fill:#ff1500;fill-opacity:1;fill-rule:evenodd;stroke:none;stroke-width:0.83871002pt" />
    <path
       sodipodi:nodetypes="cssscsssss"
       id="path592"
       d="M 50.867287,44.644499 L 30.537099,64.703434 C 29.730353,65.499416 29.316187,66.289511 30.10644,67.101868 C 30.896695,67.914224 33.090886,68.953929 33.897232,68.157542 L 54.240728,48.065253 L 73.845736,68.508302 C 74.630178,69.326275 76.97742,68.476917 77.789777,67.686659 C 78.602129,66.896407 78.083001,65.967365 77.299842,65.148173 L 57.746671,44.695496 C 55.516657,42.362893 53.164446,42.37799 50.867287,44.644499 z "
       style="font-size:12px;fill:#cb0000;fill-opacity:1;fill-rule:evenodd;stroke:none;stroke-width:0.83871002pt" />
    <path
       sodipodi:nodetypes="cssscsssss"
       id="path594"
       d="M 57.65139,38.030599 L 77.203506,18.979824 C 78.015226,18.188916 78.298836,17.264653 77.508582,16.452298 C 76.718331,15.639943 74.529091,14.605284 73.717795,15.396624 L 54.152368,34.48075 L 35.677591,15.19954 C 34.893506,14.381229 32.545907,15.230927 31.733551,16.021181 C 30.921197,16.811434 31.440756,17.740064 32.223488,18.559671 L 50.646421,37.850511 C 52.875205,40.184287 55.340064,40.282657 57.65139,38.030599 z "
       style="font-size:12px;fill:#ffffff;fill-opacity:1;fill-rule:evenodd;stroke:none;stroke-width:0.83871002pt" />
  </g>
  <g
     id="g3290"
     transform="matrix(1.2480992,0,0,1.2480992,-2.9295371,-17.625878)">
    <path
       id="path576"
       style="font-size:12px;fill:none;fill-rule:evenodd;stroke-width:1"
       d="M 20.581102,49.842608 C 20.581102,49.842608 6.3049367,43.882488 6.3290577,44.069647 C 6.3531798,44.256773 8.9856196,41.063673 8.9856196,41.063673 L 12.686085,41.728196 L 20.889631,44.85629 L 20.581102,49.842608 z " />
    <g
       id="g584"
       style="font-size:12px"
       transform="matrix(-1.0304971,1.4145591,1.4145591,1.0304971,32.829567,-45.128513)">
      <path
         sodipodi:nodetypes="ccscc"
         id="path3283"
         style="fill:#0d3c07;fill-rule:evenodd;stroke-width:1pt"
         transform="matrix(1.369638,0,0,1.207417,-21.85404,-4.997635)"
         d="M 51.9665,36.0486 C 54.998029,36.802602 64.797446,33.21315 65.44853,31.88003 C 65.863911,26.557231 55.6307,20.7151 54.0642,20.1455 C 52.4977,19.5759 51.1121,20.0634 50.6849,21.0602 C 50.504639,22.368231 50.844808,32.266522 51.9665,36.0486 z " />
      <path
         sodipodi:nodetypes="ccccc"
         id="path3285"
         style="fill:#2aaf18;fill-rule:evenodd;stroke-width:1pt"
         d="M 51.5506,35.4589 C 54.349102,35.350952 60.572329,33.436358 64.086734,31.841275 C 64.371534,29.705175 60.955464,29.668153 61.382664,28.244153 C 57.018216,23.149473 50.6962,21.3608 50.269,22.3576 C 50.157442,23.584343 51.161385,32.982554 51.5506,35.4589 z " />
      <path
         sodipodi:nodetypes="cccccc"
         id="path583"
         style="fill:#208c11;fill-rule:evenodd;stroke-width:1pt"
         d="M 61.9462,28.3386 C 63.5126,29.6202 64.719039,31.317014 63.722239,32.171514 C 61.618886,33.450484 53.27755,36.033719 51.693,35.7437 C 50.5538,35.174 60.0949,33.4652 60.2373,31.0443 C 60.3797,28.6234 57.458082,27.995128 58.312482,26.571028 C 59.166882,25.147028 61.519,27.769 61.9462,28.3386 z " />
    </g>
    <path
       id="path3288"
       style="font-size:12px;fill:#ffffff;fill-rule:evenodd;stroke-width:1pt"
       d="M 25.495345,63.296721 C 25.495345,63.296721 17.256368,55.136271 15.204525,54.56654 C 13.152811,53.996927 14.303961,57.918985 14.303961,57.918985 C 14.303961,57.918985 24.726986,61.81195 25.495345,63.296721 z " />
  </g>
</svg>
