/* XPM */
static char *acroread[] = {
/* columns rows colors chars-per-pixel */
"32 32 161 2",
"   c #000000",
".  c #090404",
"X  c #0F0F0F",
"o  c #160504",
"O  c #140D0C",
"+  c #1B0605",
"@  c #1B0807",
"#  c #1B0F0E",
"$  c #1A1717",
"%  c #1A1A1A",
"&  c #3D302F",
"*  c #373838",
"=  c #3D3D3E",
"-  c #464646",
";  c #474848",
":  c #4C4B4B",
">  c #5B5B5B",
",  c #801A13",
"<  c #801F19",
"1  c #902D26",
"2  c #A51D13",
"3  c #A52016",
"4  c #A4241B",
"5  c #AE261C",
"6  c #B72319",
"7  c #B9261C",
"8  c #BC281E",
"9  c #A73128",
"0  c #B92D24",
"q  c #BA342B",
"w  c #BA3D34",
"e  c #866C6B",
"r  c #877575",
"t  c #A55953",
"y  c #BB4B44",
"u  c #BC524B",
"i  c #BD5D57",
"p  c #BD5F5A",
"a  c #BD645E",
"s  c #BE7570",
"d  c #BF7A77",
"f  c #C3271C",
"g  c #C5291E",
"h  c #CD2A1F",
"j  c #D12B1F",
"k  c #DC2A1D",
"l  c #CD2D22",
"z  c #C83F36",
"x  c #D22D21",
"c  c #DB2D21",
"v  c #D2392E",
"b  c #EC2D1F",
"n  c #E22F22",
"m  c #EE2F20",
"M  c #E43022",
"N  c #E33529",
"B  c #ED3123",
"V  c #EE372A",
"C  c #EE3A2C",
"Z  c #E73D30",
"A  c #EF3E31",
"S  c #F02F21",
"D  c #F03224",
"F  c #F23B2E",
"G  c #CA453C",
"H  c #E44337",
"J  c #EF4336",
"K  c #EF473A",
"L  c #EF4A3D",
"P  c #F0493D",
"I  c #CC5951",
"U  c #CD625B",
"Y  c #C66862",
"T  c #CF6D65",
"R  c #C07D79",
"E  c #EF4D41",
"W  c #E45247",
"Q  c #E0554C",
"!  c #EF5C51",
"~  c #F04D41",
"^  c #F0564B",
"/  c #F05D52",
"(  c #F16055",
")  c #F26358",
"_  c #EF6A60",
"`  c #E8766D",
"'  c #F37167",
"]  c #F3746A",
"[  c #F4786E",
"{  c #EE8078",
"}  c #F4847B",
"|  c #F88178",
" . c #8E9294",
".. c #9B9B9C",
"X. c #A78B89",
"o. c #A3A5A6",
"O. c #A9A2A2",
"+. c #AAAAAA",
"@. c #B3B3B3",
"#. c #BEBEBE",
"$. c #C08986",
"%. c #C18D8B",
"&. c #C29694",
"*. c #C29D9C",
"=. c #C99E9C",
"-. c #D28680",
";. c #D78A85",
":. c #D39D9A",
">. c #C3A3A3",
",. c #C5AEAE",
"<. c #C4B0B0",
"1. c #C5B7B8",
"2. c #C5BEBF",
"3. c #D8B6B4",
"4. c #E69B96",
"5. c #F58C84",
"6. c #F08F88",
"7. c #F59089",
"8. c #F69790",
"9. c #F6A29B",
"0. c #EAADA9",
"q. c #F9ACA7",
"w. c #F8AEA9",
"e. c #F8B3AE",
"r. c #F3BAB6",
"t. c #FBBAB5",
"y. c #C4BFC1",
"u. c #C2C3C5",
"i. c #C5C7C9",
"p. c #C6C9CB",
"a. c #CBCCCD",
"s. c #CDCFD1",
"d. c #CED1D3",
"f. c #DFC7C6",
"g. c #D1D3D4",
"h. c #D6D7D8",
"j. c #D6D8D9",
"k. c #DDDDDD",
"l. c #DDE0E2",
"z. c #E5CCCB",
"x. c #E4D9D9",
"c. c #EBD4D3",
"v. c #EDDBD9",
"b. c #F5CCCA",
"n. c #FAC6C2",
"m. c #FAC9C5",
"M. c #FBCECB",
"N. c #FCD1CE",
"B. c #FBD4D1",
"V. c #FCDDDB",
"C. c #E2E2E3",
"Z. c #E7E8E8",
"A. c #E9EBEB",
"S. c #EFEFF0",
"D. c #FCE6E4",
"F. c #FBECEB",
"G. c #F4F4F4",
"H. c #F7F8F8",
"J. c #FCF4F3",
"K. c #FEFEFE",
"L. c None",
/* pixels */
"L.L.L.L.L.L.L.L.L.L.L.L.L.L.L.L.L.L.L.L.L.L.L.L.L.L.L.L.L.L.L.L.",
"L.L.L.L.L.L.L.L.L.L.L.L.L.L.L.L.L.L.L.L.L.L.L.L.L.L.L.L.L.L.L.L.",
"L.L.L.L.L.L.L.L.L.L.L.L.L.L.L.L.L.L.L.L.L.L.L.L.L.L.L.L.L.L.L.L.",
"L.L.L.L.L.L.L.L.L.L.L.L.L.L.L.L.L.L.L.L.L.L.L.L.L.L.L.L.L.L.L.L.",
"L.L.L.k.G.H.K.H.K.K.H.K.K.K.H.K.K.K.F.D.D.D.D.D.F.H.H.A.L.L.L.L.",
"L.L.L.> k.H.H.H.H.H.H.H.H.H.H.H.H.b.! K ~ L L K ) x.g.o.* L.L.L.",
"L.L.: ..K.K.K.K.K.K.K.K.K.K.K.K.M.^ C K B S B b U p.i.u.= L.L.L.",
"L.L.: +.K.K.K.K.K.K.K.K.K.K.J.e.L A } P B c h 6 d a.i.u.= L.L.L.",
"L.L.: +.K.K.K.K.K.K.K.K.K.D.} V J e.{ c l 7 7 7 %.p.i.u.= L.L.L.",
"L.L.: +.K.K.K.K.K.K.K.H.e.^ b ~ r.z.G 7 7 7 7 7 &.p.p.u.= L.L.L.",
"L.L.: +.K.K.K.K.K.K.B.[ C b Q 3.d.d 7 7 7 7 7 0 >.p.p.u.= L.L.L.",
"L.L.: +.K.K.K.K.V.6.H k l Y 1.p.2.y 7 7 7 7 7 0 >.p.i.u.= L.L.L.",
"L.L.: ..S.C.f.;.G f 6 w $.u.p.p.O.0 8 8 7 7 7 q >.p.i.u.= L.L.L.",
"L.L.: r &.a q 6 6 0 a ,.p.i.i.a.R f 7 6 7 7 7 0 >.p.i.u.= L.L.L.",
"L.L.: , 8 6 6 0 i *.i.p.i.i.i.u.u 6 7 7 7 7 7 0 *.p.i.u.= L.L.L.",
"L.L.: , q y R =.u.p.i.i.i.i.p.<.q 7 7 7 7 7 7 0 &.p.s.h.- L.L.L.",
"L.L.: e ,.2.p.p.i.i.i.i.i.i.p.&.0 7 7 7 7 7 7 0 :.A.H.G.- L.L.L.",
"L.L.:  .d.p.i.i.i.i.i.i.i.i.p.s 6 7 7 8 f l c c 9.K.K.G.- L.L.L.",
"L.L.: X.G.A.C.k.h.g.g.d.d.d.g.U h c c M B B B m } K.K.j.= L.L.L.",
"L.L.: 9 t.K.K.K.K.H.H.H.H.H.J./ m B B B B B B m ) J.C.u.= L.L.L.",
"L.L.: 2 P m.K.K.K.K.K.K.K.K.V.K B B B B B B B B E c.s.u.= L.L.L.",
"L.L.: 2 D / F.K.K.K.K.K.K.K.m.C B B B B B B B B N =.p.j.- L.L.L.",
"L.L.: t F B 5.K.K.K.K.K.K.K.t.V B B B B B B B m f s l.G.- L.L.L.",
"L.L.: O.| m C n.K.K.K.K.K.K.w.S B B B B B B B l 6 I F.H.; L.L.L.",
"L.L.: +.V.K m ' J.K.K.K.K.K.9.m B B B B B S c 8 f Z B.H.; L.L.L.",
"L.L.: +.K.5.m A n.K.K.K.K.K.7.m B B B B B n 8 8 c B 8.H.- L.L.L.",
"L.L.: +.K.B.J m | K.H.G.G.G.{ b B B B B B g 7 c B B ^ v.; L.L.L.",
"L.L.: +.K.H.] b ~ c.A.C.k.k.` B B B B B x 7 x B B B B 4.; L.L.L.",
"L.L.; ..K.K.w.B N 0.l.l.l.x.` b B B B M 8 h M B B B S W & L.L.L.",
"L.L.- = 2.k.3.v l { d.d.a.a.T j x x l 7 4 g x x x x x 1 O @.L.L.",
"L.L.;   X % $ @ @ # % % % % # @ @ @ o o o @ + + @ @ # . . @.L.L.",
"L.L.;                                                   . L.L.L."
};
