<?xml version="1.0" encoding="UTF-8" standalone="no"?>
<!-- Created with Sodipodi ("http://www.sodipodi.com/") -->
<svg
   xmlns:dc="http://purl.org/dc/elements/1.1/"
   xmlns:cc="http://creativecommons.org/ns#"
   xmlns:rdf="http://www.w3.org/1999/02/22-rdf-syntax-ns#"
   xmlns:svg="http://www.w3.org/2000/svg"
   xmlns="http://www.w3.org/2000/svg"
   xmlns:xlink="http://www.w3.org/1999/xlink"
   xmlns:sodipodi="http://sodipodi.sourceforge.net/DTD/sodipodi-0.dtd"
   xmlns:inkscape="http://www.inkscape.org/namespaces/inkscape"
   id="svg604"
   sodipodi:version="0.32"
   width="72pt"
   height="72pt"
   sodipodi:docbase="/home/tweenk/GNUtoon/apps"
   sodipodi:docname="stock_mail-open-multiple.svg"
   inkscape:version="0.45+devel"
   inkscape:output_extension="org.inkscape.output.svg.inkscape">
  <metadata
     id="metadata45">
    <rdf:RDF>
      <cc:Work
         rdf:about="">
        <dc:format>image/svg+xml</dc:format>
        <dc:type
           rdf:resource="http://purl.org/dc/dcmitype/StillImage" />
      </cc:Work>
    </rdf:RDF>
  </metadata>
  <defs
     id="defs606">
    <inkscape:perspective
       sodipodi:type="inkscape:persp3d"
       inkscape:vp_x="-50 : 600 : 1"
       inkscape:vp_y="0 : 1000 : 0"
       inkscape:vp_z="700 : 600 : 1"
       inkscape:persp3d-origin="300 : 400 : 1"
       id="perspective58" />
    <linearGradient
       id="linearGradient860">
      <stop
         style="stop-color:#92b5d7;stop-opacity:1;"
         offset="0.000000"
         id="stop861" />
      <stop
         style="stop-color:#ffffff;stop-opacity:1;"
         offset="1.000000"
         id="stop862" />
    </linearGradient>
    <linearGradient
       id="linearGradient4147">
      <stop
         style="stop-color:#ffffff;stop-opacity:1;"
         offset="0"
         id="stop4149" />
      <stop
         style="stop-color:#f1e36c;stop-opacity:1;"
         offset="1"
         id="stop4151" />
    </linearGradient>
    <linearGradient
       id="linearGradient867">
      <stop
         style="stop-color:#92b5d7;stop-opacity:0.780392;"
         offset="0.000000"
         id="stop868" />
      <stop
         style="stop-color:#ffffff;stop-opacity:0.321569;"
         offset="1.000000"
         id="stop869" />
    </linearGradient>
    <linearGradient
       id="linearGradient3168">
      <stop
         style="stop-color:#ffffff;stop-opacity:1;"
         offset="0"
         id="stop3170" />
      <stop
         style="stop-color:#3d4e67;stop-opacity:1;"
         offset="1"
         id="stop3172" />
    </linearGradient>
    <linearGradient
       id="linearGradient612">
      <stop
         style="stop-color:#7fa8e3;stop-opacity:0.741176;"
         offset="0.000000"
         id="stop613" />
      <stop
         style="stop-color:#ffffff;stop-opacity:0;"
         offset="1.000000"
         id="stop614" />
    </linearGradient>
    <linearGradient
       xlink:href="#linearGradient612"
       id="linearGradient615"
       x1="50.6438866"
       y1="5.36792946"
       x2="35.7520943"
       y2="68.0443573"
       gradientUnits="userSpaceOnUse"
       spreadMethod="pad" />
    <linearGradient
       inkscape:collect="always"
       xlink:href="#linearGradient860"
       id="linearGradient2494"
       gradientUnits="userSpaceOnUse"
       gradientTransform="matrix(0.9464771,0,0,0.8803685,-0.3090972,3.1149691)"
       spreadMethod="reflect"
       x1="37.1263046"
       y1="43.8387909"
       x2="68.4099197"
       y2="44.9346657" />
    <linearGradient
       inkscape:collect="always"
       xlink:href="#linearGradient4147"
       id="linearGradient2496"
       gradientUnits="userSpaceOnUse"
       gradientTransform="matrix(3.0823888,0,0,3.0823888,-2.6097152,-0.7057294)"
       x1="16.225368"
       y1="3.0265951"
       x2="13.422497"
       y2="11.753867" />
    <linearGradient
       inkscape:collect="always"
       xlink:href="#linearGradient867"
       id="linearGradient2498"
       gradientUnits="userSpaceOnUse"
       gradientTransform="matrix(1.1629791,0,0,0.5027583,4.4267901,12.530058)"
       spreadMethod="pad"
       x1="28.1977272"
       y1="108.285172"
       x2="33.4352608"
       y2="93.4385986" />
    <linearGradient
       inkscape:collect="always"
       xlink:href="#linearGradient3168"
       id="linearGradient2500"
       gradientUnits="userSpaceOnUse"
       gradientTransform="matrix(3.0823888,0,0,3.0823888,-2.6097152,-0.7057294)"
       x1="16.004852"
       y1="8.5311699"
       x2="10.561574"
       y2="22.058443" />
  </defs>
  <sodipodi:namedview
     id="base"
     inkscape:zoom="2.2611111"
     inkscape:cx="69.274386"
     inkscape:cy="39.740387"
     inkscape:window-width="795"
     inkscape:window-height="708"
     inkscape:window-x="114"
     inkscape:window-y="25"
     inkscape:current-layer="svg604"
     showgrid="false" />
  <use
     x="0"
     y="0"
     xlink:href="#g2442"
     id="use2492"
     transform="translate(19.90172,-15.479115)"
     width="90"
     height="90" />
  <g
     id="g2442"
     transform="matrix(0.7836675,0,0,0.7836675,1.1057764,18.927864)">
    <path
       style="font-size:12px;fill:#000000;fill-opacity:0.3;fill-rule:evenodd;stroke-width:1pt"
       d="M 9.9254039,18.331454 C 9.5026049,18.331454 7.8994809,62.303272 11.074834,65.705489 C 19.958129,76.084016 75.248936,89.325465 76.609925,87.28403 C 77.9708,85.242717 87.662323,45.003395 84.03318,42.281646 C 73.216442,28.778347 11.286287,14.929143 9.9254039,18.331454 z"
       id="path914"
       sodipodi:nodetypes="ccccc" />
    <path
       style="font-size:12px;fill:#3d4e67;fill-rule:evenodd;stroke-width:1pt"
       d="M 5.8912487,11.675095 C 5.4684498,11.675095 3.8653239,55.646913 7.0406769,59.049132 C 15.923974,69.427659 71.214779,82.669108 72.575765,80.627672 C 73.936645,78.58636 83.628185,38.347069 79.999011,35.625288 C 79.259639,33.861853 77.762799,31.478735 73.777557,30.542768 C 68.710853,19.607007 60.30025,6.372724 48.577728,2.0631937 C 31.321927,2.31849 19.523797,7.3585374 13.091496,11.045142 C 11.543684,11.932253 8.8617559,7.94768 5.8912487,11.675095 z"
       id="path859"
       sodipodi:nodetypes="cccccccc" />
    <path
       style="font-size:12px;fill:url(#linearGradient2494);stroke-width:1pt"
       d="M 9.9779819,15.47836 C 9.9779819,15.47836 8.3643349,54.206237 11.188204,57.231786 C 14.01212,60.257428 68.069784,78.612869 69.280099,76.797464 C 70.490322,74.982123 78.356961,38.069591 75.129573,35.649146 C 71.902281,33.228608 11.188204,12.452708 9.9779819,15.47836 z"
       id="path856" />
    <path
       style="font-size:12px;fill:#3d4e67;fill-rule:evenodd;stroke-width:1pt"
       d="M 12.39852,57.836982 C 11.793314,58.038725 24.904309,54.609598 29.342007,51.583955 C 29.745383,51.382306 38.822242,51.987441 41.646153,54.81134 C 44.469979,57.63527 62.01858,72.561677 67.666406,76.797464 C 58.387907,76.19233 19.25648,69.737655 12.39852,57.836982 z"
       id="path855"
       sodipodi:nodetypes="ccccc" />
    <path
       style="font-size:12px;fill:#ffffff;fill-rule:evenodd;stroke-width:1pt"
       d="M 15.071705,58.369588 C 15.240617,58.369588 26.054444,56.848861 29.771815,54.314336 C 30.109715,54.145421 37.206328,53.976414 39.571863,56.341962 C 41.937322,58.707511 60.016751,74.083483 61.368507,74.252399 C 62.720264,74.421375 19.295815,65.128219 15.071705,58.369588 z"
       id="path858"
       sodipodi:nodetypes="ccccc" />
    <path
       style="font-size:12px;fill:#3d4e67;fill-rule:evenodd;stroke-width:1pt"
       d="M 74.322817,35.447403 C 73.263982,37.29095 28.572278,49.00224 37.437115,53.902683 C 34.335232,54.963149 33.966199,53.769246 33.241731,53.130021 C 37.009688,49.634623 8.7002129,17.226971 10.381451,14.469778 C 12.600253,12.654444 60.316466,20.374583 74.322817,35.447403 z"
       id="path854"
       sodipodi:nodetypes="ccccc" />
    <path
       style="font-size:12px;fill:url(#linearGradient2496);fill-opacity:1;fill-rule:evenodd;stroke-width:1pt"
       d="M 71.448168,35.158306 C 69.632778,35.965183 38.62466,45.112419 35.499136,49.198464 C 34.866004,45.016587 12.725931,16.379562 13.253827,15.851764 C 14.349178,14.955572 29.180334,5.3931534 48.21133,5.5929971 C 60.644216,12.006225 68.43465,27.374072 71.448168,35.158306 z"
       id="path857"
       sodipodi:nodetypes="ccccc" />
    <path
       style="font-size:12px;fill:url(#linearGradient2498);fill-rule:evenodd;stroke-width:1pt"
       d="M 15.071705,58.369588 C 15.240617,58.369588 26.054444,56.848861 29.771815,54.314336 C 30.109715,54.145421 37.206328,53.976414 39.571863,56.341962 C 41.937322,58.707511 60.016751,74.083483 61.368507,74.252399 C 62.720264,74.421375 19.295815,65.128219 15.071705,58.369588 z"
       id="path870"
       sodipodi:nodetypes="ccccc" />
    <path
       id="path4285"
       d="M 51.621062,15.167874 C 46.115405,15.434636 28.473392,17.819007 26.287679,18.153938 C 23.234825,18.538806 21.488825,19.627597 20.700849,21.140002 C 20.334653,21.601282 20.237459,23.617874 20.315551,26.341533 C 26.719368,35.214622 35.141269,46.859824 35.534846,49.459451 C 37.475562,46.922305 49.742439,42.576876 59.519684,39.345362 C 58.076873,31.134401 56.160565,19.302189 56.244646,18.442912 C 56.124116,16.114291 54.83776,15.632206 53.162257,15.167874 C 52.952825,15.109836 52.407587,15.129763 51.621062,15.167874 z"
       style="font-size:12px;fill:#3d4e67;fill-opacity:1;fill-rule:evenodd;stroke-width:1pt" />
    <path
       id="path4283"
       d="M 51.717387,17.864963 C 50.414751,17.804981 38.003753,18.798928 31.970834,19.406158 C 26.66202,19.880754 24.406334,20.976729 23.975887,21.814275 C 23.317382,23.031264 23.220514,26.462826 23.39794,30.579818 C 29.148343,38.590793 35.205514,47.284177 35.534846,49.459451 C 37.305209,47.145008 47.725669,43.338874 57.015243,40.212283 C 55.811648,33.168223 53.654589,22.024894 53.740205,20.176756 C 53.456875,17.840614 53.019961,17.924947 51.717387,17.864963 z"
       style="font-size:12px;fill:url(#linearGradient2500);fill-opacity:1;fill-rule:evenodd;stroke-width:1pt" />
  </g>
</svg>
