<?xml version="1.0" encoding="UTF-8" standalone="no"?>
<!-- Created with Sodipodi ("http://www.sodipodi.com/") -->
<svg
   xmlns:dc="http://purl.org/dc/elements/1.1/"
   xmlns:cc="http://web.resource.org/cc/"
   xmlns:rdf="http://www.w3.org/1999/02/22-rdf-syntax-ns#"
   xmlns:svg="http://www.w3.org/2000/svg"
   xmlns="http://www.w3.org/2000/svg"
   xmlns:xlink="http://www.w3.org/1999/xlink"
   xmlns:sodipodi="http://sodipodi.sourceforge.net/DTD/sodipodi-0.dtd"
   xmlns:inkscape="http://www.inkscape.org/namespaces/inkscape"
   id="svg604"
   sodipodi:version="0.32"
   width="90"
   height="90"
   sodipodi:docbase="/home/tweenk/GNUtoon/stock/generic"
   sodipodi:docname="stock_web-calendar.svg"
   inkscape:version="0.45.1"
   inkscape:output_extension="org.inkscape.output.svg.inkscape"
   version="1.0">
  <metadata
     id="metadata39">
    <rdf:RDF>
      <cc:Work
         rdf:about="">
        <dc:format>image/svg+xml</dc:format>
        <dc:type
           rdf:resource="http://purl.org/dc/dcmitype/StillImage" />
        <cc:license
           rdf:resource="http://creativecommons.org/licenses/GPL/2.0/" />
      </cc:Work>
      <cc:License
         rdf:about="http://creativecommons.org/licenses/GPL/2.0/">
        <cc:permits
           rdf:resource="http://web.resource.org/cc/Reproduction" />
        <cc:permits
           rdf:resource="http://web.resource.org/cc/Distribution" />
        <cc:requires
           rdf:resource="http://web.resource.org/cc/Notice" />
        <cc:permits
           rdf:resource="http://web.resource.org/cc/DerivativeWorks" />
        <cc:requires
           rdf:resource="http://web.resource.org/cc/ShareAlike" />
        <cc:requires
           rdf:resource="http://web.resource.org/cc/SourceCode" />
      </cc:License>
    </rdf:RDF>
  </metadata>
  <defs
     id="defs606">
    <linearGradient
       id="linearGradient584">
      <stop
         style="stop-color:#ffffff;stop-opacity:0;"
         offset="0.000000"
         id="stop585" />
      <stop
         style="stop-color:#ffffff;stop-opacity:1;"
         offset="1.000000"
         id="stop586" />
    </linearGradient>
    <linearGradient
       xlink:href="#linearGradient584"
       id="linearGradient587"
       x1="28.252045"
       y1="32.868805"
       x2="68.360306"
       y2="21.479431"
       gradientUnits="userSpaceOnUse"
       spreadMethod="pad"
       gradientTransform="matrix(0.3459425,-0.246336,0.3165489,0.3548486,-60.995392,-9.3480062)" />
    <linearGradient
       id="linearGradient5153">
      <stop
         style="stop-color:#ffffff;stop-opacity:1"
         offset="0"
         id="stop5155" />
      <stop
         style="stop-color:#ffe6ba;stop-opacity:1"
         offset="1"
         id="stop5157" />
    </linearGradient>
    <linearGradient
       id="linearGradient16960">
      <stop
         style="stop-color:#ed0000;stop-opacity:1;"
         offset="0"
         id="stop16962" />
      <stop
         style="stop-color:#b01911;stop-opacity:0.94117647;"
         offset="1"
         id="stop16964" />
    </linearGradient>
    <linearGradient
       id="linearGradient15975">
      <stop
         style="stop-color:#ff933d;stop-opacity:1;"
         offset="0"
         id="stop15977" />
      <stop
         style="stop-color:#f1e36c;stop-opacity:1;"
         offset="1"
         id="stop15979" />
    </linearGradient>
    <linearGradient
       inkscape:collect="always"
       xlink:href="#linearGradient16960"
       id="linearGradient4164"
       gradientUnits="userSpaceOnUse"
       gradientTransform="matrix(0.5962052,0,0,0.5962052,11.269384,11.828175)"
       x1="13.131854"
       y1="17.551172"
       x2="9.6861563"
       y2="22.956131" />
    <linearGradient
       inkscape:collect="always"
       xlink:href="#linearGradient15975"
       id="linearGradient4166"
       gradientUnits="userSpaceOnUse"
       gradientTransform="matrix(0.5962052,0,0,0.5962052,11.269384,11.828175)"
       x1="7.5014257"
       y1="9.9151182"
       x2="9.7260151"
       y2="3.3200767" />
    <linearGradient
       inkscape:collect="always"
       xlink:href="#linearGradient15975"
       id="linearGradient4168"
       gradientUnits="userSpaceOnUse"
       gradientTransform="matrix(0.5962052,0,0,0.5962052,11.269384,11.828175)"
       x1="23.714876"
       y1="8.4751806"
       x2="21.772354"
       y2="2.5743539" />
    <linearGradient
       inkscape:collect="always"
       xlink:href="#linearGradient5153"
       id="linearGradient2351"
       gradientUnits="userSpaceOnUse"
       gradientTransform="matrix(1.0486035,0,0,1.0713875,-0.206325,-0.8073751)"
       x1="11.290334"
       y1="8.9974871"
       x2="22.450979"
       y2="17.693146" />
    <linearGradient
       inkscape:collect="always"
       xlink:href="#linearGradient5153"
       id="linearGradient2353"
       gradientUnits="userSpaceOnUse"
       gradientTransform="matrix(1.0713875,0,0,1.0713875,-0.8137291,-0.8073751)"
       x1="6.2419214"
       y1="4.2451115"
       x2="7.2584114"
       y2="22.329433" />
    <linearGradient
       inkscape:collect="always"
       xlink:href="#linearGradient584"
       id="linearGradient2355"
       gradientUnits="userSpaceOnUse"
       gradientTransform="matrix(0.3459425,-0.246336,0.3165489,0.3548486,-60.995392,-9.3480062)"
       spreadMethod="pad"
       x1="28.252045"
       y1="32.868805"
       x2="68.360306"
       y2="21.479431" />
  </defs>
  <sodipodi:namedview
     id="base"
     inkscape:zoom="3.5649968"
     inkscape:cx="-4.1911148"
     inkscape:cy="46.454788"
     inkscape:window-width="1014"
     inkscape:window-height="686"
     inkscape:window-x="5"
     inkscape:window-y="41"
     inkscape:current-layer="svg604"
     width="90px"
     height="90px" />
  <g
     id="g2327"
     transform="matrix(2.7340947,0,0,2.7340947,137.77603,61.84782)">
    <path
       transform="matrix(0.3366592,0,0,0.3366592,-48.216661,-20.96605)"
       sodipodi:ry="40.459522"
       sodipodi:rx="40.459526"
       sodipodi:cy="45.390781"
       sodipodi:cx="43.364311"
       d="M 83.823837 45.390781 A 40.459526 40.459522 0 1 1  2.9047852,45.390781 A 40.459526 40.459522 0 1 1  83.823837 45.390781 z"
       id="path589"
       style="font-size:12px;fill:none;fill-rule:evenodd;stroke:#000000;stroke-width:8.5;stroke-opacity:0.3"
       sodipodi:type="arc" />
    <path
       transform="matrix(0.3024115,0,0,0.3024115,-48.094829,-20.836248)"
       sodipodi:ry="40.459522"
       sodipodi:rx="40.459526"
       sodipodi:cy="45.390781"
       sodipodi:cx="43.364311"
       d="M 83.823837 45.390781 A 40.459526 40.459522 0 1 1  2.9047852,45.390781 A 40.459526 40.459522 0 1 1  83.823837 45.390781 z"
       id="path573"
       style="font-size:12px;fill:#31baff;fill-rule:evenodd;stroke-width:1pt"
       sodipodi:type="arc" />
    <path
       sodipodi:nodetypes="ccccccccc"
       id="path576"
       d="M -40.142594,-18.088085 L -38.35544,-15.000586 L -42.672842,-9.6525277 C -42.672842,-9.6525277 -40.572611,-4.7493559 -39.052003,-4.8107921 C -39.995812,-4.6100434 -39.994275,-0.55636309 -39.522371,0.70206009 C -38.044543,-0.57437579 -45.01721,-2.3420153 -44.42397,-5.9013826 C -43.830766,-9.4607857 -44.250205,-10.372322 -45.881605,-7.8510791 C -47.512999,-5.3298724 -47.809615,-4.6624732 -47.661307,-5.8489528 C -47.512999,-7.0353967 -48.020896,-15.818484 -40.142594,-18.088085 z "
       style="font-size:12px;fill:#e48e6f;fill-rule:evenodd;stroke-width:1pt" />
    <path
       id="path574"
       d="M -39.356075,-18.455129 L -36.834832,-14.895726 L -41.728998,-9.7049577 C -41.728998,-9.7049577 -38.317914,-4.959111 -38.317914,-4.8107921 C -38.317914,-4.6624732 -39.652677,-0.95478699 -39.652677,-0.95478699 C -39.652677,-0.95478699 -44.398524,-3.4760293 -43.805284,-7.0353967 C -43.21208,-10.5948 -43.805284,-11.929563 -45.436684,-9.4083197 C -47.068074,-6.8871135 -47.809615,-4.6624732 -47.661307,-5.8489528 C -47.512999,-7.0353967 -46.919766,-16.972048 -39.356075,-18.455129 z "
       style="font-size:12px;fill:#fffcac;fill-rule:evenodd;stroke-width:1pt" />
    <path
       sodipodi:nodetypes="ccccccccc"
       id="path575"
       d="M -40.142594,-18.088085 L -38.35544,-15.000586 L -42.672842,-9.6525277 C -42.672842,-9.6525277 -40.572611,-4.7493559 -39.052003,-4.8107921 C -39.995812,-4.6100434 -40.439196,-2.6326846 -39.967291,-1.3742614 C -40.491625,-2.9472993 -44.42397,-2.7869362 -43.83073,-6.3463035 C -43.237526,-9.9057067 -43.805284,-11.929563 -45.436684,-9.4083197 C -47.068074,-6.8871135 -47.809615,-4.6624732 -47.661307,-5.8489528 C -47.512999,-7.0353967 -48.020896,-15.818484 -40.142594,-18.088085 z "
       style="font-size:12px;fill:#ffd87c;fill-rule:evenodd;stroke-width:1pt" />
    <path
       id="path577"
       d="M -35.019874,-16.204864 C -35.019874,-16.204864 -33.132221,-14.841545 -35.229629,-12.849033 C -37.327037,-10.856485 -40.263357,-10.122395 -37.746511,-8.7591123 C -35.229629,-7.3957937 -31.768938,-7.1860744 -32.083553,-9.5980607 C -32.398132,-12.010048 -32.817606,-17.148672 -35.019874,-16.204864 z "
       style="font-size:12px;fill:#e48e6f;fill-rule:evenodd;stroke-width:1pt" />
    <path
       id="path578"
       d="M -34.71695,-16.211866 C -34.71695,-16.211866 -32.888808,-14.931998 -34.920093,-13.061449 C -36.951378,-11.190867 -39.795128,-10.501712 -37.357628,-9.2218769 C -34.920093,-7.9420085 -31.568504,-7.7451261 -31.8732,-10.009473 C -32.177862,-12.27382 -32.584112,-17.097903 -34.71695,-16.211866 z "
       style="font-size:12px;fill:#fffbaa;fill-rule:evenodd;stroke-width:1pt" />
    <path
       id="path579"
       d="M -35.241386,-16.217462 C -35.241386,-16.217462 -33.681034,-15.004353 -35.414772,-13.231374 C -37.14851,-11.458362 -39.575702,-10.805154 -37.495252,-9.5920767 C -35.414772,-8.3789671 -32.554131,-8.1923544 -32.814194,-10.338591 C -33.074228,-12.484828 -33.42097,-17.057283 -35.241386,-16.217462 z "
       style="font-size:12px;fill:#ffd87c;fill-rule:evenodd;stroke-width:1pt" />
    <path
       id="path580"
       d="M -22.750149,-6.0325108 C -22.750149,-6.0325108 -27.783878,-6.7666 -28.098493,-6.5568449 C -28.413107,-6.3470898 -32.817642,-5.9276154 -32.398132,-3.6204883 C -31.978658,-1.3133613 -30.510479,0.57429141 -32.398132,1.93761 C -34.285785,3.3008929 -36.383192,4.3495967 -34.49554,4.9788262 C -32.607887,5.6080199 -29.986145,4.8739308 -29.147196,4.1398417 C -28.308248,3.4057525 -30.091005,2.9862781 -29.881286,0.88890615 C -29.67153,-1.2085016 -30.30076,-2.5717845 -28.098493,-1.8377311 C -25.896225,-1.1036419 -26.001085,-0.26465739 -24.532942,-1.8377311 C -23.064764,-3.410769 -21.806305,-3.8302434 -22.750149,-6.0325108 z "
       style="font-size:12px;fill:#e48e6f;fill-rule:evenodd;stroke-width:1pt" />
    <path
       sodipodi:nodetypes="cccccccccc"
       id="path582"
       d="M -22.750149,-6.0624562 C -22.330675,-6.5868067 -27.783878,-8.0158874 -28.098493,-7.1880654 C -28.413107,-7.8284381 -33.761486,-6.9069593 -33.34194,-4.7227689 C -32.922466,-2.538511 -31.139709,-0.12220835 -33.027361,1.1684847 C -34.915014,2.4591442 -36.383192,3.7665862 -34.49554,4.362296 C -32.607887,4.9579719 -29.986145,4.2629885 -29.147196,3.568005 C -28.308248,2.8730215 -30.510479,2.4758928 -30.30076,0.49025 C -30.091005,-1.4954268 -30.30076,-3.3104365 -28.098493,-2.6154871 C -25.896225,-1.9205034 -26.001085,-1.1262125 -24.532942,-2.6154871 C -23.064764,-4.1047277 -21.806305,-3.9775058 -22.750149,-6.0624562 z "
       style="font-size:12px;fill:#fffcac;fill-rule:evenodd;stroke-width:1pt" />
    <path
       sodipodi:nodetypes="cccccccccc"
       id="path581"
       d="M -22.750149,-6.0624562 C -22.750149,-6.0624562 -27.783878,-6.7574396 -28.098493,-6.5588584 C -28.413107,-6.3602773 -32.817642,-5.9631487 -32.398132,-3.7789244 C -31.978658,-1.5947004 -30.510479,0.1923953 -32.398132,1.4830884 C -34.285785,2.7737478 -36.383192,3.7665862 -34.49554,4.362296 C -32.607887,4.9579719 -29.986145,4.2629885 -29.147196,3.568005 C -28.308248,2.8730215 -30.510479,2.4758928 -30.30076,0.49025 C -30.091005,-1.4954268 -30.30076,-3.3104365 -28.098493,-2.6154871 C -25.896225,-1.9205034 -26.001085,-1.1262125 -24.532942,-2.6154871 C -23.064764,-4.1047277 -21.806305,-3.9775058 -22.750149,-6.0624562 z "
       style="font-size:12px;fill:#ffd87c;fill-rule:evenodd;stroke-width:1pt" />
    <path
       id="path654"
       d="M -21.674517,-7.2578625 C -21.674517,0.087286887 -27.635791,6.048594 -34.980974,6.048594 C -42.326123,6.048594 -48.287434,0.087286887 -48.287434,-7.2578625 C -48.287434,-14.603045 -42.326123,-20.564333 -34.980974,-20.564333 C -27.635791,-20.564333 -21.674517,-14.603045 -21.674517,-7.2578625 z "
       style="font-size:12px;fill:none;fill-rule:evenodd;stroke:#283d53;stroke-width:2.79550862" />
    <path
       id="path588"
       d="M -26.922294,-15.300628 C -23.732706,-11.725125 -23.973075,-6.8088187 -27.458895,-4.3266739 C -30.944681,-1.844553 -36.362342,-2.7319503 -39.55193,-6.3074536 C -42.74155,-9.8829937 -42.501182,-14.7993 -39.015395,-17.281421 C -35.529576,-19.763565 -30.111915,-18.876168 -26.922294,-15.300628 z "
       style="font-size:12px;fill:url(#linearGradient2355);fill-rule:evenodd;stroke-width:1pt" />
  </g>
  <g
     id="g2342"
     transform="matrix(2.2352634,0,0,2.2352634,22.818003,23.740889)">
    <path
       sodipodi:nodetypes="ccsssccccssssccccc"
       id="path4182"
       d="M 19.749716,0.89094044 C 15.079905,1.0831511 10.435036,1.7432086 5.8069239,2.4078646 C 5.0956966,2.5248725 4.3782599,2.654493 3.7090501,2.8597143 C 3.3744453,2.962325 3.031689,3.0904801 2.6762507,3.279289 C 2.3208126,3.4680981 1.8393281,3.6810547 1.4498014,4.5380133 C 1.3467557,4.7511211 1.281245,4.9804081 1.2561515,5.2157879 C 0.22871232,17.104725 1.2794132,21.582781 1.7725512,26.93685 C 1.8634989,27.955205 2.6881981,28.752414 3.7090501,28.808799 C 9.6054798,29.120504 15.399629,28.618412 21.26664,27.84055 C 23.02057,27.596928 24.671923,27.321883 25.946512,27.033675 C 26.583806,26.889573 27.108511,26.757417 27.624811,26.54955 C 27.882961,26.445617 28.138707,26.363236 28.528511,26.033151 C 28.723412,25.868108 28.979444,25.617503 29.174009,25.12945 C 29.333247,24.730019 29.246009,24.153994 29.10946,23.677077 L 29.23856,23.644802 C 27.552573,18.519402 26.398517,9.7630005 26.043337,3.0856391 C 25.986952,2.0647871 25.189743,1.2400879 24.171389,1.1491403 C 22.659584,0.99795982 21.189005,0.89982124 19.749716,0.89094044 z "
       style="fill:#593a28;fill-opacity:1;fill-rule:evenodd;stroke:none;stroke-width:1px;stroke-linecap:butt;stroke-linejoin:miter;stroke-opacity:1" />
    <path
       sodipodi:nodetypes="ccccc"
       id="path3161"
       d="M 9.491331,3.982269 C 12.837159,3.1933786 18.50825,2.1453 24.391024,2.7463595 C 24.758698,9.8088078 25.586504,18.299878 27.736853,24.647463 C 28.17806,25.549052 16.141443,27.073707 13.494193,26.961009 C 10.762959,23.490271 9.8957715,12.20927 9.491331,3.982269 z "
       style="fill:url(#linearGradient2351);fill-opacity:1;fill-rule:evenodd;stroke:none;stroke-width:1px;stroke-linecap:butt;stroke-linejoin:miter;stroke-opacity:1" />
    <path
       sodipodi:nodetypes="ccccccccccc"
       id="path2188"
       d="M 12.198635,27.153397 C 8.7530895,19.510332 9.5196497,7.5417547 8.0814549,3.9071366 C 7.7057927,3.8320042 3.2434222,4.2114421 2.86776,5.0378987 C 1.815906,17.209351 2.8677599,21.4919 3.3936871,27.201966 C 5.1968655,27.277099 4.8674265,27.458484 6.7457373,27.383352 C 6.3609601,25.584731 5.1269383,18.004097 5.6134114,11.443872 C 5.5777329,16.47332 6.2281434,24.031168 7.3376818,27.383352 C 7.6757775,27.420918 9.0141649,27.398912 9.3898267,27.436478 C 8.7887671,25.82113 7.4989493,17.605971 7.791146,13.206813 C 7.7729158,17.198405 9.0672915,25.553608 9.856181,27.394355 C 10.194277,27.356789 11.785407,27.266096 12.198635,27.153397 z "
       style="fill:url(#linearGradient2353);fill-opacity:1;fill-rule:evenodd;stroke:none;stroke-width:1px;stroke-linecap:butt;stroke-linejoin:miter;stroke-opacity:1" />
    <path
       transform="matrix(1.4792104,0,0,1.4792104,-6.8904467,-4.2246051)"
       d="M 17.96875,7.6875 C 17.840202,7.6553713 17.715634,7.6817261 17.59375,7.75 C 17.471866,7.8182739 17.38853,7.9118346 17.34375,8.03125 C 17.230589,8.0415459 17.195453,8.06787 17.15625,8.09375 C 17.117047,8.11963 17.097012,8.156645 17.0625,8.1875 C 16.993476,8.2492101 16.903428,8.3364429 16.8125,8.4375 C 16.630643,8.6396142 16.392779,8.9245716 16.09375,9.3125 C 15.504716,10.087122 14.930232,10.905545 14.34375,11.78125 C 14.136596,12.091982 13.988334,12.339985 13.90625,12.5625 C 13.865208,12.673757 13.845971,12.791751 13.84375,12.90625 C 13.841529,13.020749 13.850215,13.14526 13.9375,13.25 C 13.936981,13.26041 13.936981,13.27084 13.9375,13.28125 C 14.116146,13.482231 14.365748,13.497674 14.625,13.5 C 14.884252,13.502326 15.192249,13.457785 15.59375,13.375 C 16.180172,13.251925 16.498437,13.172442 16.6875,13.125 C 16.690992,13.147106 16.684744,13.131188 16.6875,13.15625 C 16.701278,13.281562 16.729929,13.470741 16.75,13.6875 C 16.823244,14.525787 16.91909,15.06764 17.09375,15.4375 C 17.182986,15.621226 17.328541,15.800449 17.5625,15.84375 C 17.796459,15.887051 17.980799,15.77454 18.125,15.625 C 18.22634,15.523655 18.332703,15.407913 18.34375,15.21875 C 18.34442,15.207286 18.343749,15.199557 18.34375,15.1875 C 18.358613,14.986609 18.286393,14.893754 18.21875,14.75 C 18.155501,14.618989 18.086077,14.207059 18.0625,13.5625 C 18.063019,13.55209 18.063019,13.54166 18.0625,13.53125 L 18,12.75 L 18.3125,12.65625 C 18.651523,12.54838 18.944113,12.497037 19.15625,12.46875 C 19.309784,12.453398 19.466214,12.409726 19.59375,12.3125 C 19.721286,12.215274 19.792023,12.04956 19.8125,11.90625 C 19.838093,11.765464 19.831934,11.613043 19.75,11.46875 C 19.668066,11.324457 19.501955,11.246099 19.34375,11.1875 C 19.084047,11.091321 18.823529,11.040033 18.59375,11.21875 C 18.59492,11.217814 18.563705,11.249703 18.5625,11.25 C 18.54864,11.253413 18.396218,11.296492 18.125,11.375 C 18.0411,11.397676 18.017696,11.398892 17.96875,11.40625 C 17.963127,11.359287 17.942091,11.316594 17.9375,11.25 C 17.922944,11.038848 17.906248,10.731785 17.90625,10.34375 C 17.906246,9.7864637 17.923564,9.4320032 17.9375,9.34375 C 17.956657,9.2527472 17.991062,9.1460204 18.09375,9.03125 C 18.323189,8.8018139 18.46405,8.5288734 18.4375,8.25 C 18.438019,8.2395898 18.438019,8.2291602 18.4375,8.21875 C 18.420955,8.1139936 18.389664,8.0114987 18.3125,7.90625 C 18.235336,7.8010013 18.095893,7.7174235 17.96875,7.6875 z M 16.625,10.6875 L 16.625,10.75 C 16.688353,11.32813 16.694967,11.702703 16.6875,11.75 C 16.686981,11.76041 16.686981,11.77084 16.6875,11.78125 C 16.685817,11.794712 16.692997,11.805104 16.6875,11.8125 C 16.682003,11.819896 16.666904,11.806285 16.65625,11.8125 C 16.616292,11.829288 16.362818,11.918214 15.96875,12 C 15.828624,12.031763 15.760925,12.040802 15.65625,12.0625 C 15.699611,11.992106 15.726264,11.96182 15.78125,11.875 C 16.092835,11.387651 16.371639,10.992689 16.59375,10.71875 L 16.625,10.6875 z "
       id="path5174"
       style="font-size:12px;font-style:normal;font-weight:bold;fill:#b01911;fill-opacity:1;stroke:none;stroke-width:1px;stroke-linecap:butt;stroke-linejoin:miter;stroke-opacity:1;font-family:Bitstream Vera Sans"
       inkscape:original="M 17.90625 8 C 17.778246 7.9680074 17.672996 8.0282572 17.625 8.15625 C 17.576996 8.2842571 17.502996 8.3437573 17.375 8.34375 C 17.286996 8.351757 16.935747 8.7320065 16.34375 9.5 C 15.759748 10.268005 15.177748 11.096754 14.59375 11.96875 C 14.193749 12.568753 14.0675 12.918502 14.1875 13.0625 C 14.315499 13.206502 14.755249 13.222502 15.53125 13.0625 C 16.179247 12.926502 16.589997 12.821253 16.75 12.78125 C 16.861997 12.757253 16.936748 12.787003 16.96875 12.875 C 17.000747 12.955002 17.022498 13.224252 17.0625 13.65625 C 17.134496 14.480251 17.238997 15.0245 17.375 15.3125 C 17.510996 15.5925 17.690247 15.63025 17.90625 15.40625 C 17.986246 15.32625 18.031246 15.2515 18.03125 15.1875 C 18.039246 15.1235 18.001495 15.011 17.9375 14.875 C 17.825496 14.643001 17.773996 14.218501 17.75 13.5625 L 17.6875 12.5625 L 18.21875 12.375 C 18.570745 12.263003 18.884996 12.188253 19.125 12.15625 C 19.364994 12.132253 19.475995 12.043003 19.5 11.875 C 19.531994 11.699004 19.465994 11.548754 19.25 11.46875 C 19.033995 11.388754 18.861245 11.396754 18.78125 11.46875 C 18.701245 11.532754 18.522745 11.599504 18.21875 11.6875 C 17.922746 11.767504 17.751495 11.775504 17.6875 11.6875 C 17.623496 11.575504 17.593746 11.127754 17.59375 10.34375 C 17.593746 9.7837556 17.600997 9.4332565 17.625 9.28125 C 17.656996 9.1292563 17.738996 8.9645062 17.875 8.8125 C 18.066996 8.6205068 18.140995 8.4492567 18.125 8.28125 C 18.100995 8.1292573 18.042246 8.0320072 17.90625 8 z M 16.84375 9.90625 L 16.9375 10.71875 C 17.001497 11.302754 17.023996 11.660504 17 11.8125 C 16.983997 11.940503 16.908498 12.037753 16.8125 12.09375 C 16.716497 12.141753 16.455246 12.224503 16.03125 12.3125 C 15.431248 12.448503 15.148998 12.492753 15.125 12.46875 C 15.092998 12.436753 15.227248 12.198753 15.53125 11.71875 C 15.843248 11.230754 16.103747 10.827255 16.34375 10.53125 L 16.84375 9.90625 z "
       inkscape:radius="0.31361431"
       sodipodi:type="inkscape:offset" />
    <path
       sodipodi:nodetypes="cc"
       id="path5176"
       d="M 12.634976,5.8643555 C 15.997152,5.0378987 19.84769,5.0378987 21.876265,5.2632961"
       style="fill:none;fill-rule:evenodd;stroke:#593a28;stroke-width:1.60708129;stroke-linecap:butt;stroke-linejoin:miter;stroke-miterlimit:4;stroke-dasharray:none;stroke-opacity:1" />
    <path
       style="fill:none;fill-rule:evenodd;stroke:#593a28;stroke-width:1.60708129;stroke-linecap:butt;stroke-linejoin:miter;stroke-miterlimit:4;stroke-dasharray:none;stroke-opacity:1"
       d="M 14.218096,21.746208 C 17.80567,21.896473 22.332398,21.22028 24.586371,20.393824"
       id="path5178"
       sodipodi:nodetypes="cc" />
    <path
       sodipodi:nodetypes="cc"
       id="path5180"
       d="M 15.87101,23.774784 C 19.458585,23.925048 21.581073,23.474253 23.835047,22.647797"
       style="fill:none;fill-rule:evenodd;stroke:#593a28;stroke-width:1.07138753px;stroke-linecap:butt;stroke-linejoin:miter;stroke-opacity:1" />
  </g>
</svg>
