<?xml version="1.0" encoding="UTF-8" standalone="no"?>
<!-- Created with Sodipodi ("http://www.sodipodi.com/") -->
<svg
   xmlns:dc="http://purl.org/dc/elements/1.1/"
   xmlns:cc="http://web.resource.org/cc/"
   xmlns:rdf="http://www.w3.org/1999/02/22-rdf-syntax-ns#"
   xmlns:svg="http://www.w3.org/2000/svg"
   xmlns="http://www.w3.org/2000/svg"
   xmlns:xlink="http://www.w3.org/1999/xlink"
   xmlns:sodipodi="http://sodipodi.sourceforge.net/DTD/sodipodi-0.dtd"
   xmlns:inkscape="http://www.inkscape.org/namespaces/inkscape"
   id="svg848"
   sodipodi:version="0.32"
   width="90"
   height="90"
   sodipodi:docbase="/home/tweenk/dev/GartoonRedux/scalable/stock/net"
   sodipodi:docname="stock_mail-filters-apply.svg"
   inkscape:version="0.45.1"
   inkscape:output_extension="org.inkscape.output.svg.inkscape"
   version="1.0">
  <metadata
     id="metadata46">
    <rdf:RDF>
      <cc:Work
         rdf:about="">
        <dc:format>image/svg+xml</dc:format>
        <dc:type
           rdf:resource="http://purl.org/dc/dcmitype/StillImage" />
        <cc:license
           rdf:resource="http://creativecommons.org/licenses/GPL/2.0/" />
      </cc:Work>
      <cc:License
         rdf:about="http://creativecommons.org/licenses/GPL/2.0/">
        <cc:permits
           rdf:resource="http://web.resource.org/cc/Reproduction" />
        <cc:permits
           rdf:resource="http://web.resource.org/cc/Distribution" />
        <cc:requires
           rdf:resource="http://web.resource.org/cc/Notice" />
        <cc:permits
           rdf:resource="http://web.resource.org/cc/DerivativeWorks" />
        <cc:requires
           rdf:resource="http://web.resource.org/cc/ShareAlike" />
        <cc:requires
           rdf:resource="http://web.resource.org/cc/SourceCode" />
      </cc:License>
    </rdf:RDF>
  </metadata>
  <defs
     id="defs850">
    <linearGradient
       id="linearGradient867">
      <stop
         style="stop-color:#92b5d7;stop-opacity:0.780392;"
         offset="0.000000"
         id="stop868" />
      <stop
         style="stop-color:#ffffff;stop-opacity:0.321569;"
         offset="1.000000"
         id="stop869" />
    </linearGradient>
    <linearGradient
       id="linearGradient860">
      <stop
         style="stop-color:#92b5d7;stop-opacity:1;"
         offset="0.000000"
         id="stop861" />
      <stop
         style="stop-color:#ffffff;stop-opacity:1;"
         offset="1.000000"
         id="stop862" />
    </linearGradient>
    <defs
       id="defs550">
      <linearGradient
         x1="0"
         y1="0"
         x2="1"
         y2="0"
         id="linearGradient556"
         gradientUnits="objectBoundingBox"
         spreadMethod="pad">
        <stop
           style="stop-color:#ff8700;stop-opacity:1;"
           offset="0.00000000"
           id="stop557" />
        <stop
           style="stop-color:#ffff8d;stop-opacity:0;"
           offset="1.00000000"
           id="stop558" />
      </linearGradient>
      <linearGradient
         x1="0"
         y1="0"
         x2="1"
         y2="0"
         id="linearGradient559"
         xlink:href="#linearGradient556"
         gradientUnits="objectBoundingBox"
         spreadMethod="pad" />
    </defs>
    <linearGradient
       inkscape:collect="always"
       xlink:href="#linearGradient860"
       id="linearGradient2237"
       gradientUnits="userSpaceOnUse"
       gradientTransform="matrix(0.2865784,0,0,0.2665617,3.707993,2.9392849)"
       spreadMethod="reflect"
       x1="37.126305"
       y1="43.838791"
       x2="68.40992"
       y2="44.934666" />
    <linearGradient
       inkscape:collect="always"
       xlink:href="#linearGradient867"
       id="linearGradient2239"
       gradientUnits="userSpaceOnUse"
       gradientTransform="matrix(0.304015,0,0,0.1911805,5.1743975,4.0411759)"
       spreadMethod="pad"
       x1="38.646523"
       y1="64.399437"
       x2="39.494808"
       y2="29.977726" />
    <linearGradient
       inkscape:collect="always"
       xlink:href="#linearGradient867"
       id="linearGradient2241"
       gradientUnits="userSpaceOnUse"
       gradientTransform="matrix(0.3521318,0,0,0.1522273,5.1419458,5.790026)"
       spreadMethod="pad"
       x1="28.197727"
       y1="108.28517"
       x2="33.435261"
       y2="93.438599" />
  </defs>
  <sodipodi:namedview
     id="base"
     inkscape:zoom="4.0511326"
     inkscape:cx="16.032106"
     inkscape:cy="48.593098"
     inkscape:window-width="1014"
     inkscape:window-height="686"
     inkscape:window-x="0"
     inkscape:window-y="41"
     inkscape:current-layer="svg848"
     borderlayer="false"
     width="90px"
     height="90px" />
  <use
     x="0"
     y="0"
     xlink:href="#g2226"
     id="use2243"
     transform="translate(10.450437,-14.539738)"
     width="30"
     height="30" />
  <g
     id="g2226"
     transform="matrix(2.603143,0,0,2.603143,-3.8674709,3.5543219)">
    <path
       style="font-size:12px;fill:#000000;fill-opacity:0.3;fill-rule:evenodd;stroke-width:1pt"
       d="M 6.8068396,7.5465965 C 6.6788227,7.5465965 6.1934214,20.860573 7.1548691,21.890707 C 9.8445918,25.033166 26.585779,29.042467 26.997864,28.424356 C 27.409917,27.806275 30.344361,15.622447 29.24551,14.79834 C 25.970372,10.709755 7.2188931,6.5164317 6.8068396,7.5465965 z "
       id="path860"
       sodipodi:nodetypes="ccccc" />
    <path
       style="font-size:12px;fill:#3d4e67;fill-rule:evenodd;stroke-width:1pt"
       d="M 5.5853605,5.5311571 C 5.4573436,5.5311571 4.9719423,18.845134 5.93339,19.875267 C 8.6231127,23.017727 25.3643,27.027027 25.776385,26.408916 C 26.188438,25.790836 29.122882,13.607007 28.024031,12.7829 C 24.748893,8.6943154 5.997414,4.5009923 5.5853605,5.5311571 z "
       id="path861"
       sodipodi:nodetypes="ccccc" />
    <path
       style="font-size:12px;fill:url(#linearGradient2237);stroke-width:1pt"
       d="M 6.8227588,6.6827252 C 6.8227588,6.6827252 6.3341722,18.408915 7.1891954,19.325007 C 8.0442324,20.241126 24.412044,25.798866 24.778508,25.249184 C 25.144945,24.699529 27.526838,13.522994 26.549637,12.790121 C 25.572463,12.05722 7.1891954,5.7666062 6.8227588,6.6827252 z "
       id="path862" />
    <path
       style="font-size:12px;fill:#3d4e67;fill-rule:evenodd;stroke-width:1pt"
       d="M 7.5556595,19.508253 C 7.3724136,19.569335 11.342216,18.531052 12.685882,17.614933 C 12.808018,17.553878 15.556347,17.737097 16.411384,18.592134 C 17.266394,19.447171 22.579834,23.966656 24.289908,25.249184 C 21.480524,25.065966 9.6321425,23.111591 7.5556595,19.508253 z "
       id="path863"
       sodipodi:nodetypes="ccccc" />
    <path
       style="font-size:12px;fill:#ffffff;fill-rule:evenodd;stroke-width:1pt"
       d="M 8.3650586,19.669517 C 8.4162026,19.669517 11.690459,19.209059 12.816021,18.441644 C 12.918332,18.3905 15.067074,18.339333 15.783321,19.055581 C 16.499545,19.771828 21.973711,24.427435 22.383002,24.478579 C 22.792292,24.529746 9.6440518,21.715924 8.3650586,19.669517 z "
       id="path864"
       sodipodi:nodetypes="ccccc" />
    <path
       style="font-size:12px;fill:#3d4e67;fill-rule:evenodd;stroke-width:1pt"
       d="M 26.305364,12.729039 C 26.305364,12.729039 14.701283,19.569335 13.663027,18.653216 C 11.342216,16.454541 6.7616769,6.5605612 6.9449228,6.3773429 C 7.6167415,5.8276881 21.663715,8.5149355 26.305364,12.729039 z "
       id="path866"
       sodipodi:nodetypes="cccc" />
    <path
       style="font-size:12px;fill:#ffffff;fill-rule:evenodd;stroke-width:1pt"
       d="M 25.43497,12.641504 C 24.885297,12.885819 14.763461,18.546989 13.857827,17.74789 C 11.833465,15.830063 7.6547954,6.9555982 7.8146344,6.7957833 C 8.4006385,6.3163337 21.080839,9.087846 25.43497,12.641504 z "
       id="path867"
       sodipodi:nodetypes="cccc" />
    <path
       style="font-size:12px;fill:url(#linearGradient2239);fill-rule:evenodd;stroke-width:1pt"
       d="M 25.43497,12.641504 C 24.885297,12.885819 14.763461,18.546989 13.857827,17.74789 C 11.833465,15.830063 7.6547954,6.9555982 7.8146344,6.7957833 C 8.4006385,6.3163337 21.080839,9.087846 25.43497,12.641504 z "
       id="path868"
       sodipodi:nodetypes="cccc" />
    <path
       style="font-size:12px;fill:url(#linearGradient2241);fill-rule:evenodd;stroke-width:1pt"
       d="M 8.3650586,19.669517 C 8.4162026,19.669517 11.690459,19.209059 12.816021,18.441644 C 12.918332,18.3905 15.067074,18.339333 15.783321,19.055581 C 16.499545,19.771828 21.973711,24.427435 22.383002,24.478579 C 22.792292,24.529746 9.6440518,21.715924 8.3650586,19.669517 z "
       id="path869"
       sodipodi:nodetypes="ccccc" />
  </g>
  <g
     id="g921"
     transform="matrix(0.5080976,-0.5891808,0.5891808,0.5080976,-112.1195,27.632401)">
    <path
       d="M 51.9665,36.0486 C 53.9602,37.0454 65.4724,34.7713 65.7572,32.6353 C 66.8738,29.0839 63.8447,27.7777 64.064,26.2358 C 64.4912,24.8117 69.3897,19.3094 68.8358,17.5805 C 67.2423,14.4362 62.9702,10.5668 59.9594,12.4381 C 57.3645,14.7813 55.6307,20.7151 54.0642,20.1455 C 52.4977,19.5759 51.1121,20.0634 50.6849,21.0602 C 50.2577,22.057 49.6881,35.3365 51.9665,36.0486 z "
       transform="matrix(1.435965,1.971143,-1.73768,1.265889,27.79248,15.41795)"
       style="fill:#593a28;fill-opacity:0.98131355;fill-rule:evenodd;stroke-width:1pt"
       id="path582" />
    <path
       d="M 51.5506,35.4589 C 53.5443,36.4557 64.2247,34.8892 64.5095,32.7532 C 64.7943,30.6171 61.6614,29.193 62.0886,27.769 C 62.5158,26.3449 69.4937,17.6582 68.212,16.519 C 66.9304,15.3797 62.6582,11.3924 61.519,12.674 C 60.3797,13.9557 55.1108,23.7816 53.5443,23.212 C 51.9778,22.6424 50.6962,21.3608 50.269,22.3576 C 49.8418,23.3544 49.2722,34.7468 51.5506,35.4589 z "
       style="fill:#ed0000;fill-opacity:1;fill-rule:evenodd;stroke-width:1pt"
       id="path581"
       transform="matrix(1.048427,1.439171,-1.439171,1.048427,43.51239,52.10931)" />
    <path
       d="M 67.6424,15.9494 C 67.6424,15.9494 69.0665,16.8038 68.0696,18.5127 C 67.0728,20.2215 61.519,27.769 61.9462,28.3386 C 63.5126,29.6202 65.3639,32.7531 64.3671,33.6076 C 62.6583,35.174 52.8323,36.3133 51.693,35.7437 C 50.5538,35.174 60.0949,33.4652 60.2373,31.0443 C 60.3797,28.6234 57.8165,27.6266 58.6709,26.2025 C 59.5253,24.7785 65.3639,14.9525 66.2184,15.2373 C 67.0728,15.5221 67.7848,16.519 67.6424,15.9494 z "
       style="fill:#b01911;fill-opacity:1;fill-rule:evenodd;stroke-width:1pt"
       id="path583"
       transform="matrix(1.048427,1.439171,-1.439171,1.048427,43.51239,52.10931)" />
    <path
       d="M 89.897203,156.97832 C 89.897203,156.97832 68.103661,155.91443 67.172492,157.2202 C 66.241467,158.52587 84.811579,161.62427 89.897203,156.97832 z "
       style="font-size:12px;fill:#ffffff;fill-rule:evenodd;stroke-width:1pt"
       id="path588" />
    <path
       d="M 49.931228,160.68275 C 49.931228,160.68275 58.313558,152.38032 60.401104,151.80067 C 62.488516,151.22115 61.317336,155.21145 61.317336,155.21145 C 61.317336,155.21145 50.712957,159.17215 49.931228,160.68275 z "
       style="font-size:12px;fill:#ffffff;fill-rule:evenodd;stroke-width:1pt"
       id="path589" />
  </g>
  <g
     id="g876"
     transform="matrix(0.6361493,-0.9843014,-0.9843014,-0.6361493,65.548183,134.29386)">
    <path
       d="M 51.9665,36.0486 C 53.9602,37.0454 65.4724,34.7713 65.7572,32.6353 C 66.8738,29.0839 63.8447,27.7777 64.064,26.2358 C 64.4912,24.8117 69.3897,19.3094 68.8358,17.5805 C 67.2423,14.4362 62.9702,10.5668 59.9594,12.4381 C 57.3645,14.7813 55.6307,20.7151 54.0642,20.1455 C 52.4977,19.5759 51.1121,20.0634 50.6849,21.0602 C 50.2577,22.057 49.6881,35.3365 51.9665,36.0486 z "
       transform="matrix(-1.209351,0.881005,-0.776658,-1.066114,137.7673,1.675955)"
       style="fill:#0c3c07;fill-opacity:1;fill-rule:evenodd;stroke-width:1pt"
       id="path2896" />
    <path
       d="M 51.5506,35.4589 C 53.5443,36.4557 64.2247,34.8892 64.5095,32.7532 C 64.7943,30.6171 61.6614,29.193 62.0886,27.769 C 62.5158,26.3449 69.4937,17.6582 68.212,16.519 C 66.9304,15.3797 62.6582,11.3924 61.519,12.674 C 60.3797,13.9557 55.1108,23.7816 53.5443,23.212 C 51.9778,22.6424 50.6962,21.3608 50.269,22.3576 C 49.8418,23.3544 49.2722,34.7468 51.5506,35.4589 z "
       style="fill:#2aaf18;fill-opacity:1;fill-rule:evenodd;stroke-width:1pt"
       id="path2898"
       transform="matrix(-0.882971,0.643239,-0.643239,-0.882971,115.2561,11.32056)" />
    <path
       d="M 67.6424,15.9494 C 67.6424,15.9494 69.0665,16.8038 68.0696,18.5127 C 67.0728,20.2215 61.519,27.769 61.9462,28.3386 C 63.5126,29.6202 65.3639,32.7531 64.3671,33.6076 C 62.6583,35.174 52.8323,36.3133 51.693,35.7437 C 50.5538,35.174 60.0949,33.4652 60.2373,31.0443 C 60.3797,28.6234 57.8165,27.6266 58.6709,26.2025 C 59.5253,24.7785 65.3639,14.9525 66.2184,15.2373 C 67.0728,15.5221 67.7848,16.519 67.6424,15.9494 z "
       style="fill:#208c11;fill-opacity:1;fill-rule:evenodd;stroke-width:1pt"
       id="path2900"
       transform="matrix(-0.882971,0.643239,-0.643239,-0.882971,115.2561,11.32056)" />
    <path
       d="M 16.9462,4.6519 C 16.9462,4.6519 9.25633,14.193 9.54114,15.0475 C 9.82595,15.9019 17.3734,8.49683 16.9462,4.6519 z "
       transform="matrix(-0.882971,0.643239,-0.643239,-0.882971,68.87137,32.98596)"
       style="font-size:12px;fill:#ffffff;fill-rule:evenodd;stroke-width:1pt"
       id="path2902" />
    <path
       d="M 5.41139,24.019 C 5.41139,24.019 4.41456,17.4684 4.84177,16.3291 C 5.26899,15.1899 6.69304,17.0411 6.69304,17.0411 C 6.69304,17.0411 4.98418,23.1646 5.41139,24.019 z "
       transform="matrix(-0.882971,0.643239,-0.643239,-0.882971,68.87137,32.98596)"
       style="font-size:12px;fill:#ffffff;fill-rule:evenodd;stroke-width:1pt"
       id="path2501" />
  </g>
</svg>
