<?xml version="1.0" encoding="UTF-8" standalone="no"?>
<!-- Created with Inkscape (http://www.inkscape.org/) -->

<svg
   xmlns:dc="http://purl.org/dc/elements/1.1/"
   xmlns:cc="http://creativecommons.org/ns#"
   xmlns:rdf="http://www.w3.org/1999/02/22-rdf-syntax-ns#"
   xmlns:svg="http://www.w3.org/2000/svg"
   xmlns="http://www.w3.org/2000/svg"
   xmlns:sodipodi="http://sodipodi.sourceforge.net/DTD/sodipodi-0.dtd"
   xmlns:inkscape="http://www.inkscape.org/namespaces/inkscape"
   width="574.76892"
   height="948.72662"
   id="svg1378"
   sodipodi:version="0.32"
   inkscape:version="0.47pre4 r22446"
   sodipodi:docname="robot.svg"
   inkscape:output_extension="org.inkscape.output.svg.inkscape"
   sodipodi:modified="true"
   version="1.0">
  <defs
     id="defs1380">
    <inkscape:perspective
       sodipodi:type="inkscape:persp3d"
       inkscape:vp_x="0 : 394.44937 : 1"
       inkscape:vp_y="0 : 1000 : 0"
       inkscape:vp_z="529.25897 : 394.44937 : 1"
       inkscape:persp3d-origin="264.62949 : 262.96625 : 1"
       id="perspective2534" />
  </defs>
  <sodipodi:namedview
     id="base"
     pagecolor="#ffffff"
     bordercolor="#666666"
     borderopacity="1.0"
     inkscape:pageopacity="0.0"
     inkscape:pageshadow="2"
     inkscape:zoom="0.5"
     inkscape:cx="207.26577"
     inkscape:cy="470.82579"
     inkscape:document-units="px"
     inkscape:current-layer="layer1"
     inkscape:window-width="1272"
     inkscape:window-height="953"
     inkscape:window-x="0"
     inkscape:window-y="0"
     showgrid="false"
     showguides="true"
     inkscape:guide-bbox="true"
     inkscape:window-maximized="1" />
  <metadata
     id="metadata1383">
    <rdf:RDF>
      <cc:Work
         rdf:about="">
        <dc:format>image/svg+xml</dc:format>
        <dc:type
           rdf:resource="http://purl.org/dc/dcmitype/StillImage" />
        <dc:title></dc:title>
      </cc:Work>
    </rdf:RDF>
  </metadata>
  <g
     inkscape:label="Livello 1"
     inkscape:groupmode="layer"
     id="layer1"
     transform="translate(-22.727992,-126.08801)">
    <path
       style="fill:#eeeeec;fill-opacity:0.94117599;fill-rule:evenodd;stroke:none"
       d="m 478.74933,150.18176 c -8.37496,0 -15.15859,6.48775 -15.15859,14.49742 0,3.42549 1.24244,6.55273 3.31893,9.03419 -39.7606,11.71476 -100.82053,59.49869 -113.09904,69.31296 -5.97307,-0.2749 -11.99803,-0.52571 -18.03075,-0.76303 -10.45725,-12.1871 -42.50145,-47.17387 -75.28234,-58.99689 0.72608,-1.6948 1.11694,-3.54889 1.11694,-5.49376 0,-8.00967 -6.78363,-14.49743 -15.15859,-14.49743 -8.37495,0 -15.15859,6.48776 -15.15859,14.49743 0,8.00967 6.78364,14.49742 15.15859,14.49742 4.25177,0 8.09684,-1.66865 10.85036,-4.36448 l 52.33703,53.4726 c -58.19441,-1.57437 -109.29541,-0.16554 -103.07841,10.13294 16.15395,26.75911 1.85094,155.44292 1.85094,155.44292 7.83106,4.32407 33.05226,7.44855 64.62346,9.15627 l 0,10.46867 c -40.58735,-1.0772 -74.17205,-3.93615 -88.58999,-10.01086 0,0 -1.50011,18.08868 -3.60615,43.88905 l -21.54115,3.2047 1.02121,-19.1366 c 0,0 -30.74188,-4.56156 -68.038144,6.37886 5.540764,37.09366 -27.764156,194.1129 -27.764156,194.1129 l 84.56898,9.43095 9.03133,-168.65847 21.06246,-4.57813 c -6.09358,74.92517 -15.39205,190.84261 -16.11597,210.28897 32.71818,-3.55764 64.47111,-6.2145 94.65343,-8.08804 l -1.08504,14.86368 c -11.90037,1.37752 -24.13498,4.55031 -35.29558,10.71283 0,0 -9.23084,268.48895 -12.92469,294.98447 77.16575,-8.31562 108.95037,0 108.95037,0 l 0,-300.26458 c 0,0 -16.27768,-5.06695 -37.68904,-6.10418 l -0.31913,-15.41305 c 40.54555,-2.05185 77.71968,-2.62246 109.62055,-1.83125 l -0.92547,14.77211 c -19.6467,0.73014 -35.23176,2.93 -35.23176,2.93 11.11018,49.28904 -2.07433,300.2951 -2.07433,300.2951 48.01995,1.76625 34.44049,-2.32162 101.67425,-9.94983 -1.63873,-30.03929 -5.61226,-259.71197 1.94668,-284.3937 -11.81815,-6.23402 -29.56363,-8.54404 -46.94376,-9.03418 l 1.4999,-13.91753 c 48.88576,2.24808 82.34309,8.04674 92.06849,16.57285 0,0 -7.17942,-129.68797 1.62756,-212.30335 l 11.77583,-0.12208 c -1.59165,43.94386 10.82789,98.20424 0.60634,181.9961 l 28.49815,-1.37345 -27.8918,21.36464 12.98852,63.5445 14.4565,-8.27116 -5.77622,-46.97166 17.87118,-9.76669 19.91361,10.89596 -5.77623,46.97166 14.45651,8.30168 12.98852,-63.5445 -30.8597,-23.59266 31.62561,-1.49551 c -20.96723,-88.26738 -10.18019,-210.19741 -10.18019,-210.19741 0,0 -12.64888,-11.97247 -68.03814,-0.97667 -1.04502,3.59175 -1.89899,7.23557 -2.58494,10.92648 l -10.97801,-0.54938 c 2.94417,-17.31646 6.94394,-30.86801 12.35026,-38.15112 17.20333,-2.96028 -27.72337,-0.93193 -89.8665,0.88511 l 0,-13.06295 c 19.12974,-2.8574 31.40221,-6.90577 31.40221,-12.26939 19.58956,-32.45019 42.45532,-155.43137 3.66998,-150.13229 0,0 -40.56314,-3.14893 -89.41973,-5.70741 l 3.2232,-0.18312 91.81319,-68.18368 c 2.65282,2.17801 6.0906,3.5099 9.86106,3.5099 8.37495,0 15.15859,-6.48775 15.15859,-14.49743 0,-8.00967 -6.78364,-14.49742 -15.15859,-14.49742 z m -71.70811,264.43304 -0.82974,11.20117 c -35.13247,0.90901 -73.59797,1.58487 -109.04611,1.22083 l -1.34034,-9.98033 c 37.25518,1.12167 79.11434,0.4577 111.21619,-2.44167 z m -320.372831,233.91214 -36.093402,27.62141 12.988519,63.5445 14.456508,-8.27116 -5.776221,-46.97165 19.913602,-10.86544 21.956025,11.99471 -5.77622,46.97165 14.45651,8.30169 12.98852,-63.54451 -36.12532,-27.62141 -6.031526,7.32502 -6.956995,-8.48481 z m 470.267351,16.66441 -0.28721,0.36625 -0.28722,-0.33573 0.57443,-0.0305 z m -184.77524,338.53775 -28.59389,62.69 126.63008,4.7001 -32.67873,-66.1997 -65.35746,-1.1903 z m -142.96944,6.8367 -49.0181,51.7634 147.05429,3.9066 -32.67873,-54.6934 -65.35746,-0.9766 z"
       id="path3714" />
    <path
       style="fill:#babdb6;fill-opacity:0.94117599;fill-rule:evenodd;stroke:#000000;stroke-width:7.51960993;stroke-linecap:round;stroke-linejoin:miter;stroke-miterlimit:4;stroke-opacity:1;stroke-dashoffset:0"
       d="m 179.2441,231.84782 c -13.56421,-23.49389 251.38998,-1.80857 251.38998,-1.80857 37.97978,-5.42567 15.56556,120.5023 -3.61713,153.72768 0,23.5113 -220.03808,22.20275 -245.96429,7.23425 0,0 14.00988,-131.75501 -1.80856,-159.15336 z"
       id="rect1386"
       sodipodi:nodetypes="ccccc"
       inkscape:export-filename="/media/disk/clases_pef2009/programacion/robotijo.png"
       inkscape:export-xdpi="90"
       inkscape:export-ydpi="90" />
    <path
       style="fill:#bec1ba;fill-opacity:1;fill-rule:evenodd;stroke:#000000;stroke-width:6.39159012;stroke-linecap:round;stroke-linejoin:miter;stroke-miterlimit:4;stroke-opacity:1;stroke-dashoffset:0"
       d="m 157.58607,400.86685 c 52.82383,23.27124 367.51585,0.56876 326.69389,7.9136 -29.34979,41.3416 -16.72344,279.84779 -16.72344,279.84779 -21.70273,-19.89418 -164.1053,-25.23859 -330.92055,-6.27255 1.04744,-29.41986 20.9501,-281.48884 20.9501,-281.48884 z"
       id="rect2114"
       sodipodi:nodetypes="ccccc"
       inkscape:export-filename="/media/disk/clases_pef2009/programacion/robotijo.png"
       inkscape:export-xdpi="90"
       inkscape:export-ydpi="90" />
    <path
       style="fill:#babdb6;fill-opacity:0.94117599;fill-rule:evenodd;stroke:#000000;stroke-width:7.51960993;stroke-linecap:round;stroke-linejoin:miter;stroke-miterlimit:4;stroke-opacity:1;stroke-dashoffset:0"
       d="m 67.337124,435.99401 c 36.521626,-11.20178 66.620676,-6.51043 66.620676,-6.51043 l -11.00287,214.93731 -82.807638,-9.67181 c 0,0 32.615514,-160.77529 27.189832,-198.75507 z"
       id="rect2842"
       sodipodi:nodetypes="ccccc"
       inkscape:export-filename="/media/disk/clases_pef2009/programacion/robotijo.png"
       inkscape:export-xdpi="90"
       inkscape:export-ydpi="90" />
    <path
       style="fill:#babdb6;fill-opacity:0.94117599;fill-rule:evenodd;stroke:#000000;stroke-width:7.18049002;stroke-linecap:round;stroke-linejoin:miter;stroke-miterlimit:4;stroke-opacity:1;stroke-dashoffset:0"
       d="m 485.45622,437.22937 c 54.23884,-11.25847 66.63927,0.99494 66.63927,0.99494 0,0 -10.57102,124.83999 9.96072,215.21595 l -80.7928,4.02259 c 12.65993,-108.51366 -10.15904,-168.65633 4.19281,-220.23348 z"
       id="rect2844"
       sodipodi:nodetypes="ccccc"
       inkscape:export-filename="/media/disk/clases_pef2009/programacion/robotijo.png"
       inkscape:export-xdpi="90"
       inkscape:export-ydpi="90" />
    <path
       style="fill:#babdb6;fill-opacity:0.94117599;fill-rule:evenodd;stroke:#000000;stroke-width:7.51999998;stroke-linecap:round;stroke-linejoin:miter;stroke-miterlimit:4;stroke-opacity:1;stroke-dasharray:none;stroke-dashoffset:0"
       d="m 193.7126,700.2651 c 39.93195,-23.05472 94.04517,-5.42569 94.04517,-5.42569 l 0,307.45539 c 0,0 -31.14207,-8.51437 -106.7051,0 3.61713,-27.12839 12.65993,-302.0297 12.65993,-302.0297 z"
       id="rect2846"
       sodipodi:nodetypes="ccccc"
       inkscape:export-filename="/media/disk/clases_pef2009/programacion/robotijo.png"
       inkscape:export-xdpi="90"
       inkscape:export-ydpi="90" />
    <path
       style="fill:#babdb6;fill-opacity:0.94117599;fill-rule:evenodd;stroke:#000000;stroke-width:7.51960993;stroke-linecap:round;stroke-linejoin:miter;stroke-miterlimit:4;stroke-opacity:1;stroke-dashoffset:0"
       d="m 421.91199,695.16981 c -30.0692,-16.58475 -99.43269,-6.08504 -99.43269,-6.08504 10.87942,50.46649 -2.03837,307.44867 -2.03837,307.44867 47.02259,1.80856 33.7033,-2.3813 99.54063,-10.19168 -1.60469,-30.75684 -5.47151,-265.90062 1.93043,-291.17195 z"
       id="rect2848"
       sodipodi:nodetypes="ccccc"
       inkscape:export-filename="/media/disk/clases_pef2009/programacion/robotijo.png"
       inkscape:export-xdpi="90"
       inkscape:export-ydpi="90" />
    <path
       style="fill:#ffffff;fill-opacity:0.94117599;fill-rule:evenodd;stroke:#000000;stroke-width:8.39999962;stroke-linecap:round;stroke-linejoin:miter;stroke-miterlimit:4;stroke-opacity:1;stroke-dashoffset:0"
       d="m -210.11173,347.2757 c 0,25.64979 -18.55448,46.46701 -41.41625,46.46701 -22.86178,0 -41.41626,-20.81722 -41.41626,-46.46701 0,-25.6498 26.16799,-52.87575 49.02977,-52.87575 22.86177,0 33.80274,27.22595 33.80274,52.87575 z"
       id="path2858"
       sodipodi:nodetypes="csssc"
       inkscape:export-filename="/media/disk/clases_pef2009/programacion/robotijo.png"
       inkscape:export-xdpi="90"
       inkscape:export-ydpi="90"
       transform="matrix(0.796074,0,0,0.788107,459.056,16.0314)" />
    <path
       style="fill:#eaeafb;fill-opacity:0.78431396;fill-rule:evenodd;stroke:#000000;stroke-width:7.51960993;stroke-linecap:round;stroke-linejoin:miter;stroke-miterlimit:4;stroke-opacity:1;stroke-dashoffset:0"
       d="m 244.35229,385.5755 20.20447,-0.95914 5.11538,40.74748 -25.31985,0 0,-39.78834 z"
       id="rect2862"
       sodipodi:nodetypes="ccccc"
       inkscape:export-filename="/media/disk/clases_pef2009/programacion/robotijo.png"
       inkscape:export-xdpi="90"
       inkscape:export-ydpi="90" />
    <path
       style="fill:#eaeafb;fill-opacity:0.78431396;fill-rule:evenodd;stroke:#000000;stroke-width:7.51960993;stroke-linecap:round;stroke-linejoin:miter;stroke-miterlimit:4;stroke-opacity:1;stroke-dashoffset:0"
       d="m 376.38666,386.84493 19.88475,-2.17372 0,46.11831 -22.76216,-2.87741 2.87741,-41.06718 z"
       id="rect2864"
       sodipodi:nodetypes="ccccc"
       inkscape:export-filename="/media/disk/clases_pef2009/programacion/robotijo.png"
       inkscape:export-xdpi="90"
       inkscape:export-ydpi="90" />
    <path
       style="fill:#eaeafb;fill-opacity:0.78431396;fill-rule:evenodd;stroke:#000000;stroke-width:7.51960993;stroke-linecap:round;stroke-linejoin:miter;stroke-miterlimit:4;stroke-opacity:1;stroke-dashoffset:0"
       d="m 358.83078,654.78151 19.88475,4.15625 -3.61712,35.26694 -19.14504,8.87824 2.87741,-48.30143 z"
       id="path2868"
       sodipodi:nodetypes="ccccc"
       inkscape:export-filename="/media/disk/clases_pef2009/programacion/robotijo.png"
       inkscape:export-xdpi="90"
       inkscape:export-ydpi="90" />
    <path
       style="fill:#eaeafb;fill-opacity:0.78431396;fill-rule:evenodd;stroke:#000000;stroke-width:7.51960993;stroke-linecap:round;stroke-linejoin:miter;stroke-miterlimit:4;stroke-opacity:1;stroke-dashoffset:0"
       d="m 230.42294,658.39863 19.88476,4.15626 0.90428,43.40546 -23.66644,-6.49453 2.8774,-41.06719 z"
       id="path2870"
       sodipodi:nodetypes="ccccc"
       inkscape:export-filename="/media/disk/clases_pef2009/programacion/robotijo.png"
       inkscape:export-xdpi="90"
       inkscape:export-ydpi="90" />
    <path
       style="fill:#eaeafb;fill-opacity:0.78431396;fill-rule:evenodd;stroke:#000000;stroke-width:7.88634014;stroke-linecap:round;stroke-linejoin:miter;stroke-miterlimit:4;stroke-opacity:1;stroke-dashoffset:0"
       d="m 497.01953,449.12315 8.37933,21.74678 -50.08998,0.52851 -3.4979,-24.60694 45.20855,2.33165 z"
       id="path2872"
       sodipodi:nodetypes="ccccc"
       inkscape:export-filename="/media/disk/clases_pef2009/programacion/robotijo.png"
       inkscape:export-xdpi="90"
       inkscape:export-ydpi="90" />
    <path
       style="fill:#eaeafb;fill-opacity:0.78431396;fill-rule:evenodd;stroke:#000000;stroke-width:7.51960993;stroke-linecap:round;stroke-linejoin:miter;stroke-miterlimit:4;stroke-opacity:1;stroke-dashoffset:0"
       d="m 160.80996,444.7626 0.34732,20.31152 -38.8018,8.80521 -2.23124,-22.83456 40.68572,-6.28217 z"
       id="path2874"
       sodipodi:nodetypes="ccccc"
       inkscape:export-filename="/media/disk/clases_pef2009/programacion/robotijo.png"
       inkscape:export-xdpi="90"
       inkscape:export-ydpi="90" />
    <path
       sodipodi:nodetypes="csssc"
       id="path2551"
       d="m 339.50964,282.85156 c 2.36487,-20.07596 18.9535,-34.64152 37.02819,-32.51239 18.0747,2.12913 30.8247,20.15066 28.45983,40.22662 -2.36487,20.07599 -25.56368,38.94857 -43.63838,36.81944 -18.07469,-2.12912 -24.21452,-24.45768 -21.84964,-44.53367 z"
       style="fill:#ffffff;fill-opacity:0.94117599;fill-rule:evenodd;stroke:#000000;stroke-width:6.65347576;stroke-linecap:round;stroke-linejoin:miter;stroke-miterlimit:4;stroke-opacity:1;stroke-dashoffset:0"
       inkscape:export-filename="/media/disk/clases_pef2009/programacion/robotijo.png"
       inkscape:export-xdpi="90"
       inkscape:export-ydpi="90" />
    <path
       style="fill:#4e9a06;fill-opacity:0.94117599;fill-rule:evenodd;stroke:#000000;stroke-width:6.65347624;stroke-linecap:round;stroke-linejoin:miter;stroke-miterlimit:4;stroke-opacity:1;stroke-dashoffset:0"
       d="m 360.53824,478.63583 c 1.46347,-12.52445 11.72914,-21.61122 22.91444,-20.28296 11.18531,1.32827 19.07549,12.57106 17.61202,25.09551 -1.46347,12.52446 -15.81977,24.29818 -27.00508,22.96992 -11.1853,-1.32826 -14.98485,-15.258 -13.52138,-27.78247 z"
       id="path2553"
       sodipodi:nodetypes="csssc"
       inkscape:export-filename="/media/disk/clases_pef2009/programacion/robotijo.png"
       inkscape:export-xdpi="90"
       inkscape:export-ydpi="90" />
    <path
       sodipodi:nodetypes="csssc"
       id="path2555"
       d="m 378.54376,471.72761 c 0.59813,-5.275 4.79376,-9.10213 9.36524,-8.5427 4.57149,0.55944 7.79624,5.29463 7.19812,10.56963 -0.59813,5.27501 -6.46562,10.23382 -11.03711,9.67439 -4.57148,-0.55944 -6.12437,-6.42631 -5.52625,-11.70132 z"
       style="fill:#ffffff;fill-opacity:0.94117599;fill-rule:evenodd;stroke:none"
       inkscape:export-filename="/media/disk/clases_pef2009/programacion/robotijo.png"
       inkscape:export-xdpi="90"
       inkscape:export-ydpi="90" />
    <path
       style="fill:#ffffff;fill-opacity:0.75;fill-rule:evenodd;stroke:none"
       d="m 61.619305,411.10169 17.172593,1.01016 9.091373,-141.42136 c 0,0 -18.182746,139.40105 -26.263966,140.4112 z"
       id="path3327"
       transform="translate(36.3875,217.156)"
       inkscape:export-filename="/media/disk/clases_pef2009/programacion/robotijo.png"
       inkscape:export-xdpi="90"
       inkscape:export-ydpi="90" />
    <path
       style="fill:#eff0ee;fill-opacity:1;fill-rule:evenodd;stroke:none"
       d="m 501.03566,237.35546 c 0,15.15228 -2.02031,186.87822 -10.10153,186.87822 -8.08122,0 22.22336,0 22.22336,0 0,0 -13.13198,-181.82746 -12.12183,-186.87822 z"
       id="path3329"
       transform="translate(36.3875,217.156)"
       inkscape:export-filename="/media/disk/clases_pef2009/programacion/robotijo.png"
       inkscape:export-xdpi="90"
       inkscape:export-ydpi="90" />
    <path
       style="fill:#ffffff;fill-opacity:0.75;fill-rule:evenodd;stroke:none"
       d="m 375.79876,646.44044 69.70052,19.1929 9.09137,-88.89343 c 0,0 -6.06091,45.45687 -25.25381,59.599 -19.1929,14.14214 -58.58885,11.11168 -53.53808,10.10153 z"
       id="path3331"
       inkscape:export-filename="/media/disk/clases_pef2009/programacion/robotijo.png"
       inkscape:export-xdpi="90"
       inkscape:export-ydpi="90" />
    <path
       style="fill:#ffffff;fill-opacity:0.75;fill-rule:evenodd;stroke:none"
       d="m 366.68537,163.61432 c 4.04061,-8.08122 33.33503,-143.441659 32.32488,-132.329981 -1.19243,13.116689 4.04061,121.218301 -16.16244,127.279221 -20.20305,6.06091 -18.18274,7.07107 -16.16244,5.05076 z"
       id="path3333"
       transform="translate(36.3875,217.156)"
       sodipodi:nodetypes="cssc"
       inkscape:export-filename="/media/disk/clases_pef2009/programacion/robotijo.png"
       inkscape:export-xdpi="90"
       inkscape:export-ydpi="90" />
    <path
       id="path3337"
       d="m 256.60075,985.85169 17.1726,1.01016 7.07106,-286.88333 c 0,0 -16.16244,284.86302 -24.24366,285.87317 z"
       style="fill:#ffffff;fill-opacity:0.75;fill-rule:evenodd;stroke:none"
       sodipodi:nodetypes="cccc"
       inkscape:export-filename="/media/disk/clases_pef2009/programacion/robotijo.png"
       inkscape:export-xdpi="90"
       inkscape:export-ydpi="90" />
    <path
       sodipodi:nodetypes="cccc"
       style="fill:#ffffff;fill-opacity:0.75;fill-rule:evenodd;stroke:none"
       d="m 388.93073,980.80092 26.26398,10e-6 -7.07108,-283.85287 c 0,0 -11.11168,282.84271 -19.1929,283.85286 z"
       id="path3339"
       inkscape:export-filename="/media/disk/clases_pef2009/programacion/robotijo.png"
       inkscape:export-xdpi="90"
       inkscape:export-ydpi="90" />
    <path
       style="fill:#ffffff;fill-opacity:0.78431396;fill-rule:evenodd;stroke:#000000;stroke-width:7.51960993;stroke-linecap:round;stroke-linejoin:miter;stroke-miterlimit:4;stroke-opacity:1;stroke-dashoffset:0"
       d="m 338.4961,348.9724 1.26514,27.26236 -53.74748,6.9023 0,-34.16466 52.48234,0 z"
       id="path3343"
       sodipodi:nodetypes="ccccc"
       inkscape:export-filename="/media/disk/clases_pef2009/programacion/robotijo.png"
       inkscape:export-xdpi="90"
       inkscape:export-ydpi="90" />
    <path
       style="fill:#000000;fill-opacity:1;fill-rule:nonzero;stroke:none;stroke-width:4;marker:none;visibility:visible;display:inline;overflow:visible;enable-background:accumulate"
       d="m 250.67283,141.89874 49.15434,4.5 c 0.0957,0 0.17283,0.0771 0.17283,0.17284 l 0,8.15433 c 0,0.0958 -0.0771,0.17283 -0.17283,0.17283 l -47.65434,0 c -0.0958,0 0.32717,2.42292 0.32717,2.32717 L 252,146.57158 c 0,-0.0958 -1.42292,-4.67284 -1.32717,-4.67284 z"
       id="rect3345"
       transform="translate(36.3875,217.156)"
       sodipodi:nodetypes="ccccccccc"
       inkscape:export-filename="/media/disk/clases_pef2009/programacion/robotijo.png"
       inkscape:export-xdpi="90"
       inkscape:export-ydpi="90" />
    <path
       sodipodi:type="arc"
       style="fill:#000000;fill-opacity:1;fill-rule:nonzero;stroke:none;stroke-width:4;marker:none;visibility:visible;display:inline;overflow:visible;enable-background:accumulate"
       id="path3348"
       sodipodi:cx="225.5"
       sodipodi:cy="60.898743"
       sodipodi:rx="14.5"
       sodipodi:ry="19"
       d="m 240,60.898743 c 0,10.49341 -6.49187,19 -14.5,19 -8.00813,0 -14.5,-8.50659 -14.5,-19 0,-10.493411 6.49187,-19 14.5,-19 8.00813,0 14.5,8.506589 14.5,19 z"
       transform="translate(36.3875,217.156)"
       inkscape:export-filename="/media/disk/clases_pef2009/programacion/robotijo.png"
       inkscape:export-xdpi="90"
       inkscape:export-ydpi="90" />
    <path
       transform="translate(146.3875,217.156)"
       d="m 240,60.898743 c 0,10.49341 -6.49187,19 -14.5,19 -8.00813,0 -14.5,-8.50659 -14.5,-19 0,-10.493411 6.49187,-19 14.5,-19 8.00813,0 14.5,8.506589 14.5,19 z"
       sodipodi:ry="19"
       sodipodi:rx="14.5"
       sodipodi:cy="60.898743"
       sodipodi:cx="225.5"
       id="path3350"
       style="fill:#000000;fill-opacity:1;fill-rule:nonzero;stroke:none;stroke-width:4;marker:none;visibility:visible;display:inline;overflow:visible;enable-background:accumulate"
       sodipodi:type="arc"
       inkscape:export-filename="/media/disk/clases_pef2009/programacion/robotijo.png"
       inkscape:export-xdpi="90"
       inkscape:export-ydpi="90" />
    <path
       style="fill:#000000;fill-opacity:1;fill-rule:evenodd;stroke:#000000;stroke-width:1px;stroke-linecap:butt;stroke-linejoin:miter;stroke-opacity:1"
       d="m 185.26198,-58.215181 c 42.42641,8.48528 87.68124,67.8822506 87.68124,67.8822506 L 247.48737,8.252856 185.26198,-58.215181 z"
       id="path3352"
       transform="translate(36.3875,217.156)"
       sodipodi:nodetypes="cccc"
       inkscape:export-filename="/media/disk/clases_pef2009/programacion/robotijo.png"
       inkscape:export-xdpi="90"
       inkscape:export-ydpi="90" />
    <path
       sodipodi:type="arc"
       style="fill:#000000;fill-opacity:1;fill-rule:nonzero;stroke:#000000;stroke-width:4;stroke-linecap:butt;stroke-linejoin:miter;stroke-miterlimit:4;stroke-opacity:1;stroke-dasharray:none;stroke-dashoffset:0;marker:none;visibility:visible;display:inline;overflow:visible;enable-background:accumulate"
       id="path3354"
       sodipodi:cx="161.92746"
       sodipodi:cy="-126.80454"
       sodipodi:rx="14.849242"
       sodipodi:ry="14.849242"
       d="m 176.7767,-126.80454 c 0,8.20101 -6.64823,14.84924 -14.84924,14.84924 -8.20101,0 -14.84924,-6.64823 -14.84924,-14.84924 0,-8.20101 6.64823,-14.84924 14.84924,-14.84924 8.20101,0 14.84924,6.64823 14.84924,14.84924 z"
       transform="translate(56.3875,283.156)"
       inkscape:export-filename="/media/disk/clases_pef2009/programacion/robotijo.png"
       inkscape:export-xdpi="90"
       inkscape:export-ydpi="90" />
    <path
       sodipodi:nodetypes="cccc"
       id="path3356"
       d="m 440.96781,150.45554 c -42.42641,8.48528 -120.20815,74.95332 -120.20815,74.95332 l 25.45585,-1.41421 94.7523,-73.53911 z"
       style="fill:#000000;fill-opacity:1;fill-rule:evenodd;stroke:#000000;stroke-width:1px;stroke-linecap:butt;stroke-linejoin:miter;stroke-opacity:1"
       inkscape:export-filename="/media/disk/clases_pef2009/programacion/robotijo.png"
       inkscape:export-xdpi="90"
       inkscape:export-ydpi="90" />
    <path
       transform="matrix(-1,0,0,1,607.70288,269.74179)"
       d="m 176.7767,-126.80454 c 0,8.20101 -6.64823,14.84924 -14.84924,14.84924 -8.20101,0 -14.84924,-6.64823 -14.84924,-14.84924 0,-8.20101 6.64823,-14.84924 14.84924,-14.84924 8.20101,0 14.84924,6.64823 14.84924,14.84924 z"
       sodipodi:ry="14.849242"
       sodipodi:rx="14.849242"
       sodipodi:cy="-126.80454"
       sodipodi:cx="161.92746"
       id="path3358"
       style="fill:#000000;fill-opacity:1;fill-rule:nonzero;stroke:#000000;stroke-width:4;stroke-linecap:butt;stroke-linejoin:miter;stroke-miterlimit:4;stroke-opacity:1;stroke-dasharray:none;stroke-dashoffset:0;marker:none;visibility:visible;display:inline;overflow:visible;enable-background:accumulate"
       sodipodi:type="arc"
       inkscape:export-filename="/media/disk/clases_pef2009/programacion/robotijo.png"
       inkscape:export-xdpi="90"
       inkscape:export-ydpi="90" />
    <path
       style="fill:#2e3436;fill-opacity:1;stroke:#000000;stroke-width:7.51999998;stroke-linecap:butt;stroke-linejoin:miter;stroke-miterlimit:4;stroke-opacity:1;stroke-dasharray:none"
       d="M 25.455844,512.27109 -9.8994949,540.55536 2.8284271,605.60918 16.970563,597.1239 11.313709,549.04064 41.012193,532.07008 25.455844,512.27109 z"
       id="path2901"
       transform="translate(36.387487,126.08801)" />
    <path
       id="path3675"
       d="m 74.571253,639.53067 35.355337,28.28427 -12.72792,65.05382 -14.142136,-8.48528 5.656854,-48.08326 -29.698484,-16.97056 15.556349,-19.79899 z"
       style="fill:#2e3436;fill-opacity:1;stroke:#000000;stroke-width:7.51999998;stroke-linecap:butt;stroke-linejoin:miter;stroke-miterlimit:4;stroke-opacity:1;stroke-dasharray:none" />
    <path
       id="path3677"
       d="m 517.2201,649.67281 -35.35534,28.28427 12.72792,65.05382 14.14214,-8.48528 -5.65686,-48.08326 29.69849,-16.97056 -15.55635,-19.79899 z"
       style="fill:#2e3436;fill-opacity:1;stroke:#000000;stroke-width:7.51999998;stroke-linecap:butt;stroke-linejoin:miter;stroke-miterlimit:4;stroke-opacity:1;stroke-dasharray:none" />
    <path
       style="fill:#2e3436;fill-opacity:1;stroke:#000000;stroke-width:7.51999998;stroke-linecap:butt;stroke-linejoin:miter;stroke-miterlimit:4;stroke-opacity:1;stroke-dasharray:none"
       d="m 525.94802,650.84438 35.35534,28.28427 -12.72792,65.05382 -14.14214,-8.48528 5.65686,-48.08326 -29.69849,-16.97056 15.55635,-19.79899 z"
       id="path3679" />
    <path
       style="fill:#2e3436;fill-opacity:1;stroke:#000000;stroke-width:7.51999998;stroke-linecap:round;stroke-linejoin:round;stroke-miterlimit:4;stroke-opacity:1"
       d="m 201.38749,1009.0546 64,1 32,56 -144,-4 48,-53 z"
       id="rect3681"
       sodipodi:nodetypes="ccccc" />
    <path
       sodipodi:nodetypes="ccccc"
       id="path3686"
       d="m 341.38749,1002.0546 64,1.2105 32,67.7895 -124,-4.8421 28,-64.1579 z"
       style="fill:#2e3436;fill-opacity:1;stroke:#000000;stroke-width:7.51999998;stroke-linecap:round;stroke-linejoin:round;stroke-miterlimit:4;stroke-opacity:1" />
    <path
       style="fill:#eff0ee;fill-opacity:1;stroke:none"
       d="m 226.98128,894.10875 24.74873,38.89087 -26.16295,-0.70711 -12.02082,-37.47665 13.43504,-0.70711 z"
       id="path3688"
       transform="translate(36.387487,126.08801)"
       sodipodi:nodetypes="ccccc" />
    <path
       sodipodi:nodetypes="ccccc"
       id="path3690"
       d="m 400.54748,1008.1759 24.74873,55.1544 -23.33452,-0.7071 -8.48529,-53.7402 7.07108,-0.7071 z"
       style="fill:#eff0ee;fill-opacity:1;stroke:none" />
    <path
       style="fill:none;stroke:#000000;stroke-width:6;stroke-linecap:butt;stroke-linejoin:miter;stroke-miterlimit:4;stroke-opacity:1;stroke-dasharray:none"
       d="m 165,633.96661 26,-12"
       id="path3694"
       transform="translate(36.387487,126.08801)" />
    <path
       style="fill:none;stroke:#000000;stroke-width:6;stroke-linecap:butt;stroke-linejoin:miter;stroke-miterlimit:4;stroke-opacity:1;stroke-dasharray:none"
       d="m 209.38749,737.05462 11,36"
       id="path3696" />
  </g>
</svg>
