<?xml version="1.0" encoding="UTF-8" standalone="no"?>
<!-- Created with Inkscape (http://www.inkscape.org/) -->

<svg
   xmlns:dc="http://purl.org/dc/elements/1.1/"
   xmlns:cc="http://creativecommons.org/ns#"
   xmlns:rdf="http://www.w3.org/1999/02/22-rdf-syntax-ns#"
   xmlns:svg="http://www.w3.org/2000/svg"
   xmlns="http://www.w3.org/2000/svg"
   xmlns:xlink="http://www.w3.org/1999/xlink"
   xmlns:sodipodi="http://sodipodi.sourceforge.net/DTD/sodipodi-0.dtd"
   xmlns:inkscape="http://www.inkscape.org/namespaces/inkscape"
   width="48px"
   height="48px"
   id="svg4345"
   sodipodi:version="0.32"
   inkscape:version="0.47pre1 r21720"
   sodipodi:docname="amarok.svg"
   inkscape:export-filename="/home/hbons/Desktop/pidgin.png"
   inkscape:export-xdpi="90"
   inkscape:export-ydpi="90"
   version="1.1"
   inkscape:output_extension="org.inkscape.output.svg.inkscape">
  <defs
     id="defs4347">
    <inkscape:perspective
       sodipodi:type="inkscape:persp3d"
       inkscape:vp_x="0 : 24 : 1"
       inkscape:vp_y="0 : 1000 : 0"
       inkscape:vp_z="48 : 24 : 1"
       inkscape:persp3d-origin="24 : 16 : 1"
       id="perspective67" />
    <linearGradient
       inkscape:collect="always"
       id="linearGradient6563">
      <stop
         style="stop-color:white;stop-opacity:1;"
         offset="0"
         id="stop6565" />
      <stop
         style="stop-color:white;stop-opacity:0;"
         offset="1"
         id="stop6567" />
    </linearGradient>
    <linearGradient
       inkscape:collect="always"
       id="linearGradient6537">
      <stop
         style="stop-color:white;stop-opacity:1;"
         offset="0"
         id="stop6539" />
      <stop
         style="stop-color:white;stop-opacity:0;"
         offset="1"
         id="stop6541" />
    </linearGradient>
    <linearGradient
       inkscape:collect="always"
       id="linearGradient6506">
      <stop
         style="stop-color:#eeeeec;stop-opacity:1;"
         offset="0"
         id="stop6508" />
      <stop
         style="stop-color:#eeeeec;stop-opacity:0;"
         offset="1"
         id="stop6510" />
    </linearGradient>
    <linearGradient
       inkscape:collect="always"
       id="linearGradient6493">
      <stop
         style="stop-color:#eeeeec;stop-opacity:1;"
         offset="0"
         id="stop6495" />
      <stop
         style="stop-color:#eeeeec;stop-opacity:0;"
         offset="1"
         id="stop6497" />
    </linearGradient>
    <linearGradient
       inkscape:collect="always"
       id="linearGradient5304">
      <stop
         style="stop-color:#2e3436;stop-opacity:1;"
         offset="0"
         id="stop5306" />
      <stop
         style="stop-color:#2e3436;stop-opacity:0;"
         offset="1"
         id="stop5308" />
    </linearGradient>
    <linearGradient
       inkscape:collect="always"
       id="linearGradient5280">
      <stop
         style="stop-color:#82508e;stop-opacity:1;"
         offset="0"
         id="stop5282" />
      <stop
         style="stop-color:#82508e;stop-opacity:0;"
         offset="1"
         id="stop5284" />
    </linearGradient>
    <linearGradient
       id="linearGradient2804">
      <stop
         style="stop-color:black;stop-opacity:0;"
         offset="0"
         id="stop2806" />
      <stop
         id="stop2812"
         offset="0.5"
         style="stop-color:black;stop-opacity:1;" />
      <stop
         style="stop-color:black;stop-opacity:0;"
         offset="1"
         id="stop2808" />
    </linearGradient>
    <radialGradient
       inkscape:collect="always"
       xlink:href="#linearGradient25546"
       id="radialGradient25572"
       gradientUnits="userSpaceOnUse"
       gradientTransform="matrix(1,0,0,0.994693,0,4.16407e-2)"
       cx="7.8836637"
       cy="1.5104795"
       fx="7.8836637"
       fy="1.5104795"
       r="8.4883642" />
    <radialGradient
       inkscape:collect="always"
       xlink:href="#linearGradient25546"
       id="radialGradient25568"
       gradientUnits="userSpaceOnUse"
       gradientTransform="matrix(1,0,0,0.994693,0,4.16407e-2)"
       cx="7.8836741"
       cy="0.14505707"
       fx="7.8836741"
       fy="0.14505707"
       r="8.4883642" />
    <linearGradient
       inkscape:collect="always"
       id="linearGradient25546">
      <stop
         style="stop-color:white;stop-opacity:1;"
         offset="0"
         id="stop25548" />
      <stop
         style="stop-color:white;stop-opacity:0;"
         offset="1"
         id="stop25550" />
    </linearGradient>
    <radialGradient
       inkscape:collect="always"
       xlink:href="#linearGradient25546"
       id="radialGradient25554"
       cx="7.8836637"
       cy="2.6242435"
       fx="7.8836637"
       fy="2.6242435"
       r="8.4883642"
       gradientTransform="matrix(1.131317,0,0,1.125313,-1.035262,-0.301139)"
       gradientUnits="userSpaceOnUse" />
    <linearGradient
       id="linearGradient3800">
      <stop
         style="stop-color:#f4d9b1;stop-opacity:1.0000000;"
         offset="0.0000000"
         id="stop3802" />
      <stop
         style="stop-color:#df9725;stop-opacity:1.0000000;"
         offset="1.0000000"
         id="stop3804" />
    </linearGradient>
    <radialGradient
       inkscape:collect="always"
       xlink:href="#linearGradient5280"
       id="radialGradient5286"
       cx="15.004828"
       cy="39.80859"
       fx="15.004828"
       fy="39.80859"
       r="9.7225161"
       gradientTransform="matrix(1,0,0,0.732283,0,10.65742)"
       gradientUnits="userSpaceOnUse" />
    <linearGradient
       inkscape:collect="always"
       xlink:href="#linearGradient5304"
       id="linearGradient5310"
       x1="12.606371"
       y1="15.069461"
       x2="12.606371"
       y2="23.043955"
       gradientUnits="userSpaceOnUse" />
    <linearGradient
       inkscape:collect="always"
       xlink:href="#linearGradient6493"
       id="linearGradient6499"
       x1="3.3105288"
       y1="43.5"
       x2="5.6917014"
       y2="43.5"
       gradientUnits="userSpaceOnUse" />
    <linearGradient
       inkscape:collect="always"
       xlink:href="#linearGradient6506"
       id="linearGradient6512"
       x1="15.645709"
       y1="39.743458"
       x2="15.645709"
       y2="53.502155"
       gradientUnits="userSpaceOnUse" />
    <linearGradient
       inkscape:collect="always"
       xlink:href="#linearGradient6537"
       id="linearGradient6543"
       x1="30.5"
       y1="0.033532728"
       x2="30.5"
       y2="23.559282"
       gradientUnits="userSpaceOnUse" />
    <linearGradient
       inkscape:collect="always"
       xlink:href="#linearGradient6563"
       id="linearGradient6569"
       x1="-1.6841649"
       y1="39.902092"
       x2="5.5366187"
       y2="44.272076"
       gradientUnits="userSpaceOnUse" />
    <linearGradient
       inkscape:collect="always"
       xlink:href="#linearGradient6563"
       id="linearGradient6573"
       gradientUnits="userSpaceOnUse"
       x1="12.01321"
       y1="38.950283"
       x2="5.5366187"
       y2="44.272076" />
    <inkscape:perspective
       id="perspective2970"
       inkscape:persp3d-origin="0.5 : 0.33333333 : 1"
       inkscape:vp_z="1 : 0.5 : 1"
       inkscape:vp_y="0 : 1000 : 0"
       inkscape:vp_x="0 : 0.5 : 1"
       sodipodi:type="inkscape:persp3d" />
    <radialGradient
       inkscape:collect="always"
       xlink:href="#XMLID_22_"
       id="radialGradient5267"
       cx="663.91144"
       cy="649.22662"
       fx="663.91144"
       fy="649.22662"
       r="427.12018"
       gradientTransform="translate(0,-4.99999e-6)"
       gradientUnits="userSpaceOnUse" />
    <radialGradient
       id="XMLID_22_"
       cx="622.72803"
       cy="621.17328"
       r="510.71881"
       fx="622.72803"
       fy="621.17328"
       gradientUnits="userSpaceOnUse">
      <stop
         offset="0"
         style="stop-color: rgb(255, 255, 255);"
         id="stop14" />
      <stop
         offset="0.2814"
         style="stop-color: rgb(230, 230, 230);"
         id="stop16" />
      <stop
         offset="0.7515"
         style="stop-color: rgb(192, 192, 192);"
         id="stop18" />
      <stop
         offset="1"
         style="stop-color: rgb(178, 178, 178);"
         id="stop20" />
    </radialGradient>
    <mask
       id="XMLID_23_"
       height="587.491"
       width="576.609"
       y="97.149"
       x="122.963"
       maskUnits="userSpaceOnUse">
      <g
         style="filter:url(#Adobe_OpacityMaskFilter)"
         id="g31">
        <radialGradient
           gradientUnits="userSpaceOnUse"
           fy="-20.899401"
           fx="88.977501"
           r="673.11609"
           cy="-20.899401"
           cx="88.977501"
           id="XMLID_24_">
          <stop
             id="stop34"
             style="stop-color: rgb(255, 255, 255);"
             offset="0.309" />
          <stop
             id="stop36"
             style="stop-color: rgb(0, 0, 0);"
             offset="1" />
        </radialGradient>
        <ellipse
           sodipodi:ry="349.10599"
           sodipodi:rx="512.93402"
           sodipodi:cy="286.172"
           sodipodi:cx="295.89499"
           style="fill:url(#XMLID_24_) #000000"
           id="ellipse38"
           ry="349.10599"
           rx="512.93402"
           cy="286.172"
           cx="295.89499" />
      </g>
    </mask>
    <radialGradient
       gradientUnits="userSpaceOnUse"
       fy="-20.899401"
       fx="88.977501"
       r="673.11609"
       cy="-20.899401"
       cx="88.977501"
       id="radialGradient2986">
      <stop
         id="stop2988"
         style="stop-color: rgb(255, 255, 255);"
         offset="0.309" />
      <stop
         id="stop2990"
         style="stop-color: rgb(0, 0, 0);"
         offset="1" />
    </radialGradient>
    <radialGradient
       inkscape:collect="always"
       xlink:href="#radialGradient29545"
       id="radialGradient2326"
       gradientUnits="userSpaceOnUse"
       gradientTransform="matrix(1.12563,0,0,1.12563,-41.8734,-39.5467)"
       cx="375.21439"
       cy="783.16357"
       fx="375.21439"
       fy="783.16357"
       r="300.5752" />
    <radialGradient
       gradientTransform="matrix(1.12563,0,0,1.12563,-41.8734,-39.5467)"
       id="radialGradient29545"
       cx="375.21439"
       cy="783.16357"
       r="300.5752"
       fx="375.21439"
       fy="783.16357"
       gradientUnits="userSpaceOnUse">
      <stop
         offset="0.0112"
         style="stop-color: rgb(238, 238, 239); stop-opacity: 0.941176;"
         id="stop29547" />
      <stop
         offset="0.29210001"
         style="stop-color: rgb(97, 147, 207); stop-opacity: 1;"
         id="stop29549" />
      <stop
         offset="0.45750001"
         style="stop-color: rgb(44, 114, 199); stop-opacity: 1;"
         id="stop29551" />
      <stop
         offset="0.6767"
         style="stop-color: rgb(0, 87, 174); stop-opacity: 1;"
         id="stop29553" />
      <stop
         offset="0.8653"
         style="stop-color: rgb(0, 77, 154); stop-opacity: 1;"
         id="stop29555" />
      <stop
         offset="1"
         style="stop-color: rgb(0, 67, 138); stop-opacity: 1;"
         id="stop29557" />
    </radialGradient>
    <linearGradient
       inkscape:collect="always"
       xlink:href="#XMLID_4_"
       id="linearGradient2322"
       gradientUnits="userSpaceOnUse"
       gradientTransform="matrix(-1.12563,0,0,1.12563,1028.91,-39.5467)"
       x1="429.84909"
       y1="815.45459"
       x2="480.12021"
       y2="643.30768" />
    <linearGradient
       gradientTransform="matrix(-1.12563,0,0,1.12563,1028.91,-39.5467)"
       y2="643.30768"
       x2="480.12021"
       y1="815.45459"
       x1="429.84909"
       gradientUnits="userSpaceOnUse"
       id="XMLID_4_">
      <stop
         id="stop112"
         style="stop-color: rgb(255, 255, 255);"
         offset="0" />
      <stop
         id="stop114"
         style="stop-color: rgb(229, 234, 242);"
         offset="1" />
    </linearGradient>
    <linearGradient
       inkscape:collect="always"
       xlink:href="#XMLID_5_"
       id="linearGradient2319"
       gradientUnits="userSpaceOnUse"
       gradientTransform="matrix(1.12563,0,0,1.12563,-41.8734,-39.5467)"
       x1="220.9512"
       y1="634.63232"
       x2="278.14471"
       y2="560.35498" />
    <linearGradient
       y2="560.35498"
       x2="278.14471"
       y1="634.63232"
       x1="220.9512"
       gradientUnits="userSpaceOnUse"
       id="XMLID_5_">
      <stop
         id="stop119"
         style="stop-color: rgb(255, 255, 255);"
         offset="0" />
      <stop
         id="stop121"
         style="stop-color: rgb(25, 61, 107);"
         offset="1" />
    </linearGradient>
    <linearGradient
       inkscape:collect="always"
       xlink:href="#XMLID_5_"
       id="linearGradient2316"
       gradientUnits="userSpaceOnUse"
       gradientTransform="matrix(1.12563,0,0,1.12563,-41.8734,-39.5467)"
       x1="237.20799"
       y1="684.01898"
       x2="328.18469"
       y2="565.86761" />
    <linearGradient
       y2="560.35498"
       x2="278.14471"
       y1="634.63232"
       x1="220.9512"
       gradientUnits="userSpaceOnUse"
       id="linearGradient3009">
      <stop
         id="stop3011"
         style="stop-color: rgb(255, 255, 255);"
         offset="0" />
      <stop
         id="stop3013"
         style="stop-color: rgb(25, 61, 107);"
         offset="1" />
    </linearGradient>
    <linearGradient
       inkscape:collect="always"
       xlink:href="#XMLID_5_"
       id="linearGradient2313"
       gradientUnits="userSpaceOnUse"
       gradientTransform="matrix(1.12563,0,0,1.12563,-41.8734,-39.5467)"
       x1="264.5405"
       y1="704.23578"
       x2="335.09619"
       y2="612.60522" />
    <linearGradient
       y2="560.35498"
       x2="278.14471"
       y1="634.63232"
       x1="220.9512"
       gradientUnits="userSpaceOnUse"
       id="linearGradient3016">
      <stop
         id="stop3018"
         style="stop-color: rgb(255, 255, 255);"
         offset="0" />
      <stop
         id="stop3020"
         style="stop-color: rgb(25, 61, 107);"
         offset="1" />
    </linearGradient>
    <linearGradient
       inkscape:collect="always"
       xlink:href="#XMLID_5_"
       id="linearGradient2310"
       gradientUnits="userSpaceOnUse"
       gradientTransform="matrix(1.12563,0,0,1.12563,-41.8734,-39.5467)"
       x1="319.186"
       y1="713.54639"
       x2="373.12509"
       y2="626.00598" />
    <linearGradient
       y2="560.35498"
       x2="278.14471"
       y1="634.63232"
       x1="220.9512"
       gradientUnits="userSpaceOnUse"
       id="linearGradient3023">
      <stop
         id="stop3025"
         style="stop-color: rgb(255, 255, 255);"
         offset="0" />
      <stop
         id="stop3027"
         style="stop-color: rgb(25, 61, 107);"
         offset="1" />
    </linearGradient>
    <linearGradient
       inkscape:collect="always"
       xlink:href="#XMLID_5_"
       id="linearGradient2307"
       gradientUnits="userSpaceOnUse"
       gradientTransform="matrix(1.12563,0,0,1.12563,-41.8734,-39.5467)"
       x1="331.49609"
       y1="790.51508"
       x2="409.85471"
       y2="688.75092" />
    <linearGradient
       y2="560.35498"
       x2="278.14471"
       y1="634.63232"
       x1="220.9512"
       gradientUnits="userSpaceOnUse"
       id="linearGradient3030">
      <stop
         id="stop3032"
         style="stop-color: rgb(255, 255, 255);"
         offset="0" />
      <stop
         id="stop3034"
         style="stop-color: rgb(25, 61, 107);"
         offset="1" />
    </linearGradient>
    <linearGradient
       inkscape:collect="always"
       xlink:href="#linearGradient5498"
       id="linearGradient2304"
       gradientUnits="userSpaceOnUse"
       x1="1508.4957"
       y1="-363.42487"
       x2="361.1441"
       y2="630.52039" />
    <linearGradient
       id="linearGradient5498">
      <stop
         style="stop-color: rgb(238, 238, 238); stop-opacity: 1;"
         offset="0"
         id="stop5500" />
      <stop
         style="stop-color: rgb(238, 238, 238); stop-opacity: 0;"
         offset="1"
         id="stop5502" />
    </linearGradient>
    <linearGradient
       inkscape:collect="always"
       xlink:href="#linearGradient5498"
       id="linearGradient2301"
       gradientUnits="userSpaceOnUse"
       x1="370.62177"
       y1="-309.6048"
       x2="370.20648"
       y2="458.38397" />
    <linearGradient
       id="linearGradient3041">
      <stop
         style="stop-color: rgb(238, 238, 238); stop-opacity: 1;"
         offset="0"
         id="stop3043" />
      <stop
         style="stop-color: rgb(238, 238, 238); stop-opacity: 0;"
         offset="1"
         id="stop3045" />
    </linearGradient>
    <linearGradient
       inkscape:collect="always"
       xlink:href="#linearGradient5498"
       id="linearGradient2298"
       gradientUnits="userSpaceOnUse"
       x1="247.47713"
       y1="274.88394"
       x2="130.31757"
       y2="580.54669" />
    <linearGradient
       id="linearGradient3048">
      <stop
         style="stop-color: rgb(238, 238, 238); stop-opacity: 1;"
         offset="0"
         id="stop3050" />
      <stop
         style="stop-color: rgb(238, 238, 238); stop-opacity: 0;"
         offset="1"
         id="stop3052" />
    </linearGradient>
    <linearGradient
       inkscape:collect="always"
       xlink:href="#linearGradient5498"
       id="linearGradient2295"
       gradientUnits="userSpaceOnUse"
       x1="220.36789"
       y1="756.76105"
       x2="185.21225"
       y2="491.06723" />
    <linearGradient
       id="linearGradient3055">
      <stop
         style="stop-color: rgb(238, 238, 238); stop-opacity: 1;"
         offset="0"
         id="stop3057" />
      <stop
         style="stop-color: rgb(238, 238, 238); stop-opacity: 0;"
         offset="1"
         id="stop3059" />
    </linearGradient>
    <linearGradient
       y2="491.06723"
       x2="185.21225"
       y1="756.76105"
       x1="220.36789"
       gradientUnits="userSpaceOnUse"
       id="linearGradient3077"
       xlink:href="#linearGradient5498"
       inkscape:collect="always" />
  </defs>
  <sodipodi:namedview
     id="base"
     pagecolor="#ffffff"
     bordercolor="#666666"
     borderopacity="1.0"
     inkscape:pageopacity="0.0"
     inkscape:pageshadow="2"
     inkscape:zoom="5.6874845"
     inkscape:cx="23.274726"
     inkscape:cy="28.351649"
     inkscape:current-layer="layer1"
     showgrid="true"
     inkscape:grid-bbox="true"
     inkscape:document-units="px"
     inkscape:window-width="1274"
     inkscape:window-height="966"
     inkscape:window-x="3"
     inkscape:window-y="19"
     showguides="true"
     inkscape:guide-bbox="true"
     inkscape:grid-points="true"
     inkscape:window-maximized="0" />
  <metadata
     id="metadata4350">
    <rdf:RDF>
      <cc:Work
         rdf:about="">
        <dc:format>image/svg+xml</dc:format>
        <dc:type
           rdf:resource="http://purl.org/dc/dcmitype/StillImage" />
      </cc:Work>
    </rdf:RDF>
  </metadata>
  <g
     id="layer1"
     inkscape:label="Layer 1"
     inkscape:groupmode="layer">
    <g
       transform="matrix(0.05310304,0,0,0.05310304,1.6483561,1.5384747)"
       id="g2305"
       inkscape:export-filename="/home/knome/Work/Amarok logo/oxygen-icon.png"
       inkscape:export-xdpi="421.87378"
       inkscape:export-ydpi="421.87378">
      <path
         id="circle22"
         d="m 840.16762,427.119 c 0,228.00284 -185.04578,413.04863 -413.04862,413.04863 -228.00284,0 -413.048625,-185.04579 -413.048625,-413.04863 0,-228.00284 185.045785,-413.048625 413.048625,-413.048625 228.00284,0 413.04862,185.045785 413.04862,413.048625 z"
         style="fill:url(#radialGradient5267);fill-opacity:1;stroke:#0057ae;stroke-width:28.14310074;stroke-miterlimit:4;stroke-opacity:1;stroke-dasharray:none" />
      <path
         id="ellipse40"
         d="m 699.57098,390.89499 c 0,162.14779 -129.16018,293.746 -288.30398,293.746 -159.1438,0 -288.30399,-131.59821 -288.30399,-293.746 0,-162.14779 129.16019,-293.746003 288.30399,-293.746003 159.1438,0 288.30398,131.598213 288.30398,293.746003 z"
         mask="url(#XMLID_23_)"
         style="opacity:0.86000001;fill:#eeeeee"
         transform="matrix(1.12563,0,0,1.12563,-41.8734,-39.5467)" />
      <path
         id="path43"
         d="m 654.69879,222.73733 c -17.18837,0 -50.56441,35.84679 -63.07015,41.50646 -12.51137,5.65966 -111.53975,69.79916 -120.923,81.11849 -9.37874,11.3182 -21.88787,16.03572 -35.43819,15.09244 -13.54921,-0.94328 -56.38841,-1.3305 -70.97995,6.21572 -14.59491,7.54622 -81.20741,69.24423 -97.88699,76.79157 -16.67733,7.54397 -38.43687,11.41164 -48.8602,12.35379 -10.42333,0.9444 -44.95539,35.75224 -54.33751,42.35744 -9.381,6.59956 -77.967857,33.0451 -88.39006,38.70252 -10.424455,5.66079 61.2894,95.23726 73.79852,97.12381 12.50687,1.88768 -12.28737,11.13585 -36.35333,11.13585 -2.64973,0 34.39361,97.13958 160.69825,159.83602 109.19168,54.19906 197.16413,21.28565 240.19019,8.14055 30.42352,-9.29432 35.94023,-13.43889 36.98594,-28.53133 1.04346,-15.09132 2.92776,-27.01736 5.01355,-43.99523 2.08579,-16.97562 9.37762,-159.41053 36.48391,-197.13938 27.0984,-37.72997 104.5631,-83.02305 131.66375,-87.73719 27.10291,-4.71638 21.89237,-14.14803 21.89237,-22.63753 0,-8.4895 -4.17046,-27.35505 -11.46679,-30.18488 -7.29745,-2.82871 -35.76913,14.16379 -45.15012,16.05035 -9.38212,1.88655 -54.20356,4.71639 -60.45869,-4.71526 -6.254,-9.4339 50.56666,-105.64709 57.86299,-116.96529 7.29408,-11.31933 10.4222,-26.41177 -3.12588,-42.44636 -13.55595,-16.03797 -22.93807,-32.07256 -28.14861,-32.07256 z"
         style="opacity:0.22000002;fill:#323232" />
      <path
         id="path58"
         d="m 618.12146,172.83479 c -16.67395,0 -49.04593,38.42449 -61.17909,44.49051 -12.13316,6.06714 -108.18876,74.81947 -117.28835,86.95375 -9.09958,12.13204 -21.23387,17.18836 -34.37672,16.17755 -13.14285,-1.00969 -54.69434,-1.42617 -68.84913,6.6626 -14.15704,8.0899 -78.7693,74.22514 -94.94685,82.31503 -16.17642,8.08653 -37.28197,12.22997 -47.3935,13.24191 -10.10928,1.00969 -43.60464,38.32093 -52.70423,45.40001 -9.09958,7.07909 -81.004797,38.19374 -91.115201,44.25751 -10.11153,6.06714 73.763631,91.03303 85.896791,93.05353 12.13316,2.02501 -8.35668,48.06101 -31.70111,48.06101 -2.57094,0 20.86129,76.28503 143.37368,143.49074 105.91386,58.09937 218.28883,32.37536 260.02154,18.28698 29.51176,-9.96632 8.79905,-15.47403 9.81212,-31.65045 1.00856,-16.17867 1.85841,-37.45082 3.88117,-55.64887 2.02388,-18.19918 9.09846,-170.87619 35.38866,-211.31893 26.28683,-40.44049 101.4226,-88.99114 127.71167,-94.04634 26.29021,-5.05521 21.23275,-15.16674 21.23275,-24.2652 0,-9.09846 -4.04326,-29.32152 -11.12234,-32.35509 -7.07684,-3.03245 -34.69303,15.18249 -43.79262,17.20412 -9.09959,2.02163 -52.57703,5.05633 -58.64529,-5.05408 -6.06602,-10.11265 49.04817,-113.24395 56.12613,-125.37712 7.07909,-12.13428 10.11041,-28.31295 -3.03469,-45.49907 -13.13948,-17.19173 -22.24019,-34.3801 -27.29539,-34.3801 z"
         style="fill:url(#radialGradient2326);fill-opacity:1" />
      <path
         id="path60"
         d="m 416.43229,363.42863 c 0,0 -40.05665,-6.16395 -63.1692,16.94973 -23.11368,23.11255 -43.14763,73.95836 -41.60214,89.3671 1.53873,15.40875 47.76496,-52.38792 67.79328,-57.00863 20.03283,-4.62408 41.60327,-38.52467 36.97806,-49.3082 z"
         style="fill:#ffffff" />
      <path
         id="path116"
         d="m 517.5791,576.1107 c 0,0 -35.84454,122.02274 -36.75067,123.90817 -5.12274,10.6462 -14.57128,41.49633 -11.31821,51.45927 3.83052,11.73694 18.18792,28.80149 24.8888,37.33376 6.70087,8.53565 9.57235,12.80178 7.65765,16.0042 -1.91357,3.20016 -26.80236,3.20016 -26.80236,3.20016 0,0 -19.14358,-28.8026 -22.97522,-39.4702 -3.82715,-10.66533 -5.74297,-33.06649 -1.91245,-40.53166 3.82827,-7.46855 67.21246,-151.9037 67.21246,-151.9037 z"
         style="opacity:0.18000004;fill:url(#linearGradient2322)" />
      <path
         id="polygon123"
         d="m 264.93381,598.84278 -65.48349,56.68783 82.09891,-48.8692 -16.61542,-7.81863 z"
         style="opacity:0.2;fill:url(#linearGradient2319)" />
      <path
         id="polygon130"
         d="M 329.44139,579.29735 218.01983,723.9475 346.05568,589.06894 329.44139,579.29735 z"
         style="opacity:0.2;fill:url(#linearGradient2316);fill-opacity:1" />
      <path
         id="polygon137"
         d="m 338.23818,629.14248 -85.0323,134.87743 104.57886,-126.08176 -19.54656,-8.79567 z"
         style="opacity:0.20132003;fill:url(#linearGradient2313);fill-opacity:1" />
      <path
         id="polygon144"
         d="M 388.08331,623.27682 316.73416,790.41029 411.5403,628.16543 388.08331,623.27682 z"
         style="opacity:0.2;fill:url(#linearGradient2310);fill-opacity:1" />
      <path
         id="polygon151"
         d="m 416.42779,667.25967 -5.86566,152.47102 25.41109,-150.5158 -19.54543,-1.95522 z"
         style="opacity:0.2;fill:url(#linearGradient2307);fill-opacity:1" />
      <path
         id="path2270"
         d="m 420.91732,729.36642 c -69.61714,-30.97259 -132.40757,-73.47708 -186.6525,-126.35015 -6.08983,-5.93583 -7.45042,-7.51977 -7.45042,-8.67365 0,-1.21137 1.73693,-2.9367 12.24186,-12.16022 21.39183,-18.78236 26.09822,-23.79548 29.74415,-31.68253 3.72242,-8.05252 11.41425,-17.54496 26.41698,-32.60103 33.12207,-33.23985 93.24799,-82.91393 121.6095,-100.46983 4.92908,-3.05113 7.76185,-5.25655 11.66078,-9.07838 12.37074,-12.1261 31.53147,-36.62896 71.45117,-91.37225 42.4935,-58.27281 56.79832,-77.10789 70.94163,-93.40836 8.54633,-9.84986 14.83093,-15.69692 17.26813,-16.06592 1.03571,-0.15681 2.75574,-0.43469 3.8223,-0.61751 1.06656,-0.18282 2.42957,-0.0986 3.02891,0.18726 0.59935,0.28581 1.47622,0.64247 1.94861,0.79258 0.90545,0.28772 18.1519,19.80193 24.50379,27.72582 7.60848,9.49149 8.29366,12.13442 4.48646,17.30555 -1.42092,1.92997 -2.78951,4.70545 -3.84287,7.79326 -1.80934,5.30394 -11.13095,24.14624 -25.47374,51.49155 -11.27663,21.4995 -26.53981,51.89196 -31.3099,62.34515 -10.06964,22.0666 -14.98116,37.26763 -13.69591,42.38846 0.42076,1.67646 2.96415,2.87577 9.79588,4.61913 15.9806,4.07804 30.75451,3.46059 44.52137,-1.86066 2.08238,-0.80489 6.96651,-3.29909 10.85361,-5.54266 11.86677,-6.84929 20.81201,-10.6783 31.98165,-13.68968 5.33596,-1.43859 6.60435,-1.58975 13.7136,-1.63425 7.45876,-0.0467 7.95403,0.0127 10.34476,1.24091 2.17026,1.11491 2.568,1.56013 2.93137,3.28132 0.81873,3.87812 0.96234,6.37162 0.39942,6.93458 -0.30768,0.30764 -0.55939,1.0633 -0.55939,1.67926 0,2.52659 -6.07631,4.56817 -23.01606,7.73315 -17.76918,3.31993 -18.6271,3.67763 -30.9929,12.92226 -27.68069,20.69399 -70.74912,58.18197 -86.02736,74.88062 -6.93119,7.57559 -17.55645,22.23685 -31.87787,43.98663 -32.13223,48.79889 -54.39229,90.94087 -60.33894,114.23159 -1.18162,4.62793 -4.50577,25.53188 -7.52335,47.31055 -2.78517,20.10144 -2.90945,20.70656 -4.243,20.66112 -0.58859,-0.02 -5.38636,-1.95672 -10.66172,-4.30367 z"
         style="opacity:0.57999998;fill:url(#linearGradient2304);fill-opacity:1" />
      <path
         id="path2476"
         d="m 232.63545,457.72623 c -0.30897,-1.10712 -0.24651,-10.83495 0.0988,-15.38785 0.24705,-3.25749 0.45351,-4.33393 1.32202,-6.89336 2.68468,-7.9114 6.60991,-12.31543 12.2878,-13.78673 2.11783,-0.54879 3.26713,-1.11137 6.32972,-3.09845 6.29072,-4.0816 14.31983,-10.85801 27.16963,-22.93065 3.48672,-3.27585 17.6319,-17.1887 31.43373,-30.91742 13.80183,-13.72873 25.71464,-25.41057 26.4729,-25.95963 0.75827,-0.54908 1.875,-1.12966 2.48162,-1.29018 4.43166,-1.17271 15.14897,-1.74123 42.32524,-2.2452 25.53566,-0.47354 36.4103,-0.9655 39.76404,-1.7989 3.47355,-0.86316 11.39958,-5.55691 27.3773,-16.21266 11.55265,-7.70459 36.13961,-24.70493 50.38753,-34.83978 3.82331,-2.71963 5.37872,-3.67546 5.98096,-3.67546 0.44763,0 0.89057,-0.12409 0.98429,-0.27573 0.0937,-0.15165 0.36021,-0.27574 0.59223,-0.27574 0.34692,0 0.39544,0.28157 0.27336,1.58547 -0.31321,3.34514 -0.51089,4.0327 -1.56256,5.43536 -2.86536,3.82161 -10.41265,9.9897 -19.30997,15.7812 -2.28427,1.48688 -6.72033,4.6931 -9.85801,7.12494 -31.64387,24.52557 -53.14125,39.04268 -62.43589,42.16279 -1.84289,0.61865 -2.55609,0.70414 -5.87386,0.70414 -6.39914,0 -13.74908,1.38701 -26.29063,4.96132 -18.48469,5.26807 -35.48805,12.1774 -44.42204,18.05093 -7.75783,5.10029 -13.99134,14.88979 -20.2542,31.80848 -2.46407,6.65653 -5.36991,16.4957 -8.87047,30.03554 -0.87225,3.37373 -1.67,6.27012 -1.77278,6.43642 -0.10277,0.1663 -16.67514,3.83084 -36.82746,8.14341 -20.15234,4.31256 -36.8536,7.90644 -37.11394,7.98636 -0.34281,0.10525 -0.53292,-0.0681 -0.68934,-0.62862 z"
         style="fill:url(#linearGradient2301);fill-opacity:1" />
      <path
         id="path5482"
         d="m 137.72559,580.45986 c -0.38277,-0.0852 -1.13843,-0.15943 -1.67924,-0.16495 -2.36905,-0.0242 -9.09363,-3.42096 -16.32848,-8.24802 -7.84768,-5.23596 -14.15526,-10.2413 -21.305991,-16.90722 -1.439514,-1.34191 -3.947615,-3.6516 -5.573565,-5.13264 -4.366479,-3.97731 -11.103191,-10.74547 -13.083535,-13.14462 -3.619985,-4.38549 -5.557754,-7.6132 -5.824181,-9.70125 -0.405077,-3.17467 -0.390951,-3.92307 0.125548,-6.65389 0.117112,-0.61914 1.647854,-1.95083 3.73073,-3.24558 3.897999,-2.42307 12.190804,-8.0474 41.409044,-28.08442 44.45581,-30.48652 63.18507,-42.88126 73.06075,-48.35047 2.50207,-1.38565 3.19137,-1.54023 6.88652,-1.54416 3.54103,-0.004 6.52083,0.31415 8.63813,0.92165 4.23349,1.2147 10.77762,3.77251 16.54775,6.46781 2.88033,1.34546 3.0871,1.47346 3.0871,1.91117 0,0.42254 -0.0994,0.49705 -1.00042,0.7502 -2.07144,0.58197 -7.60067,2.40243 -12.13564,3.99558 -27.55251,9.67926 -55.12156,23.02875 -79.77328,38.62783 -5.84258,3.69705 -6.5209,4.19401 -8.70308,6.37618 -6.19852,6.19847 -11.77884,15.88387 -13.33462,23.14403 -0.21724,1.01374 -0.31736,2.21764 -0.31831,3.82772 -0.002,2.56738 0.30555,3.91049 1.27059,5.55718 3.81476,6.50942 23.18096,12.65617 48.22929,15.30777 7.30787,0.77361 10.67369,0.95251 18.09288,0.96162 l 7.22048,0.009 1.91387,-0.66108 c 5.11723,-1.76758 12.11938,-5.76776 27.31605,-15.60508 13.16832,-8.52429 17.23277,-11.00756 21.92243,-13.394 4.39106,-2.23447 6.6097,-2.89841 8.50031,-2.54373 0.71976,0.13503 0.85224,0.53951 0.86013,2.626 0.0114,3.0172 -0.31808,4.16588 -1.84665,6.43753 -4.41636,6.56332 -15.285,15.48319 -30.5738,25.09186 -12.84873,8.07515 -27.48241,15.56264 -35.27592,18.04935 -0.738,0.23547 -2.71743,0.74277 -4.39875,1.12732 -8.98499,2.05501 -17.95934,5.25497 -29.82671,10.63525 -1.6801,0.76172 -3.1632,1.31767 -3.74072,1.4023 -1.7028,0.24949 -3.37625,0.31247 -4.08871,0.15388 z"
         style="opacity:0.7;fill:url(#linearGradient2298);fill-opacity:1" />
      <path
         id="path6524"
         d="m 168.63849,529.9315 c -0.16919,-0.0222 -2.36094,-0.0832 -4.87056,-0.13564 -4.51875,-0.0944 -7.34794,-0.28895 -11.38172,-0.78277 -9.35589,-1.14536 -15.59199,-2.98909 -17.77898,-5.25644 -0.46386,-0.48092 -0.61694,-1.05159 -0.60958,-2.27255 0.01,-1.58999 0.15581,-2.2101 0.83565,-3.54356 2.88203,-5.6529 11.17282,-14.60443 20.93666,-22.60518 2.14229,-1.75545 5.69518,-4.42202 7.53923,-5.65846 l 1.33031,-0.89199 30.19745,-3.65278 30.19746,-3.65279 1.99949,0.11416 c 1.85903,0.10613 3.44999,0.22375 7.5005,0.55455 1.86816,0.15257 2.01316,0.22021 1.8364,0.85669 -0.059,0.21257 -0.10759,0.57974 -0.10791,0.81595 -8e-4,0.60578 -0.952,2.83162 -2.27533,5.32443 -7.13957,13.44889 -21.55932,30.38866 -31.15264,36.59689 -2.74972,1.77945 -4.67955,2.62123 -7.15874,3.12262 -2.52895,0.51144 -5.7588,0.83593 -9.34988,0.93935 -3.52875,0.10162 -17.13731,0.19973 -17.68781,0.12752 z"
         style="fill:url(#linearGradient3077);fill-opacity:1" />
    </g>
  </g>
</svg>
