<?xml version="1.0" encoding="UTF-8" standalone="no"?>
<!-- Created with Sodipodi ("http://www.sodipodi.com/") -->
<svg
   xmlns:dc="http://purl.org/dc/elements/1.1/"
   xmlns:cc="http://creativecommons.org/ns#"
   xmlns:rdf="http://www.w3.org/1999/02/22-rdf-syntax-ns#"
   xmlns:svg="http://www.w3.org/2000/svg"
   xmlns="http://www.w3.org/2000/svg"
   xmlns:xlink="http://www.w3.org/1999/xlink"
   xmlns:sodipodi="http://sodipodi.sourceforge.net/DTD/sodipodi-0.dtd"
   xmlns:inkscape="http://www.inkscape.org/namespaces/inkscape"
   version="1.0"
   x="0"
   y="0"
   width="90.0000000"
   height="90.0000000"
   id="svg604"
   sodipodi:version="0.32"
   sodipodi:docname="application-vnd.oasis.opendocument.text-master.svg"
   inkscape:version="0.46+devel"
   inkscape:output_extension="org.inkscape.output.svg.inkscape">
  <metadata
     id="metadata13">
    <rdf:RDF>
      <cc:Work
         rdf:about="">
        <dc:format>image/svg+xml</dc:format>
        <dc:type
           rdf:resource="http://purl.org/dc/dcmitype/StillImage" />
        <dc:title></dc:title>
      </cc:Work>
    </rdf:RDF>
  </metadata>
  <sodipodi:namedview
     id="base"
     inkscape:zoom="2.5208334"
     inkscape:cx="91.588651"
     inkscape:cy="39.134428"
     inkscape:window-width="689"
     inkscape:window-height="724"
     inkscape:window-x="5"
     inkscape:window-y="9"
     inkscape:current-layer="svg604"
     showgrid="false" />
  <defs
     id="defs606">
    <linearGradient
       id="linearGradient612">
      <stop
         style="stop-color:#7fa8e3;stop-opacity:0.7412;"
         offset="0"
         id="stop613" />
      <stop
         style="stop-color:#ffffff;stop-opacity:0;"
         offset="1"
         id="stop614" />
    </linearGradient>
    <linearGradient
       inkscape:collect="always"
       xlink:href="#linearGradient612"
       id="linearGradient3344"
       gradientUnits="userSpaceOnUse"
       gradientTransform="matrix(0.7549355,0,0,0.7549355,2.6238617,3.0536519)"
       spreadMethod="pad"
       x1="50.64389"
       y1="5.367929"
       x2="35.75209"
       y2="68.04436" />
  </defs>
  <path
     style="font-size:12px;fill:#000000;fill-opacity:0.29411765;fill-rule:evenodd;stroke-width:1"
     d="M 28.901219,5.2400511 C 26.964404,5.3305925 25.41281,5.9893727 24.218124,7.0646329 21.159522,8.9762164 7.4059091,49.520707 6.6413191,54.108435 5.1120438,58.313971 7.974847,61.36322 10.077615,62.319053 10.60919,62.43296 13.017456,62.940644 15.490541,63.474622 14.057667,67.618795 16.87437,70.647215 18.957247,71.594012 19.405189,71.689996 21.639386,72.160797 23.518701,72.567122 22.252939,76.601598 25.029519,79.512697 27.076636,80.443234 29.75287,81.016699 63.007671,88.310621 66.639652,88.501803 70.271721,88.692987 72.473909,85.430601 73.238557,82.75437 73.429655,80.269234 84.781198,41.657915 85.736943,39.937516 87.075059,36.592224 85.754482,35.354469 84.033999,33.825168 83.565472,33.408707 80.966505,32.514501 77.495915,31.453211 77.550433,31.315714 77.615975,31.115465 77.647962,31.057884 78.98608,27.712592 77.635096,26.474837 75.914611,24.945535 75.410357,24.49732 72.441561,23.502244 68.555463,22.330302 68.642547,22.098805 68.723973,21.862775 68.768331,21.782927 70.106448,18.437634 68.75546,17.199878 67.034979,15.670577 65.314578,14.141363 36.073767,6.4912483 32.824069,5.7266063 31.354534,5.3323374 30.063307,5.1857264 28.901219,5.2400511 z"
     id="path2532" />
  <use
     x="0"
     y="0"
     xlink:href="#g2503"
     id="use2512"
     transform="translate(16.985198,18.143281)"
     width="90"
     height="90" />
  <use
     x="0"
     y="0"
     xlink:href="#g2503"
     id="use2510"
     transform="translate(8.8786264,9.2646535)"
     width="90"
     height="90" />
  <g
     id="g2503"
     transform="matrix(0.9731104,0,0,0.9731104,-0.688172,-1.9162805)">
    <path
       id="path609"
       style="font-size:12px;fill:#3d4e67;fill-rule:evenodd;stroke-width:1"
       d="M 7.892117,62.435625 C 5.7312441,61.453377 2.7846535,58.310346 4.3561868,53.9886 5.1419046,49.274098 19.285705,7.6284677 22.428825,5.6640621 c 1.964317,-1.7679562 4.812825,-2.4555204 8.83987,-1.375084 3.339498,0.7857712 33.394984,8.6434829 35.162923,10.214954 1.768027,1.57156 3.14312,2.848419 1.768027,6.286151 C 67.217487,22.558022 55.529109,62.239157 55.332731,64.792965 54.546951,67.54315 52.287933,70.882649 48.5555,70.686182 44.823156,70.489714 10.642303,63.024937 7.892117,62.435625 z" />
    <path
       id="path608"
       style="font-size:12px;fill:#ffffff;fill-rule:evenodd;stroke-width:1"
       d="M 12.41033,59.096126 C 10.151312,58.506813 6.9098697,57.917412 8.0885842,54.381535 10.249457,45.738132 21.2502,12.539526 25.964702,8.4142477 c 1.080481,-0.9822472 4.714591,-1.3750928 11.590055,0.78578 7.857712,2.3572513 23.769424,7.6611553 25.340984,8.4469353 1.571471,0.78578 2.160873,0.78578 0.982158,4.321746 -1.767938,3.535965 -9.62556,33.787919 -11.590055,38.895356 -1.375004,3.634199 -1.669705,5.303904 -4.027045,5.303904" />
    <path
       id="path636"
       style="font-size:12px;fill:url(#linearGradient3344);fill-rule:evenodd;stroke-width:1"
       d="m 24.328257,13.434015 c 0,0 2.3591734,-4.7183846 8.257107,-3.3028806 5.897934,1.4155416 29.017834,7.5493926 28.781916,9.4367316 -0.235917,1.887339 -4.482429,12.975454 -4.718347,13.919123 -0.235917,0.94367 -21.940313,0.471835 -30.19742,5.426099 -8.257107,4.954264 -14.390958,9.200777 -14.390958,9.200777 0,0 8.4930244,-26.422743 12.267702,-34.67985 z" />
  </g>
  <g
     id="g2735">
    <path
       id="path757"
       d="m 84.3871,67.01163 c 0,10.68734 -8.73387,19.35112 -19.50765,19.35112 -10.77378,0 -19.50765,-8.66378 -19.50765,-19.35112 0,-10.68734 8.73387,-19.35115 19.50765,-19.35115 10.77378,0 19.50765,8.66381 19.50765,19.35115 z"
       style="font-size:12px;fill:#000000;fill-opacity:0.3;fill-rule:evenodd;stroke:none" />
    <path
       transform="matrix(0.904328,0,0,0.897073,34.65364,-9.909964)"
       id="path753"
       d="m 50.28572,81 c 0,11.91357 -9.65786,21.5714 -21.57143,21.5714 -11.91358,0 -21.571433,-9.65783 -21.571433,-21.5714 0,-11.91357 9.657853,-21.57143 21.571433,-21.57143 11.91357,0 21.57143,9.65786 21.57143,21.57143 z"
       style="font-size:12px;fill:#ffffff;fill-rule:evenodd;stroke:#000000;stroke-width:3.42787004;stroke-opacity:1" />
    <path
       transform="matrix(0.547743,0,0,0.587417,47.06005,33.93768)"
       sodipodi:nodetypes="ccccc"
       id="path1142"
       d="M 3.99999,44.1699 C 24.5714,49.3128 36.5715,60.417 38.5715,60.6835 48.762,52.874 58.9524,45.408 70.8572,42.1699 60,40.7413 50.0001,45.9963 40.2858,52.8534 27.7143,46.6629 16,42.6461 3.99999,44.1699 z"
       style="font-size:12px;fill-opacity:0.31297697;fill-rule:evenodd;stroke-width:1" />
    <path
       transform="matrix(0.362851,0,0,0.429546,59.32764,30.04829)"
       sodipodi:nodetypes="ccccc"
       id="path1143"
       d="M 2.85168,46.2147 C 23.4231,51.3576 32.2421,58.2857 36.9864,60.4717 47.1769,52.6622 57.7986,47.4528 69.7034,44.2147 58.8462,42.7861 47.132,44.5503 37.4177,51.4074 24.8462,45.2169 16.1456,45.4196 2.85168,46.2147 z"
       style="font-size:12px;fill-opacity:0.31297697;fill-rule:evenodd;stroke-width:1" />
    <path
       transform="matrix(0.547743,0,0,0.547743,45.33857,34.84163)"
       sodipodi:nodetypes="ccccc"
       id="path1136"
       d="M 3.71428,42.5714 C 24.2857,47.7143 39.1429,58.2857 39.1429,58.2857 49.3334,50.4762 59.5238,43.8095 71.4286,40.5714 60.5714,39.1428 49.1429,42 39.4286,48.8571 26.8571,42.6666 15.7143,41.0476 3.71428,42.5714 z"
       style="font-size:12px;fill-rule:evenodd;stroke-width:1" />
    <path
       transform="matrix(0.362851,0,0,0.400534,57.60617,31.21493)"
       sodipodi:nodetypes="ccccc"
       id="path1137"
       d="M 3.71428,42.5714 C 24.2857,47.7143 39.1429,58.2857 39.1429,58.2857 49.3334,50.4762 59.5238,43.8095 71.4286,40.5714 60.5714,39.1428 48.8572,42 39.1429,48.8571 26.5714,42.6666 15.7143,41.0476 3.71428,42.5714 z"
       style="font-size:12px;fill:#4b6983;fill-rule:evenodd;stroke-width:1" />
  </g>
</svg>
