<?xml version="1.0" encoding="UTF-8" standalone="no"?>
<!-- Created with Sodipodi ("http://www.sodipodi.com/") -->
<svg
   xmlns:dc="http://purl.org/dc/elements/1.1/"
   xmlns:cc="http://web.resource.org/cc/"
   xmlns:rdf="http://www.w3.org/1999/02/22-rdf-syntax-ns#"
   xmlns:svg="http://www.w3.org/2000/svg"
   xmlns="http://www.w3.org/2000/svg"
   xmlns:xlink="http://www.w3.org/1999/xlink"
   xmlns:sodipodi="http://sodipodi.sourceforge.net/DTD/sodipodi-0.dtd"
   xmlns:inkscape="http://www.inkscape.org/namespaces/inkscape"
   id="svg604"
   sodipodi:version="0.32"
   width="72pt"
   height="72pt"
   sodipodi:docbase="/home/tweenk/dev/GartoonRedux/scalable/mimetypes"
   sodipodi:docname="application-x-font-otf.svg"
   inkscape:version="0.45.1"
   inkscape:output_extension="org.inkscape.output.svg.inkscape">
  <metadata
     id="metadata14">
    <rdf:RDF>
      <cc:Work
         rdf:about="">
        <dc:format>image/svg+xml</dc:format>
        <dc:type
           rdf:resource="http://purl.org/dc/dcmitype/StillImage" />
      </cc:Work>
    </rdf:RDF>
  </metadata>
  <defs
     id="defs606">
    <linearGradient
       id="linearGradient612">
      <stop
         style="stop-color:#7fa8e3;stop-opacity:0.741176;"
         offset="0.000000"
         id="stop613" />
      <stop
         style="stop-color:#ffffff;stop-opacity:0;"
         offset="1.000000"
         id="stop614" />
    </linearGradient>
    <linearGradient
       xlink:href="#linearGradient612"
       id="linearGradient615"
       x1="50.6438866"
       y1="5.36792946"
       x2="35.7520943"
       y2="68.0443573"
       gradientUnits="userSpaceOnUse"
       spreadMethod="pad" />
  </defs>
  <sodipodi:namedview
     id="base"
     inkscape:zoom="4.5222222"
     inkscape:cx="62.690418"
     inkscape:cy="45"
     inkscape:window-width="795"
     inkscape:window-height="619"
     inkscape:window-x="219"
     inkscape:window-y="18"
     inkscape:current-layer="svg604" />
  <path
     style="fill:#000000;fill-rule:evenodd;stroke:none;stroke-opacity:1;stroke-width:1pt;stroke-linejoin:miter;stroke-linecap:butt;fill-opacity:0.301471;"
     d="M 12.8163 74.753 C 10.3856 73.6481 7.07107 70.1126 8.83884 65.2512 C 9.72267 59.948 25.6326 13.1021 29.1682 10.8924 C 31.3778 8.90368 34.582 8.13026 39.1119 9.34561 C 42.8684 10.2295 76.6769 19.0684 78.6656 20.8361 C 80.6544 22.6039 82.2012 24.0402 80.6544 27.9072 C 79.5496 29.8959 66.4017 74.532 66.1808 77.4047 C 65.2969 80.4983 62.7558 84.2548 58.5573 84.0338 C 54.3589 83.8128 15.9099 75.4159 12.8163 74.753 z "
     id="path794"
     sodipodi:nodetypes="ccccccccc"
     transform="matrix(1.114903,0.000000,0.000000,1.114903,-5.305332,-3.889256)" />
  <path
     style="fill:#3d4e67;fill-rule:evenodd;stroke:none;stroke-opacity:1;stroke-width:1pt;stroke-linejoin:miter;stroke-linecap:butt;fill-opacity:1;"
     d="M 12.8163 74.753 C 10.3856 73.6481 7.07107 70.1126 8.83884 65.2512 C 9.72267 59.948 25.6326 13.1021 29.1682 10.8924 C 31.3778 8.90368 34.582 8.13026 39.1119 9.34561 C 42.8684 10.2295 76.6769 19.0684 78.6656 20.8361 C 80.6544 22.6039 82.2012 24.0402 80.6544 27.9072 C 79.5496 29.8959 66.4017 74.532 66.1808 77.4047 C 65.2969 80.4983 62.7558 84.2548 58.5573 84.0338 C 54.3589 83.8128 15.9099 75.4159 12.8163 74.753 z "
     id="path609"
     sodipodi:nodetypes="ccccccccc"
     transform="matrix(1.114903,0.000000,0.000000,1.114903,-8.162471,-8.460684)" />
  <path
     style="fill:#ffffff;fill-rule:evenodd;stroke:none;stroke-opacity:1;stroke-width:1pt;stroke-linejoin:miter;stroke-linecap:butt;fill-opacity:1;"
     d="M 17.8987 70.9965 C 15.3576 70.3336 11.7114 69.6706 13.0373 65.6932 C 15.468 55.9705 27.8424 18.6264 33.1456 13.986 C 34.361 12.8811 38.4489 12.4392 46.1829 14.8699 C 55.0218 17.5215 72.9204 23.4877 74.6882 24.3716 C 76.4559 25.2555 77.1189 25.2555 75.793 29.233 C 73.8043 33.2105 64.9655 67.24 62.7557 72.9852 C 61.209 77.0732 60.8775 78.9514 58.2258 78.9514 "
     id="path608"
     sodipodi:nodetypes="cccccccs"
     transform="matrix(1.114903,0.000000,0.000000,1.114903,-8.162471,-8.460684)" />
  <path
     style="fill:url(#linearGradient615);fill-rule:evenodd;stroke:none;stroke-opacity:1;stroke-width:1pt;stroke-linejoin:miter;stroke-linecap:butt;fill-opacity:1;"
     d="M 28.75 13.75 C 28.75 13.75 31.875 7.49995 39.6875 9.37495 C 47.5 11.25 78.125 19.375 77.8125 21.875 C 77.5 24.375 71.875 39.0625 71.5625 40.3125 C 71.25 41.5625 42.5 40.9375 31.5625 47.5 C 20.625 54.0625 12.5 59.6875 12.5 59.6875 C 12.5 59.6875 23.75 24.6875 28.75 13.75 z "
     id="path636"
     transform="matrix(0.946780,0.000000,0.000000,0.946780,-0.480566,0.409517)" />
  <path
     style="font-size:33.30560303px;font-style:normal;font-weight:bold;fill:#000000;fill-opacity:0.29357796;stroke:none;stroke-width:1px;stroke-linecap:butt;stroke-linejoin:miter;stroke-opacity:1;font-family:DejaVu Sans"
     d="M 29.945831,47.979718 C 32.038083,48.491786 33.80941,47.990669 35.259819,46.476363 C 36.710186,44.962055 37.879085,42.391968 38.76652,38.766096 C 39.656586,35.129282 39.808078,32.304386 39.220994,30.291399 C 38.633862,28.278443 37.294175,27.015923 35.201928,26.503832 C 33.120595,25.994463 31.346585,26.506535 29.879896,28.040051 C 28.426812,29.565329 27.259253,32.129938 26.377217,35.733886 C 25.497838,39.3269 25.349028,42.140841 25.930785,44.17572 C 26.526155,46.202329 27.864503,47.470327 29.945831,47.979718 M 29.459229,49.967922 C 25.329451,48.957183 22.368604,47.036657 20.576679,44.206341 C 18.784744,41.376028 18.374038,37.978146 19.344563,34.012685 C 20.315079,30.047248 22.24859,27.223099 25.1451,25.540231 C 28.055227,23.849129 31.569699,23.507596 35.688529,24.515628 C 39.818272,25.526386 42.779119,27.446912 44.571078,30.277211 C 46.362979,33.10754 46.772344,36.510899 45.799173,40.487297 C 44.828622,44.452751 42.889634,47.27556 39.982204,48.95573 C 37.085678,50.638576 33.578022,50.975972 29.459229,49.967922 M 55.826031,54.453071 C 57.052899,54.753342 58.041498,54.437994 58.791829,53.507028 C 59.553087,52.578744 60.276892,50.712454 60.963242,47.908153 C 61.649562,45.103863 61.873604,43.121063 61.635374,41.959752 C 61.39979,40.787508 60.663089,40.049904 59.425271,39.746938 C 58.187422,39.443999 57.186529,39.762142 56.422588,40.701368 C 55.661303,41.629666 54.94018,43.485002 54.259218,46.267382 C 53.578235,49.049775 53.359668,51.033914 53.603518,52.219804 C 53.847349,53.405695 54.588185,54.150118 55.826031,54.453071 M 55.371601,56.309823 C 52.293438,55.556461 50.077753,54.149208 48.724542,52.088059 C 47.384957,50.01864 47.066376,47.548919 47.768801,44.67889 C 48.473899,41.797924 49.89571,39.759958 52.034234,38.564989 C 54.18638,37.361775 56.801532,37.136841 59.879701,37.890185 C 62.968791,38.646242 65.184476,40.053495 66.526761,42.111951 C 67.871681,44.159473 68.1916,46.623716 67.486522,49.504688 C 66.784078,52.374712 65.355451,54.416815 63.200636,55.630999 C 61.059418,56.836905 58.449742,57.063181 55.371601,56.309823"
     id="text2173" />
  <path
     style="font-size:33.30560303px;font-style:normal;font-weight:bold;fill:#3d4e67;fill-opacity:1;stroke:none;stroke-width:1px;stroke-linecap:butt;stroke-linejoin:miter;stroke-opacity:1;font-family:DejaVu Sans"
     d="M 29.214919,46.449073 C 31.307171,46.961141 33.078499,46.460023 34.528906,44.945718 C 35.979275,43.43141 37.148174,40.861324 38.035607,37.235451 C 38.925674,33.598637 39.077165,30.773741 38.490082,28.760754 C 37.902951,26.747798 36.563264,25.485277 34.471017,24.973187 C 32.389684,24.463818 30.615675,24.97589 29.148985,26.509406 C 27.695901,28.034684 26.528342,30.599294 25.646306,34.203241 C 24.766928,37.796255 24.618117,40.610196 25.199874,42.645074 C 25.795245,44.671684 27.133591,45.939682 29.214919,46.449073 M 28.728317,48.437276 C 24.598539,47.426537 21.637692,45.506011 19.845768,42.675696 C 18.053832,39.845383 17.643127,36.447501 18.613651,32.482039 C 19.584168,28.516602 21.517678,25.692454 24.41419,24.009585 C 27.324315,22.318485 30.838789,21.976951 34.957618,22.984983 C 39.08736,23.99574 42.048207,25.916266 43.840166,28.746564 C 45.632068,31.576894 46.041432,34.980254 45.068262,38.956652 C 44.09771,42.922106 42.158723,45.744914 39.251292,47.425084 C 36.354766,49.10793 32.847112,49.445327 28.728317,48.437276 M 55.09512,52.922427 C 56.321987,53.222697 57.310585,52.907349 58.060918,51.976383 C 58.822176,51.048098 59.54598,49.181809 60.232331,46.377508 C 60.91865,43.573217 61.142694,41.59042 60.904463,40.429107 C 60.668879,39.256862 59.932178,38.519259 58.69436,38.216293 C 57.456511,37.913354 56.455618,38.231496 55.691676,39.170723 C 54.930392,40.099021 54.209269,41.954357 53.528306,44.736736 C 52.847323,47.51913 52.628756,49.503269 52.872606,50.689159 C 53.116437,51.875051 53.857274,52.619472 55.09512,52.922427 M 54.640691,54.779179 C 51.562527,54.025816 49.346842,52.618562 47.993631,50.557414 C 46.654044,48.487995 46.335465,46.018275 47.03789,43.148245 C 47.742987,40.267277 49.164798,38.229313 51.303323,37.034344 C 53.455469,35.831129 56.070621,35.606195 59.148789,36.359541 C 62.23788,37.115597 64.453564,38.522849 65.795849,40.581305 C 67.14077,42.628827 67.46069,45.09307 66.755612,47.974042 C 66.053167,50.844068 64.624539,52.886169 62.469724,54.100354 C 60.328507,55.30626 57.718831,55.532535 54.640691,54.779179"
     id="text2169" />
</svg>
