<?xml version="1.0" encoding="UTF-8" standalone="no"?>
<!DOCTYPE svg PUBLIC "-//W3C//DTD SVG 20010904//EN"
"http://www.w3.org/TR/2001/REC-SVG-20010904/DTD/svg10.dtd">
<!-- Created with Sodipodi ("http://www.sodipodi.com/") -->
<svg
   xmlns="http://www.w3.org/2000/svg"
   xmlns:sodipodi="http://sodipodi.sourceforge.net/DTD/sodipodi-0.dtd"
   xmlns:xlink="http://www.w3.org/1999/xlink"
   id="svg604"
   sodipodi:version="0.34"
   width="72pt"
   height="72pt"
   sodipodi:docbase="/home/zeus/images/icons/gartoon/svg"
   sodipodi:docname="/home/zeus/images/icons/gartoon/svg/font.svg">
  <defs
     id="defs606">
    <linearGradient
       id="linearGradient612">
      <stop
         style="stop-color:#7fa8e3;stop-opacity:0.741176;"
         offset="0.000000"
         id="stop613" />
      <stop
         style="stop-color:#ffffff;stop-opacity:0;"
         offset="1.000000"
         id="stop614" />
    </linearGradient>
    <linearGradient
       xlink:href="#linearGradient612"
       id="linearGradient615"
       x1="50.6438866"
       y1="5.36792946"
       x2="35.7520943"
       y2="68.0443573"
       gradientUnits="userSpaceOnUse"
       spreadMethod="pad" />
  </defs>
  <sodipodi:namedview
     id="base" />
  <path
     style="fill:#000000;fill-rule:evenodd;stroke:none;stroke-opacity:1;stroke-width:1pt;stroke-linejoin:miter;stroke-linecap:butt;fill-opacity:0.301471;"
     d="M 12.8163 74.753 C 10.3856 73.6481 7.07107 70.1126 8.83884 65.2512 C 9.72267 59.948 25.6326 13.1021 29.1682 10.8924 C 31.3778 8.90368 34.582 8.13026 39.1119 9.34561 C 42.8684 10.2295 76.6769 19.0684 78.6656 20.8361 C 80.6544 22.6039 82.2012 24.0402 80.6544 27.9072 C 79.5496 29.8959 66.4017 74.532 66.1808 77.4047 C 65.2969 80.4983 62.7558 84.2548 58.5573 84.0338 C 54.3589 83.8128 15.9099 75.4159 12.8163 74.753 z "
     id="path794"
     sodipodi:nodetypes="ccccccccc"
     transform="matrix(1.114903,0.000000,0.000000,1.114903,-5.305332,-3.889256)" />
  <path
     style="fill:#3d4e67;fill-rule:evenodd;stroke:none;stroke-opacity:1;stroke-width:1pt;stroke-linejoin:miter;stroke-linecap:butt;fill-opacity:1;"
     d="M 12.8163 74.753 C 10.3856 73.6481 7.07107 70.1126 8.83884 65.2512 C 9.72267 59.948 25.6326 13.1021 29.1682 10.8924 C 31.3778 8.90368 34.582 8.13026 39.1119 9.34561 C 42.8684 10.2295 76.6769 19.0684 78.6656 20.8361 C 80.6544 22.6039 82.2012 24.0402 80.6544 27.9072 C 79.5496 29.8959 66.4017 74.532 66.1808 77.4047 C 65.2969 80.4983 62.7558 84.2548 58.5573 84.0338 C 54.3589 83.8128 15.9099 75.4159 12.8163 74.753 z "
     id="path609"
     sodipodi:nodetypes="ccccccccc"
     transform="matrix(1.114903,0.000000,0.000000,1.114903,-8.162471,-8.460684)" />
  <path
     style="fill:#ffffff;fill-rule:evenodd;stroke:none;stroke-opacity:1;stroke-width:1pt;stroke-linejoin:miter;stroke-linecap:butt;fill-opacity:1;"
     d="M 17.8987 70.9965 C 15.3576 70.3336 11.7114 69.6706 13.0373 65.6932 C 15.468 55.9705 27.8424 18.6264 33.1456 13.986 C 34.361 12.8811 38.4489 12.4392 46.1829 14.8699 C 55.0218 17.5215 72.9204 23.4877 74.6882 24.3716 C 76.4559 25.2555 77.1189 25.2555 75.793 29.233 C 73.8043 33.2105 64.9655 67.24 62.7557 72.9852 C 61.209 77.0732 60.8775 78.9514 58.2258 78.9514 "
     id="path608"
     sodipodi:nodetypes="cccccccs"
     transform="matrix(1.114903,0.000000,0.000000,1.114903,-8.162471,-8.460684)" />
  <path
     style="fill:url(#linearGradient615);fill-rule:evenodd;stroke:none;stroke-opacity:1;stroke-width:1pt;stroke-linejoin:miter;stroke-linecap:butt;fill-opacity:1;"
     d="M 28.75 13.75 C 28.75 13.75 31.875 7.49995 39.6875 9.37495 C 47.5 11.25 78.125 19.375 77.8125 21.875 C 77.5 24.375 71.875 39.0625 71.5625 40.3125 C 71.25 41.5625 42.5 40.9375 31.5625 47.5 C 20.625 54.0625 12.5 59.6875 12.5 59.6875 C 12.5 59.6875 23.75 24.6875 28.75 13.75 z "
     id="path636"
     transform="matrix(0.946780,0.000000,0.000000,0.946780,-0.480566,0.409517)" />
  <path
     style="font-size:36;font-weight:bold;fill:#000000;stroke-width:1;font-family:Bitstream Vera Serif;fill-opacity:0.2993;"
     d="M 16.15494 46.27172 L 16.67636 44.1256 L 18.75545 44.67275 L 34.24516 22.85872 L 38.31815 23.93061 L 42.00039 50.79017 L 44.42032 51.42703 L 43.8989 53.57315 L 31.98672 50.43819 L 32.50813 48.29208 L 34.99623 48.94687 L 34.21441 42.98558 L 24.65399 40.46954 L 21.20946 45.31858 L 24.24289 46.11689 L 23.72147 48.26301 L 16.15494 46.27172 z M 26.01045 38.54318 L 33.90078 40.6197 L 32.44174 29.46059 L 26.01045 38.54318 z M 65.54395 46.94702 L 63.25145 56.38287 L 65.84179 57.06458 L 65.32037 59.2107 L 56.69725 56.94133 L 57.279 54.54689 C 56.2424 55.33085 55.17812 55.83074 54.08615 56.04658 C 52.99417 56.26241 51.82332 56.2059 50.57359 55.877 C 48.72172 55.38964 47.42086 54.50003 46.67101 53.20821 C 45.9354 51.90753 45.80173 50.29352 46.27 48.36614 C 46.78423 46.24958 47.87926 44.85198 49.55509 44.17336 C 51.24228 43.49773 53.52306 43.53813 56.39743 44.29459 L 59.56719 45.12878 L 59.83867 44.01138 C 60.20927 42.48604 60.13567 41.27153 59.61788 40.36786 C 59.10296 39.45236 58.11839 38.80325 56.66416 38.42054 C 55.45989 38.1036 54.46507 38.11857 53.67971 38.46542 C 52.90859 38.80345 52.2445 39.52188 51.68742 40.62073 L 49.7617 40.11393 L 50.74851 36.05226 C 51.92551 35.93428 53.11783 35.92727 54.32551 36.03123 C 55.53319 36.13519 56.77893 36.3561 58.06274 36.69397 C 61.30067 37.5461 63.51722 38.79619 64.71238 40.44425 C 65.91889 42.0953 66.19608 44.26288 65.54395 46.94702 z M 58.13653 51.01732 L 59.05439 47.23944 L 56.78784 46.64294 C 55.66309 46.34693 54.72208 46.43895 53.9648 46.91901 C 53.20752 47.39906 52.68382 48.23621 52.39366 49.43048 C 52.10351 50.62473 52.10247 51.57428 52.39056 52.27912 C 52.69 52.98695 53.28848 53.45896 54.18602 53.69517 C 55.11763 53.94035 55.94504 53.81842 56.66823 53.32941 C 57.39141 52.84039 57.88085 52.06969 58.13653 51.01732 z "
     id="path631" />
  <path
     transform="matrix(0.969486,0.245147,-0.245147,0.969486,0,0)"
     style="font-size:36;font-weight:bold;fill:#3d4e67;stroke-width:1;font-family:Bitstream Vera Serif;"
     d="M 26.15846 39.87377 L 26.15846 37.74682 L 28.30299 37.74682 L 38.18189 13.62963 L 42.38307 13.62963 L 52.27955 37.74682 L 54.77564 37.74682 L 54.77564 39.87377 L 42.48853 39.87377 L 42.48853 37.74682 L 45.05494 37.74682 L 42.89283 32.38549 L 33.0315 32.38549 L 30.83424 37.74682 L 33.96314 37.74682 L 33.96314 39.87377 L 26.15846 39.87377 z M 33.89283 30.25854 L 42.0315 30.25854 L 37.98853 20.22143 L 33.89283 30.25854 z M 74.19947 28.39526 L 74.19947 37.74682 L 76.87134 37.74682 L 76.87134 39.87377 L 67.97681 39.87377 L 67.97681 37.50072 C 67.1565 38.4851 66.24244 39.21166 65.23463 39.68041 C 64.22681 40.14916 63.07838 40.38354 61.78931 40.38354 C 59.87916 40.38354 58.40845 39.87377 57.3772 38.85424 C 56.35767 37.82299 55.84791 36.35229 55.84791 34.44213 C 55.84791 32.34448 56.58033 30.77416 58.04517 29.73119 C 59.52174 28.68823 61.74244 28.16674 64.70728 28.16674 L 67.97681 28.16674 L 67.97681 27.05932 C 67.97681 25.5476 67.61939 24.43432 66.90455 23.71948 C 66.1897 22.99291 65.08228 22.62963 63.58228 22.62963 C 62.3401 22.62963 61.37916 22.88744 60.69947 23.40307 C 60.0315 23.90698 59.55689 24.73901 59.27564 25.89916 L 57.28931 25.89916 L 57.28931 21.87377 C 58.4026 21.47533 59.55689 21.17651 60.7522 20.97729 C 61.94752 20.77807 63.20728 20.67846 64.5315 20.67846 C 67.87134 20.67846 70.3147 21.29955 71.86158 22.54174 C 73.42017 23.78393 74.19947 25.7351 74.19947 28.39526 z M 67.97681 34.00268 L 67.97681 30.25854 L 65.63892 30.25854 C 64.47877 30.25854 63.58814 30.57494 62.96705 31.20776 C 62.34595 31.84057 62.03541 32.74877 62.03541 33.93237 C 62.03541 35.11596 62.25806 36.00072 62.70338 36.58666 C 63.16041 37.1726 63.85181 37.46557 64.7776 37.46557 C 65.73853 37.46557 66.51197 37.14916 67.09791 36.51635 C 67.68384 35.88354 67.97681 35.04565 67.97681 34.00268 z "
     id="path630" />
</svg>
