<?xml version="1.0" encoding="UTF-8" standalone="no"?>
<!-- Created with Sodipodi ("http://www.sodipodi.com/") -->
<svg
   xmlns:ns="http://creativecommons.org/ns#"
   xmlns:dc="http://purl.org/dc/elements/1.1/"
   xmlns:cc="http://web.resource.org/cc/"
   xmlns:rdf="http://www.w3.org/1999/02/22-rdf-syntax-ns#"
   xmlns:svg="http://www.w3.org/2000/svg"
   xmlns="http://www.w3.org/2000/svg"
   xmlns:xlink="http://www.w3.org/1999/xlink"
   xmlns:sodipodi="http://sodipodi.sourceforge.net/DTD/sodipodi-0.dtd"
   xmlns:inkscape="http://www.inkscape.org/namespaces/inkscape"
   id="svg548"
   sodipodi:version="0.32"
   width="72pt"
   height="72pt"
   sodipodi:docbase="/home/tweenk/dev/GartoonRedux/scalable/mimetypes"
   sodipodi:docname="application-x-rar.svg"
   inkscape:version="0.45.1"
   inkscape:output_extension="org.inkscape.output.svg.inkscape">
  <metadata
     id="metadata27">
    <rdf:RDF>
      <ns:Work
         rdf:about="">
        <dc:format>image/svg+xml</dc:format>
        <dc:type
           rdf:resource="http://purl.org/dc/dcmitype/StillImage" />
      </ns:Work>
      <cc:Work
         rdf:about="">
        <dc:format>image/svg+xml</dc:format>
        <dc:type
           rdf:resource="http://purl.org/dc/dcmitype/StillImage" />
      </cc:Work>
    </rdf:RDF>
  </metadata>
  <defs
     id="defs550">
    <linearGradient
       xlink:href="#linearGradient666"
       id="linearGradient665"
       x1="77.3604736"
       y1="65.4081421"
       x2="55.6024742"
       y2="83.4317398"
       gradientUnits="userSpaceOnUse"
       gradientTransform="matrix(-0.5673405,0.1106277,7.6339467e-2,0.3914974,82.37531,46.211719)"
       spreadMethod="pad" />
    <linearGradient
       xlink:href="#linearGradient660"
       id="linearGradient663"
       x1="24.8720913"
       y1="97.8506012"
       x2="54.9295425"
       y2="95.5566864"
       gradientUnits="userSpaceOnUse"
       gradientTransform="matrix(-0.5673405,0.1106277,7.6339467e-2,0.3914974,82.37531,46.211719)"
       spreadMethod="pad" />
    <linearGradient
       id="linearGradient666">
      <stop
         style="stop-color:#a6d7ff;stop-opacity:1;"
         offset="0.000000"
         id="stop667" />
      <stop
         style="stop-color:#ffffff;stop-opacity:0.396078;"
         offset="1.000000"
         id="stop668" />
    </linearGradient>
    <linearGradient
       inkscape:collect="always"
       xlink:href="#linearGradient666"
       id="linearGradient2424"
       gradientUnits="userSpaceOnUse"
       gradientTransform="matrix(-0.5673405,0.1106277,7.6339467e-2,0.3914974,118.96627,117.94415)"
       spreadMethod="pad"
       x1="77.3604736"
       y1="65.4081421"
       x2="55.6024742"
       y2="83.4317398" />
    <linearGradient
       id="linearGradient660">
      <stop
         style="stop-color:#3882d2;stop-opacity:1;"
         offset="0.000000"
         id="stop661" />
      <stop
         style="stop-color:#ffffff;stop-opacity:1;"
         offset="1.000000"
         id="stop662" />
    </linearGradient>
    <linearGradient
       inkscape:collect="always"
       xlink:href="#linearGradient660"
       id="linearGradient2422"
       gradientUnits="userSpaceOnUse"
       gradientTransform="matrix(-0.5673405,0.1106277,7.6339467e-2,0.3914974,118.96627,117.94415)"
       spreadMethod="pad"
       x1="24.8720913"
       y1="97.8506012"
       x2="54.9295425"
       y2="95.5566864" />
    <inkscape:perspective
       sodipodi:type="inkscape:persp3d"
       inkscape:vp_x="-50 : 600 : 1"
       inkscape:vp_y="0 : 1000 : 0"
       inkscape:vp_z="700 : 600 : 1"
       inkscape:persp3d-origin="300 : 400 : 1"
       id="perspective29" />
    <linearGradient
       id="linearGradient569">
      <stop
         style="stop-color:#c57700;stop-opacity:1;"
         offset="0.000000"
         id="stop570" />
      <stop
         style="stop-color:#ffa75f;stop-opacity:0;"
         offset="1.000000"
         id="stop571" />
    </linearGradient>
    <linearGradient
       id="linearGradient559">
      <stop
         style="stop-color:#945700;stop-opacity:1;"
         offset="0.000000"
         id="stop560" />
      <stop
         style="stop-color:#ffa75f;stop-opacity:0;"
         offset="1.000000"
         id="stop561" />
    </linearGradient>
    <linearGradient
       xlink:href="#linearGradient559"
       id="linearGradient562"
       x1="40.9153252"
       y1="31.7318363"
       x2="42.7533417"
       y2="35.4855690"
       gradientUnits="userSpaceOnUse"
       spreadMethod="pad"
       gradientTransform="matrix(1.2287685,0,0,0.7275398,-7.1389191,1.8739714)" />
    <linearGradient
       xlink:href="#linearGradient559"
       id="linearGradient566"
       x1="59.0300407"
       y1="48.8431816"
       x2="58.3435440"
       y2="23.6183739"
       gradientUnits="userSpaceOnUse"
       spreadMethod="pad"
       gradientTransform="matrix(0.5734264,0,0,1.5590094,-6.8541051,2.1587764)" />
    <linearGradient
       xlink:href="#linearGradient569"
       id="linearGradient568"
       x1="92.7804184"
       y1="64.9443817"
       x2="90.8925323"
       y2="42.8786545"
       gradientUnits="userSpaceOnUse"
       spreadMethod="pad"
       gradientTransform="matrix(0.7296653,0,0,1.2251888,-7.1389191,1.8739714)" />
  </defs>
  <sodipodi:namedview
     id="base"
     showgrid="false"
     inkscape:zoom="3.9205143"
     inkscape:cx="67.82325"
     inkscape:cy="40.330759"
     inkscape:window-width="795"
     inkscape:window-height="711"
     inkscape:window-x="0"
     inkscape:window-y="1"
     inkscape:current-layer="svg548" />
  <path
     style="fill:#000000;fill-opacity:0.3;fill-rule:evenodd;stroke:none;stroke-width:1pt;stroke-linecap:butt;stroke-linejoin:miter;stroke-opacity:1"
     d="M 41.126783,86.944379 C 40.267791,86.568459 6.0797264,81.723193 6.0797264,81.723193 L 2.987337,83.117462 L 2.1283386,79.619442 L 4.7053256,76.584302 L 2.1283386,75.664742 L 16.731279,64.779378 L 18.105647,65.755471 L 18.44926,63.449718 L 22.572446,63.047793 L 67.240265,72.39582 L 41.126783,86.944379 z "
     id="path594" />
  <path
     style="fill:#593a28;fill-opacity:1;fill-rule:evenodd;stroke:none;stroke-width:1pt;stroke-linecap:butt;stroke-linejoin:miter;stroke-opacity:1"
     d="M 16.673693,33.243336 C 19.97407,48.138049 19.287161,71.577094 13.758515,83.054094 L 40.68316,87.362945 L 73.900512,75.358259 C 72.191703,59.003214 70.767585,40.369694 74.185298,24.584221 L 80.04279,11.201955 L 74.138779,11.989068 L 74.926006,8.0531426 C 67.428537,2.8625904 57.937379,1.9442 48.161435,5.2979534 L 47.571062,9.6275486 L 41.863905,4.7075618 C 29.375972,5.2465936 18.027277,8.6337294 7.8178196,18.286692 L 16.673693,33.243336 z "
     id="path564"
     sodipodi:nodetypes="ccccccccccccc" />
  <path
     style="fill:url(#linearGradient562);fill-opacity:1;fill-rule:evenodd;stroke:none;stroke-width:1pt;stroke-linecap:butt;stroke-linejoin:miter;stroke-opacity:1"
     d="M 49.539129,19.270583 C 49.145515,19.270583 21.003251,29.307392 21.003251,29.307392 C 21.003251,29.307392 23.56169,48.003221 29.071993,48.396834 C 34.58239,48.790447 68.431717,22.025876 68.431717,22.025876"
     id="path558"
     sodipodi:nodetypes="cccc" />
  <path
     style="fill:#e9a93d;fill-opacity:1;fill-rule:evenodd;stroke:none;stroke-width:1pt;stroke-linecap:butt;stroke-linejoin:miter;stroke-opacity:1"
     d="M 20.806491,31.472123 L 38.911947,33.046576 C 36.895849,50.497649 36.58856,67.09427 39.699079,82.836533 C 39.699079,82.836533 21.200105,81.065415 21.200105,79.884575 C 21.200105,78.70383 26.217894,52.087231 20.806491,31.472123 z "
     id="path552"
     sodipodi:nodetypes="ccccc" />
  <path
     style="fill:#ffe6ba;fill-opacity:1;fill-rule:evenodd;stroke:none;stroke-width:1pt;stroke-linecap:butt;stroke-linejoin:miter;stroke-opacity:1"
     d="M 69.394996,23.885021 L 38.518334,33.44019 L 39.305561,83.033387 C 39.305561,83.033387 68.82533,72.012687 68.82533,70.831847 C 68.82533,69.651102 64.837951,35.955892 69.394996,23.885021 z "
     id="path553"
     sodipodi:nodetypes="ccccc" />
  <path
     style="fill:#e3c084;fill-opacity:1;fill-rule:evenodd;stroke:none;stroke-width:1pt;stroke-linecap:butt;stroke-linejoin:miter;stroke-opacity:1"
     d="M 50.326261,19.270678 L 42.847891,9.8243269 C 33.663927,11.08821 23.625606,12.352141 15.296094,20.451423 L 20.412878,29.897764 L 50.326261,19.270678 z "
     id="path556"
     sodipodi:nodetypes="ccccc" />
  <path
     style="fill:#e3b463;fill-opacity:1;fill-rule:evenodd;stroke:none;stroke-width:1pt;stroke-linecap:butt;stroke-linejoin:miter;stroke-opacity:1"
     d="M 49.539034,19.467532 L 69.612462,23.206622 L 71.186916,12.973148 C 64.079751,10.608282 57.542253,9.3826536 50.719874,11.005129 L 49.539034,19.467532 z "
     id="path557"
     sodipodi:nodetypes="ccccc" />
  <path
     style="fill:#c89134;fill-opacity:1;fill-rule:evenodd;stroke:none;stroke-width:1pt;stroke-linecap:butt;stroke-linejoin:miter;stroke-opacity:1"
     d="M 38.911947,33.046576 C 37.731107,30.422614 36.550362,27.798556 35.369522,25.174594 C 28.832024,22.217719 21.724859,20.400082 14.902481,23.993848 C 16.739311,26.486575 18.576047,28.979396 20.412878,31.472123 C 26.579266,31.996972 32.745559,32.521727 38.911947,33.046576 z "
     id="path554"
     sodipodi:nodetypes="ccccc" />
  <path
     style="fill:#e3c084;fill-opacity:1;fill-rule:evenodd;stroke:none;stroke-width:1pt;stroke-linecap:butt;stroke-linejoin:miter;stroke-opacity:1"
     d="M 38.518334,34.227322 L 43.241505,24.78098 C 53.343837,18.915263 63.730955,16.182567 73.548406,15.728252 C 72.039666,18.483451 70.53083,21.23865 69.02209,23.993848 L 38.518334,34.227322 z "
     id="path555"
     sodipodi:nodetypes="ccccc" />
  <path
     style="fill:url(#linearGradient566);fill-opacity:1;fill-rule:evenodd;stroke:none;stroke-width:1pt;stroke-linecap:butt;stroke-linejoin:miter;stroke-opacity:1"
     d="M 21.091305,31.756928 C 27.126457,32.281777 33.161609,32.806532 39.196761,33.331381 C 35.75664,51.06724 37.158255,66.823205 39.983893,82.850254 C 39.983893,82.850254 21.123473,81.079136 21.123473,79.898296 C 25.658665,49.125869 21.99492,37.572228 21.091305,31.756928 z "
     id="path565"
     sodipodi:nodetypes="ccccc" />
  <path
     style="fill:url(#linearGradient568);fill-opacity:1;fill-rule:evenodd;stroke:none;stroke-width:1pt;stroke-linecap:butt;stroke-linejoin:miter;stroke-opacity:1"
     d="M 59.426642,32.144566 L 38.518334,33.44019 L 39.305561,83.033387 C 39.305561,83.033387 68.82533,72.012687 68.82533,70.831847 C 67.740993,53.386042 59.426642,32.538179 59.426642,32.144566 z "
     id="path567"
     sodipodi:nodetypes="ccccc" />
  <path
     style="font-size:12px;fill:#ffffff;fill-opacity:0.70434804;fill-rule:evenodd;stroke-width:1pt"
     d="M 23.012112,70.804052 L 23.012112,77.880852 L 35.292412,79.754152 L 35.292412,72.677352 L 23.012112,70.804052 z "
     id="path573"
     sodipodi:nodetypes="ccccc" />
  <g
     id="g2305"
     transform="matrix(1.0552122,0,0,0.9716408,-5.1773415,1.7622814)">
    <path
       sodipodi:nodetypes="ccccccccc"
       id="path690"
       d="M 45.980762,61.369016 C 43.533179,63.429708 44.805374,73.333658 45.440845,75.595165 L 64.578472,90.117966 L 84.007129,79.5967 L 86.834214,77.677854 L 83.088086,75.114947 L 83.553977,63.997938 C 83.03922,63.579859 66.096535,55.318446 64.85141,54.488022 C 63.498666,55.027529 46.694021,61.13429 45.980762,61.369016 z "
       style="fill:#00043b;fill-opacity:1;fill-rule:evenodd;stroke:none;stroke-width:1pt;stroke-linecap:butt;stroke-linejoin:miter;stroke-opacity:1" />
    <path
       sodipodi:nodetypes="cccccc"
       id="path680"
       d="M 64.979355,87.655683 L 63.361134,86.026168 L 81.203556,76.769178 L 79.419821,74.850393 L 84.830162,77.46304 L 64.979355,87.655683 z "
       style="font-size:12px;fill:#ed0000;fill-opacity:1;fill-rule:evenodd;stroke-width:1pt" />
    <path
       sodipodi:nodetypes="cccccc"
       id="path681"
       d="M 62.272609,73.922802 L 61.46578,84.367082 L 63.746011,86.288279 L 81.199438,76.789207 L 80.912825,65.746694 L 62.272609,73.922802 z "
       style="font-size:12px;fill:url(#linearGradient663);fill-rule:evenodd;stroke-width:1pt" />
    <path
       sodipodi:nodetypes="cccccc"
       id="path682"
       d="M 62.690666,73.911729 L 61.46578,84.367082 L 63.746011,86.288279 L 81.141057,76.77893 L 80.986788,65.639159 L 62.690666,73.911729 z "
       style="font-size:12px;fill:url(#linearGradient665);fill-rule:evenodd;stroke-width:1pt" />
    <path
       sodipodi:nodetypes="ccccc"
       id="path683"
       d="M 46.456618,62.466676 L 63.751162,74.18314 L 81.964584,65.737114 L 65.117975,56.275242 L 46.456618,62.466676 z "
       style="font-size:12px;fill:#ff933d;fill-opacity:1;fill-rule:evenodd;stroke-width:1pt" />
    <path
       sodipodi:nodetypes="ccccc"
       id="path684"
       d="M 46.855394,62.316663 C 45.402184,65.121142 45.4765,72.983449 47.351805,75.204389 L 64.237077,86.888377 C 63.14782,84.729201 62.443277,76.48296 64.190758,73.877076 L 46.855394,62.316663 z "
       style="font-size:12px;fill:#ed0000;fill-opacity:1;fill-rule:evenodd;stroke-width:1pt" />
    <path
       id="path685"
       d="M 63.459801,81.898782 L 77.104217,75.49376"
       style="font-size:12px;fill:none;fill-rule:evenodd;stroke:#000008;stroke-width:0.48713222;stroke-opacity:1" />
    <path
       sodipodi:nodetypes="cc"
       id="path686"
       d="M 63.795814,84.105437 L 76.72995,77.662125"
       style="font-size:12px;fill:none;fill-rule:evenodd;stroke:#000000;stroke-width:0.48713222;stroke-opacity:1" />
  </g>
  <g
     id="g2412"
     transform="matrix(-1.5633988,0.2941061,0.3194022,1.4395797,119.3719,-83.469153)">
    <path
       sodipodi:nodetypes="ccccccccc"
       id="path2392"
       d="M 63.105129,76.626678 C 65.020045,77.690807 65.462928,84.513379 65.332221,86.116478 L 54.374076,98.384256 L 39.938482,93.859538 L 37.787113,92.940467 L 39.968811,90.727182 L 38.1989,83.317151 C 38.49005,82.96873 48.793621,75.196492 49.521574,74.475248 C 50.501372,74.66055 62.595031,76.562401 63.105129,76.626678 z "
       style="fill:#00043b;fill-opacity:1;fill-rule:evenodd;stroke:none;stroke-width:1pt;stroke-linecap:butt;stroke-linejoin:miter;stroke-opacity:1" />
    <path
       sodipodi:nodetypes="cccccc"
       id="path2394"
       d="M 53.782,96.782035 L 54.655973,95.474877 L 41.452068,91.591938 L 42.399365,90.068689 L 39.105767,92.533484 L 53.782,96.782035 z "
       style="font-size:12px;fill:#34674b;fill-opacity:1;fill-rule:evenodd;stroke-width:1pt" />
    <path
       sodipodi:nodetypes="cccccc"
       id="path2396"
       d="M 53.801437,87.198277 L 55.712315,94.111529 L 54.431668,95.701462 L 41.45746,91.604858 L 40.203024,84.146281 L 53.801437,87.198277 z "
       style="font-size:12px;fill:url(#linearGradient2422);fill-rule:evenodd;stroke-width:1pt" />
    <path
       sodipodi:nodetypes="cccccc"
       id="path2398"
       d="M 53.519035,87.245619 L 55.712315,94.111529 L 54.431668,95.701462 L 41.495347,91.590301 L 40.139227,84.083705 L 53.519035,87.245619 z "
       style="font-size:12px;fill:url(#linearGradient2424);fill-rule:evenodd;stroke-width:1pt" />
    <path
       sodipodi:nodetypes="ccccc"
       id="path2400"
       d="M 62.929176,77.426708 L 52.841905,87.56699 L 39.494945,84.277669 L 49.576635,75.711264 L 62.929176,77.426708 z "
       style="font-size:12px;fill:#2aaf18;fill-opacity:1;fill-rule:evenodd;stroke-width:1pt" />
    <path
       sodipodi:nodetypes="ccccc"
       id="path2402"
       d="M 62.641524,77.378151 C 63.985649,79.072441 64.966011,84.36597 63.99677,86.104279 L 54.180291,96.169103 C 54.629369,94.575308 54.022234,88.941172 52.506371,87.418908 L 62.641524,77.378151 z "
       style="font-size:12px;fill:#34674b;fill-opacity:1;fill-rule:evenodd;stroke-width:1pt" />
    <path
       id="path2404"
       d="M 54.048797,92.714034 L 44.039856,90.197612"
       style="font-size:12px;fill:none;fill-rule:evenodd;stroke:#000008;stroke-width:0.33353841;stroke-opacity:1" />
    <path
       sodipodi:nodetypes="cc"
       id="path2406"
       d="M 54.112151,94.241029 L 44.575528,91.605797"
       style="font-size:12px;fill:none;fill-rule:evenodd;stroke:#000000;stroke-width:0.33353841;stroke-opacity:1" />
  </g>
</svg>
