<?xml version="1.0" encoding="UTF-8" standalone="no"?>
<!-- Created with Sodipodi ("http://www.sodipodi.com/") -->
<svg
   xmlns:dc="http://purl.org/dc/elements/1.1/"
   xmlns:cc="http://web.resource.org/cc/"
   xmlns:rdf="http://www.w3.org/1999/02/22-rdf-syntax-ns#"
   xmlns:svg="http://www.w3.org/2000/svg"
   xmlns="http://www.w3.org/2000/svg"
   xmlns:xlink="http://www.w3.org/1999/xlink"
   xmlns:sodipodi="http://sodipodi.sourceforge.net/DTD/sodipodi-0.dtd"
   xmlns:inkscape="http://www.inkscape.org/namespaces/inkscape"
   id="svg604"
   sodipodi:version="0.32"
   width="72pt"
   height="72pt"
   sodipodi:docbase="/home/tweenk/dev/GartoonRedux/scalable/mimetypes"
   sodipodi:docname="application-x-font-pcf.svg"
   inkscape:version="0.45.1"
   inkscape:output_extension="org.inkscape.output.svg.inkscape">
  <metadata
     id="metadata14">
    <rdf:RDF>
      <cc:Work
         rdf:about="">
        <dc:format>image/svg+xml</dc:format>
        <dc:type
           rdf:resource="http://purl.org/dc/dcmitype/StillImage" />
      </cc:Work>
    </rdf:RDF>
  </metadata>
  <defs
     id="defs606">
    <linearGradient
       id="linearGradient612">
      <stop
         style="stop-color:#7fa8e3;stop-opacity:0.741176;"
         offset="0.000000"
         id="stop613" />
      <stop
         style="stop-color:#ffffff;stop-opacity:0;"
         offset="1.000000"
         id="stop614" />
    </linearGradient>
    <linearGradient
       xlink:href="#linearGradient612"
       id="linearGradient615"
       x1="50.6438866"
       y1="5.36792946"
       x2="35.7520943"
       y2="68.0443573"
       gradientUnits="userSpaceOnUse"
       spreadMethod="pad" />
  </defs>
  <sodipodi:namedview
     id="base"
     inkscape:zoom="4.5222222"
     inkscape:cx="71.282673"
     inkscape:cy="49.926518"
     inkscape:window-width="795"
     inkscape:window-height="619"
     inkscape:window-x="219"
     inkscape:window-y="18"
     inkscape:current-layer="svg604" />
  <path
     style="fill:#000000;fill-rule:evenodd;stroke:none;stroke-opacity:1;stroke-width:1pt;stroke-linejoin:miter;stroke-linecap:butt;fill-opacity:0.301471;"
     d="M 12.8163 74.753 C 10.3856 73.6481 7.07107 70.1126 8.83884 65.2512 C 9.72267 59.948 25.6326 13.1021 29.1682 10.8924 C 31.3778 8.90368 34.582 8.13026 39.1119 9.34561 C 42.8684 10.2295 76.6769 19.0684 78.6656 20.8361 C 80.6544 22.6039 82.2012 24.0402 80.6544 27.9072 C 79.5496 29.8959 66.4017 74.532 66.1808 77.4047 C 65.2969 80.4983 62.7558 84.2548 58.5573 84.0338 C 54.3589 83.8128 15.9099 75.4159 12.8163 74.753 z "
     id="path794"
     sodipodi:nodetypes="ccccccccc"
     transform="matrix(1.114903,0.000000,0.000000,1.114903,-5.305332,-3.889256)" />
  <path
     style="fill:#3d4e67;fill-rule:evenodd;stroke:none;stroke-opacity:1;stroke-width:1pt;stroke-linejoin:miter;stroke-linecap:butt;fill-opacity:1;"
     d="M 12.8163 74.753 C 10.3856 73.6481 7.07107 70.1126 8.83884 65.2512 C 9.72267 59.948 25.6326 13.1021 29.1682 10.8924 C 31.3778 8.90368 34.582 8.13026 39.1119 9.34561 C 42.8684 10.2295 76.6769 19.0684 78.6656 20.8361 C 80.6544 22.6039 82.2012 24.0402 80.6544 27.9072 C 79.5496 29.8959 66.4017 74.532 66.1808 77.4047 C 65.2969 80.4983 62.7558 84.2548 58.5573 84.0338 C 54.3589 83.8128 15.9099 75.4159 12.8163 74.753 z "
     id="path609"
     sodipodi:nodetypes="ccccccccc"
     transform="matrix(1.114903,0.000000,0.000000,1.114903,-8.162471,-8.460684)" />
  <path
     style="fill:#ffffff;fill-rule:evenodd;stroke:none;stroke-opacity:1;stroke-width:1pt;stroke-linejoin:miter;stroke-linecap:butt;fill-opacity:1;"
     d="M 17.8987 70.9965 C 15.3576 70.3336 11.7114 69.6706 13.0373 65.6932 C 15.468 55.9705 27.8424 18.6264 33.1456 13.986 C 34.361 12.8811 38.4489 12.4392 46.1829 14.8699 C 55.0218 17.5215 72.9204 23.4877 74.6882 24.3716 C 76.4559 25.2555 77.1189 25.2555 75.793 29.233 C 73.8043 33.2105 64.9655 67.24 62.7557 72.9852 C 61.209 77.0732 60.8775 78.9514 58.2258 78.9514 "
     id="path608"
     sodipodi:nodetypes="cccccccs"
     transform="matrix(1.114903,0.000000,0.000000,1.114903,-8.162471,-8.460684)" />
  <path
     style="fill:url(#linearGradient615);fill-rule:evenodd;stroke:none;stroke-opacity:1;stroke-width:1pt;stroke-linejoin:miter;stroke-linecap:butt;fill-opacity:1;"
     d="M 28.75 13.75 C 28.75 13.75 31.875 7.49995 39.6875 9.37495 C 47.5 11.25 78.125 19.375 77.8125 21.875 C 77.5 24.375 71.875 39.0625 71.5625 40.3125 C 71.25 41.5625 42.5 40.9375 31.5625 47.5 C 20.625 54.0625 12.5 59.6875 12.5 59.6875 C 12.5 59.6875 23.75 24.6875 28.75 13.75 z "
     id="path636"
     transform="matrix(0.946780,0.000000,0.000000,0.946780,-0.480566,0.409517)" />
  <path
     style="font-size:33.46194839px;font-style:normal;font-weight:normal;fill:#000000;fill-opacity:0.29803922;stroke:none;stroke-width:1px;stroke-linecap:butt;stroke-linejoin:miter;stroke-opacity:1;font-family:DejaVu Sans"
     d="M 19.008562,47.282037 L 19.517798,45.197685 L 22.533214,45.954855 L 27.798128,24.405071 L 24.782712,23.6479 L 25.291948,21.563549 L 38.711339,24.933159 C 41.332043,25.591246 43.249053,26.797825 44.462377,28.552901 C 45.678451,30.296528 46.007335,32.310993 45.449027,34.596302 C 44.887858,36.893118 43.660094,38.53499 41.765733,39.521928 C 39.884654,40.500038 37.639028,40.661377 35.028845,40.00595 L 30.703065,38.919746 L 28.611409,47.481092 L 32.4162,48.436475 L 31.906964,50.520827 L 19.008562,47.282037 M 31.212301,36.835394 L 32.980503,37.27939 C 34.348738,37.622968 35.558721,37.402688 36.610457,36.61855 C 37.675483,35.82559 38.411421,34.596514 38.818269,32.931318 C 39.22227,31.277633 39.138311,29.860964 38.566391,28.681306 C 37.997237,27.490201 37.023282,26.721533 35.644524,26.375301 L 33.876323,25.931306 L 31.212301,36.835394 M 52.994038,45.138628 L 52.552138,46.947362 C 52.030266,49.083396 51.900236,50.690103 52.162048,51.767488 C 52.434364,52.847519 53.128352,53.527603 54.244015,53.807745 C 55.391228,54.095812 56.319841,53.792692 57.029858,52.898383 C 57.750371,52.006715 58.431889,50.245962 59.074412,47.616118 C 59.716902,44.986281 59.92339,43.112342 59.69388,41.994295 C 59.477664,40.867427 58.795952,40.159953 57.648744,39.871872 C 56.533078,39.591747 55.606215,39.864835 54.868155,40.69114 C 54.140593,41.520114 53.515888,43.002608 52.994038,45.138628 M 48.911922,37.568358 L 46.512219,36.965792 L 47.021456,34.881443 L 55.009939,36.88735 L 54.441784,39.212867 C 55.14827,38.378635 55.957583,37.832259 56.869726,37.573737 C 57.784646,37.303762 58.831513,37.316767 60.010331,37.612747 C 62.399488,38.212685 64.067774,39.545731 65.015191,41.611891 C 65.975892,43.669233 66.09011,46.196562 65.357844,49.193886 C 64.625531,52.19122 63.359571,54.37808 61.55996,55.754476 C 59.770834,57.133507 57.681693,57.523064 55.29253,56.923146 C 54.113718,56.627146 53.180481,56.149039 52.49282,55.488825 C 51.807943,54.817122 51.345134,53.945225 51.104393,52.873122 L 49.252624,60.452582 L 51.841777,61.102718 L 51.33254,63.18707 L 40.754904,60.531024 L 41.26414,58.446672 L 43.663843,59.049239 L 48.911922,37.568358"
     id="text2333" />
  <path
     style="font-size:33.46194839px;font-style:normal;font-weight:normal;fill:#3d4e67;fill-opacity:1;stroke:none;stroke-width:1px;stroke-linecap:butt;stroke-linejoin:miter;stroke-opacity:1;font-family:DejaVu Sans"
     d="M 18.184332,45.747387 L 18.693569,43.663034 L 21.708985,44.420206 L 26.973899,22.870422 L 23.958483,22.113251 L 24.46772,20.028898 L 37.88711,23.398509 C 40.507815,24.056595 42.424825,25.263175 43.638147,27.018251 C 44.854223,28.761878 45.183107,30.776345 44.624798,33.061651 C 44.06363,35.358467 42.835866,37.000341 40.941506,37.987277 C 39.060427,38.965388 36.814799,39.126728 34.204617,38.471298 L 29.878836,37.385095 L 27.78718,45.946441 L 31.591972,46.901825 L 31.082735,48.986175 L 18.184332,45.747387 M 30.388073,35.300744 L 32.156275,35.74474 C 33.524509,36.088317 34.734493,35.868037 35.786227,35.083899 C 36.851255,34.29094 37.587192,33.061865 37.99404,31.396668 C 38.398041,29.742983 38.314082,28.326314 37.742164,27.146656 C 37.173008,25.955551 36.199053,25.186883 34.820297,24.840653 L 33.052093,24.396657 L 30.388073,35.300744 M 52.169809,43.603977 L 51.72791,45.412714 C 51.206039,47.548747 51.076007,49.155454 51.337819,50.232839 C 51.610135,51.312868 52.304124,51.992953 53.419787,52.273094 C 54.566999,52.561162 55.495613,52.258041 56.205631,51.363732 C 56.926143,50.472065 57.60766,48.711313 58.250184,46.081465 C 58.892673,43.451632 59.099163,41.577694 58.869652,40.459645 C 58.653437,39.332777 57.971725,38.625304 56.824515,38.337224 C 55.708849,38.057096 54.781987,38.330185 54.043926,39.15649 C 53.316364,39.985463 52.691659,41.467957 52.169809,43.603977 M 48.087695,36.033709 L 45.687991,35.431144 L 46.197228,33.346793 L 54.185712,35.352701 L 53.617556,37.678217 C 54.324041,36.843985 55.133355,36.297609 56.045498,36.039088 C 56.960417,35.769114 58.007284,35.782116 59.186104,36.078098 C 61.57526,36.678037 63.243545,38.011082 64.190962,40.077243 C 65.151664,42.134583 65.265882,44.661912 64.533616,47.659237 C 63.801304,50.65657 62.535343,52.843429 60.73573,54.219826 C 58.946606,55.598858 56.857465,55.988415 54.468303,55.388496 C 53.289488,55.092497 52.356253,54.61439 51.668591,53.954177 C 50.983715,53.282474 50.520906,52.410572 50.280164,51.338471 L 48.428396,58.917932 L 51.017549,59.568069 L 50.508312,61.652422 L 39.930676,58.996376 L 40.439912,56.912024 L 42.839615,57.514589 L 48.087695,36.033709"
     id="text2329" />
</svg>
