<?xml version="1.0" encoding="UTF-8" standalone="no"?>
<!-- Created with Sodipodi ("http://www.sodipodi.com/") -->
<svg
   xmlns:ns="http://creativecommons.org/ns#"
   xmlns:dc="http://purl.org/dc/elements/1.1/"
   xmlns:cc="http://web.resource.org/cc/"
   xmlns:rdf="http://www.w3.org/1999/02/22-rdf-syntax-ns#"
   xmlns:svg="http://www.w3.org/2000/svg"
   xmlns="http://www.w3.org/2000/svg"
   xmlns:xlink="http://www.w3.org/1999/xlink"
   xmlns:sodipodi="http://sodipodi.sourceforge.net/DTD/sodipodi-0.dtd"
   xmlns:inkscape="http://www.inkscape.org/namespaces/inkscape"
   id="svg548"
   sodipodi:version="0.32"
   width="72pt"
   height="72pt"
   sodipodi:docbase="/home/tweenk/dev/GartoonRedux/scalable/mimetypes"
   sodipodi:docname="application-x-rpm.svg"
   inkscape:version="0.45.1"
   inkscape:output_extension="org.inkscape.output.svg.inkscape">
  <metadata
     id="metadata27">
    <rdf:RDF>
      <ns:Work
         rdf:about="">
        <dc:format>image/svg+xml</dc:format>
        <dc:type
           rdf:resource="http://purl.org/dc/dcmitype/StillImage" />
      </ns:Work>
      <cc:Work
         rdf:about="">
        <dc:format>image/svg+xml</dc:format>
        <dc:type
           rdf:resource="http://purl.org/dc/dcmitype/StillImage" />
      </cc:Work>
    </rdf:RDF>
  </metadata>
  <defs
     id="defs550">
    <linearGradient
       xlink:href="#linearGradient666"
       id="linearGradient665"
       x1="77.3604736"
       y1="65.4081421"
       x2="55.6024742"
       y2="83.4317398"
       gradientUnits="userSpaceOnUse"
       gradientTransform="matrix(-0.5673405,0.1106277,7.6339467e-2,0.3914974,82.37531,46.211719)"
       spreadMethod="pad" />
    <linearGradient
       xlink:href="#linearGradient660"
       id="linearGradient663"
       x1="24.8720913"
       y1="97.8506012"
       x2="54.9295425"
       y2="95.5566864"
       gradientUnits="userSpaceOnUse"
       gradientTransform="matrix(-0.5673405,0.1106277,7.6339467e-2,0.3914974,82.37531,46.211719)"
       spreadMethod="pad" />
    <linearGradient
       id="linearGradient666">
      <stop
         style="stop-color:#a6d7ff;stop-opacity:1;"
         offset="0.000000"
         id="stop667" />
      <stop
         style="stop-color:#ffffff;stop-opacity:0.396078;"
         offset="1.000000"
         id="stop668" />
    </linearGradient>
    <linearGradient
       inkscape:collect="always"
       xlink:href="#linearGradient666"
       id="linearGradient2424"
       gradientUnits="userSpaceOnUse"
       gradientTransform="matrix(-0.5673405,0.1106277,7.6339467e-2,0.3914974,118.96627,117.94415)"
       spreadMethod="pad"
       x1="77.3604736"
       y1="65.4081421"
       x2="55.6024742"
       y2="83.4317398" />
    <linearGradient
       id="linearGradient660">
      <stop
         style="stop-color:#3882d2;stop-opacity:1;"
         offset="0.000000"
         id="stop661" />
      <stop
         style="stop-color:#ffffff;stop-opacity:1;"
         offset="1.000000"
         id="stop662" />
    </linearGradient>
    <linearGradient
       inkscape:collect="always"
       xlink:href="#linearGradient660"
       id="linearGradient2422"
       gradientUnits="userSpaceOnUse"
       gradientTransform="matrix(-0.5673405,0.1106277,7.6339467e-2,0.3914974,118.96627,117.94415)"
       spreadMethod="pad"
       x1="24.8720913"
       y1="97.8506012"
       x2="54.9295425"
       y2="95.5566864" />
    <inkscape:perspective
       sodipodi:type="inkscape:persp3d"
       inkscape:vp_x="-50 : 600 : 1"
       inkscape:vp_y="0 : 1000 : 0"
       inkscape:vp_z="700 : 600 : 1"
       inkscape:persp3d-origin="300 : 400 : 1"
       id="perspective29" />
    <linearGradient
       id="linearGradient569">
      <stop
         style="stop-color:#c57700;stop-opacity:1;"
         offset="0.000000"
         id="stop570" />
      <stop
         style="stop-color:#ffa75f;stop-opacity:0;"
         offset="1.000000"
         id="stop571" />
    </linearGradient>
    <linearGradient
       id="linearGradient559">
      <stop
         style="stop-color:#945700;stop-opacity:1;"
         offset="0.000000"
         id="stop560" />
      <stop
         style="stop-color:#ffa75f;stop-opacity:0;"
         offset="1.000000"
         id="stop561" />
    </linearGradient>
    <linearGradient
       xlink:href="#linearGradient559"
       id="linearGradient562"
       x1="40.9153252"
       y1="31.7318363"
       x2="42.7533417"
       y2="35.4855690"
       gradientUnits="userSpaceOnUse"
       spreadMethod="pad"
       gradientTransform="matrix(1.2287685,0,0,0.7275398,-7.1389191,1.8739714)" />
    <linearGradient
       xlink:href="#linearGradient559"
       id="linearGradient566"
       x1="59.0300407"
       y1="48.8431816"
       x2="58.3435440"
       y2="23.6183739"
       gradientUnits="userSpaceOnUse"
       spreadMethod="pad"
       gradientTransform="matrix(0.5734264,0,0,1.5590094,-6.8541051,2.1587764)" />
    <linearGradient
       xlink:href="#linearGradient569"
       id="linearGradient568"
       x1="92.7804184"
       y1="64.9443817"
       x2="90.8925323"
       y2="42.8786545"
       gradientUnits="userSpaceOnUse"
       spreadMethod="pad"
       gradientTransform="matrix(0.7296653,0,0,1.2251888,-7.1389191,1.8739714)" />
  </defs>
  <sodipodi:namedview
     id="base"
     showgrid="false"
     inkscape:zoom="3.9205143"
     inkscape:cx="67.82325"
     inkscape:cy="40.330759"
     inkscape:window-width="795"
     inkscape:window-height="711"
     inkscape:window-x="0"
     inkscape:window-y="1"
     inkscape:current-layer="svg548" />
  <path
     style="fill:#000000;fill-opacity:0.3;fill-rule:evenodd;stroke:none;stroke-width:1pt;stroke-linecap:butt;stroke-linejoin:miter;stroke-opacity:1"
     d="M 41.126783,86.944379 C 40.267791,86.568459 6.0797264,81.723193 6.0797264,81.723193 L 2.987337,83.117462 L 2.1283386,79.619442 L 4.7053256,76.584302 L 2.1283386,75.664742 L 16.731279,64.779378 L 18.105647,65.755471 L 18.44926,63.449718 L 22.572446,63.047793 L 67.240265,72.39582 L 41.126783,86.944379 z "
     id="path594" />
  <path
     style="fill:#593a28;fill-opacity:1;fill-rule:evenodd;stroke:none;stroke-width:1pt;stroke-linecap:butt;stroke-linejoin:miter;stroke-opacity:1"
     d="M 16.673693,33.243336 C 19.97407,48.138049 19.287161,71.577094 13.758515,83.054094 L 40.68316,87.362945 L 73.900512,75.358259 C 72.191703,59.003214 70.767585,40.369694 74.185298,24.584221 L 80.04279,11.201955 L 74.138779,11.989068 L 74.926006,8.0531426 C 67.428537,2.8625904 57.937379,1.9442 48.161435,5.2979534 L 47.571062,9.6275486 L 41.863905,4.7075618 C 29.375972,5.2465936 18.027277,8.6337294 7.8178196,18.286692 L 16.673693,33.243336 z "
     id="path564"
     sodipodi:nodetypes="ccccccccccccc" />
  <path
     style="fill:url(#linearGradient562);fill-opacity:1;fill-rule:evenodd;stroke:none;stroke-width:1pt;stroke-linecap:butt;stroke-linejoin:miter;stroke-opacity:1"
     d="M 49.539129,19.270583 C 49.145515,19.270583 21.003251,29.307392 21.003251,29.307392 C 21.003251,29.307392 23.56169,48.003221 29.071993,48.396834 C 34.58239,48.790447 68.431717,22.025876 68.431717,22.025876"
     id="path558"
     sodipodi:nodetypes="cccc" />
  <path
     style="fill:#e9a93d;fill-opacity:1;fill-rule:evenodd;stroke:none;stroke-width:1pt;stroke-linecap:butt;stroke-linejoin:miter;stroke-opacity:1"
     d="M 20.806491,31.472123 L 38.911947,33.046576 C 36.895849,50.497649 36.58856,67.09427 39.699079,82.836533 C 39.699079,82.836533 21.200105,81.065415 21.200105,79.884575 C 21.200105,78.70383 26.217894,52.087231 20.806491,31.472123 z "
     id="path552"
     sodipodi:nodetypes="ccccc" />
  <path
     style="fill:#ffe6ba;fill-opacity:1;fill-rule:evenodd;stroke:none;stroke-width:1pt;stroke-linecap:butt;stroke-linejoin:miter;stroke-opacity:1"
     d="M 69.394996,23.885021 L 38.518334,33.44019 L 39.305561,83.033387 C 39.305561,83.033387 68.82533,72.012687 68.82533,70.831847 C 68.82533,69.651102 64.837951,35.955892 69.394996,23.885021 z "
     id="path553"
     sodipodi:nodetypes="ccccc" />
  <path
     style="fill:#e3c084;fill-opacity:1;fill-rule:evenodd;stroke:none;stroke-width:1pt;stroke-linecap:butt;stroke-linejoin:miter;stroke-opacity:1"
     d="M 50.326261,19.270678 L 42.847891,9.8243269 C 33.663927,11.08821 23.625606,12.352141 15.296094,20.451423 L 20.412878,29.897764 L 50.326261,19.270678 z "
     id="path556"
     sodipodi:nodetypes="ccccc" />
  <path
     style="fill:#e3b463;fill-opacity:1;fill-rule:evenodd;stroke:none;stroke-width:1pt;stroke-linecap:butt;stroke-linejoin:miter;stroke-opacity:1"
     d="M 49.539034,19.467532 L 69.612462,23.206622 L 71.186916,12.973148 C 64.079751,10.608282 57.542253,9.3826536 50.719874,11.005129 L 49.539034,19.467532 z "
     id="path557"
     sodipodi:nodetypes="ccccc" />
  <path
     style="fill:#c89134;fill-opacity:1;fill-rule:evenodd;stroke:none;stroke-width:1pt;stroke-linecap:butt;stroke-linejoin:miter;stroke-opacity:1"
     d="M 38.911947,33.046576 C 37.731107,30.422614 36.550362,27.798556 35.369522,25.174594 C 28.832024,22.217719 21.724859,20.400082 14.902481,23.993848 C 16.739311,26.486575 18.576047,28.979396 20.412878,31.472123 C 26.579266,31.996972 32.745559,32.521727 38.911947,33.046576 z "
     id="path554"
     sodipodi:nodetypes="ccccc" />
  <path
     style="fill:#e3c084;fill-opacity:1;fill-rule:evenodd;stroke:none;stroke-width:1pt;stroke-linecap:butt;stroke-linejoin:miter;stroke-opacity:1"
     d="M 38.518334,34.227322 L 43.241505,24.78098 C 53.343837,18.915263 63.730955,16.182567 73.548406,15.728252 C 72.039666,18.483451 70.53083,21.23865 69.02209,23.993848 L 38.518334,34.227322 z "
     id="path555"
     sodipodi:nodetypes="ccccc" />
  <path
     style="fill:url(#linearGradient566);fill-opacity:1;fill-rule:evenodd;stroke:none;stroke-width:1pt;stroke-linecap:butt;stroke-linejoin:miter;stroke-opacity:1"
     d="M 21.091305,31.756928 C 27.126457,32.281777 33.161609,32.806532 39.196761,33.331381 C 35.75664,51.06724 37.158255,66.823205 39.983893,82.850254 C 39.983893,82.850254 21.123473,81.079136 21.123473,79.898296 C 25.658665,49.125869 21.99492,37.572228 21.091305,31.756928 z "
     id="path565"
     sodipodi:nodetypes="ccccc" />
  <path
     style="fill:url(#linearGradient568);fill-opacity:1;fill-rule:evenodd;stroke:none;stroke-width:1pt;stroke-linecap:butt;stroke-linejoin:miter;stroke-opacity:1"
     d="M 59.426642,32.144566 L 38.518334,33.44019 L 39.305561,83.033387 C 39.305561,83.033387 68.82533,72.012687 68.82533,70.831847 C 67.740993,53.386042 59.426642,32.538179 59.426642,32.144566 z "
     id="path567"
     sodipodi:nodetypes="ccccc" />
  <path
     style="font-size:12px;fill:#ffffff;fill-opacity:0.70434804;fill-rule:evenodd;stroke-width:1pt"
     d="M 23.012112,70.804052 L 23.012112,77.880852 L 35.292412,79.754152 L 35.292412,72.677352 L 23.012112,70.804052 z "
     id="path573"
     sodipodi:nodetypes="ccccc" />
  <g
     id="g159"
     transform="matrix(3.888543e-2,-2.2754147e-2,1.516937e-2,6.8324584e-2,32.969031,36.076804)"
     style="overflow:visible">
    <path
       style="font-size:12px;fill:#000000;fill-opacity:1;stroke:#000000"
       d="M 393.913,557.698 C 388.9,559.012 380.183,567.223 386.813,571.951 C 390.38,574.495 396.071,573.984 400.163,575.247 C 410.045,578.294 417.922,584.602 428.919,581.153 C 435.822,578.988 447.809,564.432 436.254,559.68 C 430.991,557.516 425.478,564.869 420.167,565.317 C 410.539,566.133 403.995,555.057 393.913,557.698 z M 74.8355,518.801 C 18.5227,375.708 72.4271,212.811 202.98,131.554 C 333.533,50.2965 503.492,73.8591 607.016,187.568 C 710.538,301.277 721.642,468.312 624.808,595.071 C 612.185,589.334 585.747,592.363 567.062,591.908 C 557.046,591.834 544.959,589.884 542.218,593.109 C 536.311,599.654 543.344,602.526 535.633,609.67 C 529.843,614.917 520.764,615.607 506.785,624.38 C 487.762,636.174 462.65,669.277 451.493,658.581 C 445.517,652.671 459.165,640.553 471.322,625.842 C 483.522,611.286 497.415,593.707 501.141,581.927 C 505.739,567.051 504.736,557.54 506.856,551.074 C 511.708,534.986 516.057,519.764 507.998,518.626 C 502.442,517.858 495.222,521.663 486.025,521.024 C 476.446,520.341 470.806,518.622 457.999,518.842 C 447.923,519.017 437.554,520.924 428.417,520.702 C 411.52,520.032 407.336,516.795 393.856,516.786 C 379.642,516.776 350.319,525.372 327.343,515.184 C 308.871,506.942 296.476,478.439 279.453,470.856 C 271.588,467.382 266.473,474.47 258.193,471.805 C 247.785,468.409 244.557,449.426 223.256,436.56 C 209.253,428.159 194.996,435.602 191.096,439.877 C 177.718,454.684 188.956,476.242 201.988,493.581 C 211.928,507 222.421,507.281 223.478,516.342 C 224.22,522.791 214.344,529.251 206.463,527.104 C 185.93,521.401 175.488,497.365 161.367,492.325 C 155.774,490.293 146.992,492.167 140.28,492.004 C 126.639,491.915 99.4074,492.136 83.7866,491.883 C 86.5383,511.327 83.8549,514.714 74.8355,518.801 z "
       id="path1133" />
    <path
       style="font-size:12px;fill:#c1211f;fill-opacity:1;fill-rule:evenodd;stroke:#000000"
       d="M 582.7,163.136 L 582.7,163.136 z M 227.629,271.907 C 200.418,271.907 166.26,267.743 141.361,281.064 C 131.392,286.399 119.775,295.358 117.022,306.914 C 113.104,323.361 123.315,336.822 133.753,348.173 C 153.379,369.516 174.313,388.838 197.623,406.147 C 278.164,465.952 377.02,496.201 476.428,500.573 C 523.779,502.655 584.923,483.392 615.875,445.692 C 631.775,426.327 642.883,390.269 629.544,366.926 C 618.299,347.251 577.28,326.476 555.194,323.168 C 551.118,335.674 545.756,347.575 533.94,354.424 C 531.402,338.196 540.898,319.147 540.142,301.913 C 538.76,270.397 520.711,238.209 509.185,209.395 C 503.238,194.527 498.302,178.308 486.412,166.999 C 454.26,136.418 415.181,152.768 377.659,155.521 C 349.542,157.584 321.931,144.266 293.892,148.682 C 250.042,155.587 242.659,214.053 237.119,250.653 C 233.13,277.011 258.569,288.951 278.889,296.672 C 300.98,305.065 323.783,311.73 346.402,318.517 C 358.341,322.099 372.772,325.429 380.917,335.689 C 386.434,342.64 385.065,351.312 387.076,359.425 C 388.528,365.285 400.776,374.569 398.53,380.137 C 396.68,384.723 386.433,383.343 382.66,382.966 C 367.393,381.441 352.05,375.246 337.651,370.247 C 309.521,360.481 282.166,347.686 256.384,332.815 C 245.66,326.628 232.05,319.927 226.615,308.165 C 221.161,296.36 224.904,283.82 227.629,271.907 M 410.165,168.137 L 410.165,169.387 C 416.464,170.891 439.052,171.478 437.77,181.904 C 437.176,186.728 430.489,190.704 427.669,194.392 C 437.474,197.29 476.632,195.691 465.349,176.908 C 455.816,161.038 425.199,164.516 410.165,168.137 z M 276.67,205.747 C 272.074,208.1 271.503,214.905 271.406,219.397 C 271.119,232.928 280.152,242.914 292.642,247.675 C 299.519,250.297 305.12,244.457 311.395,242.355 C 326.58,237.269 352.107,241.628 364.851,231.716 C 374.446,224.253 357.205,221.122 352.654,220.117 C 335.03,216.224 316.892,223.917 300.143,218.012 C 293.651,215.722 283.769,202.112 276.67,205.747 z "
       id="path173" />
  </g>
</svg>
