<?xml version="1.0" encoding="UTF-8" standalone="no"?>
<!-- Created with Sodipodi ("http://www.sodipodi.com/") -->
<svg
   xmlns:dc="http://purl.org/dc/elements/1.1/"
   xmlns:cc="http://web.resource.org/cc/"
   xmlns:rdf="http://www.w3.org/1999/02/22-rdf-syntax-ns#"
   xmlns:svg="http://www.w3.org/2000/svg"
   xmlns="http://www.w3.org/2000/svg"
   xmlns:xlink="http://www.w3.org/1999/xlink"
   xmlns:sodipodi="http://sodipodi.sourceforge.net/DTD/sodipodi-0.dtd"
   xmlns:inkscape="http://www.inkscape.org/namespaces/inkscape"
   version="1.0"
   x="0"
   y="0"
   width="90.0000000"
   height="90.0000000"
   id="svg548"
   sodipodi:version="0.32"
   inkscape:version="0.45.1"
   sodipodi:docname="application-postscript.svg"
   sodipodi:docbase="/home/tweenk/GNUtoon/mimetypes"
   inkscape:output_extension="org.inkscape.output.svg.inkscape">
  <metadata
     id="metadata49">
    <rdf:RDF>
      <cc:Work
         rdf:about="">
        <dc:format>image/svg+xml</dc:format>
        <dc:type
           rdf:resource="http://purl.org/dc/dcmitype/StillImage" />
      </cc:Work>
    </rdf:RDF>
  </metadata>
  <sodipodi:namedview
     inkscape:window-height="623"
     inkscape:window-width="795"
     inkscape:pageshadow="2"
     inkscape:pageopacity="0.0"
     guidetolerance="10.0"
     gridtolerance="10.0"
     objecttolerance="10.0"
     borderopacity="1.0"
     bordercolor="#666666"
     pagecolor="#ffffff"
     id="base"
     inkscape:zoom="0.28263889"
     inkscape:cx="99.464286"
     inkscape:cy="102.42419"
     inkscape:window-x="114"
     inkscape:window-y="72"
     inkscape:current-layer="svg548" />
  <defs
     id="defs550">
    <linearGradient
       id="linearGradient585">
      <stop
         style="stop-color:#5cb2ff;stop-opacity:1.0000;"
         offset="0"
         id="stop586" />
      <stop
         style="stop-color:#ffffff;stop-opacity:1.0000;"
         offset="1"
         id="stop587" />
    </linearGradient>
    <linearGradient
       id="linearGradient576">
      <stop
         style="stop-color:#ffffff;stop-opacity:1.0000;"
         offset="0"
         id="stop577" />
      <stop
         style="stop-color:#370000;stop-opacity:0;"
         offset="1"
         id="stop578" />
    </linearGradient>
    <linearGradient
       id="linearGradient569">
      <stop
         style="stop-color:#ff3a00;stop-opacity:1.0000;"
         offset="0"
         id="stop570" />
      <stop
         style="stop-color:#370000;stop-opacity:1.0000;"
         offset="1"
         id="stop571" />
    </linearGradient>
    <linearGradient
       id="linearGradient562">
      <stop
         style="stop-color:#000000;stop-opacity:1.0000;"
         offset="0"
         id="stop563" />
      <stop
         style="stop-color:#ffffff;stop-opacity:1.0000;"
         offset="1"
         id="stop564" />
    </linearGradient>
    <linearGradient
       x1="30.59172"
       y1="65.83048"
       x2="18.43610"
       y2="42.38868"
       id="linearGradient565"
       xlink:href="#linearGradient562"
       gradientUnits="userSpaceOnUse"
       gradientTransform="scale(1.323326,0.755672)"
       spreadMethod="pad" />
    <linearGradient
       x1="24.98748"
       y1="44.99675"
       x2="33.75964"
       y2="60.75286"
       id="linearGradient567"
       xlink:href="#linearGradient562"
       gradientUnits="userSpaceOnUse"
       gradientTransform="scale(1.587744,0.629824)"
       spreadMethod="pad" />
    <linearGradient
       x1="49.882924"
       y1="51.590989"
       x2="48.923111"
       y2="54.509054"
       id="linearGradient568"
       xlink:href="#linearGradient576"
       gradientUnits="userSpaceOnUse"
       spreadMethod="pad"
       gradientTransform="scale(1.0392263,0.9622543)" />
    <radialGradient
       cx="39.97719"
       cy="62.03484"
       r="2.879746"
       fx="39.97719"
       fy="62.03484"
       id="radialGradient573"
       xlink:href="#linearGradient569"
       gradientUnits="userSpaceOnUse"
       gradientTransform="scale(1.181249,0.846561)"
       spreadMethod="pad" />
    <linearGradient
       x1="39.172942"
       y1="59.184306"
       x2="39.539937"
       y2="68.907067"
       id="linearGradient580"
       xlink:href="#linearGradient562"
       gradientUnits="userSpaceOnUse"
       spreadMethod="pad"
       gradientTransform="scale(1.1812463,0.8465635)" />
    <linearGradient
       x1="38.96766"
       y1="112.4277"
       x2="34.33948"
       y2="55.26681"
       id="linearGradient584"
       xlink:href="#linearGradient585"
       gradientUnits="userSpaceOnUse"
       gradientTransform="scale(1.107407,0.90301)"
       spreadMethod="pad" />
    <linearGradient
       x1="18.57473"
       y1="70.60982"
       x2="21.00699"
       y2="44.95725"
       id="linearGradient588"
       xlink:href="#linearGradient585"
       gradientUnits="userSpaceOnUse"
       gradientTransform="scale(0.777781,1.285709)"
       spreadMethod="pad" />
  </defs>
  <g
     style="font-size:12.000;"
     id="g624">
    <defs
       id="defs606">
      <linearGradient
         id="linearGradient612">
        <stop
           style="stop-color:#7fa8e3;stop-opacity:0.7412;"
           offset="0"
           id="stop613" />
        <stop
           style="stop-color:#ffffff;stop-opacity:0;"
           offset="1"
           id="stop614" />
      </linearGradient>
      <linearGradient
         x1="50.64389"
         y1="5.367929"
         x2="35.75209"
         y2="68.04436"
         id="linearGradient615"
         xlink:href="#linearGradient612"
         gradientUnits="userSpaceOnUse"
         spreadMethod="pad" />
    </defs>
    <path
       d="M 12.81630 74.75300 C 10.38560 73.64810 7.071070 70.11260 8.838840 65.25120 C 9.722670 59.94800 25.63260 13.10210 29.16820 10.89240 C 31.37780 8.903680 34.58200 8.130260 39.11190 9.345610 C 42.86840 10.22950 76.67690 19.06840 78.66560 20.83610 C 80.65440 22.60390 82.20120 24.04020 80.65440 27.90720 C 79.54960 29.89590 66.40170 74.53200 66.18080 77.40470 C 65.29690 80.49830 62.75580 84.25480 58.55730 84.03380 C 54.35890 83.81280 15.90990 75.41590 12.81630 74.75300 z "
       transform="matrix(1.114903,0,0,1.114903,-5.305332,-3.889256)"
       style="fill-opacity:0.301471;fill-rule:evenodd;stroke-width:1;"
       id="path794" />
    <path
       d="M 12.81630 74.75300 C 10.38560 73.64810 7.071070 70.11260 8.838840 65.25120 C 9.722670 59.94800 25.63260 13.10210 29.16820 10.89240 C 31.37780 8.903680 34.58200 8.130260 39.11190 9.345610 C 42.86840 10.22950 76.67690 19.06840 78.66560 20.83610 C 80.65440 22.60390 82.20120 24.04020 80.65440 27.90720 C 79.54960 29.89590 66.40170 74.53200 66.18080 77.40470 C 65.29690 80.49830 62.75580 84.25480 58.55730 84.03380 C 54.35890 83.81280 15.90990 75.41590 12.81630 74.75300 z "
       transform="matrix(1.114903,0,0,1.114903,-8.162471,-8.460684)"
       style="fill:#3d4e67;fill-rule:evenodd;stroke-width:1;"
       id="path609" />
    <path
       d="M 17.89870 70.99650 C 15.35760 70.33360 11.71140 69.67060 13.03730 65.69320 C 15.46800 55.97050 27.84240 18.62640 33.14560 13.98600 C 34.36100 12.88110 38.44890 12.43920 46.18290 14.86990 C 55.02180 17.52150 72.92040 23.48770 74.68820 24.37160 C 76.45590 25.25550 77.11890 25.25550 75.79300 29.23300 C 73.80430 33.21050 64.96550 67.24000 62.75570 72.98520 C 61.20900 77.07320 60.87750 78.95140 58.22580 78.95140 "
       transform="matrix(1.114903,0,0,1.114903,-8.162471,-8.460684)"
       style="fill:#ffffff;fill-rule:evenodd;stroke-width:1;"
       id="path608" />
    <path
       d="M 28.75000 13.75000 C 28.75000 13.75000 31.87500 7.499950 39.68750 9.374950 C 47.50000 11.25000 78.12500 19.37500 77.81250 21.87500 C 77.50000 24.37500 71.87500 39.06250 71.56250 40.31250 C 71.25000 41.56250 42.50000 40.93750 31.56250 47.50000 C 20.62500 54.06250 12.50000 59.68750 12.50000 59.68750 C 12.50000 59.68750 23.75000 24.68750 28.75000 13.75000 z "
       transform="matrix(0.946780,0,0,0.946780,-0.480566,0.409517)"
       style="fill:url(#linearGradient615);fill-rule:evenodd;stroke-width:1;"
       id="path636" />
  </g>
  <g
     transform="matrix(0.88705,0,0,0.88705,5.9282757,7.2663288)"
     style="font-size:12px"
     id="g610">
    <path
       d="M 5.2817,42.4647 C 3.66785,50.7295 1.90728,57.2338 0.880279,65.2053 C 4.10798,73.1279 13.0575,79.2899 22.3005,80.4636 C 27.2887,79.73 31.5435,79.5834 36.5318,77.0892 C 44.112,80.1702 51.5455,83.838 59.1257,86.919 C 69.2979,81.0016 83.1378,72.5899 93.31,66.6725 C 87.5392,64.0316 77.8072,61.9777 72.0364,59.3368 C 76.0956,45.1544 73.5525,34.64 59.4191,26.473 C 57.5119,25.0058 52.5236,23.9787 48.1222,25.5927 C 48.1222,25.5927 46.0682,18.8438 43.2806,14.4424 C 39.3193,13.8555 8.80283,22.2182 7.77583,24.2722 C 8.46049,28.8692 10.0254,34.0531 11.0035,38.21 C 8.21596,40.1661 7.62911,40.9486 5.2817,42.4647 z "
       transform="matrix(0.930685,0,0,0.930685,2.34335,-0.94902)"
       style="fill-opacity:0.3;fill-rule:evenodd;stroke-width:1"
       id="path592" />
    <path
       d="M 5.2817,42.4647 C 3.66785,50.7295 1.90728,57.2338 0.880279,65.2053 C 4.10798,73.1279 13.0575,79.2899 22.3005,80.4636 C 27.2887,79.73 31.5435,79.5834 36.5318,77.0892 C 44.112,80.1702 51.5455,83.838 59.1257,86.919 C 69.2979,81.0016 83.1378,72.5899 93.31,66.6725 C 87.5392,64.0316 77.8072,61.9777 72.0364,59.3368 C 76.0956,45.1544 73.5525,34.64 59.4191,26.473 C 57.5119,25.0058 52.5236,23.9787 48.1222,25.5927 C 48.1222,25.5927 46.0682,18.8438 43.2806,14.4424 C 39.3193,13.8555 8.80283,22.2182 7.77583,24.2722 C 8.46049,28.8692 10.0254,34.0531 11.0035,38.21 C 8.21596,40.1661 7.62911,40.9486 5.2817,42.4647 z "
       transform="matrix(0.930685,0,0,0.930685,0.268503,-5.513678)"
       style="fill-rule:evenodd;stroke-width:1"
       id="path561" />
    <path
       d="M 38.1456,72.8345 L 58.5388,80.757 L 83.7736,67.6995 C 83.7736,67.6995 63.8205,61.0974 63.6738,61.2441 C 63.5271,61.3908 38.2923,72.9812 38.1456,72.8345 z "
       transform="matrix(0.930685,0,0,0.930685,0.268503,-5.513678)"
       style="fill:#c7eeff;fill-rule:evenodd;stroke-width:1"
       id="path556" />
    <path
       d="M 9.68311,44.5187 C 7.23788,51.2186 5.81965,57.9186 4.98827,64.6185 C 9.34079,71.8564 17.0678,74.2527 22.594,75.9155 C 24.4035,71.6608 24.8925,58.75 21.2735,52.8814 C 17.7035,48.1866 13.6933,45.1056 9.68311,44.5187 z "
       transform="matrix(0.930685,0,0,0.930685,0.268503,-5.513678)"
       style="fill:url(#linearGradient588);fill-rule:evenodd;stroke-width:1"
       id="path557" />
    <path
       d="M 11.0036,42.7582 C 30.1742,52.1478 23.6698,71.514 24.5012,76.0621 C 41.4711,71.9052 53.7461,64.3739 68.2219,57.4295 C 70.227,49.507 71.7919,36.8896 56.6315,28.3802 C 41.2755,30.2386 24.3056,35.1779 11.0036,42.7582 z "
       transform="matrix(0.930685,0,0,0.930685,0.268503,-5.513678)"
       style="fill:url(#linearGradient584);fill-rule:evenodd;stroke:#000000;stroke-width:1"
       id="path559" />
    <path
       d="M 21.2735,38.21 C 27.9734,39.9706 28.8048,49.2136 31.6902,49.6537 C 40.493,51.8055 55.898,44.861 56.3381,41.5844 C 57.0717,38.1611 52.2301,30.7765 48.4156,29.994 C 39.0748,32.1458 30.1742,34.4443 21.2735,38.21 z "
       transform="matrix(0.930685,0,0,0.930685,0.268503,-5.513678)"
       style="fill:url(#linearGradient565);fill-rule:evenodd;stroke-width:1"
       id="path558" />
    <path
       d="M 15.8451,39.8239 L 12.6174,26.3262 L 41.0799,18.8438 L 44.1609,29.5539 L 40.0529,30.8743 L 37.5587,24.7123 L 19.6597,29.5539 L 21.5669,37.6232"
       transform="matrix(0.930685,0,0,0.930685,0.268503,-5.513678)"
       style="fill:#ffffff;fill-rule:evenodd;stroke-width:1"
       id="path560" />
    <path
       d="M 21.2735,38.21 C 23.4087,38.6738 23.6625,39.4178 26.779,42.318 C 39.6898,44.7633 44.8367,35.212 53.3461,33.8426 C 50.8118,30.9381 50.9097,31.0699 48.4156,29.994 C 39.0748,32.1458 30.1742,34.4443 21.2735,38.21 z "
       transform="matrix(0.930685,0,0,0.930685,0.268503,-5.513678)"
       style="fill:url(#linearGradient567);fill-rule:evenodd;stroke-width:1"
       id="path566" />
    <path
       d="M 50.763,53.5416 C 50.763,55.2828 48.7912,56.696 46.3616,56.696 C 43.932,56.696 41.9602,55.2828 41.9602,53.5416 C 41.9602,51.8004 43.932,50.3873 46.3616,50.3873 C 48.7912,50.3873 50.763,51.8004 50.763,53.5416 z "
       transform="matrix(0.96855,-0.304545,0.285609,1.032766,-13.70667,1.569653)"
       style="fill:url(#linearGradient580);fill-rule:evenodd;stroke-width:1"
       id="path581" />
    <path
       d="M 50.763,53.5416 C 50.763,55.2828 48.7912,56.696 46.3616,56.696 C 43.932,56.696 41.9602,55.2828 41.9602,53.5416 C 41.9602,51.8004 43.932,50.3873 46.3616,50.3873 C 48.7912,50.3873 50.763,51.8004 50.763,53.5416 z "
       transform="matrix(0.892683,-0.263237,0.263237,0.892683,-9.332854,6.676979)"
       style="fill:url(#radialGradient573);fill-rule:evenodd;stroke-width:1"
       id="path583" />
    <path
       d="M 52.5236,51.0475 C 52.5236,52.0598 51.6362,52.8814 50.5429,52.8814 C 49.4496,52.8814 48.5623,52.0598 48.5623,51.0475 C 48.5623,50.0351 49.4496,49.2135 50.5429,49.2135 C 51.6362,49.2135 52.5236,50.0351 52.5236,51.0475 z "
       transform="matrix(0.930685,0,0,0.930685,-0.414221,-6.059856)"
       style="fill:url(#linearGradient568);fill-rule:evenodd;stroke-width:1"
       id="path582" />
    <path
       d="M 75.5245,67.7991 C 75.3462,67.7189 74.2254,66.8158 73.6571,67.3842 C 72.7977,68.0507 72.8272,68.2448 72.8272,69.459 C 72.5183,70.3857 71.9537,70.0912 71.1673,69.6665 C 70.5158,69.5688 70.2998,69.1942 70.1299,69.874 C 69.8532,70.1506 69.9915,70.8422 69.7149,71.1189 C 68.6386,71.1189 67.2746,70.8242 66.6026,71.1189 C 66.6026,72.2426 66.4557,72.232 65.3577,72.3638 C 64.132,72.3638 63.6824,72.2137 63.0754,72.9862 C 62.6134,73.66 62.4057,74.2395 61.8305,74.4386 C 60.8108,74.4071 59.6278,74.0876 58.9257,74.4386 C 58.6895,75.4425 58.6634,75.7828 57.4733,75.891 C 56.6379,75.891 56.6434,75.8855 56.6434,76.721 C 56.3345,76.8533 56.3297,77.0036 56.0209,77.1359"
       transform="matrix(0.930685,0,0,0.930685,0.268503,-5.513678)"
       style="fill:none;fill-rule:evenodd;stroke:#000000;stroke-width:1"
       id="path589" />
    <path
       d="M 69.7149,65.5168 C 69.4961,65.339 68.5475,64.8943 67.64,64.8943 C 67.0956,65.3969 67.1763,65.8585 66.8101,66.3467 C 65.7886,66.3467 64.8975,66.0745 64.3203,66.3467 C 63.6441,67.0229 63.4234,67.3815 63.2829,68.4216 C 62.9122,68.7249 62.9977,68.8365 62.2454,68.8365 C 61.1901,68.7584 60.6929,68.307 60.3781,69.2515 C 59.6124,69.857 59.3797,69.874 58.0957,69.874 C 57.473,69.874 56.7472,69.7701 56.4359,70.0815 C 56.1901,71.1261 56.0757,71.3442 54.9835,71.7413 C 54.1395,72.3177 53.7699,72.1295 53.7386,73.1937 C 53.1836,73.3968 52.3008,73.4012 51.4562,73.4012"
       transform="matrix(0.930685,0,0,0.930685,-1.85563,-6.092997)"
       style="fill:none;fill-rule:evenodd;stroke:#000000;stroke-width:1"
       id="path590" />
  </g>
</svg>
