<?xml version="1.0" encoding="UTF-8" standalone="no"?>
<!-- Created with Sodipodi ("http://www.sodipodi.com/") -->
<svg
   xmlns:dc="http://purl.org/dc/elements/1.1/"
   xmlns:cc="http://web.resource.org/cc/"
   xmlns:rdf="http://www.w3.org/1999/02/22-rdf-syntax-ns#"
   xmlns:svg="http://www.w3.org/2000/svg"
   xmlns="http://www.w3.org/2000/svg"
   xmlns:xlink="http://www.w3.org/1999/xlink"
   xmlns:sodipodi="http://sodipodi.sourceforge.net/DTD/sodipodi-0.dtd"
   xmlns:inkscape="http://www.inkscape.org/namespaces/inkscape"
   id="svg604"
   sodipodi:version="0.32"
   width="72pt"
   height="72pt"
   sodipodi:docbase="/home/tweenk"
   sodipodi:docname="gnome-mime-application-x-killustrator.svg"
   inkscape:version="0.45.1"
   inkscape:output_extension="org.inkscape.output.svg.inkscape">
  <metadata
     id="metadata2390">
    <rdf:RDF>
      <cc:Work
         rdf:about="">
        <dc:format>image/svg+xml</dc:format>
        <dc:type
           rdf:resource="http://purl.org/dc/dcmitype/StillImage" />
      </cc:Work>
    </rdf:RDF>
  </metadata>
  <defs
     id="defs606">
    <radialGradient
       inkscape:collect="always"
       xlink:href="#linearGradient614"
       id="radialGradient2784"
       gradientUnits="userSpaceOnUse"
       cx="38.0025978"
       cy="35.8999023"
       fx="38.0025978"
       fy="35.8999023"
       r="29.3162804" />
    <linearGradient
       id="linearGradient614">
      <stop
         style="stop-color:#ffdd05;stop-opacity:1;"
         offset="0"
         id="stop615" />
      <stop
         style="stop-color:#f20d00;stop-opacity:1;"
         offset="1"
         id="stop616" />
    </linearGradient>
    <radialGradient
       xlink:href="#linearGradient614"
       id="radialGradient617"
       cx="38.0025978"
       cy="35.8999023"
       r="29.3162804"
       fx="38.0025978"
       fy="35.8999023"
       gradientUnits="userSpaceOnUse" />
    <linearGradient
       id="linearGradient612">
      <stop
         style="stop-color:#7fa8e3;stop-opacity:0.741176;"
         offset="0.000000"
         id="stop613" />
      <stop
         style="stop-color:#ffffff;stop-opacity:0;"
         offset="1.000000"
         id="stop614" />
    </linearGradient>
    <linearGradient
       xlink:href="#linearGradient612"
       id="linearGradient615"
       x1="50.6438866"
       y1="5.36792946"
       x2="35.7520943"
       y2="68.0443573"
       gradientUnits="userSpaceOnUse"
       spreadMethod="pad" />
    <defs
       id="defs598">
      <linearGradient
         id="linearGradient697">
        <stop
           id="stop698"
           offset="0.000000"
           style="stop-color:#7fa8e3;stop-opacity:0.741176;" />
        <stop
           id="stop699"
           offset="1.000000"
           style="stop-color:#ffffff;stop-opacity:0;" />
      </linearGradient>
      <linearGradient
         id="linearGradient626">
        <stop
           id="stop627"
           offset="0.000000"
           style="stop-color:#ff0047;stop-opacity:1;" />
        <stop
           id="stop628"
           offset="1.000000"
           style="stop-color:#ab322d;stop-opacity:0;" />
      </linearGradient>
      <linearGradient
         id="linearGradient618">
        <stop
           id="stop619"
           offset="0.000000"
           style="stop-color:#956d47;stop-opacity:1;" />
        <stop
           id="stop620"
           offset="1.000000"
           style="stop-color:#ab322d;stop-opacity:0;" />
      </linearGradient>
      <linearGradient
         id="linearGradient706">
        <stop
           id="stop707"
           offset="0"
           style="stop-color:#000;stop-opacity:1;" />
        <stop
           id="stop708"
           offset="1"
           style="stop-color:#fff;stop-opacity:1;" />
      </linearGradient>
      <linearGradient
         gradientTransform="matrix(0.4170272,0,0,1.0607349,26.75834,4.099827)"
         spreadMethod="pad"
         gradientUnits="userSpaceOnUse"
         y2="21.446371"
         x2="54.455856"
         y1="22.932673"
         x1="14.043809"
         id="linearGradient617"
         xlink:href="#linearGradient618" />
      <linearGradient
         gradientTransform="matrix(0.6212022,0,0,0.7120958,26.758339,4.0998269)"
         spreadMethod="pad"
         gradientUnits="userSpaceOnUse"
         y2="63.0152588"
         x2="28.5382881"
         y1="77.3980103"
         x1="42.9995728"
         id="linearGradient625"
         xlink:href="#linearGradient626" />
      <linearGradient
         spreadMethod="pad"
         gradientUnits="userSpaceOnUse"
         y2="61.6665344"
         x2="24.6243172"
         y1="10.6072874"
         x1="16.4110699"
         id="linearGradient636"
         xlink:href="#linearGradient612" />
    </defs>
    <sodipodi:namedview
       id="namedview712" />
  </defs>
  <sodipodi:namedview
     id="base"
     inkscape:zoom="4.5222222"
     inkscape:cx="45"
     inkscape:cy="45"
     inkscape:window-width="795"
     inkscape:window-height="623"
     inkscape:window-x="165"
     inkscape:window-y="83"
     inkscape:current-layer="svg604" />
  <g
     transform="translate(-1.146498,1.146498)"
     id="g898">
    <path
       transform="matrix(1.114903,0,0,1.114903,1.287023,-5.035753)"
       sodipodi:nodetypes="ccccccccc"
       id="path794"
       d="M 12.8163,74.753 C 10.3856,73.6481 7.07107,70.1126 8.83884,65.2512 C 9.72267,59.948 25.6326,13.1021 29.1682,10.8924 C 31.3778,8.90368 34.582,8.13026 39.1119,9.34561 C 42.8684,10.2295 76.6769,19.0684 78.6656,20.8361 C 80.6544,22.6039 82.2012,24.0402 80.6544,27.9072 C 79.5496,29.8959 66.4017,74.532 66.1808,77.4047 C 65.2969,80.4983 62.7558,84.2548 58.5573,84.0338 C 54.3589,83.8128 15.9099,75.4159 12.8163,74.753 z "
       style="fill:#000000;fill-opacity:0.30147101;fill-rule:evenodd;stroke:none;stroke-width:1pt;stroke-linecap:butt;stroke-linejoin:miter;stroke-opacity:1" />
    <path
       transform="matrix(1.114903,0,0,1.114903,-1.570116,-9.607182)"
       sodipodi:nodetypes="ccccccccc"
       id="path895"
       d="M 12.8163,74.753 C 10.3856,73.6481 7.07107,70.1126 8.83884,65.2512 C 9.72267,59.948 25.6326,13.1021 29.1682,10.8924 C 31.3778,8.90368 34.582,8.13026 39.1119,9.34561 C 42.8684,10.2295 76.6769,19.0684 78.6656,20.8361 C 80.6544,22.6039 82.2012,24.0402 80.6544,27.9072 C 79.5496,29.8959 66.4017,74.532 66.1808,77.4047 C 65.2969,80.4983 62.7558,84.2548 58.5573,84.0338 C 54.3589,83.8128 15.9099,75.4159 12.8163,74.753 z "
       style="fill:#3d4e67;fill-opacity:1;fill-rule:evenodd;stroke:none;stroke-width:1pt;stroke-linecap:butt;stroke-linejoin:miter;stroke-opacity:1" />
    <path
       transform="matrix(1.114903,0,0,1.114903,-1.570116,-9.607182)"
       sodipodi:nodetypes="cccccccs"
       id="path896"
       d="M 17.8987,70.9965 C 15.3576,70.3336 11.7114,69.6706 13.0373,65.6932 C 15.468,55.9705 27.8424,18.6264 33.1456,13.986 C 34.361,12.8811 38.4489,12.4392 46.1829,14.8699 C 55.0218,17.5215 72.9204,23.4877 74.6882,24.3716 C 76.4559,25.2555 77.1189,25.2555 75.793,29.233 C 73.8043,33.2105 64.9655,67.24 62.7557,72.9852 C 61.209,77.0732 60.8775,78.9514 58.2258,78.9514"
       style="fill:#ffffff;fill-opacity:1;fill-rule:evenodd;stroke:none;stroke-width:1pt;stroke-linecap:butt;stroke-linejoin:miter;stroke-opacity:1" />
    <path
       transform="matrix(0.94678,0,0,0.94678,6.111789,-0.73698)"
       id="path636"
       d="M 28.75,13.75 C 28.75,13.75 31.875,7.49995 39.6875,9.37495 C 47.5,11.25 78.125,19.375 77.8125,21.875 C 77.5,24.375 71.875,39.0625 71.5625,40.3125 C 71.25,41.5625 42.5,40.9375 31.5625,47.5 C 20.625,54.0625 12.5,59.6875 12.5,59.6875 C 12.5,59.6875 23.75,24.6875 28.75,13.75 z "
       style="fill:url(#linearGradient636);fill-opacity:1;fill-rule:evenodd;stroke:none;stroke-width:1pt;stroke-linecap:butt;stroke-linejoin:miter;stroke-opacity:1" />
  </g>
  <path
     id="path613"
     d="M 71.92581,48.319932 C 71.92581,49.448337 70.9549,50.364044 69.758588,50.364044 C 68.56221,50.364044 67.5913,49.448337 67.5913,48.319932 C 67.5913,47.191593 68.56221,46.275819 69.758588,46.275819 C 70.9549,46.275819 71.92581,47.191593 71.92581,48.319932 z "
     style="font-size:12px;fill:#470000;fill-rule:evenodd;stroke-width:1pt" />
  <path
     sodipodi:nodetypes="cccccccccccc"
     id="path610"
     d="M 67.492799,53.516475 C 66.458372,52.334264 64.783722,52.97462 64.241867,53.811978 C 63.650794,55.880699 64.58672,57.752418 67.049511,56.865842 C 69.512303,55.9792 70.398878,54.600053 70.398878,54.698554 C 70.398878,54.797122 68.428658,60.018207 65.473296,60.412211 C 62.517933,60.806282 60.8925,60.904783 57.641634,60.954067 C 54.292267,61.545139 52.666834,61.495856 52.666834,61.495856 L 56.804275,55.585196 C 56.804275,55.585196 57.887919,54.994124 59.661137,52.038761 C 61.434355,49.083464 64.586653,48.393824 66.162869,49.378967 C 67.5913,49.969973 68.379375,50.758114 68.773445,52.285046 C 68.674944,53.959697 68.379375,54.600053 67.492799,53.516475 z "
     style="font-size:12px;fill:#470000;fill-rule:evenodd;stroke-width:1pt" />
  <path
     sodipodi:nodetypes="cccccccc"
     id="path609"
     d="M 52.17428,54.94484 C 53.651928,55.33891 51.927994,57.456848 50.992135,55.9792 C 50.253277,57.013561 50.598064,54.501552 50.598064,54.501552 L 47.445699,61.101785 C 47.445699,61.101785 52.863854,63.072071 54.932574,60.215209 C 57.001295,57.358414 57.247647,55.880699 56.114786,54.698554 C 54.78479,52.876186 53.602644,53.614976 53.110139,53.910479 C 52.617568,54.206049 52.420566,54.403051 52.17428,54.94484 z "
     style="font-size:12px;fill:#230000;fill-opacity:0.99898999;fill-rule:evenodd;stroke-width:1pt" />
  <path
     sodipodi:nodetypes="cccccccc"
     id="path608"
     d="M 50.795115,45.340027 C 50.795115,45.340027 51.386121,41.793591 51.189119,39.921872 C 50.893616,35.882865 42.421597,1.8964837 36.116934,7.8071697 C 28.827074,10.664005 37.496081,43.271239 38.579725,45.142958 C 39.663303,47.014677 41.239519,48.393824 41.239519,48.393824 C 41.239519,48.393824 38.776661,59.624203 47.987537,61.200286 C 51.33697,54.994124 53.700595,52.51936 53.159405,49.723754 C 52.863836,48.147605 52.469832,46.66989 50.795115,45.340027 z "
     style="font-size:12px;fill:#230000;fill-rule:evenodd;stroke-width:1pt" />
  <path
     sodipodi:nodetypes="cccc"
     id="path600"
     d="M 39.663303,42.877235 C 41.436521,40.710013 43.406741,39.133798 48.430824,39.626369 C 46.854675,30.858781 41.239519,7.2160971 37.200512,9.3833522 C 32.669046,10.171447 36.905009,36.572505 39.663303,42.877235 z "
     style="font-size:12px;fill:#f2962c;fill-rule:evenodd;stroke-width:1pt" />
  <path
     sodipodi:nodetypes="ccccc"
     id="path601"
     d="M 39.958873,43.763811 C 39.958873,43.763811 40.845448,46.620606 43.209739,46.817675 C 44.293383,45.142958 46.756174,44.847455 48.824895,44.945956 C 49.317467,43.074237 49.711471,40.808448 48.923396,40.709947 C 47.938319,40.118874 42.421664,39.035297 39.958873,43.763811 z "
     style="font-size:12px;fill:#8b8b8b;fill-rule:evenodd;stroke-width:1pt" />
  <path
     sodipodi:nodetypes="cccccc"
     id="path602"
     d="M 43.30824,48.295323 C 43.800811,46.128101 47.544249,44.650453 49.218899,46.423604 C 53.257906,48.689394 51.484688,54.30455 49.711471,54.403051 C 49.218899,61.397355 53.94748,57.555349 53.848979,56.077768 C 57.395348,55.585196 54.538552,60.60928 52.174262,60.31371 C 48.923396,60.806282 40.254376,57.850986 43.30824,48.295323 z "
     style="font-size:12px;fill:#65532d;fill-rule:evenodd;stroke-width:1pt" />
  <path
     sodipodi:nodetypes="cccccccc"
     id="path603"
     d="M 56.410271,58.146489 C 56.508772,58.24499 57.789418,58.146489 58.478992,56.964343 C 59.168566,55.782198 61.532856,50.955116 63.207573,50.856615 C 67.246513,49.378967 67.246513,52.137262 67.246513,52.137262 C 67.246513,52.137262 63.503076,50.758114 63.109005,53.122405 C 62.715001,55.486695 62.025427,56.865842 66.556873,58.737561 C 63.995647,59.624137 56.000039,59.795134 55.507401,59.795134 C 55.014829,59.795134 56.508772,58.047988 56.410271,58.146489 z "
     style="font-size:12px;fill:#bc0000;fill-rule:evenodd;stroke-width:1pt" />
  <path
     sodipodi:nodetypes="cccc"
     id="path726"
     d="M 57.789418,49.083464 C 58.971564,47.310246 63.059788,48.196822 64.93144,47.802818 C 67.19723,47.211745 66.012424,43.07151 63.451132,43.071577 C 61.685429,42.718609 57.986487,42.778668 57.789418,49.083464 z "
     style="font-size:12px;fill:#470000;fill-rule:evenodd;stroke-width:1pt" />
  <path
     sodipodi:nodetypes="cccc"
     id="path604"
     d="M 58.774561,47.211745 C 58.774561,47.211745 63.010504,46.817675 64.094148,46.817675 C 65.374795,47.091562 65.46139,45.148412 64.389651,44.453384 C 62.517999,43.172738 59.95664,43.074237 58.774561,47.211745 z "
     style="font-size:12px;fill:#bc0000;fill-rule:evenodd;stroke-width:1pt" />
  <path
     id="path606"
     d="M 71.186953,48.393824 C 71.186953,49.155162 70.547062,49.773038 69.758522,49.773038 C 68.970048,49.773038 68.330157,49.155162 68.330157,48.393824 C 68.330157,47.632553 68.970048,47.014677 69.758522,47.014677 C 70.547062,47.014677 71.186953,47.632553 71.186953,48.393824 z "
     style="font-size:12px;fill:#bc0000;fill-rule:evenodd;stroke-width:1pt" />
  <path
     sodipodi:nodetypes="cccc"
     id="path729"
     d="M 39.663303,42.877235 C 41.436521,40.710013 43.406741,39.133798 48.430824,39.626369 C 46.854675,30.858781 41.239519,7.2160971 37.200512,9.3833522 C 32.669046,10.171447 36.905009,36.572505 39.663303,42.877235 z "
     style="font-size:12px;fill:url(#linearGradient617);fill-rule:evenodd;stroke-width:1pt" />
  <path
     sodipodi:nodetypes="css"
     id="path730"
     d="M 45.67253,39.03523 C 43.476842,39.135527 36.469901,9.4233845 39.170731,11.058082 C 39.806166,11.502235 49.621017,39.032104 45.67253,39.03523 z "
     style="font-size:12px;fill:#f2d0a8;fill-rule:evenodd;stroke-width:1pt" />
  <path
     sodipodi:nodetypes="ccccc"
     id="path623"
     d="M 47.051677,40.315943 L 47.445748,44.847455 L 45.179958,45.340027 L 44.194882,40.414377 C 44.194882,40.414377 46.854675,40.118941 47.051677,40.315943 z "
     style="font-size:12px;fill:#f2f2f2;fill-rule:evenodd;stroke-width:1pt" />
  <path
     sodipodi:nodetypes="cccccc"
     id="path732"
     d="M 43.30824,48.295323 C 43.800811,46.128101 47.544249,44.650453 49.218899,46.423604 C 53.257906,48.689394 51.484688,54.30455 49.711471,54.403051 C 49.218899,61.397355 53.94748,57.555349 53.848979,56.077768 C 57.395348,55.585196 54.538552,60.60928 52.174262,60.31371 C 48.923396,60.806282 40.254376,57.850986 43.30824,48.295323 z "
     style="font-size:12px;fill:url(#linearGradient625);fill-rule:nonzero;stroke-width:1pt" />
  <g
     id="g640"
     transform="matrix(0.4900668,0,0,0.4900668,3.5080734,42.178416)">
    <defs
       id="defs2753">
      <linearGradient
         id="linearGradient2398">
        <stop
           style="stop-color:#ffdd05;stop-opacity:1;"
           offset="0"
           id="stop2400" />
        <stop
           style="stop-color:#f20d00;stop-opacity:1;"
           offset="1"
           id="stop2402" />
      </linearGradient>
      <radialGradient
         xlink:href="#linearGradient614"
         id="radialGradient2404"
         cx="38.002598"
         cy="35.899902"
         r="29.31628"
         fx="38.002598"
         fy="35.899902"
         gradientUnits="userSpaceOnUse" />
    </defs>
    <sodipodi:namedview
       id="namedview646" />
    <path
       style="fill:#6d6d6d;fill-opacity:0.33639999;fill-rule:evenodd;stroke:none;stroke-width:1pt;stroke-linecap:butt;stroke-linejoin:miter;stroke-opacity:1"
       d="M 8.830681,22.59242 L 6.181481,25.53599 L 13.24603,33.77796 C 13.24603,33.77796 4.120981,42.90301 4.120981,43.49172 C 4.120981,44.08043 3.532271,56.73775 3.532271,56.73775 L 10.89118,57.62082 L 13.24603,64.97973 L 6.475831,73.81041 L 20.31058,85.87902 L 25.90335,77.34269 L 33.85097,78.52011 L 32.9679,87.3508 L 53.57284,90.29436 L 52.98413,80.28625 L 57.98818,78.22576 L 64.46402,86.76209 L 79.47614,76.75398 L 77.71004,68.512 L 89.48434,59.68131 L 84.77464,51.14498 L 88.01254,33.18925 L 76.23824,31.12876 L 86.83514,24.35856 L 76.53264,10.81817 L 60.63739,12.87867 L 55.92769,9.640737 L 55.63333,5.519767 L 45.91957,7.580247 C 45.91957,7.580247 32.67354,17.29401 32.67354,18.47144 C 32.67354,19.64886 15.60088,23.76985 15.60088,23.76985"
       id="path2760" />
    <path
       style="fill:#000000;fill-opacity:1;fill-rule:evenodd;stroke:none;stroke-width:1pt;stroke-linecap:butt;stroke-linejoin:miter;stroke-opacity:1"
       d="M 18.51135,8.281527 L 6.135371,20.36314 L 12.27075,27.9703 L 9.997468,32.76393 L 0.883064,34.5537 L 1.801597,53.0296 L 9.973828,53.64195 L 13.75435,60.22536 L 7.030265,67.53818 L 19.68877,79.60796 L 24.92926,72.62498 L 31.23013,74.26227 L 31.21831,82.19925 L 49.98855,84.88392 L 49.98855,75.75768 L 57.14886,72.33063 L 63.88477,79.59615 L 75.99002,70.21102 L 68.45379,60.49608 L 72.12793,53.14781 L 81.51304,52.82981 L 83.00848,37.27385 L 71.83357,33.39993 L 69.00704,24.53259 L 59.20935,14.0398 L 51.03712,11.95566 L 32.64281,10.98984 C 32.64281,10.98984 28.5561,14.16984 25.24725,14.69944 C 23.41018,13.16855 21.45491,9.447126 18.51135,8.281527 z "
       id="path2762"
       sodipodi:nodetypes="ccccccccccccccccccccccccccccc" />
    <path
       style="fill:#d8d8d8;fill-opacity:1;fill-rule:evenodd;stroke:none;stroke-width:1pt;stroke-linecap:butt;stroke-linejoin:miter;stroke-opacity:1"
       d="M 18.54445,13.17302 L 10.89118,20.82628 L 17.07266,27.00776 L 11.77425,36.42716 L 4.7097,37.01587 L 5.592769,49.96755 L 11.18554,50.55626 L 17.36702,60.56437 L 11.18554,66.74586 L 18.54445,74.10476 L 24.43157,68.80635 L 34.73404,72.92734 L 34.43968,79.99189 L 47.39136,80.87496 L 47.39136,73.51605 L 57.10512,68.80635 L 63.58095,73.81041 L 71.82293,67.33457 L 67.40758,59.97566 L 70.93986,52.91111 L 77.4157,52.3224 L 78.00441,38.78201 L 70.93986,37.60458 L 66.52452,29.36261 L 57.10512,17.294 L 51.51235,16.70529 L 33.26226,14.6448 C 33.26226,14.6448 26.78642,20.53192 25.02028,19.06014 C 23.25414,17.58836 18.54445,12.87866 18.54445,13.17302 z "
       id="path2764" />
    <path
       style="font-size:12px;fill:#848484;fill-opacity:1;fill-rule:evenodd;stroke-width:1"
       d="M 68.87937,43.78608 C 68.87937,58.57982 56.88668,70.57251 42.09294,70.57251 C 27.29922,70.57251 15.30654,58.57982 15.30654,43.78608 C 15.30654,28.99235 27.29922,16.99965 42.09294,16.99965 C 56.88668,16.99965 68.87937,28.99235 68.87937,43.78608 z "
       id="path2766" />
    <path
       style="font-size:12px;fill:#000000;fill-opacity:1;fill-rule:evenodd;stroke-width:1"
       d="M 66.81888,43.78608 C 66.81888,57.44184 55.7487,68.51201 42.09294,68.51201 C 28.4372,68.51201 17.36703,57.44184 17.36703,43.78608 C 17.36703,30.13032 28.4372,19.06014 42.09294,19.06014 C 55.7487,19.06014 66.81888,30.13032 66.81888,43.78608 z "
       id="path2768" />
    <path
       style="font-size:12px;fill:url(#radialGradient2784);fill-rule:evenodd;stroke-width:1"
       d="M 65.03453,43.78608 C 65.03453,56.45636 54.76324,66.72766 42.09294,66.72766 C 29.42267,66.72766 19.15137,56.45636 19.15137,43.78608 C 19.15137,31.11578 29.42267,20.84449 42.09294,20.84449 C 54.76324,20.84449 65.03453,31.11578 65.03453,43.78608 z "
       id="path2770" />
    <path
       style="fill:#000000;fill-opacity:1;fill-rule:evenodd;stroke:#000000;stroke-width:1pt;stroke-linecap:butt;stroke-linejoin:miter;stroke-opacity:1"
       d="M 32.37919,4.047976 L 33.26226,65.86279 L 51.8067,66.74586 L 50.92363,47.6127 L 71.23422,68.51199 L 84.48025,56.73774 L 63.87531,35.54409 L 85.95203,16.41093 L 73.29471,0.810051 L 51.8067,21.70935 C 51.8067,21.70935 52.98413,2.281837 52.39542,2.281837 C 51.8067,2.281837 32.08483,3.753614 32.37919,4.047976 z "
       id="path2772"
       sodipodi:nodetypes="cccccccccccc" />
    <path
       style="fill:#ffffff;fill-opacity:1;fill-rule:evenodd;stroke:none;stroke-width:1pt;stroke-linecap:butt;stroke-linejoin:miter;stroke-opacity:1"
       d="M 48.56878,6.402817 L 48.86314,28.47954 L 71.82293,5.519753 L 80.94797,13.17302 L 59.16561,35.83845 L 80.35926,56.44339 L 70.05679,63.80229 L 47.98007,40.54815 L 47.68571,62.62487 C 47.68571,62.62487 34.73404,64.68536 35.32275,62.03615 C 35.91146,59.38695 35.0284,6.697178 35.0284,6.697178 L 48.56878,6.402817 z "
       id="path2774"
       sodipodi:nodetypes="cccccccccccc" />
    <path
       style="fill:#ffffff;fill-opacity:1;fill-rule:evenodd;stroke:none;stroke-width:1pt;stroke-linecap:butt;stroke-linejoin:miter;stroke-opacity:1"
       d="M 16.48395,26.41905 L 17.07266,24.0642 L 13.83474,19.94321 L 20.31058,14.6448 L 18.54445,12.87866 L 10.89118,20.53192 L 16.48395,26.41905 z "
       id="path2776" />
    <path
       style="fill:#ffffff;fill-opacity:1;fill-rule:evenodd;stroke:none;stroke-width:1pt;stroke-linecap:butt;stroke-linejoin:miter;stroke-opacity:1"
       d="M 11.47989,35.54409 L 10.59682,37.89894 L 6.770194,38.1933 L 7.358906,49.67319 L 5.298412,49.96755 L 4.7097,36.1328 L 11.47989,35.54409 z "
       id="path2778" />
    <path
       style="fill:#ffffff;fill-opacity:1;fill-rule:evenodd;stroke:none;stroke-width:1pt;stroke-linecap:butt;stroke-linejoin:miter;stroke-opacity:1"
       d="M 11.47989,66.15714 L 17.36702,73.22169 L 14.71781,66.74586 L 17.95573,60.27002 L 11.47989,66.15714 z "
       id="path2780" />
    <path
       style="fill:#ffffff;fill-opacity:1;fill-rule:evenodd;stroke:none;stroke-width:1pt;stroke-linecap:butt;stroke-linejoin:miter;stroke-opacity:1"
       d="M 34.73404,72.63298 L 37.38324,73.51605 L 37.08889,79.99189 L 34.14533,79.99189 L 34.73404,72.63298 z "
       id="path2782" />
  </g>
</svg>
