<?xml version="1.0" encoding="UTF-8" standalone="no"?>
<!-- Created with Sodipodi ("http://www.sodipodi.com/") -->
<svg
   xmlns:dc="http://purl.org/dc/elements/1.1/"
   xmlns:cc="http://web.resource.org/cc/"
   xmlns:rdf="http://www.w3.org/1999/02/22-rdf-syntax-ns#"
   xmlns:svg="http://www.w3.org/2000/svg"
   xmlns="http://www.w3.org/2000/svg"
   xmlns:xlink="http://www.w3.org/1999/xlink"
   xmlns:sodipodi="http://sodipodi.sourceforge.net/DTD/sodipodi-0.dtd"
   xmlns:inkscape="http://www.inkscape.org/namespaces/inkscape"
   id="svg604"
   sodipodi:version="0.32"
   width="72pt"
   height="72pt"
   sodipodi:docbase="/home/tweenk/dev/GartoonRedux/scalable/mimetypes"
   sodipodi:docname="application-x-font-sunos-news.svg"
   inkscape:version="0.45.1"
   inkscape:output_extension="org.inkscape.output.svg.inkscape">
  <metadata
     id="metadata3332">
    <rdf:RDF>
      <cc:Work
         rdf:about="">
        <dc:format>image/svg+xml</dc:format>
        <dc:type
           rdf:resource="http://purl.org/dc/dcmitype/StillImage" />
      </cc:Work>
    </rdf:RDF>
  </metadata>
  <defs
     id="defs606">
    <linearGradient
       id="linearGradient612">
      <stop
         style="stop-color:#7fa8e3;stop-opacity:0.741176;"
         offset="0.000000"
         id="stop613" />
      <stop
         style="stop-color:#ffffff;stop-opacity:0;"
         offset="1.000000"
         id="stop614" />
    </linearGradient>
    <linearGradient
       xlink:href="#linearGradient612"
       id="linearGradient615"
       x1="50.6438866"
       y1="5.36792946"
       x2="35.7520943"
       y2="68.0443573"
       gradientUnits="userSpaceOnUse"
       spreadMethod="pad" />
  </defs>
  <sodipodi:namedview
     id="base"
     inkscape:zoom="3.197694"
     inkscape:cx="64.826455"
     inkscape:cy="36.038235"
     inkscape:window-width="795"
     inkscape:window-height="619"
     inkscape:window-x="0"
     inkscape:window-y="1"
     inkscape:current-layer="svg604" />
  <path
     style="fill:#000000;fill-rule:evenodd;stroke:none;stroke-opacity:1;stroke-width:1pt;stroke-linejoin:miter;stroke-linecap:butt;fill-opacity:0.301471;"
     d="M 12.8163 74.753 C 10.3856 73.6481 7.07107 70.1126 8.83884 65.2512 C 9.72267 59.948 25.6326 13.1021 29.1682 10.8924 C 31.3778 8.90368 34.582 8.13026 39.1119 9.34561 C 42.8684 10.2295 76.6769 19.0684 78.6656 20.8361 C 80.6544 22.6039 82.2012 24.0402 80.6544 27.9072 C 79.5496 29.8959 66.4017 74.532 66.1808 77.4047 C 65.2969 80.4983 62.7558 84.2548 58.5573 84.0338 C 54.3589 83.8128 15.9099 75.4159 12.8163 74.753 z "
     id="path794"
     sodipodi:nodetypes="ccccccccc"
     transform="matrix(1.114903,0.000000,0.000000,1.114903,-5.305332,-3.889256)" />
  <path
     style="fill:#3d4e67;fill-rule:evenodd;stroke:none;stroke-opacity:1;stroke-width:1pt;stroke-linejoin:miter;stroke-linecap:butt;fill-opacity:1;"
     d="M 12.8163 74.753 C 10.3856 73.6481 7.07107 70.1126 8.83884 65.2512 C 9.72267 59.948 25.6326 13.1021 29.1682 10.8924 C 31.3778 8.90368 34.582 8.13026 39.1119 9.34561 C 42.8684 10.2295 76.6769 19.0684 78.6656 20.8361 C 80.6544 22.6039 82.2012 24.0402 80.6544 27.9072 C 79.5496 29.8959 66.4017 74.532 66.1808 77.4047 C 65.2969 80.4983 62.7558 84.2548 58.5573 84.0338 C 54.3589 83.8128 15.9099 75.4159 12.8163 74.753 z "
     id="path609"
     sodipodi:nodetypes="ccccccccc"
     transform="matrix(1.114903,0.000000,0.000000,1.114903,-8.162471,-8.460684)" />
  <path
     style="fill:#ffffff;fill-rule:evenodd;stroke:none;stroke-opacity:1;stroke-width:1pt;stroke-linejoin:miter;stroke-linecap:butt;fill-opacity:1;"
     d="M 17.8987 70.9965 C 15.3576 70.3336 11.7114 69.6706 13.0373 65.6932 C 15.468 55.9705 27.8424 18.6264 33.1456 13.986 C 34.361 12.8811 38.4489 12.4392 46.1829 14.8699 C 55.0218 17.5215 72.9204 23.4877 74.6882 24.3716 C 76.4559 25.2555 77.1189 25.2555 75.793 29.233 C 73.8043 33.2105 64.9655 67.24 62.7557 72.9852 C 61.209 77.0732 60.8775 78.9514 58.2258 78.9514 "
     id="path608"
     sodipodi:nodetypes="cccccccs"
     transform="matrix(1.114903,0.000000,0.000000,1.114903,-8.162471,-8.460684)" />
  <path
     style="fill:url(#linearGradient615);fill-rule:evenodd;stroke:none;stroke-opacity:1;stroke-width:1pt;stroke-linejoin:miter;stroke-linecap:butt;fill-opacity:1;"
     d="M 28.75 13.75 C 28.75 13.75 31.875 7.49995 39.6875 9.37495 C 47.5 11.25 78.125 19.375 77.8125 21.875 C 77.5 24.375 71.875 39.0625 71.5625 40.3125 C 71.25 41.5625 42.5 40.9375 31.5625 47.5 C 20.625 54.0625 12.5 59.6875 12.5 59.6875 C 12.5 59.6875 23.75 24.6875 28.75 13.75 z "
     id="path636"
     transform="matrix(0.946780,0.000000,0.000000,0.946780,-0.480566,0.409517)" />
  <path
     style="font-size:40.34008408px;font-style:normal;font-weight:normal;fill:#000000;fill-opacity:0.29357796;stroke:none;stroke-width:1px;stroke-linecap:butt;stroke-linejoin:miter;stroke-opacity:1;font-family:DejaVu Sans"
     d="M 18.910459,45.80878 C 19.500372,43.560606 20.090285,41.312431 20.680198,39.064255 C 21.486747,39.275891 22.293296,39.487526 23.099844,39.699161 C 22.63601,42.835974 24.300209,46.148063 27.288379,47.362147 C 29.864618,48.453399 33.295425,49.526028 35.728491,47.554392 C 37.464191,45.922163 37.681939,42.646198 35.456786,41.304105 C 31.787856,38.469934 26.833686,37.338692 23.984638,33.477498 C 22.065636,30.394429 23.084418,26.271036 25.052804,23.467234 C 27.760394,19.925368 32.784212,19.800168 36.711838,20.994309 C 40.250279,21.965692 43.598171,23.542081 46.743229,25.416797 C 46.19331,27.512553 45.64339,29.608309 45.093471,31.704065 C 44.286923,31.49243 43.480375,31.280795 42.673826,31.069159 C 43.036039,28.342418 41.651533,25.463299 39.069182,24.355834 C 36.649436,23.298484 33.626223,22.257607 31.127097,23.634341 C 29.101315,25.067447 28.875655,28.646903 31.186421,29.944012 C 34.675598,32.654605 39.246158,33.802605 42.252725,37.147617 C 44.986362,40.366521 44.1521,45.353638 41.79697,48.535498 C 39.113327,51.853203 34.36714,51.793307 30.575973,50.905604 C 26.405103,49.975516 22.456709,48.179189 18.910459,45.808779 L 18.910459,45.80878 z M 45.721692,53.678882 C 46.216619,51.792701 46.711546,49.90652 47.206474,48.020338 C 47.833975,48.358196 49.215988,48.184058 49.323997,48.874432 C 48.874644,51.426108 50.671903,53.893211 53.128378,54.523343 C 54.983614,55.211214 58.061536,55.484176 58.695462,53.051055 C 59.400982,50.9491 57.245837,49.649131 55.657441,48.866044 C 53.052486,47.374927 49.707258,46.026915 49.005593,42.786339 C 48.427379,39.452812 50.608242,35.533737 54.218679,35.275801 C 59.182902,34.826652 63.930519,36.95549 68.195997,39.27303 C 67.749397,40.975039 67.302798,42.677047 66.856198,44.379056 C 66.232401,44.050882 64.877552,44.200931 64.744438,43.551775 C 65.318494,41.016915 63.22147,38.851942 60.877076,38.354792 C 59.032924,37.647153 55.80145,37.632447 55.640724,40.246137 C 55.58474,42.415361 57.999715,43.055489 59.5194,44.022301 C 62.084462,45.496556 65.350249,47.048159 65.917389,50.260811 C 66.358653,53.537984 64.299669,57.345963 60.772126,57.70721 C 55.490784,58.267455 50.305863,56.081166 45.721692,53.67888 L 45.721692,53.678882 z "
     id="text3627" />
  <path
     style="font-size:40.34008408px;font-style:normal;font-weight:normal;fill:#3d4e67;fill-opacity:1;stroke:none;stroke-width:1px;stroke-linecap:butt;stroke-linejoin:miter;stroke-opacity:1;font-family:DejaVu Sans"
     d="M 17.998788,43.985445 C 18.588701,41.737269 19.178614,39.489095 19.768527,37.24092 C 20.575075,37.452555 21.381623,37.664191 22.188171,37.875826 C 21.72434,41.012639 23.388538,44.324726 26.376708,45.538811 C 28.952948,46.630065 32.383754,47.702691 34.816822,45.731058 C 36.55252,44.098826 36.770267,40.822863 34.545114,39.480768 C 30.876185,36.646597 25.922015,35.515357 23.072968,31.654163 C 21.153965,28.571093 22.172748,24.447702 24.141134,21.643897 C 26.848722,18.102033 31.872541,17.976831 35.800166,19.170973 C 39.338608,20.142356 42.6865,21.718745 45.831558,23.593462 C 45.281639,25.689217 44.731719,27.784974 44.1818,29.880729 C 43.375252,29.669094 42.568703,29.457458 41.762155,29.245823 C 42.124369,26.519081 40.739862,23.639962 38.15751,22.532498 C 35.737763,21.475148 32.714552,20.434272 30.215426,21.811005 C 28.189645,23.24411 27.963985,26.823566 30.274751,28.120675 C 33.763927,30.831268 38.334487,31.97927 41.341054,35.324282 C 44.074691,38.543185 43.240429,43.530303 40.885301,46.712163 C 38.201656,50.029869 33.455469,49.969971 29.664302,49.082269 C 25.493432,48.15218 21.545038,46.355852 17.998787,43.985444 L 17.998788,43.985445 z M 44.810022,51.855542 C 45.304949,49.969363 45.799876,48.083182 46.294803,46.197003 C 46.922305,46.53486 48.304318,46.360722 48.412327,47.051096 C 47.962975,49.602772 49.760231,52.069877 52.216708,52.700007 C 54.071944,53.387878 57.149865,53.660841 57.783792,51.22772 C 58.489312,49.125763 56.334167,47.825795 54.745769,47.042709 C 52.140816,45.551591 48.795589,44.203579 48.093921,40.963004 C 47.51571,37.629479 49.696569,33.7104 53.307008,33.452464 C 58.27123,33.003316 63.018848,35.132154 67.284327,37.449695 C 66.837727,39.151704 66.391127,40.853712 65.944527,42.555719 C 65.32073,42.227547 63.965881,42.377595 63.832767,41.728439 C 64.406823,39.19358 62.3098,37.028606 59.965405,36.531457 C 58.121255,35.823818 54.88978,35.80911 54.729053,38.422801 C 54.673069,40.592026 57.088045,41.232152 58.60773,42.198965 C 61.172792,43.67322 64.438578,45.224823 65.005717,48.437475 C 65.44698,51.714647 63.387998,55.522628 59.860455,55.883875 C 54.579112,56.444119 49.394192,54.25783 44.810022,51.855544 L 44.810022,51.855542 z "
     id="text3623" />
</svg>
