<?xml version="1.0" encoding="UTF-8" standalone="no"?>
<!-- Created with Sodipodi ("http://www.sodipodi.com/") -->
<svg
   xmlns:dc="http://purl.org/dc/elements/1.1/"
   xmlns:cc="http://creativecommons.org/ns#"
   xmlns:rdf="http://www.w3.org/1999/02/22-rdf-syntax-ns#"
   xmlns:svg="http://www.w3.org/2000/svg"
   xmlns="http://www.w3.org/2000/svg"
   xmlns:xlink="http://www.w3.org/1999/xlink"
   xmlns:sodipodi="http://sodipodi.sourceforge.net/DTD/sodipodi-0.dtd"
   xmlns:inkscape="http://www.inkscape.org/namespaces/inkscape"
   version="1"
   x="0.00000000"
   y="0.00000000"
   width="90.0000000"
   height="90.0000000"
   id="svg604"
   sodipodi:version="0.32"
   inkscape:version="0.46+devel"
   sodipodi:docname="application-x-ipod-firmware.svg"
   sodipodi:docbase="/home/tweenk/GNUtoon/mimetypes"
   inkscape:output_extension="org.inkscape.output.svg.inkscape">
  <metadata
     id="metadata27">
    <rdf:RDF>
      <cc:Work
         rdf:about="">
        <dc:format>image/svg+xml</dc:format>
        <dc:type
           rdf:resource="http://purl.org/dc/dcmitype/StillImage" />
      </cc:Work>
    </rdf:RDF>
  </metadata>
  <sodipodi:namedview
     inkscape:window-height="724"
     inkscape:window-width="795"
     inkscape:pageshadow="2"
     inkscape:pageopacity="0.0"
     guidetolerance="10.0"
     gridtolerance="10.0"
     objecttolerance="10.0"
     borderopacity="1.0"
     bordercolor="#666666"
     pagecolor="#ffffff"
     id="base"
     inkscape:zoom="2.2611111"
     inkscape:cx="56.450413"
     inkscape:cy="65.841523"
     inkscape:window-x="114"
     inkscape:window-y="9"
     inkscape:current-layer="svg604"
     showgrid="false" />
  <defs
     id="defs606">
    <linearGradient
       x1="0.00000000"
       y1="0.00000000"
       x2="1.00000000"
       y2="0.00000000"
       id="linearGradient705"
       gradientUnits="objectBoundingBox"
       spreadMethod="pad">
      <stop
         style="stop-color:#7fa8e3;stop-opacity:0.741176;"
         offset="0.00000000"
         id="stop706" />
      <stop
         style="stop-color:#ffffff;stop-opacity:0;"
         offset="1.00000000"
         id="stop707" />
    </linearGradient>
    <linearGradient
       x1="50.6438866"
       y1="5.36792946"
       x2="35.7520943"
       y2="68.0443573"
       id="linearGradient615"
       xlink:href="#linearGradient705"
       gradientUnits="userSpaceOnUse"
       spreadMethod="pad" />
    <linearGradient
       y2="-13.897552"
       x2="7.0390921"
       y1="78.338623"
       x1="88.873405"
       gradientTransform="matrix(0.767975,0,0,0.985056,-0.228298,3.7352726)"
       gradientUnits="userSpaceOnUse"
       id="linearGradient1742"
       xlink:href="#linearGradient2187"
       inkscape:collect="always" />
    <linearGradient
       id="linearGradient2187">
      <stop
         style="stop-color:#558ada;stop-opacity:1.0000000"
         offset="0.0000000"
         id="stop2189" />
      <stop
         style="stop-color:#ffffff;stop-opacity:1.0000000;"
         offset="1.0000000"
         id="stop2191" />
    </linearGradient>
  </defs>
  <path
     d="M 12.8163 74.753 C 10.3856 73.6481 7.07107 70.1126 8.83884 65.2512 C 9.72267 59.948 25.6326 13.1021 29.1682 10.8924 C 31.3778 8.90368 34.582 8.13026 39.1119 9.34561 C 42.8684 10.2295 76.6769 19.0684 78.6656 20.8361 C 80.6544 22.6039 82.2012 24.0402 80.6544 27.9072 C 79.5496 29.8959 66.4017 74.532 66.1808 77.4047 C 65.2969 80.4983 62.7558 84.2548 58.5573 84.0338 C 54.3589 83.8128 15.9099 75.4159 12.8163 74.753 z "
     transform="matrix(1.114903,0.000000,0.000000,1.114903,-5.305332,-3.889256)"
     style="font-size:12;fill-opacity:0.301471;fill-rule:evenodd;stroke-width:1pt;"
     id="path794" />
  <path
     d="M 12.8163 74.753 C 10.3856 73.6481 7.07107 70.1126 8.83884 65.2512 C 9.72267 59.948 25.6326 13.1021 29.1682 10.8924 C 31.3778 8.90368 34.582 8.13026 39.1119 9.34561 C 42.8684 10.2295 76.6769 19.0684 78.6656 20.8361 C 80.6544 22.6039 82.2012 24.0402 80.6544 27.9072 C 79.5496 29.8959 66.4017 74.532 66.1808 77.4047 C 65.2969 80.4983 62.7558 84.2548 58.5573 84.0338 C 54.3589 83.8128 15.9099 75.4159 12.8163 74.753 z "
     transform="matrix(1.114903,0.000000,0.000000,1.114903,-8.162471,-8.460684)"
     style="font-size:12;fill:#143c69;fill-rule:evenodd;stroke-width:1pt;"
     id="path609" />
  <path
     d="M 17.8987 70.9965 C 15.3576 70.3336 11.7114 69.6706 13.0373 65.6932 C 15.468 55.9705 27.8424 18.6264 33.1456 13.986 C 34.361 12.8811 38.4489 12.4392 46.1829 14.8699 C 55.0218 17.5215 72.9204 23.4877 74.6882 24.3716 C 76.4559 25.2555 77.1189 25.2555 75.793 29.233 C 73.8043 33.2105 64.9655 67.24 62.7557 72.9852 C 61.209 77.0732 60.8775 78.9514 58.2258 78.9514 "
     transform="matrix(1.114903,0.000000,0.000000,1.114903,-8.162471,-8.460684)"
     style="font-size:12;fill:#ffffff;fill-rule:evenodd;stroke-width:1pt;"
     id="path608" />
  <path
     d="M 28.75 13.75 C 28.75 13.75 31.875 7.49995 39.6875 9.37495 C 47.5 11.25 78.125 19.375 77.8125 21.875 C 77.5 24.375 71.875 39.0625 71.5625 40.3125 C 71.25 41.5625 42.5 40.9375 31.5625 47.5 C 20.625 54.0625 12.5 59.6875 12.5 59.6875 C 12.5 59.6875 23.75 24.6875 28.75 13.75 z "
     transform="matrix(0.946780,0.000000,0.000000,0.946780,-0.480566,0.409517)"
     style="font-size:12;fill:url(#linearGradient615);fill-rule:evenodd;stroke-width:1pt;"
     id="path636" />
  <g
     id="g2530"
     transform="matrix(0.6204425,0,0,0.6204425,15.527347,15.417563)">
    <path
       sodipodi:nodetypes="cccccc"
       id="path1733"
       d="m 19.492883,9.491447 -6.043587,4.771253 7.793047,68.865088 c 0.901236,2.120557 2.279598,2.650696 4.135085,2.544669 l 44.213613,-4.930296 2.544668,-8.11113"
       style="fill:url(#linearGradient1742);fill-opacity:1;fill-rule:evenodd;stroke:none" />
    <rect
       transform="matrix(-0.9953129,9.6706577e-2,0.1292851,0.9916075,0,0)"
       ry="3.9947217"
       rx="3.9886663"
       y="10.911363"
       x="-62.985233"
       height="72.425003"
       width="46.472298"
       id="rect1096"
       style="color:#000000;fill:#f1f1f1;fill-opacity:1;fill-rule:nonzero;stroke:none;stroke-width:1.74404085;marker:none;marker-start:none;marker-mid:none;marker-end:none;visibility:visible;display:block" />
    <rect
       transform="matrix(0.9938551,-0.110689,0.104169,0.9945596,0,0)"
       ry="3.9930756"
       rx="3.9863913"
       y="16.289177"
       x="23.592916"
       height="21.870945"
       width="35.066738"
       id="rect1723"
       style="color:#000000;fill:#283d53;fill-opacity:1;fill-rule:nonzero;stroke:none;stroke-width:1.75860631;marker:none;marker-start:none;marker-mid:none;marker-end:none;visibility:visible;display:block" />
    <rect
       transform="matrix(0.9942179,-0.107381,0.107381,0.9942179,0,0)"
       ry="3.9947278"
       rx="3.9886665"
       y="17.714529"
       x="22.481817"
       height="20.692554"
       width="34.187698"
       id="rect1722"
       style="color:#000000;fill:#558ada;fill-opacity:1;fill-rule:nonzero;stroke:none;stroke-width:1.75860631;marker:none;marker-start:none;marker-mid:none;marker-end:none;visibility:visible;display:block" />
    <path
       transform="matrix(0.869769,0,0,0.869769,-1.127974,4.6349486)"
       d="m 76.544487,58.192661 a 19.394718,19.394718 0 1 1 -38.789436,0 A 19.394718,19.394718 0 1 1 76.544487,58.192661 z"
       sodipodi:ry="19.394718"
       sodipodi:rx="19.394718"
       sodipodi:cy="58.192661"
       sodipodi:cx="57.149769"
       id="path1724"
       style="color:#000000;fill:#7a889e;fill-opacity:1;fill-rule:nonzero;stroke:none;stroke-width:1.75860631;marker:none;marker-start:none;marker-mid:none;marker-end:none;visibility:visible;display:block"
       sodipodi:type="arc" />
    <path
       transform="matrix(0.498667,0,0,0.498667,20.080402,26.230329)"
       d="m 76.544487,58.192661 a 19.394718,19.394718 0 1 1 -38.789436,0 A 19.394718,19.394718 0 1 1 76.544487,58.192661 z"
       sodipodi:ry="19.394718"
       sodipodi:rx="19.394718"
       sodipodi:cy="58.192661"
       sodipodi:cx="57.149769"
       id="path1732"
       style="color:#000000;fill:#d3ddea;fill-opacity:1;fill-rule:nonzero;stroke:none;stroke-width:1.75860631;marker:none;marker-start:none;marker-mid:none;marker-end:none;visibility:visible;display:block"
       sodipodi:type="arc" />
    <path
       sodipodi:nodetypes="ccccccccss"
       id="path1738"
       d="m 58.75385,4.4819697 -41.078717,4.1249886 -4.670598,6.0859367 8.76285,66.973151 c 0.901237,2.12056 3.27177,4.123816 5.127258,4.017789 l 41.240373,-4.215391 3.471736,-3.253701 c 1.411376,-0.542078 1.623202,-3.524787 1.415821,-5.115381 L 65.06558,9.7973069 C 64.746074,7.2554696 61.99674,4.1563295 58.75385,4.4819697 z"
       style="fill:none;stroke:#3d4e67;stroke-width:4;stroke-linecap:butt;stroke-linejoin:miter;stroke-miterlimit:4;stroke-opacity:1;stroke-dasharray:none" />
    <path
       id="path1746"
       d="m 46.963606,39.671397 -3.554183,4.459182 8.129461,-0.763727 z"
       style="fill:#ecf0f6;fill-opacity:1;fill-rule:evenodd;stroke:none" />
    <path
       id="path1745"
       d="m 51.011271,70.306043 -4.530509,-3.462805 8.071635,-1.232936 z"
       style="fill:#ecf0f6;fill-opacity:1;fill-rule:evenodd;stroke:none" />
    <path
       id="path1747"
       d="m 63.831804,52.833147 -4.578905,-3.398551 1.043163,8.098347 z"
       style="fill:#ecf0f6;fill-opacity:1;fill-rule:evenodd;stroke:none" />
    <path
       id="path1748"
       d="m 33.354677,57.93313 3.304771,-4.647043 1.510103,8.024401 z"
       style="fill:#ecf0f6;fill-opacity:1;fill-rule:evenodd;stroke:none" />
  </g>
</svg>
