<?xml version="1.0" encoding="UTF-8" standalone="no"?>
<!-- Created with Sodipodi ("http://www.sodipodi.com/") -->

<svg
   xmlns:dc="http://purl.org/dc/elements/1.1/"
   xmlns:cc="http://creativecommons.org/ns#"
   xmlns:rdf="http://www.w3.org/1999/02/22-rdf-syntax-ns#"
   xmlns:svg="http://www.w3.org/2000/svg"
   xmlns="http://www.w3.org/2000/svg"
   xmlns:xlink="http://www.w3.org/1999/xlink"
   xmlns:sodipodi="http://sodipodi.sourceforge.net/DTD/sodipodi-0.dtd"
   xmlns:inkscape="http://www.inkscape.org/namespaces/inkscape"
   id="svg548"
   sodipodi:version="0.32"
   width="72pt"
   height="72pt"
   sodipodi:docname="application-x-deb.svg"
   inkscape:version="0.46+devel r21147 custom"
   inkscape:output_extension="org.inkscape.output.svg.inkscape">
  <metadata
     id="metadata27">
    <rdf:RDF>
      <cc:Work
         rdf:about="">
        <dc:format>image/svg+xml</dc:format>
        <dc:type
           rdf:resource="http://purl.org/dc/dcmitype/StillImage" />
        <dc:title></dc:title>
      </cc:Work>
      <cc:Work
         rdf:about="">
        <dc:format>image/svg+xml</dc:format>
        <dc:type
           rdf:resource="http://purl.org/dc/dcmitype/StillImage" />
        <cc:license
           rdf:resource="http://creativecommons.org/licenses/GPL/2.0/" />
      </cc:Work>
      <cc:License
         rdf:about="http://creativecommons.org/licenses/GPL/2.0/">
        <cc:permits
           rdf:resource="http://web.resource.org/cc/Reproduction" />
        <cc:permits
           rdf:resource="http://web.resource.org/cc/Distribution" />
        <cc:requires
           rdf:resource="http://web.resource.org/cc/Notice" />
        <cc:permits
           rdf:resource="http://web.resource.org/cc/DerivativeWorks" />
        <cc:requires
           rdf:resource="http://web.resource.org/cc/ShareAlike" />
        <cc:requires
           rdf:resource="http://web.resource.org/cc/SourceCode" />
      </cc:License>
    </rdf:RDF>
  </metadata>
  <defs
     id="defs550">
    <linearGradient
       inkscape:collect="always"
       id="linearGradient128">
      <stop
         style="stop-color:#ed0000;stop-opacity:1;"
         offset="0"
         id="stop130" />
      <stop
         style="stop-color:#b01911;stop-opacity:1"
         offset="1"
         id="stop132" />
    </linearGradient>
    <inkscape:perspective
       sodipodi:type="inkscape:persp3d"
       inkscape:vp_x="0 : 45 : 1"
       inkscape:vp_y="0 : 1000 : 0"
       inkscape:vp_z="90 : 45 : 1"
       inkscape:persp3d-origin="45 : 30 : 1"
       id="perspective57" />
    <linearGradient
       id="linearGradient569">
      <stop
         style="stop-color:#c57700;stop-opacity:1;"
         offset="0.000000"
         id="stop570" />
      <stop
         style="stop-color:#ffa75f;stop-opacity:0;"
         offset="1.000000"
         id="stop571" />
    </linearGradient>
    <linearGradient
       id="linearGradient559">
      <stop
         style="stop-color:#945700;stop-opacity:1;"
         offset="0.000000"
         id="stop560" />
      <stop
         style="stop-color:#ffa75f;stop-opacity:0;"
         offset="1.000000"
         id="stop561" />
    </linearGradient>
    <linearGradient
       xlink:href="#linearGradient559"
       gradientTransform="matrix(1.2287685,0,0,0.7275398,-7.1389191,1.8739714)"
       spreadMethod="pad"
       gradientUnits="userSpaceOnUse"
       y2="35.4855690"
       x2="42.7533417"
       y1="31.7318363"
       x1="40.9153252"
       id="linearGradient562" />
    <linearGradient
       xlink:href="#linearGradient559"
       gradientTransform="matrix(0.5734264,0,0,1.5590094,-6.8541051,2.1587764)"
       spreadMethod="pad"
       gradientUnits="userSpaceOnUse"
       y2="23.6183739"
       x2="58.3435440"
       y1="48.8431816"
       x1="59.0300407"
       id="linearGradient566" />
    <linearGradient
       xlink:href="#linearGradient569"
       gradientTransform="matrix(0.7296653,0,0,1.2251888,-7.1389191,1.8739714)"
       spreadMethod="pad"
       gradientUnits="userSpaceOnUse"
       y2="42.8786545"
       x2="90.8925323"
       y1="64.9443817"
       x1="92.7804184"
       id="linearGradient568" />
    <inkscape:perspective
       id="perspective34"
       inkscape:persp3d-origin="0.5 : 0.33333333 : 1"
       inkscape:vp_z="1 : 0.5 : 1"
       inkscape:vp_y="0 : 1000 : 0"
       inkscape:vp_x="0 : 0.5 : 1"
       sodipodi:type="inkscape:persp3d" />
    <linearGradient
       inkscape:collect="always"
       id="linearGradient28"
       x1="51.552002"
       y1="24.602715"
       x2="62.594494"
       y2="65.952492"
       gradientUnits="userSpaceOnUse"
       xlink:href="/home/tweenk/#linearGradient22" />
    <linearGradient
       inkscape:collect="always"
       id="linearGradient22">
      <stop
         style="stop-color:#ffffff;stop-opacity:1;"
         offset="0"
         id="stop24" />
      <stop
         style="stop-color:#ffd4d4;stop-opacity:1"
         offset="1"
         id="stop26" />
    </linearGradient>
    <linearGradient
       gradientTransform="matrix(1.0962,0,0,0.912242,-93.96764,9.8227525)"
       gradientUnits="userSpaceOnUse"
       y2="3.2078452"
       x2="0.36620894"
       y1="50.631172"
       x1="45.871773"
       id="linearGradient674"
       xlink:href="/home/tweenk/#linearGradient675" />
    <linearGradient
       id="linearGradient675">
      <stop
         style="stop-color:#ffffff;stop-opacity:0;"
         offset="0"
         id="stop676" />
      <stop
         style="stop-color:#ffffff;stop-opacity:1;"
         offset="1"
         id="stop677" />
    </linearGradient>
    <linearGradient
       gradientUnits="userSpaceOnUse"
       y2="14.373464"
       x2="26.535625"
       y1="86.686882"
       x1="67.665848"
       id="linearGradient926"
       inkscape:collect="always"
       gradientTransform="translate(-93.96764,9.8227525)"
       xlink:href="/home/tweenk/#linearGradient920" />
    <linearGradient
       inkscape:collect="always"
       id="linearGradient920">
      <stop
         style="stop-color:#900000;stop-opacity:1"
         offset="0"
         id="stop922" />
      <stop
         style="stop-color:#ed0000;stop-opacity:1"
         offset="1"
         id="stop924" />
    </linearGradient>
    <linearGradient
       xlink:href="#linearGradient920"
       y2="14.373464"
       x2="26.535625"
       y1="86.686882"
       x1="67.665848"
       gradientTransform="translate(-93.96764,9.8227525)"
       gradientUnits="userSpaceOnUse"
       id="linearGradient110"
       inkscape:collect="always" />
    <linearGradient
       xlink:href="#linearGradient675"
       y2="3.2078452"
       x2="0.36620894"
       y1="50.631172"
       x1="45.871773"
       gradientTransform="matrix(1.0962,0,0,0.912242,-93.96764,9.8227525)"
       gradientUnits="userSpaceOnUse"
       id="linearGradient112"
       inkscape:collect="always" />
    <linearGradient
       xlink:href="#linearGradient22"
       y2="65.952492"
       x2="62.594494"
       y1="24.602715"
       x1="51.552002"
       gradientUnits="userSpaceOnUse"
       id="linearGradient114"
       inkscape:collect="always" />
    <linearGradient
       xlink:href="#linearGradient675"
       y2="3.2078452"
       x2="0.36620894"
       y1="50.631172"
       x1="45.871773"
       gradientTransform="matrix(0.67826209,0,0,0.56444003,-83.852132,47.407214)"
       gradientUnits="userSpaceOnUse"
       id="linearGradient120"
       inkscape:collect="always" />
    <linearGradient
       xlink:href="#linearGradient920"
       y2="14.373464"
       x2="26.535625"
       y1="86.686882"
       x1="67.665848"
       gradientTransform="matrix(0.61873936,0,0,0.61873936,-83.852132,47.407214)"
       gradientUnits="userSpaceOnUse"
       id="linearGradient123"
       inkscape:collect="always" />
    <linearGradient
       xlink:href="#linearGradient128"
       gradientUnits="userSpaceOnUse"
       y2="71.516205"
       x2="67.036575"
       y1="22.929571"
       x1="53.301212"
       id="linearGradient134"
       inkscape:collect="always" />
  </defs>
  <sodipodi:namedview
     id="base"
     showgrid="false"
     inkscape:zoom="7.8410286"
     inkscape:cx="53.509793"
     inkscape:cy="42.335057"
     inkscape:window-width="795"
     inkscape:window-height="711"
     inkscape:window-x="50"
     inkscape:window-y="1"
     inkscape:current-layer="svg548" />
  <path
     style="fill:#000000;fill-opacity:0.3;fill-rule:evenodd;stroke:none;stroke-width:1pt;stroke-linecap:butt;stroke-linejoin:miter;stroke-opacity:1"
     d="M 41.126783,86.944379 C 40.267791,86.568459 6.0797264,81.723193 6.0797264,81.723193 L 2.987337,83.117462 L 2.1283386,79.619442 L 4.7053256,76.584302 L 2.1283386,75.664742 L 16.731279,64.779378 L 18.105647,65.755471 L 18.44926,63.449718 L 22.572446,63.047793 L 67.240265,72.39582 L 41.126783,86.944379 z "
     id="path594" />
  <path
     style="fill:#593a28;fill-opacity:1;fill-rule:evenodd;stroke:none;stroke-width:1pt;stroke-linecap:butt;stroke-linejoin:miter;stroke-opacity:1"
     d="M 16.673693,33.243336 C 19.97407,48.138049 19.287161,71.577094 13.758515,83.054094 L 40.68316,87.362945 L 73.900512,75.358259 C 72.191703,59.003214 70.767585,40.369694 74.185298,24.584221 L 80.04279,11.201955 L 74.138779,11.989068 L 74.926006,8.0531426 C 67.428537,2.8625904 57.937379,1.9442 48.161435,5.2979534 L 47.571062,9.6275486 L 41.863905,4.7075618 C 29.375972,5.2465936 18.027277,8.6337294 7.8178196,18.286692 L 16.673693,33.243336 z "
     id="path564"
     sodipodi:nodetypes="ccccccccccccc" />
  <path
     style="fill:url(#linearGradient562);fill-opacity:1;fill-rule:evenodd;stroke:none;stroke-width:1pt;stroke-linecap:butt;stroke-linejoin:miter;stroke-opacity:1"
     d="M 49.539129,19.270583 C 49.145515,19.270583 21.003251,29.307392 21.003251,29.307392 C 21.003251,29.307392 23.56169,48.003221 29.071993,48.396834 C 34.58239,48.790447 68.431717,22.025876 68.431717,22.025876"
     id="path558"
     sodipodi:nodetypes="cccc" />
  <path
     style="fill:#e9a93d;fill-opacity:1;fill-rule:evenodd;stroke:none;stroke-width:1pt;stroke-linecap:butt;stroke-linejoin:miter;stroke-opacity:1"
     d="M 20.806491,31.472123 L 38.911947,33.046576 C 36.895849,50.497649 36.58856,67.09427 39.699079,82.836533 C 39.699079,82.836533 21.200105,81.065415 21.200105,79.884575 C 21.200105,78.70383 26.217894,52.087231 20.806491,31.472123 z "
     id="path552"
     sodipodi:nodetypes="ccccc" />
  <path
     style="fill:#ffe6ba;fill-opacity:1;fill-rule:evenodd;stroke:none;stroke-width:1pt;stroke-linecap:butt;stroke-linejoin:miter;stroke-opacity:1"
     d="M 69.394996,23.885021 L 38.518334,33.44019 L 39.305561,83.033387 C 39.305561,83.033387 68.82533,72.012687 68.82533,70.831847 C 68.82533,69.651102 64.837951,35.955892 69.394996,23.885021 z "
     id="path553"
     sodipodi:nodetypes="ccccc" />
  <path
     style="fill:#e3c084;fill-opacity:1;fill-rule:evenodd;stroke:none;stroke-width:1pt;stroke-linecap:butt;stroke-linejoin:miter;stroke-opacity:1"
     d="M 50.326261,19.270678 L 42.847891,9.8243269 C 33.663927,11.08821 23.625606,12.352141 15.296094,20.451423 L 20.412878,29.897764 L 50.326261,19.270678 z "
     id="path556"
     sodipodi:nodetypes="ccccc" />
  <path
     style="fill:#e3b463;fill-opacity:1;fill-rule:evenodd;stroke:none;stroke-width:1pt;stroke-linecap:butt;stroke-linejoin:miter;stroke-opacity:1"
     d="M 49.539034,19.467532 L 69.612462,23.206622 L 71.186916,12.973148 C 64.079751,10.608282 57.542253,9.3826536 50.719874,11.005129 L 49.539034,19.467532 z "
     id="path557"
     sodipodi:nodetypes="ccccc" />
  <path
     style="fill:#c89134;fill-opacity:1;fill-rule:evenodd;stroke:none;stroke-width:1pt;stroke-linecap:butt;stroke-linejoin:miter;stroke-opacity:1"
     d="M 38.911947,33.046576 C 37.731107,30.422614 36.550362,27.798556 35.369522,25.174594 C 28.832024,22.217719 21.724859,20.400082 14.902481,23.993848 C 16.739311,26.486575 18.576047,28.979396 20.412878,31.472123 C 26.579266,31.996972 32.745559,32.521727 38.911947,33.046576 z "
     id="path554"
     sodipodi:nodetypes="ccccc" />
  <path
     style="fill:#e3c084;fill-opacity:1;fill-rule:evenodd;stroke:none;stroke-width:1pt;stroke-linecap:butt;stroke-linejoin:miter;stroke-opacity:1"
     d="M 38.518334,34.227322 L 43.241505,24.78098 C 53.343837,18.915263 63.730955,16.182567 73.548406,15.728252 C 72.039666,18.483451 70.53083,21.23865 69.02209,23.993848 L 38.518334,34.227322 z "
     id="path555"
     sodipodi:nodetypes="ccccc" />
  <path
     style="fill:url(#linearGradient566);fill-opacity:1;fill-rule:evenodd;stroke:none;stroke-width:1pt;stroke-linecap:butt;stroke-linejoin:miter;stroke-opacity:1"
     d="M 21.091305,31.756928 C 27.126457,32.281777 33.161609,32.806532 39.196761,33.331381 C 35.75664,51.06724 37.158255,66.823205 39.983893,82.850254 C 39.983893,82.850254 21.123473,81.079136 21.123473,79.898296 C 25.658665,49.125869 21.99492,37.572228 21.091305,31.756928 z "
     id="path565"
     sodipodi:nodetypes="ccccc" />
  <path
     style="fill:url(#linearGradient568);fill-opacity:1;fill-rule:evenodd;stroke:none;stroke-width:1pt;stroke-linecap:butt;stroke-linejoin:miter;stroke-opacity:1"
     d="M 59.426642,32.144566 L 38.518334,33.44019 L 39.305561,83.033387 C 39.305561,83.033387 68.82533,72.012687 68.82533,70.831847 C 67.740993,53.386042 59.426642,32.538179 59.426642,32.144566 z "
     id="path567"
     sodipodi:nodetypes="ccccc" />
  <path
     style="font-size:12px;fill:#ffffff;fill-opacity:0.70434804;fill-rule:evenodd;stroke-width:1pt"
     d="M 23.012112,70.804052 L 23.012112,77.880852 L 35.292412,79.754152 L 35.292412,72.677352 L 23.012112,70.804052 z "
     id="path573"
     sodipodi:nodetypes="ccccc" />
  <g
     id="g1087"
     transform="matrix(0.49507127,-0.18966227,0.07106643,0.64345076,27.59124,32.664997)">
    <path
       style="fill:#000000;fill-opacity:0.29411765"
       d="m 61.356072,19.00574 c -3.537133,-0.125033 -6.809343,1.949676 -8.551185,4.977097 -2.466181,3.996243 -5.926286,7.353166 -10.118227,9.499468 -3.709884,2.199781 -8.044148,2.696342 -12.260139,3.006071 -3.013942,0.100325 -5.791031,1.750088 -7.383103,4.304222 -2.179067,3.530114 -2.130711,8.576613 0.672413,11.77522 1.696093,2.246843 4.279639,3.790944 7.133601,3.853937 5.119135,0.390916 10.451393,1.221447 14.681369,4.36598 3.721803,2.350557 6.074237,6.110845 8.66472,9.536727 3.862806,5.188033 12.61773,4.548484 16.105361,-0.718936 2.384812,-3.356867 2.379481,-8.022591 0.259518,-11.507303 -2.16668,-4.12489 -3.292129,-8.777622 -2.925511,-13.443168 -0.01945,-4.761888 2.592299,-8.884891 4.214839,-13.193091 0.898995,-3.605195 -0.262666,-7.707541 -3.358925,-9.921882 -2.004727,-1.610121 -4.562139,-2.525305 -7.134731,-2.534342 z m -9.616243,17.450562 c 5.782528,-0.40367 10.664133,5.368521 9.829882,10.981189 -0.469868,6.60067 -8.735558,11.106221 -14.51672,7.928996 -5.075605,-2.945584 -6.803556,-10.555867 -2.931402,-15.151447 1.823008,-2.330689 4.623054,-3.838036 7.61824,-3.758738 z"
       id="path1085" />
    <path
       id="path1073"
       d="m 57.817989,15.246526 c -3.537133,-0.125033 -6.809343,1.949676 -8.551185,4.977097 -2.466181,3.996243 -5.926286,7.353166 -10.118227,9.499468 -3.709884,2.199781 -8.044148,2.696342 -12.260139,3.006071 -3.013942,0.100325 -5.791031,1.750088 -7.383103,4.304222 -2.179067,3.530114 -2.130711,8.576613 0.672413,11.77522 1.696093,2.246843 4.279639,3.790944 7.133601,3.853937 5.119135,0.390916 10.451393,1.221447 14.681369,4.36598 3.721803,2.350557 6.074237,6.110845 8.66472,9.536727 3.862806,5.188033 12.61773,4.548484 16.105361,-0.718936 2.384812,-3.356867 2.379481,-8.022591 0.259518,-11.507303 -2.16668,-4.12489 -3.292129,-8.777622 -2.925511,-13.443168 -0.01945,-4.761888 2.592299,-8.884891 4.214839,-13.193091 0.898995,-3.605195 -0.262666,-7.707541 -3.358925,-9.921882 -2.004727,-1.610121 -4.562139,-2.525305 -7.134731,-2.534342 z m -9.616243,17.450562 c 5.782528,-0.40367 10.664133,5.368521 9.829882,10.981189 -0.469868,6.60067 -8.735558,11.106221 -14.51672,7.928996 -5.075605,-2.945584 -6.803556,-10.555867 -2.931402,-15.151447 1.823008,-2.330689 4.623054,-3.838036 7.61824,-3.758738 z"
       style="fill:url(#linearGradient134);fill-opacity:1" />
  </g>
</svg>
