<?xml version="1.0" encoding="UTF-8" standalone="no"?>
<!-- Created with Sodipodi ("http://www.sodipodi.com/") -->
<svg
   xmlns:dc="http://purl.org/dc/elements/1.1/"
   xmlns:cc="http://creativecommons.org/ns#"
   xmlns:rdf="http://www.w3.org/1999/02/22-rdf-syntax-ns#"
   xmlns:svg="http://www.w3.org/2000/svg"
   xmlns="http://www.w3.org/2000/svg"
   xmlns:xlink="http://www.w3.org/1999/xlink"
   xmlns:sodipodi="http://sodipodi.sourceforge.net/DTD/sodipodi-0.dtd"
   xmlns:inkscape="http://www.inkscape.org/namespaces/inkscape"
   id="svg548"
   sodipodi:version="0.32"
   width="72pt"
   height="72pt"
   sodipodi:docbase="/home/tweenk/dev/GartoonRedux/scalable/mimetypes"
   sodipodi:docname="application-pgp-signature.svg"
   inkscape:version="0.46+devel"
   inkscape:output_extension="org.inkscape.output.svg.inkscape">
  <metadata
     id="metadata2319">
    <rdf:RDF>
      <cc:Work
         rdf:about="">
        <dc:format>image/svg+xml</dc:format>
        <dc:type
           rdf:resource="http://purl.org/dc/dcmitype/StillImage" />
      </cc:Work>
    </rdf:RDF>
  </metadata>
  <defs
     id="defs550">
    <linearGradient
       id="linearGradient618">
      <stop
         offset="0.000000"
         style="stop-color:#7fa8e3;stop-opacity:0.741176;"
         id="stop620" />
      <stop
         offset="1.000000"
         style="stop-color:#ffffff;stop-opacity:0;"
         id="stop619" />
    </linearGradient>
    <linearGradient
       y2="83.034393"
       x2="75.038589"
       y1="62.207943"
       x1="51.095966"
       gradientTransform="matrix(0.9894501,-0.1448744,0.1448744,0.9894501,-7.8893174,6.0717053)"
       gradientUnits="userSpaceOnUse"
       id="linearGradient3745"
       xlink:href="#linearGradient1787"
       inkscape:collect="always" />
    <linearGradient
       y2="83.034393"
       x2="75.038589"
       y1="62.207943"
       x1="51.095966"
       gradientTransform="matrix(0.9894501,-0.1448744,0.1448744,0.9894501,-7.8893174,6.0717053)"
       gradientUnits="userSpaceOnUse"
       id="linearGradient3743"
       xlink:href="#linearGradient1787"
       inkscape:collect="always" />
    <radialGradient
       r="8.0222836"
       fy="67.684441"
       fx="55.988865"
       cy="67.852768"
       cx="55.821728"
       spreadMethod="reflect"
       gradientUnits="userSpaceOnUse"
       id="radialGradient2925"
       xlink:href="#linearGradient1787"
       inkscape:collect="always" />
    <linearGradient
       y2="86.700996"
       x2="65.530708"
       y1="41.439709"
       x1="32.572178"
       gradientTransform="matrix(-1.2412691,-1.1980956,-1.1058296,1.1456781,183.07589,25.127027)"
       gradientUnits="userSpaceOnUse"
       id="linearGradient2919"
       xlink:href="#linearGradient1787"
       inkscape:collect="always" />
    <defs
       id="defs598">
      <linearGradient
         id="linearGradient697">
        <stop
           id="stop698"
           offset="0.000000"
           style="stop-color:#7fa8e3;stop-opacity:0.741176;" />
        <stop
           id="stop699"
           offset="1.000000"
           style="stop-color:#ffffff;stop-opacity:0;" />
      </linearGradient>
      <linearGradient
         xlink:href="#linearGradient1787"
         spreadMethod="pad"
         gradientUnits="objectBoundingBox"
         y2="0.50000000"
         x2="1.0000000"
         y1="0.50000000"
         x1="0.0000000"
         id="linearGradient626" />
      <linearGradient
         id="linearGradient3801">
        <stop
           id="stop3803"
           offset="0.000000"
           style="stop-color:#956d47;stop-opacity:1;" />
        <stop
           id="stop3805"
           offset="1.000000"
           style="stop-color:#ab322d;stop-opacity:0;" />
      </linearGradient>
      <linearGradient
         id="linearGradient706">
        <stop
           id="stop707"
           offset="0"
           style="stop-color:#000;stop-opacity:1;" />
        <stop
           id="stop708"
           offset="1"
           style="stop-color:#fff;stop-opacity:1;" />
      </linearGradient>
      <linearGradient
         spreadMethod="pad"
         gradientUnits="objectBoundingBox"
         y2="0.52343726"
         x2="1.07843077"
         y1="0.57031226"
         x1="-0.19608469"
         id="linearGradient3810"
         xlink:href="#linearGradient618" />
      <linearGradient
         gradientTransform="matrix(0.934001,0.000000,0.000000,1.070663,-1.516226e-6,-1.716230e-7)"
         spreadMethod="pad"
         gradientUnits="userSpaceOnUse"
         y2="63.0152588"
         x2="28.5382881"
         y1="77.3980103"
         x1="42.9995728"
         id="linearGradient625"
         xlink:href="#linearGradient626" />
      <linearGradient
         spreadMethod="pad"
         gradientUnits="userSpaceOnUse"
         y2="61.6665344"
         x2="24.6243172"
         y1="10.6072874"
         x1="16.4110699"
         id="linearGradient636"
         xlink:href="#linearGradient612" />
    </defs>
    <linearGradient
       id="linearGradient1787">
      <stop
         id="stop1789"
         style="stop-color:#ffcbcb;stop-opacity:1.0000000;"
         offset="0.0000000" />
      <stop
         id="stop1788"
         style="stop-color:#ea0800;stop-opacity:1.0000000;"
         offset="1.0000000" />
    </linearGradient>
  </defs>
  <sodipodi:namedview
     id="base"
     inkscape:zoom="4.5222222"
     inkscape:cx="45.778112"
     inkscape:cy="45"
     inkscape:window-width="795"
     inkscape:window-height="724"
     inkscape:window-x="219"
     inkscape:window-y="1"
     inkscape:current-layer="svg548"
     showgrid="false" />
  <g
     id="g572">
    <defs
       id="defs606">
      <linearGradient
         id="linearGradient612"
         x1="0.000000"
         y1="0.000000"
         x2="1.000000"
         y2="0.000000"
         xlink:href="#linearGradient618" />
      <linearGradient
         xlink:href="#linearGradient612"
         id="linearGradient615"
         x1="50.6438866"
         y1="5.36792946"
         x2="35.7520943"
         y2="68.0443573"
         gradientUnits="userSpaceOnUse"
         spreadMethod="pad" />
    </defs>
    <sodipodi:namedview
       id="namedview578" />
    <path
       style="fill:#000000;fill-rule:evenodd;stroke:none;stroke-opacity:1;stroke-width:1pt;stroke-linejoin:miter;stroke-linecap:butt;fill-opacity:0.301471;"
       d="M 12.8163 74.753 C 10.3856 73.6481 7.07107 70.1126 8.83884 65.2512 C 9.72267 59.948 25.6326 13.1021 29.1682 10.8924 C 31.3778 8.90368 34.582 8.13026 39.1119 9.34561 C 42.8684 10.2295 76.6769 19.0684 78.6656 20.8361 C 80.6544 22.6039 82.2012 24.0402 80.6544 27.9072 C 79.5496 29.8959 66.4017 74.532 66.1808 77.4047 C 65.2969 80.4983 62.7558 84.2548 58.5573 84.0338 C 54.3589 83.8128 15.9099 75.4159 12.8163 74.753 z "
       id="path794"
       sodipodi:nodetypes="ccccccccc"
       transform="matrix(1.114903,0.000000,0.000000,1.114903,-5.305332,-3.889256)" />
    <path
       style="fill:#3d4e67;fill-rule:evenodd;stroke:none;stroke-opacity:1;stroke-width:1pt;stroke-linejoin:miter;stroke-linecap:butt;fill-opacity:1;"
       d="M 12.8163 74.753 C 10.3856 73.6481 7.07107 70.1126 8.83884 65.2512 C 9.72267 59.948 25.6326 13.1021 29.1682 10.8924 C 31.3778 8.90368 34.582 8.13026 39.1119 9.34561 C 42.8684 10.2295 76.6769 19.0684 78.6656 20.8361 C 80.6544 22.6039 82.2012 24.0402 80.6544 27.9072 C 79.5496 29.8959 66.4017 74.532 66.1808 77.4047 C 65.2969 80.4983 62.7558 84.2548 58.5573 84.0338 C 54.3589 83.8128 15.9099 75.4159 12.8163 74.753 z "
       id="path609"
       sodipodi:nodetypes="ccccccccc"
       transform="matrix(1.114903,0.000000,0.000000,1.114903,-8.162471,-8.460684)" />
    <path
       style="fill:#ffffff;fill-rule:evenodd;stroke:none;stroke-opacity:1;stroke-width:1pt;stroke-linejoin:miter;stroke-linecap:butt;fill-opacity:1;"
       d="M 17.8987 70.9965 C 15.3576 70.3336 11.7114 69.6706 13.0373 65.6932 C 15.468 55.9705 27.8424 18.6264 33.1456 13.986 C 34.361 12.8811 38.4489 12.4392 46.1829 14.8699 C 55.0218 17.5215 72.9204 23.4877 74.6882 24.3716 C 76.4559 25.2555 77.1189 25.2555 75.793 29.233 C 73.8043 33.2105 64.9655 67.24 62.7557 72.9852 C 61.209 77.0732 60.8775 78.9514 58.2258 78.9514 "
       id="path608"
       sodipodi:nodetypes="cccccccs"
       transform="matrix(1.114903,0.000000,0.000000,1.114903,-8.162471,-8.460684)" />
    <path
       style="fill:url(#linearGradient615);fill-rule:evenodd;stroke:none;stroke-opacity:1;stroke-width:1pt;stroke-linejoin:miter;stroke-linecap:butt;fill-opacity:1;"
       d="M 28.75 13.75 C 28.75 13.75 31.875 7.49995 39.6875 9.37495 C 47.5 11.25 78.125 19.375 77.8125 21.875 C 77.5 24.375 71.875 39.0625 71.5625 40.3125 C 71.25 41.5625 42.5 40.9375 31.5625 47.5 C 20.625 54.0625 12.5 59.6875 12.5 59.6875 C 12.5 59.6875 23.75 24.6875 28.75 13.75 z "
       id="path636"
       transform="matrix(0.946780,0.000000,0.000000,0.946780,-0.480566,0.409517)" />
  </g>
  <g
     id="g2579"
     transform="matrix(0.3707421,0.5461703,-0.5461703,0.3707421,49.708494,4.123916)">
    <path
       id="path3740"
       d="m 39.179977,4.2454423 c -0.352426,0.0527315 -0.69612,0.1111499 -1.046764,0.1848493 -8.837133,1.9299068 -16.380684,7.7352914 -22.312312,14.352651 -2.027879,2.419087 -4.695783,6.434706 -1.956346,9.287659 1.0001904,2.825659 -0.0176372,6.381762 -0.6169464,9.375794 -1.1409577,3.939602 -3.3721633,7.800267 -2.4991325,12.051705 0.7262427,6.116774 6.4226843,9.972382 11.875926,11.652415 5.372377,1.70595 9.071152,6.251948 13.675178,9.272895 3.215743,2.542434 7.643478,5.126769 11.753098,3.048186 3.880265,-1.891727 5.616445,-6.760977 10.124804,-7.641189 2.088811,-0.621965 4.350408,-1.225029 6.453963,-2.081979 0.191552,0.892072 0.339023,2.076894 0.379623,3.671234 -0.005834,-0.228969 -0.250489,1.087014 -0.923656,2.535564 -0.673171,1.448553 -1.640631,3.251851 -2.704798,5.038765 -2.128332,3.573828 -4.577641,7.157341 -5.714369,8.858826 l -4.352531,6.511769 7.514309,-2.174068 c 5.110367,-1.480501 10.397759,-4.650156 15.196408,-9.457597 0.797925,1.463143 2.167867,3.719672 4.845927,5.701854 l 2.69402,2.005867 1.518655,-3.001682 C 87.393001,75.038518 88.269006,69.434091 86.64835,62.26181 85.247017,56.060163 82.592333,52.239835 79.714376,49.633134 78.994885,48.981459 78.293136,48.399692 77.591274,47.859505 77.240227,40.417947 76.995013,32.899056 75.414582,25.659392 73.504463,19.239134 66.920832,16.318708 61.279931,13.895533 55.924396,11.576579 50.447968,8.9469538 46.622816,4.3874134 44.159844,3.9995592 41.646959,3.8763214 39.179977,4.2454423 z"
       style="opacity:1;color:#000000;fill:#000000;fill-opacity:0.29411765;fill-rule:evenodd;stroke:none;stroke-width:5.70000029;marker:none;visibility:visible;display:inline;overflow:visible;enable-background:accumulate" />
    <path
       style="opacity:1;color:#000000;fill:url(#linearGradient3745);fill-opacity:1;fill-rule:evenodd;stroke:#593a28;stroke-width:5.70000029;stroke-linecap:butt;stroke-linejoin:miter;stroke-miterlimit:4;stroke-opacity:1;stroke-dasharray:none;stroke-dashoffset:0;marker:none;marker-start:none;marker-mid:none;marker-end:none;visibility:visible;display:inline;overflow:visible;enable-background:accumulate"
       d="m 52.082389,53.024118 c 5.604858,4.741679 9.652973,2.488847 9.920098,12.978452 0.087983,3.45497 -7.580498,14.734926 -9.825161,18.094796 5.320434,-1.541363 11.064619,-5.057297 16.068776,-10.857348 2.383862,0.707063 1.945874,4.208115 6.467243,7.554633 4.173786,-8.138789 4.833881,-12.528126 3.310874,-19.268259 C 75.43499,50.067651 69.095364,49.176879 63.920797,43.900939 c -4.430098,6.149223 -11.007911,6.40743 -11.838408,9.123179 z"
       id="path3726"
       sodipodi:nodetypes="cscccscc" />
    <path
       sodipodi:nodetypes="cscccscc"
       id="path3714"
       d="m 52.082389,53.024118 c 5.604858,4.741679 9.652973,2.488847 9.920098,12.978452 0.087983,3.45497 -7.580498,14.734926 -9.825161,18.094796 5.320434,-1.541363 11.064619,-5.057297 16.068776,-10.857348 2.383862,0.707063 1.945874,4.208115 6.467243,7.554633 4.173786,-8.138789 4.833881,-12.528126 3.310874,-19.268259 C 75.43499,50.067651 69.095364,49.176879 63.920797,43.900939 c -4.430098,6.149223 -11.007911,6.40743 -11.838408,9.123179 z"
       style="opacity:1;color:#000000;fill:url(#linearGradient3743);fill-opacity:1;fill-rule:evenodd;stroke:#593a28;stroke-width:0;stroke-linecap:butt;stroke-linejoin:miter;stroke-miterlimit:4;stroke-opacity:1;stroke-dasharray:none;stroke-dashoffset:0;marker:none;marker-start:none;marker-mid:none;marker-end:none;visibility:visible;display:inline;overflow:visible;enable-background:accumulate" />
    <path
       sodipodi:nodetypes="cccccccccc"
       id="path1797"
       d="m 67.270409,44.237078 c 0,0 -9.2487046,3.4314648 -4.8927683,8.7593916 C 60.185322,56.497893 60.79999,57.091181 50.936616,59.929358 41.073248,62.767533 42.675469,72.178506 34.176674,66.22231 25.677879,60.266112 23.780607,57.311342 18.408415,55.496501 13.036221,53.681658 5.8200392,50.086947 9.5367433,41.315894 13.253449,32.544843 12.265891,23.727159 12.265891,23.727159 5.3160518,26.00702 23.735618,4.463499 38.516337,6.3716061 c 10.502598,11.260803 27.475626,9.6674992 27.446921,21.998277 0.827743,5.292945 1.307151,15.867195 1.307151,15.867195 z"
       style="fill:none;stroke:#593a28;stroke-width:8.28701305;stroke-linecap:butt;stroke-linejoin:miter;stroke-miterlimit:4;stroke-opacity:1" />
    <path
       id="path2939"
       d="M 32.040944,2.5114113 C 23.203812,4.4413177 15.672866,10.24481 9.741238,16.862171 c -2.0278783,2.419086 -4.718184,6.435282 -1.9787473,9.288236 1.0001907,2.825659 -0.0206442,6.380442 -0.6199534,9.374473 -1.1409588,3.939602 -3.36573,7.814039 -2.4926987,12.065477 0.72624277,6.116775 6.4350156,9.970759 11.888258,11.650791 5.372376,1.705951 9.078856,6.246947 13.682882,9.267895 3.215742,2.542432 7.635735,5.128706 11.745355,3.050122 3.880263,-1.891729 5.61052,-6.767425 10.118879,-7.647637 4.808898,-1.431896 10.571922,-2.638957 13.075767,-7.523775 0.531866,-1.2986 1.962552,-2.598481 2.181366,-3.848876 -0.778679,-1.177049 -3.041277,-2.582011 -0.581149,-3.397538 1.465855,-0.961911 3.157634,-1.444112 4.77711,-2.069473 C 71.153372,39.263863 70.97651,31.33961 69.31609,23.733527 67.405968,17.31327 60.821989,14.406586 55.181088,11.983411 49.825553,9.6644578 44.355698,7.0280729 40.530547,2.468533 37.715722,2.0252709 34.846099,1.9218154 32.040944,2.5114113 z"
       style="fill:#593a28;fill-opacity:1;stroke:none" />
    <path
       sodipodi:nodetypes="cccccccccc"
       id="path1790"
       d="m 67.270409,44.237078 c 0,0 -9.2487046,3.4314648 -4.8927683,8.7593916 C 60.185322,56.497893 60.79999,57.091181 50.936616,59.929358 41.073248,62.767533 42.675469,72.178506 34.176674,66.22231 25.677879,60.266112 23.780607,57.311342 18.408415,55.496501 13.036221,53.681658 5.8200392,50.086947 9.5367433,41.315894 13.253449,32.544843 12.265891,23.727159 12.265891,23.727159 5.3160518,26.00702 23.735618,4.463499 38.516337,6.3716061 c 10.502598,11.260803 23.22623,6.6894032 27.446921,21.998277 0.827743,5.292945 1.307151,15.867195 1.307151,15.867195 z"
       style="fill:url(#linearGradient2919);fill-opacity:1;fill-rule:evenodd;stroke:none" />
    <path
       transform="matrix(-1.2259183,-1.1832788,-1.1196756,1.1600232,183.07589,25.127027)"
       d="m 68.189415,68.189415 a 11.78273,11.78273 0 1 1 -23.56546,0 11.78273,11.78273 0 1 1 23.56546,0 z"
       sodipodi:ry="11.78273"
       sodipodi:rx="11.78273"
       sodipodi:cy="68.189415"
       sodipodi:cx="56.406685"
       id="path1161"
       style="fill:url(#radialGradient2925);fill-opacity:1;fill-rule:nonzero;stroke:none"
       sodipodi:type="arc" />
    <path
       id="path2937"
       d="M 32.040944,2.5114113"
       style="fill:#593a28;fill-opacity:1;stroke:none" />
    <path
       id="path2935"
       d="M 32.040944,2.5114113"
       style="fill:#593a28;fill-opacity:1;stroke:none" />
    <path
       id="path3738"
       d="M 63.57453,39.489368"
       style="opacity:1;color:#000000;fill:#593a28;fill-opacity:1;fill-rule:evenodd;stroke:none;stroke-width:5.70000029;marker:none;visibility:visible;display:inline;overflow:visible;enable-background:accumulate" />
    <path
       id="path3736"
       d="M 63.57453,39.489368"
       style="opacity:1;color:#000000;fill:#593a28;fill-opacity:1;fill-rule:evenodd;stroke:none;stroke-width:5.70000029;marker:none;visibility:visible;display:inline;overflow:visible;enable-background:accumulate" />
  </g>
</svg>
