<?xml version="1.0" encoding="UTF-8" standalone="no"?>
<!-- Created with Sodipodi ("http://www.sodipodi.com/") -->
<svg
   xmlns:ns="http://creativecommons.org/ns#"
   xmlns:dc="http://purl.org/dc/elements/1.1/"
   xmlns:cc="http://web.resource.org/cc/"
   xmlns:rdf="http://www.w3.org/1999/02/22-rdf-syntax-ns#"
   xmlns:svg="http://www.w3.org/2000/svg"
   xmlns="http://www.w3.org/2000/svg"
   xmlns:xlink="http://www.w3.org/1999/xlink"
   xmlns:sodipodi="http://sodipodi.sourceforge.net/DTD/sodipodi-0.dtd"
   xmlns:inkscape="http://www.inkscape.org/namespaces/inkscape"
   id="svg548"
   sodipodi:version="0.32"
   width="72pt"
   height="72pt"
   sodipodi:docbase="/home/tweenk/dev/GartoonRedux/scalable/mimetypes"
   sodipodi:docname="application-x-deb.svg"
   inkscape:version="0.45.1"
   inkscape:output_extension="org.inkscape.output.svg.inkscape">
  <metadata
     id="metadata27">
    <rdf:RDF>
      <ns:Work
         rdf:about="">
        <dc:format>image/svg+xml</dc:format>
        <dc:type
           rdf:resource="http://purl.org/dc/dcmitype/StillImage" />
      </ns:Work>
      <cc:Work
         rdf:about="">
        <dc:format>image/svg+xml</dc:format>
        <dc:type
           rdf:resource="http://purl.org/dc/dcmitype/StillImage" />
        <cc:license
           rdf:resource="http://creativecommons.org/licenses/GPL/2.0/" />
      </cc:Work>
      <cc:License
         rdf:about="http://creativecommons.org/licenses/GPL/2.0/">
        <cc:permits
           rdf:resource="http://web.resource.org/cc/Reproduction" />
        <cc:permits
           rdf:resource="http://web.resource.org/cc/Distribution" />
        <cc:requires
           rdf:resource="http://web.resource.org/cc/Notice" />
        <cc:permits
           rdf:resource="http://web.resource.org/cc/DerivativeWorks" />
        <cc:requires
           rdf:resource="http://web.resource.org/cc/ShareAlike" />
        <cc:requires
           rdf:resource="http://web.resource.org/cc/SourceCode" />
      </cc:License>
    </rdf:RDF>
  </metadata>
  <defs
     id="defs550">
    <linearGradient
       id="linearGradient569">
      <stop
         style="stop-color:#c57700;stop-opacity:1;"
         offset="0.000000"
         id="stop570" />
      <stop
         style="stop-color:#ffa75f;stop-opacity:0;"
         offset="1.000000"
         id="stop571" />
    </linearGradient>
    <linearGradient
       id="linearGradient559">
      <stop
         style="stop-color:#945700;stop-opacity:1;"
         offset="0.000000"
         id="stop560" />
      <stop
         style="stop-color:#ffa75f;stop-opacity:0;"
         offset="1.000000"
         id="stop561" />
    </linearGradient>
    <linearGradient
       xlink:href="#linearGradient559"
       id="linearGradient562"
       x1="40.9153252"
       y1="31.7318363"
       x2="42.7533417"
       y2="35.4855690"
       gradientUnits="userSpaceOnUse"
       spreadMethod="pad"
       gradientTransform="matrix(1.2287685,0,0,0.7275398,-7.1389191,1.8739714)" />
    <linearGradient
       xlink:href="#linearGradient559"
       id="linearGradient566"
       x1="59.0300407"
       y1="48.8431816"
       x2="58.3435440"
       y2="23.6183739"
       gradientUnits="userSpaceOnUse"
       spreadMethod="pad"
       gradientTransform="matrix(0.5734264,0,0,1.5590094,-6.8541051,2.1587764)" />
    <linearGradient
       xlink:href="#linearGradient569"
       id="linearGradient568"
       x1="92.7804184"
       y1="64.9443817"
       x2="90.8925323"
       y2="42.8786545"
       gradientUnits="userSpaceOnUse"
       spreadMethod="pad"
       gradientTransform="matrix(0.7296653,0,0,1.2251888,-7.1389191,1.8739714)" />
  </defs>
  <sodipodi:namedview
     id="base"
     showgrid="false"
     inkscape:zoom="3.9205143"
     inkscape:cx="14.851412"
     inkscape:cy="46.41027"
     inkscape:window-width="795"
     inkscape:window-height="711"
     inkscape:window-x="0"
     inkscape:window-y="1"
     inkscape:current-layer="svg548" />
  <path
     style="fill:#000000;fill-opacity:0.3;fill-rule:evenodd;stroke:none;stroke-width:1pt;stroke-linecap:butt;stroke-linejoin:miter;stroke-opacity:1"
     d="M 41.126783,86.944379 C 40.267791,86.568459 6.0797264,81.723193 6.0797264,81.723193 L 2.987337,83.117462 L 2.1283386,79.619442 L 4.7053256,76.584302 L 2.1283386,75.664742 L 16.731279,64.779378 L 18.105647,65.755471 L 18.44926,63.449718 L 22.572446,63.047793 L 67.240265,72.39582 L 41.126783,86.944379 z "
     id="path594" />
  <path
     style="fill:#593a28;fill-opacity:1;fill-rule:evenodd;stroke:none;stroke-width:1pt;stroke-linecap:butt;stroke-linejoin:miter;stroke-opacity:1"
     d="M 16.673693,33.243336 C 19.97407,48.138049 19.287161,71.577094 13.758515,83.054094 L 40.68316,87.362945 L 73.900512,75.358259 C 72.191703,59.003214 70.767585,40.369694 74.185298,24.584221 L 80.04279,11.201955 L 74.138779,11.989068 L 74.926006,8.0531426 C 67.428537,2.8625904 57.937379,1.9442 48.161435,5.2979534 L 47.571062,9.6275486 L 41.863905,4.7075618 C 29.375972,5.2465936 18.027277,8.6337294 7.8178196,18.286692 L 16.673693,33.243336 z "
     id="path564"
     sodipodi:nodetypes="ccccccccccccc" />
  <path
     style="fill:url(#linearGradient562);fill-opacity:1;fill-rule:evenodd;stroke:none;stroke-width:1pt;stroke-linecap:butt;stroke-linejoin:miter;stroke-opacity:1"
     d="M 49.539129,19.270583 C 49.145515,19.270583 21.003251,29.307392 21.003251,29.307392 C 21.003251,29.307392 23.56169,48.003221 29.071993,48.396834 C 34.58239,48.790447 68.431717,22.025876 68.431717,22.025876"
     id="path558"
     sodipodi:nodetypes="cccc" />
  <path
     style="fill:#e9a93d;fill-opacity:1;fill-rule:evenodd;stroke:none;stroke-width:1pt;stroke-linecap:butt;stroke-linejoin:miter;stroke-opacity:1"
     d="M 20.806491,31.472123 L 38.911947,33.046576 C 36.895849,50.497649 36.58856,67.09427 39.699079,82.836533 C 39.699079,82.836533 21.200105,81.065415 21.200105,79.884575 C 21.200105,78.70383 26.217894,52.087231 20.806491,31.472123 z "
     id="path552"
     sodipodi:nodetypes="ccccc" />
  <path
     style="fill:#ffe6ba;fill-opacity:1;fill-rule:evenodd;stroke:none;stroke-width:1pt;stroke-linecap:butt;stroke-linejoin:miter;stroke-opacity:1"
     d="M 69.394996,23.885021 L 38.518334,33.44019 L 39.305561,83.033387 C 39.305561,83.033387 68.82533,72.012687 68.82533,70.831847 C 68.82533,69.651102 64.837951,35.955892 69.394996,23.885021 z "
     id="path553"
     sodipodi:nodetypes="ccccc" />
  <path
     style="fill:#e3c084;fill-opacity:1;fill-rule:evenodd;stroke:none;stroke-width:1pt;stroke-linecap:butt;stroke-linejoin:miter;stroke-opacity:1"
     d="M 50.326261,19.270678 L 42.847891,9.8243269 C 33.663927,11.08821 23.625606,12.352141 15.296094,20.451423 L 20.412878,29.897764 L 50.326261,19.270678 z "
     id="path556"
     sodipodi:nodetypes="ccccc" />
  <path
     style="fill:#e3b463;fill-opacity:1;fill-rule:evenodd;stroke:none;stroke-width:1pt;stroke-linecap:butt;stroke-linejoin:miter;stroke-opacity:1"
     d="M 49.539034,19.467532 L 69.612462,23.206622 L 71.186916,12.973148 C 64.079751,10.608282 57.542253,9.3826536 50.719874,11.005129 L 49.539034,19.467532 z "
     id="path557"
     sodipodi:nodetypes="ccccc" />
  <path
     style="fill:#c89134;fill-opacity:1;fill-rule:evenodd;stroke:none;stroke-width:1pt;stroke-linecap:butt;stroke-linejoin:miter;stroke-opacity:1"
     d="M 38.911947,33.046576 C 37.731107,30.422614 36.550362,27.798556 35.369522,25.174594 C 28.832024,22.217719 21.724859,20.400082 14.902481,23.993848 C 16.739311,26.486575 18.576047,28.979396 20.412878,31.472123 C 26.579266,31.996972 32.745559,32.521727 38.911947,33.046576 z "
     id="path554"
     sodipodi:nodetypes="ccccc" />
  <path
     style="fill:#e3c084;fill-opacity:1;fill-rule:evenodd;stroke:none;stroke-width:1pt;stroke-linecap:butt;stroke-linejoin:miter;stroke-opacity:1"
     d="M 38.518334,34.227322 L 43.241505,24.78098 C 53.343837,18.915263 63.730955,16.182567 73.548406,15.728252 C 72.039666,18.483451 70.53083,21.23865 69.02209,23.993848 L 38.518334,34.227322 z "
     id="path555"
     sodipodi:nodetypes="ccccc" />
  <path
     style="fill:url(#linearGradient566);fill-opacity:1;fill-rule:evenodd;stroke:none;stroke-width:1pt;stroke-linecap:butt;stroke-linejoin:miter;stroke-opacity:1"
     d="M 21.091305,31.756928 C 27.126457,32.281777 33.161609,32.806532 39.196761,33.331381 C 35.75664,51.06724 37.158255,66.823205 39.983893,82.850254 C 39.983893,82.850254 21.123473,81.079136 21.123473,79.898296 C 25.658665,49.125869 21.99492,37.572228 21.091305,31.756928 z "
     id="path565"
     sodipodi:nodetypes="ccccc" />
  <path
     style="fill:url(#linearGradient568);fill-opacity:1;fill-rule:evenodd;stroke:none;stroke-width:1pt;stroke-linecap:butt;stroke-linejoin:miter;stroke-opacity:1"
     d="M 59.426642,32.144566 L 38.518334,33.44019 L 39.305561,83.033387 C 39.305561,83.033387 68.82533,72.012687 68.82533,70.831847 C 67.740993,53.386042 59.426642,32.538179 59.426642,32.144566 z "
     id="path567"
     sodipodi:nodetypes="ccccc" />
  <path
     style="font-size:12px;fill:#ffffff;fill-opacity:0.70434804;fill-rule:evenodd;stroke-width:1pt"
     d="M 23.012112,70.804052 L 23.012112,77.880852 L 35.292412,79.754152 L 35.292412,72.677352 L 23.012112,70.804052 z "
     id="path573"
     sodipodi:nodetypes="ccccc" />
  <g
     id="Layer_x0020_1"
     transform="matrix(0.244003,7.709238e-2,-4.160792e-2,0.382378,45.489253,29.178189)"
     style="fill:#000000;fill-opacity:1;overflow:visible">
    <g
       style="fill:#000000;fill-opacity:1;fill-rule:nonzero"
       id="g156">
      <g
         id="g157"
         style="fill:#000000;fill-opacity:1">
        <path
           d="M 52.068,57.297 C 50.271,57.322 52.408,58.223 54.755,58.584 C 55.403,58.076 55.99,57.566 56.515,57.068 C 55.054,57.425 53.567,57.433 52.069,57.297 L 52.068,57.297 z "
           id="path1138"
           style="fill:#000000;fill-opacity:1;fill-rule:evenodd" />
        <path
           d="M 61.714,54.893 C 62.784,53.416 63.564,51.799 63.838,50.127 C 63.598,51.318 62.952,52.348 62.342,53.434 C 58.984,55.549 62.026,52.178 62.34,50.897 C 58.73,55.444 61.844,53.624 61.714,54.893 L 61.714,54.893 z "
           id="path1139"
           style="fill:#000000;fill-opacity:1;fill-rule:evenodd" />
        <path
           d="M 65.273,45.629 C 65.491,42.393 64.636,43.416 64.349,44.65 C 64.684,44.824 64.949,46.931 65.273,45.629 z "
           id="path1140"
           style="fill:#000000;fill-opacity:1;fill-rule:evenodd" />
        <path
           d="M 45.254,1.398 C 46.213,1.57 47.327,1.703 47.169,1.931 C 48.219,1.701 48.457,1.49 45.254,1.398 z "
           id="path1141"
           style="fill:#000000;fill-opacity:1;fill-rule:evenodd" />
        <path
           d="M 47.169,1.932 L 46.492,2.073 L 47.123,2.016 L 47.169,1.932 L 47.169,1.932 z "
           id="path1142"
           style="fill:#000000;fill-opacity:1;fill-rule:evenodd" />
        <path
           d="M 77.074,46.855 C 77.181,49.761 76.225,51.171 75.361,53.667 L 73.808,54.442 C 72.537,56.911 73.932,56.01 73.021,57.973 C 71.037,59.737 67.001,63.493 65.709,63.836 C 64.765,63.815 66.348,62.723 66.555,62.295 C 63.899,64.119 64.423,65.033 60.361,66.141 L 60.243,65.877 C 50.224,70.59 36.308,61.25 36.491,48.506 C 36.385,49.315 36.187,49.113 35.966,49.44 C 35.448,42.883 38.993,36.297 44.973,33.608 C 50.822,30.713 57.677,31.901 61.867,35.805 C 59.566,32.791 54.986,29.596 49.558,29.895 C 44.241,29.979 39.267,33.358 37.607,37.026 C 34.883,38.741 34.567,43.637 33.38,44.534 C 31.781,56.27 36.383,61.341 44.167,67.305 C 45.391,68.131 44.511,68.256 44.677,68.885 C 42.091,67.674 39.723,65.846 37.776,63.608 C 38.809,65.12 39.924,66.59 41.365,67.745 C 38.927,66.919 35.67,61.837 34.719,61.63 C 38.922,69.155 51.77,74.827 58.499,72.013 C 55.386,72.128 51.431,72.077 47.933,70.784 C 46.462,70.028 44.465,68.462 44.823,68.169 C 54.005,71.599 63.49,70.767 71.434,64.398 C 73.455,62.824 75.663,60.146 76.302,60.109 C 75.341,61.554 76.466,60.804 75.728,62.08 C 77.741,58.832 74.853,60.758 77.809,56.471 L 78.901,57.975 C 78.495,55.278 82.251,52.004 81.868,47.741 C 82.73,46.436 82.829,49.143 81.915,52.143 C 83.184,48.815 82.251,48.28 82.575,45.534 C 82.928,46.458 83.39,47.438 83.628,48.413 C 82.801,45.196 84.474,42.997 84.889,41.128 C 84.48,40.946 83.614,42.55 83.416,38.751 C 83.444,37.101 83.875,37.886 84.04,37.48 C 83.717,37.294 82.866,36.029 82.35,33.603 C 82.724,33.033 83.352,35.082 83.861,35.165 C 83.534,33.235 82.969,31.765 82.945,30.284 C 81.455,27.171 82.418,30.7 81.209,28.948 C 79.624,24.001 82.525,27.8 82.722,25.552 C 85.126,29.034 86.496,34.433 87.127,36.669 C 86.646,33.942 85.87,31.302 84.922,28.747 C 85.653,29.054 83.746,23.138 85.872,27.056 C 83.6,18.703 76.155,10.898 69.306,7.236 C 70.143,8.004 71.202,8.966 70.822,9.117 C 67.416,7.09 68.014,6.931 67.526,6.074 C 64.753,4.945 64.57,6.166 62.732,6.076 C 57.503,3.303 56.494,3.597 51.681,1.859 L 51.9,2.882 C 48.435,1.728 47.862,3.32 44.118,2.886 C 43.89,2.708 45.317,2.241 46.493,2.072 C 43.143,2.513 43.301,1.412 40.022,2.193 C 40.83,1.627 41.684,1.252 42.546,0.769 C 39.814,0.935 36.024,2.359 37.193,1.064 C 32.737,3.052 24.823,5.843 20.382,10.007 L 20.241,9.073 C 18.207,11.516 11.367,16.37 10.822,19.534 L 10.278,19.661 C 9.219,21.454 8.534,23.485 7.694,25.331 C 6.309,27.69 5.664,26.239 5.861,26.608 C 3.139,32.133 1.785,36.773 0.616,40.58 C 1.449,41.824 0.637,48.074 0.951,53.076 C -0.416,77.781 18.289,101.767 38.736,107.305 C 41.733,108.377 46.189,108.336 49.98,108.446 C 45.507,107.167 44.929,107.768 40.573,106.249 C 37.43,104.769 36.741,103.079 34.515,101.147 L 35.396,102.704 C 31.03,101.159 32.857,100.792 29.305,99.667 L 30.245,98.438 C 28.83,98.331 26.497,96.053 25.859,94.792 L 24.311,94.853 C 22.451,92.558 21.459,90.904 21.532,89.623 L 21.032,90.514 C 20.466,89.541 14.189,81.907 17.445,83.684 C 16.841,83.131 16.036,82.784 15.164,81.2 L 15.827,80.442 C 14.261,78.426 12.943,75.842 13.044,74.981 C 13.88,76.11 14.459,76.321 15.033,76.514 C 11.076,66.696 10.854,75.973 7.857,66.52 L 8.491,66.469 C 8.006,65.737 7.71,64.942 7.319,64.162 L 7.595,61.412 C 4.747,58.123 6.8,47.41 7.211,41.535 C 7.495,39.146 9.589,36.603 11.181,32.615 L 10.21,32.449 C 12.064,29.215 20.797,19.461 24.841,19.963 C 26.8,17.502 24.451,19.953 24.069,19.334 C 28.372,14.881 29.725,16.188 32.63,15.387 C 35.762,13.528 29.942,16.112 31.427,14.678 C 36.841,13.295 35.264,11.533 42.326,10.832 C 43.071,11.256 40.597,11.486 39.976,12.037 C 44.487,9.83 54.251,10.332 60.592,13.262 C 67.951,16.701 76.219,26.867 76.545,36.432 L 76.916,36.532 C 76.729,40.335 77.499,44.731 76.165,48.77 L 77.072,46.858 L 77.074,46.855 z "
           id="path1143"
           style="fill:#000000;fill-opacity:1;fill-rule:evenodd" />
        <path
           d="M 32.454,59.764 L 32.202,61.024 C 33.384,62.628 34.32,64.366 35.828,65.62 C 34.743,63.503 33.937,62.628 32.454,59.765 L 32.454,59.764 z "
           id="path1144"
           style="fill:#000000;fill-opacity:1;fill-rule:evenodd" />
        <path
           d="M 35.246,59.654 C 34.621,58.963 34.252,58.131 33.837,57.302 C 34.233,58.759 35.045,60.011 35.8,61.284 L 35.246,59.653 L 35.246,59.654 z "
           id="path1145"
           style="fill:#000000;fill-opacity:1;fill-rule:evenodd" />
        <path
           d="M 84.65,48.916 L 84.387,49.578 C 83.903,53.016 82.858,56.418 81.256,59.572 C 83.025,56.244 84.168,52.603 84.65,48.916 z "
           id="path1146"
           style="fill:#000000;fill-opacity:1;fill-rule:evenodd" />
        <path
           d="M 45.61,0.537 C 46.825,0.092 48.597,0.293 49.886,0 C 48.205,0.141 46.534,0.225 44.882,0.438 L 45.611,0.538 L 45.61,0.537 z "
           id="path1147"
           style="fill:#000000;fill-opacity:1;fill-rule:evenodd" />
        <path
           d="M 2.954,23.219 C 3.234,25.811 1.005,26.817 3.448,25.108 C 4.759,22.157 2.936,24.294 2.954,23.219 z "
           id="path1148"
           style="fill:#000000;fill-opacity:1;fill-rule:evenodd" />
        <path
           d="M 0.082,35.215 C 0.645,33.486 0.747,32.449 0.963,31.449 C -0.594,33.437 0.246,33.861 0.082,35.215 L 0.082,35.215 z "
           id="path1149"
           style="fill:#000000;fill-opacity:1;fill-rule:evenodd" />
      </g>
    </g>
  </g>
  <g
     id="g739"
     transform="matrix(0.244003,7.709238e-2,-4.160792e-2,0.382378,44.864823,28.761909)"
     style="overflow:visible">
    <g
       style="fill:#d30e2b;fill-rule:nonzero"
       id="g740">
      <g
         id="g741">
        <path
           d="M 52.068,57.297 C 50.271,57.322 52.408,58.223 54.755,58.584 C 55.403,58.076 55.99,57.566 56.515,57.068 C 55.054,57.425 53.567,57.433 52.069,57.297 L 52.068,57.297 z "
           id="path742"
           style="fill-rule:evenodd" />
        <path
           d="M 61.714,54.893 C 62.784,53.416 63.564,51.799 63.838,50.127 C 63.598,51.318 62.952,52.348 62.342,53.434 C 58.984,55.549 62.026,52.178 62.34,50.897 C 58.73,55.444 61.844,53.624 61.714,54.893 L 61.714,54.893 z "
           id="path743"
           style="fill-rule:evenodd" />
        <path
           d="M 65.273,45.629 C 65.491,42.393 64.636,43.416 64.349,44.65 C 64.684,44.824 64.949,46.931 65.273,45.629 z "
           id="path744"
           style="fill-rule:evenodd" />
        <path
           d="M 45.254,1.398 C 46.213,1.57 47.327,1.703 47.169,1.931 C 48.219,1.701 48.457,1.49 45.254,1.398 z "
           id="path745"
           style="fill-rule:evenodd" />
        <path
           d="M 47.169,1.932 L 46.492,2.073 L 47.123,2.016 L 47.169,1.932 L 47.169,1.932 z "
           id="path746"
           style="fill-rule:evenodd" />
        <path
           d="M 77.074,46.855 C 77.181,49.761 76.225,51.171 75.361,53.667 L 73.808,54.442 C 72.537,56.911 73.932,56.01 73.021,57.973 C 71.037,59.737 67.001,63.493 65.709,63.836 C 64.765,63.815 66.348,62.723 66.555,62.295 C 63.899,64.119 64.423,65.033 60.361,66.141 L 60.243,65.877 C 50.224,70.59 36.308,61.25 36.491,48.506 C 36.385,49.315 36.187,49.113 35.966,49.44 C 35.448,42.883 38.993,36.297 44.973,33.608 C 50.822,30.713 57.677,31.901 61.867,35.805 C 59.566,32.791 54.986,29.596 49.558,29.895 C 44.241,29.979 39.267,33.358 37.607,37.026 C 34.883,38.741 34.567,43.637 33.38,44.534 C 31.781,56.27 36.383,61.341 44.167,67.305 C 45.391,68.131 44.511,68.256 44.677,68.885 C 42.091,67.674 39.723,65.846 37.776,63.608 C 38.809,65.12 39.924,66.59 41.365,67.745 C 38.927,66.919 35.67,61.837 34.719,61.63 C 38.922,69.155 51.77,74.827 58.499,72.013 C 55.386,72.128 51.431,72.077 47.933,70.784 C 46.462,70.028 44.465,68.462 44.823,68.169 C 54.005,71.599 63.49,70.767 71.434,64.398 C 73.455,62.824 75.663,60.146 76.302,60.109 C 75.341,61.554 76.466,60.804 75.728,62.08 C 77.741,58.832 74.853,60.758 77.809,56.471 L 78.901,57.975 C 78.495,55.278 82.251,52.004 81.868,47.741 C 82.73,46.436 82.829,49.143 81.915,52.143 C 83.184,48.815 82.251,48.28 82.575,45.534 C 82.928,46.458 83.39,47.438 83.628,48.413 C 82.801,45.196 84.474,42.997 84.889,41.128 C 84.48,40.946 83.614,42.55 83.416,38.751 C 83.444,37.101 83.875,37.886 84.04,37.48 C 83.717,37.294 82.866,36.029 82.35,33.603 C 82.724,33.033 83.352,35.082 83.861,35.165 C 83.534,33.235 82.969,31.765 82.945,30.284 C 81.455,27.171 82.418,30.7 81.209,28.948 C 79.624,24.001 82.525,27.8 82.722,25.552 C 85.126,29.034 86.496,34.433 87.127,36.669 C 86.646,33.942 85.87,31.302 84.922,28.747 C 85.653,29.054 83.746,23.138 85.872,27.056 C 83.6,18.703 76.155,10.898 69.306,7.236 C 70.143,8.004 71.202,8.966 70.822,9.117 C 67.416,7.09 68.014,6.931 67.526,6.074 C 64.753,4.945 64.57,6.166 62.732,6.076 C 57.503,3.303 56.494,3.597 51.681,1.859 L 51.9,2.882 C 48.435,1.728 47.862,3.32 44.118,2.886 C 43.89,2.708 45.317,2.241 46.493,2.072 C 43.143,2.513 43.301,1.412 40.022,2.193 C 40.83,1.627 41.684,1.252 42.546,0.769 C 39.814,0.935 36.024,2.359 37.193,1.064 C 32.737,3.052 24.823,5.843 20.382,10.007 L 20.241,9.073 C 18.207,11.516 11.367,16.37 10.822,19.534 L 10.278,19.661 C 9.219,21.454 8.534,23.485 7.694,25.331 C 6.309,27.69 5.664,26.239 5.861,26.608 C 3.139,32.133 1.785,36.773 0.616,40.58 C 1.449,41.824 0.637,48.074 0.951,53.076 C -0.416,77.781 18.289,101.767 38.736,107.305 C 41.733,108.377 46.189,108.336 49.98,108.446 C 45.507,107.167 44.929,107.768 40.573,106.249 C 37.43,104.769 36.741,103.079 34.515,101.147 L 35.396,102.704 C 31.03,101.159 32.857,100.792 29.305,99.667 L 30.245,98.438 C 28.83,98.331 26.497,96.053 25.859,94.792 L 24.311,94.853 C 22.451,92.558 21.459,90.904 21.532,89.623 L 21.032,90.514 C 20.466,89.541 14.189,81.907 17.445,83.684 C 16.841,83.131 16.036,82.784 15.164,81.2 L 15.827,80.442 C 14.261,78.426 12.943,75.842 13.044,74.981 C 13.88,76.11 14.459,76.321 15.033,76.514 C 11.076,66.696 10.854,75.973 7.857,66.52 L 8.491,66.469 C 8.006,65.737 7.71,64.942 7.319,64.162 L 7.595,61.412 C 4.747,58.123 6.8,47.41 7.211,41.535 C 7.495,39.146 9.589,36.603 11.181,32.615 L 10.21,32.449 C 12.064,29.215 20.797,19.461 24.841,19.963 C 26.8,17.502 24.451,19.953 24.069,19.334 C 28.372,14.881 29.725,16.188 32.63,15.387 C 35.762,13.528 29.942,16.112 31.427,14.678 C 36.841,13.295 35.264,11.533 42.326,10.832 C 43.071,11.256 40.597,11.486 39.976,12.037 C 44.487,9.83 54.251,10.332 60.592,13.262 C 67.951,16.701 76.219,26.867 76.545,36.432 L 76.916,36.532 C 76.729,40.335 77.499,44.731 76.165,48.77 L 77.072,46.858 L 77.074,46.855 z "
           id="path747"
           style="fill-rule:evenodd" />
        <path
           d="M 32.454,59.764 L 32.202,61.024 C 33.384,62.628 34.32,64.366 35.828,65.62 C 34.743,63.503 33.937,62.628 32.454,59.765 L 32.454,59.764 z "
           id="path748"
           style="fill-rule:evenodd" />
        <path
           d="M 35.246,59.654 C 34.621,58.963 34.252,58.131 33.837,57.302 C 34.233,58.759 35.045,60.011 35.8,61.284 L 35.246,59.653 L 35.246,59.654 z "
           id="path749"
           style="fill-rule:evenodd" />
        <path
           d="M 84.65,48.916 L 84.387,49.578 C 83.903,53.016 82.858,56.418 81.256,59.572 C 83.025,56.244 84.168,52.603 84.65,48.916 z "
           id="path750"
           style="fill-rule:evenodd" />
        <path
           d="M 45.61,0.537 C 46.825,0.092 48.597,0.293 49.886,0 C 48.205,0.141 46.534,0.225 44.882,0.438 L 45.611,0.538 L 45.61,0.537 z "
           id="path751"
           style="fill-rule:evenodd" />
        <path
           d="M 2.954,23.219 C 3.234,25.811 1.005,26.817 3.448,25.108 C 4.759,22.157 2.936,24.294 2.954,23.219 z "
           id="path752"
           style="fill-rule:evenodd" />
        <path
           d="M 0.082,35.215 C 0.645,33.486 0.747,32.449 0.963,31.449 C -0.594,33.437 0.246,33.861 0.082,35.215 L 0.082,35.215 z "
           id="path753"
           style="fill-rule:evenodd" />
      </g>
    </g>
  </g>
</svg>
