<?xml version="1.0" encoding="UTF-8" standalone="no"?>
<!-- Created with Sodipodi ("http://www.sodipodi.com/") -->
<svg
   xmlns:dc="http://purl.org/dc/elements/1.1/"
   xmlns:cc="http://creativecommons.org/ns#"
   xmlns:rdf="http://www.w3.org/1999/02/22-rdf-syntax-ns#"
   xmlns:svg="http://www.w3.org/2000/svg"
   xmlns="http://www.w3.org/2000/svg"
   xmlns:xlink="http://www.w3.org/1999/xlink"
   xmlns:sodipodi="http://sodipodi.sourceforge.net/DTD/sodipodi-0.dtd"
   xmlns:inkscape="http://www.inkscape.org/namespaces/inkscape"
   version="1.0"
   x="0"
   y="0"
   width="90.0000000"
   height="90.0000000"
   id="svg604"
   sodipodi:version="0.32"
   inkscape:version="0.46+devel"
   sodipodi:docname="application-javascript.svg"
   sodipodi:docbase="/home/zeus/.icons/gartoon/scalable/mimetypes"
   inkscape:output_extension="org.inkscape.output.svg.inkscape">
  <metadata
     id="metadata31">
    <rdf:RDF>
      <cc:Work
         rdf:about="">
        <dc:format>image/svg+xml</dc:format>
        <dc:type
           rdf:resource="http://purl.org/dc/dcmitype/StillImage" />
      </cc:Work>
    </rdf:RDF>
  </metadata>
  <sodipodi:namedview
     id="base"
     pagecolor="#ffffff"
     bordercolor="#666666"
     borderopacity="1.0"
     inkscape:pageopacity="0.0"
     inkscape:pageshadow="2"
     inkscape:zoom="2.8284271"
     inkscape:cx="47.974272"
     inkscape:cy="49.028803"
     inkscape:window-width="640"
     inkscape:window-height="724"
     inkscape:window-x="374"
     inkscape:window-y="9"
     inkscape:current-layer="svg604"
     showgrid="false" />
  <defs
     id="defs606">
    <linearGradient
       id="linearGradient612">
      <stop
         style="stop-color:#7fa8e3;stop-opacity:0.7412;"
         offset="0"
         id="stop613" />
      <stop
         style="stop-color:#ffffff;stop-opacity:0;"
         offset="1"
         id="stop614" />
    </linearGradient>
    <linearGradient
       x1="50.64389"
       y1="5.367929"
       x2="35.75209"
       y2="68.04436"
       id="linearGradient615"
       xlink:href="#linearGradient612"
       gradientUnits="userSpaceOnUse"
       spreadMethod="pad"
       gradientTransform="matrix(0.265959,0.000000,0.000000,0.265959,40.45666,48.78721)" />
    <linearGradient
       inkscape:collect="always"
       xlink:href="#linearGradient584"
       id="linearGradient1087"
       gradientUnits="userSpaceOnUse"
       gradientTransform="matrix(1.036821,-1.811349e-6,3.827296e-7,0.964487,2.057071e-6,1.075978e-6)"
       spreadMethod="pad"
       x1="28.25204"
       y1="32.86880"
       x2="68.36031"
       y2="21.47943" />
    <linearGradient
       inkscape:collect="always"
       xlink:href="#linearGradient612"
       id="linearGradient1092"
       gradientUnits="userSpaceOnUse"
       spreadMethod="pad"
       x1="50.64389"
       y1="5.367929"
       x2="35.75209"
       y2="68.04436"
       gradientTransform="matrix(0.946780,0.000000,0.000000,0.946780,-0.480566,0.409517)" />
    <linearGradient
       y2="75.934349"
       x2="32.051327"
       y1="14.657825"
       x1="32.051327"
       gradientTransform="matrix(0.500064,0.000000,0.000000,0.500075,52.06230,47.59928)"
       gradientUnits="userSpaceOnUse"
       id="linearGradient1865"
       xlink:href="#linearGradient1828"
       inkscape:collect="always" />
    <linearGradient
       id="linearGradient1828">
      <stop
         id="stop1829"
         offset="0.0000000"
         style="stop-color:#ffc93f;stop-opacity:1.0000000;" />
      <stop
         id="stop1830"
         offset="1.0000000"
         style="stop-color:#f1e36c;stop-opacity:1.0000000;" />
    </linearGradient>
    <inkscape:perspective
       id="perspective2554"
       inkscape:persp3d-origin="45 : 30 : 1"
       inkscape:vp_z="90 : 45 : 1"
       inkscape:vp_y="0 : 1000 : 0"
       inkscape:vp_x="0 : 45 : 1"
       sodipodi:type="inkscape:persp3d" />
    <linearGradient
       inkscape:collect="always"
       xlink:href="#linearGradient1828"
       id="linearGradient2572"
       gradientUnits="userSpaceOnUse"
       gradientTransform="matrix(0.99999,0,0,1.00001,-0.701263,-7.713892)"
       x1="32.051327"
       y1="14.657825"
       x2="32.051327"
       y2="75.934349" />
    <linearGradient
       inkscape:collect="always"
       xlink:href="#linearGradient1828"
       id="linearGradient2514"
       gradientUnits="userSpaceOnUse"
       gradientTransform="matrix(0.99999,0,0,1.00001,-0.701263,-7.713892)"
       x1="32.051327"
       y1="14.657825"
       x2="32.051327"
       y2="75.934349" />
  </defs>
  <path
     d="M 8.9835993,79.453088 C 6.2736046,78.221232 2.5782252,74.279492 4.5491172,68.859503 C 5.5345020,62.946949 23.272531,10.718315 27.214382,8.2547134 C 29.677871,6.0374835 33.250244,5.1751953 38.300643,6.5301926 C 42.488776,7.5156442 80.181974,17.370160 82.399181,19.340974 C 84.616501,21.311900 86.341032,22.913235 84.616501,27.224565 C 83.384756,29.441773 68.726123,79.206694 68.479840,82.409476 C 67.494378,85.858540 64.661298,90.046673 59.980377,89.800280 C 55.299569,89.553886 12.432663,80.192157 8.9835993,79.453088 z "
     style="font-size:12.000000;fill-opacity:0.30147097;fill-rule:evenodd;stroke-width:1.0000000"
     id="path1088" />
  <path
     d="M 6.1264603,74.881660 C 3.4164656,73.649804 -0.27891384,69.708064 1.6919782,64.288075 C 2.6773630,58.375521 20.415392,6.1468866 24.357243,3.6832854 C 26.820732,1.4660555 30.393105,0.60376726 35.443504,1.9587646 C 39.631637,2.9442162 77.324835,12.798732 79.542042,14.769546 C 81.759362,16.740472 83.483893,18.341807 81.759362,22.653137 C 80.527617,24.870345 65.868984,74.635266 65.622701,77.838048 C 64.637239,81.287112 61.804159,85.475245 57.123238,85.228852 C 52.442430,84.982458 9.5755242,75.620729 6.1264603,74.881660 z "
     style="font-size:12.000000;fill:#3d4e67;fill-rule:evenodd;stroke-width:1.0000000"
     id="path1089" />
  <path
     d="M 11.792843,70.693527 C 8.9597633,69.954458 4.8946040,69.215277 6.3728539,64.780862 C 9.0828486,53.940994 22.879104,12.305945 28.791658,7.1323494 C 30.146711,5.9004930 34.704323,5.4078174 43.326983,8.1178121 C 53.181499,11.074089 73.136702,17.725823 75.107627,18.711286 C 77.078441,19.696749 77.817622,19.696749 76.339372,24.131275 C 74.122164,28.565802 64.267760,66.505394 61.804047,72.910734 C 60.079627,77.468458 59.710036,79.562469 56.753648,79.562469"
     style="font-size:12.000000;fill:#ffffff;fill-rule:evenodd;stroke-width:1.0000000"
     id="path1090" />
  <path
     d="M 26.739359,13.427742 C 26.739359,13.427742 29.698047,7.5103197 37.094765,9.2855322 C 44.491484,11.060792 73.486621,18.753379 73.190753,21.120330 C 72.894884,23.487279 67.569246,37.393111 67.273378,38.576586 C 66.977509,39.760061 39.757584,39.168323 29.402178,45.381567 C 19.046771,51.594811 11.354184,56.920448 11.354184,56.920448 C 11.354184,56.920448 22.005459,23.783148 26.739359,13.427742 z "
     style="font-size:12.000000;fill:url(#linearGradient1092);fill-rule:evenodd;stroke-width:1.0000000"
     id="path1091" />
  <g
     transform="matrix(0.522929,0.000000,0.000000,0.522929,18.74121,20.82622)"
     style="font-size:12.000000"
     id="g570">
    <defs
       id="defs571">
      <linearGradient
         id="linearGradient584">
        <stop
           style="stop-color:#ffffff;stop-opacity:0;"
           offset="0"
           id="stop585" />
        <stop
           style="stop-color:#ffffff;stop-opacity:1.0000;"
           offset="1"
           id="stop586" />
      </linearGradient>
    </defs>
    <ellipse
       cx="43.364311"
       cy="45.390781"
       rx="40.459530"
       ry="40.459518"
       transform="matrix(0.941981,0.000000,0.000000,0.941981,5.915554,5.375080)"
       style="fill:none;fill-rule:evenodd;stroke:#000000;stroke-width:8.5000000;stroke-opacity:0.29999998"
       id="path589"
       sodipodi:cx="43.364311"
       sodipodi:cy="45.390781"
       sodipodi:rx="40.459530"
       sodipodi:ry="40.459518" />
    <ellipse
       cx="43.364311"
       cy="45.390781"
       rx="40.459530"
       ry="40.459518"
       transform="matrix(0.846155,0.000000,0.000000,0.846155,6.256445,5.738268)"
       style="fill:#31baff;fill-rule:evenodd;stroke-width:1.0000000"
       id="path573"
       sodipodi:cx="43.364311"
       sodipodi:cy="45.390781"
       sodipodi:rx="40.459530"
       sodipodi:ry="40.459518" />
    <path
       d="M 28.507000,13.427700 L 33.507500,22.066600 L 21.427300,37.030600 C 21.427300,37.030600 27.303800,50.749800 31.558500,50.577900 C 28.917700,51.139600 28.922000,62.481900 30.242400,66.003000 C 34.377400,62.431500 14.867700,57.485600 16.527600,47.526400 C 18.187400,37.567100 17.013800,35.016600 12.449100,42.071100 C 7.8844200,49.125500 7.0544800,50.992900 7.4694500,47.673100 C 7.8844200,44.353400 6.4633100,19.778100 28.507000,13.427700 z "
       style="fill:#e48e6f;fill-rule:evenodd;stroke-width:1.0000000"
       id="path576" />
    <path
       d="M 30.707700,12.400700 L 37.762200,22.360000 L 24.068200,36.883900 C 24.068200,36.883900 33.612500,50.162900 33.612500,50.577900 C 33.612500,50.992900 29.877800,61.367100 29.877800,61.367100 C 29.877800,61.367100 16.598800,54.312600 18.258700,44.353400 C 19.918500,34.394100 18.258700,30.659400 13.694000,37.713900 C 9.1293300,44.768300 7.0544800,50.992900 7.4694500,47.673100 C 7.8844200,44.353400 9.5443000,16.550400 30.707700,12.400700 z "
       style="fill:#fffcac;fill-rule:evenodd;stroke-width:1.0000000"
       id="path574" />
    <path
       d="M 28.507000,13.427700 L 33.507500,22.066600 L 21.427300,37.030600 C 21.427300,37.030600 27.303800,50.749800 31.558500,50.577900 C 28.917700,51.139600 27.677100,56.672300 28.997500,60.193400 C 27.530400,55.792000 16.527600,56.240700 18.187500,46.281500 C 19.847300,36.322200 18.258700,30.659400 13.694000,37.713900 C 9.1293300,44.768300 7.0544800,50.992900 7.4694500,47.673100 C 7.8844200,44.353400 6.4633100,19.778100 28.507000,13.427700 z "
       style="fill:#ffd87c;fill-rule:evenodd;stroke-width:1.0000000"
       id="path575" />
    <path
       d="M 42.840500,18.697000 C 42.840500,18.697000 48.122200,22.511600 42.253600,28.086700 C 36.385000,33.661900 28.169100,35.715900 35.211300,39.530400 C 42.253600,43.345000 51.936700,43.931800 51.056400,37.183000 C 50.176200,30.434200 49.002500,16.056200 42.840500,18.697000 z "
       style="fill:#e48e6f;fill-rule:evenodd;stroke-width:1.0000000"
       id="path577" />
    <path
       d="M 42.840500,18.697000 C 42.840500,18.697000 48.122200,22.511600 42.253600,28.086700 C 36.385000,33.661900 28.169100,35.715900 35.211300,39.530400 C 42.253600,43.345000 51.936700,43.931800 51.056400,37.183000 C 50.176200,30.434200 49.002500,16.056200 42.840500,18.697000 z "
       transform="matrix(0.968474,0.000000,0.000000,0.938789,2.198177,1.124868)"
       style="fill:#fffbaa;fill-rule:evenodd;stroke-width:1.0000000"
       id="path578" />
    <path
       d="M 42.840500,18.697000 C 42.840500,18.697000 48.122200,22.511600 42.253600,28.086700 C 36.385000,33.661900 28.169100,35.715900 35.211300,39.530400 C 42.253600,43.345000 51.936700,43.931800 51.056400,37.183000 C 50.176200,30.434200 49.002500,16.056200 42.840500,18.697000 z "
       transform="matrix(0.826610,0.000000,0.000000,0.889821,6.808317,2.024765)"
       style="fill:#ffd87c;fill-rule:evenodd;stroke-width:1.0000000"
       id="path579" />
    <path
       d="M 77.171500,47.159500 C 77.171500,47.159500 63.087000,45.105500 62.206700,45.692400 C 61.326400,46.279300 49.002400,47.453000 50.176200,53.908400 C 51.349900,60.363800 55.457900,65.645500 50.176200,69.460100 C 44.894500,73.274600 39.025900,76.208900 44.307600,77.969500 C 49.589300,79.730000 56.925000,77.676000 59.272400,75.622000 C 61.619800,73.568000 56.631600,72.394300 57.218400,66.525800 C 57.805300,60.657200 56.044700,56.842700 62.206700,58.896600 C 68.368700,60.950600 68.075300,63.298100 72.183200,58.896600 C 76.291200,54.495200 79.812400,53.321500 77.171500,47.159500 z "
       style="fill:#e48e6f;fill-rule:evenodd;stroke-width:1.0000000"
       id="path580" />
    <path
       d="M 77.171500,47.159500 C 78.345200,45.609800 63.087000,41.386200 62.206700,43.832800 C 61.326400,41.940200 46.361500,44.663600 47.535400,51.118900 C 48.709100,57.574400 53.697300,64.715700 48.415600,68.530300 C 43.133900,72.344800 39.025900,76.208900 44.307600,77.969500 C 49.589300,79.730000 56.925000,77.676000 59.272400,75.622000 C 61.619800,73.568000 55.457900,72.394300 56.044700,66.525800 C 56.631600,60.657200 56.044700,55.293000 62.206700,57.346900 C 68.368700,59.400900 68.075300,61.748400 72.183200,57.346900 C 76.291200,52.945500 79.812400,53.321500 77.171500,47.159500 z "
       transform="matrix(1.000000,0.000000,0.000000,0.946729,0.000000,2.428446)"
       style="fill:#fffcac;fill-rule:evenodd;stroke-width:1.0000000"
       id="path582" />
    <path
       d="M 77.171500,47.159500 C 77.171500,47.159500 63.087000,45.105500 62.206700,45.692400 C 61.326400,46.279300 49.002400,47.453000 50.176200,53.908400 C 51.349900,60.363800 55.457900,65.645500 50.176200,69.460100 C 44.894500,73.274600 39.025900,76.208900 44.307600,77.969500 C 49.589300,79.730000 56.925000,77.676000 59.272400,75.622000 C 61.619800,73.568000 55.457900,72.394300 56.044700,66.525800 C 56.631600,60.657200 56.044700,55.293000 62.206700,57.346900 C 68.368700,59.400900 68.075300,61.748400 72.183200,57.346900 C 76.291200,52.945500 79.812400,53.321500 77.171500,47.159500 z "
       transform="matrix(1.000000,0.000000,0.000000,0.946729,0.000000,2.428446)"
       style="fill:#ffd87c;fill-rule:evenodd;stroke-width:1.0000000"
       id="path581" />
    <path
       d="M 83.823800,45.390800 C 83.823800,67.724400 65.698000,85.850300 43.364300,85.850300 C 21.030700,85.850300 2.9047900,67.724400 2.9047900,45.390800 C 2.9047900,23.057100 21.030700,4.9312600 43.364300,4.9312600 C 65.698000,4.9312600 83.823800,23.057100 83.823800,45.390800 z "
       transform="matrix(0.920224,0.000000,0.000000,0.920224,3.044474,1.961231)"
       style="fill:none;fill-rule:evenodd;stroke:#283d53;stroke-width:8.5000000"
       id="path654" />
    <path
       d="M 72.183200,30.434200 C 72.183200,40.152500 63.704400,48.039800 53.257100,48.039800 C 42.809900,48.039800 34.331100,40.152500 34.331100,30.434200 C 34.331100,20.715800 42.809900,12.828500 53.257100,12.828500 C 63.704400,12.828500 72.183200,20.715800 72.183200,30.434200 z "
       transform="matrix(0.933582,-0.664775,0.918324,1.029434,-29.83966,37.88266)"
       style="fill:url(#linearGradient1087);fill-rule:evenodd;stroke-width:1.0000000"
       id="path588" />
  </g>
  <g
     id="g2547"
     transform="matrix(0.4679184,0,0,0.4679184,31.375587,44.995975)">
    <path
       id="path1858"
       d="M 45.318751,7.3776937 C 42.43159,6.5443746 39.448495,8.191152 38.615176,11.078313 l -1.24006,4.296374 c -1.2128,0.037951 -2.404539,0.150626 -3.580232,0.375506 l -2.14768,-3.890466 C 30.194919,9.228949 26.892861,8.275879 24.262084,9.728164 l -2.849737,1.592682 c -2.630777,1.452285 -3.577146,4.731119 -2.12486,7.361897 l 2.13116,3.86054 c -0.828783,0.872905 -1.582278,1.809993 -2.271989,2.816087 l -4.20348,-1.213248 c -2.887162,-0.833319 -5.9001825,0.829979 -6.7335018,3.717139 l -0.904909,3.135193 c -0.8333197,2.887162 0.8366808,5.876959 3.7238428,6.710278 l 4.110585,1.186436 c 0.032196,1.256992 0.155548,2.492182 0.388438,3.709757 l -3.740834,2.065077 c -2.6307765,1.452285 -3.5771465,4.731119 -2.1248593,7.361896 l 1.5926823,2.849737 c 1.452284,2.630779 4.73112,3.577146 7.361897,2.12486 l 3.68098,-2.032036 c 0.917884,0.872368 1.893525,1.670657 2.958543,2.388582 l -1.159624,4.01769 c -0.833319,2.887161 0.813458,5.870257 3.700619,6.703575 l 3.135193,0.904909 c 2.887162,0.83332 5.870258,-0.813458 6.703575,-3.700618 l 1.166327,-4.040915 c 1.273467,-0.041356 2.514559,-0.181052 3.746386,-0.428183 l 2.032036,3.68098 c 1.452288,2.63078 4.731117,3.577144 7.361897,2.12486 l 2.866257,-1.562756 c 2.630778,-1.452288 3.58385,-4.754342 2.131563,-7.38512 l -2.048556,-3.710906 c 0.845879,-0.906211 1.608449,-1.885698 2.305504,-2.932206 l 4.110586,1.186436 c 2.88716,0.833319 5.870252,-0.813458 6.703575,-3.700619 l 0.904909,-3.135193 c 0.833319,-2.887161 -0.806754,-5.893479 -3.693916,-6.726798 l -4.203481,-1.213248 c -0.04767,-1.222783 -0.207661,-2.416436 -0.445177,-3.600342 l 3.86054,-2.131159 c 2.630779,-1.452285 3.577146,-4.73112 2.12486,-7.361897 L 64.99636,21.485274 c -1.452288,-2.630778 -4.731119,-3.577146 -7.361897,-2.12486 l -3.920393,2.164201 c -0.871879,-0.814654 -1.797442,-1.564861 -2.799567,-2.242063 l 1.24006,-4.296374 C 52.987882,12.099017 51.341105,9.115923 48.453944,8.282603 z m 0,0 m 0,0 m 0,0 m 0,0 m 0,0 m 0,0 m 0,0 m 0,0 m 0,0 m -4.161697,20.258875 c 5.897315,1.702136 9.301622,7.868955 7.599484,13.766267 -1.702139,5.897315 -7.868956,9.301625 -13.766269,7.599487 -5.897314,-1.702138 -9.301624,-7.868957 -7.599485,-13.766272 1.702138,-5.897312 7.868955,-9.301621 13.76627,-7.599482 z"
       style="fill:#000000;fill-opacity:0.34444442;stroke:none" />
    <path
       id="path1856"
       d="m 40.855941,2.9148838 c -2.887161,-0.8333191 -5.870256,0.813458 -6.703575,3.700619 l -1.24006,4.2963742 c -1.2128,0.037951 -2.404539,0.150626 -3.580232,0.375506 l -2.14768,-3.8904662 c -1.452285,-2.630778 -4.754343,-3.583848 -7.38512,-2.131563 l -2.849737,1.592682 c -2.630777,1.452285 -3.577146,4.7311192 -2.12486,7.3618972 l 2.13116,3.86054 c -0.828783,0.872905 -1.582278,1.809993 -2.271989,2.816087 l -4.20348,-1.213248 C 7.5932064,18.849993 4.5801856,20.513291 3.7468663,23.400451 l -0.904909,3.135193 c -0.8333197,2.887162 0.8366808,5.876959 3.7238423,6.710278 l 4.1105854,1.186436 c 0.032196,1.256992 0.155548,2.492182 0.388438,3.709757 l -3.7408335,2.065077 c -2.6307769,1.452285 -3.5771469,4.731119 -2.1248597,7.361896 l 1.5926818,2.849737 c 1.4522846,2.630779 4.7311204,3.577146 7.3618974,2.12486 l 3.68098,-2.032036 c 0.917884,0.872368 1.893525,1.670657 2.958543,2.388582 l -1.159624,4.01769 c -0.833319,2.887161 0.813458,5.870257 3.700619,6.703575 l 3.135193,0.904909 c 2.887162,0.83332 5.870258,-0.813458 6.703575,-3.700618 l 1.166327,-4.040915 c 1.273467,-0.041356 2.514559,-0.181052 3.746386,-0.428183 l 2.032036,3.68098 c 1.452288,2.63078 4.731117,3.577144 7.361897,2.12486 l 2.866257,-1.562756 c 2.630778,-1.452288 3.58385,-4.754342 2.131563,-7.38512 l -2.048556,-3.710906 c 0.845879,-0.906211 1.608449,-1.885698 2.305504,-2.932206 l 4.110586,1.186436 c 2.88716,0.833319 5.870252,-0.813458 6.703575,-3.700619 l 0.904909,-3.135193 c 0.833319,-2.887161 -0.806754,-5.893479 -3.693916,-6.726798 l -4.203481,-1.213248 c -0.04767,-1.222783 -0.207661,-2.416436 -0.445177,-3.600342 l 3.86054,-2.131159 c 2.630779,-1.452285 3.577146,-4.73112 2.12486,-7.361897 L 60.53355,17.022464 c -1.452288,-2.630778 -4.731119,-3.577146 -7.361897,-2.12486 l -3.920393,2.164201 c -0.871879,-0.814654 -1.797442,-1.564861 -2.799567,-2.242063 l 1.24006,-4.296374 C 48.525072,7.6362068 46.878295,4.6531128 43.991134,3.8197928 z m 0,0 m 0,0 m 0,0 m 0,0 m 0,0 m 0,0 m 0,0 m 0,0 m 0,0 m -4.161697,20.258875 c 5.897315,1.702136 9.301622,7.868955 7.599484,13.766267 -1.702139,5.897315 -7.868956,9.301625 -13.766269,7.599487 -5.897314,-1.702138 -9.301624,-7.868957 -7.599485,-13.766272 1.702138,-5.897312 7.868955,-9.301621 13.76627,-7.599482 z"
       style="fill:url(#linearGradient2514);fill-opacity:1;stroke:#593a28;stroke-width:3.86746287;stroke-linecap:round;stroke-linejoin:round;stroke-miterlimit:4;stroke-opacity:1" />
  </g>
  <use
     x="0"
     y="0"
     xlink:href="#g2547"
     id="use2580"
     transform="translate(-8.8388347,-37.123106)"
     width="90"
     height="90" />
</svg>
