<?xml version="1.0" encoding="UTF-8" standalone="no"?>
<!DOCTYPE svg PUBLIC "-//W3C//DTD SVG 20010904//EN"
"http://www.w3.org/TR/2001/REC-SVG-20010904/DTD/svg10.dtd">
<!-- Created with Sodipodi ("http://www.sodipodi.com/") -->
<svg
   id="svg604"
   sodipodi:version="0.32"
   width="72pt"
   height="72pt"
   sodipodi:docbase="/home/zeus/.icons/gartoon/scalable/mimetypes"
   sodipodi:docname="gnome-mime-audio-ac3.svg"
   xmlns="http://www.w3.org/2000/svg"
   xmlns:sodipodi="http://sodipodi.sourceforge.net/DTD/sodipodi-0.dtd"
   xmlns:xlink="http://www.w3.org/1999/xlink"
   xmlns:inkscape="http://www.inkscape.org/namespaces/inkscape"
   inkscape:version="0.40"
   xmlns:rdf="http://www.w3.org/1999/02/22-rdf-syntax-ns#"
   xmlns:cc="http://web.resource.org/cc/"
   xmlns:dc="http://purl.org/dc/elements/1.1/">
  <metadata
     id="metadata27">
    <rdf:RDF
       id="RDF28">
      <cc:Work
         rdf:about=""
         id="Work29">
        <dc:format
           id="format30">image/svg+xml</dc:format>
        <dc:type
           id="type32"
           rdf:resource="http://purl.org/dc/dcmitype/StillImage" />
      </cc:Work>
    </rdf:RDF>
  </metadata>
  <defs
     id="defs606">
    <linearGradient
       id="linearGradient705">
      <stop
         style="stop-color:#7fa8e3;stop-opacity:0.741176;"
         offset="0.000000"
         id="stop706" />
      <stop
         style="stop-color:#ffffff;stop-opacity:0;"
         offset="1.000000"
         id="stop707" />
    </linearGradient>
    <linearGradient
       id="linearGradient612">
      <stop
         style="stop-color:#ffffff;stop-opacity:1;"
         offset="0.000000"
         id="stop613" />
      <stop
         style="stop-color:#ffffff;stop-opacity:0;"
         offset="1.000000"
         id="stop614" />
    </linearGradient>
    <linearGradient
       xlink:href="#linearGradient705"
       id="linearGradient615"
       x1="50.6438866"
       y1="5.36792946"
       x2="35.7520943"
       y2="68.0443573"
       gradientUnits="userSpaceOnUse"
       spreadMethod="pad" />
    <radialGradient
       xlink:href="#linearGradient612"
       id="radialGradient704"
       cx="8.17300129"
       cy="62.0631676"
       fx="8.17300129"
       fy="62.0631676"
       r="4.03522396"
       gradientUnits="userSpaceOnUse"
       spreadMethod="pad"
       gradientTransform="matrix(1.111950,0.000000,0.000000,0.899321,3.428790e-7,-1.512959e-6)" />
    <radialGradient
       xlink:href="#linearGradient612"
       id="radialGradient708"
       cx="0.05366803"
       cy="0.10153580"
       fx="0.05366803"
       fy="0.10153580"
       r="0.75628221"
       gradientUnits="objectBoundingBox"
       spreadMethod="pad" />
    <radialGradient
       inkscape:collect="always"
       xlink:href="#linearGradient612"
       id="radialGradient1093"
       gradientUnits="userSpaceOnUse"
       gradientTransform="matrix(1.111950,0.000000,0.000000,0.899321,3.428790e-7,-1.512959e-6)"
       spreadMethod="pad"
       cx="8.17300129"
       cy="62.0631676"
       fx="8.17300129"
       fy="62.0631676"
       r="4.03522396" />
    <radialGradient
       inkscape:collect="always"
       xlink:href="#linearGradient612"
       id="radialGradient1094"
       gradientUnits="userSpaceOnUse"
       spreadMethod="pad"
       cx="28.227884"
       cy="54.918088"
       fx="28.227884"
       fy="54.918088"
       r="5.2088413"
       gradientTransform="scale(1.074784,0.930420)" />
  </defs>
  <sodipodi:namedview
     id="base"
     inkscape:zoom="5.0416667"
     inkscape:cx="36.000000"
     inkscape:cy="36.000000"
     inkscape:window-width="640"
     inkscape:window-height="536"
     inkscape:window-x="5"
     inkscape:window-y="48"
     inkscape:current-layer="svg604" />
  <path
     style="fill:#000000;fill-rule:evenodd;stroke:none;stroke-opacity:1;stroke-width:1pt;stroke-linejoin:miter;stroke-linecap:butt;fill-opacity:0.301471;"
     d="M 12.8163 74.753 C 10.3856 73.6481 7.07107 70.1126 8.83884 65.2512 C 9.72267 59.948 25.6326 13.1021 29.1682 10.8924 C 31.3778 8.90368 34.582 8.13026 39.1119 9.34561 C 42.8684 10.2295 76.6769 19.0684 78.6656 20.8361 C 80.6544 22.6039 82.2012 24.0402 80.6544 27.9072 C 79.5496 29.8959 66.4017 74.532 66.1808 77.4047 C 65.2969 80.4983 62.7558 84.2548 58.5573 84.0338 C 54.3589 83.8128 15.9099 75.4159 12.8163 74.753 z "
     id="path794"
     sodipodi:nodetypes="ccccccccc"
     transform="matrix(1.114903,0.000000,0.000000,1.114903,-5.305332,-3.889256)" />
  <path
     style="fill:#143c69;fill-rule:evenodd;stroke:none;stroke-opacity:1;stroke-width:1pt;stroke-linejoin:miter;stroke-linecap:butt;fill-opacity:1;"
     d="M 12.8163 74.753 C 10.3856 73.6481 7.07107 70.1126 8.83884 65.2512 C 9.72267 59.948 25.6326 13.1021 29.1682 10.8924 C 31.3778 8.90368 34.582 8.13026 39.1119 9.34561 C 42.8684 10.2295 76.6769 19.0684 78.6656 20.8361 C 80.6544 22.6039 82.2012 24.0402 80.6544 27.9072 C 79.5496 29.8959 66.4017 74.532 66.1808 77.4047 C 65.2969 80.4983 62.7558 84.2548 58.5573 84.0338 C 54.3589 83.8128 15.9099 75.4159 12.8163 74.753 z "
     id="path609"
     sodipodi:nodetypes="ccccccccc"
     transform="matrix(1.114903,0.000000,0.000000,1.114903,-8.162471,-8.460684)" />
  <path
     style="fill:#ffffff;fill-rule:evenodd;stroke:none;stroke-opacity:1;stroke-width:1pt;stroke-linejoin:miter;stroke-linecap:butt;fill-opacity:1;"
     d="M 17.8987 70.9965 C 15.3576 70.3336 11.7114 69.6706 13.0373 65.6932 C 15.468 55.9705 27.8424 18.6264 33.1456 13.986 C 34.361 12.8811 38.4489 12.4392 46.1829 14.8699 C 55.0218 17.5215 72.9204 23.4877 74.6882 24.3716 C 76.4559 25.2555 77.1189 25.2555 75.793 29.233 C 73.8043 33.2105 64.9655 67.24 62.7557 72.9852 C 61.209 77.0732 60.8775 78.9514 58.2258 78.9514 "
     id="path608"
     sodipodi:nodetypes="cccccccs"
     transform="matrix(1.114903,0.000000,0.000000,1.114903,-8.162471,-8.460684)" />
  <path
     style="fill:url(#linearGradient615);fill-rule:evenodd;stroke:none;stroke-opacity:1;stroke-width:1pt;stroke-linejoin:miter;stroke-linecap:butt;fill-opacity:1;"
     d="M 28.75 13.75 C 28.75 13.75 31.875 7.49995 39.6875 9.37495 C 47.5 11.25 78.125 19.375 77.8125 21.875 C 77.5 24.375 71.875 39.0625 71.5625 40.3125 C 71.25 41.5625 42.5 40.9375 31.5625 47.5 C 20.625 54.0625 12.5 59.6875 12.5 59.6875 C 12.5 59.6875 23.75 24.6875 28.75 13.75 z "
     id="path636"
     transform="matrix(0.946780,0.000000,0.000000,0.946780,-0.480566,0.409517)" />
  <g
     id="g1083"
     transform="translate(-3.223140,13.63636)">
    <path
       style="font-size:12.000000;fill:#0d0000;fill-opacity:0.30147097;fill-rule:evenodd;stroke-width:1.0000000pt"
       d="M 7.7339800,34.204900 L 12.042900,51.330100 C 5.0823200,51.219600 4.1984400,55.970500 4.6403900,59.174600 C 6.7396100,68.234300 17.456700,65.693300 24.527700,62.710200 C 23.643800,59.506000 20.329300,44.369600 19.887400,41.717800 C 23.754300,40.723500 31.819800,38.403300 31.819800,38.403300 C 31.819800,38.403300 34.692400,45.584900 35.134300,47.021200 C 26.074500,46.689700 25.411700,52.324400 26.185100,54.865600 C 27.621400,61.936700 34.029500,61.826200 37.565100,60.831800 C 40.879600,60.279500 45.520000,58.290700 48.061200,57.185900 C 47.066800,53.318900 38.338400,29.233000 37.233600,26.139400 C 32.924600,27.686200 7.6234900,34.425800 7.7339800,34.204900 z "
       id="path635"
       sodipodi:nodetypes="cccccccccccc"
       transform="matrix(1.035546,0.000000,0.000000,1.035546,15.56160,-11.72637)" />
    <path
       style="font-size:12.000000;fill:#0d3c07;fill-rule:evenodd;stroke-width:1.0000000pt"
       d="M 7.7339800,34.204900 L 12.042900,51.330100 C 5.0823200,51.219600 4.1984400,55.970500 4.6403900,59.174600 C 6.7396100,68.234300 17.456700,65.693300 24.527700,62.710200 C 23.643800,59.506000 20.329300,44.369600 19.887400,41.717800 C 23.754300,40.723500 31.819800,38.403300 31.819800,38.403300 C 31.819800,38.403300 34.692400,45.584900 35.134300,47.021200 C 26.074500,46.689700 25.411700,52.324400 26.185100,54.865600 C 27.621400,61.936700 34.029500,61.826200 37.565100,60.831800 C 40.879600,60.279500 45.520000,58.290700 48.061200,57.185900 C 47.066800,53.318900 38.338400,29.233000 37.233600,26.139400 C 32.924600,27.686200 7.6234900,34.425800 7.7339800,34.204900 z "
       id="path616"
       sodipodi:nodetypes="cccccccccccc"
       transform="translate(14.83929,-11.42410)" />
    <path
       style="font-size:12.000000;fill:#2aaf18;fill-rule:evenodd;stroke-width:1.0000000pt"
       d="M 15.799400,54.202700 L 11.159000,35.972600 L 35.797300,29.122500 L 44.746600,54.976100 C 44.746600,54.976100 33.366600,59.506000 31.709300,57.517300 C 28.947100,57.406700 26.737500,51.219700 33.477100,50.004300 C 37.123100,49.893800 38.559400,49.672800 39.553800,50.004200 L 33.366600,34.094400 L 15.247000,39.397700 L 20.329300,60.058400 C 20.329300,60.058400 13.700200,64.919800 7.9549500,60.168900 C 6.7396100,59.064100 6.6291200,56.080900 8.6178600,54.976100 C 10.275100,52.876900 15.688900,54.423700 15.799400,54.202700 z "
       id="path574"
       sodipodi:nodetypes="ccccccccccccc"
       transform="translate(14.83929,-11.42410)" />
    <path
       transform="matrix(1.488889,0.000000,0.000000,1.488889,8.836250,-40.12308)"
       style="font-size:12.000000;fill:url(#radialGradient1093);fill-rule:evenodd;stroke-width:1.0000000pt"
       d="M 14.473600,57.572500 C 12.618400,56.792800 11.999400,58.203200 11.601000,60.058400 C 10.015300,60.058400 8.8767600,59.241600 8.8767600,57.869300 C 8.8767600,56.497100 9.9410900,55.531800 11.526800,55.531800 C 13.112500,55.531800 14.473600,56.200300 14.473600,57.572500 z "
       id="path623"
       sodipodi:nodetypes="ccccc" />
    <path
       style="font-size:12.000000;fill:url(#radialGradient1094);fill-rule:evenodd;stroke-width:1.0000000pt"
       d="M 37.344100,53.650300 C 33.366600,51.883400 34.470600,54.423700 33.642800,56.854400 C 31.599700,56.854400 29.941600,55.418900 29.941600,53.650300 C 29.941600,51.881600 31.599700,50.446200 33.642800,50.446200 C 35.685900,50.446200 37.344100,51.881600 37.344100,53.650300 z "
       id="path625"
       sodipodi:nodetypes="ccccc"
       transform="translate(14.83929,-11.42410)" />
    <path
       style="font-size:12.000000;fill:#34674b;fill-rule:evenodd;stroke-width:1.0000000pt"
       d="M 15.357500,39.508200 L 33.366600,34.204900 L 33.808500,32.547600 L 15.799400,37.740400 L 15.357500,39.508200 z "
       id="path630"
       sodipodi:nodetypes="ccccc"
       transform="translate(14.83929,-11.42410)" />
    <path
       style="font-size:12.000000;fill:#cbff87;fill-rule:evenodd;stroke-width:1.0000000pt"
       d="M 11.159000,35.972600 L 13.368700,36.525100 L 36.128700,30.227400 L 35.686800,29.122500 L 11.159000,35.972600 z "
       id="path631"
       transform="translate(14.83929,-11.42410)" />
    <path
       style="font-size:12.000000;fill:#cbff87;fill-rule:evenodd;stroke-width:1.0000000pt"
       d="M 33.698100,32.879000 L 39.664300,49.893800 L 33.256100,34.204900 L 33.698100,32.879000 z "
       id="path633"
       transform="translate(14.83929,-11.42410)" />
    <path
       style="font-size:12.000000;fill:#cbff87;fill-rule:evenodd;stroke-width:1.0000000pt"
       d="M 13.147800,36.193600 C 13.147800,36.193600 16.130900,54.313200 16.020400,54.313200 C 15.909900,54.313200 11.269500,36.083100 11.269500,36.083100 L 13.147800,36.193600 z "
       id="path634"
       transform="translate(14.83929,-11.42410)" />
  </g>
  <path
     style="font-size:13.000000;font-weight:bold;fill:#143c69;stroke-width:1.0000000pt;font-family:Kid Kosmic"
     d="M 69.898122,23.364098 L 69.899438,23.404238 C 68.143154,23.906269 66.528734,24.243076 65.056210,24.414564 C 66.768213,26.318577 67.437275,27.899385 67.063453,29.156794 C 67.015208,29.319074 66.951989,29.472417 66.873672,29.616890 C 66.444335,30.407629 65.613214,30.827183 64.380406,30.875579 C 63.532448,30.906103 62.548051,30.772335 61.426967,30.474409 C 59.638167,29.986738 57.677877,28.962446 55.546095,27.401535 C 55.549986,27.031918 55.611271,26.736640 55.729896,26.515891 C 56.060782,25.907872 56.506084,25.687011 57.065870,25.853433 C 57.171310,25.884780 57.284078,25.936040 57.404328,26.007053 C 59.419299,27.188857 60.973172,27.946683 62.066003,28.280339 C 63.172611,28.626959 63.804170,28.655830 63.960709,28.366858 C 64.139872,28.031613 63.851659,27.367546 63.096043,26.374756 C 62.631695,25.768702 62.101540,25.160820 61.505894,24.551098 C 61.454806,24.544674 61.404887,24.534319 61.356193,24.519843 C 60.828902,24.363081 60.637562,24.041314 60.782268,23.554568 C 60.808799,23.465329 60.845899,23.370364 60.893446,23.269741 C 61.138775,22.830541 61.643025,22.649322 62.406002,22.726027 C 63.482141,22.551558 64.507891,22.309007 65.483101,21.998537 C 64.207883,21.654788 62.439643,21.261488 60.178421,20.818859 C 59.612335,20.703457 59.314855,20.412001 59.286137,19.944326 C 59.274544,19.834885 59.283176,19.731456 59.312100,19.634164 C 59.406168,19.317751 59.721661,19.014168 60.258358,18.723456 C 63.089221,19.061790 65.628299,19.565011 67.875493,20.233091 C 68.686705,20.474260 69.513922,20.751068 70.356956,21.063459 C 70.738012,21.415233 70.858559,21.826331 70.718697,22.296781 C 70.559514,22.832221 70.285979,23.188025 69.898122,23.364098 z M 57.352899,20.521861 C 57.183492,20.824640 56.892927,21.029638 56.481394,21.136912 C 56.104709,21.245575 55.741947,21.248104 55.393136,21.144404 C 54.954988,21.014145 54.698032,20.690606 54.622133,20.173537 C 54.594324,19.732631 54.570541,19.292922 54.550784,18.854410 C 52.555109,18.261105 50.769819,18.326256 49.194856,19.050053 C 48.131669,19.537489 47.365219,20.214653 46.895574,21.081669 C 46.779372,21.294270 46.691106,21.502032 46.630806,21.704859 C 46.445093,22.329537 46.496765,22.883533 46.785754,23.366720 C 47.082862,23.852426 47.580243,24.198930 48.277867,24.406331 C 49.665158,24.818765 51.560589,24.680364 53.964093,23.991003 C 54.314275,23.971484 54.586719,23.990615 54.781398,24.048492 C 55.219450,24.178723 55.373332,24.462959 55.243102,24.901012 C 55.069442,25.485144 54.658625,25.857410 54.010496,26.017971 C 53.005328,26.399031 51.875867,26.619512 50.621919,26.679359 C 49.341202,26.740115 48.193854,26.619662 47.179721,26.318166 C 45.686991,25.874385 44.719551,25.074739 44.277266,23.918980 C 43.879980,22.909092 43.827269,21.913281 44.119105,20.931643 C 44.242097,20.517938 44.430801,20.106034 44.685092,19.695997 C 45.800058,17.846542 47.543375,16.704895 49.915072,16.270961 C 51.943249,15.893787 54.073683,16.063635 56.306402,16.780409 C 57.037668,17.112569 57.482539,17.531827 57.641044,18.038087 C 57.772568,18.456830 57.734042,19.076651 57.525339,19.897618 C 57.495953,20.144897 57.438455,20.353042 57.352899,20.521861 z M 36.675998,12.109915 C 37.242699,11.836887 38.328976,11.806584 39.934605,12.019046 C 41.276632,12.197376 42.426761,12.442175 43.384990,12.753447 C 44.164712,13.011753 44.670934,13.343255 44.903819,13.748107 C 44.724911,14.498331 44.524457,15.246635 44.302553,15.993049 C 43.593466,18.378177 42.665185,20.773151 41.517586,23.178037 C 41.211889,23.819939 40.731621,24.158412 40.076743,24.193236 C 39.836003,24.201162 39.638518,24.182199 39.484386,24.136376 C 39.159921,24.039914 38.993166,23.813716 38.984093,23.457875 C 39.664934,22.415263 40.209249,21.416044 40.617094,20.460028 L 33.575567,19.598390 C 33.370909,19.811297 32.983332,20.239088 32.412547,20.881677 C 32.060647,21.501079 31.546161,21.776382 30.869092,21.707586 C 30.697181,21.691740 30.574752,21.672974 30.501711,21.651259 C 30.112353,21.535505 29.963497,21.323495 30.055143,21.015229 C 30.081673,20.925990 30.129626,20.838736 30.199126,20.753403 C 32.751104,17.812495 34.910080,14.931268 36.675998,12.109915 z M 41.756004,15.381611 C 41.718773,15.061529 41.379670,14.806210 40.738696,14.615652 C 40.316844,14.490237 39.774789,14.412965 39.112339,14.383777 C 38.361654,14.354857 37.838956,14.420215 37.544246,14.579850 C 36.955527,15.490859 36.274859,16.414278 35.502146,17.350081 L 41.482307,17.816787 C 41.638506,17.024341 41.729687,16.212670 41.756004,15.381611 z M 30.161307,19.232358 C 30.040736,19.637916 29.739935,19.936998 29.258836,20.129480 C 28.785855,20.324481 28.330353,20.356819 27.892301,20.226588 C 27.730021,20.178344 27.587248,20.109399 27.463791,20.019699 C 27.106384,19.736819 26.989161,19.388576 27.112182,18.974774 C 27.196590,18.690855 27.380017,18.445139 27.662435,18.237718 C 28.198893,17.858675 28.759313,17.755916 29.343350,17.929547 C 29.513778,17.980215 29.667499,18.056900 29.804762,18.159469 C 30.172740,18.436622 30.291565,18.794211 30.161307,19.232358 z "
     id="path582" />
</svg>
