<?xml version="1.0" encoding="UTF-8" standalone="no"?>
<!-- Created with Sodipodi ("http://www.sodipodi.com/") -->
<svg
   xmlns:dc="http://purl.org/dc/elements/1.1/"
   xmlns:cc="http://web.resource.org/cc/"
   xmlns:rdf="http://www.w3.org/1999/02/22-rdf-syntax-ns#"
   xmlns:svg="http://www.w3.org/2000/svg"
   xmlns="http://www.w3.org/2000/svg"
   xmlns:xlink="http://www.w3.org/1999/xlink"
   xmlns:sodipodi="http://sodipodi.sourceforge.net/DTD/sodipodi-0.dtd"
   xmlns:inkscape="http://www.inkscape.org/namespaces/inkscape"
   id="svg604"
   sodipodi:version="0.32"
   width="72pt"
   height="72pt"
   sodipodi:docbase="/home/tweenk/dev/GartoonRedux/scalable/mimetypes"
   sodipodi:docname="font-x-generic.svg"
   inkscape:version="0.45.1"
   inkscape:output_extension="org.inkscape.output.svg.inkscape">
  <metadata
     id="metadata14">
    <rdf:RDF>
      <cc:Work
         rdf:about="">
        <dc:format>image/svg+xml</dc:format>
        <dc:type
           rdf:resource="http://purl.org/dc/dcmitype/StillImage" />
      </cc:Work>
    </rdf:RDF>
  </metadata>
  <defs
     id="defs606">
    <linearGradient
       id="linearGradient612">
      <stop
         style="stop-color:#7fa8e3;stop-opacity:0.741176;"
         offset="0.000000"
         id="stop613" />
      <stop
         style="stop-color:#ffffff;stop-opacity:0;"
         offset="1.000000"
         id="stop614" />
    </linearGradient>
    <linearGradient
       xlink:href="#linearGradient612"
       id="linearGradient615"
       x1="50.6438866"
       y1="5.36792946"
       x2="35.7520943"
       y2="68.0443573"
       gradientUnits="userSpaceOnUse"
       spreadMethod="pad" />
  </defs>
  <sodipodi:namedview
     id="base"
     inkscape:zoom="4.5222222"
     inkscape:cx="71.282673"
     inkscape:cy="50.684444"
     inkscape:window-width="795"
     inkscape:window-height="619"
     inkscape:window-x="219"
     inkscape:window-y="18"
     inkscape:current-layer="svg604" />
  <path
     style="fill:#000000;fill-rule:evenodd;stroke:none;stroke-opacity:1;stroke-width:1pt;stroke-linejoin:miter;stroke-linecap:butt;fill-opacity:0.301471;"
     d="M 12.8163 74.753 C 10.3856 73.6481 7.07107 70.1126 8.83884 65.2512 C 9.72267 59.948 25.6326 13.1021 29.1682 10.8924 C 31.3778 8.90368 34.582 8.13026 39.1119 9.34561 C 42.8684 10.2295 76.6769 19.0684 78.6656 20.8361 C 80.6544 22.6039 82.2012 24.0402 80.6544 27.9072 C 79.5496 29.8959 66.4017 74.532 66.1808 77.4047 C 65.2969 80.4983 62.7558 84.2548 58.5573 84.0338 C 54.3589 83.8128 15.9099 75.4159 12.8163 74.753 z "
     id="path794"
     sodipodi:nodetypes="ccccccccc"
     transform="matrix(1.114903,0.000000,0.000000,1.114903,-5.305332,-3.889256)" />
  <path
     style="fill:#3d4e67;fill-rule:evenodd;stroke:none;stroke-opacity:1;stroke-width:1pt;stroke-linejoin:miter;stroke-linecap:butt;fill-opacity:1;"
     d="M 12.8163 74.753 C 10.3856 73.6481 7.07107 70.1126 8.83884 65.2512 C 9.72267 59.948 25.6326 13.1021 29.1682 10.8924 C 31.3778 8.90368 34.582 8.13026 39.1119 9.34561 C 42.8684 10.2295 76.6769 19.0684 78.6656 20.8361 C 80.6544 22.6039 82.2012 24.0402 80.6544 27.9072 C 79.5496 29.8959 66.4017 74.532 66.1808 77.4047 C 65.2969 80.4983 62.7558 84.2548 58.5573 84.0338 C 54.3589 83.8128 15.9099 75.4159 12.8163 74.753 z "
     id="path609"
     sodipodi:nodetypes="ccccccccc"
     transform="matrix(1.114903,0.000000,0.000000,1.114903,-8.162471,-8.460684)" />
  <path
     style="fill:#ffffff;fill-rule:evenodd;stroke:none;stroke-opacity:1;stroke-width:1pt;stroke-linejoin:miter;stroke-linecap:butt;fill-opacity:1;"
     d="M 17.8987 70.9965 C 15.3576 70.3336 11.7114 69.6706 13.0373 65.6932 C 15.468 55.9705 27.8424 18.6264 33.1456 13.986 C 34.361 12.8811 38.4489 12.4392 46.1829 14.8699 C 55.0218 17.5215 72.9204 23.4877 74.6882 24.3716 C 76.4559 25.2555 77.1189 25.2555 75.793 29.233 C 73.8043 33.2105 64.9655 67.24 62.7557 72.9852 C 61.209 77.0732 60.8775 78.9514 58.2258 78.9514 "
     id="path608"
     sodipodi:nodetypes="cccccccs"
     transform="matrix(1.114903,0.000000,0.000000,1.114903,-8.162471,-8.460684)" />
  <path
     style="fill:url(#linearGradient615);fill-rule:evenodd;stroke:none;stroke-opacity:1;stroke-width:1pt;stroke-linejoin:miter;stroke-linecap:butt;fill-opacity:1;"
     d="M 28.75 13.75 C 28.75 13.75 31.875 7.49995 39.6875 9.37495 C 47.5 11.25 78.125 19.375 77.8125 21.875 C 77.5 24.375 71.875 39.0625 71.5625 40.3125 C 71.25 41.5625 42.5 40.9375 31.5625 47.5 C 20.625 54.0625 12.5 59.6875 12.5 59.6875 C 12.5 59.6875 23.75 24.6875 28.75 13.75 z "
     id="path636"
     transform="matrix(0.946780,0.000000,0.000000,0.946780,-0.480566,0.409517)" />
  <path
     style="font-size:36.87178802px;font-style:normal;font-weight:bold;fill:#000000;fill-opacity:0.29803922;stroke:none;stroke-width:1px;stroke-linecap:butt;stroke-linejoin:miter;stroke-opacity:1;font-family:DejaVu Sans"
     d="M 31.727738,40.876572 L 31.727738,38.698112 L 35.166464,38.698112 L 35.166464,16.175354 L 31.727738,16.175354 L 31.727738,13.996894 L 55.690799,13.996894 L 55.690799,20.334233 L 53.224278,20.334233 L 53.224278,16.463415 L 42.133936,16.463415 L 42.133936,25.087237 L 48.957377,25.087237 L 48.957377,21.666514 L 51.423898,21.666514 L 51.423898,30.956476 L 48.957377,30.956476 L 48.957377,27.535754 L 42.133936,27.535754 L 42.133936,38.698112 L 46.364829,38.698112 L 46.364829,40.876572 L 31.727738,40.876572 M 74.054678,17.651666 L 72.038252,17.651666 C 71.942216,16.715493 71.666158,16.019346 71.210077,15.563225 C 70.765969,15.107154 70.129835,14.879106 69.301674,14.87908 C 68.341459,14.879106 67.645313,15.22718 67.213233,15.923301 C 66.781131,16.60747 66.565086,17.723704 66.565096,19.272008 L 66.565096,21.738529 L 71.372112,21.738529 L 71.372112,23.916989 L 66.565096,23.916989 L 66.565096,38.698112 L 70.255876,38.698112 L 70.255876,40.876572 L 57.473176,40.876572 L 57.473176,38.698112 L 60.19175,38.698112 L 60.19175,23.916989 L 57.347149,23.916989 L 57.347149,21.738529 L 60.19175,21.738529 L 60.19175,19.344024 C 60.191746,17.219599 60.869889,15.61126 62.22618,14.519004 C 63.582459,13.414799 65.574878,12.862683 68.203442,12.862655 C 69.223645,12.862683 70.219854,12.922695 71.192074,13.042693 C 72.164263,13.150743 73.118464,13.318778 74.054678,13.546799 L 74.054678,17.651666"
     id="text2377"
     transform="matrix(0.9675177,0.2528033,-0.2528033,0.9675177,0,0)" />
  <path
     style="font-size:36.87178802px;font-style:normal;font-weight:bold;fill:#3d4e67;fill-opacity:1;stroke:none;stroke-width:1px;stroke-linecap:butt;stroke-linejoin:miter;stroke-opacity:1;font-family:DejaVu Sans"
     d="M 30.480631,39.602539 L 30.480631,37.424079 L 33.919357,37.424079 L 33.919357,14.901322 L 30.480631,14.901322 L 30.480631,12.722862 L 54.443692,12.722862 L 54.443692,19.0602 L 51.977171,19.0602 L 51.977171,15.189383 L 40.886829,15.189383 L 40.886829,23.813204 L 47.71027,23.813204 L 47.71027,20.392482 L 50.176791,20.392482 L 50.176791,29.682444 L 47.71027,29.682444 L 47.71027,26.261721 L 40.886829,26.261721 L 40.886829,37.424079 L 45.117723,37.424079 L 45.117723,39.602539 L 30.480631,39.602539 M 72.807572,16.377634 L 70.791146,16.377634 C 70.69511,15.44146 70.419052,14.745314 69.962971,14.289192 C 69.518862,13.833122 68.882729,13.605074 68.054568,13.605048 C 67.094353,13.605074 66.398206,13.953147 65.966127,14.649268 C 65.534025,15.333437 65.317979,16.449672 65.31799,17.997976 L 65.31799,20.464497 L 70.125005,20.464497 L 70.125005,22.642957 L 65.31799,22.642957 L 65.31799,37.424079 L 69.008769,37.424079 L 69.008769,39.602539 L 56.226069,39.602539 L 56.226069,37.424079 L 58.944644,37.424079 L 58.944644,22.642957 L 56.100043,22.642957 L 56.100043,20.464497 L 58.944644,20.464497 L 58.944644,18.069991 C 58.94464,15.945566 59.622782,14.337228 60.979073,13.244972 C 62.335352,12.140766 64.327771,11.58865 66.956336,11.588622 C 67.976538,11.58865 68.972748,11.648663 69.944967,11.76866 C 70.917156,11.876711 71.871357,12.044746 72.807572,12.272766 L 72.807572,16.377634"
     id="text2178"
     transform="matrix(0.9675177,0.2528033,-0.2528033,0.9675177,0,0)" />
</svg>
