<?xml version="1.0" encoding="UTF-8" standalone="no"?>
<!DOCTYPE svg PUBLIC "-//W3C//DTD SVG 20010904//EN"
"http://www.w3.org/TR/2001/REC-SVG-20010904/DTD/svg10.dtd">
<!-- Created with Sodipodi ("http://www.sodipodi.com/") -->
<svg
   id="svg604"
   sodipodi:version="0.32"
   width="72pt"
   height="72pt"
   sodipodi:docbase="/home/zeus/.icons/gartoon/scalable/mimetypes"
   sodipodi:docname="gnome-mime-application-x-qw.svg"
   xmlns="http://www.w3.org/2000/svg"
   xmlns:sodipodi="http://sodipodi.sourceforge.net/DTD/sodipodi-0.dtd"
   xmlns:xlink="http://www.w3.org/1999/xlink"
   xmlns:inkscape="http://www.inkscape.org/namespaces/inkscape"
   inkscape:version="0.40"
   xmlns:rdf="http://www.w3.org/1999/02/22-rdf-syntax-ns#"
   xmlns:cc="http://web.resource.org/cc/"
   xmlns:dc="http://purl.org/dc/elements/1.1/">
  <metadata
     id="metadata14">
    <rdf:RDF
       id="RDF15">
      <cc:Work
         rdf:about=""
         id="Work16">
        <dc:format
           id="format17">image/svg+xml</dc:format>
        <dc:type
           id="type19"
           rdf:resource="http://purl.org/dc/dcmitype/StillImage" />
      </cc:Work>
    </rdf:RDF>
  </metadata>
  <defs
     id="defs606">
    <linearGradient
       id="linearGradient612">
      <stop
         style="stop-color:#7fa8e3;stop-opacity:0.741176;"
         offset="0.000000"
         id="stop613" />
      <stop
         style="stop-color:#ffffff;stop-opacity:0;"
         offset="1.000000"
         id="stop614" />
    </linearGradient>
    <linearGradient
       xlink:href="#linearGradient612"
       id="linearGradient615"
       x1="50.6438866"
       y1="5.36792946"
       x2="35.7520943"
       y2="68.0443573"
       gradientUnits="userSpaceOnUse"
       spreadMethod="pad" />
  </defs>
  <sodipodi:namedview
     id="base"
     inkscape:zoom="5.0416667"
     inkscape:cx="36.000000"
     inkscape:cy="36.000000"
     inkscape:window-width="640"
     inkscape:window-height="537"
     inkscape:window-x="506"
     inkscape:window-y="374"
     inkscape:current-layer="svg604" />
  <path
     style="fill:#000000;fill-rule:evenodd;stroke:none;stroke-opacity:1;stroke-width:1pt;stroke-linejoin:miter;stroke-linecap:butt;fill-opacity:0.301471;"
     d="M 12.8163 74.753 C 10.3856 73.6481 7.07107 70.1126 8.83884 65.2512 C 9.72267 59.948 25.6326 13.1021 29.1682 10.8924 C 31.3778 8.90368 34.582 8.13026 39.1119 9.34561 C 42.8684 10.2295 76.6769 19.0684 78.6656 20.8361 C 80.6544 22.6039 82.2012 24.0402 80.6544 27.9072 C 79.5496 29.8959 66.4017 74.532 66.1808 77.4047 C 65.2969 80.4983 62.7558 84.2548 58.5573 84.0338 C 54.3589 83.8128 15.9099 75.4159 12.8163 74.753 z "
     id="path794"
     sodipodi:nodetypes="ccccccccc"
     transform="matrix(1.114903,0.000000,0.000000,1.114903,-5.305332,-3.889256)" />
  <path
     style="fill:#3d4e67;fill-rule:evenodd;stroke:none;stroke-opacity:1;stroke-width:1pt;stroke-linejoin:miter;stroke-linecap:butt;fill-opacity:1;"
     d="M 12.8163 74.753 C 10.3856 73.6481 7.07107 70.1126 8.83884 65.2512 C 9.72267 59.948 25.6326 13.1021 29.1682 10.8924 C 31.3778 8.90368 34.582 8.13026 39.1119 9.34561 C 42.8684 10.2295 76.6769 19.0684 78.6656 20.8361 C 80.6544 22.6039 82.2012 24.0402 80.6544 27.9072 C 79.5496 29.8959 66.4017 74.532 66.1808 77.4047 C 65.2969 80.4983 62.7558 84.2548 58.5573 84.0338 C 54.3589 83.8128 15.9099 75.4159 12.8163 74.753 z "
     id="path609"
     sodipodi:nodetypes="ccccccccc"
     transform="matrix(1.114903,0.000000,0.000000,1.114903,-8.162471,-8.460684)" />
  <path
     style="fill:#ffffff;fill-rule:evenodd;stroke:none;stroke-opacity:1;stroke-width:1pt;stroke-linejoin:miter;stroke-linecap:butt;fill-opacity:1;"
     d="M 17.8987 70.9965 C 15.3576 70.3336 11.7114 69.6706 13.0373 65.6932 C 15.468 55.9705 27.8424 18.6264 33.1456 13.986 C 34.361 12.8811 38.4489 12.4392 46.1829 14.8699 C 55.0218 17.5215 72.9204 23.4877 74.6882 24.3716 C 76.4559 25.2555 77.1189 25.2555 75.793 29.233 C 73.8043 33.2105 64.9655 67.24 62.7557 72.9852 C 61.209 77.0732 60.8775 78.9514 58.2258 78.9514 "
     id="path608"
     sodipodi:nodetypes="cccccccs"
     transform="matrix(1.114903,0.000000,0.000000,1.114903,-8.162471,-8.460684)" />
  <path
     style="fill:url(#linearGradient615);fill-rule:evenodd;stroke:none;stroke-opacity:1;stroke-width:1pt;stroke-linejoin:miter;stroke-linecap:butt;fill-opacity:1;"
     d="M 28.75 13.75 C 28.75 13.75 31.875 7.49995 39.6875 9.37495 C 47.5 11.25 78.125 19.375 77.8125 21.875 C 77.5 24.375 71.875 39.0625 71.5625 40.3125 C 71.25 41.5625 42.5 40.9375 31.5625 47.5 C 20.625 54.0625 12.5 59.6875 12.5 59.6875 C 12.5 59.6875 23.75 24.6875 28.75 13.75 z "
     id="path636"
     transform="matrix(0.946780,0.000000,0.000000,0.946780,-0.480566,0.409517)" />
  <path
     style="font-size:28;font-weight:normal;fill:#2aaf18;stroke-width:1.5;font-family:Kid Kosmic;fill-opacity:1;stroke:#0d3c07;stroke-opacity:1;stroke-dasharray:none;stroke-linejoin:bevel;stroke-linecap:square;"
     d="M 30.33749 42.92446 L 30.47184 41.52676 C 30.51469 41.06976 30.56839 40.60579 30.63291 40.13483 C 26.84261 39.46452 23.71444 37.71576 21.2484 34.88858 C 20.99703 34.49852 20.91564 34.09859 21.00425 33.68879 C 21.06203 33.42153 21.19687 33.14295 21.40875 32.85305 C 21.81084 32.28723 22.26134 32.05825 22.76022 32.16612 C 22.90277 32.19694 23.04844 32.25641 23.19724 32.34453 C 24.09293 33.37746 25.11863 34.32659 26.27436 35.19194 C 27.11853 35.85937 28.23549 36.34333 29.62525 36.64381 C 30.07069 36.74012 30.54863 36.81549 31.05907 36.8699 C 31.3793 34.43998 31.80018 31.97587 32.32169 29.47758 C 30.09258 28.65991 28.90868 28.22676 28.76999 28.17812 C 27.39853 27.62048 26.30468 27.02963 25.48844 26.40554 C 23.79867 25.16362 23.16182 23.58052 23.57787 21.65623 C 23.64722 21.33551 23.74713 21.00276 23.87764 20.65796 C 24.63415 19.143 26.33932 18.24345 28.99316 17.95933 C 30.90203 17.75659 32.95803 17.86541 35.16113 18.2858 C 35.37253 17.56684 35.56202 16.99235 35.7296 16.56233 C 36.10617 16.02828 36.60338 15.66953 37.22121 15.48605 C 37.84289 15.28476 38.47758 15.28211 39.12526 15.4781 C 39.59478 15.63557 39.97183 15.87562 40.25644 16.19826 C 40.60075 16.58976 40.72474 17.00823 40.62843 17.45366 C 40.60532 17.56057 40.57137 17.67446 40.52659 17.79533 C 40.17795 18.37271 39.86687 18.94889 39.59334 19.52386 C 42.30834 20.59579 44.28633 21.928 45.52729 23.5205 C 45.54848 23.76753 45.53596 23.99795 45.48973 24.21176 C 45.3626 24.79973 44.98868 25.2784 44.36796 25.64776 C 43.94227 25.89142 43.57797 25.98052 43.27507 25.91502 C 42.91872 25.83798 42.62955 25.57962 42.40755 25.13997 C 40.94219 24.41282 39.46261 23.79452 37.96884 23.28504 C 37.47381 24.53949 37.05004 25.80933 36.69756 27.0946 C 37.99004 27.67246 38.93967 28.11092 39.54642 28.40996 C 40.77005 29.04753 41.6354 29.61696 42.14247 30.11825 C 43.24476 31.66211 43.73835 32.91584 43.62326 33.87942 C 43.50432 34.86083 43.12486 35.92578 42.48488 37.07428 C 40.58276 39.14352 37.93373 40.26796 34.53782 40.44759 C 34.50508 40.94406 34.48053 41.48894 34.46415 42.08222 C 34.25179 43.32318 33.70547 44.08162 32.8252 44.35756 C 32.56275 44.45001 32.29789 44.46735 32.03063 44.40956 C 31.44266 44.28244 30.87827 43.78741 30.33749 42.92446 z M 33.17691 25.52211 C 33.45429 24.23925 33.73767 23.1442 34.02709 22.23695 C 31.19267 21.71737 29.65122 21.85967 29.40274 22.66386 C 29.34784 22.74524 29.31268 22.82157 29.29727 22.89284 C 29.17785 23.44518 30.47107 24.3216 33.17691 25.52211 z M 35.74698 30.97351 C 35.33092 32.8978 35.01599 34.87193 34.80219 36.89589 C 34.87346 36.9113 34.99505 36.90962 35.16696 36.89083 C 36.84324 36.46995 37.97345 35.98695 38.55757 35.44183 C 38.69529 35.32241 38.78535 35.1647 38.82772 34.96871 C 38.95485 34.38073 38.59103 33.51875 37.73628 32.38277 C 37.24317 31.90315 36.58006 31.43339 35.74698 30.97351 z M 54.97904 48.25229 L 55.11339 46.85458 C 55.15624 46.39759 55.20994 45.93362 55.27446 45.46266 C 51.48415 44.79234 48.35599 43.04359 45.88995 40.21641 C 45.63857 39.82635 45.55719 39.42642 45.6458 39.01661 C 45.70358 38.74936 45.83842 38.47077 46.0503 38.18088 C 46.45239 37.61506 46.90289 37.38608 47.40177 37.49394 C 47.54432 37.52476 47.68998 37.58423 47.83879 37.67236 C 48.73448 38.70528 49.76018 39.65442 50.91591 40.51977 C 51.76008 41.1872 52.87704 41.67116 54.2668 41.97164 C 54.71224 42.06795 55.19017 42.14332 55.70062 42.19773 C 56.02085 39.76781 56.44173 37.3037 56.96324 34.80541 C 54.73412 33.98774 53.55023 33.55459 53.41154 33.50595 C 52.04008 32.94831 50.94623 32.35745 50.12999 31.73336 C 48.44022 30.49145 47.80337 28.90834 48.21942 26.98406 C 48.28877 26.66334 48.38868 26.33059 48.51919 25.98579 C 49.2757 24.47083 50.98087 23.57128 53.63471 23.28716 C 55.54358 23.08442 57.59957 23.19324 59.80268 23.61363 C 60.01408 22.89467 60.20357 22.32018 60.37115 21.89015 C 60.74772 21.35611 61.24492 20.99735 61.86276 20.81388 C 62.48444 20.61259 63.11912 20.60994 63.76681 20.80593 C 64.23633 20.96339 64.61338 21.20345 64.89798 21.52609 C 65.2423 21.91759 65.36629 22.33606 65.26998 22.78149 C 65.24687 22.8884 65.21292 23.00229 65.16814 23.12316 C 64.8195 23.70054 64.50842 24.27672 64.23489 24.85169 C 66.94989 25.92362 68.92787 27.25583 70.16883 28.84832 C 70.19003 29.09536 70.17751 29.32578 70.13128 29.53959 C 70.00415 30.12756 69.63023 30.60623 69.00951 30.97559 C 68.58382 31.21925 68.21952 31.30834 67.91662 31.24285 C 67.56027 31.16581 67.2711 30.90745 67.0491 30.46779 C 65.58373 29.74065 64.10416 29.12234 62.61038 28.61287 C 62.11535 29.86731 61.69159 31.13716 61.3391 32.42243 C 62.63159 33.00029 63.58121 33.43874 64.18796 33.73778 C 65.41159 34.37535 66.27695 34.94479 66.78402 35.44608 C 67.88631 36.98994 68.37989 38.24366 68.26481 39.20724 C 68.14586 40.18865 67.76641 41.2536 67.12643 42.40211 C 65.2243 44.47134 62.57528 45.59578 59.17937 45.77541 C 59.14663 46.27189 59.12207 46.81676 59.1057 47.41004 C 58.89334 48.651 58.34702 49.40945 57.46674 49.68538 C 57.2043 49.77784 56.93944 49.79518 56.67218 49.73739 C 56.08421 49.61026 55.51983 49.11523 54.97904 48.25229 z M 57.81846 30.84994 C 58.09584 29.56708 58.37922 28.47202 58.66863 27.56477 C 55.83422 27.04519 54.29276 27.18749 54.04429 27.99168 C 53.98939 28.07307 53.95423 28.1494 53.93882 28.22067 C 53.8194 28.77301 55.11262 29.64942 57.81846 30.84994 z M 60.38853 36.30134 C 59.97247 38.22562 59.65753 40.19976 59.44373 42.22371 C 59.51501 42.23913 59.6366 42.23744 59.80851 42.21866 C 61.48479 41.79778 62.615 41.31478 63.19911 40.76966 C 63.33684 40.65024 63.4269 40.49253 63.46927 40.29654 C 63.5964 39.70856 63.23258 38.84658 62.37783 37.7106 C 61.88471 37.23097 61.22161 36.76122 60.38853 36.30134 z "
     id="path626" />
</svg>
