<?xml version="1.0" encoding="UTF-8" standalone="no"?>
<!DOCTYPE svg PUBLIC "-//W3C//DTD SVG 20010904//EN"
"http://www.w3.org/TR/2001/REC-SVG-20010904/DTD/svg10.dtd">
<!-- Created with Sodipodi ("http://www.sodipodi.com/") -->
<svg
   id="svg596"
   sodipodi:version="0.32"
   width="72pt"
   height="72pt"
   sodipodi:docbase="/home/zeus/.icons/gartoon/scalable/mimetypes"
   sodipodi:docname="gnome-mime-image-x-applix-graphic.svg"
   xmlns="http://www.w3.org/2000/svg"
   xmlns:sodipodi="http://sodipodi.sourceforge.net/DTD/sodipodi-0.dtd"
   xmlns:xlink="http://www.w3.org/1999/xlink"
   xmlns:inkscape="http://www.inkscape.org/namespaces/inkscape"
   inkscape:version="0.40"
   xmlns:rdf="http://www.w3.org/1999/02/22-rdf-syntax-ns#"
   xmlns:cc="http://web.resource.org/cc/"
   xmlns:dc="http://purl.org/dc/elements/1.1/">
  <metadata
     id="metadata46">
    <rdf:RDF
       id="RDF47">
      <cc:Work
         rdf:about=""
         id="Work48">
        <dc:format
           id="format49">image/svg+xml</dc:format>
        <dc:type
           id="type51"
           rdf:resource="http://purl.org/dc/dcmitype/StillImage" />
      </cc:Work>
    </rdf:RDF>
  </metadata>
  <defs
     id="defs598">
    <linearGradient
       id="linearGradient612">
      <stop
         style="stop-color:#7fa8e3;stop-opacity:0.741176;"
         offset="0.000000"
         id="stop613" />
      <stop
         style="stop-color:#ffffff;stop-opacity:0;"
         offset="1.000000"
         id="stop614" />
    </linearGradient>
    <linearGradient
       id="linearGradient626">
      <stop
         style="stop-color:#ff0047;stop-opacity:1;"
         offset="0.000000"
         id="stop627" />
      <stop
         style="stop-color:#ab322d;stop-opacity:0;"
         offset="1.000000"
         id="stop628" />
    </linearGradient>
    <linearGradient
       id="linearGradient618">
      <stop
         style="stop-color:#956d47;stop-opacity:1;"
         offset="0.000000"
         id="stop619" />
      <stop
         style="stop-color:#ab322d;stop-opacity:0;"
         offset="1.000000"
         id="stop620" />
    </linearGradient>
    <linearGradient
       id="linearGradient614">
      <stop
         style="stop-color:#000;stop-opacity:1;"
         offset="0"
         id="stop615" />
      <stop
         style="stop-color:#fff;stop-opacity:1;"
         offset="1"
         id="stop616" />
    </linearGradient>
    <linearGradient
       xlink:href="#linearGradient618"
       id="linearGradient617"
       y2="21.446371"
       x2="54.455856"
       y1="22.932673"
       x1="14.043809"
       spreadMethod="pad"
       gradientUnits="userSpaceOnUse"
       gradientTransform="matrix(0.417027,0.000000,0.000000,1.060735,23.53520,15.50479)" />
    <linearGradient
       xlink:href="#linearGradient626"
       id="linearGradient625"
       x1="42.9995728"
       y1="77.3980103"
       x2="28.5382881"
       y2="63.0152588"
       gradientUnits="userSpaceOnUse"
       spreadMethod="pad"
       gradientTransform="matrix(0.621202,0.000000,0.000000,0.712096,23.53520,15.50479)" />
    <linearGradient
       xlink:href="#linearGradient612"
       id="linearGradient636"
       x1="16.4110699"
       y1="10.6072874"
       x2="24.6243172"
       y2="61.6665344"
       gradientUnits="userSpaceOnUse"
       spreadMethod="pad" />
  </defs>
  <sodipodi:namedview
     id="base"
     inkscape:zoom="5.0416667"
     inkscape:cx="36.000000"
     inkscape:cy="36.000000"
     inkscape:window-width="640"
     inkscape:window-height="536"
     inkscape:window-x="5"
     inkscape:window-y="48"
     inkscape:current-layer="svg596" />
  <g
     id="g898"
     transform="translate(-1.146498,1.146498)">
    <path
       style="fill:#000000;fill-rule:evenodd;stroke:none;stroke-opacity:1;stroke-width:1pt;stroke-linejoin:miter;stroke-linecap:butt;fill-opacity:0.301471;"
       d="M 12.8163 74.753 C 10.3856 73.6481 7.07107 70.1126 8.83884 65.2512 C 9.72267 59.948 25.6326 13.1021 29.1682 10.8924 C 31.3778 8.90368 34.582 8.13026 39.1119 9.34561 C 42.8684 10.2295 76.6769 19.0684 78.6656 20.8361 C 80.6544 22.6039 82.2012 24.0402 80.6544 27.9072 C 79.5496 29.8959 66.4017 74.532 66.1808 77.4047 C 65.2969 80.4983 62.7558 84.2548 58.5573 84.0338 C 54.3589 83.8128 15.9099 75.4159 12.8163 74.753 z "
       id="path794"
       sodipodi:nodetypes="ccccccccc"
       transform="matrix(1.114903,0.000000,0.000000,1.114903,1.287023,-5.035753)" />
    <path
       style="fill:#3d4e67;fill-rule:evenodd;stroke:none;stroke-opacity:1;stroke-width:1pt;stroke-linejoin:miter;stroke-linecap:butt;fill-opacity:1;"
       d="M 12.8163 74.753 C 10.3856 73.6481 7.07107 70.1126 8.83884 65.2512 C 9.72267 59.948 25.6326 13.1021 29.1682 10.8924 C 31.3778 8.90368 34.582 8.13026 39.1119 9.34561 C 42.8684 10.2295 76.6769 19.0684 78.6656 20.8361 C 80.6544 22.6039 82.2012 24.0402 80.6544 27.9072 C 79.5496 29.8959 66.4017 74.532 66.1808 77.4047 C 65.2969 80.4983 62.7558 84.2548 58.5573 84.0338 C 54.3589 83.8128 15.9099 75.4159 12.8163 74.753 z "
       id="path895"
       sodipodi:nodetypes="ccccccccc"
       transform="matrix(1.114903,0.000000,0.000000,1.114903,-1.570116,-9.607182)" />
    <path
       style="fill:#ffffff;fill-rule:evenodd;stroke:none;stroke-opacity:1;stroke-width:1pt;stroke-linejoin:miter;stroke-linecap:butt;fill-opacity:1;"
       d="M 17.8987 70.9965 C 15.3576 70.3336 11.7114 69.6706 13.0373 65.6932 C 15.468 55.9705 27.8424 18.6264 33.1456 13.986 C 34.361 12.8811 38.4489 12.4392 46.1829 14.8699 C 55.0218 17.5215 72.9204 23.4877 74.6882 24.3716 C 76.4559 25.2555 77.1189 25.2555 75.793 29.233 C 73.8043 33.2105 64.9655 67.24 62.7557 72.9852 C 61.209 77.0732 60.8775 78.9514 58.2258 78.9514 "
       id="path896"
       sodipodi:nodetypes="cccccccs"
       transform="matrix(1.114903,0.000000,0.000000,1.114903,-1.570116,-9.607182)" />
    <path
       style="fill:url(#linearGradient636);fill-rule:evenodd;stroke:none;stroke-opacity:1;stroke-width:1pt;stroke-linejoin:miter;stroke-linecap:butt;fill-opacity:1;"
       d="M 28.75 13.75 C 28.75 13.75 31.875 7.49995 39.6875 9.37495 C 47.5 11.25 78.125 19.375 77.8125 21.875 C 77.5 24.375 71.875 39.0625 71.5625 40.3125 C 71.25 41.5625 42.5 40.9375 31.5625 47.5 C 20.625 54.0625 12.5 59.6875 12.5 59.6875 C 12.5 59.6875 23.75 24.6875 28.75 13.75 z "
       id="path636"
       transform="matrix(0.946780,0.000000,0.000000,0.946780,6.111789,-0.736980)" />
  </g>
  <path
     style="font-size:12.000000;fill:#470000;fill-rule:evenodd;stroke-width:1.0000000pt"
     d="M 68.702670,59.724890 C 68.702670,60.853296 67.731760,61.769003 66.535448,61.769003 C 65.339070,61.769003 64.368160,60.853296 64.368160,59.724890 C 64.368160,58.596552 65.339070,57.680778 66.535448,57.680778 C 67.731760,57.680778 68.702670,58.596552 68.702670,59.724890 z "
     id="path613" />
  <path
     style="font-size:12.000000;fill:#470000;fill-rule:evenodd;stroke-width:1.0000000pt"
     d="M 64.269659,64.921434 C 63.235232,63.739222 61.560581,64.379579 61.018726,65.216937 C 60.427653,67.285658 61.363579,69.157377 63.826371,68.270801 C 66.289162,67.384159 67.175738,66.005012 67.175738,66.103513 C 67.175738,66.202080 65.205518,71.423166 62.250155,71.817170 C 59.294792,72.211241 57.669359,72.309742 54.418493,72.359025 C 51.069126,72.950098 49.443693,72.900814 49.443693,72.900814 L 53.581135,66.990155 C 53.581135,66.990155 54.664779,66.399082 56.437997,63.443719 C 58.211214,60.488423 61.363513,59.798783 62.939729,60.783926 C 64.368160,61.374932 65.156234,62.163073 65.550305,63.690005 C 65.451804,65.364655 65.156234,66.005012 64.269659,64.921434 z "
     id="path610"
     sodipodi:nodetypes="cccccccccccc" />
  <path
     style="font-size:12.000000;fill:#230000;fill-opacity:0.99899000;fill-rule:evenodd;stroke-width:1.0000000pt"
     d="M 48.951139,66.349799 C 50.428788,66.743869 48.704854,68.861807 47.768994,67.384159 C 47.030137,68.418519 47.374924,65.906511 47.374924,65.906511 L 44.222559,72.506744 C 44.222559,72.506744 49.640713,74.477030 51.709434,71.620168 C 53.778155,68.763373 54.024507,67.285658 52.891646,66.103513 C 51.561649,64.281144 50.379504,65.019935 49.886999,65.315438 C 49.394427,65.611008 49.197425,65.808010 48.951139,66.349799 z "
     id="path609"
     sodipodi:nodetypes="cccccccc" />
  <path
     style="font-size:12.000000;fill:#230000;fill-rule:evenodd;stroke-width:1.0000000pt"
     d="M 47.571974,56.744985 C 47.571974,56.744985 48.162980,53.198550 47.965978,51.326831 C 47.670475,47.287824 39.198457,13.301442 32.893793,19.212128 C 25.603934,22.068964 34.272941,54.676198 35.356585,56.547917 C 36.440163,58.419636 38.016378,59.798783 38.016378,59.798783 C 38.016378,59.798783 35.553520,71.029162 44.764396,72.605245 C 48.113830,66.399082 50.477455,63.924319 49.936265,61.128713 C 49.640695,59.552563 49.246691,58.074849 47.571974,56.744985 z "
     id="path608"
     sodipodi:nodetypes="cccccccc" />
  <path
     style="font-size:12.000000;fill:#f2962c;fill-rule:evenodd;stroke-width:1.0000000pt"
     d="M 36.440163,54.282194 C 38.213380,52.114972 40.183600,50.538756 45.207684,51.031328 C 43.631535,42.263740 38.016378,18.621056 33.977371,20.788311 C 29.445905,21.576405 33.681868,47.977464 36.440163,54.282194 z "
     id="path600"
     sodipodi:nodetypes="cccc" />
  <path
     style="font-size:12.000000;fill:#8b8b8b;fill-rule:evenodd;stroke-width:1.0000000pt"
     d="M 36.735732,55.168770 C 36.735732,55.168770 37.622308,58.025565 39.986598,58.222634 C 41.070242,56.547917 43.533034,56.252414 45.601754,56.350915 C 46.094326,54.479196 46.488330,52.213407 45.700255,52.114906 C 44.715179,51.523833 39.198523,50.440255 36.735732,55.168770 z "
     id="path601"
     sodipodi:nodetypes="ccccc" />
  <path
     style="font-size:12.000000;fill:#65532d;fill-rule:evenodd;stroke-width:1.0000000pt"
     d="M 40.085099,59.700282 C 40.577671,57.533060 44.321108,56.055412 45.995758,57.828563 C 50.034766,60.094352 48.261548,65.709509 46.488330,65.808010 C 45.995758,72.802313 50.724339,68.960308 50.625838,67.482726 C 54.172207,66.990155 51.315412,72.014239 48.951121,71.718669 C 45.700255,72.211241 37.031235,69.255944 40.085099,59.700282 z "
     id="path602"
     sodipodi:nodetypes="cccccc" />
  <path
     style="font-size:12.000000;fill:#bc0000;fill-rule:evenodd;stroke-width:1.0000000pt"
     d="M 53.187131,69.551447 C 53.285632,69.649948 54.566278,69.551447 55.255851,68.369302 C 55.945425,67.187157 58.309715,62.360075 59.984432,62.261574 C 64.023373,60.783926 64.023373,63.542220 64.023373,63.542220 C 64.023373,63.542220 60.279935,62.163073 59.885865,64.527363 C 59.491861,66.891654 58.802287,68.270801 63.333733,70.142520 C 60.772507,71.029096 52.776898,71.200092 52.284260,71.200092 C 51.791689,71.200092 53.285632,69.452946 53.187131,69.551447 z "
     id="path603"
     sodipodi:nodetypes="cccccccc" />
  <path
     style="font-size:12.000000;fill:#470000;fill-rule:evenodd;stroke-width:1.0000000pt"
     d="M 54.566278,60.488423 C 55.748423,58.715205 59.836647,59.601781 61.708300,59.207777 C 63.974089,58.616704 62.789283,54.476469 60.227991,54.476536 C 58.462289,54.123568 54.763346,54.183626 54.566278,60.488423 z "
     id="path611"
     sodipodi:nodetypes="cccc" />
  <path
     style="font-size:12.000000;fill:#bc0000;fill-rule:evenodd;stroke-width:1.0000000pt"
     d="M 55.551421,58.616704 C 55.551421,58.616704 59.787364,58.222634 60.871008,58.222634 C 62.151654,58.496521 62.238250,56.553371 61.166511,55.858343 C 59.294859,54.577697 56.733500,54.479196 55.551421,58.616704 z "
     id="path604"
     sodipodi:nodetypes="cccc" />
  <path
     style="font-size:12.000000;fill:#bc0000;fill-rule:evenodd;stroke-width:1.0000000pt"
     d="M 67.963812,59.798783 C 67.963812,60.560120 67.323922,61.177996 66.535381,61.177996 C 65.746908,61.177996 65.107017,60.560120 65.107017,59.798783 C 65.107017,59.037512 65.746908,58.419636 66.535381,58.419636 C 67.323922,58.419636 67.963812,59.037512 67.963812,59.798783 z "
     id="path606" />
  <path
     style="font-size:12.000000;fill:url(#linearGradient617);fill-rule:evenodd;stroke-width:1.0000000pt"
     d="M 36.440163,54.282194 C 38.213380,52.114972 40.183600,50.538756 45.207684,51.031328 C 43.631535,42.263740 38.016378,18.621056 33.977371,20.788311 C 29.445905,21.576405 33.681868,47.977464 36.440163,54.282194 z "
     id="path621"
     sodipodi:nodetypes="cccc" />
  <path
     style="font-size:12.000000;fill:#f2d0a8;fill-rule:evenodd;stroke-width:1.0000000pt"
     d="M 42.449389,50.440189 C 40.253701,50.540486 33.246761,20.828343 35.947591,22.463041 C 36.583026,22.907193 46.397877,50.437063 42.449389,50.440189 z "
     id="path622"
     sodipodi:nodetypes="css" />
  <path
     style="font-size:12.000000;fill:#f2f2f2;fill-rule:evenodd;stroke-width:1.0000000pt"
     d="M 43.828537,51.720902 L 44.222607,56.252414 L 41.956818,56.744985 L 40.971741,51.819336 C 40.971741,51.819336 43.631535,51.523899 43.828537,51.720902 z "
     id="path623"
     sodipodi:nodetypes="ccccc" />
  <path
     style="font-size:12.000000;fill:url(#linearGradient625);fill-rule:nonzero;stroke-width:1.0000000pt"
     d="M 40.085099,59.700282 C 40.577671,57.533060 44.321108,56.055412 45.995758,57.828563 C 50.034766,60.094352 48.261548,65.709509 46.488330,65.808010 C 45.995758,72.802313 50.724339,68.960308 50.625838,67.482726 C 54.172207,66.990155 51.315412,72.014239 48.951121,71.718669 C 45.700255,72.211241 37.031235,69.255944 40.085099,59.700282 z "
     id="path624"
     sodipodi:nodetypes="cccccc" />
  <path
     style="font-size:12.000000;fill:none;fill-rule:evenodd;stroke:#3d4e67;stroke-width:1.3625000;stroke-linejoin:round;stroke-opacity:1.0000000"
     d="M 28.592160,61.850859 L 28.592160,67.010059 L 33.751360,67.010059 L 33.751360,61.850859 L 28.592160,61.850859 z "
     id="path1064" />
  <path
     style="font-size:12.000000;fill:none;fill-rule:evenodd;stroke:#3d4e67;stroke-width:1.3625000;stroke-linejoin:round;stroke-opacity:1.0000000"
     d="M 24.292796,40.640669 L 24.292796,45.799869 L 29.451996,45.799869 L 29.451996,40.640669 L 24.292796,40.640669 z "
     id="path1065" />
  <path
     style="font-size:12.000000;fill:none;fill-rule:evenodd;stroke:#3d4e67;stroke-width:1.0000000pt;stroke-opacity:1.0000000"
     d="M 29.165360,44.080159 L 35.184460,54.398559 L 30.885160,61.564159"
     id="path1066" />
  <path
     style="font-size:12.000000;fill:none;fill-rule:evenodd;stroke:#3d4e67;stroke-width:1.4066126;stroke-linejoin:round;stroke-opacity:1.0000000"
     d="M 56.484505,44.075775 L 58.539538,48.808025 L 53.495904,50.998281 L 51.440871,46.266031 L 56.484505,44.075775 z "
     id="path1072" />
  <path
     style="font-size:12.000000;fill:none;fill-rule:evenodd;stroke:#3d4e67;stroke-width:1.4066126;stroke-linejoin:round;stroke-opacity:1.0000000"
     d="M 50.519295,23.655485 L 52.574328,28.387735 L 47.530694,30.577991 L 45.475661,25.845741 L 50.519295,23.655485 z "
     id="path1073" />
  <path
     style="font-size:12.000000;fill:none;fill-rule:evenodd;stroke:#3d4e67;stroke-width:1.0323763pt;stroke-opacity:1.0000000"
     d="M 47.125908,28.878912 L 45.351702,40.898725 L 52.408929,45.646137"
     id="path1074" />
  <path
     style="font-size:13.000000;font-weight:bold;fill:#3a4a62;fill-opacity:0.94881302;stroke-width:1.0000000pt;font-family:Kid Kosmic"
     d="M 69.460646,22.129753 C 69.268911,22.416836 68.962925,22.592764 68.542634,22.657408 C 68.156793,22.727172 67.795665,22.692684 67.459251,22.553945 C 67.036676,22.379672 66.811819,22.026032 66.784497,21.492952 C 66.809574,21.054712 66.829167,20.618753 66.843144,20.185130 C 64.840190,19.359096 63.098459,19.231295 61.618177,19.801710 C 60.109214,20.397075 59.140684,21.169454 58.712455,22.118903 C 58.301730,23.048201 58.522019,23.912576 59.373209,24.712303 C 59.577092,24.906179 59.827669,25.064469 60.124978,25.187082 C 61.118690,25.596896 62.655026,25.667466 64.734172,25.398869 C 64.789946,25.330250 64.862451,25.232079 64.951895,25.104114 C 64.819912,24.802515 64.495737,24.545184 63.979329,24.332213 C 63.024814,23.938564 62.087342,23.780832 61.167004,23.859054 C 60.737168,23.636031 60.553243,23.271797 60.615229,22.766352 C 60.627243,22.670600 60.649396,22.583573 60.681651,22.505363 C 60.823631,22.161091 61.133361,21.931756 61.610803,21.817451 C 62.285361,21.491404 63.244761,21.584948 64.488819,22.098008 C 64.864338,22.252874 65.326474,22.475481 65.875040,22.765751 C 66.600360,23.138109 66.996576,23.342724 67.063779,23.379633 C 67.726744,24.147384 67.950101,24.793438 67.733928,25.317612 C 67.630645,25.568051 67.412736,25.885552 67.080163,26.270210 C 66.577103,26.868396 66.073769,27.201020 65.570110,27.267951 C 64.512489,27.545813 63.366429,27.649932 62.131744,27.580235 C 60.870375,27.508619 59.746783,27.269478 58.760929,26.862905 C 57.321346,26.269210 56.436453,25.373374 56.106604,24.175326 C 55.826825,23.144390 55.880584,22.159495 56.267789,21.220604 C 56.438822,20.805888 56.667784,20.405976 56.954810,20.020815 C 58.252614,18.294740 60.103292,17.336876 62.506881,17.147130 C 64.555186,16.975608 66.653207,17.360246 68.801163,18.301030 C 69.494732,18.706051 69.898399,19.170102 70.012293,19.693131 C 70.100510,20.123143 69.994984,20.734162 69.695769,21.526317 C 69.649079,21.772511 69.570741,21.973743 69.460646,22.129753 z M 49.766887,11.577205 C 50.358576,11.363445 51.442145,11.444161 53.017727,11.819299 C 54.334694,12.133537 55.453852,12.494380 56.375200,12.901827 C 57.124505,13.238320 57.594272,13.619731 57.784685,14.046134 C 57.530144,14.774287 57.254497,15.498279 56.957650,16.218070 C 56.008966,18.518427 54.841135,20.806180 53.454210,23.081459 C 53.084685,23.688960 52.572342,23.976548 51.917290,23.944482 C 51.677035,23.927717 51.482515,23.888708 51.333861,23.827402 C 51.020928,23.698346 50.878078,23.456409 50.905481,23.101445 C 51.688992,22.133776 52.332431,21.195200 52.835668,20.285772 L 45.918763,18.710356 C 45.693548,18.901314 45.264264,19.287300 44.630909,19.868313 C 44.217661,20.448589 43.677778,20.669976 43.011258,20.532475 C 42.841859,20.499174 42.721946,20.468111 42.651501,20.439058 C 42.275981,20.284191 42.149529,20.058103 42.272178,19.760702 C 42.307674,19.674634 42.364277,19.592727 42.442117,19.514929 C 45.280773,16.849678 47.722350,14.203800 49.766887,11.577205 z M 54.486624,15.350115 C 54.482276,15.027813 54.170987,14.739235 53.552886,14.484326 C 53.146028,14.316535 52.614590,14.184334 51.958665,14.087764 C 51.214754,13.982383 50.688116,13.994081 50.378659,14.122822 C 49.700083,14.969025 48.928772,15.818196 48.064632,16.670296 L 53.966086,17.744616 C 54.202210,16.972198 54.375711,16.174062 54.486624,15.350115 z M 42.559651,17.997960 C 42.398303,18.389196 42.068562,18.656035 41.570338,18.798438 C 41.080065,18.944121 40.623547,18.929788 40.201065,18.755553 C 40.044553,18.691006 39.909557,18.607858 39.795894,18.506032 C 39.469206,18.188171 39.388118,17.829786 39.552669,17.430786 C 39.665636,17.156865 39.873132,16.931233 40.175235,16.753702 C 40.747691,16.431305 41.315538,16.386302 41.878818,16.618602 C 42.043188,16.686390 42.188415,16.778301 42.314499,16.894336 C 42.652194,17.207541 42.733886,17.575478 42.559651,17.997960 z "
     id="path1230" />
</svg>
