<?xml version="1.0" encoding="UTF-8" standalone="no"?>
<!-- Created with Sodipodi ("http://www.sodipodi.com/") -->
<svg
xmlns:dc="http://purl.org/dc/elements/1.1/"
xmlns:cc="http://creativecommons.org/ns#"
xmlns:rdf="http://www.w3.org/1999/02/22-rdf-syntax-ns#"
xmlns:svg="http://www.w3.org/2000/svg"
xmlns="http://www.w3.org/2000/svg"
xmlns:xlink="http://www.w3.org/1999/xlink"
xmlns:sodipodi="http://sodipodi.sourceforge.net/DTD/sodipodi-0.dtd"
xmlns:inkscape="http://www.inkscape.org/namespaces/inkscape"
id="svg604"
sodipodi:version="0.32"
width="72pt"
height="72pt"
sodipodi:docbase="/home/tweenk/GNUtoon/mimetypes"
sodipodi:docname="text-x-c-sharp.svg"
inkscape:version="0.46"
inkscape:output_extension="org.inkscape.output.svg.inkscape">
<metadata
id="metadata94">
<rdf:RDF>
<cc:Work
rdf:about="">
<dc:format>image/svg+xml</dc:format>
<dc:type
rdf:resource="http://purl.org/dc/dcmitype/StillImage" />
</cc:Work>
</rdf:RDF>
</metadata>
<defs
id="defs606">
<inkscape:perspective
sodipodi:type="inkscape:persp3d"
inkscape:vp_x="0 : 45 : 1"
inkscape:vp_y="0 : 1000 : 0"
inkscape:vp_z="90 : 45 : 1"
inkscape:persp3d-origin="45 : 30 : 1"
id="perspective51" />
<linearGradient
id="linearGradient612">
<stop
style="stop-color:#7fa8e3;stop-opacity:0.741176;"
offset="0.000000"
id="stop613" />
<stop
style="stop-color:#ffffff;stop-opacity:0;"
offset="1.000000"
id="stop614" />
</linearGradient>
<linearGradient
xlink:href="#linearGradient612"
id="linearGradient615"
x1="50.6438866"
y1="5.36792946"
x2="35.7520943"
y2="68.0443573"
gradientUnits="userSpaceOnUse"
spreadMethod="pad" />
<defs
id="defs550">
<linearGradient
id="linearGradient1828">
<stop
style="stop-color:#ffc93f;stop-opacity:1.0000000;"
offset="0.0000000"
id="stop1829" />
<stop
style="stop-color:#f1e36c;stop-opacity:1.0000000;"
offset="1.0000000"
id="stop1830" />
</linearGradient>
<linearGradient
id="linearGradient1825">
<stop
offset="0.0000000"
style="stop-color:#ffd800;stop-opacity:1.0000000;"
id="stop1827" />
<stop
offset="1.0000000"
style="stop-color:#ffd58f;stop-opacity:0.0000000;"
id="stop1826" />
</linearGradient>
<linearGradient
x1="0.0000000"
y1="0.0000000"
x2="1.0000000"
y2="0.0000000"
id="linearGradient632"
gradientUnits="objectBoundingBox"
spreadMethod="pad">
<stop
style="stop-color:#ffb700;stop-opacity:1;"
offset="0.00000000"
id="stop633" />
<stop
style="stop-color:#ffd58f;stop-opacity:0;"
offset="1.00000000"
id="stop634" />
</linearGradient>
<linearGradient
x1="0.0000000"
y1="0.0000000"
x2="1.0000000"
y2="0.0000000"
id="linearGradient556"
gradientUnits="objectBoundingBox"
spreadMethod="pad">
<stop
style="stop-color:#000000;stop-opacity:1;"
offset="0.00000000"
id="stop557" />
<stop
style="stop-color:#bdf2ff;stop-opacity:0.384314;"
offset="1.00000000"
id="stop558" />
</linearGradient>
<linearGradient
x1="60.644615"
y1="19.295689"
x2="35.370575"
y2="69.142799"
id="linearGradient559"
xlink:href="#linearGradient632"
gradientUnits="userSpaceOnUse"
spreadMethod="pad"
gradientTransform="matrix(1.418885,-0.200635,0.127692,1.110535,-136.7997,-1.332303)" />
<linearGradient
x1="85.637657"
y1="17.443844"
x2="73.916298"
y2="54.628181"
id="linearGradient631"
xlink:href="#linearGradient632"
gradientUnits="userSpaceOnUse"
gradientTransform="matrix(1.050920,-0.148604,0.172402,1.499373,-123.6994,-3.008376)"
spreadMethod="pad" />
<defs
id="defs3">
<sodipodi:namedview
id="namedview909" />
<defs
id="defs1721">
<linearGradient
x1="0.0000000"
y1="0.0000000"
x2="1.0000000"
y2="0.0000000"
id="linearGradient1722"
gradientUnits="objectBoundingBox"
spreadMethod="pad"
xlink:href="#linearGradient1825" />
<linearGradient
x1="0.0000000"
y1="0.0000000"
x2="1.0000000"
y2="0.0000000"
id="linearGradient1725"
gradientUnits="objectBoundingBox"
spreadMethod="pad">
<stop
style="stop-color:#000000;stop-opacity:1;"
offset="0.000000"
id="stop1726" />
<stop
style="stop-color:#bdf2ff;stop-opacity:0.384314;"
offset="1.000000"
id="stop1727" />
</linearGradient>
<linearGradient
id="linearGradient1728"
xlink:href="#linearGradient632"
x1="60.644615"
y1="19.295689"
x2="35.370575"
y2="69.142799"
gradientUnits="userSpaceOnUse"
spreadMethod="pad" />
<linearGradient
xlink:href="#linearGradient632"
id="linearGradient1729"
x1="85.637657"
y1="17.443844"
x2="73.916298"
y2="54.628181"
gradientUnits="userSpaceOnUse"
spreadMethod="pad"
gradientTransform="scale(0.740666,1.350136)" />
</defs>
</defs>
<sodipodi:namedview
id="namedview1730"
pagecolor="#ffffff"
bordercolor="#666666"
borderopacity="1.0"
inkscape:pageopacity="0.0"
inkscape:pageshadow="2"
inkscape:zoom="2.4559706"
inkscape:cx="113.94414"
inkscape:cy="73.007956"
inkscape:window-width="812"
inkscape:window-height="560"
inkscape:window-x="103"
inkscape:window-y="56" />
<metadata
id="metadata4">
<rdf:RDF>
<cc:Work
rdf:about="">
<dc:format>image/svg+xml</dc:format>
<dc:type
rdf:resource="http://purl.org/dc/dcmitype/StillImage" />
</cc:Work>
</rdf:RDF>
</metadata>
<linearGradient
inkscape:collect="always"
xlink:href="#linearGradient1828"
id="linearGradient1831"
gradientTransform="matrix(0.563776,0.000000,0.000000,0.563788,50.39821,45.07308)"
x1="32.051327"
y1="14.657825"
x2="32.051327"
y2="75.934349"
gradientUnits="userSpaceOnUse" />
</defs>
<linearGradient
inkscape:collect="always"
xlink:href="#linearGradient1828"
id="linearGradient3209"
gradientUnits="userSpaceOnUse"
gradientTransform="matrix(0.371303,0,0,0.371311,44.15353,27.77243)"
x1="32.051327"
y1="14.657825"
x2="32.051327"
y2="75.934349" />
<linearGradient
inkscape:collect="always"
xlink:href="#linearGradient1828"
id="linearGradient2208"
gradientUnits="userSpaceOnUse"
gradientTransform="matrix(0.371303,0,0,0.371311,44.15353,27.77243)"
x1="32.051327"
y1="14.657825"
x2="32.051327"
y2="75.934349" />
<linearGradient
inkscape:collect="always"
xlink:href="#linearGradient1828"
id="linearGradient2213"
gradientUnits="userSpaceOnUse"
gradientTransform="matrix(0.371303,0,0,0.371311,44.15353,27.77243)"
x1="32.051327"
y1="14.657825"
x2="32.051327"
y2="75.934349" />
<inkscape:perspective
id="perspective3343"
inkscape:persp3d-origin="0.5 : 0.33333333 : 1"
inkscape:vp_z="1 : 0.5 : 1"
inkscape:vp_y="0 : 1000 : 0"
inkscape:vp_x="0 : 0.5 : 1"
sodipodi:type="inkscape:persp3d" />
<inkscape:perspective
id="perspective2551"
inkscape:persp3d-origin="0.5 : 0.33333333 : 1"
inkscape:vp_z="1 : 0.5 : 1"
inkscape:vp_y="0 : 1000 : 0"
inkscape:vp_x="0 : 0.5 : 1"
sodipodi:type="inkscape:persp3d" />
</defs>
<sodipodi:namedview
id="base"
inkscape:zoom="2.5208335"
inkscape:cx="-71.262399"
inkscape:cy="60.813701"
inkscape:window-width="1280"
inkscape:window-height="727"
inkscape:window-x="0"
inkscape:window-y="25"
inkscape:current-layer="svg604"
showgrid="false" />
<path
style="fill:#000000;fill-rule:evenodd;stroke:none;stroke-opacity:1;stroke-width:1pt;stroke-linejoin:miter;stroke-linecap:butt;fill-opacity:0.301471;"
d="M 12.8163 74.753 C 10.3856 73.6481 7.07107 70.1126 8.83884 65.2512 C 9.72267 59.948 25.6326 13.1021 29.1682 10.8924 C 31.3778 8.90368 34.582 8.13026 39.1119 9.34561 C 42.8684 10.2295 76.6769 19.0684 78.6656 20.8361 C 80.6544 22.6039 82.2012 24.0402 80.6544 27.9072 C 79.5496 29.8959 66.4017 74.532 66.1808 77.4047 C 65.2969 80.4983 62.7558 84.2548 58.5573 84.0338 C 54.3589 83.8128 15.9099 75.4159 12.8163 74.753 z "
id="path794"
sodipodi:nodetypes="ccccccccc"
transform="matrix(1.114903,0.000000,0.000000,1.114903,-5.305332,-3.889256)" />
<path
style="fill:#3d4e67;fill-rule:evenodd;stroke:none;stroke-opacity:1;stroke-width:1pt;stroke-linejoin:miter;stroke-linecap:butt;fill-opacity:1;"
d="M 12.8163 74.753 C 10.3856 73.6481 7.07107 70.1126 8.83884 65.2512 C 9.72267 59.948 25.6326 13.1021 29.1682 10.8924 C 31.3778 8.90368 34.582 8.13026 39.1119 9.34561 C 42.8684 10.2295 76.6769 19.0684 78.6656 20.8361 C 80.6544 22.6039 82.2012 24.0402 80.6544 27.9072 C 79.5496 29.8959 66.4017 74.532 66.1808 77.4047 C 65.2969 80.4983 62.7558 84.2548 58.5573 84.0338 C 54.3589 83.8128 15.9099 75.4159 12.8163 74.753 z "
id="path609"
sodipodi:nodetypes="ccccccccc"
transform="matrix(1.114903,0.000000,0.000000,1.114903,-8.162471,-8.460684)" />
<path
style="fill:#ffffff;fill-rule:evenodd;stroke:none;stroke-opacity:1;stroke-width:1pt;stroke-linejoin:miter;stroke-linecap:butt;fill-opacity:1;"
d="M 17.8987 70.9965 C 15.3576 70.3336 11.7114 69.6706 13.0373 65.6932 C 15.468 55.9705 27.8424 18.6264 33.1456 13.986 C 34.361 12.8811 38.4489 12.4392 46.1829 14.8699 C 55.0218 17.5215 72.9204 23.4877 74.6882 24.3716 C 76.4559 25.2555 77.1189 25.2555 75.793 29.233 C 73.8043 33.2105 64.9655 67.24 62.7557 72.9852 C 61.209 77.0732 60.8775 78.9514 58.2258 78.9514 "
id="path608"
sodipodi:nodetypes="cccccccs"
transform="matrix(1.114903,0.000000,0.000000,1.114903,-8.162471,-8.460684)" />
<path
style="fill:url(#linearGradient615);fill-rule:evenodd;stroke:none;stroke-opacity:1;stroke-width:1pt;stroke-linejoin:miter;stroke-linecap:butt;fill-opacity:1;"
d="M 28.75 13.75 C 28.75 13.75 31.875 7.49995 39.6875 9.37495 C 47.5 11.25 78.125 19.375 77.8125 21.875 C 77.5 24.375 71.875 39.0625 71.5625 40.3125 C 71.25 41.5625 42.5 40.9375 31.5625 47.5 C 20.625 54.0625 12.5 59.6875 12.5 59.6875 C 12.5 59.6875 23.75 24.6875 28.75 13.75 z "
id="path636"
transform="matrix(0.946780,0.000000,0.000000,0.946780,-0.480566,0.409517)" />
<g
transform="matrix(0.8867671,0.2673995,-0.2673995,0.8867671,8.2253745,10.235781)"
id="use3211">
<path
style="fill:#000000;fill-opacity:0.34444442;stroke:none;stroke-width:3.86746287;stroke-linecap:round;stroke-linejoin:round;stroke-miterlimit:4;stroke-opacity:1"
d="M 61.241091,33.376041 C 60.169069,33.066624 59.061423,33.678083 58.752007,34.750106 L 58.291563,36.345381 C 57.841243,36.359472 57.398742,36.401309 56.962198,36.484808 L 56.164751,35.040251 C 55.625506,34.063425 54.399429,33.709544 53.422603,34.248787 L 52.364475,34.840161 C 51.38765,35.379404 51.036256,36.596858 51.5755,37.573685 L 52.366815,39.007131 C 52.059081,39.331245 51.779304,39.679193 51.523209,40.052763 L 49.962428,39.602276 C 48.890404,39.292859 47.771649,39.910453 47.462231,40.982476 L 47.126231,42.146595 C 46.816814,43.218618 47.436897,44.328751 48.508921,44.638168 L 50.03521,45.0787 C 50.047165,45.545429 50.092966,46.004065 50.179439,46.456159 L 48.790442,47.222937 C 47.813616,47.76218 47.462223,48.979634 48.001466,49.95646 L 48.59284,51.014587 C 49.132084,51.991415 50.349538,52.342808 51.326365,51.803564 L 52.693138,51.049054 C 53.033955,51.372971 53.396218,51.669381 53.791666,51.935951 L 53.36109,53.427748 C 53.051673,54.499771 53.663133,55.607416 54.735156,55.916832 L 55.899275,56.252831 C 56.971299,56.562249 58.078943,55.950788 58.38836,54.878765 L 58.821425,53.378347 C 59.294272,53.36299 59.755098,53.311119 60.212485,53.219358 L 60.966993,54.586133 C 61.506238,55.56296 62.72369,55.914352 63.700517,55.375107 L 64.764779,54.794845 C 65.741605,54.255601 66.095488,53.029524 65.556243,52.052699 L 64.795601,50.674813 C 65.109681,50.33833 65.392829,49.97464 65.65165,49.586064 L 67.177939,50.026597 C 68.249963,50.336014 69.357605,49.724554 69.667023,48.65253 L 70.003022,47.488411 C 70.312439,46.416389 69.703469,45.300121 68.631447,44.990705 L 67.070665,44.540217 C 67.052965,44.086189 66.993559,43.642976 66.905367,43.203384 L 68.338812,42.412069 C 69.31564,41.872826 69.667033,40.655371 69.127788,39.678545 L 68.547524,38.614285 C 68.008282,37.637457 66.79083,37.286065 65.814001,37.825309 L 64.358333,38.628891 C 64.034598,38.326406 63.69093,38.047848 63.318833,37.796398 L 63.779276,36.201125 C 64.088694,35.129102 63.477234,34.021457 62.405211,33.71204 L 61.241091,33.376041 z M 59.695824,40.898303 C 61.885538,41.530318 63.149582,43.820102 62.517565,46.009815 C 61.88555,48.19953 59.595767,49.463573 57.406054,48.831558 C 55.216339,48.199542 53.952295,45.909759 54.584311,43.720044 C 55.216327,41.530331 57.506109,40.266287 59.695824,40.898303 z "
id="path2204" />
<path
style="fill:url(#linearGradient2213);fill-opacity:1;stroke:#593a28;stroke-width:1.4360162;stroke-linecap:round;stroke-linejoin:round;stroke-miterlimit:4;stroke-opacity:1"
d="M 59.584018,31.718968 C 58.511995,31.409551 57.404351,32.021011 57.094934,33.093034 L 56.634491,34.688307 C 56.18417,34.702399 55.741669,34.744236 55.305126,34.827735 L 54.507677,33.383178 C 53.968434,32.406351 52.742356,32.052471 51.76553,32.591714 L 50.707403,33.183088 C 49.730577,33.722331 49.379184,34.939787 49.918427,35.916612 L 50.709741,37.350058 C 50.402009,37.674174 50.122231,38.022121 49.866137,38.395691 L 48.305355,37.945203 C 47.233331,37.635786 46.114575,38.25338 45.805158,39.325403 L 45.469159,40.489522 C 45.159742,41.561545 45.779825,42.671678 46.851848,42.981096 L 48.378137,43.421627 C 48.390091,43.888357 48.435894,44.346992 48.522367,44.799086 L 47.133369,45.565863 C 46.156544,46.105108 45.805149,47.322562 46.344394,48.299388 L 46.935767,49.357515 C 47.475011,50.334342 48.692466,50.685734 49.669293,50.14649 L 51.036066,49.391981 C 51.376882,49.715898 51.739145,50.012308 52.134593,50.278878 L 51.704016,51.770674 C 51.3946,52.842698 52.006061,53.950343 53.078083,54.259759 L 54.242202,54.595758 C 55.314226,54.905176 56.42187,54.293717 56.731287,53.221693 L 57.164352,51.721273 C 57.637199,51.705917 58.098026,51.654047 58.555411,51.562286 L 59.309921,52.92906 C 59.849165,53.905886 61.066618,54.257278 62.043445,53.718036 L 63.107707,53.137772 C 64.084533,52.598528 64.438415,51.372452 63.89917,50.395626 L 63.138528,49.017741 C 63.452609,48.681258 63.735756,48.317568 63.994577,47.928991 L 65.520866,48.369523 C 66.59289,48.678941 67.700531,48.067481 68.00995,46.995458 L 68.345949,45.831338 C 68.655366,44.759315 68.046396,43.643048 66.974374,43.333631 L 65.413591,42.883144 C 65.395892,42.429115 65.336485,41.985903 65.248294,41.546312 L 66.681739,40.754997 C 67.658567,40.215754 68.009961,38.998299 67.470715,38.021473 L 66.890451,36.957211 C 66.351209,35.980385 65.133755,35.628993 64.156928,36.168236 L 62.701259,36.971819 C 62.377525,36.669332 62.033857,36.390775 61.66176,36.139325 L 62.122204,34.544052 C 62.431621,33.472028 61.820161,32.364384 60.748138,32.054967 L 59.584018,31.718968 z M 58.038751,39.241231 C 60.228466,39.873246 61.492509,42.163029 60.860493,44.352743 C 60.228477,46.542457 57.938694,47.806501 55.748981,47.174485 C 53.559267,46.542469 52.295222,44.252686 52.927239,42.062971 C 53.559254,39.873258 55.849037,38.609214 58.038751,39.241231 z "
id="path2206" />
</g>
<use
x="0"
y="0"
xlink:href="#use3211"
id="use2215"
transform="translate(-22.720918,-5.6101033)"
width="90"
height="90" />
<g
id="g2853"
transform="matrix(1.0332698,0,0,1.0332698,-0.6933266,-0.5614471)">
<path
style="font-size:14px;font-style:normal;font-variant:normal;font-weight:normal;font-stretch:normal;writing-mode:lr-tb;text-anchor:start;fill:#000000;fill-opacity:0.30196078;stroke:none;font-family:Kid Kosmic"
d="m 50.592241,27.560337 c 0.082769,0.540908 0.074024,1.001203 -0.02623,1.380887 -0.217318,0.822705 -0.856304,1.319636 -1.916957,1.490792 -0.588681,0.092773 -1.104497,0.080647 -1.547453,-0.03637 -0.738336,-0.194985 -1.284814,-0.689094 -1.639436,-1.482331 -0.200636,-0.436589 -0.39548,-1.108618 -0.584535,-2.016087 -0.189104,-0.907429 -0.376188,-1.566125 -0.561247,-1.976091 -4.988287,-1.362604 -9.107448,-1.017609 -12.357496,1.034986 -2.166723,1.368435 -3.553723,3.202294 -4.161003,5.50158 -0.546013,2.06728 -0.31392,3.922582 0.69628,5.565913 1.015753,1.622256 2.546718,2.703594 4.592904,3.244019 3.375109,0.891445 7.557743,0.348834 12.547921,-1.627823 0.673003,-0.070459 1.209916,-0.052763 1.610739,0.053083 0.73828,0.195014 1.070432,0.688927 0.996455,1.481753 -0.029078,0.195429 -0.065888,0.37752 -0.11043,0.546267 -0.245174,0.928167 -0.838186,1.550069 -1.779037,1.865715 -1.753221,0.91348 -3.599956,1.497609 -5.54021,1.752389 -2.322381,0.3344 -4.329131,0.413662 -6.020251,0.237789 -1.078218,-0.104239 -2.091945,-0.281721 -3.041188,-0.53244 -3.375137,-0.891434 -5.809999,-2.651548 -7.304586,-5.280347 -1.903769,-3.301004 -2.333318,-6.630117 -1.288644,-9.987354 1.468901,-4.62168 4.725304,-7.552702 9.769223,-8.793068 4.151963,-1.024563 8.734817,-0.818337 13.74858,0.618693 1.647344,0.683355 2.752039,1.58441 3.314089,2.703166 0.458899,0.911048 0.659733,2.329341 0.602512,4.254879"
id="path2550"
sodipodi:nodetypes="ccccccccccccccccccccccccc" />
<path
sodipodi:nodetypes="ccccccccccccccccccccccccc"
id="text1127"
d="m 48.82913,25.091981 c 0.082768,0.540908 0.074024,1.001203 -0.026229,1.380887 -0.217319,0.822706 -0.856305,1.319637 -1.916958,1.490792 -0.588679,0.092773 -1.104498,0.080649 -1.547453,-0.03637 -0.738335,-0.194983 -1.284815,-0.689093 -1.639436,-1.482329 -0.200636,-0.436589 -0.39548,-1.108619 -0.584535,-2.016088 -0.189105,-0.907429 -0.376187,-1.566126 -0.561246,-1.976092 -4.988288,-1.362603 -9.107448,-1.017608 -12.357497,1.034987 -2.166723,1.368434 -3.553723,3.202293 -4.161004,5.50158 -0.546011,2.067279 -0.313919,3.922582 0.696281,5.565912 1.015754,1.622257 2.546718,2.703594 4.592903,3.244019 3.375109,0.891443 7.557746,0.348834 12.547922,-1.627823 0.673002,-0.07046 1.209914,-0.052763 1.610739,0.053084 0.73828,0.195013 1.070431,0.688926 0.996455,1.481751 -0.029079,0.19543 -0.065887,0.377522 -0.11043,0.546267 -0.245174,0.928167 -0.838187,1.55007 -1.779038,1.865715 -1.75322,0.913482 -3.599954,1.497611 -5.54021,1.75239 -2.322379,0.334401 -4.32913,0.413662 -6.02025,0.237789 -1.078217,-0.104239 -2.091947,-0.281722 -3.041188,-0.53244 -3.375137,-0.891433 -5.809998,-2.651547 -7.304586,-5.280347 -1.903769,-3.301003 -2.333319,-6.630118 -1.288643,-9.987355 1.468899,-4.62168 4.725302,-7.552701 9.769222,-8.793066 4.151962,-1.024566 8.734817,-0.818337 13.748579,0.618692 1.647344,0.683355 2.75204,1.584409 3.314089,2.703166 0.458899,0.911048 0.659733,2.32934 0.602513,4.254879"
style="font-size:14px;font-style:normal;font-variant:normal;font-weight:normal;font-stretch:normal;writing-mode:lr-tb;text-anchor:start;fill:#3d4e67;fill-opacity:1;stroke:none;font-family:Kid Kosmic" />
</g>
<path
style="font-size:14px;font-style:normal;font-variant:normal;font-weight:normal;font-stretch:normal;writing-mode:lr-tb;text-anchor:start;fill:#000000;fill-opacity:0.30196078;stroke:none;font-family:Kid Kosmic"
id="path2541"
d="" />
<path
style="font-size:14px;font-style:normal;font-variant:normal;font-weight:normal;font-stretch:normal;writing-mode:lr-tb;text-anchor:start;fill:#000000;fill-opacity:0.30196078;stroke:none;font-family:Kid Kosmic"
id="path2543"
d="" />
<path
style="font-size:14px;font-style:normal;font-variant:normal;font-weight:normal;font-stretch:normal;writing-mode:lr-tb;text-anchor:start;fill:#000000;fill-opacity:0.30196078;stroke:none;font-family:Kid Kosmic"
id="path2545"
d="" />
<path
style="font-size:14px;font-style:normal;font-variant:normal;font-weight:normal;font-stretch:normal;writing-mode:lr-tb;text-anchor:start;fill:#000000;fill-opacity:0.30196078;stroke:none;font-family:Kid Kosmic"
id="path2547"
d="" />
<path
style="font-size:14px;font-style:normal;font-variant:normal;font-weight:normal;font-stretch:normal;writing-mode:lr-tb;text-anchor:start;fill:#000000;fill-opacity:0.30196078;stroke:none;font-family:Kid Kosmic"
id="path2549"
d="" />
<path
style="font-size:14px;font-style:normal;font-variant:normal;font-weight:normal;font-stretch:normal;writing-mode:lr-tb;text-anchor:start;fill:#000000;fill-opacity:0.30196078;stroke:none;font-family:Kid Kosmic"
id="path2551"
d="" />
<path
style="font-size:14px;font-style:normal;font-variant:normal;font-weight:normal;font-stretch:normal;writing-mode:lr-tb;text-anchor:start;fill:#000000;fill-opacity:0.30196078;stroke:none;font-family:Kid Kosmic"
id="path2553"
d="" />
<path
style="font-size:14px;font-style:normal;font-variant:normal;font-weight:normal;font-stretch:normal;writing-mode:lr-tb;text-anchor:start;fill:#000000;fill-opacity:0.30196078;stroke:none;font-family:Kid Kosmic"
id="path2555"
d="" />
<g
id="g2591"
transform="matrix(0.9977089,6.7653176e-2,-6.7653176e-2,0.9977089,6.1754612,-5.8183384)">
<g
transform="matrix(0.9988629,4.7675817e-2,-4.7675817e-2,0.9988629,1.7501337,-2.4656887)"
id="g2839">
<path
sodipodi:nodetypes="ccccccccccscccscscccc"
style="font-size:14px;font-style:normal;font-variant:normal;font-weight:normal;font-stretch:normal;writing-mode:lr-tb;text-anchor:start;fill:#000000;fill-opacity:0.30196078;stroke:none;font-family:Kid Kosmic"
d="M 54.630135,29.139744 C 53.604231,28.990735 52.881629,29.337654 52.495843,30.185842 C 52.451893,31.255573 52.238741,32.79626 51.839645,34.788624 L 49.217421,34.086967 C 48.375638,33.869169 47.666759,33.674319 47.085958,33.540653 C 46.236325,33.803154 45.728447,34.346377 45.58106,35.173096 C 45.418082,35.995807 45.841146,36.589888 46.861376,36.953655 C 48.009572,36.951389 49.459062,37.158697 51.213041,37.579265 L 50.555048,40.366084 C 50.340716,41.258664 50.162928,42.042098 50.052396,42.66214 C 50.330466,43.515807 50.348639,41.506057 51.179413,41.637855 C 51.994582,41.765626 52.63379,42.666765 53.001613,41.630952 C 52.920288,40.59536 53.574439,40.269192 53.984567,38.362817 C 56.037102,39.043616 57.536616,39.641482 58.477274,40.184247 C 59.610966,40.04517 60.260518,39.466219 60.440741,38.448383 C 60.616892,37.446156 60.313129,36.722712 59.492634,36.294171 C 58.781981,36.276627 57.960893,36.194698 57.071822,36.031164 C 56.56491,35.933278 55.780843,35.748182 54.716809,35.489477 C 55.347333,33.374044 55.933638,31.91504 56.432601,31.079467 C 56.242703,29.949264 55.636396,29.300345 54.630135,29.139744 L 54.630135,29.139744 z"
id="path2837" />
<path
style="font-size:14px;font-style:normal;font-variant:normal;font-weight:normal;font-stretch:normal;writing-mode:lr-tb;text-anchor:start;fill:#000000;fill-opacity:0.30196078;stroke:none;font-family:Kid Kosmic"
id="path2835" />
<path
style="font-size:14px;font-style:normal;font-variant:normal;font-weight:normal;font-stretch:normal;writing-mode:lr-tb;text-anchor:start;fill:#000000;fill-opacity:0.30196078;stroke:none;font-family:Kid Kosmic"
id="path2833" />
<path
style="font-size:14px;font-style:normal;font-variant:normal;font-weight:normal;font-stretch:normal;writing-mode:lr-tb;text-anchor:start;fill:#000000;fill-opacity:0.30196078;stroke:none;font-family:Kid Kosmic"
id="path2831" />
<path
style="font-size:14px;font-style:normal;font-variant:normal;font-weight:normal;font-stretch:normal;writing-mode:lr-tb;text-anchor:start;fill:#000000;fill-opacity:0.30196078;stroke:none;font-family:Kid Kosmic"
id="path2829" />
<path
style="font-size:14px;font-style:normal;font-variant:normal;font-weight:normal;font-stretch:normal;writing-mode:lr-tb;text-anchor:start;fill:#000000;fill-opacity:0.30196078;stroke:none;font-family:Kid Kosmic"
id="path2827" />
<path
style="font-size:14px;font-style:normal;font-variant:normal;font-weight:normal;font-stretch:normal;writing-mode:lr-tb;text-anchor:start;fill:#000000;fill-opacity:0.30196078;stroke:none;font-family:Kid Kosmic"
id="path2825" />
<path
style="font-size:14px;font-style:normal;font-variant:normal;font-weight:normal;font-stretch:normal;writing-mode:lr-tb;text-anchor:start;fill:#000000;fill-opacity:0.30196078;stroke:none;font-family:Kid Kosmic"
id="path2823" />
<path
style="font-size:14px;font-style:normal;font-variant:normal;font-weight:normal;font-stretch:normal;writing-mode:lr-tb;text-anchor:start;fill:#000000;fill-opacity:0.30196078;stroke:none;font-family:Kid Kosmic"
id="path2821" />
<path
style="font-size:14px;font-style:normal;font-variant:normal;font-weight:normal;font-stretch:normal;writing-mode:lr-tb;text-anchor:start;fill:#3d4e67;fill-opacity:1;stroke:none;font-family:Kid Kosmic"
d="M 46.167133,31.191599 C 46.747933,31.325265 47.459222,31.500995 48.301005,31.718793 L 50.937192,32.425859 C 51.336287,30.433496 51.557812,28.90245 51.601761,27.832719 C 51.98755,26.984531 52.693393,26.634943 53.719297,26.78395 C 54.725557,26.944551 55.323634,27.589951 55.513533,28.720154 C 55.014572,29.555727 54.449831,31.03123 53.819308,33.146663 C 54.88334,33.405367 55.668813,33.583659 56.175724,33.681546 C 57.064794,33.845081 57.864656,33.935623 58.575309,33.953167 C 59.395807,34.381708 59.71798,35.097089 59.541828,36.099317 C 59.361607,37.117153 58.704652,37.695609 57.57096,37.834686 C 56.630299,37.291922 55.133706,36.680145 53.08117,35.999346 C 52.671044,37.90572 52.506642,39.376703 52.587967,40.412295 C 52.220146,41.44811 51.628652,41.902132 50.813483,41.774361 C 49.982709,41.642563 49.428288,41.149832 49.150218,40.296166 C 49.260753,39.676124 49.423187,38.919812 49.637517,38.02723 L 50.310737,35.232595 C 48.556759,34.812027 47.10567,34.602877 45.957473,34.605144 C 44.937244,34.241377 44.508624,33.64814 44.671603,32.825429 C 44.818991,31.99871 45.317499,31.454099 46.167133,31.191599"
id="path2801" />
</g>
<g
transform="matrix(0.9988629,4.7675817e-2,-4.7675817e-2,0.9988629,8.3967602,1.0357048e-2)"
id="g2515">
<path
sodipodi:nodetypes="ccccccccccscccscscccc"
style="font-size:14px;font-style:normal;font-variant:normal;font-weight:normal;font-stretch:normal;writing-mode:lr-tb;text-anchor:start;fill:#000000;fill-opacity:0.30196078;stroke:none;font-family:Kid Kosmic"
d="M 54.630135,29.139744 C 53.604231,28.990735 52.881629,29.337654 52.495843,30.185842 C 52.451893,31.255573 52.238741,32.79626 51.839645,34.788624 L 49.217421,34.086967 C 48.375638,33.869169 47.666759,33.674319 47.085958,33.540653 C 46.236325,33.803154 51.845507,34.575663 51.69812,35.402382 C 51.535142,36.225093 50.525314,36.440777 51.545544,36.804544 C 52.69374,36.802278 51.399021,37.239854 51.213041,37.579265 L 50.555048,40.366084 C 50.340716,41.258664 50.162928,42.042098 50.052396,42.66214 C 50.330466,43.515807 49.851871,43.600849 50.682645,43.732647 C 51.497814,43.860418 51.046877,42.514338 51.4147,41.478525 C 51.333375,40.442933 53.574439,40.269192 53.984567,38.362817 C 56.037102,39.043616 57.536616,39.641482 58.477274,40.184247 C 59.610966,40.04517 60.260518,39.466219 60.440741,38.448383 C 60.616892,37.446156 60.313129,36.722712 59.492634,36.294171 C 58.781981,36.276627 57.960893,36.194698 57.071822,36.031164 C 56.56491,35.933278 55.780843,35.748182 54.716809,35.489477 C 55.347333,33.374044 55.933638,31.91504 56.432601,31.079467 C 56.242703,29.949264 55.636396,29.300345 54.630135,29.139744 L 54.630135,29.139744 z"
id="path2517" />
<path
style="font-size:14px;font-style:normal;font-variant:normal;font-weight:normal;font-stretch:normal;writing-mode:lr-tb;text-anchor:start;fill:#000000;fill-opacity:0.30196078;stroke:none;font-family:Kid Kosmic"
id="path2519"
d="" />
<path
style="font-size:14px;font-style:normal;font-variant:normal;font-weight:normal;font-stretch:normal;writing-mode:lr-tb;text-anchor:start;fill:#000000;fill-opacity:0.30196078;stroke:none;font-family:Kid Kosmic"
id="path2521"
d="" />
<path
style="font-size:14px;font-style:normal;font-variant:normal;font-weight:normal;font-stretch:normal;writing-mode:lr-tb;text-anchor:start;fill:#000000;fill-opacity:0.30196078;stroke:none;font-family:Kid Kosmic"
id="path2523"
d="" />
<path
style="font-size:14px;font-style:normal;font-variant:normal;font-weight:normal;font-stretch:normal;writing-mode:lr-tb;text-anchor:start;fill:#000000;fill-opacity:0.30196078;stroke:none;font-family:Kid Kosmic"
id="path2525"
d="" />
<path
style="font-size:14px;font-style:normal;font-variant:normal;font-weight:normal;font-stretch:normal;writing-mode:lr-tb;text-anchor:start;fill:#000000;fill-opacity:0.30196078;stroke:none;font-family:Kid Kosmic"
id="path2527"
d="" />
<path
style="font-size:14px;font-style:normal;font-variant:normal;font-weight:normal;font-stretch:normal;writing-mode:lr-tb;text-anchor:start;fill:#000000;fill-opacity:0.30196078;stroke:none;font-family:Kid Kosmic"
id="path2529"
d="" />
<path
style="font-size:14px;font-style:normal;font-variant:normal;font-weight:normal;font-stretch:normal;writing-mode:lr-tb;text-anchor:start;fill:#000000;fill-opacity:0.30196078;stroke:none;font-family:Kid Kosmic"
id="path2531"
d="" />
<path
style="font-size:14px;font-style:normal;font-variant:normal;font-weight:normal;font-stretch:normal;writing-mode:lr-tb;text-anchor:start;fill:#000000;fill-opacity:0.30196078;stroke:none;font-family:Kid Kosmic"
id="path2533"
d="" />
<path
style="font-size:14px;font-style:normal;font-variant:normal;font-weight:normal;font-stretch:normal;writing-mode:lr-tb;text-anchor:start;fill:#3d4e67;fill-opacity:1;stroke:none;font-family:Kid Kosmic"
d="M 46.167133,31.191599 C 46.747933,31.325265 47.459222,31.500995 48.301005,31.718793 L 50.937192,32.425859 C 51.336287,30.433496 51.557812,28.90245 51.601761,27.832719 C 51.98755,26.984531 52.693393,26.634943 53.719297,26.78395 C 54.725557,26.944551 55.323634,27.589951 55.513533,28.720154 C 55.014572,29.555727 54.449831,31.03123 53.819308,33.146663 C 54.88334,33.405367 55.668813,33.583659 56.175724,33.681546 C 57.064794,33.845081 57.864656,33.935623 58.575309,33.953167 C 59.395807,34.381708 59.71798,35.097089 59.541828,36.099317 C 59.361607,37.117153 58.704652,37.695609 57.57096,37.834686 C 56.630299,37.291922 55.133706,36.680145 53.08117,35.999346 C 52.671044,37.90572 52.506642,39.376703 52.587967,40.412295 C 52.220146,41.44811 51.628652,41.902132 50.813483,41.774361 C 49.982709,41.642563 49.428288,41.149832 49.150218,40.296166 C 49.260753,39.676124 49.423187,38.919812 49.637517,38.02723 L 50.310737,35.232595 C 48.556759,34.812027 47.10567,34.602877 45.957473,34.605144 C 44.937244,34.241377 44.508624,33.64814 44.671603,32.825429 C 44.818991,31.99871 45.317499,31.454099 46.167133,31.191599"
id="path2535" />
</g>
<path
sodipodi:nodetypes="ccccccccccscccscscccc"
id="path2539"
d="M 53.34411,34.696709 C 52.326476,34.498959 51.588156,34.811033 51.162371,35.639863 C 51.067471,36.706283 50.781108,38.235056 50.287478,40.206127 L 47.701688,39.380251 C 46.871246,39.122568 46.172462,38.894143 45.598694,38.732939 C 44.737512,38.954635 47.526627,38.33253 46.100324,38.506655 C 48.463472,38.735268 48.24424,39.419501 49.228179,39.850361 C 50.375177,39.902839 47.796607,42.460009 49.52854,42.963721 L 48.738432,45.716001 C 48.481789,46.597347 48.266852,47.371414 48.126885,47.985481 C 48.363939,48.851435 48.898666,49.369383 49.722212,49.540639 C 50.530362,49.707129 51.160943,49.270255 51.577731,48.253156 C 51.545872,47.214864 51.759009,45.763171 52.259558,43.878517 C 54.277302,44.656398 55.746607,45.325074 56.660318,45.912069 C 57.799352,45.8272 57.459238,44.845991 57.687783,43.837905 C 57.911515,42.845215 58.659117,42.541996 57.859986,42.074824 C 57.150978,42.023419 56.33473,41.902438 55.454466,41.696702 C 54.952797,41.57476 54.178447,41.352494 53.127957,41.043354 C 53.858619,38.960387 50.797123,39.424405 51.335355,38.61357 C 51.199557,37.475599 54.34157,34.905102 53.34411,34.696709 L 53.34411,34.696709 z"
style="font-size:14px;font-style:normal;font-variant:normal;font-weight:normal;font-stretch:normal;writing-mode:lr-tb;text-anchor:start;fill:#000000;fill-opacity:0.30196078;stroke:none;font-family:Kid Kosmic" />
<path
id="path2557"
d="M 44.792907,36.34275 C 45.366674,36.503955 46.068776,36.713396 46.899218,36.971079 L 49.498698,37.803023 C 49.992327,35.831953 50.286593,34.313209 50.381493,33.24679 C 50.807281,32.417959 51.528988,32.102421 52.546622,32.300169 C 53.544081,32.508562 54.110708,33.181742 54.246508,34.319713 C 53.708277,35.130547 53.073833,36.577448 52.343172,38.660415 C 53.39366,38.969553 54.169739,39.185091 54.671407,39.307034 C 55.55167,39.51277 56.346305,39.641343 57.055314,39.692748 C 57.854448,40.15992 58.142148,40.889847 57.918414,41.882537 C 57.689872,42.890624 57.006086,43.437101 55.867052,43.52197 C 54.953338,42.934977 53.487613,42.252544 51.469869,41.474663 C 50.969321,43.359316 50.734976,44.820788 50.766836,45.85908 C 50.35005,46.876181 49.737582,47.301487 48.929432,47.134997 C 48.105886,46.963741 47.575587,46.445138 47.338532,45.579186 C 47.478503,44.965119 47.67681,44.217411 47.933451,43.336062 L 48.739142,40.576701 C 47.007209,40.072989 45.567742,39.794895 44.420742,39.742418 C 43.419016,39.330425 43.019166,38.717427 43.221184,37.903422 C 43.407818,37.08467 43.931724,36.564445 44.792907,36.34275"
style="font-size:14px;font-style:normal;font-variant:normal;font-weight:normal;font-stretch:normal;writing-mode:lr-tb;text-anchor:start;fill:#3d4e67;fill-opacity:1;stroke:none;font-family:Kid Kosmic" />
<g
transform="matrix(0.9988629,4.7675817e-2,-4.7675817e-2,0.9988629,7.0579176,5.7624229)"
id="g2559">
<path
sodipodi:nodetypes="ccccccccccscccscscccc"
style="font-size:14px;font-style:normal;font-variant:normal;font-weight:normal;font-stretch:normal;writing-mode:lr-tb;text-anchor:start;fill:#000000;fill-opacity:0.30196078;stroke:none;font-family:Kid Kosmic"
d="M 54.630135,29.139744 C 53.604231,28.990735 53.203078,31.533501 52.817292,32.381689 C 52.773342,33.45142 52.238741,32.79626 51.839645,34.788624 L 50.986973,34.38864 C 50.14519,34.170842 48.071993,33.33905 47.085958,33.540653 C 46.236325,33.803154 47.386417,33.199913 47.23903,34.026632 C 47.076052,34.849343 48.028979,33.887836 49.049209,34.251603 C 50.197405,34.249337 50.933153,36.840122 51.213041,37.579265 L 50.555048,40.366084 C 50.340716,41.258664 50.162928,42.042098 50.052396,42.66214 C 50.330466,43.515807 50.889278,44.007673 51.720052,44.139471 C 52.535221,44.267242 53.144257,43.800801 53.51208,42.764988 C 53.430755,41.729396 53.574439,40.269192 53.984567,38.362817 C 56.037102,39.043616 57.536616,39.641482 58.477274,40.184247 C 59.610966,40.04517 60.260518,39.466219 60.440741,38.448383 C 60.616892,37.446156 60.313129,36.722712 59.492634,36.294171 C 58.781981,36.276627 57.960893,36.194698 57.071822,36.031164 C 56.56491,35.933278 55.780843,35.748182 54.716809,35.489477 C 55.347333,33.374044 52.22096,33.227633 54.01257,30.387605 C 53.822672,29.257402 55.636396,29.300345 54.630135,29.139744 L 54.630135,29.139744 z"
id="path2561" />
<path
style="font-size:14px;font-style:normal;font-variant:normal;font-weight:normal;font-stretch:normal;writing-mode:lr-tb;text-anchor:start;fill:#000000;fill-opacity:0.30196078;stroke:none;font-family:Kid Kosmic"
id="path2563"
d="" />
<path
style="font-size:14px;font-style:normal;font-variant:normal;font-weight:normal;font-stretch:normal;writing-mode:lr-tb;text-anchor:start;fill:#000000;fill-opacity:0.30196078;stroke:none;font-family:Kid Kosmic"
id="path2565"
d="" />
<path
style="font-size:14px;font-style:normal;font-variant:normal;font-weight:normal;font-stretch:normal;writing-mode:lr-tb;text-anchor:start;fill:#000000;fill-opacity:0.30196078;stroke:none;font-family:Kid Kosmic"
id="path2567"
d="" />
<path
style="font-size:14px;font-style:normal;font-variant:normal;font-weight:normal;font-stretch:normal;writing-mode:lr-tb;text-anchor:start;fill:#000000;fill-opacity:0.30196078;stroke:none;font-family:Kid Kosmic"
id="path2569"
d="" />
<path
style="font-size:14px;font-style:normal;font-variant:normal;font-weight:normal;font-stretch:normal;writing-mode:lr-tb;text-anchor:start;fill:#000000;fill-opacity:0.30196078;stroke:none;font-family:Kid Kosmic"
id="path2571"
d="" />
<path
style="font-size:14px;font-style:normal;font-variant:normal;font-weight:normal;font-stretch:normal;writing-mode:lr-tb;text-anchor:start;fill:#000000;fill-opacity:0.30196078;stroke:none;font-family:Kid Kosmic"
id="path2573"
d="" />
<path
style="font-size:14px;font-style:normal;font-variant:normal;font-weight:normal;font-stretch:normal;writing-mode:lr-tb;text-anchor:start;fill:#000000;fill-opacity:0.30196078;stroke:none;font-family:Kid Kosmic"
id="path2575"
d="" />
<path
style="font-size:14px;font-style:normal;font-variant:normal;font-weight:normal;font-stretch:normal;writing-mode:lr-tb;text-anchor:start;fill:#000000;fill-opacity:0.30196078;stroke:none;font-family:Kid Kosmic"
id="path2577"
d="" />
<path
style="font-size:14px;font-style:normal;font-variant:normal;font-weight:normal;font-stretch:normal;writing-mode:lr-tb;text-anchor:start;fill:#3d4e67;fill-opacity:1;stroke:none;font-family:Kid Kosmic"
d="M 46.167133,31.191599 C 46.747933,31.325265 47.459222,31.500995 48.301005,31.718793 L 50.937192,32.425859 C 51.336287,30.433496 51.557812,28.90245 51.601761,27.832719 C 51.98755,26.984531 52.693393,26.634943 53.719297,26.78395 C 54.725557,26.944551 55.323634,27.589951 55.513533,28.720154 C 55.014572,29.555727 54.449831,31.03123 53.819308,33.146663 C 54.88334,33.405367 55.668813,33.583659 56.175724,33.681546 C 57.064794,33.845081 57.864656,33.935623 58.575309,33.953167 C 59.395807,34.381708 59.71798,35.097089 59.541828,36.099317 C 59.361607,37.117153 58.704652,37.695609 57.57096,37.834686 C 56.630299,37.291922 55.133706,36.680145 53.08117,35.999346 C 52.671044,37.90572 52.506642,39.376703 52.587967,40.412295 C 52.220146,41.44811 51.628652,41.902132 50.813483,41.774361 C 49.982709,41.642563 49.428288,41.149832 49.150218,40.296166 C 49.260753,39.676124 49.423187,38.919812 49.637517,38.02723 L 50.310737,35.232595 C 48.556759,34.812027 47.10567,34.602877 45.957473,34.605144 C 44.937244,34.241377 44.508624,33.64814 44.671603,32.825429 C 44.818991,31.99871 45.317499,31.454099 46.167133,31.191599"
id="path2579" />
</g>
</g>
</svg>
