<?xml version="1.0" encoding="UTF-8" standalone="no"?>
<!-- Created with Sodipodi ("http://www.sodipodi.com/") -->
<svg
   xmlns:dc="http://purl.org/dc/elements/1.1/"
   xmlns:cc="http://creativecommons.org/ns#"
   xmlns:rdf="http://www.w3.org/1999/02/22-rdf-syntax-ns#"
   xmlns:svg="http://www.w3.org/2000/svg"
   xmlns="http://www.w3.org/2000/svg"
   xmlns:xlink="http://www.w3.org/1999/xlink"
   xmlns:sodipodi="http://sodipodi.sourceforge.net/DTD/sodipodi-0.dtd"
   xmlns:inkscape="http://www.inkscape.org/namespaces/inkscape"
   id="svg604"
   sodipodi:version="0.32"
   width="72pt"
   height="72pt"
   sodipodi:docbase="/home/zeus/.icons/gartoon/scalable/mimetypes"
   sodipodi:docname="text-x-script.svg"
   inkscape:version="0.45+devel"
   inkscape:output_extension="org.inkscape.output.svg.inkscape">
  <metadata
     id="metadata94">
    <rdf:RDF>
      <cc:Work
         rdf:about="">
        <dc:format>image/svg+xml</dc:format>
        <dc:type
           rdf:resource="http://purl.org/dc/dcmitype/StillImage" />
      </cc:Work>
    </rdf:RDF>
  </metadata>
  <defs
     id="defs606">
    <linearGradient
       id="linearGradient612">
      <stop
         style="stop-color:#7fa8e3;stop-opacity:0.741176;"
         offset="0.000000"
         id="stop613" />
      <stop
         style="stop-color:#ffffff;stop-opacity:0;"
         offset="1.000000"
         id="stop614" />
    </linearGradient>
    <linearGradient
       xlink:href="#linearGradient612"
       id="linearGradient615"
       x1="50.6438866"
       y1="5.36792946"
       x2="35.7520943"
       y2="68.0443573"
       gradientUnits="userSpaceOnUse"
       spreadMethod="pad" />
    <defs
       id="defs550">
      <linearGradient
         id="linearGradient1828">
        <stop
           style="stop-color:#ffc93f;stop-opacity:1.0000000;"
           offset="0.0000000"
           id="stop1829" />
        <stop
           style="stop-color:#f1e36c;stop-opacity:1.0000000;"
           offset="1.0000000"
           id="stop1830" />
      </linearGradient>
      <linearGradient
         id="linearGradient1825">
        <stop
           offset="0.0000000"
           style="stop-color:#ffd800;stop-opacity:1.0000000;"
           id="stop1827" />
        <stop
           offset="1.0000000"
           style="stop-color:#ffd58f;stop-opacity:0.0000000;"
           id="stop1826" />
      </linearGradient>
      <linearGradient
         x1="0.0000000"
         y1="0.0000000"
         x2="1.0000000"
         y2="0.0000000"
         id="linearGradient632"
         gradientUnits="objectBoundingBox"
         spreadMethod="pad">
        <stop
           style="stop-color:#ffb700;stop-opacity:1;"
           offset="0.00000000"
           id="stop633" />
        <stop
           style="stop-color:#ffd58f;stop-opacity:0;"
           offset="1.00000000"
           id="stop634" />
      </linearGradient>
      <linearGradient
         x1="0.0000000"
         y1="0.0000000"
         x2="1.0000000"
         y2="0.0000000"
         id="linearGradient556"
         gradientUnits="objectBoundingBox"
         spreadMethod="pad">
        <stop
           style="stop-color:#000000;stop-opacity:1;"
           offset="0.00000000"
           id="stop557" />
        <stop
           style="stop-color:#bdf2ff;stop-opacity:0.384314;"
           offset="1.00000000"
           id="stop558" />
      </linearGradient>
      <linearGradient
         x1="60.644615"
         y1="19.295689"
         x2="35.370575"
         y2="69.142799"
         id="linearGradient559"
         xlink:href="#linearGradient632"
         gradientUnits="userSpaceOnUse"
         spreadMethod="pad"
         gradientTransform="matrix(1.418885,-0.200635,0.127692,1.110535,-136.7997,-1.332303)" />
      <linearGradient
         x1="85.637657"
         y1="17.443844"
         x2="73.916298"
         y2="54.628181"
         id="linearGradient631"
         xlink:href="#linearGradient632"
         gradientUnits="userSpaceOnUse"
         gradientTransform="matrix(1.050920,-0.148604,0.172402,1.499373,-123.6994,-3.008376)"
         spreadMethod="pad" />
      <defs
         id="defs3">
        <sodipodi:namedview
           id="namedview909" />
        <defs
           id="defs1721">
          <linearGradient
             x1="0.0000000"
             y1="0.0000000"
             x2="1.0000000"
             y2="0.0000000"
             id="linearGradient1722"
             gradientUnits="objectBoundingBox"
             spreadMethod="pad"
             xlink:href="#linearGradient1825" />
          <linearGradient
             x1="0.0000000"
             y1="0.0000000"
             x2="1.0000000"
             y2="0.0000000"
             id="linearGradient1725"
             gradientUnits="objectBoundingBox"
             spreadMethod="pad">
            <stop
               style="stop-color:#000000;stop-opacity:1;"
               offset="0.000000"
               id="stop1726" />
            <stop
               style="stop-color:#bdf2ff;stop-opacity:0.384314;"
               offset="1.000000"
               id="stop1727" />
          </linearGradient>
          <linearGradient
             id="linearGradient1728"
             xlink:href="#linearGradient632"
             x1="60.644615"
             y1="19.295689"
             x2="35.370575"
             y2="69.142799"
             gradientUnits="userSpaceOnUse"
             spreadMethod="pad" />
          <linearGradient
             xlink:href="#linearGradient632"
             id="linearGradient1729"
             x1="85.637657"
             y1="17.443844"
             x2="73.916298"
             y2="54.628181"
             gradientUnits="userSpaceOnUse"
             spreadMethod="pad"
             gradientTransform="scale(0.740666,1.350136)" />
        </defs>
      </defs>
      <sodipodi:namedview
         id="namedview1730"
         pagecolor="#ffffff"
         bordercolor="#666666"
         borderopacity="1.0"
         inkscape:pageopacity="0.0"
         inkscape:pageshadow="2"
         inkscape:zoom="2.4559706"
         inkscape:cx="113.94414"
         inkscape:cy="73.007956"
         inkscape:window-width="812"
         inkscape:window-height="560"
         inkscape:window-x="103"
         inkscape:window-y="56" />
      <metadata
         id="metadata4">
        <rdf:RDF>
          <cc:Work
             rdf:about="">
            <dc:format>image/svg+xml</dc:format>
            <dc:type
               rdf:resource="http://purl.org/dc/dcmitype/StillImage" />
          </cc:Work>
        </rdf:RDF>
      </metadata>
      <linearGradient
         inkscape:collect="always"
         xlink:href="#linearGradient1828"
         id="linearGradient1831"
         gradientTransform="matrix(0.563776,0.000000,0.000000,0.563788,50.39821,45.07308)"
         x1="32.051327"
         y1="14.657825"
         x2="32.051327"
         y2="75.934349"
         gradientUnits="userSpaceOnUse" />
    </defs>
    <linearGradient
       inkscape:collect="always"
       xlink:href="#linearGradient1828"
       id="linearGradient1247"
       gradientUnits="userSpaceOnUse"
       gradientTransform="matrix(0.371303,0.000000,0.000000,0.371311,16.53951,19.30413)"
       x1="32.051327"
       y1="14.657825"
       x2="32.051327"
       y2="75.934349" />
    <linearGradient
       inkscape:collect="always"
       xlink:href="#linearGradient1828"
       id="linearGradient1250"
       gradientUnits="userSpaceOnUse"
       gradientTransform="matrix(0.371303,0.000000,0.000000,0.371311,24.63962,42.13172)"
       x1="32.051327"
       y1="14.657825"
       x2="32.051327"
       y2="75.934349" />
    <linearGradient
       inkscape:collect="always"
       xlink:href="#linearGradient1828"
       id="linearGradient1253"
       gradientUnits="userSpaceOnUse"
       gradientTransform="matrix(0.371303,0.000000,0.000000,0.371311,44.15353,27.77243)"
       x1="32.051327"
       y1="14.657825"
       x2="32.051327"
       y2="75.934349" />
  </defs>
  <sodipodi:namedview
     id="base"
     inkscape:zoom="3.5649966"
     inkscape:cx="39.397214"
     inkscape:cy="38.736873"
     inkscape:window-width="640"
     inkscape:window-height="708"
     inkscape:window-x="5"
     inkscape:window-y="25"
     inkscape:current-layer="svg604"
     showgrid="false" />
  <path
     style="fill:#000000;fill-rule:evenodd;stroke:none;stroke-opacity:1;stroke-width:1pt;stroke-linejoin:miter;stroke-linecap:butt;fill-opacity:0.301471;"
     d="M 12.8163 74.753 C 10.3856 73.6481 7.07107 70.1126 8.83884 65.2512 C 9.72267 59.948 25.6326 13.1021 29.1682 10.8924 C 31.3778 8.90368 34.582 8.13026 39.1119 9.34561 C 42.8684 10.2295 76.6769 19.0684 78.6656 20.8361 C 80.6544 22.6039 82.2012 24.0402 80.6544 27.9072 C 79.5496 29.8959 66.4017 74.532 66.1808 77.4047 C 65.2969 80.4983 62.7558 84.2548 58.5573 84.0338 C 54.3589 83.8128 15.9099 75.4159 12.8163 74.753 z "
     id="path794"
     sodipodi:nodetypes="ccccccccc"
     transform="matrix(1.114903,0.000000,0.000000,1.114903,-5.305332,-3.889256)" />
  <path
     style="fill:#3d4e67;fill-rule:evenodd;stroke:none;stroke-opacity:1;stroke-width:1pt;stroke-linejoin:miter;stroke-linecap:butt;fill-opacity:1;"
     d="M 12.8163 74.753 C 10.3856 73.6481 7.07107 70.1126 8.83884 65.2512 C 9.72267 59.948 25.6326 13.1021 29.1682 10.8924 C 31.3778 8.90368 34.582 8.13026 39.1119 9.34561 C 42.8684 10.2295 76.6769 19.0684 78.6656 20.8361 C 80.6544 22.6039 82.2012 24.0402 80.6544 27.9072 C 79.5496 29.8959 66.4017 74.532 66.1808 77.4047 C 65.2969 80.4983 62.7558 84.2548 58.5573 84.0338 C 54.3589 83.8128 15.9099 75.4159 12.8163 74.753 z "
     id="path609"
     sodipodi:nodetypes="ccccccccc"
     transform="matrix(1.114903,0.000000,0.000000,1.114903,-8.162471,-8.460684)" />
  <path
     style="fill:#ffffff;fill-rule:evenodd;stroke:none;stroke-opacity:1;stroke-width:1pt;stroke-linejoin:miter;stroke-linecap:butt;fill-opacity:1;"
     d="M 17.8987 70.9965 C 15.3576 70.3336 11.7114 69.6706 13.0373 65.6932 C 15.468 55.9705 27.8424 18.6264 33.1456 13.986 C 34.361 12.8811 38.4489 12.4392 46.1829 14.8699 C 55.0218 17.5215 72.9204 23.4877 74.6882 24.3716 C 76.4559 25.2555 77.1189 25.2555 75.793 29.233 C 73.8043 33.2105 64.9655 67.24 62.7557 72.9852 C 61.209 77.0732 60.8775 78.9514 58.2258 78.9514 "
     id="path608"
     sodipodi:nodetypes="cccccccs"
     transform="matrix(1.114903,0.000000,0.000000,1.114903,-8.162471,-8.460684)" />
  <path
     style="fill:url(#linearGradient615);fill-rule:evenodd;stroke:none;stroke-opacity:1;stroke-width:1pt;stroke-linejoin:miter;stroke-linecap:butt;fill-opacity:1;"
     d="M 28.75 13.75 C 28.75 13.75 31.875 7.49995 39.6875 9.37495 C 47.5 11.25 78.125 19.375 77.8125 21.875 C 77.5 24.375 71.875 39.0625 71.5625 40.3125 C 71.25 41.5625 42.5 40.9375 31.5625 47.5 C 20.625 54.0625 12.5 59.6875 12.5 59.6875 C 12.5 59.6875 23.75 24.6875 28.75 13.75 z "
     id="path636"
     transform="matrix(0.946780,0.000000,0.000000,0.946780,-0.480566,0.409517)" />
  <use
     x="0"
     y="0"
     xlink:href="#g2446"
     id="use2452"
     transform="translate(27.489507,8.4151552)"
     width="90"
     height="90" />
  <g
     id="g2446">
    <path
       id="path1863"
       d="M 33.627060,24.907738 C 32.555037,24.598321 31.447393,25.209781 31.137976,26.281803 L 30.677533,27.877077 C 30.227211,27.891168 29.784711,27.933005 29.348168,28.016505 L 28.550719,26.571948 C 28.011476,25.595122 26.785398,25.241241 25.808572,25.780484 L 24.750445,26.371858 C 23.773620,26.911101 23.422225,28.128556 23.961469,29.105382 L 24.752785,30.538828 C 24.445051,30.862943 24.165272,31.210890 23.909178,31.584460 L 22.348397,31.133973 C 21.276373,30.824555 20.157618,31.442150 19.848199,32.514172 L 19.512201,33.678292 C 19.202784,34.750315 19.822867,35.860448 20.894890,36.169865 L 22.421180,36.610397 C 22.433134,37.077127 22.478935,37.535762 22.565409,37.987856 L 21.176411,38.754633 C 20.199586,39.293877 19.848191,40.511332 20.387436,41.488157 L 20.978810,42.546284 C 21.518054,43.523112 22.735508,43.874504 23.712335,43.335261 L 25.079108,42.580751 C 25.419924,42.904668 25.782187,43.201078 26.177636,43.467648 L 25.747059,44.959444 C 25.437642,46.031468 26.049102,47.139113 27.121125,47.448529 L 28.285244,47.784528 C 29.357268,48.093946 30.464913,47.482486 30.774329,46.410463 L 31.207394,44.910043 C 31.680241,44.894686 32.141068,44.842816 32.598453,44.751056 L 33.352963,46.117830 C 33.892207,47.094656 35.109660,47.446049 36.086487,46.906805 L 37.150748,46.326541 C 38.127575,45.787298 38.481457,44.561222 37.942212,43.584396 L 37.181570,42.206511 C 37.495650,41.870028 37.778797,41.506337 38.037619,41.117761 L 39.563908,41.558293 C 40.635931,41.867711 41.743574,41.256251 42.052991,40.184227 L 42.388991,39.020108 C 42.698409,37.948086 42.089439,36.831818 41.017416,36.522401 L 39.456634,36.071914 C 39.438934,35.617885 39.379529,35.174673 39.291336,34.735082 L 40.724781,33.943766 C 41.701609,33.404523 42.053002,32.187069 41.513758,31.210242 L 40.933493,30.145982 C 40.394251,29.169155 39.176799,28.817762 38.199971,29.357005 L 36.744301,30.160589 C 36.420567,29.858102 36.076899,29.579545 35.704802,29.328095 L 36.165246,27.732822 C 36.474663,26.660798 35.863202,25.553154 34.791180,25.243737 L 33.627060,24.907738 z M 32.081793,32.430000 C 34.271508,33.062016 35.535551,35.351799 34.903535,37.541513 C 34.271519,39.731227 31.981736,40.995271 29.792022,40.363255 C 27.602309,39.731239 26.338264,37.441456 26.970281,35.251742 C 27.602296,33.062028 29.892079,31.797984 32.081793,32.430000 z "
       style="fill:#000000;fill-opacity:0.34444442;stroke:none;stroke-width:3.8674629;stroke-linecap:round;stroke-linejoin:round;stroke-miterlimit:4.0000000;stroke-opacity:1.0000000" />
    <path
       id="path1864"
       d="M 31.969988,23.250665 C 30.897965,22.941248 29.790320,23.552708 29.480903,24.624731 L 29.020461,26.220005 C 28.570139,26.234096 28.127638,26.275933 27.691096,26.359433 L 26.893647,24.914876 C 26.354402,23.938048 25.128326,23.584168 24.151500,24.123411 L 23.093372,24.714785 C 22.116547,25.254029 21.765152,26.471483 22.304397,27.448309 L 23.095711,28.881755 C 22.787978,29.205871 22.508201,29.553818 22.252106,29.927388 L 20.691325,29.476901 C 19.619300,29.167484 18.500545,29.785077 18.191127,30.857100 L 17.855128,32.021219 C 17.545710,33.093243 18.165794,34.203375 19.237817,34.512793 L 20.764107,34.953324 C 20.776061,35.420054 20.821863,35.878690 20.908336,36.330783 L 19.519338,37.097561 C 18.542512,37.636805 18.191119,38.854259 18.730363,39.831085 L 19.321737,40.889212 C 19.860981,41.866039 21.078435,42.217432 22.055262,41.678187 L 23.422036,40.923678 C 23.762851,41.247595 24.125114,41.544005 24.520563,41.810575 L 24.089986,43.302372 C 23.780570,44.374396 24.392030,45.482040 25.464053,45.791457 L 26.628172,46.127456 C 27.700195,46.436873 28.807839,45.825413 29.117256,44.753390 L 29.550322,43.252970 C 30.023169,43.237614 30.483995,43.185745 30.941381,43.093983 L 31.695891,44.460756 C 32.235135,45.437584 33.452587,45.788975 34.429414,45.249732 L 35.493676,44.669470 C 36.470502,44.130225 36.824384,42.904149 36.285140,41.927324 L 35.524497,40.549437 C 35.838577,40.212954 36.121725,39.849264 36.380546,39.460689 L 37.906836,39.901220 C 38.978859,40.210638 40.086501,39.599179 40.395919,38.527155 L 40.731919,37.363036 C 41.041336,36.291013 40.432366,35.174746 39.360344,34.865328 L 37.799561,34.414841 C 37.781860,33.960813 37.722455,33.517601 37.634264,33.078008 L 39.067709,32.286695 C 40.044537,31.747451 40.395930,30.529996 39.856685,29.553171 L 39.276421,28.488908 C 38.737178,27.512082 37.519725,27.160689 36.542898,27.699933 L 35.087229,28.503516 C 34.763494,28.201029 34.419826,27.922472 34.047730,27.671023 L 34.508173,26.075749 C 34.817591,25.003725 34.206130,23.896082 33.134108,23.586665 L 31.969988,23.250665 z M 30.424721,30.772928 C 32.614435,31.404943 33.878479,33.694726 33.246462,35.884439 C 32.614446,38.074154 30.324663,39.338198 28.134950,38.706182 C 25.945235,38.074167 24.681192,35.784383 25.313207,33.594668 C 25.945224,31.404956 28.235006,30.140912 30.424721,30.772928 z "
       style="fill:url(#linearGradient1247);fill-opacity:1.0000000;stroke:#593a28;stroke-width:1.4360162;stroke-linecap:round;stroke-linejoin:round;stroke-miterlimit:4.0000000;stroke-opacity:1.0000000" />
  </g>
  <use
     x="0"
     y="0"
     xlink:href="#g2446"
     id="use2450"
     transform="translate(8.13465,22.861172)"
     width="90"
     height="90" />
</svg>
