<?xml version="1.0" encoding="UTF-8" standalone="no"?>
<!-- Created with Sodipodi ("http://www.sodipodi.com/") -->
<svg
   xmlns:dc="http://purl.org/dc/elements/1.1/"
   xmlns:cc="http://web.resource.org/cc/"
   xmlns:rdf="http://www.w3.org/1999/02/22-rdf-syntax-ns#"
   xmlns:svg="http://www.w3.org/2000/svg"
   xmlns="http://www.w3.org/2000/svg"
   xmlns:xlink="http://www.w3.org/1999/xlink"
   xmlns:sodipodi="http://sodipodi.sourceforge.net/DTD/sodipodi-0.dtd"
   xmlns:inkscape="http://www.inkscape.org/namespaces/inkscape"
   id="svg604"
   sodipodi:version="0.32"
   width="72pt"
   height="72pt"
   sodipodi:docbase="/home/tweenk/GNUtoon/mimetypes"
   sodipodi:docname="text-x-troff-man.svg"
   inkscape:version="0.45.1"
   inkscape:output_extension="org.inkscape.output.svg.inkscape">
  <metadata
     id="metadata2308">
    <rdf:RDF>
      <cc:Work
         rdf:about="">
        <dc:format>image/svg+xml</dc:format>
        <dc:type
           rdf:resource="http://purl.org/dc/dcmitype/StillImage" />
      </cc:Work>
    </rdf:RDF>
  </metadata>
  <defs
     id="defs606">
    <linearGradient
       id="linearGradient666">
      <stop
         style="stop-color:#a6d7ff;stop-opacity:1;"
         offset="0.000000"
         id="stop667" />
      <stop
         style="stop-color:#ffffff;stop-opacity:0.396078;"
         offset="1.000000"
         id="stop668" />
    </linearGradient>
    <linearGradient
       xlink:href="#linearGradient666"
       id="linearGradient665"
       x1="77.3604736"
       y1="65.4081421"
       x2="55.6024742"
       y2="83.4317398"
       gradientUnits="userSpaceOnUse"
       gradientTransform="matrix(0.7463529,0,0,0.5150275,8.282344,11.934476)"
       spreadMethod="pad" />
    <linearGradient
       id="linearGradient660">
      <stop
         style="stop-color:#3882d2;stop-opacity:1;"
         offset="0.000000"
         id="stop661" />
      <stop
         style="stop-color:#ffffff;stop-opacity:1;"
         offset="1.000000"
         id="stop662" />
    </linearGradient>
    <linearGradient
       xlink:href="#linearGradient660"
       id="linearGradient663"
       x1="24.8720913"
       y1="97.8506012"
       x2="54.9295425"
       y2="95.5566864"
       gradientUnits="userSpaceOnUse"
       gradientTransform="matrix(0.7463529,0,0,0.5150275,8.282344,11.934476)"
       spreadMethod="pad" />
    <linearGradient
       id="linearGradient612">
      <stop
         style="stop-color:#7fa8e3;stop-opacity:0.741176;"
         offset="0.000000"
         id="stop613" />
      <stop
         style="stop-color:#ffffff;stop-opacity:0;"
         offset="1.000000"
         id="stop614" />
    </linearGradient>
    <linearGradient
       xlink:href="#linearGradient612"
       id="linearGradient615"
       x1="50.6438866"
       y1="5.36792946"
       x2="35.7520943"
       y2="68.0443573"
       gradientUnits="userSpaceOnUse"
       spreadMethod="pad" />
    <linearGradient
       inkscape:collect="always"
       xlink:href="#linearGradient660"
       id="linearGradient2348"
       gradientUnits="userSpaceOnUse"
       gradientTransform="matrix(0.7463529,0,0,0.5150275,10.834857,25.335176)"
       spreadMethod="pad"
       x1="24.8720913"
       y1="97.8506012"
       x2="54.9295425"
       y2="95.5566864" />
    <linearGradient
       inkscape:collect="always"
       xlink:href="#linearGradient666"
       id="linearGradient2350"
       gradientUnits="userSpaceOnUse"
       gradientTransform="matrix(0.7463529,0,0,0.5150275,10.834857,25.335176)"
       spreadMethod="pad"
       x1="77.3604736"
       y1="65.4081421"
       x2="55.6024742"
       y2="83.4317398" />
  </defs>
  <sodipodi:namedview
     id="base"
     inkscape:zoom="4.5222222"
     inkscape:cx="45"
     inkscape:cy="45"
     inkscape:window-width="795"
     inkscape:window-height="619"
     inkscape:window-x="114"
     inkscape:window-y="74"
     inkscape:current-layer="svg604" />
  <path
     style="fill:#000000;fill-rule:evenodd;stroke:none;stroke-opacity:1;stroke-width:1pt;stroke-linejoin:miter;stroke-linecap:butt;fill-opacity:0.301471;"
     d="M 12.8163 74.753 C 10.3856 73.6481 7.07107 70.1126 8.83884 65.2512 C 9.72267 59.948 25.6326 13.1021 29.1682 10.8924 C 31.3778 8.90368 34.582 8.13026 39.1119 9.34561 C 42.8684 10.2295 76.6769 19.0684 78.6656 20.8361 C 80.6544 22.6039 82.2012 24.0402 80.6544 27.9072 C 79.5496 29.8959 66.4017 74.532 66.1808 77.4047 C 65.2969 80.4983 62.7558 84.2548 58.5573 84.0338 C 54.3589 83.8128 15.9099 75.4159 12.8163 74.753 z "
     id="path794"
     sodipodi:nodetypes="ccccccccc"
     transform="matrix(1.114903,0.000000,0.000000,1.114903,-5.305332,-3.889256)" />
  <path
     style="fill:#3d4e67;fill-rule:evenodd;stroke:none;stroke-opacity:1;stroke-width:1pt;stroke-linejoin:miter;stroke-linecap:butt;fill-opacity:1;"
     d="M 12.8163 74.753 C 10.3856 73.6481 7.07107 70.1126 8.83884 65.2512 C 9.72267 59.948 25.6326 13.1021 29.1682 10.8924 C 31.3778 8.90368 34.582 8.13026 39.1119 9.34561 C 42.8684 10.2295 76.6769 19.0684 78.6656 20.8361 C 80.6544 22.6039 82.2012 24.0402 80.6544 27.9072 C 79.5496 29.8959 66.4017 74.532 66.1808 77.4047 C 65.2969 80.4983 62.7558 84.2548 58.5573 84.0338 C 54.3589 83.8128 15.9099 75.4159 12.8163 74.753 z "
     id="path609"
     sodipodi:nodetypes="ccccccccc"
     transform="matrix(1.114903,0.000000,0.000000,1.114903,-8.162471,-8.460684)" />
  <path
     style="fill:#ffffff;fill-rule:evenodd;stroke:none;stroke-opacity:1;stroke-width:1pt;stroke-linejoin:miter;stroke-linecap:butt;fill-opacity:1;"
     d="M 17.8987 70.9965 C 15.3576 70.3336 11.7114 69.6706 13.0373 65.6932 C 15.468 55.9705 27.8424 18.6264 33.1456 13.986 C 34.361 12.8811 38.4489 12.4392 46.1829 14.8699 C 55.0218 17.5215 72.9204 23.4877 74.6882 24.3716 C 76.4559 25.2555 77.1189 25.2555 75.793 29.233 C 73.8043 33.2105 64.9655 67.24 62.7557 72.9852 C 61.209 77.0732 60.8775 78.9514 58.2258 78.9514 "
     id="path608"
     sodipodi:nodetypes="cccccccs"
     transform="matrix(1.114903,0.000000,0.000000,1.114903,-8.162471,-8.460684)" />
  <path
     style="fill:url(#linearGradient615);fill-rule:evenodd;stroke:none;stroke-opacity:1;stroke-width:1pt;stroke-linejoin:miter;stroke-linecap:butt;fill-opacity:1;"
     d="M 28.75 13.75 C 28.75 13.75 31.875 7.49995 39.6875 9.37495 C 47.5 11.25 78.125 19.375 77.8125 21.875 C 77.5 24.375 71.875 39.0625 71.5625 40.3125 C 71.25 41.5625 42.5 40.9375 31.5625 47.5 C 20.625 54.0625 12.5 59.6875 12.5 59.6875 C 12.5 59.6875 23.75 24.6875 28.75 13.75 z "
     id="path636"
     transform="matrix(0.946780,0.000000,0.000000,0.946780,-0.480566,0.409517)" />
  <path
     style="font-size:12px;fill:#000000;fill-opacity:0.17857098;fill-rule:evenodd;stroke-width:1pt"
     d="M 14.718229,36.144799 C 12.874743,36.003038 11.563031,37.988293 11.52758,38.803717 C 10.038614,42.384309 10.038614,45.539541 10.88945,48.907416 C 11.77574,51.459938 12.130256,52.842558 14.292809,52.098087 C 11.350321,56.068672 11.917547,59.401106 13.654675,63.37169 L 40.668785,83.366371 L 77.042115,67.413155 L 70.873559,63.158973 L 70.554521,60.393735 L 74.383269,58.798399 L 69.597334,55.714121 L 73.851514,54.225179 L 68.001998,50.289963 L 67.682959,42.73886 C 66.938416,42.100711 44.072174,29.019057 42.264121,27.74276 C 40.243352,28.487303 15.781772,35.825761 14.718229,36.144799 z "
     id="path819"
     sodipodi:nodetypes="cccccccccccccccc" />
  <path
     style="font-size:12px;fill:#00043b;fill-rule:evenodd;stroke-width:1pt"
     d="M 11.604918,35.426345 C 9.761432,35.284584 8.4497207,37.269839 8.4142688,38.085263 C 6.9253038,41.665856 6.9253038,44.821087 7.7761413,48.188963 C 8.6624317,50.741485 9.0169478,52.124105 11.1795,51.379634 C 8.2370119,55.350217 8.8042379,58.682652 10.541367,62.653237 L 37.555475,82.647918 L 73.928805,66.694702 L 67.760249,62.44052 L 67.44121,59.675281 L 71.26996,58.079946 L 66.484024,54.995668 L 70.738205,53.506725 L 64.888688,49.57151 L 64.56965,42.020406 C 63.825107,41.382258 40.958863,28.300603 39.150811,27.024307 C 37.130042,27.768849 12.668463,35.107308 11.604918,35.426345 z "
     id="path690"
     sodipodi:nodetypes="cccccccccccccccc" />
  <path
     style="font-size:12px;fill:#00660d;fill-rule:evenodd;stroke-width:1pt"
     d="M 37.198108,79.303837 L 65.209116,65.756041 L 60.998367,62.643673 L 68.687591,66.305294 L 37.198108,79.303837 z "
     id="path657"
     sodipodi:nodetypes="ccccc" />
  <path
     style="font-size:12px;fill:url(#linearGradient2348);fill-rule:evenodd;stroke-width:1pt"
     d="M 36.099665,67.403738 L 34.0858,76.008445 L 37.381254,78.937667 L 65.392201,66.122211 L 64.293757,57.334418 L 36.099665,67.403738 z "
     id="path659" />
  <path
     style="font-size:12px;fill:url(#linearGradient2350);fill-rule:evenodd;stroke-width:1pt"
     d="M 36.099665,67.403738 L 34.0858,76.008445 L 37.381254,78.937667 L 65.392201,66.122211 L 64.293757,57.334418 L 36.099665,67.403738 z "
     id="path664" />
  <path
     style="font-size:12px;fill:#009414;fill-rule:evenodd;stroke-width:1pt"
     d="M 13.581032,51.292827 L 38.66278,69.600685 L 65.941453,57.517503 L 41.408982,42.871204 L 13.581032,51.292827 z "
     id="path655" />
  <path
     style="font-size:12px;fill:#00660d;fill-rule:evenodd;stroke-width:1pt"
     d="M 13.76411,51.292827 C 11.506143,55.381562 10.895882,58.554938 13.581032,61.911398 L 37.74736,79.670003 C 36.221742,76.43562 35.977588,73.201238 38.66278,69.417602 L 13.76411,51.292827 z "
     id="path656"
     sodipodi:nodetypes="ccccc" />
  <path
     style="font-size:12px;fill:#a55800;fill-rule:evenodd;stroke-width:1pt"
     d="M 34.645595,65.903135 L 62.656602,52.355342 L 58.445852,49.242973 L 66.135078,52.904594 L 34.645595,65.903135 z "
     id="path680"
     sodipodi:nodetypes="ccccc" />
  <path
     style="font-size:12px;fill:url(#linearGradient663);fill-rule:evenodd;stroke-width:1pt"
     d="M 33.54715,54.003037 L 31.533287,62.607744 L 34.82874,65.536967 L 62.839688,52.721509 L 61.741243,43.933718 L 33.54715,54.003037 z "
     id="path681" />
  <path
     style="font-size:12px;fill:url(#linearGradient665);fill-rule:evenodd;stroke-width:1pt"
     d="M 33.54715,54.003037 L 31.533287,62.607744 L 34.82874,65.536967 L 62.839688,52.721509 L 61.741243,43.933718 L 33.54715,54.003037 z "
     id="path682" />
  <path
     style="font-size:12px;fill:#ff8900;fill-rule:evenodd;stroke-width:1pt"
     d="M 11.028519,37.892127 L 36.110267,56.199986 L 63.38894,44.116802 L 38.856468,29.470503 L 11.028519,37.892127 z "
     id="path683" />
  <path
     style="font-size:12px;fill:#a45800;fill-rule:evenodd;stroke-width:1pt"
     d="M 11.211597,37.892127 C 8.9536295,41.980862 8.3433684,45.154238 11.028519,48.510699 L 35.194847,66.269304 C 33.669227,63.03492 33.425075,59.800536 36.110267,56.0169 L 11.211597,37.892127 z "
     id="path684"
     sodipodi:nodetypes="ccccc" />
  <path
     style="font-size:12px;fill:none;fill-rule:evenodd;stroke:#ababab;stroke-width:0.72033949pt"
     d="M 34.57752,59.037131 L 54.997705,50.103338"
     id="path685" />
  <path
     style="font-size:12px;fill:none;fill-rule:evenodd;stroke:#afafaf;stroke-width:0.72033949pt"
     d="M 34.364875,61.802372 L 54.359556,53.294009"
     id="path686" />
  <path
     style="font-size:12px;fill:none;fill-rule:evenodd;stroke:#bfbfbf;stroke-width:0.72033949pt"
     d="M 37.342758,72.863258 L 57.550156,63.504031"
     id="path687" />
  <path
     style="font-size:12px;fill:none;fill-rule:evenodd;stroke:#bdbdbd;stroke-width:0.72033949pt;stroke-opacity:0.60714297"
     d="M 37.130042,76.053929 L 56.061214,67.545567"
     id="path688" />
  <path
     style="font-size:12px;fill:#bd0000;fill-rule:evenodd;stroke-width:1pt"
     d="M 37.768191,57.760906 L 38.406341,65.63112 L 40.320714,61.802372 L 42.873238,64.993045 L 41.809728,56.059248 L 37.768191,57.760906 z "
     id="path689" />
  <g
     id="g706"
     transform="matrix(0.5957162,5.3430429e-2,-7.3792672e-2,0.4313346,21.955586,7.0393032)">
    <defs
       id="defs550" />
    <sodipodi:namedview
       id="namedview708" />
    <path
       style="fill:#000000;fill-opacity:0.3;fill-rule:evenodd;stroke:none;stroke-width:1pt;stroke-linecap:butt;stroke-linejoin:miter;stroke-opacity:1"
       d="M 20.3183,54.3906 L 32.0484,61.0936 C 34.981,60.4652 43.1502,57.3232 46.5017,55.019 C 45.2449,53.3432 44.826,50.2013 43.9881,47.8971 C 47.3396,47.0593 66.4011,34.7006 61.1645,16.8959 C 46.7113,-16.6188 10.6828,6.21315 10.4733,8.09835 C 10.2639,9.98353 15.5006,18.9907 16.9669,21.2948 L 26.1834,25.4841 L 32.258,21.9232 C 27.2308,31.3492 19.8994,34.0722 18.2236,36.1669 C 17.3858,36.5858 20.5278,55.019 20.3183,54.3906 z "
       id="path577"
       sodipodi:nodetypes="ccccccccccc"
       transform="matrix(1.097592,0,0,1.071284,3.493831,5.744114)" />
    <path
       sodipodi:type="arc"
       style="fill:#000000;fill-opacity:0.3;fill-rule:evenodd;stroke:none;stroke-width:1pt;stroke-linecap:butt;stroke-linejoin:miter;stroke-opacity:1"
       id="path575"
       d="M 51.947845 68.73909 A 11.939625 10.997026 0 1 1  28.068596,68.73909 A 11.939625 10.997026 0 1 1  51.947845 68.73909 z"
       sodipodi:cx="40.008221"
       sodipodi:cy="68.73909"
       sodipodi:rx="11.939625"
       sodipodi:ry="10.997026"
       transform="matrix(1.226628,0,0,1.25224,-3.373398,-10.63585)" />
    <path
       sodipodi:type="arc"
       style="fill:#2c0000;fill-opacity:1;fill-rule:evenodd;stroke:none;stroke-width:1pt;stroke-linecap:butt;stroke-linejoin:miter;stroke-opacity:1"
       id="path558"
       d="M 51.947845 68.73909 A 11.939625 10.997026 0 1 1  28.068596,68.73909 A 11.939625 10.997026 0 1 1  51.947845 68.73909 z"
       sodipodi:cx="40.008221"
       sodipodi:cy="68.73909"
       sodipodi:rx="11.939625"
       sodipodi:ry="10.997026"
       transform="matrix(1.102574,0,0,1.171428,-0.335725,-6.265821)" />
    <path
       style="fill:#2c0000;fill-opacity:1;fill-rule:evenodd;stroke:none;stroke-width:1pt;stroke-linecap:butt;stroke-linejoin:miter;stroke-opacity:1"
       d="M 20.3183,54.3906 L 32.0484,61.0936 C 34.981,60.4652 43.1502,57.3232 46.5017,55.019 C 45.2449,53.3432 44.826,50.2013 43.9881,47.8971 C 47.3396,47.0593 66.4011,34.7006 61.1645,16.8959 C 46.7113,-16.6188 10.6828,6.21315 10.4733,8.09835 C 10.2639,9.98353 15.5006,18.9907 16.9669,21.2948 L 26.1834,25.4841 L 32.258,21.9232 C 27.2308,31.3492 19.8994,34.0722 18.2236,36.1669 C 17.3858,36.5858 20.5278,55.019 20.3183,54.3906 z "
       id="path556"
       sodipodi:nodetypes="ccccccccccc"
       transform="translate(4.219115,4.470692)" />
    <path
       style="fill:#790000;fill-opacity:1;fill-rule:evenodd;stroke:none;stroke-width:1pt;stroke-linecap:butt;stroke-linejoin:miter;stroke-opacity:1"
       d="M 24.2982,51.877 L 33.5147,48.3161 L 41.6839,53.3432 L 32.2579,56.6947 L 24.2982,51.877 z "
       id="path553"
       sodipodi:nodetypes="ccccc"
       transform="translate(4.219115,4.470692)" />
    <path
       style="fill:#790000;fill-opacity:1;fill-rule:evenodd;stroke:none;stroke-width:1pt;stroke-linecap:butt;stroke-linejoin:miter;stroke-opacity:1"
       d="M 33.5147,48.316 C 33.5147,48.316 40.846,53.7622 41.0555,53.7622 C 41.265,53.7622 39.3798,46.0119 39.3798,46.0119 C 74.5702,22.9705 47.7585,7.88889 45.4544,5.79422 C 55.5089,24.4368 37.7041,38.8901 32.2579,43.0794 C 31.839,46.4309 33.7242,48.9445 33.7242,48.9445 L 33.5147,48.316 z "
       id="path554"
       sodipodi:nodetypes="ccccccc"
       transform="translate(4.219115,4.470692)" />
    <path
       style="fill:#790000;fill-opacity:1;fill-rule:evenodd;stroke:none;stroke-width:1pt;stroke-linecap:butt;stroke-linejoin:miter;stroke-opacity:1"
       d="M 18.4331,16.8959 C 21.3657,18.9907 27.2307,21.0853 27.2307,21.0853 L 37.7041,16.477 C 35.1905,12.7066 26.8118,13.335 18.4331,16.8959 z "
       id="path557"
       sodipodi:nodetypes="cccc"
       transform="translate(4.219115,4.470692)" />
    <path
       style="font-size:12px;fill:#790000;fill-opacity:1;fill-rule:evenodd;stroke-width:1pt"
       d="M 51.1099,70.2053 C 51.1099,74.7725 47.1217,78.4792 42.2077,78.4792 C 37.2935,78.4792 33.3053,74.7725 33.3053,70.2053 C 33.3053,65.6381 44.4154,68.4249 42.2077,61.9314 C 47.1217,61.9314 51.1099,65.6381 51.1099,70.2053 z "
       id="path562"
       transform="matrix(1.003436,0,0,1.091012,2.269937,-1.679497)"
       sodipodi:nodetypes="ccccc" />
    <path
       transform="matrix(0.976369,0,0,1.122264,3.744994,-2.956772)"
       style="font-size:12px;fill:#ff0000;fill-rule:evenodd;stroke-width:1pt"
       d="M 47.549,68.2154 C 47.549,72.3779 43.7954,75.7562 39.1704,75.7562 C 34.5453,75.7562 30.7917,72.3779 30.7917,68.2154 C 30.7917,64.0529 34.5453,60.6746 39.1704,60.6746 C 43.7954,60.6746 47.549,64.0529 47.549,68.2154 z "
       id="path561" />
    <path
       style="fill:#ff0000;fill-opacity:1;fill-rule:evenodd;stroke:none;stroke-width:1pt;stroke-linecap:butt;stroke-linejoin:miter;stroke-opacity:1"
       d="M 21.7846,38.0522 L 24.0887,52.2959 L 33.5147,48.9444 L 32.4674,43.0794 C 32.4674,43.0794 56.5561,28.4167 50.0626,11.4498 C 43.5692,0.976467 31.839,-0.699263 15.71,10.4025 C 17.8047,13.754 19.4804,18.3623 20.3183,18.3623 C 27.4401,14.3824 37.9135,11.8688 38.542,18.7812 C 39.1704,21.9232 25.9739,37.6332 21.7846,38.0522 z "
       id="path552"
       sodipodi:nodetypes="ccccccccc"
       transform="translate(4.219115,4.470692)" />
  </g>
</svg>
