<?xml version="1.0" encoding="UTF-8" standalone="no"?>
<!-- Created with Sodipodi ("http://www.sodipodi.com/") -->
<svg
   xmlns:dc="http://purl.org/dc/elements/1.1/"
   xmlns:cc="http://creativecommons.org/ns#"
   xmlns:rdf="http://www.w3.org/1999/02/22-rdf-syntax-ns#"
   xmlns:svg="http://www.w3.org/2000/svg"
   xmlns="http://www.w3.org/2000/svg"
   xmlns:xlink="http://www.w3.org/1999/xlink"
   xmlns:sodipodi="http://sodipodi.sourceforge.net/DTD/sodipodi-0.dtd"
   xmlns:inkscape="http://www.inkscape.org/namespaces/inkscape"
   id="svg604"
   sodipodi:version="0.32"
   width="72pt"
   height="72pt"
   sodipodi:docbase="/home/tweenk/dev/GartoonRedux/scalable/mimetypes"
   sodipodi:docname="text-x-ocaml.svg"
   inkscape:version="0.45+devel"
   inkscape:output_extension="org.inkscape.output.svg.inkscape">
  <metadata
     id="metadata13">
    <rdf:RDF>
      <cc:Work
         rdf:about="">
        <dc:format>image/svg+xml</dc:format>
        <dc:type
           rdf:resource="http://purl.org/dc/dcmitype/StillImage" />
      </cc:Work>
    </rdf:RDF>
  </metadata>
  <defs
     id="defs606">
    <inkscape:perspective
       sodipodi:type="inkscape:persp3d"
       inkscape:vp_x="-50 : 600 : 1"
       inkscape:vp_y="0 : 1000 : 0"
       inkscape:vp_z="700 : 600 : 1"
       inkscape:persp3d-origin="300 : 400 : 1"
       id="perspective2642" />
    <inkscape:perspective
       sodipodi:type="inkscape:persp3d"
       inkscape:vp_x="-50 : 600 : 1"
       inkscape:vp_y="0 : 1000 : 0"
       inkscape:vp_z="700 : 600 : 1"
       inkscape:persp3d-origin="300 : 400 : 1"
       id="perspective41" />
    <linearGradient
       id="linearGradient3240">
      <stop
         style="stop-color:#ff933d;stop-opacity:1"
         offset="0"
         id="stop3242" />
      <stop
         style="stop-color:#ffc93f;stop-opacity:1"
         offset="1"
         id="stop3244" />
    </linearGradient>
    <linearGradient
       id="linearGradient2186">
      <stop
         id="stop2188"
         offset="0"
         style="stop-color:#558ada;stop-opacity:0" />
      <stop
         id="stop2190"
         offset="1"
         style="stop-color:#a9e2f5;stop-opacity:1" />
    </linearGradient>
    <linearGradient
       id="linearGradient8738">
      <stop
         style="stop-color:#a3dcff;stop-opacity:0;"
         offset="0"
         id="stop8740" />
      <stop
         style="stop-color:#31baff;stop-opacity:1;"
         offset="1"
         id="stop8742" />
    </linearGradient>
    <linearGradient
       id="linearGradient1828">
      <stop
         style="stop-color:#ffc93f;stop-opacity:1.0000000;"
         offset="0.0000000"
         id="stop1829" />
      <stop
         style="stop-color:#f1e36c;stop-opacity:1.0000000;"
         offset="1.0000000"
         id="stop1830" />
    </linearGradient>
    <linearGradient
       id="linearGradient612">
      <stop
         style="stop-color:#7fa8e3;stop-opacity:0.741176;"
         offset="0.000000"
         id="stop613" />
      <stop
         style="stop-color:#ffffff;stop-opacity:0;"
         offset="1.000000"
         id="stop614" />
    </linearGradient>
    <linearGradient
       xlink:href="#linearGradient612"
       id="linearGradient615"
       x1="50.6438866"
       y1="5.36792946"
       x2="35.7520943"
       y2="68.0443573"
       gradientUnits="userSpaceOnUse"
       spreadMethod="pad" />
    <radialGradient
       inkscape:collect="always"
       xlink:href="#linearGradient8738"
       id="radialGradient2189"
       gradientUnits="userSpaceOnUse"
       gradientTransform="matrix(1.2373359,-0.190963,0.1803684,1.1686889,-22.09069,5.37605)"
       cx="45.539635"
       cy="61.32222"
       fx="45.539635"
       fy="61.32222"
       r="27.650103" />
    <linearGradient
       inkscape:collect="always"
       xlink:href="#linearGradient3240"
       id="linearGradient5273"
       x1="14.378461"
       y1="62.078087"
       x2="19.74786"
       y2="55.979942"
       gradientUnits="userSpaceOnUse" />
    <linearGradient
       inkscape:collect="always"
       xlink:href="#linearGradient3240"
       id="linearGradient3202"
       x1="29.892948"
       y1="70.582314"
       x2="31.335085"
       y2="51.66243"
       gradientUnits="userSpaceOnUse" />
    <linearGradient
       inkscape:collect="always"
       xlink:href="#linearGradient3240"
       id="linearGradient3213"
       x1="55.230473"
       y1="60.098877"
       x2="49.268387"
       y2="52.437107"
       gradientUnits="userSpaceOnUse" />
  </defs>
  <sodipodi:namedview
     id="base"
     inkscape:zoom="6.395388"
     inkscape:cx="42.192127"
     inkscape:cy="42.054063"
     inkscape:window-width="1012"
     inkscape:window-height="728"
     inkscape:window-x="2"
     inkscape:window-y="1"
     inkscape:current-layer="svg604"
     showgrid="false" />
  <g
     id="g2198"
     sodipodi:insensitive="true">
    <path
       transform="matrix(1.114903,0,0,1.114903,-5.305332,-3.889256)"
       sodipodi:nodetypes="ccccccccc"
       id="path794"
       d="M 12.8163,74.753 C 10.3856,73.6481 7.07107,70.1126 8.83884,65.2512 C 9.72267,59.948 25.6326,13.1021 29.1682,10.8924 C 31.3778,8.90368 34.582,8.13026 39.1119,9.34561 C 42.8684,10.2295 76.6769,19.0684 78.6656,20.8361 C 80.6544,22.6039 82.2012,24.0402 80.6544,27.9072 C 79.5496,29.8959 66.4017,74.532 66.1808,77.4047 C 65.2969,80.4983 62.7558,84.2548 58.5573,84.0338 C 54.3589,83.8128 15.9099,75.4159 12.8163,74.753 z "
       style="fill:#000000;fill-opacity:0.30147101;fill-rule:evenodd;stroke:none;stroke-width:1pt;stroke-linecap:butt;stroke-linejoin:miter;stroke-opacity:1" />
    <path
       transform="matrix(1.114903,0,0,1.114903,-8.162471,-8.460684)"
       sodipodi:nodetypes="ccccccccc"
       id="path609"
       d="M 12.8163,74.753 C 10.3856,73.6481 7.07107,70.1126 8.83884,65.2512 C 9.72267,59.948 25.6326,13.1021 29.1682,10.8924 C 31.3778,8.90368 34.582,8.13026 39.1119,9.34561 C 42.8684,10.2295 76.6769,19.0684 78.6656,20.8361 C 80.6544,22.6039 82.2012,24.0402 80.6544,27.9072 C 79.5496,29.8959 66.4017,74.532 66.1808,77.4047 C 65.2969,80.4983 62.7558,84.2548 58.5573,84.0338 C 54.3589,83.8128 15.9099,75.4159 12.8163,74.753 z "
       style="fill:#3d4e67;fill-opacity:1;fill-rule:evenodd;stroke:none;stroke-width:1pt;stroke-linecap:butt;stroke-linejoin:miter;stroke-opacity:1" />
    <path
       transform="matrix(1.114903,0,0,1.114903,-8.162471,-8.460684)"
       sodipodi:nodetypes="cccccccs"
       id="path608"
       d="M 17.8987,70.9965 C 15.3576,70.3336 11.7114,69.6706 13.0373,65.6932 C 15.468,55.9705 27.8424,18.6264 33.1456,13.986 C 34.361,12.8811 38.4489,12.4392 46.1829,14.8699 C 55.0218,17.5215 72.9204,23.4877 74.6882,24.3716 C 76.4559,25.2555 77.1189,25.2555 75.793,29.233 C 73.8043,33.2105 64.9655,67.24 62.7557,72.9852 C 61.209,77.0732 60.8775,78.9514 58.2258,78.9514"
       style="fill:#ffffff;fill-opacity:1;fill-rule:evenodd;stroke:none;stroke-width:1pt;stroke-linecap:butt;stroke-linejoin:miter;stroke-opacity:1" />
    <path
       transform="matrix(0.94678,0,0,0.94678,-0.480566,0.409517)"
       id="path636"
       d="M 28.75,13.75 C 28.75,13.75 31.875,7.49995 39.6875,9.37495 C 47.5,11.25 78.125,19.375 77.8125,21.875 C 77.5,24.375 71.875,39.0625 71.5625,40.3125 C 71.25,41.5625 42.5,40.9375 31.5625,47.5 C 20.625,54.0625 12.5,59.6875 12.5,59.6875 C 12.5,59.6875 23.75,24.6875 28.75,13.75 z "
       style="fill:url(#linearGradient615);fill-opacity:1;fill-rule:evenodd;stroke:none;stroke-width:1pt;stroke-linecap:butt;stroke-linejoin:miter;stroke-opacity:1" />
  </g>
  <path
     sodipodi:type="inkscape:offset"
     inkscape:radius="3.3169534"
     inkscape:original="M 30.09375 16.375 C 29.721497 16.450025 29.240895 16.651832 28.65625 17 C 22.599116 21.13907 26.169764 27.665556 31.75 30.96875 C 29.446727 33.000973 28.400678 35.254804 27.78125 38.75 C 20.552882 42.514049 19.699955 43.286828 17.1875 46.1875 C 15.208055 48.472802 16.580766 51.173166 15.21875 53.4375 C 13.695555 56.287181 13.261793 68.82098 22.71875 67.5625 C 19.476092 65.51349 18.506743 61.219321 20.46875 57.375 C 20.094249 53.214466 17.795334 52.987379 17.28125 50.15625 C 16.913338 48.130111 18.115303 47.254654 19.1875 47.75 C 21.708486 48.914672 21.19059 54.433905 21.40625 55.78125 C 21.113437 55.845512 27.061906 46.076967 31.8125 47.59375 C 32.188337 47.713748 32.014901 49.946465 31.3125 50.71875 C 28.779591 53.503672 23.378847 53.422468 21.96875 58.21875 C 20.596942 66.762426 26.281156 69.84393 32.3125 68.75 C 34.481526 68.091139 43.098593 64.849558 44.40625 56.15625 C 43.186774 55.349277 43.030369 54.230073 42.75 52.375 C 45.257239 56.585888 48.222648 55.807809 50.53125 55.5 C 48.946347 56.910584 48.199331 57.291947 46.65625 57.1875 C 44.814358 63.105128 42.649621 65.430096 38.96875 67.5 C 58.92988 67.159041 61.963375 50.383731 58.15625 32.875 C 65.212045 33.039507 73.188665 25.517201 67.53125 20.03125 C 64.640364 17.227983 63.194176 27.596757 54.78125 26.8125 C 53.248022 25.346521 52.37755 25.546221 50.53125 24.78125 C 49.849301 22.525088 48.160177 18.701609 46 18.46875 C 47.62142 21.954693 47.040932 22.845245 47.28125 24.6875 C 46.805441 23.427708 46.239823 19.668996 42.125 17.9375 C 44.098067 20.649842 44.370018 23.331807 44.21875 24.96875 C 43.781011 21.731991 41.201392 19.575656 38.71875 18.90625 C 40.837451 21.033383 41.505678 22.571225 41.75 24.75 C 39.791976 24.69598 37.831213 24.584583 36.21875 25.03125 C 30.927841 21.420423 32.699518 15.849823 30.09375 16.375 z "
     style="opacity:1;color:#000000;fill:#593a28;fill-opacity:1;fill-rule:evenodd;stroke:none;stroke-width:1.64835155;stroke-linecap:butt;stroke-linejoin:miter;marker:none;marker-start:none;marker-mid:none;marker-end:none;stroke-miterlimit:4;stroke-dasharray:none;stroke-dashoffset:0;stroke-opacity:1;visibility:visible;display:inline;overflow:visible;enable-background:accumulate"
     id="path4253"
     d="M 30.875,13.0625 C 30.359111,13.009386 29.860847,13.039677 29.4375,13.125 C 28.477983,13.318384 27.755868,13.687505 26.96875,14.15625 C 26.905278,14.185517 26.842747,14.216783 26.78125,14.25 C 22.831496,16.949017 21.495108,21.645498 22.6875,25.3125 C 23.486302,27.769081 25.16013,29.729403 27.09375,31.4375 C 26.113402,32.947362 25.504005,34.690251 25.03125,36.53125 C 19.114944,39.698029 17.044999,41.309478 14.6875,44.03125 C 13.026043,45.949429 12.738913,48.245004 12.65625,49.625 C 12.573587,51.004996 12.502109,51.507433 12.375,51.71875 C 12.342325,51.769965 12.311063,51.822068 12.28125,51.875 C 11.454784,53.4212 11.22241,54.911863 11.09375,56.78125 C 10.96509,58.650637 11.09478,60.756742 11.65625,62.875 C 12.21772,64.993258 13.237379,67.211272 15.21875,68.84375 C 17.200121,70.476228 20.081649,71.252901 23.15625,70.84375 C 23.391484,70.806117 23.621981,70.743255 23.84375,70.65625 C 26.569247,72.217516 29.802305,72.562975 32.90625,72 C 33.032342,71.986352 33.157548,71.965485 33.28125,71.9375 C 34.085196,71.693294 35.506178,71.076444 37.125,70.25 C 37.687994,70.627918 38.353278,70.824231 39.03125,70.8125 C 49.937728,70.626205 57.305005,65.400261 60.53125,57.9375 C 63.341379,51.437273 63.338163,43.633676 62,35.6875 C 65.197132,34.893987 68.059879,33.142637 70.125,30.71875 C 71.567032,29.026199 72.647839,26.941522 72.75,24.53125 C 72.852161,22.120978 71.809724,19.562639 69.84375,17.65625 C 69.06596,16.902033 67.758996,16.192966 66.375,16.25 C 64.991004,16.307034 64.013034,16.932976 63.375,17.46875 C 62.098932,18.540299 61.480825,19.604105 60.6875,20.5625 C 59.208523,22.349212 58.039727,23.520927 55.59375,23.46875 C 55.006941,23.10011 54.404249,22.58438 53.90625,22.40625 C 53.487808,22.256577 53.26595,22.183251 52.96875,22.09375 C 52.588967,21.109517 52.29198,20.16091 51.65625,19.125 C 50.653244,17.490621 49.255608,15.470137 46.34375,15.15625 C 45.685148,15.088212 45.021254,15.218814 44.4375,15.53125 C 44.429618,15.526817 44.414151,15.535669 44.40625,15.53125 C 44.0443,15.328797 43.809333,15.044615 43.40625,14.875 C 42.097562,14.337068 40.591722,14.688431 39.65625,15.75 C 39.634394,15.743956 39.615609,15.724644 39.59375,15.71875 C 38.673026,15.468582 37.689166,15.626965 36.893467,16.153442 C 36.097767,16.67992 35.567279,17.523513 35.4375,18.46875 C 35.405449,18.366677 35.344565,18.29229 35.3125,18.1875 C 35.069934,17.394783 34.983203,16.571337 34.3125,15.375 C 33.977149,14.776832 33.375881,14.000776 32.40625,13.5 C 31.921435,13.249612 31.390889,13.115614 30.875,13.0625 z " />
  <path
     style="opacity:1;color:#000000;fill:#ffc93f;fill-opacity:1;fill-rule:evenodd;stroke:none;stroke-width:1.64835155;stroke-linecap:butt;stroke-linejoin:miter;marker:none;marker-start:none;marker-mid:none;marker-end:none;stroke-miterlimit:4;stroke-dasharray:none;stroke-dashoffset:0;stroke-opacity:1;visibility:visible;display:inline;overflow:visible;enable-background:accumulate"
     d="M 54.771684,26.798085 C 63.184609,27.582341 64.646184,17.237775 67.53707,20.041042 C 73.194486,25.526993 65.226067,33.049382 58.170272,32.884875 C 61.977398,50.393607 58.945117,67.148065 38.983987,67.489024 C 42.664857,65.419117 44.825667,63.120246 46.667559,57.202618 C 48.210642,57.307065 47.883677,59.422184 48.569495,58.128873 C 49.033336,56.800861 47.583584,54.161683 42.959342,54.810252 C 41.949719,56.196238 43.1897,55.338391 44.409176,56.145364 C 43.101519,64.838671 34.494447,68.089556 32.325421,68.748417 C 26.294076,69.842351 20.586072,66.749912 21.95788,58.206236 C 23.367977,53.409956 28.790945,53.491313 31.323854,50.706391 C 32.026255,49.934105 32.276236,48.116291 31.339168,47.89902 C 27.194783,46.938095 22.986936,52.708682 21.481578,55.458949 C 21.422281,52.860703 21.797004,48.587396 19.276018,47.422724 C 18.203822,46.92738 16.922777,47.805598 17.290689,49.831737 C 17.804773,52.662867 19.849959,52.822499 20.22446,56.983033 C 19.200628,60.59281 20.272967,65.76034 22.733812,67.574806 C 13.276855,68.833286 13.69301,56.297079 15.216205,53.447398 C 16.578221,51.183065 15.20923,48.462684 17.188675,46.177382 C 19.70113,43.276711 20.560371,42.513299 27.788739,38.74925 C 28.408166,35.254053 29.431716,33.011995 31.734989,30.979772 C 26.154753,27.676579 22.614483,21.127936 28.671617,16.988866 C 33.348781,14.20352 30.160605,20.913689 36.207358,25.040348 C 37.819822,24.593681 39.795575,24.694945 41.753599,24.748965 C 41.509275,22.570189 40.84266,21.034582 38.723959,18.907449 C 41.206603,19.576856 43.77119,21.734725 44.208929,24.971484 C 44.360195,23.33454 44.089873,20.6396 42.116806,17.927258 C 46.231629,19.658754 46.800784,23.415919 47.276593,24.675711 C 47.036274,22.833456 47.620989,21.959246 45.999569,18.473303 C 48.159746,18.706162 49.852585,22.533676 50.534534,24.789838 C 52.380834,25.55481 53.238456,25.332106 54.771684,26.798085 z"
     id="path2191"
     sodipodi:nodetypes="csccccccccsscsscccscccccccccccc" />
  <path
     style="opacity:1;color:#000000;fill:#ffe6ba;fill-opacity:1;fill-rule:evenodd;stroke:none;stroke-width:1.64835155;stroke-linecap:butt;stroke-linejoin:miter;marker:none;marker-start:none;marker-mid:none;marker-end:none;stroke-miterlimit:4;stroke-dasharray:none;stroke-dashoffset:0;stroke-opacity:1;visibility:visible;display:inline;overflow:visible;enable-background:accumulate"
     d="M 58.100732,32.89444 C 57.676874,31.263488 59.261568,28.931599 60.570426,28.359821 C 64.979229,26.43383 64.034765,22.33084 66.940399,22.4216 C 68.862635,22.481644 69.967911,25.614622 68.338876,27.694001 C 67.22498,29.115829 64.626313,32.581456 58.100732,32.89444 z "
     id="path3233"
     sodipodi:nodetypes="csssc" />
  <path
     style="opacity:1;color:#000000;fill:url(#linearGradient5273);fill-opacity:1.0;fill-rule:evenodd;stroke:none;stroke-width:1.64835155;stroke-linecap:butt;stroke-linejoin:miter;marker:none;marker-start:none;marker-mid:none;marker-end:none;stroke-miterlimit:4;stroke-dasharray:none;stroke-dashoffset:0;stroke-opacity:1;visibility:visible;display:inline;overflow:visible;enable-background:accumulate"
     d="M 16.03125 49.3125 C 15.906951 50.726756 15.990784 52.154004 15.21875 53.4375 C 13.695555 56.287181 13.261793 68.82098 22.71875 67.5625 C 20.257905 65.748034 19.194917 60.578528 20.21875 56.96875 C 19.844249 52.808216 17.795334 52.674879 17.28125 49.84375 C 17.255279 49.700723 17.260191 49.569007 17.25 49.4375 C 16.86843 49.359031 16.463955 49.332152 16.03125 49.3125 z "
     id="path4255" />
  <path
     style="opacity:1;color:#000000;fill:url(#linearGradient3202);fill-opacity:1;fill-rule:evenodd;stroke:none;stroke-width:1.64835155000000011;stroke-linecap:butt;stroke-linejoin:miter;marker:none;marker-start:none;marker-mid:none;marker-end:none;stroke-miterlimit:4;stroke-dasharray:none;stroke-dashoffset:0;stroke-opacity:1;visibility:visible;display:inline;overflow:visible;enable-background:accumulate"
     d="M 40.90625 47.8125 C 38.559551 47.851692 35.428648 48.318329 31.875 49.53125 C 31.872856 49.541026 31.877243 49.552732 31.875 49.5625 C 31.775338 49.996458 31.570102 50.435518 31.3125 50.71875 C 28.779591 53.503672 23.378847 53.422468 21.96875 58.21875 C 20.596942 66.762426 26.281156 69.84393 32.3125 68.75 C 34.481526 68.091139 43.098593 64.849558 44.40625 56.15625 C 43.186774 55.349277 41.959126 56.198485 42.96875 54.8125 C 43.994198 54.668677 44.835515 54.683122 45.5625 54.8125 C 45.848416 52.027421 45.728755 49.467009 45.34375 48.8125 C 45.001706 48.231026 43.386332 47.771081 40.90625 47.8125 z "
     id="path2423" />
  <path
     style="opacity:1;color:#000000;fill:url(#linearGradient3213);fill-opacity:1;fill-rule:evenodd;stroke:none;stroke-width:1.64835155000000011;stroke-linecap:butt;stroke-linejoin:miter;marker:none;marker-start:none;marker-mid:none;marker-end:none;stroke-miterlimit:4;stroke-dasharray:none;stroke-dashoffset:0;stroke-opacity:1;visibility:visible;display:inline;overflow:visible;enable-background:accumulate"
     d="M 59.125 38.46875 C 49.424213 40.250157 46.661009 51.125159 46.0625 54.9375 C 48.222943 55.524756 48.899083 57.161336 48.5625 58.125 C 47.876682 59.418311 48.199331 57.291947 46.65625 57.1875 C 44.814358 63.105128 42.649621 65.430096 38.96875 67.5 C 56.786091 67.195659 61.108067 53.791239 59.125 38.46875 z "
     id="path3204" />
  <path
     style="opacity:1;color:#000000;fill:#000000;fill-opacity:1;fill-rule:evenodd;stroke:none;stroke-width:1.64835155000000011;stroke-linecap:butt;stroke-linejoin:miter;marker:none;marker-start:none;marker-mid:none;marker-end:none;stroke-miterlimit:4;stroke-dasharray:none;stroke-dashoffset:0;stroke-opacity:1;visibility:visible;display:inline;overflow:visible;enable-background:accumulate"
     d="M 26.581655,30.738544 C 37.839768,29.33128 51.286959,33.083985 53.476036,34.178523 C 55.665114,35.273062 63.01416,35.273062 64.265062,36.523963 C 65.515963,37.774865 69.581393,41.371206 68.79958,43.560284 C 68.017766,45.749361 64.73415,46.062087 63.795974,44.49846 C 62.857798,42.934833 63.952336,38.243953 62.388709,38.243953 C 60.825082,38.243953 55.352388,37.149414 54.257849,36.993052 C 53.788762,39.651217 52.694223,43.091196 49.723332,43.403922 C 47.690617,43.716647 41.663507,42.278022 40.185209,39.025766 C 39.403396,37.305777 38.621582,37.774865 37.37068,38.556678 C 35.768525,39.558024 32.992526,42.309383 26.894381,39.963942 C 24.079853,38.869404 23.767128,33.240347 26.581655,30.738544 z "
     id="path5354"
     sodipodi:nodetypes="csssssccsscc" />
  <path
     style="opacity:1;color:#000000;fill:#ffffff;fill-opacity:1;fill-rule:evenodd;stroke:none;stroke-width:1.64835155000000011;stroke-linecap:butt;stroke-linejoin:miter;marker:none;marker-start:none;marker-mid:none;marker-end:none;stroke-miterlimit:4;stroke-dasharray:none;stroke-dashoffset:0;stroke-opacity:1;visibility:visible;display:inline;overflow:visible;enable-background:accumulate"
     d="M 36.74354,32.393813 C 32.260523,31.820248 25.839495,29.91655 26.218908,34.938639 C 26.37374,36.988066 27.444611,36.921418 27.564155,35.834352 C 27.675221,34.82438 28.394195,33.548812 29.65548,33.195857 C 33.23057,32.195413 34.645182,33.99958 36.74354,32.393813 z "
     id="path5356"
     sodipodi:nodetypes="csssc" />
  <path
     style="opacity:1;color:#000000;fill:#ffffff;fill-opacity:1;fill-rule:evenodd;stroke:none;stroke-width:1.64835155000000011;stroke-linecap:butt;stroke-linejoin:miter;marker:none;marker-start:none;marker-mid:none;marker-end:none;stroke-miterlimit:4;stroke-dasharray:none;stroke-dashoffset:0;stroke-opacity:1;visibility:visible;display:inline;overflow:visible;enable-background:accumulate"
     d="M 41.357929,36.054875 C 41.98338,33.005803 43.468825,33.083985 44.876089,33.240347 C 46.283353,33.39671 48.316068,33.318529 48.785156,34.256705 C 49.254244,35.194881 45.657902,34.256705 44.250638,34.56943 C 42.843374,34.882155 41.98338,38.243953 41.357929,36.054875 z "
     id="path5360" />
</svg>
