<?xml version="1.0" encoding="UTF-8" standalone="no"?>
<!-- Created with Sodipodi ("http://www.sodipodi.com/") -->
<svg
   xmlns:dc="http://purl.org/dc/elements/1.1/"
   xmlns:cc="http://creativecommons.org/ns#"
   xmlns:rdf="http://www.w3.org/1999/02/22-rdf-syntax-ns#"
   xmlns:svg="http://www.w3.org/2000/svg"
   xmlns="http://www.w3.org/2000/svg"
   xmlns:xlink="http://www.w3.org/1999/xlink"
   xmlns:sodipodi="http://sodipodi.sourceforge.net/DTD/sodipodi-0.dtd"
   xmlns:inkscape="http://www.inkscape.org/namespaces/inkscape"
   id="svg604"
   sodipodi:version="0.32"
   width="72pt"
   height="72pt"
   sodipodi:docbase="/home/zeus/.icons/gartoon/scalable/mimetypes/"
   sodipodi:docname="video-x-generic.svg"
   inkscape:version="0.45+devel"
   inkscape:output_extension="org.inkscape.output.svg.inkscape">
  <metadata
     id="metadata3675">
    <rdf:RDF>
      <cc:Work
         rdf:about="">
        <dc:format>image/svg+xml</dc:format>
        <dc:type
           rdf:resource="http://purl.org/dc/dcmitype/StillImage" />
      </cc:Work>
    </rdf:RDF>
  </metadata>
  <defs
     id="defs606">
    <linearGradient
       id="linearGradient612">
      <stop
         style="stop-color:#7fa8e3;stop-opacity:0.741176;"
         offset="0.000000"
         id="stop613" />
      <stop
         style="stop-color:#ffffff;stop-opacity:0;"
         offset="1.000000"
         id="stop614" />
    </linearGradient>
    <linearGradient
       xlink:href="#linearGradient612"
       id="linearGradient615"
       x1="50.6438866"
       y1="5.36792946"
       x2="35.7520943"
       y2="68.0443573"
       gradientUnits="userSpaceOnUse"
       spreadMethod="pad" />
  </defs>
  <sodipodi:namedview
     id="base"
     showgrid="false"
     inkscape:zoom="5.5333333"
     inkscape:cx="45"
     inkscape:cy="45"
     inkscape:window-width="640"
     inkscape:window-height="708"
     inkscape:window-x="0"
     inkscape:window-y="1"
     inkscape:current-layer="svg604" />
  <path
     style="fill:#000000;fill-rule:evenodd;stroke:none;stroke-opacity:1;stroke-width:1pt;stroke-linejoin:miter;stroke-linecap:butt;fill-opacity:0.301471;"
     d="M 12.8163 74.753 C 10.3856 73.6481 7.07107 70.1126 8.83884 65.2512 C 9.72267 59.948 25.6326 13.1021 29.1682 10.8924 C 31.3778 8.90368 34.582 8.13026 39.1119 9.34561 C 42.8684 10.2295 76.6769 19.0684 78.6656 20.8361 C 80.6544 22.6039 82.2012 24.0402 80.6544 27.9072 C 79.5496 29.8959 66.4017 74.532 66.1808 77.4047 C 65.2969 80.4983 62.7558 84.2548 58.5573 84.0338 C 54.3589 83.8128 15.9099 75.4159 12.8163 74.753 z "
     id="path794"
     sodipodi:nodetypes="ccccccccc"
     transform="matrix(1.114903,0.000000,0.000000,1.114903,-5.305332,-3.889256)" />
  <path
     style="fill:#3d4e67;fill-rule:evenodd;stroke:none;stroke-opacity:1;stroke-width:1pt;stroke-linejoin:miter;stroke-linecap:butt;fill-opacity:1;"
     d="M 12.8163 74.753 C 10.3856 73.6481 7.07107 70.1126 8.83884 65.2512 C 9.72267 59.948 25.6326 13.1021 29.1682 10.8924 C 31.3778 8.90368 34.582 8.13026 39.1119 9.34561 C 42.8684 10.2295 76.6769 19.0684 78.6656 20.8361 C 80.6544 22.6039 82.2012 24.0402 80.6544 27.9072 C 79.5496 29.8959 66.4017 74.532 66.1808 77.4047 C 65.2969 80.4983 62.7558 84.2548 58.5573 84.0338 C 54.3589 83.8128 15.9099 75.4159 12.8163 74.753 z "
     id="path609"
     sodipodi:nodetypes="ccccccccc"
     transform="matrix(1.114903,0.000000,0.000000,1.114903,-8.162471,-8.460684)" />
  <path
     style="fill:#ffffff;fill-rule:evenodd;stroke:none;stroke-opacity:1;stroke-width:1pt;stroke-linejoin:miter;stroke-linecap:butt;fill-opacity:1;"
     d="M 17.8987 70.9965 C 15.3576 70.3336 11.7114 69.6706 13.0373 65.6932 C 15.468 55.9705 27.8424 18.6264 33.1456 13.986 C 34.361 12.8811 38.4489 12.4392 46.1829 14.8699 C 55.0218 17.5215 72.9204 23.4877 74.6882 24.3716 C 76.4559 25.2555 77.1189 25.2555 75.793 29.233 C 73.8043 33.2105 64.9655 67.24 62.7557 72.9852 C 61.209 77.0732 60.8775 78.9514 58.2258 78.9514 "
     id="path608"
     sodipodi:nodetypes="cccccccs"
     transform="matrix(1.114903,0.000000,0.000000,1.114903,-8.162471,-8.460684)" />
  <path
     style="fill:url(#linearGradient615);fill-rule:evenodd;stroke:none;stroke-opacity:1;stroke-width:1pt;stroke-linejoin:miter;stroke-linecap:butt;fill-opacity:1;"
     d="M 28.75 13.75 C 28.75 13.75 31.875 7.49995 39.6875 9.37495 C 47.5 11.25 78.125 19.375 77.8125 21.875 C 77.5 24.375 71.875 39.0625 71.5625 40.3125 C 71.25 41.5625 42.5 40.9375 31.5625 47.5 C 20.625 54.0625 12.5 59.6875 12.5 59.6875 C 12.5 59.6875 23.75 24.6875 28.75 13.75 z "
     id="path636"
     transform="matrix(0.946780,0.000000,0.000000,0.946780,-0.480566,0.409517)" />
  <g
     id="g3679">
    <path
       transform="translate(5.142860,-12.00001)"
       sodipodi:nodetypes="ccccccccccccc"
       id="path559"
       d="M 67.7143 20.8571 C 67.9048 22 69.5094 24.7591 69.6999 25.9019 C 67.8904 26.5686 66.6869 27.5383 64.8774 28.205 C 66.4012 34.9669 67.319 38.7993 68.8428 45.5612 C 70.9612 45.2034 72.2713 44.0374 73.7836 42.6695 C 74.0693 44.2886 74.7591 46.6147 75.0448 48.2338 C 60.0003 57.6914 35.2584 67.149 12.2338 67.2122 C 11.7576 65.7836 12.1905 63.1428 11.7143 61.7143 C 13.9221 61.7489 14.6147 61.5816 16.5195 61.3132 C 15.3766 55.5989 14.6377 49.1776 13.4949 43.4633 C 11.2929 43.6307 10.404 43.4949 8.10106 43.5612 C 7.72009 41.5612 7.52382 40.2857 7.14286 38.2857 C 30.4762 36.1905 49.5238 30.9523 67.7143 20.8571 z "
       style="font-size:12;fill-rule:evenodd;stroke-width:1pt;" />
    <path
       transform="translate(5.142860,-12.00001)"
       sodipodi:nodetypes="cccc"
       id="path560"
       d="M 20.9102 59.3924 C 27.3752 59.7628 33.5371 57.9108 39.295 56.0588 C 38.0491 49.4591 37.0053 46.3951 35.7594 39.7954 C 30.3383 42.0851 24.21 43.2636 17.8797 43.533 "
       style="font-size:12;fill:#f1e36c;fill-rule:evenodd;stroke-width:1pt;fill-opacity:1;" />
    <path
       transform="translate(27.97231,-18.06092)"
       sodipodi:nodetypes="cccc"
       id="path561"
       d="M 22.2234 60.6046 C 30.4056 59.6618 35.6583 56.0926 40.8102 53.2304 C 39.5643 46.6307 38.2174 44.6778 36.9715 38.0781 C 31.2474 40.9739 24.4122 43.9706 18.2839 44.7451 "
       style="font-size:12;fill:#f1e36c;fill-rule:evenodd;stroke-width:1pt;fill-opacity:1;" />
    <path
       sodipodi:nodetypes="ccccc"
       id="path563"
       d="M 17.3956 62.593 C 17.3956 63.8494 17.5098 64.9108 17.5098 66.1672 C 19.3789 66.1672 21.1337 66.3623 23.0229 66.0599 C 23.0229 64.8035 23.0027 63.8494 23.0027 62.593 C 21.2076 63.0027 19.2445 62.8954 17.3956 62.593 z "
       style="font-size:12;fill:#ffffff;fill-rule:evenodd;stroke-width:1pt;"
       transform="matrix(0.989443,-0.144927,0.146771,0.989170,0.147348,-9.823467)" />
    <path
       sodipodi:nodetypes="ccccc"
       id="path564"
       d="M 17.3956 62.593 C 17.3956 63.8494 17.5098 64.9108 17.5098 66.1672 C 19.3789 66.1672 21.1337 66.3623 23.0229 66.0599 C 23.0229 64.8035 23.0027 63.8494 23.0027 62.593 C 21.2076 63.0027 19.2445 62.8954 17.3956 62.593 z "
       style="font-size:12;fill:#ffffff;fill-rule:evenodd;stroke-width:1pt;"
       transform="matrix(0.965794,-0.259313,0.261113,0.965308,3.265204,-8.097851)" />
    <path
       sodipodi:nodetypes="ccccc"
       id="path565"
       d="M 17.3956 62.593 C 17.3956 63.8494 17.5098 64.9108 17.5098 66.1672 C 19.3789 66.1672 21.1337 66.3623 23.0229 66.0599 C 23.0229 64.8035 23.0027 63.8494 23.0027 62.593 C 21.2076 63.0027 19.2445 62.8954 17.3956 62.593 z "
       style="font-size:12;fill:#ffffff;fill-rule:evenodd;stroke-width:1pt;"
       transform="matrix(0.965794,-0.259313,0.261113,0.965308,12.35658,-10.52221)" />
    <path
       sodipodi:nodetypes="ccccc"
       id="path566"
       d="M 17.3956 62.593 C 17.3956 63.8494 17.5098 64.9108 17.5098 66.1672 C 19.3789 66.1672 21.1337 66.3623 23.0229 66.0599 C 23.0229 64.8035 23.0027 63.8494 23.0027 62.593 C 21.2076 63.0027 19.2445 62.8954 17.3956 62.593 z "
       style="font-size:12;fill:#ffffff;fill-rule:evenodd;stroke-width:1pt;"
       transform="matrix(0.965794,-0.259313,0.261113,0.965308,21.44796,-13.24963)" />
    <path
       sodipodi:nodetypes="ccccc"
       id="path567"
       d="M 17.3956 62.593 C 17.3956 63.8494 17.5098 64.9108 17.5098 66.1672 C 19.3789 66.1672 21.1337 66.3623 23.0229 66.0599 C 23.0229 64.8035 23.0027 63.8494 23.0027 62.593 C 21.2076 63.0027 19.2445 62.8954 17.3956 62.593 z "
       style="font-size:12;fill:#ffffff;fill-rule:evenodd;stroke-width:1pt;"
       transform="matrix(0.965794,-0.259313,0.261113,0.965308,21.44796,-13.24963)" />
    <path
       sodipodi:nodetypes="ccccc"
       id="path568"
       d="M 17.3956 62.593 C 17.3956 63.8494 17.5098 64.9108 17.5098 66.1672 C 19.3789 66.1672 21.1337 66.3623 23.0229 66.0599 C 23.0229 64.8035 23.0027 63.8494 23.0027 62.593 C 21.2076 63.0027 19.2445 62.8954 17.3956 62.593 z "
       style="font-size:12;fill:#ffffff;fill-rule:evenodd;stroke-width:1pt;"
       transform="matrix(0.965794,-0.259313,0.261113,0.965308,30.03426,-16.78517)" />
    <path
       sodipodi:nodetypes="ccccc"
       id="path569"
       d="M 17.3956 62.593 C 17.3956 63.8494 17.5098 64.9108 17.5098 66.1672 C 19.3789 66.1672 21.1337 66.3623 23.0229 66.0599 C 23.0229 64.8035 23.0027 63.8494 23.0027 62.593 C 21.2076 63.0027 19.2445 62.8954 17.3956 62.593 z "
       style="font-size:12;fill:#ffffff;fill-rule:evenodd;stroke-width:1pt;"
       transform="matrix(0.989443,-0.144927,0.146771,0.989170,-4.297325,-32.65293)" />
    <path
       sodipodi:nodetypes="ccccc"
       id="path570"
       d="M 17.3956 62.593 C 17.3956 63.8494 17.5098 64.9108 17.5098 66.1672 C 19.3789 66.1672 21.1337 66.3623 23.0229 66.0599 C 23.0229 64.8035 23.0027 63.8494 23.0027 62.593 C 21.2076 63.0027 19.2445 62.8954 17.3956 62.593 z "
       style="font-size:12;fill:#ffffff;fill-rule:evenodd;stroke-width:1pt;"
       transform="matrix(0.965794,-0.259313,0.261113,0.965308,-1.179469,-30.92732)" />
    <path
       sodipodi:nodetypes="ccccc"
       id="path571"
       d="M 17.3956 62.593 C 17.3956 63.8494 17.5098 64.9108 17.5098 66.1672 C 19.3789 66.1672 21.1337 66.3623 23.0229 66.0599 C 23.0229 64.8035 23.0027 63.8494 23.0027 62.593 C 21.2076 63.0027 19.2445 62.8954 17.3956 62.593 z "
       style="font-size:12;fill:#ffffff;fill-rule:evenodd;stroke-width:1pt;"
       transform="matrix(0.965794,-0.259313,0.261113,0.965308,7.911911,-33.35167)" />
    <path
       sodipodi:nodetypes="ccccc"
       id="path572"
       d="M 17.3956 62.593 C 17.3956 63.8494 17.5098 64.9108 17.5098 66.1672 C 19.3789 66.1672 21.1337 66.3623 23.0229 66.0599 C 23.0229 64.8035 23.0027 63.8494 23.0027 62.593 C 21.2076 63.0027 19.2445 62.8954 17.3956 62.593 z "
       style="font-size:12;fill:#ffffff;fill-rule:evenodd;stroke-width:1pt;"
       transform="matrix(0.965794,-0.259313,0.261113,0.965308,17.00329,-36.07908)" />
    <path
       sodipodi:nodetypes="ccccc"
       id="path573"
       d="M 17.3956 62.593 C 17.3956 63.8494 17.5098 64.9108 17.5098 66.1672 C 19.3789 66.1672 21.1337 66.3623 23.0229 66.0599 C 23.0229 64.8035 23.0027 63.8494 23.0027 62.593 C 21.2076 63.0027 19.2445 62.8954 17.3956 62.593 z "
       style="font-size:12;fill:#ffffff;fill-rule:evenodd;stroke-width:1pt;"
       transform="matrix(0.965794,-0.259313,0.261113,0.965308,25.58959,-39.61462)" />
  </g>
</svg>
