<?xml version="1.0" encoding="UTF-8" standalone="no"?>
<!DOCTYPE svg PUBLIC "-//W3C//DTD SVG 20010904//EN"
"http://www.w3.org/TR/2001/REC-SVG-20010904/DTD/svg10.dtd">
<!-- Created with Sodipodi ("http://www.sodipodi.com/") -->
<svg
   id="svg596"
   sodipodi:version="0.32"
   width="48pt"
   height="48pt"
   sodipodi:docbase="/home/zeus/.icons/gartoon/scalable/emblems/"
   sodipodi:docname="/home/zeus/.icons/gartoon/scalable/emblems/emblem-art.svg"
   xmlns="http://www.w3.org/2000/svg"
   xmlns:sodipodi="http://sodipodi.sourceforge.net/DTD/sodipodi-0.dtd"
   xmlns:xlink="http://www.w3.org/1999/xlink">
  <defs
     id="defs598">
    <linearGradient
       id="linearGradient626">
      <stop
         style="stop-color:#ff0047;stop-opacity:1;"
         offset="0.000000"
         id="stop627" />
      <stop
         style="stop-color:#ab322d;stop-opacity:0;"
         offset="1.000000"
         id="stop628" />
    </linearGradient>
    <linearGradient
       id="linearGradient618">
      <stop
         style="stop-color:#956d47;stop-opacity:1;"
         offset="0.000000"
         id="stop619" />
      <stop
         style="stop-color:#ab322d;stop-opacity:0;"
         offset="1.000000"
         id="stop620" />
    </linearGradient>
    <linearGradient
       id="linearGradient614">
      <stop
         style="stop-color:#000;stop-opacity:1;"
         offset="0"
         id="stop615" />
      <stop
         style="stop-color:#fff;stop-opacity:1;"
         offset="1"
         id="stop616" />
    </linearGradient>
    <linearGradient
       xlink:href="#linearGradient618"
       id="linearGradient617"
       x1="26.4784317"
       y1="24.4189796"
       x2="33.3173637"
       y2="23.6758289"
       gradientUnits="userSpaceOnUse"
       spreadMethod="pad"
       gradientTransform="scale(0.627016,1.594855)" />
    <linearGradient
       xlink:href="#linearGradient626"
       id="linearGradient625"
       x1="38.4233131"
       y1="77.3980026"
       x2="31.8332996"
       y2="57.6823311"
       gradientUnits="userSpaceOnUse"
       spreadMethod="pad"
       gradientTransform="scale(0.934001,1.070663)" />
  </defs>
  <sodipodi:namedview
     id="base" />
  <g
     id="g704"
     transform="matrix(1.609005,0.000000,0.000000,1.609005,-34.32570,14.82015)">
    <path
       style="font-size:12;fill-opacity:0.389706;fill-rule:evenodd;stroke-width:1pt;"
       d="M 67.911 66.4866 C 67.911 68.1832 66.4512 69.56 64.6525 69.56 C 62.8537 69.56 61.3939 68.1832 61.3939 66.4866 C 61.3939 64.7901 62.8537 63.4132 64.6525 63.4132 C 66.4512 63.4132 67.911 64.7901 67.911 66.4866 z "
       id="path642"
       transform="matrix(0.344009,0.000000,0.000000,0.344009,34.34986,-2.175808)" />
    <path
       style="font-size:12;fill-opacity:0.389706;fill-rule:evenodd;stroke-width:1pt;"
       d="M 61.2458 74.2998 C 59.6905 72.5223 57.1726 73.4851 56.3579 74.7441 C 55.4692 77.8545 56.8764 80.6687 60.5793 79.3357 C 64.2822 78.0026 65.6152 75.929 65.6152 76.0771 C 65.6152 76.2253 62.6529 84.0754 58.2094 84.6678 C 53.7659 85.2603 51.322 85.4084 46.4342 85.4825 C 41.3983 86.3712 38.9544 86.2971 38.9544 86.2971 L 45.1752 77.4102 C 45.1752 77.4102 46.8045 76.5215 49.4706 72.078 C 52.1367 67.6346 56.8763 66.5977 59.2462 68.0789 C 61.3939 68.9675 62.5788 70.1525 63.1713 72.4483 C 63.0232 74.9662 62.5788 75.929 61.2458 74.2998 z "
       id="path643"
       sodipodi:nodetypes="cccccccccccc"
       transform="matrix(0.344009,0.000000,0.000000,0.344009,34.34986,-2.175808)" />
    <path
       style="font-size:12;fill-opacity:0.389706;fill-rule:evenodd;stroke-width:1pt;"
       d="M 37.9176 76.4474 C 40.1393 77.0399 37.5473 80.2243 36.1402 78.0026 C 35.0293 79.5578 35.5477 75.7809 35.5477 75.7809 L 30.808 85.7046 C 30.808 85.7046 38.9544 88.667 42.0648 84.3716 C 45.1752 80.0763 45.5456 77.8545 43.8423 76.0771 C 41.8426 73.3371 40.0652 74.4479 39.3247 74.8922 C 38.5841 75.3366 38.2879 75.6328 37.9176 76.4474 z "
       id="path644"
       sodipodi:nodetypes="cccccccc"
       transform="matrix(0.344009,0.000000,0.000000,0.344009,34.45177,-2.175808)" />
    <path
       style="font-size:12;fill-opacity:0.389706;fill-rule:evenodd;stroke-width:1pt;"
       d="M 36.1402 62.0062 C 36.1402 62.0062 37.0288 56.674 36.7326 53.8598 C 36.2883 47.787 23.5503 -3.31281 14.071 5.57413 C 3.11042 9.86949 16.1446 58.8957 17.7739 61.7099 C 19.4031 64.5241 21.773 66.5977 21.773 66.5977 C 21.773 66.5977 18.07 83.483 31.9189 85.8527 C 36.9549 76.5215 40.5087 72.8006 39.695 68.5973 C 39.2506 66.2275 38.6582 64.0057 36.1402 62.0062 z "
       id="path645"
       sodipodi:nodetypes="cccccccc"
       transform="matrix(0.344009,0.000000,0.000000,0.344009,34.34986,-2.175808)" />
    <path
       style="font-size:12;fill-opacity:0.389706;fill-rule:evenodd;stroke-width:1pt;"
       d="M 46.6564 67.6346 C 48.4338 64.9685 54.5806 66.3015 57.3947 65.7091 C 60.8014 64.8204 59.02 58.5954 55.169 58.5955 C 52.5142 58.0648 46.9527 58.1551 46.6564 67.6346 z "
       id="path650"
       sodipodi:nodetypes="cccc"
       transform="matrix(0.344009,0.000000,0.000000,0.344009,34.34986,-2.175808)" />
  </g>
  <path
     style="font-size:12;fill:#470000;fill-rule:evenodd;stroke-width:1pt;"
     d="M 67.911 66.4866 C 67.911 68.1832 66.4512 69.56 64.6525 69.56 C 62.8537 69.56 61.3939 68.1832 61.3939 66.4866 C 61.3939 64.7901 62.8537 63.4132 64.6525 63.4132 C 66.4512 63.4132 67.911 64.7901 67.911 66.4866 z "
     id="path613"
     transform="matrix(0.553511,0.000000,0.000000,0.553511,20.94335,10.39690)" />
  <path
     style="fill:#470000;fill-rule:evenodd;stroke:none;stroke-opacity:1;stroke-width:1pt;stroke-linejoin:miter;stroke-linecap:butt;fill-opacity:1;"
     d="M 61.2458 74.2998 C 59.6905 72.5223 57.1726 73.4851 56.3579 74.7441 C 55.4692 77.8545 56.8764 80.6687 60.5793 79.3357 C 64.2822 78.0026 65.6152 75.929 65.6152 76.0771 C 65.6152 76.2253 62.6529 84.0754 58.2094 84.6678 C 53.7659 85.2603 51.322 85.4084 46.4342 85.4825 C 41.3983 86.3712 38.9544 86.2971 38.9544 86.2971 L 45.1752 77.4102 C 45.1752 77.4102 46.8045 76.5215 49.4706 72.078 C 52.1367 67.6346 56.8763 66.5977 59.2462 68.0789 C 61.3939 68.9675 62.5788 70.1525 63.1713 72.4483 C 63.0232 74.9662 62.5788 75.929 61.2458 74.2998 z "
     id="path610"
     sodipodi:nodetypes="cccccccccccc"
     transform="matrix(0.553511,0.000000,0.000000,0.553511,20.94335,10.39690)" />
  <path
     style="fill:#230000;fill-rule:evenodd;stroke:none;stroke-opacity:1;stroke-width:1pt;stroke-linejoin:miter;stroke-linecap:butt;fill-opacity:0.99899;"
     d="M 37.9176 76.4474 C 40.1393 77.0399 37.5473 80.2243 36.1402 78.0026 C 35.0293 79.5578 35.5477 75.7809 35.5477 75.7809 L 30.808 85.7046 C 30.808 85.7046 38.9544 88.667 42.0648 84.3716 C 45.1752 80.0763 45.5456 77.8545 43.8423 76.0771 C 41.8426 73.3371 40.0652 74.4479 39.3247 74.8922 C 38.5841 75.3366 38.2879 75.6328 37.9176 76.4474 z "
     id="path609"
     sodipodi:nodetypes="cccccccc"
     transform="matrix(0.553511,0.000000,0.000000,0.553511,21.10733,10.39690)" />
  <path
     style="fill:#230000;fill-rule:evenodd;stroke:none;stroke-opacity:1;stroke-width:1pt;stroke-linejoin:miter;stroke-linecap:butt;fill-opacity:1;"
     d="M 36.1402 62.0062 C 36.1402 62.0062 37.0288 56.674 36.7326 53.8598 C 36.2883 47.787 23.5503 -3.31281 14.071 5.57413 C 3.11042 9.86949 16.1446 58.8957 17.7739 61.7099 C 19.4031 64.5241 21.773 66.5977 21.773 66.5977 C 21.773 66.5977 18.07 83.483 31.9189 85.8527 C 36.9549 76.5215 40.5087 72.8006 39.695 68.5973 C 39.2506 66.2275 38.6582 64.0057 36.1402 62.0062 z "
     id="path608"
     sodipodi:nodetypes="cccccccc"
     transform="matrix(0.553511,0.000000,0.000000,0.553511,20.94335,10.39690)" />
  <path
     style="fill:#f2962c;fill-rule:evenodd;stroke:none;stroke-opacity:1;stroke-width:1pt;stroke-linejoin:miter;stroke-linecap:butt;fill-opacity:1;"
     d="M 19.4031 58.3033 C 22.0692 55.0448 25.0315 52.6749 32.5854 53.4155 C 30.2156 40.2331 21.773 4.68543 15.7002 7.94398 C 8.88697 9.12891 15.2559 48.8239 19.4031 58.3033 z "
     id="path600"
     sodipodi:nodetypes="cccc"
     transform="matrix(0.553511,0.000000,0.000000,0.553511,20.94335,10.39690)" />
  <path
     style="fill:#8b8b8b;fill-rule:evenodd;stroke:none;stroke-opacity:1;stroke-width:1pt;stroke-linejoin:miter;stroke-linecap:butt;fill-opacity:1;"
     d="M 19.8475 59.6363 C 19.8475 59.6363 21.1805 63.9316 24.7353 64.2279 C 26.3646 61.7099 30.0675 61.2656 33.1779 61.4137 C 33.9185 58.5995 34.5109 55.1928 33.326 55.0447 C 31.8449 54.156 23.5504 52.5268 19.8475 59.6363 z "
     id="path601"
     sodipodi:nodetypes="ccccc"
     transform="matrix(0.553511,0.000000,0.000000,0.553511,20.94335,10.39690)" />
  <path
     style="fill:#65532d;fill-rule:evenodd;stroke:none;stroke-opacity:1;stroke-width:1pt;stroke-linejoin:miter;stroke-linecap:butt;fill-opacity:1;"
     d="M 24.8834 66.4496 C 25.624 63.1911 31.2524 60.9694 33.7703 63.6354 C 39.8431 67.0421 37.177 75.4847 34.5109 75.6328 C 33.7703 86.149 40.8799 80.3724 40.7318 78.1508 C 46.0639 77.4102 41.7686 84.9641 38.2138 84.5197 C 33.326 85.2603 20.2918 80.8169 24.8834 66.4496 z "
     id="path602"
     sodipodi:nodetypes="cccccc"
     transform="matrix(0.553511,0.000000,0.000000,0.553511,20.94335,10.39690)" />
  <path
     style="fill:#bc0000;fill-rule:evenodd;stroke:none;stroke-opacity:1;stroke-width:1pt;stroke-linejoin:miter;stroke-linecap:butt;fill-opacity:1;"
     d="M 44.5828 81.2612 C 44.7309 81.4093 46.6564 81.2612 47.6932 79.4838 C 48.73 77.7064 52.2848 70.4487 54.8028 70.3006 C 60.8755 68.0789 60.8755 72.2261 60.8755 72.2261 C 60.8755 72.2261 55.2471 70.1525 54.6546 73.7073 C 54.0622 77.2621 53.0254 79.3357 59.8386 82.1499 C 55.9877 83.4829 43.966 83.74 43.2253 83.74 C 42.4847 83.74 44.7309 81.1131 44.5828 81.2612 z "
     id="path603"
     sodipodi:nodetypes="cccccccc"
     transform="matrix(0.553511,0.000000,0.000000,0.553511,20.94335,10.39690)" />
  <path
     style="fill:#470000;fill-rule:evenodd;stroke:none;stroke-opacity:1;stroke-width:1pt;stroke-linejoin:miter;stroke-linecap:butt;fill-opacity:1;"
     d="M 46.6564 67.6346 C 48.4338 64.9685 54.5806 66.3015 57.3947 65.7091 C 60.8014 64.8204 59.02 58.5954 55.169 58.5955 C 52.5142 58.0648 46.9527 58.1551 46.6564 67.6346 z "
     id="path611"
     sodipodi:nodetypes="cccc"
     transform="matrix(0.553511,0.000000,0.000000,0.553511,20.94335,10.39690)" />
  <path
     style="fill:#bc0000;fill-rule:evenodd;stroke:none;stroke-opacity:1;stroke-width:1pt;stroke-linejoin:miter;stroke-linecap:butt;fill-opacity:1;"
     d="M 48.1376 64.8204 C 48.1376 64.8204 54.5065 64.2279 56.1358 64.2279 C 58.0613 64.6397 58.1915 61.7181 56.5801 60.6731 C 53.766 58.7476 49.9149 58.5995 48.1376 64.8204 z "
     id="path604"
     sodipodi:nodetypes="cccc"
     transform="matrix(0.553511,0.000000,0.000000,0.553511,20.94335,10.39690)" />
  <path
     style="font-size:12;fill:#bc0000;fill-rule:evenodd;stroke-width:1pt;"
     d="M 66.8001 66.5977 C 66.8001 67.7424 65.838 68.6714 64.6524 68.6714 C 63.4669 68.6714 62.5048 67.7424 62.5048 66.5977 C 62.5048 65.4531 63.4669 64.5241 64.6524 64.5241 C 65.838 64.5241 66.8001 65.4531 66.8001 66.5977 z "
     id="path606"
     transform="matrix(0.553511,0.000000,0.000000,0.553511,20.94335,10.39690)" />
  <path
     style="fill:url(#linearGradient617);fill-rule:evenodd;stroke:none;stroke-opacity:1;stroke-width:1pt;stroke-linejoin:miter;stroke-linecap:butt;fill-opacity:1;"
     d="M 19.4031 58.3033 C 22.0692 55.0448 25.0315 52.6749 32.5854 53.4155 C 30.2156 40.2331 21.773 4.68543 15.7002 7.94398 C 8.88697 9.12891 15.2559 48.8239 19.4031 58.3033 z "
     id="path621"
     sodipodi:nodetypes="cccc"
     transform="matrix(0.553511,0.000000,0.000000,0.553511,20.94335,10.39690)" />
  <path
     style="fill:#f2d0a8;fill-rule:evenodd;stroke:none;stroke-opacity:1;stroke-width:1pt;stroke-linejoin:miter;stroke-linecap:butt;fill-opacity:1;"
     d="M 28.4382 52.5267 C 25.1369 52.6775 14.6017 8.00417 18.6625 10.462 C 19.6179 11.1298 34.3749 52.522 28.4382 52.5267 z "
     id="path622"
     sodipodi:nodetypes="css"
     transform="matrix(0.553511,0.000000,0.000000,0.553511,20.94335,10.39690)" />
  <path
     style="fill:#f2f2f2;fill-rule:evenodd;stroke:none;stroke-opacity:1;stroke-width:1pt;stroke-linejoin:miter;stroke-linecap:butt;fill-opacity:1;"
     d="M 30.5118 54.4523 L 31.1043 61.2656 L 27.6976 62.0062 L 26.2165 54.6003 C 26.2165 54.6003 30.2156 54.1561 30.5118 54.4523 z "
     id="path623"
     sodipodi:nodetypes="ccccc"
     transform="matrix(0.553511,0.000000,0.000000,0.553511,20.94335,10.39690)" />
  <path
     style="fill:url(#linearGradient625);fill-rule:evenodd;stroke:none;stroke-opacity:1;stroke-width:1pt;stroke-linejoin:miter;stroke-linecap:butt;fill-opacity:1;"
     d="M 24.8834 66.4496 C 25.624 63.1911 31.2524 60.9694 33.7703 63.6354 C 39.8431 67.0421 37.177 75.4847 34.5109 75.6328 C 33.7703 86.149 40.8799 80.3724 40.7318 78.1508 C 46.0639 77.4102 41.7686 84.9641 38.2138 84.5197 C 33.326 85.2603 20.2918 80.8169 24.8834 66.4496 z "
     id="path624"
     sodipodi:nodetypes="cccccc"
     transform="matrix(0.553511,0.000000,0.000000,0.553511,20.94335,10.39690)" />
</svg>
