<?xml version="1.0" encoding="UTF-8" standalone="no"?>
<!-- Created with Sodipodi ("http://www.sodipodi.com/") -->
<svg
   xmlns:dc="http://purl.org/dc/elements/1.1/"
   xmlns:cc="http://web.resource.org/cc/"
   xmlns:rdf="http://www.w3.org/1999/02/22-rdf-syntax-ns#"
   xmlns:svg="http://www.w3.org/2000/svg"
   xmlns="http://www.w3.org/2000/svg"
   xmlns:xlink="http://www.w3.org/1999/xlink"
   xmlns:sodipodi="http://sodipodi.sourceforge.net/DTD/sodipodi-0.dtd"
   xmlns:inkscape="http://www.inkscape.org/namespaces/inkscape"
   id="svg704"
   sodipodi:version="0.32"
   width="72pt"
   height="72pt"
   sodipodi:docbase="/home/nathan/GNUtoon/scalable"
   sodipodi:docname="network-error.svg"
   inkscape:version="0.45.1"
   inkscape:output_extension="org.inkscape.output.svg.inkscape">
  <metadata
     id="metadata105">
    <rdf:RDF>
      <cc:Work
         rdf:about="">
        <dc:format>image/svg+xml</dc:format>
        <dc:type
           rdf:resource="http://purl.org/dc/dcmitype/StillImage" />
      </cc:Work>
    </rdf:RDF>
  </metadata>
  <defs
     id="defs706">
    <linearGradient
       id="linearGradient1341">
      <stop
         style="stop-color:#545554;stop-opacity:1;"
         offset="0.000000"
         id="stop1342" />
      <stop
         style="stop-color:#ffffff;stop-opacity:1;"
         offset="1.000000"
         id="stop1343" />
    </linearGradient>
    <linearGradient
       id="linearGradient734">
      <stop
         style="stop-color:#2a2535;stop-opacity:1;"
         offset="0.000000"
         id="stop735" />
      <stop
         style="stop-color:#e3e1cf;stop-opacity:1;"
         offset="1.000000"
         id="stop736" />
    </linearGradient>
    <linearGradient
       id="linearGradient724">
      <stop
         style="stop-color:#ffffff;stop-opacity:0.490196;"
         offset="0.000000"
         id="stop725" />
      <stop
         style="stop-color:#ffffff;stop-opacity:0.176471;"
         offset="1.000000"
         id="stop726" />
    </linearGradient>
    <linearGradient
       id="linearGradient718">
      <stop
         style="stop-color:#e3e1cf;stop-opacity:1;"
         offset="0.000000"
         id="stop719" />
      <stop
         style="stop-color:#ffffff;stop-opacity:1;"
         offset="1.000000"
         id="stop720" />
    </linearGradient>
    <linearGradient
       xlink:href="#linearGradient718"
       id="linearGradient721"
       x1="45.4330635"
       y1="41.9262352"
       x2="24.0375099"
       y2="27.2048512"
       gradientUnits="userSpaceOnUse"
       spreadMethod="pad"
       gradientTransform="scale(1.033999,0.967119)" />
    <linearGradient
       xlink:href="#linearGradient724"
       id="linearGradient723"
       x1="40.2607956"
       y1="39.8445053"
       x2="37.3197212"
       y2="68.6665039"
       gradientUnits="userSpaceOnUse"
       spreadMethod="pad"
       gradientTransform="scale(1.185464,0.843551)" />
    <linearGradient
       xlink:href="#linearGradient1341"
       id="linearGradient732"
       x1="50.9139214"
       y1="48.5837708"
       x2="36.7141457"
       y2="33.2703362"
       gradientUnits="userSpaceOnUse"
       spreadMethod="reflect"
       gradientTransform="scale(0.992891,1.007159)" />
    <radialGradient
       xlink:href="#linearGradient734"
       id="radialGradient733"
       cx="33.2134209"
       cy="118.190964"
       fx="33.2134209"
       fy="118.190964"
       r="14.8945398"
       gradientUnits="userSpaceOnUse"
       spreadMethod="pad"
       gradientTransform="scale(1.559286,0.641319)" />
    <radialGradient
       xlink:href="#linearGradient734"
       id="radialGradient738" />
    <linearGradient
       xlink:href="#linearGradient1341"
       id="linearGradient1345" />
  </defs>
  <sodipodi:namedview
     id="base" />
  <g
     id="g1350"
     transform="translate(-5.678229,-4.258671)">
    <path
       style="fill:none;fill-rule:evenodd;stroke:#818181;stroke-opacity:1;stroke-width:3.375;stroke-linejoin:miter;stroke-linecap:butt;fill-opacity:1;stroke-dasharray:none;"
       d="M 77.5079 41.1672 C 85.1735 45.4259 88.0125 71.2177 68.9905 68.1388 C 47.0476 64.6331 57.918 87.1609 34.3533 78.0757 "
       id="path1347"
       sodipodi:nodetypes="css"
       transform="translate(3.974767,3.974762)" />
    <path
       style="fill:none;fill-rule:evenodd;stroke:#565656;stroke-opacity:1;stroke-width:1.125;stroke-linejoin:miter;stroke-linecap:butt;fill-opacity:1;stroke-dasharray:none;"
       d="M 77.7918 38.8959 C 85.4574 43.1546 88.0125 71.2177 68.9905 68.1388 C 47.0476 64.6331 57.918 87.1609 34.3533 78.0757 "
       id="path1348"
       sodipodi:nodetypes="css"
       transform="translate(5.110407,5.394316)" />
    <path
       style="fill:none;fill-rule:evenodd;stroke:#d7d7d7;stroke-opacity:1;stroke-width:0.875;stroke-linejoin:miter;stroke-linecap:butt;fill-opacity:1;stroke-dasharray:none;"
       d="M 77.5079 41.1672 C 85.1735 45.4259 88.0125 71.2177 68.9905 68.1388 C 47.0476 64.6331 57.918 87.1609 34.3533 78.0757 "
       id="path1349"
       sodipodi:nodetypes="css"
       transform="translate(3.974767,3.974762)" />
  </g>
  <g
     id="g1262"
     transform="matrix(0.719805,0.000000,0.000000,0.719805,0.382663,24.75122)">
    <path
       transform="matrix(1.010086,0.132643,-0.112456,1.191397,-6.209640,-26.79529)"
       style="font-size:12;fill:#000000;fill-rule:evenodd;stroke-width:1pt;fill-opacity:0.3;"
       d="M 67.6563 79.6875 C 67.6563 84.0863 58.9763 87.6563 48.2813 87.6563 C 37.5863 87.6563 28.9063 84.0863 28.9063 79.6875 C 28.9063 75.2887 37.5863 71.7187 48.2813 71.7187 C 58.9763 71.7187 67.6563 75.2887 67.6563 79.6875 z "
       id="path744" />
    <path
       style="fill:#000000;fill-rule:evenodd;stroke:none;stroke-opacity:1;stroke-width:1pt;stroke-linejoin:miter;stroke-linecap:butt;fill-opacity:0.3;"
       d="M 11.9721 61.9975 C 10.1055 59.3328 1.05153 37.445 8.81341 5.71367 C 40.7348 -0.836156 68.3995 11.3724 82.7618 20.5532 C 85.6926 26.6343 80.6883 72.3183 69.9704 76.7947 C 62.7829 79.1385 25.173 78.4924 11.9721 61.9975 z "
       id="path743"
       sodipodi:nodetypes="ccccc"
       transform="matrix(0.762481,0.000000,0.000000,0.762481,0.453728,12.33407)" />
    <path
       transform="matrix(0.934540,0.118698,-0.104046,1.066138,-4.697670,-17.17464)"
       style="font-size:12;fill:#211301;fill-rule:evenodd;stroke-width:1pt;"
       d="M 67.6563 79.6875 C 67.6563 84.0863 58.9763 87.6563 48.2813 87.6563 C 37.5863 87.6563 28.9063 84.0863 28.9063 79.6875 C 28.9063 75.2887 37.5863 71.7187 48.2813 71.7187 C 58.9763 71.7187 67.6563 75.2887 67.6563 79.6875 z "
       id="path739" />
    <path
       sodipodi:type="arc"
       style="fill-rule:evenodd;stroke:none;fill:url(#radialGradient733);fill-opacity:1;stroke-opacity:1;stroke-width:1pt;stroke-linejoin:miter;stroke-linecap:butt;"
       id="path731"
       d="M 67.656265 79.687500 A 19.375004 7.968754 0 1 0 28.906258,79.687500 A 19.375 7.96875 0 1 0 67.6563 79.6875 L 48.281261 79.687500 z"
       sodipodi:cx="48.281261"
       sodipodi:cy="79.687500"
       sodipodi:rx="19.375004"
       sodipodi:ry="7.968754"
       transform="matrix(0.773175,9.381129e-2,-8.608107e-2,0.842604,1.661600,0.854568)" />
    <path
       transform="matrix(0.847950,7.574809e-2,-9.203027e-2,0.697931,0.937704,13.47022)"
       style="font-size:12;fill:#211301;fill-rule:evenodd;stroke-width:1pt;fill-opacity:1;"
       d="M 58.9063 75.9375 C 58.9063 79.56 53.2713 82.5 46.3281 82.5 C 39.385 82.5 33.75 79.56 33.75 75.9375 C 33.75 72.315 39.385 69.375 46.3281 69.375 C 53.2713 69.375 58.9063 72.315 58.9063 75.9375 z "
       id="path730" />
    <path
       style="font-size:12;fill:#bebdae;fill-rule:evenodd;stroke-width:1pt;fill-opacity:1;"
       d="M 58.9063 75.9375 C 58.9063 79.56 53.2713 82.5 46.3281 82.5 C 39.385 82.5 33.75 79.56 33.75 75.9375 C 33.75 72.315 39.385 69.375 46.3281 69.375 C 53.2713 69.375 58.9063 72.315 58.9063 75.9375 z "
       id="path728"
       transform="matrix(0.737541,6.034318e-2,-8.004759e-2,0.555992,5.142812,24.38289)" />
    <path
       style="fill:#211301;fill-rule:evenodd;stroke:none;stroke-opacity:1;stroke-width:1pt;stroke-linejoin:miter;stroke-linecap:butt;fill-opacity:1;"
       d="M 11.9721 61.9975 C 10.1055 59.3328 1.05153 37.445 8.81341 5.71367 C 40.7348 -0.836156 68.3995 11.3724 82.7618 20.5532 C 85.6926 26.6343 80.6883 72.3183 69.9704 76.7947 C 62.7829 79.1385 25.173 78.4924 11.9721 61.9975 z "
       id="path715"
       sodipodi:nodetypes="ccccc"
       transform="matrix(0.762481,0.000000,0.000000,0.762481,-2.993964,12.50645)" />
    <path
       style="fill:url(#linearGradient721);fill-rule:evenodd;stroke:none;stroke-opacity:1;stroke-width:1pt;stroke-linejoin:miter;stroke-linecap:butt;fill-opacity:1;"
       d="M 15.4688 60.7812 C 13.9062 57.8125 5.15625 41.0937 11.0938 8.90623 C 44.6875 2.81248 67.0312 15.7812 80.9375 23.5937 C 82.5 29.2188 77.3437 71.4062 68.9062 73.9062 C 61.7187 76.25 25.7812 74.8437 15.4688 60.7812 z "
       id="path713"
       sodipodi:nodetypes="ccccc"
       transform="matrix(0.741872,0.000000,0.000000,0.741872,-2.063801,13.35296)" />
    <path
       style="fill:#b5a794;fill-rule:evenodd;stroke:none;stroke-opacity:1;stroke-width:1pt;stroke-linejoin:miter;stroke-linecap:butt;fill-opacity:1;"
       d="M 19.0625 19.0625 L 16.5625 19.8437 C 16.25 22.1875 12.3438 41.25 16.0938 49.6875 C 20.4688 57.0312 22.5 58.4375 22.0313 57.6562 C 16.7187 48.75 15 35.1562 19.0625 19.0625 z "
       id="path717"
       sodipodi:nodetypes="ccccc"
       transform="matrix(0.741872,0.000000,0.000000,0.741872,-2.063801,13.35296)" />
    <path
       style="fill:#000000;fill-rule:evenodd;stroke:none;stroke-opacity:1;stroke-width:1pt;stroke-linejoin:miter;stroke-linecap:butt;fill-opacity:1;"
       d="M 19.6875 19.5312 C 19.6875 19.5312 13.5938 41.7188 21.4063 55.1562 C 27.3438 63.4375 46.5625 70 62.3438 65.3125 C 65.3126 61.5625 72.0312 41.25 65.7813 30 C 63.4375 26.0937 35.1563 14.0625 19.6875 19.5312 z "
       id="path711"
       sodipodi:nodetypes="ccccc"
       transform="matrix(0.769182,0.000000,0.000000,0.769182,-3.235191,12.19212)" />
    <path
       style="fill:#437caf;fill-rule:evenodd;stroke:none;stroke-opacity:1;stroke-width:1pt;stroke-linejoin:miter;stroke-linecap:butt;fill-opacity:1;"
       d="M 19.6875 19.5312 C 19.6875 19.5312 13.5938 41.7188 21.4063 55.1562 C 27.3438 63.4375 46.5625 70 62.3438 65.3125 C 65.3126 61.5625 72.0312 41.25 65.7813 30 C 63.4375 26.0937 35.1563 14.0625 19.6875 19.5312 z "
       id="path710"
       sodipodi:nodetypes="ccccc"
       transform="matrix(0.741872,0.000000,0.000000,0.741872,-2.063801,13.35296)" />
    <path
       style="fill:url(#linearGradient723);fill-rule:evenodd;stroke:none;stroke-opacity:1;stroke-width:1pt;stroke-linejoin:miter;stroke-linecap:butt;fill-opacity:1;"
       d="M 17.6563 41.875 C 17.6563 41.875 30.625 24.2187 42.9687 35.4687 C 47.9688 52.1874 66.25 56.0937 66.25 56.0937 L 62.6563 65 C 49.0625 69.8438 22.9688 59.8437 21.7188 56.0937 C 20.4688 52.3437 21.4063 58.125 17.6563 41.875 z "
       id="path722"
       sodipodi:nodetypes="cccccc"
       transform="matrix(0.741872,0.000000,0.000000,0.741872,-2.063801,13.35296)" />
    <path
       style="fill:#000000;fill-rule:evenodd;stroke:none;stroke-opacity:1;stroke-width:1pt;stroke-linejoin:miter;stroke-linecap:butt;fill-opacity:1;"
       d="M 24.3561 51.16 L 24.2188 58.7026 C 30.0285 66.1552 47.8599 69.6306 53.2718 67.1686 C 53.1156 65.9185 52.9593 63.125 52.6657 61.9508 C 48.8494 61.0701 31.0369 58.4659 24.3561 51.16 z "
       id="path709"
       sodipodi:nodetypes="ccccc"
       transform="matrix(0.789734,0.000000,0.000000,0.789734,-3.447336,9.913101)" />
    <path
       style="fill:#b5a794;fill-rule:evenodd;stroke:none;stroke-opacity:1;stroke-width:1pt;stroke-linejoin:miter;stroke-linecap:butt;fill-opacity:1;"
       d="M 81.25 23.9062 C 81.25 23.9062 76.0938 24.0625 75.9376 24.0625 C 75.7812 24.0625 76.7188 37.3437 76.0938 42.1875 C 75.4688 47.0312 73.9063 58.4375 72.9688 61.4062 C 72.0313 64.375 66.5625 73.9062 66.0938 74.5312 C 65.625 75.1562 67.3438 74.3749 70 73.5937 C 77.1875 65.3124 80.7813 45.4688 81.25 23.9062 z "
       id="path716"
       sodipodi:nodetypes="ccccccc"
       transform="matrix(0.741872,0.000000,0.000000,0.741872,-2.063801,13.35296)" />
    <path
       style="fill:#c7bda8;fill-rule:evenodd;stroke:none;stroke-opacity:1;stroke-width:1pt;stroke-linejoin:miter;stroke-linecap:butt;fill-opacity:1;"
       d="M 24.0625 52.1875 L 24.2188 57.9687 C 30.4688 64.6874 48.5938 68.7499 53.125 66.875 C 52.9688 65.6249 52.8125 63.125 52.8125 63.125 C 52.8125 63.125 30.1562 58.9062 24.0625 52.1875 z "
       id="path708"
       sodipodi:nodetypes="ccccc"
       transform="matrix(0.741872,0.000000,0.000000,0.741872,-1.600130,12.77338)" />
    <path
       style="fill:#211301;fill-rule:evenodd;stroke:none;stroke-opacity:1;stroke-width:1pt;stroke-linejoin:miter;stroke-linecap:butt;fill-opacity:1;"
       d="M 65.7813 74.2187 C 65.7813 74.2187 77.9688 64.6875 74.8438 24.6875 C 72.1875 22.0312 68.125 19.0625 68.125 19.0625 C 68.125 19.0625 75.9375 22.8125 76.4063 24.0625 C 77.1875 25.7812 77.6562 67.1875 65.7813 74.2187 z "
       id="path712"
       sodipodi:nodetypes="ccccc"
       transform="matrix(0.741872,0.000000,0.000000,0.741872,-2.063801,13.35296)" />
    <path
       style="fill:#fbfbfb;fill-rule:evenodd;stroke:none;stroke-opacity:1;stroke-width:1pt;stroke-linejoin:miter;stroke-linecap:butt;fill-opacity:1;"
       d="M 26.5625 78.5937 L 27.9688 77.5 C 32.9688 86.25 53.4375 87.1875 55 86.875 C 56.5625 86.5625 37.6562 92.5 26.5625 78.5937 z "
       id="path740"
       sodipodi:nodetypes="cccc"
       transform="matrix(0.741872,0.000000,0.000000,0.741872,-2.063801,13.35296)" />
    <path
       style="fill:none;fill-rule:evenodd;stroke:black;stroke-opacity:1;stroke-width:0.875;stroke-linejoin:round;stroke-linecap:round;fill-opacity:1;stroke-dasharray:none;"
       d="M 27.5 54.5312 C 27.5 52.9687 27.5 59.2188 27.5 59.2188 "
       id="path741"
       sodipodi:nodetypes="cc"
       transform="matrix(0.741872,0.000000,0.000000,0.741872,-2.063801,13.35296)" />
    <path
       style="fill:none;fill-rule:evenodd;stroke:black;stroke-opacity:1;stroke-width:0.875;stroke-linejoin:round;stroke-linecap:round;fill-opacity:1;stroke-dasharray:none;"
       d="M 27.5 54.5312 C 27.5 52.9687 27.5 59.2188 27.5 59.2188 "
       id="path742"
       sodipodi:nodetypes="cc"
       transform="matrix(0.741872,0.000000,0.000000,0.741872,12.77363,18.56925)" />
    <path
       transform="matrix(1.010086,0.132643,-0.112456,1.191397,-6.209640,-26.79529)"
       style="font-size:12;fill:#000000;fill-rule:evenodd;stroke-width:1pt;fill-opacity:0.3;"
       d="M 67.6563 79.6875 C 67.6563 84.0863 58.9763 87.6563 48.2813 87.6563 C 37.5863 87.6563 28.9063 84.0863 28.9063 79.6875 C 28.9063 75.2887 37.5863 71.7187 48.2813 71.7187 C 58.9763 71.7187 67.6563 75.2887 67.6563 79.6875 z "
       id="path1243" />
    <path
       style="fill:#000000;fill-rule:evenodd;stroke:none;stroke-opacity:1;stroke-width:1pt;stroke-linejoin:miter;stroke-linecap:butt;fill-opacity:0.3;"
       d="M 11.9721 61.9975 C 10.1055 59.3328 1.05153 37.445 8.81341 5.71367 C 40.7348 -0.836156 68.3995 11.3724 82.7618 20.5532 C 85.6926 26.6343 80.6883 72.3183 69.9704 76.7947 C 62.7829 79.1385 25.173 78.4924 11.9721 61.9975 z "
       id="path1244"
       sodipodi:nodetypes="ccccc"
       transform="matrix(0.762481,0.000000,0.000000,0.762481,0.453728,12.33407)" />
    <path
       transform="matrix(0.934540,0.118698,-0.104046,1.066138,-4.697670,-17.17464)"
       style="font-size:12;fill:#211301;fill-rule:evenodd;stroke-width:1pt;"
       d="M 67.6563 79.6875 C 67.6563 84.0863 58.9763 87.6563 48.2813 87.6563 C 37.5863 87.6563 28.9063 84.0863 28.9063 79.6875 C 28.9063 75.2887 37.5863 71.7187 48.2813 71.7187 C 58.9763 71.7187 67.6563 75.2887 67.6563 79.6875 z "
       id="path1245" />
    <path
       sodipodi:type="arc"
       style="fill-rule:evenodd;stroke:none;fill:url(#radialGradient733);fill-opacity:1;stroke-opacity:1;stroke-width:1pt;stroke-linejoin:miter;stroke-linecap:butt;"
       id="path1246"
       d="M 67.656265 79.687500 A 19.375004 7.968754 0 1 0 28.906258,79.687500 A 19.375 7.96875 0 1 0 67.6563 79.6875 L 48.281261 79.687500 z"
       sodipodi:cx="48.281261"
       sodipodi:cy="79.687500"
       sodipodi:rx="19.375004"
       sodipodi:ry="7.968754"
       transform="matrix(0.773175,9.381129e-2,-8.608107e-2,0.842604,1.661600,0.854568)" />
    <path
       transform="matrix(0.847950,7.574809e-2,-9.203027e-2,0.697931,0.937704,13.47022)"
       style="font-size:12;fill:#211301;fill-rule:evenodd;stroke-width:1pt;fill-opacity:1;"
       d="M 58.9063 75.9375 C 58.9063 79.56 53.2713 82.5 46.3281 82.5 C 39.385 82.5 33.75 79.56 33.75 75.9375 C 33.75 72.315 39.385 69.375 46.3281 69.375 C 53.2713 69.375 58.9063 72.315 58.9063 75.9375 z "
       id="path1247" />
    <path
       style="font-size:12;fill:#bebdae;fill-rule:evenodd;stroke-width:1pt;fill-opacity:1;"
       d="M 58.9063 75.9375 C 58.9063 79.56 53.2713 82.5 46.3281 82.5 C 39.385 82.5 33.75 79.56 33.75 75.9375 C 33.75 72.315 39.385 69.375 46.3281 69.375 C 53.2713 69.375 58.9063 72.315 58.9063 75.9375 z "
       id="path1248"
       transform="matrix(0.737541,6.034318e-2,-8.004759e-2,0.555992,5.142812,24.38289)" />
    <path
       style="fill:#211301;fill-rule:evenodd;stroke:none;stroke-opacity:1;stroke-width:1pt;stroke-linejoin:miter;stroke-linecap:butt;fill-opacity:1;"
       d="M 11.9721 61.9975 C 10.1055 59.3328 1.05153 37.445 8.81341 5.71367 C 40.7348 -0.836156 68.3995 11.3724 82.7618 20.5532 C 85.6926 26.6343 80.6883 72.3183 69.9704 76.7947 C 62.7829 79.1385 25.173 78.4924 11.9721 61.9975 z "
       id="path1249"
       sodipodi:nodetypes="ccccc"
       transform="matrix(0.762481,0.000000,0.000000,0.762481,-2.993964,12.50645)" />
    <path
       style="fill:url(#linearGradient721);fill-rule:evenodd;stroke:none;stroke-opacity:1;stroke-width:1pt;stroke-linejoin:miter;stroke-linecap:butt;fill-opacity:1;"
       d="M 15.4688 60.7812 C 13.9062 57.8125 5.15625 41.0937 11.0938 8.90623 C 44.6875 2.81248 67.0312 15.7812 80.9375 23.5937 C 82.5 29.2188 77.3437 71.4062 68.9062 73.9062 C 61.7187 76.25 25.7812 74.8437 15.4688 60.7812 z "
       id="path1250"
       sodipodi:nodetypes="ccccc"
       transform="matrix(0.741872,0.000000,0.000000,0.741872,-2.063801,13.35296)" />
    <path
       style="fill:#b5a794;fill-rule:evenodd;stroke:none;stroke-opacity:1;stroke-width:1pt;stroke-linejoin:miter;stroke-linecap:butt;fill-opacity:1;"
       d="M 19.0625 19.0625 L 16.5625 19.8437 C 16.25 22.1875 12.3438 41.25 16.0938 49.6875 C 20.4688 57.0312 22.5 58.4375 22.0313 57.6562 C 16.7187 48.75 15 35.1562 19.0625 19.0625 z "
       id="path1251"
       sodipodi:nodetypes="ccccc"
       transform="matrix(0.741872,0.000000,0.000000,0.741872,-2.063801,13.35296)" />
    <path
       style="fill:#000000;fill-rule:evenodd;stroke:none;stroke-opacity:1;stroke-width:1pt;stroke-linejoin:miter;stroke-linecap:butt;fill-opacity:1;"
       d="M 19.6875 19.5312 C 19.6875 19.5312 13.5938 41.7188 21.4063 55.1562 C 27.3438 63.4375 46.5625 70 62.3438 65.3125 C 65.3126 61.5625 72.0312 41.25 65.7813 30 C 63.4375 26.0937 35.1563 14.0625 19.6875 19.5312 z "
       id="path1252"
       sodipodi:nodetypes="ccccc"
       transform="matrix(0.769182,0.000000,0.000000,0.769182,-3.235191,12.19212)" />
    <path
       style="fill:#437caf;fill-rule:evenodd;stroke:none;stroke-opacity:1;stroke-width:1pt;stroke-linejoin:miter;stroke-linecap:butt;fill-opacity:1;"
       d="M 19.6875 19.5312 C 19.6875 19.5312 13.5938 41.7188 21.4063 55.1562 C 27.3438 63.4375 46.5625 70 62.3438 65.3125 C 65.3126 61.5625 72.0312 41.25 65.7813 30 C 63.4375 26.0937 35.1563 14.0625 19.6875 19.5312 z "
       id="path1253"
       sodipodi:nodetypes="ccccc"
       transform="matrix(0.741872,0.000000,0.000000,0.741872,-2.063801,13.35296)" />
    <path
       style="fill:url(#linearGradient723);fill-rule:evenodd;stroke:none;stroke-opacity:1;stroke-width:1pt;stroke-linejoin:miter;stroke-linecap:butt;fill-opacity:1;"
       d="M 17.6563 41.875 C 17.6563 41.875 30.625 24.2187 42.9687 35.4687 C 47.9688 52.1874 66.25 56.0937 66.25 56.0937 L 62.6563 65 C 49.0625 69.8438 22.9688 59.8437 21.7188 56.0937 C 20.4688 52.3437 21.4063 58.125 17.6563 41.875 z "
       id="path1254"
       sodipodi:nodetypes="cccccc"
       transform="matrix(0.741872,0.000000,0.000000,0.741872,-2.063801,13.35296)" />
    <path
       style="fill:#000000;fill-rule:evenodd;stroke:none;stroke-opacity:1;stroke-width:1pt;stroke-linejoin:miter;stroke-linecap:butt;fill-opacity:1;"
       d="M 24.3561 51.16 L 24.2188 58.7026 C 30.0285 66.1552 47.8599 69.6306 53.2718 67.1686 C 53.1156 65.9185 52.9593 63.125 52.6657 61.9508 C 48.8494 61.0701 31.0369 58.4659 24.3561 51.16 z "
       id="path1255"
       sodipodi:nodetypes="ccccc"
       transform="matrix(0.789734,0.000000,0.000000,0.789734,-3.447336,9.913101)" />
    <path
       style="fill:#b5a794;fill-rule:evenodd;stroke:none;stroke-opacity:1;stroke-width:1pt;stroke-linejoin:miter;stroke-linecap:butt;fill-opacity:1;"
       d="M 81.25 23.9062 C 81.25 23.9062 76.0938 24.0625 75.9376 24.0625 C 75.7812 24.0625 76.7188 37.3437 76.0938 42.1875 C 75.4688 47.0312 73.9063 58.4375 72.9688 61.4062 C 72.0313 64.375 66.5625 73.9062 66.0938 74.5312 C 65.625 75.1562 67.3438 74.3749 70 73.5937 C 77.1875 65.3124 80.7813 45.4688 81.25 23.9062 z "
       id="path1256"
       sodipodi:nodetypes="ccccccc"
       transform="matrix(0.741872,0.000000,0.000000,0.741872,-2.063801,13.35296)" />
    <path
       style="fill:#c7bda8;fill-rule:evenodd;stroke:none;stroke-opacity:1;stroke-width:1pt;stroke-linejoin:miter;stroke-linecap:butt;fill-opacity:1;"
       d="M 24.0625 52.1875 L 24.2188 57.9687 C 30.4688 64.6874 48.5938 68.7499 53.125 66.875 C 52.9688 65.6249 52.8125 63.125 52.8125 63.125 C 52.8125 63.125 30.1562 58.9062 24.0625 52.1875 z "
       id="path1257"
       sodipodi:nodetypes="ccccc"
       transform="matrix(0.741872,0.000000,0.000000,0.741872,-1.600130,12.77338)" />
    <path
       style="fill:#211301;fill-rule:evenodd;stroke:none;stroke-opacity:1;stroke-width:1pt;stroke-linejoin:miter;stroke-linecap:butt;fill-opacity:1;"
       d="M 65.7813 74.2187 C 65.7813 74.2187 77.9688 64.6875 74.8438 24.6875 C 72.1875 22.0312 68.125 19.0625 68.125 19.0625 C 68.125 19.0625 75.9375 22.8125 76.4063 24.0625 C 77.1875 25.7812 77.6562 67.1875 65.7813 74.2187 z "
       id="path1258"
       sodipodi:nodetypes="ccccc"
       transform="matrix(0.741872,0.000000,0.000000,0.741872,-2.063801,13.35296)" />
    <path
       style="fill:#fbfbfb;fill-rule:evenodd;stroke:none;stroke-opacity:1;stroke-width:1pt;stroke-linejoin:miter;stroke-linecap:butt;fill-opacity:1;"
       d="M 26.5625 78.5937 L 27.9688 77.5 C 32.9688 86.25 53.4375 87.1875 55 86.875 C 56.5625 86.5625 37.6562 92.5 26.5625 78.5937 z "
       id="path1259"
       sodipodi:nodetypes="cccc"
       transform="matrix(0.741872,0.000000,0.000000,0.741872,-2.063801,13.35296)" />
    <path
       style="fill:none;fill-rule:evenodd;stroke:black;stroke-opacity:1;stroke-width:0.875;stroke-linejoin:round;stroke-linecap:round;fill-opacity:1;stroke-dasharray:none;"
       d="M 27.5 54.5312 C 27.5 52.9687 27.5 59.2188 27.5 59.2188 "
       id="path1260"
       sodipodi:nodetypes="cc"
       transform="matrix(0.741872,0.000000,0.000000,0.741872,-2.063801,13.35296)" />
    <path
       style="fill:none;fill-rule:evenodd;stroke:black;stroke-opacity:1;stroke-width:0.875;stroke-linejoin:round;stroke-linecap:round;fill-opacity:1;stroke-dasharray:none;"
       d="M 27.5 54.5312 C 27.5 52.9687 27.5 59.2188 27.5 59.2188 "
       id="path1261"
       sodipodi:nodetypes="cc"
       transform="matrix(0.741872,0.000000,0.000000,0.741872,12.77363,18.56925)" />
  </g>
  <g
     id="g1301"
     transform="matrix(-0.719805,0.000000,0.000000,0.719805,88.73584,-7.614708)">
    <path
       transform="matrix(1.010086,0.132643,-0.112456,1.191397,-6.209640,-26.79529)"
       style="font-size:12;fill:#000000;fill-rule:evenodd;stroke-width:1pt;fill-opacity:0.3;"
       d="M 67.6563 79.6875 C 67.6563 84.0863 58.9763 87.6563 48.2813 87.6563 C 37.5863 87.6563 28.9063 84.0863 28.9063 79.6875 C 28.9063 75.2887 37.5863 71.7187 48.2813 71.7187 C 58.9763 71.7187 67.6563 75.2887 67.6563 79.6875 z "
       id="path1302" />
    <path
       style="fill:#000000;fill-rule:evenodd;stroke:none;stroke-opacity:1;stroke-width:1pt;stroke-linejoin:miter;stroke-linecap:butt;fill-opacity:0.3;"
       d="M 11.9721 61.9975 C 10.1055 59.3328 1.05153 37.445 8.81341 5.71367 C 40.7348 -0.836156 68.3995 11.3724 82.7618 20.5532 C 85.6926 26.6343 80.6883 72.3183 69.9704 76.7947 C 62.7829 79.1385 25.173 78.4924 11.9721 61.9975 z "
       id="path1303"
       sodipodi:nodetypes="ccccc"
       transform="matrix(0.762481,0.000000,0.000000,0.762481,0.453728,12.33407)" />
    <path
       transform="matrix(0.934540,0.118698,-0.104046,1.066138,-4.697670,-17.17464)"
       style="font-size:12;fill:#211301;fill-rule:evenodd;stroke-width:1pt;"
       d="M 67.6563 79.6875 C 67.6563 84.0863 58.9763 87.6563 48.2813 87.6563 C 37.5863 87.6563 28.9063 84.0863 28.9063 79.6875 C 28.9063 75.2887 37.5863 71.7187 48.2813 71.7187 C 58.9763 71.7187 67.6563 75.2887 67.6563 79.6875 z "
       id="path1304" />
    <path
       sodipodi:type="arc"
       style="fill-rule:evenodd;stroke:none;fill:url(#radialGradient733);fill-opacity:1;stroke-opacity:1;stroke-width:1pt;stroke-linejoin:miter;stroke-linecap:butt;"
       id="path1305"
       d="M 67.656265 79.687500 A 19.375004 7.968754 0 1 0 28.906258,79.687500 A 19.375 7.96875 0 1 0 67.6563 79.6875 L 48.281261 79.687500 z"
       sodipodi:cx="48.281261"
       sodipodi:cy="79.687500"
       sodipodi:rx="19.375004"
       sodipodi:ry="7.968754"
       transform="matrix(0.773175,9.381129e-2,-8.608107e-2,0.842604,1.661600,0.854568)" />
    <path
       transform="matrix(0.847950,7.574809e-2,-9.203027e-2,0.697931,0.937704,13.47022)"
       style="font-size:12;fill:#211301;fill-rule:evenodd;stroke-width:1pt;fill-opacity:1;"
       d="M 58.9063 75.9375 C 58.9063 79.56 53.2713 82.5 46.3281 82.5 C 39.385 82.5 33.75 79.56 33.75 75.9375 C 33.75 72.315 39.385 69.375 46.3281 69.375 C 53.2713 69.375 58.9063 72.315 58.9063 75.9375 z "
       id="path1306" />
    <path
       style="font-size:12;fill:#bebdae;fill-rule:evenodd;stroke-width:1pt;fill-opacity:1;"
       d="M 58.9063 75.9375 C 58.9063 79.56 53.2713 82.5 46.3281 82.5 C 39.385 82.5 33.75 79.56 33.75 75.9375 C 33.75 72.315 39.385 69.375 46.3281 69.375 C 53.2713 69.375 58.9063 72.315 58.9063 75.9375 z "
       id="path1307"
       transform="matrix(0.737541,6.034318e-2,-8.004759e-2,0.555992,5.142812,24.38289)" />
    <path
       style="fill:#211301;fill-rule:evenodd;stroke:none;stroke-opacity:1;stroke-width:1pt;stroke-linejoin:miter;stroke-linecap:butt;fill-opacity:1;"
       d="M 11.9721 61.9975 C 10.1055 59.3328 1.05153 37.445 8.81341 5.71367 C 40.7348 -0.836156 68.3995 11.3724 82.7618 20.5532 C 85.6926 26.6343 80.6883 72.3183 69.9704 76.7947 C 62.7829 79.1385 25.173 78.4924 11.9721 61.9975 z "
       id="path1308"
       sodipodi:nodetypes="ccccc"
       transform="matrix(0.762481,0.000000,0.000000,0.762481,-2.993964,12.50645)" />
    <path
       style="fill:url(#linearGradient721);fill-rule:evenodd;stroke:none;stroke-opacity:1;stroke-width:1pt;stroke-linejoin:miter;stroke-linecap:butt;fill-opacity:1;"
       d="M 15.4688 60.7812 C 13.9062 57.8125 5.15625 41.0937 11.0938 8.90623 C 44.6875 2.81248 67.0312 15.7812 80.9375 23.5937 C 82.5 29.2188 77.3437 71.4062 68.9062 73.9062 C 61.7187 76.25 25.7812 74.8437 15.4688 60.7812 z "
       id="path1309"
       sodipodi:nodetypes="ccccc"
       transform="matrix(0.741872,0.000000,0.000000,0.741872,-2.063801,13.35296)" />
    <path
       style="fill:#b5a794;fill-rule:evenodd;stroke:none;stroke-opacity:1;stroke-width:1pt;stroke-linejoin:miter;stroke-linecap:butt;fill-opacity:1;"
       d="M 19.0625 19.0625 L 16.5625 19.8437 C 16.25 22.1875 12.3438 41.25 16.0938 49.6875 C 20.4688 57.0312 22.5 58.4375 22.0313 57.6562 C 16.7187 48.75 15 35.1562 19.0625 19.0625 z "
       id="path1310"
       sodipodi:nodetypes="ccccc"
       transform="matrix(0.741872,0.000000,0.000000,0.741872,-2.063801,13.35296)" />
    <path
       style="fill:#000000;fill-rule:evenodd;stroke:none;stroke-opacity:1;stroke-width:1pt;stroke-linejoin:miter;stroke-linecap:butt;fill-opacity:1;"
       d="M 19.6875 19.5312 C 19.6875 19.5312 13.5938 41.7188 21.4063 55.1562 C 27.3438 63.4375 46.5625 70 62.3438 65.3125 C 65.3126 61.5625 72.0312 41.25 65.7813 30 C 63.4375 26.0937 35.1563 14.0625 19.6875 19.5312 z "
       id="path1311"
       sodipodi:nodetypes="ccccc"
       transform="matrix(0.769182,0.000000,0.000000,0.769182,-3.235191,12.19212)" />
    <path
       style="fill:#437caf;fill-rule:evenodd;stroke:none;stroke-opacity:1;stroke-width:1pt;stroke-linejoin:miter;stroke-linecap:butt;fill-opacity:1;"
       d="M 19.6875 19.5312 C 19.6875 19.5312 13.5938 41.7188 21.4063 55.1562 C 27.3438 63.4375 46.5625 70 62.3438 65.3125 C 65.3126 61.5625 72.0312 41.25 65.7813 30 C 63.4375 26.0937 35.1563 14.0625 19.6875 19.5312 z "
       id="path1312"
       sodipodi:nodetypes="ccccc"
       transform="matrix(0.741872,0.000000,0.000000,0.741872,-2.063801,13.35296)" />
    <path
       style="fill:url(#linearGradient723);fill-rule:evenodd;stroke:none;stroke-opacity:1;stroke-width:1pt;stroke-linejoin:miter;stroke-linecap:butt;fill-opacity:1;"
       d="M 17.6563 41.875 C 17.6563 41.875 30.625 24.2187 42.9687 35.4687 C 47.9688 52.1874 66.25 56.0937 66.25 56.0937 L 62.6563 65 C 49.0625 69.8438 22.9688 59.8437 21.7188 56.0937 C 20.4688 52.3437 21.4063 58.125 17.6563 41.875 z "
       id="path1313"
       sodipodi:nodetypes="cccccc"
       transform="matrix(0.741872,0.000000,0.000000,0.741872,-2.063801,13.35296)" />
    <path
       style="fill:#000000;fill-rule:evenodd;stroke:none;stroke-opacity:1;stroke-width:1pt;stroke-linejoin:miter;stroke-linecap:butt;fill-opacity:1;"
       d="M 24.3561 51.16 L 24.2188 58.7026 C 30.0285 66.1552 47.8599 69.6306 53.2718 67.1686 C 53.1156 65.9185 52.9593 63.125 52.6657 61.9508 C 48.8494 61.0701 31.0369 58.4659 24.3561 51.16 z "
       id="path1314"
       sodipodi:nodetypes="ccccc"
       transform="matrix(0.789734,0.000000,0.000000,0.789734,-3.447336,9.913101)" />
    <path
       style="fill:#b5a794;fill-rule:evenodd;stroke:none;stroke-opacity:1;stroke-width:1pt;stroke-linejoin:miter;stroke-linecap:butt;fill-opacity:1;"
       d="M 81.25 23.9062 C 81.25 23.9062 76.0938 24.0625 75.9376 24.0625 C 75.7812 24.0625 76.7188 37.3437 76.0938 42.1875 C 75.4688 47.0312 73.9063 58.4375 72.9688 61.4062 C 72.0313 64.375 66.5625 73.9062 66.0938 74.5312 C 65.625 75.1562 67.3438 74.3749 70 73.5937 C 77.1875 65.3124 80.7813 45.4688 81.25 23.9062 z "
       id="path1315"
       sodipodi:nodetypes="ccccccc"
       transform="matrix(0.741872,0.000000,0.000000,0.741872,-2.063801,13.35296)" />
    <path
       style="fill:#c7bda8;fill-rule:evenodd;stroke:none;stroke-opacity:1;stroke-width:1pt;stroke-linejoin:miter;stroke-linecap:butt;fill-opacity:1;"
       d="M 24.0625 52.1875 L 24.2188 57.9687 C 30.4688 64.6874 48.5938 68.7499 53.125 66.875 C 52.9688 65.6249 52.8125 63.125 52.8125 63.125 C 52.8125 63.125 30.1562 58.9062 24.0625 52.1875 z "
       id="path1316"
       sodipodi:nodetypes="ccccc"
       transform="matrix(0.741872,0.000000,0.000000,0.741872,-1.600130,12.77338)" />
    <path
       style="fill:#211301;fill-rule:evenodd;stroke:none;stroke-opacity:1;stroke-width:1pt;stroke-linejoin:miter;stroke-linecap:butt;fill-opacity:1;"
       d="M 65.7813 74.2187 C 65.7813 74.2187 77.9688 64.6875 74.8438 24.6875 C 72.1875 22.0312 68.125 19.0625 68.125 19.0625 C 68.125 19.0625 75.9375 22.8125 76.4063 24.0625 C 77.1875 25.7812 77.6562 67.1875 65.7813 74.2187 z "
       id="path1317"
       sodipodi:nodetypes="ccccc"
       transform="matrix(0.741872,0.000000,0.000000,0.741872,-2.063801,13.35296)" />
    <path
       style="fill:#fbfbfb;fill-rule:evenodd;stroke:none;stroke-opacity:1;stroke-width:1pt;stroke-linejoin:miter;stroke-linecap:butt;fill-opacity:1;"
       d="M 26.5625 78.5937 L 27.9688 77.5 C 32.9688 86.25 53.4375 87.1875 55 86.875 C 56.5625 86.5625 37.6562 92.5 26.5625 78.5937 z "
       id="path1318"
       sodipodi:nodetypes="cccc"
       transform="matrix(0.741872,0.000000,0.000000,0.741872,-2.063801,13.35296)" />
    <path
       style="fill:none;fill-rule:evenodd;stroke:black;stroke-opacity:1;stroke-width:0.875;stroke-linejoin:round;stroke-linecap:round;fill-opacity:1;stroke-dasharray:none;"
       d="M 27.5 54.5312 C 27.5 52.9687 27.5 59.2188 27.5 59.2188 "
       id="path1319"
       sodipodi:nodetypes="cc"
       transform="matrix(0.741872,0.000000,0.000000,0.741872,-2.063801,13.35296)" />
    <path
       style="fill:none;fill-rule:evenodd;stroke:black;stroke-opacity:1;stroke-width:0.875;stroke-linejoin:round;stroke-linecap:round;fill-opacity:1;stroke-dasharray:none;"
       d="M 27.5 54.5312 C 27.5 52.9687 27.5 59.2188 27.5 59.2188 "
       id="path1320"
       sodipodi:nodetypes="cc"
       transform="matrix(0.741872,0.000000,0.000000,0.741872,12.77363,18.56925)" />
    <path
       transform="matrix(1.010086,0.132643,-0.112456,1.191397,-6.209640,-26.79529)"
       style="font-size:12;fill:#000000;fill-rule:evenodd;stroke-width:1pt;fill-opacity:0.3;"
       d="M 67.6563 79.6875 C 67.6563 84.0863 58.9763 87.6563 48.2813 87.6563 C 37.5863 87.6563 28.9063 84.0863 28.9063 79.6875 C 28.9063 75.2887 37.5863 71.7187 48.2813 71.7187 C 58.9763 71.7187 67.6563 75.2887 67.6563 79.6875 z "
       id="path1321" />
    <path
       style="fill:#000000;fill-rule:evenodd;stroke:none;stroke-opacity:1;stroke-width:1pt;stroke-linejoin:miter;stroke-linecap:butt;fill-opacity:0.3;"
       d="M 11.9721 61.9975 C 10.1055 59.3328 1.05153 37.445 8.81341 5.71367 C 40.7348 -0.836156 68.3995 11.3724 82.7618 20.5532 C 85.6926 26.6343 80.6883 72.3183 69.9704 76.7947 C 62.7829 79.1385 25.173 78.4924 11.9721 61.9975 z "
       id="path1322"
       sodipodi:nodetypes="ccccc"
       transform="matrix(0.762481,0.000000,0.000000,0.762481,0.453728,12.33407)" />
    <path
       transform="matrix(0.934540,0.118698,-0.104046,1.066138,-4.697670,-17.17464)"
       style="font-size:12;fill:#211301;fill-rule:evenodd;stroke-width:1pt;"
       d="M 67.6563 79.6875 C 67.6563 84.0863 58.9763 87.6563 48.2813 87.6563 C 37.5863 87.6563 28.9063 84.0863 28.9063 79.6875 C 28.9063 75.2887 37.5863 71.7187 48.2813 71.7187 C 58.9763 71.7187 67.6563 75.2887 67.6563 79.6875 z "
       id="path1323" />
    <path
       sodipodi:type="arc"
       style="fill-rule:evenodd;stroke:none;fill:url(#radialGradient733);fill-opacity:1;stroke-opacity:1;stroke-width:1pt;stroke-linejoin:miter;stroke-linecap:butt;"
       id="path1324"
       d="M 67.656265 79.687500 A 19.375004 7.968754 0 1 0 28.906258,79.687500 A 19.375 7.96875 0 1 0 67.6563 79.6875 L 48.281261 79.687500 z"
       sodipodi:cx="48.281261"
       sodipodi:cy="79.687500"
       sodipodi:rx="19.375004"
       sodipodi:ry="7.968754"
       transform="matrix(0.773175,9.381129e-2,-8.608107e-2,0.842604,1.661600,0.854568)" />
    <path
       transform="matrix(0.847950,7.574809e-2,-9.203027e-2,0.697931,0.937704,13.47022)"
       style="font-size:12;fill:#211301;fill-rule:evenodd;stroke-width:1pt;fill-opacity:1;"
       d="M 58.9063 75.9375 C 58.9063 79.56 53.2713 82.5 46.3281 82.5 C 39.385 82.5 33.75 79.56 33.75 75.9375 C 33.75 72.315 39.385 69.375 46.3281 69.375 C 53.2713 69.375 58.9063 72.315 58.9063 75.9375 z "
       id="path1325" />
    <path
       style="font-size:12;fill:#bebdae;fill-rule:evenodd;stroke-width:1pt;fill-opacity:1;"
       d="M 58.9063 75.9375 C 58.9063 79.56 53.2713 82.5 46.3281 82.5 C 39.385 82.5 33.75 79.56 33.75 75.9375 C 33.75 72.315 39.385 69.375 46.3281 69.375 C 53.2713 69.375 58.9063 72.315 58.9063 75.9375 z "
       id="path1326"
       transform="matrix(0.737541,6.034318e-2,-8.004759e-2,0.555992,5.142812,24.38289)" />
    <path
       style="fill:#211301;fill-rule:evenodd;stroke:none;stroke-opacity:1;stroke-width:1pt;stroke-linejoin:miter;stroke-linecap:butt;fill-opacity:1;"
       d="M 11.9721 61.9975 C 10.1055 59.3328 1.05153 37.445 8.81341 5.71367 C 40.7348 -0.836156 68.3995 11.3724 82.7618 20.5532 C 85.6926 26.6343 80.6883 72.3183 69.9704 76.7947 C 62.7829 79.1385 25.173 78.4924 11.9721 61.9975 z "
       id="path1327"
       sodipodi:nodetypes="ccccc"
       transform="matrix(0.762481,0.000000,0.000000,0.762481,-2.993964,12.50645)" />
    <path
       style="fill:url(#linearGradient721);fill-rule:evenodd;stroke:none;stroke-opacity:1;stroke-width:1pt;stroke-linejoin:miter;stroke-linecap:butt;fill-opacity:1;"
       d="M 15.4688 60.7812 C 13.9062 57.8125 5.15625 41.0937 11.0938 8.90623 C 44.6875 2.81248 67.0312 15.7812 80.9375 23.5937 C 82.5 29.2188 77.3437 71.4062 68.9062 73.9062 C 61.7187 76.25 25.7812 74.8437 15.4688 60.7812 z "
       id="path1328"
       sodipodi:nodetypes="ccccc"
       transform="matrix(0.741872,0.000000,0.000000,0.741872,-2.063801,13.35296)" />
    <path
       style="fill:#b5a794;fill-rule:evenodd;stroke:none;stroke-opacity:1;stroke-width:1pt;stroke-linejoin:miter;stroke-linecap:butt;fill-opacity:1;"
       d="M 19.0625 19.0625 L 16.5625 19.8437 C 16.25 22.1875 12.3438 41.25 16.0938 49.6875 C 20.4688 57.0312 22.5 58.4375 22.0313 57.6562 C 16.7187 48.75 15 35.1562 19.0625 19.0625 z "
       id="path1329"
       sodipodi:nodetypes="ccccc"
       transform="matrix(0.741872,0.000000,0.000000,0.741872,-2.063801,13.35296)" />
    <path
       style="fill:#000000;fill-rule:evenodd;stroke:none;stroke-opacity:1;stroke-width:1pt;stroke-linejoin:miter;stroke-linecap:butt;fill-opacity:1;"
       d="M 19.6875 19.5312 C 19.6875 19.5312 13.5938 41.7188 21.4063 55.1562 C 27.3438 63.4375 46.5625 70 62.3438 65.3125 C 65.3126 61.5625 72.0312 41.25 65.7813 30 C 63.4375 26.0937 35.1563 14.0625 19.6875 19.5312 z "
       id="path1330"
       sodipodi:nodetypes="ccccc"
       transform="matrix(0.769182,0.000000,0.000000,0.769182,-3.235191,12.19212)" />
    <path
       style="fill:#437caf;fill-rule:evenodd;stroke:none;stroke-opacity:1;stroke-width:1pt;stroke-linejoin:miter;stroke-linecap:butt;fill-opacity:1;"
       d="M 19.6875 19.5312 C 19.6875 19.5312 13.5938 41.7188 21.4063 55.1562 C 27.3438 63.4375 46.5625 70 62.3438 65.3125 C 65.3126 61.5625 72.0312 41.25 65.7813 30 C 63.4375 26.0937 35.1563 14.0625 19.6875 19.5312 z "
       id="path1331"
       sodipodi:nodetypes="ccccc"
       transform="matrix(0.741872,0.000000,0.000000,0.741872,-2.063801,13.35296)" />
    <path
       style="fill:url(#linearGradient723);fill-rule:evenodd;stroke:none;stroke-opacity:1;stroke-width:1pt;stroke-linejoin:miter;stroke-linecap:butt;fill-opacity:1;"
       d="M 17.6563 41.875 C 17.6563 41.875 30.625 24.2187 42.9687 35.4687 C 47.9688 52.1874 66.25 56.0937 66.25 56.0937 L 62.6563 65 C 49.0625 69.8438 22.9688 59.8437 21.7188 56.0937 C 20.4688 52.3437 21.4063 58.125 17.6563 41.875 z "
       id="path1332"
       sodipodi:nodetypes="cccccc"
       transform="matrix(0.741872,0.000000,0.000000,0.741872,-2.063801,13.35296)" />
    <path
       style="fill:#000000;fill-rule:evenodd;stroke:none;stroke-opacity:1;stroke-width:1pt;stroke-linejoin:miter;stroke-linecap:butt;fill-opacity:1;"
       d="M 24.3561 51.16 L 24.2188 58.7026 C 30.0285 66.1552 47.8599 69.6306 53.2718 67.1686 C 53.1156 65.9185 52.9593 63.125 52.6657 61.9508 C 48.8494 61.0701 31.0369 58.4659 24.3561 51.16 z "
       id="path1333"
       sodipodi:nodetypes="ccccc"
       transform="matrix(0.789734,0.000000,0.000000,0.789734,-3.447336,9.913101)" />
    <path
       style="fill:#b5a794;fill-rule:evenodd;stroke:none;stroke-opacity:1;stroke-width:1pt;stroke-linejoin:miter;stroke-linecap:butt;fill-opacity:1;"
       d="M 81.25 23.9062 C 81.25 23.9062 76.0938 24.0625 75.9376 24.0625 C 75.7812 24.0625 76.7188 37.3437 76.0938 42.1875 C 75.4688 47.0312 73.9063 58.4375 72.9688 61.4062 C 72.0313 64.375 66.5625 73.9062 66.0938 74.5312 C 65.625 75.1562 67.3438 74.3749 70 73.5937 C 77.1875 65.3124 80.7813 45.4688 81.25 23.9062 z "
       id="path1334"
       sodipodi:nodetypes="ccccccc"
       transform="matrix(0.741872,0.000000,0.000000,0.741872,-2.063801,13.35296)" />
    <path
       style="fill:#c7bda8;fill-rule:evenodd;stroke:none;stroke-opacity:1;stroke-width:1pt;stroke-linejoin:miter;stroke-linecap:butt;fill-opacity:1;"
       d="M 24.0625 52.1875 L 24.2188 57.9687 C 30.4688 64.6874 48.5938 68.7499 53.125 66.875 C 52.9688 65.6249 52.8125 63.125 52.8125 63.125 C 52.8125 63.125 30.1562 58.9062 24.0625 52.1875 z "
       id="path1335"
       sodipodi:nodetypes="ccccc"
       transform="matrix(0.741872,0.000000,0.000000,0.741872,-1.600130,12.77338)" />
    <path
       style="fill:#211301;fill-rule:evenodd;stroke:none;stroke-opacity:1;stroke-width:1pt;stroke-linejoin:miter;stroke-linecap:butt;fill-opacity:1;"
       d="M 65.7813 74.2187 C 65.7813 74.2187 77.9688 64.6875 74.8438 24.6875 C 72.1875 22.0312 68.125 19.0625 68.125 19.0625 C 68.125 19.0625 75.9375 22.8125 76.4063 24.0625 C 77.1875 25.7812 77.6562 67.1875 65.7813 74.2187 z "
       id="path1336"
       sodipodi:nodetypes="ccccc"
       transform="matrix(0.741872,0.000000,0.000000,0.741872,-2.063801,13.35296)" />
    <path
       style="fill:#fbfbfb;fill-rule:evenodd;stroke:none;stroke-opacity:1;stroke-width:1pt;stroke-linejoin:miter;stroke-linecap:butt;fill-opacity:1;"
       d="M 26.5625 78.5937 L 27.9688 77.5 C 32.9688 86.25 53.4375 87.1875 55 86.875 C 56.5625 86.5625 37.6562 92.5 26.5625 78.5937 z "
       id="path1337"
       sodipodi:nodetypes="cccc"
       transform="matrix(0.741872,0.000000,0.000000,0.741872,-2.063801,13.35296)" />
    <path
       style="fill:none;fill-rule:evenodd;stroke:black;stroke-opacity:1;stroke-width:0.875;stroke-linejoin:round;stroke-linecap:round;fill-opacity:1;stroke-dasharray:none;"
       d="M 27.5 54.5312 C 27.5 52.9687 27.5 59.2188 27.5 59.2188 "
       id="path1338"
       sodipodi:nodetypes="cc"
       transform="matrix(0.741872,0.000000,0.000000,0.741872,-2.063801,13.35296)" />
    <path
       style="fill:none;fill-rule:evenodd;stroke:black;stroke-opacity:1;stroke-width:0.875;stroke-linejoin:round;stroke-linecap:round;fill-opacity:1;stroke-dasharray:none;"
       d="M 27.5 54.5312 C 27.5 52.9687 27.5 59.2188 27.5 59.2188 "
       id="path1339"
       sodipodi:nodetypes="cc"
       transform="matrix(0.741872,0.000000,0.000000,0.741872,12.77363,18.56925)" />
  </g>
  <path
     sodipodi:type="arc"
     style="font-size:12px;fill:#000000;fill-opacity:1;fill-rule:evenodd;stroke:none;stroke-width:1pt;stroke-opacity:1"
     id="path585"
     sodipodi:cx="51.645908"
     sodipodi:cy="51.645908"
     sodipodi:rx="44.91993"
     sodipodi:ry="44.91993"
     d="M 96.565838 51.645908 A 44.91993 44.91993 0 1 1  6.7259789,51.645908 A 44.91993 44.91993 0 1 1  96.565838 51.645908 z"
     transform="matrix(0.307137,0,0,0.307137,43.62166,51.140087)" />
  <path
     sodipodi:type="arc"
     style="font-size:12px;fill:#ff1500;fill-opacity:1;fill-rule:evenodd;stroke:none;stroke-width:1pt;stroke-opacity:1"
     id="path586"
     sodipodi:cx="51.645908"
     sodipodi:cy="51.645908"
     sodipodi:rx="44.91993"
     sodipodi:ry="44.91993"
     d="M 96.565838 51.645908 A 44.91993 44.91993 0 1 1  6.7259789,51.645908 A 44.91993 44.91993 0 1 1  96.565838 51.645908 z"
     transform="matrix(0.268704,0,0,0.268704,45.691489,53.260177)" />
  <path
     style="font-size:12px;fill:#ffffff;fill-opacity:1;fill-rule:evenodd;stroke:none;stroke-width:0.91317396pt"
     d="M 50.526681,64.737871 L 50.505933,69.234292 L 68.491618,69.317281 L 68.512365,64.82086 L 50.526681,64.737871 z "
     id="path590"
     sodipodi:nodetypes="ccccc" />
  <path
     style="font-size:12px;fill:#cb0000;fill-opacity:1;fill-rule:evenodd;stroke-width:1pt"
     d="M 71.639154,67.137659 C 71.639154,67.970502 71.554663,68.78373 71.39379,69.569235 C 71.232917,70.35474 70.995662,71.112521 70.690136,71.834469 C 70.38461,72.556416 70.010811,73.242531 69.57685,73.884702 C 69.14289,74.526874 68.648766,75.125102 68.102591,75.671278 C 67.556415,76.217454 66.958186,76.711577 66.316015,77.145538 C 65.673844,77.579498 64.987729,77.953297 64.265782,78.258823 C 63.543834,78.56435 62.786052,78.801604 62.000548,78.962477 C 61.215043,79.12335 60.401814,79.207841 59.568972,79.207841 C 58.736129,79.207841 57.922901,79.12335 57.137396,78.962477 C 56.351891,78.801604 55.59411,78.56435 54.872162,78.258823 C 54.150215,77.953297 52.057279,77.018977 52.821929,77.145538 C 75.828702,80.942033 69.14289,59.748445 69.57685,60.390616 C 70.010811,61.032787 70.38461,61.718902 70.690136,62.440849 C 70.995662,63.162797 71.232917,63.920578 71.39379,64.706083 C 71.554663,65.491588 71.639154,66.304816 71.639154,67.137659 z "
     id="path582"
     sodipodi:nodetypes="cssssssscssssssc" />
  <path
     style="font-size:12px;fill:#ffffff;fill-opacity:1;fill-rule:evenodd;stroke-width:1pt"
     d="M 47.289928,67.547552 C 47.238604,66.716292 47.27282,65.899403 47.38498,65.105477 C 47.497141,64.311551 47.687246,63.540589 47.947702,62.801185 C 48.208158,62.061782 48.538964,61.353937 48.932526,60.686243 C 49.326088,60.018549 49.782407,59.391008 50.293886,58.812212 C 50.805366,58.233416 51.372007,57.703366 51.986215,57.230657 C 52.600423,56.757947 53.262198,56.342577 53.963946,55.993142 C 54.665693,55.643706 55.407413,55.360204 56.181511,55.15123 C 56.95561,54.942256 57.762086,54.807811 58.593345,54.756487 C 59.424605,54.705163 60.241494,54.739379 61.03542,54.851539 C 61.829346,54.963699 62.600308,55.153805 63.339711,55.414261 C 64.079115,55.674717 66.269406,56.819474 65.524006,56.60714 C 46.904216,51.322877 47.893645,70.733484 47.684671,69.959386 C 47.475698,69.185287 47.341252,68.378811 47.289928,67.547552 z "
     id="path583"
     sodipodi:nodetypes="cssssssscssssc" />
</svg>
