<?xml version="1.0" encoding="UTF-8" standalone="no"?>
<!-- Created with Sodipodi ("http://www.sodipodi.com/") -->
<svg
   xmlns:dc="http://purl.org/dc/elements/1.1/"
   xmlns:cc="http://web.resource.org/cc/"
   xmlns:rdf="http://www.w3.org/1999/02/22-rdf-syntax-ns#"
   xmlns:svg="http://www.w3.org/2000/svg"
   xmlns="http://www.w3.org/2000/svg"
   xmlns:xlink="http://www.w3.org/1999/xlink"
   xmlns:sodipodi="http://sodipodi.sourceforge.net/DTD/sodipodi-0.dtd"
   xmlns:inkscape="http://www.inkscape.org/namespaces/inkscape"
   version="1.0"
   x="0"
   y="0"
   width="90"
   height="90"
   id="svg604"
   sodipodi:version="0.32"
   sodipodi:docname="gtk-dnd.svg"
   sodipodi:docbase="/home/tweenk/GNUtoon/gtk"
   inkscape:version="0.45.1"
   inkscape:output_extension="org.inkscape.output.svg.inkscape">
  <metadata
     id="metadata16">
    <rdf:RDF>
      <cc:Work
         rdf:about="">
        <dc:format>image/svg+xml</dc:format>
        <dc:type
           rdf:resource="http://purl.org/dc/dcmitype/StillImage" />
      </cc:Work>
    </rdf:RDF>
  </metadata>
  <sodipodi:namedview
     id="base"
     inkscape:zoom="1"
     inkscape:cx="35.692871"
     inkscape:cy="14.877914"
     inkscape:window-width="842"
     inkscape:window-height="619"
     inkscape:window-x="39"
     inkscape:window-y="99"
     inkscape:current-layer="svg604"
     width="90px"
     height="90px" />
  <defs
     id="defs606">
    <linearGradient
       id="linearGradient612">
      <stop
         style="stop-color:#7fa8e3;stop-opacity:0.7412;"
         offset="0"
         id="stop613" />
      <stop
         style="stop-color:#ffffff;stop-opacity:0;"
         offset="1"
         id="stop614" />
    </linearGradient>
    <linearGradient
       x1="50.643887"
       y1="5.3679295"
       x2="35.752094"
       y2="68.044357"
       id="linearGradient615"
       xlink:href="#linearGradient612"
       gradientUnits="userSpaceOnUse"
       spreadMethod="pad"
       gradientTransform="matrix(1.010721,0,0,0.966039,-1.184749,1.885653)" />
  </defs>
  <path
     d="M 18.857545,87.160089 C 15.147802,87.108675 8.928475,84.964302 8.385435,79.209864 C 6.470433,73.395831 -0.186693,18.443307 3.02566,14.615728 C 4.685514,11.602316 8.299976,9.390203 14.73076,8.623339 C 19.992643,7.860674 67.855541,1.900327 71.384849,2.825442 C 74.914283,3.750619 77.694476,4.532934 77.948369,9.172697 C 77.68733,11.696013 86.57729,63.164046 87.941132,66.199068 C 88.591895,69.754038 87.523649,74.721903 82.081379,76.35837 C 76.639196,77.994801 23.153707,86.465535 18.857545,87.160089 z "
     style="font-size:12px;fill:#3d4e67;fill-rule:evenodd;stroke-width:1"
     id="path609" />
  <path
     d="M 23.143387,81.064947 C 19.546754,81.514395 14.550851,82.453995 13.954113,77.799363 C 11.46921,66.78066 5.771751,23.111049 9.831461,16.014271 C 10.738187,14.345488 15.661187,12.080332 26.844085,11.134713 C 39.552317,9.924822 65.627645,8.084948 68.371616,8.204464 C 71.115461,8.324011 71.954885,8.02993 72.551714,12.684676 C 72.309335,17.633409 80.58701,56.345817 81.076019,63.199944 C 81.456524,68.065608 82.111337,70.132911 78.753923,71.309196"
     style="font-size:12px;fill:#ffffff;fill-rule:evenodd;stroke-width:1"
     id="path608" />
  <path
     d="M 10.731254,22.603888 C 10.731254,22.603888 11.054724,16.000254 20.36574,14.685205 C 29.676737,13.370195 66.55235,8.888029 67.430981,11.176314 C 68.309567,13.464587 69.397343,28.335538 69.668642,29.538555 C 69.939935,30.741525 38.724155,41.029038 30.15245,50.846916 C 21.580735,60.664761 15.57757,68.609208 15.57757,68.609208 C 15.57757,68.609208 10.669135,33.983559 10.731254,22.603888 z "
     style="font-size:12px;fill:url(#linearGradient615);fill-rule:evenodd;stroke-width:1"
     id="path636" />
  <path
     d="M 16.788705,25.695954 L 65.423126,19.431689"
     style="font-size:12px;fill:none;fill-rule:evenodd;stroke:#3d4e67;stroke-width:4.10704517;stroke-linecap:round;stroke-opacity:1"
     id="path706" />
  <path
     d="M 18.734086,37.031295 L 41.607854,34.115034"
     style="font-size:12px;fill:none;fill-rule:evenodd;stroke:#3d4e67;stroke-width:4.10704517;stroke-linecap:round;stroke-opacity:1"
     id="path707"
     sodipodi:nodetypes="cc" />
  <path
     d="M 19.901325,48.366639 L 43.826993,45.152079"
     style="font-size:12px;fill:none;fill-rule:evenodd;stroke:#3d4e67;stroke-width:4.10704517;stroke-linecap:round;stroke-opacity:1"
     id="path708"
     sodipodi:nodetypes="cc" />
  <path
     d="M 23.013914,60.89517 L 47.350187,56.750394"
     style="font-size:12px;fill:none;fill-rule:evenodd;stroke:#3d4e67;stroke-width:4.10704517;stroke-linecap:round;stroke-opacity:1"
     id="path709"
     sodipodi:nodetypes="cc" />
  <path
     d="M 23.792067,72.528822 L 72.426476,63.57987"
     style="font-size:12px;fill:none;fill-rule:evenodd;stroke:#3d4e67;stroke-width:4.10704517;stroke-linecap:round;stroke-opacity:1"
     id="path710" />
  <rect
     style="fill:#283d53;fill-opacity:1;fill-rule:nonzero;stroke:none;stroke-width:2.5;stroke-miterlimit:4;stroke-opacity:1"
     id="rect1072"
     width="21.199055"
     height="25.09276"
     x="41.62878"
     y="37.93969"
     rx="11.62501"
     ry="0"
     transform="matrix(0.9899201,-0.141627,0.141627,0.9899201,0,0)" />
</svg>
