<?xml version="1.0" encoding="UTF-8" standalone="no"?>
<!-- Created with Sodipodi ("http://www.sodipodi.com/") -->
<svg
   xmlns:dc="http://purl.org/dc/elements/1.1/"
   xmlns:cc="http://web.resource.org/cc/"
   xmlns:rdf="http://www.w3.org/1999/02/22-rdf-syntax-ns#"
   xmlns:svg="http://www.w3.org/2000/svg"
   xmlns="http://www.w3.org/2000/svg"
   xmlns:xlink="http://www.w3.org/1999/xlink"
   xmlns:sodipodi="http://sodipodi.sourceforge.net/DTD/sodipodi-0.dtd"
   xmlns:inkscape="http://www.inkscape.org/namespaces/inkscape"
   version="1.0"
   x="0"
   y="0"
   width="90"
   height="90"
   id="svg704"
   sodipodi:version="0.32"
   sodipodi:docname="gtk-index.svg"
   sodipodi:docbase="/home/tweenk/dev/GartoonRedux/scalable/gtk"
   inkscape:version="0.45.1"
   inkscape:output_extension="org.inkscape.output.svg.inkscape">
  <metadata
     id="metadata43">
    <rdf:RDF>
      <cc:Work
         rdf:about="">
        <dc:format>image/svg+xml</dc:format>
        <dc:type
           rdf:resource="http://purl.org/dc/dcmitype/StillImage" />
      </cc:Work>
    </rdf:RDF>
  </metadata>
  <sodipodi:namedview
     id="base"
     inkscape:zoom="5.3666667"
     inkscape:cx="32.112155"
     inkscape:cy="44.332123"
     inkscape:window-width="1014"
     inkscape:window-height="695"
     inkscape:window-x="0"
     inkscape:window-y="1"
     inkscape:current-layer="svg704"
     width="90px"
     height="90px" />
  <defs
     id="defs706">
    <linearGradient
       inkscape:collect="always"
       xlink:href="#linearGradient612"
       id="linearGradient1099"
       gradientUnits="userSpaceOnUse"
       spreadMethod="pad"
       x1="50.643887"
       y1="5.3679295"
       x2="35.752094"
       y2="68.044357" />
  </defs>
  <g
     id="g856"
     transform="matrix(0.949404,0,0,0.949404,1.381355,2.413668)">
    <sodipodi:namedview
       id="namedview857" />
    <defs
       id="defs606">
      <linearGradient
         id="linearGradient612">
        <stop
           style="stop-color:#7fa8e3;stop-opacity:0.7412;"
           offset="0"
           id="stop613" />
        <stop
           style="stop-color:#ffffff;stop-opacity:0;"
           offset="1"
           id="stop614" />
      </linearGradient>
    </defs>
    <path
       d="M 19.82974,88.27232 C 16.15934,88.2191 10.00597,85.99934 9.468689,80.0426 C 7.573996,74.02417 0.987471,17.13975 4.165756,13.17761 C 5.808007,10.05826 9.384137,7.768378 15.74672,6.974554 C 20.9528,6.185077 68.3081,0.01519 71.79998,0.972828 C 75.29198,1.93053 78.04269,2.740348 78.29389,7.543225 C 78.03562,10.15525 86.8313,63.43268 88.18068,66.5744 C 88.82454,70.25435 87.76762,75.39686 82.38307,77.09086 C 76.9986,78.78482 24.08034,87.55335 19.82974,88.27232 z "
       style="font-size:12px;fill:#3d4e67;fill-rule:evenodd;stroke-width:1"
       id="path609" />
    <path
       d="M 24.07013,81.9629 C 20.51164,82.42815 15.56872,83.40078 14.97831,78.58251 C 12.51976,67.17644 6.882724,21.97159 10.89938,14.62532 C 11.79649,12.89787 16.66728,10.55308 27.73158,9.574217 C 40.30504,8.321792 66.10383,6.417236 68.8187,6.540954 C 71.53345,6.664703 72.36397,6.360284 72.95447,11.17867 C 72.71466,16.30138 80.90455,56.37475 81.38837,63.46984 C 81.76484,68.50656 82.41271,70.64654 79.0909,71.86418"
       style="font-size:12px;fill:#ffffff;fill-rule:evenodd;stroke-width:1"
       id="path608" />
    <path
       d="M 11.78963,21.4466 C 11.78963,21.4466 12.10967,14.61081 21.32194,13.24953 C 30.53419,11.88829 67.01873,7.24855 67.88804,9.617281 C 68.75731,11.986 69.83355,27.37975 70.10197,28.62506 C 70.37039,29.87032 39.48566,40.5195 31.00486,50.68253 C 22.52405,60.84553 16.58455,69.06927 16.58455,69.06927 C 16.58455,69.06927 11.72817,33.22633 11.78963,21.4466 z "
       style="font-size:12px;fill:url(#linearGradient1099);fill-rule:evenodd;stroke-width:1"
       id="path636" />
    <path
       d="M 17.78284,24.64737 L 65.90148,18.16288"
       style="font-size:12px;fill:none;fill-rule:evenodd;stroke:#3d4e67;stroke-width:4.15639782;stroke-linecap:round;stroke-opacity:1"
       id="path706" />
    <path
       d="M 19.70759,36.38121 L 67.05632,29.27915"
       style="font-size:12px;fill:none;fill-rule:evenodd;stroke:#3d4e67;stroke-width:4.15639782;stroke-linecap:round;stroke-opacity:1"
       id="path707" />
    <path
       d="M 20.86245,48.11506 L 68.21119,40.70421"
       style="font-size:12px;fill:none;fill-rule:evenodd;stroke:#3d4e67;stroke-width:4.15639782;stroke-linecap:round;stroke-opacity:1"
       id="path708" />
    <path
       d="M 23.94203,61.08404 L 70.13591,52.43805"
       style="font-size:12px;fill:none;fill-rule:evenodd;stroke:#3d4e67;stroke-width:4.15639782;stroke-linecap:round;stroke-opacity:1"
       id="path709" />
    <path
       d="M 24.71193,73.12668 L 72.83056,63.86312"
       style="font-size:12px;fill:none;fill-rule:evenodd;stroke:#3d4e67;stroke-width:4.15639782;stroke-linecap:round;stroke-opacity:1"
       id="path710" />
  </g>
  <g
     id="g2389">
    <path
       d="M 37.834002,81.244032 C 34.374728,76.859636 38.187428,77.807322 36.359243,74.430462 C 31.944501,71.20697 31.656652,68.181045 27.15009,62.271689 C 21.703223,53.004442 15.543269,46.620461 25.204223,42.540864 C 33.714946,40.687424 32.596933,53.931174 36.00123,54.548991 C 39.065086,50.224271 39.099623,31.267912 39.440075,28.178849 C 40.214099,23.510869 46.807638,20.765043 49.871506,25.089775 C 53.616219,29.105581 51.882154,41.270183 51.882154,41.270183 C 52.712225,39.961349 58.223285,39.638638 59.833592,44.35629 C 63.080688,41.442951 68.101016,42.778825 69.184526,47.532002 C 74.178727,43.254721 79.70613,53.402678 77.939743,59.965944 C 76.453887,65.486857 72.677671,73.955699 65.072176,77.38581 C 61.731424,81.744014 59.368596,84.498557 57.30904,85.857428 C 51.181327,86.475245 39.967106,86.20258 37.834002,81.244032 z "
       style="font-size:12px;fill:#000001;fill-opacity:1;fill-rule:evenodd;stroke-width:1"
       id="path647"
       sodipodi:nodetypes="ccccccccccsccc" />
    <path
       d="M 40.199128,73.381411 C 37.378659,71.864014 34.36399,69.096115 30.862923,63.491171 C 26.194815,55.484129 18.511495,48.586689 25.513663,45.383844 C 32.807604,43.782421 29.403308,53.195731 36.746435,58.672072 C 41.755278,51.846384 41.13256,32.216141 41.424332,29.547135 C 41.355679,25.052549 47.540744,23.888701 48.863994,27.187043 C 51.806883,34.522509 49.555365,46.674107 49.555365,46.674107 C 51.057921,40.707273 58.108823,42.560424 58.928342,48.976574 C 60.107496,43.504405 67.655899,44.835595 67.992794,52.056395 C 70.563952,45.49108 76.864614,52.688489 75.173908,59.884744 C 72.603936,70.823469 64.123214,75.783521 58.871596,76.317313 C 53.619967,76.851128 40.782637,75.783521 40.199128,73.381411 z "
       style="font-size:12px;fill:#ffffff;fill-rule:evenodd;stroke-width:1"
       id="path648"
       sodipodi:nodetypes="cccccscccscc" />
    <path
       d="M 67.738913,56.811238 C 67.917241,59.092885 63.261641,63.889193 64.867701,64.433457 C 66.473793,64.977695 70.857716,62.793406 67.738913,56.811238 z "
       style="font-size:12px;fill:#5fa2c7;fill-rule:evenodd;stroke-width:1"
       id="path651" />
    <path
       d="M 41.290362,75.616673 C 41.290362,75.616673 38.022815,78.521167 40.927309,79.973414 C 43.831791,81.42565 53.634421,85.05625 56.901957,81.42565 C 60.169492,77.79505 62.347845,76.342814 60.169492,75.616697 C 55.812774,80.69952 41.653438,76.342791 41.290362,75.616673 z "
       style="font-size:12px;fill:#ffffff;fill-rule:evenodd;stroke-width:1"
       id="path652" />
    <use
       height="90"
       width="90"
       transform="matrix(0.9973524,-7.2720577e-2,7.2720577e-2,0.9973524,-12.92207,3.0691572)"
       id="use2282"
       xlink:href="#path651"
       y="0"
       x="0" />
    <use
       height="90"
       width="90"
       transform="matrix(0.9833145,-0.1819136,0.1819136,0.9833145,-27.531435,9.6433297)"
       id="use2286"
       xlink:href="#path651"
       y="0"
       x="0" />
  </g>
</svg>
