<?xml version="1.0" encoding="UTF-8" standalone="no"?>
<!-- Created with Sodipodi ("http://www.sodipodi.com/") -->
<svg
   xmlns:dc="http://purl.org/dc/elements/1.1/"
   xmlns:cc="http://web.resource.org/cc/"
   xmlns:rdf="http://www.w3.org/1999/02/22-rdf-syntax-ns#"
   xmlns:svg="http://www.w3.org/2000/svg"
   xmlns="http://www.w3.org/2000/svg"
   xmlns:xlink="http://www.w3.org/1999/xlink"
   xmlns:sodipodi="http://sodipodi.sourceforge.net/DTD/sodipodi-0.dtd"
   xmlns:inkscape="http://www.inkscape.org/namespaces/inkscape"
   version="1.0"
   x="0"
   y="0"
   width="90"
   height="90"
   id="svg704"
   sodipodi:version="0.32"
   sodipodi:docname="gtk-color-picker.svg"
   sodipodi:docbase="/home/tweenk/dev/GartoonRedux/scalable/gtk"
   inkscape:version="0.45.1"
   inkscape:output_extension="org.inkscape.output.svg.inkscape">
  <metadata
     id="metadata43">
    <rdf:RDF>
      <cc:Work
         rdf:about="">
        <dc:format>image/svg+xml</dc:format>
        <dc:type
           rdf:resource="http://purl.org/dc/dcmitype/StillImage" />
      </cc:Work>
    </rdf:RDF>
  </metadata>
  <sodipodi:namedview
     id="base"
     inkscape:zoom="3.7948064"
     inkscape:cx="84.58765"
     inkscape:cy="62.001452"
     inkscape:window-width="1014"
     inkscape:window-height="695"
     inkscape:window-x="0"
     inkscape:window-y="1"
     inkscape:current-layer="svg704"
     width="90px"
     height="90px" />
  <defs
     id="defs706" />
  <path
     sodipodi:type="arc"
     style="fill:#000000;fill-opacity:1;stroke:none;stroke-width:0;stroke-linecap:round;stroke-linejoin:miter;stroke-miterlimit:4;stroke-dasharray:none;stroke-opacity:1"
     id="path2193"
     sodipodi:cx="63.243244"
     sodipodi:cy="28.746929"
     sodipodi:rx="24.103193"
     sodipodi:ry="24.103193"
     d="M 87.346437 28.746929 A 24.103193 24.103193 0 1 1  39.140051,28.746929 A 24.103193 24.103193 0 1 1  87.346437 28.746929 z"
     transform="matrix(1.6565352,0,0,1.6565352,-63.059178,-5.319934)" />
  <path
     sodipodi:type="arc"
     style="fill:#ffc93f;fill-opacity:1;stroke:none;stroke-width:0;stroke-linecap:round;stroke-linejoin:miter;stroke-miterlimit:4;stroke-dasharray:none;stroke-opacity:1"
     id="path3185"
     sodipodi:cx="63.243244"
     sodipodi:cy="28.746929"
     sodipodi:rx="24.103193"
     sodipodi:ry="24.103193"
     d="M 87.346437 28.746929 A 24.103193 24.103193 0 1 1  39.140051,28.746929 A 24.103193 24.103193 0 1 1  87.346437 28.746929 z"
     transform="matrix(1.4367627,0,0,1.4367627,-49.581639,1.419439)" />
  <path
     style="fill:#31baff;fill-opacity:1;stroke:none;stroke-width:0;stroke-linecap:round;stroke-linejoin:miter;stroke-miterlimit:4;stroke-dasharray:none;stroke-opacity:1"
     d="M 47.0004,8.3052 C 36.619239,6.585579 26.541692,9.688112 19.062291,15.965182 L 42.186657,42.488692 L 73.50573,29.625726 C 69.145092,18.770974 59.376675,10.355308 47.0004,8.3052 z "
     id="path4156"
     inkscape:transform-center-x="-6.495158"
     inkscape:transform-center-y="-18.356877"
     sodipodi:nodetypes="ccccc" />
  <path
     style="fill:#ed0000;fill-opacity:1;stroke:none;stroke-width:0;stroke-linecap:round;stroke-linejoin:miter;stroke-miterlimit:4;stroke-dasharray:none;stroke-opacity:1"
     d="M 6.520952,41.280409 C 6.123542,51.795529 10.471559,61.401637 17.64131,68.030191 L 43.066269,42.032569 L 24.330561,12.299122 C 14.112021,17.993174 6.994736,28.744437 6.520952,41.280409 z "
     id="path4161"
     inkscape:transform-center-x="18.286472"
     inkscape:transform-center-y="-1.8703979" />
  <g
     id="g2389"
     transform="translate(9.8215011,2.2853548)">
    <path
       d="M 37.834002,81.244032 C 34.374728,76.859636 38.187428,77.807322 36.359243,74.430462 C 31.944501,71.20697 31.656652,68.181045 27.15009,62.271689 C 21.703223,53.004442 15.543269,46.620461 25.204223,42.540864 C 33.714946,40.687424 32.596933,53.931174 36.00123,54.548991 C 39.065086,50.224271 39.099623,31.267912 39.440075,28.178849 C 40.214099,23.510869 46.807638,20.765043 49.871506,25.089775 C 53.616219,29.105581 51.882154,41.270183 51.882154,41.270183 C 52.712225,39.961349 58.223285,39.638638 59.833592,44.35629 C 63.080688,41.442951 68.101016,42.778825 69.184526,47.532002 C 74.178727,43.254721 79.70613,53.402678 77.939743,59.965944 C 76.453887,65.486857 72.677671,73.955699 65.072176,77.38581 C 61.731424,81.744014 59.368596,84.498557 57.30904,85.857428 C 51.181327,86.475245 39.967106,86.20258 37.834002,81.244032 z "
       style="font-size:12px;fill:#000001;fill-opacity:1;fill-rule:evenodd;stroke-width:1"
       id="path647"
       sodipodi:nodetypes="ccccccccccsccc" />
    <path
       d="M 40.199128,73.381411 C 37.378659,71.864014 34.36399,69.096115 30.862923,63.491171 C 26.194815,55.484129 18.511495,48.586689 25.513663,45.383844 C 32.807604,43.782421 29.403308,53.195731 36.746435,58.672072 C 41.755278,51.846384 41.13256,32.216141 41.424332,29.547135 C 41.355679,25.052549 47.540744,23.888701 48.863994,27.187043 C 51.806883,34.522509 49.555365,46.674107 49.555365,46.674107 C 51.057921,40.707273 58.108823,42.560424 58.928342,48.976574 C 60.107496,43.504405 67.655899,44.835595 67.992794,52.056395 C 70.563952,45.49108 76.864614,52.688489 75.173908,59.884744 C 72.603936,70.823469 64.123214,75.783521 58.871596,76.317313 C 53.619967,76.851128 40.782637,75.783521 40.199128,73.381411 z "
       style="font-size:12px;fill:#ffffff;fill-rule:evenodd;stroke-width:1"
       id="path648"
       sodipodi:nodetypes="cccccscccscc" />
    <path
       d="M 67.738913,56.811238 C 67.917241,59.092885 63.261641,63.889193 64.867701,64.433457 C 66.473793,64.977695 70.857716,62.793406 67.738913,56.811238 z "
       style="font-size:12px;fill:#5fa2c7;fill-rule:evenodd;stroke-width:1"
       id="path651" />
    <path
       d="M 41.290362,75.616673 C 41.290362,75.616673 38.022815,78.521167 40.927309,79.973414 C 43.831791,81.42565 53.634421,85.05625 56.901957,81.42565 C 60.169492,77.79505 62.347845,76.342814 60.169492,75.616697 C 55.812774,80.69952 41.653438,76.342791 41.290362,75.616673 z "
       style="font-size:12px;fill:#ffffff;fill-rule:evenodd;stroke-width:1"
       id="path652" />
    <use
       height="90"
       width="90"
       transform="matrix(0.9973524,-7.2720577e-2,7.2720577e-2,0.9973524,-12.92207,3.0691572)"
       id="use2282"
       xlink:href="#path651"
       y="0"
       x="0" />
    <use
       height="90"
       width="90"
       transform="matrix(0.9833145,-0.1819136,0.1819136,0.9833145,-27.531435,9.6433297)"
       id="use2286"
       xlink:href="#path651"
       y="0"
       x="0" />
  </g>
</svg>
