<?xml version="1.0" encoding="UTF-8" standalone="no"?>
<!-- Created with Sodipodi ("http://www.sodipodi.com/") -->
<svg
   xmlns:dc="http://purl.org/dc/elements/1.1/"
   xmlns:cc="http://web.resource.org/cc/"
   xmlns:rdf="http://www.w3.org/1999/02/22-rdf-syntax-ns#"
   xmlns:svg="http://www.w3.org/2000/svg"
   xmlns="http://www.w3.org/2000/svg"
   xmlns:xlink="http://www.w3.org/1999/xlink"
   xmlns:sodipodi="http://sodipodi.sourceforge.net/DTD/sodipodi-0.dtd"
   xmlns:inkscape="http://www.inkscape.org/namespaces/inkscape"
   version="1.0"
   x="0"
   y="0"
   width="90"
   height="90"
   id="svg704"
   sodipodi:version="0.32"
   sodipodi:docname="view-restore.svg"
   sodipodi:docbase="/home/tweenk/GNUtoon/actions"
   inkscape:version="0.45.1"
   inkscape:output_extension="org.inkscape.output.svg.inkscape">
  <metadata
     id="metadata54">
    <rdf:RDF>
      <cc:Work
         rdf:about="">
        <dc:format>image/svg+xml</dc:format>
        <dc:type
           rdf:resource="http://purl.org/dc/dcmitype/StillImage" />
      </cc:Work>
    </rdf:RDF>
  </metadata>
  <sodipodi:namedview
     id="base"
     inkscape:zoom="4.5666667"
     inkscape:cx="45"
     inkscape:cy="45"
     inkscape:window-width="795"
     inkscape:window-height="623"
     inkscape:window-x="114"
     inkscape:window-y="72"
     inkscape:current-layer="svg704"
     width="90px"
     height="90px" />
  <defs
     id="defs706">
    <linearGradient
       id="linearGradient11160">
      <stop
         style="stop-color:#ffffff;stop-opacity:1;"
         offset="0"
         id="stop11162" />
      <stop
         style="stop-color:#c2c2c2;stop-opacity:1;"
         offset="1"
         id="stop11164" />
    </linearGradient>
    <linearGradient
       id="linearGradient12147">
      <stop
         style="stop-color:#ff933d;stop-opacity:1;"
         offset="0"
         id="stop12149" />
      <stop
         style="stop-color:#ffc93f;stop-opacity:1;"
         offset="1"
         id="stop12151" />
    </linearGradient>
    <linearGradient
       inkscape:collect="always"
       xlink:href="#linearGradient11160"
       id="linearGradient2397"
       gradientUnits="userSpaceOnUse"
       gradientTransform="matrix(1.0548994,0,0,1.0548994,22.817351,24.8764)"
       x1="31.135588"
       y1="22.390924"
       x2="25.697926"
       y2="48.034405" />
    <linearGradient
       inkscape:collect="always"
       xlink:href="#linearGradient12147"
       id="linearGradient2399"
       gradientUnits="userSpaceOnUse"
       gradientTransform="matrix(1.0548994,0,0,1.0548994,22.817351,24.8764)"
       x1="53.999454"
       y1="17.663967"
       x2="9.8321218"
       y2="8.9076576" />
  </defs>
  <path
     style="fill:#000000;fill-opacity:0.29019608;fill-rule:evenodd;stroke:none;stroke-width:1pt;stroke-linecap:butt;stroke-linejoin:miter;stroke-opacity:1"
     d="M 7.3065029,66.12902 C 5.3888999,61.525346 -1.2822751,33.09446 5.0754509,3.1251144 C 38.855367,0.72639539 71.502699,9.9496464 87.513939,19.668389 C 89.232882,26.447669 83.912085,68.344673 73.253952,82.367036 C 65.241777,83.459126 27.485298,79.735946 7.3065029,66.12902 z "
     id="path2403"
     sodipodi:nodetypes="ccccc" />
  <g
     id="g2387"
     transform="matrix(1.0756692,0,0,1.0756692,-4.4656891,-2.2033236)">
    <path
       sodipodi:nodetypes="ccccc"
       id="path12157"
       d="M 30.229419,71.893914 C 28.917323,68.743908 24.352654,49.290429 28.702849,28.784281 C 51.816333,27.142987 74.154859,33.45388 85.110354,40.103809 C 86.286517,44.742446 82.645827,73.409946 75.353133,83.004574 C 69.870907,83.751821 44.036506,81.204284 30.229419,71.893914 z "
       style="fill:#283d53;fill-opacity:1;fill-rule:evenodd;stroke:none;stroke-width:1pt;stroke-linecap:butt;stroke-linejoin:miter;stroke-opacity:1" />
    <path
       sodipodi:nodetypes="ccccc"
       id="path12159"
       d="M 30.692413,38.711181 C 44.045601,36.812697 64.568392,41.008524 81.265979,48.208736 C 80.493925,57.741534 77.943578,71.318721 73.256797,79.851148 C 58.944133,79.546039 41.321404,75.303434 32.744629,69.666221 C 30.505088,62.112351 29.209974,45.667282 30.692413,38.711181 z "
       style="fill:url(#linearGradient2397);fill-opacity:1;fill-rule:evenodd;stroke:none;stroke-width:1px;stroke-linecap:butt;stroke-linejoin:miter;stroke-opacity:1" />
    <path
       sodipodi:nodetypes="ccccc"
       id="path12161"
       d="M 30.95706,36.785084 C 31.075928,35.779094 31.360222,33.367355 31.690658,32.268938 C 44.3679,31.030142 59.219313,32.641807 82.009634,41.345094 C 82.062335,42.27123 81.562602,45.962603 81.539187,46.542359 C 64.522018,39.717193 48.902801,35.735149 30.95706,36.785084 z "
       style="fill:url(#linearGradient2399);fill-opacity:1;fill-rule:evenodd;stroke:none;stroke-width:1px;stroke-linecap:butt;stroke-linejoin:miter;stroke-opacity:1" />
  </g>
  <g
     id="g1188"
     transform="matrix(-0.6153288,-0.6124296,-0.6352629,0.6382683,64.152504,30.046484)">
    <sodipodi:namedview
       id="namedview1189"
       zoom="9.65625000"
       cx="16.0000000"
       cy="20.1423948"
       window-width="1014"
       window-height="696"
       window-x="0"
       window-y="0" />
    <defs
       id="defs550" />
    <g
       id="g572"
       transform="matrix(1.046252,1.436184,-1.436184,1.046252,51.70954,-19.10073)">
      <g
         transform="matrix(1.008714,0,0,1.008714,-45.46822,-0.252175)"
         style="font-size:12px"
         id="g584">
        <path
           d="M 51.9665,36.0486 C 53.9602,37.0454 65.4724,34.7713 65.7572,32.6353 C 66.8738,29.0839 63.8447,27.7777 64.064,26.2358 C 64.4912,24.8117 69.3897,19.3094 68.8358,17.5805 C 67.2423,14.4362 62.9702,10.5668 59.9594,12.4381 C 57.3645,14.7813 55.6307,20.7151 54.0642,20.1455 C 52.4977,19.5759 51.1121,20.0634 50.6849,21.0602 C 50.2577,22.057 49.6881,35.3365 51.9665,36.0486 z "
           transform="matrix(1.369638,0,0,1.207417,-21.85404,-4.997635)"
           style="fill:#0d3c07;fill-rule:evenodd;stroke-width:1pt"
           id="path582" />
        <path
           d="M 51.5506,35.4589 C 53.5443,36.4557 64.2247,34.8892 64.5095,32.7532 C 64.7943,30.6171 61.6614,29.193 62.0886,27.769 C 62.5158,26.3449 69.4937,17.6582 68.212,16.519 C 66.9304,15.3797 62.6582,11.3924 61.519,12.674 C 60.3797,13.9557 55.1108,23.7816 53.5443,23.212 C 51.9778,22.6424 50.6962,21.3608 50.269,22.3576 C 49.8418,23.3544 49.2722,34.7468 51.5506,35.4589 z "
           style="fill:#2aaf18;fill-rule:evenodd;stroke-width:1pt"
           id="path581" />
        <path
           d="M 67.6424,15.9494 C 67.6424,15.9494 69.0665,16.8038 68.0696,18.5127 C 67.0728,20.2215 61.519,27.769 61.9462,28.3386 C 63.5126,29.6202 65.3639,32.7531 64.3671,33.6076 C 62.6583,35.174 52.8323,36.3133 51.693,35.7437 C 50.5538,35.174 60.0949,33.4652 60.2373,31.0443 C 60.3797,28.6234 57.8165,27.6266 58.6709,26.2025 C 59.5253,24.7785 65.3639,14.9525 66.2184,15.2373 C 67.0728,15.5221 67.7848,16.519 67.6424,15.9494 z "
           style="fill:#208c11;fill-rule:evenodd;stroke-width:1pt"
           id="path583" />
      </g>
      <path
         d="M 16.9462,4.6519 C 16.9462,4.6519 9.25633,14.193 9.54114,15.0475 C 9.82595,15.9019 17.3734,8.49683 16.9462,4.6519 z "
         transform="matrix(1.008714,0,0,1.008714,0.929487,8.797523)"
         style="font-size:12px;fill:#ffffff;fill-rule:evenodd;stroke-width:1pt"
         id="path588" />
      <path
         d="M 5.41139,24.019 C 5.41139,24.019 4.41456,17.4684 4.84177,16.3291 C 5.26899,15.1899 6.69304,17.0411 6.69304,17.0411 C 6.69304,17.0411 4.98418,23.1646 5.41139,24.019 z "
         transform="matrix(1.008714,0,0,1.008714,0.929487,8.797523)"
         style="font-size:12px;fill:#ffffff;fill-rule:evenodd;stroke-width:1pt"
         id="path589" />
    </g>
  </g>
</svg>
