<?xml version="1.0" encoding="UTF-8" standalone="no"?>
<!-- Created with Sodipodi ("http://www.sodipodi.com/") -->
<svg
   xmlns:dc="http://purl.org/dc/elements/1.1/"
   xmlns:cc="http://web.resource.org/cc/"
   xmlns:rdf="http://www.w3.org/1999/02/22-rdf-syntax-ns#"
   xmlns:svg="http://www.w3.org/2000/svg"
   xmlns="http://www.w3.org/2000/svg"
   xmlns:xlink="http://www.w3.org/1999/xlink"
   xmlns:sodipodi="http://sodipodi.sourceforge.net/DTD/sodipodi-0.dtd"
   xmlns:inkscape="http://www.inkscape.org/namespaces/inkscape"
   id="svg666"
   sodipodi:version="0.32"
   width="90"
   height="90"
   sodipodi:docbase="/home/tweenk/GNUtoon/gtk"
   sodipodi:docname="gtk-revert-to-saved-rtl.svg"
   inkscape:version="0.45.1"
   inkscape:output_extension="org.inkscape.output.svg.inkscape"
   version="1.0">
  <metadata
     id="metadata30">
    <rdf:RDF>
      <cc:Work
         rdf:about="">
        <dc:format>image/svg+xml</dc:format>
        <dc:type
           rdf:resource="http://purl.org/dc/dcmitype/StillImage" />
      </cc:Work>
    </rdf:RDF>
  </metadata>
  <defs
     id="defs668">
    <linearGradient
       id="linearGradient689">
      <stop
         style="stop-color:#ffb700;stop-opacity:1;"
         offset="0.000000"
         id="stop690" />
      <stop
         style="stop-color:#fdffff;stop-opacity:0;"
         offset="1.000000"
         id="stop691" />
    </linearGradient>
    <linearGradient
       id="linearGradient684">
      <stop
         style="stop-color:#ffffff;stop-opacity:0.647059;"
         offset="0.000000"
         id="stop685" />
      <stop
         style="stop-color:#fdffff;stop-opacity:0;"
         offset="1.000000"
         id="stop686" />
    </linearGradient>
    <linearGradient
       id="linearGradient677">
      <stop
         style="stop-color:#000000;stop-opacity:1;"
         offset="0.000000"
         id="stop678" />
      <stop
         style="stop-color:#6a6762;stop-opacity:1;"
         offset="1.000000"
         id="stop679" />
    </linearGradient>
    <linearGradient
       xlink:href="#linearGradient677"
       id="linearGradient680"
       x1="68.311676"
       y1="71.296051"
       x2="52.578365"
       y2="39.579781"
       gradientUnits="userSpaceOnUse"
       spreadMethod="pad"
       gradientTransform="matrix(0.990099,0,0,0.967596,0.713133,-1.795932)" />
    <linearGradient
       xlink:href="#linearGradient684"
       id="linearGradient683"
       x1="49.025764"
       y1="44.340187"
       x2="56.455326"
       y2="53.182751"
       gradientUnits="userSpaceOnUse"
       spreadMethod="pad"
       gradientTransform="matrix(0.995958,0,0,0.961902,0.713133,-1.795932)" />
    <linearGradient
       xlink:href="#linearGradient689"
       id="linearGradient688"
       x1="26.295921"
       y1="98.952934"
       x2="31.715986"
       y2="102.82758"
       gradientUnits="userSpaceOnUse"
       spreadMethod="pad"
       gradientTransform="matrix(1.29882,0,0,0.737604,0.713133,-1.795932)" />
    <linearGradient
       xlink:href="#linearGradient689"
       id="linearGradient693"
       x1="33.579441"
       y1="53.821957"
       x2="-14.069118"
       y2="26.552649"
       gradientUnits="userSpaceOnUse"
       spreadMethod="pad"
       gradientTransform="matrix(0.76422,0,0,1.253589,0.713133,-1.795932)" />
  </defs>
  <sodipodi:namedview
     id="base"
     inkscape:zoom="5.0416667"
     inkscape:cx="36"
     inkscape:cy="-10.100718"
     inkscape:window-width="840"
     inkscape:window-height="644"
     inkscape:window-x="17"
     inkscape:window-y="85"
     inkscape:current-layer="svg666"
     width="90px"
     height="90px" />
  <path
     style="fill:#000000;fill-opacity:0.29824602;fill-rule:evenodd;stroke:none;stroke-width:1pt;stroke-linecap:butt;stroke-linejoin:miter;stroke-opacity:1"
     d="M 1.98248,47.444721 C 1.98248,47.444721 15.748945,65.304621 27.189336,80.01318 C 29.330061,81.585861 42.925113,87.152751 46.094454,85.810641 C 48.920811,84.320238 87.182874,58.819053 87.868614,55.793967 C 88.948251,52.383546 87.62076,50.172921 86.661597,48.467808 C 85.873926,46.762599 60.27321,12.489006 59.288595,11.63643 C 58.303977,10.783845 55.546959,9.590237 52.199214,10.613333 C 43.680309,14.870153 16.872577,29.392151 3.240528,41.587026 C 1.468172,43.292232 1.785556,45.739512 1.98248,47.444721 z "
     id="path699"
     sodipodi:nodetypes="ccccccccc" />
  <path
     style="fill:none;fill-opacity:1;fill-rule:evenodd;stroke:#000000;stroke-width:0.97878284pt;stroke-linecap:butt;stroke-linejoin:miter;stroke-opacity:1"
     d="M 9.321263,34.821411 C 9.321263,34.879944 9.321263,34.938474 9.321263,34.997103"
     id="path671" />
  <path
     style="fill:#261d14;fill-opacity:1;fill-rule:evenodd;stroke:none;stroke-width:1pt;stroke-linecap:butt;stroke-linejoin:miter;stroke-opacity:1"
     d="M 2.118537,40.618743 C 2.118537,40.618743 14.399355,59.019177 24.605124,74.172888 C 26.514826,75.793167 38.64273,81.52854 41.470041,80.145813 C 43.991385,78.610296 78.124287,52.337319 78.736026,49.220679 C 79.699146,45.707046 78.51492,43.429515 77.659266,41.672796 C 76.956597,39.915978 54.118656,4.605092 53.240298,3.726713 C 52.361937,2.848323 49.902453,1.61859 46.915989,2.672652 C 39.316425,7.058303 15.401726,22.019813 3.240819,34.583763 C 1.659732,36.340581 1.942865,38.861925 2.118537,40.618743 z "
     id="path676"
     sodipodi:nodetypes="ccccccccc" />
  <path
     style="fill:#f1e36c;fill-opacity:1;fill-rule:evenodd;stroke:none;stroke-width:1pt;stroke-linecap:butt;stroke-linejoin:miter;stroke-opacity:1"
     d="M 9.145591,34.997103 C 9.145591,34.997103 27.415895,63.632277 28.118563,64.862022 C 28.821328,66.091764 30.402453,67.848582 33.564609,68.72694 C 38.307888,70.659351 42.875379,72.41607 43.226763,72.41607 C 43.578144,72.41607 45.861936,70.307967 45.861936,70.307967 L 35.497017,57.307971 L 59.213319,36.578133 L 69.226857,51.159255 L 74.672805,46.767357 C 74.672805,46.767357 50.078142,6.713204 49.726758,6.713204 C 49.375476,6.713204 43.578144,10.226751 43.578144,10.226751 L 55.875474,28.84839 C 55.875474,28.84839 31.807791,46.591764 29.69969,48.348486 C 27.767277,48.348486 13.888822,30.956492 13.888822,30.956492 L 9.145591,34.997103 z "
     id="path672"
     sodipodi:nodetypes="ccccccccccccccc" />
  <path
     style="fill:#ffffff;fill-opacity:1;fill-rule:evenodd;stroke:none;stroke-width:1pt;stroke-linecap:butt;stroke-linejoin:miter;stroke-opacity:1"
     d="M 15.294256,30.078131 L 29.69969,46.416075 L 53.767371,28.321412 L 42.17271,10.753728 L 15.294256,30.078131 z "
     id="path673"
     sodipodi:nodetypes="ccccc" />
  <path
     style="fill:url(#linearGradient680);fill-opacity:1;fill-rule:evenodd;stroke:none;stroke-width:1pt;stroke-linecap:butt;stroke-linejoin:miter;stroke-opacity:1"
     d="M 37.429431,57.48366 L 46.740297,69.078225 L 49.024092,67.321506 L 40.942968,57.307971 C 40.942968,57.307971 43.578144,54.321408 45.334866,54.145818 C 48.145731,56.780895 53.767371,63.807969 53.767371,63.807969 L 68.348496,52.740384 L 58.686246,38.861925 L 37.429431,57.48366 z "
     id="path674"
     sodipodi:nodetypes="ccccccccc" />
  <path
     style="fill:#f1e36c;fill-opacity:1;fill-rule:evenodd;stroke:none;stroke-width:1pt;stroke-linecap:butt;stroke-linejoin:miter;stroke-opacity:1"
     d="M 8.465621,35.920977 C 7.762923,35.745288 28.997021,68.551152 29.524094,68.551152 C 30.051072,68.551152 41.294349,73.294527 41.294349,73.294527 L 40.59168,75.578226 L 28.821328,72.240477 L 6.006155,38.578863 L 8.465621,35.920977 z "
     id="path675"
     sodipodi:nodetypes="ccccccc" />
  <path
     style="fill:#f1e36c;fill-opacity:1;fill-rule:evenodd;stroke:none;stroke-width:1pt;stroke-linecap:butt;stroke-linejoin:miter;stroke-opacity:1"
     d="M 42.17271,57.132276 L 49.375476,66.443145 L 52.537629,63.807969 L 44.983578,54.672792 L 42.17271,57.132276 z "
     id="path681" />
  <path
     style="fill:url(#linearGradient683);fill-opacity:1;fill-rule:evenodd;stroke:none;stroke-width:1pt;stroke-linecap:butt;stroke-linejoin:miter;stroke-opacity:1"
     d="M 58.522494,39.802341 L 44.911347,51.731256 C 46.083828,55.197714 50.009139,57.899547 51.640476,59.836752 C 54.138429,41.076717 59.389206,42.657057 64.639986,49.437186 L 58.522494,39.802341 z "
     id="path682"
     sodipodi:nodetypes="ccccc" />
  <path
     style="fill:url(#linearGradient688);fill-opacity:1;fill-rule:evenodd;stroke:none;stroke-width:1pt;stroke-linecap:butt;stroke-linejoin:miter;stroke-opacity:1"
     d="M 41.087925,73.295019 L 40.476186,75.589089 L 28.700252,72.530391 L 29.15901,68.554086 L 41.087925,73.295019 z "
     id="path687" />
  <path
     style="fill:url(#linearGradient693);fill-opacity:1;fill-rule:evenodd;stroke:none;stroke-width:1pt;stroke-linecap:butt;stroke-linejoin:miter;stroke-opacity:1"
     d="M 28.700252,72.377409 L 29.464879,68.859957 L 12.947918,43.778643 L 12.030309,47.143212 L 28.700252,72.377409 z "
     id="path692" />
  <path
     style="fill:#bae6ff;fill-opacity:1;fill-rule:evenodd;stroke:none;stroke-width:1pt;stroke-linecap:butt;stroke-linejoin:miter;stroke-opacity:1"
     d="M 15.241989,30.014511 L 21.359382,36.896529 L 47.511285,18.54435 L 42.158517,10.744723 L 15.241989,30.014511 z "
     id="path697"
     sodipodi:nodetypes="ccccc" />
  <g
     id="g1086"
     transform="matrix(-1.850121,0,0,1.850121,89.120667,28.636737)">
    <metadata
       id="metadata14">
      <rdf:RDF>
        <cc:Work
           rdf:about="">
          <dc:format>image/svg+xml</dc:format>
          <dc:type
             rdf:resource="http://purl.org/dc/dcmitype/StillImage" />
        </cc:Work>
      </rdf:RDF>
    </metadata>
    <sodipodi:namedview
       id="namedview1093"
       inkscape:zoom="3.4139999"
       inkscape:cx="15.999998"
       inkscape:cy="20.142398"
       inkscape:window-width="1014"
       inkscape:window-height="696"
       inkscape:window-x="0"
       inkscape:window-y="25"
       inkscape:current-layer="svg548" />
    <defs
       id="defs550" />
    <path
       d="M 1.7966912,12.215167 C 2.0270632,9.5510591 11.712285,0.66572845 13.906888,1.4700302 C 17.935082,2.1151802 17.201091,6.7127899 18.793388,7.2786352 C 20.396558,7.5594371 34.308679,9.0808467 28.015736,24.008469 C 26.870834,26.682471 26.143626,27.184072 24.946934,28.060726 C 23.782439,28.848933 21.912727,28.895064 20.39663,27.190083 C 19.011719,25.132471 19.609703,23.103976 20.252016,21.399802 C 22.273267,16.298329 18.54363,16.237111 16.480695,15.160144 C 15.998538,16.945371 15.110097,21.158346 13.912345,21.099739 C 12.714583,21.041142 1.4984732,17.53656 1.7966912,12.215167 z "
       style="font-size:12px;fill:#0d3c07;fill-rule:evenodd"
       id="path582"
       sodipodi:nodetypes="cccsscsccc" />
    <path
       d="M 3.5101892,12.045037 C 3.5856132,10.049064 11.792893,2.9595809 13.59401,3.6557886 C 15.395217,4.3520331 14.480246,6.8891171 15.25253,8.2983198 C 32.795218,8.6612267 28.221033,28.261895 22.537982,25.988715 C 19.425562,24.781629 24.729659,19.706135 22.26244,16.266553 C 20.169858,13.265714 14.644604,12.701609 14.531049,13.439741 C 14.303933,14.916029 14.024614,19.330054 13.057343,19.23641 C 12.090059,19.142767 3.0884222,14.1421 3.5101892,12.045037 z "
       style="font-size:12px;fill:#2aaf18;fill-rule:evenodd"
       id="path581"
       sodipodi:nodetypes="ccccsccc" />
    <path
       d="M 27.227719,20.683533 C 26.540935,16.29753 25.52996,13.725889 23.140309,11.918002 C 20.510835,9.82684 16.047103,9.5060377 15.912225,9.125696 C 15.777366,8.7453639 19.149528,9.7572684 21.754198,10.536319 C 26.637501,11.976527 27.655564,17.657035 27.227719,20.683533 z "
       style="font-size:12px;fill:#ffffff;fill-rule:evenodd"
       id="path588"
       sodipodi:nodetypes="cscsc" />
    <path
       d="M 7.4909272,10.171925 C 8.0462472,9.5240558 11.955702,6.257846 13.022077,6.0305439 C 14.08839,5.8033087 13.377959,7.7719346 13.377959,7.7719346 C 13.377959,7.7719346 7.9298322,9.4370111 7.4909272,10.171925 z "
       style="font-size:12px;fill:#ffffff;fill-rule:evenodd"
       id="path589"
       sodipodi:nodetypes="cccc" />
    <path
       style="font-size:12px;fill:none;fill-rule:evenodd;stroke-width:1pt"
       d="M 7.1129572,17.804967 C 7.1129572,17.804967 2.7347682,15.977129 2.7421652,16.034526 C 2.7495632,16.091914 3.5568742,15.11266 3.5568742,15.11266 L 4.6917262,15.316455 L 7.2075762,16.275773 L 7.1129572,17.804967 z "
       id="path576" />
    <path
       style="fill:#1f8b10;fill-opacity:0.9899;fill-rule:evenodd;stroke:none;stroke-width:1pt;stroke-linecap:butt;stroke-linejoin:miter;stroke-opacity:1"
       d="M 3.5634402,12.031744 C 3.1006732,14.808322 13.188912,19.435954 13.188912,19.435954 C 14.114441,18.695536 14.669757,13.697695 15.595281,13.049822 C 17.261228,13.790244 22.444176,15.271084 22.721831,17.214691 C 22.999496,19.158298 21.6112,23.045508 21.426093,23.971032 C 21.055884,25.359328 22.259069,26.655061 23.462254,26.099746 C 24.665438,25.54443 24.850545,24.433794 24.850545,24.433794 C 24.850545,24.433794 23.554807,24.433799 23.3697,23.415716 C 23.184598,22.397639 25.868623,17.399798 24.480332,15.456191 C 23.092045,13.512589 17.538889,10.828564 14.114441,11.106219 L 12.72615,16.844477 C 12.72615,16.844477 11.337863,16.751934 3.5634402,12.031744 z "
       id="path615"
       sodipodi:nodetypes="cccccccccccc" />
  </g>
</svg>
