<?xml version="1.0" encoding="UTF-8" standalone="no"?>
<!-- Created with Sodipodi ("http://www.sodipodi.com/") -->
<svg
   xmlns:dc="http://purl.org/dc/elements/1.1/"
   xmlns:cc="http://web.resource.org/cc/"
   xmlns:rdf="http://www.w3.org/1999/02/22-rdf-syntax-ns#"
   xmlns:svg="http://www.w3.org/2000/svg"
   xmlns="http://www.w3.org/2000/svg"
   xmlns:xlink="http://www.w3.org/1999/xlink"
   xmlns:sodipodi="http://sodipodi.sourceforge.net/DTD/sodipodi-0.dtd"
   xmlns:inkscape="http://www.inkscape.org/namespaces/inkscape"
   id="svg604"
   sodipodi:version="0.32"
   width="90"
   height="90"
   sodipodi:docbase="/home/tweenk/GNUtoon/gtk"
   sodipodi:docname="gtk-file.svg"
   inkscape:version="0.45.1"
   inkscape:output_extension="org.inkscape.output.svg.inkscape"
   version="1.0">
  <metadata
     id="metadata11">
    <rdf:RDF>
      <cc:Work
         rdf:about="">
        <dc:format>image/svg+xml</dc:format>
        <dc:type
           rdf:resource="http://purl.org/dc/dcmitype/StillImage" />
      </cc:Work>
    </rdf:RDF>
  </metadata>
  <defs
     id="defs606">
    <linearGradient
       id="linearGradient612">
      <stop
         style="stop-color:#7fa8e3;stop-opacity:0.741176;"
         offset="0.000000"
         id="stop613" />
      <stop
         style="stop-color:#ffffff;stop-opacity:0;"
         offset="1.000000"
         id="stop614" />
    </linearGradient>
    <linearGradient
       xlink:href="#linearGradient612"
       id="linearGradient615"
       x1="50.643887"
       y1="5.3679295"
       x2="35.752094"
       y2="68.044357"
       gradientUnits="userSpaceOnUse"
       spreadMethod="pad"
       gradientTransform="matrix(0.960363,0,0,0.960363,0.824828,1.422404)" />
  </defs>
  <sodipodi:namedview
     id="base"
     inkscape:zoom="5.0416667"
     inkscape:cx="26.677686"
     inkscape:cy="-0.49586777"
     inkscape:window-width="968"
     inkscape:window-height="728"
     inkscape:window-x="0"
     inkscape:window-y="1"
     inkscape:current-layer="svg604"
     width="90px"
     height="90px" />
  <path
     style="fill:#3d4e67;fill-opacity:1;fill-rule:evenodd;stroke:none;stroke-width:1pt;stroke-linecap:butt;stroke-linejoin:miter;stroke-opacity:1"
     d="M 20.209601,87.032369 C 16.732816,86.981423 10.904033,84.85673 10.395098,79.155092 C 8.600356,73.394408 2.36128,18.946155 5.371903,15.153699 C 6.927526,12.167938 10.315008,9.976125 16.341948,9.2163 C 21.273415,8.460632 66.130634,2.55498 69.43832,3.471606 C 72.746099,4.388292 75.351719,5.163429 75.589667,9.760617 C 75.345023,12.260776 83.676719,63.256511 84.954914,66.26369 C 85.564802,69.786038 84.563642,74.708312 79.463123,76.329758 C 74.362697,77.95118 24.235964,86.344181 20.209601,87.032369 z "
     id="path609"
     sodipodi:nodetypes="ccccccccc" />
  <path
     style="fill:#ffffff;fill-opacity:1;fill-rule:evenodd;stroke:none;stroke-width:1pt;stroke-linecap:butt;stroke-linejoin:miter;stroke-opacity:1"
     d="M 24.226293,80.993153 C 20.855522,81.438479 16.173347,82.369448 15.614079,77.757533 C 13.285216,66.83996 7.945559,23.571055 11.750315,16.539407 C 12.600103,14.88593 17.213939,12.641561 27.694596,11.70463 C 39.604778,10.505844 64.042649,8.682849 66.614312,8.801268 C 69.185852,8.919718 69.97256,8.628336 70.531907,13.240366 C 70.30475,18.143695 78.062603,56.500853 78.520907,63.292097 C 78.877511,68.1131 79.491212,70.16144 76.344629,71.326928"
     id="path608"
     sodipodi:nodetypes="cccccccs" />
  <path
     style="fill:url(#linearGradient615);fill-opacity:1;fill-rule:evenodd;stroke:none;stroke-width:1pt;stroke-linecap:butt;stroke-linejoin:miter;stroke-opacity:1"
     d="M 12.59361,23.068555 C 12.59361,23.068555 12.896768,16.525511 21.623083,15.222538 C 30.34937,13.919603 64.909283,9.47856 65.73275,11.745849 C 66.556154,14.013123 67.575617,28.747607 67.829882,29.939591 C 68.08415,31.131527 38.82863,41.32463 30.795212,51.052403 C 22.761767,60.780167 17.135582,68.651717 17.135582,68.651717 C 17.135582,68.651717 12.535403,34.34381 12.59361,23.068555 z "
     id="path636" />
</svg>
