<?xml version="1.0" encoding="UTF-8" standalone="no"?>
<!-- Created with Sodipodi ("http://www.sodipodi.com/") -->
<svg
   xmlns:dc="http://purl.org/dc/elements/1.1/"
   xmlns:cc="http://web.resource.org/cc/"
   xmlns:rdf="http://www.w3.org/1999/02/22-rdf-syntax-ns#"
   xmlns:svg="http://www.w3.org/2000/svg"
   xmlns="http://www.w3.org/2000/svg"
   xmlns:sodipodi="http://sodipodi.sourceforge.net/DTD/sodipodi-0.dtd"
   xmlns:inkscape="http://www.inkscape.org/namespaces/inkscape"
   version="1.0"
   x="0.00000000"
   y="0.00000000"
   width="90"
   height="90"
   id="svg548"
   sodipodi:version="0.32"
   sodipodi:docname="gtk-redo-rtl.svg"
   sodipodi:docbase="/home/tweenk/GNUtoon/gtk"
   inkscape:version="0.45.1"
   inkscape:output_extension="org.inkscape.output.svg.inkscape">
  <metadata
     id="metadata14">
    <rdf:RDF>
      <cc:Work
         rdf:about="">
        <dc:format>image/svg+xml</dc:format>
        <dc:type
           rdf:resource="http://purl.org/dc/dcmitype/StillImage" />
      </cc:Work>
    </rdf:RDF>
  </metadata>
  <sodipodi:namedview
     id="base"
     inkscape:zoom="3.4139999"
     inkscape:cx="15.999998"
     inkscape:cy="20.142398"
     inkscape:window-width="1014"
     inkscape:window-height="696"
     inkscape:window-x="0"
     inkscape:window-y="1"
     inkscape:current-layer="svg548"
     height="90px"
     width="90px" />
  <defs
     id="defs550" />
  <path
     d="M 3.959332,36.640229 C 4.650448,28.647905 33.706114,1.9919118 40.289923,4.4048178 C 52.374505,6.3402678 50.172532,20.133098 54.949423,21.830633 C 59.758933,22.673039 101.4953,27.237269 82.616467,72.020135 C 79.181761,80.042141 77.000137,81.546944 73.410061,84.176906 C 69.916576,86.541527 64.30744,86.67992 59.759149,81.564977 C 55.604416,75.392141 57.398368,69.306656 59.325307,64.194134 C 65.38906,48.889715 54.200149,48.706061 48.011344,45.47516 C 46.564873,50.830841 43.89955,63.469766 40.306294,63.293945 C 36.713008,63.118154 3.064678,52.604408 3.959332,36.640229 z "
     style="font-size:12px;fill:#0d3c07;fill-rule:evenodd"
     id="path582"
     sodipodi:nodetypes="cccsscsccc" />
  <path
     d="M 9.099826,36.129839 C 9.326098,30.14192 33.947938,8.8734708 39.351289,10.962095 C 44.75491,13.050827 42.009997,20.662079 44.326849,24.889688 C 96.954913,25.978409 83.232358,84.780413 66.183205,77.960873 C 56.845945,74.339615 72.758236,59.113133 65.356579,48.794387 C 59.078833,39.79187 42.503071,38.099555 42.162406,40.313951 C 41.481058,44.742815 40.643101,57.98489 37.741288,57.703958 C 34.839436,57.423029 7.834525,42.421028 9.099826,36.129839 z "
     style="font-size:12px;fill:#2aaf18;fill-rule:evenodd"
     id="path581"
     sodipodi:nodetypes="ccccsccc" />
  <path
     d="M 80.252416,62.045327 C 78.192064,48.887318 75.159139,41.172395 67.990186,35.748734 C 60.101764,29.475248 46.710568,28.512842 46.305934,27.371816 C 45.901357,26.23082 56.017843,29.266532 63.831853,31.603685 C 78.481762,35.924309 81.535951,52.965833 80.252416,62.045327 z "
     style="font-size:12px;fill:#ffffff;fill-rule:evenodd"
     id="path588"
     sodipodi:nodetypes="cscsc" />
  <path
     d="M 21.04204,30.510503 C 22.708,28.566896 34.436365,18.768266 37.63549,18.08636 C 40.834429,17.404655 38.703136,23.310533 38.703136,23.310533 C 38.703136,23.310533 22.358755,28.305761 21.04204,30.510503 z "
     style="font-size:12px;fill:#ffffff;fill-rule:evenodd"
     id="path589"
     sodipodi:nodetypes="cccc" />
  <path
     style="font-size:12px;fill:none;fill-rule:evenodd;stroke-width:1pt"
     d="M 19.90813,53.409629 C 19.90813,53.409629 6.773563,47.926115 6.795754,48.098306 C 6.817948,48.27047 9.239881,45.332708 9.239881,45.332708 L 12.644437,45.944093 L 20.191987,48.822047 L 19.90813,53.409629 z "
     id="path576" />
  <path
     style="fill:#1f8b10;fill-opacity:0.9899;fill-rule:evenodd;stroke:none;stroke-width:1pt;stroke-linecap:butt;stroke-linejoin:miter;stroke-opacity:1"
     d="M 9.259579,36.08996 C 7.871278,44.419694 38.135995,58.30259 38.135995,58.30259 C 40.912582,56.081336 42.57853,41.087813 45.355102,39.144194 C 50.352943,41.36546 65.901787,45.80798 66.734752,51.638801 C 67.567747,57.469622 63.402859,69.131252 62.847538,71.907824 C 61.736911,76.072712 65.346466,79.959911 68.956021,78.293966 C 72.565573,76.628018 73.120894,73.29611 73.120894,73.29611 C 73.120894,73.29611 69.23368,73.296125 68.678359,70.241876 C 68.123053,67.187645 76.175128,52.194122 72.010255,46.363301 C 67.845394,40.532495 51.185926,32.48042 40.912582,33.313385 L 36.747709,50.528159 C 36.747709,50.528159 32.582848,50.25053 9.259579,36.08996 z "
     id="path615"
     sodipodi:nodetypes="cccccccccccc" />
</svg>
