<?xml version="1.0" encoding="UTF-8" standalone="no"?>
<!-- Created with Inkscape (http://www.inkscape.org/) -->
<svg
   xmlns:dc="http://purl.org/dc/elements/1.1/"
   xmlns:cc="http://creativecommons.org/ns#"
   xmlns:rdf="http://www.w3.org/1999/02/22-rdf-syntax-ns#"
   xmlns:svg="http://www.w3.org/2000/svg"
   xmlns="http://www.w3.org/2000/svg"
   xmlns:xlink="http://www.w3.org/1999/xlink"
   xmlns:sodipodi="http://sodipodi.sourceforge.net/DTD/sodipodi-0.dtd"
   xmlns:inkscape="http://www.inkscape.org/namespaces/inkscape"
   width="90"
   height="90"
   id="svg1"
   sodipodi:version="0.32"
   inkscape:version="0.45+devel"
   sodipodi:docbase="/home/tweenk/GNUtoon/stock"
   sodipodi:docname="stock_disconnect.svg"
   inkscape:output_extension="org.inkscape.output.svg.inkscape"
   version="1.0">
  <defs
     id="defs3">
    <inkscape:perspective
       sodipodi:type="inkscape:persp3d"
       inkscape:vp_x="-50 : 600 : 1"
       inkscape:vp_y="0 : 1000 : 0"
       inkscape:vp_z="700 : 600 : 1"
       inkscape:persp3d-origin="300 : 400 : 1"
       id="perspective26" />
    <linearGradient
       id="linearGradient6204">
      <stop
         style="stop-color:#002f77;stop-opacity:1;"
         offset="0"
         id="stop6206" />
      <stop
         style="stop-color:#558ada;stop-opacity:1;"
         offset="1"
         id="stop6208" />
    </linearGradient>
    <linearGradient
       id="linearGradient830">
      <stop
         style="stop-color:#999999;stop-opacity:1.0000000;"
         offset="0.0000000"
         id="stop831" />
      <stop
         style="stop-color:#fff;stop-opacity:1;"
         offset="1"
         id="stop832" />
    </linearGradient>
    <linearGradient
       inkscape:collect="always"
       xlink:href="#linearGradient830"
       id="linearGradient2222"
       gradientUnits="userSpaceOnUse"
       gradientTransform="matrix(0.6503362,0.8119911,1.3682745,-1.0958713,-31.162035,41.464445)"
       spreadMethod="reflect"
       x1="18.296844"
       y1="31.203695"
       x2="19.685011"
       y2="27.135639" />
    <linearGradient
       inkscape:collect="always"
       xlink:href="#linearGradient6204"
       id="linearGradient6210"
       x1="22.106703"
       y1="79.9944"
       x2="42.098572"
       y2="33.161335"
       gradientUnits="userSpaceOnUse"
       gradientTransform="matrix(1.0437225,0,0,1.0437225,-3.1868841,-1.3869954)" />
  </defs>
  <sodipodi:namedview
     id="base"
     pagecolor="#ffffff"
     bordercolor="#666666"
     borderopacity="1.0"
     inkscape:pageopacity="0.0"
     inkscape:pageshadow="2"
     inkscape:zoom="4"
     inkscape:cx="46.234895"
     inkscape:cy="33.805392"
     inkscape:current-layer="svg1"
     inkscape:window-width="824"
     inkscape:window-height="711"
     inkscape:window-x="100"
     inkscape:window-y="74"
     showguides="true"
     inkscape:guide-bbox="true"
     width="30px"
     height="30px"
     showgrid="false" />
  <metadata
     id="metadata4">
    <rdf:RDF>
      <cc:Work
         rdf:about="">
        <dc:format>image/svg+xml</dc:format>
        <dc:type
           rdf:resource="http://purl.org/dc/dcmitype/StillImage" />
      </cc:Work>
    </rdf:RDF>
  </metadata>
  <path
     style="fill:none;fill-opacity:0.75;fill-rule:evenodd;stroke:#000000;stroke-width:8.44031429;stroke-linecap:round"
     d="M 20.415657,43.462996 C 17.466831,40.130443 10.2127,39.104222 11.648361,32.107892 C 13.135363,24.86136 23.543867,27.800687 24.456994,20.056174 C 25.339781,12.568951 24.548809,12.770849 29.968623,7.6060888 C 35.108669,2.7079311 64.656049,10.897488 67.441673,16.250995"
     id="path850"
     sodipodi:nodetypes="czzzz" />
  <path
     style="fill:none;fill-opacity:0.75;fill-rule:evenodd;stroke:url(#linearGradient2222);stroke-width:3.14753485;stroke-linecap:round;stroke-miterlimit:4;stroke-dasharray:none;stroke-opacity:1"
     d="M 17.808021,41.13659 C 13.546682,38.847735 11.484234,37.616401 11.67495,31.674789 C 11.857301,25.993842 24.353243,26.323835 24.222644,20.144906 C 24.091814,13.954966 24.679371,14.548732 28.951457,8.7385517 C 32.932484,3.3242227 55.679973,7.181371 68.039511,15.985524"
     id="path937"
     sodipodi:nodetypes="czzzz" />
  <g
     inkscape:label="Layer 1"
     inkscape:groupmode="layer"
     id="layer1" />
  <g
     id="g923"
     transform="matrix(1.4616136,1.1791981,-1.1997698,1.4871114,40.471634,38.485846)"
     style="fill:#000000;fill-opacity:1">
    <path
       style="fill:#000000;fill-rule:evenodd;stroke:none;stroke-width:1.32821875pt"
       d="M 50.440459,27.334954 C 50.440459,36.972895 44.787923,44.041557 38.069359,44.041557 C 31.350795,44.041557 21.696045,43.971427 21.696045,27.450899 C 21.696045,10.930371 32.509967,11.005138 39.228531,11.005138 C 45.947095,11.005138 50.440459,17.697015 50.440459,27.334954 z"
       id="path912"
       sodipodi:nodetypes="cczcc"
       transform="translate(-29.92996,-22.17539)" />
    <path
       sodipodi:type="arc"
       style="fill-rule:evenodd;stroke:#000000;stroke-width:1pt"
       id="path913"
       sodipodi:cx="32.400002"
       sodipodi:cy="26.781818"
       sodipodi:rx="4.4727273"
       sodipodi:ry="10.527273"
       d="M 36.872729,26.781818 A 4.4727273,10.527273 0 1 1 27.927274,26.781818 A 4.4727273,10.527273 0 1 1 36.872729,26.781818 z"
       transform="matrix(1.328219,0,0,1.328219,-32.14185,-30.4415)" />
    <path
       sodipodi:type="arc"
       style="fill-rule:evenodd;stroke:#000000;stroke-width:1pt"
       id="path914"
       sodipodi:cx="32.400002"
       sodipodi:cy="26.781818"
       sodipodi:rx="4.4727273"
       sodipodi:ry="10.527273"
       d="M 36.872729,26.781818 A 4.4727273,10.527273 0 1 1 27.927274,26.781818 A 4.4727273,10.527273 0 1 1 36.872729,26.781818 z"
       transform="matrix(0.556433,0,0,0.88939,-6.56716,-18.96738)" />
  </g>
  <path
     style="fill:url(#linearGradient6210);fill-opacity:1;fill-rule:evenodd;stroke:none;stroke-width:1.56446753pt"
     d="M 61.741942,68.670981 C 51.364744,81.533501 38.111295,85.840076 29.14491,78.606176 C 20.178489,71.372264 7.3690684,60.883402 25.156764,38.83559 C 42.944466,16.787783 57.295886,28.530912 66.262304,35.764824 C 75.228689,42.998724 72.119147,55.808461 61.741942,68.670981 z"
     id="path845"
     sodipodi:nodetypes="cczcc" />
  <path
     sodipodi:type="arc"
     style="fill:#a9e2f5;fill-opacity:1;fill-rule:evenodd;stroke:#000000;stroke-width:1pt"
     id="path843"
     sodipodi:cx="32.400002"
     sodipodi:cy="26.781818"
     sodipodi:rx="4.4727273"
     sodipodi:ry="10.527273"
     d="M 36.872729,26.781818 A 4.4727273,10.527273 0 1 1 27.927274,26.781818 A 4.4727273,10.527273 0 1 1 36.872729,26.781818 z"
     transform="matrix(1.7726,1.4300957,-1.4300957,1.7726,31.706533,-34.572993)" />
  <path
     sodipodi:type="arc"
     style="fill:#558ada;fill-rule:evenodd;stroke:#000000;stroke-width:1pt"
     id="path895"
     sodipodi:cx="32.400002"
     sodipodi:cy="26.781818"
     sodipodi:rx="4.4727273"
     sodipodi:ry="10.527273"
     d="M 36.872729,26.781818 A 4.4727273,10.527273 0 1 1 27.927274,26.781818 A 4.4727273,10.527273 0 1 1 36.872729,26.781818 z"
     transform="matrix(0.7425988,0.5991127,-0.9576082,1.1869532,53.483521,8.2763091)" />
  <path
     style="fill:#ffe6ba;fill-rule:evenodd;stroke:#000000;stroke-width:2.17599716pt;stroke-opacity:1"
     d="M 59.87316,51.045028 L 80.17211,67.421776 C 81.435519,68.441068 76.62782,74.289788 75.364412,73.270497 L 54.942912,56.794875 C 55.764606,55.836571 55.056002,56.702813 58.176409,54.369884 C 60.227545,50.834409 59.05147,52.003335 59.87316,51.045028 z"
     id="path846"
     sodipodi:nodetypes="cssccc" />
  <path
     style="fill:#ffe6ba;fill-rule:evenodd;stroke:#000000;stroke-width:2.17599716pt"
     d="M 49.458596,63.597612 L 69.757543,79.97436 C 71.020951,80.993649 66.213246,86.842409 64.949835,85.823114 L 44.528345,69.347459 C 45.350038,68.389154 44.641434,69.255394 47.761835,66.922504 C 49.81298,63.386996 48.63689,64.555956 49.458596,63.597612 z"
     id="path902"
     sodipodi:nodetypes="cssccc" />
</svg>
