<?xml version="1.0" encoding="UTF-8" standalone="no"?>
<!-- Created with Sodipodi ("http://www.sodipodi.com/") -->

<svg
   xmlns:dc="http://purl.org/dc/elements/1.1/"
   xmlns:cc="http://creativecommons.org/ns#"
   xmlns:rdf="http://www.w3.org/1999/02/22-rdf-syntax-ns#"
   xmlns:svg="http://www.w3.org/2000/svg"
   xmlns="http://www.w3.org/2000/svg"
   xmlns:xlink="http://www.w3.org/1999/xlink"
   xmlns:sodipodi="http://sodipodi.sourceforge.net/DTD/sodipodi-0.dtd"
   xmlns:inkscape="http://www.inkscape.org/namespaces/inkscape"
   version="1"
   x="0.00000000"
   y="0.00000000"
   width="90.0000000"
   height="90.0000000"
   id="folder_svg_svg548"
   sodipodi:version="0.32"
   sodipodi:docname="folder-downloads.svg"
   inkscape:version="0.47+devel r9192 custom"
   inkscape:output_extension="org.inkscape.output.svg.inkscape">
  <metadata
     id="metadata19">
    <rdf:RDF>
      <cc:Work
         rdf:about="">
        <dc:format>image/svg+xml</dc:format>
        <dc:type
           rdf:resource="http://purl.org/dc/dcmitype/StillImage" />
        <dc:title></dc:title>
      </cc:Work>
    </rdf:RDF>
  </metadata>
  <sodipodi:namedview
     id="base"
     inkscape:zoom="4.5222222"
     inkscape:cx="38.43391"
     inkscape:cy="32.244014"
     inkscape:window-width="795"
     inkscape:window-height="724"
     inkscape:window-x="336"
     inkscape:window-y="120"
     inkscape:current-layer="folder_svg_svg548"
     showgrid="false"
     showguides="true"
     inkscape:guide-bbox="true"
     inkscape:window-maximized="0" />
  <defs
     id="defs550">
    <linearGradient
       spreadMethod="pad"
       gradientUnits="objectBoundingBox"
       id="linearGradient3340"
       y2="0.00000000"
       x2="1.00000000"
       y1="0.00000000"
       x1="0.00000000">
      <stop
         id="stop3342"
         offset="0.000000"
         style="stop-color:#ffb700;stop-opacity:1" />
      <stop
         id="stop3344"
         offset="1.000000"
         style="stop-color:#ffd58f;stop-opacity:0;" />
    </linearGradient>
    <linearGradient
       inkscape:collect="always"
       xlink:href="#linearGradient3340"
       id="linearGradient3387"
       gradientUnits="userSpaceOnUse"
       gradientTransform="matrix(1.0509199,-0.1486035,0.1724016,1.4993733,-28.78467,5.713269)"
       spreadMethod="pad"
       x1="85.637657"
       y1="17.443844"
       x2="73.916298"
       y2="54.628181" />
    <linearGradient
       inkscape:collect="always"
       xlink:href="#linearGradient3340"
       id="linearGradient3296"
       gradientUnits="userSpaceOnUse"
       spreadMethod="pad"
       x1="60.644615"
       y1="19.295689"
       x2="35.370575"
       y2="69.142799" />
    <linearGradient
       y2="115.265465"
       x2="46.2594757"
       y1="103.865761"
       x1="42.1643028"
       spreadMethod="pad"
       gradientTransform="matrix(1.519424,0,0,0.658144,7.3945087e-8,-1.278808e-6)"
       gradientUnits="userSpaceOnUse"
       id="linearGradient2794"
       xlink:href="#linearGradient714"
       inkscape:collect="always" />
    <linearGradient
       y2="116.731438"
       x2="42.5384789"
       y1="124.642860"
       x1="43.4018326"
       spreadMethod="pad"
       gradientTransform="scale(1.519424,0.658144)"
       gradientUnits="userSpaceOnUse"
       id="linearGradient2792"
       xlink:href="#linearGradient714"
       inkscape:collect="always" />
    <linearGradient
       y2="57.5816307"
       x2="33.8251724"
       y1="86.0028992"
       x1="21.6558495"
       spreadMethod="pad"
       gradientTransform="matrix(1.066005,0,0,0.938082,7.3945087e-8,-1.278808e-6)"
       gradientUnits="userSpaceOnUse"
       id="linearGradient2790"
       xlink:href="#linearGradient714"
       inkscape:collect="always" />
    <linearGradient
       y2="87.7629700"
       x2="27.9378262"
       y1="64.3047867"
       x1="8.76167965"
       spreadMethod="pad"
       gradientTransform="matrix(1.615491,0,0,0.619007,7.3945087e-8,-1.278808e-6)"
       gradientUnits="userSpaceOnUse"
       id="linearGradient2788"
       xlink:href="#linearGradient734"
       inkscape:collect="always" />
    <linearGradient
       y2="95.9015198"
       x2="27.7516518"
       y1="118.880966"
       x1="52.6992607"
       spreadMethod="pad"
       gradientTransform="scale(1.615491,0.619007)"
       gradientUnits="userSpaceOnUse"
       id="linearGradient2786"
       xlink:href="#linearGradient714"
       inkscape:collect="always" />
    <linearGradient
       id="linearGradient714">
      <stop
         id="stop715"
         offset="0.000000"
         style="stop-color:#7fa8e3;stop-opacity:0.741176;" />
      <stop
         id="stop716"
         offset="1.000000"
         style="stop-color:#ffffff;stop-opacity:0.290196;" />
    </linearGradient>
    <linearGradient
       id="linearGradient734">
      <stop
         id="stop735"
         offset="0.000000"
         style="stop-color:#7fa8e3;stop-opacity:0.741176;" />
      <stop
         id="stop736"
         offset="1.000000"
         style="stop-color:#ffffff;stop-opacity:0.290196;" />
    </linearGradient>
  </defs>
  <path
     d="M 32.5076 12.1608 C 32.0388 12.0045 25.3201 7.94201 25.0076 12.942 C 24.6951 17.942 23.7434 54.4234 26.2434 59.4235 C 27.3371 62.5485 30.1496 67.236 35.1496 70.5173 C 39.2121 73.1735 62.9754 88.0916 64.8504 88.2478 C 66.7254 88.4041 70.6317 89.6541 71.4129 84.3416 C 72.1942 79.029 74.9934 64.7445 75.3535 59.0032 C 75.1973 53.847 77.3856 50.4095 72.8268 45.8031 C 69.7018 43.9281 38.2679 19.4101 36.5491 18.3164 C 34.8304 17.2226 33.3974 16.6862 32.5076 12.1608 z "
     transform="matrix(1.418885,-0.200635,0.127692,1.110535,-25.22021,4.335069)"
     style="font-size:12;fill:#000009;fill-opacity:0.301471;fill-rule:evenodd;stroke-width:1pt;"
     id="folder_svg_path783"
     sodipodi:nodetypes="cccccccccc" />
  <path
     d="M 27.3438 9.06248 C 26.875 8.90623 20.1563 4.84373 19.8438 9.84373 C 19.5313 14.8437 21.7948 51.43 24.2948 56.43 C 25.3885 59.555 28.201 64.2425 33.201 67.5238 C 37.2635 70.18 63.75 84.2187 65.625 84.375 C 67.5 84.5312 71.4063 85.7812 72.1875 80.4687 C 72.9688 75.1562 75.2238 42.4099 75.0675 41.3162 C 74.9113 36.1599 71.1613 32.7225 69.4426 31.4724 C 66.3176 29.5974 36.7188 11.4062 35 10.3125 C 33.2813 9.21873 28.75 6.87498 27.3438 9.06248 z "
     transform="matrix(1.418885,-0.200635,0.127692,1.110535,-28.78467,5.713269)"
     style="font-size:12;fill:#593a28;fill-rule:evenodd;stroke-width:1pt"
     id="folder_svg_path554"
     sodipodi:nodetypes="cccccccccc" />
  <path
     style="font-size:12;fill:#f1e36c;fill-rule:evenodd;stroke-width:1pt;fill-opacity:1"
     d="M 15.4375 11.75 C 15.4375 11.75 14.955374 12.509219 14.5 13.15625 C 24.460667 17.797822 26.706214 19.210219 29.59375 21.625 C 32.431177 23.997877 31.349472 30.105742 33.4375 32.75 C 36.359933 36.450939 55.605226 41.487504 57.34375 42.15625 C 60.342094 43.309601 63.40772 46.240022 64.90625 49.375 C 71.606012 63.391132 73.261382 73.084807 74.28125 79 C 67.318619 67.833612 67.182803 49.379952 53.28125 44.3125 C 46.109171 42.681463 33.827697 37.555273 32.0625 36.9375 C 25.890899 34.777601 31.05433 25.5056 22.3125 21.0625 C 18.92126 19.338878 13.112841 16.443136 8.9375 14.375 C 6.5587755 14.254418 4.6687876 15.227876 5.375 17.46875 C 6.0556711 21.428432 11.851329 59.87863 20.8125 65.3125 C 29.791321 72.85998 74.644063 82.261137 75.8125 82.625 C 76.980781 82.98877 79.410443 82.477205 79.375 78.25 C 79.339554 74.022796 79.603258 42.0335 78.71875 40.21875 C 78.379429 37.268965 76.86369 33.958759 72.59375 32.09375 C 68.323808 30.22874 16.767705 11.561905 15.4375 11.75 z "
     id="folder_svg_path552" />
  <path
     style="font-size:12;fill:url(#linearGradient3387);fill-rule:evenodd;stroke-width:1pt;fill-opacity:1.0"
     d="M 30.5625 22.8125 C 32.195807 25.627614 31.636576 30.469327 33.4375 32.75 C 36.359933 36.450939 55.605226 41.487504 57.34375 42.15625 C 60.342094 43.309601 63.40772 46.240022 64.90625 49.375 C 68.719633 57.352729 70.860825 63.87889 72.21875 69.15625 C 74.238011 73.907829 75.659871 77.490767 75.625 77.1875 C 75.525247 76.31995 75.362792 39.667871 73.25 36.96875 C 71.431182 34.64527 39.764118 25.45247 30.5625 22.8125 z "
     id="folder_svg_path562" />
  <path
     style="font-size:12;fill:url(#linearGradient3296);fill-rule:evenodd;stroke-width:1pt;fill-opacity:1"
     d="M 32.2401 16.3592 C 34.0465 17.0528 40.7504 22.4843 42.7984 25.8628 C 43.6822 29.3984 42.4278 36.1872 46.8472 40.1647 C 51.2666 44.1421 62.0666 47.0499 63.6134 50.5854 C 65.1602 54.121 71.1434 74.6929 71.5854 76.6816 C 72.0273 78.6704 38.4557 61.3834 37.3508 56.3011 C 35.6801 51.1165 33.3449 40.666 32.2401 16.3592 z "
     id="folder_svg_path635"
     transform="matrix(1.418885,-0.200635,0.127692,1.110535,-41.88497,7.389349)"
     sodipodi:nodetypes="ccccccc" />
  <g
     id="g2983"
     transform="matrix(0.79373557,0,0,0.79373557,-6.2860486,18.577803)">
    <g
       transform="matrix(0.79662747,0,0,0.79662747,8.5766897,16.507113)"
       id="g2767">
      <path
         style="font-size:12px;fill:#000000;fill-opacity:0.3;fill-rule:evenodd;stroke-width:1pt"
         d="M 5.08233,49.7833 C 3.68284,55.0129 4.49307,60.6846 5.52427,65.4723 15.3206,71.8067 29.5364,79.0251 42.8684,87.7903 58.5573,83.9601 75.358,81.2348 91.2679,78.9515 90.605,72.4697 90.384,66.4298 91.2679,60.169 87.9533,57.5173 49.4974,39.6186 46.4039,38.0719 26.7375,35.6412 5.3033,47.5736 5.08233,49.7833 z"
         id="path780"
         sodipodi:nodetypes="ccccccc"
         transform="matrix(0.994837,0,0,1.423897,-4.089137,-34.46167)"
         inkscape:connector-curvature="0" />
      <path
         style="font-size:12px;fill:#3d4e67;fill-rule:evenodd;stroke-width:1pt"
         d="M 5.08233,49.7833 C 3.68284,55.0129 4.49307,60.6846 5.52427,65.4723 15.3206,71.8067 29.5364,79.0251 42.8684,87.7903 58.5573,83.9601 75.358,81.2348 91.2679,78.9515 90.605,72.4697 90.384,66.4298 91.2679,60.169 87.9533,57.5173 49.4974,39.6186 46.4039,38.0719 26.7375,35.6412 5.3033,47.5736 5.08233,49.7833 z"
         id="path726"
         sodipodi:nodetypes="ccccccc"
         transform="matrix(0.994837,0,0,1.423897,-1.745386,-40.08667)"
         inkscape:connector-curvature="0" />
      <path
         style="font-size:12px;fill:#ffffff;fill-rule:evenodd;stroke-width:1pt"
         d="m 9.50172,52.4349 c 0.14732,3.1673 0.29465,6.3345 0.44197,9.5018 0,0 33.58761,20.3293 33.36661,20.3293 -0.221,0 42.2054,-8.1759 42.2054,-8.1759 0,-3.6829 0,-7.3657 0,-11.0486 C 72.2575,56.2651 58.9992,49.4886 45.741,42.7122 34.3242,41.0918 20.6976,44.3327 9.50172,52.4349 z"
         id="path727"
         sodipodi:nodetypes="ccccccc"
         transform="matrix(0.994837,0,0,1.423897,-1.745386,-40.08667)"
         inkscape:connector-curvature="0" />
      <path
         style="font-size:12px;fill:url(#linearGradient2786);fill-rule:evenodd;stroke-width:1pt"
         d="M 9.94369,51.772 C 22.9073,59.0641 31.2306,63.9254 44.1942,71.2174 57.5997,66.8717 71.0053,62.7469 85.7367,62.8205 70.2687,54.7183 61.2089,50.8145 45.7409,42.7122 33.2929,40.5762 20.8449,45.0692 9.94369,51.772 z"
         id="path702"
         sodipodi:nodetypes="ccccc"
         transform="matrix(0.994837,0,0,1.423897,-1.745386,-40.08667)"
         inkscape:connector-curvature="0" />
      <path
         style="font-size:12px;fill:url(#linearGradient2788);fill-rule:evenodd;stroke-width:1pt"
         d="M 9.94369,51.772 C 22.9073,59.0641 31.2306,63.9254 44.1942,71.2174 57.5997,66.8717 71.0053,62.7469 85.7367,62.8205 70.2687,54.7183 61.2089,50.8145 45.7409,42.7122 33.2929,40.5762 20.8449,45.0692 9.94369,51.772 z"
         id="path718"
         sodipodi:nodetypes="ccccc"
         transform="matrix(0.994837,0,0,1.423897,-1.745386,-40.08667)"
         inkscape:connector-curvature="0" />
      <path
         style="font-size:12px;fill:url(#linearGradient2790);fill-rule:evenodd;stroke-width:1pt"
         d="M 9.72272,52.8769 C 20.6976,59.2114 31.0096,65.104 42.6474,71.8804 c 0.0737,3.3882 0.1473,6.7764 0.221,10.1646 C 31.8198,75.4159 20.7713,68.7868 9.72272,62.1577 c -0.66291,-2.8726 -0.88388,-6.1872 0,-9.2808 z"
         id="path720"
         sodipodi:nodetypes="ccccc"
         transform="matrix(0.994837,0,0,1.423897,-1.745386,-40.08667)"
         inkscape:connector-curvature="0" />
      <path
         style="font-size:12px;fill:url(#linearGradient2792);fill-rule:evenodd;stroke-width:1pt"
         d="m 43.9732,72.3223 0.221,9.0598 41.1006,-7.7339 -0.442,-10.1647 -40.8796,8.8388 z"
         id="path722"
         transform="matrix(0.994837,0,0,1.423897,-1.745386,-40.08667)"
         inkscape:connector-curvature="0" />
      <path
         style="font-size:12px;fill:url(#linearGradient2794);fill-rule:evenodd;stroke-width:1pt"
         d="m 44.1942,73.2062 c 0,2.7253 0,5.4506 0,8.1759 13.7002,-2.578 27.4004,-5.1559 41.1006,-7.7339 -0.1473,-3.3882 0.3682,-6.9975 0.2209,-10.3857 -17.0884,1.4731 -32.409,5.377 -41.3215,9.9437 z"
         id="path724"
         sodipodi:nodetypes="ccccc"
         transform="matrix(0.994837,0,0,1.423897,-1.745386,-40.08667)"
         inkscape:connector-curvature="0" />
      <path
         style="font-size:12px;fill:none;stroke:#3d4e67;stroke-width:2"
         d="M 8.61787,51.772 43.3103,71.2175 43.0893,83.1499"
         id="path728"
         transform="matrix(0.994837,0,0,1.423897,-1.745386,-40.08667)"
         inkscape:connector-curvature="0" />
      <path
         style="font-size:12px;fill:none;stroke:#3d4e67;stroke-width:2"
         d="M 43.5313,71.6594 C 58.41,66.3561 70.4161,64.1464 86.1787,62.5996"
         id="path729"
         sodipodi:nodetypes="cc"
         transform="matrix(0.994837,0,0,1.423897,-1.745386,-40.08667)"
         inkscape:connector-curvature="0" />
      <path
         style="font-size:12px;fill:#810b0b;fill-opacity:1;fill-rule:evenodd;stroke-width:1pt"
         d="m 47.0668,64.1464 c -1.2242,0 -2.2097,0.9855 -2.2097,2.2097 l -0.2937,2.3585 c 0,1.2242 0.9855,2.2097 2.2097,2.2097 l 4.8982,-0.2122 c 1.1624,-0.1181 1.8298,-0.2456 2.0512,-1.9359 l 0.3662,-2.5887 c 0,-1.2242 -0.7287,-2.1463 -1.9528,-2.1463 l -5.0691,0.1052 z"
         id="path758"
         transform="matrix(0.859958,-0.246416,0.212199,0.998628,-8.377747,10.1903)"
         sodipodi:nodetypes="ccccccccc"
         inkscape:connector-curvature="0" />
      <path
         style="font-size:12px;fill:#d01111;fill-opacity:1;fill-rule:evenodd;stroke-width:1pt"
         d="m 47.0668,64.1464 c -1.2242,0 -2.2097,0.9855 -2.2097,2.2097 l -0.2937,2.3585 c 0,1.2242 0.9855,2.2097 2.2097,2.2097 l 4.8982,-0.2122 c 1.1624,-0.1181 1.8298,-0.2456 2.0512,-1.9359 l 0.3662,-2.5887 c 0,-1.2242 -0.7287,-2.1463 -1.9528,-2.1463 l -5.0691,0.1052 z"
         id="path759"
         transform="matrix(0.758064,-0.223914,0.203866,0.800327,-3.183137,22.06495)"
         sodipodi:nodetypes="ccccccccc"
         inkscape:connector-curvature="0" />
      <path
         transform="translate(1.987381,3.406944)"
         style="font-size:12px;fill:none;stroke:#3d4e67;stroke-width:2.875"
         d="m 61.6088,38.1861 c 0,6.5039 -8.0131,11.7824 -17.8864,11.7824 -9.8733,0 -17.8864,-5.2785 -17.8864,-11.7824 0,-6.5038 8.0131,-11.7823 17.8864,-11.7823 9.8733,0 17.8864,5.2785 17.8864,11.7823 z"
         id="path584"
         inkscape:connector-curvature="0" />
      <path
         style="fill:none;stroke:#3d4e67;stroke-width:1.25;stroke-linecap:butt;stroke-linejoin:miter;stroke-opacity:1;stroke-dasharray:none"
         d="M 62.7445,72.9653 C 62.4606,68.4227 62.1766,63.8801 61.8927,59.3375 68.9905,55.3628 76.3723,53.9432 84.0379,55.0789"
         id="path587"
         sodipodi:nodetypes="ccc"
         inkscape:connector-curvature="0" />
      <path
         style="fill:none;stroke:#3d4e67;stroke-width:1.25;stroke-linecap:butt;stroke-linejoin:miter;stroke-opacity:1;stroke-dasharray:none"
         d="m 67.0032,56.7823 1.1356,14.1956"
         id="path588"
         sodipodi:nodetypes="cc"
         inkscape:connector-curvature="0" />
      <path
         style="fill:none;stroke:#3d4e67;stroke-width:1.25;stroke-linecap:butt;stroke-linejoin:miter;stroke-opacity:1;stroke-dasharray:none"
         d="m 72.6814,55.0789 0.8518,14.1956"
         id="path589"
         sodipodi:nodetypes="cc"
         inkscape:connector-curvature="0" />
      <path
         style="fill:none;stroke:#3d4e67;stroke-width:1.25;stroke-linecap:butt;stroke-linejoin:miter;stroke-opacity:1;stroke-dasharray:none"
         d="m 78.6435,54.2271 0.2839,13.06"
         id="path590"
         sodipodi:nodetypes="cc"
         inkscape:connector-curvature="0" />
    </g>
    <g
       id="g572"
       transform="matrix(1.2631632,-0.919563,0.919563,1.2631632,3.5926038,8.8560634)">
      <g
         transform="matrix(1.008714,0,0,1.008714,-45.46822,-0.252175)"
         style="font-size:12px"
         id="g584">
        <path
           d="m 51.9665,36.0486 c 1.9937,0.9968 13.5059,-1.2773 13.7907,-3.4133 1.1166,-3.5514 -1.9125,-4.8576 -1.6932,-6.3995 0.4272,-1.4241 5.3257,-6.9264 4.7718,-8.6553 -1.5935,-3.1443 -5.8656,-7.0137 -8.8764,-5.1424 -2.5949,2.3432 -4.3287,8.277 -5.8952,7.7074 -1.5665,-0.5696 -2.9521,-0.0821 -3.3793,0.9147 -0.4272,0.9968 -0.9968,14.2763 1.2816,14.9884 z"
           transform="matrix(1.369638,0,0,1.207417,-21.85404,-4.997635)"
           style="fill:#0d3c07;fill-rule:evenodd;stroke-width:1pt"
           id="path582"
           inkscape:connector-curvature="0" />
        <path
           d="m 51.5506,35.4589 c 1.9937,0.9968 12.6741,-0.5697 12.9589,-2.7057 0.2848,-2.1361 -2.8481,-3.5602 -2.4209,-4.9842 0.4272,-1.4241 7.4051,-10.1108 6.1234,-11.25 -1.2816,-1.1393 -5.5538,-5.1266 -6.693,-3.845 -1.1393,1.2817 -6.4082,11.1076 -7.9747,10.538 -1.5665,-0.5696 -2.8481,-1.8512 -3.2753,-0.8544 -0.4272,0.9968 -0.9968,12.3892 1.2816,13.1013 z"
           style="fill:#2aaf18;fill-rule:evenodd;stroke-width:1pt"
           id="path581"
           inkscape:connector-curvature="0" />
        <path
           d="m 67.6424,15.9494 c 0,0 1.4241,0.8544 0.4272,2.5633 -0.9968,1.7088 -6.5506,9.2563 -6.1234,9.8259 1.5664,1.2816 3.4177,4.4145 2.4209,5.269 -1.7088,1.5664 -11.5348,2.7057 -12.6741,2.1361 -1.1392,-0.5697 8.4019,-2.2785 8.5443,-4.6994 0.1424,-2.4209 -2.4208,-3.4177 -1.5664,-4.8418 0.8544,-1.424 6.693,-11.25 7.5475,-10.9652 0.8544,0.2848 1.5664,1.2817 1.424,0.7121 z"
           style="fill:#208c11;fill-rule:evenodd;stroke-width:1pt"
           id="path583"
           inkscape:connector-curvature="0" />
      </g>
      <path
         d="m 16.9462,4.6519 c 0,0 -7.68987,9.5411 -7.40506,10.3956 0.28481,0.8544 7.83226,-6.55067 7.40506,-10.3956 z"
         transform="matrix(1.008714,0,0,1.008714,0.929487,8.797523)"
         style="font-size:12px;fill:#ffffff;fill-rule:evenodd;stroke-width:1pt"
         id="path588-8"
         inkscape:connector-curvature="0" />
      <path
         d="m 5.41139,24.019 c 0,0 -0.99683,-6.5506 -0.56962,-7.6899 0.42722,-1.1392 1.85127,0.712 1.85127,0.712 0,0 -1.70886,6.1235 -1.28165,6.9779 z"
         transform="matrix(1.008714,0,0,1.008714,0.929487,8.797523)"
         style="font-size:12px;fill:#ffffff;fill-rule:evenodd;stroke-width:1pt"
         id="path589-3"
         inkscape:connector-curvature="0" />
    </g>
  </g>
</svg>
