<?xml version="1.0" encoding="UTF-8" standalone="no"?>
<!-- Created with Sodipodi ("http://www.sodipodi.com/") -->

<svg
   xmlns:dc="http://purl.org/dc/elements/1.1/"
   xmlns:cc="http://creativecommons.org/ns#"
   xmlns:rdf="http://www.w3.org/1999/02/22-rdf-syntax-ns#"
   xmlns:svg="http://www.w3.org/2000/svg"
   xmlns="http://www.w3.org/2000/svg"
   xmlns:xlink="http://www.w3.org/1999/xlink"
   xmlns:sodipodi="http://sodipodi.sourceforge.net/DTD/sodipodi-0.dtd"
   xmlns:inkscape="http://www.inkscape.org/namespaces/inkscape"
   version="1"
   x="0.00000000"
   y="0.00000000"
   width="90.0000000"
   height="90.0000000"
   id="folder_svg_svg548"
   sodipodi:version="0.32"
   sodipodi:docname="folder-documents.svg"
   inkscape:version="0.47 r22583"
   inkscape:output_extension="org.inkscape.output.svg.inkscape">
  <metadata
     id="metadata19">
    <rdf:RDF>
      <cc:Work
         rdf:about="">
        <dc:format>image/svg+xml</dc:format>
        <dc:type
           rdf:resource="http://purl.org/dc/dcmitype/StillImage" />
        <dc:title />
      </cc:Work>
    </rdf:RDF>
  </metadata>
  <sodipodi:namedview
     id="base"
     inkscape:zoom="4.5222222"
     inkscape:cx="44.846686"
     inkscape:cy="32.244014"
     inkscape:window-width="795"
     inkscape:window-height="724"
     inkscape:window-x="2467"
     inkscape:window-y="107"
     inkscape:current-layer="folder_svg_svg548"
     showgrid="false"
     showguides="true"
     inkscape:guide-bbox="true"
     inkscape:window-maximized="0" />
  <defs
     id="defs550">
    <inkscape:perspective
       sodipodi:type="inkscape:persp3d"
       inkscape:vp_x="0 : 45 : 1"
       inkscape:vp_y="0 : 1000 : 0"
       inkscape:vp_z="90 : 45 : 1"
       inkscape:persp3d-origin="45 : 30 : 1"
       id="perspective17" />
    <linearGradient
       spreadMethod="pad"
       gradientUnits="objectBoundingBox"
       id="linearGradient3340"
       y2="0.00000000"
       x2="1.00000000"
       y1="0.00000000"
       x1="0.00000000">
      <stop
         id="stop3342"
         offset="0.000000"
         style="stop-color:#ffb700;stop-opacity:1" />
      <stop
         id="stop3344"
         offset="1.000000"
         style="stop-color:#ffd58f;stop-opacity:0;" />
    </linearGradient>
    <linearGradient
       id="folder_svg_Gradient559"
       xlink:href="#linearGradient3340"
       x1="60.644615"
       y1="19.295689"
       x2="35.370575"
       y2="69.142799"
       gradientUnits="userSpaceOnUse"
       spreadMethod="pad" />
    <linearGradient
       inkscape:collect="always"
       xlink:href="#linearGradient3340"
       id="linearGradient3387"
       gradientUnits="userSpaceOnUse"
       gradientTransform="matrix(1.0509199,-0.1486035,0.1724016,1.4993733,-28.78467,5.713269)"
       spreadMethod="pad"
       x1="85.637657"
       y1="17.443844"
       x2="73.916298"
       y2="54.628181" />
    <linearGradient
       inkscape:collect="always"
       xlink:href="#linearGradient3340"
       id="linearGradient3296"
       gradientUnits="userSpaceOnUse"
       spreadMethod="pad"
       x1="60.644615"
       y1="19.295689"
       x2="35.370575"
       y2="69.142799" />
    <inkscape:perspective
       id="perspective4261"
       inkscape:persp3d-origin="0.5 : 0.33333333 : 1"
       inkscape:vp_z="1 : 0.5 : 1"
       inkscape:vp_y="0 : 1000 : 0"
       inkscape:vp_x="0 : 0.5 : 1"
       sodipodi:type="inkscape:persp3d" />
    <linearGradient
       id="linearGradient2897"
       y2="20.709999"
       gradientUnits="userSpaceOnUse"
       x2="0.81572002"
       gradientTransform="matrix(0,-0.3698,-0.36274,0,29.243,31.247)"
       y1="20.709999"
       x1="28.315001">
      <stop
         id="stop2530-8"
         style="stop-color:#e6e6e6"
         offset="0" />
      <stop
         id="stop2532-3"
         style="stop-color:#929292"
         offset="1" />
    </linearGradient>
    <inkscape:perspective
       id="perspective5292"
       inkscape:persp3d-origin="0.5 : 0.33333333 : 1"
       inkscape:vp_z="1 : 0.5 : 1"
       inkscape:vp_y="0 : 1000 : 0"
       inkscape:vp_x="0 : 0.5 : 1"
       sodipodi:type="inkscape:persp3d" />
    <linearGradient
       id="linearGradient3487"
       y2="24.079"
       xlink:href="#linearGradient3600"
       gradientUnits="userSpaceOnUse"
       x2="39.417"
       gradientTransform="matrix(0.74675,0,0,0.65549,-41.478527,52.525094)"
       y1="25.024"
       x1="37.305" />
    <linearGradient
       id="linearGradient3600">
      <stop
         id="stop3602"
         style="stop-color:#f4f4f4"
         offset="0" />
      <stop
         id="stop3604"
         style="stop-color:#dbdbdb"
         offset="1" />
    </linearGradient>
    <linearGradient
       id="linearGradient2489"
       y2="46.016998"
       gradientUnits="userSpaceOnUse"
       x2="24"
       gradientTransform="matrix(0.27273,0,0,0.30232,-23.101427,67.101494)"
       y1="2"
       x1="24">
      <stop
         id="stop3213"
         style="stop-color:#fff"
         offset="0" />
      <stop
         id="stop3215"
         style="stop-color:#fff;stop-opacity:0"
         offset="1" />
    </linearGradient>
    <linearGradient
       id="linearGradient2492"
       y2="47.013"
       xlink:href="#linearGradient3600"
       gradientUnits="userSpaceOnUse"
       x2="25.132"
       gradientTransform="matrix(0.31429,0,0,0.32593,15.457,14.678)"
       y1="0.98521"
       x1="25.132" />
    <linearGradient
       id="linearGradient5304">
      <stop
         id="stop5306"
         style="stop-color:#f4f4f4"
         offset="0" />
      <stop
         id="stop5308"
         style="stop-color:#dbdbdb"
         offset="1" />
    </linearGradient>
    <linearGradient
       id="linearGradient3491"
       y2="20.289"
       gradientUnits="userSpaceOnUse"
       x2="82.515999"
       gradientTransform="matrix(0.64168,0,0,0.6402,-32.15,1.0109)"
       y1="46.858002"
       x1="82.515999">
      <stop
         id="stop4080"
         style="stop-color:#a0a0a0"
         offset="0" />
      <stop
         id="stop4082"
         style="stop-color:#bebebe"
         offset="1" />
    </linearGradient>
    <linearGradient
       inkscape:collect="always"
       xlink:href="#linearGradient3600"
       id="linearGradient5378"
       gradientUnits="userSpaceOnUse"
       gradientTransform="matrix(0.31429,0,0,0.32593,-24.099427,66.035494)"
       x1="25.132"
       y1="0.98521"
       x2="25.132"
       y2="47.013" />
    <linearGradient
       inkscape:collect="always"
       xlink:href="#linearGradient3491"
       id="linearGradient5380"
       gradientUnits="userSpaceOnUse"
       gradientTransform="matrix(0.64168,0,0,0.6402,-71.706427,52.368394)"
       x1="82.515999"
       y1="46.858002"
       x2="82.515999"
       y2="20.289" />
    <linearGradient
       inkscape:collect="always"
       xlink:href="#linearGradient2489"
       id="linearGradient5382"
       gradientUnits="userSpaceOnUse"
       gradientTransform="matrix(0.27273,0,0,0.30232,-23.101427,67.101494)"
       x1="24"
       y1="2"
       x2="24"
       y2="46.016998" />
    <linearGradient
       inkscape:collect="always"
       xlink:href="#linearGradient3600"
       id="linearGradient5384"
       gradientUnits="userSpaceOnUse"
       gradientTransform="matrix(0.74675,0,0,0.65549,-41.478527,52.525094)"
       x1="37.305"
       y1="25.024"
       x2="39.417"
       y2="24.079" />
  </defs>
  <path
     d="M 32.5076 12.1608 C 32.0388 12.0045 25.3201 7.94201 25.0076 12.942 C 24.6951 17.942 23.7434 54.4234 26.2434 59.4235 C 27.3371 62.5485 30.1496 67.236 35.1496 70.5173 C 39.2121 73.1735 62.9754 88.0916 64.8504 88.2478 C 66.7254 88.4041 70.6317 89.6541 71.4129 84.3416 C 72.1942 79.029 74.9934 64.7445 75.3535 59.0032 C 75.1973 53.847 77.3856 50.4095 72.8268 45.8031 C 69.7018 43.9281 38.2679 19.4101 36.5491 18.3164 C 34.8304 17.2226 33.3974 16.6862 32.5076 12.1608 z "
     transform="matrix(1.418885,-0.200635,0.127692,1.110535,-25.22021,4.335069)"
     style="font-size:12;fill:#000009;fill-opacity:0.301471;fill-rule:evenodd;stroke-width:1pt;"
     id="folder_svg_path783"
     sodipodi:nodetypes="cccccccccc" />
  <path
     d="M 27.3438 9.06248 C 26.875 8.90623 20.1563 4.84373 19.8438 9.84373 C 19.5313 14.8437 21.7948 51.43 24.2948 56.43 C 25.3885 59.555 28.201 64.2425 33.201 67.5238 C 37.2635 70.18 63.75 84.2187 65.625 84.375 C 67.5 84.5312 71.4063 85.7812 72.1875 80.4687 C 72.9688 75.1562 75.2238 42.4099 75.0675 41.3162 C 74.9113 36.1599 71.1613 32.7225 69.4426 31.4724 C 66.3176 29.5974 36.7188 11.4062 35 10.3125 C 33.2813 9.21873 28.75 6.87498 27.3438 9.06248 z "
     transform="matrix(1.418885,-0.200635,0.127692,1.110535,-28.78467,5.713269)"
     style="font-size:12;fill:#593a28;fill-rule:evenodd;stroke-width:1pt"
     id="folder_svg_path554"
     sodipodi:nodetypes="cccccccccc" />
  <path
     style="font-size:12;fill:#f1e36c;fill-rule:evenodd;stroke-width:1pt;fill-opacity:1"
     d="M 15.4375 11.75 C 15.4375 11.75 14.955374 12.509219 14.5 13.15625 C 24.460667 17.797822 26.706214 19.210219 29.59375 21.625 C 32.431177 23.997877 31.349472 30.105742 33.4375 32.75 C 36.359933 36.450939 55.605226 41.487504 57.34375 42.15625 C 60.342094 43.309601 63.40772 46.240022 64.90625 49.375 C 71.606012 63.391132 73.261382 73.084807 74.28125 79 C 67.318619 67.833612 67.182803 49.379952 53.28125 44.3125 C 46.109171 42.681463 33.827697 37.555273 32.0625 36.9375 C 25.890899 34.777601 31.05433 25.5056 22.3125 21.0625 C 18.92126 19.338878 13.112841 16.443136 8.9375 14.375 C 6.5587755 14.254418 4.6687876 15.227876 5.375 17.46875 C 6.0556711 21.428432 11.851329 59.87863 20.8125 65.3125 C 29.791321 72.85998 74.644063 82.261137 75.8125 82.625 C 76.980781 82.98877 79.410443 82.477205 79.375 78.25 C 79.339554 74.022796 79.603258 42.0335 78.71875 40.21875 C 78.379429 37.268965 76.86369 33.958759 72.59375 32.09375 C 68.323808 30.22874 16.767705 11.561905 15.4375 11.75 z "
     id="folder_svg_path552" />
  <path
     style="font-size:12;fill:url(#linearGradient3387);fill-rule:evenodd;stroke-width:1pt;fill-opacity:1.0"
     d="M 30.5625 22.8125 C 32.195807 25.627614 31.636576 30.469327 33.4375 32.75 C 36.359933 36.450939 55.605226 41.487504 57.34375 42.15625 C 60.342094 43.309601 63.40772 46.240022 64.90625 49.375 C 68.719633 57.352729 70.860825 63.87889 72.21875 69.15625 C 74.238011 73.907829 75.659871 77.490767 75.625 77.1875 C 75.525247 76.31995 75.362792 39.667871 73.25 36.96875 C 71.431182 34.64527 39.764118 25.45247 30.5625 22.8125 z "
     id="folder_svg_path562" />
  <path
     style="font-size:12;fill:url(#linearGradient3296);fill-rule:evenodd;stroke-width:1pt;fill-opacity:1"
     d="M 32.2401 16.3592 C 34.0465 17.0528 40.7504 22.4843 42.7984 25.8628 C 43.6822 29.3984 42.4278 36.1872 46.8472 40.1647 C 51.2666 44.1421 62.0666 47.0499 63.6134 50.5854 C 65.1602 54.121 71.1434 74.6929 71.5854 76.6816 C 72.0273 78.6704 38.4557 61.3834 37.3508 56.3011 C 35.6801 51.1165 33.3449 40.666 32.2401 16.3592 z "
     id="folder_svg_path635"
     transform="matrix(1.418885,-0.200635,0.127692,1.110535,-41.88497,7.389349)"
     sodipodi:nodetypes="ccccccc" />
  <g
     id="g5371"
     transform="matrix(2.6389729,0,0,2.6389729,85.930148,-149.3551)">
    <path
       d="m -23.056427,65.857494 h 8.5 c 0.44218,0.16179 2.9385,2.2237 3.5588,3.5 0,3.9062 -0.05879,8.5938 -0.05879,12.5 h -12 v -16 z"
       style="fill:url(#linearGradient5378);stroke:url(#linearGradient5380);stroke-width:0.99992001;stroke-linejoin:round"
       id="path4160" />
    <path
       d="m -12.056427,69.357494 v 11.5 h -10 v -14 h 7.2363"
       style="opacity:0.6;fill:none;stroke:url(#linearGradient5382)"
       id="path2480" />
    <path
       d="m -15.262427,66.246494 c 0.84791,2.8039 -0.29412,4.1932 -0.29412,4.1932 0,0 1.8928,-1.2514 4.1714,-0.1023 1.9428999,0.97981 0.03608,-1.008 -0.04146,-1.129 -0.54295,-0.8475 -2.4224,-2.6331 -3.1046,-2.9302 -0.05563,-0.02423 -0.44382,-0.03168 -0.73114,-0.03168 z"
       style="fill:#c1c1c1;fill-rule:evenodd"
       id="path3330" />
    <path
       d="m -15.262427,66.246494 c 0.98752,0 0.70588,3.181 0.70588,3.181 0,0 2.2725,-0.50073 3.1714,0.90989 0.16288,0.25561 0.03608,-1.008 -0.04146,-1.129 -0.54295,-0.8475 -2.4224,-2.6331 -3.1046,-2.9302 -0.05563,-0.02423 -0.44382,-0.03168 -0.73114,-0.03168 z"
       style="fill:url(#linearGradient5384);fill-rule:evenodd"
       id="path4474" />
    <path
       d="m -20.556427,70.862494 h 3.1992 -3.1992 z m 3.5547,0 z m -3.555,1.995 h 2.3459 -2.3459 z m 4.0469,0 h 2.2969 -2.2969 z m -4.047,2 h 1.57 -1.57 z m 3.582,0 h 3.418 -3.418 z m -3.582,3.037 h 3.1448 -3.1448 z m 4.7305,0 h 2.6797 -2.6797 z m -4.73,1.963 h 2.051 -2.051 z m 2.3516,0 h 1.8867 -1.8867 z m 2.8984,0 h 2.0234 -2.0234 z"
       style="fill:none;stroke:#bebebe;stroke-width:0.93541002px"
       id="path2609" />
  </g>
</svg>
