<?xml version="1.0" encoding="UTF-8" standalone="no"?>
<!-- Created with Inkscape (http://www.inkscape.org/) -->
<svg
   xmlns:dc="http://purl.org/dc/elements/1.1/"
   xmlns:cc="http://creativecommons.org/ns#"
   xmlns:rdf="http://www.w3.org/1999/02/22-rdf-syntax-ns#"
   xmlns:svg="http://www.w3.org/2000/svg"
   xmlns="http://www.w3.org/2000/svg"
   xmlns:xlink="http://www.w3.org/1999/xlink"
   xmlns:sodipodi="http://sodipodi.sourceforge.net/DTD/sodipodi-0.dtd"
   xmlns:inkscape="http://www.inkscape.org/namespaces/inkscape"
   width="90"
   height="90"
   id="svg2"
   sodipodi:version="0.32"
   inkscape:version="0.46+devel"
   version="1.0"
   sodipodi:docname="games-highscores.svg"
   inkscape:output_extension="org.inkscape.output.svg.inkscape">
  <defs
     id="defs4">
    <linearGradient
       inkscape:collect="always"
       id="linearGradient3360">
      <stop
         style="stop-color:#ffc93f;stop-opacity:1"
         offset="0"
         id="stop3362" />
      <stop
         style="stop-color:#ff933d;stop-opacity:1"
         offset="1"
         id="stop3364" />
    </linearGradient>
    <linearGradient
       inkscape:collect="always"
       id="linearGradient3342">
      <stop
         style="stop-color:#ffc93f;stop-opacity:1"
         offset="0"
         id="stop3344" />
      <stop
         style="stop-color:#ff933d;stop-opacity:1"
         offset="1"
         id="stop3346" />
    </linearGradient>
    <linearGradient
       inkscape:collect="always"
       id="linearGradient3318">
      <stop
         style="stop-color:#f1e36c;stop-opacity:1;"
         offset="0"
         id="stop3320" />
      <stop
         style="stop-color:#ff933d;stop-opacity:1"
         offset="1"
         id="stop3322" />
    </linearGradient>
    <linearGradient
       inkscape:collect="always"
       id="linearGradient3310">
      <stop
         style="stop-color:#ffc93f;stop-opacity:1"
         offset="0"
         id="stop3312" />
      <stop
         style="stop-color:#ff933d;stop-opacity:1"
         offset="1"
         id="stop3314" />
    </linearGradient>
    <linearGradient
       inkscape:collect="always"
       id="linearGradient3302">
      <stop
         style="stop-color:#ffc93f;stop-opacity:1;"
         offset="0"
         id="stop3304" />
      <stop
         style="stop-color:#ff933d;stop-opacity:1"
         offset="1"
         id="stop3306" />
    </linearGradient>
    <linearGradient
       inkscape:collect="always"
       id="linearGradient3288">
      <stop
         style="stop-color:#ffc93f;stop-opacity:1"
         offset="0"
         id="stop3290" />
      <stop
         style="stop-color:#ff933d;stop-opacity:1"
         offset="1"
         id="stop3292" />
    </linearGradient>
    <linearGradient
       inkscape:collect="always"
       id="linearGradient3265">
      <stop
         style="stop-color:#ffc93f;stop-opacity:1"
         offset="0"
         id="stop3267" />
      <stop
         style="stop-color:#ff933d;stop-opacity:1"
         offset="1"
         id="stop3269" />
    </linearGradient>
    <linearGradient
       inkscape:collect="always"
       xlink:href="#linearGradient3302"
       id="linearGradient3421"
       gradientUnits="userSpaceOnUse"
       gradientTransform="matrix(0.9277213,0,0,0.9277213,3.3229683,3.734161)"
       x1="18.182745"
       y1="24.718891"
       x2="20.203051"
       y2="46.058365" />
    <linearGradient
       inkscape:collect="always"
       xlink:href="#linearGradient3288"
       id="linearGradient3488"
       gradientUnits="userSpaceOnUse"
       gradientTransform="matrix(-1.106868,-4.3790062e-2,-4.3790062e-2,1.106868,96.326188,0.6085853)"
       x1="71.973366"
       y1="27.875618"
       x2="63.892147"
       y2="48.583744" />
    <linearGradient
       inkscape:collect="always"
       xlink:href="#linearGradient3265"
       id="linearGradient3490"
       gradientUnits="userSpaceOnUse"
       gradientTransform="matrix(0.9748994,0,0,0.9748994,9.1324096e-2,3.7212233)"
       x1="26.769043"
       y1="26.991735"
       x2="60.609154"
       y2="45.932095" />
    <linearGradient
       inkscape:collect="always"
       xlink:href="#linearGradient3310"
       id="linearGradient3492"
       gradientUnits="userSpaceOnUse"
       gradientTransform="matrix(0.9748994,0,0,0.9748994,9.1324096e-2,3.7212233)"
       x1="37.817585"
       y1="16.321999"
       x2="52.717335"
       y2="20.788029" />
    <linearGradient
       inkscape:collect="always"
       xlink:href="#linearGradient3318"
       id="linearGradient3494"
       gradientUnits="userSpaceOnUse"
       gradientTransform="matrix(0.9748994,0,0,0.9748994,9.1324096e-2,3.7212233)"
       x1="41.795063"
       y1="5.0209169"
       x2="43.423214"
       y2="14.11229" />
    <linearGradient
       inkscape:collect="always"
       xlink:href="#linearGradient3360"
       id="linearGradient3496"
       gradientUnits="userSpaceOnUse"
       gradientTransform="matrix(0.9748994,0,0,0.9748994,9.1324096e-2,-1.4392191)"
       x1="43.941635"
       y1="73.521889"
       x2="49.181801"
       y2="83.181473" />
    <linearGradient
       inkscape:collect="always"
       xlink:href="#linearGradient3342"
       id="linearGradient3498"
       gradientUnits="userSpaceOnUse"
       gradientTransform="matrix(0.9748994,0,0,0.9748994,9.1324096e-2,3.7212233)"
       x1="40.153564"
       y1="66.640221"
       x2="49.623745"
       y2="70.807098" />
    <linearGradient
       inkscape:collect="always"
       xlink:href="#linearGradient3288"
       id="linearGradient3500"
       gradientUnits="userSpaceOnUse"
       gradientTransform="matrix(1.099127,0.1378184,-0.1378184,1.099127,-3.3034821,-10.640548)"
       x1="71.973366"
       y1="27.875618"
       x2="63.892147"
       y2="48.583744" />
  </defs>
  <sodipodi:namedview
     id="base"
     pagecolor="#ffffff"
     bordercolor="#666666"
     borderopacity="1.0"
     gridtolerance="10000"
     guidetolerance="10"
     objecttolerance="10"
     inkscape:pageopacity="0.0"
     inkscape:pageshadow="2"
     inkscape:zoom="3.959798"
     inkscape:cx="43.153489"
     inkscape:cy="36.329287"
     inkscape:document-units="px"
     inkscape:current-layer="layer1"
     showgrid="false"
     inkscape:window-width="736"
     inkscape:window-height="724"
     inkscape:window-x="0"
     inkscape:window-y="1" />
  <metadata
     id="metadata7">
    <rdf:RDF>
      <cc:Work
         rdf:about="">
        <dc:format>image/svg+xml</dc:format>
        <dc:type
           rdf:resource="http://purl.org/dc/dcmitype/StillImage" />
      </cc:Work>
    </rdf:RDF>
  </metadata>
  <g
     inkscape:label="Layer 1"
     inkscape:groupmode="layer"
     id="layer1">
    <path
       sodipodi:type="arc"
       style="opacity:1;color:#000000;fill:#000000;fill-opacity:0.29411765;fill-rule:evenodd;stroke:none;stroke-width:0.5;marker:none;marker-start:none;marker-mid:none;marker-end:none;visibility:visible;display:inline;overflow:visible;enable-background:accumulate"
       id="path3508"
       sodipodi:cx="44.067905"
       sodipodi:cy="81.413704"
       sodipodi:rx="40.279831"
       sodipodi:ry="9.5964489"
       d="m 84.347736,81.413704 a 40.279831,9.5964489 0 1 1 -80.5596615,0 40.279831,9.5964489 0 1 1 80.5596615,0 z"
       transform="matrix(1.0282132,0,0,0.868421,-0.6119499,9.7021773)" />
    <path
       sodipodi:type="inkscape:offset"
       inkscape:radius="5.5615754"
       inkscape:original="M 46.71875 6.3125 C 38.341967 6.3125 36.076083 14.628465 43.4375 20.59375 C 45.024013 20.974512 47.638961 21.137486 48.78125 20.3125 C 55.381139 13.839531 55.095537 6.3125002 46.71875 6.3125 z M 52.0625 17.78125 C 51.341459 18.840095 50.451688 19.912165 49.40625 20.9375 C 49.377242 20.971226 49.346227 21.002242 49.3125 21.03125 C 48.462899 21.644852 47.396895 21.787405 46.3125 21.8125 C 45.228105 21.837596 44.09723 21.710835 43.21875 21.5 C 43.090934 21.463797 42.974637 21.400362 42.875 21.3125 C 41.650188 20.31998 40.718665 19.224034 39.96875 18.125 C 34.338993 18.974379 29.015996 20.689657 28.3125 23.125 C 34.975852 31.755625 52.112718 30.737377 65.3125 23.3125 C 63.945722 20.003204 58.075273 18.35732 52.0625 17.78125 z M 27.84375 23.96875 C 20.482335 39.960793 28.346838 59.243342 40.53125 63.8125 C 44.846562 62.940386 47.618349 62.394118 52.1875 63.8125 C 56.876306 62.081259 60.298509 59.248865 62.75 55.78125 C 61.381692 55.847426 60.012749 55.693624 58.6875 55.25 C 57.137372 54.963256 56.576088 53.333038 56.59375 51.9375 C 56.522312 50.003728 58.173253 48.557746 59.90625 48.0625 C 62.266145 47.683435 64.63458 47.16015 66.875 46.3125 C 67.72706 42.609313 67.929886 38.660117 67.6875 34.78125 C 66.54015 34.96965 65.415997 35.231586 64.3125 35.5 C 62.788749 36.144698 60.729814 36.505837 59.90625 34.625 C 59.001078 32.693354 59.122107 29.97892 60.84375 28.53125 C 62.678093 27.758141 64.601834 27.20766 66.5625 26.84375 C 66.36243 25.957514 66.146834 25.070877 65.90625 24.21875 C 50.421891 32.08785 33.174432 32.091692 27.84375 23.96875 z M 20.5625 26.375 C 15.425658 26.5685 11.42329 29.280076 10.625 35.09375 C 9.424433 43.837071 21.061837 54.008366 29.03125 55.1875 C 27.746826 53.151219 26.672654 50.915934 25.84375 48.53125 C 25.688804 48.085484 25.543675 47.642782 25.40625 47.1875 C 18.122977 43.14538 15.839778 37.621836 17.09375 35.34375 C 18.125188 33.469944 20.163614 32.170391 24.21875 32.90625 C 24.475955 30.899532 24.912426 28.886436 25.5625 26.90625 C 23.83078 26.50508 22.141669 26.315514 20.5625 26.375 z M 71.34375 27.34375 C 68.228336 27.334391 64.76857 28.029139 61.375 29.375 C 60.068764 30.519307 59.858225 34.569674 61.96875 35.125 C 72.255357 31.909168 75.77166 34.083695 76.84375 37.125 C 77.915841 40.166307 72.825668 47.233943 60.25 49 C 59.033479 49.428837 56.547821 50.574273 58.03125 53.8125 C 64.648124 57.839745 82.991055 48.365867 83.28125 37.9375 C 83.48076 30.768 78.197661 27.364341 71.34375 27.34375 z M 46.625 63.6875 C 44.70532 63.662892 42.798539 63.925482 41.65625 64.4375 C 42.774159 67.489015 36.879662 66.259742 41.40625 73.875 C 44.19851 75.778817 48.010634 75.773051 51.4375 74.25 C 57.293663 68.886785 51.119453 67.675126 51.6875 64.6875 C 50.481752 64.020072 48.54468 63.712108 46.625 63.6875 z M 39.21875 71.34375 C 33.137675 72.109938 29.248525 73.812735 28.84375 76.375 C 28.49383 78.590013 26.266949 78.669452 27.40625 79.78125 C 29.554264 81.877415 33.620044 84.110348 45.6875 84.3125 C 56.618865 84.497568 64.654319 81.856654 66.0625 78.90625 C 66.836142 77.285325 64.99187 77.736884 64.75 75.96875 C 64.422339 73.573442 60.168582 72.051192 54.6875 71.34375 C 54.29863 72.660128 53.40664 73.990472 51.8125 75.25 C 51.763187 75.277855 51.71117 75.29866 51.65625 75.3125 C 48.067634 76.907441 44.073882 76.928213 41.0625 74.875 C 40.987048 74.826227 40.923774 74.762955 40.875 74.6875 C 40.056195 73.489253 39.526955 72.371295 39.21875 71.34375 z "
       style="opacity:1;color:#000000;fill:#593a28;fill-opacity:1;fill-rule:evenodd;stroke:none;stroke-width:0.5;marker:none;marker-start:none;marker-mid:none;marker-end:none;visibility:visible;display:inline;overflow:visible;enable-background:accumulate"
       id="path3484"
       d="m 46.71875,0.75 c -6.02879,0 -11.60945,3.7149581 -12.9375,9.125 -0.3194,1.30113 -0.394145,2.634645 -0.28125,3.9375 -1.107946,0.304408 -2.214723,0.621799 -3.25,1.03125 -2.483563,0.982247 -5.296457,2.17609 -6.78125,5.6875 -0.010458,0.010375 -0.020875,0.020792 -0.03125,0.03125 -0.135253,0.169619 -0.260467,0.347005 -0.375,0.53125 -0.907375,-0.078071 -1.805994,-0.315633 -2.71875,-0.28125 -3.49064,0.131489 -7.035044,1.145687 -9.90625,3.5 -2.8712055,2.354313 -4.7588017,5.998854 -5.3125,10.03125 -0.969279,7.058929 2.8320021,13.048985 7.3125,17.5625 4.261049,4.292448 9.38422,7.500898 14.9375,8.5625 1.932299,2.442402 4.186746,4.514533 6.75,6.15625 -1.626051,0.385338 -3.168718,0.858498 -4.59375,1.53125 -2.394011,1.130203 -4.953188,3.18256 -5.875,6.375 -0.332723,0.281488 -1.27169,0.763298 -1.90625,3.09375 -0.329952,1.211763 -0.210344,2.842402 0.25,3.9375 0.460344,1.095098 1.052919,1.720716 1.53125,2.1875 3.245688,3.167344 9.330183,5.91171 22.0625,6.125 5.936426,0.100504 11.14568,-0.55206 15.375,-1.75 4.22932,-1.19794 7.927465,-2.208251 10.125,-6.8125 0.520167,-1.089846 1.06844,-3.018169 0.4375,-5 -0.475515,-1.493629 -1.231501,-2.242042 -1.78125,-2.71875 -1.102241,-3.080473 -3.708086,-4.743631 -5.90625,-5.6875 -1.459447,-0.626671 -3.0102,-1.053882 -4.625,-1.40625 3.018275,-1.864258 5.521739,-4.197884 7.5,-6.8125 3.110526,-0.695142 6.18319,-1.901287 9.09375,-3.59375 6.44555,-3.748027 12.79682,-9.575576 13.03125,-18 0.138406,-4.973709 -1.926402,-9.634378 -5.375,-12.4375 -3.448598,-2.803122 -7.750472,-3.861952 -12.09375,-3.875 -0.154144,-0.000463 -0.314199,0.060342 -0.46875,0.0625 -0.225231,-0.487829 -0.51996,-0.940448 -0.875,-1.34375 -1.72738,-3.416855 -4.762362,-5.101238 -7.65625,-6.1875 -1.158107,-0.434712 -2.379762,-0.710306 -3.59375,-1 0.123302,-0.991806 0.239011,-1.986017 0.125,-3.03125 -0.291481,-2.6722505 -1.798712,-5.4838116 -4.125,-7.1875 -2.326288,-1.7036884 -5.135403,-2.34374993 -8.0625,-2.34375 z"
       transform="matrix(0.969892,0,0,0.969892,-2.3756636,0.2751191)" />
    <path
       style="opacity:1;color:#000000;fill:url(#linearGradient3488);fill-opacity:1;fill-rule:evenodd;stroke:none;stroke-width:0.5;marker:none;marker-start:none;marker-mid:none;marker-end:none;visibility:visible;display:inline;overflow:visible;enable-background:accumulate"
       d="m 17.567742,25.856022 c -4.982183,0.187674 -8.864048,2.81761 -9.6383029,8.456246 -1.16442,8.480079 10.1226059,18.345136 17.8520749,19.48877 -1.245752,-1.974973 -2.287582,-4.142958 -3.09153,-6.455844 -0.150282,-0.432346 -0.291041,-0.861718 -0.424328,-1.303294 -7.063989,-3.92042 -9.278446,-9.27766 -8.062228,-11.487158 1.000384,-1.81739 2.977436,-3.077817 6.910482,-2.364112 0.249461,-1.9463 0.67279,-3.898786 1.303292,-5.819352 -1.679582,-0.389092 -3.317837,-0.57295 -4.84946,-0.515256 z"
       id="path3438" />
    <path
       style="opacity:1;color:#000000;fill:url(#linearGradient3490);fill-opacity:1;fill-rule:evenodd;stroke:none;stroke-width:0.5;marker:none;marker-start:none;marker-mid:none;marker-end:none;visibility:visible;display:inline;overflow:visible;enable-background:accumulate"
       d="m 24.629768,23.52222 c -7.139779,15.510555 0.48794,34.212546 12.305506,38.644136 4.185386,-0.845856 6.873721,-1.375678 11.305304,0 4.547636,-1.679117 7.866803,-4.426233 10.244484,-7.789446 -1.32711,0.064184 -2.654837,-0.084988 -3.940186,-0.515254 -1.503456,-0.278112 -2.047842,-1.859246 -2.030712,-3.212768 -0.069286,-1.87555 1.531949,-3.277996 3.212768,-3.758332 2.288843,-0.367651 4.58597,-0.875182 6.758936,-1.69731 0.826406,-3.591693 1.023125,-7.421987 0.788036,-11.184068 -1.112804,0.182726 -2.203112,0.436776 -3.273384,0.69711 -1.477875,0.625286 -3.47482,0.975553 -4.273588,-0.848656 -0.877919,-1.873488 -0.760533,-4.506196 0.909274,-5.91028 1.779115,-0.749833 3.644936,-1.28374 5.54657,-1.636693 -0.194046,-0.859553 -0.403151,-1.719496 -0.636492,-2.545967 -15.018157,7.632178 -31.74633,7.635904 -36.916516,-0.242472 z"
       id="path2479" />
    <path
       style="opacity:1;color:#000000;fill:url(#linearGradient3492);fill-opacity:1;fill-rule:evenodd;stroke:none;stroke-width:0.5;marker:none;marker-start:none;marker-mid:none;marker-end:none;visibility:visible;display:inline;overflow:visible;enable-background:accumulate"
       d="m 48.10512,17.522144 c -0.699333,1.026964 -1.545148,2.052095 -2.55911,3.04656 -0.028134,0.03271 -0.058686,0.063262 -0.091397,0.091396 -0.824021,0.595128 -1.872953,0.737302 -2.924698,0.761641 -1.051746,0.024339 -2.1336,-0.100168 -2.98563,-0.304657 -0.123967,-0.035112 -0.238485,-0.097576 -0.335122,-0.182792 -1.187934,-0.962638 -2.105965,-2.011083 -2.833302,-3.077027 -5.460256,0.823806 -10.597383,2.481394 -11.279697,4.843413 6.462731,8.370775 23.069885,7.383505 35.872249,0.182174 -1.325627,-3.20966 -7.031552,-4.801984 -12.863293,-5.360708 z"
       id="path3251"
       sodipodi:nodetypes="cssssscccc" />
    <path
       style="opacity:1;color:#000000;fill:url(#linearGradient3494);fill-opacity:1;fill-rule:evenodd;stroke:none;stroke-width:0.5;marker:none;marker-start:none;marker-mid:none;marker-end:none;visibility:visible;display:inline;overflow:visible;enable-background:accumulate"
       d="m 39.743281,20.249029 c -7.13978,-5.785684 -4.923987,-13.8487102 3.20059,-13.8487102 8.124578,0 8.401551,7.2936542 2.00037,13.5717352 -1.107897,0.800146 -3.662213,0.646273 -5.20096,0.276975 z"
       id="path3253"
       sodipodi:nodetypes="cscc" />
    <path
       style="opacity:1;color:#000000;fill:url(#linearGradient3496);fill-opacity:1;fill-rule:evenodd;stroke:none;stroke-width:0.5;marker:none;marker-start:none;marker-mid:none;marker-end:none;visibility:visible;display:inline;overflow:visible;enable-background:accumulate"
       d="m 35.675151,69.484715 c -5.897986,0.743121 -9.697698,2.389375 -10.090285,4.874494 -0.339385,2.148324 -2.475951,2.218135 -1.370952,3.296459 2.08334,2.033054 6.033023,4.190983 17.737153,4.387048 10.602245,0.179494 18.37593,-2.378511 19.741713,-5.240085 0.750353,-1.572122 -1.044966,-1.124574 -1.279554,-2.839472 -0.317801,-2.323193 -4.432936,-3.792302 -9.748994,-4.478444 -0.377162,1.276745 -1.226228,2.556127 -2.772372,3.777734 -0.047828,0.027016 -0.09906,0.047508 -0.152326,0.060932 -3.48057,1.546919 -7.376661,1.564876 -10.297377,-0.426519 -0.073182,-0.047307 -0.135488,-0.109612 -0.182794,-0.182795 -0.79415,-1.162172 -1.285285,-2.232745 -1.584212,-3.229352 z"
       id="path3257"
       sodipodi:nodetypes="csscsscccssc" />
    <path
       style="opacity:1;color:#000000;fill:url(#linearGradient3498);fill-opacity:1;fill-rule:evenodd;stroke:none;stroke-width:0.5;marker:none;marker-start:none;marker-mid:none;marker-end:none;visibility:visible;display:inline;overflow:visible;enable-background:accumulate"
       d="m 38.019886,62.779954 c 1.084251,2.95964 -4.636499,1.756406 -0.246199,9.142384 2.708192,1.846495 6.401182,1.846494 9.724872,0.369299 5.679845,-5.201738 -0.304746,-6.367808 0.246199,-9.265482 -2.338892,-1.294666 -7.509078,-1.239405 -9.724872,-0.246201 z"
       id="path3255"
       sodipodi:nodetypes="ccccc" />
    <path
       style="opacity:1;color:#000000;fill:url(#linearGradient3500);fill-opacity:1;fill-rule:evenodd;stroke:none;stroke-width:0.5;marker:none;marker-start:none;marker-mid:none;marker-end:none;visibility:visible;display:inline;overflow:visible;enable-background:accumulate"
       d="M 57.164324,28.76684 C 67.696795,24.589753 78.677842,26.953429 78.396382,37.067817 78.114926,47.182206 60.32863,56.370394 53.910976,52.464401 52.472209,49.323671 54.866801,48.214248 56.046696,47.798321 68.243735,46.085437 73.190837,39.234458 72.151024,36.284717 71.111211,33.334981 67.711607,31.217096 57.734708,34.336106 55.687728,33.7975 55.897416,29.876695 57.164324,28.76684 z"
       id="path3259"
       sodipodi:nodetypes="csccscc" />
    <path
       style="opacity:1;color:#000000;fill:#000000;fill-opacity:1;fill-rule:evenodd;stroke:none;stroke-width:0.5;marker:none;marker-start:none;marker-mid:none;marker-end:none;visibility:visible;display:inline;overflow:visible;enable-background:accumulate"
       d="m 30.712784,37.550574 c 3.356695,-1.802444 6.087846,-3.702306 8.154402,-6.44559 1.347836,0.598851 2.508395,0.649452 5.035367,0.2699 -1.948356,5.715177 -1.599165,14.395929 -0.229423,19.21366 2.078245,-0.649452 2.727698,0 4.805943,-0.909234 -0.129889,2.338027 -0.25978,4.416274 -0.25978,5.585285 -2.987479,1.039125 -10.910792,1.688575 -13.768381,0.519562 -0.779341,-1.818464 -1.169012,-3.63693 -0.779341,-5.065723 1.298903,0.519559 2.857588,0.229422 4.416271,0.09953 -1.059362,-4.856544 -1.008762,-8.810641 -0.878872,-11.148668 -1.169014,1.169015 -4.178399,1.798227 -4.308289,2.447678 -0.64945,-2.467918 -1.408557,-3.527279 -2.187897,-4.5664 z"
       id="path3263"
       sodipodi:nodetypes="cccccccccccc" />
  </g>
</svg>
