<?xml version="1.0" encoding="UTF-8" standalone="no"?>
<!DOCTYPE svg PUBLIC "-//W3C//DTD SVG 20010904//EN"
"http://www.w3.org/TR/2001/REC-SVG-20010904/DTD/svg10.dtd">
<!-- Created with Sodipodi ("http://www.sodipodi.com/") -->
<svg
   id="svg569"
   sodipodi:version="0.32"
   width="72pt"
   height="72pt"
   sodipodi:docbase="/home/zeus/.icons/gartoon/scalable/filesystems"
   sodipodi:docname="gnome-fs-web.svg"
   inkscape:version="0.40"
   xmlns="http://www.w3.org/2000/svg"
   xmlns:cc="http://web.resource.org/cc/"
   xmlns:inkscape="http://www.inkscape.org/namespaces/inkscape"
   xmlns:sodipodi="http://sodipodi.sourceforge.net/DTD/sodipodi-0.dtd"
   xmlns:rdf="http://www.w3.org/1999/02/22-rdf-syntax-ns#"
   xmlns:dc="http://purl.org/dc/elements/1.1/"
   xmlns:xlink="http://www.w3.org/1999/xlink">
  <metadata
     id="metadata23">
    <rdf:RDF
       id="RDF24">
      <cc:Work
         rdf:about=""
         id="Work25">
        <dc:format
           id="format26">image/svg+xml</dc:format>
        <dc:type
           id="type28"
           rdf:resource="http://purl.org/dc/dcmitype/StillImage" />
      </cc:Work>
    </rdf:RDF>
  </metadata>
  <defs
     id="defs571">
    <linearGradient
       id="linearGradient584">
      <stop
         style="stop-color:#ffffff;stop-opacity:0;"
         offset="0.000000"
         id="stop585" />
      <stop
         style="stop-color:#ffffff;stop-opacity:1;"
         offset="1.000000"
         id="stop586" />
    </linearGradient>
    <linearGradient
       xlink:href="#linearGradient584"
       id="linearGradient587"
       x1="28.2520447"
       y1="32.8688049"
       x2="68.3603058"
       y2="21.4794312"
       gradientUnits="userSpaceOnUse"
       spreadMethod="pad"
       gradientTransform="matrix(1.036821,-1.811349e-6,3.827296e-7,0.964487,2.057071e-6,1.075978e-6)" />
    <linearGradient
       inkscape:collect="always"
       xlink:href="#linearGradient632"
       id="linearGradient1121"
       gradientUnits="userSpaceOnUse"
       gradientTransform="scale(0.740666,1.350136)"
       spreadMethod="pad"
       x1="85.6376572"
       y1="17.4438438"
       x2="73.9162979"
       y2="54.6281815" />
    <linearGradient
       inkscape:collect="always"
       xlink:href="#linearGradient632"
       id="linearGradient1122"
       gradientUnits="userSpaceOnUse"
       spreadMethod="pad"
       x1="60.6446152"
       y1="19.2956886"
       x2="35.3705750"
       y2="69.1427994" />
    <metadata
       id="metadata18">
      <rdf:RDF
         id="RDF19">
        <cc:Work
           rdf:about=""
           id="Work20">
          <dc:format
             id="format21">image/svg+xml</dc:format>
          <dc:type
             id="type23"
             rdf:resource="http://purl.org/dc/dcmitype/StillImage" />
        </cc:Work>
      </rdf:RDF>
    </metadata>
    <sodipodi:namedview
       id="namedview1086"
       inkscape:zoom="2.5208333"
       inkscape:cx="-130.59065"
       inkscape:cy="72.764674"
       inkscape:window-width="825"
       inkscape:window-height="636"
       inkscape:window-x="6"
       inkscape:window-y="106"
       inkscape:current-layer="svg548" />
    <defs
       id="defs550">
      <linearGradient
         x1="0.0000000"
         y1="0.0000000"
         x2="1.0000000"
         y2="0.0000000"
         id="linearGradient632"
         gradientUnits="objectBoundingBox"
         spreadMethod="pad">
        <stop
           style="stop-color:#ffb700;stop-opacity:1;"
           offset="0.00000000"
           id="stop633" />
        <stop
           style="stop-color:#ffd58f;stop-opacity:0;"
           offset="1.00000000"
           id="stop634" />
      </linearGradient>
      <linearGradient
         x1="0.0000000"
         y1="0.0000000"
         x2="1.0000000"
         y2="0.0000000"
         id="linearGradient556"
         gradientUnits="objectBoundingBox"
         spreadMethod="pad">
        <stop
           style="stop-color:#000000;stop-opacity:1;"
           offset="0.00000000"
           id="stop557" />
        <stop
           style="stop-color:#bdf2ff;stop-opacity:0.384314;"
           offset="1.00000000"
           id="stop558" />
      </linearGradient>
      <linearGradient
         x1="60.644615"
         y1="19.295689"
         x2="35.370575"
         y2="69.142799"
         id="linearGradient559"
         xlink:href="#linearGradient632"
         gradientUnits="userSpaceOnUse"
         spreadMethod="pad" />
      <linearGradient
         x1="85.637657"
         y1="17.443844"
         x2="73.916298"
         y2="54.628181"
         id="linearGradient631"
         xlink:href="#linearGradient632"
         gradientUnits="userSpaceOnUse"
         gradientTransform="scale(0.740666,1.350136)"
         spreadMethod="pad" />
      <defs
         id="defs3">
        <sodipodi:namedview
           id="namedview909" />
        <defs
           id="defs1702">
          <linearGradient
             x1="0.0000000"
             y1="0.0000000"
             x2="1.0000000"
             y2="0.0000000"
             id="linearGradient1703"
             gradientUnits="objectBoundingBox"
             spreadMethod="pad">
            <stop
               style="stop-color:#ffb700;stop-opacity:1;"
               offset="0.000000"
               id="stop1704" />
            <stop
               style="stop-color:#ffd58f;stop-opacity:0;"
               offset="1.000000"
               id="stop1705" />
          </linearGradient>
          <linearGradient
             x1="0.0000000"
             y1="0.0000000"
             x2="1.0000000"
             y2="0.0000000"
             id="linearGradient1706"
             gradientUnits="objectBoundingBox"
             spreadMethod="pad">
            <stop
               style="stop-color:#000000;stop-opacity:1;"
               offset="0.000000"
               id="stop1707" />
            <stop
               style="stop-color:#bdf2ff;stop-opacity:0.384314;"
               offset="1.000000"
               id="stop1708" />
          </linearGradient>
          <linearGradient
             id="linearGradient1709"
             xlink:href="#linearGradient632"
             x1="60.644615"
             y1="19.295689"
             x2="35.370575"
             y2="69.142799"
             gradientUnits="userSpaceOnUse"
             spreadMethod="pad" />
          <linearGradient
             xlink:href="#linearGradient632"
             id="linearGradient1710"
             x1="85.637657"
             y1="17.443844"
             x2="73.916298"
             y2="54.628181"
             gradientUnits="userSpaceOnUse"
             spreadMethod="pad"
             gradientTransform="scale(0.740666,1.350136)" />
        </defs>
      </defs>
      <sodipodi:namedview
         id="namedview1711"
         pagecolor="#ffffff"
         bordercolor="#666666"
         borderopacity="1.0"
         inkscape:pageopacity="0.0"
         inkscape:pageshadow="2"
         inkscape:zoom="2.4559706"
         inkscape:cx="113.94414"
         inkscape:cy="73.007956"
         inkscape:window-width="812"
         inkscape:window-height="560"
         inkscape:window-x="103"
         inkscape:window-y="56" />
      <metadata
         id="metadata4">
        <rdf:RDF
           id="RDF5">
          <cc:Work
             rdf:about=""
             id="Work6">
            <dc:format
               id="format7">image/svg+xml</dc:format>
            <dc:type
               id="type9"
               rdf:resource="http://purl.org/dc/dcmitype/StillImage" />
          </cc:Work>
        </rdf:RDF>
      </metadata>
    </defs>
  </defs>
  <sodipodi:namedview
     id="base"
     inkscape:zoom="1.2604167"
     inkscape:cx="35.999999"
     inkscape:cy="35.999999"
     inkscape:window-width="640"
     inkscape:window-height="539"
     inkscape:window-x="-3"
     inkscape:window-y="478"
     inkscape:current-layer="svg569" />
  <path
     sodipodi:type="arc"
     style="font-size:12;fill:none;fill-rule:evenodd;stroke:#000000;stroke-width:8.5;stroke-opacity:0.3;"
     id="path589"
     d="M 83.823837 45.390781 A 40.459526 40.459522 0 1 0 2.904785,45.390781 A 40.4595 40.4595 0 1 0 83.8238 45.3908 L 43.364311 45.390781 z"
     sodipodi:cx="43.364311"
     sodipodi:cy="45.390781"
     sodipodi:rx="40.459526"
     sodipodi:ry="40.459522"
     transform="matrix(0.754176,0.000000,0.000000,0.754176,13.76710,13.54871)" />
  <path
     sodipodi:type="arc"
     style="font-size:12;fill:#31baff;fill-rule:evenodd;stroke-width:1pt;"
     id="path573"
     d="M 83.823837 45.390781 A 40.459526 40.459522 0 1 0 2.904785,45.390781 A 40.4595 40.4595 0 1 0 83.8238 45.3908 L 43.364311 45.390781 z"
     sodipodi:cx="43.364311"
     sodipodi:cy="45.390781"
     sodipodi:rx="40.459526"
     sodipodi:ry="40.459522"
     transform="matrix(0.677455,0.000000,0.000000,0.677455,14.04003,13.83949)" />
  <path
     style="font-size:12;fill:#e48e6f;fill-rule:evenodd;stroke-width:1pt;"
     d="M 28.507 13.4277 L 33.5075 22.0666 L 21.4273 37.0306 C 21.4273 37.0306 27.3038 50.7498 31.5585 50.5779 C 28.9177 51.1396 28.922 62.4819 30.2424 66.003 C 34.3774 62.4315 14.8677 57.4856 16.5276 47.5264 C 18.1874 37.5671 17.0138 35.0166 12.4491 42.0711 C 7.88442 49.1255 7.05448 50.9929 7.46945 47.6731 C 7.88442 44.3534 6.46331 19.7781 28.507 13.4277 z "
     id="path576"
     sodipodi:nodetypes="ccccccccc"
     transform="matrix(0.800627,0.000000,0.000000,0.800627,9.030947,9.245272)" />
  <path
     style="font-size:12;fill:#fffcac;fill-rule:evenodd;stroke-width:1pt;"
     d="M 30.7077 12.4007 L 37.7622 22.36 L 24.0682 36.8839 C 24.0682 36.8839 33.6125 50.1629 33.6125 50.5779 C 33.6125 50.9929 29.8778 61.3671 29.8778 61.3671 C 29.8778 61.3671 16.5988 54.3126 18.2587 44.3534 C 19.9185 34.3941 18.2587 30.6594 13.694 37.7139 C 9.12933 44.7683 7.05448 50.9929 7.46945 47.6731 C 7.88442 44.3534 9.5443 16.5504 30.7077 12.4007 z "
     id="path574"
     transform="matrix(0.800627,0.000000,0.000000,0.800627,9.030947,9.245272)" />
  <path
     style="font-size:12;fill:#ffd87c;fill-rule:evenodd;stroke-width:1pt;"
     d="M 28.507 13.4277 L 33.5075 22.0666 L 21.4273 37.0306 C 21.4273 37.0306 27.3038 50.7498 31.5585 50.5779 C 28.9177 51.1396 27.6771 56.6723 28.9975 60.1934 C 27.5304 55.792 16.5276 56.2407 18.1875 46.2815 C 19.8473 36.3222 18.2587 30.6594 13.694 37.7139 C 9.12933 44.7683 7.05448 50.9929 7.46945 47.6731 C 7.88442 44.3534 6.46331 19.7781 28.507 13.4277 z "
     id="path575"
     sodipodi:nodetypes="ccccccccc"
     transform="matrix(0.800627,0.000000,0.000000,0.800627,9.030947,9.245272)" />
  <path
     style="font-size:12;fill:#e48e6f;fill-rule:evenodd;stroke-width:1pt;"
     d="M 42.8405 18.697 C 42.8405 18.697 48.1222 22.5116 42.2536 28.0867 C 36.385 33.6619 28.1691 35.7159 35.2113 39.5304 C 42.2536 43.345 51.9367 43.9318 51.0564 37.183 C 50.1762 30.4342 49.0025 16.0562 42.8405 18.697 z "
     id="path577"
     transform="matrix(0.800627,0.000000,0.000000,0.800627,9.030947,9.245272)" />
  <path
     style="font-size:12;fill:#fffbaa;fill-rule:evenodd;stroke-width:1pt;"
     d="M 42.8405 18.697 C 42.8405 18.697 48.1222 22.5116 42.2536 28.0867 C 36.385 33.6619 28.1691 35.7159 35.2113 39.5304 C 42.2536 43.345 51.9367 43.9318 51.0564 37.183 C 50.1762 30.4342 49.0025 16.0562 42.8405 18.697 z "
     id="path578"
     transform="matrix(0.775387,0.000000,0.000000,0.751620,10.79087,10.14587)" />
  <path
     style="font-size:12;fill:#ffd87c;fill-rule:evenodd;stroke-width:1pt;"
     d="M 42.8405 18.697 C 42.8405 18.697 48.1222 22.5116 42.2536 28.0867 C 36.385 33.6619 28.1691 35.7159 35.2113 39.5304 C 42.2536 43.345 51.9367 43.9318 51.0564 37.183 C 50.1762 30.4342 49.0025 16.0562 42.8405 18.697 z "
     id="path579"
     transform="matrix(0.661806,0.000000,0.000000,0.712415,14.48187,10.86636)" />
  <path
     style="font-size:12;fill:#e48e6f;fill-rule:evenodd;stroke-width:1pt;"
     d="M 77.1715 47.1595 C 77.1715 47.1595 63.087 45.1055 62.2067 45.6924 C 61.3264 46.2793 49.0024 47.453 50.1762 53.9084 C 51.3499 60.3638 55.4579 65.6455 50.1762 69.4601 C 44.8945 73.2746 39.0259 76.2089 44.3076 77.9695 C 49.5893 79.73 56.925 77.676 59.2724 75.622 C 61.6198 73.568 56.6316 72.3943 57.2184 66.5258 C 57.8053 60.6572 56.0447 56.8427 62.2067 58.8966 C 68.3687 60.9506 68.0753 63.2981 72.1832 58.8966 C 76.2912 54.4952 79.8124 53.3215 77.1715 47.1595 z "
     id="path580"
     transform="matrix(0.800627,0.000000,0.000000,0.800627,9.030947,9.245272)" />
  <path
     style="font-size:12;fill:#fffcac;fill-rule:evenodd;stroke-width:1pt;"
     d="M 77.1715 47.1595 C 78.3452 45.6098 63.087 41.3862 62.2067 43.8328 C 61.3264 41.9402 46.3615 44.6636 47.5354 51.1189 C 48.7091 57.5744 53.6973 64.7157 48.4156 68.5303 C 43.1339 72.3448 39.0259 76.2089 44.3076 77.9695 C 49.5893 79.73 56.925 77.676 59.2724 75.622 C 61.6198 73.568 55.4579 72.3943 56.0447 66.5258 C 56.6316 60.6572 56.0447 55.293 62.2067 57.3469 C 68.3687 59.4009 68.0753 61.7484 72.1832 57.3469 C 76.2912 52.9455 79.8124 53.3215 77.1715 47.1595 z "
     id="path582"
     transform="matrix(0.800627,0.000000,0.000000,0.757977,9.030947,11.18955)"
     sodipodi:nodetypes="cccccccccc" />
  <path
     style="font-size:12;fill:#ffd87c;fill-rule:evenodd;stroke-width:1pt;"
     d="M 77.1715 47.1595 C 77.1715 47.1595 63.087 45.1055 62.2067 45.6924 C 61.3264 46.2793 49.0024 47.453 50.1762 53.9084 C 51.3499 60.3638 55.4579 65.6455 50.1762 69.4601 C 44.8945 73.2746 39.0259 76.2089 44.3076 77.9695 C 49.5893 79.73 56.925 77.676 59.2724 75.622 C 61.6198 73.568 55.4579 72.3943 56.0447 66.5258 C 56.6316 60.6572 56.0447 55.293 62.2067 57.3469 C 68.3687 59.4009 68.0753 61.7484 72.1832 57.3469 C 76.2912 52.9455 79.8124 53.3215 77.1715 47.1595 z "
     id="path581"
     transform="matrix(0.800627,0.000000,0.000000,0.757977,9.030947,11.18955)"
     sodipodi:nodetypes="cccccccccc" />
  <path
     transform="matrix(0.736756,0.000000,0.000000,0.736756,11.46844,10.81549)"
     style="font-size:12;fill:none;fill-rule:evenodd;stroke:#283d53;stroke-width:8.5;"
     d="M 83.8238 45.3908 C 83.8238 67.7244 65.698 85.8503 43.3643 85.8503 C 21.0307 85.8503 2.90479 67.7244 2.90479 45.3908 C 2.90479 23.0571 21.0307 4.93126 43.3643 4.93126 C 65.698 4.93126 83.8238 23.0571 83.8238 45.3908 z "
     id="path654" />
  <path
     transform="matrix(0.747451,-0.532237,0.735235,0.824193,-14.85950,39.57516)"
     style="font-size:12;fill:url(#linearGradient587);fill-rule:evenodd;stroke-width:1pt;"
     d="M 72.1832 30.4342 C 72.1832 40.1525 63.7044 48.0398 53.2571 48.0398 C 42.8099 48.0398 34.3311 40.1525 34.3311 30.4342 C 34.3311 20.7158 42.8099 12.8285 53.2571 12.8285 C 63.7044 12.8285 72.1832 20.7158 72.1832 30.4342 z "
     id="path588" />
  <path
     transform="matrix(0.976813,0.596147,-0.310505,0.607309,9.115366,-0.119572)"
     style="font-size:12;fill:none;fill-rule:evenodd;stroke:#000000;stroke-width:3.75;"
     d="M 72.701 17.3918 C 78.866 18.6809 86.6325 20.3152 88.2965 29.1009 C 87.5137 38.4186 69.472 47.1293 46.2776 47.1293 C 23.0832 47.1293 4.25867 39.0526 4.25867 29.1009 C 4.82498 20.9309 10.8693 17.4523 17.3592 17.02 "
     id="path1066"
     sodipodi:nodetypes="ccccc" />
  <path
     transform="matrix(1.010367,-0.414862,0.288420,0.590484,-9.398251,49.84187)"
     style="font-size:12;fill:none;fill-rule:evenodd;stroke:#000000;stroke-width:3.75;"
     d="M 75.9724 18.7286 C 82.1374 20.0177 86.6325 20.3152 88.2965 29.1009 C 87.5137 38.4186 69.472 47.1293 46.2776 47.1293 C 23.0832 47.1293 4.25867 39.0526 4.25867 29.1009 C 4.82498 20.9309 9.48119 19.3619 15.9711 18.9296 "
     id="path1067"
     sodipodi:nodetypes="ccccc" />
  <g
     id="g1116"
     transform="translate(9.917356,2.975206)">
    <metadata
       id="metadata1117">
      <rdf:RDF
         id="RDF1118">
        <cc:Work
           rdf:about=""
           id="Work1119">
          <dc:format
             id="format1120">image/svg+xml</dc:format>
          <dc:type
             id="type1122"
             rdf:resource="http://purl.org/dc/dcmitype/StillImage" />
        </cc:Work>
      </rdf:RDF>
    </metadata>
    <sodipodi:namedview
       id="namedview1123"
       inkscape:zoom="2.5208333"
       inkscape:cx="36.814308"
       inkscape:cy="51.739880"
       inkscape:window-width="923"
       inkscape:window-height="742"
       inkscape:window-x="6"
       inkscape:window-y="106"
       inkscape:current-layer="svg548" />
    <defs
       id="defs1124">
      <linearGradient
         x1="0.0000000"
         y1="0.0000000"
         x2="1.0000000"
         y2="0.0000000"
         id="linearGradient1125"
         gradientUnits="objectBoundingBox"
         spreadMethod="pad">
        <stop
           style="stop-color:#ffb700;stop-opacity:1;"
           offset="0.00000000"
           id="stop1126" />
        <stop
           style="stop-color:#ffd58f;stop-opacity:0;"
           offset="1.00000000"
           id="stop1127" />
      </linearGradient>
      <linearGradient
         x1="0.0000000"
         y1="0.0000000"
         x2="1.0000000"
         y2="0.0000000"
         id="linearGradient1128"
         gradientUnits="objectBoundingBox"
         spreadMethod="pad">
        <stop
           style="stop-color:#000000;stop-opacity:1;"
           offset="0.00000000"
           id="stop1129" />
        <stop
           style="stop-color:#bdf2ff;stop-opacity:0.384314;"
           offset="1.00000000"
           id="stop1130" />
      </linearGradient>
      <linearGradient
         x1="60.644615"
         y1="19.295689"
         x2="35.370575"
         y2="69.142799"
         id="linearGradient1131"
         xlink:href="#linearGradient632"
         gradientUnits="userSpaceOnUse"
         spreadMethod="pad" />
      <linearGradient
         x1="85.637657"
         y1="17.443844"
         x2="73.916298"
         y2="54.628181"
         id="linearGradient1132"
         xlink:href="#linearGradient632"
         gradientUnits="userSpaceOnUse"
         gradientTransform="scale(0.740666,1.350136)"
         spreadMethod="pad" />
      <defs
         id="defs1133">
        <sodipodi:namedview
           id="namedview1134" />
        <defs
           id="defs1135">
          <linearGradient
             x1="0.0000000"
             y1="0.0000000"
             x2="1.0000000"
             y2="0.0000000"
             id="linearGradient1136"
             gradientUnits="objectBoundingBox"
             spreadMethod="pad">
            <stop
               style="stop-color:#ffb700;stop-opacity:1;"
               offset="0.000000"
               id="stop1137" />
            <stop
               style="stop-color:#ffd58f;stop-opacity:0;"
               offset="1.000000"
               id="stop1138" />
          </linearGradient>
          <linearGradient
             x1="0.0000000"
             y1="0.0000000"
             x2="1.0000000"
             y2="0.0000000"
             id="linearGradient1139"
             gradientUnits="objectBoundingBox"
             spreadMethod="pad">
            <stop
               style="stop-color:#000000;stop-opacity:1;"
               offset="0.000000"
               id="stop1140" />
            <stop
               style="stop-color:#bdf2ff;stop-opacity:0.384314;"
               offset="1.000000"
               id="stop1141" />
          </linearGradient>
          <linearGradient
             id="linearGradient1142"
             xlink:href="#linearGradient632"
             x1="60.644615"
             y1="19.295689"
             x2="35.370575"
             y2="69.142799"
             gradientUnits="userSpaceOnUse"
             spreadMethod="pad" />
          <linearGradient
             xlink:href="#linearGradient632"
             id="linearGradient1143"
             x1="85.637657"
             y1="17.443844"
             x2="73.916298"
             y2="54.628181"
             gradientUnits="userSpaceOnUse"
             spreadMethod="pad"
             gradientTransform="scale(0.740666,1.350136)" />
        </defs>
      </defs>
      <sodipodi:namedview
         id="namedview1144"
         pagecolor="#ffffff"
         bordercolor="#666666"
         borderopacity="1.0"
         inkscape:pageopacity="0.0"
         inkscape:pageshadow="2"
         inkscape:zoom="2.4559706"
         inkscape:cx="113.94414"
         inkscape:cy="73.007956"
         inkscape:window-width="812"
         inkscape:window-height="560"
         inkscape:window-x="103"
         inkscape:window-y="56" />
      <metadata
         id="metadata1145">
        <rdf:RDF
           id="RDF1146">
          <cc:Work
             rdf:about=""
             id="Work1147">
            <dc:format
               id="format1148">image/svg+xml</dc:format>
            <dc:type
               id="type1150"
               rdf:resource="http://purl.org/dc/dcmitype/StillImage" />
          </cc:Work>
        </rdf:RDF>
      </metadata>
      <linearGradient
         inkscape:collect="always"
         xlink:href="#linearGradient663"
         id="linearGradient1127"
         gradientUnits="userSpaceOnUse"
         gradientTransform="scale(0.802339,1.246356)"
         spreadMethod="pad"
         x1="76.036346"
         y1="32.417820"
         x2="75.517197"
         y2="52.279938" />
      <linearGradient
         inkscape:collect="always"
         xlink:href="#linearGradient663"
         id="linearGradient1152"
         gradientUnits="userSpaceOnUse"
         gradientTransform="scale(0.896091,1.115958)"
         spreadMethod="pad"
         x1="37.863033"
         y1="41.465950"
         x2="35.183212"
         y2="69.738998" />
      <linearGradient
         inkscape:collect="always"
         xlink:href="#linearGradient650"
         id="linearGradient1129"
         gradientUnits="userSpaceOnUse"
         gradientTransform="scale(1.382029,0.723574)"
         spreadMethod="pad"
         x1="24.463873"
         y1="41.510738"
         x2="25.765659"
         y2="21.478500" />
      <radialGradient
         inkscape:collect="always"
         xlink:href="#linearGradient672"
         id="radialGradient1130"
         gradientUnits="userSpaceOnUse"
         gradientTransform="scale(1.027411,0.973321)"
         spreadMethod="pad"
         cx="56.672806"
         cy="71.401230"
         fx="56.672806"
         fy="71.401230"
         r="1.2831527" />
    </defs>
    <path
       style="fill:#000000;fill-opacity:0.40340909;fill-rule:evenodd;stroke:none;stroke-width:2.5625000;stroke-linecap:butt;stroke-linejoin:miter;stroke-miterlimit:4.0000000;stroke-opacity:1.0000000"
       d="M 61.998915,15.234160 L 67.537760,64.474786 L 59.243991,70.013632 L 48.775284,67.983688 L 51.414210,61.255876 L 42.221466,58.500953 L 28.881838,84.716222 L 41.293492,87.036157 L 42.743452,83.382259 L 69.364709,83.817247 L 78.557453,69.085658 L 82.704337,17.090108 L 61.998915,15.234160 z "
       id="path1088" />
    <path
       style="fill:#830101;fill-opacity:1.0000000;fill-rule:evenodd;stroke:#000000;stroke-width:2.3779337;stroke-linecap:butt;stroke-linejoin:miter;stroke-miterlimit:4.0000000;stroke-opacity:1.0000000"
       d="M 58.323449,11.560608 L 79.030309,13.401218 L 74.888937,65.398446 L 65.685889,80.123325 L 37.616588,79.663173 L 43.598571,64.017989 L 55.562534,66.318751 L 63.845279,60.796921 L 58.323449,11.560608 z "
       id="path1756" />
    <path
       style="fill:#931e05;fill-opacity:1.0000000;fill-rule:evenodd;stroke:#000000;stroke-width:2.4939303;stroke-linecap:square;stroke-linejoin:round;stroke-miterlimit:4.0000000;stroke-opacity:1.0000000"
       d="M 47.739943,57.575855 L 37.616588,83.344392 L 25.192472,81.043630 L 38.536893,54.814940 L 47.739943,57.575855 z "
       id="path1757" />
    <path
       style="fill:#b85f11;fill-opacity:1.0000000;fill-rule:evenodd;stroke:none;stroke-width:0.25000000pt;stroke-linecap:butt;stroke-linejoin:miter;stroke-opacity:1.0000000"
       d="M 62.004669,14.781676 L 67.066346,58.956312 L 56.942992,69.079666 L 44.979028,67.239056 L 59.243754,74.141343 L 71.207718,61.257074 L 66.146041,12.480913 L 62.004669,14.781676 z "
       id="path1754" />
    <path
       style="fill:#000000;fill-opacity:1.0000000;fill-rule:evenodd;stroke:none;stroke-width:0.25000000pt;stroke-linecap:butt;stroke-linejoin:miter;stroke-opacity:1.0000000"
       d="M 55.562534,66.778903 L 62.924973,79.663173 L 65.685889,78.282715 L 55.562534,66.778903 z "
       id="path1752" />
    <path
       style="fill:#000000;fill-opacity:1.0000000;fill-rule:evenodd;stroke:none;stroke-width:0.25000000pt;stroke-linecap:butt;stroke-linejoin:miter;stroke-opacity:1.0000000"
       d="M 64.765583,61.257074 L 71.667870,62.637531 L 64.305431,56.195397 L 64.765583,61.257074 z "
       id="path1753" />
    <path
       style="fill:#b85f11;fill-opacity:1.0000000;fill-rule:evenodd;stroke:none;stroke-width:0.25000000pt;stroke-linecap:butt;stroke-linejoin:miter;stroke-opacity:1.0000000"
       d="M 44.058722,59.416464 L 39.457198,57.115702 L 28.413539,79.203020 L 40.377503,61.257074 L 44.058722,59.416464 z "
       id="path1755" />
  </g>
</svg>
