<?xml version="1.0" encoding="UTF-8" standalone="no"?>
<!-- Created with Inkscape (http://www.inkscape.org/) -->
<svg
   xmlns:dc="http://purl.org/dc/elements/1.1/"
   xmlns:cc="http://web.resource.org/cc/"
   xmlns:rdf="http://www.w3.org/1999/02/22-rdf-syntax-ns#"
   xmlns:svg="http://www.w3.org/2000/svg"
   xmlns="http://www.w3.org/2000/svg"
   xmlns:xlink="http://www.w3.org/1999/xlink"
   xmlns:sodipodi="http://sodipodi.sourceforge.net/DTD/sodipodi-0.dtd"
   xmlns:inkscape="http://www.inkscape.org/namespaces/inkscape"
   width="90"
   height="90"
   id="svg2"
   sodipodi:version="0.32"
   inkscape:version="0.45.1"
   version="1.0"
   sodipodi:docbase="/home/tweenk/dev/GartoonRedux/scalable/stock/net"
   sodipodi:docname="outbox.svg"
   inkscape:output_extension="org.inkscape.output.svg.inkscape">
  <defs
     id="defs4">
    <linearGradient
       id="linearGradient2210"
       inkscape:collect="always">
      <stop
         id="stop2212"
         offset="0"
         style="stop-color:#558ada;stop-opacity:1" />
      <stop
         id="stop2214"
         offset="1"
         style="stop-color:#31baff;stop-opacity:1" />
    </linearGradient>
    <linearGradient
       id="linearGradient867">
      <stop
         style="stop-color:#92b5d7;stop-opacity:0.780392;"
         offset="0.000000"
         id="stop868" />
      <stop
         style="stop-color:#ffffff;stop-opacity:0.321569;"
         offset="1.000000"
         id="stop869" />
    </linearGradient>
    <linearGradient
       id="linearGradient860">
      <stop
         style="stop-color:#92b5d7;stop-opacity:1;"
         offset="0.000000"
         id="stop861" />
      <stop
         style="stop-color:#ffffff;stop-opacity:1;"
         offset="1.000000"
         id="stop862" />
    </linearGradient>
    <linearGradient
       inkscape:collect="always"
       id="linearGradient8088">
      <stop
         style="stop-color:#ff933d;stop-opacity:1"
         offset="0"
         id="stop8090" />
      <stop
         style="stop-color:#ffe6ba;stop-opacity:1"
         offset="1"
         id="stop8092" />
    </linearGradient>
    <linearGradient
       inkscape:collect="always"
       id="linearGradient8080">
      <stop
         style="stop-color:#9b9a9a;stop-opacity:1"
         offset="0"
         id="stop8082" />
      <stop
         style="stop-color:#383e49;stop-opacity:0.88532108"
         offset="1"
         id="stop8084" />
    </linearGradient>
    <linearGradient
       inkscape:collect="always"
       id="linearGradient8072">
      <stop
         style="stop-color:#558ada;stop-opacity:1"
         offset="0"
         id="stop8074" />
      <stop
         style="stop-color:#002f77;stop-opacity:1"
         offset="1"
         id="stop8076" />
    </linearGradient>
    <linearGradient
       inkscape:collect="always"
       id="linearGradient6103">
      <stop
         style="stop-color:#558ada;stop-opacity:1"
         offset="0"
         id="stop6105" />
      <stop
         style="stop-color:#31baff;stop-opacity:1"
         offset="1"
         id="stop6107" />
    </linearGradient>
    <linearGradient
       inkscape:collect="always"
       xlink:href="#linearGradient2210"
       id="linearGradient8096"
       gradientUnits="userSpaceOnUse"
       x1="60.81081"
       y1="60.049068"
       x2="49.617943"
       y2="22.899191"
       gradientTransform="matrix(-0.9652925,4.1713107e-2,4.1713107e-2,0.9652925,88.675424,-6.4370975)" />
    <linearGradient
       inkscape:collect="always"
       xlink:href="#linearGradient8072"
       id="linearGradient8126"
       gradientUnits="userSpaceOnUse"
       gradientTransform="matrix(-0.9652925,4.1713107e-2,4.1713107e-2,0.9652925,88.675424,-6.4370975)"
       x1="31.752407"
       y1="58.309883"
       x2="29.275846"
       y2="15.921374" />
    <linearGradient
       inkscape:collect="always"
       xlink:href="#linearGradient8088"
       id="linearGradient8128"
       gradientUnits="userSpaceOnUse"
       gradientTransform="matrix(-0.9652925,4.1713107e-2,4.1713107e-2,0.9652925,88.675424,-6.4370975)"
       x1="42.174433"
       y1="73.194104"
       x2="57.703159"
       y2="80.491402" />
    <linearGradient
       inkscape:collect="always"
       xlink:href="#linearGradient8080"
       id="linearGradient8130"
       gradientUnits="userSpaceOnUse"
       gradientTransform="matrix(-0.9652925,4.1713107e-2,4.1713107e-2,0.9652925,88.675424,-6.4370975)"
       x1="28.623465"
       y1="61.839436"
       x2="34.692455"
       y2="41.937717" />
    <linearGradient
       inkscape:collect="always"
       xlink:href="#linearGradient6103"
       id="linearGradient8132"
       gradientUnits="userSpaceOnUse"
       gradientTransform="matrix(-0.8942905,3.8644906e-2,3.8644906e-2,0.8942905,82.615865,-0.5394456)"
       x1="29.571798"
       y1="70.977333"
       x2="9.3550854"
       y2="89.546806" />
    <linearGradient
       inkscape:collect="always"
       xlink:href="#linearGradient860"
       id="linearGradient9369"
       gradientUnits="userSpaceOnUse"
       gradientTransform="matrix(0.9926561,0,0,0.923322,-3.1583702,2.7281314)"
       spreadMethod="reflect"
       x1="37.126305"
       y1="43.838791"
       x2="68.40992"
       y2="44.934666" />
    <linearGradient
       inkscape:collect="always"
       xlink:href="#linearGradient867"
       id="linearGradient9371"
       gradientUnits="userSpaceOnUse"
       gradientTransform="matrix(1.0530531,0,0,0.6622149,1.9209918,6.5448838)"
       spreadMethod="pad"
       x1="38.646523"
       y1="64.399437"
       x2="39.494808"
       y2="29.977726" />
    <linearGradient
       inkscape:collect="always"
       xlink:href="#linearGradient867"
       id="linearGradient9373"
       gradientUnits="userSpaceOnUse"
       gradientTransform="matrix(1.2197214,0,0,0.527288,1.8085851,12.602586)"
       spreadMethod="pad"
       x1="28.197727"
       y1="108.28517"
       x2="33.435261"
       y2="93.438599" />
  </defs>
  <sodipodi:namedview
     id="base"
     pagecolor="#ffffff"
     bordercolor="#666666"
     borderopacity="1.0"
     gridtolerance="10000"
     guidetolerance="10"
     objecttolerance="10"
     inkscape:pageopacity="0.0"
     inkscape:pageshadow="2"
     inkscape:zoom="3.197694"
     inkscape:cx="75.989856"
     inkscape:cy="36.174673"
     inkscape:document-units="px"
     inkscape:current-layer="layer1"
     width="90px"
     height="90px"
     inkscape:window-width="795"
     inkscape:window-height="619"
     inkscape:window-x="0"
     inkscape:window-y="1" />
  <metadata
     id="metadata7">
    <rdf:RDF>
      <cc:Work
         rdf:about="">
        <dc:format>image/svg+xml</dc:format>
        <dc:type
           rdf:resource="http://purl.org/dc/dcmitype/StillImage" />
      </cc:Work>
    </rdf:RDF>
  </metadata>
  <g
     inkscape:label="Layer 1"
     inkscape:groupmode="layer"
     id="layer1">
    <path
       transform="matrix(-0.8951251,0,0,0.8951251,83.372442,6.1554512)"
       d="M 68.75,0.40625 C 66.12269,0.37767111 63.191749,0.54872499 60.53125,0.90625 C 57.870751,1.263775 55.798844,1.4130477 53.3125,2.96875 C 51.876414,3.8673063 51.451718,4.7799251 51.09375,5.53125 C 50.735782,6.2825749 50.533752,6.985134 50.34375,7.71875 C 50.255433,8.0597503 50.231458,8.5149106 50.15625,8.875 C 40.667176,9.7386478 31.069794,11.882035 22.40625,16.03125 C 21.612432,16.414235 20.949312,17.023 20.5,17.78125 C 20.489532,17.791615 20.479115,17.802032 20.46875,17.8125 C 13.6152,19.974234 8.9902851,26.064891 6.90625,32.5 C 4.4183536,40.182157 4.5614915,48.692675 7.5,55.34375 C 7.4659791,55.540056 7.4450993,55.738413 7.4375,55.9375 C 3.634306,59.795708 0.85792992,64.21156 -0.5625,68.71875 C -2.1891576,73.880325 -2.2090766,79.334015 0.59375,83.78125 C 4.0789274,89.311171 10.629506,90.557346 17.34375,90.625 C 24.057994,90.692654 31.430791,89.048077 36.8125,84.25 C 37.942636,83.242425 38.694197,82.248409 39.625,81.25 C 39.786413,81.670515 39.931118,82.488882 40.09375,82.84375 C 40.968691,84.729621 43.026696,85.765094 45.0625,85.34375 C 46.758854,84.989177 52.766174,84.897369 53.90625,85.375 C 55.195624,85.91598 56.663704,85.823502 57.875,85.125 C 61.220182,83.173296 61.372912,80.743615 61.96875,78.375 C 62.564588,76.006385 62.917068,73.388809 63.125,70.8125 C 63.332932,68.236191 63.396604,65.735573 63.34375,63.71875 C 63.332199,63.277993 63.27339,62.927604 63.25,62.53125 C 71.009651,60.735018 78.979829,57.848417 87.84375,54.1875 C 89.233695,53.614371 90.243177,52.381865 90.53125,50.90625 C 92.070456,42.911227 91.846779,34.835415 90,27.78125 C 88.248097,21.089483 84.945428,15.211962 79.6875,11.6875 C 79.646523,10.471037 79.608658,9.2252372 79.46875,8.125 C 79.267483,6.5422438 79.581136,5.5500476 77.96875,3.28125 C 76.938282,1.8312692 75.964268,1.5289008 75.21875,1.25 C 74.473232,0.97109925 73.804724,0.83152239 73.125,0.71875 C 71.765552,0.49320523 70.329817,0.42343465 68.75,0.40625 z "
       id="path8290"
       style="opacity:1;color:#000000;fill:#000000;fill-opacity:0.29357796;fill-rule:evenodd;stroke:none;stroke-width:1.64835155;stroke-linecap:butt;stroke-linejoin:miter;marker:none;marker-start:none;marker-mid:none;marker-end:none;stroke-miterlimit:4;stroke-dasharray:none;stroke-dashoffset:0;stroke-opacity:1;visibility:visible;display:inline;overflow:visible;enable-background:accumulate"
       inkscape:original="M 68.6875 4.875 C 63.927314 4.8232205 57.616027 5.5433232 55.6875 6.75 C 52.601856 8.6806815 52.610672 42.432963 56.3125 44.3125 C 58.669796 45.509374 59.106345 45.675168 59.90625 43.53125 C 61.121568 40.273928 61.625218 30.704131 59.78125 20.4375 C 64.088737 22.62108 72.336439 20.801103 74.0625 19.9375 C 75.788564 19.073896 75.55068 7.6172505 74.3125 5.875 C 73.848183 5.2216553 71.543611 4.9060677 68.6875 4.875 z M 52.40625 13.125 C 42.72431 13.826227 32.941498 15.944797 24.34375 20.0625 C 37.657673 20.340236 52.676804 31.360215 45.96875 59.9375 C 58.561824 60.536587 70.712569 56.428038 86.125 50.0625 C 88.959285 35.340509 85.291273 20.079363 76.59375 14.90625 C 76.489743 17.866895 76.096626 20.345924 75.21875 20.71875 C 73.015889 21.654284 68.637795 24.102717 61.40625 22.3125 C 63.354966 33.946778 62.311494 41.211079 60.78125 44.78125 C 59.774069 47.131078 58.734923 46.898929 55.84375 45.625 C 52.29675 44.062097 51.222356 24.536431 52.40625 13.125 z M 25.25 21.40625 C 10.652159 21.969983 6.8531422 43.300584 11.65625 53.78125 C 27.011456 46.725928 34.668845 45.350614 45.8125 42.59375 C 44.608418 37.285709 43.457174 25.776679 25.25 21.40625 z M 45.6875 44.5 C 33.412757 46.302776 18.794792 53.077347 11.90625 56.03125 C 20.897842 58.999717 30.356433 61.39703 43.90625 59 C 44.76599 57.451501 46.230581 50.581266 45.6875 44.5 z M 12.0625 57.59375 C 3.7750976 64.982406 0.6465832 75.490384 4.375 81.40625 C 8.1034167 87.322118 25.556347 88.294907 33.84375 80.90625 C 42.131153 73.517595 43.698417 68.060439 43.3125 61.625 C 39.307226 62.11593 21.112188 63.296891 12.0625 57.59375 z M 58.4375 60.5625 C 54.03405 61.512582 49.640953 62.062338 45.28125 62 C 44.75229 65.225971 45.210152 70.309716 41.96875 73.65625 C 42.736295 77.072364 43.667852 79.903049 44.15625 80.96875 C 46.567119 80.464828 52.339742 79.873652 55.625 81.25 C 59.056241 79.248086 59.360444 61.319111 58.4375 60.5625 z "
       inkscape:radius="4.476716"
       sodipodi:type="inkscape:offset" />
    <path
       sodipodi:type="inkscape:offset"
       inkscape:radius="4.476716"
       inkscape:original="M 68.6875 4.875 C 63.927314 4.8232205 57.616027 5.5433232 55.6875 6.75 C 52.601856 8.6806815 52.610672 42.432963 56.3125 44.3125 C 58.669796 45.509374 59.106345 45.675168 59.90625 43.53125 C 61.121568 40.273928 61.625218 30.704131 59.78125 20.4375 C 64.088737 22.62108 72.336439 20.801103 74.0625 19.9375 C 75.788564 19.073896 75.55068 7.6172505 74.3125 5.875 C 73.848183 5.2216553 71.543611 4.9060677 68.6875 4.875 z M 52.40625 13.125 C 42.72431 13.826227 32.941498 15.944797 24.34375 20.0625 C 37.657673 20.340236 52.676804 31.360215 45.96875 59.9375 C 58.561824 60.536587 70.712569 56.428038 86.125 50.0625 C 88.959285 35.340509 85.291273 20.079363 76.59375 14.90625 C 76.489743 17.866895 76.096626 20.345924 75.21875 20.71875 C 73.015889 21.654284 68.637795 24.102717 61.40625 22.3125 C 63.354966 33.946778 62.311494 41.211079 60.78125 44.78125 C 59.774069 47.131078 58.734923 46.898929 55.84375 45.625 C 52.29675 44.062097 51.222356 24.536431 52.40625 13.125 z M 25.25 21.40625 C 10.652159 21.969983 6.8531422 43.300584 11.65625 53.78125 C 27.011456 46.725928 34.668845 45.350614 45.8125 42.59375 C 44.608418 37.285709 43.457174 25.776679 25.25 21.40625 z M 45.6875 44.5 C 33.412757 46.302776 18.794792 53.077347 11.90625 56.03125 C 20.897842 58.999717 30.356433 61.39703 43.90625 59 C 44.76599 57.451501 46.230581 50.581266 45.6875 44.5 z M 12.0625 57.59375 C 3.7750976 64.982406 0.6465832 75.490384 4.375 81.40625 C 8.1034167 87.322118 25.556347 88.294907 33.84375 80.90625 C 42.131153 73.517595 43.698417 68.060439 43.3125 61.625 C 39.307226 62.11593 21.112188 63.296891 12.0625 57.59375 z M 58.4375 60.5625 C 54.03405 61.512582 49.640953 62.062338 45.28125 62 C 44.75229 65.225971 45.210152 70.309716 41.96875 73.65625 C 42.736295 77.072364 43.667852 79.903049 44.15625 80.96875 C 46.567119 80.464828 52.339742 79.873652 55.625 81.25 C 59.056241 79.248086 59.360444 61.319111 58.4375 60.5625 z "
       style="opacity:1;color:#000000;fill:#383e49;fill-opacity:1;fill-rule:evenodd;stroke:none;stroke-width:1.64835155;stroke-linecap:butt;stroke-linejoin:miter;marker:none;marker-start:none;marker-mid:none;marker-end:none;stroke-miterlimit:4;stroke-dasharray:none;stroke-dashoffset:0;stroke-opacity:1;visibility:visible;display:inline;overflow:visible;enable-background:accumulate"
       id="path8124"
       d="M 68.75,0.40625 C 66.12269,0.37767111 63.191749,0.54872499 60.53125,0.90625 C 57.870751,1.263775 55.798844,1.4130477 53.3125,2.96875 C 51.876414,3.8673063 51.451718,4.7799251 51.09375,5.53125 C 50.735782,6.2825749 50.533752,6.985134 50.34375,7.71875 C 50.255433,8.0597503 50.231458,8.5149106 50.15625,8.875 C 40.667176,9.7386478 31.069794,11.882035 22.40625,16.03125 C 21.612432,16.414235 20.949312,17.023 20.5,17.78125 C 20.489532,17.791615 20.479115,17.802032 20.46875,17.8125 C 13.6152,19.974234 8.9902851,26.064891 6.90625,32.5 C 4.4183536,40.182157 4.5614915,48.692675 7.5,55.34375 C 7.4659791,55.540056 7.4450993,55.738413 7.4375,55.9375 C 3.634306,59.795708 0.85792992,64.21156 -0.5625,68.71875 C -2.1891576,73.880325 -2.2090766,79.334015 0.59375,83.78125 C 4.0789274,89.311171 10.629506,90.557346 17.34375,90.625 C 24.057994,90.692654 31.430791,89.048077 36.8125,84.25 C 37.942636,83.242425 38.694197,82.248409 39.625,81.25 C 39.786413,81.670515 39.931118,82.488882 40.09375,82.84375 C 40.968691,84.729621 43.026696,85.765094 45.0625,85.34375 C 46.758854,84.989177 52.766174,84.897369 53.90625,85.375 C 55.195624,85.91598 56.663704,85.823502 57.875,85.125 C 61.220182,83.173296 61.372912,80.743615 61.96875,78.375 C 62.564588,76.006385 62.917068,73.388809 63.125,70.8125 C 63.332932,68.236191 63.396604,65.735573 63.34375,63.71875 C 63.332199,63.277993 63.27339,62.927604 63.25,62.53125 C 71.009651,60.735018 78.979829,57.848417 87.84375,54.1875 C 89.233695,53.614371 90.243177,52.381865 90.53125,50.90625 C 92.070456,42.911227 91.846779,34.835415 90,27.78125 C 88.248097,21.089483 84.945428,15.211962 79.6875,11.6875 C 79.646523,10.471037 79.608658,9.2252372 79.46875,8.125 C 79.267483,6.5422438 79.581136,5.5500476 77.96875,3.28125 C 76.938282,1.8312692 75.964268,1.5289008 75.21875,1.25 C 74.473232,0.97109925 73.804724,0.83152239 73.125,0.71875 C 71.765552,0.49320523 70.329817,0.42343465 68.75,0.40625 z "
       transform="matrix(-0.8951251,0,0,0.8951251,87.2704,3.0384679)" />
    <path
       style="opacity:1;color:#000000;fill:url(#linearGradient8126);fill-opacity:1;fill-rule:evenodd;stroke:none;stroke-width:1.64835155;stroke-linecap:butt;stroke-linejoin:miter;marker:none;marker-start:none;marker-mid:none;marker-end:none;stroke-miterlimit:4;stroke-dasharray:none;stroke-dashoffset:0;stroke-opacity:1;visibility:visible;display:inline;overflow:visible;enable-background:accumulate"
       d="M 64.677596,22.187076 C 77.74449,22.691688 81.136117,41.79198 76.836734,51.173487 C 63.091903,44.858093 56.225622,43.62868 46.250657,41.160942 C 47.32846,36.409581 48.379896,26.099158 64.677596,22.187076 z "
       id="path2164"
       sodipodi:nodetypes="cccc" />
    <path
       style="opacity:1;color:#000000;fill:url(#linearGradient8128);fill-opacity:1;fill-rule:evenodd;stroke:none;stroke-width:1.64835155;stroke-linecap:butt;stroke-linejoin:miter;marker:none;marker-start:none;marker-mid:none;marker-end:none;stroke-miterlimit:4;stroke-dasharray:none;stroke-dashoffset:0;stroke-opacity:1;visibility:visible;display:inline;overflow:visible;enable-background:accumulate"
       d="M 49.313978,69.909061 C 48.626931,72.966913 48.172902,74.573317 47.735725,75.527253 C 45.577694,75.076179 40.421362,74.524548 37.480645,75.756551 C 34.409253,73.96459 34.144362,57.936991 34.970512,57.25973 C 38.912151,58.110172 42.83773,58.588933 46.74021,58.533133 C 47.213697,61.420779 47.272514,66.209862 49.313978,69.909061 z "
       id="path2166"
       sodipodi:nodetypes="cccccc" />
    <path
       style="opacity:1;color:#000000;fill:url(#linearGradient8130);fill-opacity:1;fill-rule:evenodd;stroke:none;stroke-width:1.64835155;stroke-linecap:butt;stroke-linejoin:miter;marker:none;marker-start:none;marker-mid:none;marker-end:none;stroke-miterlimit:4;stroke-dasharray:none;stroke-dashoffset:0;stroke-opacity:1;visibility:visible;display:inline;overflow:visible;enable-background:accumulate"
       d="M 46.379968,42.864628 C 57.367398,44.478338 70.449792,50.553601 76.615898,53.197713 C 68.567298,55.854862 60.088495,58.002093 47.959713,55.856451 C 47.190138,54.470349 45.893843,48.308122 46.379968,42.864628 z "
       id="path3157"
       sodipodi:nodetypes="cccc" />
    <path
       style="opacity:1;color:#000000;fill:url(#linearGradient8132);fill-opacity:1;fill-rule:evenodd;stroke:none;stroke-width:1.64835155;stroke-linecap:butt;stroke-linejoin:miter;marker:none;marker-start:none;marker-mid:none;marker-end:none;stroke-miterlimit:4;stroke-dasharray:none;stroke-dashoffset:0;stroke-opacity:1;visibility:visible;display:inline;overflow:visible;enable-background:accumulate"
       d="M 76.479534,54.606055 C 83.897797,61.219828 86.681039,70.609506 83.34364,75.904945 C 80.006239,81.200388 64.392168,82.073242 56.973905,75.459469 C 49.555643,68.845695 48.155475,63.953101 48.500919,58.192579 C 52.08614,58.632024 68.378931,59.71108 76.479534,54.606055 z "
       id="path8099"
       sodipodi:nodetypes="csscc" />
    <g
       id="g9358"
       transform="matrix(0.4424127,-6.0365316e-2,1.6260537e-2,0.4121611,34.839734,23.679771)">
      <path
         style="font-size:12px;fill:#000000;fill-opacity:0.3;fill-rule:evenodd;stroke-width:1pt"
         d="M 7.5754775,18.68703 C 7.1320497,18.68703 5.4507072,64.804253 8.7809901,68.372453 C 18.097704,79.257368 76.086169,93.144862 77.513558,91.003838 C 78.940837,88.86292 89.105221,46.660326 85.299,43.805768 C 73.95451,29.643642 9.0027561,15.118727 7.5754775,18.68703 z "
         id="path9340"
         sodipodi:nodetypes="ccccc" />
      <path
         style="font-size:12px;fill:#3d4e67;fill-rule:evenodd;stroke-width:1pt"
         d="M 3.3444937,11.70591 C 2.9010658,11.70591 1.219723,57.823134 4.5500053,61.391333 C 13.866722,72.276247 71.855186,86.163743 73.282574,84.022718 C 74.709852,81.881799 84.874239,39.679205 81.068016,36.824649 C 69.723526,22.662522 4.7717727,8.1376064 3.3444937,11.70591 z "
         id="path9342"
         sodipodi:nodetypes="ccccc" />
      <path
         style="font-size:12px;fill:url(#linearGradient9369);stroke-width:1pt"
         d="M 7.6306194,15.694736 C 7.6306194,15.694736 5.9382427,56.312155 8.8998891,59.485331 C 11.861584,62.658601 68.556745,81.909618 69.826111,80.005617 C 71.095382,78.10171 79.34583,39.3882 75.960984,36.849659 C 72.57623,34.31102 8.8998891,12.521466 7.6306194,15.694736 z "
         id="path9344" />
      <path
         style="font-size:12px;fill:#3d4e67;fill-rule:evenodd;stroke-width:1pt"
         d="M 10.169256,60.120062 C 9.5345251,60.331638 23.28521,56.735212 27.939425,53.561941 C 28.362483,53.350459 37.882204,53.985097 40.843895,56.94679 C 43.805496,59.908485 62.2103,75.56317 68.133687,80.005617 C 58.402486,79.370981 17.36182,72.601379 10.169256,60.120062 z "
         id="path9346"
         sodipodi:nodetypes="ccccc" />
      <path
         style="font-size:12px;fill:#ffffff;fill-rule:evenodd;stroke-width:1pt"
         d="M 12.972869,60.678654 C 13.150023,60.678654 24.49146,59.08371 28.390203,56.425525 C 28.744589,56.248369 36.187448,56.071135 38.668399,58.55209 C 41.14927,61.033041 60.1108,77.159229 61.52851,77.336382 C 62.94622,77.513616 17.403075,67.767041 12.972869,60.678654 z "
         id="path9348"
         sodipodi:nodetypes="ccccc" />
      <path
         style="font-size:12px;fill:#3d4e67;fill-rule:evenodd;stroke-width:1pt"
         d="M 75.114864,36.638081 C 75.114864,36.638081 34.920412,60.331638 31.324083,57.158367 C 23.28521,49.542552 7.4190423,15.271581 8.0537731,14.636948 C 10.380833,12.733042 59.037026,22.041185 75.114864,36.638081 z "
         id="path9350"
         sodipodi:nodetypes="cccc" />
      <path
         style="font-size:12px;fill:#ffffff;fill-rule:evenodd;stroke-width:1pt"
         d="M 72.099962,36.334872 C 70.195997,37.181133 35.135779,56.790409 31.99883,54.022473 C 24.9868,47.379467 10.512643,16.639918 11.066297,16.086346 C 13.096109,14.425622 57.018038,24.025639 72.099962,36.334872 z "
         id="path9352"
         sodipodi:nodetypes="cccc" />
      <path
         style="font-size:12px;fill:url(#linearGradient9371);fill-rule:evenodd;stroke-width:1pt"
         d="M 72.099962,36.334872 C 70.195997,37.181133 35.135779,56.790409 31.99883,54.022473 C 24.9868,47.379467 10.512643,16.639918 11.066297,16.086346 C 13.096109,14.425622 57.018038,24.025639 72.099962,36.334872 z "
         id="path9354"
         sodipodi:nodetypes="cccc" />
      <path
         style="font-size:12px;fill:url(#linearGradient9373);fill-rule:evenodd;stroke-width:1pt"
         d="M 12.972869,60.678654 C 13.150023,60.678654 24.49146,59.08371 28.390203,56.425525 C 28.744589,56.248369 36.187448,56.071135 38.668399,58.55209 C 41.14927,61.033041 60.1108,77.159229 61.52851,77.336382 C 62.94622,77.513616 17.403075,67.767041 12.972869,60.678654 z "
         id="path9356"
         sodipodi:nodetypes="ccccc" />
    </g>
    <path
       id="path9375"
       d="M 40.361142,14.781053 C 49.027688,15.408739 59.684676,18.277805 67.380737,21.963665 C 55.56912,23.060357 41.822859,30.368689 47.827406,55.948935 C 36.55503,56.485194 23.974213,53.546326 10.178159,47.848373 C 7.6411193,34.670351 10.915532,21.012515 18.700905,16.381932 C 28.050989,19.902827 36.018001,17.246172 40.361142,14.781053 z "
       style="opacity:1;color:#000000;fill:#383e49;fill-opacity:1;fill-rule:evenodd;stroke:none;stroke-width:1.64835155;stroke-linecap:butt;stroke-linejoin:miter;marker:none;marker-start:none;marker-mid:none;marker-end:none;stroke-miterlimit:4;stroke-dasharray:none;stroke-dashoffset:0;stroke-opacity:1;visibility:visible;display:inline;overflow:visible;enable-background:accumulate"
       sodipodi:nodetypes="cccccc" />
    <path
       style="opacity:1;color:#000000;fill:url(#linearGradient8096);fill-opacity:1;fill-rule:evenodd;stroke:none;stroke-width:1.64835155;stroke-linecap:butt;stroke-linejoin:miter;marker:none;marker-start:none;marker-mid:none;marker-end:none;stroke-miterlimit:4;stroke-dasharray:none;stroke-dashoffset:0;stroke-opacity:1;visibility:visible;display:inline;overflow:visible;enable-background:accumulate"
       d="M 40.361142,14.781053 C 49.027688,15.408739 57.776488,17.323711 65.472548,21.009571 C 53.554921,21.258179 40.126691,31.110762 46.131238,56.691008 C 34.858862,57.227267 23.974213,53.546326 10.178159,47.848373 C 7.6411193,34.670351 10.915532,21.012515 18.700905,16.381932 C 18.794001,19.03208 19.167534,21.252664 19.953344,21.586389 C 21.925176,22.42381 25.842249,24.61907 32.315387,23.016602 C 30.571044,33.430736 31.481961,39.92534 32.851721,43.12109 C 33.753273,45.22448 34.708316,45.006227 37.296277,43.865901 C 40.471285,42.466907 41.420875,24.995711 40.361142,14.781053 z "
       id="path2160" />
    <path
       style="opacity:1;color:#000000;fill:#ed0000;fill-opacity:1;fill-rule:evenodd;stroke:none;stroke-width:1.64835155;stroke-linecap:butt;stroke-linejoin:miter;marker:none;marker-start:none;marker-mid:none;marker-end:none;stroke-miterlimit:4;stroke-dasharray:none;stroke-dashoffset:0;stroke-opacity:1;visibility:visible;display:inline;overflow:visible;enable-background:accumulate"
       d="M 36.860961,42.692389 C 40.174562,41.00997 40.185859,10.804302 37.423821,9.0761005 C 34.661783,7.3478976 21.869917,6.7249518 20.761591,8.2844859 C 19.653264,9.8440177 19.424592,20.099449 20.969636,20.872483 C 22.514678,21.645516 29.898516,23.282357 33.754256,21.32778 C 32.103674,30.517699 32.551589,39.076089 33.639451,41.9918 C 34.355465,43.910875 34.750886,43.763741 36.860961,42.692389 z "
       id="path2162"
       sodipodi:nodetypes="cssscss" />
    <path
       style="opacity:1;color:#000000;fill:#b01911;fill-opacity:1;fill-rule:evenodd;stroke:none;stroke-width:1.64835155;stroke-linecap:butt;stroke-linejoin:miter;marker:none;marker-start:none;marker-mid:none;marker-end:none;stroke-miterlimit:4;stroke-dasharray:none;stroke-dashoffset:0;stroke-opacity:1;visibility:visible;display:inline;overflow:visible;enable-background:accumulate"
       d="M 34.745968,18.730528 C 34.745968,24.777043 31.571196,41.760262 36.169358,43.016633 C 34.704934,43.714335 34.273143,43.661378 33.652492,41.997902 C 32.56463,39.082191 32.091798,30.51357 33.74238,21.323651 C 29.886641,23.278227 22.523316,21.647244 20.978278,20.87421 C 20.476823,20.623317 20.177816,19.32528 20.019472,17.698166 C 22.117984,19.677339 26.801237,20.866961 34.745968,18.730528 z "
       id="path9154"
       sodipodi:nodetypes="ccscscc" />
    <path
       style="opacity:1;color:#000000;fill:#ffffff;fill-opacity:1;fill-rule:evenodd;stroke:none;stroke-width:1.64835155;stroke-linecap:butt;stroke-linejoin:miter;marker:none;marker-start:none;marker-mid:none;marker-end:none;stroke-miterlimit:4;stroke-dasharray:none;stroke-dashoffset:0;stroke-opacity:1;visibility:visible;display:inline;overflow:visible;enable-background:accumulate"
       d="M 36.310348,13.420814 C 37.50972,8.8482092 27.614904,8.3234842 26.415532,8.92317 C 32.212372,9.4904786 33.795215,11.271217 36.310348,13.420814 z "
       id="path9159"
       sodipodi:nodetypes="ccc" />
  </g>
</svg>
