<?xml version="1.0" encoding="UTF-8" standalone="no"?>
<!-- Created with Sodipodi ("http://www.sodipodi.com/") -->
<svg
   xmlns:dc="http://purl.org/dc/elements/1.1/"
   xmlns:cc="http://creativecommons.org/ns#"
   xmlns:rdf="http://www.w3.org/1999/02/22-rdf-syntax-ns#"
   xmlns:svg="http://www.w3.org/2000/svg"
   xmlns="http://www.w3.org/2000/svg"
   xmlns:xlink="http://www.w3.org/1999/xlink"
   xmlns:sodipodi="http://sodipodi.sourceforge.net/DTD/sodipodi-0.dtd"
   xmlns:inkscape="http://www.inkscape.org/namespaces/inkscape"
   id="svg604"
   sodipodi:version="0.32"
   width="90"
   height="90"
   sodipodi:docbase="/home/tweenk/GNUtoon/apps"
   sodipodi:docname="tomboy-note.svg"
   inkscape:version="0.45+devel"
   inkscape:output_extension="org.inkscape.output.svg.inkscape"
   version="1.0">
  <metadata
     id="metadata39">
    <rdf:RDF>
      <cc:Work
         rdf:about="">
        <dc:format>image/svg+xml</dc:format>
        <dc:type
           rdf:resource="http://purl.org/dc/dcmitype/StillImage" />
      </cc:Work>
    </rdf:RDF>
  </metadata>
  <defs
     id="defs606">
    <linearGradient
       id="linearGradient6184">
      <stop
         id="stop6186"
         offset="0.000000"
         style="stop-color:#593a28;stop-opacity:1" />
      <stop
         id="stop6188"
         offset="1.000000"
         style="stop-color:#ff933d;stop-opacity:0" />
    </linearGradient>
    <linearGradient
       id="linearGradient4218">
      <stop
         id="stop4220"
         offset="0"
         style="stop-color:#b01911;stop-opacity:1" />
      <stop
         id="stop4222"
         offset="1"
         style="stop-color:#ffc93f;stop-opacity:1" />
    </linearGradient>
    <linearGradient
       id="linearGradient3217">
      <stop
         style="stop-color:#ffe6ba;stop-opacity:1"
         offset="0"
         id="stop3219" />
      <stop
         style="stop-color:#ffc93f;stop-opacity:1"
         offset="1"
         id="stop3221" />
    </linearGradient>
    <linearGradient
       inkscape:collect="always"
       xlink:href="#linearGradient3217"
       id="linearGradient3223"
       x1="10.446366"
       y1="7.4949131"
       x2="17.217117"
       y2="16.213354"
       gradientUnits="userSpaceOnUse"
       gradientTransform="matrix(3.295046,-0.2814116,0.2814116,3.295046,-8.3013547,1.5386584)" />
    <linearGradient
       inkscape:collect="always"
       xlink:href="#linearGradient4218"
       id="linearGradient2237"
       gradientUnits="userSpaceOnUse"
       gradientTransform="matrix(3.295046,-0.2814116,0.2814116,3.295046,-8.3013547,1.5386584)"
       x1="25.096966"
       y1="19.736431"
       x2="22.915148"
       y2="17.301367" />
    <linearGradient
       inkscape:collect="always"
       xlink:href="#linearGradient6184"
       id="linearGradient2239"
       gradientUnits="userSpaceOnUse"
       gradientTransform="matrix(3.295046,-0.2814116,0.2814116,3.295046,-8.3013547,1.5386584)"
       x1="25.653496"
       y1="20.317675"
       x2="18.965466"
       y2="15.304358" />
  </defs>
  <sodipodi:namedview
     id="base"
     inkscape:zoom="5.0416665"
     inkscape:cx="38.992537"
     inkscape:cy="48.331248"
     inkscape:window-width="1014"
     inkscape:window-height="708"
     inkscape:window-x="0"
     inkscape:window-y="1"
     inkscape:current-layer="svg604"
     width="90px"
     height="90px"
     showgrid="false" />
  <path
     sodipodi:nodetypes="cccccc"
     id="path2407"
     d="M 1.5009476,21.251039 C -0.32664117,36.429247 9.5593296,78.262791 17.608905,89.323881 C 31.418868,87.577826 52.40846,84.156559 66.377879,79.570988 C 78.497289,70.978879 81.67623,58.97417 82.654186,44.250965 C 76.363869,29.04667 76.076805,19.550053 73.667508,3.9590471 C 54.255799,12.284593 33.142137,18.948674 1.5009476,21.251039 z"
     style="fill:#000000;fill-opacity:0.29411765;fill-rule:evenodd;stroke:none;stroke-width:1px;stroke-linecap:butt;stroke-linejoin:miter;stroke-opacity:1" />
  <path
     style="fill:#593a28;fill-opacity:1;fill-rule:evenodd;stroke:none;stroke-width:1px;stroke-linecap:butt;stroke-linejoin:miter;stroke-opacity:1"
     d="M 8.5581817,14.882969 C 6.0748029,29.96776 14.139305,72.190285 21.702169,83.589691 C 35.574805,82.443509 56.6929,79.934702 70.84785,75.958578 C 83.328083,67.899535 87.024072,56.043803 88.638906,41.376783 C 83.013128,25.914271 83.137718,16.414133 81.40607,0.73339433 C 61.651929,8.2102276 40.269404,13.95343 8.5581817,14.882969 z"
     id="path2234"
     sodipodi:nodetypes="cccccc" />
  <path
     style="fill:url(#linearGradient3223);fill-opacity:1;fill-rule:evenodd;stroke:none;stroke-width:1px;stroke-linecap:butt;stroke-linejoin:miter;stroke-opacity:1"
     d="M 14.635755,20.748721 C 32.615392,18.950539 58.156516,17.24412 76.695846,9.2657516 C 77.532779,19.151476 78.70641,29.667059 81.960603,39.875052 C 81.473126,47.807006 73.192739,47.053387 66.385351,50.169789 C 69.415904,56.074171 71.415508,65.321041 66.141222,68.632228 C 55.454293,75.341484 26.775983,78.181796 25.361035,76.667604 C 18.441095,59.076591 14.492806,39.684805 14.635755,20.748721 z"
     id="path2189"
     sodipodi:nodetypes="ccccscc" />
  <path
     style="fill:url(#linearGradient2237);fill-opacity:1;fill-rule:evenodd;stroke:none;stroke-width:1px;stroke-linecap:butt;stroke-linejoin:miter;stroke-opacity:1"
     d="M 69.340858,68.590586 C 75.413928,65.840288 81.869515,54.209445 82.523743,44.029712 C 79.569646,50.348463 73.558124,50.47064 70.591227,51.915441 C 71.799502,54.819985 75.05204,63.980259 69.340858,68.590586 z"
     id="path3164"
     sodipodi:nodetypes="cccc" />
  <path
     style="fill:url(#linearGradient2239);fill-opacity:1;fill-rule:evenodd;stroke:none;stroke-width:1px;stroke-linecap:butt;stroke-linejoin:miter;stroke-opacity:1"
     d="M 78.052651,22.04347 C 46.682953,29.788452 38.167554,36.700178 37.748206,76.365144 C 47.288101,75.20166 59.812869,72.615878 66.124328,68.653535 C 71.398607,65.342351 69.423762,56.05265 66.393209,50.148268 C 73.200597,47.031863 81.518765,47.843324 82.006252,39.911379 C 80.126771,34.015671 78.880071,27.963774 78.052651,22.04347 z"
     id="path4224"
     sodipodi:nodetypes="ccsccc" />
</svg>
