<?xml version="1.0" encoding="UTF-8" standalone="no"?>
<!DOCTYPE svg PUBLIC "-//W3C//DTD SVG 20010904//EN"
"http://www.w3.org/TR/2001/REC-SVG-20010904/DTD/svg10.dtd">
<!-- Created with Sodipodi ("http://www.sodipodi.com/") -->
<svg
   id="svg548"
   sodipodi:version="0.32"
   width="24.000000pt"
   height="24.000000pt"
   sodipodi:docbase="/home/zeus/.icons/gartoon/scalable/stock-gar"
   sodipodi:docname="stock_cdrom.svg"
   inkscape:version="0.40"
   xmlns="http://www.w3.org/2000/svg"
   xmlns:inkscape="http://www.inkscape.org/namespaces/inkscape"
   xmlns:sodipodi="http://sodipodi.sourceforge.net/DTD/sodipodi-0.dtd"
   xmlns:xlink="http://www.w3.org/1999/xlink"
   xmlns:rdf="http://www.w3.org/1999/02/22-rdf-syntax-ns#"
   xmlns:cc="http://web.resource.org/cc/"
   xmlns:dc="http://purl.org/dc/elements/1.1/">
  <metadata
     id="metadata21">
    <rdf:RDF
       id="RDF22">
      <cc:Work
         rdf:about=""
         id="Work23">
        <dc:format
           id="format24">image/svg+xml</dc:format>
        <dc:type
           id="type26"
           rdf:resource="http://purl.org/dc/dcmitype/StillImage" />
      </cc:Work>
    </rdf:RDF>
  </metadata>
  <defs
     id="defs550">
    <linearGradient
       id="linearGradient566">
      <stop
         style="stop-color:#b89282;stop-opacity:1;"
         offset="0.000000"
         id="stop567" />
      <stop
         style="stop-color:#ffffff;stop-opacity:0;"
         offset="1.000000"
         id="stop568" />
    </linearGradient>
    <linearGradient
       id="linearGradient558">
      <stop
         style="stop-color:#7fa8e3;stop-opacity:0.741176;"
         offset="0.000000"
         id="stop559" />
      <stop
         style="stop-color:#ffffff;stop-opacity:0;"
         offset="1.000000"
         id="stop560" />
    </linearGradient>
    <linearGradient
       xlink:href="#linearGradient558"
       id="linearGradient561"
       x1="27.0318985"
       y1="27.7278957"
       x2="44.9898338"
       y2="30.3221245"
       gradientUnits="userSpaceOnUse"
       gradientTransform="matrix(0.404909,0.000000,0.000000,0.689093,-1.219448,-0.533784)"
       spreadMethod="pad" />
    <linearGradient
       xlink:href="#linearGradient558"
       id="linearGradient563"
       x1="23.9531670"
       y1="24.2094688"
       x2="45.7012291"
       y2="18.4172096"
       gradientUnits="userSpaceOnUse"
       gradientTransform="matrix(0.520985,0.000000,0.000000,0.535561,-1.219448,-0.533784)"
       spreadMethod="pad" />
    <linearGradient
       xlink:href="#linearGradient566"
       id="linearGradient565"
       x1="23.8109703"
       y1="38.8476372"
       x2="46.7923088"
       y2="38.8476372"
       gradientUnits="userSpaceOnUse"
       spreadMethod="pad"
       gradientTransform="scale(0.839949,1.190549)" />
    <linearGradient
       xlink:href="#linearGradient566"
       id="linearGradient570"
       x1="37.2327957"
       y1="15.7551279"
       x2="53.1239204"
       y2="17.6949825"
       gradientUnits="userSpaceOnUse"
       spreadMethod="pad"
       gradientTransform="scale(0.982487,1.017825)" />
  </defs>
  <sodipodi:namedview
     id="base"
     inkscape:zoom="4.2916667"
     inkscape:cx="36.000000"
     inkscape:cy="8.0652732"
     inkscape:window-width="1014"
     inkscape:window-height="696"
     inkscape:window-x="0"
     inkscape:window-y="25"
     inkscape:current-layer="svg548" />
  <path
     style="font-size:12.000000;fill:#143c69;fill-rule:evenodd;stroke-width:1.0000000pt"
     d="M 1.6728772,17.303905 C 4.0542120,24.735013 12.083310,29.539184 19.594962,28.027521 C 27.106655,26.515847 31.270409,19.257960 28.889074,11.826853 C 26.507751,4.3957802 18.478647,-0.40840332 10.966953,1.1032674 C 3.4553050,2.6149313 -0.70844588,9.8728347 1.6728772,17.303905 z "
     id="path613" />
  <path
     style="font-size:12.000000;fill:#ffffff;fill-rule:evenodd;stroke-width:1.0000000pt"
     d="M 3.4988796,16.967967 C 5.5803375,23.487414 12.598355,27.702199 19.164085,26.375990 C 25.729847,25.049770 29.369276,18.682287 27.287814,12.162845 C 25.206368,5.6434289 18.188346,1.4286316 11.622584,2.7548501 C 5.0568528,4.0810614 1.4174323,10.448556 3.4988796,16.967967 z "
     id="path612" />
  <path
     style="fill:url(#linearGradient561);fill-opacity:1.0000000;fill-rule:evenodd;stroke:none;stroke-width:1.0000000pt;stroke-linecap:butt;stroke-linejoin:miter;stroke-opacity:1.0000000"
     d="M 17.697073,17.093963 L 19.607512,26.533776 C 16.236151,26.533776 14.775224,27.545185 8.5943977,23.949065 C 6.9087123,22.712902 13.763820,14.621633 13.763820,14.621633 L 17.697073,17.093963 z "
     id="path557"
     sodipodi:nodetypes="ccccc" />
  <path
     style="fill:url(#linearGradient563);fill-opacity:1.0000000;fill-rule:evenodd;stroke:none;stroke-width:1.0000000pt;stroke-linecap:butt;stroke-linejoin:miter;stroke-opacity:1.0000000"
     d="M 14.775224,3.6085174 L 14.438091,10.688380 C 14.438091,10.688380 20.057025,12.598814 20.169404,12.598814 C 20.281783,12.598814 23.203632,7.2046389 23.203632,7.2046389 C 23.203632,7.2046389 18.146591,3.2713670 14.775224,3.6085174 z "
     id="path562"
     sodipodi:nodetypes="ccccc" />
  <path
     style="font-size:12.000000;fill:#143c69;fill-rule:evenodd;stroke-width:1.0000000pt"
     d="M 14.759293,9.4529297 C 12.272847,9.9507735 10.884250,12.353871 11.672491,14.801185 C 12.460731,17.248511 15.128552,18.815014 17.614997,18.317169 C 20.101447,17.819319 21.473533,15.432745 20.685293,12.985419 C 19.897053,10.538105 17.245744,8.9550797 14.759293,9.4529297 z M 15.370051,11.103625 C 16.969699,10.791235 18.676051,11.796417 19.183160,13.332066 C 19.690274,14.867721 18.818479,16.354081 17.218831,16.666473 C 15.619197,16.978858 13.896324,15.990194 13.389215,14.454540 C 12.882104,12.918890 13.770417,11.416016 15.370051,11.103625 z "
     id="path614" />
</svg>
