<?xml version="1.0" encoding="UTF-8" standalone="no"?>
<!DOCTYPE svg PUBLIC "-//W3C//DTD SVG 20010904//EN"
"http://www.w3.org/TR/2001/REC-SVG-20010904/DTD/svg10.dtd">
<!-- Created with Sodipodi ("http://www.sodipodi.com/") -->
<svg
   id="svg604"
   sodipodi:version="0.32"
   width="24.000000pt"
   height="24.000000pt"
   sodipodi:docbase="/home/zeus/.icons/gartoon/scalable/stock-gar"
   sodipodi:docname="stock-center.svg"
   inkscape:version="0.40"
   xmlns="http://www.w3.org/2000/svg"
   xmlns:inkscape="http://www.inkscape.org/namespaces/inkscape"
   xmlns:sodipodi="http://sodipodi.sourceforge.net/DTD/sodipodi-0.dtd"
   xmlns:xlink="http://www.w3.org/1999/xlink"
   xmlns:rdf="http://www.w3.org/1999/02/22-rdf-syntax-ns#"
   xmlns:cc="http://web.resource.org/cc/"
   xmlns:dc="http://purl.org/dc/elements/1.1/">
  <metadata
     id="metadata16">
    <rdf:RDF
       id="RDF17">
      <cc:Work
         rdf:about=""
         id="Work18">
        <dc:format
           id="format19">image/svg+xml</dc:format>
        <dc:type
           id="type21"
           rdf:resource="http://purl.org/dc/dcmitype/StillImage" />
      </cc:Work>
    </rdf:RDF>
  </metadata>
  <defs
     id="defs606">
    <linearGradient
       id="linearGradient612">
      <stop
         style="stop-color:#7fa8e3;stop-opacity:0.741176;"
         offset="0.000000"
         id="stop613" />
      <stop
         style="stop-color:#ffffff;stop-opacity:0;"
         offset="1.000000"
         id="stop614" />
    </linearGradient>
    <linearGradient
       xlink:href="#linearGradient612"
       id="linearGradient615"
       x1="50.6438866"
       y1="5.36792946"
       x2="35.7520943"
       y2="68.0443573"
       gradientUnits="userSpaceOnUse"
       spreadMethod="pad"
       gradientTransform="matrix(0.314828,0.000000,0.000000,0.314828,8.723592e-2,0.698463)" />
  </defs>
  <sodipodi:namedview
     id="base"
     inkscape:zoom="5.0416667"
     inkscape:cx="36.000000"
     inkscape:cy="17.494798"
     inkscape:window-width="871"
     inkscape:window-height="536"
     inkscape:window-x="5"
     inkscape:window-y="32"
     inkscape:current-layer="svg604" />
  <path
     style="fill:#3d4e67;fill-opacity:1.0000000;fill-rule:evenodd;stroke:none;stroke-width:1.0000000pt;stroke-linecap:butt;stroke-linejoin:miter;stroke-opacity:1.0000000"
     d="M 6.2387859,28.946039 C 5.0832426,28.929170 3.1459912,28.225685 2.9768387,26.337880 C 2.3803372,24.430525 0.30671692,6.4027598 1.3073302,5.1470789 C 1.8243553,4.1584949 2.9502197,3.4327891 4.9533352,3.1812106 C 6.5923531,2.9310098 21.501109,0.97565428 22.600450,1.2791478 C 23.699827,1.5826621 24.565829,1.8393093 24.644915,3.3614334 C 24.563605,4.1892314 27.332728,21.073877 27.757547,22.069548 C 27.960255,23.235795 27.627504,24.865557 25.932298,25.402414 C 24.237119,25.939268 7.5769923,28.718179 6.2387859,28.946039 z "
     id="path609"
     sodipodi:nodetypes="ccccccccc" />
  <path
     style="fill:#ffffff;fill-opacity:1.0000000;fill-rule:evenodd;stroke:none;stroke-width:1.0000000pt;stroke-linecap:butt;stroke-linejoin:miter;stroke-opacity:1.0000000"
     d="M 7.5737781,26.946457 C 6.4534639,27.093907 4.8972991,27.402149 4.7114216,25.875150 C 3.9374021,22.260345 2.1627056,7.9340595 3.4272553,5.6058866 C 3.7096967,5.0584235 5.2431530,4.3153105 8.7265006,4.0050919 C 12.684974,3.6081771 20.807146,3.0045860 21.661863,3.0437943 C 22.516538,3.0830126 22.778011,2.9865363 22.963918,4.5135764 C 22.888415,6.1370608 25.466823,18.837083 25.619142,21.085654 C 25.737663,22.681887 25.941633,23.360093 24.895832,23.745983"
     id="path608"
     sodipodi:nodetypes="cccccccs" />
  <path
     style="fill:url(#linearGradient615);fill-opacity:1.0000000;fill-rule:evenodd;stroke:none;stroke-width:1.0000000pt;stroke-linecap:butt;stroke-linejoin:miter;stroke-opacity:1.0000000"
     d="M 3.7075370,7.7676790 C 3.7075370,7.7676790 3.8082913,5.6012871 6.7085715,5.1698724 C 9.6088401,4.7384673 21.095182,3.2680448 21.368865,4.0187428 C 21.642536,4.7694337 21.981366,9.6480097 22.065869,10.042675 C 22.150377,10.437320 12.427011,13.812247 9.7570192,17.033108 C 7.0870264,20.253958 5.2171104,22.860221 5.2171104,22.860221 C 5.2171104,22.860221 3.6881876,11.500903 3.7075370,7.7676790 z "
     id="path636" />
  <path
     style="font-size:12.000000;fill:none;fill-rule:evenodd;stroke:#3d4e67;stroke-width:1.3128883;stroke-linecap:round;stroke-opacity:1.0000000"
     d="M 5.5943624,8.7820635 L 20.743441,6.7270038"
     id="path706"
     sodipodi:nodetypes="cc" />
  <path
     style="font-size:12.000000;fill:none;fill-rule:evenodd;stroke:#3d4e67;stroke-width:1.3128883;stroke-linecap:round;stroke-opacity:1.0000000"
     d="M 8.1394104,12.207164 L 19.167933,10.445688"
     id="path707"
     sodipodi:nodetypes="cc" />
  <path
     style="font-size:12.000000;fill:none;fill-rule:evenodd;stroke:#3d4e67;stroke-width:1.3128883;stroke-linecap:round;stroke-opacity:1.0000000"
     d="M 6.5639087,16.219429 L 21.470598,13.870790"
     id="path708"
     sodipodi:nodetypes="cc" />
  <path
     style="font-size:12.000000;fill:none;fill-rule:evenodd;stroke:#3d4e67;stroke-width:1.3128883;stroke-linecap:round;stroke-opacity:1.0000000"
     d="M 10.078490,19.448809 L 19.773898,17.785187"
     id="path709"
     sodipodi:nodetypes="cc" />
  <path
     style="font-size:12.000000;fill:none;fill-rule:evenodd;stroke:#3d4e67;stroke-width:1.3128883;stroke-linecap:round;stroke-opacity:1.0000000"
     d="M 7.7758316,24.146091 L 22.924908,21.210291"
     id="path710"
     sodipodi:nodetypes="cc" />
</svg>
