<?xml version="1.0" encoding="UTF-8" standalone="no"?>
<!DOCTYPE svg PUBLIC "-//W3C//DTD SVG 20010904//EN"
"http://www.w3.org/TR/2001/REC-SVG-20010904/DTD/svg10.dtd">
<!-- Created with Sodipodi ("http://www.sodipodi.com/") -->
<svg
   id="svg604"
   sodipodi:version="0.32"
   width="24.000000pt"
   height="24.000000pt"
   sodipodi:docbase="/home/zeus/.icons/gartoon/scalable/stock-gar"
   sodipodi:docname="stock_gtk-underline.svg"
   xmlns="http://www.w3.org/2000/svg"
   xmlns:sodipodi="http://sodipodi.sourceforge.net/DTD/sodipodi-0.dtd"
   xmlns:xlink="http://www.w3.org/1999/xlink"
   xmlns:inkscape="http://www.inkscape.org/namespaces/inkscape"
   inkscape:version="0.40"
   xmlns:rdf="http://www.w3.org/1999/02/22-rdf-syntax-ns#"
   xmlns:cc="http://web.resource.org/cc/"
   xmlns:dc="http://purl.org/dc/elements/1.1/">
  <metadata
     id="metadata13">
    <rdf:RDF
       id="RDF14">
      <cc:Work
         rdf:about=""
         id="Work15">
        <dc:format
           id="format16">image/svg+xml</dc:format>
        <dc:type
           id="type18"
           rdf:resource="http://purl.org/dc/dcmitype/StillImage" />
      </cc:Work>
    </rdf:RDF>
  </metadata>
  <defs
     id="defs606">
    <linearGradient
       id="linearGradient612">
      <stop
         style="stop-color:#7fa8e3;stop-opacity:0.741176;"
         offset="0.000000"
         id="stop613" />
      <stop
         style="stop-color:#ffffff;stop-opacity:0;"
         offset="1.000000"
         id="stop614" />
    </linearGradient>
    <linearGradient
       xlink:href="#linearGradient612"
       id="linearGradient615"
       x1="50.6438866"
       y1="5.36792946"
       x2="35.7520943"
       y2="68.0443573"
       gradientUnits="userSpaceOnUse"
       spreadMethod="pad"
       gradientTransform="matrix(0.323254,0.000000,0.000000,0.323254,0.113228,0.590227)" />
  </defs>
  <sodipodi:namedview
     id="base"
     inkscape:zoom="5.0416667"
     inkscape:cx="36.000000"
     inkscape:cy="-12.296113"
     inkscape:window-width="953"
     inkscape:window-height="536"
     inkscape:window-x="5"
     inkscape:window-y="48"
     inkscape:current-layer="svg604" />
  <path
     style="fill:#3d4e67;fill-opacity:1.0000000;fill-rule:evenodd;stroke:none;stroke-width:1.0000000pt;stroke-linecap:butt;stroke-linejoin:miter;stroke-opacity:1.0000000"
     d="M 6.3355758,29.406147 C 5.1491044,29.388772 3.1599995,28.664075 2.9863216,26.719344 C 2.3738555,24.754477 0.24473543,6.1831218 1.2721275,4.8895790 C 1.8029929,3.8711899 2.9589905,3.1235998 5.0157169,2.8644364 C 6.6986095,2.6066912 22.006389,0.59237596 23.135153,0.90502107 C 24.263960,1.2176869 25.153137,1.4820728 25.234339,3.0500934 C 25.150856,3.9028527 27.994091,21.296616 28.430283,22.322311 C 28.638411,23.523723 28.296760,25.202627 26.556183,25.755672 C 24.815628,26.308711 7.7095960,29.171416 6.3355758,29.406147 z "
     id="path609"
     sodipodi:nodetypes="ccccccccc" />
  <path
     style="fill:#ffffff;fill-opacity:1.0000000;fill-rule:evenodd;stroke:none;stroke-width:1.0000000pt;stroke-linecap:butt;stroke-linejoin:miter;stroke-opacity:1.0000000"
     d="M 7.7062956,27.346272 C 6.5559996,27.498169 4.9581810,27.815705 4.7673286,26.242660 C 3.9725925,22.518865 2.1504027,7.7605948 3.4487950,5.3622215 C 3.7387925,4.7982500 5.3132916,4.0327361 8.8898741,3.7131621 C 12.954292,3.3042778 21.293857,2.6824858 22.171446,2.7228764 C 23.048996,2.7632776 23.317468,2.6638919 23.508350,4.2369744 C 23.430830,5.9094162 26.078245,18.992378 26.234642,21.308751 C 26.356337,22.953112 26.565763,23.651767 25.491973,24.049295"
     id="path608"
     sodipodi:nodetypes="cccccccs" />
  <path
     style="fill:url(#linearGradient615);fill-opacity:1.0000000;fill-rule:evenodd;stroke:none;stroke-width:1.0000000pt;stroke-linecap:butt;stroke-linejoin:miter;stroke-opacity:1.0000000"
     d="M 3.7365783,7.5891990 C 3.7365783,7.5891990 3.8400325,5.3574826 6.8179354,4.9130602 C 9.7958257,4.4686505 21.589599,2.9538888 21.870607,3.7272220 C 22.151602,4.5005524 22.499500,9.5262274 22.586268,9.9327904 C 22.673036,10.339337 12.689427,13.816034 9.9479717,17.134006 C 7.2065191,20.451976 5.2865520,23.136827 5.2865520,23.136827 C 5.2865520,23.136827 3.7167111,11.434994 3.7365783,7.5891990 z "
     id="path636" />
  <path
     style="fill:none;fill-opacity:1.0000000;fill-rule:evenodd;stroke:#3d4e67;stroke-width:1.5354564;stroke-linecap:butt;stroke-linejoin:miter;stroke-opacity:1.0000000"
     d="M 7.5272129,25.272233 L 23.669059,22.175249"
     id="path680" />
  <path
     style="font-size:12.000000;font-weight:normal;fill:#3d4e67;stroke-width:1.0000000;font-family:Bitstream Vera Sans"
     d="M 6.9167886,7.6181861 L 8.9836639,7.2491494 L 10.632511,16.483897 C 10.923377,18.112958 11.428309,19.234519 12.147310,19.848578 C 12.865100,20.455861 13.885802,20.641338 15.209416,20.405008 C 16.526241,20.169892 17.416295,19.643253 17.879574,18.825093 C 18.341645,18.000155 18.427247,16.773156 18.136381,15.144095 L 16.487534,5.9093473 L 18.554407,5.5403108 L 20.248703,15.029607 C 20.602589,17.011625 20.377710,18.596195 19.574064,19.783301 C 18.777205,20.969195 17.421702,21.733034 15.507555,22.074802 C 13.586617,22.417781 12.043746,22.171441 10.878941,21.335799 C 9.7209232,20.498945 8.9649706,19.089500 8.6110859,17.107483 L 6.9167886,7.6181861 z "
     id="path703" />
</svg>
