<?xml version="1.0" encoding="UTF-8" standalone="no"?>
<!DOCTYPE svg PUBLIC "-//W3C//DTD SVG 20010904//EN"
"http://www.w3.org/TR/2001/REC-SVG-20010904/DTD/svg10.dtd">
<!-- Created with Inkscape (http://www.inkscape.org/) -->
<svg
   id="svg795"
   sodipodi:version="0.32"
   width="24.000000pt"
   height="24.000000pt"
   sodipodi:docbase="/home/zeus/.icons/gartoon/scalable/stock-gar"
   sodipodi:docname="stock_undelete.svg"
   inkscape:version="0.40"
   xmlns="http://www.w3.org/2000/svg"
   xmlns:inkscape="http://www.inkscape.org/namespaces/inkscape"
   xmlns:sodipodi="http://sodipodi.sourceforge.net/DTD/sodipodi-0.dtd"
   xmlns:xlink="http://www.w3.org/1999/xlink"
   xmlns:rdf="http://www.w3.org/1999/02/22-rdf-syntax-ns#"
   xmlns:cc="http://web.resource.org/cc/"
   xmlns:dc="http://purl.org/dc/elements/1.1/">
  <metadata
     id="metadata46">
    <rdf:RDF
       id="RDF47">
      <cc:Work
         rdf:about=""
         id="Work48">
        <dc:format
           id="format49">image/svg+xml</dc:format>
        <dc:type
           id="type51"
           rdf:resource="http://purl.org/dc/dcmitype/StillImage" />
      </cc:Work>
    </rdf:RDF>
  </metadata>
  <defs
     id="defs797">
    <linearGradient
       id="linearGradient853">
      <stop
         style="stop-color:#b5b5b5;stop-opacity:1;"
         offset="0.000000"
         id="stop854" />
      <stop
         style="stop-color:#ffffff;stop-opacity:1;"
         offset="1.000000"
         id="stop855" />
    </linearGradient>
    <linearGradient
       id="linearGradient816">
      <stop
         style="stop-color:#0c1535;stop-opacity:0.698039;"
         offset="0.000000"
         id="stop817" />
      <stop
         style="stop-color:#ffffff;stop-opacity:0;"
         offset="1.000000"
         id="stop818" />
    </linearGradient>
    <linearGradient
       id="linearGradient808">
      <stop
         style="stop-color:#000;stop-opacity:1;"
         offset="0"
         id="stop809" />
      <stop
         style="stop-color:#fff;stop-opacity:1;"
         offset="1"
         id="stop810" />
    </linearGradient>
    <linearGradient
       xlink:href="#linearGradient808"
       id="linearGradient811"
       x1="26.0382957"
       y1="28.1627388"
       x2="26.1608067"
       y2="57.2600060"
       gradientUnits="userSpaceOnUse"
       spreadMethod="pad"
       gradientTransform="scale(1.563194,0.639716)" />
    <linearGradient
       xlink:href="#linearGradient816"
       id="linearGradient815"
       x1="35.0614166"
       y1="26.6189938"
       x2="67.4910965"
       y2="46.4692268"
       gradientUnits="userSpaceOnUse"
       spreadMethod="pad" />
    <linearGradient
       xlink:href="#linearGradient853"
       id="linearGradient852"
       x1="54.4152985"
       y1="65.3215179"
       x2="54.7179070"
       y2="62.7665443"
       gradientUnits="userSpaceOnUse"
       spreadMethod="pad"
       gradientTransform="scale(1.047658,0.954510)" />
    <linearGradient
       xlink:href="#linearGradient853"
       id="linearGradient856"
       x1="45.2853661"
       y1="87.7303848"
       x2="44.1507835"
       y2="85.9213257"
       gradientUnits="userSpaceOnUse"
       spreadMethod="pad"
       gradientTransform="scale(1.154071,0.866497)" />
    <linearGradient
       xlink:href="#linearGradient853"
       id="linearGradient857"
       x1="80.6359329"
       y1="66.7975998"
       x2="82.3356094"
       y2="59.0885315"
       gradientUnits="userSpaceOnUse"
       spreadMethod="pad"
       gradientTransform="scale(0.891910,1.121189)" />
  </defs>
  <sodipodi:namedview
     id="base"
     inkscape:zoom="4.2916667"
     inkscape:cx="28.077670"
     inkscape:cy="-1.7475728"
     inkscape:window-width="1014"
     inkscape:window-height="696"
     inkscape:window-x="0"
     inkscape:window-y="25"
     inkscape:current-layer="svg795" />
  <g
     id="g825"
     transform="matrix(0.315932,0.000000,0.000000,0.315932,4.769356,0.847580)">
    <path
       style="fill:#000000;fill-opacity:0.29824600;fill-rule:evenodd;stroke:none;stroke-width:1.0000000pt;stroke-linecap:butt;stroke-linejoin:miter;stroke-opacity:1.0000000"
       d="M 4.5936500,19.007300 L 5.4288500,31.117800 C 5.4288500,31.117800 8.3520800,32.370600 8.1432800,32.579400 C 7.9344800,32.788200 11.066500,70.163800 11.066500,70.163800 C 11.066500,70.163800 11.066500,72.669400 13.154500,74.131000 C 15.242600,75.592700 33.825900,89.164800 35.705200,90.000000 C 37.584400,90.835200 39.463600,91.044000 42.178000,89.791200 C 44.892500,88.538400 61.387800,81.856700 63.893400,80.812700 C 66.399100,79.768700 68.487100,78.724700 69.113500,74.131000 C 69.739900,69.537400 73.228300,37.483200 73.228300,37.483200 C 73.671300,37.630900 73.228300,34.041000 74.481200,34.249800 C 75.734000,34.458600 77.674400,34.249800 78.300800,30.700200 C 78.927200,27.150600 79.553600,22.765700 79.553600,22.765700 C 79.553600,22.765700 78.362000,19.878300 76.273900,18.207900 C 74.186000,16.537500 44.871400,3.2606200 44.036200,3.0518200 C 43.201000,2.8430300 37.426300,3.6677300 34.711800,4.7117400 C 31.997400,5.7557600 6.8904700,12.952000 4.5936500,19.007300 z "
       id="path824"
       sodipodi:nodetypes="ccccccccccccccccc"
       transform="matrix(1.037424,0.000000,0.000000,0.954524,-4.453626,3.976088)" />
    <path
       style="fill:#1f1d1c;fill-opacity:1.0000000;fill-rule:evenodd;stroke:none;stroke-width:1.0000000pt;stroke-linecap:butt;stroke-linejoin:miter;stroke-opacity:1.0000000"
       d="M 4.5936500,19.007300 L 5.4288500,31.117800 C 5.4288500,31.117800 8.3520800,32.370600 8.1432800,32.579400 C 7.9344800,32.788200 11.066500,70.163800 11.066500,70.163800 C 11.066500,70.163800 11.066500,72.669400 13.154500,74.131000 C 15.242600,75.592700 33.825900,89.164800 35.705200,90.000000 C 37.584400,90.835200 39.463600,91.044000 42.178000,89.791200 C 44.892500,88.538400 61.387800,81.856700 63.893400,80.812700 C 66.399100,79.768700 68.487100,78.724700 69.113500,74.131000 C 69.739900,69.537400 73.228300,37.483200 73.228300,37.483200 C 73.671300,37.630900 73.228300,34.041000 74.481200,34.249800 C 75.734000,34.458600 77.674400,34.249800 78.300800,30.700200 C 78.927200,27.150600 79.553600,22.765700 79.553600,22.765700 C 79.553600,22.765700 78.362000,19.878300 76.273900,18.207900 C 74.186000,16.537500 44.871400,3.2606200 44.036200,3.0518200 C 43.201000,2.8430300 37.426300,3.6677300 34.711800,4.7117400 C 31.997400,5.7557600 6.8904700,12.952000 4.5936500,19.007300 z "
       id="path812"
       sodipodi:nodetypes="ccccccccccccccccc"
       transform="translate(-3.838782,-2.214680)" />
    <path
       style="fill:#ffec98;fill-opacity:1.0000000;fill-rule:evenodd;stroke:none;stroke-width:1.0000000pt;stroke-linecap:butt;stroke-linejoin:miter;stroke-opacity:1.0000000"
       d="M 9.3961000,20.051300 C 8.7696900,22.348100 8.5608800,26.106600 9.3961000,27.985800 C 10.440100,28.821000 21.924300,32.997000 38.002000,41.140300 C 45.101200,37.590600 70.575100,31.535400 72.036700,30.700200 C 73.498300,29.865000 74.333600,28.403400 74.542400,27.150600 C 74.751200,25.897800 75.377600,22.348100 73.916000,21.512900 C 69.322300,17.545700 43.013200,6.4791500 41.134000,6.8967500 C 39.254800,7.3143600 16.077700,14.622500 9.3961000,20.051300 z "
       id="path803"
       sodipodi:nodetypes="cccccccc"
       transform="translate(-3.838782,-2.214680)" />
    <path
       style="fill:#000000;fill-opacity:1.0000000;fill-rule:evenodd;stroke:none;stroke-width:1.0000000pt;stroke-linecap:butt;stroke-linejoin:miter;stroke-opacity:1.0000000"
       d="M 20.462600,19.633700 C 20.984600,18.589700 40.820800,11.177200 41.864800,11.594800 C 42.908800,12.012400 43.430800,11.908000 44.892500,12.743200 C 46.354100,13.578400 61.596600,20.468900 61.387800,20.468900 C 61.179000,20.468900 40.716400,28.403400 40.716400,28.403400 C 40.716400,28.403400 21.089000,21.304100 20.462600,19.633700 z "
       id="path813"
       sodipodi:nodetypes="cccccc"
       transform="translate(-3.838782,-2.214680)" />
    <path
       style="fill:#e9a341;fill-opacity:1.0000000;fill-rule:evenodd;stroke:none;stroke-width:1.0000000pt;stroke-linecap:butt;stroke-linejoin:miter;stroke-opacity:1.0000000"
       d="M 20.045000,19.842500 L 25.473900,22.139300 C 25.473900,22.139300 30.693900,19.842500 32.781900,19.007300 C 34.870000,18.172100 40.090000,16.501700 40.090000,16.501700 L 40.716400,11.699200 C 40.716400,11.699200 30.693900,14.622400 28.814700,15.666400 C 26.935500,16.710500 20.880200,18.589700 20.045000,19.842500 z "
       id="path799"
       sodipodi:nodetypes="ccccccc"
       transform="translate(-3.986428,-2.362328)" />
    <path
       style="fill:#e7a240;fill-opacity:1.0000000;fill-rule:evenodd;stroke:none;stroke-width:1.0000000pt;stroke-linecap:butt;stroke-linejoin:miter;stroke-opacity:1.0000000"
       d="M 42.386800,11.908000 L 41.760400,17.336900 C 41.760400,17.336900 53.244500,22.765700 53.453300,22.765700 C 53.662100,22.765700 61.805400,20.677700 61.805400,20.677700 C 61.805400,20.677700 45.518900,12.534400 42.386800,11.908000 z "
       id="path800"
       transform="translate(-3.838782,-2.214680)" />
    <path
       style="fill:url(#linearGradient811);fill-opacity:1.0000000;fill-rule:evenodd;stroke:none;stroke-width:1.0000000pt;stroke-linecap:butt;stroke-linejoin:miter;stroke-opacity:1.0000000"
       d="M 27.353100,23.183300 C 27.353100,23.183300 35.914000,18.380900 39.463600,18.589700 C 43.013200,18.798500 53.140100,23.705300 52.200500,23.809700 C 50.738900,24.853700 40.507600,28.612200 40.298800,28.403400 C 31.111500,24.645000 27.770700,22.974500 27.353100,23.183300 z "
       id="path801"
       sodipodi:nodetypes="ccccc"
       transform="translate(-3.838782,-2.214680)" />
    <path
       style="fill:#578cc7;fill-opacity:1.0000000;fill-rule:evenodd;stroke:none;stroke-width:1.0000000pt;stroke-linecap:butt;stroke-linejoin:miter;stroke-opacity:1.0000000"
       d="M 13.154500,31.744200 C 13.154500,31.744200 18.792100,32.892600 37.793200,42.915100 C 40.298800,43.750300 55.541400,34.876200 70.575100,32.997000 C 66.399000,51.162800 66.607900,68.911000 65.981500,70.372600 C 65.355100,71.834200 65.355100,74.757400 61.805400,76.219100 C 56.376600,77.471900 40.716400,84.571200 36.749200,86.241600 C 34.661200,85.197600 25.056300,74.548600 16.495400,71.416600 C 15.451400,71.416600 13.572100,36.129000 13.154500,31.744200 z "
       id="path802"
       sodipodi:nodetypes="cccccccc"
       transform="translate(-3.838782,-2.214680)" />
    <path
       style="fill:#4c5b86;fill-opacity:1.0000000;fill-rule:evenodd;stroke:none;stroke-width:1.0000000pt;stroke-linecap:butt;stroke-linejoin:miter;stroke-opacity:1.0000000"
       d="M 9.1540200,29.317700 C 9.1540200,29.317700 24.361500,34.337700 33.958500,40.686400 C 35.877900,54.565100 34.992000,76.121300 33.958500,84.389500 C 31.300800,83.355900 14.616900,68.739000 11.959300,69.182000 C 11.959300,68.739000 9.3016700,29.613000 9.1540200,29.317700 z "
       id="path819"
       sodipodi:nodetypes="ccccc" />
    <path
       style="fill:#1f1d1c;fill-opacity:1.0000000;fill-rule:evenodd;stroke:none;stroke-width:1.0000000pt;stroke-linecap:butt;stroke-linejoin:miter;stroke-opacity:1.0000000"
       d="M 37.584400,45.316300 L 38.002000,54.712400 C 38.002000,54.712400 40.716400,50.536400 37.584400,45.316300 z "
       id="path804"
       transform="translate(-3.838782,-2.214680)" />
    <path
       style="fill:#e7a240;fill-opacity:1.0000000;fill-rule:evenodd;stroke:none;stroke-width:1.0000000pt;stroke-linecap:butt;stroke-linejoin:miter;stroke-opacity:1.0000000"
       d="M 33.515500,32.565900 L 33.958500,38.914700 L 5.3152400,25.626600 C 5.3152400,25.626600 3.9864300,17.358400 5.4628800,18.244300 C 6.9393400,19.130200 33.367900,32.418300 33.515500,32.565900 z "
       id="path820" />
    <path
       style="fill:#1f1d1c;fill-opacity:1.0000000;fill-rule:evenodd;stroke:none;stroke-width:1.0000000pt;stroke-linecap:butt;stroke-linejoin:miter;stroke-opacity:1.0000000"
       d="M 39.046000,62.855700 L 36.958000,86.450400 L 39.046000,85.406400 C 39.046000,85.406400 39.881200,69.537400 39.046000,62.855700 z "
       id="path805"
       transform="translate(-3.838782,-2.214680)" />
    <path
       style="fill:#1f1d1c;fill-opacity:0.99684101;fill-rule:evenodd;stroke:none;stroke-width:1.0000000pt;stroke-linecap:butt;stroke-linejoin:miter;stroke-opacity:1.0000000"
       d="M 9.3961000,20.260100 C 9.3961000,20.260100 25.682700,27.568200 28.605900,29.656200 C 31.529100,31.744200 36.540400,35.085000 37.584400,34.876200 C 38.628400,34.667400 11.692900,25.062500 9.3961000,20.260100 z "
       id="path806"
       transform="translate(-3.838782,-2.214680)" />
    <path
       style="fill:#1f1d1c;fill-opacity:1.0000000;fill-rule:evenodd;stroke:none;stroke-width:1.0000000pt;stroke-linecap:butt;stroke-linejoin:miter;stroke-opacity:1.0000000"
       d="M 41.342800,34.458600 C 41.342800,34.458600 54.288500,29.238600 57.629400,27.777000 C 60.970200,26.315400 72.871900,21.721700 74.333600,21.512900 C 75.795200,21.304100 44.266100,35.293800 41.342800,34.458600 z "
       id="path807"
       transform="translate(-3.838782,-2.214680)" />
    <path
       style="font-size:12.000000;fill:url(#linearGradient815);fill-rule:evenodd;stroke-width:1.0000000pt"
       d="M 34.253800,45.115800 C 18.947800,35.912500 16.487100,37.339700 9.5969500,38.471700 C 9.4985200,36.060100 9.1048000,31.433900 9.3016700,28.874700 C 16.191800,31.138600 25.444200,35.026700 34.106100,40.538800 C 45.425600,37.192100 55.859200,32.664300 67.031100,30.498800 C 66.391300,32.959600 65.751400,35.420400 65.111600,37.881100 C 55.859200,37.635100 44.982700,41.080100 34.253800,45.115800 z "
       id="path823"
       sodipodi:nodetypes="ccccccc" />
  </g>
  <g
     id="g868"
     transform="matrix(0.284349,0.000000,0.000000,0.284349,0.145043,0.432810)">
    <defs
       id="defs550">
      <linearGradient
         x1="0.0000000"
         y1="0.0000000"
         x2="1.0000000"
         y2="0.0000000"
         id="linearGradient556"
         gradientUnits="objectBoundingBox"
         spreadMethod="pad">
        <stop
           style="stop-color:#ff0000;stop-opacity:1;"
           offset="0"
           id="stop557" />
        <stop
           style="stop-color:#ffff8d;stop-opacity:0;"
           offset="1"
           id="stop558" />
      </linearGradient>
      <linearGradient
         x1="0.98450798"
         y1="0.96875602"
         x2="-0.57364303"
         y2="-0.17187500"
         id="linearGradient559"
         xlink:href="#linearGradient556" />
    </defs>
    <path
       d="M 1.0288650,23.996480 C 1.5106240,18.425230 21.764600,-0.15599700 26.354010,1.5259790 C 34.777870,2.8751330 33.242930,12.489770 36.572780,13.673080 C 39.925370,14.260300 69.018750,17.441910 55.858790,48.658930 C 53.464540,54.250870 51.943790,55.299830 49.441230,57.133110 C 47.006010,58.781430 43.096020,58.877900 39.925520,55.312400 C 37.029360,51.009470 38.279880,46.767430 39.623100,43.203620 C 43.849990,32.535290 36.050480,32.407270 31.736420,30.155090 C 30.728120,33.888400 28.870190,42.698680 26.365420,42.576120 C 23.860630,42.453580 0.40522500,35.124710 1.0288650,23.996480 z "
       style="font-size:12.000000;fill:#7e0000;fill-rule:evenodd"
       id="path582" />
    <path
       d="M 4.6121750,23.640700 C 4.7699050,19.466670 21.933170,4.6409650 25.699710,6.0968920 C 29.466440,7.5528960 27.553030,12.858510 29.168050,15.805470 C 65.853760,16.564390 56.288110,57.553800 44.403570,52.800070 C 37.894800,50.275780 48.986860,39.661780 43.827350,32.468840 C 39.451290,26.193410 27.896740,25.013740 27.659270,26.557340 C 27.184320,29.644590 26.600200,38.875310 24.577420,38.679480 C 22.554610,38.483650 3.7301640,28.026130 4.6121750,23.640700 z "
       style="font-size:12.000000;fill:#ff1500;fill-rule:evenodd"
       id="path581" />
    <path
       d="M 54.210870,41.705740 C 52.774650,32.533620 50.660470,27.155740 45.663170,23.375040 C 40.164350,19.001950 30.829680,18.331080 30.547620,17.535700 C 30.265600,16.740340 37.317550,18.856460 42.764500,20.485630 C 52.976590,23.497430 55.105590,35.376650 54.210870,41.705740 z "
       style="font-size:12.000000;fill:#ffffff;fill-rule:evenodd"
       id="path588" />
    <path
       d="M 12.936790,19.723600 C 14.098090,18.368760 22.273640,11.538380 24.503670,11.063040 C 26.733570,10.587840 25.247900,14.704680 25.247900,14.704680 C 25.247900,14.704680 13.854640,18.186730 12.936790,19.723600 z "
       style="font-size:12.000000;fill:#ffffff;fill-rule:evenodd"
       id="path589" />
    <path
       d="M 12.146370,35.686010 C 12.146370,35.686010 2.9905940,31.863590 3.0060640,31.983620 C 3.0215340,32.103630 4.7098050,30.055790 4.7098050,30.055790 L 7.0830350,30.481970 L 12.344240,32.488120 L 12.146370,35.686010 z "
       style="font-size:12.000000;fill:none;fill-rule:evenodd;stroke-width:1.0000000"
       id="path576" />
    <path
       d="M 4.7235340,23.588730 C 3.7557850,29.324220 24.852560,38.883360 24.852560,38.883360 C 26.788050,37.353900 27.949340,27.030030 29.884820,25.691740 C 33.368690,27.221210 44.207400,30.280130 44.788040,34.294970 C 45.368700,38.309810 42.465460,46.339490 42.078360,48.251310 C 41.304170,51.119070 43.820300,53.795620 46.336430,52.648530 C 48.852560,51.501430 49.239660,49.207230 49.239660,49.207230 C 49.239660,49.207230 46.529980,49.207240 46.142880,47.104220 C 45.755790,45.001210 51.368690,34.677340 48.465460,30.662500 C 45.562240,26.647660 33.949340,21.103370 26.788050,21.676910 L 23.884820,33.530230 C 23.884820,33.530230 20.981600,33.339070 4.7235340,23.588730 z "
       style="font-size:12.000000;fill:#cb0000;fill-rule:evenodd;stroke-width:1.0000000"
       id="path615" />
  </g>
</svg>
