<?xml version="1.0" encoding="UTF-8" standalone="no"?>
<!DOCTYPE svg PUBLIC "-//W3C//DTD SVG 20010904//EN"
"http://www.w3.org/TR/2001/REC-SVG-20010904/DTD/svg10.dtd">
<!-- Created with Sodipodi ("http://www.sodipodi.com/") -->
<svg
   version="1.0"
   x="0"
   y="0"
   width="24.000000pt"
   height="24.000000pt"
   id="svg548"
   xmlns="http://www.w3.org/2000/svg"
   xmlns:xlink="http://www.w3.org/1999/xlink"
   xmlns:sodipodi="http://sodipodi.sourceforge.net/DTD/sodipodi-0.dtd"
   xmlns:inkscape="http://www.inkscape.org/namespaces/inkscape"
   sodipodi:version="0.32"
   inkscape:version="0.40"
   xmlns:rdf="http://www.w3.org/1999/02/22-rdf-syntax-ns#"
   xmlns:cc="http://web.resource.org/cc/"
   xmlns:dc="http://purl.org/dc/elements/1.1/"
   sodipodi:docname="stock_undo.svg"
   sodipodi:docbase="/home/zeus/.icons/gartoon/scalable/stock-gar">
  <metadata
     id="metadata14">
    <rdf:RDF
       id="RDF15">
      <cc:Work
         rdf:about=""
         id="Work16">
        <dc:format
           id="format17">image/svg+xml</dc:format>
        <dc:type
           id="type19"
           rdf:resource="http://purl.org/dc/dcmitype/StillImage" />
      </cc:Work>
    </rdf:RDF>
  </metadata>
  <sodipodi:namedview
     id="base"
     pagecolor="#ffffff"
     bordercolor="#666666"
     borderopacity="1.0"
     inkscape:pageopacity="0.0"
     inkscape:pageshadow="2"
     inkscape:zoom="2.4559706"
     inkscape:cx="0.80385457"
     inkscape:cy="0.10847787"
     inkscape:window-width="864"
     inkscape:window-height="536"
     inkscape:window-x="0"
     inkscape:window-y="25"
     inkscape:current-layer="svg548" />
  <defs
     id="defs550">
    <linearGradient
       x1="0"
       y1="0"
       x2="1"
       y2="0"
       id="linearGradient556"
       gradientUnits="objectBoundingBox"
       spreadMethod="pad">
      <stop
         style="stop-color:#ff0000;stop-opacity:1;"
         offset="0"
         id="stop557" />
      <stop
         style="stop-color:#ffff8d;stop-opacity:0;"
         offset="1"
         id="stop558" />
    </linearGradient>
    <linearGradient
       x1="0.98450798"
       y1="0.96875602"
       x2="-0.57364303"
       y2="-0.171875"
       id="linearGradient559"
       xlink:href="#linearGradient556" />
  </defs>
  <path
     d="M 1.0224607,12.157693 C 1.2516060,9.5077671 10.885267,0.66973718 13.068188,1.4697572 C 17.074937,2.1114728 16.344854,6.6846073 17.928674,7.2474404 C 19.523310,7.5267474 33.361371,9.0400578 27.101929,23.888214 C 25.963121,26.547981 25.239787,27.046911 24.049461,27.918898 C 22.891166,28.702910 21.031407,28.748795 19.523381,27.052890 C 18.145843,25.006232 18.740644,22.988535 19.379537,21.293434 C 21.390028,16.219118 17.680245,16.158226 15.628293,15.086992 C 15.148702,16.862715 14.264991,21.053263 13.073615,20.994968 C 11.882229,20.936683 0.72583069,17.450757 1.0224607,12.157693 z "
     style="font-size:12.000000;fill:#7e0000;fill-rule:evenodd"
     id="path582" />
  <path
     d="M 2.7268369,11.988469 C 2.8018600,10.003121 10.965446,2.9513784 12.756975,3.6438798 C 14.548593,4.3364179 13.638493,6.8599959 14.406666,8.2616967 C 31.855966,8.6226716 27.306132,28.118996 21.653334,25.857918 C 18.557483,24.657257 23.833344,19.608783 21.379259,16.187511 C 19.297817,13.202647 13.801976,12.641546 13.689025,13.375748 C 13.463119,14.844177 13.185286,19.234704 12.223165,19.141559 C 11.261030,19.048413 2.3073145,14.074368 2.7268369,11.988469 z "
     style="font-size:12.000000;fill:#ff1500;fill-rule:evenodd"
     id="path581" />
  <path
     d="M 26.318107,20.580978 C 25.634979,16.218324 24.629384,13.660373 22.252454,11.862109 C 19.636979,9.7820799 15.197009,9.4629853 15.062849,9.0846684 C 14.928708,8.7063610 18.282918,9.7128786 20.873722,10.487782 C 25.731031,11.920323 26.743674,17.570591 26.318107,20.580978 z "
     style="font-size:12.000000;fill:#ffffff;fill-rule:evenodd"
     id="path588" />
  <path
     d="M 6.6863814,10.125328 C 7.2387456,9.4809075 11.127388,6.2320853 12.188087,6.0059932 C 13.248723,5.7799677 12.542074,7.7381136 12.542074,7.7381136 C 12.542074,7.7381136 7.1229503,9.3943262 6.6863814,10.125328 z "
     style="font-size:12.000000;fill:#ffffff;fill-rule:evenodd"
     id="path589" />
  <path
     d="M 6.3104237,17.717736 C 6.3104237,17.717736 1.9555433,15.899628 1.9629015,15.956720 C 1.9702597,16.013802 2.7732739,15.039761 2.7732739,15.039761 L 3.9020840,15.242471 L 6.4045392,16.196682 L 6.3104237,17.717736 z "
     style="font-size:12.000000;fill:none;fill-rule:evenodd;stroke-width:1.0000000"
     id="path576" />
  <path
     d="M 2.7798040,11.963750 C 2.3195010,14.691795 12.354034,19.238533 12.354034,19.238533 C 13.274636,18.511056 13.826995,13.600580 14.747593,12.964031 C 16.404671,13.691513 21.560027,15.146467 21.836204,17.056097 C 22.112391,18.965728 20.731486,22.784988 20.547364,23.694332 C 20.179126,25.058362 21.375906,26.331444 22.572685,25.785839 C 23.769465,25.240229 23.953586,24.149009 23.953586,24.149009 C 23.953586,24.149009 22.664746,24.149014 22.480625,23.148727 C 22.296508,22.148445 24.966244,17.237969 23.585343,15.328338 C 22.204447,13.418708 16.680853,10.781606 13.274636,11.054406 L 11.893735,16.692354 C 11.893735,16.692354 10.512839,16.601430 2.7798040,11.963750 z "
     style="font-size:12.000000;fill:#cb0000;fill-rule:evenodd;stroke-width:1.0000000"
     id="path615" />
</svg>
