<?xml version="1.0" encoding="utf-8"?>
<!DOCTYPE svg PUBLIC "-//W3C//DTD SVG 1.1//EN" "http://www.w3.org/Graphics/SVG/1.1/DTD/svg11.dtd" [
	<!ENTITY ns_svg "http://www.w3.org/2000/svg">
	<!ENTITY ns_xlink "http://www.w3.org/1999/xlink">
]>
<svg  version="1.1" xmlns="&ns_svg;" xmlns:xlink="&ns_xlink;" width="128" height="128" viewBox="0 0 128 128"
	 style="overflow:visible;enable-background:new 0 0 128 128;" xml:space="preserve">
<path style="opacity:0.2;fill-rule:evenodd;clip-rule:evenodd;fill:#141414;" d="M51.868,84.936
	c-6.409-5.639-10.084-13.715-10.084-22.156c0-8.504,3.714-16.616,10.19-22.257c0.365-0.319,0.445-0.856,0.186-1.267L42.036,23.192
	c-0.148-0.234-0.388-0.396-0.661-0.444s-0.556,0.021-0.773,0.189c-8.268,6.368-14.483,15.328-17.502,25.23
	c-0.118,0.387,0.012,0.807,0.331,1.059c4.155,3.291,6.635,8.357,6.635,13.553s-2.481,10.264-6.637,13.555
	c-0.317,0.251-0.449,0.67-0.331,1.058c2.995,9.819,9.14,18.728,17.306,25.082c0.219,0.171,0.499,0.241,0.773,0.193
	c0.273-0.047,0.514-0.208,0.663-0.441l10.209-16.022C52.309,85.794,52.232,85.256,51.868,84.936z M12.803,50.223
	C5.732,50.223,0,55.951,0,63.016C0,70.081,5.732,75.81,12.803,75.81s12.803-5.729,12.803-12.794
	C25.606,55.951,19.874,50.223,12.803,50.223z M58.779,35.162c0.257,0.408,0.772,0.57,1.217,0.383
	c3.754-1.587,7.654-2.392,11.59-2.392c14.478,0,27.107,10.734,29.377,24.969c0.076,0.478,0.488,0.829,0.971,0.829l19.08,0.029
	c0.278,0,0.543-0.117,0.73-0.323s0.277-0.479,0.251-0.757c-1.028-10.562-5.524-20.75-12.659-28.685
	c-0.322-0.36-0.859-0.432-1.266-0.169c-2.877,1.858-6.145,2.842-9.447,2.842c-9.633,0-17.469-7.79-17.47-17.364
	c0.001-0.005,0.019-0.366,0.019-0.382c0-0.477-0.343-0.888-0.816-0.97c-3.012-0.522-5.962-0.888-8.77-0.888
	c-7.711,0-15.502,1.937-22.532,5.411c-0.25,0.124-0.436,0.348-0.511,0.616c-0.076,0.268-0.034,0.555,0.114,0.791L58.779,35.162z
	 M98,27.5c6.908,0,12.51-5.598,12.51-12.5c0-6.904-5.602-12.5-12.51-12.5S85.49,8.096,85.49,15C85.49,21.902,91.092,27.5,98,27.5z
	 M120.994,66.733l-19.078,0.062c-0.481,0.001-0.892,0.352-0.969,0.826C98.646,81.75,86.024,92.405,71.586,92.405
	c-3.982,0-7.926-0.824-11.722-2.45c-0.444-0.189-0.958-0.03-1.219,0.375l-10.203,16.015c-0.149,0.235-0.192,0.522-0.118,0.791
	c0.074,0.268,0.259,0.493,0.508,0.617c7.085,3.547,14.954,5.421,22.754,5.421c2.893,0,5.906-0.273,8.955-0.814
	c0.428-0.075,0.756-0.424,0.807-0.855c1.016-8.775,8.443-15.393,17.275-15.393c2.738,0,5.524,0.698,8.056,2.018
	c0.385,0.201,0.854,0.127,1.159-0.184c7.985-8.143,13.008-18.842,14.14-30.129c0.028-0.277-0.063-0.553-0.251-0.76
	S121.272,66.732,120.994,66.733z M98.486,100.545c-7.071,0-12.804,5.697-12.804,12.728c0,7.029,5.732,12.728,12.804,12.728
	c7.07,0,12.803-5.698,12.803-12.728C111.289,106.242,105.557,100.545,98.486,100.545z"/>
<path style="opacity:0.2;fill-rule:evenodd;clip-rule:evenodd;fill:#141414;" d="M51.868,85.936
	c-6.409-5.639-10.084-13.715-10.084-22.156c0-8.504,3.714-16.616,10.19-22.257c0.365-0.319,0.445-0.856,0.186-1.267L42.036,24.192
	c-0.148-0.234-0.388-0.396-0.661-0.444s-0.556,0.021-0.773,0.189c-8.268,6.368-14.483,15.328-17.502,25.23
	c-0.118,0.387,0.012,0.807,0.331,1.059c4.155,3.291,6.635,8.357,6.635,13.553s-2.481,10.264-6.637,13.555
	c-0.317,0.251-0.449,0.67-0.331,1.058c2.995,9.819,9.14,18.728,17.306,25.082c0.219,0.171,0.499,0.241,0.773,0.193
	c0.273-0.047,0.514-0.208,0.663-0.441l10.209-16.022C52.309,86.794,52.232,86.256,51.868,85.936z M12.803,51.223
	C5.732,51.223,0,56.951,0,64.016C0,71.081,5.732,76.81,12.803,76.81s12.803-5.729,12.803-12.794
	C25.606,56.951,19.874,51.223,12.803,51.223z M58.779,36.162c0.257,0.408,0.772,0.57,1.217,0.383
	c3.754-1.587,7.654-2.392,11.59-2.392c14.478,0,27.107,10.734,29.377,24.969c0.076,0.478,0.488,0.829,0.971,0.829l19.08,0.029
	c0.278,0,0.543-0.117,0.73-0.323s0.277-0.479,0.251-0.757c-1.028-10.562-5.524-20.75-12.659-28.685
	c-0.322-0.36-0.859-0.432-1.266-0.169c-2.877,1.858-6.145,2.842-9.447,2.842c-9.633,0-17.469-7.79-17.47-17.364
	c0.001-0.005,0.019-0.366,0.019-0.382c0-0.477-0.343-0.888-0.816-0.97c-3.012-0.522-5.962-0.888-8.77-0.888
	c-7.711,0-15.502,1.937-22.532,5.411c-0.25,0.124-0.436,0.348-0.511,0.616c-0.076,0.268-0.034,0.555,0.114,0.791L58.779,36.162z
	 M98,28.5c6.908,0,12.51-5.598,12.51-12.5c0-6.904-5.602-12.5-12.51-12.5S85.49,9.096,85.49,16C85.49,22.902,91.092,28.5,98,28.5z
	 M120.994,67.733l-19.078,0.062c-0.481,0.001-0.892,0.352-0.969,0.826C98.646,82.75,86.024,93.405,71.586,93.405
	c-3.982,0-7.926-0.824-11.722-2.45c-0.444-0.189-0.958-0.03-1.219,0.375l-10.203,16.015c-0.149,0.235-0.192,0.522-0.118,0.791
	c0.074,0.268,0.259,0.493,0.508,0.617c7.085,3.547,14.954,5.421,22.754,5.421c2.893,0,5.906-0.273,8.955-0.814
	c0.428-0.075,0.756-0.424,0.807-0.855c1.016-8.775,8.443-15.393,17.275-15.393c2.738,0,5.524,0.698,8.056,2.018
	c0.385,0.201,0.854,0.127,1.159-0.184c7.985-8.143,13.008-18.842,14.14-30.129c0.028-0.277-0.063-0.553-0.251-0.76
	S121.272,67.732,120.994,67.733z M98.486,101.545c-7.071,0-12.804,5.697-12.804,12.728c0,7.029,5.732,12.728,12.804,12.728
	c7.07,0,12.803-5.698,12.803-12.728C111.289,107.242,105.557,101.545,98.486,101.545z"/>
<path style="opacity:0.2;fill-rule:evenodd;clip-rule:evenodd;fill:#141414;" d="M51.868,86.936
	c-6.409-5.639-10.084-13.715-10.084-22.156c0-8.504,3.714-16.616,10.19-22.257c0.365-0.319,0.445-0.856,0.186-1.267L42.036,25.192
	c-0.148-0.234-0.388-0.396-0.661-0.444s-0.556,0.021-0.773,0.189c-8.268,6.368-14.483,15.328-17.502,25.23
	c-0.118,0.387,0.012,0.807,0.331,1.059c4.155,3.291,6.635,8.357,6.635,13.553s-2.481,10.264-6.637,13.555
	c-0.317,0.251-0.449,0.67-0.331,1.058c2.995,9.819,9.14,18.728,17.306,25.082c0.219,0.171,0.499,0.241,0.773,0.193
	c0.273-0.047,0.514-0.208,0.663-0.441l10.209-16.022C52.309,87.794,52.232,87.256,51.868,86.936z M12.803,52.223
	C5.732,52.223,0,57.951,0,65.016C0,72.081,5.732,77.81,12.803,77.81s12.803-5.729,12.803-12.794
	C25.606,57.951,19.874,52.223,12.803,52.223z M58.779,37.162c0.257,0.408,0.772,0.57,1.217,0.383
	c3.754-1.587,7.654-2.392,11.59-2.392c14.478,0,27.107,10.734,29.377,24.969c0.076,0.478,0.488,0.829,0.971,0.829l19.08,0.029
	c0.278,0,0.543-0.117,0.73-0.323s0.277-0.479,0.251-0.757c-1.028-10.562-5.524-20.75-12.659-28.685
	c-0.322-0.36-0.859-0.432-1.266-0.169c-2.877,1.858-6.145,2.842-9.447,2.842c-9.633,0-17.469-7.79-17.47-17.364
	c0.001-0.005,0.019-0.366,0.019-0.382c0-0.477-0.343-0.888-0.816-0.97c-3.012-0.522-5.962-0.888-8.77-0.888
	c-7.711,0-15.502,1.937-22.532,5.411c-0.25,0.124-0.436,0.348-0.511,0.616c-0.076,0.268-0.034,0.555,0.114,0.791L58.779,37.162z
	 M98,29.5c6.908,0,12.51-5.598,12.51-12.5c0-6.904-5.602-12.5-12.51-12.5S85.49,10.096,85.49,17C85.49,23.902,91.092,29.5,98,29.5z
	 M120.994,68.733l-19.078,0.062c-0.481,0.001-0.892,0.352-0.969,0.826C98.646,83.75,86.024,94.405,71.586,94.405
	c-3.982,0-7.926-0.824-11.722-2.45c-0.444-0.189-0.958-0.03-1.219,0.375l-10.203,16.015c-0.149,0.235-0.192,0.522-0.118,0.791
	c0.074,0.268,0.259,0.493,0.508,0.617c7.085,3.547,14.954,5.421,22.754,5.421c2.893,0,5.906-0.273,8.955-0.814
	c0.428-0.075,0.756-0.424,0.807-0.855c1.016-8.775,8.443-15.393,17.275-15.393c2.738,0,5.524,0.698,8.056,2.018
	c0.385,0.201,0.854,0.127,1.159-0.184c7.985-8.143,13.008-18.842,14.14-30.129c0.028-0.277-0.063-0.553-0.251-0.76
	S121.272,68.732,120.994,68.733z M98.486,102.545c-7.071,0-12.804,5.697-12.804,12.728c0,7.029,5.732,12.728,12.804,12.728
	c7.07,0,12.803-5.698,12.803-12.728C111.289,108.242,105.557,102.545,98.486,102.545z"/>
<path style="fill:#F97A00;" d="M40.602,21.938c-8.268,6.368-14.483,15.328-17.502,25.23c-0.118,0.387,0.012,0.807,0.331,1.059
	c4.155,3.291,6.635,8.357,6.635,13.553s-2.481,10.264-6.637,13.555c-0.317,0.251-0.449,0.67-0.331,1.058
	c2.995,9.819,9.14,18.728,17.306,25.082c0.219,0.171,0.499,0.241,0.773,0.193c0.273-0.047,0.514-0.208,0.663-0.441l10.209-16.022
	c0.261-0.409,0.185-0.947-0.18-1.268c-6.409-5.639-10.084-13.715-10.084-22.156c0-8.504,3.714-16.616,10.19-22.257
	c0.365-0.319,0.445-0.856,0.186-1.267L42.036,22.192c-0.148-0.234-0.388-0.396-0.661-0.444S40.819,21.769,40.602,21.938z"/>
<path style="fill:#FB8B00;" d="M24.042,47.455c4.389,3.477,7.009,8.764,7.009,14.324S28.43,72.628,24.04,76.104
	c2.951,9.681,8.941,18.346,16.968,24.593c1.02-1.6,9.441-14.818,10.209-16.023c-6.615-5.82-10.418-14.1-10.418-22.895
	c0-8.859,3.843-17.176,10.528-22.999c-0.762-1.208-9.112-14.458-10.124-16.063C33.076,28.978,27.018,37.694,24.042,47.455z"/>
<ellipse style="fill-rule:evenodd;clip-rule:evenodd;fill:#F83011;" cx="12.803" cy="62.016" rx="12.803" ry="12.794"/>
<path style="fill-rule:evenodd;clip-rule:evenodd;fill:#F83011;" d="M0.984,62.016c0,6.512,5.302,11.811,11.818,11.811
	s11.818-5.299,11.818-11.811s-5.302-11.81-11.818-11.81S0.984,55.504,0.984,62.016z"/>
<path style="fill:#F13B00;" d="M49.054,16.696c-0.25,0.124-0.436,0.348-0.511,0.616c-0.076,0.268-0.034,0.555,0.114,0.791
	l10.122,16.059c0.257,0.408,0.772,0.57,1.217,0.383c3.754-1.587,7.654-2.392,11.59-2.392c14.478,0,27.107,10.734,29.377,24.969
	c0.076,0.478,0.488,0.829,0.971,0.829l19.08,0.029c0.278,0,0.543-0.117,0.73-0.323s0.277-0.479,0.251-0.757
	c-1.028-10.562-5.524-20.75-12.659-28.685c-0.322-0.36-0.859-0.432-1.266-0.169c-2.877,1.858-6.145,2.842-9.447,2.842
	c-9.633,0-17.469-7.79-17.47-17.364c0.001-0.005,0.019-0.366,0.019-0.382c0-0.477-0.343-0.888-0.816-0.97
	c-3.012-0.522-5.962-0.888-8.77-0.888C63.875,11.285,56.084,13.222,49.054,16.696z"/>
<path style="fill:#F13B00;" d="M49.491,17.578c1.036,1.645,9.365,14.859,10.122,16.061c3.826-1.617,7.845-2.469,11.974-2.469
	c15.117,0,27.996,11.035,30.35,25.798c1.436,0.002,17.172,0.025,19.08,0.028c-1.013-10.391-5.381-20.303-12.411-28.123
	c-2.997,1.937-6.415,2.999-9.981,2.999c-10.176,0-18.455-8.231-18.455-18.349c0,0,0.01-0.21,0.019-0.381
	c-2.833-0.492-5.718-0.874-8.601-0.874C63.928,12.269,56.327,14.199,49.491,17.578z"/>
<ellipse style="fill-rule:evenodd;clip-rule:evenodd;fill:#E00916;" cx="98" cy="14" rx="12.51" ry="12.5"/>
<path style="fill-rule:evenodd;clip-rule:evenodd;fill:#E56363;" d="M86.992,14c0,6.065,4.938,11,11.008,11s11.008-4.935,11.008-11
	S104.07,3,98,3S86.992,7.935,86.992,14z"/>
<path style="fill:#D40000;" d="M120.994,65.733l-19.078,0.062c-0.481,0.001-0.892,0.352-0.969,0.826
	C98.646,80.75,86.024,91.405,71.586,91.405c-3.982,0-7.926-0.824-11.722-2.45c-0.444-0.189-0.958-0.03-1.219,0.375l-10.203,16.015
	c-0.149,0.235-0.192,0.522-0.118,0.791c0.074,0.268,0.259,0.493,0.508,0.617c7.085,3.547,14.954,5.421,22.754,5.421
	c2.893,0,5.906-0.273,8.955-0.814c0.428-0.075,0.756-0.424,0.807-0.855c1.016-8.775,8.443-15.393,17.275-15.393
	c2.738,0,5.524,0.698,8.056,2.018c0.385,0.201,0.854,0.127,1.159-0.184c7.985-8.143,13.008-18.842,14.14-30.129
	c0.028-0.277-0.063-0.553-0.251-0.76S121.272,65.732,120.994,65.733z"/>
<ellipse style="fill-rule:evenodd;clip-rule:evenodd;fill:#FF7516;" cx="98.486" cy="112.272" rx="12.803" ry="12.728"/>
<path style="fill-rule:evenodd;clip-rule:evenodd;fill:#FB9200;" d="M86.844,112.272c0,6.379,5.223,11.569,11.643,11.569
	s11.643-5.19,11.643-11.569s-5.223-11.569-11.643-11.569S86.844,105.894,86.844,112.272z"/>
<linearGradient id="XMLID_3_" gradientUnits="userSpaceOnUse" x1="75.5039" y1="11.96" x2="85.5969" y2="36.3307">
	<stop  offset="0" style="stop-color:#F99D77"/>
	<stop  offset="1" style="stop-color:#F7804E"/>
</linearGradient>
<path style="fill-rule:evenodd;clip-rule:evenodd;fill:url(#XMLID_3_);" d="M49.785,17.67c0.223,0.354,9.742,15.457,9.91,15.725
	c3.853-1.604,7.852-2.426,11.891-2.426c6.679,0,13.049,2.117,18.434,6.111c0.135-0.01,13.647-0.981,13.647-0.981
	s8.987-0.652,9.627-0.699c-1.429-2.233-2.902-4.136-4.624-6.063c-3.031,1.919-6.573,2.836-10.047,2.836
	c-10.286,0-18.654-8.421-18.654-18.648c0-0.006,0.004-0.107,0.01-0.207c-2.885-0.491-5.709-0.848-8.393-0.848
	C64.13,12.469,56.6,14.34,49.785,17.67z"/>
<linearGradient id="XMLID_4_" gradientUnits="userSpaceOnUse" x1="37.6743" y1="25.6035" x2="37.6743" y2="47.5006">
	<stop  offset="0" style="stop-color:#FCB462"/>
	<stop  offset="1" style="stop-color:#FCAF55"/>
</linearGradient>
<path style="fill-rule:evenodd;clip-rule:evenodd;fill:url(#XMLID_4_);" d="M24.274,47.396c2.325,1.872,4.177,4.286,5.384,7.002
	c4.482-2.91,8.801-4.448,14.231-6.626c1.709-3.011,4.592-6.732,7.185-9.017c-0.159-0.252-9.684-15.365-9.919-15.738
	C33.202,29.201,27.214,37.844,24.274,47.396z"/>
<path style="fill-rule:evenodd;clip-rule:evenodd;fill:#F88657;" d="M23.732,58.691c-1.419-4.695-5.784-8.125-10.938-8.125
	c-6.301,0-11.427,5.123-11.427,11.419c0,4.03,2.102,7.58,5.266,9.612C11.926,67.035,17.919,62.755,23.732,58.691z"/>
</svg>
