<?xml version="1.0" encoding="UTF-8" standalone="no"?>
<!DOCTYPE svg PUBLIC "-//W3C//DTD SVG 20010904//EN"
"http://www.w3.org/TR/2001/REC-SVG-20010904/DTD/svg10.dtd">
<!-- Created with Sodipodi ("http://www.sodipodi.com/") -->
<svg
   id="svg604"
   sodipodi:version="0.32"
   width="72pt"
   height="72pt"
   sodipodi:docbase="/home/zeus/.icons/gartoon/scalable/mimetypes"
   sodipodi:docname="gnome-mime-application-rhythmbox-playlist.svg"
   xmlns="http://www.w3.org/2000/svg"
   xmlns:sodipodi="http://sodipodi.sourceforge.net/DTD/sodipodi-0.dtd"
   xmlns:xlink="http://www.w3.org/1999/xlink"
   xmlns:inkscape="http://www.inkscape.org/namespaces/inkscape"
   inkscape:version="0.40"
   xmlns:rdf="http://www.w3.org/1999/02/22-rdf-syntax-ns#"
   xmlns:cc="http://web.resource.org/cc/"
   xmlns:dc="http://purl.org/dc/elements/1.1/">
  <metadata
     id="metadata27">
    <rdf:RDF
       id="RDF28">
      <cc:Work
         rdf:about=""
         id="Work29">
        <dc:format
           id="format30">image/svg+xml</dc:format>
        <dc:type
           id="type32"
           rdf:resource="http://purl.org/dc/dcmitype/StillImage" />
      </cc:Work>
    </rdf:RDF>
  </metadata>
  <defs
     id="defs606">
    <linearGradient
       id="linearGradient705">
      <stop
         style="stop-color:#7fa8e3;stop-opacity:0.741176;"
         offset="0.000000"
         id="stop706" />
      <stop
         style="stop-color:#ffffff;stop-opacity:0;"
         offset="1.000000"
         id="stop707" />
    </linearGradient>
    <linearGradient
       id="linearGradient612">
      <stop
         style="stop-color:#ffffff;stop-opacity:1;"
         offset="0.000000"
         id="stop613" />
      <stop
         style="stop-color:#ffffff;stop-opacity:0;"
         offset="1.000000"
         id="stop614" />
    </linearGradient>
    <linearGradient
       xlink:href="#linearGradient705"
       id="linearGradient615"
       x1="50.6438866"
       y1="5.36792946"
       x2="35.7520943"
       y2="68.0443573"
       gradientUnits="userSpaceOnUse"
       spreadMethod="pad" />
    <radialGradient
       xlink:href="#linearGradient612"
       id="radialGradient704"
       cx="8.17300129"
       cy="62.0631676"
       fx="8.17300129"
       fy="62.0631676"
       r="4.03522396"
       gradientUnits="userSpaceOnUse"
       spreadMethod="pad"
       gradientTransform="matrix(1.111950,0.000000,0.000000,0.899321,3.428790e-7,-1.512959e-6)" />
    <radialGradient
       xlink:href="#linearGradient612"
       id="radialGradient708"
       cx="0.05366803"
       cy="0.10153580"
       fx="0.05366803"
       fy="0.10153580"
       r="0.75628221"
       gradientUnits="objectBoundingBox"
       spreadMethod="pad" />
    <radialGradient
       inkscape:collect="always"
       xlink:href="#linearGradient612"
       id="radialGradient1093"
       gradientUnits="userSpaceOnUse"
       gradientTransform="matrix(1.111950,0.000000,0.000000,0.899321,3.428790e-7,-1.512959e-6)"
       spreadMethod="pad"
       cx="8.17300129"
       cy="62.0631676"
       fx="8.17300129"
       fy="62.0631676"
       r="4.03522396" />
    <radialGradient
       inkscape:collect="always"
       xlink:href="#linearGradient612"
       id="radialGradient1094"
       gradientUnits="userSpaceOnUse"
       spreadMethod="pad"
       cx="28.227884"
       cy="54.918088"
       fx="28.227884"
       fy="54.918088"
       r="5.2088413"
       gradientTransform="scale(1.074784,0.930420)" />
  </defs>
  <sodipodi:namedview
     id="base"
     inkscape:zoom="5.0416667"
     inkscape:cx="36.000000"
     inkscape:cy="36.000000"
     inkscape:window-width="640"
     inkscape:window-height="536"
     inkscape:window-x="5"
     inkscape:window-y="48"
     inkscape:current-layer="svg604" />
  <path
     style="fill:#000000;fill-rule:evenodd;stroke:none;stroke-opacity:1;stroke-width:1pt;stroke-linejoin:miter;stroke-linecap:butt;fill-opacity:0.301471;"
     d="M 12.8163 74.753 C 10.3856 73.6481 7.07107 70.1126 8.83884 65.2512 C 9.72267 59.948 25.6326 13.1021 29.1682 10.8924 C 31.3778 8.90368 34.582 8.13026 39.1119 9.34561 C 42.8684 10.2295 76.6769 19.0684 78.6656 20.8361 C 80.6544 22.6039 82.2012 24.0402 80.6544 27.9072 C 79.5496 29.8959 66.4017 74.532 66.1808 77.4047 C 65.2969 80.4983 62.7558 84.2548 58.5573 84.0338 C 54.3589 83.8128 15.9099 75.4159 12.8163 74.753 z "
     id="path794"
     sodipodi:nodetypes="ccccccccc"
     transform="matrix(1.114903,0.000000,0.000000,1.114903,-5.305332,-3.889256)" />
  <path
     style="fill:#143c69;fill-rule:evenodd;stroke:none;stroke-opacity:1;stroke-width:1pt;stroke-linejoin:miter;stroke-linecap:butt;fill-opacity:1;"
     d="M 12.8163 74.753 C 10.3856 73.6481 7.07107 70.1126 8.83884 65.2512 C 9.72267 59.948 25.6326 13.1021 29.1682 10.8924 C 31.3778 8.90368 34.582 8.13026 39.1119 9.34561 C 42.8684 10.2295 76.6769 19.0684 78.6656 20.8361 C 80.6544 22.6039 82.2012 24.0402 80.6544 27.9072 C 79.5496 29.8959 66.4017 74.532 66.1808 77.4047 C 65.2969 80.4983 62.7558 84.2548 58.5573 84.0338 C 54.3589 83.8128 15.9099 75.4159 12.8163 74.753 z "
     id="path609"
     sodipodi:nodetypes="ccccccccc"
     transform="matrix(1.114903,0.000000,0.000000,1.114903,-8.162471,-8.460684)" />
  <path
     style="fill:#ffffff;fill-rule:evenodd;stroke:none;stroke-opacity:1;stroke-width:1pt;stroke-linejoin:miter;stroke-linecap:butt;fill-opacity:1;"
     d="M 17.8987 70.9965 C 15.3576 70.3336 11.7114 69.6706 13.0373 65.6932 C 15.468 55.9705 27.8424 18.6264 33.1456 13.986 C 34.361 12.8811 38.4489 12.4392 46.1829 14.8699 C 55.0218 17.5215 72.9204 23.4877 74.6882 24.3716 C 76.4559 25.2555 77.1189 25.2555 75.793 29.233 C 73.8043 33.2105 64.9655 67.24 62.7557 72.9852 C 61.209 77.0732 60.8775 78.9514 58.2258 78.9514 "
     id="path608"
     sodipodi:nodetypes="cccccccs"
     transform="matrix(1.114903,0.000000,0.000000,1.114903,-8.162471,-8.460684)" />
  <path
     style="fill:url(#linearGradient615);fill-rule:evenodd;stroke:none;stroke-opacity:1;stroke-width:1pt;stroke-linejoin:miter;stroke-linecap:butt;fill-opacity:1;"
     d="M 28.75 13.75 C 28.75 13.75 31.875 7.49995 39.6875 9.37495 C 47.5 11.25 78.125 19.375 77.8125 21.875 C 77.5 24.375 71.875 39.0625 71.5625 40.3125 C 71.25 41.5625 42.5 40.9375 31.5625 47.5 C 20.625 54.0625 12.5 59.6875 12.5 59.6875 C 12.5 59.6875 23.75 24.6875 28.75 13.75 z "
     id="path636"
     transform="matrix(0.946780,0.000000,0.000000,0.946780,-0.480566,0.409517)" />
  <g
     id="g1083"
     transform="translate(-4.462810,16.85950)">
    <path
       style="font-size:12.000000;fill:#0d0000;fill-opacity:0.30147097;fill-rule:evenodd;stroke-width:1.0000000pt"
       d="M 7.7339800,34.204900 L 12.042900,51.330100 C 5.0823200,51.219600 4.1984400,55.970500 4.6403900,59.174600 C 6.7396100,68.234300 17.456700,65.693300 24.527700,62.710200 C 23.643800,59.506000 20.329300,44.369600 19.887400,41.717800 C 23.754300,40.723500 31.819800,38.403300 31.819800,38.403300 C 31.819800,38.403300 34.692400,45.584900 35.134300,47.021200 C 26.074500,46.689700 25.411700,52.324400 26.185100,54.865600 C 27.621400,61.936700 34.029500,61.826200 37.565100,60.831800 C 40.879600,60.279500 45.520000,58.290700 48.061200,57.185900 C 47.066800,53.318900 38.338400,29.233000 37.233600,26.139400 C 32.924600,27.686200 7.6234900,34.425800 7.7339800,34.204900 z "
       id="path635"
       sodipodi:nodetypes="cccccccccccc"
       transform="matrix(1.035546,0.000000,0.000000,1.035546,15.56160,-11.72637)" />
    <path
       style="font-size:12.000000;fill:#0d3c07;fill-rule:evenodd;stroke-width:1.0000000pt"
       d="M 7.7339800,34.204900 L 12.042900,51.330100 C 5.0823200,51.219600 4.1984400,55.970500 4.6403900,59.174600 C 6.7396100,68.234300 17.456700,65.693300 24.527700,62.710200 C 23.643800,59.506000 20.329300,44.369600 19.887400,41.717800 C 23.754300,40.723500 31.819800,38.403300 31.819800,38.403300 C 31.819800,38.403300 34.692400,45.584900 35.134300,47.021200 C 26.074500,46.689700 25.411700,52.324400 26.185100,54.865600 C 27.621400,61.936700 34.029500,61.826200 37.565100,60.831800 C 40.879600,60.279500 45.520000,58.290700 48.061200,57.185900 C 47.066800,53.318900 38.338400,29.233000 37.233600,26.139400 C 32.924600,27.686200 7.6234900,34.425800 7.7339800,34.204900 z "
       id="path616"
       sodipodi:nodetypes="cccccccccccc"
       transform="translate(14.83929,-11.42410)" />
    <path
       style="font-size:12.000000;fill:#2aaf18;fill-rule:evenodd;stroke-width:1.0000000pt"
       d="M 15.799400,54.202700 L 11.159000,35.972600 L 35.797300,29.122500 L 44.746600,54.976100 C 44.746600,54.976100 33.366600,59.506000 31.709300,57.517300 C 28.947100,57.406700 26.737500,51.219700 33.477100,50.004300 C 37.123100,49.893800 38.559400,49.672800 39.553800,50.004200 L 33.366600,34.094400 L 15.247000,39.397700 L 20.329300,60.058400 C 20.329300,60.058400 13.700200,64.919800 7.9549500,60.168900 C 6.7396100,59.064100 6.6291200,56.080900 8.6178600,54.976100 C 10.275100,52.876900 15.688900,54.423700 15.799400,54.202700 z "
       id="path574"
       sodipodi:nodetypes="ccccccccccccc"
       transform="translate(14.83929,-11.42410)" />
    <path
       transform="matrix(1.488889,0.000000,0.000000,1.488889,8.836250,-40.12308)"
       style="font-size:12.000000;fill:url(#radialGradient1093);fill-rule:evenodd;stroke-width:1.0000000pt"
       d="M 14.473600,57.572500 C 12.618400,56.792800 11.999400,58.203200 11.601000,60.058400 C 10.015300,60.058400 8.8767600,59.241600 8.8767600,57.869300 C 8.8767600,56.497100 9.9410900,55.531800 11.526800,55.531800 C 13.112500,55.531800 14.473600,56.200300 14.473600,57.572500 z "
       id="path623"
       sodipodi:nodetypes="ccccc" />
    <path
       style="font-size:12.000000;fill:url(#radialGradient1094);fill-rule:evenodd;stroke-width:1.0000000pt"
       d="M 37.344100,53.650300 C 33.366600,51.883400 34.470600,54.423700 33.642800,56.854400 C 31.599700,56.854400 29.941600,55.418900 29.941600,53.650300 C 29.941600,51.881600 31.599700,50.446200 33.642800,50.446200 C 35.685900,50.446200 37.344100,51.881600 37.344100,53.650300 z "
       id="path625"
       sodipodi:nodetypes="ccccc"
       transform="translate(14.83929,-11.42410)" />
    <path
       style="font-size:12.000000;fill:#34674b;fill-rule:evenodd;stroke-width:1.0000000pt"
       d="M 15.357500,39.508200 L 33.366600,34.204900 L 33.808500,32.547600 L 15.799400,37.740400 L 15.357500,39.508200 z "
       id="path630"
       sodipodi:nodetypes="ccccc"
       transform="translate(14.83929,-11.42410)" />
    <path
       style="font-size:12.000000;fill:#cbff87;fill-rule:evenodd;stroke-width:1.0000000pt"
       d="M 11.159000,35.972600 L 13.368700,36.525100 L 36.128700,30.227400 L 35.686800,29.122500 L 11.159000,35.972600 z "
       id="path631"
       transform="translate(14.83929,-11.42410)" />
    <path
       style="font-size:12.000000;fill:#cbff87;fill-rule:evenodd;stroke-width:1.0000000pt"
       d="M 33.698100,32.879000 L 39.664300,49.893800 L 33.256100,34.204900 L 33.698100,32.879000 z "
       id="path633"
       transform="translate(14.83929,-11.42410)" />
    <path
       style="font-size:12.000000;fill:#cbff87;fill-rule:evenodd;stroke-width:1.0000000pt"
       d="M 13.147800,36.193600 C 13.147800,36.193600 16.130900,54.313200 16.020400,54.313200 C 15.909900,54.313200 11.269500,36.083100 11.269500,36.083100 L 13.147800,36.193600 z "
       id="path634"
       transform="translate(14.83929,-11.42410)" />
  </g>
  <path
     style="font-size:14.000000;font-weight:bold;fill:#143c69;stroke-width:1.0000000;font-family:Kid Kosmic"
     d="M 27.351153,23.190212 C 27.248225,23.634167 26.944551,23.975439 26.440131,24.214029 C 25.944584,24.454686 25.457086,24.519426 24.977614,24.408263 C 24.800034,24.367092 24.641946,24.302376 24.503351,24.214103 C 24.100568,23.933595 23.951675,23.566923 24.056660,23.114094 C 24.128710,22.803327 24.309688,22.527166 24.599592,22.285620 C 25.151359,21.842807 25.746894,21.695515 26.386187,21.843731 C 26.572641,21.886959 26.743026,21.959208 26.897312,22.060470 C 27.311038,22.334163 27.462315,22.710740 27.351153,23.190212 z M 32.648866,14.383785 L 32.642882,14.228019 L 32.745373,14.209673 C 32.824644,14.190624 32.883068,14.180775 32.920633,14.180132 C 33.454524,13.854807 34.067744,13.772427 34.760314,13.932995 C 35.008930,13.990635 35.222668,14.077615 35.401547,14.193941 C 36.997323,14.292571 38.540018,14.519250 40.029644,14.873962 C 41.608063,15.249271 42.454358,15.735523 42.568518,16.332727 C 42.901609,17.963103 42.945665,19.306596 42.700698,20.363201 C 42.498959,21.233350 42.105097,21.923292 41.519101,22.433024 C 40.299242,23.497520 38.411954,23.869285 35.857245,23.548323 C 36.247421,24.125314 36.828569,24.685759 37.600675,25.229665 C 38.028033,25.525232 38.722742,25.938913 39.684780,26.470714 C 39.782204,26.736566 39.806207,26.976045 39.756802,27.189143 C 39.670343,27.562061 39.388608,27.828895 38.911590,27.989632 C 38.546660,28.110864 38.213249,28.136484 37.911357,28.066492 C 37.733777,28.025322 37.554517,27.951015 37.373588,27.843576 C 34.885489,26.508864 32.829811,24.862719 31.206549,22.905160 C 30.950254,23.687808 30.760605,24.425095 30.637614,25.117015 C 30.482827,25.502168 30.236925,25.796023 29.899921,25.998573 C 29.564963,26.192256 29.202155,26.243807 28.811478,26.153230 C 28.429675,26.064712 28.076431,25.772295 27.751756,25.275982 C 28.950645,21.315524 30.583026,17.684790 32.648866,14.383785 z M 32.229854,20.307436 C 32.808285,20.516396 33.576964,20.732036 34.535908,20.954362 C 36.937377,21.492413 38.636214,21.348287 39.632437,20.521987 C 39.841663,20.345943 39.980243,20.111412 40.048175,19.818403 C 40.138751,19.427726 40.101350,18.923172 39.935974,18.304732 C 39.432939,17.851283 38.817382,17.540159 38.089294,17.371357 C 37.299065,17.188147 36.005941,17.075469 34.209934,17.033327 C 33.466325,18.021113 32.806302,19.112484 32.229854,20.307436 z M 44.404554,26.694830 C 44.360676,26.843707 44.343177,26.919185 44.352061,26.921245 C 44.530281,26.999991 44.715012,27.070885 44.906234,27.133932 C 45.390336,27.386514 45.991998,27.596179 46.711202,27.762921 C 47.829957,28.022298 48.872083,28.067421 49.837576,27.898301 C 51.067504,27.678207 51.919287,27.131859 52.392925,26.259255 C 52.555827,25.960199 52.247041,25.617268 51.466571,25.230483 C 50.996111,24.999777 50.502030,24.810384 49.984342,24.662286 C 49.808820,24.612240 49.578993,24.554276 49.294860,24.488401 C 47.607837,24.097276 46.378869,24.050932 45.607945,24.349378 C 45.546318,24.494139 45.330724,24.879227 44.961176,25.504632 C 44.686075,25.964810 44.500529,26.361535 44.404554,26.694830 z M 47.028872,21.731559 C 48.403964,21.853888 49.361031,21.902686 49.900076,21.877951 C 51.004803,21.834680 51.920162,21.579082 52.646159,21.111171 C 52.648219,21.102287 52.593272,21.056801 52.481321,20.974706 C 52.078538,20.694198 51.326644,20.426309 50.225637,20.171047 C 49.364372,19.971368 48.624257,19.874631 48.005304,19.880829 C 47.738951,20.464668 47.413480,21.081579 47.028872,21.731559 z M 50.128052,17.383635 C 51.589755,17.657019 52.862426,18.059680 53.946068,18.591608 C 55.662700,19.419989 56.335681,20.371304 55.964992,21.445550 C 55.674458,22.295113 54.854781,22.844224 53.505959,23.092883 C 54.805920,23.862089 55.285050,24.983661 54.943329,26.457586 C 54.830109,26.945933 54.630089,27.465616 54.343277,28.016646 C 53.910693,28.833265 53.085154,29.427807 51.866692,29.800257 C 51.110179,30.036541 50.073985,30.207983 48.758097,30.314590 C 47.801094,30.204986 46.900834,30.052407 46.057318,29.856843 C 44.157197,29.416312 42.490301,28.716414 41.056631,27.757150 C 41.745404,26.279481 42.500068,24.840473 43.320608,23.440142 C 44.078871,22.146996 44.707047,20.809646 45.205120,19.428111 C 45.122874,19.016080 45.111601,18.681314 45.171298,18.423823 C 45.249525,18.086413 45.511188,17.744763 45.956274,17.398849 C 47.419886,17.139366 48.810482,17.134296 50.128052,17.383635 z M 56.938923,25.053662 C 57.103234,24.708145 57.518396,23.906189 58.184397,22.647793 C 58.899685,21.297904 59.289115,20.606935 59.352674,20.574892 C 59.389484,20.658270 59.410266,20.709877 59.415035,20.729686 L 59.608038,20.381469 L 59.677719,20.383592 C 60.211599,20.058264 60.820388,19.974856 61.504083,20.133366 C 61.743814,20.188947 61.953120,20.274900 62.131989,20.391224 C 63.745524,20.493970 65.297103,20.722710 66.786729,21.077422 C 68.356264,21.450670 69.202559,21.936922 69.325603,22.536186 C 69.649810,24.164502 69.687376,25.515843 69.438289,26.590216 C 69.131565,27.913194 68.402041,28.820041 67.249720,29.310744 C 65.581396,30.009287 63.224477,30.005522 60.178948,29.299436 C 59.504147,29.142987 58.798965,28.956101 58.063410,28.738789 C 57.759887,29.604044 57.531515,30.468019 57.378286,31.330702 C 57.216681,31.704922 56.967367,31.993305 56.630363,32.195855 C 56.304289,32.391598 55.950356,32.445206 55.568553,32.356687 C 55.186760,32.268171 54.829074,31.974724 54.495515,31.476352 C 55.209736,29.162516 56.024199,27.021618 56.938923,25.053662 z M 58.973622,26.507808 C 59.552044,26.716766 60.316290,26.931378 61.266350,27.151644 C 63.676694,27.691753 65.379982,27.548659 66.376196,26.722356 C 66.583364,26.555187 66.720922,26.325110 66.788856,26.032092 C 66.881490,25.632540 66.845109,25.123541 66.679733,24.505101 C 66.185582,24.053713 65.565583,23.741558 64.819746,23.568641 C 64.020623,23.383369 62.736383,23.272752 60.967019,23.236786 C 60.177601,24.260730 59.513135,25.351071 58.973622,26.507808 z "
     id="path671" />
</svg>
