<?xml version="1.0" encoding="UTF-8" standalone="no"?>
<!DOCTYPE svg PUBLIC "-//W3C//DTD SVG 20010904//EN"
"http://www.w3.org/TR/2001/REC-SVG-20010904/DTD/svg10.dtd">
<!-- Created with Sodipodi ("http://www.sodipodi.com/") -->
<svg
   xmlns="http://www.w3.org/2000/svg"
   xmlns:xlink="http://www.w3.org/1999/xlink"
   version="1.0"
   x="0"
   y="0"
   width="90.0000000"
   height="90.0000000"
   id="svg548"
   xmlns:sodipodi="http://sodipodi.sourceforge.net/DTD/sodipodi-0.dtd"
   sodipodi:version="0.34"
   sodipodi:docname="/home/zeus/.icons/gartoon/scalable/mimetypes/gnome-mime-application-pdf.svg"
   sodipodi:docbase="/home/zeus/.icons/gartoon/scalable/mimetypes/">
  <sodipodi:namedview
     id="base" />
  <defs
     id="defs550">
    <linearGradient
       id="linearGradient585">
      <stop
         style="stop-color:#5cb2ff;stop-opacity:1.0000;"
         offset="0"
         id="stop586" />
      <stop
         style="stop-color:#ffffff;stop-opacity:1.0000;"
         offset="1"
         id="stop587" />
    </linearGradient>
    <linearGradient
       id="linearGradient576">
      <stop
         style="stop-color:#ffffff;stop-opacity:1.0000;"
         offset="0"
         id="stop577" />
      <stop
         style="stop-color:#370000;stop-opacity:0;"
         offset="1"
         id="stop578" />
    </linearGradient>
    <linearGradient
       id="linearGradient569">
      <stop
         style="stop-color:#ff3a00;stop-opacity:1.0000;"
         offset="0"
         id="stop570" />
      <stop
         style="stop-color:#370000;stop-opacity:1.0000;"
         offset="1"
         id="stop571" />
    </linearGradient>
    <linearGradient
       id="linearGradient562">
      <stop
         style="stop-color:#000000;stop-opacity:1.0000;"
         offset="0"
         id="stop563" />
      <stop
         style="stop-color:#ffffff;stop-opacity:1.0000;"
         offset="1"
         id="stop564" />
    </linearGradient>
    <linearGradient
       x1="30.59172"
       y1="65.83048"
       x2="18.43610"
       y2="42.38868"
       id="linearGradient565"
       xlink:href="#linearGradient562"
       gradientUnits="userSpaceOnUse"
       gradientTransform="scale(1.323326,0.755672)"
       spreadMethod="pad" />
    <linearGradient
       x1="24.98748"
       y1="44.99675"
       x2="33.75964"
       y2="60.75286"
       id="linearGradient567"
       xlink:href="#linearGradient562"
       gradientUnits="userSpaceOnUse"
       gradientTransform="scale(1.587744,0.629824)"
       spreadMethod="pad" />
    <linearGradient
       x1="0.827341"
       y1="0.117275"
       x2="0.575539"
       y2="0.882814"
       id="linearGradient568"
       xlink:href="#linearGradient576"
       gradientUnits="objectBoundingBox"
       spreadMethod="pad" />
    <radialGradient
       cx="39.97719"
       cy="62.03484"
       r="2.879746"
       fx="39.97719"
       fy="62.03484"
       id="radialGradient573"
       xlink:href="#linearGradient569"
       gradientUnits="userSpaceOnUse"
       gradientTransform="scale(1.181249,0.846561)"
       spreadMethod="pad" />
    <radialGradient
       id="radialGradient575"
       xlink:href="#linearGradient576" />
    <linearGradient
       x1="0.489923"
       y1="-4.502178e-2"
       x2="0.539170"
       y2="1.259674"
       id="linearGradient580"
       xlink:href="#linearGradient562"
       gradientUnits="objectBoundingBox"
       spreadMethod="pad" />
    <linearGradient
       x1="38.96766"
       y1="112.4277"
       x2="34.33948"
       y2="55.26681"
       id="linearGradient584"
       xlink:href="#linearGradient585"
       gradientUnits="userSpaceOnUse"
       gradientTransform="scale(1.107407,0.903010)"
       spreadMethod="pad" />
    <linearGradient
       x1="18.57473"
       y1="70.60982"
       x2="21.00699"
       y2="44.95725"
       id="linearGradient588"
       xlink:href="#linearGradient585"
       gradientUnits="userSpaceOnUse"
       gradientTransform="scale(0.777781,1.285709)"
       spreadMethod="pad" />
  </defs>
  <g
     style="font-size:12.000;"
     id="g624">
    <defs
       id="defs606">
      <linearGradient
         id="linearGradient612">
        <stop
           style="stop-color:#7fa8e3;stop-opacity:0.7412;"
           offset="0"
           id="stop613" />
        <stop
           style="stop-color:#ffffff;stop-opacity:0;"
           offset="1"
           id="stop614" />
      </linearGradient>
      <linearGradient
         x1="50.64389"
         y1="5.367929"
         x2="35.75209"
         y2="68.04436"
         id="linearGradient615"
         xlink:href="#linearGradient612"
         gradientUnits="userSpaceOnUse"
         spreadMethod="pad" />
    </defs>
    <path
       d="M 12.81630 74.75300 C 10.38560 73.64810 7.071070 70.11260 8.838840 65.25120 C 9.722670 59.94800 25.63260 13.10210 29.16820 10.89240 C 31.37780 8.903680 34.58200 8.130260 39.11190 9.345610 C 42.86840 10.22950 76.67690 19.06840 78.66560 20.83610 C 80.65440 22.60390 82.20120 24.04020 80.65440 27.90720 C 79.54960 29.89590 66.40170 74.53200 66.18080 77.40470 C 65.29690 80.49830 62.75580 84.25480 58.55730 84.03380 C 54.35890 83.81280 15.90990 75.41590 12.81630 74.75300 z "
       transform="matrix(1.114903,0,0,1.114903,-5.305332,-3.889256)"
       style="fill-opacity:0.301471;fill-rule:evenodd;stroke-width:1;"
       id="path794" />
    <path
       d="M 12.81630 74.75300 C 10.38560 73.64810 7.071070 70.11260 8.838840 65.25120 C 9.722670 59.94800 25.63260 13.10210 29.16820 10.89240 C 31.37780 8.903680 34.58200 8.130260 39.11190 9.345610 C 42.86840 10.22950 76.67690 19.06840 78.66560 20.83610 C 80.65440 22.60390 82.20120 24.04020 80.65440 27.90720 C 79.54960 29.89590 66.40170 74.53200 66.18080 77.40470 C 65.29690 80.49830 62.75580 84.25480 58.55730 84.03380 C 54.35890 83.81280 15.90990 75.41590 12.81630 74.75300 z "
       transform="matrix(1.114903,0,0,1.114903,-8.162471,-8.460684)"
       style="fill:#3d4e67;fill-rule:evenodd;stroke-width:1;"
       id="path609" />
    <path
       d="M 17.89870 70.99650 C 15.35760 70.33360 11.71140 69.67060 13.03730 65.69320 C 15.46800 55.97050 27.84240 18.62640 33.14560 13.98600 C 34.36100 12.88110 38.44890 12.43920 46.18290 14.86990 C 55.02180 17.52150 72.92040 23.48770 74.68820 24.37160 C 76.45590 25.25550 77.11890 25.25550 75.79300 29.23300 C 73.80430 33.21050 64.96550 67.24000 62.75570 72.98520 C 61.20900 77.07320 60.87750 78.95140 58.22580 78.95140 "
       transform="matrix(1.114903,0,0,1.114903,-8.162471,-8.460684)"
       style="fill:#ffffff;fill-rule:evenodd;stroke-width:1;"
       id="path608" />
    <path
       d="M 28.75000 13.75000 C 28.75000 13.75000 31.87500 7.499950 39.68750 9.374950 C 47.50000 11.25000 78.12500 19.37500 77.81250 21.87500 C 77.50000 24.37500 71.87500 39.06250 71.56250 40.31250 C 71.25000 41.56250 42.50000 40.93750 31.56250 47.50000 C 20.62500 54.06250 12.50000 59.68750 12.50000 59.68750 C 12.50000 59.68750 23.75000 24.68750 28.75000 13.75000 z "
       transform="matrix(0.946780,0,0,0.946780,-0.480566,0.409517)"
       style="fill:url(#linearGradient615);fill-rule:evenodd;stroke-width:1;"
       id="path636" />
  </g>
  <g
     id="g683"
     transform="matrix(2.082761,0.529757,-0.491943,1.944909,4.543758,-12.39301)"
     style="font-size:12;stroke:#000000;">
    <path
       style="fill-rule:evenodd;clip-rule:evenodd;stroke:none;"
       d="M33.7,30.3c0,0.3,0.3,0.6,0.6,0.6c0.3,0,0.6-0.3,0.6-0.6c0-0.3-0.3-0.6-0.6-0.6c-0.3,0-0.6,0.3-0.6,0.6z M33.6,30.3c0-0.4,0.3-0.7,0.7-0.7c0.4,0,0.7,0.3,0.7,0.7c0,0.4-0.3,0.7-0.7,0.7c-0.4,0-0.7-0.3-0.7-0.7z"
       id="path684" />
    <g
       id="g685">
      <path
         style="stroke:none;"
         d="M34,30.7V30h0.3c0.1,0,0.1,0,0.1,0c0,0,0.1,0,0.1,0.1c0,0,0,0.1,0,0.1c0,0.1,0,0.1-0.1,0.1c0,0-0.1,0.1-0.2,0.1c0,0,0,0,0.1,0c0,0,0.1,0.1,0.1,0.1l0.1,0.2h-0.1l-0.1-0.2c0,0-0.1-0.1-0.1-0.1c0,0,0,0,0,0c0,0,0,0,0,0c0,0,0,0-0.1,0h-0.1      v0.3H34z M34.1,30.3h0.2c0,0,0.1,0,0.1,0c0,0,0,0,0.1,0c0,0,0,0,0-0.1c0,0,0-0.1,0-0.1c0,0-0.1,0-0.1,0h-0.2v0.2z"
         id="path686" />
    </g>
  </g>
  <path
     style="font-size:12;fill-opacity:1;fill-rule:evenodd;stroke:none;stroke-width:0.871904;fill:#7e0000;"
     d="M 16.22439 67.77469 C 19.83927 67.78708 21.24213 67.96239 26.09979 65.20709 C 27.68008 63.25075 32.58585 58.87486 34.83854 59.26644 C 37.77607 58.38096 49.34617 57.69573 49.5999 58.12309 C 49.85353 58.55044 57.40595 63.73671 58.85186 63.74174 C 60.29788 63.74671 67.15206 61.68057 64.61983 55.95705 C 62.75762 53.3065 57.65873 52.00958 55.66717 49.87038 C 53.6756 47.73118 49.11376 38.58887 49.97845 34.45503 C 50.84313 30.32128 55.85998 18.3546 50.16733 16.54381 C 44.47468 14.73304 42.00137 16.64375 40.83985 20.52068 C 39.67831 24.3976 40.41472 32.92954 39.43065 34.67471 C 38.44651 36.41987 29.97487 51.31734 27.67411 52.54629 C 25.37336 53.77515 11.32507 57.82089 10.59473 59.99343 C 9.8643 62.16594 8.87019 66.81111 16.22439 67.77469 z "
     id="path724"
     sodipodi:nodetypes="cccccccccccccc" />
  <g
     id="g690"
     transform="matrix(2.082761,0.529757,-0.491943,1.944909,4.543758,-12.68333)"
     style="font-size:12;stroke:#000000;">
    <path
       style="fill:none;stroke:none;"
       d="M22.6,10.7c-2.5,2.2,8.4,21.9,11,16.9c2.9-5.7-26.1,6.3-19.8,8c7.3,1.9,13.5-29,8.8-24.8z"
       id="path691" />
    <path
       style="fill:#F8310E;stroke:none;"
       d="M21.9,10.6c-3,3.9,7.1,21.9,11.8,17.7c2.6-2.3-1.1-3-2.9-2.7c-5,0.9-10.1,3-14.5,5.5c-0.9,0.5-6.4,3.5-3.7,5c3.1,1.7,6.1-2.8,7.2-4.8c2.9-5,4.4-11.3,4.9-17.1c0.2-1.8,0.1-6-2.7-3.9c-0.9,0.7-0.3,1.6,0.6,0.9c0.4-0.3,0.3,5,0.2,5.5     c-0.5,3.4-1.4,6.7-2.5,10c-1,2.7-2.4,6.8-5.1,8.2c-2.1,1.1-1.5-0.8-0.5-1.5c1.2-0.9,2.6-1.6,3.9-2.2c2.8-1.4,5.7-2.5,8.7-3.4c1.1-0.4,2.3-0.6,3.5-0.8c1.9-0.3,2,1.3,0.7,0.5c-2.6-1.5-4.4-5.1-5.8-7.6c-0.9-1.6-4.2-7-2.8-8.9c0.7-0.9-0.8-0.9-1.3-0.3z"
       id="path692" />
  </g>
  <path
     style="font-size:12;fill:#fffffa;fill-opacity:0.996078;fill-rule:evenodd;stroke:none;stroke-width:0.871904;"
     d="M 43.4826 43.68723 L 38.26509 52.15618 C 38.26509 52.15618 46.47397 51.88582 46.51709 51.71538 C 46.56021 51.54493 43.43949 43.85768 43.4826 43.68723 z "
     id="path725"
     sodipodi:nodetypes="cccc" />
</svg>
