<?xml version="1.0" encoding="UTF-8" standalone="no"?>
<!DOCTYPE svg PUBLIC "-//W3C//DTD SVG 20010904//EN"
"http://www.w3.org/TR/2001/REC-SVG-20010904/DTD/svg10.dtd">
<!-- Created with Sodipodi ("http://www.sodipodi.com/") -->
<svg
   id="svg604"
   sodipodi:version="0.32"
   width="72pt"
   height="72pt"
   sodipodi:docbase="/home/zeus/.icons/gartoon/scalable/mimetypes"
   sodipodi:docname="gnome-mime-application-x-java-byte-code.svg"
   inkscape:version="0.40"
   xmlns="http://www.w3.org/2000/svg"
   xmlns:cc="http://web.resource.org/cc/"
   xmlns:inkscape="http://www.inkscape.org/namespaces/inkscape"
   xmlns:sodipodi="http://sodipodi.sourceforge.net/DTD/sodipodi-0.dtd"
   xmlns:rdf="http://www.w3.org/1999/02/22-rdf-syntax-ns#"
   xmlns:dc="http://purl.org/dc/elements/1.1/"
   xmlns:xlink="http://www.w3.org/1999/xlink">
  <metadata
     id="metadata94">
    <rdf:RDF
       id="RDF95">
      <cc:Work
         rdf:about=""
         id="Work96">
        <dc:format
           id="format97">image/svg+xml</dc:format>
        <dc:type
           id="type99"
           rdf:resource="http://purl.org/dc/dcmitype/StillImage" />
      </cc:Work>
    </rdf:RDF>
  </metadata>
  <defs
     id="defs606">
    <linearGradient
       id="linearGradient863">
      <stop
         style="stop-color:#d70025;stop-opacity:0.741176;"
         offset="0.000000"
         id="stop864" />
      <stop
         style="stop-color:#ffffff;stop-opacity:0;"
         offset="1.000000"
         id="stop865" />
    </linearGradient>
    <linearGradient
       id="linearGradient612">
      <stop
         style="stop-color:#7fa8e3;stop-opacity:0.741176;"
         offset="0.000000"
         id="stop613" />
      <stop
         style="stop-color:#ffffff;stop-opacity:0;"
         offset="1.000000"
         id="stop614" />
    </linearGradient>
    <linearGradient
       xlink:href="#linearGradient612"
       id="linearGradient615"
       x1="50.6438866"
       y1="5.36792946"
       x2="35.7520943"
       y2="68.0443573"
       gradientUnits="userSpaceOnUse"
       spreadMethod="pad" />
    <defs
       id="defs561" />
    <sodipodi:namedview
       id="namedview611"
       showgrid="true"
       gridspacingx="1mm"
       gridspacingy="1mm"
       gridtolerance="1px"
       snaptogrid="true" />
    <linearGradient
       xlink:href="#linearGradient863"
       id="linearGradient862"
       x1="76.9552307"
       y1="34.6717224"
       x2="27.4362392"
       y2="67.2046585"
       gradientUnits="userSpaceOnUse"
       spreadMethod="pad"
       gradientTransform="scale(0.903424,1.106900)" />
    <linearGradient
       xlink:href="#linearGradient863"
       id="linearGradient866"
       x1="19.1633530"
       y1="61.2014313"
       x2="35.6168938"
       y2="33.2990570"
       gradientUnits="userSpaceOnUse"
       spreadMethod="pad"
       gradientTransform="scale(0.827637,1.208259)" />
    <linearGradient
       xlink:href="#linearGradient863"
       id="linearGradient980"
       x1="0.20752650"
       y1="0.80468732"
       x2="1.45282888"
       y2="0.26562491"
       gradientUnits="objectBoundingBox"
       spreadMethod="pad" />
    <linearGradient
       inkscape:collect="always"
       xlink:href="#linearGradient1828"
       id="linearGradient1196"
       gradientUnits="userSpaceOnUse"
       gradientTransform="matrix(0.999990,0.000000,0.000000,1.000010,-0.701263,-7.713892)"
       x1="32.051327"
       y1="14.657825"
       x2="32.051327"
       y2="75.934349" />
    <linearGradient
       inkscape:collect="always"
       xlink:href="#linearGradient1828"
       id="linearGradient1197"
       gradientUnits="userSpaceOnUse"
       gradientTransform="matrix(0.500064,0.000000,0.000000,0.500075,52.06230,47.59928)"
       x1="32.051327"
       y1="14.657825"
       x2="32.051327"
       y2="75.934349" />
    <metadata
       id="metadata18">
      <rdf:RDF
         id="RDF19">
        <cc:Work
           rdf:about=""
           id="Work20">
          <dc:format
             id="format21">image/svg+xml</dc:format>
          <dc:type
             id="type23"
             rdf:resource="http://purl.org/dc/dcmitype/StillImage" />
        </cc:Work>
      </rdf:RDF>
    </metadata>
    <sodipodi:namedview
       id="namedview1157"
       inkscape:zoom="2.5208333"
       inkscape:cx="34.288064"
       inkscape:cy="56.314502"
       inkscape:window-width="734"
       inkscape:window-height="537"
       inkscape:window-x="5"
       inkscape:window-y="46"
       inkscape:current-layer="svg548" />
    <defs
       id="defs550">
      <linearGradient
         id="linearGradient1828">
        <stop
           style="stop-color:#ffc93f;stop-opacity:1.0000000;"
           offset="0.0000000"
           id="stop1829" />
        <stop
           style="stop-color:#f1e36c;stop-opacity:1.0000000;"
           offset="1.0000000"
           id="stop1830" />
      </linearGradient>
      <linearGradient
         id="linearGradient1825">
        <stop
           offset="0.0000000"
           style="stop-color:#ffd800;stop-opacity:1.0000000;"
           id="stop1827" />
        <stop
           offset="1.0000000"
           style="stop-color:#ffd58f;stop-opacity:0.0000000;"
           id="stop1826" />
      </linearGradient>
      <linearGradient
         x1="0.0000000"
         y1="0.0000000"
         x2="1.0000000"
         y2="0.0000000"
         id="linearGradient632"
         gradientUnits="objectBoundingBox"
         spreadMethod="pad">
        <stop
           style="stop-color:#ffb700;stop-opacity:1;"
           offset="0.00000000"
           id="stop633" />
        <stop
           style="stop-color:#ffd58f;stop-opacity:0;"
           offset="1.00000000"
           id="stop634" />
      </linearGradient>
      <linearGradient
         x1="0.0000000"
         y1="0.0000000"
         x2="1.0000000"
         y2="0.0000000"
         id="linearGradient556"
         gradientUnits="objectBoundingBox"
         spreadMethod="pad">
        <stop
           style="stop-color:#000000;stop-opacity:1;"
           offset="0.00000000"
           id="stop557" />
        <stop
           style="stop-color:#bdf2ff;stop-opacity:0.384314;"
           offset="1.00000000"
           id="stop558" />
      </linearGradient>
      <linearGradient
         x1="60.644615"
         y1="19.295689"
         x2="35.370575"
         y2="69.142799"
         id="linearGradient559"
         xlink:href="#linearGradient632"
         gradientUnits="userSpaceOnUse"
         spreadMethod="pad"
         gradientTransform="matrix(1.418885,-0.200635,0.127692,1.110535,-136.7997,-1.332303)" />
      <linearGradient
         x1="85.637657"
         y1="17.443844"
         x2="73.916298"
         y2="54.628181"
         id="linearGradient631"
         xlink:href="#linearGradient632"
         gradientUnits="userSpaceOnUse"
         gradientTransform="matrix(1.050920,-0.148604,0.172402,1.499373,-123.6994,-3.008376)"
         spreadMethod="pad" />
      <defs
         id="defs3">
        <sodipodi:namedview
           id="namedview909" />
        <defs
           id="defs1721">
          <linearGradient
             x1="0.0000000"
             y1="0.0000000"
             x2="1.0000000"
             y2="0.0000000"
             id="linearGradient1722"
             gradientUnits="objectBoundingBox"
             spreadMethod="pad"
             xlink:href="#linearGradient1825" />
          <linearGradient
             x1="0.0000000"
             y1="0.0000000"
             x2="1.0000000"
             y2="0.0000000"
             id="linearGradient1725"
             gradientUnits="objectBoundingBox"
             spreadMethod="pad">
            <stop
               style="stop-color:#000000;stop-opacity:1;"
               offset="0.000000"
               id="stop1726" />
            <stop
               style="stop-color:#bdf2ff;stop-opacity:0.384314;"
               offset="1.000000"
               id="stop1727" />
          </linearGradient>
          <linearGradient
             id="linearGradient1728"
             xlink:href="#linearGradient632"
             x1="60.644615"
             y1="19.295689"
             x2="35.370575"
             y2="69.142799"
             gradientUnits="userSpaceOnUse"
             spreadMethod="pad" />
          <linearGradient
             xlink:href="#linearGradient632"
             id="linearGradient1729"
             x1="85.637657"
             y1="17.443844"
             x2="73.916298"
             y2="54.628181"
             gradientUnits="userSpaceOnUse"
             spreadMethod="pad"
             gradientTransform="scale(0.740666,1.350136)" />
        </defs>
      </defs>
      <sodipodi:namedview
         id="namedview1730"
         pagecolor="#ffffff"
         bordercolor="#666666"
         borderopacity="1.0"
         inkscape:pageopacity="0.0"
         inkscape:pageshadow="2"
         inkscape:zoom="2.4559706"
         inkscape:cx="113.94414"
         inkscape:cy="73.007956"
         inkscape:window-width="812"
         inkscape:window-height="560"
         inkscape:window-x="103"
         inkscape:window-y="56" />
      <metadata
         id="metadata4">
        <rdf:RDF
           id="RDF5">
          <cc:Work
             rdf:about=""
             id="Work6">
            <dc:format
               id="format7">image/svg+xml</dc:format>
            <dc:type
               id="type9"
               rdf:resource="http://purl.org/dc/dcmitype/StillImage" />
          </cc:Work>
        </rdf:RDF>
      </metadata>
      <linearGradient
         inkscape:collect="always"
         xlink:href="#linearGradient1828"
         id="linearGradient1831"
         gradientTransform="matrix(0.563776,0.000000,0.000000,0.563788,50.39821,45.07308)"
         x1="32.051327"
         y1="14.657825"
         x2="32.051327"
         y2="75.934349"
         gradientUnits="userSpaceOnUse" />
    </defs>
    <linearGradient
       inkscape:collect="always"
       xlink:href="#linearGradient1828"
       id="linearGradient1247"
       gradientUnits="userSpaceOnUse"
       gradientTransform="matrix(0.371303,0.000000,0.000000,0.371311,14.80397,23.51901)"
       x1="32.051327"
       y1="14.657825"
       x2="32.051327"
       y2="75.934349" />
    <linearGradient
       inkscape:collect="always"
       xlink:href="#linearGradient1828"
       id="linearGradient1250"
       gradientUnits="userSpaceOnUse"
       gradientTransform="matrix(0.371303,0.000000,0.000000,0.371311,22.90408,46.34660)"
       x1="32.051327"
       y1="14.657825"
       x2="32.051327"
       y2="75.934349" />
    <linearGradient
       inkscape:collect="always"
       xlink:href="#linearGradient1828"
       id="linearGradient1253"
       gradientUnits="userSpaceOnUse"
       gradientTransform="matrix(0.371303,0.000000,0.000000,0.371311,42.41799,31.98731)"
       x1="32.051327"
       y1="14.657825"
       x2="32.051327"
       y2="75.934349" />
  </defs>
  <sodipodi:namedview
     id="base"
     inkscape:zoom="5.0416666"
     inkscape:cx="40.233351"
     inkscape:cy="37.394271"
     inkscape:window-width="640"
     inkscape:window-height="537"
     inkscape:window-x="5"
     inkscape:window-y="444"
     inkscape:current-layer="svg604" />
  <path
     style="fill:#000000;fill-rule:evenodd;stroke:none;stroke-opacity:1;stroke-width:1pt;stroke-linejoin:miter;stroke-linecap:butt;fill-opacity:0.301471;"
     d="M 12.8163 74.753 C 10.3856 73.6481 7.07107 70.1126 8.83884 65.2512 C 9.72267 59.948 25.6326 13.1021 29.1682 10.8924 C 31.3778 8.90368 34.582 8.13026 39.1119 9.34561 C 42.8684 10.2295 76.6769 19.0684 78.6656 20.8361 C 80.6544 22.6039 82.2012 24.0402 80.6544 27.9072 C 79.5496 29.8959 66.4017 74.532 66.1808 77.4047 C 65.2969 80.4983 62.7558 84.2548 58.5573 84.0338 C 54.3589 83.8128 15.9099 75.4159 12.8163 74.753 z "
     id="path794"
     sodipodi:nodetypes="ccccccccc"
     transform="matrix(1.114903,0.000000,0.000000,1.114903,-5.305332,-3.889256)" />
  <path
     style="fill:#3d4e67;fill-rule:evenodd;stroke:none;stroke-opacity:1;stroke-width:1pt;stroke-linejoin:miter;stroke-linecap:butt;fill-opacity:1;"
     d="M 12.8163 74.753 C 10.3856 73.6481 7.07107 70.1126 8.83884 65.2512 C 9.72267 59.948 25.6326 13.1021 29.1682 10.8924 C 31.3778 8.90368 34.582 8.13026 39.1119 9.34561 C 42.8684 10.2295 76.6769 19.0684 78.6656 20.8361 C 80.6544 22.6039 82.2012 24.0402 80.6544 27.9072 C 79.5496 29.8959 66.4017 74.532 66.1808 77.4047 C 65.2969 80.4983 62.7558 84.2548 58.5573 84.0338 C 54.3589 83.8128 15.9099 75.4159 12.8163 74.753 z "
     id="path609"
     sodipodi:nodetypes="ccccccccc"
     transform="matrix(1.114903,0.000000,0.000000,1.114903,-8.162471,-8.460684)" />
  <path
     style="fill:#ffffff;fill-rule:evenodd;stroke:none;stroke-opacity:1;stroke-width:1pt;stroke-linejoin:miter;stroke-linecap:butt;fill-opacity:1;"
     d="M 17.8987 70.9965 C 15.3576 70.3336 11.7114 69.6706 13.0373 65.6932 C 15.468 55.9705 27.8424 18.6264 33.1456 13.986 C 34.361 12.8811 38.4489 12.4392 46.1829 14.8699 C 55.0218 17.5215 72.9204 23.4877 74.6882 24.3716 C 76.4559 25.2555 77.1189 25.2555 75.793 29.233 C 73.8043 33.2105 64.9655 67.24 62.7557 72.9852 C 61.209 77.0732 60.8775 78.9514 58.2258 78.9514 "
     id="path608"
     sodipodi:nodetypes="cccccccs"
     transform="matrix(1.114903,0.000000,0.000000,1.114903,-8.162471,-8.460684)" />
  <path
     style="fill:url(#linearGradient615);fill-rule:evenodd;stroke:none;stroke-opacity:1;stroke-width:1pt;stroke-linejoin:miter;stroke-linecap:butt;fill-opacity:1;"
     d="M 28.75 13.75 C 28.75 13.75 31.875 7.49995 39.6875 9.37495 C 47.5 11.25 78.125 19.375 77.8125 21.875 C 77.5 24.375 71.875 39.0625 71.5625 40.3125 C 71.25 41.5625 42.5 40.9375 31.5625 47.5 C 20.625 54.0625 12.5 59.6875 12.5 59.6875 C 12.5 59.6875 23.75 24.6875 28.75 13.75 z "
     id="path636"
     transform="matrix(0.946780,0.000000,0.000000,0.946780,-0.480566,0.409517)" />
  <path
     style="fill:#000000;fill-opacity:0.34444442;stroke:none;stroke-width:3.8674629;stroke-linecap:round;stroke-linejoin:round;stroke-miterlimit:4.0000000;stroke-opacity:1.0000000"
     d="M 39.991639,51.950213 C 38.919616,51.640795 37.811971,52.252255 37.502555,53.324277 L 37.042111,54.919553 C 36.591790,54.933644 36.149290,54.975480 35.712746,55.058980 L 34.915298,53.614423 C 34.376054,52.637596 33.149977,52.283715 32.173151,52.822959 L 31.115023,53.414332 C 30.138198,53.953577 29.786804,55.171030 30.326048,56.147856 L 31.117363,57.581303 C 30.809630,57.905417 30.529852,58.253365 30.273757,58.626935 L 28.712976,58.176448 C 27.640952,57.867031 26.522197,58.484624 26.212779,59.556648 L 25.876780,60.720767 C 25.567362,61.792790 26.187445,62.902923 27.259468,63.212340 L 28.785758,63.652872 C 28.797712,64.119601 28.843514,64.578237 28.929988,65.030331 L 27.540990,65.797109 C 26.564164,66.336352 26.212770,67.553806 26.752014,68.530632 L 27.343389,69.588759 C 27.882632,70.565587 29.100086,70.916980 30.076914,70.377735 L 31.443686,69.623226 C 31.784503,69.947142 32.146765,70.243553 32.542214,70.510123 L 32.111638,72.001920 C 31.802221,73.073943 32.413681,74.181587 33.485704,74.491004 L 34.649823,74.827003 C 35.721847,75.136421 36.829491,74.524960 37.138908,73.452937 L 37.571973,71.952518 C 38.044820,71.937162 38.505647,71.885291 38.963032,71.793530 L 39.717542,73.160304 C 40.256786,74.137131 41.474239,74.488523 42.451066,73.949279 L 43.515327,73.369017 C 44.492153,72.829772 44.846036,71.603696 44.306791,70.626871 L 43.546149,69.248985 C 43.860229,68.912502 44.143377,68.548811 44.402198,68.160236 L 45.928487,68.600768 C 47.000511,68.910186 48.108153,68.298726 48.417571,67.226702 L 48.753570,66.062583 C 49.062987,64.990561 48.454017,63.874293 47.381994,63.564877 L 45.821213,63.114388 C 45.803512,62.660361 45.744108,62.217149 45.655915,61.777556 L 47.089360,60.986241 C 48.066188,60.446998 48.417581,59.229543 47.878336,58.252717 L 47.298071,57.188456 C 46.758830,56.211630 45.541378,55.860236 44.564549,56.399481 L 43.108880,57.203063 C 42.785146,56.900577 42.441478,56.622020 42.069381,56.370570 L 42.529825,54.775296 C 42.839242,53.703273 42.227782,52.595629 41.155759,52.286212 L 39.991639,51.950213 z M 38.446372,59.472474 C 40.636086,60.104490 41.900129,62.394274 41.268113,64.583987 C 40.636098,66.773702 38.346315,68.037745 36.156601,67.405730 C 33.966887,66.773714 32.702843,64.483930 33.334859,62.294216 C 33.966875,60.104503 36.256657,58.840459 38.446372,59.472474 z "
     id="path1248" />
  <path
     style="fill:#000000;fill-opacity:0.34444442;stroke:none;stroke-width:3.8674629;stroke-linecap:round;stroke-linejoin:round;stroke-miterlimit:4.0000000;stroke-opacity:1.0000000"
     d="M 59.505554,37.590917 C 58.433532,37.281500 57.325886,37.892959 57.016470,38.964982 L 56.556026,40.560257 C 56.105706,40.574348 55.663205,40.616185 55.226661,40.699684 L 54.429214,39.255127 C 53.889969,38.278301 52.663892,37.924420 51.687066,38.463663 L 50.628938,39.055037 C 49.652113,39.594280 49.300719,40.811734 49.839963,41.788561 L 50.631278,43.222007 C 50.323544,43.546121 50.043767,43.894069 49.787672,44.267639 L 48.226891,43.817152 C 47.154867,43.507735 46.036112,44.125329 45.726694,45.197352 L 45.390694,46.361471 C 45.081277,47.433494 45.701360,48.543627 46.773384,48.853044 L 48.299673,49.293576 C 48.311628,49.760305 48.357429,50.218941 48.443902,50.671035 L 47.054905,51.437813 C 46.078079,51.977056 45.726686,53.194510 46.265929,54.171336 L 46.857303,55.229463 C 47.396547,56.206291 48.614001,56.557684 49.590828,56.018440 L 50.957601,55.263930 C 51.298418,55.587847 51.660681,55.884257 52.056129,56.150827 L 51.625553,57.642624 C 51.316136,58.714647 51.927596,59.822292 52.999619,60.131708 L 54.163738,60.467707 C 55.235762,60.777125 56.343406,60.165664 56.652823,59.093641 L 57.085888,57.593223 C 57.558735,57.577866 58.019561,57.525995 58.476948,57.434234 L 59.231456,58.801009 C 59.770701,59.777836 60.988153,60.129228 61.964980,59.589983 L 63.029242,59.009721 C 64.006068,58.470477 64.359951,57.244400 63.820706,56.267575 L 63.060064,54.889689 C 63.374144,54.553206 63.657292,54.189516 63.916113,53.800940 L 65.442402,54.241473 C 66.514426,54.550890 67.622068,53.939430 67.931486,52.867406 L 68.267485,51.703287 C 68.576902,50.631265 67.967932,49.514997 66.895910,49.205581 L 65.335128,48.755093 C 65.317428,48.301065 65.258022,47.857852 65.169830,47.418260 L 66.603275,46.626945 C 67.580103,46.087702 67.931496,44.870247 67.392251,43.893421 L 66.811987,42.829161 C 66.272745,41.852333 65.055293,41.500941 64.078464,42.040185 L 62.622796,42.843767 C 62.299061,42.541282 61.955393,42.262724 61.583296,42.011274 L 62.043739,40.416001 C 62.353157,39.343978 61.741697,38.236333 60.669674,37.926916 L 59.505554,37.590917 z M 57.960287,45.113179 C 60.150001,45.745194 61.414045,48.034978 60.782028,50.224691 C 60.150013,52.414406 57.860230,53.678449 55.670517,53.046434 C 53.480802,52.414418 52.216758,50.124635 52.848774,47.934920 C 53.480790,45.745207 55.770572,44.481163 57.960287,45.113179 z "
     id="path1251" />
  <path
     style="fill:#000000;fill-opacity:0.34444442;stroke:none;stroke-width:3.8674629;stroke-linecap:round;stroke-linejoin:round;stroke-miterlimit:4.0000000;stroke-opacity:1.0000000"
     d="M 31.891523,29.122614 C 30.819500,28.813197 29.711856,29.424657 29.402439,30.496679 L 28.941996,32.091953 C 28.491674,32.106044 28.049174,32.147881 27.612631,32.231381 L 26.815182,30.786824 C 26.275939,29.809998 25.049861,29.456117 24.073035,29.995360 L 23.014908,30.586734 C 22.038083,31.125977 21.686688,32.343432 22.225932,33.320258 L 23.017248,34.753704 C 22.709514,35.077819 22.429735,35.425766 22.173641,35.799336 L 20.612860,35.348849 C 19.540836,35.039431 18.422081,35.657026 18.112662,36.729048 L 17.776664,37.893168 C 17.467247,38.965191 18.087330,40.075324 19.159353,40.384741 L 20.685643,40.825273 C 20.697597,41.292003 20.743398,41.750638 20.829872,42.202732 L 19.440874,42.969509 C 18.464049,43.508753 18.112654,44.726208 18.651899,45.703033 L 19.243273,46.761160 C 19.782517,47.737988 20.999971,48.089380 21.976798,47.550137 L 23.343571,46.795627 C 23.684387,47.119544 24.046650,47.415954 24.442099,47.682524 L 24.011522,49.174320 C 23.702105,50.246344 24.313565,51.353989 25.385588,51.663405 L 26.549707,51.999404 C 27.621731,52.308822 28.729376,51.697362 29.038792,50.625339 L 29.471857,49.124919 C 29.944704,49.109562 30.405531,49.057692 30.862916,48.965932 L 31.617426,50.332706 C 32.156670,51.309532 33.374123,51.660925 34.350950,51.121681 L 35.415211,50.541417 C 36.392038,50.002174 36.745920,48.776098 36.206675,47.799272 L 35.446033,46.421387 C 35.760113,46.084904 36.043260,45.721213 36.302082,45.332637 L 37.828371,45.773169 C 38.900394,46.082587 40.008037,45.471127 40.317454,44.399103 L 40.653454,43.234984 C 40.962872,42.162962 40.353902,41.046694 39.281879,40.737277 L 37.721097,40.286790 C 37.703397,39.832761 37.643992,39.389549 37.555799,38.949958 L 38.989244,38.158642 C 39.966072,37.619399 40.317465,36.401945 39.778221,35.425118 L 39.197956,34.360858 C 38.658714,33.384031 37.441262,33.032638 36.464434,33.571881 L 35.008764,34.375465 C 34.685030,34.072978 34.341362,33.794421 33.969265,33.542971 L 34.429709,31.947698 C 34.739126,30.875674 34.127665,29.768030 33.055643,29.458613 L 31.891523,29.122614 z M 30.346256,36.644876 C 32.535971,37.276892 33.800014,39.566675 33.167998,41.756389 C 32.535982,43.946103 30.246199,45.210147 28.056485,44.578131 C 25.866772,43.946115 24.602727,41.656332 25.234744,39.466618 C 25.866759,37.276904 28.156542,36.012860 30.346256,36.644876 z "
     id="path1863" />
  <path
     style="fill:url(#linearGradient1250);fill-opacity:1.0000000;stroke:#593a28;stroke-width:1.4360162;stroke-linecap:round;stroke-linejoin:round;stroke-miterlimit:4.0000000;stroke-opacity:1.0000000"
     d="M 38.334566,50.293140 C 37.262543,49.983723 36.154899,50.595183 35.845482,51.667206 L 35.385039,53.262479 C 34.934717,53.276571 34.492217,53.318408 34.055674,53.401907 L 33.258225,51.957350 C 32.718982,50.980523 31.492904,50.626643 30.516078,51.165885 L 29.457951,51.757260 C 28.481126,52.296503 28.129731,53.513958 28.668975,54.490784 L 29.460290,55.924230 C 29.152557,56.248345 28.872779,56.596292 28.616684,56.969863 L 27.055903,56.519375 C 25.983878,56.209958 24.865123,56.827552 24.555705,57.899575 L 24.219707,59.063694 C 23.910290,60.135717 24.530373,61.245850 25.602396,61.555268 L 27.128686,61.995799 C 27.140640,62.462529 27.186441,62.921164 27.272915,63.373258 L 25.883916,64.140035 C 24.907091,64.679279 24.555697,65.896734 25.094942,66.873560 L 25.686315,67.931686 C 26.225559,68.908513 27.443014,69.259906 28.419841,68.720662 L 29.786614,67.966153 C 30.127430,68.290070 30.489693,68.586480 30.885142,68.853050 L 30.454565,70.344847 C 30.145148,71.416870 30.756608,72.524515 31.828631,72.833932 L 32.992750,73.169930 C 34.064774,73.479347 35.172418,72.867888 35.481835,71.795864 L 35.914900,70.295445 C 36.387747,70.280088 36.848574,70.228219 37.305959,70.136457 L 38.060469,71.503232 C 38.599713,72.480058 39.817166,72.831450 40.793993,72.292207 L 41.858255,71.711944 C 42.835081,71.172700 43.188963,69.946624 42.649718,68.969798 L 41.889075,67.591912 C 42.203156,67.255430 42.486303,66.891740 42.745125,66.503163 L 44.271414,66.943695 C 45.343437,67.253113 46.451079,66.641653 46.760497,65.569630 L 47.096497,64.405510 C 47.405914,63.333487 46.796945,62.217220 45.724922,61.907803 L 44.164140,61.457316 C 44.146439,61.003288 44.087033,60.560075 43.998842,60.120483 L 45.432287,59.329169 C 46.409115,58.789926 46.760509,57.572470 46.221264,56.595645 L 45.641000,55.531383 C 45.101757,54.554557 43.884304,54.203165 42.907476,54.742407 L 41.451807,55.545990 C 41.128072,55.243504 40.784404,54.964947 40.412308,54.713497 L 40.872752,53.118224 C 41.182169,52.046200 40.570708,50.938556 39.498686,50.629139 L 38.334566,50.293140 z M 36.789299,57.815403 C 38.979014,58.447418 40.243057,60.737201 39.611042,62.926914 C 38.979024,65.116629 36.689242,66.380673 34.499528,65.748657 C 32.309814,65.116641 31.045770,62.826858 31.677787,60.637143 C 32.309802,58.447430 34.599585,57.183386 36.789299,57.815403 z "
     id="path1249" />
  <path
     style="fill:url(#linearGradient1253);fill-opacity:1.0000000;stroke:#593a28;stroke-width:1.4360162;stroke-linecap:round;stroke-linejoin:round;stroke-miterlimit:4.0000000;stroke-opacity:1.0000000"
     d="M 57.848481,35.933844 C 56.776458,35.624427 55.668814,36.235887 55.359397,37.307910 L 54.898954,38.903183 C 54.448633,38.917275 54.006132,38.959112 53.569589,39.042611 L 52.772140,37.598054 C 52.232897,36.621227 51.006819,36.267347 50.029993,36.806590 L 48.971866,37.397964 C 47.995040,37.937207 47.643647,39.154663 48.182890,40.131488 L 48.974204,41.564934 C 48.666472,41.889050 48.386694,42.236997 48.130600,42.610567 L 46.569818,42.160079 C 45.497794,41.850662 44.379038,42.468256 44.069621,43.540279 L 43.733622,44.704398 C 43.424205,45.776421 44.044288,46.886554 45.116311,47.195972 L 46.642600,47.636503 C 46.654554,48.103233 46.700357,48.561868 46.786830,49.013962 L 45.397832,49.780739 C 44.421007,50.319984 44.069612,51.537438 44.608857,52.514264 L 45.200230,53.572391 C 45.739474,54.549218 46.956929,54.900610 47.933756,54.361366 L 49.300529,53.606857 C 49.641345,53.930774 50.003608,54.227184 50.399056,54.493754 L 49.968479,55.985550 C 49.659063,57.057574 50.270524,58.165219 51.342546,58.474635 L 52.506665,58.810634 C 53.578689,59.120052 54.686333,58.508593 54.995750,57.436569 L 55.428815,55.936149 C 55.901662,55.920793 56.362489,55.868923 56.819874,55.777162 L 57.574384,57.143936 C 58.113628,58.120762 59.331081,58.472154 60.307908,57.932912 L 61.372170,57.352648 C 62.348996,56.813404 62.702878,55.587328 62.163633,54.610502 L 61.402991,53.232617 C 61.717072,52.896134 62.000219,52.532444 62.259040,52.143867 L 63.785329,52.584399 C 64.857353,52.893817 65.964994,52.282357 66.274413,51.210334 L 66.610412,50.046214 C 66.919829,48.974191 66.310859,47.857924 65.238837,47.548507 L 63.678054,47.098020 C 63.660355,46.643991 63.600948,46.200779 63.512757,45.761188 L 64.946202,44.969873 C 65.923030,44.430630 66.274424,43.213175 65.735178,42.236349 L 65.154914,41.172087 C 64.615672,40.195261 63.398218,39.843869 62.421391,40.383112 L 60.965722,41.186695 C 60.641988,40.884208 60.298320,40.605651 59.926223,40.354201 L 60.386667,38.758928 C 60.696084,37.686904 60.084624,36.579260 59.012601,36.269843 L 57.848481,35.933844 z M 56.303214,43.456107 C 58.492929,44.088122 59.756972,46.377905 59.124956,48.567619 C 58.492940,50.757333 56.203157,52.021377 54.013444,51.389361 C 51.823730,50.757345 50.559685,48.467562 51.191702,46.277847 C 51.823717,44.088134 54.113500,42.824090 56.303214,43.456107 z "
     id="path1252" />
  <path
     style="fill:url(#linearGradient1247);fill-opacity:1.0000000;stroke:#593a28;stroke-width:1.4360162;stroke-linecap:round;stroke-linejoin:round;stroke-miterlimit:4.0000000;stroke-opacity:1.0000000"
     d="M 30.234451,27.465541 C 29.162428,27.156124 28.054783,27.767584 27.745366,28.839607 L 27.284924,30.434881 C 26.834602,30.448972 26.392101,30.490809 25.955559,30.574309 L 25.158110,29.129752 C 24.618865,28.152924 23.392789,27.799044 22.415963,28.338287 L 21.357835,28.929661 C 20.381010,29.468905 20.029615,30.686359 20.568860,31.663185 L 21.360174,33.096631 C 21.052441,33.420747 20.772664,33.768694 20.516569,34.142264 L 18.955788,33.691777 C 17.883763,33.382360 16.765008,33.999953 16.455590,35.071976 L 16.119591,36.236095 C 15.810173,37.308119 16.430257,38.418251 17.502280,38.727669 L 19.028570,39.168200 C 19.040524,39.634930 19.086326,40.093566 19.172799,40.545659 L 17.783801,41.312437 C 16.806975,41.851681 16.455582,43.069135 16.994826,44.045961 L 17.586200,45.104088 C 18.125444,46.080915 19.342898,46.432308 20.319725,45.893063 L 21.686499,45.138554 C 22.027314,45.462471 22.389577,45.758881 22.785026,46.025451 L 22.354449,47.517248 C 22.045033,48.589272 22.656493,49.696916 23.728516,50.006333 L 24.892635,50.342332 C 25.964658,50.651749 27.072302,50.040289 27.381719,48.968266 L 27.814785,47.467846 C 28.287632,47.452490 28.748458,47.400621 29.205844,47.308859 L 29.960354,48.675632 C 30.499598,49.652460 31.717050,50.003851 32.693877,49.464608 L 33.758139,48.884346 C 34.734965,48.345101 35.088847,47.119025 34.549603,46.142200 L 33.788960,44.764313 C 34.103040,44.427830 34.386188,44.064140 34.645009,43.675565 L 36.171299,44.116096 C 37.243322,44.425514 38.350964,43.814055 38.660382,42.742031 L 38.996382,41.577912 C 39.305799,40.505889 38.696829,39.389622 37.624807,39.080204 L 36.064024,38.629717 C 36.046323,38.175689 35.986918,37.732477 35.898727,37.292884 L 37.332172,36.501571 C 38.309000,35.962327 38.660393,34.744872 38.121148,33.768047 L 37.540884,32.703784 C 37.001641,31.726958 35.784188,31.375565 34.807361,31.914809 L 33.351692,32.718392 C 33.027957,32.415905 32.684289,32.137348 32.312193,31.885899 L 32.772636,30.290625 C 33.082054,29.218601 32.470593,28.110958 31.398571,27.801541 L 30.234451,27.465541 z M 28.689184,34.987804 C 30.878898,35.619819 32.142942,37.909602 31.510925,40.099315 C 30.878909,42.289030 28.589126,43.553074 26.399413,42.921058 C 24.209698,42.289043 22.945655,39.999259 23.577670,37.809544 C 24.209687,35.619832 26.499469,34.355788 28.689184,34.987804 z "
     id="path1864" />
  <path
     style="font-size:12.000000;font-style:normal;font-variant:normal;font-weight:normal;font-stretch:normal;fill:#3d4e67;fill-opacity:1.0000000;stroke:none;stroke-width:1.0000000pt;stroke-linecap:butt;stroke-linejoin:miter;stroke-opacity:1.0000000;font-family:Kid Kosmic;text-anchor:start;writing-mode:lr"
     d="M 28.727672,8.9620595 C 31.316532,9.1255680 33.647512,9.4954053 35.720619,10.071572 C 36.499078,10.287944 37.280832,10.541680 38.065884,10.832779 C 38.463059,11.207522 38.561001,11.740638 38.359709,12.432131 C 38.283034,12.675175 38.183109,12.870726 38.059932,13.018785 C 37.886421,13.216683 37.696725,13.259670 37.490846,13.147748 C 37.076699,12.932388 36.630124,12.735348 36.151120,12.556631 C 36.971675,14.261369 37.194741,15.918533 36.820317,17.528128 C 35.923000,19.903931 34.336708,20.921490 32.061439,20.580807 C 27.804754,19.498010 26.058586,17.499567 26.822929,14.585467 C 26.908536,14.244656 27.118947,13.979545 27.454164,13.790132 C 27.800189,13.594623 28.142436,13.543901 28.480904,13.637963 C 28.895519,13.753206 29.051091,13.996979 28.947617,14.369284 C 28.771185,15.332048 28.828650,16.191178 29.120015,16.946680 C 29.354976,17.577133 30.094386,18.065212 31.338250,18.410916 C 31.609016,18.486174 31.900238,18.553442 32.211919,18.612717 C 32.927414,18.629274 33.472290,18.489026 33.846547,18.191967 C 34.231602,17.888805 34.493993,17.387472 34.633726,16.687966 C 34.692969,16.540364 34.742588,16.394638 34.782577,16.250786 C 34.984818,15.523092 34.952010,14.821216 34.684155,14.145155 C 34.362235,13.335588 33.954764,12.538697 33.461741,11.754477 C 32.324579,11.484011 30.807343,11.203610 28.910032,10.913273 C 28.481298,10.848816 28.228647,10.609965 28.152082,10.196718 C 28.128124,10.053343 28.137312,9.9054943 28.179647,9.7531733 C 28.252548,9.4908763 28.435223,9.2271712 28.727672,8.9620595 M 38.475410,21.953263 C 40.076529,19.144127 41.408999,16.219301 42.472821,13.178779 C 42.927924,12.885980 44.141509,12.881450 46.113583,13.165196 C 46.911802,13.277677 47.663952,13.441147 48.370036,13.655607 C 49.065284,13.876197 49.518901,14.129885 49.730892,14.416672 C 49.692831,17.505290 49.326878,20.625816 48.633030,23.778263 C 48.511649,24.346138 48.203214,24.652370 47.707724,24.696960 C 47.519667,24.717618 47.362182,24.710308 47.235267,24.675033 C 47.023717,24.616239 46.896101,24.485061 46.852420,24.281497 C 47.035823,23.785559 47.194554,23.296433 47.328614,22.814119 C 47.500282,22.196423 47.632234,21.590472 47.724469,20.996264 L 40.937368,20.326802 C 40.790657,20.559490 40.648180,20.793348 40.509938,21.028379 L 40.091674,21.746176 C 39.934105,22.313107 39.588538,22.572558 39.054973,22.524529 C 38.937915,22.519342 38.837078,22.504990 38.752464,22.481471 C 38.447845,22.396809 38.355494,22.220741 38.475410,21.953263 M 47.920117,18.767272 C 47.908950,17.889113 47.824693,16.995190 47.667346,16.085499 C 47.546107,15.668974 47.130106,15.361934 46.419338,15.164377 C 46.021633,15.053855 45.509693,14.993609 44.883518,14.983638 C 44.129458,14.974606 43.632539,15.073494 43.392761,15.280299 C 43.011818,16.322954 42.534506,17.384390 41.960825,18.464612 L 47.920117,18.767272 M 53.130216,16.304878 C 53.122235,16.202406 53.130005,16.108854 53.153526,16.024227 C 53.257000,15.651927 53.549677,15.418795 54.031555,15.324829 C 54.271312,15.282096 54.504952,15.310572 54.732475,15.410254 C 54.959988,15.509962 55.100758,15.708603 55.154783,16.006178 C 55.030385,17.995201 54.992097,19.461229 55.039920,20.404265 C 55.159964,22.497683 55.612024,23.790076 56.396101,24.281447 C 57.199995,24.176731 58.247763,23.260170 59.539407,21.531757 C 60.080597,20.798002 60.889595,19.559851 61.966404,17.817303 C 62.168087,17.681951 62.366243,17.641314 62.560874,17.695394 C 62.730093,17.742440 62.902841,17.858815 63.079119,18.044524 C 63.323524,18.313001 63.406929,18.586850 63.329335,18.866075 C 63.291693,19.001470 63.212460,19.138966 63.091636,19.278562 C 61.549297,21.876170 59.456724,24.370972 56.813910,26.762976 C 56.371960,27.041219 56.005264,27.130722 55.713817,27.031488 C 55.411544,26.938364 55.154894,26.730303 54.943867,26.407307 C 53.677298,23.749136 53.072748,20.381662 53.130216,16.304878 M 62.540275,28.641642 C 64.141394,25.832506 65.473863,22.907680 66.537686,19.867159 C 66.992788,19.574359 68.206374,19.569829 70.178447,19.853575 C 70.976667,19.966056 71.728817,20.129526 72.434899,20.343986 C 73.130148,20.564576 73.583766,20.818264 73.795757,21.105051 C 73.757695,24.193669 73.391742,27.314195 72.697894,30.466643 C 72.576513,31.034517 72.268079,31.340749 71.772589,31.385339 C 71.584531,31.405997 71.427047,31.398687 71.300132,31.363412 C 71.088582,31.304618 70.960966,31.173440 70.917285,30.969876 C 71.100688,30.473938 71.259419,29.984812 71.393479,29.502498 C 71.565146,28.884802 71.697099,28.278853 71.789334,27.684645 L 65.002232,27.015181 C 64.855522,27.247869 64.713045,27.481727 64.574803,27.716758 L 64.156538,28.434555 C 63.998970,29.001486 63.653403,29.260937 63.119837,29.212908 C 63.002780,29.207722 62.901943,29.193369 62.817329,29.169850 C 62.512709,29.085188 62.420357,28.909120 62.540275,28.641642 M 71.984982,25.455651 C 71.973815,24.577492 71.889558,23.683569 71.732211,22.773878 C 71.610972,22.357353 71.194970,22.050313 70.484203,21.852756 C 70.086498,21.742234 69.574558,21.681988 68.948383,21.672017 C 68.194323,21.662985 67.697404,21.761873 67.457626,21.968678 C 67.076683,23.011333 66.599371,24.072769 66.025690,25.152991 L 71.984982,25.455651"
     id="text1126" />
</svg>
