<?xml version="1.0" encoding="UTF-8" standalone="no"?>
<!DOCTYPE svg PUBLIC "-//W3C//DTD SVG 20010904//EN"
"http://www.w3.org/TR/2001/REC-SVG-20010904/DTD/svg10.dtd">
<!-- Created with Sodipodi ("http://www.sodipodi.com/") -->
<svg
   id="svg604"
   sodipodi:version="0.32"
   width="72pt"
   height="72pt"
   sodipodi:docbase="/home/zeus/.icons/gartoon/scalable/mimetypes"
   sodipodi:docname="gnome-mime-application-x-gnucash.svg"
   xmlns="http://www.w3.org/2000/svg"
   xmlns:sodipodi="http://sodipodi.sourceforge.net/DTD/sodipodi-0.dtd"
   xmlns:xlink="http://www.w3.org/1999/xlink"
   xmlns:inkscape="http://www.inkscape.org/namespaces/inkscape"
   inkscape:version="0.40"
   xmlns:rdf="http://www.w3.org/1999/02/22-rdf-syntax-ns#"
   xmlns:cc="http://web.resource.org/cc/"
   xmlns:dc="http://purl.org/dc/elements/1.1/">
  <metadata
     id="metadata14">
    <rdf:RDF
       id="RDF15">
      <cc:Work
         rdf:about=""
         id="Work16">
        <dc:format
           id="format17">image/svg+xml</dc:format>
        <dc:type
           id="type19"
           rdf:resource="http://purl.org/dc/dcmitype/StillImage" />
      </cc:Work>
    </rdf:RDF>
  </metadata>
  <defs
     id="defs606">
    <linearGradient
       id="linearGradient612">
      <stop
         style="stop-color:#7fa8e3;stop-opacity:0.741176;"
         offset="0.000000"
         id="stop613" />
      <stop
         style="stop-color:#ffffff;stop-opacity:0;"
         offset="1.000000"
         id="stop614" />
    </linearGradient>
    <linearGradient
       xlink:href="#linearGradient612"
       id="linearGradient615"
       x1="50.6438866"
       y1="5.36792946"
       x2="35.7520943"
       y2="68.0443573"
       gradientUnits="userSpaceOnUse"
       spreadMethod="pad" />
  </defs>
  <sodipodi:namedview
     id="base"
     inkscape:zoom="5.0416667"
     inkscape:cx="36.000000"
     inkscape:cy="36.000000"
     inkscape:window-width="640"
     inkscape:window-height="536"
     inkscape:window-x="5"
     inkscape:window-y="48"
     inkscape:current-layer="svg604" />
  <path
     style="fill:#000000;fill-rule:evenodd;stroke:none;stroke-opacity:1;stroke-width:1pt;stroke-linejoin:miter;stroke-linecap:butt;fill-opacity:0.301471;"
     d="M 12.8163 74.753 C 10.3856 73.6481 7.07107 70.1126 8.83884 65.2512 C 9.72267 59.948 25.6326 13.1021 29.1682 10.8924 C 31.3778 8.90368 34.582 8.13026 39.1119 9.34561 C 42.8684 10.2295 76.6769 19.0684 78.6656 20.8361 C 80.6544 22.6039 82.2012 24.0402 80.6544 27.9072 C 79.5496 29.8959 66.4017 74.532 66.1808 77.4047 C 65.2969 80.4983 62.7558 84.2548 58.5573 84.0338 C 54.3589 83.8128 15.9099 75.4159 12.8163 74.753 z "
     id="path794"
     sodipodi:nodetypes="ccccccccc"
     transform="matrix(1.114903,0.000000,0.000000,1.114903,-5.305332,-3.889256)" />
  <path
     style="fill:#3d4e67;fill-rule:evenodd;stroke:none;stroke-opacity:1;stroke-width:1pt;stroke-linejoin:miter;stroke-linecap:butt;fill-opacity:1;"
     d="M 12.8163 74.753 C 10.3856 73.6481 7.07107 70.1126 8.83884 65.2512 C 9.72267 59.948 25.6326 13.1021 29.1682 10.8924 C 31.3778 8.90368 34.582 8.13026 39.1119 9.34561 C 42.8684 10.2295 76.6769 19.0684 78.6656 20.8361 C 80.6544 22.6039 82.2012 24.0402 80.6544 27.9072 C 79.5496 29.8959 66.4017 74.532 66.1808 77.4047 C 65.2969 80.4983 62.7558 84.2548 58.5573 84.0338 C 54.3589 83.8128 15.9099 75.4159 12.8163 74.753 z "
     id="path609"
     sodipodi:nodetypes="ccccccccc"
     transform="matrix(1.114903,0.000000,0.000000,1.114903,-8.162471,-8.460684)" />
  <path
     style="fill:#ffffff;fill-rule:evenodd;stroke:none;stroke-opacity:1;stroke-width:1pt;stroke-linejoin:miter;stroke-linecap:butt;fill-opacity:1;"
     d="M 17.8987 70.9965 C 15.3576 70.3336 11.7114 69.6706 13.0373 65.6932 C 15.468 55.9705 27.8424 18.6264 33.1456 13.986 C 34.361 12.8811 38.4489 12.4392 46.1829 14.8699 C 55.0218 17.5215 72.9204 23.4877 74.6882 24.3716 C 76.4559 25.2555 77.1189 25.2555 75.793 29.233 C 73.8043 33.2105 64.9655 67.24 62.7557 72.9852 C 61.209 77.0732 60.8775 78.9514 58.2258 78.9514 "
     id="path608"
     sodipodi:nodetypes="cccccccs"
     transform="matrix(1.114903,0.000000,0.000000,1.114903,-8.162471,-8.460684)" />
  <path
     style="fill:url(#linearGradient615);fill-rule:evenodd;stroke:none;stroke-opacity:1;stroke-width:1pt;stroke-linejoin:miter;stroke-linecap:butt;fill-opacity:1;"
     d="M 28.75 13.75 C 28.75 13.75 31.875 7.49995 39.6875 9.37495 C 47.5 11.25 78.125 19.375 77.8125 21.875 C 77.5 24.375 71.875 39.0625 71.5625 40.3125 C 71.25 41.5625 42.5 40.9375 31.5625 47.5 C 20.625 54.0625 12.5 59.6875 12.5 59.6875 C 12.5 59.6875 23.75 24.6875 28.75 13.75 z "
     id="path636"
     transform="matrix(0.946780,0.000000,0.000000,0.946780,-0.480566,0.409517)" />
  <path
     style="font-size:28.000000;font-weight:normal;fill:#2aaf18;fill-opacity:1.0000000;stroke:#0d3c07;stroke-width:1.5000000;stroke-linecap:square;stroke-linejoin:bevel;stroke-opacity:1.0000000;font-family:Kid Kosmic"
     d="M 22.403606,66.726113 L 22.537956,65.328413 C 22.580806,64.871413 22.634506,64.407443 22.699026,63.936483 C 18.908726,63.266173 15.780556,61.517413 13.314516,58.690233 C 13.063146,58.300173 12.981756,57.900243 13.070366,57.490443 C 13.128146,57.223183 13.262986,56.944603 13.474866,56.654703 C 13.876956,56.088883 14.327456,55.859903 14.826336,55.967773 C 14.968886,55.998593 15.114556,56.058063 15.263356,56.146183 C 16.159046,57.179113 17.184746,58.128243 18.340476,58.993593 C 19.184646,59.661023 20.301606,60.144983 21.691366,60.445463 C 22.136806,60.541773 22.614746,60.617143 23.125186,60.671553 C 23.445416,58.241633 23.866296,55.777523 24.387806,53.279233 C 22.158696,52.461563 20.974796,52.028413 20.836106,51.979773 C 19.464646,51.422133 18.370796,50.831283 17.554556,50.207193 C 15.864786,48.965273 15.227936,47.382173 15.643986,45.457883 C 15.713336,45.137163 15.813246,44.804413 15.943756,44.459613 C 16.700266,42.944653 18.405436,42.045103 21.059276,41.760983 C 22.968146,41.558243 25.024146,41.667063 27.227246,42.087453 C 27.438646,41.368493 27.628136,40.794003 27.795716,40.363983 C 28.172286,39.829933 28.669496,39.471183 29.287326,39.287703 C 29.909006,39.086413 30.543696,39.083763 31.191376,39.279753 C 31.660896,39.437223 32.037946,39.677273 32.322556,39.999913 C 32.666866,40.391413 32.790856,40.809883 32.694546,41.255313 C 32.671436,41.362223 32.637486,41.476113 32.592706,41.596983 C 32.244066,42.174363 31.932986,42.750543 31.659456,43.325513 C 34.374456,44.397443 36.352446,45.729653 37.593406,47.322153 C 37.614596,47.569183 37.602076,47.799603 37.555846,48.013413 C 37.428716,48.601383 37.054796,49.080053 36.434076,49.449413 C 36.008386,49.693073 35.644086,49.782173 35.341186,49.716673 C 34.984836,49.639633 34.695666,49.381273 34.473666,48.941623 C 33.008306,48.214473 31.528726,47.596173 30.034956,47.086693 C 29.539926,48.341143 29.116156,49.610983 28.763676,50.896253 C 30.056156,51.474113 31.005786,51.912573 31.612536,52.211613 C 32.836166,52.849183 33.701516,53.418613 34.208586,53.919903 C 35.310876,55.463763 35.804466,56.717493 35.689376,57.681073 C 35.570436,58.662483 35.190976,59.727433 34.550996,60.875933 C 32.648876,62.945173 29.999846,64.069613 26.603936,64.249243 C 26.571196,64.745713 26.546646,65.290593 26.530266,65.883873 C 26.317906,67.124833 25.771586,67.883273 24.891316,68.159213 C 24.628866,68.251663 24.364006,68.269003 24.096746,68.211213 C 23.508776,68.084093 22.944386,67.589063 22.403606,66.726113 z M 25.243026,49.323763 C 25.520406,48.040903 25.803786,46.945853 26.093206,46.038603 C 23.258786,45.519023 21.717336,45.661323 21.468856,46.465513 C 21.413956,46.546893 21.378796,46.623223 21.363386,46.694493 C 21.243966,47.246833 22.537186,48.123253 25.243026,49.323763 z M 27.813096,54.775163 C 27.397036,56.699453 27.082106,58.673583 26.868306,60.697543 C 26.939576,60.712953 27.061166,60.711273 27.233076,60.692483 C 28.909356,60.271603 30.039566,59.788603 30.623686,59.243483 C 30.761406,59.124063 30.851466,58.966353 30.893836,58.770363 C 31.020966,58.182383 30.657146,57.320403 29.802396,56.184423 C 29.309286,55.704803 28.646176,55.235043 27.813096,54.775163 z M 47.045156,72.053943 L 47.179506,70.656233 C 47.222356,70.199243 47.276056,69.735273 47.340576,69.264313 C 43.550266,68.593993 40.422106,66.845243 37.956066,64.018063 C 37.704686,63.628003 37.623306,63.228073 37.711916,62.818263 C 37.769696,62.551013 37.904536,62.272423 38.116416,61.982533 C 38.518506,61.416713 38.969006,61.187733 39.467886,61.295593 C 39.610436,61.326413 39.756096,61.385883 39.904906,61.474013 C 40.800596,62.506933 41.826296,63.456073 42.982026,64.321423 C 43.826196,64.988853 44.943156,65.472813 46.332916,65.773293 C 46.778356,65.869603 47.256286,65.944973 47.766736,65.999383 C 48.086966,63.569463 48.507846,61.105353 49.029356,58.607063 C 46.800236,57.789393 45.616346,57.356243 45.477656,57.307603 C 44.106196,56.749963 43.012346,56.159103 42.196106,55.535013 C 40.506336,54.293103 39.869486,52.709993 40.285536,50.785713 C 40.354886,50.464993 40.454796,50.132243 40.585306,49.787443 C 41.341816,48.272483 43.046986,47.372933 45.700826,47.088813 C 47.609696,46.886073 49.665686,46.994893 51.868796,47.415283 C 52.080196,46.696323 52.269686,46.121833 52.437266,45.691803 C 52.813836,45.157763 53.311036,44.799003 53.928876,44.615533 C 54.550556,44.414243 55.185236,44.411593 55.832926,44.607583 C 56.302446,44.765043 56.679496,45.005103 56.964096,45.327743 C 57.308416,45.719243 57.432406,46.137713 57.336096,46.583143 C 57.312986,46.690053 57.279036,46.803943 57.234256,46.924813 C 56.885616,47.502193 56.574536,48.078373 56.301006,48.653343 C 59.016006,49.725273 60.993986,51.057483 62.234946,52.649973 C 62.256146,52.897013 62.243626,53.127433 62.197396,53.341243 C 62.070266,53.929213 61.696346,54.407883 61.075626,54.777243 C 60.649936,55.020903 60.285636,55.109993 59.982736,55.044503 C 59.626386,54.967463 59.337216,54.709103 59.115216,54.269443 C 57.649846,53.542303 56.170276,52.923993 54.676496,52.414523 C 54.181466,53.668963 53.757706,54.938813 53.405216,56.224083 C 54.697706,56.801943 55.647326,57.240393 56.254076,57.539433 C 57.477706,58.177003 58.343066,58.746443 58.850136,59.247733 C 59.952426,60.791593 60.446006,62.045313 60.330926,63.008893 C 60.211976,63.990303 59.832526,65.055253 59.192546,66.203763 C 57.290416,68.272993 54.641396,69.397433 51.245486,69.577063 C 51.212746,70.073543 51.188186,70.618413 51.171816,71.211693 C 50.959456,72.452653 50.413136,73.211103 49.532856,73.487033 C 49.270416,73.579493 49.005556,73.596833 48.738296,73.539043 C 48.150326,73.411913 47.585946,72.916883 47.045156,72.053943 z M 49.884576,54.651593 C 50.161956,53.368733 50.445336,52.273673 50.734746,51.366423 C 47.900336,50.846843 46.358876,50.989143 46.110406,51.793333 C 46.055506,51.874723 46.020346,51.951053 46.004936,52.022323 C 45.885516,52.574663 47.178736,53.451073 49.884576,54.651593 z M 52.454646,60.102993 C 52.038586,62.027273 51.723646,64.001413 51.509846,66.025363 C 51.581126,66.040783 51.702716,66.039093 51.874626,66.020313 C 53.550906,65.599433 54.681116,65.116433 55.265226,64.571313 C 55.402956,64.451893 55.493016,64.294183 55.535386,64.098193 C 55.662516,63.510213 55.298696,62.648233 54.443946,61.512253 C 53.950826,61.032623 53.287726,60.562873 52.454646,60.102993 z "
     id="path626" />
  <path
     style="font-size:14.000000;font-weight:bold;fill:#3d4e67;stroke-width:1.0000000;font-family:Kid Kosmic"
     d="M 27.293989,22.100545 C 27.168922,22.538777 26.848509,22.864397 26.332757,23.077385 C 25.825765,23.292873 25.335630,23.333088 24.862337,23.198015 C 24.687046,23.147988 24.532403,23.075423 24.398411,22.980309 C 24.010205,22.679951 23.879882,22.306269 24.007449,21.859276 C 24.094996,21.552514 24.289608,21.285781 24.591264,21.059082 C 25.164549,20.644503 25.766724,20.527258 26.397778,20.707355 C 26.581829,20.759882 26.748363,20.840593 26.897386,20.949470 C 27.296864,21.243561 27.429060,21.627261 27.293989,22.100545 z M 32.608078,13.892199 C 32.805778,13.531568 33.170663,13.299214 33.702730,13.195145 C 34.163435,13.108616 34.607268,13.131018 35.034237,13.262355 C 35.437410,13.377417 35.713545,13.622091 35.862639,13.996388 C 35.979621,15.811729 36.176665,17.412962 36.453765,18.800073 C 37.952119,17.900701 39.596272,16.805981 41.386225,15.515903 C 41.779291,15.334238 42.168652,15.298448 42.554294,15.408506 C 43.409463,15.633605 43.870332,16.077922 43.936883,16.741451 C 43.949431,16.830337 43.941947,16.922991 43.914432,17.019401 C 43.854400,17.229752 43.699842,17.422601 43.450746,17.597953 C 41.011127,19.271338 38.905679,20.570898 37.134399,21.496643 C 37.595578,23.002647 38.210063,24.286992 38.977849,25.349699 C 39.100632,25.650140 39.125753,25.927451 39.053215,26.181623 C 38.945657,26.558505 38.666555,26.839031 38.215889,27.023204 C 37.776503,27.201123 37.363985,27.235047 36.978333,27.124986 C 36.618991,27.022433 36.411100,26.820924 36.354667,26.520472 C 35.585605,25.362611 34.938584,24.125843 34.413603,22.810167 C 32.788748,23.521785 31.154455,24.116962 29.510742,24.595713 C 29.221592,24.778593 28.910488,24.822501 28.577435,24.727451 C 28.253143,24.634901 27.998302,24.448435 27.812922,24.168046 C 27.618783,23.885156 27.565487,23.590331 27.653033,23.283569 C 27.760592,22.906687 28.075999,22.598606 28.599257,22.359319 C 30.156605,21.950709 31.817160,21.296669 33.580938,20.397215 C 33.340311,19.579743 33.093341,18.485588 32.840032,17.114739 C 32.501460,15.311980 32.424142,14.237799 32.608078,13.892199 z M 47.871698,18.248288 C 48.478819,17.947628 49.648158,17.902210 51.379710,18.112020 C 52.827061,18.288122 54.068478,18.538148 55.103961,18.862096 C 55.946634,19.131018 56.495734,19.482037 56.751264,19.915151 C 56.567464,20.725232 56.360505,21.533457 56.130382,22.339802 C 55.394987,24.916608 54.423595,27.506626 53.216216,30.109858 C 52.894661,30.804815 52.381457,31.174925 51.676608,31.220209 C 51.417445,31.231552 51.204606,31.213468 51.038075,31.165941 C 50.687493,31.065888 50.505256,30.824301 50.491368,30.441201 C 51.212170,29.310439 51.786506,28.227935 52.214381,27.193669 L 44.621465,26.348970 C 44.403693,26.580651 43.991303,27.045890 43.384297,27.744677 C 43.012655,28.415855 42.461876,28.718378 41.731954,28.652233 C 41.546657,28.637267 41.414559,28.618525 41.335678,28.596014 C 40.914976,28.475949 40.752148,28.249396 40.847201,27.916334 C 40.874715,27.819923 40.925396,27.725382 40.999232,27.632717 C 43.712574,24.435589 46.003393,21.307445 47.871698,18.248288 z M 53.380833,21.711502 C 53.336909,21.367219 52.968749,21.096282 52.276344,20.898676 C 51.820581,20.768606 51.235887,20.691777 50.522247,20.668205 C 49.713453,20.645909 49.151335,20.722454 48.835888,20.897818 C 48.212699,21.885828 47.490605,22.888258 46.669607,23.905109 L 53.114952,24.336997 C 53.273700,23.481841 53.362326,22.606682 53.380833,21.711502 z M 70.237278,27.062440 C 70.058342,27.390520 69.747916,27.614717 69.305999,27.735040 C 68.901645,27.856599 68.511026,27.863599 68.134154,27.756043 C 67.660861,27.620970 67.380317,27.275506 67.292509,26.719657 C 67.257305,26.245159 67.226493,25.771924 67.200060,25.299928 C 65.043957,24.684597 63.122193,24.775949 61.434753,25.573968 C 60.295608,26.111403 59.478285,26.849698 58.982781,27.788832 C 58.860153,28.019235 58.767576,28.243998 58.705044,28.463110 C 58.512441,29.137984 58.574595,29.733911 58.891497,30.250888 C 59.217168,30.770368 59.756884,31.137655 60.510648,31.352772 C 62.009398,31.780501 64.048826,31.608993 66.628931,30.838258 C 67.005774,30.813100 67.299369,30.830542 67.509720,30.890574 C 67.983013,31.025647 68.152120,31.329824 68.017047,31.803117 C 67.836950,32.434171 67.398882,32.839950 66.702835,33.020441 C 65.624997,33.442678 64.411281,33.693441 63.061656,33.772724 C 61.683251,33.853266 60.446251,33.737196 59.350674,33.424529 C 57.737984,32.964283 56.686688,32.114506 56.196791,30.875180 C 55.757021,29.792349 55.688464,28.720669 55.991125,27.660152 C 56.118695,27.213150 56.317001,26.767387 56.586045,26.322854 C 57.764810,24.318076 59.628643,23.068030 62.177539,22.572735 C 64.357111,22.142649 66.653293,22.300342 69.066090,23.045804 C 69.857447,23.394871 70.341473,23.841054 70.518165,24.384364 C 70.664788,24.833787 70.630558,25.501728 70.415484,26.388199 C 70.386766,26.654877 70.327367,26.879625 70.237278,27.062440 z "
     id="path641" />
</svg>
