<?xml version="1.0" encoding="UTF-8" standalone="no"?>
<!DOCTYPE svg PUBLIC "-//W3C//DTD SVG 20010904//EN"
"http://www.w3.org/TR/2001/REC-SVG-20010904/DTD/svg10.dtd">
<!-- Created with Sodipodi ("http://www.sodipodi.com/") -->
<svg
   id="svg604"
   sodipodi:version="0.32"
   width="72pt"
   height="72pt"
   sodipodi:docbase="/home/zeus/.icons/gartoon/scalable/mimetypes"
   sodipodi:docname="gnome-mime-application-x-font-afm.svg"
   xmlns="http://www.w3.org/2000/svg"
   xmlns:sodipodi="http://sodipodi.sourceforge.net/DTD/sodipodi-0.dtd"
   xmlns:xlink="http://www.w3.org/1999/xlink"
   xmlns:inkscape="http://www.inkscape.org/namespaces/inkscape"
   inkscape:version="0.40"
   xmlns:rdf="http://www.w3.org/1999/02/22-rdf-syntax-ns#"
   xmlns:cc="http://web.resource.org/cc/"
   xmlns:dc="http://purl.org/dc/elements/1.1/">
  <metadata
     id="metadata14">
    <rdf:RDF
       id="RDF15">
      <cc:Work
         rdf:about=""
         id="Work16">
        <dc:format
           id="format17">image/svg+xml</dc:format>
        <dc:type
           id="type19"
           rdf:resource="http://purl.org/dc/dcmitype/StillImage" />
      </cc:Work>
    </rdf:RDF>
  </metadata>
  <defs
     id="defs606">
    <linearGradient
       id="linearGradient612">
      <stop
         style="stop-color:#7fa8e3;stop-opacity:0.741176;"
         offset="0.000000"
         id="stop613" />
      <stop
         style="stop-color:#ffffff;stop-opacity:0;"
         offset="1.000000"
         id="stop614" />
    </linearGradient>
    <linearGradient
       xlink:href="#linearGradient612"
       id="linearGradient615"
       x1="50.6438866"
       y1="5.36792946"
       x2="35.7520943"
       y2="68.0443573"
       gradientUnits="userSpaceOnUse"
       spreadMethod="pad" />
  </defs>
  <sodipodi:namedview
     id="base"
     inkscape:zoom="5.0416667"
     inkscape:cx="36.000000"
     inkscape:cy="36.000000"
     inkscape:window-width="640"
     inkscape:window-height="536"
     inkscape:window-x="5"
     inkscape:window-y="48"
     inkscape:current-layer="svg604" />
  <path
     style="fill:#000000;fill-rule:evenodd;stroke:none;stroke-opacity:1;stroke-width:1pt;stroke-linejoin:miter;stroke-linecap:butt;fill-opacity:0.301471;"
     d="M 12.8163 74.753 C 10.3856 73.6481 7.07107 70.1126 8.83884 65.2512 C 9.72267 59.948 25.6326 13.1021 29.1682 10.8924 C 31.3778 8.90368 34.582 8.13026 39.1119 9.34561 C 42.8684 10.2295 76.6769 19.0684 78.6656 20.8361 C 80.6544 22.6039 82.2012 24.0402 80.6544 27.9072 C 79.5496 29.8959 66.4017 74.532 66.1808 77.4047 C 65.2969 80.4983 62.7558 84.2548 58.5573 84.0338 C 54.3589 83.8128 15.9099 75.4159 12.8163 74.753 z "
     id="path794"
     sodipodi:nodetypes="ccccccccc"
     transform="matrix(1.114903,0.000000,0.000000,1.114903,-5.305332,-3.889256)" />
  <path
     style="fill:#3d4e67;fill-rule:evenodd;stroke:none;stroke-opacity:1;stroke-width:1pt;stroke-linejoin:miter;stroke-linecap:butt;fill-opacity:1;"
     d="M 12.8163 74.753 C 10.3856 73.6481 7.07107 70.1126 8.83884 65.2512 C 9.72267 59.948 25.6326 13.1021 29.1682 10.8924 C 31.3778 8.90368 34.582 8.13026 39.1119 9.34561 C 42.8684 10.2295 76.6769 19.0684 78.6656 20.8361 C 80.6544 22.6039 82.2012 24.0402 80.6544 27.9072 C 79.5496 29.8959 66.4017 74.532 66.1808 77.4047 C 65.2969 80.4983 62.7558 84.2548 58.5573 84.0338 C 54.3589 83.8128 15.9099 75.4159 12.8163 74.753 z "
     id="path609"
     sodipodi:nodetypes="ccccccccc"
     transform="matrix(1.114903,0.000000,0.000000,1.114903,-8.162471,-8.460684)" />
  <path
     style="fill:#ffffff;fill-rule:evenodd;stroke:none;stroke-opacity:1;stroke-width:1pt;stroke-linejoin:miter;stroke-linecap:butt;fill-opacity:1;"
     d="M 17.8987 70.9965 C 15.3576 70.3336 11.7114 69.6706 13.0373 65.6932 C 15.468 55.9705 27.8424 18.6264 33.1456 13.986 C 34.361 12.8811 38.4489 12.4392 46.1829 14.8699 C 55.0218 17.5215 72.9204 23.4877 74.6882 24.3716 C 76.4559 25.2555 77.1189 25.2555 75.793 29.233 C 73.8043 33.2105 64.9655 67.24 62.7557 72.9852 C 61.209 77.0732 60.8775 78.9514 58.2258 78.9514 "
     id="path608"
     sodipodi:nodetypes="cccccccs"
     transform="matrix(1.114903,0.000000,0.000000,1.114903,-8.162471,-8.460684)" />
  <path
     style="fill:url(#linearGradient615);fill-rule:evenodd;stroke:none;stroke-opacity:1.0000000;stroke-width:1.0000000pt;stroke-linejoin:miter;stroke-linecap:butt;fill-opacity:1.0000000;"
     d="M 28.75 13.75 C 28.75 13.75 31.875 7.49995 39.6875 9.37495 C 47.5 11.25 78.125 19.375 77.8125 21.875 C 77.5 24.375 71.875 39.0625 71.5625 40.3125 C 71.25 41.5625 42.5 40.9375 31.5625 47.5 C 20.625 54.0625 12.5 59.6875 12.5 59.6875 C 12.5 59.6875 23.75 24.6875 28.75 13.75 z "
     id="path636"
     transform="matrix(0.946780,0.000000,0.000000,0.946780,-0.480566,0.409517)" />
  <g
     id="g1078"
     transform="translate(-6.446281,16.85950)">
    <path
       style="font-size:36.000000;font-weight:bold;fill:#000000;fill-opacity:0.29929999;stroke-width:1.0000000;font-family:Bitstream Vera Serif"
       d="M 16.154940,46.271720 L 16.676360,44.125600 L 18.755450,44.672750 L 34.245160,22.858720 L 38.318150,23.930610 L 42.000390,50.790170 L 44.420320,51.427030 L 43.898900,53.573150 L 31.986720,50.438190 L 32.508130,48.292080 L 34.996230,48.946870 L 34.214410,42.985580 L 24.653990,40.469540 L 21.209460,45.318580 L 24.242890,46.116890 L 23.721470,48.263010 L 16.154940,46.271720 z M 26.010450,38.543180 L 33.900780,40.619700 L 32.441740,29.460590 L 26.010450,38.543180 z M 65.543950,46.947020 L 63.251450,56.382870 L 65.841790,57.064580 L 65.320370,59.210700 L 56.697250,56.941330 L 57.279000,54.546890 C 56.242400,55.330850 55.178120,55.830740 54.086150,56.046580 C 52.994170,56.262410 51.823320,56.205900 50.573590,55.877000 C 48.721720,55.389640 47.420860,54.500030 46.671010,53.208210 C 45.935400,51.907530 45.801730,50.293520 46.270000,48.366140 C 46.784230,46.249580 47.879260,44.851980 49.555090,44.173360 C 51.242280,43.497730 53.523060,43.538130 56.397430,44.294590 L 59.567190,45.128780 L 59.838670,44.011380 C 60.209270,42.486040 60.135670,41.271530 59.617880,40.367860 C 59.102960,39.452360 58.118390,38.803250 56.664160,38.420540 C 55.459890,38.103600 54.465070,38.118570 53.679710,38.465420 C 52.908590,38.803450 52.244500,39.521880 51.687420,40.620730 L 49.761700,40.113930 L 50.748510,36.052260 C 51.925510,35.934280 53.117830,35.927270 54.325510,36.031230 C 55.533190,36.135190 56.778930,36.356100 58.062740,36.693970 C 61.300670,37.546100 63.517220,38.796190 64.712380,40.444250 C 65.918890,42.095300 66.196080,44.262880 65.543950,46.947020 z M 58.136530,51.017320 L 59.054390,47.239440 L 56.787840,46.642940 C 55.663090,46.346930 54.722080,46.438950 53.964800,46.919010 C 53.207520,47.399060 52.683820,48.236210 52.393660,49.430480 C 52.103510,50.624730 52.102470,51.574280 52.390560,52.279120 C 52.690000,52.986950 53.288480,53.458960 54.186020,53.695170 C 55.117630,53.940350 55.945040,53.818420 56.668230,53.329410 C 57.391410,52.840390 57.880850,52.069690 58.136530,51.017320 z "
       id="path631" />
    <path
       style="font-size:36.000000;font-weight:bold;fill:#3d4e67;stroke-width:1.0000000;font-family:Bitstream Vera Serif"
       d="M 26.158460,39.873770 L 26.158460,37.746820 L 28.302990,37.746820 L 38.181890,13.629630 L 42.383070,13.629630 L 52.279550,37.746820 L 54.775640,37.746820 L 54.775640,39.873770 L 42.488530,39.873770 L 42.488530,37.746820 L 45.054940,37.746820 L 42.892830,32.385490 L 33.031500,32.385490 L 30.834240,37.746820 L 33.963140,37.746820 L 33.963140,39.873770 L 26.158460,39.873770 z M 33.892830,30.258540 L 42.031500,30.258540 L 37.988530,20.221430 L 33.892830,30.258540 z M 74.199470,28.395260 L 74.199470,37.746820 L 76.871340,37.746820 L 76.871340,39.873770 L 67.976810,39.873770 L 67.976810,37.500720 C 67.156500,38.485100 66.242440,39.211660 65.234630,39.680410 C 64.226810,40.149160 63.078380,40.383540 61.789310,40.383540 C 59.879160,40.383540 58.408450,39.873770 57.377200,38.854240 C 56.357670,37.822990 55.847910,36.352290 55.847910,34.442130 C 55.847910,32.344480 56.580330,30.774160 58.045170,29.731190 C 59.521740,28.688230 61.742440,28.166740 64.707280,28.166740 L 67.976810,28.166740 L 67.976810,27.059320 C 67.976810,25.547600 67.619390,24.434320 66.904550,23.719480 C 66.189700,22.992910 65.082280,22.629630 63.582280,22.629630 C 62.340100,22.629630 61.379160,22.887440 60.699470,23.403070 C 60.031500,23.906980 59.556890,24.739010 59.275640,25.899160 L 57.289310,25.899160 L 57.289310,21.873770 C 58.402600,21.475330 59.556890,21.176510 60.752200,20.977290 C 61.947520,20.778070 63.207280,20.678460 64.531500,20.678460 C 67.871340,20.678460 70.314700,21.299550 71.861580,22.541740 C 73.420170,23.783930 74.199470,25.735100 74.199470,28.395260 z M 67.976810,34.002680 L 67.976810,30.258540 L 65.638920,30.258540 C 64.478770,30.258540 63.588140,30.574940 62.967050,31.207760 C 62.345950,31.840570 62.035410,32.748770 62.035410,33.932370 C 62.035410,35.115960 62.258060,36.000720 62.703380,36.586660 C 63.160410,37.172600 63.851810,37.465570 64.777600,37.465570 C 65.738530,37.465570 66.511970,37.149160 67.097910,36.516350 C 67.683840,35.883540 67.976810,35.045650 67.976810,34.002680 z "
       id="path630"
       transform="matrix(0.969486,0.245147,-0.245147,0.969486,0.000000,0.000000)" />
  </g>
  <path
     transform="matrix(0.955501,0.294987,-0.294987,0.955501,1.387962,-6.108265)"
     style="font-size:14.000000;font-style:normal;font-variant:normal;font-weight:normal;font-stretch:normal;fill:#3d4e67;fill-opacity:1.0000000;stroke:none;stroke-width:1.0000000pt;stroke-linecap:butt;stroke-linejoin:miter;stroke-opacity:1.0000000;font-family:Kid Kosmic;text-anchor:start;writing-mode:lr"
     d="M 33.856518,17.142401 C 34.157297,17.251780 34.357818,17.438629 34.458080,17.702948 C 34.567453,17.985504 34.535552,18.263498 34.362377,18.536932 C 34.189198,18.801258 33.956776,18.988107 33.665112,19.097479 C 33.336985,19.225086 33.031647,19.234200 32.749096,19.124823 C 32.457429,19.024565 32.261465,18.837716 32.161205,18.564276 C 32.060945,18.290842 32.088289,18.017405 32.243237,17.743963 C 32.398184,17.470530 32.626048,17.279124 32.926830,17.169744 C 33.236725,17.051260 33.546620,17.042145 33.856518,17.142401 M 36.454174,18.933416 C 37.274486,15.679516 37.794016,12.384598 38.012768,9.0486507 C 38.386464,8.6293931 39.598702,8.2875966 41.649487,8.0232601 C 42.478908,7.9138990 43.276433,7.8683261 44.042065,7.8865414 C 44.798567,7.9138990 45.322655,8.0415031 45.614330,8.2693539 C 46.434633,11.368323 46.935934,14.590325 47.118237,17.935369 C 47.154684,18.536935 46.931377,18.928862 46.448315,19.111151 C 46.266013,19.184070 46.106508,19.220528 45.969799,19.220526 C 45.741925,19.220528 45.577863,19.124825 45.477612,18.933416 C 45.523175,18.386545 45.545962,17.853342 45.545971,17.333807 C 45.545962,16.668448 45.509503,16.025870 45.436596,15.406073 L 38.463940,16.622869 C 38.381906,16.896312 38.304433,17.169749 38.231518,17.443182 L 38.012768,18.277166 C 38.012766,18.887846 37.739329,19.243315 37.192455,19.343573 C 37.073965,19.370919 36.969147,19.384591 36.878002,19.384588 C 36.549877,19.384591 36.408601,19.234200 36.454174,18.933416 M 45.012768,13.122869 C 44.757551,12.247879 44.424869,11.377437 44.014721,10.511541 C 43.777734,10.128741 43.276433,9.9373345 42.510815,9.9373226 C 42.082424,9.9373345 41.553778,10.019366 40.924877,10.183416 C 40.168363,10.383949 39.698962,10.620928 39.516674,10.894354 C 39.425525,12.042801 39.243234,13.236810 38.969799,14.476385 L 45.012768,13.122869 M 51.602612,13.450994 C 52.122140,13.505690 53.293363,13.364414 55.116283,13.027166 C 56.939193,12.680821 58.165103,12.348139 58.794018,12.029119 C 59.368227,12.165848 59.659893,12.493973 59.669018,13.013494 C 59.678122,13.542149 59.432029,13.888502 58.930737,14.052557 L 51.520580,15.570135 C 51.447662,15.880037 51.411203,16.158031 51.411205,16.404119 C 51.411203,16.759593 51.488677,17.060374 51.643627,17.306463 C 51.889719,17.716624 52.012765,18.181467 52.012768,18.700994 C 51.921620,19.092924 51.625396,19.307117 51.124096,19.343573 C 50.622793,19.380033 50.285553,19.266101 50.112377,19.001776 C 49.793366,17.516103 49.638419,15.980297 49.647533,14.394354 C 49.647533,12.872227 49.734122,11.058427 49.907299,8.9529476 C 50.299225,8.4334298 51.484120,8.0779614 53.461987,7.8865414 C 54.300523,7.8045241 55.170965,7.7589513 56.073315,7.7498226 C 56.966536,7.7407221 57.768619,7.7407221 58.479565,7.7498226 C 59.199607,8.1326488 59.559633,8.5929348 59.559643,9.1306820 C 59.559633,9.4952776 59.304425,9.7960586 58.794018,10.033026 C 57.645572,9.7869440 56.533594,9.6638973 55.458080,9.6638851 C 54.382555,9.6730118 53.211332,10.046709 51.944408,10.784979 C 51.780344,11.887853 51.666411,12.776524 51.602612,13.450994 M 62.895580,18.919744 C 62.594799,16.796052 62.444408,14.777173 62.444408,12.863104 C 62.444408,11.423010 62.544669,9.9464491 62.745190,8.4334164 C 63.027741,7.9138990 63.547272,7.6814774 64.303783,7.7361507 C 64.932687,7.7908523 65.247140,8.0004875 65.247143,8.3650570 C 65.247140,8.4106433 65.242583,8.4562162 65.233471,8.5017757 C 66.026436,10.917151 66.974352,12.653478 68.077221,13.710760 C 69.344141,13.027175 70.510807,11.299963 71.577221,8.5291195 C 71.577212,8.5200182 71.577212,8.5017891 71.577221,8.4744320 C 71.568097,8.4562162 71.563540,8.4425443 71.563549,8.4334164 C 71.864321,7.9047844 72.351951,7.6769201 73.026440,7.7498226 C 73.582418,7.8136387 73.860413,8.0141593 73.860424,8.3513851 C 73.860413,8.3969715 73.855855,8.4516589 73.846752,8.5154476 C 73.600647,9.7003556 73.509502,11.195146 73.573315,12.999823 C 73.618876,14.403476 73.737366,16.158031 73.928783,18.263494 C 73.974345,18.737456 73.787496,19.070138 73.368237,19.261541 C 73.240622,19.316231 73.113018,19.343575 72.985424,19.343573 C 72.684633,19.343575 72.356508,19.202299 72.001049,18.919744 C 72.028383,17.452301 71.973696,15.392407 71.836987,12.740057 C 70.952863,14.043450 70.023177,15.137199 69.047924,16.021307 C 68.874741,16.504385 68.523829,16.759593 67.995190,16.786932 C 67.457424,16.814281 67.092841,16.636547 66.901440,16.253729 C 65.926176,14.831861 65.110421,13.218581 64.454174,11.413885 C 64.335683,12.179520 64.276438,12.977045 64.276440,13.806463 C 64.276438,15.283032 64.463287,16.768708 64.836987,18.263494 C 64.855213,18.746570 64.663807,19.079252 64.262768,19.261541 C 64.135162,19.316231 64.007558,19.343575 63.879955,19.343573 C 63.579173,19.343575 63.251048,19.202299 62.895580,18.919744"
     id="text1081" />
</svg>
