<?xml version="1.0" encoding="UTF-8" standalone="no"?>
<!DOCTYPE svg PUBLIC "-//W3C//DTD SVG 20010904//EN"
"http://www.w3.org/TR/2001/REC-SVG-20010904/DTD/svg10.dtd">
<!-- Created with Sodipodi ("http://www.sodipodi.com/") -->
<svg
   id="svg604"
   sodipodi:version="0.32"
   width="72pt"
   height="72pt"
   sodipodi:docbase="/home/zeus/Desktop/icons/gartoon/svg"
   sodipodi:docname="/home/zeus/Desktop/icons/gartoon/svg/gnome-library.svg"
   xmlns="http://www.w3.org/2000/svg"
   xmlns:sodipodi="http://sodipodi.sourceforge.net/DTD/sodipodi-0.dtd"
   xmlns:xlink="http://www.w3.org/1999/xlink">
  <defs
     id="defs606">
    <linearGradient
       id="linearGradient612">
      <stop
         style="stop-color:#7fa8e3;stop-opacity:0.741176;"
         offset="0.000000"
         id="stop613" />
      <stop
         style="stop-color:#ffffff;stop-opacity:0;"
         offset="1.000000"
         id="stop614" />
    </linearGradient>
    <linearGradient
       xlink:href="#linearGradient612"
       id="linearGradient615"
       x1="50.6438866"
       y1="5.36792946"
       x2="35.7520943"
       y2="68.0443573"
       gradientUnits="userSpaceOnUse"
       spreadMethod="pad" />
  </defs>
  <sodipodi:namedview
     id="base" />
  <path
     style="fill:#000000;fill-rule:evenodd;stroke:none;stroke-opacity:1;stroke-width:1pt;stroke-linejoin:miter;stroke-linecap:butt;fill-opacity:0.301471;"
     d="M 12.8163 74.753 C 10.3856 73.6481 7.07107 70.1126 8.83884 65.2512 C 9.72267 59.948 25.6326 13.1021 29.1682 10.8924 C 31.3778 8.90368 34.582 8.13026 39.1119 9.34561 C 42.8684 10.2295 76.6769 19.0684 78.6656 20.8361 C 80.6544 22.6039 82.2012 24.0402 80.6544 27.9072 C 79.5496 29.8959 66.4017 74.532 66.1808 77.4047 C 65.2969 80.4983 62.7558 84.2548 58.5573 84.0338 C 54.3589 83.8128 15.9099 75.4159 12.8163 74.753 z "
     id="path794"
     sodipodi:nodetypes="ccccccccc"
     transform="matrix(1.114903,0.000000,0.000000,1.114903,-5.305332,-3.889256)" />
  <path
     style="fill:#3d4e67;fill-rule:evenodd;stroke:none;stroke-opacity:1;stroke-width:1pt;stroke-linejoin:miter;stroke-linecap:butt;fill-opacity:1;"
     d="M 12.8163 74.753 C 10.3856 73.6481 7.07107 70.1126 8.83884 65.2512 C 9.72267 59.948 25.6326 13.1021 29.1682 10.8924 C 31.3778 8.90368 34.582 8.13026 39.1119 9.34561 C 42.8684 10.2295 76.6769 19.0684 78.6656 20.8361 C 80.6544 22.6039 82.2012 24.0402 80.6544 27.9072 C 79.5496 29.8959 66.4017 74.532 66.1808 77.4047 C 65.2969 80.4983 62.7558 84.2548 58.5573 84.0338 C 54.3589 83.8128 15.9099 75.4159 12.8163 74.753 z "
     id="path609"
     sodipodi:nodetypes="ccccccccc"
     transform="matrix(1.114903,0.000000,0.000000,1.114903,-8.162471,-8.460684)" />
  <path
     style="fill:#ffffff;fill-rule:evenodd;stroke:none;stroke-opacity:1;stroke-width:1pt;stroke-linejoin:miter;stroke-linecap:butt;fill-opacity:1;"
     d="M 17.8987 70.9965 C 15.3576 70.3336 11.7114 69.6706 13.0373 65.6932 C 15.468 55.9705 27.8424 18.6264 33.1456 13.986 C 34.361 12.8811 38.4489 12.4392 46.1829 14.8699 C 55.0218 17.5215 72.9204 23.4877 74.6882 24.3716 C 76.4559 25.2555 77.1189 25.2555 75.793 29.233 C 73.8043 33.2105 64.9655 67.24 62.7557 72.9852 C 61.209 77.0732 60.8775 78.9514 58.2258 78.9514 "
     id="path608"
     sodipodi:nodetypes="cccccccs"
     transform="matrix(1.114903,0.000000,0.000000,1.114903,-8.162471,-8.460684)" />
  <path
     style="fill:url(#linearGradient615);fill-rule:evenodd;stroke:none;stroke-opacity:1;stroke-width:1pt;stroke-linejoin:miter;stroke-linecap:butt;fill-opacity:1;"
     d="M 28.75 13.75 C 28.75 13.75 31.875 7.49995 39.6875 9.37495 C 47.5 11.25 78.125 19.375 77.8125 21.875 C 77.5 24.375 71.875 39.0625 71.5625 40.3125 C 71.25 41.5625 42.5 40.9375 31.5625 47.5 C 20.625 54.0625 12.5 59.6875 12.5 59.6875 C 12.5 59.6875 23.75 24.6875 28.75 13.75 z "
     id="path636"
     transform="matrix(0.946780,0.000000,0.000000,0.946780,-0.480566,0.409517)" />
  <g
     id="g702"
     transform="matrix(0.767385,0.000000,0.000000,0.767385,5.091081,11.02845)">
    <defs
       id="defs654">
      <linearGradient
         id="linearGradient666">
        <stop
           style="stop-color:#a6d7ff;stop-opacity:1;"
           offset="0.000000"
           id="stop667" />
        <stop
           style="stop-color:#ffffff;stop-opacity:0.396078;"
           offset="1.000000"
           id="stop668" />
      </linearGradient>
      <linearGradient
         id="linearGradient660">
        <stop
           style="stop-color:#3882d2;stop-opacity:1;"
           offset="0.000000"
           id="stop661" />
        <stop
           style="stop-color:#ffffff;stop-opacity:1;"
           offset="1.000000"
           id="stop662" />
      </linearGradient>
      <linearGradient
         xlink:href="#linearGradient660"
         id="linearGradient663"
         x1="24.8720913"
         y1="97.8506012"
         x2="54.9295425"
         y2="95.5566864"
         gradientUnits="userSpaceOnUse"
         gradientTransform="scale(1.203807,0.830698)"
         spreadMethod="pad" />
      <linearGradient
         xlink:href="#linearGradient666"
         id="linearGradient665"
         x1="77.3604736"
         y1="65.4081421"
         x2="55.6024742"
         y2="83.4317398"
         gradientUnits="userSpaceOnUse"
         gradientTransform="scale(1.203807,0.830698)"
         spreadMethod="pad" />
    </defs>
    <sodipodi:namedview
       id="namedview712" />
    <path
       style="fill:#00043b;fill-rule:evenodd;stroke:none;stroke-opacity:1;stroke-width:1pt;stroke-linejoin:miter;stroke-linecap:butt;fill-opacity:1;"
       d="M 5.01995 24.1501 C 2.46076 23.9533 0.639797 26.7093 0.590582 27.8413 C -1.47645 32.812 -1.47645 37.1922 -0.295291 41.8676 C 0.935089 45.4111 1.42724 47.3305 4.42937 46.297 C 0.344508 51.8091 1.13195 56.4353 3.54349 61.9474 L 41.0454 89.7047 L 91.5401 67.5579 L 82.9767 61.6521 L 82.5338 57.8133 L 87.849 55.5986 L 81.205 51.3169 L 87.1108 49.2499 L 78.9903 43.7869 L 78.5474 33.3042 C 77.5138 32.4183 45.7701 14.2579 43.2601 12.4861 C 40.4548 13.5197 6.4964 23.7072 5.01995 24.1501 z "
       id="path690"
       sodipodi:nodetypes="cccccccccccccccc"
       transform="matrix(0.859390,0.000000,0.000000,0.859390,6.358865,7.184534)" />
    <path
       style="font-size:12;fill:#00660d;fill-rule:evenodd;stroke-width:1pt;"
       d="M 42.5218 87.0471 L 87.7013 65.1956 L 80.9097 60.1756 L 93.3118 66.0815 L 42.5218 87.0471 z "
       id="path657"
       sodipodi:nodetypes="ccccc"
       transform="matrix(0.739674,0.000000,0.000000,0.739674,9.754251,15.89977)" />
    <path
       style="font-size:12;fill:url(#linearGradient663);fill-rule:evenodd;stroke-width:1pt;"
       d="M 40.7501 67.8532 L 37.5019 81.7319 L 42.8172 86.4565 L 87.9966 65.7862 L 86.2249 51.6122 L 40.7501 67.8532 z "
       id="path659"
       transform="matrix(0.739674,0.000000,0.000000,0.739674,9.754251,15.89977)" />
    <path
       style="font-size:12;fill:url(#linearGradient665);fill-rule:evenodd;stroke-width:1pt;"
       d="M 40.7501 67.8532 L 37.5019 81.7319 L 42.8172 86.4565 L 87.9966 65.7862 L 86.2249 51.6122 L 40.7501 67.8532 z "
       id="path664"
       transform="matrix(0.739674,0.000000,0.000000,0.739674,9.754251,15.89977)" />
    <path
       style="font-size:12;fill:#009414;fill-rule:evenodd;stroke-width:1pt;"
       d="M 4.42936 41.8676 L 44.8842 71.3967 L 88.8825 51.9075 L 49.3136 28.2842 L 4.42936 41.8676 z "
       id="path655"
       transform="matrix(0.739674,0.000000,0.000000,0.739674,9.754251,15.89977)" />
    <path
       style="font-size:12;fill:#00660d;fill-rule:evenodd;stroke-width:1pt;"
       d="M 4.72465 41.8676 C 1.08273 48.4624 0.0984287 53.5808 4.42936 58.9945 L 43.4077 87.6377 C 40.947 82.4209 40.5532 77.2041 44.8842 71.1014 L 4.72465 41.8676 z "
       id="path656"
       sodipodi:nodetypes="ccccc"
       transform="matrix(0.739674,0.000000,0.000000,0.739674,9.754251,15.89977)" />
    <path
       style="font-size:12;fill:#a55800;fill-rule:evenodd;stroke-width:1pt;fill-opacity:1;"
       d="M 42.5218 87.0471 L 87.7013 65.1956 L 80.9097 60.1756 L 93.3118 66.0815 L 42.5218 87.0471 z "
       id="path680"
       sodipodi:nodetypes="ccccc"
       transform="matrix(0.739674,0.000000,0.000000,0.739674,6.709013,-8.772850e-2)" />
    <path
       style="font-size:12;fill:url(#linearGradient663);fill-rule:evenodd;stroke-width:1pt;"
       d="M 40.7501 67.8532 L 37.5019 81.7319 L 42.8172 86.4565 L 87.9966 65.7862 L 86.2249 51.6122 L 40.7501 67.8532 z "
       id="path681"
       transform="matrix(0.739674,0.000000,0.000000,0.739674,6.709013,-8.772850e-2)" />
    <path
       style="font-size:12;fill:url(#linearGradient665);fill-rule:evenodd;stroke-width:1pt;"
       d="M 40.7501 67.8532 L 37.5019 81.7319 L 42.8172 86.4565 L 87.9966 65.7862 L 86.2249 51.6122 L 40.7501 67.8532 z "
       id="path682"
       transform="matrix(0.739674,0.000000,0.000000,0.739674,6.709013,-8.772850e-2)" />
    <path
       style="font-size:12;fill:#ff8900;fill-rule:evenodd;stroke-width:1pt;fill-opacity:1;"
       d="M 4.42936 41.8676 L 44.8842 71.3967 L 88.8825 51.9075 L 49.3136 28.2842 L 4.42936 41.8676 z "
       id="path683"
       transform="matrix(0.739674,0.000000,0.000000,0.739674,6.709013,-8.772850e-2)" />
    <path
       style="font-size:12;fill:#a45800;fill-rule:evenodd;stroke-width:1pt;fill-opacity:1;"
       d="M 4.72465 41.8676 C 1.08273 48.4624 0.0984287 53.5808 4.42936 58.9945 L 43.4077 87.6377 C 40.947 82.4209 40.5532 77.2041 44.8842 71.1014 L 4.72465 41.8676 z "
       id="path684"
       sodipodi:nodetypes="ccccc"
       transform="matrix(0.739674,0.000000,0.000000,0.739674,6.709013,-8.772850e-2)" />
    <path
       style="fill:none;fill-rule:evenodd;stroke:#ababab;stroke-opacity:1;stroke-width:1pt;stroke-linejoin:miter;stroke-linecap:butt;fill-opacity:1;"
       d="M 36.9113 56.9274 L 65.2593 44.5252 "
       id="path685"
       transform="matrix(0.859390,0.000000,0.000000,0.859390,6.358865,7.184534)" />
    <path
       style="fill:none;fill-rule:evenodd;stroke:#afafaf;stroke-opacity:1;stroke-width:1pt;stroke-linejoin:miter;stroke-linecap:butt;fill-opacity:1;"
       d="M 36.6161 60.7662 L 64.3734 48.9546 "
       id="path686"
       transform="matrix(0.859390,0.000000,0.000000,0.859390,6.358865,7.184534)" />
    <path
       style="fill:none;fill-rule:evenodd;stroke:#bfbfbf;stroke-opacity:1;stroke-width:1pt;stroke-linejoin:miter;stroke-linecap:butt;fill-opacity:1;"
       d="M 40.7501 76.1213 L 68.8027 63.1285 "
       id="path687"
       transform="matrix(0.859390,0.000000,0.000000,0.859390,6.358865,7.184534)" />
    <path
       style="fill:none;fill-rule:evenodd;stroke:#bdbdbd;stroke-opacity:0.607143;stroke-width:1pt;stroke-linejoin:miter;stroke-linecap:butt;fill-opacity:1;"
       d="M 40.4548 80.5507 L 66.7357 68.7391 "
       id="path688"
       transform="matrix(0.859390,0.000000,0.000000,0.859390,6.358865,7.184534)" />
    <path
       style="fill:#bd0000;fill-rule:evenodd;stroke:none;stroke-opacity:1;stroke-width:1pt;stroke-linejoin:miter;stroke-linecap:butt;fill-opacity:1;"
       d="M 41.3407 55.1557 L 42.2266 66.0814 L 44.8842 60.7662 L 48.4277 65.1956 L 46.9513 52.7934 L 41.3407 55.1557 z "
       id="path689"
       transform="matrix(0.859390,0.000000,0.000000,0.859390,6.358865,7.184534)" />
  </g>
</svg>
