<?xml version="1.0" encoding="UTF-8" standalone="no"?>
<!-- Created with Sodipodi ("http://www.sodipodi.com/") -->
<svg
   xmlns:dc="http://purl.org/dc/elements/1.1/"
   xmlns:cc="http://web.resource.org/cc/"
   xmlns:rdf="http://www.w3.org/1999/02/22-rdf-syntax-ns#"
   xmlns:svg="http://www.w3.org/2000/svg"
   xmlns="http://www.w3.org/2000/svg"
   xmlns:xlink="http://www.w3.org/1999/xlink"
   xmlns:sodipodi="http://sodipodi.sourceforge.net/DTD/sodipodi-0.dtd"
   xmlns:inkscape="http://www.inkscape.org/namespaces/inkscape"
   id="svg604"
   sodipodi:version="0.32"
   width="72pt"
   height="72pt"
   sodipodi:docbase="/home/tweenk/GNUtoon/apps"
   sodipodi:docname="liferea.svg"
   inkscape:version="0.45.1"
   inkscape:output_extension="org.inkscape.output.svg.inkscape">
  <metadata
     id="metadata32">
    <rdf:RDF>
      <cc:Work
         rdf:about="">
        <dc:format>image/svg+xml</dc:format>
        <dc:type
           rdf:resource="http://purl.org/dc/dcmitype/StillImage" />
      </cc:Work>
    </rdf:RDF>
  </metadata>
  <defs
     id="defs606">
    <linearGradient
       id="linearGradient612">
      <stop
         style="stop-color:#7fa8e3;stop-opacity:0.741176;"
         offset="0.000000"
         id="stop613" />
      <stop
         style="stop-color:#ffffff;stop-opacity:0;"
         offset="1.000000"
         id="stop614" />
    </linearGradient>
    <linearGradient
       xlink:href="#linearGradient612"
       id="linearGradient615"
       x1="50.6438866"
       y1="5.36792946"
       x2="35.7520943"
       y2="68.0443573"
       gradientUnits="userSpaceOnUse"
       spreadMethod="pad" />
    <linearGradient
       inkscape:collect="always"
       xlink:href="#linearGradient612"
       id="linearGradient1094"
       gradientUnits="userSpaceOnUse"
       spreadMethod="pad"
       x1="50.6438866"
       y1="5.36792946"
       x2="35.7520943"
       y2="68.0443573" />
    <linearGradient
       inkscape:collect="always"
       xlink:href="#linearGradient584"
       id="linearGradient1140"
       gradientUnits="userSpaceOnUse"
       gradientTransform="matrix(1.036821,-1.811349e-6,3.827296e-7,0.964487,2.057071e-6,1.075978e-6)"
       spreadMethod="pad"
       x1="28.2520447"
       y1="32.8688049"
       x2="68.3603058"
       y2="21.4794312" />
  </defs>
  <sodipodi:namedview
     id="base"
     inkscape:zoom="2.4930556"
     inkscape:cx="33.513797"
     inkscape:cy="47.073803"
     inkscape:window-width="795"
     inkscape:window-height="619"
     inkscape:window-x="45"
     inkscape:window-y="74"
     inkscape:current-layer="svg604" />
  <g
     id="g1089"
     transform="matrix(0.916616,0.000000,0.000000,0.916616,9.472671e-2,0.109286)">
    <path
       style="fill:#000000;fill-opacity:0.30147097;fill-rule:evenodd;stroke:none;stroke-width:1.0000000pt;stroke-linecap:butt;stroke-linejoin:miter;stroke-opacity:1.0000000"
       d="M 12.816300,74.753000 C 10.385600,73.648100 7.0710700,70.112600 8.8388400,65.251200 C 9.7226700,59.948000 25.632600,13.102100 29.168200,10.892400 C 31.377800,8.9036800 34.582000,8.1302600 39.111900,9.3456100 C 42.868400,10.229500 76.676900,19.068400 78.665600,20.836100 C 80.654400,22.603900 82.201200,24.040200 80.654400,27.907200 C 79.549600,29.895900 66.401700,74.532000 66.180800,77.404700 C 65.296900,80.498300 62.755800,84.254800 58.557300,84.033800 C 54.358900,83.812800 15.909900,75.415900 12.816300,74.753000 z "
       id="path794"
       sodipodi:nodetypes="ccccccccc"
       transform="matrix(1.114903,0.000000,0.000000,1.114903,-5.305332,-3.889256)" />
    <path
       style="fill:#3d4e67;fill-opacity:1.0000000;fill-rule:evenodd;stroke:none;stroke-width:1.0000000pt;stroke-linecap:butt;stroke-linejoin:miter;stroke-opacity:1.0000000"
       d="M 12.816300,74.753000 C 10.385600,73.648100 7.0710700,70.112600 8.8388400,65.251200 C 9.7226700,59.948000 25.632600,13.102100 29.168200,10.892400 C 31.377800,8.9036800 34.582000,8.1302600 39.111900,9.3456100 C 42.868400,10.229500 76.676900,19.068400 78.665600,20.836100 C 80.654400,22.603900 82.201200,24.040200 80.654400,27.907200 C 79.549600,29.895900 66.401700,74.532000 66.180800,77.404700 C 65.296900,80.498300 62.755800,84.254800 58.557300,84.033800 C 54.358900,83.812800 15.909900,75.415900 12.816300,74.753000 z "
       id="path609"
       sodipodi:nodetypes="ccccccccc"
       transform="matrix(1.114903,0.000000,0.000000,1.114903,-8.162471,-8.460684)" />
    <path
       style="fill:#ffffff;fill-opacity:1.0000000;fill-rule:evenodd;stroke:none;stroke-width:1.0000000pt;stroke-linecap:butt;stroke-linejoin:miter;stroke-opacity:1.0000000"
       d="M 17.898700,70.996500 C 15.357600,70.333600 11.711400,69.670600 13.037300,65.693200 C 15.468000,55.970500 27.842400,18.626400 33.145600,13.986000 C 34.361000,12.881100 38.448900,12.439200 46.182900,14.869900 C 55.021800,17.521500 72.920400,23.487700 74.688200,24.371600 C 76.455900,25.255500 77.118900,25.255500 75.793000,29.233000 C 73.804300,33.210500 64.965500,67.240000 62.755700,72.985200 C 61.209000,77.073200 60.877500,78.951400 58.225800,78.951400"
       id="path608"
       sodipodi:nodetypes="cccccccs"
       transform="matrix(1.114903,0.000000,0.000000,1.114903,-8.162471,-8.460684)" />
    <path
       style="fill:url(#linearGradient1094);fill-opacity:1.0000000;fill-rule:evenodd;stroke:none;stroke-width:1.0000000pt;stroke-linecap:butt;stroke-linejoin:miter;stroke-opacity:1.0000000"
       d="M 28.750000,13.750000 C 28.750000,13.750000 31.875000,7.4999500 39.687500,9.3749500 C 47.500000,11.250000 78.125000,19.375000 77.812500,21.875000 C 77.500000,24.375000 71.875000,39.062500 71.562500,40.312500 C 71.250000,41.562500 42.500000,40.937500 31.562500,47.500000 C 20.625000,54.062500 12.500000,59.687500 12.500000,59.687500 C 12.500000,59.687500 23.750000,24.687500 28.750000,13.750000 z "
       id="path636"
       transform="matrix(0.946780,0.000000,0.000000,0.946780,-0.480566,0.409517)" />
  </g>
  <g
     id="g1118"
     transform="matrix(0.8221196,0,0,0.8221196,12.227265,22.018187)">
    <defs
       id="defs571">
      <linearGradient
         id="linearGradient584">
        <stop
           style="stop-color:#ffffff;stop-opacity:0;"
           offset="0.000000"
           id="stop585" />
        <stop
           style="stop-color:#ffffff;stop-opacity:1;"
           offset="1.000000"
           id="stop586" />
      </linearGradient>
      <linearGradient
         xlink:href="#linearGradient584"
         id="linearGradient587"
         x1="28.252045"
         y1="32.868805"
         x2="68.360306"
         y2="21.479431"
         gradientUnits="userSpaceOnUse"
         spreadMethod="pad"
         gradientTransform="matrix(1.036821,-1.811349e-6,3.827296e-7,0.964487,2.057071e-6,1.075978e-6)" />
    </defs>
    <sodipodi:namedview
       id="namedview1124" />
    <path
       sodipodi:type="arc"
       style="font-size:12px;fill:none;fill-rule:evenodd;stroke:#000000;stroke-width:8.5;stroke-opacity:0.3"
       id="path589"
       d="M 83.823837 45.390781 A 40.459526 40.459522 0 1 1  2.9047852,45.390781 A 40.459526 40.459522 0 1 1  83.823837 45.390781 z"
       sodipodi:cx="43.364311"
       sodipodi:cy="45.390781"
       sodipodi:rx="40.459526"
       sodipodi:ry="40.459522"
       transform="matrix(0.754176,0,0,0.754176,13.7671,13.54871)" />
    <path
       sodipodi:type="arc"
       style="font-size:12px;fill:#31baff;fill-rule:evenodd;stroke-width:1pt"
       id="path573"
       d="M 83.823837 45.390781 A 40.459526 40.459522 0 1 1  2.9047852,45.390781 A 40.459526 40.459522 0 1 1  83.823837 45.390781 z"
       sodipodi:cx="43.364311"
       sodipodi:cy="45.390781"
       sodipodi:rx="40.459526"
       sodipodi:ry="40.459522"
       transform="matrix(0.677455,0,0,0.677455,14.04003,13.83949)" />
    <path
       style="font-size:12px;fill:#e48e6f;fill-rule:evenodd;stroke-width:1pt"
       d="M 28.507,13.4277 L 33.5075,22.0666 L 21.4273,37.0306 C 21.4273,37.0306 27.3038,50.7498 31.5585,50.5779 C 28.9177,51.1396 28.922,62.4819 30.2424,66.003 C 34.3774,62.4315 14.8677,57.4856 16.5276,47.5264 C 18.1874,37.5671 17.0138,35.0166 12.4491,42.0711 C 7.88442,49.1255 7.05448,50.9929 7.46945,47.6731 C 7.88442,44.3534 6.46331,19.7781 28.507,13.4277 z "
       id="path576"
       sodipodi:nodetypes="ccccccccc"
       transform="matrix(0.800627,0,0,0.800627,9.030947,9.245272)" />
    <path
       style="font-size:12px;fill:#fffcac;fill-rule:evenodd;stroke-width:1pt"
       d="M 30.7077,12.4007 L 37.7622,22.36 L 24.0682,36.8839 C 24.0682,36.8839 33.6125,50.1629 33.6125,50.5779 C 33.6125,50.9929 29.8778,61.3671 29.8778,61.3671 C 29.8778,61.3671 16.5988,54.3126 18.2587,44.3534 C 19.9185,34.3941 18.2587,30.6594 13.694,37.7139 C 9.12933,44.7683 7.05448,50.9929 7.46945,47.6731 C 7.88442,44.3534 9.5443,16.5504 30.7077,12.4007 z "
       id="path574"
       transform="matrix(0.800627,0,0,0.800627,9.030947,9.245272)" />
    <path
       style="font-size:12px;fill:#ffd87c;fill-rule:evenodd;stroke-width:1pt"
       d="M 28.507,13.4277 L 33.5075,22.0666 L 21.4273,37.0306 C 21.4273,37.0306 27.3038,50.7498 31.5585,50.5779 C 28.9177,51.1396 27.6771,56.6723 28.9975,60.1934 C 27.5304,55.792 16.5276,56.2407 18.1875,46.2815 C 19.8473,36.3222 18.2587,30.6594 13.694,37.7139 C 9.12933,44.7683 7.05448,50.9929 7.46945,47.6731 C 7.88442,44.3534 6.46331,19.7781 28.507,13.4277 z "
       id="path575"
       sodipodi:nodetypes="ccccccccc"
       transform="matrix(0.800627,0,0,0.800627,9.030947,9.245272)" />
    <path
       style="font-size:12px;fill:#e48e6f;fill-rule:evenodd;stroke-width:1pt"
       d="M 42.8405,18.697 C 42.8405,18.697 48.1222,22.5116 42.2536,28.0867 C 36.385,33.6619 28.1691,35.7159 35.2113,39.5304 C 42.2536,43.345 51.9367,43.9318 51.0564,37.183 C 50.1762,30.4342 49.0025,16.0562 42.8405,18.697 z "
       id="path577"
       transform="matrix(0.800627,0,0,0.800627,9.030947,9.245272)" />
    <path
       style="font-size:12px;fill:#fffbaa;fill-rule:evenodd;stroke-width:1pt"
       d="M 42.8405,18.697 C 42.8405,18.697 48.1222,22.5116 42.2536,28.0867 C 36.385,33.6619 28.1691,35.7159 35.2113,39.5304 C 42.2536,43.345 51.9367,43.9318 51.0564,37.183 C 50.1762,30.4342 49.0025,16.0562 42.8405,18.697 z "
       id="path578"
       transform="matrix(0.775387,0,0,0.75162,10.79087,10.14587)" />
    <path
       style="font-size:12px;fill:#ffd87c;fill-rule:evenodd;stroke-width:1pt"
       d="M 42.8405,18.697 C 42.8405,18.697 48.1222,22.5116 42.2536,28.0867 C 36.385,33.6619 28.1691,35.7159 35.2113,39.5304 C 42.2536,43.345 51.9367,43.9318 51.0564,37.183 C 50.1762,30.4342 49.0025,16.0562 42.8405,18.697 z "
       id="path579"
       transform="matrix(0.661806,0,0,0.712415,14.48187,10.86636)" />
    <path
       style="font-size:12px;fill:#e48e6f;fill-rule:evenodd;stroke-width:1pt"
       d="M 77.1715,47.1595 C 77.1715,47.1595 63.087,45.1055 62.2067,45.6924 C 61.3264,46.2793 49.0024,47.453 50.1762,53.9084 C 51.3499,60.3638 55.4579,65.6455 50.1762,69.4601 C 44.8945,73.2746 39.0259,76.2089 44.3076,77.9695 C 49.5893,79.73 56.925,77.676 59.2724,75.622 C 61.6198,73.568 56.6316,72.3943 57.2184,66.5258 C 57.8053,60.6572 56.0447,56.8427 62.2067,58.8966 C 68.3687,60.9506 68.0753,63.2981 72.1832,58.8966 C 76.2912,54.4952 79.8124,53.3215 77.1715,47.1595 z "
       id="path580"
       transform="matrix(0.800627,0,0,0.800627,9.030947,9.245272)" />
    <path
       style="font-size:12px;fill:#fffcac;fill-rule:evenodd;stroke-width:1pt"
       d="M 77.1715,47.1595 C 78.3452,45.6098 63.087,41.3862 62.2067,43.8328 C 61.3264,41.9402 46.3615,44.6636 47.5354,51.1189 C 48.7091,57.5744 53.6973,64.7157 48.4156,68.5303 C 43.1339,72.3448 39.0259,76.2089 44.3076,77.9695 C 49.5893,79.73 56.925,77.676 59.2724,75.622 C 61.6198,73.568 55.4579,72.3943 56.0447,66.5258 C 56.6316,60.6572 56.0447,55.293 62.2067,57.3469 C 68.3687,59.4009 68.0753,61.7484 72.1832,57.3469 C 76.2912,52.9455 79.8124,53.3215 77.1715,47.1595 z "
       id="path582"
       transform="matrix(0.800627,0,0,0.757977,9.030947,11.18955)"
       sodipodi:nodetypes="cccccccccc" />
    <path
       style="font-size:12px;fill:#ffd87c;fill-rule:evenodd;stroke-width:1pt"
       d="M 77.1715,47.1595 C 77.1715,47.1595 63.087,45.1055 62.2067,45.6924 C 61.3264,46.2793 49.0024,47.453 50.1762,53.9084 C 51.3499,60.3638 55.4579,65.6455 50.1762,69.4601 C 44.8945,73.2746 39.0259,76.2089 44.3076,77.9695 C 49.5893,79.73 56.925,77.676 59.2724,75.622 C 61.6198,73.568 55.4579,72.3943 56.0447,66.5258 C 56.6316,60.6572 56.0447,55.293 62.2067,57.3469 C 68.3687,59.4009 68.0753,61.7484 72.1832,57.3469 C 76.2912,52.9455 79.8124,53.3215 77.1715,47.1595 z "
       id="path581"
       transform="matrix(0.800627,0,0,0.757977,9.030947,11.18955)"
       sodipodi:nodetypes="cccccccccc" />
    <path
       transform="matrix(0.736756,0,0,0.736756,11.46844,10.81549)"
       style="font-size:12px;fill:none;fill-rule:evenodd;stroke:#283d53;stroke-width:8.5"
       d="M 83.8238,45.3908 C 83.8238,67.7244 65.698,85.8503 43.3643,85.8503 C 21.0307,85.8503 2.90479,67.7244 2.90479,45.3908 C 2.90479,23.0571 21.0307,4.93126 43.3643,4.93126 C 65.698,4.93126 83.8238,23.0571 83.8238,45.3908 z "
       id="path654" />
    <path
       transform="matrix(0.747451,-0.532237,0.735235,0.824193,-14.8595,39.57516)"
       style="font-size:12px;fill:url(#linearGradient1140);fill-rule:evenodd;stroke-width:1pt"
       d="M 72.1832,30.4342 C 72.1832,40.1525 63.7044,48.0398 53.2571,48.0398 C 42.8099,48.0398 34.3311,40.1525 34.3311,30.4342 C 34.3311,20.7158 42.8099,12.8285 53.2571,12.8285 C 63.7044,12.8285 72.1832,20.7158 72.1832,30.4342 z "
       id="path588" />
    <path
       transform="matrix(0.976813,0.596147,-0.310505,0.607309,9.115366,-0.119572)"
       style="font-size:12px;fill:none;fill-rule:evenodd;stroke:#000000;stroke-width:3.75"
       d="M 72.701,17.3918 C 78.866,18.6809 86.6325,20.3152 88.2965,29.1009 C 87.5137,38.4186 69.472,47.1293 46.2776,47.1293 C 23.0832,47.1293 4.25867,39.0526 4.25867,29.1009 C 4.82498,20.9309 10.8693,17.4523 17.3592,17.02"
       id="path1066"
       sodipodi:nodetypes="ccccc" />
    <path
       transform="matrix(1.010367,-0.414862,0.28842,0.590484,-9.398251,49.84187)"
       style="font-size:12px;fill:none;fill-rule:evenodd;stroke:#000000;stroke-width:3.75"
       d="M 75.9724,18.7286 C 82.1374,20.0177 86.6325,20.3152 88.2965,29.1009 C 87.5137,38.4186 69.472,47.1293 46.2776,47.1293 C 23.0832,47.1293 4.25867,39.0526 4.25867,29.1009 C 4.82498,20.9309 9.48119,19.3619 15.9711,18.9296"
       id="path1067"
       sodipodi:nodetypes="ccccc" />
  </g>
</svg>
