<?xml version="1.0" encoding="UTF-8" standalone="no"?>
<!-- Created with Sodipodi ("http://www.sodipodi.com/") -->
<svg
   xmlns:dc="http://purl.org/dc/elements/1.1/"
   xmlns:cc="http://creativecommons.org/ns#"
   xmlns:rdf="http://www.w3.org/1999/02/22-rdf-syntax-ns#"
   xmlns:svg="http://www.w3.org/2000/svg"
   xmlns="http://www.w3.org/2000/svg"
   xmlns:xlink="http://www.w3.org/1999/xlink"
   xmlns:sodipodi="http://sodipodi.sourceforge.net/DTD/sodipodi-0.dtd"
   xmlns:inkscape="http://www.inkscape.org/namespaces/inkscape"
   id="svg604"
   sodipodi:version="0.32"
   width="72pt"
   height="72pt"
   sodipodi:docbase="/home/zeus/.icons/gartoon/scalable/apps/"
   sodipodi:docname="film-roll.svg"
   inkscape:version="0.46+devel"
   inkscape:output_extension="org.inkscape.output.svg.inkscape">
  <metadata
     id="metadata54">
    <rdf:RDF>
      <cc:Work
         rdf:about="">
        <dc:format>image/svg+xml</dc:format>
        <dc:type
           rdf:resource="http://purl.org/dc/dcmitype/StillImage" />
      </cc:Work>
    </rdf:RDF>
  </metadata>
  <defs
     id="defs606">
    <linearGradient
       inkscape:collect="always"
       id="linearGradient3411">
      <stop
         style="stop-color:#ed0000;stop-opacity:1;"
         offset="0"
         id="stop3413" />
      <stop
         style="stop-color:#b01911;stop-opacity:1"
         offset="1"
         id="stop3415" />
    </linearGradient>
    <linearGradient
       inkscape:collect="always"
       id="linearGradient3401">
      <stop
         style="stop-color:#f1e36c;stop-opacity:1"
         offset="0"
         id="stop3403" />
      <stop
         style="stop-color:#ff933d;stop-opacity:1"
         offset="1"
         id="stop3405" />
    </linearGradient>
    <linearGradient
       inkscape:collect="always"
       xlink:href="#linearGradient3401"
       id="linearGradient3407"
       x1="10.019531"
       y1="47.636719"
       x2="41.660156"
       y2="48.643822"
       gradientUnits="userSpaceOnUse"
       gradientTransform="matrix(0.9908869,0.1346964,-0.1346964,0.9908869,6.4083475,-5.9014721)" />
    <linearGradient
       inkscape:collect="always"
       xlink:href="#linearGradient3411"
       id="linearGradient3417"
       x1="13.548277"
       y1="43.016068"
       x2="21.378931"
       y2="44.278469"
       gradientUnits="userSpaceOnUse" />
  </defs>
  <sodipodi:namedview
     id="base"
     showgrid="false"
     inkscape:zoom="4.0226519"
     inkscape:cx="25.470551"
     inkscape:cy="45.694266"
     inkscape:window-width="691"
     inkscape:window-height="724"
     inkscape:window-x="0"
     inkscape:window-y="1"
     inkscape:current-layer="svg604" />
  <path
     transform="matrix(0.9136509,0.1241974,-0.1241974,0.9136509,13.782477,-5.9101698)"
     d="m 23.8125,12.40625 c -6.201398,0 -11.828989,1.082711 -16.34375,3.15625 -2.2573803,1.03677 -4.2876143,2.33579 -5.90625,4.09375 -1.31956262,1.433144 -2.17956403,3.358753 -2.53125,5.46875 -0.01046436,0.010369 -0.02088113,0.020786 -0.03125,0.03125 -0.2117471,0.558918 -0.317715,1.152339 -0.3125,1.75 l 0,49.375 c 0.0016483,0.713723 0.1617511,1.418175 0.46875,2.0625 0.44580595,1.842667 1.22535328,3.529957 2.40625,4.8125 1.6186357,1.75796 3.6488697,3.05698 5.90625,4.09375 4.514761,2.073539 10.142352,3.15625 16.34375,3.15625 6.201398,0 11.854184,-1.084341 16.375,-3.15625 2.260408,-1.035955 4.252735,-2.305616 5.875,-4.0625 1.622265,-1.756884 2.875,-4.198119 2.875,-6.90625 l 0,-49.375 c 0.005432,-0.053865 -0.00465,-0.068304 0,-0.15625 0.006511,-0.123125 0,-0.026295 0,-0.21875 0,-0.034113 -0.030854,-0.059726 -0.03125,-0.09375 -0.009859,-0.041804 -0.020277,-0.083474 -0.03125,-0.125 -0.026899,-0.285335 -0.07919,-0.567704 -0.15625,-0.84375 -0.010266,-0.020909 -0.020682,-0.041742 -0.03125,-0.0625 -0.299525,-2.230355 -1.24253,-4.284059 -2.625,-5.78125 -1.622265,-1.756884 -3.614592,-3.026545 -5.875,-4.0625 -4.520816,-2.071909 -10.173602,-3.15625 -16.375,-3.15625 z"
     id="path3409"
     style="opacity:1;color:#000000;fill:#000000;fill-opacity:0.29411765;fill-rule:evenodd;stroke:none;stroke-width:3;marker:none;marker-start:none;marker-mid:none;marker-end:none;visibility:visible;display:inline;overflow:visible;enable-background:accumulate"
     inkscape:original="M 23.8125 17.21875 C 12.605391 17.21875 3.53125 21.388594 3.53125 26.53125 C 3.53125 26.651781 3.5213472 26.786825 3.53125 26.90625 L 3.5 26.90625 L 3.5 76.28125 L 3.53125 76.28125 C 3.53125 81.423906 12.605391 85.59375 23.8125 85.59375 C 35.019609 85.59375 44.125 81.423907 44.125 76.28125 L 44.125 26.90625 L 44.09375 26.90625 C 44.103678 26.786671 44.125 26.651937 44.125 26.53125 C 44.125 21.388594 35.019609 17.21875 23.8125 17.21875 z "
     inkscape:radius="4.8203926"
     sodipodi:type="inkscape:offset" />
  <g
     id="g3380"
     transform="matrix(0.7444252,0.5440719,-0.5440719,0.7444252,39.682977,-12.682885)">
    <path
       sodipodi:nodetypes="ccccccccccccc"
       id="path684"
       d="m 7.0824915,62.017007 c 0.3218187,-1.376501 -0.1226592,-5.195148 0.1991137,-6.571535 2.2370087,0.028571 3.9666308,-0.548291 6.2036398,-0.51972 1.48073,-8.315746 2.26216,-13.05226 3.74289,-21.368006 -2.424683,-0.512056 -4.358232,0.24091 -6.600283,1.13493 0.439021,-1.956885 0.771688,-4.889211 1.21071,-6.846096 20.397328,-4.194601 51.141633,-4.190686 75.737563,5.706322 -0.14824,1.823673 -1.823393,4.626236 -1.971587,6.449796 -2.339792,-0.995049 -3.155648,-1.10549 -5.31135,-1.626289 -1.405848,6.964713 -3.567573,14.554997 -4.973528,21.519666 2.426408,0.763827 3.31246,1.302435 5.800122,2.224433 -0.512365,2.429398 -0.888948,3.958531 -1.401324,6.387924 -25.858906,-7.729991 -48.588973,-10.045866 -72.6359665,-6.491425 z"
       style="font-size:12px;fill:#000000;fill-opacity:0.29411765;fill-rule:evenodd;stroke-width:1pt" />
    <g
       id="g3355">
      <path
         style="font-size:12px;fill-rule:evenodd;stroke-width:1pt"
         d="m 5.7047268,56.221612 c 0.3218187,-1.376501 -0.1226592,-5.195148 0.1991137,-6.571535 2.2370087,0.028571 3.9666312,-0.548291 6.2036395,-0.51972 1.48073,-8.315746 2.26216,-13.05226 3.74289,-21.368006 -2.424683,-0.512056 -4.358232,0.24091 -6.600283,1.13493 0.4390211,-1.956885 0.771689,-4.889211 1.21071,-6.846096 20.397328,-4.194601 51.141633,-4.190686 75.737563,5.706322 -0.14824,1.823673 -1.823393,4.626236 -1.971587,6.449796 -2.339792,-0.995049 -3.155648,-1.10549 -5.31135,-1.626289 -1.405848,6.964713 -3.567573,14.554997 -4.973528,21.519666 2.426408,0.763827 3.31246,1.302435 5.800122,2.224433 -0.512365,2.429398 -0.888948,3.958531 -1.401324,6.387924 -25.858906,-7.729991 -48.588973,-10.045866 -72.6359662,-6.491425 z"
         id="path559"
         sodipodi:nodetypes="ccccccccccccc" />
      <path
         style="font-size:12px;fill:#ff7f00;fill-opacity:1;fill-rule:evenodd;stroke-width:1pt"
         d="M 73.348146,32.854832 C 66.620262,29.636415 59.19475,29.065489 52.200301,28.669477 50.497575,36.681258 50.203609,40.60232 48.500883,48.614101 55.337064,48.368719 62.4173,49.687653 69.295403,52.123352"
         id="path560"
         sodipodi:nodetypes="cccc" />
      <path
         style="font-size:12px;fill:#ff7f00;fill-opacity:1;fill-rule:evenodd;stroke-width:1pt"
         d="M 45.360687,27.892062 C 36.197258,25.41702 28.95292,27.183997 22.14095,28.19413 20.438224,36.205911 20.97813,39.000184 19.275405,47.011965 26.713341,46.211524 35.383159,45.777895 42.277787,47.554249"
         id="path561"
         sodipodi:nodetypes="cccc" />
      <path
         style="font-size:12px;fill:#ffffff;fill-rule:evenodd;stroke-width:1pt"
         d="m 73.822755,30.175138 c 0.374218,-1.486963 0.562189,-2.773325 0.936406,-4.260288 -2.097697,-0.493988 -4.009005,-1.18867 -6.21933,-1.330076 -0.374218,1.486964 -0.635726,2.621491 -1.009943,4.108454 2.136675,-0.010454 4.30791,0.635367 6.292867,1.48191 z"
         id="path563"
         sodipodi:nodetypes="ccccc" />
      <path
         style="font-size:12px;fill:#ffffff;fill-rule:evenodd;stroke-width:1pt"
         d="m 62.490982,27.895001 c 0.207161,-1.515216 0.250883,-2.809484 0.458045,-4.3247 -2.14876,-0.232781 -4.133949,-0.686617 -6.355678,-0.557207 -0.207161,1.515216 -0.341256,2.668374 -0.548417,4.18359 2.131241,-0.270533 4.370373,0.103359 6.44605,0.698317 z"
         id="path564"
         sodipodi:nodetypes="ccccc" />
      <path
         style="font-size:12px;fill:#ffffff;fill-rule:evenodd;stroke-width:1pt"
         d="m 51.676812,26.703791 c 0.207161,-1.515216 0.250883,-2.809484 0.458045,-4.3247 -2.14876,-0.232781 -4.133949,-0.686617 -6.355678,-0.557207 -0.207161,1.515216 -0.341256,2.668374 -0.548417,4.18359 2.131241,-0.270533 4.370373,0.103359 6.44605,0.698317 z"
         id="path565"
         sodipodi:nodetypes="ccccc" />
      <path
         style="font-size:12px;fill:#ffffff;fill-rule:evenodd;stroke-width:1pt"
         d="m 40.723398,25.855711 c 0.207161,-1.515216 0.250883,-2.809484 0.458045,-4.3247 -2.14876,-0.232781 -4.133949,-0.686617 -6.355678,-0.557207 -0.207161,1.515216 -0.341256,2.668374 -0.548417,4.18359 2.131241,-0.270533 4.370373,0.103359 6.44605,0.698317 z"
         id="path566"
         sodipodi:nodetypes="ccccc" />
      <path
         style="font-size:12px;fill:#ffffff;fill-rule:evenodd;stroke-width:1pt"
         d="m 40.723398,25.855711 c 0.207161,-1.515216 0.250883,-2.809484 0.458045,-4.3247 -2.14876,-0.232781 -4.133949,-0.686617 -6.355678,-0.557207 -0.207161,1.515216 -0.341256,2.668374 -0.548417,4.18359 2.131241,-0.270533 4.370373,0.103359 6.44605,0.698317 z"
         id="path567"
         sodipodi:nodetypes="ccccc" />
      <path
         style="font-size:12px;fill:#ffffff;fill-rule:evenodd;stroke-width:1pt"
         d="m 29.937632,26.141291 c 0.207161,-1.515216 0.250883,-2.809484 0.458045,-4.3247 -2.14876,-0.232781 -4.133949,-0.686617 -6.355678,-0.557207 -0.207161,1.515216 -0.341256,2.668374 -0.548417,4.18359 2.131241,-0.270533 4.370373,0.103359 6.44605,0.698317 z"
         id="path568"
         sodipodi:nodetypes="ccccc" />
      <path
         style="font-size:12px;fill:#ffffff;fill-rule:evenodd;stroke-width:1pt"
         d="m 68.076681,57.947638 c 0.374218,-1.486963 0.562189,-2.773325 0.936406,-4.260288 -2.097697,-0.493988 -4.009005,-1.18867 -6.21933,-1.330076 -0.374218,1.486964 -0.635726,2.621491 -1.009943,4.108454 2.136675,-0.010454 4.30791,0.635367 6.292867,1.48191 z"
         id="path569"
         sodipodi:nodetypes="ccccc" />
      <path
         style="font-size:12px;fill:#ffffff;fill-rule:evenodd;stroke-width:1pt"
         d="m 56.744898,55.667511 c 0.207161,-1.515216 0.250883,-2.809484 0.458045,-4.3247 -2.14876,-0.232781 -4.133949,-0.686617 -6.355678,-0.557207 -0.207161,1.515216 -0.341256,2.668374 -0.548417,4.18359 2.131241,-0.270533 4.370373,0.103359 6.44605,0.698317 z"
         id="path570"
         sodipodi:nodetypes="ccccc" />
      <path
         style="font-size:12px;fill:#ffffff;fill-rule:evenodd;stroke-width:1pt"
         d="m 45.93073,54.476281 c 0.207161,-1.515216 0.250883,-2.809484 0.458045,-4.3247 -2.14876,-0.232781 -4.133949,-0.686617 -6.355678,-0.557207 -0.207161,1.515216 -0.341256,2.668374 -0.548417,4.18359 2.131241,-0.270533 4.370373,0.103359 6.44605,0.698317 z"
         id="path571"
         sodipodi:nodetypes="ccccc" />
      <path
         style="font-size:12px;fill:#ffffff;fill-rule:evenodd;stroke-width:1pt"
         d="m 34.977328,53.628201 c 0.207161,-1.515216 0.250883,-2.809484 0.458045,-4.3247 -2.14876,-0.232781 -4.133949,-0.686617 -6.355678,-0.557207 -0.207161,1.515216 -0.341256,2.668374 -0.548417,4.18359 2.131241,-0.270533 4.370373,0.103359 6.44605,0.698317 z"
         id="path572"
         sodipodi:nodetypes="ccccc" />
      <path
         style="font-size:12px;fill:#ffffff;fill-rule:evenodd;stroke-width:1pt"
         d="m 24.191557,53.913771 c 0.207161,-1.515216 0.250883,-2.809484 0.458045,-4.3247 -2.14876,-0.232781 -4.133949,-0.686617 -6.355678,-0.557207 -0.207161,1.515216 -0.341256,2.668374 -0.548417,4.18359 2.131241,-0.270533 4.370373,0.103359 6.44605,0.698317 z"
         id="path573"
         sodipodi:nodetypes="ccccc" />
    </g>
  </g>
  <path
     sodipodi:type="inkscape:offset"
     inkscape:radius="4.8203926"
     inkscape:original="M 23.8125 17.21875 C 12.605391 17.21875 3.53125 21.388594 3.53125 26.53125 C 3.53125 26.651781 3.5213472 26.786825 3.53125 26.90625 L 3.5 26.90625 L 3.5 76.28125 L 3.53125 76.28125 C 3.53125 81.423906 12.605391 85.59375 23.8125 85.59375 C 35.019609 85.59375 44.125 81.423907 44.125 76.28125 L 44.125 26.90625 L 44.09375 26.90625 C 44.103678 26.786671 44.125 26.651937 44.125 26.53125 C 44.125 21.388594 35.019609 17.21875 23.8125 17.21875 z "
     style="opacity:1;color:#000000;fill:#000000;fill-opacity:1;fill-rule:evenodd;stroke:none;stroke-width:3;marker:none;marker-start:none;marker-mid:none;marker-end:none;visibility:visible;display:inline;overflow:visible;enable-background:accumulate"
     id="path3353"
     d="m 23.8125,12.40625 c -6.201398,0 -11.828989,1.082711 -16.34375,3.15625 -2.2573803,1.03677 -4.2876143,2.33579 -5.90625,4.09375 -1.31956262,1.433144 -2.17956403,3.358753 -2.53125,5.46875 -0.01046436,0.010369 -0.02088113,0.020786 -0.03125,0.03125 -0.2117471,0.558918 -0.317715,1.152339 -0.3125,1.75 l 0,49.375 c 0.0016483,0.713723 0.1617511,1.418175 0.46875,2.0625 0.44580595,1.842667 1.22535328,3.529957 2.40625,4.8125 1.6186357,1.75796 3.6488697,3.05698 5.90625,4.09375 4.514761,2.073539 10.142352,3.15625 16.34375,3.15625 6.201398,0 11.854184,-1.084341 16.375,-3.15625 2.260408,-1.035955 4.252735,-2.305616 5.875,-4.0625 1.622265,-1.756884 2.875,-4.198119 2.875,-6.90625 l 0,-49.375 c 0.005432,-0.053865 -0.00465,-0.068304 0,-0.15625 0.006511,-0.123125 0,-0.026295 0,-0.21875 0,-0.034113 -0.030854,-0.059726 -0.03125,-0.09375 -0.009859,-0.041804 -0.020277,-0.083474 -0.03125,-0.125 -0.026899,-0.285335 -0.07919,-0.567704 -0.15625,-0.84375 -0.010266,-0.020909 -0.020682,-0.041742 -0.03125,-0.0625 -0.299525,-2.230355 -1.24253,-4.284059 -2.625,-5.78125 -1.622265,-1.756884 -3.614592,-3.026545 -5.875,-4.0625 -4.520816,-2.071909 -10.173602,-3.15625 -16.375,-3.15625 z"
     transform="matrix(0.9136509,0.1241974,-0.1241974,0.9136509,12.101287,-10.152759)" />
  <path
     style="opacity:1;color:#000000;fill:url(#linearGradient3407);fill-opacity:1;fill-rule:evenodd;stroke:none;stroke-width:3;marker:none;marker-start:none;marker-mid:none;marker-end:none;visibility:visible;display:inline;overflow:visible;enable-background:accumulate"
     d="m 11.333198,19.456616 -5.5080618,40.519748 0.0285516,0.003881 c -0.6387043,4.698593 7.1340102,9.635359 17.3733952,11.027252 10.239385,1.391894 19.076417,-1.287022 19.715121,-5.985615 l 5.508062,-40.519748 c -0.148785,0.142099 -0.301555,0.269832 -0.461822,0.402489 -1.282128,1.061244 -2.921408,1.867301 -4.840781,2.453438 -3.838745,1.172278 -8.79396,1.508955 -14.094263,0.788458 -5.300302,-0.720498 -9.985839,-2.367694 -13.372367,-4.522141 -1.693264,-1.077222 -3.057894,-2.291616 -4.010212,-3.6566 -0.119039,-0.170624 -0.23217,-0.334503 -0.337623,-0.511162 z"
     id="path3331"
     sodipodi:nodetypes="cccsccsssssc" />
  <path
     sodipodi:type="arc"
     style="opacity:1;color:#000000;fill:#ed0000;fill-opacity:1;fill-rule:evenodd;stroke:none;stroke-width:3;marker:none;marker-start:none;marker-mid:none;marker-end:none;visibility:visible;display:inline;overflow:visible;enable-background:accumulate"
     id="path3327"
     sodipodi:cx="25.751953"
     sodipodi:cy="31.640625"
     sodipodi:rx="20.302734"
     sodipodi:ry="9.3164062"
     d="m 46.054688,31.640625 a 20.302734,9.3164062 0 1 1 -40.6054692,0 20.302734,9.3164062 0 1 1 40.6054692,0 z"
     transform="matrix(0.9136509,0.1241974,-0.1241974,0.9136509,10.967773,-15.050384)" />
  <path
     style="opacity:1;color:#000000;fill:#593a28;fill-opacity:1;fill-rule:evenodd;stroke:none;stroke-width:3;marker:none;marker-start:none;marker-mid:none;marker-end:none;visibility:visible;display:inline;overflow:visible;enable-background:accumulate"
     d="m 25.525265,12.172854 -0.558888,4.111428 c -0.192816,1.418443 2.155672,2.910158 5.246807,3.330352 3.091135,0.420195 5.7526,-0.390491 5.945416,-1.808934 l 0.558888,-4.111429 z"
     id="path3373" />
  <path
     sodipodi:type="arc"
     style="opacity:1;color:#000000;fill:#b01911;fill-opacity:1;fill-rule:evenodd;stroke:none;stroke-width:3;marker:none;marker-start:none;marker-mid:none;marker-end:none;visibility:visible;display:inline;overflow:visible;enable-background:accumulate"
     id="path3375"
     sodipodi:cx="25.751953"
     sodipodi:cy="31.640625"
     sodipodi:rx="20.302734"
     sodipodi:ry="9.3164062"
     d="m 46.054688,31.640625 a 20.302734,9.3164062 0 1 1 -40.6054692,0 20.302734,9.3164062 0 1 1 40.6054692,0 z"
     transform="matrix(0.2758191,3.7493538e-2,-3.7493538e-2,0.2758191,25.206529,3.2684346)" />
  <path
     style="color:#000000;fill:url(#linearGradient3417);fill-opacity:1;fill-rule:evenodd;stroke:none;stroke-width:3;marker:none;marker-start:none;marker-mid:none;marker-end:none;visibility:visible;display:inline;overflow:visible;enable-background:accumulate"
     d="m 14.283228,26.213633 c 1.646846,2.415593 5.713228,3.653765 10.37293,4.603209 l -4.285556,31.52646 c -5.443446,-0.682356 -8.694851,-2.30525 -10.372931,-4.603209 z"
     id="rect3398"
     sodipodi:nodetypes="ccccc" />
  <path
     style="opacity:1;color:#000000;fill:#383e49;fill-opacity:1;fill-rule:evenodd;stroke:none;stroke-width:3;marker:none;marker-start:none;marker-mid:none;marker-end:none;visibility:visible;display:inline;overflow:visible;enable-background:accumulate"
     d="m 30.268767,63.831787 -6.616281,-5.002523 0.815515,-5.993281 6.616615,5.024826 z"
     id="path3423"
     sodipodi:nodetypes="ccccc" />
  <path
     style="opacity:1;color:#000000;fill:#383e49;fill-opacity:1;fill-rule:evenodd;stroke:none;stroke-width:3;marker:none;marker-start:none;marker-mid:none;marker-end:none;visibility:visible;display:inline;overflow:visible;enable-background:accumulate"
     d="m 25.139106,50.328871 5.473461,4.025247 1.335335,-9.203012 -6.076631,2.611463 z"
     id="path3425"
     sodipodi:nodetypes="ccccc" />
  <path
     style="opacity:1;color:#000000;fill:#383e49;fill-opacity:1;fill-rule:evenodd;stroke:none;stroke-width:3;marker:none;marker-start:none;marker-mid:none;marker-end:none;visibility:visible;display:inline;overflow:visible;enable-background:accumulate"
     d="m 25.246348,45.600298 7.591406,-3.957662 0.529865,-7.228251 -6.709322,2.912924 z"
     id="path3427"
     sodipodi:nodetypes="ccccc" />
</svg>
