<?xml version="1.0" encoding="UTF-8" standalone="no"?>
<!-- Created with Inkscape (http://www.inkscape.org/) -->
<svg
   xmlns:dc="http://purl.org/dc/elements/1.1/"
   xmlns:cc="http://creativecommons.org/ns#"
   xmlns:rdf="http://www.w3.org/1999/02/22-rdf-syntax-ns#"
   xmlns:svg="http://www.w3.org/2000/svg"
   xmlns="http://www.w3.org/2000/svg"
   xmlns:xlink="http://www.w3.org/1999/xlink"
   xmlns:sodipodi="http://sodipodi.sourceforge.net/DTD/sodipodi-0.dtd"
   xmlns:inkscape="http://www.inkscape.org/namespaces/inkscape"
   width="128"
   height="128"
   id="svg2424"
   sodipodi:version="0.32"
   inkscape:version="0.46+devel"
   version="1.0"
   sodipodi:docbase="/home/thayer/tmp/archlinux-logo-contest/archer/masters"
   sodipodi:docname="arch.svg"
   inkscape:output_extension="org.inkscape.output.svg.inkscape"
   inkscape:export-filename="/home/thayer/archlinux-logo-contest/archer-full-detail.png"
   inkscape:export-xdpi="90"
   inkscape:export-ydpi="90">
  <defs
     id="defs2426">
    <linearGradient
       gradientTransform="translate(287,-83)"
       x1="112.49854"
       y1="6.1372099"
       x2="112.49853"
       y2="129.3468"
       id="linearGradient3273"
       gradientUnits="userSpaceOnUse">
      <stop
         style="stop-color:#ffffff;stop-opacity:1"
         offset="0"
         id="stop3275" />
      <stop
         style="stop-color:#31baff;stop-opacity:1"
         offset="1"
         id="stop3277" />
      <midPointStop
         offset="0"
         style="stop-color:#FFFFFF"
         id="midPointStop3279" />
      <midPointStop
         offset="0.5"
         style="stop-color:#FFFFFF"
         id="midPointStop3281" />
      <midPointStop
         offset="1"
         style="stop-color:#000000"
         id="midPointStop3283" />
    </linearGradient>
    <linearGradient
       inkscape:collect="always"
       xlink:href="#linearGradient3273"
       id="linearGradient2191"
       gradientUnits="userSpaceOnUse"
       gradientTransform="matrix(-0.3045862,0,0,0.3045691,929.97041,442.72079)"
       x1="625.76263"
       y1="144.13815"
       x2="503.53174"
       y2="246.27766" />
  </defs>
  <sodipodi:namedview
     id="base"
     pagecolor="#ffffff"
     bordercolor="#666666"
     borderopacity="1.0"
     gridtolerance="10000"
     guidetolerance="10"
     objecttolerance="10"
     inkscape:pageopacity="0.0"
     inkscape:pageshadow="2"
     inkscape:zoom="2.8284271"
     inkscape:cx="63.758839"
     inkscape:cy="58.340314"
     inkscape:document-units="px"
     inkscape:current-layer="layer1"
     inkscape:window-width="691"
     inkscape:window-height="724"
     inkscape:window-x="323"
     inkscape:window-y="9"
     showgrid="false" />
  <metadata
     id="metadata2429">
    <rdf:RDF>
      <cc:Work
         rdf:about="">
        <dc:format>image/svg+xml</dc:format>
        <dc:type
           rdf:resource="http://purl.org/dc/dcmitype/StillImage" />
      </cc:Work>
    </rdf:RDF>
  </metadata>
  <g
     inkscape:label="Layer 1"
     inkscape:groupmode="layer"
     id="layer1"
     transform="translate(-269.51782,-201.60125)">
    <g
       transform="matrix(0.6736842,0,0,0.6736842,-181.68227,-91.871208)"
       id="g2210">
      <path
         sodipodi:nodetypes="cccsccc"
         transform="matrix(1.484375,0,0,1.484375,669.75015,435.62319)"
         id="path2501"
         d="m 63.993164,1.7814394 c 9.192388,17.67767 62.57895,123.74369 62.57895,123.74369 C 108.54089,122.34315 77.074639,102.54415 67.882251,102.89771 c 1.414214,-10.960157 2.828427,-23.688078 -3.18198,-23.688078 -6.0104076,0 -6.363961,12.727922 -4.5961941,23.334524 C 41.365746,102.89771 18.384776,121.28249 1.7677669,124.81802 20.859651,90.87689 57.275649,19.812663 63.993164,1.7814394 z"
         style="opacity:1;color:#000000;fill:#002f77;fill-opacity:1;fill-rule:evenodd;stroke:none;stroke-width:4;marker:none;marker-start:none;marker-mid:none;marker-end:none;visibility:visible;display:inline;overflow:visible;enable-background:accumulate" />
      <path
         id="path2518"
         d="m 764.75015,457.14022 c -6.5416,16.03826 -10.51344,26.54409 -17.79665,42.10559 4.46552,4.73346 9.95364,10.22547 18.85512,16.45114 -9.56996,-3.93798 -16.09367,-7.88133 -20.97207,-11.98403 -9.32111,19.44995 -23.93412,47.14471 -53.56936,100.39322 23.28647,-13.44368 41.33853,-21.73584 58.16205,-24.90096 -0.71977,-3.10256 -1.10426,-6.47427 -1.07641,-9.97474 l 0.01794,-0.73555 c 0.36959,-14.92277 8.13441,-26.39774 17.33021,-25.61857 9.19579,0.77917 16.35429,13.51241 15.9847,28.43518 -0.06962,2.81085 -0.39641,5.51169 -0.95083,8.01926 16.64247,3.25688 34.52428,11.51209 57.49826,24.77538 -4.53064,-8.34124 -8.58861,-15.85615 -12.45048,-23.01724 -6.08306,-4.71479 -12.42494,-10.84875 -25.36741,-17.49168 8.89592,2.31153 15.27173,4.9845 20.23652,7.96544 -39.26467,-73.10397 -42.43686,-82.82455 -55.90159,-114.42244 z"
         style="fill:#31baff;fill-opacity:1;fill-rule:evenodd;stroke:none" />
      <path
         id="path2520"
         d="m 765.03719,457.78607 c -0.81455,2.00247 -1.61541,3.9277 -2.3681,5.77674 -0.83628,2.05431 -1.64947,4.03342 -2.43986,5.95614 -0.79033,1.92274 -1.55568,3.81705 -2.33223,5.66909 -0.77659,1.85213 -1.57321,3.6832 -2.3681,5.52558 -0.79484,1.84231 -1.59463,3.66801 -2.43986,5.56145 -0.84524,1.89351 -1.72751,3.84296 -2.65515,5.8485 -0.92772,2.00556 -1.90005,4.06473 -2.94219,6.24318 -0.14199,0.2968 -0.32199,0.63223 -0.46644,0.93289 4.45361,4.71758 9.94366,10.20231 18.8013,16.39732 -9.54531,-3.92784 -16.07983,-7.85684 -20.95413,-11.94816 -0.25165,0.51374 -0.45838,0.981 -0.7176,1.50698 -0.9555,1.93889 -2.01679,4.04608 -3.08571,6.17142 -0.26102,0.51898 -0.48509,0.9757 -0.75349,1.50697 -0.12117,0.24316 -0.2719,0.50774 -0.39468,0.75349 -4.18794,8.38225 -9.34019,18.34632 -15.93088,30.6777 18.6265,-10.50005 38.75018,-25.58787 75.2411,-12.55812 -1.83095,-3.46777 -3.51417,-6.73781 -5.09501,-9.79534 -1.58081,-3.05761 -3.04952,-5.90363 -4.41328,-8.61128 -1.36366,-2.7076 -2.62382,-5.26038 -3.80332,-7.6784 -1.17949,-2.41797 -2.27281,-4.70019 -3.30099,-6.88902 -1.02825,-2.18879 -1.99647,-4.29499 -2.90631,-6.31495 -0.90991,-2.01993 -1.75886,-3.97299 -2.58339,-5.88437 -0.82461,-1.91149 -1.63192,-3.77006 -2.40398,-5.63322 -0.77214,-1.86322 -1.50793,-3.72193 -2.26046,-5.59733 -0.29766,-0.74162 -0.59884,-1.51036 -0.89701,-2.26047 -2.03135,-4.77081 -4.12249,-9.70066 -6.53023,-15.35679 z"
         style="fill:url(#linearGradient2191);fill-opacity:1;fill-rule:evenodd;stroke:none" />
    </g>
  </g>
</svg>
