<?xml version="1.0" encoding="UTF-8" standalone="no"?>
<!-- Created with Sodipodi ("http://www.sodipodi.com/") -->
<svg
   xmlns:dc="http://purl.org/dc/elements/1.1/"
   xmlns:cc="http://web.resource.org/cc/"
   xmlns:rdf="http://www.w3.org/1999/02/22-rdf-syntax-ns#"
   xmlns:svg="http://www.w3.org/2000/svg"
   xmlns="http://www.w3.org/2000/svg"
   xmlns:xlink="http://www.w3.org/1999/xlink"
   xmlns:sodipodi="http://sodipodi.sourceforge.net/DTD/sodipodi-0.dtd"
   xmlns:inkscape="http://www.inkscape.org/namespaces/inkscape"
   version="1.0"
   x="0"
   y="0"
   width="90"
   height="90"
   id="svg602"
   xml:space="preserve"
   sodipodi:version="0.32"
   sodipodi:docname="edit-cut.svg"
   sodipodi:docbase="/home/tweenk/GNUtoon/actions"
   inkscape:version="0.45.1"
   inkscape:output_extension="org.inkscape.output.svg.inkscape">
  <metadata
   id="metadata22">
    <rdf:RDF>
      <cc:Work
   rdf:about="">
        <dc:format>image/svg+xml</dc:format>
        <dc:type
   rdf:resource="http://purl.org/dc/dcmitype/StillImage" />
      </cc:Work>
    </rdf:RDF>
  </metadata>
  <sodipodi:namedview
   id="base"
   inkscape:zoom="5.7333333"
   inkscape:cx="45"
   inkscape:cy="45"
   inkscape:window-width="1003"
   inkscape:window-height="728"
   inkscape:window-x="5"
   inkscape:window-y="1"
   inkscape:current-layer="svg602"
   showborder="true"
   width="90px"
   height="90px" />
  <defs
   id="defs604"><linearGradient
     id="linearGradient659">
      <stop
   style="stop-color:#ffd056;stop-opacity:1;"
   offset="0"
   id="stop660" />
      <stop
   style="stop-color:#ff933d;stop-opacity:1;"
   offset="1"
   id="stop661" />
    </linearGradient><linearGradient
     id="linearGradient652">
      <stop
   style="stop-color:#ffffff;stop-opacity:0;"
   offset="0"
   id="stop653" />
      <stop
   style="stop-color:#ffffff;stop-opacity:1;"
   offset="1"
   id="stop654" />
    </linearGradient><linearGradient
     x1="108.46266"
     y1="6.6808219"
     x2="120.68668"
     y2="6.5977774"
     id="linearGradient655"
     xlink:href="#linearGradient652"
     gradientUnits="userSpaceOnUse"
     gradientTransform="matrix(0.383823,0,0,2.627715,-2.185211,0.99526)" /><linearGradient
     x1="37.602459"
     y1="17.176636"
     x2="20.804733"
     y2="13.170833"
     id="linearGradient657"
     xlink:href="#linearGradient652"
     gradientUnits="userSpaceOnUse"
     gradientTransform="matrix(1.009698,0,0,0.998889,-2.185211,0.99526)" /><linearGradient
     x1="42.327976"
     y1="33.307095"
     x2="67.550529"
     y2="59.453751"
     id="linearGradient658"
     xlink:href="#linearGradient659"
     gradientUnits="userSpaceOnUse"
     gradientTransform="matrix(0.903231,0,0,1.116633,-2.185211,0.99526)" /></defs>
  <path
   d="M 36.394921,59.910037 C 37.002472,57.666304 36.152206,55.714144 36.759757,53.470399 C 35.079655,51.13705 34.468561,44.120524 31.524802,43.928656 C 21.880934,33.861898 17.994818,25.746815 12.205169,16.424398 C 12.166314,13.437295 15.963059,9.151335 18.301586,9.871243 C 24.57826,15.578131 30.640231,20.397101 36.916894,26.103988 C 38.413756,17.801096 38.737327,11.757645 38.680423,3.323031 C 39.625429,0.544521 45.204562,1.318349 47.436628,4.032355 C 49.655347,16.884358 51.745543,29.036889 53.789296,39.190642 C 55.40683,43.00018 57.972016,47.212846 56.713381,50.61556 C 55.311553,52.875415 53.909737,55.135267 52.507912,57.395119 C 51.318664,55.917139 49.703299,56.24137 48.648622,54.419032 C 48.061882,56.534869 48.570493,55.114657 47.775142,55.881847 C 47.072434,58.263562 44.764336,57.17677 47.294401,62.774659 C 42.663775,59.064403 36.44653,60.039601 36.394921,59.910037 z "
   style="font-size:12px;fill-rule:evenodd;stroke-width:1"
   id="path650"
   sodipodi:nodetypes="ccccccccccccccc" />
  <path
   d="M 38.518816,60.71545 C 38.518816,60.71545 40.624804,55.072417 40.083433,53.336407 C 39.542047,51.600358 37.760902,47.505715 37.354483,41.962669 C 40.781428,36.24385 41.549461,6.512567 41.549461,6.512567 L 44.19034,7.112052 C 44.19034,7.112052 50.199694,42.550966 48.016831,47.624089 C 45.833986,52.697203 43.626967,56.578912 44.194687,58.004185 C 44.762428,59.429491 47.787685,62.878453 48.303793,64.174144 C 43.855423,59.790769 38.492482,61.026196 38.518816,60.71545 z "
   style="font-size:12px;fill:#ff933d;fill-rule:evenodd;stroke-width:1"
   id="path647" />
  <path
   d="M 48.591397,72.210733 C 48.610894,79.605451 44.763544,85.610197 39.998089,85.622749 C 35.232637,85.635343 31.353643,79.650964 31.334128,72.256273 C 31.314616,64.861603 35.161975,58.856839 39.927448,58.844266 C 44.692903,58.831693 48.571876,64.81606 48.591397,72.210733 z "
   style="font-size:12px;fill:none;fill-rule:evenodd;stroke:#000000;stroke-width:5.9297924"
   id="path641" />
  <path
   d="M 57.642388,52.947832 C 55.31335,51.623617 52.364986,48.744556 51.564451,47.111743 C 50.763922,45.478936 49.241923,41.281051 45.725824,36.976702 C 39.305368,35.180386 18.305491,14.119915 18.305491,14.119915 L 16.800086,16.37098 C 16.800086,16.37098 36.803131,46.235791 41.876236,48.418645 C 46.949338,50.601499 51.220867,51.902617 51.788587,53.327902 C 52.356319,54.753166 52.318066,63.325801 52.834183,64.621501 C 52.875703,53.795656 57.875173,53.155366 57.642388,52.947832 z "
   style="font-size:12px;fill:url(#linearGradient658);fill-rule:evenodd;stroke-width:1"
   id="path646" />
  <path
   d="M 71.514382,56.539531 C 75.938119,62.465119 76.428586,69.579805 72.609862,72.43066 C 68.791183,75.281491 62.109382,72.788923 57.685645,66.863338 C 53.261938,60.93778 52.771468,53.823094 56.590174,50.97226 C 60.408853,48.121411 67.090663,50.613973 71.514382,56.539531 z "
   style="font-size:12px;fill:none;fill-rule:evenodd;stroke:#000000;stroke-width:5.79801846"
   id="path642" />
  <ellipse
   cx="45.703133"
   cy="33.828117"
   rx="3.359375"
   ry="3.359376"
   transform="matrix(0.829254,-0.330315,0.330315,0.829254,-5.778077,30.168691)"
   style="font-size:12px;fill:#7e0000;fill-rule:evenodd;stroke-width:1"
   id="path648"
   sodipodi:cx="45.703133"
   sodipodi:cy="33.828117"
   sodipodi:rx="3.359375"
   sodipodi:ry="3.359376" />
  <ellipse
   cx="45.703133"
   cy="33.828117"
   rx="3.359375"
   ry="3.359376"
   transform="matrix(0.559263,-0.2227716,0.2227716,0.559263,10.199305,34.386751)"
   style="font-size:12px;fill:#ff1500;fill-rule:evenodd;stroke-width:1"
   id="path649"
   sodipodi:cx="45.703133"
   sodipodi:cy="33.828117"
   sodipodi:rx="3.359375"
   sodipodi:ry="3.359376" />
  <path
   d="M 41.752075,6.330492 L 43.321267,8.527356 L 42.065917,34.262062 L 39.241375,32.692864 L 41.752075,6.330492 z "
   style="font-size:12px;fill:url(#linearGradient655);fill-rule:evenodd;stroke-width:1"
   id="path651" />
  <path
   d="M 18.057325,14.333355 L 18.685002,16.530219 C 18.685002,16.530219 39.084454,36.772753 41.281321,37.557349 C 43.478185,38.341942 33.121537,30.496 34.376887,30.182161 L 18.057325,14.333355 z "
   style="font-size:12px;fill:url(#linearGradient657);fill-rule:evenodd;stroke-width:1"
   id="path656" />
</svg>