<?xml version="1.0" encoding="UTF-8" standalone="no"?>
<!-- Created with Sodipodi ("http://www.sodipodi.com/") -->
<svg
   xmlns:dc="http://purl.org/dc/elements/1.1/"
   xmlns:cc="http://creativecommons.org/ns#"
   xmlns:rdf="http://www.w3.org/1999/02/22-rdf-syntax-ns#"
   xmlns:svg="http://www.w3.org/2000/svg"
   xmlns="http://www.w3.org/2000/svg"
   xmlns:xlink="http://www.w3.org/1999/xlink"
   xmlns:sodipodi="http://sodipodi.sourceforge.net/DTD/sodipodi-0.dtd"
   xmlns:inkscape="http://www.inkscape.org/namespaces/inkscape"
   version="1"
   x="0.00000000"
   y="0.00000000"
   width="90.0000000"
   height="90.0000000"
   id="svg548"
   sodipodi:version="0.32"
   sodipodi:docname="system-run.svg"
   sodipodi:docbase="/home/zeus/.icons/gartoon/scalable/filesystems"
   inkscape:version="0.45+devel"
   inkscape:output_extension="org.inkscape.output.svg.inkscape">
  <metadata
     id="metadata18">
    <rdf:RDF>
      <cc:Work
         rdf:about="">
        <dc:format>image/svg+xml</dc:format>
        <dc:type
           rdf:resource="http://purl.org/dc/dcmitype/StillImage" />
      </cc:Work>
    </rdf:RDF>
  </metadata>
  <sodipodi:namedview
     id="base"
     inkscape:zoom="2.5208333"
     inkscape:cx="32.5054"
     inkscape:cy="51.852021"
     inkscape:window-width="734"
     inkscape:window-height="708"
     inkscape:window-x="5"
     inkscape:window-y="25"
     inkscape:current-layer="svg548"
     showgrid="false" />
  <defs
     id="defs550">
    <linearGradient
       id="linearGradient1828">
      <stop
         style="stop-color:#ffc93f;stop-opacity:1.0000000;"
         offset="0.0000000"
         id="stop1829" />
      <stop
         style="stop-color:#f1e36c;stop-opacity:1.0000000;"
         offset="1.0000000"
         id="stop1830" />
    </linearGradient>
    <linearGradient
       inkscape:collect="always"
       xlink:href="#linearGradient1828"
       id="linearGradient1857"
       gradientUnits="userSpaceOnUse"
       gradientTransform="matrix(0.999990,0.000000,0.000000,1.000010,-0.701263,-7.713892)"
       x1="32.051327"
       y1="14.657825"
       x2="32.051327"
       y2="75.934349" />
    <linearGradient
       inkscape:collect="always"
       xlink:href="#linearGradient1828"
       id="linearGradient1865"
       gradientUnits="userSpaceOnUse"
       gradientTransform="matrix(0.500064,0.000000,0.000000,0.500075,52.06230,47.59928)"
       x1="32.051327"
       y1="14.657825"
       x2="32.051327"
       y2="75.934349" />
  </defs>
  <g
     id="g2702">
    <path
       id="path1858"
       d="M 45.318751,7.3776937 C 42.431590,6.5443746 39.448495,8.1911520 38.615176,11.078313 L 37.375116,15.374687 C 36.162316,15.412638 34.970577,15.525313 33.794884,15.750193 L 31.647204,11.859727 C 30.194919,9.2289490 26.892861,8.2758790 24.262084,9.7281640 L 21.412347,11.320846 C 18.781570,12.773131 17.835201,16.051965 19.287487,18.682743 L 21.418647,22.543283 C 20.589864,23.416188 19.836369,24.353276 19.146658,25.359370 L 14.943178,24.146122 C 12.056016,23.312803 9.0429955,24.976101 8.2096762,27.863261 L 7.3047672,30.998454 C 6.4714475,33.885616 8.1414480,36.875413 11.028610,37.708732 L 15.139195,38.895168 C 15.171391,40.152160 15.294743,41.387350 15.527633,42.604925 L 11.786799,44.670002 C 9.1560225,46.122287 8.2096525,49.401121 9.6619397,52.031898 L 11.254622,54.881635 C 12.706906,57.512414 15.985742,58.458781 18.616519,57.006495 L 22.297499,54.974459 C 23.215383,55.846827 24.191024,56.645116 25.256042,57.363041 L 24.096418,61.380731 C 23.263099,64.267892 24.909876,67.250988 27.797037,68.084306 L 30.932230,68.989215 C 33.819392,69.822535 36.802488,68.175757 37.635805,65.288597 L 38.802132,61.247682 C 40.075599,61.206326 41.316691,61.066630 42.548518,60.819499 L 44.580554,64.500479 C 46.032842,67.131259 49.311671,68.077623 51.942451,66.625339 L 54.808708,65.062583 C 57.439486,63.610295 58.392558,60.308241 56.940271,57.677463 L 54.891715,53.966557 C 55.737594,53.060346 56.500164,52.080859 57.197219,51.034351 L 61.307805,52.220787 C 64.194965,53.054106 67.178057,51.407329 68.011380,48.520168 L 68.916289,45.384975 C 69.749608,42.497814 68.109535,39.491496 65.222373,38.658177 L 61.018892,37.444929 C 60.971222,36.222146 60.811231,35.028493 60.573715,33.844587 L 64.434255,31.713428 C 67.065034,30.261143 68.011401,26.982308 66.559115,24.351531 L 64.996360,21.485274 C 63.544072,18.854496 60.265241,17.908128 57.634463,19.360414 L 53.714070,21.524615 C 52.842191,20.709961 51.916628,19.959754 50.914503,19.282552 L 52.154563,14.986178 C 52.987882,12.099017 51.341105,9.1159230 48.453944,8.2826030 L 45.318751,7.3776937 z M 41.157054,27.636569 C 47.054369,29.338705 50.458676,35.505524 48.756538,41.402836 C 47.054399,47.300151 40.887582,50.704461 34.990269,49.002323 C 29.092955,47.300185 25.688645,41.133366 27.390784,35.236051 C 29.092922,29.338739 35.259739,25.934430 41.157054,27.636569 z "
       style="fill:#000000;fill-opacity:0.34444442;stroke:none;stroke-width:3.8674629;stroke-linecap:round;stroke-linejoin:round;stroke-miterlimit:4.0000000;stroke-opacity:1.0000000" />
    <path
       id="path1856"
       d="M 40.855941,2.9148838 C 37.968780,2.0815647 34.985685,3.7283418 34.152366,6.6155028 L 32.912306,10.911877 C 31.699506,10.949828 30.507767,11.062503 29.332074,11.287383 L 27.184394,7.3969168 C 25.732109,4.7661388 22.430051,3.8130688 19.799274,5.2653538 L 16.949537,6.8580358 C 14.318760,8.3103208 13.372391,11.589155 14.824677,14.219933 L 16.955837,18.080473 C 16.127054,18.953378 15.373559,19.890466 14.683848,20.896560 L 10.480368,19.683312 C 7.5932064,18.849993 4.5801856,20.513291 3.7468663,23.400451 L 2.8419573,26.535644 C 2.0086376,29.422806 3.6786381,32.412603 6.5657996,33.245922 L 10.676385,34.432358 C 10.708581,35.689350 10.831933,36.924540 11.064823,38.142115 L 7.3239895,40.207192 C 4.6932126,41.659477 3.7468426,44.938311 5.1991298,47.569088 L 6.7918116,50.418825 C 8.2440962,53.049604 11.522932,53.995971 14.153709,52.543685 L 17.834689,50.511649 C 18.752573,51.384017 19.728214,52.182306 20.793232,52.900231 L 19.633608,56.917921 C 18.800289,59.805082 20.447066,62.788178 23.334227,63.621496 L 26.469420,64.526405 C 29.356582,65.359725 32.339678,63.712947 33.172995,60.825787 L 34.339322,56.784872 C 35.612789,56.743516 36.853881,56.603820 38.085708,56.356689 L 40.117744,60.037669 C 41.570032,62.668449 44.848861,63.614813 47.479641,62.162529 L 50.345898,60.599773 C 52.976676,59.147485 53.929748,55.845431 52.477461,53.214653 L 50.428905,49.503747 C 51.274784,48.597536 52.037354,47.618049 52.734409,46.571541 L 56.844995,47.757977 C 59.732155,48.591296 62.715247,46.944519 63.548570,44.057358 L 64.453479,40.922165 C 65.286798,38.035004 63.646725,35.028686 60.759563,34.195367 L 56.556082,32.982119 C 56.508412,31.759336 56.348421,30.565683 56.110905,29.381777 L 59.971445,27.250618 C 62.602224,25.798333 63.548591,22.519498 62.096305,19.888721 L 60.533550,17.022464 C 59.081262,14.391686 55.802431,13.445318 53.171653,14.897604 L 49.251260,17.061805 C 48.379381,16.247151 47.453818,15.496944 46.451693,14.819742 L 47.691753,10.523368 C 48.525072,7.6362068 46.878295,4.6531128 43.991134,3.8197928 L 40.855941,2.9148838 z M 36.694244,23.173759 C 42.591559,24.875895 45.995866,31.042714 44.293728,36.940026 C 42.591589,42.837341 36.424772,46.241651 30.527459,44.539513 C 24.630145,42.837375 21.225835,36.670556 22.927974,30.773241 C 24.630112,24.875929 30.796929,21.471620 36.694244,23.173759 z "
       style="fill:url(#linearGradient1857);fill-opacity:1.0000000;stroke:#593a28;stroke-width:3.8674629;stroke-linecap:round;stroke-linejoin:round;stroke-miterlimit:4.0000000;stroke-opacity:1.0000000" />
  </g>
  <use
     x="0"
     y="0"
     xlink:href="#g2702"
     id="use2706"
     transform="matrix(0.5086008,0,0,0.5086008,51.843134,50.828213)"
     width="90"
     height="90" />
</svg>
