<?xml version="1.0" encoding="UTF-8" standalone="no"?>
<!-- Created with Sodipodi ("http://www.sodipodi.com/") -->
<svg
   xmlns:dc="http://purl.org/dc/elements/1.1/"
   xmlns:cc="http://creativecommons.org/ns#"
   xmlns:rdf="http://www.w3.org/1999/02/22-rdf-syntax-ns#"
   xmlns:svg="http://www.w3.org/2000/svg"
   xmlns="http://www.w3.org/2000/svg"
   xmlns:xlink="http://www.w3.org/1999/xlink"
   xmlns:sodipodi="http://sodipodi.sourceforge.net/DTD/sodipodi-0.dtd"
   xmlns:inkscape="http://www.inkscape.org/namespaces/inkscape"
   id="svg604"
   sodipodi:version="0.32"
   width="72pt"
   height="72pt"
   sodipodi:docname="application-x-kformula.svg"
   inkscape:version="0.46+devel"
   inkscape:output_extension="org.inkscape.output.svg.inkscape">
  <metadata
     id="metadata2705">
    <rdf:RDF>
      <cc:Work
         rdf:about="">
        <dc:format>image/svg+xml</dc:format>
        <dc:type
           rdf:resource="http://purl.org/dc/dcmitype/StillImage" />
        <dc:title></dc:title>
      </cc:Work>
    </rdf:RDF>
  </metadata>
  <defs
     id="defs606">
    <linearGradient
       id="linearGradient612">
      <stop
         style="stop-color:#7fa8e3;stop-opacity:0.741176;"
         offset="0.000000"
         id="stop613" />
      <stop
         style="stop-color:#ffffff;stop-opacity:0;"
         offset="1.000000"
         id="stop614" />
    </linearGradient>
    <linearGradient
       xlink:href="#linearGradient612"
       id="linearGradient615"
       x1="50.6438866"
       y1="5.36792946"
       x2="35.7520943"
       y2="68.0443573"
       gradientUnits="userSpaceOnUse"
       spreadMethod="pad" />
    <defs
       id="defs201">
      <linearGradient
         id="linearGradient208">
        <stop
           style="stop-color:#cccccc;stop-opacity:1;"
           offset="0.000000"
           id="stop209" />
        <stop
           style="stop-color:#ffffff;stop-opacity:1;"
           offset="1.000000"
           id="stop210" />
      </linearGradient>
      <linearGradient
         xlink:href="#linearGradient208"
         id="linearGradient211"
         x1="0.0869562"
         y1="0.0390625"
         x2="1.06087"
         y2="0.835936"
         gradientUnits="objectBoundingBox"
         gradientTransform="scale(0.999998,1)"
         spreadMethod="pad" />
      <linearGradient
         xlink:href="#linearGradient208"
         id="linearGradient224"
         x1="0.310077"
         y1="0.148437"
         x2="0.348837"
         y2="0.179687"
         gradientUnits="objectBoundingBox"
         spreadMethod="pad" />
    </defs>
    <radialGradient
       inkscape:collect="always"
       xlink:href="#linearGradient614"
       id="radialGradient2784"
       gradientUnits="userSpaceOnUse"
       cx="38.002598"
       cy="35.899902"
       fx="38.002598"
       fy="35.899902"
       r="29.31628" />
    <linearGradient
       id="linearGradient614">
      <stop
         id="stop615"
         offset="0"
         style="stop-color:#ffdd05;stop-opacity:1;" />
      <stop
         id="stop616"
         offset="1"
         style="stop-color:#f20d00;stop-opacity:1;" />
    </linearGradient>
  </defs>
  <sodipodi:namedview
     id="base"
     inkscape:zoom="3.197694"
     inkscape:cx="29.60258"
     inkscape:cy="66.222144"
     inkscape:window-width="795"
     inkscape:window-height="623"
     inkscape:window-x="114"
     inkscape:window-y="72"
     inkscape:current-layer="svg604"
     showgrid="false" />
  <path
     style="fill:#000000;fill-rule:evenodd;stroke:none;stroke-opacity:1;stroke-width:1pt;stroke-linejoin:miter;stroke-linecap:butt;fill-opacity:0.301471;"
     d="M 14.47588 78.82306 C 12.05158 77.72107 8.745783 74.19488 10.50889 69.34628 C 11.39039 64.05704 27.25843 17.33450 30.78472 15.13062 C 32.98850 13.14714 36.18426 12.37575 40.70223 13.58790 C 44.44885 14.46947 78.16832 23.28510 80.15179 25.04814 C 82.13535 26.81129 83.67808 28.24380 82.13535 32.10062 C 81.03346 34.08408 67.92018 78.60264 67.69986 81.46778 C 66.81829 84.55323 64.28388 88.29984 60.09644 88.07942 C 55.90909 87.85900 17.56133 79.48421 14.47588 78.82306 z "
     id="path794"
     sodipodi:nodetypes="ccccccccc" />
  <g
     id="g613"
     transform="matrix(0.894577,0,0,0.894577,6.439353,7.746143)">
    <path
       style="fill:#3d4e67;fill-rule:evenodd;stroke:none;stroke-opacity:1;stroke-width:1pt;stroke-linejoin:miter;stroke-linecap:butt;fill-opacity:1;"
       d="M 12.8163 74.753 C 10.3856 73.6481 7.07107 70.1126 8.83884 65.2512 C 9.72267 59.948 25.6326 13.1021 29.1682 10.8924 C 31.3778 8.90368 34.582 8.13026 39.1119 9.34561 C 42.8684 10.2295 76.6769 19.0684 78.6656 20.8361 C 80.6544 22.6039 82.2012 24.0402 80.6544 27.9072 C 79.5496 29.8959 66.4017 74.532 66.1808 77.4047 C 65.2969 80.4983 62.7558 84.2548 58.5573 84.0338 C 54.3589 83.8128 15.9099 75.4159 12.8163 74.753 z "
       id="path609"
       sodipodi:nodetypes="ccccccccc"
       transform="matrix(1.114903,0.000000,0.000000,1.114903,-8.162471,-8.460684)" />
    <path
       style="fill:#ffffff;fill-rule:evenodd;stroke:none;stroke-opacity:1;stroke-width:1pt;stroke-linejoin:miter;stroke-linecap:butt;fill-opacity:1;"
       d="M 17.8987 70.9965 C 15.3576 70.3336 11.7114 69.6706 13.0373 65.6932 C 15.468 55.9705 27.8424 18.6264 33.1456 13.986 C 34.361 12.8811 38.4489 12.4392 46.1829 14.8699 C 55.0218 17.5215 72.9204 23.4877 74.6882 24.3716 C 76.4559 25.2555 77.1189 25.2555 75.793 29.233 C 73.8043 33.2105 64.9655 67.24 62.7557 72.9852 C 61.209 77.0732 60.8775 78.9514 58.2258 78.9514 "
       id="path608"
       sodipodi:nodetypes="cccccccs"
       transform="matrix(1.114903,0.000000,0.000000,1.114903,-8.162471,-8.460684)" />
    <path
       style="fill:url(#linearGradient615);fill-rule:evenodd;stroke:none;stroke-opacity:1;stroke-width:1pt;stroke-linejoin:miter;stroke-linecap:butt;fill-opacity:1;"
       d="M 28.75 13.75 C 28.75 13.75 31.875 7.49995 39.6875 9.37495 C 47.5 11.25 78.125 19.375 77.8125 21.875 C 77.5 24.375 71.875 39.0625 71.5625 40.3125 C 71.25 41.5625 42.5 40.9375 31.5625 47.5 C 20.625 54.0625 12.5 59.6875 12.5 59.6875 C 12.5 59.6875 23.75 24.6875 28.75 13.75 z "
       id="path636"
       transform="matrix(0.946780,0.000000,0.000000,0.946780,-0.480566,0.409517)" />
    <path
       style="fill:none;fill-rule:evenodd;stroke:#42667e;stroke-opacity:1;stroke-width:1pt;stroke-linejoin:miter;stroke-linecap:butt;fill-opacity:1;"
       d="M 29.2429 15.8991 L 69.8423 26.6877 "
       id="path671"
       transform="translate(1.135645,0.851736)" />
    <path
       style="fill:none;fill-rule:evenodd;stroke:#42667e;stroke-opacity:1;stroke-width:1pt;stroke-linejoin:miter;stroke-linecap:butt;fill-opacity:1;"
       d="M 27.8233 19.306 L 67.8549 30.9464 "
       id="path672"
       transform="matrix(0.999855,-1.703691e-2,1.703691e-2,0.999855,-0.705041,5.077353)" />
    <path
       style="fill:none;fill-rule:evenodd;stroke:#42667e;stroke-opacity:1;stroke-width:1pt;stroke-linejoin:miter;stroke-linecap:butt;fill-opacity:1;"
       d="M 29.2429 15.8991 L 69.8423 26.6877 "
       id="path673"
       transform="translate(-5.394323,17.03470)" />
    <path
       style="fill:none;fill-rule:evenodd;stroke:#42667e;stroke-opacity:1;stroke-width:1pt;stroke-linejoin:miter;stroke-linecap:butt;fill-opacity:1;"
       d="M 29.2429 15.8991 L 69.8423 26.6877 "
       id="path675"
       transform="translate(-11.35647,34.06940)" />
    <path
       style="fill:none;fill-rule:evenodd;stroke:#42667e;stroke-opacity:1;stroke-width:1pt;stroke-linejoin:miter;stroke-linecap:butt;fill-opacity:1;"
       d="M 27.8233 19.306 L 67.8549 30.9464 "
       id="path676"
       transform="matrix(0.999855,-1.703691e-2,1.703691e-2,0.999855,-13.19715,38.29502)" />
    <path
       style="fill:none;fill-rule:evenodd;stroke:#42667e;stroke-opacity:1;stroke-width:1pt;stroke-linejoin:miter;stroke-linecap:butt;fill-opacity:1;"
       d="M 27.8233 19.306 L 67.8549 30.9464 "
       id="path674"
       transform="matrix(0.999855,-1.703691e-2,1.703691e-2,0.999855,-7.235008,21.26032)" />
    <path
       style="fill:none;fill-rule:evenodd;stroke:#414141;stroke-opacity:1;stroke-width:3.125;stroke-linejoin:round;stroke-linecap:round;fill-opacity:1;stroke-dasharray:none;"
       d="M 6.52997 44.858 C 1.51419 41.593 2.73854 34.2968 8.51734 34.1048 C 14.1459 33.634 18.9274 41.1672 15.6151 45.4258 "
       id="path699"
       sodipodi:nodetypes="csc" />
    <path
       style="fill:none;fill-rule:evenodd;stroke:#414141;stroke-opacity:1;stroke-width:3.125;stroke-linejoin:round;stroke-linecap:round;fill-opacity:1;stroke-dasharray:none;"
       d="M 6.52997 44.858 C 1.51419 41.593 2.73854 34.2968 8.51734 34.1048 C 14.1459 33.634 18.9274 41.1672 15.6151 45.4258 "
       id="path701"
       sodipodi:nodetypes="csc"
       transform="translate(3.690853,-9.369087)" />
    <path
       style="fill:none;fill-rule:evenodd;stroke:#414141;stroke-opacity:1;stroke-width:3.125;stroke-linejoin:round;stroke-linecap:round;fill-opacity:1;stroke-dasharray:none;"
       d="M 6.52997 44.858 C 1.51419 41.593 2.73854 34.2968 8.51734 34.1048 C 14.1459 33.634 18.9274 41.1672 15.6151 45.4258 "
       id="path703"
       sodipodi:nodetypes="csc"
       transform="translate(7.097792,-18.73817)" />
    <path
       style="fill:none;fill-rule:evenodd;stroke:#b9b9b9;stroke-opacity:1;stroke-width:0.75;stroke-linejoin:round;stroke-linecap:round;fill-opacity:1;stroke-dasharray:none;"
       d="M 5.67823 43.8643 C 2.08201 42.1608 2.73854 34.2968 8.51734 34.1048 C 14.1459 33.634 18.7854 40.4574 16.6088 45.4258 "
       id="path704"
       sodipodi:nodetypes="csc"
       transform="translate(7.097792,-19.30599)" />
    <path
       style="fill:none;fill-rule:evenodd;stroke:#b9b9b9;stroke-opacity:1;stroke-width:0.75;stroke-linejoin:round;stroke-linecap:round;fill-opacity:1;stroke-dasharray:none;"
       d="M 5.67823 43.8643 C 2.08201 42.1608 2.73854 34.2968 8.51734 34.1048 C 14.1459 33.634 18.7854 40.4574 16.6088 45.4258 "
       id="path702"
       sodipodi:nodetypes="csc"
       transform="translate(3.690853,-9.936905)" />
    <path
       style="fill:none;fill-rule:evenodd;stroke:#b9b9b9;stroke-opacity:1;stroke-width:0.75;stroke-linejoin:round;stroke-linecap:round;fill-opacity:1;stroke-dasharray:none;"
       d="M 5.67823 43.8643 C 2.08201 42.1608 2.73854 34.2968 8.51734 34.1048 C 14.1459 33.634 18.7854 40.4574 16.6088 45.4258 "
       id="path700"
       sodipodi:nodetypes="csc"
       transform="translate(0.000000,-0.567818)" />
  </g>
  <g
     id="g629"
     transform="matrix(0.894577,0,0,0.894577,-0.164145,-0.127258)">
    <path
       style="fill:#3d4e67;fill-rule:evenodd;stroke:none;stroke-opacity:1;stroke-width:1pt;stroke-linejoin:miter;stroke-linecap:butt;fill-opacity:1;"
       d="M 12.8163 74.753 C 10.3856 73.6481 7.07107 70.1126 8.83884 65.2512 C 9.72267 59.948 25.6326 13.1021 29.1682 10.8924 C 31.3778 8.90368 34.582 8.13026 39.1119 9.34561 C 42.8684 10.2295 76.6769 19.0684 78.6656 20.8361 C 80.6544 22.6039 82.2012 24.0402 80.6544 27.9072 C 79.5496 29.8959 66.4017 74.532 66.1808 77.4047 C 65.2969 80.4983 62.7558 84.2548 58.5573 84.0338 C 54.3589 83.8128 15.9099 75.4159 12.8163 74.753 z "
       id="path630"
       sodipodi:nodetypes="ccccccccc"
       transform="matrix(1.114903,0.000000,0.000000,1.114903,-8.162471,-8.460684)" />
    <path
       style="fill:#ffffff;fill-rule:evenodd;stroke:none;stroke-opacity:1;stroke-width:1pt;stroke-linejoin:miter;stroke-linecap:butt;fill-opacity:1;"
       d="M 17.8987 70.9965 C 15.3576 70.3336 11.7114 69.6706 13.0373 65.6932 C 15.468 55.9705 27.8424 18.6264 33.1456 13.986 C 34.361 12.8811 38.4489 12.4392 46.1829 14.8699 C 55.0218 17.5215 72.9204 23.4877 74.6882 24.3716 C 76.4559 25.2555 77.1189 25.2555 75.793 29.233 C 73.8043 33.2105 64.9655 67.24 62.7557 72.9852 C 61.209 77.0732 60.8775 78.9514 58.2258 78.9514 "
       id="path631"
       sodipodi:nodetypes="cccccccs"
       transform="matrix(1.114903,0.000000,0.000000,1.114903,-8.162471,-8.460684)" />
    <path
       style="fill:url(#linearGradient615);fill-rule:evenodd;stroke:none;stroke-opacity:1;stroke-width:1pt;stroke-linejoin:miter;stroke-linecap:butt;fill-opacity:1;"
       d="M 28.75 13.75 C 28.75 13.75 31.875 7.49995 39.6875 9.37495 C 47.5 11.25 78.125 19.375 77.8125 21.875 C 77.5 24.375 71.875 39.0625 71.5625 40.3125 C 71.25 41.5625 42.5 40.9375 31.5625 47.5 C 20.625 54.0625 12.5 59.6875 12.5 59.6875 C 12.5 59.6875 23.75 24.6875 28.75 13.75 z "
       id="path632"
       transform="matrix(0.946780,0.000000,0.000000,0.946780,-0.480566,0.409517)" />
    <path
       style="fill:none;fill-rule:evenodd;stroke:#42667e;stroke-opacity:1;stroke-width:1pt;stroke-linejoin:miter;stroke-linecap:butt;fill-opacity:1;"
       d="M 29.2429 15.8991 L 69.8423 26.6877 "
       id="path633"
       transform="translate(1.135645,0.851736)" />
    <path
       style="fill:none;fill-rule:evenodd;stroke:#42667e;stroke-opacity:1;stroke-width:1pt;stroke-linejoin:miter;stroke-linecap:butt;fill-opacity:1;"
       d="M 27.8233 19.306 L 67.8549 30.9464 "
       id="path634"
       transform="matrix(0.999855,-1.703691e-2,1.703691e-2,0.999855,-0.705041,5.077353)" />
    <path
       style="fill:none;fill-rule:evenodd;stroke:#42667e;stroke-opacity:1;stroke-width:1pt;stroke-linejoin:miter;stroke-linecap:butt;fill-opacity:1;"
       d="M 29.2429 15.8991 L 69.8423 26.6877 "
       id="path635"
       transform="translate(-5.394323,17.03470)" />
    <path
       style="fill:none;fill-rule:evenodd;stroke:#42667e;stroke-opacity:1;stroke-width:1pt;stroke-linejoin:miter;stroke-linecap:butt;fill-opacity:1;"
       d="M 29.2429 15.8991 L 69.8423 26.6877 "
       id="path637"
       transform="translate(-11.35647,34.06940)" />
    <path
       style="fill:none;fill-rule:evenodd;stroke:#42667e;stroke-opacity:1;stroke-width:1pt;stroke-linejoin:miter;stroke-linecap:butt;fill-opacity:1;"
       d="M 27.8233 19.306 L 67.8549 30.9464 "
       id="path638"
       transform="matrix(0.999855,-1.703691e-2,1.703691e-2,0.999855,-13.19715,38.29502)" />
    <path
       style="fill:none;fill-rule:evenodd;stroke:#42667e;stroke-opacity:1;stroke-width:1pt;stroke-linejoin:miter;stroke-linecap:butt;fill-opacity:1;"
       d="M 27.8233 19.306 L 67.8549 30.9464 "
       id="path639"
       transform="matrix(0.999855,-1.703691e-2,1.703691e-2,0.999855,-7.235008,21.26032)" />
    <path
       style="fill:none;fill-rule:evenodd;stroke:#414141;stroke-opacity:1;stroke-width:3.125;stroke-linejoin:round;stroke-linecap:round;fill-opacity:1;stroke-dasharray:none;"
       d="M 6.52997 44.858 C 1.51419 41.593 2.73854 34.2968 8.51734 34.1048 C 14.1459 33.634 18.9274 41.1672 15.6151 45.4258 "
       id="path640"
       sodipodi:nodetypes="csc" />
    <path
       style="fill:none;fill-rule:evenodd;stroke:#414141;stroke-opacity:1;stroke-width:3.125;stroke-linejoin:round;stroke-linecap:round;fill-opacity:1;stroke-dasharray:none;"
       d="M 6.52997 44.858 C 1.51419 41.593 2.73854 34.2968 8.51734 34.1048 C 14.1459 33.634 18.9274 41.1672 15.6151 45.4258 "
       id="path641"
       sodipodi:nodetypes="csc"
       transform="translate(3.690853,-9.369087)" />
    <path
       style="fill:none;fill-rule:evenodd;stroke:#414141;stroke-opacity:1;stroke-width:3.125;stroke-linejoin:round;stroke-linecap:round;fill-opacity:1;stroke-dasharray:none;"
       d="M 6.52997 44.858 C 1.51419 41.593 2.73854 34.2968 8.51734 34.1048 C 14.1459 33.634 18.9274 41.1672 15.6151 45.4258 "
       id="path642"
       sodipodi:nodetypes="csc"
       transform="translate(7.097792,-18.73817)" />
    <path
       style="fill:none;fill-rule:evenodd;stroke:#b9b9b9;stroke-opacity:1;stroke-width:0.75;stroke-linejoin:round;stroke-linecap:round;fill-opacity:1;stroke-dasharray:none;"
       d="M 5.67823 43.8643 C 2.08201 42.1608 2.73854 34.2968 8.51734 34.1048 C 14.1459 33.634 18.7854 40.4574 16.6088 45.4258 "
       id="path643"
       sodipodi:nodetypes="csc"
       transform="translate(7.097792,-19.30599)" />
    <path
       style="fill:none;fill-rule:evenodd;stroke:#b9b9b9;stroke-opacity:1;stroke-width:0.75;stroke-linejoin:round;stroke-linecap:round;fill-opacity:1;stroke-dasharray:none;"
       d="M 5.67823 43.8643 C 2.08201 42.1608 2.73854 34.2968 8.51734 34.1048 C 14.1459 33.634 18.7854 40.4574 16.6088 45.4258 "
       id="path644"
       sodipodi:nodetypes="csc"
       transform="translate(3.690853,-9.936905)" />
    <path
       style="fill:none;fill-rule:evenodd;stroke:#b9b9b9;stroke-opacity:1;stroke-width:0.75;stroke-linejoin:round;stroke-linecap:round;fill-opacity:1;stroke-dasharray:none;"
       d="M 5.67823 43.8643 C 2.08201 42.1608 2.73854 34.2968 8.51734 34.1048 C 14.1459 33.634 18.7854 40.4574 16.6088 45.4258 "
       id="path645"
       sodipodi:nodetypes="csc"
       transform="translate(0.000000,-0.567818)" />
  </g>
  <path
     style="fill:#000000;fill-opacity:1;fill-rule:evenodd;stroke:none;stroke-width:1pt;stroke-linecap:butt;stroke-linejoin:miter;stroke-opacity:1"
     d="M 27.72394,17.307726 L 37.026857,33.47542 L 20.859163,42.778336 L 48.876839,50.329591 L 50.936266,42.688408 L 46.085963,45.479282 L 30.803594,41.360417 L 42.120974,34.848375 L 35.608937,23.53099 L 50.891305,27.649855 L 53.682174,32.500165 L 55.741612,24.858981 L 27.72394,17.307726 z "
     id="path1120"
     sodipodi:nodetypes="ccccccccccccc" />
  <g
     id="g640"
     transform="matrix(0.4900668,0,0,0.4900668,42.56724,42.749732)">
    <defs
       id="defs2753" />
    <sodipodi:namedview
       id="namedview646" />
    <path
       style="fill:#6d6d6d;fill-opacity:0.33639999;fill-rule:evenodd;stroke:none"
       d="m 8.830681,22.59242 -2.6492,2.94357 7.064549,8.24197 c 0,0 -9.125049,9.12505 -9.125049,9.71376 0,0.58871 -0.58871,13.24603 -0.58871,13.24603 l 7.358909,0.88307 2.35485,7.35891 -6.770199,8.83068 13.834749,12.06861 5.59277,-8.53633 7.94762,1.17742 -0.88307,8.83069 20.60494,2.94356 -0.58871,-10.00811 5.00405,-2.06049 6.47584,8.53633 15.01212,-10.00811 -1.7661,-8.24198 11.7743,-8.83069 -4.7097,-8.53633 3.2379,-17.95573 -11.7743,-2.06049 10.5969,-6.7702 -10.3025,-13.54039 -15.89525,2.0605 -4.7097,-3.237933 -0.29436,-4.12097 -9.71376,2.06048 c 0,0 -13.24603,9.713763 -13.24603,10.891193 0,1.17742 -17.07266,5.29841 -17.07266,5.29841"
       id="path2760" />
    <path
       style="fill:#000000;fill-opacity:1;fill-rule:evenodd;stroke:none"
       d="M 18.51135,8.281527 6.135371,20.36314 12.27075,27.9703 9.997468,32.76393 0.883064,34.5537 l 0.918533,18.4759 8.172231,0.61235 3.780522,6.58341 -6.724085,7.31282 12.658505,12.06978 5.24049,-6.98298 6.30087,1.63729 -0.01182,7.93698 18.77024,2.68467 0,-9.12624 7.16031,-3.42705 6.73591,7.26552 12.10525,-9.38513 -7.53623,-9.71494 3.67414,-7.34827 9.38511,-0.318 L 83.00848,37.27385 71.83357,33.39993 69.00704,24.53259 59.20935,14.0398 51.03712,11.95566 32.64281,10.98984 c 0,0 -4.08671,3.18 -7.39556,3.7096 -1.83707,-1.53089 -3.79234,-5.252314 -6.7359,-6.417913 z"
       id="path2762"
       sodipodi:nodetypes="ccccccccccccccccccccccccccccc" />
    <path
       style="fill:#d8d8d8;fill-opacity:1;fill-rule:evenodd;stroke:none"
       d="m 18.54445,13.17302 -7.65327,7.65326 6.18148,6.18148 -5.29841,9.4194 -7.06455,0.58871 0.883069,12.95168 5.592771,0.58871 6.18148,10.00811 -6.18148,6.18149 7.35891,7.3589 5.88712,-5.29841 10.30247,4.12099 -0.29436,7.06455 12.95168,0.88307 0,-7.35891 9.71376,-4.7097 6.47583,5.00406 8.24198,-6.47584 -4.41535,-7.35891 3.53228,-7.06455 L 77.4157,52.3224 78.00441,38.78201 70.93986,37.60458 66.52452,29.36261 57.10512,17.294 51.51235,16.70529 33.26226,14.6448 c 0,0 -6.47584,5.88712 -8.24198,4.41534 -1.76614,-1.47178 -6.47583,-6.18148 -6.47583,-5.88712 z"
       id="path2764" />
    <path
       style="font-size:12px;fill:#848484;fill-opacity:1;fill-rule:evenodd;stroke-width:1"
       d="m 68.87937,43.78608 c 0,14.79374 -11.99269,26.78643 -26.78643,26.78643 -14.79372,0 -26.7864,-11.99269 -26.7864,-26.78643 0,-14.79373 11.99268,-26.78643 26.7864,-26.78643 14.79374,0 26.78643,11.9927 26.78643,26.78643 z"
       id="path2766" />
    <path
       style="font-size:12px;fill:#000000;fill-opacity:1;fill-rule:evenodd;stroke-width:1"
       d="m 66.81888,43.78608 c 0,13.65576 -11.07018,24.72593 -24.72594,24.72593 -13.65574,0 -24.72591,-11.07017 -24.72591,-24.72593 0,-13.65576 11.07017,-24.72594 24.72591,-24.72594 13.65576,0 24.72594,11.07018 24.72594,24.72594 z"
       id="path2768" />
    <path
       style="font-size:12px;fill:url(#radialGradient2784);fill-rule:evenodd;stroke-width:1"
       d="m 65.03453,43.78608 c 0,12.67028 -10.27129,22.94158 -22.94159,22.94158 -12.67027,0 -22.94157,-10.2713 -22.94157,-22.94158 0,-12.6703 10.2713,-22.94159 22.94157,-22.94159 12.6703,0 22.94159,10.27129 22.94159,22.94159 z"
       id="path2770" />
    <path
       style="fill:#000000;fill-opacity:1;fill-rule:evenodd;stroke:#000000;stroke-width:1pt;stroke-linecap:butt;stroke-linejoin:miter;stroke-opacity:1"
       d="M 32.37919,4.047976 33.26226,65.86279 51.8067,66.74586 50.92363,47.6127 71.23422,68.51199 84.48025,56.73774 63.87531,35.54409 85.95203,16.41093 73.29471,0.810051 51.8067,21.70935 c 0,0 1.17743,-19.427513 0.58872,-19.427513 -0.58872,0 -20.31059,1.471777 -20.01623,1.766139 z"
       id="path2772"
       sodipodi:nodetypes="cccccccccccc" />
    <path
       style="fill:#ffffff;fill-opacity:1;fill-rule:evenodd;stroke:none"
       d="M 48.56878,6.402817 48.86314,28.47954 71.82293,5.519753 80.94797,13.17302 59.16561,35.83845 80.35926,56.44339 70.05679,63.80229 47.98007,40.54815 47.68571,62.62487 c 0,0 -12.95167,2.06049 -12.36296,-0.58872 C 35.91146,59.38695 35.0284,6.697178 35.0284,6.697178 L 48.56878,6.402817 z"
       id="path2774"
       sodipodi:nodetypes="cccccccccccc" />
    <path
       style="fill:#ffffff;fill-opacity:1;fill-rule:evenodd;stroke:none"
       d="m 16.48395,26.41905 0.58871,-2.35485 -3.23792,-4.12099 6.47584,-5.29841 -1.76613,-1.76614 -7.65327,7.65326 5.59277,5.88713 z"
       id="path2776" />
    <path
       style="fill:#ffffff;fill-opacity:1;fill-rule:evenodd;stroke:none"
       d="M 11.47989,35.54409 10.59682,37.89894 6.770194,38.1933 7.358906,49.67319 5.298412,49.96755 4.7097,36.1328 11.47989,35.54409 z"
       id="path2778" />
    <path
       style="fill:#ffffff;fill-opacity:1;fill-rule:evenodd;stroke:none"
       d="m 11.47989,66.15714 5.88713,7.06455 -2.64921,-6.47583 3.23792,-6.47584 -6.47584,5.88712 z"
       id="path2780" />
    <path
       style="fill:#ffffff;fill-opacity:1;fill-rule:evenodd;stroke:none"
       d="m 34.73404,72.63298 2.6492,0.88307 -0.29435,6.47584 -2.94356,0 0.58871,-7.35891 z"
       id="path2782" />
  </g>
</svg>
