<?xml version="1.0" encoding="UTF-8" standalone="no"?>
<!-- Created with Sodipodi ("http://www.sodipodi.com/") -->
<svg
   xmlns:dc="http://purl.org/dc/elements/1.1/"
   xmlns:cc="http://creativecommons.org/ns#"
   xmlns:rdf="http://www.w3.org/1999/02/22-rdf-syntax-ns#"
   xmlns:svg="http://www.w3.org/2000/svg"
   xmlns="http://www.w3.org/2000/svg"
   xmlns:xlink="http://www.w3.org/1999/xlink"
   xmlns:sodipodi="http://sodipodi.sourceforge.net/DTD/sodipodi-0.dtd"
   xmlns:inkscape="http://www.inkscape.org/namespaces/inkscape"
   version="1.0"
   x="0"
   y="0"
   width="90"
   height="90"
   id="svg704"
   sodipodi:version="0.32"
   sodipodi:docname="gtk-screenshot.svg"
   sodipodi:docbase="/home/tweenk/GNUtoon/gtk"
   inkscape:version="0.45+devel"
   inkscape:output_extension="org.inkscape.output.svg.inkscape">
  <metadata
     id="metadata35">
    <rdf:RDF>
      <cc:Work
         rdf:about="">
        <dc:format>image/svg+xml</dc:format>
        <dc:type
           rdf:resource="http://purl.org/dc/dcmitype/StillImage" />
      </cc:Work>
    </rdf:RDF>
  </metadata>
  <sodipodi:namedview
     id="base"
     inkscape:zoom="3.5649967"
     inkscape:cx="8.0580141"
     inkscape:cy="34.707955"
     inkscape:window-width="1014"
     inkscape:window-height="708"
     inkscape:window-x="0"
     inkscape:window-y="1"
     inkscape:current-layer="svg704"
     width="90px"
     height="90px"
     showgrid="false" />
  <defs
     id="defs706">
    <linearGradient
       id="linearGradient633">
      <stop
         style="stop-color:#2ec2ff;stop-opacity:0.9294;"
         offset="0"
         id="stop634" />
      <stop
         style="stop-color:#ede29d;stop-opacity:1;"
         offset="1"
         id="stop635" />
    </linearGradient>
    <linearGradient
       id="linearGradient724">
      <stop
         style="stop-color:#ffffff;stop-opacity:0.4902;"
         offset="0"
         id="stop725" />
      <stop
         style="stop-color:#ffffff;stop-opacity:0.1765;"
         offset="1"
         id="stop726" />
    </linearGradient>
    <linearGradient
       id="linearGradient718">
      <stop
         style="stop-color:#e3e1cf;stop-opacity:1;"
         offset="0"
         id="stop719" />
      <stop
         style="stop-color:#ffffff;stop-opacity:1;"
         offset="1"
         id="stop720" />
    </linearGradient>
    <linearGradient
       x1="45.433064"
       y1="41.926235"
       x2="24.03751"
       y2="27.204851"
       id="linearGradient721"
       xlink:href="#linearGradient718"
       gradientUnits="userSpaceOnUse"
       gradientTransform="matrix(0.977805,0,0,0.914559,2.1295966,4.3562075)"
       spreadMethod="pad" />
    <linearGradient
       x1="40.260796"
       y1="39.844505"
       x2="37.319721"
       y2="68.666504"
       id="linearGradient723"
       xlink:href="#linearGradient724"
       gradientUnits="userSpaceOnUse"
       gradientTransform="matrix(1.12104,0,0,0.797706,2.1295966,4.3562075)"
       spreadMethod="pad" />
    <linearGradient
       id="linearGradient732"
       xlink:href="#linearGradient633"
       x1="40.102425"
       y1="20.578098"
       x2="33.246365"
       y2="77.997574"
       gradientTransform="matrix(0.966603,0,0,0.925161,2.1295966,4.3562075)"
       gradientUnits="userSpaceOnUse" />
  </defs>
  <path
     d="M 13.99367,66.84993 C 12.095903,64.140744 2.8907716,41.887497 10.782245,9.6263825 C 43.236596,2.9672015 71.363186,15.379593 85.965287,24.71367 C 88.945016,30.896301 83.85716,77.343051 72.96032,81.894189 C 65.652818,84.277116 27.41498,83.620227 13.99367,66.84993 z "
     style="font-size:12px;fill-opacity:0.3;fill-rule:evenodd;stroke-width:1"
     id="path743" />
  <path
     d="M 9.3965086,67.079799 C 7.4987446,64.370613 -1.7063924,42.117378 6.1850806,9.8562545 C 38.639432,3.1970705 66.766022,15.609462 81.368123,24.943551 C 84.347852,31.126179 79.260005,77.57292 68.363156,82.124061 C 61.055651,84.506985 22.817813,83.850105 9.3965086,67.079799 z "
     style="font-size:12px;fill:#211301;fill-rule:evenodd;stroke-width:1"
     id="path715" />
  <path
     d="M 13.766789,65.301639 C 12.221042,62.364957 3.5654506,45.826458 9.4389676,13.986114 C 42.670385,7.9580795 64.773122,20.786937 78.529448,28.515183 C 80.075093,34.079619 74.974403,75.812055 66.627899,78.285093 C 59.517914,80.603619 23.967974,79.212486 13.766789,65.301639 z "
     style="font-size:12px;fill:url(#linearGradient721);fill-rule:evenodd;stroke-width:1"
     id="path713" />
  <path
     d="M 17.321729,24.032856 L 15.118025,22.381641 C 14.808899,24.700167 10.675487,45.981075 14.385047,54.327579 C 18.712871,62.130747 23.415476,65.407203 22.951832,64.634328 C 17.696528,55.82418 13.30304,39.952992 17.321729,24.032856 z "
     style="font-size:12px;fill:#b5a794;fill-rule:evenodd;stroke-width:1"
     id="path717"
     sodipodi:nodetypes="ccccc" />
  <path
     d="M 17.095007,23.659899 C 17.095007,23.659899 10.845104,46.416225 18.857858,60.198057 C 24.947561,68.69163 44.658878,75.42234 60.844694,70.614693 C 63.889598,66.768567 70.780409,45.935409 64.370312,34.397046 C 61.96643,30.390612 32.960315,18.051018 17.095007,23.659899 z "
     style="font-size:12px;fill:url(#linearGradient732);fill-rule:evenodd;stroke-width:1"
     id="path711" />
  <path
     d="M 15.930701,46.599333 C 15.930701,46.599333 28.759538,29.13345 40.970117,40.262118 C 45.916295,56.800521 64.000343,60.664689 64.000343,60.664689 L 60.445403,69.474942 C 46.9982,74.266506 21.185909,64.374255 19.94939,60.664689 C 18.712871,56.955135 19.640255,62.674083 15.930701,46.599333 z "
     style="font-size:12px;fill:url(#linearGradient723);fill-rule:evenodd;stroke-width:1"
     id="path722" />
  <path
     d="M 78.838574,28.824315 C 78.838574,28.824315 73.73798,28.978932 73.583468,28.978932 C 73.428752,28.978932 74.356238,42.116904 73.73798,46.908468 C 73.119722,51.699927 71.574077,62.983215 70.646684,65.919897 C 69.719291,68.856684 64.309469,78.285093 63.845822,78.903351 C 63.382085,79.521609 65.08235,78.748737 67.709897,77.975967 C 74.819885,69.783972 78.37493,50.154378 78.838574,28.824315 z "
     style="font-size:12px;fill:#b5a794;fill-rule:evenodd;stroke-width:1"
     id="path716" />
  <path
     d="M 63.536699,78.594225 C 63.536699,78.594225 75.592757,69.165807 72.501461,29.59719 C 69.873809,26.969538 65.85512,24.032856 65.85512,24.032856 C 65.85512,24.032856 73.583366,27.742413 74.047115,28.978932 C 74.819885,30.679095 75.283529,71.638854 63.536699,78.594225 z "
     style="font-size:12px;fill:#211301;fill-rule:evenodd;stroke-width:1"
     id="path712" />
  <g
     id="g2416"
     transform="translate(-4.4880827,1.4025258)">
    <path
       sodipodi:nodetypes="cccccccccccccccc"
       id="path647"
       style="font-size:12px;fill:#000001;fill-opacity:1;fill-rule:evenodd;stroke-width:1"
       d="M 40.68143,81.555021 C 36.65645,76.453635 46.163339,81.05268 32.111864,65.365821 C 27.742931,57.932562 23.100953,51.242646 29.654327,48.269319 C 36.480776,46.782675 36.480776,58.675893 39.211361,59.171445 C 41.66888,55.702587 37.572998,41.083842 37.846073,38.606106 C 38.39219,35.385027 43.307216,32.659491 45.764744,36.128361 C 48.76838,39.349437 49.689854,49.365921 49.689854,49.365921 C 49.689854,49.365921 50.133668,37.119462 52.31813,34.393926 C 55.048715,32.41173 59.144579,32.163942 59.690705,36.376131 C 60.236819,40.588302 60.885206,43.171536 59.246861,47.383716 C 61.977437,43.667085 62.421272,37.367232 68.701616,40.09275 C 73.343567,41.579403 70.373768,47.871918 68.189279,51.83631 C 71.46596,49.854123 71.056832,48.629955 74.435825,47.511285 C 79.623929,44.785767 82.217528,53.345043 77.029433,59.539419 C 72.660491,64.7427 59.868866,82.283649 55.704515,85.031238 C 50.78948,85.526787 42.39239,85.532274 40.68143,81.555021 z" />
    <path
       id="path648"
       style="font-size:12px;fill:#ffffff;fill-rule:evenodd;stroke-width:1"
       d="M 42.578495,74.276928 C 40.316198,73.059822 37.898132,70.839693 35.089928,66.343968 C 31.345637,59.92152 25.182848,54.389082 30.799286,51.82008 C 36.649754,50.535579 33.919169,58.085994 39.80909,62.478567 C 43.826684,57.003684 39.224156,43.133946 39.458186,40.993137 C 39.926228,38.210058 43.319369,36.102951 45.42554,39.100107 C 47.453627,45.104235 49.560023,57.1146 49.560023,57.1146 C 51.198389,57.610152 51.627356,38.965332 53.499506,36.610416 C 55.839698,34.897761 58.257734,35.179227 58.725776,38.818623 C 59.1938,42.45801 57.243371,52.010319 57.750656,55.897488 C 60.090848,52.686252 62.431247,39.674961 67.813685,42.029838 C 71.791976,43.314348 66.370304,53.746824 64.498145,57.172134 C 67.306349,55.459479 71.519135,51.617937 74.093327,50.975688 C 78.539672,48.620802 79.202708,53.061045 71.752712,61.881927 C 68.008433,66.377661 61.768004,76.20366 57.55568,76.631814 C 53.34335,77.059986 43.046528,76.20366 42.578495,74.276928 z" />
    <path
       id="path649"
       style="font-size:12px;fill:#5fa2c7;fill-rule:evenodd;stroke-width:1"
       d="M 47.949206,59.419215 C 48.222254,60.905859 45.491687,64.374717 46.583909,64.62249 C 47.676149,64.870269 50.406734,63.135834 47.949206,59.419215 z" />
    <path
       id="path650"
       style="font-size:12px;fill:#5fa2c7;fill-rule:evenodd;stroke-width:1"
       d="M 55.321772,59.914776 C 55.59482,61.40142 52.864253,64.870269 53.956475,65.118048 C 55.048715,65.365821 57.779291,63.631395 55.321772,59.914776 z" />
    <path
       id="path651"
       style="font-size:12px;fill:#5fa2c7;fill-rule:evenodd;stroke-width:1"
       d="M 61.602098,61.15365 C 61.875146,62.640294 59.144579,66.109134 60.236801,66.356922 C 61.329041,66.604692 64.059617,64.870269 61.602098,61.15365 z" />
    <path
       id="path652"
       style="font-size:12px;fill:#ffffff;fill-rule:evenodd;stroke-width:1"
       d="M 43.453775,76.06983 C 43.453775,76.06983 40.832876,78.399525 43.162571,79.564374 C 45.492254,80.729211 53.354945,83.641314 55.975835,80.729211 C 58.596725,77.817105 60.343979,76.652268 58.596725,76.069851 C 55.102202,80.146782 43.744997,76.65225 43.453775,76.06983 z" />
  </g>
</svg>
