<?xml version="1.0" encoding="UTF-8" standalone="no"?>
<!DOCTYPE svg PUBLIC "-//W3C//DTD SVG 1.0//EN"
"http://www.w3.org/TR/2001/REC-SVG-20010904/DTD/svg10.dtd">
<!-- Created with Sodipodi ("http://www.sodipodi.com/") -->
<svg
   xmlns="http://www.w3.org/2000/svg"
   xmlns:xlink="http://www.w3.org/1999/xlink"
   version="1.0"
   x="0"
   y="0"
   width="90"
   height="90"
   id="svg704">
  <defs
     id="defs706">
    <linearGradient
       id="linearGradient633">
      <stop
         style="stop-color:#2ec2ff;stop-opacity:0.9294;"
         offset="0"
         id="stop634" />
      <stop
         style="stop-color:#ede29d;stop-opacity:1;"
         offset="1"
         id="stop635" />
    </linearGradient>
    <linearGradient
       id="linearGradient734">
      <stop
         style="stop-color:#2a2535;stop-opacity:1;"
         offset="0"
         id="stop735" />
      <stop
         style="stop-color:#e3e1cf;stop-opacity:1;"
         offset="1"
         id="stop736" />
    </linearGradient>
    <linearGradient
       id="linearGradient724">
      <stop
         style="stop-color:#ffffff;stop-opacity:0.4902;"
         offset="0"
         id="stop725" />
      <stop
         style="stop-color:#ffffff;stop-opacity:0.1765;"
         offset="1"
         id="stop726" />
    </linearGradient>
    <linearGradient
       id="linearGradient718">
      <stop
         style="stop-color:#e3e1cf;stop-opacity:1;"
         offset="0"
         id="stop719" />
      <stop
         style="stop-color:#ffffff;stop-opacity:1;"
         offset="1"
         id="stop720" />
    </linearGradient>
    <linearGradient
       x1="45.4330635"
       y1="41.9262352"
       x2="24.0375099"
       y2="27.2048512"
       id="linearGradient721"
       xlink:href="#linearGradient718"
       gradientUnits="userSpaceOnUse"
       gradientTransform="scale(1.033999,0.967119)"
       spreadMethod="pad" />
    <linearGradient
       x1="40.2607956"
       y1="39.8445053"
       x2="37.3197212"
       y2="68.6665039"
       id="linearGradient723"
       xlink:href="#linearGradient724"
       gradientUnits="userSpaceOnUse"
       gradientTransform="scale(1.185464,0.843551)"
       spreadMethod="pad" />
    <linearGradient
       x1="0.49999997"
       y1="2.34375969e-2"
       x2="0.37313432"
       y2="1.0859375"
       id="linearGradient732"
       xlink:href="#linearGradient633" />
    <radialGradient
       cx="33.2134209"
       cy="118.190964"
       r="14.8945398"
       fx="33.2134209"
       fy="118.190964"
       id="radialGradient733"
       xlink:href="#linearGradient734"
       gradientUnits="userSpaceOnUse"
       gradientTransform="scale(1.559286,0.641319)"
       spreadMethod="pad" />
    <radialGradient
       id="radialGradient738"
       xlink:href="#linearGradient734" />
  </defs>
  <path
     d="M 12.54589 66.08518 C 10.53906 63.2203 0.804919 39.68818 9.149907 5.573048 C 43.46938 -1.468831 73.21238 11.65689 88.65365 21.52739 C 91.80462 28.06533 86.42437 77.18133 74.9013 81.99402 C 67.17384 84.51389 26.73851 83.81925 12.54589 66.08518 z "
     style="font-size:12;fill-opacity:0.3;fill-rule:evenodd;"
     id="path743" />
  <path
     d="M 7.684535 66.32826 C 5.677707 63.46338 -4.056439 39.93127 4.288549 5.81613 C 38.60802 -1.225749 68.35102 11.89997 83.79229 21.77048 C 86.94326 28.30842 81.56302 77.42441 70.03994 82.2371 C 62.31248 84.75697 21.87715 84.06234 7.684535 66.32826 z "
     style="font-size:12;fill:#211301;fill-rule:evenodd;"
     id="path715" />
  <path
     d="M 12.30597 64.44791 C 10.67139 61.34246 1.518372 43.85351 7.729434 10.18333 C 42.87063 3.808869 66.24359 17.37499 80.79048 25.54737 C 82.42495 31.43159 77.03113 75.56235 68.20496 78.17751 C 60.68637 80.62928 23.09341 79.1582 12.30597 64.44791 z "
     style="font-size:12;fill:url(#linearGradient721);fill-rule:evenodd;"
     id="path713" />
  <path
     d="M 16.06521 20.80745 L 13.73486 19.06134 C 13.40797 21.51311 9.037015 44.01701 12.95976 52.84318 C 17.5363 61.09479 22.50916 64.55954 22.01887 63.74225 C 16.46155 54.42579 11.81557 37.6425 16.06521 20.80745 z "
     style="font-size:12;fill:#b5a794;fill-rule:evenodd;"
     id="path717" />
  <path
     d="M 15.82546 20.41306 C 15.82546 20.41306 9.216381 44.47717 17.68962 59.05103 C 24.12929 68.03272 44.9734 75.15024 62.0894 70.0663 C 65.30929 65.99914 72.59611 43.96872 65.81763 31.76726 C 63.2756 27.53058 32.60253 14.48184 15.82546 20.41306 z "
     style="font-size:12;fill:url(#linearGradient732);fill-rule:evenodd;"
     id="path711" />
  <path
     d="M 14.59424 44.6708 C 14.59424 44.6708 28.16034 26.20117 41.07265 37.96939 C 46.30308 55.45824 65.4264 59.54448 65.4264 59.54448 L 61.66716 68.86105 C 47.44716 73.92798 20.15146 63.46723 18.84388 59.54448 C 17.5363 55.62174 18.51698 61.66935 14.59424 44.6708 z "
     style="font-size:12;fill:url(#linearGradient723);fill-rule:evenodd;"
     id="path722" />
  <path
     d="M 81.11737 25.87427 C 81.11737 25.87427 75.72365 26.03777 75.56026 26.03777 C 75.39665 26.03777 76.37744 39.93077 75.72365 44.9977 C 75.06986 50.06452 73.43539 61.99625 72.4547 65.1017 C 71.47401 68.20726 65.75329 78.17751 65.263 78.8313 C 64.77261 79.48509 66.57059 78.6678 69.34914 77.85062 C 76.86773 69.18784 80.62708 48.43015 81.11737 25.87427 z "
     style="font-size:12;fill:#b5a794;fill-rule:evenodd;"
     id="path716" />
  <path
     d="M 64.93611 78.50441 C 64.93611 78.50441 77.68502 68.53415 74.41607 26.69156 C 71.63741 23.9129 67.38777 20.80745 67.38777 20.80745 C 67.38777 20.80745 75.56015 24.73019 76.05055 26.03777 C 76.86773 27.83564 77.35802 71.14932 64.93611 78.50441 z "
     style="font-size:12;fill:#211301;fill-rule:evenodd;"
     id="path712" />
  <g
     transform="matrix(0.296492,0.52485,-0.52485,0.296492,72.31445,21.92443)"
     style="font-size:12;"
     id="g636">
    <defs
       id="defs668">
      <linearGradient
         id="linearGradient689">
        <stop
           style="stop-color:#ffb700;stop-opacity:1;"
           offset="0"
           id="stop690" />
        <stop
           style="stop-color:#fdffff;stop-opacity:0;"
           offset="1"
           id="stop691" />
      </linearGradient>
      <linearGradient
         id="linearGradient684">
        <stop
           style="stop-color:#ffffff;stop-opacity:0.6471;"
           offset="0"
           id="stop685" />
        <stop
           style="stop-color:#fdffff;stop-opacity:0;"
           offset="1"
           id="stop686" />
      </linearGradient>
      <linearGradient
         id="linearGradient677">
        <stop
           style="stop-color:#000000;stop-opacity:1;"
           offset="0"
           id="stop678" />
        <stop
           style="stop-color:#6a6762;stop-opacity:1;"
           offset="1"
           id="stop679" />
      </linearGradient>
      <linearGradient
         x1="68.311676"
         y1="71.296051"
         x2="52.5783653"
         y2="39.5797806"
         id="linearGradient680"
         xlink:href="#linearGradient677"
         gradientUnits="userSpaceOnUse"
         gradientTransform="scale(1.011562,0.98857)"
         spreadMethod="pad" />
      <linearGradient
         x1="49.0257645"
         y1="44.3401871"
         x2="56.4553261"
         y2="53.1827507"
         id="linearGradient683"
         xlink:href="#linearGradient684"
         gradientUnits="userSpaceOnUse"
         gradientTransform="scale(1.017548,0.982755)"
         spreadMethod="pad" />
      <linearGradient
         x1="26.2959213"
         y1="98.9529343"
         x2="31.7159863"
         y2="102.827583"
         id="linearGradient688"
         xlink:href="#linearGradient689"
         gradientUnits="userSpaceOnUse"
         gradientTransform="scale(1.326975,0.753594)"
         spreadMethod="pad" />
      <linearGradient
         x1="33.5794411"
         y1="53.8219566"
         x2="-14.0691185"
         y2="26.5526485"
         id="linearGradient693"
         xlink:href="#linearGradient689"
         gradientUnits="userSpaceOnUse"
         gradientTransform="scale(0.780786,1.280761)"
         spreadMethod="pad" />
      <linearGradient
         id="linearGradient698"
         xlink:href="#linearGradient689" />
    </defs>
    <path
       d="M 1.43587 43.3341 C 1.43587 43.3341 13.9829 62.1334 24.4099 77.6156 C 26.361 79.271 38.7518 85.1307 41.6404 83.718 C 44.2164 82.1492 79.0892 55.3067 79.7142 52.1225 C 80.6982 48.5327 79.4883 46.2058 78.6141 44.411 C 77.8962 42.6161 54.5632 6.53978 53.6658 5.64236 C 52.7684 4.74493 50.2556 3.48854 47.2044 4.56545 C 39.4401 9.04617 15.007 24.332 2.58248 37.1683 C 0.96712 38.9632 1.25639 41.5392 1.43587 43.3341 z "
       transform="matrix(1.120973,0,0,0.970624,-0.312708,8.246927)"
       style="fill-opacity:0.298246;fill-rule:evenodd;stroke-width:1;"
       id="path699" />
    <path
       d="M 8.79473 37.4111 C 8.79473 37.4709 8.79473 37.5307 8.79473 37.5906 "
       style="fill:none;fill-rule:evenodd;stroke:#000000;stroke-width:1;"
       id="path671" />
    <path
       d="M 1.43587 43.3341 C 1.43587 43.3341 13.9829 62.1334 24.4099 77.6156 C 26.361 79.271 38.7518 85.1307 41.6404 83.718 C 44.2164 82.1492 79.0892 55.3067 79.7142 52.1225 C 80.6982 48.5327 79.4883 46.2058 78.6141 44.411 C 77.8962 42.6161 54.5632 6.53978 53.6658 5.64236 C 52.7684 4.74493 50.2556 3.48854 47.2044 4.56545 C 39.4401 9.04617 15.007 24.332 2.58248 37.1683 C 0.96712 38.9632 1.25639 41.5392 1.43587 43.3341 z "
       style="fill:#261d14;fill-rule:evenodd;stroke-width:1;"
       id="path676" />
    <path
       d="M 8.61525 37.5906 C 8.61525 37.5906 27.2816 66.8465 27.9995 68.1029 C 28.7175 69.3593 30.3329 71.1542 33.5636 72.0516 C 38.4097 74.0259 43.0762 75.8207 43.4352 75.8207 C 43.7942 75.8207 46.1275 73.6669 46.1275 73.6669 L 35.5379 60.3851 L 59.7683 39.2059 L 69.9989 54.1031 L 75.5629 49.616 C 75.5629 49.616 50.4351 8.69359 50.0761 8.69359 C 49.7172 8.69359 43.7942 12.2833 43.7942 12.2833 L 56.3581 31.3086 C 56.3581 31.3086 31.7687 49.4366 29.6149 51.2314 C 27.6406 51.2314 13.4613 33.4624 13.4613 33.4624 L 8.61525 37.5906 z "
       style="fill:#f1e36c;fill-rule:evenodd;stroke-width:1;"
       id="path672" />
    <path
       d="M 14.8972 32.565 L 29.6149 49.2571 L 54.2043 30.7702 L 42.3583 12.8217 L 14.8972 32.565 z "
       style="fill:#ffffff;fill-rule:evenodd;stroke-width:1;"
       id="path673" />
    <path
       d="M 37.5122 60.5646 L 47.0249 72.4105 L 49.3582 70.6157 L 41.1019 60.3851 C 41.1019 60.3851 43.7942 57.3338 45.589 57.1544 C 48.4608 59.8466 54.2043 67.026 54.2043 67.026 L 69.1015 55.7185 L 59.2298 41.5392 L 37.5122 60.5646 z "
       style="fill:url(#linearGradient680);fill-rule:evenodd;stroke-width:1;"
       id="path674" />
    <path
       d="M 7.92054 38.5345 C 7.20261 38.355 28.897 71.872 29.4355 71.872 C 29.9739 71.872 41.4609 76.7182 41.4609 76.7182 L 40.743 79.0514 L 28.7175 75.6413 L 5.40776 41.25 L 7.92054 38.5345 z "
       style="fill:#f1e36c;fill-rule:evenodd;stroke-width:1;"
       id="path675" />
    <path
       d="M 42.3583 60.2056 L 49.7172 69.7183 L 52.9479 67.026 L 45.2301 57.6928 L 42.3583 60.2056 z "
       style="fill:#f1e36c;fill-rule:evenodd;stroke-width:1;"
       id="path681" />
    <path
       d="M 59.0625 42.5 L 45.1563 54.6875 C 46.3542 58.2291 50.3646 60.9895 52.0313 62.9687 C 54.5834 43.802 59.948 45.4166 65.3126 52.3437 L 59.0625 42.5 z "
       style="fill:url(#linearGradient683);fill-rule:evenodd;stroke-width:1;"
       id="path682" />
    <path
       d="M 41.25 76.7187 L 40.625 79.0625 L 28.5938 75.9375 L 29.0625 71.875 L 41.25 76.7187 z "
       style="fill:url(#linearGradient688);fill-rule:evenodd;stroke-width:1;"
       id="path687" />
    <path
       d="M 28.5938 75.7812 L 29.375 72.1875 L 12.5 46.5625 L 11.5625 50 L 28.5938 75.7812 z "
       style="fill:url(#linearGradient693);fill-rule:evenodd;stroke-width:1;"
       id="path692" />
    <path
       d="M 14.8438 32.5 L 21.0938 39.5312 L 47.8126 20.7812 L 42.3438 12.8125 L 14.8438 32.5 z "
       style="fill:#bae6ff;fill-rule:evenodd;stroke-width:1;"
       id="path697" />
  </g>
</svg>
