<?xml version="1.0" encoding="UTF-8" standalone="no"?>
<!-- Created with Inkscape (http://www.inkscape.org/) -->
<svg
   xmlns:dc="http://purl.org/dc/elements/1.1/"
   xmlns:cc="http://web.resource.org/cc/"
   xmlns:rdf="http://www.w3.org/1999/02/22-rdf-syntax-ns#"
   xmlns:svg="http://www.w3.org/2000/svg"
   xmlns="http://www.w3.org/2000/svg"
   xmlns:xlink="http://www.w3.org/1999/xlink"
   xmlns:sodipodi="http://sodipodi.sourceforge.net/DTD/sodipodi-0.dtd"
   xmlns:inkscape="http://www.inkscape.org/namespaces/inkscape"
   width="90"
   height="90"
   id="svg1"
   sodipodi:version="0.32"
   inkscape:version="0.45.1"
   sodipodi:docbase="/home/tweenk/GNUtoon/devices"
   sodipodi:docname="camera-photo.svg"
   inkscape:output_extension="org.inkscape.output.svg.inkscape"
   version="1.0">
  <defs
     id="defs3">
    <linearGradient
       id="linearGradient3179">
      <stop
         style="stop-color:#7a889e;stop-opacity:1;"
         offset="0"
         id="stop3181" />
      <stop
         style="stop-color:#c2c2c2;stop-opacity:1;"
         offset="1"
         id="stop3183" />
    </linearGradient>
    <linearGradient
       id="linearGradient7168">
      <stop
         style="stop-color:#a9e2f5;stop-opacity:1;"
         offset="0"
         id="stop7170" />
      <stop
         style="stop-color:#31baff;stop-opacity:1;"
         offset="1"
         id="stop7172" />
    </linearGradient>
    <linearGradient
       id="linearGradient7158">
      <stop
         style="stop-color:#ed0000;stop-opacity:1;"
         offset="0"
         id="stop7160" />
      <stop
         style="stop-color:#ffc93f;stop-opacity:1;"
         offset="1"
         id="stop7162" />
    </linearGradient>
    <linearGradient
       id="linearGradient7142">
      <stop
         style="stop-color:#9b9a9a;stop-opacity:1;"
         offset="0"
         id="stop7144" />
      <stop
         style="stop-color:#ffffff;stop-opacity:1;"
         offset="1"
         id="stop7146" />
    </linearGradient>
    <linearGradient
       id="linearGradient1827">
      <stop
         offset="0.0000000"
         style="stop-color:#545454;stop-opacity:1.0000000;"
         id="stop1829" />
      <stop
         offset="1.0000000"
         style="stop-color:#a098a0;stop-opacity:1.0000000;"
         id="stop1828" />
    </linearGradient>
    <defs
       id="defs1063">
      <sodipodi:namedview
         id="namedview909" />
      <defs
         id="defs550">
        <linearGradient
           x1="0"
           y1="0"
           x2="1"
           y2="0"
           id="linearGradient632"
           gradientUnits="objectBoundingBox"
           spreadMethod="pad">
          <stop
             style="stop-color:#ffb700;stop-opacity:1;"
             offset="0.000000"
             id="stop633" />
          <stop
             style="stop-color:#ffd58f;stop-opacity:0;"
             offset="1.000000"
             id="stop634" />
        </linearGradient>
        <linearGradient
           x1="0"
           y1="0"
           x2="1"
           y2="0"
           id="linearGradient556"
           gradientUnits="objectBoundingBox"
           spreadMethod="pad"
           xlink:href="#linearGradient1827" />
        <linearGradient
           id="linearGradient559"
           xlink:href="#linearGradient632"
           x1="60.644615"
           y1="19.295689"
           x2="35.370575"
           y2="69.142799"
           gradientUnits="userSpaceOnUse"
           spreadMethod="pad" />
        <linearGradient
           xlink:href="#linearGradient632"
           id="linearGradient631"
           x1="85.637657"
           y1="17.443844"
           x2="73.916298"
           y2="54.628181"
           gradientUnits="userSpaceOnUse"
           spreadMethod="pad"
           gradientTransform="scale(0.740666,1.350136)" />
      </defs>
    </defs>
    <linearGradient
       inkscape:collect="always"
       xlink:href="#linearGradient7142"
       id="linearGradient7148"
       x1="34.189445"
       y1="43.199741"
       x2="13.59375"
       y2="17.699739"
       gradientUnits="userSpaceOnUse"
       gradientTransform="matrix(1.4397094,0,0,1.472251,-0.9726862,-0.899694)" />
    <linearGradient
       inkscape:collect="always"
       xlink:href="#linearGradient7142"
       id="linearGradient7156"
       x1="35.625"
       y1="36.830536"
       x2="44.007076"
       y2="21.205536"
       gradientUnits="userSpaceOnUse"
       gradientTransform="matrix(1.5508502,0,0,1.7031,-4.4638752,-5.2400564)" />
    <radialGradient
       inkscape:collect="always"
       xlink:href="#linearGradient7168"
       id="radialGradient7174"
       cx="49.080891"
       cy="32.531857"
       fx="49.080891"
       fy="32.531857"
       r="5.8858232"
       gradientTransform="matrix(1.5001733,0.2700245,-0.9888335,3.8496009,29.46951,-88.057804)"
       gradientUnits="userSpaceOnUse" />
    <linearGradient
       inkscape:collect="always"
       xlink:href="#linearGradient7168"
       id="linearGradient7182"
       x1="31.440365"
       y1="11.751751"
       x2="39.264496"
       y2="6.0017509"
       gradientUnits="userSpaceOnUse"
       gradientTransform="matrix(1.4397094,0,0,1.472251,-0.9726862,-0.899694)" />
    <linearGradient
       inkscape:collect="always"
       xlink:href="#linearGradient7158"
       id="linearGradient7252"
       x1="16.849552"
       y1="32.788494"
       x2="23.171883"
       y2="25.508554"
       gradientUnits="userSpaceOnUse"
       gradientTransform="matrix(1.1215648,0,0,1.1469154,-0.385354,-2.7182046)" />
    <linearGradient
       inkscape:collect="always"
       xlink:href="#linearGradient3179"
       id="linearGradient3185"
       x1="34.66515"
       y1="71.690941"
       x2="20.339085"
       y2="39.940941"
       gradientUnits="userSpaceOnUse" />
  </defs>
  <sodipodi:namedview
     id="base"
     pagecolor="#ffffff"
     bordercolor="#666666"
     borderopacity="1.0"
     inkscape:pageopacity="0.0"
     inkscape:pageshadow="2"
     inkscape:zoom="4"
     inkscape:cx="56.846639"
     inkscape:cy="46.137782"
     inkscape:current-layer="svg1"
     inkscape:window-width="795"
     inkscape:window-height="623"
     inkscape:window-x="20"
     inkscape:window-y="70"
     width="90px"
     height="90px" />
  <metadata
     id="metadata4">
    <rdf:RDF>
      <cc:Work
         rdf:about="">
        <dc:format>image/svg+xml</dc:format>
        <dc:type
           rdf:resource="http://purl.org/dc/dcmitype/StillImage" />
      </cc:Work>
    </rdf:RDF>
  </metadata>
  <g
     inkscape:label="Layer 1"
     inkscape:groupmode="layer"
     id="layer1" />
  <path
     style="fill:#000000;fill-opacity:0.29411766;fill-rule:evenodd;stroke:none;stroke-width:1px;stroke-linecap:butt;stroke-linejoin:miter;stroke-opacity:1"
     d="M 6.8692173,29.0828 C 0.65892543,32.569322 3.9352494,39.247892 4.6068937,44.748079 C 5.5376528,52.370188 5.9002933,59.207276 6.1030016,67.037898 C 5.9031236,71.709789 6.4549136,77.015109 9.984322,80.297492 C 14.738319,86.070654 21.71372,90.155462 28.82953,89.677717 C 33.37824,89.189502 39.573308,85.661387 43.335894,83.151365 C 46.971666,80.472298 42.651225,76.471878 48.697361,73.754788 C 53.259899,73.321518 51.772687,73.833435 55.895736,71.51003 C 58.252175,78.193907 60.307435,81.838494 73.562836,80.919569 C 82.664423,79.860931 93.401195,57.334826 88.62232,38.481795 C 84.355161,25.183357 31.737285,26.742059 6.8692173,29.0828 z "
     id="path2206"
     sodipodi:nodetypes="csccccccccc" />
  <path
     style="fill:#283d53;fill-opacity:1;fill-rule:evenodd;stroke:none;stroke-width:1px;stroke-linecap:butt;stroke-linejoin:miter;stroke-opacity:1"
     d="M 61.737523,0.9229652 C 57.140002,1.0083051 46.714715,-0.5244278 42.283216,1.364088 C 34.538055,4.6647449 31.649977,7.8478536 30.246304,14.47364 C 22.37472,16.904186 15.886402,19.286331 4.3134232,23.71474 C -1.8968692,27.201262 1.3794548,33.879832 2.0510995,39.380019 C 2.9818582,47.002128 3.3444991,53.839216 3.547207,61.66984 C 3.3473291,66.341726 3.8991187,71.647051 7.4285272,74.929432 C 12.182525,80.702598 19.157926,84.787399 26.273736,84.309654 C 30.822446,83.821446 37.017514,80.293329 40.7801,77.783308 C 44.415872,75.104237 40.095431,71.10382 46.141567,68.386725 C 50.704105,67.953463 49.216893,68.465372 53.339942,66.141973 C 55.696381,72.825845 57.751641,76.470433 71.007042,75.551509 C 80.108629,74.492868 90.845397,51.966766 86.066521,33.113735 C 84.298438,26.138512 76.839055,24.072207 72.975926,22.887712 C 73.466678,17.74645 72.150874,14.61445 68.608535,12.802097 C 68.17247,12.32556 65.518459,11.4599 62.414352,10.693175 C 62.667001,8.356359 62.94664,5.3124829 61.737523,0.9229652 z "
     id="path3189"
     sodipodi:nodetypes="ccccscccccccscccc" />
  <path
     style="fill:url(#linearGradient7148);fill-opacity:1;fill-rule:evenodd;stroke:none;stroke-width:0.91862684px;stroke-linecap:butt;stroke-linejoin:miter;stroke-opacity:1"
     d="M 50.67689,3.7931058 C 47.881668,3.8984881 45.255307,4.214743 43.613314,4.7132628 C 34.288575,8.461092 34.364415,14.008961 35.289993,17.089371 C 36.904137,20.140107 44.434696,20.458304 44.018233,20.585968 C 36.587176,20.653362 34.425418,19.620823 32.725512,17.871505 C 24.634829,20.475786 17.300566,23.979292 6.8107429,27.993232 C 4.7167157,29.037355 4.4836979,29.090375 4.8311423,31.305797 C 11.631708,37.61792 17.817991,39.060601 23.8623,40.093294 C 28.447072,40.448292 28.34706,38.150561 30.925876,36.090612 C 32.590692,34.760757 34.229525,33.369223 35.784895,32.548008 C 38.391407,30.332188 34.782416,28.60117 36.234803,26.428964 C 38.189725,24.829533 41.751503,23.761593 46.717688,23.116399 C 45.037081,26.010046 37.467956,26.868611 37.674513,27.119082 C 38.799509,28.483256 39.884353,30.15612 40.238996,31.903898 C 40.636922,33.865 42.872325,36.565312 39.919572,51.780051 C 40.03056,41.852731 40.692715,33.614625 38.134254,33.878718 C 36.811951,34.015212 34.365645,35.230649 33.175421,36.090612 C 28.021764,39.361196 29.975558,40.100297 25.79691,42.071632 C 22.540074,43.60809 12.182701,40.281423 5.2810518,34.342315 C 5.5410234,35.458357 5.9467816,38.177061 6.0908882,39.357168 C 6.9094193,46.060229 7.7572499,53.036243 7.9355159,59.922673 C 7.7597388,64.03124 7.6660997,68.860088 10.769944,71.746689 C 14.95072,76.823745 21.068795,80.448241 27.326603,80.0281 C 31.326846,79.598761 34.545567,76.622515 37.854477,74.415144 C 41.051855,72.059107 37.396382,67.511038 42.713497,65.121559 C 47.08338,64.706596 48.865924,64.569631 52.926435,62.315081 C 52.943439,61.953689 52.867672,60.894753 52.881445,60.566785 C 51.831728,60.125427 47.952487,59.319102 47.167598,55.689951 C 46.521468,53.970232 45.007345,51.284552 44.333168,50.169012 C 42.452311,30.479108 54.492985,27.514512 54.816053,27.349122 C 58.013038,25.712466 64.652382,26.281564 65.298937,25.830863 C 66.371406,25.083264 67.638494,24.366199 69.168156,23.622486 C 69.010483,20.423597 68.715666,18.319244 65.703856,16.813326 C 64.850909,16.351128 61.702414,15.317272 60.799846,14.973013 C 61.184005,18.886856 57.090382,19.30149 53.826254,19.527788 C 57.846473,18.638348 58.628683,17.988605 58.505308,14.650956 C 58.665982,12.05568 57.95215,8.332063 58.775255,4.1151609 C 56.438709,3.7685376 53.472111,3.6877238 50.67689,3.7931058 z "
     id="path3195"
     sodipodi:nodetypes="ccccccccscccsscscscscccccccccssccccccc" />
  <path
     style="fill:url(#linearGradient7156);fill-opacity:1;fill-rule:evenodd;stroke:none;stroke-width:0.91862684px;stroke-linecap:butt;stroke-linejoin:miter;stroke-opacity:1"
     d="M 44.207941,50.237682 L 47.392675,56.571084 C 51.064604,58.89259 51.709056,58.603126 53.077344,58.699961 C 53.659942,54.785711 54.444162,53.221323 55.777279,49.0668 C 55.351049,56.533577 54.197261,65.653107 60.613786,70.619854 C 62.929522,71.850473 65.492542,71.28698 67.553726,72.193261 C 81.470011,72.840893 89.926991,33.852552 77.481914,28.5459 C 75.833268,27.754111 74.17773,27.049187 72.351669,26.693072 C 62.910231,27.456931 59.462022,36.426965 57.152157,42.005588 C 58.340994,36.167493 59.757838,31.54085 62.977426,28.172389 C 61.036574,27.75315 60.400967,28.013756 58.297092,28.023618 C 57.903588,28.025546 45.244957,32.739552 44.207941,50.237682 z "
     id="path7140"
     sodipodi:nodetypes="ccccccccccsc" />
  <path
     style="fill:#283d53;fill-opacity:1;fill-rule:evenodd;stroke:none;stroke-width:1px;stroke-linecap:butt;stroke-linejoin:miter;stroke-opacity:1"
     d="M 17.70942,75.720562 C 23.530892,81.359775 31.201719,77.335494 36.036915,72.713595 C 38.939801,62.370084 38.902237,36.627283 37.995521,35.804377 C 37.260224,34.155456 34.897985,36.745585 33.73669,37.785816 C 28.67569,42.235561 24.325553,46.153363 17.991186,43.075569 C 16.629441,45.460563 16.142702,50.269388 17.017257,54.257146 C 15.581063,58.275096 15.964185,61.710915 17.17726,64.418757 C 16.738717,66.82205 15.716635,72.022423 17.70942,75.720562 z "
     id="path9221"
     sodipodi:nodetypes="cccccccc" />
  <path
     style="fill:url(#linearGradient3185);fill-opacity:1.0;fill-rule:evenodd;stroke:none;stroke-width:1px;stroke-linecap:butt;stroke-linejoin:miter;stroke-opacity:1"
     d="M 18.899244,75.093018 C 25.612567,79.197098 30.607831,75.574429 35.253133,71.038141 C 38.042011,60.886222 37.38969,49.231428 37.839083,38.583255 C 37.484796,35.033563 35.127296,38.403421 34.01161,39.424383 C 29.149372,43.791706 24.97008,47.636938 18.884485,44.616155 C 17.57622,46.956972 17.907152,51.846028 18.373868,53.809 C 22.376598,54.033267 23.66171,59.267392 35.023378,48.594208 C 24.472069,62.422757 19.880712,55.133255 18.287775,55.54271 C 17.636331,58.751904 17.194187,60.758475 18.553367,63.919388 C 20.934492,64.946073 23.352411,69.339647 33.801868,61.460344 C 23.974367,71.111234 22.279418,67.828749 18.522498,66.242363 C 18.189212,69.060976 16.984724,71.463382 18.899244,75.093018 z "
     id="path2208"
     sodipodi:nodetypes="cccccccccccc" />
  <path
     style="fill:url(#radialGradient7174);fill-opacity:1;fill-rule:evenodd;stroke:#283d53;stroke-width:0.71914005;stroke-linecap:butt;stroke-linejoin:miter;stroke-miterlimit:4;stroke-dasharray:none;stroke-opacity:1"
     d="M 64.683589,68.62545 C 71.738894,72.560049 77.812042,62.10545 79.255009,57.319907 C 81.545682,49.722981 82.465608,34.710861 77.116895,32.18297 C 63.273884,25.64054 54.959188,62.188597 64.683589,68.62545 z "
     id="path4180"
     sodipodi:nodetypes="cssc" />
  <path
     style="fill:#ffffff;fill-opacity:1;fill-rule:evenodd;stroke:none;stroke-width:1px;stroke-linecap:butt;stroke-linejoin:miter;stroke-opacity:1"
     d="M 68.51065,35.344712 C 71.400396,37.386252 73.059794,40.280886 73.742054,47.547618 C 74.437909,40.563421 73.970969,36.385091 71.272958,33.65555 C 69.525931,32.624646 69.120323,33.935015 68.51065,35.344712 z "
     id="path4189"
     sodipodi:nodetypes="cccc" />
  <path
     style="fill:#283d53;fill-opacity:1;fill-rule:evenodd;stroke:none;stroke-width:1px;stroke-linecap:butt;stroke-linejoin:miter;stroke-opacity:1"
     d="M 42.866157,6.689804 C 41.882608,11.728662 42.172352,15.331913 43.084603,18.583155 C 46.74931,16.774842 53.213524,16.51739 56.825555,17.208533 C 57.625119,14.268684 57.096847,8.299909 57.136727,5.6780526 C 52.322229,4.9674817 48.228903,5.6490567 42.866157,6.689804 z "
     id="path4200"
     sodipodi:nodetypes="ccccc" />
  <path
     style="fill:url(#linearGradient7182);fill-opacity:1;fill-rule:evenodd;stroke:none;stroke-width:1px;stroke-linecap:butt;stroke-linejoin:miter;stroke-opacity:1"
     d="M 43.566053,7.2753883 C 43.083296,10.233442 43.108338,16.055284 43.559488,17.759756 C 44.475793,17.281176 44.935773,17.129078 46.075787,16.890126 C 46.533526,15.350963 46.635074,14.61212 47.004311,12.186268 C 47.236892,14.199223 47.124289,14.99136 46.819634,16.738378 C 47.647152,16.614201 48.69223,16.312378 49.547982,16.28042 C 50.045632,14.83381 50.083161,14.979255 50.40812,11.947595 C 50.568377,14.024099 50.450712,14.87455 50.310774,16.262106 C 51.033701,16.265564 52.258689,16.199199 52.952366,16.253359 C 53.440958,14.797373 53.528181,14.741059 53.72577,11.813405 C 54.159697,13.736737 53.794028,15.548808 53.687378,16.340278 C 54.167182,16.398005 55.674874,16.596399 56.11584,16.673351 C 56.647533,14.544794 56.910558,8.224082 56.22122,6.2104046 C 53.268151,7.3104191 44.470345,7.376044 43.566053,7.2753883 z "
     id="path5179"
     sodipodi:nodetypes="cccccccccccccc" />
  <path
     style="fill:#ffffff;fill-opacity:1;fill-rule:evenodd;stroke:none;stroke-width:1px;stroke-linecap:butt;stroke-linejoin:miter;stroke-opacity:1"
     d="M 44.790088,11.173431 C 44.527627,9.95933 44.667353,10.04774 45.429142,9.164715 C 48.675424,8.374288 52.420536,8.452667 55.715871,8.456771 C 55.635575,10.018843 55.683742,11.656945 55.509565,13.258312 C 55.276413,7.8138932 48.771945,10.298927 44.790088,11.173431 z "
     id="path7130"
     sodipodi:nodetypes="ccccc" />
  <path
     style="fill:#593a28;fill-opacity:1;fill-rule:evenodd;stroke:none;stroke-width:1px;stroke-linecap:butt;stroke-linejoin:miter;stroke-opacity:1"
     d="M 30.535842,34.05082 C 26.098574,37.021941 19.687079,36.338271 14.783181,35.789716 C 13.277206,33.185926 12.771006,31.258762 12.485869,29.090027 C 16.139901,23.26137 29.12645,23.796568 31.519806,26.367842 C 32.153302,29.442306 31.65197,31.654631 30.535842,34.05082 z "
     id="path7192"
     sodipodi:nodetypes="ccccc" />
  <path
     style="fill:url(#linearGradient7252);fill-opacity:1;fill-rule:evenodd;stroke:none;stroke-width:1px;stroke-linecap:butt;stroke-linejoin:miter;stroke-opacity:1"
     d="M 28.756229,33.157362 C 25.2995,35.471929 20.304806,34.939338 16.484564,34.511999 C 15.311376,32.483589 14.662527,31.763066 14.4404,30.073575 C 16.931449,32.197605 22.919637,32.250265 27.072608,29.450473 C 20.350874,31.734232 13.491204,30.032751 15.310671,28.284758 C 17.945301,25.753628 27.926909,25.584512 29.586384,27.367348 C 30.079892,29.762426 29.625714,31.290676 28.756229,33.157362 z "
     id="path7244"
     sodipodi:nodetypes="ccccscc" />
</svg>
