<?xml version="1.0" encoding="UTF-8" standalone="no"?>
<!-- Created with Sodipodi ("http://www.sodipodi.com/") -->
<svg
   xmlns:dc="http://purl.org/dc/elements/1.1/"
   xmlns:cc="http://creativecommons.org/ns#"
   xmlns:rdf="http://www.w3.org/1999/02/22-rdf-syntax-ns#"
   xmlns:svg="http://www.w3.org/2000/svg"
   xmlns="http://www.w3.org/2000/svg"
   xmlns:xlink="http://www.w3.org/1999/xlink"
   xmlns:sodipodi="http://sodipodi.sourceforge.net/DTD/sodipodi-0.dtd"
   xmlns:inkscape="http://www.inkscape.org/namespaces/inkscape"
   id="svg596"
   sodipodi:version="0.32"
   width="72pt"
   height="72pt"
   sodipodi:docbase="/home/zeus/.icons/gartoon/scalable/mimetypes"
   sodipodi:docname="image-png.svg"
   inkscape:version="0.46+devel"
   inkscape:output_extension="org.inkscape.output.svg.inkscape">
  <metadata
     id="metadata40">
    <rdf:RDF>
      <cc:Work
         rdf:about="">
        <dc:format>image/svg+xml</dc:format>
        <dc:type
           rdf:resource="http://purl.org/dc/dcmitype/StillImage" />
      </cc:Work>
    </rdf:RDF>
  </metadata>
  <defs
     id="defs598">
    <inkscape:perspective
       sodipodi:type="inkscape:persp3d"
       inkscape:vp_x="0 : 45 : 1"
       inkscape:vp_y="0 : 1000 : 0"
       inkscape:vp_z="90 : 45 : 1"
       inkscape:persp3d-origin="45 : 30 : 1"
       id="perspective42" />
    <linearGradient
       id="linearGradient612">
      <stop
         style="stop-color:#7fa8e3;stop-opacity:0.741176;"
         offset="0.000000"
         id="stop613" />
      <stop
         style="stop-color:#ffffff;stop-opacity:0;"
         offset="1.000000"
         id="stop614" />
    </linearGradient>
    <linearGradient
       id="linearGradient626">
      <stop
         style="stop-color:#ff0047;stop-opacity:1;"
         offset="0.000000"
         id="stop627" />
      <stop
         style="stop-color:#ab322d;stop-opacity:0;"
         offset="1.000000"
         id="stop628" />
    </linearGradient>
    <linearGradient
       id="linearGradient618">
      <stop
         style="stop-color:#956d47;stop-opacity:1;"
         offset="0.000000"
         id="stop619" />
      <stop
         style="stop-color:#ab322d;stop-opacity:0;"
         offset="1.000000"
         id="stop620" />
    </linearGradient>
    <linearGradient
       id="linearGradient614">
      <stop
         style="stop-color:#000;stop-opacity:1;"
         offset="0"
         id="stop615" />
      <stop
         style="stop-color:#fff;stop-opacity:1;"
         offset="1"
         id="stop616" />
    </linearGradient>
    <linearGradient
       xlink:href="#linearGradient618"
       id="linearGradient617"
       y2="21.446371"
       x2="54.455856"
       y1="22.932673"
       x1="14.043809"
       spreadMethod="pad"
       gradientUnits="userSpaceOnUse"
       gradientTransform="matrix(0.417027,0,0,1.060735,22.0476,17.24032)" />
    <linearGradient
       xlink:href="#linearGradient626"
       id="linearGradient625"
       x1="42.9995728"
       y1="77.3980103"
       x2="28.5382881"
       y2="63.0152588"
       gradientUnits="userSpaceOnUse"
       spreadMethod="pad"
       gradientTransform="matrix(0.621202,0,0,0.712096,22.0476,17.24032)" />
    <linearGradient
       xlink:href="#linearGradient612"
       id="linearGradient636"
       x1="16.4110699"
       y1="10.6072874"
       x2="24.6243172"
       y2="61.6665344"
       gradientUnits="userSpaceOnUse"
       spreadMethod="pad" />
    <linearGradient
       spreadMethod="pad"
       gradientUnits="userSpaceOnUse"
       y2="68.0443573"
       x2="35.7520943"
       y1="5.36792946"
       x1="50.6438866"
       id="linearGradient615"
       xlink:href="#linearGradient612" />
    <linearGradient
       id="linearGradient2571">
      <stop
         id="stop2573"
         offset="0.000000"
         style="stop-color:#7fa8e3;stop-opacity:0.741176;" />
      <stop
         id="stop2575"
         offset="1.000000"
         style="stop-color:#ffffff;stop-opacity:0;" />
    </linearGradient>
    <linearGradient
       gradientTransform="scale(1.004516,0.995504)"
       spreadMethod="pad"
       gradientUnits="userSpaceOnUse"
       y2="20.9627991"
       x2="63.4654961"
       y1="23.2124691"
       x1="66.3316956"
       id="linearGradient622"
       xlink:href="#linearGradient619" />
    <linearGradient
       id="linearGradient619">
      <stop
         id="stop2567"
         offset="0.000000"
         style="stop-color:#770000;stop-opacity:1;" />
      <stop
         id="stop621"
         offset="1.000000"
         style="stop-color:#ffffff;stop-opacity:0;" />
    </linearGradient>
    <linearGradient
       gradientTransform="scale(0.912664,1.095694)"
       spreadMethod="pad"
       gradientUnits="userSpaceOnUse"
       y2="39.7629089"
       x2="51.6545258"
       y1="43.3772469"
       x1="56.3276138"
       id="linearGradient2564"
       xlink:href="#linearGradient626" />
    <linearGradient
       id="linearGradient2558">
      <stop
         id="stop2560"
         offset="0.000000"
         style="stop-color:#b5772d;stop-opacity:1;" />
      <stop
         id="stop2562"
         offset="1.000000"
         style="stop-color:#ffffff;stop-opacity:0;" />
    </linearGradient>
    <linearGradient
       id="linearGradient4137">
      <stop
         id="stop4139"
         offset="0"
         style="stop-color:#ed0000;stop-opacity:1;" />
      <stop
         id="stop4141"
         offset="1"
         style="stop-color:#ffc93f;stop-opacity:1;" />
    </linearGradient>
    <inkscape:perspective
       id="perspective2552"
       inkscape:persp3d-origin="45 : 30 : 1"
       inkscape:vp_z="90 : 45 : 1"
       inkscape:vp_y="0 : 1000 : 0"
       inkscape:vp_x="0 : 45 : 1"
       sodipodi:type="inkscape:persp3d" />
    <linearGradient
       inkscape:collect="always"
       xlink:href="#linearGradient4137"
       id="linearGradient2641"
       gradientUnits="userSpaceOnUse"
       gradientTransform="translate(-29.115262,48.802989)"
       x1="20.523357"
       y1="66.744965"
       x2="62.912102"
       y2="10.767128" />
    <inkscape:perspective
       id="perspective2675"
       inkscape:persp3d-origin="45 : 30 : 1"
       inkscape:vp_z="90 : 45 : 1"
       inkscape:vp_y="0 : 1000 : 0"
       inkscape:vp_x="0 : 45 : 1"
       sodipodi:type="inkscape:persp3d" />
    <linearGradient
       gradientTransform="matrix(1.036821,-1.811349e-6,3.827296e-7,0.964487,2.057071e-6,1.075978e-6)"
       spreadMethod="pad"
       gradientUnits="userSpaceOnUse"
       y2="21.4794312"
       x2="68.3603058"
       y1="32.8688049"
       x1="28.2520447"
       id="linearGradient587"
       xlink:href="#linearGradient584" />
    <linearGradient
       id="linearGradient584">
      <stop
         id="stop585"
         offset="0.000000"
         style="stop-color:#ffffff;stop-opacity:0;" />
      <stop
         id="stop586"
         offset="1.000000"
         style="stop-color:#ffffff;stop-opacity:1;" />
    </linearGradient>
    <inkscape:perspective
       id="perspective2901"
       inkscape:persp3d-origin="45 : 30 : 1"
       inkscape:vp_z="90 : 45 : 1"
       inkscape:vp_y="0 : 1000 : 0"
       inkscape:vp_x="0 : 45 : 1"
       sodipodi:type="inkscape:persp3d" />
  </defs>
  <sodipodi:namedview
     id="base"
     inkscape:zoom="2.5208334"
     inkscape:cx="4.4166009"
     inkscape:cy="85.279071"
     inkscape:window-width="1023"
     inkscape:window-height="736"
     inkscape:window-x="0"
     inkscape:window-y="1"
     inkscape:current-layer="svg596"
     showgrid="false" />
  <g
     id="g898"
     transform="translate(-1.146498,1.146498)">
    <path
       style="fill:#000000;fill-rule:evenodd;stroke:none;stroke-opacity:1;stroke-width:1pt;stroke-linejoin:miter;stroke-linecap:butt;fill-opacity:0.301471;"
       d="M 12.8163 74.753 C 10.3856 73.6481 7.07107 70.1126 8.83884 65.2512 C 9.72267 59.948 25.6326 13.1021 29.1682 10.8924 C 31.3778 8.90368 34.582 8.13026 39.1119 9.34561 C 42.8684 10.2295 76.6769 19.0684 78.6656 20.8361 C 80.6544 22.6039 82.2012 24.0402 80.6544 27.9072 C 79.5496 29.8959 66.4017 74.532 66.1808 77.4047 C 65.2969 80.4983 62.7558 84.2548 58.5573 84.0338 C 54.3589 83.8128 15.9099 75.4159 12.8163 74.753 z "
       id="path794"
       sodipodi:nodetypes="ccccccccc"
       transform="matrix(1.114903,0.000000,0.000000,1.114903,1.287023,-5.035753)" />
    <path
       style="fill:#3d4e67;fill-rule:evenodd;stroke:none;stroke-opacity:1;stroke-width:1pt;stroke-linejoin:miter;stroke-linecap:butt;fill-opacity:1;"
       d="M 12.8163 74.753 C 10.3856 73.6481 7.07107 70.1126 8.83884 65.2512 C 9.72267 59.948 25.6326 13.1021 29.1682 10.8924 C 31.3778 8.90368 34.582 8.13026 39.1119 9.34561 C 42.8684 10.2295 76.6769 19.0684 78.6656 20.8361 C 80.6544 22.6039 82.2012 24.0402 80.6544 27.9072 C 79.5496 29.8959 66.4017 74.532 66.1808 77.4047 C 65.2969 80.4983 62.7558 84.2548 58.5573 84.0338 C 54.3589 83.8128 15.9099 75.4159 12.8163 74.753 z "
       id="path895"
       sodipodi:nodetypes="ccccccccc"
       transform="matrix(1.114903,0.000000,0.000000,1.114903,-1.570116,-9.607182)" />
    <path
       style="fill:#ffffff;fill-rule:evenodd;stroke:none;stroke-opacity:1;stroke-width:1pt;stroke-linejoin:miter;stroke-linecap:butt;fill-opacity:1;"
       d="M 17.8987 70.9965 C 15.3576 70.3336 11.7114 69.6706 13.0373 65.6932 C 15.468 55.9705 27.8424 18.6264 33.1456 13.986 C 34.361 12.8811 38.4489 12.4392 46.1829 14.8699 C 55.0218 17.5215 72.9204 23.4877 74.6882 24.3716 C 76.4559 25.2555 77.1189 25.2555 75.793 29.233 C 73.8043 33.2105 64.9655 67.24 62.7557 72.9852 C 61.209 77.0732 60.8775 78.9514 58.2258 78.9514 "
       id="path896"
       sodipodi:nodetypes="cccccccs"
       transform="matrix(1.114903,0.000000,0.000000,1.114903,-1.570116,-9.607182)" />
    <path
       style="fill:url(#linearGradient636);fill-rule:evenodd;stroke:none;stroke-opacity:1;stroke-width:1pt;stroke-linejoin:miter;stroke-linecap:butt;fill-opacity:1;"
       d="M 28.75 13.75 C 28.75 13.75 31.875 7.49995 39.6875 9.37495 C 47.5 11.25 78.125 19.375 77.8125 21.875 C 77.5 24.375 71.875 39.0625 71.5625 40.3125 C 71.25 41.5625 42.5 40.9375 31.5625 47.5 C 20.625 54.0625 12.5 59.6875 12.5 59.6875 C 12.5 59.6875 23.75 24.6875 28.75 13.75 z "
       id="path636"
       transform="matrix(0.946780,0.000000,0.000000,0.946780,6.111789,-0.736980)" />
  </g>
  <g
     id="g2908"
     transform="matrix(0.4931565,0,0,0.4931565,28.582971,15.538414)">
    <path
       transform="matrix(0.941981,0,0,0.941981,5.915554,5.37508)"
       sodipodi:ry="40.459522"
       sodipodi:rx="40.459526"
       sodipodi:cy="45.390781"
       sodipodi:cx="43.364311"
       d="M 83.823837,45.390781 A 40.459526,40.459522 0 1 1 2.9047852,45.390781 40.459526,40.459522 0 1 1 83.823837,45.390781 z"
       id="path589"
       style="font-size:12px;fill:none;stroke:#000000;stroke-width:8.5;stroke-opacity:0.3"
       sodipodi:type="arc" />
    <path
       transform="matrix(0.846155,0,0,0.846155,6.256445,5.738268)"
       sodipodi:ry="40.459522"
       sodipodi:rx="40.459526"
       sodipodi:cy="45.390781"
       sodipodi:cx="43.364311"
       d="M 83.823837,45.390781 A 40.459526,40.459522 0 1 1 2.9047852,45.390781 40.459526,40.459522 0 1 1 83.823837,45.390781 z"
       id="path573"
       style="font-size:12px;fill:#31baff;fill-rule:evenodd;stroke-width:1pt"
       sodipodi:type="arc" />
    <path
       sodipodi:nodetypes="ccccccccc"
       id="path576"
       d="m 28.507,13.4277 5.0005,8.6389 -12.0802,14.964 c 0,0 5.8765,13.7192 10.1312,13.5473 -2.6408,0.5617 -2.6365,11.904 -1.3161,15.4251 4.135,-3.5715 -15.3747,-8.5174 -13.7148,-18.4766 1.6598,-9.9593 0.4862,-12.5098 -4.0785,-5.4553 -4.56468,7.0544 -5.39462,8.9218 -4.97965,5.602 C 7.88442,44.3534 6.46331,19.7781 28.507,13.4277 z"
       style="font-size:12px;fill:#e48e6f;fill-rule:evenodd;stroke-width:1pt" />
    <path
       id="path574"
       d="m 30.7077,12.4007 7.0545,9.9593 -13.694,14.5239 c 0,0 9.5443,13.279 9.5443,13.694 0,0.415 -3.7347,10.7892 -3.7347,10.7892 0,0 -13.279,-7.0545 -11.6191,-17.0137 1.6598,-9.9593 0,-13.694 -4.5647,-6.6395 C 9.12933,44.7683 7.05448,50.9929 7.46945,47.6731 7.88442,44.3534 9.5443,16.5504 30.7077,12.4007 z"
       style="font-size:12px;fill:#fffcac;fill-rule:evenodd;stroke-width:1pt" />
    <path
       sodipodi:nodetypes="ccccccccc"
       id="path575"
       d="m 28.507,13.4277 5.0005,8.6389 -12.0802,14.964 c 0,0 5.8765,13.7192 10.1312,13.5473 -2.6408,0.5617 -3.8814,6.0944 -2.561,9.6155 C 27.5304,55.792 16.5276,56.2407 18.1875,46.2815 19.8473,36.3222 18.2587,30.6594 13.694,37.7139 9.12933,44.7683 7.05448,50.9929 7.46945,47.6731 7.88442,44.3534 6.46331,19.7781 28.507,13.4277 z"
       style="font-size:12px;fill:#ffd87c;fill-rule:evenodd;stroke-width:1pt" />
    <path
       id="path577"
       d="m 42.8405,18.697 c 0,0 5.2817,3.8146 -0.5869,9.3897 -5.8686,5.5752 -14.0845,7.6292 -7.0423,11.4437 7.0423,3.8146 16.7254,4.4014 15.8451,-2.3474 -0.8802,-6.7488 -2.0539,-21.1268 -8.2159,-18.486 z"
       style="font-size:12px;fill:#e48e6f;fill-rule:evenodd;stroke-width:1pt" />
    <path
       transform="matrix(0.968474,0,0,0.938789,2.198177,1.124868)"
       id="path578"
       d="m 42.8405,18.697 c 0,0 5.2817,3.8146 -0.5869,9.3897 -5.8686,5.5752 -14.0845,7.6292 -7.0423,11.4437 7.0423,3.8146 16.7254,4.4014 15.8451,-2.3474 -0.8802,-6.7488 -2.0539,-21.1268 -8.2159,-18.486 z"
       style="font-size:12px;fill:#fffbaa;fill-rule:evenodd;stroke-width:1pt" />
    <path
       transform="matrix(0.82661,0,0,0.889821,6.808317,2.024765)"
       id="path579"
       d="m 42.8405,18.697 c 0,0 5.2817,3.8146 -0.5869,9.3897 -5.8686,5.5752 -14.0845,7.6292 -7.0423,11.4437 7.0423,3.8146 16.7254,4.4014 15.8451,-2.3474 -0.8802,-6.7488 -2.0539,-21.1268 -8.2159,-18.486 z"
       style="font-size:12px;fill:#ffd87c;fill-rule:evenodd;stroke-width:1pt" />
    <path
       id="path580"
       d="m 77.1715,47.1595 c 0,0 -14.0845,-2.054 -14.9648,-1.4671 -0.8803,0.5869 -13.2043,1.7606 -12.0305,8.216 1.1737,6.4554 5.2817,11.7371 0,15.5517 -5.2817,3.8145 -11.1503,6.7488 -5.8686,8.5094 5.2817,1.7605 12.6174,-0.2935 14.9648,-2.3475 2.3474,-2.054 -2.6408,-3.2277 -2.054,-9.0962 0.5869,-5.8686 -1.1737,-9.6831 4.9883,-7.6292 6.162,2.054 5.8686,4.4015 9.9765,0 4.108,-4.4014 7.6292,-5.5751 4.9883,-11.7371 z"
       style="font-size:12px;fill:#e48e6f;fill-rule:evenodd;stroke-width:1pt" />
    <path
       sodipodi:nodetypes="cccccccccc"
       transform="matrix(1,0,0,0.946729,0,2.428446)"
       id="path582"
       d="m 77.1715,47.1595 c 1.1737,-1.5497 -14.0845,-5.7733 -14.9648,-3.3267 -0.8803,-1.8926 -15.8452,0.8308 -14.6713,7.2861 1.1737,6.4555 6.1619,13.5968 0.8802,17.4114 -5.2817,3.8145 -9.3897,7.6786 -4.108,9.4392 5.2817,1.7605 12.6174,-0.2935 14.9648,-2.3475 2.3474,-2.054 -3.8145,-3.2277 -3.2277,-9.0962 0.5869,-5.8686 0,-11.2328 6.162,-9.1789 6.162,2.054 5.8686,4.4015 9.9765,0 4.108,-4.4014 7.6292,-4.0254 4.9883,-10.1874 z"
       style="font-size:12px;fill:#fffcac;fill-rule:evenodd;stroke-width:1pt" />
    <path
       sodipodi:nodetypes="cccccccccc"
       transform="matrix(1,0,0,0.946729,0,2.428446)"
       id="path581"
       d="m 77.1715,47.1595 c 0,0 -14.0845,-2.054 -14.9648,-1.4671 -0.8803,0.5869 -13.2043,1.7606 -12.0305,8.216 1.1737,6.4554 5.2817,11.7371 0,15.5517 -5.2817,3.8145 -11.1503,6.7488 -5.8686,8.5094 5.2817,1.7605 12.6174,-0.2935 14.9648,-2.3475 2.3474,-2.054 -3.8145,-3.2277 -3.2277,-9.0962 0.5869,-5.8686 0,-11.2328 6.162,-9.1789 6.162,2.054 5.8686,4.4015 9.9765,0 4.108,-4.4014 7.6292,-4.0254 4.9883,-10.1874 z"
       style="font-size:12px;fill:#ffd87c;fill-rule:evenodd;stroke-width:1pt" />
    <path
       id="path654"
       d="m 83.8238,45.3908 c 0,22.3336 -18.1258,40.4595 -40.4595,40.4595 -22.3336,0 -40.45951,-18.1259 -40.45951,-40.4595 0,-22.3337 18.12591,-40.45954 40.45951,-40.45954 22.3337,0 40.4595,18.12584 40.4595,40.45954 z"
       style="font-size:12px;fill:none;stroke:#283d53;stroke-width:8.5"
       transform="matrix(0.920224,0,0,0.920224,3.044474,1.961231)" />
    <path
       id="path588"
       d="m 72.1832,30.4342 c 0,9.7183 -8.4788,17.6056 -18.9261,17.6056 -10.4472,0 -18.926,-7.8873 -18.926,-17.6056 0,-9.7184 8.4788,-17.6057 18.926,-17.6057 10.4473,0 18.9261,7.8873 18.9261,17.6057 z"
       style="font-size:12px;fill:url(#linearGradient587);fill-rule:evenodd;stroke-width:1pt"
       transform="matrix(0.933582,-0.664775,0.918324,1.029434,-29.83966,37.88266)" />
  </g>
  <g
     id="g2643"
     transform="translate(-8.3305787,2.3801652)">
    <path
       id="path613"
       d="m 67.215066,61.460428 c 0,1.128405 -0.97091,2.044112 -2.167221,2.044112 -1.196379,0 -2.167289,-0.915707 -2.167289,-2.044112 0,-1.128339 0.97091,-2.044113 2.167289,-2.044113 1.196311,0 2.167221,0.915774 2.167221,2.044113 z"
       style="font-size:12px;fill:#470000;fill-rule:evenodd;stroke-width:1pt" />
    <path
       sodipodi:nodetypes="cccccccccccc"
       id="path610"
       d="m 62.782055,66.656971 c -1.034427,-1.182211 -2.709077,-0.541855 -3.250932,0.295503 -0.591073,2.068721 0.344853,3.94044 2.807644,3.053864 2.462792,-0.886642 3.349367,-2.265789 3.349367,-2.167288 0,0.098567 -1.970219,5.319653 -4.925582,5.713657 -2.955363,0.394071 -4.580796,0.492572 -7.831662,0.541856 -3.349367,0.591072 -4.9748,0.541788 -4.9748,0.541788 l 4.137441,-5.910659 c 0,0 1.083645,-0.591073 2.856862,-3.546435 1.773218,-2.955297 4.925517,-3.644937 6.501732,-2.659794 1.428431,0.591006 2.216506,1.379147 2.610576,2.906079 -0.098501,1.674651 -0.39407,2.315007 -1.280646,1.231429 z"
       style="font-size:12px;fill:#470000;fill-rule:evenodd;stroke-width:1pt" />
    <path
       sodipodi:nodetypes="cccccccc"
       id="path609"
       d="m 47.463536,68.085336 c 1.477648,0.39407 -0.246286,2.512008 -1.182145,1.03436 -0.738857,1.034361 -0.394071,-1.477648 -0.394071,-1.477648 l -3.152365,6.600233 c 0,0 5.418155,1.970286 7.486876,-0.886576 2.06872,-2.856795 2.315073,-4.33451 1.182211,-5.516655 -1.329996,-1.822369 -2.512141,-1.083578 -3.004646,-0.788075 -0.492572,0.29557 -0.689574,0.492572 -0.93586,1.034361 z"
       style="font-size:12px;fill:#230000;fill-opacity:0.99898999;fill-rule:evenodd;stroke-width:1pt" />
    <path
       sodipodi:nodetypes="cccccccc"
       id="path608"
       d="m 46.084371,58.480522 c 0,0 0.591006,-3.546435 0.394004,-5.418154 C 46.182872,49.023361 37.710854,15.03698 31.40619,20.947666 c -7.28986,2.856835 1.379147,35.464069 2.462792,37.335788 1.083577,1.871719 2.659793,3.250866 2.659793,3.250866 0,0 -2.462858,11.230379 6.748018,12.806462 3.349433,-6.206163 5.713059,-8.680926 5.171868,-11.476532 -0.295569,-1.576149 -0.689573,-3.053864 -2.36429,-4.383728 z"
       style="font-size:12px;fill:#230000;fill-rule:evenodd;stroke-width:1pt" />
    <path
       sodipodi:nodetypes="cccc"
       id="path600"
       d="m 34.952559,56.017731 c 1.773218,-2.167222 3.743438,-3.743437 8.767522,-3.250866 -1.57615,-8.767588 -7.191306,-32.410272 -11.230313,-30.243017 -4.531466,0.788095 -0.295503,27.189153 2.462791,33.493883 z"
       style="font-size:12px;fill:#f2962c;fill-rule:evenodd;stroke-width:1pt" />
    <path
       sodipodi:nodetypes="ccccc"
       id="path601"
       d="m 35.248129,56.904307 c 0,0 0.886575,2.856795 3.250866,3.053864 1.083644,-1.674717 3.546435,-1.97022 5.615156,-1.871719 0.492572,-1.871719 0.886576,-4.137508 0.098501,-4.236009 -0.985077,-0.591073 -6.501732,-1.674651 -8.964523,3.053864 z"
       style="font-size:12px;fill:#8b8b8b;fill-rule:evenodd;stroke-width:1pt" />
    <path
       sodipodi:nodetypes="cccccc"
       id="path602"
       d="m 38.597496,61.435819 c 0.492571,-2.167222 4.236009,-3.64487 5.910659,-1.871719 4.039007,2.265789 2.26579,7.880946 0.492572,7.979447 -0.492572,6.994303 4.236009,3.152298 4.137508,1.674717 3.546369,-0.492572 0.689574,4.531512 -1.674717,4.235942 -3.250866,0.492572 -11.919886,-2.462725 -8.866022,-12.018387 z"
       style="font-size:12px;fill:#65532d;fill-rule:evenodd;stroke-width:1pt" />
    <path
       sodipodi:nodetypes="cccccccc"
       id="path603"
       d="m 51.699527,71.286984 c 0.098501,0.098501 1.379148,0 2.068721,-1.182145 0.689574,-1.182145 3.053864,-6.009227 4.728581,-6.107728 4.03894,-1.477648 4.03894,1.280647 4.03894,1.280647 0,0 -3.743437,-1.379148 -4.137508,0.985143 -0.394004,2.36429 -1.083577,3.743437 3.447868,5.615156 -2.561226,0.886576 -10.556834,1.057572 -11.049472,1.057572 -0.492572,0 1.001371,-1.747146 0.90287,-1.648645 z"
       style="font-size:12px;fill:#bc0000;fill-rule:evenodd;stroke-width:1pt" />
    <path
       sodipodi:nodetypes="cccc"
       id="path611"
       d="m 53.078675,62.22396 c 1.182145,-1.773218 5.270369,-0.886642 7.142021,-1.280646 2.26579,-0.591073 1.080984,-4.731308 -1.480308,-4.731241 -1.765702,-0.352968 -5.464645,-0.292909 -5.661713,6.011887 z"
       style="font-size:12px;fill:#470000;fill-rule:evenodd;stroke-width:1pt" />
    <path
       sodipodi:nodetypes="cccc"
       id="path604"
       d="m 54.063818,60.352241 c 0,0 4.235942,-0.39407 5.319587,-0.39407 1.280646,0.273887 1.367241,-1.669263 0.295503,-2.364291 -1.871653,-1.280646 -4.433012,-1.379147 -5.61509,2.758361 z"
       style="font-size:12px;fill:#bc0000;fill-rule:evenodd;stroke-width:1pt" />
    <path
       id="path606"
       d="m 66.476209,61.53432 c 0,0.761338 -0.639891,1.379214 -1.428431,1.379214 -0.788474,0 -1.428364,-0.617876 -1.428364,-1.379214 0,-0.761271 0.63989,-1.379147 1.428364,-1.379147 0.78854,0 1.428431,0.617876 1.428431,1.379147 z"
       style="font-size:12px;fill:#bc0000;fill-rule:evenodd;stroke-width:1pt" />
    <path
       sodipodi:nodetypes="cccc"
       id="path621"
       d="m 34.952559,56.017731 c 1.773218,-2.167222 3.743438,-3.743437 8.767522,-3.250866 -1.57615,-8.767588 -7.191306,-32.410272 -11.230313,-30.243017 -4.531466,0.788095 -0.295503,27.189153 2.462791,33.493883 z"
       style="font-size:12px;fill:url(#linearGradient617);fill-rule:evenodd;stroke-width:1pt" />
    <path
       sodipodi:nodetypes="css"
       id="path622"
       d="M 40.961786,52.175726 C 38.766098,52.276023 31.759158,22.56388 34.459988,24.198578 35.095422,24.642731 44.910273,52.1726 40.961786,52.175726 z"
       style="font-size:12px;fill:#f2d0a8;fill-rule:evenodd;stroke-width:1pt" />
    <path
       sodipodi:nodetypes="ccccc"
       id="path623"
       d="m 42.340933,53.456439 0.394071,4.531512 -2.265789,0.492571 -0.985077,-4.925649 c 0,0 2.659793,-0.295436 2.856795,-0.098434 z"
       style="font-size:12px;fill:#f2f2f2;fill-rule:evenodd;stroke-width:1pt" />
    <path
       sodipodi:nodetypes="cccccc"
       id="path624"
       d="m 38.597496,61.435819 c 0.492571,-2.167222 4.236009,-3.64487 5.910659,-1.871719 4.039007,2.265789 2.26579,7.880946 0.492572,7.979447 -0.492572,6.994303 4.236009,3.152298 4.137508,1.674717 3.546369,-0.492572 0.689574,4.531512 -1.674717,4.235942 -3.250866,0.492572 -11.919886,-2.462725 -8.866022,-12.018387 z"
       style="font-size:12px;fill:url(#linearGradient625);fill-rule:nonzero;stroke-width:1pt" />
  </g>
</svg>
