<?xml version="1.0" encoding="UTF-8" standalone="no"?>
<!DOCTYPE svg PUBLIC "-//W3C//DTD SVG 20010904//EN"
"http://www.w3.org/TR/2001/REC-SVG-20010904/DTD/svg10.dtd">
<!-- Created with Sodipodi ("http://www.sodipodi.com/") -->
<svg
   version="1"
   x="0.00000000"
   y="0.00000000"
   width="90.0000000"
   height="90.0000000"
   id="svg548"
   sodipodi:version="0.32"
   sodipodi:docname="gnome-fs-desktop.svg"
   sodipodi:docbase="/home/zeus/.icons/gartoon/scalable/filesystems"
   inkscape:version="0.40"
   xmlns="http://www.w3.org/2000/svg"
   xmlns:cc="http://web.resource.org/cc/"
   xmlns:inkscape="http://www.inkscape.org/namespaces/inkscape"
   xmlns:sodipodi="http://sodipodi.sourceforge.net/DTD/sodipodi-0.dtd"
   xmlns:rdf="http://www.w3.org/1999/02/22-rdf-syntax-ns#"
   xmlns:dc="http://purl.org/dc/elements/1.1/"
   xmlns:xlink="http://www.w3.org/1999/xlink">
  <metadata
     id="metadata18">
    <rdf:RDF
       id="RDF19">
      <cc:Work
         rdf:about=""
         id="Work20">
        <dc:format
           id="format21">image/svg+xml</dc:format>
        <dc:type
           id="type23"
           rdf:resource="http://purl.org/dc/dcmitype/StillImage" />
      </cc:Work>
    </rdf:RDF>
  </metadata>
  <sodipodi:namedview
     id="base"
     inkscape:zoom="0.63020833"
     inkscape:cx="53.269613"
     inkscape:cy="56.354985"
     inkscape:window-width="798"
     inkscape:window-height="675"
     inkscape:window-x="186"
     inkscape:window-y="146"
     inkscape:current-layer="svg548" />
  <defs
     id="defs550">
    <linearGradient
       id="linearGradient1876">
      <stop
         offset="0.0000000"
         style="stop-color:#b5772d;stop-opacity:1.0000000;"
         id="stop1878" />
      <stop
         offset="1.0000000"
         style="stop-color:#ffffff;stop-opacity:0.0000000;"
         id="stop1877" />
    </linearGradient>
    <linearGradient
       x1="0.00000000"
       y1="0.00000000"
       x2="1.00000000"
       y2="0.00000000"
       id="linearGradient632"
       gradientUnits="objectBoundingBox"
       spreadMethod="pad">
      <stop
         style="stop-color:#ffb700;stop-opacity:1;"
         offset="0.00000000"
         id="stop633" />
      <stop
         style="stop-color:#ffd58f;stop-opacity:0;"
         offset="1.00000000"
         id="stop634" />
    </linearGradient>
    <linearGradient
       x1="0.00000000"
       y1="0.00000000"
       x2="1.00000000"
       y2="0.00000000"
       id="linearGradient556"
       gradientUnits="objectBoundingBox"
       spreadMethod="pad">
      <stop
         style="stop-color:#000000;stop-opacity:1;"
         offset="0.00000000"
         id="stop557" />
      <stop
         style="stop-color:#bdf2ff;stop-opacity:0.384314;"
         offset="1.00000000"
         id="stop558" />
    </linearGradient>
    <linearGradient
       x1="60.6446152"
       y1="19.2956886"
       x2="35.3705750"
       y2="69.1427994"
       id="linearGradient559"
       xlink:href="#linearGradient632"
       gradientUnits="userSpaceOnUse"
       spreadMethod="pad"
       gradientTransform="matrix(1.418885,-0.200635,0.127692,1.110535,-133.3286,5.857780)" />
    <linearGradient
       x1="85.6376572"
       y1="17.4438438"
       x2="73.9162979"
       y2="54.6281815"
       id="linearGradient631"
       xlink:href="#linearGradient632"
       gradientUnits="userSpaceOnUse"
       gradientTransform="matrix(1.050920,-0.148604,0.172402,1.499373,-120.2283,4.181707)"
       spreadMethod="pad" />
    <linearGradient
       inkscape:collect="always"
       xlink:href="#linearGradient632"
       id="linearGradient1700"
       gradientTransform="matrix(1.035128,0.000000,0.000000,0.841923,-0.564585,12.07356)"
       x1="42.684628"
       y1="78.189125"
       x2="47.492374"
       y2="14.667451"
       gradientUnits="userSpaceOnUse" />
    <linearGradient
       inkscape:collect="always"
       xlink:href="#linearGradient612"
       id="linearGradient1829"
       gradientUnits="userSpaceOnUse"
       spreadMethod="pad"
       x1="50.6438866"
       y1="5.36792946"
       x2="35.7520943"
       y2="68.0443573" />
    <linearGradient
       inkscape:collect="always"
       xlink:href="#linearGradient619"
       id="linearGradient1830"
       gradientUnits="userSpaceOnUse"
       gradientTransform="scale(1.004516,0.995504)"
       spreadMethod="pad"
       x1="66.3316956"
       y1="23.2124691"
       x2="63.4654961"
       y2="20.9627991" />
    <linearGradient
       inkscape:collect="always"
       xlink:href="#linearGradient626"
       id="linearGradient1831"
       gradientUnits="userSpaceOnUse"
       gradientTransform="scale(0.912664,1.095694)"
       spreadMethod="pad"
       x1="56.3276138"
       y1="43.3772469"
       x2="51.6545258"
       y2="39.7629089" />
    <defs
       id="defs606">
      <linearGradient
         id="linearGradient612">
        <stop
           style="stop-color:#7fa8e3;stop-opacity:0.741176;"
           offset="0.000000"
           id="stop613" />
        <stop
           style="stop-color:#ffffff;stop-opacity:0;"
           offset="1.000000"
           id="stop614" />
      </linearGradient>
      <linearGradient
         xlink:href="#linearGradient612"
         id="linearGradient615"
         x1="50.643887"
         y1="5.3679295"
         x2="35.752094"
         y2="68.044357"
         gradientUnits="userSpaceOnUse"
         spreadMethod="pad" />
    </defs>
    <sodipodi:namedview
       id="namedview1792" />
    <linearGradient
       inkscape:collect="always"
       xlink:href="#linearGradient619"
       id="linearGradient1874"
       gradientUnits="userSpaceOnUse"
       gradientTransform="scale(1.004516,0.995504)"
       spreadMethod="pad"
       x1="66.3316956"
       y1="23.2124691"
       x2="63.4654961"
       y2="20.9627991" />
    <linearGradient
       inkscape:collect="always"
       xlink:href="#linearGradient1876"
       id="linearGradient1875"
       gradientUnits="userSpaceOnUse"
       gradientTransform="scale(0.912664,1.095694)"
       spreadMethod="pad"
       x1="56.3276138"
       y1="43.3772469"
       x2="51.6545258"
       y2="39.7629089" />
    <linearGradient
       inkscape:collect="always"
       xlink:href="#linearGradient612"
       id="linearGradient1902"
       gradientUnits="userSpaceOnUse"
       spreadMethod="pad"
       x1="50.643887"
       y1="5.3679295"
       x2="35.752094"
       y2="68.044357" />
  </defs>
  <rect
     style="fill:#000000;fill-opacity:0.37222221;stroke:none;stroke-width:2.5000000;stroke-linecap:butt;stroke-linejoin:bevel;stroke-miterlimit:4.0000000;stroke-opacity:1.0000000"
     id="rect1903"
     width="79.338844"
     height="66.459160"
     x="8.9256201"
     y="23.078512"
     rx="8.4297523"
     ry="8.4297523" />
  <rect
     style="fill:#f1e36c;fill-opacity:1.0000000;stroke:#593a28;stroke-width:5.4499998;stroke-linecap:butt;stroke-linejoin:bevel;stroke-miterlimit:4.0000000;stroke-opacity:1.0000000"
     id="rect1074"
     width="77.437019"
     height="62.365387"
     x="3.1616530"
     y="20.139620"
     ry="8.4297523"
     rx="8.4297523" />
  <rect
     style="fill:url(#linearGradient1700);fill-opacity:1.0000000;stroke:none;stroke-width:5.4499998;stroke-linecap:butt;stroke-linejoin:bevel;stroke-miterlimit:4.0000000;stroke-opacity:1.0000000"
     id="rect1696"
     width="71.935028"
     height="58.508438"
     x="5.6160736"
     y="22.594040"
     ry="8.4297523"
     rx="8.4297523" />
  <path
     style="fill:#ff933d;fill-opacity:1.0000000;stroke:#593a28;stroke-width:2.5000000;stroke-linecap:butt;stroke-linejoin:bevel;stroke-miterlimit:4.0000000;stroke-opacity:1.0000000"
     d="M 5.6020145,59.300619 L 5.6020145,72.675619 C 5.6020145,77.345702 9.3694310,81.113121 14.039514,81.113119 L 24.414514,81.113119 L 5.6020145,59.300619 z "
     id="path1766" />
  <path
     style="fill:#ff933d;fill-opacity:1.0000000;stroke:#593a28;stroke-width:2.5000000;stroke-linecap:butt;stroke-linejoin:bevel;stroke-miterlimit:4.0000000;stroke-opacity:1.0000000"
     d="M 77.968233,59.548552 L 77.968233,72.923552 C 77.968233,77.593635 74.200816,81.361054 69.530733,81.361052 L 59.155733,81.361052 L 77.968233,59.548552 z "
     id="path1767" />
  <path
     style="fill:#ff933d;fill-opacity:1.0000000;stroke:#593a28;stroke-width:2.5000000;stroke-linecap:butt;stroke-linejoin:bevel;stroke-miterlimit:4.0000000;stroke-opacity:1.0000000"
     d="M 78.216167,44.418903 L 78.216167,31.043903 C 78.216167,26.373820 74.448750,22.606401 69.778667,22.606403 L 59.403667,22.606403 L 78.216167,44.418903 z "
     id="path1768" />
  <path
     style="fill:#ff933d;fill-opacity:1.0000000;stroke:#593a28;stroke-width:2.5000000;stroke-linecap:butt;stroke-linejoin:bevel;stroke-miterlimit:4.0000000;stroke-opacity:1.0000000"
     d="M 5.6020144,44.170969 L 5.6020144,30.795969 C 5.6020144,26.125886 9.3694310,22.358467 14.039514,22.358469 L 24.414514,22.358469 L 5.6020144,44.170969 z "
     id="rect1701" />
  <g
     id="g1879"
     transform="matrix(0.618994,0.000000,0.000000,0.618994,16.77581,25.29275)">
    <defs
       id="defs1880">
      <linearGradient
         id="linearGradient1881">
        <stop
           style="stop-color:#7fa8e3;stop-opacity:0.741176;"
           offset="0.000000"
           id="stop1882" />
        <stop
           style="stop-color:#ffffff;stop-opacity:0;"
           offset="1.000000"
           id="stop1883" />
      </linearGradient>
      <linearGradient
         xlink:href="#linearGradient612"
         id="linearGradient1884"
         x1="50.643887"
         y1="5.3679295"
         x2="35.752094"
         y2="68.044357"
         gradientUnits="userSpaceOnUse"
         spreadMethod="pad" />
    </defs>
    <sodipodi:namedview
       id="namedview1885" />
    <path
       style="fill:#000000;fill-opacity:0.30147097;fill-rule:evenodd;stroke:none;stroke-width:1.0000000pt;stroke-linecap:butt;stroke-linejoin:miter;stroke-opacity:1.0000000"
       d="M 12.816300,74.753000 C 10.385600,73.648100 7.0710700,70.112600 8.8388400,65.251200 C 9.7226700,59.948000 25.632600,13.102100 29.168200,10.892400 C 31.377800,8.9036800 34.582000,8.1302600 39.111900,9.3456100 C 42.868400,10.229500 76.676900,19.068400 78.665600,20.836100 C 80.654400,22.603900 82.201200,24.040200 80.654400,27.907200 C 79.549600,29.895900 66.401700,74.532000 66.180800,77.404700 C 65.296900,80.498300 62.755800,84.254800 58.557300,84.033800 C 54.358900,83.812800 15.909900,75.415900 12.816300,74.753000 z "
       id="path1886"
       sodipodi:nodetypes="ccccccccc"
       transform="matrix(1.114903,0.000000,0.000000,1.114903,-5.305332,-3.889256)" />
    <path
       style="fill:#3d4e67;fill-opacity:1.0000000;fill-rule:evenodd;stroke:none;stroke-width:1.0000000pt;stroke-linecap:butt;stroke-linejoin:miter;stroke-opacity:1.0000000"
       d="M 12.816300,74.753000 C 10.385600,73.648100 7.0710700,70.112600 8.8388400,65.251200 C 9.7226700,59.948000 25.632600,13.102100 29.168200,10.892400 C 31.377800,8.9036800 34.582000,8.1302600 39.111900,9.3456100 C 42.868400,10.229500 76.676900,19.068400 78.665600,20.836100 C 80.654400,22.603900 82.201200,24.040200 80.654400,27.907200 C 79.549600,29.895900 66.401700,74.532000 66.180800,77.404700 C 65.296900,80.498300 62.755800,84.254800 58.557300,84.033800 C 54.358900,83.812800 15.909900,75.415900 12.816300,74.753000 z "
       id="path1887"
       sodipodi:nodetypes="ccccccccc"
       transform="matrix(1.114903,0.000000,0.000000,1.114903,-8.162471,-8.460684)" />
    <path
       style="fill:#ffffff;fill-opacity:1.0000000;fill-rule:evenodd;stroke:none;stroke-width:1.0000000pt;stroke-linecap:butt;stroke-linejoin:miter;stroke-opacity:1.0000000"
       d="M 17.898700,70.996500 C 15.357600,70.333600 11.711400,69.670600 13.037300,65.693200 C 15.468000,55.970500 27.842400,18.626400 33.145600,13.986000 C 34.361000,12.881100 38.448900,12.439200 46.182900,14.869900 C 55.021800,17.521500 72.920400,23.487700 74.688200,24.371600 C 76.455900,25.255500 77.118900,25.255500 75.793000,29.233000 C 73.804300,33.210500 64.965500,67.240000 62.755700,72.985200 C 61.209000,77.073200 60.877500,78.951400 58.225800,78.951400"
       id="path1888"
       sodipodi:nodetypes="cccccccs"
       transform="matrix(1.114903,0.000000,0.000000,1.114903,-8.162471,-8.460684)" />
    <path
       style="fill:url(#linearGradient1902);fill-opacity:1.0000000;fill-rule:evenodd;stroke:none;stroke-width:1.0000000pt;stroke-linecap:butt;stroke-linejoin:miter;stroke-opacity:1.0000000"
       d="M 28.750000,13.750000 C 28.750000,13.750000 31.875000,7.4999500 39.687500,9.3749500 C 47.500000,11.250000 78.125000,19.375000 77.812500,21.875000 C 77.500000,24.375000 71.875000,39.062500 71.562500,40.312500 C 71.250000,41.562500 42.500000,40.937500 31.562500,47.500000 C 20.625000,54.062500 12.500000,59.687500 12.500000,59.687500 C 12.500000,59.687500 23.750000,24.687500 28.750000,13.750000 z "
       id="path1889"
       transform="matrix(0.946780,0.000000,0.000000,0.946780,-0.480566,0.409517)" />
    <path
       style="fill:none;fill-opacity:1.0000000;fill-rule:evenodd;stroke:#42667e;stroke-width:1.0000000pt;stroke-linecap:butt;stroke-linejoin:miter;stroke-opacity:1.0000000"
       d="M 29.242900,15.899100 L 69.842300,26.687700"
       id="path1890"
       transform="translate(1.135645,0.851736)" />
    <path
       style="fill:none;fill-opacity:1.0000000;fill-rule:evenodd;stroke:#42667e;stroke-width:1.0000000pt;stroke-linecap:butt;stroke-linejoin:miter;stroke-opacity:1.0000000"
       d="M 27.823300,19.306000 L 67.854900,30.946400"
       id="path1891"
       transform="matrix(0.999855,-1.703691e-2,1.703691e-2,0.999855,-0.705041,5.077353)" />
    <path
       style="fill:none;fill-opacity:1.0000000;fill-rule:evenodd;stroke:#42667e;stroke-width:1.0000000pt;stroke-linecap:butt;stroke-linejoin:miter;stroke-opacity:1.0000000"
       d="M 29.242900,15.899100 L 69.842300,26.687700"
       id="path1892"
       transform="translate(-5.394323,17.03470)" />
    <path
       style="fill:none;fill-opacity:1.0000000;fill-rule:evenodd;stroke:#42667e;stroke-width:1.0000000pt;stroke-linecap:butt;stroke-linejoin:miter;stroke-opacity:1.0000000"
       d="M 29.242900,15.899100 L 69.842300,26.687700"
       id="path1893"
       transform="translate(-11.35647,34.06940)" />
    <path
       style="fill:none;fill-opacity:1.0000000;fill-rule:evenodd;stroke:#42667e;stroke-width:1.0000000pt;stroke-linecap:butt;stroke-linejoin:miter;stroke-opacity:1.0000000"
       d="M 27.823300,19.306000 L 67.854900,30.946400"
       id="path1894"
       transform="matrix(0.999855,-1.703691e-2,1.703691e-2,0.999855,-13.19715,38.29502)" />
    <path
       style="fill:none;fill-opacity:1.0000000;fill-rule:evenodd;stroke:#42667e;stroke-width:1.0000000pt;stroke-linecap:butt;stroke-linejoin:miter;stroke-opacity:1.0000000"
       d="M 27.823300,19.306000 L 67.854900,30.946400"
       id="path1895"
       transform="matrix(0.999855,-1.703691e-2,1.703691e-2,0.999855,-7.235008,21.26032)" />
    <path
       style="fill:none;fill-opacity:1.0000000;fill-rule:evenodd;stroke:#414141;stroke-width:3.1250000;stroke-linecap:round;stroke-linejoin:round;stroke-opacity:1.0000000"
       d="M 6.5299700,44.858000 C 1.5141900,41.593000 2.7385400,34.296800 8.5173400,34.104800 C 14.145900,33.634000 18.927400,41.167200 15.615100,45.425800"
       id="path699"
       sodipodi:nodetypes="csc" />
    <path
       style="fill:none;fill-opacity:1.0000000;fill-rule:evenodd;stroke:#414141;stroke-width:3.1250000;stroke-linecap:round;stroke-linejoin:round;stroke-opacity:1.0000000"
       d="M 6.5299700,44.858000 C 1.5141900,41.593000 2.7385400,34.296800 8.5173400,34.104800 C 14.145900,33.634000 18.927400,41.167200 15.615100,45.425800"
       id="path701"
       sodipodi:nodetypes="csc"
       transform="translate(3.690853,-9.369087)" />
    <path
       style="fill:none;fill-opacity:1.0000000;fill-rule:evenodd;stroke:#414141;stroke-width:3.1250000;stroke-linecap:round;stroke-linejoin:round;stroke-opacity:1.0000000"
       d="M 6.5299700,44.858000 C 1.5141900,41.593000 2.7385400,34.296800 8.5173400,34.104800 C 14.145900,33.634000 18.927400,41.167200 15.615100,45.425800"
       id="path703"
       sodipodi:nodetypes="csc"
       transform="translate(7.097792,-18.73817)" />
    <path
       style="fill:none;fill-opacity:1.0000000;fill-rule:evenodd;stroke:#b9b9b9;stroke-width:0.75000000;stroke-linecap:round;stroke-linejoin:round;stroke-opacity:1.0000000"
       d="M 5.6782300,43.864300 C 2.0820100,42.160800 2.7385400,34.296800 8.5173400,34.104800 C 14.145900,33.634000 18.785400,40.457400 16.608800,45.425800"
       id="path704"
       sodipodi:nodetypes="csc"
       transform="translate(7.097792,-19.30599)" />
    <path
       style="fill:none;fill-opacity:1.0000000;fill-rule:evenodd;stroke:#b9b9b9;stroke-width:0.75000000;stroke-linecap:round;stroke-linejoin:round;stroke-opacity:1.0000000"
       d="M 5.6782300,43.864300 C 2.0820100,42.160800 2.7385400,34.296800 8.5173400,34.104800 C 14.145900,33.634000 18.785400,40.457400 16.608800,45.425800"
       id="path702"
       sodipodi:nodetypes="csc"
       transform="translate(3.690853,-9.936905)" />
    <path
       style="fill:none;fill-opacity:1.0000000;fill-rule:evenodd;stroke:#b9b9b9;stroke-width:0.75000000;stroke-linecap:round;stroke-linejoin:round;stroke-opacity:1.0000000"
       d="M 5.6782300,43.864300 C 2.0820100,42.160800 2.7385400,34.296800 8.5173400,34.104800 C 14.145900,33.634000 18.785400,40.457400 16.608800,45.425800"
       id="path700"
       sodipodi:nodetypes="csc"
       transform="translate(0.000000,-0.567818)" />
  </g>
  <g
     id="g677"
     transform="matrix(0.698410,0.000000,0.000000,0.698410,31.87905,-4.287455)">
    <defs
       id="defs611">
      <linearGradient
         id="linearGradient626"
         x1="0.0000000"
         y1="0.50000000"
         x2="1.0000000"
         y2="0.50000000"
         gradientUnits="objectBoundingBox"
         spreadMethod="pad"
         xlink:href="#linearGradient1876" />
      <linearGradient
         id="linearGradient619">
        <stop
           style="stop-color:#770000;stop-opacity:1;"
           offset="0.000000"
           id="stop620" />
        <stop
           style="stop-color:#ffffff;stop-opacity:0;"
           offset="1.000000"
           id="stop621" />
      </linearGradient>
      <linearGradient
         xlink:href="#linearGradient619"
         id="linearGradient622"
         x1="66.331696"
         y1="23.212469"
         x2="63.465496"
         y2="20.962799"
         gradientUnits="userSpaceOnUse"
         spreadMethod="pad"
         gradientTransform="scale(1.004516,0.995504)" />
      <linearGradient
         xlink:href="#linearGradient626"
         id="linearGradient625"
         x1="56.327614"
         y1="43.377247"
         x2="51.654526"
         y2="39.762909"
         gradientUnits="userSpaceOnUse"
         spreadMethod="pad"
         gradientTransform="scale(0.912664,1.095694)" />
    </defs>
    <sodipodi:namedview
       id="namedview687" />
    <path
       style="fill:#000000;fill-opacity:0.28318599;fill-rule:evenodd;stroke:none;stroke-width:1.0000000pt;stroke-linecap:butt;stroke-linejoin:miter;stroke-opacity:1.0000000"
       d="M 9.3368500,82.115600 C 17.912900,79.764100 30.911200,77.563700 40.109700,71.892400 C 56.985100,62.071400 66.011800,41.633200 76.455100,25.587700 C 77.285000,12.308600 64.112800,5.9687200 59.133100,8.8734500 C 46.476600,25.472200 37.554800,43.523500 23.445800,55.972500 C 19.088600,66.554200 9.1293400,82.738000 9.3368500,82.115600 z "
       id="path632"
       sodipodi:nodetypes="cccccc"
       transform="translate(3.814559,2.934275)" />
    <path
       style="fill:#000000;fill-opacity:1.0000000;fill-rule:evenodd;stroke:none;stroke-width:1.0000000pt;stroke-linecap:butt;stroke-linejoin:miter;stroke-opacity:1.0000000"
       d="M 9.3368500,82.115600 C 17.912900,79.764100 28.563800,74.922800 37.762300,69.251600 C 54.637700,59.430600 64.251200,38.405500 74.694500,22.360000 C 75.524400,9.0809200 64.112800,5.9687200 59.133100,8.8734500 C 46.476600,25.472200 37.554800,43.523500 23.445800,55.972500 C 19.088600,66.554200 9.1293400,82.738000 9.3368500,82.115600 z "
       id="path617"
       sodipodi:nodetypes="cccccc" />
    <path
       style="fill:#be6d6d;fill-opacity:1.0000000;fill-rule:evenodd;stroke:none;stroke-width:1.0000000pt;stroke-linecap:butt;stroke-linejoin:miter;stroke-opacity:1.0000000"
       d="M 71.997200,20.907600 C 70.268200,23.397400 68.539100,25.887200 66.810100,28.377000 C 64.527800,22.982400 61.830500,20.285100 54.983500,19.662700 C 57.196700,16.965400 59.409800,14.268100 61.623000,11.570800 C 67.155900,10.948300 71.443900,15.720500 71.997200,20.907600 z "
       id="path613"
       sodipodi:nodetypes="ccccc" />
    <path
       style="fill:#ffbc24;fill-opacity:1.0000000;fill-rule:evenodd;stroke:none;stroke-width:1.0000000pt;stroke-linecap:butt;stroke-linejoin:miter;stroke-opacity:1.0000000"
       d="M 54.776000,20.907600 C 60.170600,20.561800 63.905300,24.573200 65.980100,29.207000 C 57.542400,42.831800 50.557100,56.249200 36.309800,66.969200 C 36.309800,66.969200 32.782600,56.802400 27.595500,58.047400 C 34.027500,50.785400 48.966400,30.037000 54.776000,20.907600 z "
       id="path614"
       sodipodi:nodetypes="ccccc" />
    <path
       style="fill:#e9dbb9;fill-opacity:1.0000000;fill-rule:evenodd;stroke:none;stroke-width:1.0000000pt;stroke-linecap:butt;stroke-linejoin:miter;stroke-opacity:1.0000000"
       d="M 27.076700,58.669800 C 31.745100,58.427700 35.687300,63.995300 34.649900,67.384200 C 32.644200,68.905700 29.393700,70.427300 27.388000,71.948800 C 27.042200,69.182400 25.244000,67.038400 21.370900,67.384200 C 23.099900,64.410200 25.347700,61.643800 27.076700,58.669800 z "
       id="path615"
       sodipodi:nodetypes="ccccc" />
    <path
       style="fill:#586f93;fill-opacity:1.0000000;fill-rule:evenodd;stroke:none;stroke-width:1.0000000pt;stroke-linecap:butt;stroke-linejoin:miter;stroke-opacity:1.0000000"
       d="M 21.785900,66.969200 C 25.347700,66.139300 26.834700,69.666500 27.595500,71.741400 L 14.316400,77.758400 L 21.785900,66.969200 z "
       id="path616"
       sodipodi:nodetypes="cccc" />
    <path
       style="fill:url(#linearGradient1874);fill-opacity:1.0000000;fill-rule:evenodd;stroke:none;stroke-width:1.0000000pt;stroke-linecap:butt;stroke-linejoin:miter;stroke-opacity:1.0000000"
       d="M 71.997200,20.907600 C 70.268200,23.397400 68.539100,25.887200 66.810100,28.377000 C 64.527800,22.982400 61.830500,20.285100 54.983500,19.662700 C 57.196700,16.965400 59.409800,14.268100 61.623000,11.570800 C 67.155900,10.948300 71.443900,15.720500 71.997200,20.907600 z "
       id="path618"
       sodipodi:nodetypes="ccccc" />
    <path
       style="fill:#ffffff;fill-opacity:1.0000000;fill-rule:evenodd;stroke:none;stroke-width:1.0000000pt;stroke-linecap:butt;stroke-linejoin:miter;stroke-opacity:1.0000000"
       d="M 62.867900,12.193200 L 57.473300,19.040200 L 60.378100,20.077600 L 65.772700,13.645600 L 62.867900,12.193200 z "
       id="path623"
       sodipodi:nodetypes="ccccc" />
    <path
       style="fill:url(#linearGradient1875);fill-opacity:1.0000000;fill-rule:evenodd;stroke:none;stroke-width:1.0000000pt;stroke-linecap:butt;stroke-linejoin:miter;stroke-opacity:1.0000000"
       d="M 54.776000,20.907600 C 60.170600,20.561800 63.905300,24.573200 65.980100,29.207000 C 57.542400,42.831800 50.557100,56.249200 36.309800,66.969200 C 36.309800,66.969200 32.782600,56.802400 27.595500,58.047400 C 34.027500,50.785400 48.966400,30.037000 54.776000,20.907600 z "
       id="path624"
       sodipodi:nodetypes="ccccc" />
    <path
       style="fill:#ffffff;fill-opacity:1.0000000;fill-rule:evenodd;stroke:none;stroke-width:1.0000000pt;stroke-linecap:butt;stroke-linejoin:miter;stroke-opacity:1.0000000"
       d="M 29.670300,56.180000 C 30.915200,56.940800 32.160100,57.701500 33.405000,58.462300 C 42.534400,47.603900 46.684100,36.538100 58.925700,24.642300 C 57.749900,23.881500 56.574200,23.120800 55.398400,22.360000 C 48.067300,35.085700 39.698700,47.396500 29.670300,56.180000 z "
       id="path630"
       sodipodi:nodetypes="ccccc" />
    <path
       style="fill:#9c7850;fill-opacity:1.0000000;fill-rule:evenodd;stroke:none;stroke-width:1.0000000pt;stroke-linecap:butt;stroke-linejoin:miter;stroke-opacity:1.0000000"
       d="M 34.753800,67.280500 C 34.961200,65.101900 34.442500,63.545700 33.301300,61.782100 C 31.779800,65.171000 29.428300,67.626200 26.143100,68.421600 C 25.416900,69.044000 27.388000,70.392700 27.595500,71.637600 C 29.462900,70.496400 34.753800,67.902900 34.753800,67.280500 z "
       id="path631"
       sodipodi:nodetypes="ccccc" />
  </g>
</svg>
