<?xml version="1.0" encoding="UTF-8" standalone="no"?>
<!-- Created with Sodipodi ("http://www.sodipodi.com/") -->
<svg
   xmlns:dc="http://purl.org/dc/elements/1.1/"
   xmlns:cc="http://creativecommons.org/ns#"
   xmlns:rdf="http://www.w3.org/1999/02/22-rdf-syntax-ns#"
   xmlns:svg="http://www.w3.org/2000/svg"
   xmlns="http://www.w3.org/2000/svg"
   xmlns:xlink="http://www.w3.org/1999/xlink"
   xmlns:sodipodi="http://sodipodi.sourceforge.net/DTD/sodipodi-0.dtd"
   xmlns:inkscape="http://www.inkscape.org/namespaces/inkscape"
   id="svg704"
   sodipodi:version="0.32"
   width="72pt"
   height="72pt"
   sodipodi:docbase="/home/tweenk/GNUtoon additions/apps"
   sodipodi:docname="rhythmbox.svg"
   inkscape:version="0.45+devel"
   inkscape:output_extension="org.inkscape.output.svg.inkscape">
  <metadata
     id="metadata2498">
    <rdf:RDF>
      <cc:Work
         rdf:about="">
        <dc:format>image/svg+xml</dc:format>
        <dc:type
           rdf:resource="http://purl.org/dc/dcmitype/StillImage" />
      </cc:Work>
    </rdf:RDF>
  </metadata>
  <defs
     id="defs706">
    <radialGradient
       xlink:href="#linearGradient566"
       id="radialGradient800"
       cx="27.858172"
       cy="54.541387"
       fx="27.858172"
       fy="54.541387"
       r="7.1704024"
       gradientUnits="userSpaceOnUse"
       spreadMethod="pad"
       gradientTransform="scale(1.074784,0.9304195)" />
    <radialGradient
       xlink:href="#linearGradient566"
       id="radialGradient799"
       cx="8.0780272"
       cy="61.905868"
       fx="8.0780272"
       fy="61.905868"
       r="5.5136268"
       gradientUnits="userSpaceOnUse"
       spreadMethod="pad"
       gradientTransform="scale(1.1119503,0.8993207)" />
    <linearGradient
       id="linearGradient566">
      <stop
         style="stop-color:#ffffff;stop-opacity:1;"
         offset="0.000000"
         id="stop567" />
      <stop
         style="stop-color:#ffffff;stop-opacity:0;"
         offset="1.000000"
         id="stop568" />
    </linearGradient>
    <linearGradient
       id="linearGradient6689">
      <stop
         style="stop-color:#ffffff;stop-opacity:1;"
         offset="0"
         id="stop6691" />
      <stop
         style="stop-color:#a9e2f5;stop-opacity:1"
         offset="1"
         id="stop6693" />
    </linearGradient>
    <linearGradient
       id="linearGradient569">
      <stop
         style="stop-color:#000000;stop-opacity:1;"
         offset="0"
         id="stop570" />
      <stop
         style="stop-color:#593a28;stop-opacity:0.94117647;"
         offset="1"
         id="stop571" />
    </linearGradient>
    <radialGradient
       inkscape:collect="always"
       xlink:href="#linearGradient569"
       id="radialGradient3553"
       gradientUnits="userSpaceOnUse"
       gradientTransform="matrix(-1.3560828,0.3672442,-0.5708579,-2.1079454,110.50792,150.32151)"
       cx="36.807838"
       cy="53.942883"
       fx="36.807838"
       fy="53.942883"
       r="10.53266" />
    <radialGradient
       inkscape:collect="always"
       xlink:href="#linearGradient569"
       id="radialGradient3556"
       gradientUnits="userSpaceOnUse"
       gradientTransform="matrix(1.1947472,1.0267497e-7,-5.8494662e-8,0.680656,-11.220704,-5.0485594)"
       cx="47.022842"
       cy="38.734962"
       fx="47.022842"
       fy="38.734962"
       r="19.745998" />
    <radialGradient
       inkscape:collect="always"
       xlink:href="#linearGradient569"
       id="radialGradient3559"
       gradientUnits="userSpaceOnUse"
       gradientTransform="matrix(1.4065559,0.5890822,-0.6872376,1.6409228,13.793301,-72.597102)"
       cx="59.112938"
       cy="53.952019"
       fx="59.112938"
       fy="53.952019"
       r="13.011415" />
    <linearGradient
       inkscape:collect="always"
       xlink:href="#linearGradient6689"
       id="linearGradient3562"
       gradientUnits="userSpaceOnUse"
       gradientTransform="matrix(0.9326263,0,0,0.9326263,-34.563599,-1.513282)"
       x1="100.28043"
       y1="24.046768"
       x2="44.08493"
       y2="90.276794" />
    <radialGradient
       inkscape:collect="always"
       xlink:href="#linearGradient566"
       id="radialGradient3196"
       gradientUnits="userSpaceOnUse"
       gradientTransform="scale(1.1119503,0.8993207)"
       spreadMethod="pad"
       cx="8.0145878"
       cy="61.866608"
       fx="8.0145878"
       fy="61.866608"
       r="5.0964995" />
    <radialGradient
       inkscape:collect="always"
       xlink:href="#linearGradient566"
       id="radialGradient3214"
       gradientUnits="userSpaceOnUse"
       gradientTransform="scale(1.1119503,0.8993207)"
       spreadMethod="pad"
       cx="8.0145878"
       cy="61.866608"
       fx="8.0145878"
       fy="61.866608"
       r="5.0964995" />
  </defs>
  <sodipodi:namedview
     id="base"
     inkscape:zoom="3.197694"
     inkscape:cx="-0.97062757"
     inkscape:cy="38.696603"
     inkscape:window-width="795"
     inkscape:window-height="708"
     inkscape:window-x="106"
     inkscape:window-y="25"
     inkscape:current-layer="svg704"
     showgrid="false" />
  <path
     style="fill:#0d0000;fill-opacity:0.30196491;fill-rule:evenodd;stroke:none;stroke-width:1px;stroke-linecap:butt;stroke-linejoin:miter;stroke-opacity:1"
     d="M 81.324795,67.317918 C 85.690567,67.677386 88.697452,71.175406 85.485066,74.165278 C 78.2455,80.903376 63.044977,88.303939 47.652691,89.868755 C 34.272796,88.510614 9.9742268,80.291303 4.394692,68.884887 C 2.3907078,64.78808 8.8657198,62.502694 12.583165,63.898759 C 27.629019,64.84801 69.414393,76.099895 81.324795,67.317918 z "
     id="path2212"
     sodipodi:nodetypes="cscscc" />
  <path
     style="fill:#283d53;fill-opacity:1;fill-rule:evenodd;stroke:#000000;stroke-width:0;stroke-linecap:butt;stroke-linejoin:miter;stroke-miterlimit:4;stroke-dasharray:none;stroke-opacity:1"
     d="M 4.4921869,11.248117 C 1.9378524,33.239844 1.2262188,55.221442 10.3236,70.714783 C 21.200962,79.61247 33.786802,84.061052 47.382543,86.615853 C 59.638048,84.439789 72.028325,80.220164 82.035047,72.158645 C 88.793862,51.463391 89.403543,30.768141 86.672574,10.766827 C 74.065857,4.1453757 57.989466,1.8406769 45.382752,0.17855948 C 32.260377,1.486177 16.960505,3.5834379 4.4921869,11.248117 z "
     id="path2162"
     sodipodi:nodetypes="ccccccc" />
  <path
     style="fill:url(#linearGradient3562);fill-opacity:1;fill-rule:evenodd;stroke:#000000;stroke-width:0;stroke-linecap:butt;stroke-linejoin:miter;stroke-miterlimit:4;stroke-dasharray:none;stroke-opacity:1"
     d="M 7.7012613,14.453844 C 5.4238715,34.061188 6.026786,54.278196 14.137812,68.091721 C 23.83583,76.024705 35.057091,80.403427 47.178756,82.681231 C 58.105499,80.741099 69.152401,76.56651 78.074173,69.379036 C 83.732621,51.455125 85.02554,35.993368 83.65251,14.024737 C 69.983938,7.2962705 60.694342,5.8350668 46.290352,3.6592256 C 32.196784,4.8752277 18.817742,7.6201862 7.7012613,14.453844 z "
     id="path2213"
     sodipodi:nodetypes="ccccccc" />
  <path
     style="fill:url(#radialGradient3559);fill-opacity:1;fill-rule:evenodd;stroke:none;stroke-width:1.82396042;stroke-linecap:butt;stroke-linejoin:miter;stroke-miterlimit:4;stroke-dasharray:none;stroke-opacity:1"
     d="M 62.380191,29.876036 C 81.09993,23.024133 81.021123,66.48516 63.965358,71.883001 C 47.079317,77.227127 43.660452,36.72794 62.380191,29.876036 z "
     id="path6296"
     sodipodi:nodetypes="czz" />
  <path
     style="fill:url(#radialGradient3556);fill-opacity:1;fill-rule:evenodd;stroke:none;stroke-width:1.82396042;stroke-linecap:butt;stroke-linejoin:miter;stroke-miterlimit:4;stroke-dasharray:none;stroke-opacity:1"
     d="M 44.524383,22.246441 C 77.963791,23.412652 74.36729,8.8020072 45.316967,8.7725111 C 16.268116,8.7430148 10.711346,21.08023 44.524383,22.246441 z "
     id="path6298"
     sodipodi:nodetypes="czz" />
  <path
     style="fill:url(#radialGradient3553);fill-opacity:1;fill-rule:evenodd;stroke:none;stroke-width:1.82396042;stroke-linecap:butt;stroke-linejoin:miter;stroke-miterlimit:4;stroke-dasharray:none;stroke-opacity:1"
     d="M 25.637988,29.571835 C 42.302877,35.604787 42.821784,77.380346 27.159053,70.503245 C 11.274531,63.528762 8.850262,23.494417 25.637988,29.571835 z "
     id="path6300"
     sodipodi:nodetypes="czz" />
  <path
     style="fill:#de0000;fill-opacity:1;fill-rule:evenodd;stroke:#000000;stroke-width:0;stroke-linecap:butt;stroke-linejoin:miter;stroke-miterlimit:4;stroke-dasharray:none;stroke-opacity:1"
     d="M 31.846772,59.828917 C 25.189861,58.905664 22.05863,47.012454 28.653221,41.716305 C 32.403075,42.427749 35.169065,56.178275 31.846772,59.828917 z "
     id="path6308"
     sodipodi:nodetypes="ccc" />
  <path
     style="fill:#de0000;fill-opacity:1;fill-rule:evenodd;stroke:#000000;stroke-width:0;stroke-linecap:butt;stroke-linejoin:miter;stroke-miterlimit:4;stroke-dasharray:none;stroke-opacity:1"
     d="M 36.979949,21.728809 C 39.974273,15.27609 51.427408,15.851247 53.87425,22.193499 C 48.417675,22.587922 42.782566,22.474155 36.979949,21.728809 z "
     id="path6310"
     sodipodi:nodetypes="ccc"
     inkscape:transform-center-y="-0.99948214" />
  <path
     style="fill:#de0000;fill-opacity:1;fill-rule:evenodd;stroke:#000000;stroke-width:0;stroke-linecap:butt;stroke-linejoin:miter;stroke-miterlimit:4;stroke-dasharray:none;stroke-opacity:1"
     d="M 58.701758,60.234157 C 65.858909,58.98242 67.471209,44.879065 60.804536,42.019637 C 56.663742,46.034056 55.699492,54.6955 58.701758,60.234157 z "
     id="path7656"
     sodipodi:nodetypes="ccc" />
  <path
     style="fill:#283d53;fill-opacity:1;fill-rule:evenodd;stroke:none;stroke-width:1px;stroke-linecap:butt;stroke-linejoin:miter;stroke-opacity:1"
     d="M 45.113339,85.086056 C 42.888645,77.170148 41.612205,53.141885 42.884416,33.017827 C 43.769974,54.047286 45.244261,75.071549 48.495411,84.555684 C 47.730856,85.172131 46.184826,85.111827 45.113339,85.086056 z "
     id="path3194"
     sodipodi:nodetypes="cccc" />
  <path
     style="fill:#283d53;fill-opacity:1;fill-rule:evenodd;stroke:none;stroke-width:1px;stroke-linecap:butt;stroke-linejoin:miter;stroke-opacity:1"
     d="M 85.927168,14.765751 C 78.636874,18.568702 60.917294,26.397938 45.818445,28.476105 C 66.331061,23.092716 75.307792,17.923037 83.922089,12.793443 C 84.682408,13.415104 85.732342,13.711809 85.927168,14.765751 z "
     id="path4165"
     sodipodi:nodetypes="cccc" />
  <path
     style="fill:#283d53;fill-opacity:1;fill-rule:evenodd;stroke:none;stroke-width:1px;stroke-linecap:butt;stroke-linejoin:miter;stroke-opacity:1"
     d="M 5.5058926,14.122821 C 15.468458,19.96864 21.17869,23.881681 40.091788,28.185954 C 19.572073,21.968361 14.281938,16.91963 8.0309096,11.986952 C 7.2559039,12.608612 5.7044812,13.068879 5.5058926,14.122821 z "
     id="path4167"
     sodipodi:nodetypes="cccc" />
  <path
     style="fill:#ffffff;fill-opacity:1;fill-rule:evenodd;stroke:none;stroke-width:1px;stroke-linecap:butt;stroke-linejoin:miter;stroke-opacity:1"
     d="M 60.895835,43.157561 C 60.895835,43.157561 64.565648,45.500832 63.574254,51.145194 C 63.061564,47.043688 59.435427,44.895549 59.435427,44.895549 L 60.895835,43.157561 z "
     id="path2526"
     sodipodi:nodetypes="cccc" />
  <path
     style="fill:#ffffff;fill-opacity:1;fill-rule:evenodd;stroke:none;stroke-width:1px;stroke-linecap:butt;stroke-linejoin:miter;stroke-opacity:1"
     d="M 28.322368,43.157289 C 28.322368,43.157289 24.955509,45.50391 25.766984,51.156345 C 26.18663,47.048973 29.517739,44.897763 29.517739,44.897763 L 28.322368,43.157289 z "
     id="path3497"
     sodipodi:nodetypes="cccc" />
  <path
     style="fill:#ffffff;fill-opacity:1;fill-rule:evenodd;stroke:none;stroke-width:1px;stroke-linecap:butt;stroke-linejoin:miter;stroke-opacity:1"
     d="M 37.850423,21.861581 C 37.850423,21.861581 39.454949,18.027517 44.738702,17.924721 C 40.302404,19.024023 40.100667,22.04777 40.100667,22.04777 L 37.850423,21.861581 z "
     id="path3499"
     sodipodi:nodetypes="cccc" />
  <g
     id="g852"
     transform="matrix(0.7651174,-0.171899,0.171899,0.7651174,-27.286371,24.429237)">
    <path
       d="M 7.73398,34.2049 L 12.0429,51.3301 C 5.08232,51.2196 4.19844,55.9705 4.64039,59.1746 C 6.73961,68.2343 17.4567,65.6933 24.5277,62.7102 C 23.6438,59.506 20.3293,44.3696 19.8874,41.7178 C 23.7543,40.7235 31.8198,38.4033 31.8198,38.4033 C 31.8198,38.4033 34.6924,45.5849 35.1343,47.0212 C 26.0745,46.6897 25.4117,52.3244 26.1851,54.8656 C 27.6214,61.9367 34.0295,61.8262 37.5651,60.8318 C 40.8796,60.2795 45.52,58.2907 48.0612,57.1859 C 47.0668,53.3189 38.3384,29.233 37.2336,26.1394 C 32.9246,27.6862 7.62349,34.4258 7.73398,34.2049 z "
       transform="matrix(1.035546,0,0,1.035546,15.84731,24.27362)"
       style="font-size:12px;fill:#0d0000;fill-opacity:0.30147101;fill-rule:evenodd;stroke-width:1pt"
       id="path635" />
    <g
       id="g843">
      <path
         d="M 7.73398,34.2049 L 12.0429,51.3301 C 5.08232,51.2196 4.19844,55.9705 4.64039,59.1746 C 6.73961,68.2343 17.4567,65.6933 24.5277,62.7102 C 23.6438,59.506 20.3293,44.3696 19.8874,41.7178 C 23.7543,40.7235 31.8198,38.4033 31.8198,38.4033 C 31.8198,38.4033 34.6924,45.5849 35.1343,47.0212 C 26.0745,46.6897 25.4117,52.3244 26.1851,54.8656 C 27.6214,61.9367 34.0295,61.8262 37.5651,60.8318 C 40.8796,60.2795 45.52,58.2907 48.0612,57.1859 C 47.0668,53.3189 38.3384,29.233 37.2336,26.1394 C 32.9246,27.6862 7.62349,34.4258 7.73398,34.2049 z "
         style="font-size:12px;fill:#0d3c07;fill-rule:evenodd;stroke-width:1pt"
         id="path773"
         transform="translate(15.125,24.57589)" />
      <path
         d="M 15.7994,54.2027 L 11.159,35.9726 L 35.7973,29.1225 L 44.7466,54.9761 C 44.7466,54.9761 33.3666,59.506 31.7093,57.5173 C 28.9471,57.4067 26.7375,51.2197 33.4771,50.0043 C 37.1231,49.8938 38.5594,49.6728 39.5538,50.0042 L 33.3666,34.0944 L 15.247,39.3977 L 20.3293,60.0584 C 20.3293,60.0584 13.7002,64.9198 7.95495,60.1689 C 6.73961,59.0641 6.62912,56.0809 8.61786,54.9761 C 10.2751,52.8769 15.6889,54.4237 15.7994,54.2027 z "
         style="font-size:12px;fill:#2aaf18;fill-rule:evenodd;stroke-width:1pt"
         id="path574"
         transform="translate(15.125,24.57589)" />
      <path
         d="M 14.4736,57.5725 C 12.6184,56.7928 11.9994,58.2032 11.601,60.0584 C 10.0153,60.0584 8.87676,59.2416 8.87676,57.8693 C 8.87676,56.4971 9.94109,55.5318 11.5268,55.5318 C 13.1125,55.5318 14.4736,56.2003 14.4736,57.5725 z "
         transform="matrix(1.488889,0,0,1.488889,9.121962,-4.123091)"
         style="font-size:12px;fill:url(#radialGradient799);fill-rule:evenodd;stroke-width:1pt"
         id="path623" />
      <path
         d="M 37.3441,53.6503 C 33.3666,51.8834 34.4706,54.4237 33.6428,56.8544 C 31.5997,56.8544 29.9416,55.4189 29.9416,53.6503 C 29.9416,51.8816 31.5997,50.4462 33.6428,50.4462 C 35.6859,50.4462 37.3441,51.8816 37.3441,53.6503 z "
         style="font-size:12px;fill:url(#radialGradient800);fill-rule:evenodd;stroke-width:1pt"
         id="path625"
         transform="translate(15.125,24.57589)" />
      <path
         d="M 15.3575,39.5082 L 33.3666,34.2049 L 33.8085,32.5476 L 15.7994,37.7404 L 15.3575,39.5082 z "
         style="font-size:12px;fill:#34674b;fill-rule:evenodd;stroke-width:1pt"
         id="path630"
         transform="translate(15.125,24.57589)" />
      <path
         d="M 11.159,35.9726 L 13.3687,36.5251 L 36.1287,30.2274 L 35.6868,29.1225 L 11.159,35.9726 z "
         style="font-size:12px;fill:#cbff87;fill-rule:evenodd;stroke-width:1pt"
         id="path631"
         transform="translate(15.125,24.57589)" />
      <path
         d="M 33.6981,32.879 L 39.6643,49.8938 L 33.2561,34.2049 L 33.6981,32.879 z "
         style="font-size:12px;fill:#cbff87;fill-rule:evenodd;stroke-width:1pt"
         id="path633"
         transform="translate(15.125,24.57589)" />
      <path
         d="M 13.1478,36.1936 C 13.1478,36.1936 16.1309,54.3132 16.0204,54.3132 C 15.9099,54.3132 11.2695,36.0831 11.2695,36.0831 L 13.1478,36.1936 z "
         style="font-size:12px;fill:#cbff87;fill-rule:evenodd;stroke-width:1pt"
         id="path634"
         transform="translate(15.125,24.57589)" />
    </g>
  </g>
  <g
     id="g836"
     transform="matrix(0.6826469,-0.141855,0.141855,0.6826469,22.421107,48.757718)">
    <g
       id="g3188"
       transform="matrix(0.9885088,0.1511634,-0.1511634,0.9885088,10.224401,-10.744617)">
      <path
         id="path636"
         style="font-size:12px;fill:#0d0007;fill-opacity:0.3;fill-rule:evenodd;stroke-width:1pt"
         transform="translate(1.257715,1.229801)"
         d="M 59.5517,32.3266 L 63.5291,56.8544 C 52.7015,54.3132 51.9282,59.948 52.1491,63.152 C 52.7016,75.8578 66.6227,75.416 71.926,72.6538 C 72.147,68.8973 71.926,40.7235 71.926,40.7235 C 76.3454,35.9727 84.4109,27.0233 86.7311,24.4821 C 80.8753,25.808 62.5347,31.6637 59.5517,32.3266 z " />
      <path
         transform="translate(-0.620537,-0.758934)"
         id="path617"
         style="font-size:12px;fill:#0d3c07;fill-rule:evenodd;stroke-width:1pt"
         d="M 59.5517,32.3266 L 63.5291,56.8544 C 52.7015,54.3132 51.9282,59.948 52.1491,63.152 C 52.7016,75.8578 66.6227,75.416 71.926,72.6538 C 72.147,68.8973 71.926,40.7235 71.926,40.7235 C 76.3454,35.9727 84.4109,27.0233 86.7311,24.4821 C 80.8753,25.808 62.5347,31.6637 59.5517,32.3266 z " />
      <path
         transform="translate(-0.620537,-0.758934)"
         id="path575"
         style="font-size:12px;fill:#2aaf18;fill-rule:evenodd;stroke-width:1pt"
         d="M 67.5066,63.9254 L 63.1977,35.6412 L 80.4334,28.1282 L 67.9485,39.6186 C 67.838,41.3864 69.6058,67.3505 69.2744,69.3392 C 69.6059,70.9966 67.1751,70.665 64.8549,70.665 C 56.0162,69.2287 53.1435,62.5996 58.5573,60.0584 C 61.5404,59.5061 66.5122,61.2738 67.5066,63.9254 z " />
      <path
         id="path628"
         style="font-size:12px;fill:url(#radialGradient3196);fill-rule:evenodd;stroke-width:1pt"
         transform="matrix(1.488889,0,0,1.488889,42.21099,-23.38121)"
         d="M 14.4736,57.5725 C 12.6184,56.7928 11.9994,58.2032 11.601,60.0584 C 10.0153,60.0584 8.87676,59.2416 8.87676,57.8693 C 8.87676,56.4971 9.94109,55.5318 11.5268,55.5318 C 13.1125,55.5318 14.4736,56.2003 14.4736,57.5725 z " />
      <path
         transform="translate(-0.620537,-0.758934)"
         id="path629"
         style="font-size:12px;fill:#34674b;fill-rule:evenodd;stroke-width:1pt"
         d="M 67.9485,39.8396 L 67.3961,37.9614 L 80.2124,28.2386 L 67.9485,39.8396 z " />
      <path
         transform="translate(-0.620537,-0.758934)"
         id="path632"
         style="font-size:12px;fill:#cbff87;fill-rule:evenodd;stroke-width:1pt"
         d="M 79.881,28.4596 L 64.634,36.5251 L 67.5066,63.4835 L 63.1977,35.5307 L 79.881,28.4596 z " />
    </g>
  </g>
  <g
     id="g3198"
     transform="matrix(0.3678181,0.5049189,-0.5049189,0.3678181,48.766571,-42.924327)">
    <g
       id="g3200"
       transform="matrix(0.9885088,0.1511634,-0.1511634,0.9885088,10.224401,-10.744617)">
      <path
         id="path3202"
         style="font-size:12px;fill:#0d0007;fill-opacity:0.3;fill-rule:evenodd;stroke-width:1pt"
         transform="translate(1.257715,1.229801)"
         d="M 59.5517,32.3266 L 63.5291,56.8544 C 52.7015,54.3132 51.9282,59.948 52.1491,63.152 C 52.7016,75.8578 66.6227,75.416 71.926,72.6538 C 72.147,68.8973 71.926,40.7235 71.926,40.7235 C 76.3454,35.9727 84.4109,27.0233 86.7311,24.4821 C 80.8753,25.808 62.5347,31.6637 59.5517,32.3266 z " />
      <path
         transform="translate(-0.620537,-0.758934)"
         id="path3204"
         style="font-size:12px;fill:#0d3c07;fill-rule:evenodd;stroke-width:1pt"
         d="M 59.5517,32.3266 L 63.5291,56.8544 C 52.7015,54.3132 51.9282,59.948 52.1491,63.152 C 52.7016,75.8578 66.6227,75.416 71.926,72.6538 C 72.147,68.8973 71.926,40.7235 71.926,40.7235 C 76.3454,35.9727 84.4109,27.0233 86.7311,24.4821 C 80.8753,25.808 62.5347,31.6637 59.5517,32.3266 z " />
      <path
         transform="translate(-0.620537,-0.758934)"
         id="path3206"
         style="font-size:12px;fill:#2aaf18;fill-rule:evenodd;stroke-width:1pt"
         d="M 67.5066,63.9254 L 63.1977,35.6412 L 80.4334,28.1282 L 67.9485,39.6186 C 67.838,41.3864 69.6058,67.3505 69.2744,69.3392 C 69.6059,70.9966 67.1751,70.665 64.8549,70.665 C 56.0162,69.2287 53.1435,62.5996 58.5573,60.0584 C 61.5404,59.5061 66.5122,61.2738 67.5066,63.9254 z " />
      <path
         id="path3208"
         style="font-size:12px;fill:url(#radialGradient3214);fill-rule:evenodd;stroke-width:1pt"
         transform="matrix(1.488889,0,0,1.488889,42.21099,-23.38121)"
         d="M 14.4736,57.5725 C 12.6184,56.7928 11.9994,58.2032 11.601,60.0584 C 10.0153,60.0584 8.87676,59.2416 8.87676,57.8693 C 8.87676,56.4971 9.94109,55.5318 11.5268,55.5318 C 13.1125,55.5318 14.4736,56.2003 14.4736,57.5725 z " />
      <path
         transform="translate(-0.620537,-0.758934)"
         id="path3210"
         style="font-size:12px;fill:#34674b;fill-rule:evenodd;stroke-width:1pt"
         d="M 67.9485,39.8396 L 67.3961,37.9614 L 80.2124,28.2386 L 67.9485,39.8396 z " />
      <path
         transform="translate(-0.620537,-0.758934)"
         id="path3212"
         style="font-size:12px;fill:#cbff87;fill-rule:evenodd;stroke-width:1pt"
         d="M 79.881,28.4596 L 64.634,36.5251 L 67.5066,63.4835 L 63.1977,35.5307 L 79.881,28.4596 z " />
    </g>
  </g>
</svg>
