<?xml version="1.0" encoding="UTF-8" standalone="no"?>
<!-- Created with Sodipodi ("http://www.sodipodi.com/") -->
<svg
   xmlns:dc="http://purl.org/dc/elements/1.1/"
   xmlns:cc="http://web.resource.org/cc/"
   xmlns:rdf="http://www.w3.org/1999/02/22-rdf-syntax-ns#"
   xmlns:svg="http://www.w3.org/2000/svg"
   xmlns="http://www.w3.org/2000/svg"
   xmlns:xlink="http://www.w3.org/1999/xlink"
   xmlns:sodipodi="http://sodipodi.sourceforge.net/DTD/sodipodi-0.dtd"
   xmlns:inkscape="http://www.inkscape.org/namespaces/inkscape"
   version="1.0"
   x="0"
   y="0"
   width="90"
   height="90"
   id="svg602"
   xml:space="preserve"
   sodipodi:version="0.32"
   sodipodi:docname="ccsm.svg"
   sodipodi:docbase="/home/tweenk/GNUtoon/apps"
   inkscape:version="0.45.1"
   inkscape:output_extension="org.inkscape.output.svg.inkscape"><metadata
     id="metadata21"><rdf:RDF><cc:Work
         rdf:about=""><dc:format>image/svg+xml</dc:format><dc:type
           rdf:resource="http://purl.org/dc/dcmitype/StillImage" /></cc:Work></rdf:RDF></metadata><sodipodi:namedview
     id="base"
     inkscape:zoom="3.197694"
     inkscape:cx="55.786293"
     inkscape:cy="26.185034"
     inkscape:window-width="795"
     inkscape:window-height="623"
     inkscape:window-x="114"
     inkscape:window-y="72"
     inkscape:current-layer="svg602" /><defs
     id="defs604"><linearGradient
       id="linearGradient604"><stop
         offset="0.000000"
         style="stop-color:#666565;stop-opacity:1;"
         id="stop606" /><stop
         offset="1.000000"
         style="stop-color:#ffffff;stop-opacity:1;"
         id="stop605" /></linearGradient><linearGradient
       id="linearGradient554"><stop
         style="stop-color:#666565;stop-opacity:1;"
         offset="0.000000"
         id="stop555" /><stop
         style="stop-color:#ffffff;stop-opacity:1;"
         offset="1.000000"
         id="stop556" /></linearGradient><linearGradient
       id="linearGradient12147"><stop
         style="stop-color:#ff933d;stop-opacity:1;"
         offset="0"
         id="stop12149" /><stop
         style="stop-color:#ffc93f;stop-opacity:1;"
         offset="1"
         id="stop12151" /></linearGradient><linearGradient
       id="linearGradient11160"><stop
         style="stop-color:#ffffff;stop-opacity:1;"
         offset="0"
         id="stop11162" /><stop
         style="stop-color:#c2c2c2;stop-opacity:1;"
         offset="1"
         id="stop11164" /></linearGradient><linearGradient
       inkscape:collect="always"
       xlink:href="#linearGradient11160"
       id="linearGradient11166"
       x1="31.135588"
       y1="22.390924"
       x2="25.697926"
       y2="48.034405"
       gradientUnits="userSpaceOnUse" /><linearGradient
       inkscape:collect="always"
       xlink:href="#linearGradient12147"
       id="linearGradient12153"
       x1="53.999454"
       y1="17.663967"
       x2="9.8321218"
       y2="8.9076576"
       gradientUnits="userSpaceOnUse" /><linearGradient
       inkscape:collect="always"
       xlink:href="#linearGradient11160"
       id="linearGradient12163"
       gradientUnits="userSpaceOnUse"
       x1="31.135588"
       y1="22.390924"
       x2="25.697926"
       y2="48.034405"
       gradientTransform="translate(24.371934,27.105842)" /><linearGradient
       inkscape:collect="always"
       xlink:href="#linearGradient12147"
       id="linearGradient12165"
       gradientUnits="userSpaceOnUse"
       x1="53.999454"
       y1="17.663967"
       x2="9.8321218"
       y2="8.9076576"
       gradientTransform="translate(24.371934,27.105842)" /><linearGradient
       inkscape:collect="always"
       xlink:href="#linearGradient554"
       id="linearGradient2793"
       gradientUnits="userSpaceOnUse"
       gradientTransform="matrix(0.940577,-0.5429624,0.428431,0.7508279,-24.356968,35.056983)"
       spreadMethod="pad"
       x1="12.9236002"
       y1="79.9603500"
       x2="8.33575153"
       y2="72.2902298" /><linearGradient
       inkscape:collect="always"
       xlink:href="#linearGradient554"
       id="linearGradient2795"
       gradientUnits="userSpaceOnUse"
       gradientTransform="matrix(0.7018935,-0.4051791,0.319711,0.5602958,-13.685548,47.998713)"
       spreadMethod="pad"
       x1="7.79836702"
       y1="68.6560287"
       x2="12.9945765"
       y2="78.4289169" /><linearGradient
       inkscape:collect="always"
       xlink:href="#linearGradient604"
       id="linearGradient2797"
       gradientUnits="userSpaceOnUse"
       gradientTransform="scale(0.994399,1.005632)"
       spreadMethod="pad"
       x1="61.0468903"
       y1="28.6572132"
       x2="79.6281509"
       y2="14.1547699" /></defs><path
     style="fill:#211301;fill-opacity:0.31372549;fill-rule:evenodd;stroke:none;stroke-width:1pt;stroke-linecap:butt;stroke-linejoin:miter;stroke-opacity:1"
     d="M 7.9508995,50.40285 C 6.5955475,47.14901 1.8803975,27.054214 6.3740035,5.8720497 C 30.249459,4.1766487 53.324405,10.695589 64.641065,17.564743 C 65.856005,22.356299 62.095305,51.96887 54.562185,61.8798 C 48.899225,62.65168 22.213159,60.02016 7.9508995,50.40285 z "
     id="path10183"
     sodipodi:nodetypes="ccccc" /><path
     style="fill:#283d53;fill-opacity:1;fill-rule:evenodd;stroke:none;stroke-width:1pt;stroke-linecap:butt;stroke-linejoin:miter;stroke-opacity:1"
     d="M 4.9487675,46.03956 C 3.5934155,42.78571 -1.1217345,22.690917 3.3718715,1.5087517 C 27.247327,-0.18664928 50.322275,6.3322917 61.638935,13.201446 C 62.853875,17.993002 59.093165,47.60557 51.560055,57.5165 C 45.897095,58.28838 19.211027,55.65686 4.9487675,46.03956 z "
     id="path10185"
     sodipodi:nodetypes="ccccc" /><path
     style="fill:url(#linearGradient11166);fill-opacity:1.0;fill-rule:evenodd;stroke:none;stroke-width:1px;stroke-linecap:butt;stroke-linejoin:miter;stroke-opacity:1"
     d="M 7.4652265,13.114789 C 20.123486,11.315106 39.578225,15.292574 55.406835,22.11807 C 54.674955,31.15476 52.257335,44.02536 47.814465,52.11374 C 34.246665,51.82451 17.541061,47.8027 9.4106405,42.45886 C 7.2876505,35.29811 6.0599365,19.708878 7.4652265,13.114789 z "
     id="path10187"
     sodipodi:nodetypes="ccccc" /><path
     style="fill:url(#linearGradient12153);fill-opacity:1.0;fill-rule:evenodd;stroke:none;stroke-width:1px;stroke-linecap:butt;stroke-linejoin:miter;stroke-opacity:1"
     d="M 7.7161015,11.288931 C 7.8287825,10.335294 8.0982815,8.0490677 8.4115195,7.0078137 C 20.429012,5.8334877 34.507523,7.3612787 56.111785,15.611628 C 56.161745,16.489565 55.688015,19.988831 55.665825,20.538414 C 39.534265,14.068446 24.727907,10.293635 7.7161015,11.288931 z "
     id="path10189"
     sodipodi:nodetypes="ccccc" /><path
     style="fill:#211301;fill-opacity:0.31372549;fill-rule:evenodd;stroke:none;stroke-width:1pt;stroke-linecap:butt;stroke-linejoin:miter;stroke-opacity:1"
     d="M 32.322833,77.508692 C 30.967481,74.254852 26.252331,54.160056 30.745937,32.977892 C 54.621392,31.282491 77.696338,37.801431 89.012998,44.670585 C 90.227938,49.462141 86.467238,79.074712 78.934118,88.985642 C 73.271158,89.757522 46.585092,87.126002 32.322833,77.508692 z "
     id="path12155"
     sodipodi:nodetypes="ccccc" /><path
     style="fill:#283d53;fill-opacity:1;fill-rule:evenodd;stroke:none;stroke-width:1pt;stroke-linecap:butt;stroke-linejoin:miter;stroke-opacity:1"
     d="M 29.320701,73.145402 C 27.965349,69.891552 23.250199,49.796759 27.743805,28.614594 C 51.61926,26.919193 74.694208,33.438134 86.010868,40.307288 C 87.225808,45.098844 83.465098,74.711412 75.931988,84.622342 C 70.269028,85.394222 43.58296,82.762702 29.320701,73.145402 z "
     id="path12157"
     sodipodi:nodetypes="ccccc" /><path
     style="fill:url(#linearGradient12163);fill-opacity:1;fill-rule:evenodd;stroke:none;stroke-width:1px;stroke-linecap:butt;stroke-linejoin:miter;stroke-opacity:1"
     d="M 31.83716,40.220631 C 44.495419,38.420948 63.950158,42.398416 79.778768,49.223912 C 79.046888,58.260602 76.629268,71.131202 72.186398,79.219582 C 58.618598,78.930352 41.912994,74.908542 33.782574,69.564702 C 31.659584,62.403952 30.43187,46.81472 31.83716,40.220631 z "
     id="path12159"
     sodipodi:nodetypes="ccccc" /><path
     style="fill:url(#linearGradient12165);fill-opacity:1;fill-rule:evenodd;stroke:none;stroke-width:1px;stroke-linecap:butt;stroke-linejoin:miter;stroke-opacity:1"
     d="M 32.088035,38.394773 C 32.200716,37.441136 32.470215,35.15491 32.783453,34.113656 C 44.800945,32.93933 58.879456,34.467121 80.483718,42.71747 C 80.533678,43.595407 80.059948,47.094673 80.037758,47.644256 C 63.906198,41.174288 49.09984,37.399477 32.088035,38.394773 z "
     id="path12161"
     sodipodi:nodetypes="ccccc" /><g
     id="g2758"
     transform="matrix(0.6033155,0,0,0.6033155,-3.2765016,20.720683)"><path
       sodipodi:nodetypes="ccccccccccccc"
       id="path570"
       d="M 61.17478,74.103551 L 21.205747,100.61569 C 13.983551,103.61813 5.0118337,94.180941 11.920071,85.484499 L 51.754448,58.003185 L 51.889068,45.110771 L 74.228737,33.76123 L 80.284592,44.395637 L 70.72964,52.663463 L 72.075468,55.567111 L 85.533098,49.636277 L 90.91604,62.350343 L 73.555823,75.651944 L 61.17478,74.103551 z "
       style="fill:#000000;fill-opacity:0.3;fill-rule:evenodd;stroke:none;stroke-width:1pt;stroke-linecap:butt;stroke-linejoin:miter;stroke-opacity:1" /><path
       sodipodi:nodetypes="ccccccccccccc"
       id="path569"
       d="M 57.664723,70.885997 L 17.69569,97.398139 C 10.473494,100.40058 1.5017767,90.963387 8.4100142,82.266945 L 48.244391,54.785631 L 48.379011,41.893217 L 70.71868,30.543676 L 76.774535,41.178083 L 67.219583,49.445909 L 68.565411,52.349557 L 82.023041,46.418723 L 87.405983,59.132789 L 70.045766,72.43439 L 57.664723,70.885997 z "
       style="fill:#000000;fill-opacity:1;fill-rule:evenodd;stroke:none;stroke-width:1pt;stroke-linecap:butt;stroke-linejoin:miter;stroke-opacity:1" /><path
       sodipodi:nodetypes="ccccccccccccc"
       id="path552"
       d="M 57.395576,66.4754 L 18.099457,93.121422 C 12.626707,95.723269 7.4231158,89.173931 11.370678,83.970329 L 52.28169,56.786012 L 52.147162,44.001295 L 69.507472,35.119257 L 72.064415,40.502383 L 63.316904,49.653476 L 67.354203,56.516773 L 80.542686,50.999304 L 82.96501,57.593454 L 69.238325,67.821227 L 57.395576,66.4754 z "
       style="fill:#c9c9c9;fill-opacity:1;fill-rule:evenodd;stroke:none;stroke-width:1pt;stroke-linecap:butt;stroke-linejoin:miter;stroke-opacity:1" /><path
       sodipodi:nodetypes="ccccc"
       id="path566"
       d="M 57.126429,66.610019 C 56.991902,66.206345 54.031192,64.860517 55.10778,62.976487 L 42.188536,71.589378 C 42.457683,72.935114 43.668891,75.22291 43.668891,75.357438 C 43.668891,75.492057 56.722755,67.013786 57.126429,66.610019 z "
       style="fill:#9d9d9d;fill-opacity:1;fill-rule:evenodd;stroke:none;stroke-width:1pt;stroke-linecap:butt;stroke-linejoin:miter;stroke-opacity:1" /><path
       sodipodi:nodetypes="ccccc"
       id="path562"
       d="M 46.898656,73.473316 L 18.099457,93.121422 C 12.626707,95.723269 7.4231158,89.173931 11.370678,83.970329 L 40.842708,64.322223 C 45.687448,65.623147 46.629509,69.750069 46.898656,73.473316 z "
       style="fill:#ffc83d;fill-opacity:1;fill-rule:evenodd;stroke:none;stroke-width:1pt;stroke-linecap:butt;stroke-linejoin:miter;stroke-opacity:1" /><path
       id="path568"
       d="M 42.323155,67.417461 L 14.600489,85.585211 C 14.600489,85.585211 12.581859,84.64315 12.851006,84.508623 C 13.120162,84.374003 40.573653,65.667958 40.573653,65.667958 L 42.323155,67.417461 z "
       style="fill:#ffffff;fill-opacity:1;fill-rule:evenodd;stroke:none;stroke-width:1pt;stroke-linecap:butt;stroke-linejoin:miter;stroke-opacity:1" /><path
       sodipodi:nodetypes="ccccc"
       id="path567"
       d="M 46.898656,73.473316 L 18.099457,93.121422 C 14.241617,94.108387 19.804055,92.269169 13.793048,88.411302 L 43.399652,68.494049 C 44.880007,68.718384 46.629509,69.750069 46.898656,73.473316 z "
       style="fill:#ff933d;fill-opacity:1;fill-rule:evenodd;stroke:none;stroke-width:1pt;stroke-linecap:butt;stroke-linejoin:miter;stroke-opacity:1" /><path
       id="path561"
       d="M 21.555967,83.827833 C 22.526594,85.528863 21.584922,87.907701 19.454061,89.137773 C 17.323149,90.367874 14.805989,89.985699 13.835363,88.28467 C 12.864736,86.583641 13.806425,84.204793 15.937336,82.974692 C 18.068197,81.74462 20.585341,82.126804 21.555967,83.827833 z "
       style="font-size:12px;fill:url(#linearGradient2793);fill-rule:evenodd;stroke-width:1pt" /><path
       id="path560"
       d="M 20.57638,84.393333 C 21.300698,85.662705 20.597987,87.437883 19.007859,88.355809 C 17.417694,89.273758 15.539296,88.988565 14.814978,87.719194 C 14.090661,86.449822 14.793384,84.674637 16.38355,83.756689 C 17.973677,82.838762 19.852063,83.123962 20.57638,84.393333 z "
       style="font-size:12px;fill:url(#linearGradient2795);fill-rule:evenodd;stroke-width:1pt" /><path
       sodipodi:nodetypes="ccccccccccc"
       id="path564"
       d="M 68.430791,37.81082 L 54.838633,44.943356 L 54.838633,55.03651 L 59.95252,63.380162 L 68.834558,64.456843 L 80.811834,57.055159 L 79.600626,53.959922 L 66.142995,60.015777 L 60.356286,49.922623 L 69.507472,39.829469 L 68.430791,37.81082 z "
       style="fill:#969696;fill-opacity:1;fill-rule:evenodd;stroke:none;stroke-width:1pt;stroke-linecap:butt;stroke-linejoin:miter;stroke-opacity:1" /><path
       sodipodi:nodetypes="ccccccccccc"
       id="path565"
       d="M 68.969085,38.887409 L 55.780694,46.558239 L 56.318988,54.632744 L 60.759961,61.899807 L 68.834558,64.456843 L 80.811834,57.055159 L 79.869773,54.901983 L 66.815909,60.957838 L 60.625434,50.057243 L 69.507472,39.829469 L 68.969085,38.887409 z "
       style="fill:#bbbbbb;fill-opacity:1;fill-rule:evenodd;stroke:none;stroke-width:1pt;stroke-linecap:butt;stroke-linejoin:miter;stroke-opacity:1" /><g
       transform="matrix(-1,0,0,1,92.068122,28.111001)"
       id="g790"><defs
         id="defs573" /><sodipodi:namedview
         id="namedview799" /><path
         transform="matrix(0.949606,0,0,0.949606,3.089142,0.15748)"
         sodipodi:nodetypes="ccccccccccccc"
         id="path613"
         d="M 1.25,73.9062 L 31.7187,41.8749 C 35.3646,40.8853 38.2292,39.8957 39.6876,41.7187 L 53.5938,27.9686 L 54.0626,15.6249 L 73.5938,3.12489 L 86.4064,16.0937 C 85.7814,17.4999 75.0001,36.0936 74.2188,37.1874 C 73.2813,37.0312 64.8438,37.6562 63.2813,37.6562 C 62.0313,37.3437 51.2501,49.2187 50.6251,50.4687 C 52.0834,52.1354 51.9793,55.2083 51.0938,57.3437 L 20.1562,89.6875 C 10.3646,93.3333 -0.208344,88.2291 1.25,73.9062 z "
         style="fill:#000000;fill-opacity:0.30275197;fill-rule:evenodd;stroke:none;stroke-width:1pt;stroke-linecap:butt;stroke-linejoin:miter;stroke-opacity:1" /><path
         transform="matrix(0.949606,0,0,0.949606,-4.456341e-3,-2.494173)"
         sodipodi:nodetypes="ccccccccccccc"
         id="path612"
         d="M 1.25,73.9062 L 31.7187,41.8749 C 35.3646,40.8853 38.2292,39.8957 39.6876,41.7187 L 53.5938,27.9686 L 54.0626,15.6249 L 73.5938,3.12489 L 86.4064,16.0937 C 85.7814,17.4999 75.0001,36.0936 74.2188,37.1874 C 73.2813,37.0312 64.8438,37.6562 63.2813,37.6562 C 62.0313,37.3437 51.2501,49.2187 50.6251,50.4687 C 52.0834,52.1354 51.9793,55.2083 51.0938,57.3437 L 20.1562,89.6875 C 10.3646,93.3333 -0.208344,88.2291 1.25,73.9062 z "
         style="fill:#000000;fill-opacity:1;fill-rule:evenodd;stroke:none;stroke-width:1pt;stroke-linecap:butt;stroke-linejoin:miter;stroke-opacity:1" /><path
         transform="matrix(0.877883,0.215653,2.038332e-2,0.922358,-3.265319,-3.362741)"
         sodipodi:ry="6.2976718"
         sodipodi:rx="7.1815591"
         sodipodi:cy="78.619995"
         sodipodi:cx="15.799429"
         d="M 22.980988 78.619995 A 7.1815591 6.2976718 0 1 1  8.6178699,78.619995 A 7.1815591 6.2976718 0 1 1  22.980988 78.619995 z"
         id="path596"
         style="fill:#ff933d;fill-opacity:1;fill-rule:evenodd;stroke:none;stroke-width:1pt;stroke-linecap:butt;stroke-linejoin:miter;stroke-opacity:1"
         sodipodi:type="arc" /><path
         transform="matrix(0.949606,0,0,0.949606,-4.456341e-3,-2.494173)"
         sodipodi:nodetypes="ccccccccc"
         id="path598"
         d="M 39.5538,47.3526 C 39.3329,47.3526 57.6735,29.4539 57.6735,29.4539 L 58.1154,18.6263 L 72.6995,8.46167 L 81.5384,17.0796 L 71.5946,33.2104 L 61.6509,32.7685 L 43.7523,51.772 L 39.5538,47.3526 z "
         style="fill:#c2c2c2;fill-opacity:1;fill-rule:evenodd;stroke:none;stroke-width:1pt;stroke-linecap:butt;stroke-linejoin:miter;stroke-opacity:1" /><path
         transform="matrix(0.949606,0,0,0.949606,-4.456341e-3,-2.494173)"
         id="path607"
         d="M 41.7635,47.5735 C 42.4265,47.1316 58.3364,30.7797 58.3364,30.7797 L 59.4412,32.3265 L 43.3103,48.8994 L 41.7635,47.5735 z "
         style="fill:#ffffff;fill-opacity:0.98165134;fill-rule:evenodd;stroke:none;stroke-width:1pt;stroke-linecap:butt;stroke-linejoin:miter;stroke-opacity:1" /><path
         transform="matrix(0.949606,0,0,0.949606,-4.456341e-3,-2.494173)"
         sodipodi:nodetypes="ccccc"
         id="path597"
         d="M 29.6875,50.3125 C 29.6875,50.4687 33.75,46.25 35,45.4688 C 40,43.125 45.9375,49.8437 46.4063,54.375 C 45.4688,55.1562 41.4063,60.1562 41.4063,60.1562 C 38.9063,53.9062 35.625,51.25 29.6875,50.3125 z "
         style="fill:#e32116;fill-opacity:1;fill-rule:evenodd;stroke:none;stroke-width:1pt;stroke-linecap:butt;stroke-linejoin:miter;stroke-opacity:1" /><path
         transform="matrix(0.949606,0,0,0.949606,-4.456341e-3,-2.494173)"
         sodipodi:nodetypes="ccccc"
         id="path575"
         d="M 8.61787,72.7643 C 15.6889,72.5433 19.2245,79.3934 18.7825,83.8128 C 21.4342,80.7192 41.5426,59.9479 41.5426,59.9479 C 41.6899,53.0242 35.65,48.0892 29.3891,50.4462 L 8.61787,72.7643 z "
         style="fill:#ffc93f;fill-opacity:1;fill-rule:evenodd;stroke:none;stroke-width:1pt;stroke-linecap:butt;stroke-linejoin:miter;stroke-opacity:1" /><path
         transform="matrix(0.949606,0,0,0.949606,-4.456341e-3,-2.494173)"
         sodipodi:nodetypes="ccccc"
         id="path610"
         d="M 37.7529,51.3069 C 42.7248,48.701 40.0477,48.4597 41.2977,47.6785 C 41.5468,45.3347 45.9375,49.8437 46.4063,54.375 C 45.4688,55.1562 41.4063,60.1562 41.4063,60.1562 C 38.9063,53.9062 39.492,53.4597 37.7529,51.3069 z "
         style="fill:#b01911;fill-opacity:1;fill-rule:evenodd;stroke:none;stroke-width:1pt;stroke-linecap:butt;stroke-linejoin:miter;stroke-opacity:1" /><path
         transform="matrix(0.949606,0,0,0.949606,-4.456341e-3,-2.494173)"
         id="path599"
         d="M 60.1041,19.9522 L 70.0478,30.3378 C 70.0478,30.3378 79.5496,16.8586 79.3286,16.8586 C 79.1077,16.8586 72.6995,10.8923 72.6995,10.8923 L 60.1041,19.9522 z "
         style="fill:url(#linearGradient2797);fill-opacity:1;fill-rule:evenodd;stroke:none;stroke-width:1pt;stroke-linecap:butt;stroke-linejoin:miter;stroke-opacity:1" /><path
         transform="matrix(0.949606,0,0,0.949606,-4.456341e-3,-2.494173)"
         sodipodi:nodetypes="ccccc"
         id="path608"
         d="M 13.9212,76.0789 C 17.4567,77.6256 19.2245,79.3934 18.7825,83.8128 C 21.4342,80.7192 41.5426,59.9479 41.5426,59.9479 C 41.6899,55.2339 38.7436,52.0666 37.1231,52.4349 L 13.9212,76.0789 z "
         style="fill:#ff933d;fill-opacity:1;fill-rule:evenodd;stroke:none;stroke-width:1pt;stroke-linecap:butt;stroke-linejoin:miter;stroke-opacity:1" /><path
         transform="matrix(0.949606,0,0,0.949606,-4.456341e-3,-2.494173)"
         id="path609"
         d="M 31.3779,50.8881 L 11.9324,70.7755 L 15.468,72.7643 L 15.6889,70.1126 L 32.9247,51.772 L 31.3779,50.8881 z "
         style="fill:#ffffff;fill-opacity:1;fill-rule:evenodd;stroke:none;stroke-width:1pt;stroke-linecap:butt;stroke-linejoin:miter;stroke-opacity:1" /><path
         transform="matrix(0.949606,0,0,0.949606,-4.456341e-3,-2.494173)"
         id="path611"
         d="M 36.5707,46.2477 L 32.8142,49.0099 C 32.8142,49.0099 34.9134,49.6728 35.0239,49.5623 C 35.1344,49.4518 38.5595,46.2477 38.5595,46.2477 C 38.5595,46.2477 36.3498,46.5792 36.5707,46.2477 z "
         style="fill:#ffffff;fill-opacity:1;fill-rule:evenodd;stroke:none;stroke-width:1pt;stroke-linecap:butt;stroke-linejoin:miter;stroke-opacity:1" /></g></g></svg>