<?xml version="1.0" encoding="UTF-8" standalone="no"?>
<!DOCTYPE svg PUBLIC "-//W3C//DTD SVG 20010904//EN"
"http://www.w3.org/TR/2001/REC-SVG-20010904/DTD/svg10.dtd">
<!-- Created with Sodipodi ("http://www.sodipodi.com/") -->
<svg
   id="svg548"
   sodipodi:version="0.32"
   width="72pt"
   height="72pt"
   sodipodi:docbase="/home/zeus/Desktop/icons/gartoon/svg"
   sodipodi:docname="/home/zeus/Desktop/icons/gartoon/svg/ooo_gulls.svg"
   xmlns="http://www.w3.org/2000/svg"
   xmlns:sodipodi="http://sodipodi.sourceforge.net/DTD/sodipodi-0.dtd"
   xmlns:xlink="http://www.w3.org/1999/xlink">
  <defs
     id="defs550">
    <linearGradient
       id="linearGradient585">
      <stop
         style="stop-color:#5cb2ff;stop-opacity:1;"
         offset="0.000000"
         id="stop586" />
      <stop
         style="stop-color:#ffffff;stop-opacity:1;"
         offset="1.000000"
         id="stop587" />
    </linearGradient>
    <linearGradient
       id="linearGradient576">
      <stop
         style="stop-color:#ffffff;stop-opacity:1;"
         offset="0.000000"
         id="stop577" />
      <stop
         style="stop-color:#370000;stop-opacity:0;"
         offset="1.000000"
         id="stop578" />
    </linearGradient>
    <linearGradient
       id="linearGradient569">
      <stop
         style="stop-color:#ff3a00;stop-opacity:1;"
         offset="0.000000"
         id="stop570" />
      <stop
         style="stop-color:#370000;stop-opacity:1;"
         offset="1.000000"
         id="stop571" />
    </linearGradient>
    <linearGradient
       id="linearGradient562">
      <stop
         style="stop-color:#000;stop-opacity:1;"
         offset="0"
         id="stop563" />
      <stop
         style="stop-color:#fff;stop-opacity:1;"
         offset="1"
         id="stop564" />
    </linearGradient>
    <linearGradient
       xlink:href="#linearGradient562"
       id="linearGradient565"
       x1="30.5917225"
       y1="65.8304825"
       x2="18.4360981"
       y2="42.3886795"
       gradientUnits="userSpaceOnUse"
       spreadMethod="pad"
       gradientTransform="scale(1.323326,0.755672)" />
    <linearGradient
       xlink:href="#linearGradient562"
       id="linearGradient567"
       x1="24.9874783"
       y1="44.9967537"
       x2="33.7596359"
       y2="60.7528610"
       gradientUnits="userSpaceOnUse"
       spreadMethod="pad"
       gradientTransform="scale(1.587744,0.629824)" />
    <linearGradient
       xlink:href="#linearGradient576"
       id="linearGradient568"
       x1="0.82734060"
       y1="0.11727467"
       x2="0.57553899"
       y2="0.88281417"
       gradientUnits="objectBoundingBox"
       spreadMethod="pad" />
    <radialGradient
       xlink:href="#linearGradient569"
       id="radialGradient573"
       cx="39.9771919"
       cy="62.0348434"
       fx="39.9771919"
       fy="62.0348434"
       r="2.87974644"
       gradientUnits="userSpaceOnUse"
       spreadMethod="pad"
       gradientTransform="scale(1.181249,0.846561)" />
    <radialGradient
       xlink:href="#linearGradient576"
       id="radialGradient575" />
    <linearGradient
       xlink:href="#linearGradient562"
       id="linearGradient580"
       x1="0.48992321"
       y1="-0.04502178"
       x2="0.53917038"
       y2="1.25967419"
       gradientUnits="objectBoundingBox"
       spreadMethod="pad" />
    <linearGradient
       xlink:href="#linearGradient585"
       id="linearGradient584"
       x1="38.9676552"
       y1="112.427650"
       x2="34.3394775"
       y2="55.2668114"
       gradientUnits="userSpaceOnUse"
       spreadMethod="pad"
       gradientTransform="scale(1.107407,0.903010)" />
    <linearGradient
       xlink:href="#linearGradient585"
       id="linearGradient588"
       x1="18.5747337"
       y1="70.6098175"
       x2="21.0069866"
       y2="44.9572525"
       gradientUnits="userSpaceOnUse"
       spreadMethod="pad"
       gradientTransform="scale(0.777781,1.285709)" />
  </defs>
  <sodipodi:namedview
     id="base">
    <sodipodi:guide
       orientation="vertical"
       position="0.00000000"
       id="guide552" />
    <sodipodi:guide
       orientation="horizontal"
       position="72.0658264"
       id="guide553" />
    <sodipodi:guide
       orientation="vertical"
       position="72.0658264"
       id="guide554" />
    <sodipodi:guide
       orientation="horizontal"
       position="0.23474211"
       id="guide555" />
  </sodipodi:namedview>
  <path
     style="font-size:12.000;fill:#000000;fill-rule:evenodd;stroke:none;stroke-width:3.087459;fill-opacity:0.3000;"
     d="M 84.38710 67.01163 C 84.38710 77.69897 75.65323 86.36275 64.87945 86.36275 C 54.10567 86.36275 45.37180 77.69897 45.37180 67.01163 C 45.37180 56.32429 54.10567 47.66048 64.87945 47.66048 C 75.65323 47.66048 84.38710 56.32429 84.38710 67.01163 z "
     id="path757"
     transform="matrix(1.724454,0.000000,0.000000,1.724454,-63.45049,-66.08647)" />
  <path
     style="font-size:12.000;fill:#ffffff;fill-rule:evenodd;stroke-width:3.427870;stroke:#000000;stroke-opacity:1.0000;"
     d="M 50.28572 81 C 50.28572 92.91357 40.62786 102.5714 28.71429 102.5714 C 16.80071 102.5714 7.142857 92.91357 7.142857 81 C 7.142857 69.08643 16.80071 59.42857 28.71429 59.42857 C 40.62786 59.42857 50.28572 69.08643 50.28572 81 z "
     id="path753"
     transform="matrix(1.559471,0.000000,0.000000,1.546961,-3.691949,-83.17577)" />
  <path
     style="font-size:12.000;fill-opacity:0.312977;fill-rule:evenodd;stroke-width:1;"
     d="M 3.99999 44.1699 C 24.5714 49.3128 36.5715 60.417 38.5715 60.6835 C 48.762 52.874 58.9524 45.408 70.8572 42.1699 C 60 40.7413 50.0001 45.9963 40.2858 52.8534 C 27.7143 46.6629 16 42.6461 3.99999 44.1699 z "
     id="path1142"
     sodipodi:nodetypes="ccccc"
     transform="matrix(0.944558,0.000000,0.000000,1.012973,17.70232,-7.562551)" />
  <path
     style="font-size:12.000;fill-opacity:0.312977;fill-rule:evenodd;stroke-width:1;"
     d="M 2.85168 46.2147 C 23.4231 51.3576 32.2421 58.2857 36.9864 60.4717 C 47.1769 52.6622 57.7986 47.4528 69.7034 44.2147 C 58.8462 42.7861 47.132 44.5503 37.4177 51.4074 C 24.8462 45.2169 16.1456 45.4196 2.85168 46.2147 z "
     id="path1143"
     sodipodi:nodetypes="ccccc"
     transform="matrix(0.625720,0.000000,0.000000,0.740732,38.85733,-14.26960)" />
  <path
     style="font-size:12.000;fill-rule:evenodd;stroke-width:1;"
     d="M 3.71428 42.5714 C 24.2857 47.7143 39.1429 58.2857 39.1429 58.2857 C 49.3334 50.4762 59.5238 43.8095 71.4286 40.5714 C 60.5714 39.1428 49.1429 42 39.4286 48.8571 C 26.8571 42.6666 15.7143 41.0476 3.71428 42.5714 z "
     id="path1136"
     sodipodi:nodetypes="ccccc"
     transform="matrix(0.944558,0.000000,0.000000,0.944558,14.73366,-6.003733)" />
  <path
     style="font-size:12.000;fill:#4b6983;fill-rule:evenodd;stroke-width:1;"
     d="M 3.71428 42.5714 C 24.2857 47.7143 39.1429 58.2857 39.1429 58.2857 C 49.3334 50.4762 59.5238 43.8095 71.4286 40.5714 C 60.5714 39.1428 48.8572 42 39.1429 48.8571 C 26.5714 42.6666 15.7143 41.0476 3.71428 42.5714 z "
     id="path1137"
     sodipodi:nodetypes="ccccc"
     transform="matrix(0.625720,0.000000,0.000000,0.690703,35.88863,-12.25779)" />
</svg>
