<?xml version="1.0" encoding="UTF-8" standalone="no"?>
<!-- Created with Sodipodi ("http://www.sodipodi.com/")
 Edited by Debian-BR-CDD Team http://cdd.debian-br.org  -->
<svg
   xmlns:dc="http://purl.org/dc/elements/1.1/"
   xmlns:cc="http://web.resource.org/cc/"
   xmlns:rdf="http://www.w3.org/1999/02/22-rdf-syntax-ns#"
   xmlns:svg="http://www.w3.org/2000/svg"
   xmlns="http://www.w3.org/2000/svg"
   xmlns:xlink="http://www.w3.org/1999/xlink"
   xmlns:sodipodi="http://sodipodi.sourceforge.net/DTD/sodipodi-0.dtd"
   xmlns:inkscape="http://www.inkscape.org/namespaces/inkscape"
   id="svg604"
   sodipodi:version="0.32"
   width="72pt"
   height="72pt"
   sodipodi:docbase="/home/tweenk/GNUtoon/apps"
   sodipodi:docname="ooo-impress.svg"
   inkscape:version="0.45.1"
   inkscape:output_extension="org.inkscape.output.svg.inkscape">
  <metadata
     id="metadata1225">
    <rdf:RDF>
      <cc:Work
         rdf:about="">
        <dc:format>image/svg+xml</dc:format>
        <dc:type
           rdf:resource="http://purl.org/dc/dcmitype/StillImage" />
      </cc:Work>
    </rdf:RDF>
  </metadata>
  <defs
     id="defs606">
    <linearGradient
       id="linearGradient1969">
      <stop
         offset="0.0000000"
         style="stop-color:#7fa8e3;stop-opacity:0.74117601;"
         id="stop1971" />
      <stop
         offset="1.0000000"
         style="stop-color:#ffffff;stop-opacity:0.0000000;"
         id="stop1970" />
    </linearGradient>
    <linearGradient
       id="linearGradient1966">
      <stop
         offset="0.0000000"
         style="stop-color:#956d47;stop-opacity:1.0000000;"
         id="stop1968" />
      <stop
         offset="1.0000000"
         style="stop-color:#ab322d;stop-opacity:0.0000000;"
         id="stop1967" />
    </linearGradient>
    <linearGradient
       id="linearGradient1963">
      <stop
         offset="0.0000000"
         style="stop-color:#cccccc;stop-opacity:1.0000000;"
         id="stop1965" />
      <stop
         offset="1.0000000"
         style="stop-color:#ffffff;stop-opacity:1.0000000;"
         id="stop1964" />
    </linearGradient>
    <linearGradient
       id="linearGradient1960">
      <stop
         offset="0.0000000"
         style="stop-color:#7fa8e3;stop-opacity:0.74117601;"
         id="stop1962" />
      <stop
         offset="1.0000000"
         style="stop-color:#ffffff;stop-opacity:0.0000000;"
         id="stop1961" />
    </linearGradient>
    <linearGradient
       id="linearGradient1957">
      <stop
         offset="0.0000000"
         style="stop-color:#437caf;stop-opacity:1.0000000;"
         id="stop1959" />
      <stop
         offset="1.0000000"
         style="stop-color:#9bb9e3;stop-opacity:1.0000000;"
         id="stop1958" />
    </linearGradient>
    <linearGradient
       id="linearGradient1954">
      <stop
         offset="0.0000000"
         style="stop-color:#ff0047;stop-opacity:1.0000000;"
         id="stop1956" />
      <stop
         offset="1.0000000"
         style="stop-color:#ab322d;stop-opacity:0.0000000;"
         id="stop1955" />
    </linearGradient>
    <linearGradient
       id="linearGradient1951">
      <stop
         offset="0.0000000"
         style="stop-color:#7fa8e3;stop-opacity:0.74117601;"
         id="stop1953" />
      <stop
         offset="1.0000000"
         style="stop-color:#ffffff;stop-opacity:0.0000000;"
         id="stop1952" />
    </linearGradient>
    <linearGradient
       id="linearGradient612">
      <stop
         style="stop-color:#7fa8e3;stop-opacity:0.741176;"
         offset="0.000000"
         id="stop613" />
      <stop
         style="stop-color:#ffffff;stop-opacity:0;"
         offset="1.000000"
         id="stop614" />
    </linearGradient>
    <linearGradient
       xlink:href="#linearGradient612"
       id="linearGradient615"
       x1="50.6438866"
       y1="5.36792946"
       x2="35.7520943"
       y2="68.0443573"
       gradientUnits="userSpaceOnUse"
       spreadMethod="pad" />
    <defs
       id="defs201">
      <linearGradient
         id="linearGradient208">
        <stop
           style="stop-color:#cccccc;stop-opacity:1;"
           offset="0.000000"
           id="stop209" />
        <stop
           style="stop-color:#ffffff;stop-opacity:1;"
           offset="1.000000"
           id="stop210" />
      </linearGradient>
      <linearGradient
         xlink:href="#linearGradient208"
         id="linearGradient211"
         x1="0.0869562"
         y1="0.0390625"
         x2="1.06087"
         y2="0.835936"
         gradientUnits="objectBoundingBox"
         gradientTransform="scale(0.999998,1)"
         spreadMethod="pad" />
      <linearGradient
         xlink:href="#linearGradient208"
         id="linearGradient224"
         x1="0.310077"
         y1="0.148437"
         x2="0.348837"
         y2="0.179687"
         gradientUnits="objectBoundingBox"
         spreadMethod="pad" />
    </defs>
    <sodipodi:namedview
       id="namedview731" />
    <defs
       id="defs690">
      <linearGradient
         id="linearGradient691"
         x1="0.0000000"
         y1="0.50000000"
         x2="1.0000000"
         y2="0.50000000"
         gradientUnits="objectBoundingBox"
         spreadMethod="pad"
         xlink:href="#linearGradient1951" />
      <linearGradient
         id="linearGradient694">
        <stop
           style="stop-color:#ff0047;stop-opacity:1;"
           offset="0.000000"
           id="stop695" />
        <stop
           style="stop-color:#ab322d;stop-opacity:0;"
           offset="1.000000"
           id="stop696" />
      </linearGradient>
      <linearGradient
         id="linearGradient697"
         x1="0.0000000"
         y1="0.50000000"
         x2="1.0000000"
         y2="0.50000000"
         gradientUnits="objectBoundingBox"
         spreadMethod="pad"
         xlink:href="#linearGradient1966" />
      <linearGradient
         id="linearGradient700">
        <stop
           style="stop-color:#000;stop-opacity:1;"
           offset="0"
           id="stop701" />
        <stop
           style="stop-color:#fff;stop-opacity:1;"
           offset="1"
           id="stop702" />
      </linearGradient>
      <linearGradient
         xlink:href="#linearGradient618"
         id="linearGradient703"
         x1="26.4784317"
         y1="24.4189796"
         x2="33.3173637"
         y2="23.6758289"
         gradientUnits="userSpaceOnUse"
         spreadMethod="pad"
         gradientTransform="scale(0.627016,1.594855)" />
      <linearGradient
         xlink:href="#linearGradient626"
         id="linearGradient704"
         x1="38.4233131"
         y1="77.3980026"
         x2="31.8332996"
         y2="57.6823311"
         gradientUnits="userSpaceOnUse"
         spreadMethod="pad"
         gradientTransform="scale(0.934001,1.070663)" />
      <linearGradient
         xlink:href="#linearGradient612"
         id="linearGradient705"
         x1="50.6438866"
         y1="5.36792946"
         x2="35.7520943"
         y2="68.0443573"
         gradientUnits="userSpaceOnUse"
         spreadMethod="pad" />
    </defs>
    <sodipodi:namedview
       id="namedview689" />
    <sodipodi:namedview
       id="namedview1356" />
    <defs
       id="defs604" />
    <linearGradient
       inkscape:collect="always"
       xlink:href="#linearGradient895"
       id="linearGradient1504"
       gradientUnits="userSpaceOnUse"
       gradientTransform="scale(0.902492,1.108043)"
       x1="50.5546532"
       y1="68.4698563"
       x2="51.8096619"
       y2="18.5831013" />
    <linearGradient
       inkscape:collect="always"
       xlink:href="#linearGradient612"
       id="linearGradient1505"
       gradientUnits="userSpaceOnUse"
       spreadMethod="pad"
       x1="50.6438866"
       y1="5.36792946"
       x2="35.7520943"
       y2="68.0443573"
       gradientTransform="matrix(0.846968,0.000000,0.000000,0.846968,249.6852,16.40022)" />
    <linearGradient
       inkscape:collect="always"
       xlink:href="#linearGradient612"
       id="linearGradient1559"
       gradientUnits="userSpaceOnUse"
       spreadMethod="pad"
       x1="50.6438866"
       y1="5.36792946"
       x2="35.7520943"
       y2="68.0443573" />
    <linearGradient
       inkscape:collect="always"
       xlink:href="#linearGradient612"
       id="linearGradient1560"
       gradientUnits="userSpaceOnUse"
       spreadMethod="pad"
       x1="50.6438866"
       y1="5.36792946"
       x2="35.7520943"
       y2="68.0443573" />
    <defs
       id="defs1507">
      <linearGradient
         id="linearGradient1508"
         x1="0.0000000"
         y1="0.50000000"
         x2="1.0000000"
         y2="0.50000000"
         gradientUnits="objectBoundingBox"
         spreadMethod="pad"
         xlink:href="#linearGradient1960" />
      <linearGradient
         xlink:href="#linearGradient612"
         id="linearGradient1511"
         x1="50.643887"
         y1="5.3679295"
         x2="35.752094"
         y2="68.044357"
         gradientUnits="userSpaceOnUse"
         spreadMethod="pad" />
      <defs
         id="defs1512">
        <linearGradient
           id="linearGradient1513"
           x1="0.0000000"
           y1="0.50000000"
           x2="1.0000000"
           y2="0.50000000"
           gradientUnits="objectBoundingBox"
           spreadMethod="pad"
           xlink:href="#linearGradient1963" />
        <linearGradient
           xlink:href="#linearGradient208"
           id="linearGradient1516"
           x1="0.086956203"
           y1="0.039062500"
           x2="1.0608701"
           y2="0.83593601"
           gradientUnits="objectBoundingBox"
           gradientTransform="scale(0.999998,1.000000)"
           spreadMethod="pad" />
        <linearGradient
           xlink:href="#linearGradient208"
           id="linearGradient1517"
           x1="0.31007701"
           y1="0.14843699"
           x2="0.34883699"
           y2="0.17968699"
           gradientUnits="objectBoundingBox"
           spreadMethod="pad" />
      </defs>
      <sodipodi:namedview
         id="namedview1518" />
    </defs>
    <sodipodi:namedview
       id="namedview1519" />
    <defs
       id="defs864">
      <linearGradient
         id="linearGradient895"
         x1="0.0000000"
         y1="0.50000000"
         x2="1.0000000"
         y2="0.50000000"
         gradientUnits="objectBoundingBox"
         spreadMethod="pad"
         xlink:href="#linearGradient1957" />
      <linearGradient
         xlink:href="#linearGradient895"
         id="linearGradient898"
         x1="50.554653"
         y1="68.469856"
         x2="51.809662"
         y2="18.583101"
         gradientUnits="userSpaceOnUse"
         gradientTransform="scale(0.902492,1.108043)" />
    </defs>
    <sodipodi:namedview
       id="namedview1439" />
    <linearGradient
       inkscape:collect="always"
       xlink:href="#linearGradient895"
       id="linearGradient1781"
       gradientUnits="userSpaceOnUse"
       gradientTransform="scale(0.902492,1.108043)"
       x1="50.5546532"
       y1="68.4698563"
       x2="51.8096619"
       y2="18.5831013" />
    <sodipodi:namedview
       id="namedview1456" />
    <defs
       id="defs1450">
      <linearGradient
         id="linearGradient1451">
        <stop
           style="stop-color:#cccccc;stop-opacity:1;"
           offset="0.000000"
           id="stop1452" />
        <stop
           style="stop-color:#ffffff;stop-opacity:1;"
           offset="1.000000"
           id="stop1453" />
      </linearGradient>
      <linearGradient
         xlink:href="#linearGradient208"
         id="linearGradient1454"
         x1="0.0869562"
         y1="0.0390625"
         x2="1.06087"
         y2="0.835936"
         gradientUnits="objectBoundingBox"
         gradientTransform="scale(0.999998,1)"
         spreadMethod="pad" />
      <linearGradient
         xlink:href="#linearGradient208"
         id="linearGradient1455"
         x1="0.310077"
         y1="0.148437"
         x2="0.348837"
         y2="0.179687"
         gradientUnits="objectBoundingBox"
         spreadMethod="pad" />
    </defs>
    <linearGradient
       xlink:href="#linearGradient612"
       id="linearGradient1449"
       x1="50.6438866"
       y1="5.36792946"
       x2="35.7520943"
       y2="68.0443573"
       gradientUnits="userSpaceOnUse"
       spreadMethod="pad" />
    <linearGradient
       id="linearGradient1446">
      <stop
         style="stop-color:#7fa8e3;stop-opacity:0.741176;"
         offset="0.000000"
         id="stop1447" />
      <stop
         style="stop-color:#ffffff;stop-opacity:0;"
         offset="1.000000"
         id="stop1448" />
    </linearGradient>
    <linearGradient
       inkscape:collect="always"
       xlink:href="#linearGradient612"
       id="linearGradient1497"
       gradientUnits="userSpaceOnUse"
       spreadMethod="pad"
       x1="50.6438866"
       y1="5.36792946"
       x2="35.7520943"
       y2="68.0443573" />
    <sodipodi:namedview
       id="namedview1563" />
    <defs
       id="defs1545">
      <linearGradient
         id="linearGradient1546"
         x1="0.0000000"
         y1="0.50000000"
         x2="1.0000000"
         y2="0.50000000"
         gradientUnits="objectBoundingBox"
         spreadMethod="pad"
         xlink:href="#linearGradient1969" />
      <linearGradient
         id="linearGradient1549"
         x1="0.0000000"
         y1="0.50000000"
         x2="1.0000000"
         y2="0.50000000"
         gradientUnits="objectBoundingBox"
         spreadMethod="pad"
         xlink:href="#linearGradient1954" />
      <linearGradient
         id="linearGradient1552">
        <stop
           style="stop-color:#956d47;stop-opacity:1;"
           offset="0.000000"
           id="stop1553" />
        <stop
           style="stop-color:#ab322d;stop-opacity:0;"
           offset="1.000000"
           id="stop1554" />
      </linearGradient>
      <linearGradient
         id="linearGradient1555">
        <stop
           style="stop-color:#000;stop-opacity:1;"
           offset="0"
           id="stop1556" />
        <stop
           style="stop-color:#fff;stop-opacity:1;"
           offset="1"
           id="stop1557" />
      </linearGradient>
      <linearGradient
         xlink:href="#linearGradient618"
         id="linearGradient1558"
         x1="26.4784317"
         y1="24.4189796"
         x2="33.3173637"
         y2="23.6758289"
         gradientUnits="userSpaceOnUse"
         spreadMethod="pad"
         gradientTransform="scale(0.627016,1.594855)" />
      <linearGradient
         xlink:href="#linearGradient626"
         id="linearGradient1561"
         x1="38.4233131"
         y1="77.3980026"
         x2="31.8332996"
         y2="57.6823311"
         gradientUnits="userSpaceOnUse"
         spreadMethod="pad"
         gradientTransform="scale(0.934001,1.070663)" />
      <linearGradient
         xlink:href="#linearGradient612"
         id="linearGradient1562"
         x1="50.6438866"
         y1="5.36792946"
         x2="35.7520943"
         y2="68.0443573"
         gradientUnits="userSpaceOnUse"
         spreadMethod="pad" />
    </defs>
    <sodipodi:namedview
       id="namedview1544" />
    <defs
       id="defs1538">
      <linearGradient
         id="linearGradient1539">
        <stop
           style="stop-color:#cccccc;stop-opacity:1;"
           offset="0.000000"
           id="stop1540" />
        <stop
           style="stop-color:#ffffff;stop-opacity:1;"
           offset="1.000000"
           id="stop1541" />
      </linearGradient>
      <linearGradient
         xlink:href="#linearGradient208"
         id="linearGradient1542"
         x1="0.0869562"
         y1="0.0390625"
         x2="1.06087"
         y2="0.835936"
         gradientUnits="objectBoundingBox"
         gradientTransform="scale(0.999998,1)"
         spreadMethod="pad" />
      <linearGradient
         xlink:href="#linearGradient208"
         id="linearGradient1543"
         x1="0.310077"
         y1="0.148437"
         x2="0.348837"
         y2="0.179687"
         gradientUnits="objectBoundingBox"
         spreadMethod="pad" />
    </defs>
    <linearGradient
       xlink:href="#linearGradient612"
       id="linearGradient1537"
       x1="50.6438866"
       y1="5.36792946"
       x2="35.7520943"
       y2="68.0443573"
       gradientUnits="userSpaceOnUse"
       spreadMethod="pad" />
    <linearGradient
       id="linearGradient1534">
      <stop
         style="stop-color:#7fa8e3;stop-opacity:0.741176;"
         offset="0.000000"
         id="stop1535" />
      <stop
         style="stop-color:#ffffff;stop-opacity:0;"
         offset="1.000000"
         id="stop1536" />
    </linearGradient>
    <linearGradient
       inkscape:collect="always"
       xlink:href="#linearGradient612"
       id="linearGradient1717"
       gradientUnits="userSpaceOnUse"
       gradientTransform="matrix(-0.178953,0.827847,0.827847,0.178953,76.32787,-15.56682)"
       spreadMethod="pad"
       x1="50.6438866"
       y1="5.36792946"
       x2="35.7520943"
       y2="68.0443573" />
    <linearGradient
       inkscape:collect="always"
       xlink:href="#linearGradient895"
       id="linearGradient1767"
       gradientUnits="userSpaceOnUse"
       gradientTransform="scale(0.902492,1.108043)"
       x1="50.5546532"
       y1="68.4698563"
       x2="51.8096619"
       y2="18.5831013" />
    <defs
       id="defs1233">
      <linearGradient
         id="linearGradient1234">
        <stop
           style="stop-color:#7fa8e3;stop-opacity:0.741176;"
           offset="0.000000"
           id="stop1235" />
        <stop
           style="stop-color:#ffffff;stop-opacity:0;"
           offset="1.000000"
           id="stop1236" />
      </linearGradient>
      <linearGradient
         xlink:href="#linearGradient612"
         id="linearGradient1237"
         x1="50.6438866"
         y1="5.36792946"
         x2="35.7520943"
         y2="68.0443573"
         gradientUnits="userSpaceOnUse"
         spreadMethod="pad" />
      <defs
         id="defs1238">
        <linearGradient
           id="linearGradient1239">
          <stop
             style="stop-color:#cccccc;stop-opacity:1;"
             offset="0.000000"
             id="stop1240" />
          <stop
             style="stop-color:#ffffff;stop-opacity:1;"
             offset="1.000000"
             id="stop1241" />
        </linearGradient>
        <linearGradient
           xlink:href="#linearGradient208"
           id="linearGradient1242"
           x1="0.0869562"
           y1="0.0390625"
           x2="1.06087"
           y2="0.835936"
           gradientUnits="objectBoundingBox"
           gradientTransform="scale(0.999998,1)"
           spreadMethod="pad" />
        <linearGradient
           xlink:href="#linearGradient208"
           id="linearGradient1243"
           x1="0.310077"
           y1="0.148437"
           x2="0.348837"
           y2="0.179687"
           gradientUnits="objectBoundingBox"
           spreadMethod="pad" />
      </defs>
      <sodipodi:namedview
         id="namedview1244" />
    </defs>
    <sodipodi:namedview
       id="namedview1245" />
    <linearGradient
       inkscape:collect="always"
       xlink:href="#linearGradient1969"
       id="linearGradient1950"
       gradientTransform="scale(1.049033,0.953258)"
       x1="56.551765"
       y1="37.147091"
       x2="6.6105824"
       y2="50.311543"
       gradientUnits="userSpaceOnUse" />
    <linearGradient
       inkscape:collect="always"
       xlink:href="#linearGradient1957"
       id="linearGradient2009"
       gradientUnits="userSpaceOnUse"
       gradientTransform="scale(0.902492,1.108043)"
       x1="50.5546532"
       y1="68.4698563"
       x2="51.8096619"
       y2="18.5831013" />
    <linearGradient
       inkscape:collect="always"
       xlink:href="#linearGradient612"
       id="linearGradient2328"
       gradientUnits="userSpaceOnUse"
       spreadMethod="pad"
       x1="50.6438866"
       y1="5.36792946"
       x2="35.7520943"
       y2="68.0443573" />
    <linearGradient
       inkscape:collect="always"
       xlink:href="#linearGradient612"
       id="linearGradient2343"
       gradientUnits="userSpaceOnUse"
       spreadMethod="pad"
       x1="50.6438866"
       y1="5.36792946"
       x2="35.7520943"
       y2="68.0443573"
       gradientTransform="matrix(0.8469676,0,0,0.8469676,6.0094497,8.1124875)" />
  </defs>
  <sodipodi:namedview
     id="base"
     inkscape:zoom="8.2689464"
     inkscape:cx="70.201963"
     inkscape:cy="61.405373"
     inkscape:window-width="1024"
     inkscape:window-height="716"
     inkscape:window-x="6"
     inkscape:window-y="31"
     inkscape:current-layer="svg604" />
  <path
     style="fill:#000000;fill-rule:evenodd;stroke:none;stroke-opacity:1.0000000;stroke-width:1.0000000pt;stroke-linejoin:miter;stroke-linecap:butt;fill-opacity:0.30147097;"
     d="M 14.47588 78.82306 C 12.05158 77.72107 8.745783 74.19488 10.50889 69.34628 C 11.39039 64.05704 27.25843 17.33450 30.78472 15.13062 C 32.98850 13.14714 36.18426 12.37575 40.70223 13.58790 C 44.44885 14.46947 78.16832 23.28510 80.15179 25.04814 C 82.13535 26.81129 83.67808 28.24380 82.13535 32.10062 C 81.03346 34.08408 67.92018 78.60264 67.69986 81.46778 C 66.81829 84.55323 64.28388 88.29984 60.09644 88.07942 C 55.90909 87.85900 17.56133 79.48421 14.47588 78.82306 z "
     id="path794"
     sodipodi:nodetypes="ccccccccc" />
  <path
     sodipodi:nodetypes="ccccccccc"
     id="path609"
     d="M 11.919944,74.733555 C 9.4956448,73.631565 6.1898432,70.105375 7.952958,65.256777 C 8.8344605,59.967543 24.702493,13.245007 28.228783,11.041126 C 30.432564,9.0576427 33.628326,8.2862595 38.146297,9.498409 C 41.892905,10.379971 75.612373,19.195595 77.595836,20.95864 C 79.579399,22.721785 81.122126,24.154302 79.579399,28.011119 C 78.477508,29.994582 65.364232,74.513137 65.143914,77.378272 C 64.262341,80.463725 61.727933,84.210333 57.540489,83.989915 C 53.353145,83.769497 15.005397,75.394709 11.919944,74.733555 z "
     style="fill:#3d4e67;fill-opacity:1;fill-rule:evenodd;stroke:none;stroke-width:1pt;stroke-linecap:butt;stroke-linejoin:miter;stroke-opacity:1" />
  <path
     sodipodi:nodetypes="cccccccs"
     id="path608"
     d="M 16.98896,70.986948 C 14.454551,70.325793 10.817953,69.664539 12.140362,65.697613 C 14.564661,56.000517 26.906474,18.754759 32.195709,14.126579 C 33.407908,13.024589 37.485043,12.583852 45.198676,15.008151 C 54.0143,17.652769 71.865766,23.603257 73.62891,24.48483 C 75.391955,25.366402 76.053209,25.366402 74.730801,29.333428 C 72.747338,33.300453 63.931814,67.24034 61.727833,72.97041 C 60.185206,77.047645 59.854579,78.920899 57.209862,78.920899"
     style="fill:#ffffff;fill-opacity:1;fill-rule:evenodd;stroke:none;stroke-width:1pt;stroke-linecap:butt;stroke-linejoin:miter;stroke-opacity:1" />
  <path
     style="font-size:12.000000;fill:#3d4e67;fill-rule:evenodd;stroke-width:1.0000000pt;"
     d="M 12.8163 74.753 C 10.3856 73.6481 7.07107 70.1126 8.83884 65.2512 C 9.72267 59.948 25.6326 13.1021 29.1682 10.8924 C 31.3778 8.90368 34.582 8.13026 39.1119 9.34561 C 42.8684 10.2295 76.6769 19.0684 78.6656 20.8361 C 80.6544 22.6039 82.2012 24.0402 80.6544 27.9072 C 79.5496 29.8959 66.4017 74.532 66.1808 77.4047 C 65.2969 80.4983 62.7558 84.2548 58.5573 84.0338 C 54.3589 83.8128 15.9099 75.4159 12.8163 74.753 z "
     id="path1263"
     sodipodi:nodetypes="ccccccccc"
     transform="matrix(0.997367,0.000000,0.000000,0.997367,-7.466104,-7.695992)" />
  <path
     style="font-size:12.000000;fill:#ffffff;fill-rule:evenodd;stroke-width:1.0000000pt;"
     d="M 17.8987 70.9965 C 15.3576 70.3336 11.7114 69.6706 13.0373 65.6932 C 15.468 55.9705 27.8424 18.6264 33.1456 13.986 C 34.361 12.8811 38.4489 12.4392 46.1829 14.8699 C 55.0218 17.5215 72.9204 23.4877 74.6882 24.3716 C 76.4559 25.2555 77.1189 25.2555 75.793 29.233 C 73.8043 33.2105 64.9655 67.24 62.7557 72.9852 C 61.209 77.0732 60.8775 78.9514 58.2258 78.9514 "
     id="path1264"
     sodipodi:nodetypes="cccccccs"
     transform="matrix(0.997367,0.000000,0.000000,0.997367,-7.466104,-7.695992)" />
  <path
     style="font-size:12.000000;fill:url(#linearGradient615);fill-rule:evenodd;stroke-width:1.0000000pt;"
     d="M 28.75 13.75 C 28.75 13.75 31.875 7.49995 39.6875 9.37495 C 47.5 11.25 78.125 19.375 77.8125 21.875 C 77.5 24.375 71.875 39.0625 71.5625 40.3125 C 71.25 41.5625 42.5 40.9375 31.5625 47.5 C 20.625 54.0625 12.5 59.6875 12.5 59.6875 C 12.5 59.6875 23.75 24.6875 28.75 13.75 z "
     id="path1265"
     transform="matrix(0.846968,0.000000,0.000000,0.846968,-0.594048,0.239086)" />
  <path
     style="font-size:12.000000;fill:none;fill-rule:evenodd;stroke:#414141;stroke-width:3.1250000;stroke-linecap:round;stroke-linejoin:round;"
     d="M 6.52997 44.858 C 1.51419 41.593 2.73854 34.2968 8.51734 34.1048 C 14.1459 33.634 18.9274 41.1672 15.6151 45.4258 "
     id="path640"
     sodipodi:nodetypes="csc"
     transform="matrix(0.894577,0.000000,0.000000,0.894577,-0.164145,-0.127258)" />
  <path
     style="font-size:12.000000;fill:none;fill-rule:evenodd;stroke:#414141;stroke-width:3.1250000;stroke-linecap:round;stroke-linejoin:round;"
     d="M 6.52997 44.858 C 1.51419 41.593 2.73854 34.2968 8.51734 34.1048 C 14.1459 33.634 18.9274 41.1672 15.6151 45.4258 "
     id="path641"
     sodipodi:nodetypes="csc"
     transform="matrix(0.894577,0.000000,0.000000,0.894577,3.137607,-8.508628)" />
  <path
     style="font-size:12.000000;fill:none;fill-rule:evenodd;stroke:#414141;stroke-width:3.1250000;stroke-linecap:round;stroke-linejoin:round;"
     d="M 6.52997 44.858 C 1.51419 41.593 2.73854 34.2968 8.51734 34.1048 C 14.1459 33.634 18.9274 41.1672 15.6151 45.4258 "
     id="path642"
     sodipodi:nodetypes="csc"
     transform="matrix(0.894577,0.000000,0.000000,0.894577,6.185377,-16.89000)" />
  <path
     style="font-size:12.000000;fill:none;fill-rule:evenodd;stroke:#b9b9b9;stroke-width:0.75000000;stroke-linecap:round;stroke-linejoin:round;"
     d="M 5.67823 43.8643 C 2.08201 42.1608 2.73854 34.2968 8.51734 34.1048 C 14.1459 33.634 18.7854 40.4574 16.6088 45.4258 "
     id="path643"
     sodipodi:nodetypes="csc"
     transform="matrix(0.894577,0.000000,0.000000,0.894577,6.185377,-17.39795)" />
  <path
     style="font-size:12.000000;fill:none;fill-rule:evenodd;stroke:#b9b9b9;stroke-width:0.75000000;stroke-linecap:round;stroke-linejoin:round;"
     d="M 5.67823 43.8643 C 2.08201 42.1608 2.73854 34.2968 8.51734 34.1048 C 14.1459 33.634 18.7854 40.4574 16.6088 45.4258 "
     id="path644"
     sodipodi:nodetypes="csc"
     transform="matrix(0.894577,0.000000,0.000000,0.894577,3.137607,-9.016584)" />
  <path
     style="font-size:12.000000;fill:none;fill-rule:evenodd;stroke:#b9b9b9;stroke-width:0.75000000;stroke-linecap:round;stroke-linejoin:round;"
     d="M 5.67823 43.8643 C 2.08201 42.1608 2.73854 34.2968 8.51734 34.1048 C 14.1459 33.634 18.7854 40.4574 16.6088 45.4258 "
     id="path645"
     sodipodi:nodetypes="csc"
     transform="matrix(0.894577,0.000000,0.000000,0.894577,-0.164145,-0.635215)" />
  <path
     style="fill:url(#linearGradient1950);fill-opacity:1.0;fill-rule:evenodd;stroke:#3d4e67;stroke-width:3.3125000;stroke-linecap:butt;stroke-linejoin:miter;stroke-opacity:1.0000000;stroke-miterlimit:4.0000000;stroke-dasharray:none;"
     d="M 20.523247,41.257288 C 20.523247,41.257288 18.599193,40.402153 19.881896,36.981612 C 21.164598,33.561071 28.433248,16.458365 28.433248,16.458365 C 28.433248,16.458365 29.502168,13.465391 32.067573,13.892959 C 34.632979,14.320527 58.790551,21.161609 60.287038,22.016744 C 61.783525,22.871880 53.018388,46.174316 51.949469,48.098371 C 50.880550,50.022425 49.811631,50.877560 48.742712,50.663777 C 47.673793,50.449993 20.523247,41.257288 20.523247,41.257288 z "
     id="path1325" />
  <path
     style="font-size:12.000000;fill:#000000;fill-rule:evenodd;stroke:none;stroke-width:3.0874591;fill-opacity:0.29999998;"
     d="M 84.38710 67.01163 C 84.38710 77.69897 75.65323 86.36275 64.87945 86.36275 C 54.10567 86.36275 45.37180 77.69897 45.37180 67.01163 C 45.37180 56.32429 54.10567 47.66048 64.87945 47.66048 C 75.65323 47.66048 84.38710 56.32429 84.38710 67.01163 z "
     id="path1273" />
  <path
     style="font-size:12.000000;fill:#ffffff;fill-rule:evenodd;stroke-width:3.4278700;stroke:#000000;stroke-opacity:1.0000000;"
     d="M 50.28572 81 C 50.28572 92.91357 40.62786 102.5714 28.71429 102.5714 C 16.80071 102.5714 7.142857 92.91357 7.142857 81 C 7.142857 69.08643 16.80071 59.42857 28.71429 59.42857 C 40.62786 59.42857 50.28572 69.08643 50.28572 81 z "
     id="path1274"
     transform="matrix(0.904328,0.000000,0.000000,0.897073,34.65364,-9.909964)" />
  <path
     style="font-size:12.000000;fill-opacity:0.31297699;fill-rule:evenodd;stroke-width:1.0000000;"
     d="M 3.99999 44.1699 C 24.5714 49.3128 36.5715 60.417 38.5715 60.6835 C 48.762 52.874 58.9524 45.408 70.8572 42.1699 C 60 40.7413 50.0001 45.9963 40.2858 52.8534 C 27.7143 46.6629 16 42.6461 3.99999 44.1699 z "
     id="path1275"
     sodipodi:nodetypes="ccccc"
     transform="matrix(0.547743,0.000000,0.000000,0.587417,47.06005,33.93768)" />
  <path
     style="font-size:12.000000;fill-opacity:0.31297699;fill-rule:evenodd;stroke-width:1.0000000;"
     d="M 2.85168 46.2147 C 23.4231 51.3576 32.2421 58.2857 36.9864 60.4717 C 47.1769 52.6622 57.7986 47.4528 69.7034 44.2147 C 58.8462 42.7861 47.132 44.5503 37.4177 51.4074 C 24.8462 45.2169 16.1456 45.4196 2.85168 46.2147 z "
     id="path1276"
     sodipodi:nodetypes="ccccc"
     transform="matrix(0.362851,0.000000,0.000000,0.429546,59.32764,30.04829)" />
  <path
     style="font-size:12.000000;fill-rule:evenodd;stroke-width:1.0000000;"
     d="M 3.71428 42.5714 C 24.2857 47.7143 39.1429 58.2857 39.1429 58.2857 C 49.3334 50.4762 59.5238 43.8095 71.4286 40.5714 C 60.5714 39.1428 49.1429 42 39.4286 48.8571 C 26.8571 42.6666 15.7143 41.0476 3.71428 42.5714 z "
     id="path1277"
     sodipodi:nodetypes="ccccc"
     transform="matrix(0.547743,0.000000,0.000000,0.547743,45.33857,34.84163)" />
  <path
     style="font-size:12.000000;fill:#4b6983;fill-rule:evenodd;stroke-width:1.0000000;"
     d="M 3.71428 42.5714 C 24.2857 47.7143 39.1429 58.2857 39.1429 58.2857 C 49.3334 50.4762 59.5238 43.8095 71.4286 40.5714 C 60.5714 39.1428 48.8572 42 39.1429 48.8571 C 26.5714 42.6666 15.7143 41.0476 3.71428 42.5714 z "
     id="path1278"
     sodipodi:nodetypes="ccccc"
     transform="matrix(0.362851,0.000000,0.000000,0.400534,57.60617,31.21493)" />
  <g
     id="g1748"
     transform="matrix(0.908533,0.000000,0.000000,0.908533,17.96880,-1.610507)">
    <path
       style="font-size:12.000000;fill:#000000;fill-opacity:0.32289997;fill-rule:evenodd;stroke-width:1.0000000"
       d="M 83.506910,79.598790 C 83.506910,83.209570 66.077240,86.136690 44.576640,86.136690 C 23.076050,86.136690 5.6463780,83.209570 5.6463780,79.598790 C 5.6463780,75.988000 23.076050,73.060880 44.576640,73.060880 C 66.077240,73.060880 83.506910,75.988000 83.506910,79.598790 z "
       id="path894"
       transform="matrix(0.346123,0.110111,-0.110111,0.346123,13.96170,17.54058)" />
    <path
       style="fill:#000000;fill-opacity:1.0000000;fill-rule:evenodd;stroke:none;stroke-width:1.0000000pt;stroke-linecap:butt;stroke-linejoin:miter;stroke-opacity:1.0000000"
       d="M 13.226840,77.060700 C 10.638980,73.610220 7.4760380,65.559100 9.7763600,52.907350 C 12.076680,40.255580 16.677320,29.329080 16.677320,29.329080 C 16.677320,29.329080 8.0511190,31.629390 5.4632590,20.702880 C 5.1757190,16.389780 3.7380200,9.4888210 9.7763610,4.8881820 C 15.527150,1.7252350 22.715650,1.7252450 25.591050,6.0383420 C 26.741210,8.3386610 27.891370,9.4888110 27.891370,9.4888110 C 27.891370,9.4888110 34.504790,1.7252350 42.268370,2.5878520 C 48.019170,1.1501600 53.769970,4.6006390 55.207670,9.2012790 C 56.357830,7.1885110 58.658140,0.86260800 65.271560,1.1501500 C 71.884980,1.4376930 75.910540,5.1757140 77.060700,7.4760340 C 78.210860,9.7763540 80.511170,18.115020 76.485630,23.865810 C 73.322690,27.028750 70.159750,28.466450 66.996810,28.178910 C 69.297130,31.341850 74.185310,46.006390 75.335460,52.619810 C 78.785930,68.434510 75.047920,76.773160 70.447280,80.223640 C 65.846630,83.674120 21.565490,89.137380 13.226840,77.060700 z "
       id="path923"
       sodipodi:nodetypes="cccccccccccccccc"
       transform="matrix(0.346123,0.110111,-0.110111,0.346123,13.96170,17.54058)" />
    <path
       style="font-size:12.000000;fill:url(#linearGradient2009);fill-opacity:1.0000000;fill-rule:evenodd"
       d="M 72.808520,63.551190 C 72.808520,80.456240 59.095520,79.895960 40.713340,79.895960 C 22.331150,79.895960 12.778640,78.673170 12.778640,61.768120 C 12.778640,44.863080 23.519860,6.1959080 41.902050,6.1959080 C 60.284230,6.1959080 72.808520,46.646140 72.808520,63.551190 z "
       id="path873"
       transform="matrix(0.346123,0.110111,-0.110111,0.346123,13.96170,17.54058)" />
    <path
       style="font-size:12.000000;fill:#9bb9e3;fill-opacity:1.0000000;fill-rule:evenodd;stroke-width:1.0000000"
       d="M 26.448810,16.002770 C 26.448810,21.747210 22.257700,26.403990 17.087710,26.403990 C 11.917720,26.403990 7.7266170,21.747210 7.7266170,16.002770 C 7.7266170,10.258340 11.917720,5.6015580 17.087710,5.6015580 C 22.257700,5.6015580 26.448810,10.258340 26.448810,16.002770 z "
       id="path874"
       transform="matrix(0.346123,0.110111,-0.110111,0.346123,13.96170,17.54058)" />
    <path
       transform="matrix(0.346123,0.110111,-0.110111,0.346123,31.23283,22.35538)"
       style="font-size:12.000000;fill:#9bb9e3;fill-opacity:1.0000000;fill-rule:evenodd;stroke-width:1.0000000"
       d="M 26.448810,16.002770 C 26.448810,21.747210 22.257700,26.403990 17.087710,26.403990 C 11.917720,26.403990 7.7266170,21.747210 7.7266170,16.002770 C 7.7266170,10.258340 11.917720,5.6015580 17.087710,5.6015580 C 22.257700,5.6015580 26.448810,10.258340 26.448810,16.002770 z "
       id="path875" />
    <path
       transform="matrix(0.388334,0.123540,-0.110111,0.346123,12.03474,17.15411)"
       style="font-size:12.000000;fill:#ffffff;fill-rule:evenodd;stroke-width:1.0000000"
       d="M 39.227450,27.889880 C 39.227450,31.828920 36.499900,35.022140 33.135310,35.022140 C 29.770710,35.022140 27.043170,31.828920 27.043170,27.889880 C 27.043170,23.950840 29.770710,20.757610 33.135310,20.757610 C 36.499900,20.757610 39.227450,23.950840 39.227450,27.889880 z "
       id="path876" />
    <path
       transform="matrix(0.388334,0.123540,-0.110111,0.346123,18.95910,19.24366)"
       style="font-size:12.000000;fill:#ffffff;fill-rule:evenodd;stroke-width:1.0000000"
       d="M 39.227450,27.889880 C 39.227450,31.828920 36.499900,35.022140 33.135310,35.022140 C 29.770710,35.022140 27.043170,31.828920 27.043170,27.889880 C 27.043170,23.950840 29.770710,20.757610 33.135310,20.757610 C 36.499900,20.757610 39.227450,23.950840 39.227450,27.889880 z "
       id="path877" />
    <path
       style="font-size:12.000000;fill:#f55959;fill-rule:evenodd;stroke-width:1.0000000"
       d="M 44.576650,37.250970 C 44.576650,38.646050 43.445710,39.776990 42.050640,39.776990 C 40.655560,39.776990 39.524630,38.646050 39.524630,37.250970 C 39.524630,35.855890 40.655560,34.724960 42.050640,34.724960 C 43.445710,34.724960 44.576650,35.855890 44.576650,37.250970 z "
       id="path878"
       transform="matrix(0.346123,0.110111,-0.110111,0.346123,13.96170,17.54058)" />
    <path
       style="font-size:12.000000;fill-rule:evenodd;stroke-width:1.0000000"
       d="M 36.850020,28.187050 C 36.850020,29.992450 35.386460,31.456010 33.581070,31.456010 C 31.775680,31.456010 30.312120,29.992450 30.312120,28.187050 C 30.312120,26.381660 31.775680,24.918100 33.581070,24.918100 C 35.386460,24.918100 36.850020,26.381660 36.850020,28.187050 z "
       id="path880"
       transform="matrix(0.346123,0.110111,-0.110111,0.346123,13.96170,17.54058)" />
    <path
       style="font-size:12.000000;fill-rule:evenodd;stroke-width:1.0000000"
       d="M 53.491960,27.592700 C 53.491960,29.398100 52.028400,30.861660 50.223010,30.861660 C 48.417620,30.861660 46.954060,29.398100 46.954060,27.592700 C 46.954060,25.787310 48.417620,24.323750 50.223010,24.323750 C 52.028400,24.323750 53.491960,25.787310 53.491960,27.592700 z "
       id="path881"
       transform="matrix(0.346123,0.110111,-0.110111,0.346123,13.96170,17.54058)" />
    <path
       style="fill:none;fill-opacity:1.0000000;fill-rule:evenodd;stroke:#3d4e67;stroke-width:1.0000000pt;stroke-linecap:butt;stroke-linejoin:miter;stroke-opacity:1.0000000"
       d="M 51.114550,38.291090 C 51.114550,38.291090 69.836740,29.672940 72.808520,30.564480"
       id="path882"
       transform="matrix(0.346123,0.110111,-0.110111,0.346123,13.96170,17.54058)" />
    <path
       style="font-size:12.000000;fill:none;fill-rule:evenodd;stroke:#3d4e67;stroke-width:1.0000000"
       d="M 52.231640,39.683880 C 52.231640,39.683880 72.660350,36.952470 75.238550,38.678510"
       id="path883"
       transform="matrix(0.346123,0.110111,-0.110111,0.346123,13.96170,17.54058)" />
    <path
       style="fill:none;fill-opacity:1.0000000;fill-rule:evenodd;stroke:#3d4e67;stroke-width:1.0000000pt;stroke-linecap:butt;stroke-linejoin:miter;stroke-opacity:1.0000000"
       d="M 30.661930,37.696740 C 30.661930,37.696740 11.939740,29.078590 8.9679550,29.970130"
       id="path884"
       transform="matrix(0.346123,0.110111,-0.110111,0.346123,13.96170,17.54058)" />
    <path
       style="font-size:12.000000;fill:none;fill-rule:evenodd;stroke:#3d4e67;stroke-width:1.0000000"
       d="M 29.544840,39.089530 C 29.544840,39.089530 9.1161250,36.358120 6.5379250,38.084160"
       id="path885"
       transform="matrix(0.346123,0.110111,-0.110111,0.346123,13.96170,17.54058)" />
    <path
       transform="matrix(0.346123,0.110111,-0.120354,0.378321,13.72953,17.20225)"
       style="font-size:12.000000;fill:#ff933d;fill-rule:evenodd;stroke-width:1.0000000"
       d="M 24.962920,17.042890 C 24.962920,20.571620 22.102320,23.432210 18.573600,23.432210 C 15.044880,23.432210 12.184280,20.571620 12.184280,17.042890 C 12.184280,13.514170 15.044880,10.653570 18.573600,10.653570 C 22.102320,10.653570 24.962920,13.514170 24.962920,17.042890 z "
       id="path889" />
    <path
       transform="matrix(0.346123,0.110111,-0.120354,0.378321,30.75752,21.71316)"
       style="font-size:12.000000;fill:#ff933d;fill-rule:evenodd;stroke-width:1.0000000"
       d="M 24.962920,17.042890 C 24.962920,20.571620 22.102320,23.432210 18.573600,23.432210 C 15.044880,23.432210 12.184280,20.571620 12.184280,17.042890 C 12.184280,13.514170 15.044880,10.653570 18.573600,10.653570 C 22.102320,10.653570 24.962920,13.514170 24.962920,17.042890 z "
       id="path888" />
    <path
       transform="matrix(0.346123,0.110111,-8.904679e-2,0.279909,11.90952,22.92323)"
       style="font-size:12.000000;fill:#ffffff;fill-rule:evenodd;stroke-width:1.0000000"
       d="M 62.704480,68.742210 C 62.704480,78.179480 51.891450,78.112890 43.685110,78.112890 C 35.478780,78.112890 25.260100,77.812000 25.260100,68.374740 C 25.260100,58.937450 34.884430,40.262700 43.090760,40.262700 C 51.297100,40.262700 62.704480,59.304930 62.704480,68.742210 z "
       id="path891"
       sodipodi:nodetypes="ccccc" />
    <path
       style="fill:none;fill-opacity:1.0000000;fill-rule:evenodd;stroke:#652929;stroke-width:1.0000000pt;stroke-linecap:butt;stroke-linejoin:miter;stroke-opacity:1.0000000"
       d="M 34.472600,40.371340 C 35.958490,47.206420 45.765360,50.475380 49.034310,40.074160"
       id="path892"
       sodipodi:nodetypes="cc"
       transform="matrix(0.346123,0.110111,-0.110111,0.346123,13.96170,17.54058)" />
  </g>
  <path
     style="fill:#000000;fill-opacity:1.0000000;fill-rule:evenodd;stroke:#000000;stroke-width:0.25000000pt;stroke-linecap:butt;stroke-linejoin:miter;stroke-opacity:1.0000000"
     d="M 23.091197,45.776889 L 15.665360,48.878315 L 20.412307,54.570601 L 23.091197,45.776889 z "
     id="path2010"
     sodipodi:nodetypes="cccc" />
  <path
     style="fill:#000000;fill-opacity:1.0000000;fill-rule:evenodd;stroke:#000000;stroke-width:0.25000000pt;stroke-linecap:butt;stroke-linejoin:miter;stroke-opacity:1.0000000"
     d="M 34.998666,49.633767 L 39.660689,56.193298 L 32.621442,58.513781 L 34.998666,49.633767 z "
     id="path2011"
     sodipodi:nodetypes="cccc" />
</svg>
