<?xml version="1.0" encoding="UTF-8" standalone="no"?>
<!-- Created with Inkscape (http://www.inkscape.org/) -->
<svg
   xmlns:dc="http://purl.org/dc/elements/1.1/"
   xmlns:cc="http://web.resource.org/cc/"
   xmlns:rdf="http://www.w3.org/1999/02/22-rdf-syntax-ns#"
   xmlns:svg="http://www.w3.org/2000/svg"
   xmlns="http://www.w3.org/2000/svg"
   xmlns:xlink="http://www.w3.org/1999/xlink"
   xmlns:sodipodi="http://sodipodi.sourceforge.net/DTD/sodipodi-0.dtd"
   xmlns:inkscape="http://www.inkscape.org/namespaces/inkscape"
   width="72.000000pt"
   height="72.000000pt"
   id="svg1"
   sodipodi:version="0.32"
   inkscape:version="0.45.1"
   sodipodi:docbase="/home/nathan/GNUtoon/scalable/status"
   sodipodi:docname="audio-volume-medium.svg"
   inkscape:output_extension="org.inkscape.output.svg.inkscape">
  <defs
     id="defs3">
    <linearGradient
       id="linearGradient1867">
      <stop
         style="stop-color:#558ada;stop-opacity:1.0000000;"
         offset="0.0000000"
         id="stop1868" />
      <stop
         style="stop-color:#ffffff;stop-opacity:1.0000000;"
         offset="1.0000000"
         id="stop1869" />
    </linearGradient>
    <linearGradient
       inkscape:collect="always"
       id="linearGradient1862">
      <stop
         style="stop-color:#7a889e;stop-opacity:1;"
         offset="0"
         id="stop1863" />
      <stop
         style="stop-color:#7a889e;stop-opacity:0;"
         offset="1"
         id="stop1864" />
    </linearGradient>
    <linearGradient
       id="linearGradient1776">
      <stop
         style="stop-color:#ff933d;stop-opacity:1.0000000;"
         offset="0.0000000"
         id="stop1777" />
      <stop
         style="stop-color:#ffc93f;stop-opacity:1.0000000;"
         offset="1.0000000"
         id="stop1778" />
    </linearGradient>
    <linearGradient
       id="linearGradient1773">
      <stop
         style="stop-color:#ffffff;stop-opacity:1.0000000;"
         offset="0.0000000"
         id="stop1774" />
      <stop
         style="stop-color:#c2c2c2;stop-opacity:0;"
         offset="1"
         id="stop1775" />
    </linearGradient>
    <linearGradient
       id="linearGradient1765">
      <stop
         style="stop-color:#b80000;stop-opacity:1.0000000;"
         offset="0.0000000"
         id="stop1766" />
      <stop
         style="stop-color:#ed0000;stop-opacity:1.0000000;"
         offset="1.0000000"
         id="stop1767" />
    </linearGradient>
    <linearGradient
       id="linearGradient1755">
      <stop
         style="stop-color:#c2c2c2;stop-opacity:1.0000000;"
         offset="0.0000000"
         id="stop1756" />
      <stop
         style="stop-color:#7e7e7e;stop-opacity:1.0000000;"
         offset="1.0000000"
         id="stop1757" />
    </linearGradient>
    <linearGradient
       id="linearGradient1750">
      <stop
         style="stop-color:#c2c2c2;stop-opacity:1.0000000;"
         offset="0.0000000"
         id="stop1751" />
      <stop
         style="stop-color:#c2c2c2;stop-opacity:0;"
         offset="1"
         id="stop1752" />
    </linearGradient>
    <linearGradient
       inkscape:collect="always"
       id="linearGradient1746">
      <stop
         style="stop-color:#9b9a9a;stop-opacity:1;"
         offset="0"
         id="stop1747" />
      <stop
         style="stop-color:#9b9a9a;stop-opacity:0;"
         offset="1"
         id="stop1748" />
    </linearGradient>
    <linearGradient
       id="linearGradient1742">
      <stop
         style="stop-color:#697689;stop-opacity:1.0000000;"
         offset="0.0000000"
         id="stop1743" />
      <stop
         style="stop-color:#323841;stop-opacity:1.0000000;"
         offset="1.0000000"
         id="stop1744" />
    </linearGradient>
    <radialGradient
       inkscape:collect="always"
       xlink:href="#linearGradient1742"
       id="radialGradient1745"
       gradientTransform="scale(0.784465,1.274755)"
       cx="63.274918"
       cy="45.159443"
       fx="63.274918"
       fy="45.159443"
       r="36.745846"
       gradientUnits="userSpaceOnUse" />
    <linearGradient
       inkscape:collect="always"
       xlink:href="#linearGradient1746"
       id="linearGradient1749"
       gradientTransform="matrix(0.586208,0,0,1.2440272,-0.8982797,-1.4094036)"
       x1="69.968788"
       y1="46.796841"
       x2="69.304581"
       y2="26.938019"
       gradientUnits="userSpaceOnUse" />
    <linearGradient
       inkscape:collect="always"
       xlink:href="#linearGradient1755"
       id="linearGradient1754"
       gradientTransform="scale(0.7698,1.299038)"
       x1="85.628265"
       y1="28.431770"
       x2="84.307259"
       y2="34.954239"
       gradientUnits="userSpaceOnUse" />
    <radialGradient
       inkscape:collect="always"
       xlink:href="#linearGradient1755"
       id="radialGradient1760"
       gradientTransform="scale(0.7698,1.299038)"
       cx="74.074181"
       cy="33.478851"
       fx="73.597748"
       fy="33.670494"
       r="14.731020"
       gradientUnits="userSpaceOnUse" />
    <linearGradient
       inkscape:collect="always"
       xlink:href="#linearGradient1765"
       id="linearGradient1764"
       gradientTransform="matrix(0.6952727,0,0,1.0488816,-0.8982797,-1.4094036)"
       x1="47.365814"
       y1="68.037910"
       x2="46.654697"
       y2="36.945923"
       gradientUnits="userSpaceOnUse" />
    <linearGradient
       inkscape:collect="always"
       xlink:href="#linearGradient1773"
       id="linearGradient1772"
       gradientTransform="matrix(0.8662564,0,0,0.8418515,-0.8982797,-1.4094036)"
       x1="28.591198"
       y1="45.317245"
       x2="30.966982"
       y2="57.908516"
       gradientUnits="userSpaceOnUse" />
    <linearGradient
       inkscape:collect="always"
       xlink:href="#linearGradient1776"
       id="linearGradient1779"
       gradientTransform="matrix(0.7360632,0,0,0.9907557,-0.8982797,-1.4094036)"
       x1="20.357403"
       y1="64.732994"
       x2="19.238430"
       y2="55.011913"
       gradientUnits="userSpaceOnUse" />
    <defs
       id="defs1063">
      <sodipodi:namedview
         id="namedview909" />
      <defs
         id="defs550">
        <linearGradient
           x1="0.0000000"
           y1="0.0000000"
           x2="1.0000000"
           y2="0.0000000"
           id="linearGradient632"
           gradientUnits="objectBoundingBox"
           spreadMethod="pad">
          <stop
             style="stop-color:#ffb700;stop-opacity:1;"
             offset="0.000000"
             id="stop633" />
          <stop
             style="stop-color:#ffd58f;stop-opacity:0;"
             offset="1.000000"
             id="stop634" />
        </linearGradient>
        <linearGradient
           x1="0.0000000"
           y1="0.0000000"
           x2="1.0000000"
           y2="0.0000000"
           id="linearGradient556"
           gradientUnits="objectBoundingBox"
           spreadMethod="pad">
          <stop
             style="stop-color:#000000;stop-opacity:1;"
             offset="0.000000"
             id="stop557" />
          <stop
             style="stop-color:#bdf2ff;stop-opacity:0.384314;"
             offset="1.000000"
             id="stop558" />
        </linearGradient>
        <linearGradient
           id="linearGradient559"
           xlink:href="#linearGradient632"
           x1="60.644615"
           y1="19.295689"
           x2="35.370575"
           y2="69.142799"
           gradientUnits="userSpaceOnUse"
           spreadMethod="pad" />
        <linearGradient
           xlink:href="#linearGradient632"
           id="linearGradient631"
           x1="85.637657"
           y1="17.443844"
           x2="73.916298"
           y2="54.628181"
           gradientUnits="userSpaceOnUse"
           spreadMethod="pad"
           gradientTransform="scale(0.740666,1.350136)" />
      </defs>
    </defs>
    <sodipodi:namedview
       id="namedview1074"
       pagecolor="#ffffff"
       bordercolor="#666666"
       borderopacity="1.0"
       inkscape:pageopacity="0.0"
       inkscape:pageshadow="2"
       inkscape:zoom="2.4559706"
       inkscape:cx="113.94414"
       inkscape:cy="73.007956"
       inkscape:window-width="812"
       inkscape:window-height="560"
       inkscape:window-x="103"
       inkscape:window-y="56" />
    <metadata
       id="metadata1075">
      <rdf:RDF>
        <cc:Work
           rdf:about="">
          <dc:format>image/svg+xml</dc:format>
          <dc:type
             rdf:resource="http://purl.org/dc/dcmitype/StillImage" />
        </cc:Work>
      </rdf:RDF>
    </metadata>
    <radialGradient
       inkscape:collect="always"
       xlink:href="#linearGradient1862"
       id="radialGradient1866"
       gradientTransform="scale(0.791148,1.263986)"
       cx="103.42607"
       cy="32.260498"
       fx="103.42607"
       fy="32.260498"
       r="42.612907"
       gradientUnits="userSpaceOnUse" />
    <linearGradient
       inkscape:collect="always"
       xlink:href="#linearGradient1867"
       id="linearGradient1870"
       gradientTransform="matrix(0.6202765,0,0,1.1757001,-0.8982797,-1.4094036)"
       x1="33.838795"
       y1="55.787796"
       x2="33.206974"
       y2="61.570423"
       gradientUnits="userSpaceOnUse" />
    <linearGradient
       inkscape:collect="always"
       xlink:href="#linearGradient1867"
       id="linearGradient1874"
       gradientTransform="matrix(0.4095216,0,0,1.7807561,-0.8982797,-1.4094036)"
       x1="65.236572"
       y1="36.108150"
       x2="65.236572"
       y2="40.606052"
       gradientUnits="userSpaceOnUse" />
  </defs>
  <sodipodi:namedview
     id="base"
     pagecolor="#ffffff"
     bordercolor="#666666"
     borderopacity="1.0"
     inkscape:pageopacity="0.0"
     inkscape:pageshadow="2"
     inkscape:zoom="4"
     inkscape:cx="43.881916"
     inkscape:cy="45"
     inkscape:current-layer="svg1"
     inkscape:window-width="1024"
     inkscape:window-height="695"
     inkscape:window-x="0"
     inkscape:window-y="47" />
  <metadata
     id="metadata4">
    <rdf:RDF>
      <cc:Work
         rdf:about="">
        <dc:format>image/svg+xml</dc:format>
        <dc:type
           rdf:resource="http://purl.org/dc/dcmitype/StillImage" />
      </cc:Work>
    </rdf:RDF>
  </metadata>
  <path
     style="fill:#000000;fill-opacity:0.39215686;fill-rule:nonzero;stroke:none;stroke-width:7.5;stroke-linecap:round;stroke-linejoin:round;stroke-miterlimit:4;stroke-opacity:1"
     d="M 43.522436,10.960165 C 35.920359,12.038848 30.394428,22.878515 29.247516,36.984447 C 29.111106,37.164435 23.319512,42.226164 20.184762,43.134902 C 17.050013,44.043639 11.422769,44.493442 9.5419174,45.40218 C 2.3319952,50.627423 5.6154937,67.456361 8.1232921,69.273835 C 11.101304,72.454425 13.296077,72.688619 16.901037,71.779879 L 19.560961,81.547017 C 20.658124,83.818863 23.949947,84.500578 26.144272,84.727764 C 29.279021,83.364663 31.796608,82.657665 31.796608,80.840185 C 31.796609,79.022709 32.418832,76.75054 32.262095,74.478697 C 34.956698,75.780604 37.777875,76.80518 40.219698,77.659441 C 43.21969,80.704456 46.566084,82.351689 49.972749,81.868305 C 59.61578,80.500023 65.983872,63.492242 64.20334,43.92426 C 62.422809,24.356275 53.165465,9.5918811 43.522436,10.960165 z "
     id="path1875"
     sodipodi:nodetypes="cccccccccccccc" />
  <g
     inkscape:label="Layer 1"
     inkscape:groupmode="layer"
     id="layer1" />
  <path
     style="fill:#000000;fill-opacity:1;fill-rule:nonzero;stroke:none;stroke-width:7.5;stroke-linecap:round;stroke-linejoin:round;stroke-miterlimit:4;stroke-opacity:1"
     d="M 41.084173,6.4621388 C 33.482097,7.5408236 27.956167,18.380489 26.809254,32.486425 C 26.672841,32.666408 20.881249,37.728138 17.746498,38.636879 C 14.611749,39.545614 8.9845056,39.995416 7.1036564,40.904156 C -0.10626716,46.129396 3.1772293,62.958337 5.6850307,64.775813 C 8.6630418,67.956396 10.857814,68.190594 14.462776,67.281857 L 17.122698,77.048997 C 18.219862,79.32084 21.511685,80.002558 23.70601,80.229739 C 26.840758,78.866638 29.358346,78.159634 29.358346,76.342162 C 29.358348,74.524687 29.980569,72.252516 29.823832,69.980668 C 32.518435,71.282577 35.339614,72.307156 37.781436,73.161417 C 40.781428,76.20643 44.127821,77.853663 47.534488,77.370282 C 57.177516,76.002001 63.545608,58.994219 61.765075,39.426235 C 59.984544,19.85825 50.727203,5.0938603 41.084173,6.4621388 z "
     id="path1859"
     sodipodi:nodetypes="cccccccccccccc" />
  <path
     style="fill:url(#linearGradient1870);fill-opacity:1;fill-rule:evenodd;stroke:none;stroke-width:0.25pt;stroke-linecap:butt;stroke-linejoin:miter;stroke-opacity:1"
     d="M 22.977631,64.80553 L 23.226339,76.341246 L 18.749604,75.620265 L 16.759946,64.084549 L 22.977631,64.80553 z "
     id="path1119" />
  <path
     style="fill:url(#linearGradient1779);fill-opacity:1;fill-rule:evenodd;stroke:none;stroke-width:0.25pt;stroke-linecap:butt;stroke-linejoin:miter;stroke-opacity:1"
     d="M 19.26062,42.608098 C 19.26062,42.608098 12.283212,42.094584 11.039676,42.815567 C 8.1336859,42.974297 6.8116499,44.751335 5.9359911,47.635261 C 4.6684908,51.200743 5.7520526,60.726536 7.309064,61.921601 C 8.3174956,63.457444 8.9036423,63.363563 11.785798,63.724057 C 15.765116,64.084549 21.734092,64.44504 21.734092,64.44504 L 19.26062,42.608098 z "
     id="path1118"
     sodipodi:nodetypes="ccccccc" />
  <path
     style="fill:url(#linearGradient1874);fill-opacity:1;fill-rule:evenodd;stroke:none;stroke-width:0.25pt;stroke-linecap:butt;stroke-linejoin:miter;stroke-opacity:1"
     d="M 24.469875,63.724057 L 24.221167,75.259775 L 27.205655,74.538791 L 27.205655,62.282092 L 24.469875,63.724057 z "
     id="path1120" />
  <path
     style="fill:url(#linearGradient1764);fill-opacity:1;fill-rule:evenodd;stroke:none;stroke-width:0.25pt;stroke-linecap:butt;stroke-linejoin:miter;stroke-opacity:1"
     d="M 33.423341,26.232975 C 33.423341,26.232975 31.447283,31.817772 25.962118,37.393182 C 20.241848,41.719075 17.25736,42.455075 17.25736,42.455075 C 17.25736,42.455075 13.244363,53.906306 18.177058,64.272301 C 27.968616,66.573251 33.481631,64.894713 43.181219,72.104534 C 46.532942,67.614357 46.107418,63.724057 46.107418,63.724057 L 33.423341,26.232975 z "
     id="path1117"
     sodipodi:nodetypes="ccccccc" />
  <path
     style="fill:url(#linearGradient1772);fill-opacity:1;fill-rule:evenodd;stroke:none;stroke-width:0.25pt;stroke-linecap:butt;stroke-linejoin:miter;stroke-opacity:1"
     d="M 29.801667,36.020586 C 29.801667,36.020586 21.988141,43.249552 17.832012,43.410198 L 17.056202,49.193376 C 17.056202,49.193376 27.52965,40.277644 30.023326,45.498567 C 31.464118,43.892128 29.801667,36.020586 29.801667,36.020586 z "
     id="path1768"
     sodipodi:nodetypes="ccccc" />
  <path
     sodipodi:type="arc"
     style="fill:#383e49;fill-opacity:1;fill-rule:nonzero;stroke:none;stroke-width:7.5;stroke-linecap:round;stroke-linejoin:round;stroke-miterlimit:4;stroke-opacity:1"
     id="path1116"
     sodipodi:cx="65.918716"
     sodipodi:cy="42.138805"
     sodipodi:rx="15.427784"
     sodipodi:ry="25.07015"
     d="M 81.3465 42.138805 A 15.427784 25.07015 0 1 1  50.490932,42.138805 A 15.427784 25.07015 0 1 1  81.3465 42.138805 z"
     transform="matrix(0.9425326,-0.1421809,0.1070978,1.2512907,-22.028333,-1.4411917)" />
  <path
     sodipodi:type="arc"
     style="fill:url(#radialGradient1745);fill-opacity:1;fill-rule:nonzero;stroke:none;stroke-width:7.5;stroke-linecap:round;stroke-linejoin:round;stroke-miterlimit:4;stroke-opacity:1"
     id="path1115"
     sodipodi:cx="65.918716"
     sodipodi:cy="42.138805"
     sodipodi:rx="15.427784"
     sodipodi:ry="25.07015"
     d="M 81.3465 42.138805 A 15.427784 25.07015 0 1 1  50.490932,42.138805 A 15.427784 25.07015 0 1 1  81.3465 42.138805 z"
     transform="matrix(0.7047774,-0.1160757,8.0082126e-2,1.021546,-3.9738797,6.519129)" />
  <path
     style="fill:url(#linearGradient1749);fill-opacity:1;fill-rule:evenodd;stroke:none;stroke-width:0.25pt;stroke-linecap:butt;stroke-linejoin:miter;stroke-opacity:1"
     d="M 43.869051,34.974887 C 41.133268,35.695869 38.024427,41.553849 34.666877,38.129185 C 34.666877,40.382252 34.853407,52.819198 38.832727,59.488282 C 39.765378,55.342636 41.692862,55.162393 44.801705,53.81055 C 48.283608,52.729079 44.304289,36.777341 43.869051,34.974887 z "
     id="path1114"
     sodipodi:nodetypes="ccccc" />
  <path
     sodipodi:type="arc"
     style="fill:url(#linearGradient1754);fill-opacity:1;fill-rule:nonzero;stroke:none;stroke-width:7.5;stroke-linecap:round;stroke-linejoin:round;stroke-miterlimit:4;stroke-opacity:1"
     id="path1113"
     sodipodi:cx="64.866821"
     sodipodi:cy="44.06728"
     sodipodi:rx="5.6101036"
     sodipodi:ry="9.4670496"
     d="M 70.476925 44.06728 A 5.6101036 9.4670496 0 1 1  59.256718,44.06728 A 5.6101036 9.4670496 0 1 1  70.476925 44.06728 z"
     transform="matrix(0.6362729,-0.1325926,0.1009401,1.0176567,-0.7328959,8.0130096)" />
  <path
     sodipodi:type="arc"
     style="fill:url(#radialGradient1760);fill-opacity:1;fill-rule:nonzero;stroke:none;stroke-width:7.5;stroke-linecap:round;stroke-linejoin:round;stroke-miterlimit:4;stroke-opacity:1"
     id="path1758"
     sodipodi:cx="64.866821"
     sodipodi:cy="44.06728"
     sodipodi:rx="5.6101036"
     sodipodi:ry="9.4670496"
     d="M 70.476925 44.06728 A 5.6101036 9.4670496 0 1 1  59.256718,44.06728 A 5.6101036 9.4670496 0 1 1  70.476925 44.06728 z"
     transform="matrix(0.4436042,-9.244242e-2,7.0374649e-2,0.7095015,13.111847,18.988149)" />
  <rect
     style="fill:#b01911;fill-opacity:1;fill-rule:nonzero;stroke:none;stroke-width:7.5;stroke-linecap:round;stroke-linejoin:round;stroke-miterlimit:4;stroke-opacity:1"
     id="rect1855"
     width="6.4281468"
     height="2.0883687"
     x="7.413981"
     y="46.060829"
     ry="1.3654716"
     rx="0.94205606" />
  <rect
     style="fill:#b01911;fill-opacity:1;fill-rule:nonzero;stroke:none;stroke-width:7.5;stroke-linecap:round;stroke-linejoin:round;stroke-miterlimit:4;stroke-opacity:1"
     id="rect1856"
     width="6.4281468"
     height="2.0883687"
     x="6.9706588"
     y="49.916267"
     ry="1.3654716"
     rx="0.94205606" />
  <rect
     style="fill:#b01911;fill-opacity:1;fill-rule:nonzero;stroke:none;stroke-width:7.5;stroke-linecap:round;stroke-linejoin:round;stroke-miterlimit:4;stroke-opacity:1"
     id="rect1854"
     width="6.4281468"
     height="2.0883687"
     x="6.9706588"
     y="53.611076"
     ry="1.3654716"
     rx="0.94205606" />
  <path
     sodipodi:type="arc"
     style="fill:none;fill-opacity:1;fill-rule:nonzero;stroke:url(#radialGradient1866);stroke-width:1.41146481;stroke-linecap:round;stroke-linejoin:round;stroke-miterlimit:4;stroke-opacity:1"
     id="path1861"
     sodipodi:cx="65.918716"
     sodipodi:cy="42.138805"
     sodipodi:rx="15.427784"
     sodipodi:ry="25.07015"
     d="M 81.3465 42.138805 A 15.427784 25.07015 0 1 1  50.490932,42.138805 A 15.427784 25.07015 0 1 1  81.3465 42.138805 z"
     transform="matrix(0.8328352,-0.1322081,9.4632991e-2,1.1635192,-13.607023,1.278685)" />
  <rect
     style="fill:#b01911;fill-opacity:1;fill-rule:nonzero;stroke:none;stroke-width:7.5;stroke-linecap:round;stroke-linejoin:round;stroke-miterlimit:4;stroke-opacity:1"
     id="rect2493"
     width="35.382576"
     height="5.4714041"
     x="-63.412956"
     y="61.991348"
     ry="3.5774562"
     rx="5.1853762"
     transform="matrix(-8.7155694e-2,-0.9961947,0.9961947,-8.7155694e-2,0,0)" />
  <rect
     style="fill:#b01911;fill-opacity:1;fill-rule:nonzero;stroke:none;stroke-width:7.5;stroke-linecap:round;stroke-linejoin:round;stroke-miterlimit:4;stroke-opacity:1"
     id="rect2499"
     width="50.265015"
     height="5.3088984"
     x="-70.04039"
     y="69.98159"
     ry="3.4712021"
     rx="7.3664217"
     transform="matrix(-8.7155694e-2,-0.9961947,0.9961947,-8.7155694e-2,0,0)" />
</svg>
