<?xml version="1.0" encoding="UTF-8" standalone="no"?>
<!-- Created with Inkscape (http://www.inkscape.org/) -->
<svg
   xmlns:dc="http://purl.org/dc/elements/1.1/"
   xmlns:cc="http://web.resource.org/cc/"
   xmlns:rdf="http://www.w3.org/1999/02/22-rdf-syntax-ns#"
   xmlns:svg="http://www.w3.org/2000/svg"
   xmlns="http://www.w3.org/2000/svg"
   xmlns:xlink="http://www.w3.org/1999/xlink"
   xmlns:sodipodi="http://sodipodi.sourceforge.net/DTD/sodipodi-0.dtd"
   xmlns:inkscape="http://www.inkscape.org/namespaces/inkscape"
   width="72.000000pt"
   height="72.000000pt"
   id="svg1"
   sodipodi:version="0.32"
   inkscape:version="0.45.1"
   sodipodi:docbase="/home/tweenk/GNUtoon/status"
   sodipodi:docname="gpm-primary-20.svg"
   inkscape:output_extension="org.inkscape.output.svg.inkscape">
  <defs
     id="defs3">
    <linearGradient
       id="linearGradient4330">
      <stop
         style="stop-color:#ff933d;stop-opacity:1;"
         offset="0"
         id="stop4332" />
      <stop
         style="stop-color:#ed0000;stop-opacity:1;"
         offset="1"
         id="stop4334" />
    </linearGradient>
    <linearGradient
       id="linearGradient3247">
      <stop
         id="stop3249"
         offset="0"
         style="stop-color:#2aaf18;stop-opacity:1;" />
      <stop
         id="stop3251"
         offset="1"
         style="stop-color:#cbff87;stop-opacity:1;" />
    </linearGradient>
    <linearGradient
       inkscape:collect="always"
       xlink:href="#linearGradient3247"
       id="linearGradient4327"
       gradientUnits="userSpaceOnUse"
       gradientTransform="matrix(1.0218737,0,0,1.0218737,-1.7348726,-3.7180242e-2)"
       x1="63.325691"
       y1="63.7117"
       x2="-0.84367937"
       y2="34.722725" />
    <linearGradient
       inkscape:collect="always"
       xlink:href="#linearGradient4330"
       id="linearGradient4336"
       x1="28.59375"
       y1="71.313095"
       x2="66.5"
       y2="77.313095"
       gradientUnits="userSpaceOnUse" />
  </defs>
  <sodipodi:namedview
     id="base"
     pagecolor="#ffffff"
     bordercolor="#666666"
     borderopacity="1.0"
     inkscape:pageopacity="0.0"
     inkscape:pageshadow="2"
     inkscape:zoom="4"
     inkscape:cx="60.807781"
     inkscape:cy="34.905324"
     inkscape:current-layer="svg1"
     inkscape:window-width="824"
     inkscape:window-height="619"
     inkscape:window-x="100"
     inkscape:window-y="74"
     showguides="true"
     inkscape:guide-bbox="true" />
  <metadata
     id="metadata4">
    <rdf:RDF>
      <cc:Work
         rdf:about="">
        <dc:format>image/svg+xml</dc:format>
        <dc:type
           rdf:resource="http://purl.org/dc/dcmitype/StillImage" />
      </cc:Work>
    </rdf:RDF>
  </metadata>
  <g
     inkscape:label="Layer 1"
     inkscape:groupmode="layer"
     id="layer1" />
  <path
     style="fill:#283d53;fill-rule:evenodd;stroke:none;stroke-width:1.11305237px;stroke-linecap:butt;stroke-linejoin:miter;stroke-opacity:1"
     d="M 22.785331,83.798647 C 14.68511,73.646548 12.00689,30.819676 17.766364,16.365707 C 21.001787,13.757372 26.932302,11.851195 33.915205,10.709637 C 42.21844,-2.0443697 52.009659,-0.31032562 60.527041,9.9857405 C 67.34054,10.713545 73.338881,12.20037 77.108268,14.499973 C 83.012937,29.425842 75.927335,73.137313 69.136968,85.131312 C 62.641835,88.86278 30.560305,88.307562 22.785331,83.798647 z "
     id="path2183"
     sodipodi:nodetypes="ccccccc" />
  <path
     sodipodi:nodetypes="ccccc"
     id="path2185"
     d="M 27.012555,78.041719 C 20.604373,69.993791 19.534858,36.02838 22.686904,26.547868 C 32.16772,31.816382 63.260681,30.690383 72.134255,24.695058 C 74.859646,37.429599 69.857712,70.108486 64.664257,79.059384 C 59.388223,81.908846 33.328213,81.484865 27.012555,78.041719 z "
     style="fill:#b01911;fill-opacity:1;fill-rule:evenodd;stroke:none;stroke-width:0.95335031px;stroke-linecap:butt;stroke-linejoin:miter;stroke-opacity:1" />
  <path
     style="fill:#f1e36c;fill-rule:evenodd;stroke:none;stroke-width:0.99561542px;stroke-linecap:butt;stroke-linejoin:miter;stroke-opacity:1"
     d="M 23.566413,22.506823 C 30.444855,15.08916 62.79937,14.065435 70.325083,21.075476 C 60.525461,28.634183 29.534092,28.354994 23.566413,22.506823 z "
     id="path2187"
     sodipodi:nodetypes="ccc" />
  <path
     style="fill:#7a889e;fill-rule:evenodd;stroke:none;stroke-width:0.99561542px;stroke-linecap:butt;stroke-linejoin:miter;stroke-opacity:1"
     d="M 37.972558,20.26781 C 38.3004,6.971969 55.441934,5.8159692 56.377565,20.26781 C 51.695121,24.167154 40.59407,23.302601 37.972558,20.26781 z "
     id="path2189"
     sodipodi:nodetypes="ccc" />
  <path
     style="fill:url(#linearGradient4336);fill-opacity:1.0;fill-rule:evenodd;stroke:none;stroke-width:0.95335031px;stroke-linecap:butt;stroke-linejoin:miter;stroke-opacity:1"
     d="M 22.84375,66.1875 C 23.826344,71.431165 25.197375,75.767364 27,78.03125 C 33.315658,81.474396 59.38022,81.911959 64.65625,79.0625 C 66.086754,76.597033 67.506038,72.309513 68.75,67.15625 C 60.344608,71.533761 32.88302,71.65433 22.84375,66.1875 z "
     id="path3284"
     sodipodi:nodetypes="ccccc" />
  <path
     style="fill:#ffffff;fill-opacity:1;fill-rule:evenodd;stroke:none;stroke-width:1px;stroke-linecap:butt;stroke-linejoin:miter;stroke-opacity:1"
     d="M 25.25,31 C 23.177765,39.653484 23.307356,56.180068 26.5,63.75 C 28.66686,60.872542 27.693245,49.959503 29.663837,41.457116 C 30.773178,36.670711 32.121945,40.502507 41.972765,33.526409 C 31.98694,33.488864 29.393469,32.786723 25.25,31 z "
     id="path3281"
     sodipodi:nodetypes="ccscc" />
</svg>
