<?xml version="1.0" encoding="UTF-8" standalone="no"?>
<!-- Created with Inkscape (http://www.inkscape.org/) -->
<svg
   xmlns:dc="http://purl.org/dc/elements/1.1/"
   xmlns:cc="http://web.resource.org/cc/"
   xmlns:rdf="http://www.w3.org/1999/02/22-rdf-syntax-ns#"
   xmlns:svg="http://www.w3.org/2000/svg"
   xmlns="http://www.w3.org/2000/svg"
   xmlns:xlink="http://www.w3.org/1999/xlink"
   xmlns:sodipodi="http://sodipodi.sourceforge.net/DTD/sodipodi-0.dtd"
   xmlns:inkscape="http://www.inkscape.org/namespaces/inkscape"
   width="72.000000pt"
   height="72.000000pt"
   id="svg1"
   sodipodi:version="0.32"
   inkscape:version="0.45.1"
   sodipodi:docbase="/home/tweenk/GNUtoon/status"
   sodipodi:docname="gpm-primary-missing.svg"
   inkscape:output_extension="org.inkscape.output.svg.inkscape">
  <defs
     id="defs3">
    <linearGradient
       id="linearGradient3247">
      <stop
         id="stop3249"
         offset="0"
         style="stop-color:#2aaf18;stop-opacity:1;" />
      <stop
         id="stop3251"
         offset="1"
         style="stop-color:#cbff87;stop-opacity:1;" />
    </linearGradient>
    <linearGradient
       inkscape:collect="always"
       xlink:href="#linearGradient3247"
       id="linearGradient3275"
       x1="63.325691"
       y1="63.7117"
       x2="-0.84367937"
       y2="34.722725"
       gradientUnits="userSpaceOnUse"
       gradientTransform="matrix(1.0218737,0,0,1.0218737,-1.7348726,-3.7180242e-2)" />
  </defs>
  <sodipodi:namedview
     id="base"
     pagecolor="#ffffff"
     bordercolor="#666666"
     borderopacity="1.0"
     inkscape:pageopacity="0.0"
     inkscape:pageshadow="2"
     inkscape:zoom="4"
     inkscape:cx="50.807781"
     inkscape:cy="45.507644"
     inkscape:current-layer="svg1"
     inkscape:window-width="824"
     inkscape:window-height="619"
     inkscape:window-x="100"
     inkscape:window-y="74"
     showguides="true"
     inkscape:guide-bbox="true" />
  <metadata
     id="metadata4">
    <rdf:RDF>
      <cc:Work
         rdf:about="">
        <dc:format>image/svg+xml</dc:format>
        <dc:type
           rdf:resource="http://purl.org/dc/dcmitype/StillImage" />
      </cc:Work>
    </rdf:RDF>
  </metadata>
  <g
     inkscape:label="Layer 1"
     inkscape:groupmode="layer"
     id="layer1" />
  <path
     style="fill:#283d53;fill-rule:evenodd;stroke:none;stroke-width:1.11305237px;stroke-linecap:butt;stroke-linejoin:miter;stroke-opacity:1"
     d="M 22.785331,83.798647 C 14.68511,73.646548 12.00689,30.819676 17.766364,16.365707 C 21.001787,13.757372 26.932302,11.851195 33.915205,10.709637 C 42.21844,-2.0443697 52.009659,-0.31032562 60.527041,9.9857405 C 67.34054,10.713545 73.338881,12.20037 77.108268,14.499973 C 83.012937,29.425842 75.927335,73.137313 69.136968,85.131312 C 62.641835,88.86278 30.560305,88.307562 22.785331,83.798647 z "
     id="path2183"
     sodipodi:nodetypes="ccccccc" />
  <path
     sodipodi:nodetypes="ccccc"
     id="path2185"
     d="M 27.012555,78.041719 C 20.604373,69.993791 19.534858,36.02838 22.686904,26.547868 C 32.16772,31.816382 63.260681,30.690383 72.134255,24.695058 C 74.859646,37.429599 69.857712,70.108486 64.664257,79.059384 C 59.388223,81.908846 33.328213,81.484865 27.012555,78.041719 z "
     style="fill:url(#linearGradient3275);fill-opacity:1;fill-rule:evenodd;stroke:none;stroke-width:0.95335031px;stroke-linecap:butt;stroke-linejoin:miter;stroke-opacity:1" />
  <path
     style="fill:#f1e36c;fill-rule:evenodd;stroke:none;stroke-width:0.99561542px;stroke-linecap:butt;stroke-linejoin:miter;stroke-opacity:1"
     d="M 23.566413,22.506823 C 30.444855,15.08916 62.79937,14.065435 70.325083,21.075476 C 60.525461,28.634183 29.534092,28.354994 23.566413,22.506823 z "
     id="path2187"
     sodipodi:nodetypes="ccc" />
  <path
     style="fill:#7a889e;fill-rule:evenodd;stroke:none;stroke-width:0.99561542px;stroke-linecap:butt;stroke-linejoin:miter;stroke-opacity:1"
     d="M 37.972558,20.26781 C 38.3004,6.971969 55.441934,5.8159692 56.377565,20.26781 C 51.695121,24.167154 40.59407,23.302601 37.972558,20.26781 z "
     id="path2189"
     sodipodi:nodetypes="ccc" />
  <path
     style="fill:#ffffff;fill-opacity:1;fill-rule:evenodd;stroke:none;stroke-width:1px;stroke-linecap:butt;stroke-linejoin:miter;stroke-opacity:1"
     d="M 25.25,31 C 23.177765,39.653484 23.307356,56.180068 26.5,63.75 C 28.66686,60.872542 27.693245,49.959503 29.663837,41.457116 C 30.773178,36.670711 32.121945,40.502507 41.972765,33.526409 C 31.98694,33.488864 29.393469,32.786723 25.25,31 z "
     id="path3281"
     sodipodi:nodetypes="ccscc" />
  <g
     id="g2391"
     transform="matrix(1.9513232,0,0,1.9513232,-84.760751,-38.142486)">
    <path
       transform="matrix(0.307137,0,0,0.307137,58.387631,35.137631)"
       d="M 96.565838 51.645908 A 44.91993 44.91993 0 1 1  6.7259789,51.645908 A 44.91993 44.91993 0 1 1  96.565838 51.645908 z"
       sodipodi:ry="44.91993"
       sodipodi:rx="44.91993"
       sodipodi:cy="51.645908"
       sodipodi:cx="51.645908"
       id="path585"
       style="font-size:12px;fill:#000000;fill-opacity:1;fill-rule:evenodd;stroke:none;stroke-width:1pt;stroke-opacity:1"
       sodipodi:type="arc" />
    <path
       transform="matrix(0.268704,0,0,0.268704,60.45746,37.257721)"
       d="M 96.565838 51.645908 A 44.91993 44.91993 0 1 1  6.7259789,51.645908 A 44.91993 44.91993 0 1 1  96.565838 51.645908 z"
       sodipodi:ry="44.91993"
       sodipodi:rx="44.91993"
       sodipodi:cy="51.645908"
       sodipodi:cx="51.645908"
       id="path586"
       style="font-size:12px;fill:#ed0000;fill-opacity:1;fill-rule:evenodd;stroke:none;stroke-width:1pt;stroke-opacity:1"
       sodipodi:type="arc" />
    <path
       sodipodi:nodetypes="ccccc"
       id="path590"
       d="M 65.292651,48.735415 L 65.271903,53.231836 L 83.257589,53.314825 L 83.278336,48.818404 L 65.292651,48.735415 z "
       style="font-size:12px;fill:#ffffff;fill-opacity:1;fill-rule:evenodd;stroke:none;stroke-width:0.91317396pt" />
    <path
       sodipodi:nodetypes="cssssssscssssssc"
       id="path582"
       d="M 86.405125,51.135203 C 86.405125,51.968046 86.320634,52.781274 86.159761,53.566779 C 85.998888,54.352284 85.761633,55.110065 85.456107,55.832013 C 85.150581,56.55396 84.776782,57.240075 84.342821,57.882246 C 83.908861,58.524418 83.414737,59.122646 82.868562,59.668822 C 82.322386,60.214998 81.724157,60.709121 81.081986,61.143082 C 80.439815,61.577042 79.7537,61.950841 79.031753,62.256367 C 78.309805,62.561894 77.552023,62.799148 76.766519,62.960021 C 75.981014,63.120894 75.167785,63.205385 74.334943,63.205385 C 73.5021,63.205385 72.688872,63.120894 71.903367,62.960021 C 71.117862,62.799148 70.360081,62.561894 69.638133,62.256367 C 68.916185,61.950841 66.82325,61.016521 67.587899,61.143082 C 90.594673,64.939577 83.908861,43.745988 84.342821,44.388159 C 84.776782,45.030331 85.150581,45.716445 85.456107,46.438393 C 85.761633,47.160341 85.998888,47.918122 86.159761,48.703627 C 86.320634,49.489132 86.405125,50.30236 86.405125,51.135203 z "
       style="font-size:12px;fill:#b01911;fill-opacity:1;fill-rule:evenodd;stroke-width:1pt" />
    <path
       sodipodi:nodetypes="cssssssscssssc"
       id="path583"
       d="M 62.055898,51.545096 C 62.004574,50.713836 62.03879,49.896947 62.15095,49.103021 C 62.263111,48.309095 62.453216,47.538133 62.713672,46.798729 C 62.974128,46.059326 63.304934,45.35148 63.698496,44.683786 C 64.092058,44.016093 64.548377,43.388551 65.059857,42.809755 C 65.571336,42.23096 66.137977,41.70091 66.752185,41.2282 C 67.366394,40.75549 68.028169,40.34012 68.729916,39.990685 C 69.431664,39.641249 70.173384,39.357747 70.947482,39.148773 C 71.721581,38.9398 72.528057,38.805354 73.359316,38.75403 C 74.190576,38.702706 75.007465,38.736922 75.801391,38.849082 C 76.595317,38.961243 77.366279,39.151348 78.105682,39.411804 C 78.845086,39.67226 81.035377,40.817018 80.289977,40.604684 C 61.670187,35.32042 62.659615,54.731028 62.450642,53.95693 C 62.241668,53.182831 62.107222,52.376355 62.055898,51.545096 z "
       style="font-size:12px;fill:#ffffff;fill-opacity:1;fill-rule:evenodd;stroke-width:1pt" />
  </g>
</svg>
