<?xml version="1.0" encoding="UTF-8" standalone="no"?>
<!-- Created with Sodipodi ("http://www.sodipodi.com/") -->
<svg
   xmlns:dc="http://purl.org/dc/elements/1.1/"
   xmlns:cc="http://web.resource.org/cc/"
   xmlns:rdf="http://www.w3.org/1999/02/22-rdf-syntax-ns#"
   xmlns:svg="http://www.w3.org/2000/svg"
   xmlns="http://www.w3.org/2000/svg"
   xmlns:xlink="http://www.w3.org/1999/xlink"
   xmlns:sodipodi="http://sodipodi.sourceforge.net/DTD/sodipodi-0.dtd"
   xmlns:inkscape="http://www.inkscape.org/namespaces/inkscape"
   version="1"
   x="0.00000000"
   y="0.00000000"
   width="90.0000000"
   height="90.0000000"
   id="svg548"
   sodipodi:version="0.32"
   sodipodi:docname="folder-drag-accept.svg"
   sodipodi:docbase="/home/tweenk/GNUtoon/status"
   inkscape:version="0.45.1"
   inkscape:output_extension="org.inkscape.output.svg.inkscape">
  <metadata
     id="metadata48">
    <rdf:RDF>
      <cc:Work
         rdf:about="">
        <dc:format>image/svg+xml</dc:format>
        <dc:type
           rdf:resource="http://purl.org/dc/dcmitype/StillImage" />
      </cc:Work>
    </rdf:RDF>
  </metadata>
  <sodipodi:namedview
     id="base"
     inkscape:zoom="4.5222222"
     inkscape:cx="62.359714"
     inkscape:cy="41.848077"
     inkscape:window-width="795"
     inkscape:window-height="619"
     inkscape:window-x="114"
     inkscape:window-y="74"
     inkscape:current-layer="svg548" />
  <defs
     id="defs550">
    <linearGradient
       x1="0.00000000"
       y1="0.00000000"
       x2="1.00000000"
       y2="0.00000000"
       id="linearGradient632"
       gradientUnits="objectBoundingBox"
       spreadMethod="pad">
      <stop
         style="stop-color:#ffb700;stop-opacity:1;"
         offset="0.00000000"
         id="stop633" />
      <stop
         style="stop-color:#ffd58f;stop-opacity:0;"
         offset="1.00000000"
         id="stop634" />
    </linearGradient>
    <linearGradient
       x1="60.6446152"
       y1="19.2956886"
       x2="35.3705750"
       y2="69.1427994"
       id="linearGradient559"
       xlink:href="#linearGradient632"
       gradientUnits="userSpaceOnUse"
       spreadMethod="pad"
       gradientTransform="matrix(1.418885,-0.1584073,0.127692,0.8768002,-42.08894,22.663885)" />
    <linearGradient
       x1="85.6376572"
       y1="17.4438438"
       x2="73.9162979"
       y2="54.6281815"
       id="linearGradient631"
       xlink:href="#linearGradient632"
       gradientUnits="userSpaceOnUse"
       gradientTransform="scale(0.740666,1.350136)"
       spreadMethod="pad" />
  </defs>
  <path
     d="M 26.2434,59.4235 C 27.3371,62.5485 30.1496,67.236 35.1496,70.5173 C 39.2121,73.1735 62.9754,88.0916 64.8504,88.2478 C 66.7254,88.4041 70.6317,89.6541 71.4129,84.3416 C 72.1942,79.029 74.9934,64.7445 75.3535,59.0032 C 75.1973,53.847 77.3856,50.4095 72.8268,45.8031 L 26.2434,59.4235 z "
     transform="matrix(1.418885,-0.200635,0.127692,1.110535,-25.42418,4.539042)"
     style="font-size:12;fill:#000009;fill-opacity:0.301471;fill-rule:evenodd;stroke-width:1pt;"
     id="path783"
     sodipodi:nodetypes="ccssccc" />
  <path
     d="M 28.794367,24.566514 C 27.769954,24.039395 25.463261,22.00121 23.997406,20.980803 C 22.35005,19.83405 20.446398,20.913871 20.323271,22.8839 C 20.010771,27.88387 21.7948,51.43 24.2948,56.43 C 25.3885,59.555 28.201,64.2425 33.201,67.5238 C 37.2635,70.18 63.75,84.2187 65.625,84.375 C 67.5,84.5312 71.4063,85.7812 72.1875,80.4687 C 72.9688,75.1562 80.0121,45.1117 79.8558,44.018 C 79.6996,38.8617 76.4114,33.4873 74.6927,32.2372 C 71.5677,30.3622 39.26588,10.662336 37.532799,9.6079796 C 36.490984,8.9741696 35.004703,9.7808337 34.245772,10.64944 C 31.836779,13.406563 30.502631,18.142114 28.794367,24.566514 z "
     transform="matrix(1.418885,-0.200635,0.127692,1.110535,-28.98864,5.917244)"
     style="font-size:12;fill:#593a28;fill-rule:evenodd;stroke-width:1pt;"
     id="path554"
     sodipodi:nodetypes="cssccssccssc" />
  <path
     d="M 37.172476,13.013603 C 36.785565,12.834516 36.077544,12.911348 35.652474,13.502558 C 33.459844,16.552191 31.359963,25.058168 30.631973,28.204448 C 26.682276,25.048612 21.825135,24.013211 22.293835,27.138211 C 22.450135,30.732011 23.8556,53.0977 29.6369,59.0352 C 35.2619,66.8477 65.625,80.7812 66.4063,81.25 C 67.1875,81.7187 68.9063,81.5625 69.2188,77.8125 C 69.5313,74.0625 76.8092,46.3935 76.3405,44.6747 C 76.3404,42.0185 75.5592,38.8935 72.7467,36.706 C 69.9342,34.5185 38.109976,13.013603 37.172476,13.013603 z "
     transform="matrix(1.418885,-0.200635,0.127692,1.110535,-28.98864,5.917244)"
     style="font-size:12;fill:#f1e36c;fill-rule:evenodd;stroke-width:1pt;"
     id="path552"
     sodipodi:nodetypes="cscccsscsc" />
  <path
     d="M 38.103382,16.530109 C 43.691582,19.927409 71.8791,39.6105 73.1291,42.2667 C 74.3791,44.923 66.7188,75.625 66.7188,76.4062 C 66.7188,77.1875 58.972364,53.321036 55.847364,51.289736 C 53.894623,50.020485 45.490947,45.901037 39.174622,41.637421 C 38.066543,40.88945 39.20581,35.471341 38.270506,34.749155 C 36.005256,33.000063 32.140845,30.255506 32.283964,28.968493 C 32.717974,25.065623 36.011169,15.374093 36.853382,15.592609"
     style="font-size:12;fill:url(#linearGradient631);fill-rule:evenodd;stroke-width:1pt;"
     id="path562"
     transform="matrix(1.418885,-0.200635,0.127692,1.110535,-28.98864,5.917244)"
     sodipodi:nodetypes="cssssssc" />
  <path
     d="M 74.074941,79.197532 C 66.796544,67.897359 64.896926,60.235887 61.41606,56.447762 C 58.236889,53.182687 57.310195,53.007779 53.080313,51.809371 C 45.908233,50.52162 31.624089,47.038381 31.182982,45.55608 C 28.059071,45.765568 29.77082,36.500039 22.117742,33.456074 C 17.102821,31.509855 4.1932342,26.407371 4.1932342,26.407371 L 11.982436,26.606316 C 14.902213,28.090259 28.103592,32.787802 29.391728,33.896994 C 31.950089,34.446828 30.726248,40.873335 33.242541,42.680869 C 35.736709,45.883058 56.36799,49.632237 58.039678,50.280971 C 59.711223,50.929721 63.214214,53.32319 64.701739,55.802487 C 71.412505,66.864498 73.055074,74.527313 74.074941,79.197532 z "
     style="font-size:12px;fill:#593a28;fill-rule:evenodd;stroke-width:1pt"
     id="path553"
     sodipodi:nodetypes="cccccccccscc" />
  <path
     d="M 6.0766886,31.45831 C 8.7283296,31.780311 18.602257,35.922965 21.93954,38.560817 C 23.645019,41.520832 22.732045,47.671959 29.51056,50.459367 C 36.289063,53.246687 51.984324,54.085449 54.63051,56.940351 C 57.276709,59.795342 68.393049,76.885007 69.274137,78.558683 C 70.155096,80.232464 20.092315,66.744554 17.87562,62.463416 C 14.843776,58.182209 10.440982,53.188306 6.0766886,31.45831 z "
     style="font-size:12px;fill:url(#linearGradient559);fill-rule:evenodd;stroke-width:1pt"
     id="path635"
     sodipodi:nodetypes="ccssscc" />
</svg>
