<?xml version="1.0" encoding="UTF-8" standalone="no"?>
<!-- Created with Inkscape (http://www.inkscape.org/) -->
<svg
   xmlns:dc="http://purl.org/dc/elements/1.1/"
   xmlns:cc="http://web.resource.org/cc/"
   xmlns:rdf="http://www.w3.org/1999/02/22-rdf-syntax-ns#"
   xmlns:svg="http://www.w3.org/2000/svg"
   xmlns="http://www.w3.org/2000/svg"
   xmlns:xlink="http://www.w3.org/1999/xlink"
   xmlns:sodipodi="http://sodipodi.sourceforge.net/DTD/sodipodi-0.dtd"
   xmlns:inkscape="http://www.inkscape.org/namespaces/inkscape"
   width="72.000000pt"
   height="72.000000pt"
   id="svg1"
   sodipodi:version="0.32"
   inkscape:version="0.45.1"
   sodipodi:docbase="/home/tweenk/GNUtoon/status"
   sodipodi:docname="gpm-ac-adapter.svg"
   inkscape:output_extension="org.inkscape.output.svg.inkscape">
  <defs
     id="defs3">
    <linearGradient
       inkscape:collect="always"
       id="linearGradient8160">
      <stop
         style="stop-color:#ffffff;stop-opacity:1;"
         offset="0"
         id="stop8162" />
      <stop
         style="stop-color:#ffffff;stop-opacity:0;"
         offset="1"
         id="stop8164" />
    </linearGradient>
    <linearGradient
       id="linearGradient6204">
      <stop
         style="stop-color:#002f77;stop-opacity:1;"
         offset="0"
         id="stop6206" />
      <stop
         style="stop-color:#558ada;stop-opacity:1;"
         offset="1"
         id="stop6208" />
    </linearGradient>
    <linearGradient
       id="linearGradient830">
      <stop
         style="stop-color:#999999;stop-opacity:1.0000000;"
         offset="0.0000000"
         id="stop831" />
      <stop
         style="stop-color:#fff;stop-opacity:1;"
         offset="1"
         id="stop832" />
    </linearGradient>
    <linearGradient
       inkscape:collect="always"
       xlink:href="#linearGradient830"
       id="linearGradient2222"
       gradientUnits="userSpaceOnUse"
       gradientTransform="matrix(0.6230929,0.7779759,1.3109561,-1.0499644,-26.803246,41.056355)"
       spreadMethod="reflect"
       x1="18.296844"
       y1="31.203695"
       x2="19.684114"
       y2="26.182564" />
    <linearGradient
       inkscape:collect="always"
       xlink:href="#linearGradient6204"
       id="linearGradient6210"
       x1="22.106703"
       y1="79.9944"
       x2="42.098572"
       y2="33.161335"
       gradientUnits="userSpaceOnUse" />
    <linearGradient
       inkscape:collect="always"
       xlink:href="#linearGradient8160"
       id="linearGradient8166"
       x1="44.686806"
       y1="26.681402"
       x2="45.752602"
       y2="36.681404"
       gradientUnits="userSpaceOnUse" />
  </defs>
  <sodipodi:namedview
     id="base"
     pagecolor="#ffffff"
     bordercolor="#666666"
     borderopacity="1.0"
     inkscape:pageopacity="0.0"
     inkscape:pageshadow="2"
     inkscape:zoom="4"
     inkscape:cx="46.234895"
     inkscape:cy="53.302221"
     inkscape:current-layer="svg1"
     inkscape:window-width="824"
     inkscape:window-height="619"
     inkscape:window-x="100"
     inkscape:window-y="74"
     showguides="true"
     inkscape:guide-bbox="true" />
  <metadata
     id="metadata4">
    <rdf:RDF>
      <cc:Work
         rdf:about="">
        <dc:format>image/svg+xml</dc:format>
        <dc:type
           rdf:resource="http://purl.org/dc/dcmitype/StillImage" />
      </cc:Work>
    </rdf:RDF>
  </metadata>
  <path
     style="fill:none;fill-opacity:0.75;fill-rule:evenodd;stroke:#000000;stroke-width:8.08674145;stroke-linecap:round"
     d="M 22.61381,42.971185 C 19.788512,39.778236 12.838263,38.795005 14.213783,32.091756 C 15.638493,25.148789 25.610978,27.964985 26.48585,20.544896 C 27.331657,13.37132 26.573822,13.56476 31.766595,8.616356 C 36.691319,3.9233865 65.000933,11.769876 67.669864,16.89912"
     id="path850"
     sodipodi:nodetypes="czzzz" />
  <path
     style="fill:none;fill-opacity:0.75;fill-rule:evenodd;stroke:url(#linearGradient2222);stroke-width:3.01568198;stroke-linecap:round;stroke-miterlimit:4;stroke-dasharray:none;stroke-opacity:1"
     d="M 20.11541,40.742236 C 16.032581,38.549262 14.056532,37.369511 14.23926,31.676797 C 14.413971,26.233831 26.386446,26.55 26.261319,20.629911 C 26.135969,14.699273 26.698913,15.268166 30.792038,9.701379 C 34.606296,4.5138611 56.400873,8.2094302 68.242659,16.644769"
     id="path937"
     sodipodi:nodetypes="czzzz" />
  <g
     inkscape:label="Layer 1"
     inkscape:groupmode="layer"
     id="layer1" />
  <g
     id="g923"
     transform="matrix(1.4003852,1.1298005,-1.1495103,1.4248151,41.829623,38.202532)"
     style="fill:#000000;fill-opacity:1">
    <path
       style="fill:#000000;fill-rule:evenodd;stroke:none;stroke-width:1.32821875pt"
       d="M 50.440459,27.334954 C 50.440459,36.972895 44.787923,44.041557 38.069359,44.041557 C 31.350795,44.041557 21.696045,43.971427 21.696045,27.450899 C 21.696045,10.930371 32.509967,11.005138 39.228531,11.005138 C 45.947095,11.005138 50.440459,17.697015 50.440459,27.334954 z "
       id="path912"
       sodipodi:nodetypes="cczcc"
       transform="translate(-29.92996,-22.17539)" />
    <path
       sodipodi:type="arc"
       style="fill-rule:evenodd;stroke:#000000;stroke-width:1pt"
       id="path913"
       sodipodi:cx="32.400002"
       sodipodi:cy="26.781818"
       sodipodi:rx="4.4727273"
       sodipodi:ry="10.527273"
       d="M 36.872729 26.781818 A 4.4727273 10.527273 0 1 1  27.927274,26.781818 A 4.4727273 10.527273 0 1 1  36.872729 26.781818 z"
       transform="matrix(1.328219,0,0,1.328219,-32.14185,-30.4415)" />
    <path
       sodipodi:type="arc"
       style="fill-rule:evenodd;stroke:#000000;stroke-width:1pt"
       id="path914"
       sodipodi:cx="32.400002"
       sodipodi:cy="26.781818"
       sodipodi:rx="4.4727273"
       sodipodi:ry="10.527273"
       d="M 36.872729 26.781818 A 4.4727273 10.527273 0 1 1  27.927274,26.781818 A 4.4727273 10.527273 0 1 1  36.872729 26.781818 z"
       transform="matrix(0.556433,0,0,0.88939,-6.56716,-18.96738)" />
  </g>
  <path
     style="fill:url(#linearGradient6210);fill-rule:evenodd;stroke:none;stroke-width:1.56446753pt;fill-opacity:1.0"
     d="M 62.208902,67.123185 C 52.266411,79.446884 39.568162,83.573054 30.977386,76.642186 C 22.386577,69.711309 10.113754,59.661836 27.156309,38.537627 C 44.198868,17.413421 57.949095,28.66462 66.539901,35.595497 C 75.130676,42.526364 72.151394,54.799488 62.208902,67.123185 z "
     id="path845"
     sodipodi:nodetypes="cczcc" />
  <path
     sodipodi:type="arc"
     style="fill:#a9e2f5;fill-opacity:1;fill-rule:evenodd;stroke:#000000;stroke-width:1pt"
     id="path843"
     sodipodi:cx="32.400002"
     sodipodi:cy="26.781818"
     sodipodi:rx="4.4727273"
     sodipodi:ry="10.527273"
     d="M 36.872729 26.781818 A 4.4727273 10.527273 0 1 1  27.927274,26.781818 A 4.4727273 10.527273 0 1 1  36.872729 26.781818 z"
     transform="matrix(1.6983442,1.3701876,-1.3701876,1.6983442,33.4317,-31.795807)" />
  <path
     sodipodi:type="arc"
     style="fill:#558ada;fill-rule:evenodd;stroke:#000000;stroke-width:1pt"
     id="path895"
     sodipodi:cx="32.400002"
     sodipodi:cy="26.781818"
     sodipodi:rx="4.4727273"
     sodipodi:ry="10.527273"
     d="M 36.872729 26.781818 A 4.4727273 10.527273 0 1 1  27.927274,26.781818 A 4.4727273 10.527273 0 1 1  36.872729 26.781818 z"
     transform="matrix(0.7114907,0.5740154,-0.9174931,1.1372306,54.296432,9.2585004)" />
  <path
     style="fill:#c2c2c2;fill-rule:evenodd;stroke:#000000;stroke-width:2.08484268pt;stroke-opacity:1"
     d="M 60.418405,50.235601 L 79.867012,65.926312 C 81.077495,66.902904 76.471196,72.506617 75.260713,71.530024 L 55.694687,55.744582 C 56.48196,54.82642 55.803039,55.656374 58.792731,53.421176 C 60.757943,50.033805 59.631133,51.153763 60.418405,50.235601 z "
     id="path846"
     sodipodi:nodetypes="cssccc" />
  <path
     style="fill:#c2c2c2;fill-rule:evenodd;stroke:#000000;stroke-width:2.08484268pt"
     d="M 50.440114,62.262346 L 69.888721,77.953056 C 71.099205,78.929648 66.492898,84.533396 65.282411,83.556802 L 45.716396,67.771327 C 46.503669,66.853165 45.824749,67.683118 48.814432,65.447955 C 50.779652,62.060551 49.65283,63.180542 50.440114,62.262346 z "
     id="path902"
     sodipodi:nodetypes="cssccc" />
</svg>
