<?xml version="1.0" encoding="UTF-8" standalone="no"?>
<!-- Created with Inkscape (http://www.inkscape.org/) -->
<svg
   xmlns:dc="http://purl.org/dc/elements/1.1/"
   xmlns:cc="http://creativecommons.org/ns#"
   xmlns:rdf="http://www.w3.org/1999/02/22-rdf-syntax-ns#"
   xmlns:svg="http://www.w3.org/2000/svg"
   xmlns="http://www.w3.org/2000/svg"
   xmlns:xlink="http://www.w3.org/1999/xlink"
   xmlns:sodipodi="http://sodipodi.sourceforge.net/DTD/sodipodi-0.dtd"
   xmlns:inkscape="http://www.inkscape.org/namespaces/inkscape"
   width="90"
   height="90"
   id="svg2"
   sodipodi:version="0.32"
   inkscape:version="0.46+devel"
   version="1.0"
   sodipodi:docname="gpm-brightness-kbd.svg"
   inkscape:output_extension="org.inkscape.output.svg.inkscape">
  <defs
     id="defs4">
    <linearGradient
       id="linearGradient3165">
      <stop
         style="stop-color:#fffbe1;stop-opacity:1"
         offset="0"
         id="stop3167" />
      <stop
         style="stop-color:#a9e2f5;stop-opacity:1"
         offset="1"
         id="stop3169" />
    </linearGradient>
    <radialGradient
       inkscape:collect="always"
       xlink:href="#linearGradient3165"
       id="radialGradient3173"
       cx="42.023693"
       cy="44.997265"
       fx="35.64209"
       fy="32.427597"
       r="28.192772"
       gradientUnits="userSpaceOnUse"
       gradientTransform="matrix(1.0239517,-0.5239538,0.5014648,0.9800017,-19.759209,21.72133)" />
  </defs>
  <sodipodi:namedview
     id="base"
     pagecolor="#ffffff"
     bordercolor="#666666"
     borderopacity="1.0"
     gridtolerance="10000"
     guidetolerance="10"
     objecttolerance="10"
     inkscape:pageopacity="0.0"
     inkscape:pageshadow="2"
     inkscape:zoom="2.7666667"
     inkscape:cx="110.68995"
     inkscape:cy="34.578528"
     inkscape:document-units="px"
     inkscape:current-layer="layer1"
     showgrid="false"
     inkscape:window-width="638"
     inkscape:window-height="724"
     inkscape:window-x="0"
     inkscape:window-y="1" />
  <metadata
     id="metadata7">
    <rdf:RDF>
      <cc:Work
         rdf:about="">
        <dc:format>image/svg+xml</dc:format>
        <dc:type
           rdf:resource="http://purl.org/dc/dcmitype/StillImage" />
      </cc:Work>
    </rdf:RDF>
  </metadata>
  <g
     inkscape:label="Layer 1"
     inkscape:groupmode="layer"
     id="layer1">
    <path
       transform="matrix(0.9917973,0,0,0.9917973,1.6665261,2.7255573)"
       d="M 49.71875,3.625 C 48.566198,3.6704123 47.45915,4.0869255 46.5625,4.8125 C 42.473029,8.1166784 39.775499,10.892732 37.9375,12.84375 C 36.49914,14.370555 36.122873,14.664561 36,14.84375 C 34.691523,14.192036 32.109992,12.546898 28.09375,10.03125 C 26.601109,9.0958114 24.743765,8.9546871 23.126923,9.6538618 C 21.510082,10.353037 20.340769,11.802985 20,13.53125 C 18.991134,18.691235 18.684817,22.57344 18.53125,25.25 C 18.411696,27.333741 18.35666,27.773022 18.375,28 C 16.956198,28.342026 13.885098,28.751208 9.1875,29.40625 C 7.4383492,29.649866 5.9219458,30.740608 5.1346516,32.321445 C 4.3473574,33.902281 4.3905159,35.769722 5.25,37.3125 C 7.7938191,41.913549 10.054373,45.070179 11.65625,47.21875 C 12.923577,48.918594 13.167425,49.337878 13.3125,49.46875 C 12.44333,50.644177 10.363169,52.886946 7.1875,56.40625 C 5.999806,57.712436 5.5325852,59.52027 5.9386788,61.238358 C 6.3447723,62.956446 7.5719436,64.363787 9.21875,65 C 14.124562,66.889332 17.892345,67.851696 20.5,68.46875 C 22.560473,68.956323 23.020531,69.116356 23.21875,69.125 C 23.309018,70.584002 23.170629,73.666517 23,78.40625 C 22.937454,80.168892 23.747272,81.849204 25.16499,82.89844 C 26.582707,83.947676 28.42632,84.231136 30.09375,83.65625 C 35.066497,81.950085 38.542337,80.26692 40.9375,79.0625 C 42.814057,78.118863 43.261134,77.969745 43.4375,77.84375 C 44.444431,78.902941 46.336219,81.324733 49.25,85.0625 C 50.333862,86.455239 52.034586,87.224205 53.796177,87.11801 C 55.557767,87.011815 57.153798,86.044108 58.0625,84.53125 C 60.775184,80.027767 62.3468,76.492011 63.40625,74.03125 C 64.23874,72.097643 64.483368,71.701476 64.53125,71.5 C 65.98336,71.6651 68.985766,72.321174 73.625,73.3125 C 75.348278,73.680637 77.142346,73.176986 78.422248,71.965762 C 79.70215,70.754537 80.303882,68.990944 80.03125,67.25 C 79.214498,62.056425 78.176716,58.317926 77.40625,55.75 C 76.80534,53.747197 76.719387,53.29829 76.625,53.09375 C 77.843072,52.28615 80.563667,50.845129 84.75,48.625 C 86.300487,47.796262 87.345142,46.25896 87.544765,44.512259 C 87.744388,42.765558 87.073523,41.032196 85.75,39.875 C 81.786281,36.421762 78.58219,34.221077 76.34375,32.75 C 74.604567,31.607029 74.268873,31.317264 74.0625,31.21875 C 74.478577,29.8149 75.657204,26.955249 77.4375,22.5625 C 78.092689,20.92853 77.902519,19.076859 76.928888,17.610172 C 75.955257,16.143484 74.322669,15.249334 72.5625,15.21875 C 67.306328,15.121244 63.444389,15.500489 60.78125,15.8125 C 58.68485,16.058113 58.200864,16.03529 58,16.09375 C 57.415519,14.754046 56.490639,11.820562 55.03125,7.3125 C 54.287019,5.0315936 52.1159,3.5245819 49.71875,3.625 L 49.71875,3.625 z"
       id="path3191"
       style="fill:#000000;fill-opacity:0.29411765;fill-rule:evenodd;stroke:#000000;stroke-width:0;stroke-linecap:butt;stroke-linejoin:miter;marker:none;marker-start:none;marker-mid:none;marker-end:none;stroke-miterlimit:4;stroke-dashoffset:0;stroke-opacity:1;visibility:visible;display:inline;overflow:visible;enable-background:accumulate"
       inkscape:original="M 49.9375 8.96875 C 34.522795 21.423402 41.293336 24.611544 25.25 14.5625 C 21.447348 34.011695 28.686808 32.104311 9.9375 34.71875 C 19.526201 52.061996 23.838524 45.945397 11.15625 60 C 29.649645 67.122196 29.02481 59.675294 28.34375 78.59375 C 47.088573 72.162343 41.829925 66.851092 53.46875 81.78125 C 63.694091 64.80557 56.237224 64.137881 74.75 68.09375 C 71.671305 48.516901 65.525609 52.775662 82.25 43.90625 C 67.30783 30.888459 65.358267 38.107098 72.46875 20.5625 C 52.654705 20.194934 55.768007 26.979224 49.9375 8.96875 z "
       inkscape:radius="5.3519611"
       sodipodi:type="inkscape:offset" />
    <path
       sodipodi:type="inkscape:offset"
       inkscape:radius="5.3519611"
       inkscape:original="M 49.9375 8.96875 C 34.522795 21.423402 41.293336 24.611544 25.25 14.5625 C 21.447348 34.011695 28.686808 32.104311 9.9375 34.71875 C 19.526201 52.061996 23.838524 45.945397 11.15625 60 C 29.649645 67.122196 29.02481 59.675294 28.34375 78.59375 C 47.088573 72.162343 41.829925 66.851092 53.46875 81.78125 C 63.694091 64.80557 56.237224 64.137881 74.75 68.09375 C 71.671305 48.516901 65.525609 52.775662 82.25 43.90625 C 67.30783 30.888459 65.358267 38.107098 72.46875 20.5625 C 52.654705 20.194934 55.768007 26.979224 49.9375 8.96875 z "
       style="fill:#346699;fill-opacity:1;fill-rule:evenodd;stroke:#000000;stroke-width:0;stroke-linecap:butt;stroke-linejoin:miter;marker:none;marker-start:none;marker-mid:none;marker-end:none;stroke-miterlimit:4;stroke-dashoffset:0;stroke-opacity:1;visibility:visible;display:inline;overflow:visible;enable-background:accumulate"
       id="path3180"
       d="M 49.71875,3.625 C 48.566198,3.6704123 47.45915,4.0869255 46.5625,4.8125 C 42.473029,8.1166784 39.775499,10.892732 37.9375,12.84375 C 36.49914,14.370555 36.122873,14.664561 36,14.84375 C 34.691523,14.192036 32.109992,12.546898 28.09375,10.03125 C 26.601109,9.0958114 24.743765,8.9546871 23.126923,9.6538618 C 21.510082,10.353037 20.340769,11.802985 20,13.53125 C 18.991134,18.691235 18.684817,22.57344 18.53125,25.25 C 18.411696,27.333741 18.35666,27.773022 18.375,28 C 16.956198,28.342026 13.885098,28.751208 9.1875,29.40625 C 7.4383492,29.649866 5.9219458,30.740608 5.1346516,32.321445 C 4.3473574,33.902281 4.3905159,35.769722 5.25,37.3125 C 7.7938191,41.913549 10.054373,45.070179 11.65625,47.21875 C 12.923577,48.918594 13.167425,49.337878 13.3125,49.46875 C 12.44333,50.644177 10.363169,52.886946 7.1875,56.40625 C 5.999806,57.712436 5.5325852,59.52027 5.9386788,61.238358 C 6.3447723,62.956446 7.5719436,64.363787 9.21875,65 C 14.124562,66.889332 17.892345,67.851696 20.5,68.46875 C 22.560473,68.956323 23.020531,69.116356 23.21875,69.125 C 23.309018,70.584002 23.170629,73.666517 23,78.40625 C 22.937454,80.168892 23.747272,81.849204 25.16499,82.89844 C 26.582707,83.947676 28.42632,84.231136 30.09375,83.65625 C 35.066497,81.950085 38.542337,80.26692 40.9375,79.0625 C 42.814057,78.118863 43.261134,77.969745 43.4375,77.84375 C 44.444431,78.902941 46.336219,81.324733 49.25,85.0625 C 50.333862,86.455239 52.034586,87.224205 53.796177,87.11801 C 55.557767,87.011815 57.153798,86.044108 58.0625,84.53125 C 60.775184,80.027767 62.3468,76.492011 63.40625,74.03125 C 64.23874,72.097643 64.483368,71.701476 64.53125,71.5 C 65.98336,71.6651 68.985766,72.321174 73.625,73.3125 C 75.348278,73.680637 77.142346,73.176986 78.422248,71.965762 C 79.70215,70.754537 80.303882,68.990944 80.03125,67.25 C 79.214498,62.056425 78.176716,58.317926 77.40625,55.75 C 76.80534,53.747197 76.719387,53.29829 76.625,53.09375 C 77.843072,52.28615 80.563667,50.845129 84.75,48.625 C 86.300487,47.796262 87.345142,46.25896 87.544765,44.512259 C 87.744388,42.765558 87.073523,41.032196 85.75,39.875 C 81.786281,36.421762 78.58219,34.221077 76.34375,32.75 C 74.604567,31.607029 74.268873,31.317264 74.0625,31.21875 C 74.478577,29.8149 75.657204,26.955249 77.4375,22.5625 C 78.092689,20.92853 77.902519,19.076859 76.928888,17.610172 C 75.955257,16.143484 74.322669,15.249334 72.5625,15.21875 C 67.306328,15.121244 63.444389,15.500489 60.78125,15.8125 C 58.68485,16.058113 58.200864,16.03529 58,16.09375 C 57.415519,14.754046 56.490639,11.820562 55.03125,7.3125 C 54.287019,5.0315936 52.1159,3.5245819 49.71875,3.625 L 49.71875,3.625 z"
       transform="matrix(0.9917973,0,0,0.9917973,-1.2473353,-0.8739185)" />
    <path
       style="fill:#71cdfb;fill-opacity:1;fill-rule:evenodd;stroke:#000000;stroke-width:0;stroke-linecap:butt;stroke-linejoin:miter;marker:none;marker-start:none;marker-mid:none;marker-end:none;stroke-miterlimit:4;stroke-dashoffset:0;stroke-opacity:1;visibility:visible;display:inline;overflow:visible;enable-background:accumulate"
       d="M 72.889206,66.64879 C 54.528282,62.725367 61.91717,63.399388 51.775704,80.235821 C 40.232348,65.428133 45.459315,70.693943 26.868249,77.072594 C 27.543724,58.30932 28.163013,65.702994 9.8213143,58.639218 C 22.39956,44.699903 18.121398,50.761858 8.6113509,33.560874 C 27.206864,30.967879 20.033053,32.861659 23.804513,13.572 C 39.716252,23.538614 33.00349,20.378099 48.291753,8.0256088 C 54.074435,25.888348 50.9637,19.15237 70.615216,19.516921 C 63.56306,36.917606 65.509906,29.758013 80.32951,42.669024 C 63.742302,51.465682 69.835764,47.232523 72.889206,66.64879 z"
       id="path3175"
       sodipodi:nodetypes="cccccccccc" />
    <path
       sodipodi:type="arc"
       style="opacity:1;fill:url(#radialGradient3173);fill-opacity:1;fill-rule:evenodd;stroke:#000000;stroke-width:0;stroke-linecap:butt;stroke-linejoin:miter;marker:none;marker-start:none;marker-mid:none;marker-end:none;stroke-miterlimit:4;stroke-dasharray:none;stroke-dashoffset:0;stroke-opacity:1;visibility:visible;display:inline;overflow:visible;enable-background:accumulate"
       id="path2399"
       sodipodi:cx="43.012047"
       sodipodi:cy="47.349396"
       sodipodi:rx="28.192772"
       sodipodi:ry="28.192772"
       d="M 71.204819,47.349396 A 28.192772,28.192772 0 1 1 14.819275,47.349396 A 28.192772,28.192772 0 1 1 71.204819,47.349396 z"
       transform="matrix(0.8498797,0,0,0.8498797,7.1548737,3.9025752)" />
    <g
       id="g2519"
       transform="matrix(0.7441973,0.4172297,-0.4172297,0.7441973,35.298482,12.213579)">
      <path
         id="path684"
         style="font-size:12px;fill:none;stroke:#283d53;stroke-width:5.3499999;stroke-linecap:round"
         d="m 28.40699,28.65262 c 0,0 -22.142951,-6.83269 -17.23787,8.39102 4.90508,15.22371 19.05976,23.25511 19.05976,23.25511" />
      <path
         id="path683"
         style="font-size:12px;fill:#283d53;fill-rule:evenodd;stroke-width:1"
         d="m 10.21814,44.17174 c 0,0 -6.629124,6.18718 -6.187183,9.72272 0.441942,3.53554 5.303306,9.28079 7.071073,10.60661 2.20971,3.0936 1.32582,1.32583 4.86136,1.76776 6.18718,9.28078 14.14213,15.46798 19.88738,17.67769 C 39.38631,82.62069 86.23215,34.44901 87.99991,30.47154 87.55797,26.93601 84.90634,21.63271 79.16108,18.98106 73.41583,16.3294 61.04146,11.0261 58.83175,12.35192 55.29621,11.0261 39.38631,22.51659 36.73465,25.16824 c -1.76776,-1.76776 -4.86136,-2.20971 -6.62912,-1.76777 -1.76777,0.44194 -7.51302,6.18719 -6.62913,7.51301 0.88388,1.32583 1.76777,2.65166 1.76777,2.65166 z" />
      <path
         id="path682"
         style="font-size:12px;fill:none;stroke:#ffc93f;stroke-width:1.97011197;stroke-linecap:round"
         d="m 28.40699,28.65262 c 0,0 -22.142951,-6.83269 -17.23787,8.39102 4.90508,15.22371 19.05976,23.25511 19.05976,23.25511" />
      <path
         id="path676"
         style="font-size:12px;fill:#437caf;fill-rule:evenodd;stroke-width:1"
         d="m 30.64932,32.48851 -3.92407,-1.91795 c 0,0 1.54159,-4.31537 3.78391,-3.3564 2.24232,0.95898 4.48465,2.75705 4.48465,2.75705 z" />
      <path
         id="path652"
         style="font-size:12px;fill:#437caf;fill-rule:evenodd;stroke-width:1"
         d="m 9.057813,48.52887 c 0,0 -1.302694,2.2285 -0.930494,5.57123 0.930494,2.86519 1.116594,5.25286 9.677151,9.55068 1.86099,2.22848 16.56281,16.39531 18.79599,15.28107 2.2332,-1.11425 46.52479,-47.27584 48.19968,-49.6635 0.18611,-1.4326 0.3722,-3.34274 -1.48879,-3.18356 C 81.45036,26.24397 9.057813,48.52887 9.057813,48.52887 z" />
      <path
         id="path616"
         style="font-size:12px;fill:#558ada;fill-rule:evenodd;stroke-width:1"
         d="m 9.982833,47.56079 c 0,0 -2.631844,3.15156 -0.39477,5.40267 2.237057,2.25112 25.134037,22.96138 26.318377,22.96138 1.18433,0 46.97832,-47.16087 48.95219,-48.8492 C 86.83251,25.38731 63.40915,14.80707 59.1982,14.91963 54.98726,15.03218 13.00945,44.52179 9.982833,47.56079 z" />
      <g
         style="fill:#a9e2f5"
         id="g4142">
        <path
           d="m 40.88076,61.89982 c 0,0 2.23318,3.66109 3.53588,2.70601 1.30269,-0.95506 25.68167,-23.87667 25.12337,-24.99091 -0.55829,-1.11425 -1.86099,-2.54686 -3.16368,-1.91015 -1.30269,0.63672 -24.75117,23.23997 -25.49557,24.19505 z"
           style="font-size:12px;fill:#a9e2f5;fill-rule:evenodd;stroke-width:1"
           id="path653" />
        <path
           d="m 10.9188,49.80229 3.34979,2.86521 4.28028,-4.13863 -3.72199,-2.22849 z"
           style="font-size:12px;fill:#a9e2f5;fill-rule:evenodd;stroke-width:1"
           id="path660" />
        <path
           d="m 18.54887,44.70861 3.34978,2.8652 7.25786,-6.52628 -3.72198,-2.2285 z"
           style="font-size:12px;fill:#a9e2f5;fill-rule:evenodd;stroke-width:1"
           id="path661" />
        <path
           d="m 28.22601,36.74971 3.53589,3.18356 8.00225,-5.7304 -3.16367,-2.70603 z"
           style="font-size:12px;fill:#a9e2f5;fill-rule:evenodd;stroke-width:1"
           id="path662" />
        <path
           d="m 39.39197,29.58671 3.16367,2.70602 8.00226,-5.25287 -3.16367,-2.54685 z"
           style="font-size:12px;fill:#a9e2f5;fill-rule:evenodd;stroke-width:1"
           id="path663" />
        <path
           d="m 51.1162,21.94617 3.34978,2.8652 7.81616,-5.7304 -3.34977,-2.54685 z"
           style="font-size:12px;fill:#a9e2f5;fill-rule:evenodd;stroke-width:1"
           id="path664" />
        <path
           d="m 58.56017,29.26835 6.69956,4.45698 -5.95516,4.93451 -2.7915,-1.27342 1.48881,-3.18355 -5.76909,-3.34274 z"
           style="font-size:12px;fill:#a9e2f5;fill-rule:evenodd;stroke-width:1"
           id="path665" />
        <path
           d="M 50.9301,31.81519 15.94348,55.85105 c 0,0 17.67941,17.19122 17.8655,16.71369 0.18611,-0.47754 8.74667,-7.00383 8.74667,-7.00383 l -3.72199,-4.13863 28.28707,-25.46846 -1.3027,-1.43261 -6.88567,5.25288 -3.53587,-2.38767 0.93049,-3.18355 z"
           style="font-size:12px;fill:#a9e2f5;fill-rule:evenodd;stroke-width:1"
           id="path666" />
        <path
           d="M 63.39875,20.19522 80.51986,25.76644 71.9593,37.38642 56.51307,26.7215 z"
           style="font-size:12px;fill:#a9e2f5;fill-rule:evenodd;stroke-width:1"
           id="path667" />
      </g>
      <g
         style="fill:#558ada;stroke:#558ada"
         id="g4132">
        <path
           d="M 17.19537,58.8603 C 17.75595,58.62055 55.03456,33.44749 55.03456,33.44749"
           style="font-size:12px;fill:#558ada;fill-rule:evenodd;stroke:#558ada;stroke-width:0.829521"
           id="path668" />
        <path
           d="M 21.68001,63.17568 56.9966,38.24236"
           style="font-size:12px;fill:#558ada;fill-rule:evenodd;stroke:#558ada;stroke-width:0.829521"
           id="path669" />
        <path
           d="M 26.16465,67.49106 59.51922,39.20133"
           style="font-size:12px;fill:#558ada;fill-rule:evenodd;stroke:#558ada;stroke-width:0.829521"
           id="path670" />
        <path
           d="M 21.96031,50.70903 38.77773,68.68978"
           style="font-size:12px;fill:#558ada;fill-rule:evenodd;stroke:#558ada;stroke-width:0.829521"
           id="path671" />
        <path
           d="M 29.24785,45.43467 39.61859,61.49748"
           style="font-size:12px;fill:#558ada;fill-rule:evenodd;stroke:#558ada;stroke-width:0.829521"
           id="path672" />
        <path
           d="m 36.53541,41.59878 10.37073,12.7064"
           style="font-size:12px;fill:#558ada;fill-rule:evenodd;stroke:#558ada;stroke-width:0.829521"
           id="path673" />
        <path
           d="M 41.30034,38.24236 53.9134,47.8321"
           style="font-size:12px;fill:#558ada;fill-rule:evenodd;stroke:#558ada;stroke-width:0.829521"
           id="path674" />
        <path
           d="m 46.06528,34.64621 10.37074,3.8359"
           style="font-size:12px;fill:#558ada;fill-rule:evenodd;stroke:#558ada;stroke-width:0.829521"
           id="path675" />
      </g>
      <path
         id="path681"
         style="font-size:12px;fill:#ffffff;fill-rule:evenodd;stroke-width:1"
         d="m 29.6683,27.81352 3.64377,1.91795 c 0,0 -0.28029,0.83909 -0.98102,0.59935 -0.70072,-0.23975 -3.50362,-1.91795 -3.50362,-1.91795 z" />
    </g>
  </g>
</svg>
