<?xml version="1.0" encoding="UTF-8" standalone="no"?>
<!-- Created with Inkscape (http://www.inkscape.org/) -->
<svg
   xmlns:dc="http://purl.org/dc/elements/1.1/"
   xmlns:cc="http://creativecommons.org/ns#"
   xmlns:rdf="http://www.w3.org/1999/02/22-rdf-syntax-ns#"
   xmlns:svg="http://www.w3.org/2000/svg"
   xmlns="http://www.w3.org/2000/svg"
   xmlns:xlink="http://www.w3.org/1999/xlink"
   xmlns:sodipodi="http://sodipodi.sourceforge.net/DTD/sodipodi-0.dtd"
   xmlns:inkscape="http://www.inkscape.org/namespaces/inkscape"
   width="90"
   height="90"
   id="svg2"
   sodipodi:version="0.32"
   inkscape:version="0.46+devel"
   version="1.0"
   sodipodi:docname="gpm-brightness-lcd-disabled.svg"
   inkscape:output_extension="org.inkscape.output.svg.inkscape">
  <defs
     id="defs4">
    <linearGradient
       id="linearGradient3165">
      <stop
         style="stop-color:#fffbe1;stop-opacity:1"
         offset="0"
         id="stop3167" />
      <stop
         style="stop-color:#a9e2f5;stop-opacity:1"
         offset="1"
         id="stop3169" />
    </linearGradient>
    <radialGradient
       inkscape:collect="always"
       xlink:href="#linearGradient3165"
       id="radialGradient3173"
       cx="42.023693"
       cy="44.997265"
       fx="35.64209"
       fy="32.427597"
       r="28.192772"
       gradientUnits="userSpaceOnUse"
       gradientTransform="matrix(1.0239517,-0.5239538,0.5014648,0.9800017,-19.759209,21.72133)" />
  </defs>
  <sodipodi:namedview
     id="base"
     pagecolor="#ffffff"
     bordercolor="#666666"
     borderopacity="1.0"
     gridtolerance="10000"
     guidetolerance="10"
     objecttolerance="10"
     inkscape:pageopacity="0.0"
     inkscape:pageshadow="2"
     inkscape:zoom="2.7666667"
     inkscape:cx="55.569471"
     inkscape:cy="34.578528"
     inkscape:document-units="px"
     inkscape:current-layer="layer1"
     showgrid="false"
     inkscape:window-width="724"
     inkscape:window-height="724"
     inkscape:window-x="0"
     inkscape:window-y="1" />
  <metadata
     id="metadata7">
    <rdf:RDF>
      <cc:Work
         rdf:about="">
        <dc:format>image/svg+xml</dc:format>
        <dc:type
           rdf:resource="http://purl.org/dc/dcmitype/StillImage" />
      </cc:Work>
    </rdf:RDF>
  </metadata>
  <g
     inkscape:label="Layer 1"
     inkscape:groupmode="layer"
     id="layer1">
    <path
       transform="matrix(0.9917973,0,0,0.9917973,1.6665261,2.7255573)"
       d="M 49.71875,3.625 C 48.566198,3.6704123 47.45915,4.0869255 46.5625,4.8125 C 42.473029,8.1166784 39.775499,10.892732 37.9375,12.84375 C 36.49914,14.370555 36.122873,14.664561 36,14.84375 C 34.691523,14.192036 32.109992,12.546898 28.09375,10.03125 C 26.601109,9.0958114 24.743765,8.9546871 23.126923,9.6538618 C 21.510082,10.353037 20.340769,11.802985 20,13.53125 C 18.991134,18.691235 18.684817,22.57344 18.53125,25.25 C 18.411696,27.333741 18.35666,27.773022 18.375,28 C 16.956198,28.342026 13.885098,28.751208 9.1875,29.40625 C 7.4383492,29.649866 5.9219458,30.740608 5.1346516,32.321445 C 4.3473574,33.902281 4.3905159,35.769722 5.25,37.3125 C 7.7938191,41.913549 10.054373,45.070179 11.65625,47.21875 C 12.923577,48.918594 13.167425,49.337878 13.3125,49.46875 C 12.44333,50.644177 10.363169,52.886946 7.1875,56.40625 C 5.999806,57.712436 5.5325852,59.52027 5.9386788,61.238358 C 6.3447723,62.956446 7.5719436,64.363787 9.21875,65 C 14.124562,66.889332 17.892345,67.851696 20.5,68.46875 C 22.560473,68.956323 23.020531,69.116356 23.21875,69.125 C 23.309018,70.584002 23.170629,73.666517 23,78.40625 C 22.937454,80.168892 23.747272,81.849204 25.16499,82.89844 C 26.582707,83.947676 28.42632,84.231136 30.09375,83.65625 C 35.066497,81.950085 38.542337,80.26692 40.9375,79.0625 C 42.814057,78.118863 43.261134,77.969745 43.4375,77.84375 C 44.444431,78.902941 46.336219,81.324733 49.25,85.0625 C 50.333862,86.455239 52.034586,87.224205 53.796177,87.11801 C 55.557767,87.011815 57.153798,86.044108 58.0625,84.53125 C 60.775184,80.027767 62.3468,76.492011 63.40625,74.03125 C 64.23874,72.097643 64.483368,71.701476 64.53125,71.5 C 65.98336,71.6651 68.985766,72.321174 73.625,73.3125 C 75.348278,73.680637 77.142346,73.176986 78.422248,71.965762 C 79.70215,70.754537 80.303882,68.990944 80.03125,67.25 C 79.214498,62.056425 78.176716,58.317926 77.40625,55.75 C 76.80534,53.747197 76.719387,53.29829 76.625,53.09375 C 77.843072,52.28615 80.563667,50.845129 84.75,48.625 C 86.300487,47.796262 87.345142,46.25896 87.544765,44.512259 C 87.744388,42.765558 87.073523,41.032196 85.75,39.875 C 81.786281,36.421762 78.58219,34.221077 76.34375,32.75 C 74.604567,31.607029 74.268873,31.317264 74.0625,31.21875 C 74.478577,29.8149 75.657204,26.955249 77.4375,22.5625 C 78.092689,20.92853 77.902519,19.076859 76.928888,17.610172 C 75.955257,16.143484 74.322669,15.249334 72.5625,15.21875 C 67.306328,15.121244 63.444389,15.500489 60.78125,15.8125 C 58.68485,16.058113 58.200864,16.03529 58,16.09375 C 57.415519,14.754046 56.490639,11.820562 55.03125,7.3125 C 54.287019,5.0315936 52.1159,3.5245819 49.71875,3.625 L 49.71875,3.625 z"
       id="path3191"
       style="fill:#000000;fill-opacity:0.29411765;fill-rule:evenodd;stroke:#000000;stroke-width:0;stroke-linecap:butt;stroke-linejoin:miter;marker:none;marker-start:none;marker-mid:none;marker-end:none;stroke-miterlimit:4;stroke-dashoffset:0;stroke-opacity:1;visibility:visible;display:inline;overflow:visible;enable-background:accumulate"
       inkscape:original="M 49.9375 8.96875 C 34.522795 21.423402 41.293336 24.611544 25.25 14.5625 C 21.447348 34.011695 28.686808 32.104311 9.9375 34.71875 C 19.526201 52.061996 23.838524 45.945397 11.15625 60 C 29.649645 67.122196 29.02481 59.675294 28.34375 78.59375 C 47.088573 72.162343 41.829925 66.851092 53.46875 81.78125 C 63.694091 64.80557 56.237224 64.137881 74.75 68.09375 C 71.671305 48.516901 65.525609 52.775662 82.25 43.90625 C 67.30783 30.888459 65.358267 38.107098 72.46875 20.5625 C 52.654705 20.194934 55.768007 26.979224 49.9375 8.96875 z "
       inkscape:radius="5.3519611"
       sodipodi:type="inkscape:offset" />
    <path
       sodipodi:type="inkscape:offset"
       inkscape:radius="5.3519611"
       inkscape:original="M 49.9375 8.96875 C 34.522795 21.423402 41.293336 24.611544 25.25 14.5625 C 21.447348 34.011695 28.686808 32.104311 9.9375 34.71875 C 19.526201 52.061996 23.838524 45.945397 11.15625 60 C 29.649645 67.122196 29.02481 59.675294 28.34375 78.59375 C 47.088573 72.162343 41.829925 66.851092 53.46875 81.78125 C 63.694091 64.80557 56.237224 64.137881 74.75 68.09375 C 71.671305 48.516901 65.525609 52.775662 82.25 43.90625 C 67.30783 30.888459 65.358267 38.107098 72.46875 20.5625 C 52.654705 20.194934 55.768007 26.979224 49.9375 8.96875 z "
       style="fill:#346699;fill-opacity:1;fill-rule:evenodd;stroke:#000000;stroke-width:0;stroke-linecap:butt;stroke-linejoin:miter;marker:none;marker-start:none;marker-mid:none;marker-end:none;stroke-miterlimit:4;stroke-dashoffset:0;stroke-opacity:1;visibility:visible;display:inline;overflow:visible;enable-background:accumulate"
       id="path3180"
       d="M 49.71875,3.625 C 48.566198,3.6704123 47.45915,4.0869255 46.5625,4.8125 C 42.473029,8.1166784 39.775499,10.892732 37.9375,12.84375 C 36.49914,14.370555 36.122873,14.664561 36,14.84375 C 34.691523,14.192036 32.109992,12.546898 28.09375,10.03125 C 26.601109,9.0958114 24.743765,8.9546871 23.126923,9.6538618 C 21.510082,10.353037 20.340769,11.802985 20,13.53125 C 18.991134,18.691235 18.684817,22.57344 18.53125,25.25 C 18.411696,27.333741 18.35666,27.773022 18.375,28 C 16.956198,28.342026 13.885098,28.751208 9.1875,29.40625 C 7.4383492,29.649866 5.9219458,30.740608 5.1346516,32.321445 C 4.3473574,33.902281 4.3905159,35.769722 5.25,37.3125 C 7.7938191,41.913549 10.054373,45.070179 11.65625,47.21875 C 12.923577,48.918594 13.167425,49.337878 13.3125,49.46875 C 12.44333,50.644177 10.363169,52.886946 7.1875,56.40625 C 5.999806,57.712436 5.5325852,59.52027 5.9386788,61.238358 C 6.3447723,62.956446 7.5719436,64.363787 9.21875,65 C 14.124562,66.889332 17.892345,67.851696 20.5,68.46875 C 22.560473,68.956323 23.020531,69.116356 23.21875,69.125 C 23.309018,70.584002 23.170629,73.666517 23,78.40625 C 22.937454,80.168892 23.747272,81.849204 25.16499,82.89844 C 26.582707,83.947676 28.42632,84.231136 30.09375,83.65625 C 35.066497,81.950085 38.542337,80.26692 40.9375,79.0625 C 42.814057,78.118863 43.261134,77.969745 43.4375,77.84375 C 44.444431,78.902941 46.336219,81.324733 49.25,85.0625 C 50.333862,86.455239 52.034586,87.224205 53.796177,87.11801 C 55.557767,87.011815 57.153798,86.044108 58.0625,84.53125 C 60.775184,80.027767 62.3468,76.492011 63.40625,74.03125 C 64.23874,72.097643 64.483368,71.701476 64.53125,71.5 C 65.98336,71.6651 68.985766,72.321174 73.625,73.3125 C 75.348278,73.680637 77.142346,73.176986 78.422248,71.965762 C 79.70215,70.754537 80.303882,68.990944 80.03125,67.25 C 79.214498,62.056425 78.176716,58.317926 77.40625,55.75 C 76.80534,53.747197 76.719387,53.29829 76.625,53.09375 C 77.843072,52.28615 80.563667,50.845129 84.75,48.625 C 86.300487,47.796262 87.345142,46.25896 87.544765,44.512259 C 87.744388,42.765558 87.073523,41.032196 85.75,39.875 C 81.786281,36.421762 78.58219,34.221077 76.34375,32.75 C 74.604567,31.607029 74.268873,31.317264 74.0625,31.21875 C 74.478577,29.8149 75.657204,26.955249 77.4375,22.5625 C 78.092689,20.92853 77.902519,19.076859 76.928888,17.610172 C 75.955257,16.143484 74.322669,15.249334 72.5625,15.21875 C 67.306328,15.121244 63.444389,15.500489 60.78125,15.8125 C 58.68485,16.058113 58.200864,16.03529 58,16.09375 C 57.415519,14.754046 56.490639,11.820562 55.03125,7.3125 C 54.287019,5.0315936 52.1159,3.5245819 49.71875,3.625 L 49.71875,3.625 z"
       transform="matrix(0.9917973,0,0,0.9917973,-1.2473353,-0.8739185)" />
    <path
       style="fill:#71cdfb;fill-opacity:1;fill-rule:evenodd;stroke:#000000;stroke-width:0;stroke-linecap:butt;stroke-linejoin:miter;marker:none;marker-start:none;marker-mid:none;marker-end:none;stroke-miterlimit:4;stroke-dashoffset:0;stroke-opacity:1;visibility:visible;display:inline;overflow:visible;enable-background:accumulate"
       d="M 72.889206,66.64879 C 54.528282,62.725367 61.91717,63.399388 51.775704,80.235821 C 40.232348,65.428133 45.459315,70.693943 26.868249,77.072594 C 27.543724,58.30932 28.163013,65.702994 9.8213143,58.639218 C 22.39956,44.699903 18.121398,50.761858 8.6113509,33.560874 C 27.206864,30.967879 20.033053,32.861659 23.804513,13.572 C 39.716252,23.538614 33.00349,20.378099 48.291753,8.0256088 C 54.074435,25.888348 50.9637,19.15237 70.615216,19.516921 C 63.56306,36.917606 65.509906,29.758013 80.32951,42.669024 C 63.742302,51.465682 69.835764,47.232523 72.889206,66.64879 z"
       id="path3175"
       sodipodi:nodetypes="cccccccccc" />
    <path
       sodipodi:type="arc"
       style="opacity:1;fill:url(#radialGradient3173);fill-opacity:1;fill-rule:evenodd;stroke:#000000;stroke-width:0;stroke-linecap:butt;stroke-linejoin:miter;marker:none;marker-start:none;marker-mid:none;marker-end:none;stroke-miterlimit:4;stroke-dasharray:none;stroke-dashoffset:0;stroke-opacity:1;visibility:visible;display:inline;overflow:visible;enable-background:accumulate"
       id="path2399"
       sodipodi:cx="43.012047"
       sodipodi:cy="47.349396"
       sodipodi:rx="28.192772"
       sodipodi:ry="28.192772"
       d="M 71.204819,47.349396 A 28.192772,28.192772 0 1 1 14.819275,47.349396 A 28.192772,28.192772 0 1 1 71.204819,47.349396 z"
       transform="matrix(0.8498797,0,0,0.8498797,7.1548737,3.9025752)" />
    <g
       id="g2769"
       transform="matrix(0.6502974,0,0,0.6502974,13.588469,17.249597)">
      <path
         sodipodi:nodetypes="csscssscssscssscs"
         id="path584"
         d="M 25.358744,8.5675234 C 22.720108,5.8687424 16.265703,10.045995 13.560278,12.677816 10.854851,15.309638 6.4977402,21.649745 9.1261872,24.358449 L 29.336768,45.186135 7.8308842,66.208838 c -2.6990265,2.63838 1.9152229,8.66817 4.5470438,11.373599 2.631822,2.705425 8.549095,7.501669 11.243881,4.858956 L 45.172021,61.307625 64.783887,81.572751 c 2.624802,2.712232 10.22602,-0.313808 12.931448,-2.945629 2.705423,-2.631819 5.91175,-10.119429 3.301107,-12.845296 L 61.577221,45.484641 82.437525,25.225844 C 85.145155,22.596291 81.104638,15.991181 78.472816,13.285754 75.840994,10.580327 69.362967,6.3727596 66.6466,8.9932867 L 45.613651,29.284144 z"
         style="font-size:12px;fill:#2c0000;fill-opacity:1;fill-rule:evenodd;stroke:none" />
      <path
         sodipodi:nodetypes="csscssscssscssscs"
         id="path589"
         d="m 24.045281,12.678782 c -1.749562,-1.792721 -6.140265,0.872856 -7.935795,2.619536 -1.795529,1.746678 -4.582633,6.063623 -2.837381,7.860538 l 21.05076,21.673923 -23.242339,22.677638 c -1.7929181,1.749357 1.01844,5.998642 2.76512,7.794172 1.746679,1.795527 5.92377,4.730135 7.714958,2.979003 L 44.832361,55.532241 66.522217,77.898238 c 1.743885,1.798247 6.565137,-0.436106 8.360664,-2.182784 1.79553,-1.746679 4.150772,-6.49361 2.41251,-8.29729 L 55.720114,45.030887 77.901397,23.475631 c 1.796446,-1.745743 -0.872856,-6.140269 -2.619535,-7.935798 -1.746681,-1.795529 -6.060469,-4.579377 -7.860538,-2.837381 L 45.125464,34.27899 z"
         style="font-size:12px;fill:#ff1500;fill-opacity:1;fill-rule:evenodd;stroke:none" />
      <path
         sodipodi:nodetypes="cssscsssss"
         id="path592"
         d="M 41.477442,49.574167 18.55032,72.195386 c -0.909797,0.897659 -1.376868,1.788679 -0.48567,2.704805 0.8912,0.916124 3.365673,2.088639 4.275019,1.190523 L 45.281798,53.431881 67.391107,76.48628 c 0.884645,0.922459 3.531718,-0.035395 4.447844,-0.926598 0.91612,-0.891197 0.33068,-1.938913 -0.552519,-2.862747 L 49.235583,49.631678 c -2.514871,-2.630564 -5.167548,-2.613539 -7.758141,-0.057511 z"
         style="font-size:12px;fill:#cb0000;fill-opacity:1;fill-rule:evenodd;stroke:none" />
      <path
         sodipodi:nodetypes="cssscsssss"
         id="path594"
         d="m 49.128131,42.115422 22.04966,-21.484279 c 0.915407,-0.891936 1.235245,-1.934263 0.344046,-2.850386 -0.891197,-0.916123 -3.360085,-2.082948 -4.275014,-1.190524 L 45.182151,38.112124 24.347447,16.367974 c -0.884242,-0.92284 -3.531718,0.035397 -4.447843,0.926596 -0.916122,0.891198 -0.330195,1.938449 0.552521,2.862751 L 41.228363,41.91233 c 2.513484,2.631888 5.293198,2.742823 7.899768,0.203092 z"
         style="font-size:12px;fill:#ffffff;fill-opacity:1;fill-rule:evenodd;stroke:none" />
    </g>
  </g>
</svg>
