<?xml version="1.0" encoding="UTF-8" standalone="no"?>
<!-- Created with Inkscape ("http://www.inkscape.org/") -->
<svg
   xmlns:dc="http://purl.org/dc/elements/1.1/"
   xmlns:cc="http://web.resource.org/cc/"
   xmlns:rdf="http://www.w3.org/1999/02/22-rdf-syntax-ns#"
   xmlns:svg="http://www.w3.org/2000/svg"
   xmlns="http://www.w3.org/2000/svg"
   xmlns:sodipodi="http://sodipodi.sourceforge.net/DTD/sodipodi-0.dtd"
   xmlns:inkscape="http://www.inkscape.org/namespaces/inkscape"
   version="1.0"
   x="0"
   y="0"
   width="90"
   height="90"
   id="svg604"
   sodipodi:version="0.32"
   sodipodi:docname="nm-signal-00.svg"
   sodipodi:docbase="/home/tweenk/GNUtoon/status"
   inkscape:version="0.45.1"
   inkscape:output_extension="org.inkscape.output.svg.inkscape">
  <metadata
     id="metadata77">
    <rdf:RDF>
      <cc:Work
         rdf:about="">
        <dc:format>image/svg+xml</dc:format>
        <dc:type
           rdf:resource="http://purl.org/dc/dcmitype/StillImage" />
      </cc:Work>
    </rdf:RDF>
  </metadata>
  <sodipodi:namedview
     id="base"
     inkscape:zoom="4.9861112"
     inkscape:cx="46.409998"
     inkscape:cy="44.934329"
     inkscape:window-width="795"
     inkscape:window-height="709"
     inkscape:window-x="33"
     inkscape:window-y="59"
     inkscape:current-layer="svg604" />
  <defs
     id="defs606">
    <linearGradient
       id="linearGradient720">
      <stop
         offset="0.0000000"
         style="stop-color:#ff0000;stop-opacity:1.0000000;"
         id="stop722" />
      <stop
         offset="0.50000000"
         style="stop-color:#ffed00;stop-opacity:1.0000000;"
         id="stop1769" />
      <stop
         offset="1"
         style="stop-color:#36ff32;stop-opacity:1;"
         id="stop721" />
    </linearGradient>
  </defs>
  <path
     style="opacity:0.99450546;color:#000000;fill:#c2c2c2;fill-opacity:1;fill-rule:nonzero;stroke:#34674b;stroke-width:3.77987003;stroke-linecap:square;stroke-linejoin:round;marker:none;marker-start:none;marker-mid:none;marker-end:none;stroke-miterlimit:4;stroke-dashoffset:0;stroke-opacity:1;visibility:visible;display:block"
     d="M 72.838302,7.2274194 C 70.201251,7.2274194 68.091509,9.3568816 68.091509,11.969594 L 68.091509,80.282932 C 68.091509,82.895644 70.201252,85.025107 72.838302,85.025107 L 78.890464,85.025107 C 81.527516,85.025107 83.676812,82.895648 83.676814,80.282932 L 83.676814,11.969594 C 83.676814,9.3568806 81.527517,7.2274194 78.890464,7.2274194 L 72.838302,7.2274194 z "
     id="path3188" />
  <path
     style="opacity:0.99450546;color:#000000;fill:#c2c2c2;fill-opacity:1;fill-rule:nonzero;stroke:#34674b;stroke-width:3.77987003;stroke-linecap:square;stroke-linejoin:round;stroke-miterlimit:4;stroke-dashoffset:0;stroke-opacity:1;marker:none;marker-start:none;marker-mid:none;marker-end:none;visibility:visible;display:block"
     d="M 31.382972,39.829351 C 28.74592,39.829351 26.596622,41.919622 26.596622,44.532334 L 26.596622,80.282932 C 26.596622,82.895644 28.745919,85.025107 31.382972,85.025107 L 37.435134,85.025107 C 40.072185,85.025107 42.181931,82.895648 42.181927,80.282932 L 42.181927,44.532334 C 42.181927,41.919621 40.072187,39.829351 37.435134,39.829351 L 31.382972,39.829351 z "
     id="path3186" />
  <path
     style="opacity:0.99450546;color:#000000;fill:#c2c2c2;fill-opacity:1;fill-rule:nonzero;stroke:#34674b;stroke-width:3.77987003;stroke-linecap:square;stroke-linejoin:round;stroke-miterlimit:4;stroke-dashoffset:0;stroke-opacity:1;marker:none;marker-start:none;marker-mid:none;marker-end:none;visibility:visible;display:block"
     d="M 52.110637,23.476978 C 49.473586,23.476978 47.324287,25.606441 47.324287,28.219153 L 47.324287,80.282932 C 47.324287,82.895644 49.473587,85.025104 52.110637,85.025107 L 58.162799,85.025107 C 60.799851,85.025107 62.90959,82.895645 62.909592,80.282932 L 62.909592,28.219153 C 62.909592,25.60644 60.799852,23.476978 58.162799,23.476978 L 52.110637,23.476978 z "
     id="path3184" />
  <path
     style="opacity:0.99450546;color:#000000;fill:#c2c2c2;fill-opacity:1;fill-rule:nonzero;stroke:#34674b;stroke-width:3.77987003;stroke-linecap:square;stroke-linejoin:round;stroke-miterlimit:4;stroke-dashoffset:0;stroke-opacity:1;marker:none;marker-start:none;marker-mid:none;marker-end:none;visibility:visible;display:block"
     d="M 10.615749,56.319047 C 7.9786987,56.319047 5.8689567,58.409319 5.8689567,61.02203 L 5.8689567,80.282932 C 5.8689567,82.895644 7.9786989,85.025107 10.615749,85.025107 L 16.707468,85.025107 C 19.34452,85.025107 21.454261,82.895648 21.454261,80.282932 L 21.454261,61.02203 C 21.454261,58.409318 19.34452,56.319047 16.707468,56.319047 L 10.615749,56.319047 z "
     id="path5147" />
</svg>
