<?xml version="1.0" encoding="UTF-8" standalone="no"?>
<!-- Created with Sodipodi ("http://www.sodipodi.com/") -->
<svg
   xmlns:dc="http://purl.org/dc/elements/1.1/"
   xmlns:cc="http://creativecommons.org/ns#"
   xmlns:rdf="http://www.w3.org/1999/02/22-rdf-syntax-ns#"
   xmlns:svg="http://www.w3.org/2000/svg"
   xmlns="http://www.w3.org/2000/svg"
   xmlns:xlink="http://www.w3.org/1999/xlink"
   xmlns:sodipodi="http://sodipodi.sourceforge.net/DTD/sodipodi-0.dtd"
   xmlns:inkscape="http://www.inkscape.org/namespaces/inkscape"
   id="svg604"
   sodipodi:version="0.32"
   width="90"
   height="90"
   sodipodi:docbase="/home/tweenk/GNUtoon/stock/document"
   sodipodi:docname="seahorse-sign-unknown.svg"
   inkscape:version="0.46+devel"
   inkscape:output_extension="org.inkscape.output.svg.inkscape"
   version="1.0">
  <metadata
     id="metadata23">
    <rdf:RDF>
      <cc:Work
         rdf:about="">
        <dc:format>image/svg+xml</dc:format>
        <dc:type
           rdf:resource="http://purl.org/dc/dcmitype/StillImage" />
      </cc:Work>
    </rdf:RDF>
  </metadata>
  <defs
     id="defs606">
    <linearGradient
       id="linearGradient671">
      <stop
         style="stop-color:#7fa8e3;stop-opacity:0.741176;"
         offset="0.000000"
         id="stop672" />
      <stop
         style="stop-color:#ffffff;stop-opacity:0;"
         offset="1.000000"
         id="stop673" />
    </linearGradient>
    <linearGradient
       id="linearGradient612">
      <stop
         style="stop-color:#955801;stop-opacity:0.4471;"
         offset="0"
         id="stop613" />
      <stop
         style="stop-color:#000500;stop-opacity:0;"
         offset="1"
         id="stop614" />
    </linearGradient>
    <linearGradient
       xlink:href="#linearGradient612"
       id="linearGradient615"
       x1="36.216915"
       y1="12.409"
       x2="37.964546"
       y2="72.903305"
       gradientUnits="userSpaceOnUse"
       spreadMethod="pad"
       gradientTransform="matrix(0.9890292,0,0,0.9890292,1.104983,-1.209964)" />
    <linearGradient
       gradientTransform="matrix(0.9479959,-8.5519426e-2,8.5519426e-2,0.9479959,-42.059299,90.842021)"
       y2="81.29966"
       x2="26.20887"
       y1="68.29966"
       x1="45.672657"
       gradientUnits="userSpaceOnUse"
       id="linearGradient3859"
       xlink:href="#linearGradient1787"
       inkscape:collect="always" />
    <linearGradient
       y2="86.700996"
       x2="65.530708"
       y1="41.439709"
       x1="32.572178"
       gradientTransform="matrix(0.7057779,-6.3668759e-2,5.8765589e-2,0.6514255,-30.898535,102.46003)"
       gradientUnits="userSpaceOnUse"
       id="linearGradient3855"
       xlink:href="#linearGradient1787"
       inkscape:collect="always" />
    <radialGradient
       r="8.0222836"
       fy="67.684441"
       fx="55.988865"
       cy="67.852768"
       cx="55.821728"
       spreadMethod="reflect"
       gradientUnits="userSpaceOnUse"
       id="radialGradient3851"
       xlink:href="#linearGradient1787"
       inkscape:collect="always" />
    <linearGradient
       y2="86.700996"
       x2="65.530708"
       y1="41.439709"
       x1="32.572178"
       gradientTransform="matrix(0.7444947,0,0,0.6871607,10.581334,13.209891)"
       gradientUnits="userSpaceOnUse"
       id="linearGradient3849"
       xlink:href="#linearGradient1787"
       inkscape:collect="always" />
    <linearGradient
       y2="81.29966"
       x2="26.20887"
       y1="68.29966"
       x1="45.672657"
       gradientUnits="userSpaceOnUse"
       id="linearGradient3847"
       xlink:href="#linearGradient1787"
       inkscape:collect="always" />
    <inkscape:perspective
       sodipodi:type="inkscape:persp3d"
       inkscape:vp_x="0 : 45 : 1"
       inkscape:vp_y="0 : 1000 : 0"
       inkscape:vp_z="90 : 45 : 1"
       inkscape:persp3d-origin="45 : 30 : 1"
       id="perspective3779" />
    <linearGradient
       id="linearGradient3167">
      <stop
         style="stop-color:#ed0000;stop-opacity:1;"
         offset="0"
         id="stop3169" />
      <stop
         style="stop-color:#ed0000;stop-opacity:0;"
         offset="1"
         id="stop3171" />
    </linearGradient>
    <linearGradient
       id="linearGradient1787">
      <stop
         offset="0.0000000"
         style="stop-color:#ffcbcb;stop-opacity:1.0000000;"
         id="stop1789" />
      <stop
         offset="1.0000000"
         style="stop-color:#ea0800;stop-opacity:1.0000000;"
         id="stop1788" />
    </linearGradient>
    <linearGradient
       id="linearGradient3788">
      <stop
         style="stop-color:#7fa8e3;stop-opacity:0.741176;"
         offset="0.000000"
         id="stop3790" />
      <stop
         style="stop-color:#ffffff;stop-opacity:0;"
         offset="1.000000"
         id="stop3792" />
    </linearGradient>
    <linearGradient
       xlink:href="#linearGradient612"
       id="linearGradient3794"
       x1="50.6438866"
       y1="5.36792946"
       x2="35.7520943"
       y2="68.0443573"
       gradientUnits="userSpaceOnUse"
       spreadMethod="pad" />
    <defs
       id="defs598">
      <linearGradient
         id="linearGradient697">
        <stop
           style="stop-color:#7fa8e3;stop-opacity:0.741176;"
           offset="0.000000"
           id="stop698" />
        <stop
           style="stop-color:#ffffff;stop-opacity:0;"
           offset="1.000000"
           id="stop699" />
      </linearGradient>
      <linearGradient
         id="linearGradient626"
         x1="0.0000000"
         y1="0.50000000"
         x2="1.0000000"
         y2="0.50000000"
         gradientUnits="objectBoundingBox"
         spreadMethod="pad"
         xlink:href="#linearGradient1787" />
      <linearGradient
         id="linearGradient3801">
        <stop
           style="stop-color:#956d47;stop-opacity:1;"
           offset="0.000000"
           id="stop3803" />
        <stop
           style="stop-color:#ab322d;stop-opacity:0;"
           offset="1.000000"
           id="stop3805" />
      </linearGradient>
      <linearGradient
         id="linearGradient706">
        <stop
           style="stop-color:#000;stop-opacity:1;"
           offset="0"
           id="stop707" />
        <stop
           style="stop-color:#fff;stop-opacity:1;"
           offset="1"
           id="stop708" />
      </linearGradient>
      <linearGradient
         xlink:href="#linearGradient618"
         id="linearGradient3810"
         x1="-0.19608469"
         y1="0.57031226"
         x2="1.07843077"
         y2="0.52343726"
         gradientUnits="objectBoundingBox"
         spreadMethod="pad" />
      <linearGradient
         xlink:href="#linearGradient626"
         id="linearGradient625"
         x1="42.9995728"
         y1="77.3980103"
         x2="28.5382881"
         y2="63.0152588"
         gradientUnits="userSpaceOnUse"
         spreadMethod="pad"
         gradientTransform="matrix(0.934001,0.000000,0.000000,1.070663,-1.516226e-6,-1.716230e-7)" />
      <linearGradient
         xlink:href="#linearGradient612"
         id="linearGradient636"
         x1="16.4110699"
         y1="10.6072874"
         x2="24.6243172"
         y2="61.6665344"
         gradientUnits="userSpaceOnUse"
         spreadMethod="pad" />
    </defs>
    <sodipodi:namedview
       id="namedview712" />
    <linearGradient
       inkscape:collect="always"
       xlink:href="#linearGradient1787"
       id="linearGradient3205"
       gradientUnits="userSpaceOnUse"
       x1="45.672657"
       y1="68.29966"
       x2="26.20887"
       y2="81.29966" />
    <linearGradient
       inkscape:collect="always"
       xlink:href="#linearGradient1787"
       id="linearGradient3207"
       gradientUnits="userSpaceOnUse"
       gradientTransform="matrix(0.7444947,0,0,0.6871607,10.581334,13.209891)"
       x1="32.572178"
       y1="41.439709"
       x2="65.530708"
       y2="86.700996" />
    <radialGradient
       inkscape:collect="always"
       xlink:href="#linearGradient1787"
       id="radialGradient3209"
       gradientUnits="userSpaceOnUse"
       spreadMethod="reflect"
       cx="55.821728"
       cy="67.852768"
       fx="55.988865"
       fy="67.684441"
       r="8.0222836" />
    <inkscape:perspective
       sodipodi:type="inkscape:persp3d"
       inkscape:vp_x="0 : 45 : 1"
       inkscape:vp_y="0 : 1000 : 0"
       inkscape:vp_z="90 : 45 : 1"
       inkscape:persp3d-origin="45 : 30 : 1"
       id="perspective3622" />
    <linearGradient
       y2="72.903305"
       x2="37.964546"
       y1="12.409"
       x1="36.216915"
       spreadMethod="pad"
       gradientTransform="matrix(0.9890292,0,0,0.9890292,1.104983,-1.209964)"
       gradientUnits="userSpaceOnUse"
       id="linearGradient2605"
       xlink:href="#linearGradient612"
       inkscape:collect="always" />
    <inkscape:perspective
       sodipodi:type="inkscape:persp3d"
       inkscape:vp_x="0 : 45 : 1"
       inkscape:vp_y="0 : 1000 : 0"
       inkscape:vp_z="90 : 45 : 1"
       inkscape:persp3d-origin="45 : 30 : 1"
       id="perspective2568" />
    <linearGradient
       id="linearGradient618">
      <stop
         offset="0.000000"
         style="stop-color:#7fa8e3;stop-opacity:0.741176;"
         id="stop620" />
      <stop
         offset="1.000000"
         style="stop-color:#ffffff;stop-opacity:0;"
         id="stop619" />
    </linearGradient>
    <linearGradient
       id="linearGradient614">
      <stop
         style="stop-color:#000;stop-opacity:1;"
         offset="0"
         id="stop615" />
      <stop
         style="stop-color:#fff;stop-opacity:1;"
         offset="1"
         id="stop616" />
    </linearGradient>
    <linearGradient
       xlink:href="#linearGradient618"
       id="linearGradient617"
       x1="1.00487828"
       y1="0.07030509"
       x2="-0.33658543"
       y2="1.33593702"
       gradientUnits="objectBoundingBox"
       spreadMethod="pad" />
    <inkscape:perspective
       sodipodi:type="inkscape:persp3d"
       inkscape:vp_x="0 : 45 : 1"
       inkscape:vp_y="0 : 1000 : 0"
       inkscape:vp_z="90 : 45 : 1"
       inkscape:persp3d-origin="45 : 30 : 1"
       id="perspective2506" />
    <linearGradient
       y2="72.903305"
       x2="37.964546"
       y1="12.409"
       x1="36.216915"
       gradientTransform="matrix(0.321682,0,0,0.321682,0.752234,0.87654)"
       gradientUnits="userSpaceOnUse"
       id="linearGradient2799"
       xlink:href="#linearGradient671"
       inkscape:collect="always" />
    <linearGradient
       gradientTransform="matrix(0.9890292,0,0,0.9890292,1.104983,-1.209964)"
       spreadMethod="pad"
       gradientUnits="userSpaceOnUse"
       y2="72.903305"
       x2="37.964546"
       y1="12.409"
       x1="36.216915"
       id="linearGradient2797"
       xlink:href="#linearGradient612" />
    <linearGradient
       id="linearGradient2791">
      <stop
         id="stop2793"
         offset="0"
         style="stop-color:#955801;stop-opacity:0.4471;" />
      <stop
         id="stop2795"
         offset="1"
         style="stop-color:#000500;stop-opacity:0;" />
    </linearGradient>
    <linearGradient
       id="linearGradient2785">
      <stop
         id="stop2787"
         offset="0.000000"
         style="stop-color:#7fa8e3;stop-opacity:0.741176;" />
      <stop
         id="stop2789"
         offset="1.000000"
         style="stop-color:#ffffff;stop-opacity:0;" />
    </linearGradient>
    <inkscape:perspective
       id="perspective26"
       inkscape:persp3d-origin="45 : 30 : 1"
       inkscape:vp_z="90 : 45 : 1"
       inkscape:vp_y="0 : 1000 : 0"
       inkscape:vp_x="0 : 45 : 1"
       sodipodi:type="inkscape:persp3d" />
    <linearGradient
       inkscape:collect="always"
       xlink:href="#linearGradient1787"
       id="linearGradient2919"
       gradientUnits="userSpaceOnUse"
       gradientTransform="matrix(-1.0546004,-1.3652838,-1.2601426,0.9733849,189.16512,45.726866)"
       x1="32.572178"
       y1="41.439709"
       x2="65.530708"
       y2="86.700996" />
    <radialGradient
       inkscape:collect="always"
       xlink:href="#linearGradient1787"
       id="radialGradient2925"
       gradientUnits="userSpaceOnUse"
       spreadMethod="reflect"
       cx="55.821728"
       cy="67.852768"
       fx="55.988865"
       fy="67.684441"
       r="8.0222836" />
    <linearGradient
       inkscape:collect="always"
       xlink:href="#linearGradient1787"
       id="linearGradient3975"
       gradientUnits="userSpaceOnUse"
       gradientTransform="matrix(-1.0546004,-1.3652838,-1.2601426,0.9733849,189.16512,45.726866)"
       x1="32.572178"
       y1="41.439709"
       x2="65.530708"
       y2="86.700996" />
    <radialGradient
       inkscape:collect="always"
       xlink:href="#linearGradient1787"
       id="radialGradient3977"
       gradientUnits="userSpaceOnUse"
       spreadMethod="reflect"
       cx="55.821728"
       cy="67.852768"
       fx="55.988865"
       fy="67.684441"
       r="8.0222836" />
    <inkscape:perspective
       id="perspective3988"
       inkscape:persp3d-origin="45 : 30 : 1"
       inkscape:vp_z="90 : 45 : 1"
       inkscape:vp_y="0 : 1000 : 0"
       inkscape:vp_x="0 : 45 : 1"
       sodipodi:type="inkscape:persp3d" />
    <inkscape:perspective
       sodipodi:type="inkscape:persp3d"
       inkscape:vp_x="0 : 45 : 1"
       inkscape:vp_y="0 : 1000 : 0"
       inkscape:vp_z="90 : 45 : 1"
       inkscape:persp3d-origin="45 : 30 : 1"
       id="perspective3862" />
    <inkscape:perspective
       sodipodi:type="inkscape:persp3d"
       inkscape:vp_x="0 : 45 : 1"
       inkscape:vp_y="0 : 1000 : 0"
       inkscape:vp_z="90 : 45 : 1"
       inkscape:persp3d-origin="45 : 30 : 1"
       id="perspective3816" />
    <inkscape:perspective
       sodipodi:type="inkscape:persp3d"
       inkscape:vp_x="0 : 45 : 1"
       inkscape:vp_y="0 : 1000 : 0"
       inkscape:vp_z="90 : 45 : 1"
       inkscape:persp3d-origin="45 : 30 : 1"
       id="perspective3798" />
    <inkscape:perspective
       sodipodi:type="inkscape:persp3d"
       inkscape:vp_x="0 : 0.5 : 1"
       inkscape:vp_y="0 : 1000 : 0"
       inkscape:vp_z="1 : 0.5 : 1"
       inkscape:persp3d-origin="0.5 : 0.33333333 : 1"
       id="perspective3776" />
    <linearGradient
       y2="83.034393"
       x2="75.038589"
       y1="62.207943"
       x1="51.095966"
       gradientTransform="matrix(0.9894501,-0.1448744,0.1448744,0.9894501,-7.8893174,6.0717053)"
       gradientUnits="userSpaceOnUse"
       id="linearGradient3745"
       xlink:href="#linearGradient1787"
       inkscape:collect="always" />
    <linearGradient
       y2="83.034393"
       x2="75.038589"
       y1="62.207943"
       x1="51.095966"
       gradientTransform="matrix(0.9894501,-0.1448744,0.1448744,0.9894501,-7.8893174,6.0717053)"
       gradientUnits="userSpaceOnUse"
       id="linearGradient3743"
       xlink:href="#linearGradient1787"
       inkscape:collect="always" />
    <radialGradient
       r="8.0222836"
       fy="67.684441"
       fx="55.988865"
       cy="67.852768"
       cx="55.821728"
       spreadMethod="reflect"
       gradientUnits="userSpaceOnUse"
       id="radialGradient4385"
       xlink:href="#linearGradient1787"
       inkscape:collect="always" />
    <linearGradient
       y2="86.700996"
       x2="65.530708"
       y1="41.439709"
       x1="32.572178"
       gradientTransform="matrix(-1.2412691,-1.1980956,-1.1058296,1.1456781,183.07589,25.127027)"
       gradientUnits="userSpaceOnUse"
       id="linearGradient4383"
       xlink:href="#linearGradient1787"
       inkscape:collect="always" />
    <linearGradient
       id="linearGradient4377">
      <stop
         id="stop4379"
         style="stop-color:#7fa8e3;stop-opacity:0.741176;"
         offset="0.000000" />
      <stop
         id="stop4381"
         style="stop-color:#ffffff;stop-opacity:0;"
         offset="1.000000" />
    </linearGradient>
    <defs
       id="defs4349">
      <linearGradient
         id="linearGradient4351">
        <stop
           id="stop4353"
           offset="0.000000"
           style="stop-color:#7fa8e3;stop-opacity:0.741176;" />
        <stop
           id="stop4355"
           offset="1.000000"
           style="stop-color:#ffffff;stop-opacity:0;" />
      </linearGradient>
      <linearGradient
         xlink:href="#linearGradient1787"
         spreadMethod="pad"
         gradientUnits="objectBoundingBox"
         y2="0.50000000"
         x2="1.0000000"
         y1="0.50000000"
         x1="0.0000000"
         id="linearGradient4357" />
      <linearGradient
         id="linearGradient4359">
        <stop
           id="stop4361"
           offset="0.000000"
           style="stop-color:#956d47;stop-opacity:1;" />
        <stop
           id="stop4363"
           offset="1.000000"
           style="stop-color:#ab322d;stop-opacity:0;" />
      </linearGradient>
      <linearGradient
         id="linearGradient4365">
        <stop
           id="stop4367"
           offset="0"
           style="stop-color:#000;stop-opacity:1;" />
        <stop
           id="stop4369"
           offset="1"
           style="stop-color:#fff;stop-opacity:1;" />
      </linearGradient>
      <linearGradient
         spreadMethod="pad"
         gradientUnits="objectBoundingBox"
         y2="0.52343726"
         x2="1.07843077"
         y1="0.57031226"
         x1="-0.19608469"
         id="linearGradient4371"
         xlink:href="#linearGradient618" />
      <linearGradient
         gradientTransform="matrix(0.934001,0.000000,0.000000,1.070663,-1.516226e-6,-1.716230e-7)"
         spreadMethod="pad"
         gradientUnits="userSpaceOnUse"
         y2="63.0152588"
         x2="28.5382881"
         y1="77.3980103"
         x1="42.9995728"
         id="linearGradient4373"
         xlink:href="#linearGradient626" />
      <linearGradient
         spreadMethod="pad"
         gradientUnits="userSpaceOnUse"
         y2="61.6665344"
         x2="24.6243172"
         y1="10.6072874"
         x1="16.4110699"
         id="linearGradient4375"
         xlink:href="#linearGradient612" />
    </defs>
    <linearGradient
       id="linearGradient4343">
      <stop
         id="stop4345"
         style="stop-color:#ffcbcb;stop-opacity:1.0000000;"
         offset="0.0000000" />
      <stop
         id="stop4347"
         style="stop-color:#ea0800;stop-opacity:1.0000000;"
         offset="1.0000000" />
    </linearGradient>
    <linearGradient
       id="linearGradient4337">
      <stop
         id="stop4339"
         offset="0"
         style="stop-color:#955801;stop-opacity:0.4471;" />
      <stop
         id="stop4341"
         offset="1"
         style="stop-color:#000500;stop-opacity:0;" />
    </linearGradient>
    <linearGradient
       inkscape:collect="always"
       xlink:href="#linearGradient1787"
       id="linearGradient4442"
       gradientUnits="userSpaceOnUse"
       gradientTransform="matrix(-1.0546004,-1.3652838,-1.2601426,0.9733849,135.7384,143.84052)"
       x1="32.572178"
       y1="41.439709"
       x2="65.530708"
       y2="86.700996" />
    <linearGradient
       inkscape:collect="always"
       xlink:href="#linearGradient1787"
       id="linearGradient4447"
       gradientUnits="userSpaceOnUse"
       gradientTransform="matrix(0.9894501,-0.1448744,0.1448744,0.9894501,-61.316032,104.18536)"
       x1="51.095966"
       y1="62.207943"
       x2="75.038589"
       y2="83.034393" />
    <linearGradient
       inkscape:collect="always"
       xlink:href="#linearGradient1787"
       id="linearGradient4450"
       gradientUnits="userSpaceOnUse"
       gradientTransform="matrix(0.9894501,-0.1448744,0.1448744,0.9894501,-61.316032,104.18536)"
       x1="51.095966"
       y1="62.207943"
       x2="75.038589"
       y2="83.034393" />
  </defs>
  <sodipodi:namedview
     id="base"
     inkscape:zoom="2.5208334"
     inkscape:cx="15.224733"
     inkscape:cy="-1.6010469"
     inkscape:window-width="874"
     inkscape:window-height="724"
     inkscape:window-x="140"
     inkscape:window-y="9"
     inkscape:current-layer="svg604"
     width="90px"
     height="90px"
     showgrid="false" />
  <g
     id="g3966"
     transform="matrix(0.9750478,-0.612921,0.612921,0.9750478,-23.571414,40.039037)">
    <path
       style="fill:#000000;fill-opacity:0.29411765;stroke:none"
       d="m 48.752066,4.2456094 c -9.023494,0.6292721 -17.315767,5.280497 -24.143502,10.968704 -2.356948,2.099778 -5.600715,5.683847 -3.303499,8.903576 0.580273,2.940751 -0.944789,6.310138 -1.971534,9.185758 -1.699669,3.732743 -4.4622756,7.243993 -4.2143791,11.577058 -0.1675831,6.157458 4.9226191,10.797837 10.074936,13.25018 5.06855,2.466273 8.078052,7.496336 12.195848,11.152418 2.813483,2.981489 6.812161,6.180821 11.179558,4.719545 4.113389,-1.309621 6.531756,-5.883209 11.120072,-6.100989 4.965609,-0.720103 10.842706,-1.079515 14.027821,-5.550056 0.714388,-1.207846 2.3183,-2.286744 2.715956,-3.492246 -0.59994,-1.277443 -2.635125,-2.995375 -0.082802,-3.445889 C 77.940288,54.67427 79.684077,54.442252 81.377066,54.058109 82.127372,46.276713 83.100397,38.410437 82.559421,30.644046 81.599581,24.014795 75.506167,20.184927 70.275833,16.970094 65.312756,13.899726 60.282552,10.498713 57.158316,5.4331094 54.437405,4.5867277 51.613044,4.0686287 48.752066,4.2456094 z"
       id="path2942" />
    <path
       sodipodi:nodetypes="cccccccccc"
       id="path1797"
       d="m 71.812817,47.85806 c 0,0 -9.6482626,2.0553627 -6.1101613,7.9581438 C 63.026199,58.963076 63.54843,59.639155 53.377935,61.018439 43.207446,62.397722 43.429355,71.941531 35.883122,64.816915 28.336889,57.692297 26.887704,54.493833 21.835112,51.919846 16.782519,49.345856 10.163249,44.743629 15.111443,36.603565 c 4.948195,-8.140061 5.248512,-17.007791 5.248512,-17.007791 -7.206812,1.248955 14.139533,-17.39876 28.48788,-13.369436 8.760394,12.66356 25.785187,13.546022 23.970371,25.742552 0.052198,5.357024 -1.005389,15.88917 -1.005389,15.88917 z"
       style="fill:none;stroke:#593a28;stroke-width:8.28701305;stroke-linecap:butt;stroke-linejoin:miter;stroke-miterlimit:4;stroke-opacity:1" />
    <path
       id="path2939"
       d="m 43,1.46875 c -9.023494,0.6292721 -17.315767,5.280497 -24.143502,10.968704 -2.356948,2.099778 -5.600715,5.683847 -3.303499,8.903576 0.580273,2.940751 -0.944789,6.310138 -1.971534,9.185758 -1.699669,3.732743 -4.4622756,7.243993 -4.2143791,11.577058 -0.1675831,6.157458 4.9226191,10.797837 10.074936,13.25018 5.06855,2.466273 8.078052,7.496336 12.195848,11.152418 2.813483,2.981489 6.812161,6.180821 11.179558,4.719545 4.113389,-1.309621 6.531756,-5.883209 11.120072,-6.100989 4.965609,-0.720103 10.842706,-1.079515 14.027821,-5.550056 0.714388,-1.207846 2.3183,-2.286744 2.715956,-3.492246 -0.59994,-1.277443 -2.635125,-2.995375 -0.082802,-3.445889 C 72.188222,51.897411 73.932011,51.665393 75.625,51.28125 76.375306,43.499854 77.348331,35.633578 76.807355,27.867187 75.847515,21.237935 69.754101,17.408067 64.523767,14.193234 59.56069,11.122866 54.530486,7.7218534 51.40625,2.65625 48.685339,1.8098683 45.860978,1.2917693 43,1.46875 z"
       style="fill:#593a28;fill-opacity:1;stroke:none" />
    <path
       sodipodi:nodetypes="cccccccccc"
       id="path1790"
       d="m 71.812817,47.85806 c 0,0 -9.6482626,2.0553627 -6.1101613,7.9581438 C 63.026199,58.963076 63.54843,59.639155 53.377935,61.018439 43.207446,62.397722 43.429355,71.941531 35.883122,64.816915 28.336889,57.692297 26.887704,54.493833 21.835112,51.919846 16.782519,49.345856 10.163249,44.743629 15.111443,36.603565 c 4.948195,-8.140061 5.248512,-17.007791 5.248512,-17.007791 -7.206812,1.248955 14.139533,-17.39876 28.48788,-13.369436 8.760394,12.66356 22.012071,9.9837163 23.970371,25.742552 0.052198,5.357024 -1.005389,15.88917 -1.005389,15.88917 z"
       style="fill:url(#linearGradient3975);fill-opacity:1;fill-rule:evenodd;stroke:none" />
    <path
       transform="matrix(-1.0415582,-1.3483994,-1.2759207,0.9855727,189.16512,45.726866)"
       d="m 68.189415,68.189415 a 11.78273,11.78273 0 1 1 -23.56546,0 11.78273,11.78273 0 1 1 23.56546,0 z"
       sodipodi:ry="11.78273"
       sodipodi:rx="11.78273"
       sodipodi:cy="68.189415"
       sodipodi:cx="56.406685"
       id="path1161"
       style="fill:url(#radialGradient3977);fill-opacity:1;fill-rule:nonzero;stroke:none"
       sodipodi:type="arc" />
    <path
       id="path2937"
       d="M 43,1.46875"
       style="fill:#593a28;fill-opacity:1;stroke:none" />
    <path
       id="path2935"
       d="M 43,1.46875"
       style="fill:#593a28;fill-opacity:1;stroke:none" />
  </g>
  <g
     id="g2314"
     transform="matrix(0.6585903,0.1172379,-0.1172379,0.6585903,18.659862,14.633588)">
    <path
       transform="matrix(1.097592,0,0,1.071284,3.493831,5.744114)"
       sodipodi:nodetypes="ccccccccccc"
       id="path577"
       d="m 20.3183,54.3906 11.7301,6.703 C 34.981,60.4652 43.1502,57.3232 46.5017,55.019 45.2449,53.3432 44.826,50.2013 43.9881,47.8971 47.3396,47.0593 66.4011,34.7006 61.1645,16.8959 46.7113,-16.6188 10.6828,6.21315 10.4733,8.09835 10.2639,9.98353 15.5006,18.9907 16.9669,21.2948 l 9.2165,4.1893 6.0746,-3.5609 c -5.0272,9.426 -12.3586,12.149 -14.0344,14.2437 -0.8378,0.4189 2.3042,18.8521 2.0947,18.2237 z"
       style="fill:#000000;fill-opacity:0.3;fill-rule:evenodd;stroke:none" />
    <path
       transform="matrix(1.226628,0,0,1.25224,-3.373398,-10.63585)"
       sodipodi:ry="10.997026"
       sodipodi:rx="11.939625"
       sodipodi:cy="68.73909"
       sodipodi:cx="40.008221"
       d="m 51.947845,68.73909 a 11.939625,10.997026 0 1 1 -23.87925,0 11.939625,10.997026 0 1 1 23.87925,0 z"
       id="path575"
       style="fill:#000000;fill-opacity:0.3;fill-rule:evenodd;stroke:none"
       sodipodi:type="arc" />
    <path
       transform="matrix(1.102574,0,0,1.171428,-0.335725,-6.265821)"
       sodipodi:ry="10.997026"
       sodipodi:rx="11.939625"
       sodipodi:cy="68.73909"
       sodipodi:cx="40.008221"
       d="m 51.947845,68.73909 a 11.939625,10.997026 0 1 1 -23.87925,0 11.939625,10.997026 0 1 1 23.87925,0 z"
       id="path558"
       style="fill:#34674b;fill-opacity:1;fill-rule:evenodd;stroke:none"
       sodipodi:type="arc" />
    <path
       transform="translate(4.219115,4.470692)"
       sodipodi:nodetypes="ccccccccccc"
       id="path556"
       d="m 20.3183,54.3906 11.7301,6.703 C 34.981,60.4652 43.1502,57.3232 46.5017,55.019 45.2449,53.3432 44.826,50.2013 43.9881,47.8971 47.3396,47.0593 66.4011,34.7006 61.1645,16.8959 46.7113,-16.6188 10.6828,6.21315 10.4733,8.09835 10.2639,9.98353 15.5006,18.9907 16.9669,21.2948 l 9.2165,4.1893 6.0746,-3.5609 c -5.0272,9.426 -12.3586,12.149 -14.0344,14.2437 -0.8378,0.4189 2.3042,18.8521 2.0947,18.2237 z"
       style="fill:#34674b;fill-opacity:1;fill-rule:evenodd;stroke:none" />
    <path
       transform="translate(4.219115,4.470692)"
       sodipodi:nodetypes="ccccc"
       id="path553"
       d="m 24.2982,51.877 9.2165,-3.5609 8.1692,5.0271 -9.426,3.3515 z"
       style="fill:#2aaf18;fill-opacity:1;fill-rule:evenodd;stroke:none" />
    <path
       transform="translate(4.219115,4.470692)"
       sodipodi:nodetypes="ccccccc"
       id="path554"
       d="m 33.5147,48.316 c 0,0 7.3313,5.4462 7.5408,5.4462 0.2095,0 -1.6757,-7.7503 -1.6757,-7.7503 C 74.5702,22.9705 47.7585,7.88889 45.4544,5.79422 55.5089,24.4368 37.7041,38.8901 32.2579,43.0794 c -0.4189,3.3515 1.4663,5.8651 1.4663,5.8651 z"
       style="fill:#2aaf18;fill-opacity:1;fill-rule:evenodd;stroke:none" />
    <path
       transform="translate(4.219115,4.470692)"
       sodipodi:nodetypes="cccc"
       id="path557"
       d="m 18.4331,16.8959 c 2.9326,2.0948 8.7976,4.1894 8.7976,4.1894 L 37.7041,16.477 c -2.5136,-3.7704 -10.8923,-3.142 -19.271,0.4189 z"
       style="fill:#2aaf18;fill-opacity:1;fill-rule:evenodd;stroke:none" />
    <path
       sodipodi:nodetypes="ccccc"
       transform="matrix(1.003436,0,0,1.091012,2.269937,-1.679497)"
       id="path562"
       d="m 51.1099,70.2053 c 0,4.5672 -3.9882,8.2739 -8.9022,8.2739 -4.9142,0 -8.9024,-3.7067 -8.9024,-8.2739 0,-4.5672 11.1101,-1.7804 8.9024,-8.2739 4.914,0 8.9022,3.7067 8.9022,8.2739 z"
       style="font-size:12px;fill:#2aaf18;fill-opacity:1;fill-rule:evenodd;stroke-width:1pt" />
    <path
       id="path561"
       d="m 47.549,68.2154 c 0,4.1625 -3.7536,7.5408 -8.3786,7.5408 -4.6251,0 -8.3787,-3.3783 -8.3787,-7.5408 0,-4.1625 3.7536,-7.5408 8.3787,-7.5408 4.625,0 8.3786,3.3783 8.3786,7.5408 z"
       style="font-size:12px;fill:#7de813;fill-opacity:1;fill-rule:evenodd;stroke-width:1pt"
       transform="matrix(0.976369,0,0,1.122264,3.744994,-2.956772)" />
    <path
       transform="translate(4.219115,4.470692)"
       sodipodi:nodetypes="ccccccccc"
       id="path552"
       d="m 21.7846,38.0522 2.3041,14.2437 9.426,-3.3515 -1.0473,-5.865 c 0,0 24.0887,-14.6627 17.5952,-31.6296 C 43.5692,0.976467 31.839,-0.699263 15.71,10.4025 c 2.0947,3.3515 3.7704,7.9598 4.6083,7.9598 7.1218,-3.9799 17.5952,-6.4935 18.2237,0.4189 0.6284,3.142 -12.5681,18.852 -16.7574,19.271 z"
       style="fill:#7de813;fill-opacity:1;fill-rule:evenodd;stroke:none" />
  </g>
</svg>
