<?xml version="1.0" encoding="UTF-8" standalone="no"?>
<!-- Created with Sodipodi ("http://www.sodipodi.com/") -->
<svg
   xmlns:dc="http://purl.org/dc/elements/1.1/"
   xmlns:cc="http://web.resource.org/cc/"
   xmlns:rdf="http://www.w3.org/1999/02/22-rdf-syntax-ns#"
   xmlns:svg="http://www.w3.org/2000/svg"
   xmlns="http://www.w3.org/2000/svg"
   xmlns:xlink="http://www.w3.org/1999/xlink"
   xmlns:sodipodi="http://sodipodi.sourceforge.net/DTD/sodipodi-0.dtd"
   xmlns:inkscape="http://www.inkscape.org/namespaces/inkscape"
   id="svg604"
   sodipodi:version="0.32"
   width="90"
   height="90"
   sodipodi:docbase="/home/tweenk/GNUtoon/status"
   sodipodi:docname="task-past-due.svg"
   inkscape:version="0.45.1"
   inkscape:output_extension="org.inkscape.output.svg.inkscape"
   version="1.0">
  <metadata
     id="metadata23">
    <rdf:RDF>
      <cc:Work
         rdf:about="">
        <dc:format>image/svg+xml</dc:format>
        <dc:type
           rdf:resource="http://purl.org/dc/dcmitype/StillImage" />
      </cc:Work>
    </rdf:RDF>
  </metadata>
  <defs
     id="defs606">
    <linearGradient
       id="linearGradient671">
      <stop
         style="stop-color:#7fa8e3;stop-opacity:0.741176;"
         offset="0.000000"
         id="stop672" />
      <stop
         style="stop-color:#ffffff;stop-opacity:0;"
         offset="1.000000"
         id="stop673" />
    </linearGradient>
    <linearGradient
       id="linearGradient612">
      <stop
         style="stop-color:#955801;stop-opacity:0.4471;"
         offset="0"
         id="stop613" />
      <stop
         style="stop-color:#000500;stop-opacity:0;"
         offset="1"
         id="stop614" />
    </linearGradient>
    <linearGradient
       xlink:href="#linearGradient612"
       id="linearGradient615"
       x1="36.216915"
       y1="12.409"
       x2="37.964546"
       y2="72.903305"
       gradientUnits="userSpaceOnUse"
       spreadMethod="pad"
       gradientTransform="matrix(0.9890292,0,0,0.9890292,3.41915,-0.578827)" />
    <linearGradient
       inkscape:collect="always"
       xlink:href="#linearGradient671"
       id="linearGradient4604"
       gradientUnits="userSpaceOnUse"
       gradientTransform="matrix(0.9387648,0,0,0.9387648,-9.743077,-9.617398)"
       x1="36.216915"
       y1="12.409"
       x2="37.964546"
       y2="72.903305" />
  </defs>
  <sodipodi:namedview
     id="base"
     inkscape:zoom="5.6777778"
     inkscape:cx="45"
     inkscape:cy="45"
     inkscape:window-width="874"
     inkscape:window-height="723"
     inkscape:window-x="140"
     inkscape:window-y="6"
     inkscape:current-layer="svg604"
     width="90px"
     height="90px" />
  <path
     style="fill:#000000;fill-opacity:0.27981651;fill-rule:evenodd;stroke:none;stroke-width:1pt;stroke-linecap:butt;stroke-linejoin:miter;stroke-opacity:1"
     d="M 47.848509,5.297292 C 44.413512,5.407213 32.956134,7.411049 32.956134,7.411049 C 32.956134,7.411049 33.384834,9.397354 33.72477,11.158163 C 28.544338,11.912672 24.36746,12.581935 23.155985,12.791521 C 17.969792,13.529692 14.982689,15.655645 13.644079,18.556312 C 11.053436,22.240687 16.423296,75.123482 17.967672,80.719979 C 18.40562,86.259122 23.430933,88.356878 26.4227,88.406369 C 29.887392,87.737798 73.052184,79.604954 77.441106,78.029744 C 81.830097,76.454507 82.673841,71.651561 82.149018,68.229599 C 81.049128,65.308133 73.867794,15.700827 74.07831,13.27192 C 73.873551,8.805751 71.64027,8.109451 68.793918,7.218889 C 67.529808,6.823391 58.997055,7.844145 49.770108,9.044406 C 49.4973,7.532952 49.235337,5.74144 48.713229,5.393372 C 48.60555,5.321587 48.339225,5.281589 47.848509,5.297292 z "
     id="path2188" />
  <path
     style="fill:#7e0000;fill-opacity:1;fill-rule:evenodd;stroke:none;stroke-width:1pt;stroke-linecap:butt;stroke-linejoin:miter;stroke-opacity:1"
     d="M 20.957196,84.729437 C 17.965428,84.679946 12.94976,82.615799 12.511812,77.076662 C 10.967436,71.480162 5.598713,18.583664 8.189356,14.899289 C 9.527966,11.998622 12.442897,9.869272 17.629089,9.131101 C 21.872612,8.396969 60.472257,2.659627 63.318516,3.550129 C 66.164865,4.44069 68.406996,5.193736 68.611755,9.659905 C 68.401242,12.088811 75.570651,61.631195 76.670544,64.552658 C 77.195364,67.97462 76.333857,72.756614 71.944866,74.331854 C 67.555947,75.907064 24.421887,84.060866 20.957196,84.729437 z "
     id="path609"
     sodipodi:nodetypes="ccccccccc" />
  <path
     style="fill:#ffd056;fill-opacity:1;fill-rule:evenodd;stroke:none;stroke-width:1pt;stroke-linecap:butt;stroke-linejoin:miter;stroke-opacity:1"
     d="M 24.413569,78.862334 C 21.513011,79.294976 17.484009,80.199413 17.002756,75.718925 C 14.998773,65.1125 10.403982,23.076759 13.677983,16.245508 C 14.409232,14.639155 18.379437,12.458748 27.398047,11.548514 C 37.646757,10.383892 58.675539,8.612854 60.888459,8.727898 C 63.101265,8.842972 63.778236,8.559893 64.25955,13.040486 C 64.064079,17.804071 70.739724,55.068065 71.134089,61.665746 C 71.440947,66.349361 71.969031,68.33933 69.261399,69.471599"
     id="path608"
     sodipodi:nodetypes="cccccccs" />
  <path
     style="fill:url(#linearGradient615);fill-opacity:1;fill-rule:evenodd;stroke:none;stroke-width:1pt;stroke-linecap:butt;stroke-linejoin:miter;stroke-opacity:1"
     d="M 15.040782,22.000052 C 15.040782,22.000052 15.301648,15.643486 22.810633,14.377645 C 30.319608,13.111835 60.058416,8.797365 60.766998,11.000038 C 61.47555,13.202698 62.352801,27.517257 62.571591,28.675263 C 62.790384,29.833231 37.616004,39.735833 30.703254,49.186376 C 23.790484,58.636895 18.949152,66.284102 18.949152,66.284102 C 18.949152,66.284102 14.990687,32.953958 15.040782,22.000052 z "
     id="path636" />
  <path
     sodipodi:type="inkscape:offset"
     inkscape:radius="0.94735402"
     inkscape:original="M 18.4375 4.625 C 17.883254 4.5961862 12.629445 5.0520535 10.0625 5.34375 C 7.8036474 5.5717292 6.8081528 6.1289134 6.625 6.53125 C 6.3251344 7.1569254 6.3071272 8.9572432 6.40625 11.125 C 7.2177214 10.805712 7.872054 10.042759 8.5 9.3125 C 9.1120476 10.252085 8.7030465 10.643534 9.875 11.84375 C 10.272382 11.680122 12.296254 11.794765 12.0625 11 C 13.352813 10.588665 13.350937 12.751488 14.09375 12.34375 C 14.818388 11.665863 14.289869 10.264011 14.59375 9.65625 C 15.92615 10.17051 16.188245 10.401106 16.46875 11.40625 C 17.240139 11.897134 17.446616 10.991629 17.9375 10.78125 C 18.592011 11.529264 18.688493 11.453994 19.0625 11.78125 C 19.292209 11.469503 19.799527 11.403483 20 11.0625 C 19.612697 8.595848 19.258628 6.2700842 19.28125 5.71875 C 19.1607 4.5965155 18.991756 4.6538235 18.4375 4.625 z "
     style="fill:#283d53;fill-opacity:1;fill-rule:evenodd;stroke:none;stroke-width:1pt;stroke-linecap:butt;stroke-linejoin:miter;stroke-opacity:1"
     id="path4612"
     d="M 18.5,3.6875 C 18.154602,3.6695437 17.80582,3.7062094 17.1875,3.75 C 16.56918,3.7937906 15.79267,3.832546 14.9375,3.90625 C 13.22716,4.053658 11.269256,4.2584661 9.96875,4.40625 C 8.7764392,4.5265863 7.8866655,4.7371299 7.21875,5 C 6.5508345,5.2628701 6.0414055,5.4848618 5.75,6.125 C 5.4502059,6.7505263 5.4375093,7.3745343 5.40625,8.21875 C 5.3749907,9.0629657 5.4185224,10.057802 5.46875,11.15625 C 5.4823977,11.45956 5.640581,11.737957 5.8941532,11.904943 C 6.1477254,12.07193 6.4659662,12.107276 6.75,12 C 7.3305726,11.771563 7.8141511,11.416476 8.21875,11.03125 C 8.3895228,11.453821 8.6218325,11.920691 9.1875,12.5 C 9.4607488,12.788516 9.8850042,12.875863 10.25,12.71875 C 10.051539,12.800469 10.265776,12.711391 10.5,12.6875 C 10.734224,12.663609 11.058677,12.648514 11.375,12.59375 C 11.691323,12.538986 12.003775,12.485773 12.375,12.25 C 12.40584,12.230413 12.436977,12.179672 12.46875,12.15625 C 12.577015,12.343322 12.667395,12.573301 12.9375,12.875 C 13.072553,13.02585 13.270599,13.227649 13.59375,13.3125 C 13.916901,13.397351 14.314874,13.323424 14.5625,13.1875 C 14.631475,13.143718 14.694498,13.091199 14.75,13.03125 C 15.31659,12.501214 15.385252,11.856331 15.40625,11.3125 C 15.450793,11.399614 15.493765,11.40995 15.5625,11.65625 C 15.621917,11.888374 15.767077,12.089366 15.96875,12.21875 C 16.289044,12.422574 16.697133,12.524795 17.09375,12.46875 C 17.490367,12.412705 17.760166,12.224514 17.9375,12.0625 C 18.070527,12.159779 18.332402,12.408039 18.4375,12.5 C 18.63713,12.670071 18.898323,12.74979 19.158898,12.72018 C 19.419474,12.690569 19.65612,12.554277 19.8125,12.34375 C 19.748729,12.430296 19.806016,12.355365 20,12.25 C 20.193984,12.144635 20.548848,11.979693 20.8125,11.53125 C 20.925095,11.343604 20.969263,11.122767 20.9375,10.90625 C 20.744064,9.6742956 20.570013,8.4785801 20.4375,7.53125 C 20.304987,6.5839199 20.217976,5.7688592 20.21875,5.75 C 20.221502,5.7083788 20.221502,5.6666212 20.21875,5.625 C 20.153273,5.0154522 20.141335,4.5582279 19.6875,4.09375 C 19.460582,3.861511 19.144415,3.7538231 18.9375,3.71875 C 18.730585,3.6836769 18.619812,3.6937307 18.5,3.6875 z "
     transform="matrix(3,0,0,3,0.218811,-5.5621e-2)" />
  <path
     style="fill:#ffffff;fill-opacity:1;fill-rule:evenodd;stroke:none;stroke-width:1pt;stroke-linecap:butt;stroke-linejoin:miter;stroke-opacity:1"
     d="M 55.531311,13.819379 C 53.868573,13.732937 38.107146,15.100539 30.406311,15.975629 C 23.629753,16.659566 20.64327,18.331119 20.093811,19.538129 C 19.194214,21.415155 19.140193,26.816108 19.437561,33.319379 C 21.871975,32.361515 23.834973,30.072656 25.718811,27.881879 C 27.554954,30.700634 26.327951,31.874981 29.843811,35.475629 C 31.035957,34.984745 37.107573,35.328674 36.406311,32.944379 C 40.27725,31.710374 40.271622,38.198843 42.500061,36.975629 C 44.673975,34.941968 43.088418,30.736412 44.000061,28.913129 C 47.997261,30.455909 48.783546,31.147697 49.625061,34.163129 C 51.939228,35.635781 52.558659,32.919266 54.031311,32.288129 C 55.994844,34.532171 56.28429,34.306361 57.406311,35.288129 C 58.095438,34.352888 59.617392,34.154828 60.218811,33.131879 C 59.056902,25.731923 57.994695,18.754631 58.062561,17.100629 C 57.700911,13.733925 57.194079,13.905849 55.531311,13.819379 z "
     id="path704" />
  <path
     style="fill:url(#linearGradient4604);fill-opacity:1;fill-rule:evenodd;stroke:none;stroke-width:1pt;stroke-linecap:butt;stroke-linejoin:miter;stroke-opacity:1"
     d="M 51.125061,15.600629 C 44.351274,15.858754 30.700473,17.793532 26.468811,18.506879 C 20.826592,19.458017 20.656311,24.31938 20.656311,24.319379 C 20.647351,26.278459 20.779711,29.175898 21.031311,32.475629 C 22.751014,31.330415 24.256903,29.581978 25.718811,27.881879 C 27.554954,30.700634 26.327951,31.874981 29.843811,35.475629 C 31.035957,34.984745 37.107573,35.328674 36.406311,32.944379 C 40.035318,31.787498 40.274532,37.372691 42.125061,37.069379 C 42.186234,37.033262 42.251292,37.011605 42.312561,36.975629 C 42.410895,36.917891 42.49527,36.845495 42.593811,36.788129 C 44.553984,34.709603 43.109067,30.695111 44.000061,28.913129 C 47.445309,30.242876 48.472884,31.031822 49.250061,33.131879 C 53.136159,31.153484 56.440239,29.632923 56.375061,29.288129 C 56.210742,28.418008 55.501194,17.630701 54.968811,15.975629 C 54.835716,15.561859 53.38299,15.514587 51.125061,15.600629 z "
     id="path705" />
  <path
     style="fill:#4e4e4e;fill-opacity:1;fill-rule:evenodd;stroke:none;stroke-width:1pt;stroke-linecap:butt;stroke-linejoin:miter;stroke-opacity:1"
     d="M 27.475864,3.74249 C 27.475864,3.74249 42.407037,1.158247 43.268448,1.732522 C 44.129868,2.306796 44.129859,6.901007 44.991273,7.475281 C 45.852687,8.049557 50.159757,7.188139 50.734035,8.33669 C 51.308307,9.48524 51.882579,14.366588 51.882579,14.366588 L 24.317356,18.673656 C 24.317356,18.673656 20.584559,13.792308 23.455941,12.069486 C 26.327323,10.346654 28.624426,11.20807 28.624426,9.772382 C 28.624426,8.33669 27.475864,3.74249 27.475864,3.74249 z "
     id="path674" />
  <path
     style="fill:#a4a4a4;fill-opacity:1;fill-rule:evenodd;stroke:none;stroke-width:1pt;stroke-linecap:butt;stroke-linejoin:miter;stroke-opacity:1"
     d="M 28.978182,4.608595 C 28.978182,4.608595 41.584989,2.373049 42.312312,2.869828 C 43.039638,3.36662 42.752496,8.202348 43.479819,8.699138 C 44.207136,9.195928 48.130851,7.589325 48.615735,8.582896 C 49.100604,9.576477 49.011195,11.502079 49.29834,13.22491 L 26.598495,16.950815 C 25.73709,15.802264 23.733938,13.876671 26.158316,12.386312 C 28.582719,10.895943 31.096497,11.066846 31.096497,9.824872 C 31.096497,8.582896 28.978182,4.608595 28.978182,4.608595 z "
     id="path675"
     sodipodi:nodetypes="ccccccccc" />
  <path
     style="fill:#f8f8f8;fill-opacity:1;fill-rule:evenodd;stroke:none;stroke-width:1pt;stroke-linecap:butt;stroke-linejoin:miter;stroke-opacity:1"
     d="M 47.575509,9.772382 L 47.862642,12.930901 L 28.911559,15.802273 C 28.911559,15.802273 46.714101,13.218037 47.575509,9.772382 z "
     id="path676" />
  <path
     style="fill:#656565;fill-opacity:1;fill-rule:evenodd;stroke:none;stroke-width:1pt;stroke-linecap:butt;stroke-linejoin:miter;stroke-opacity:1"
     d="M 30.347244,5.178182 L 32.357214,9.198106 C 32.357214,9.198106 25.465898,12.356621 25.465898,13.505172 C 25.465898,14.653723 27.475864,16.376554 27.475864,16.376554 L 29.485831,15.802273 C 29.485831,15.802273 27.188727,14.366588 28.337279,13.218037 C 29.485831,12.069486 35.802864,11.20806 34.654314,8.910964 C 33.505761,6.613865 30.921516,4.89104 30.347244,5.178182 z "
     id="path677" />
</svg>
