<?xml version="1.0" encoding="UTF-8" standalone="no"?>
<!-- Created with Sodipodi ("http://www.sodipodi.com/") -->
<svg
   xmlns:dc="http://purl.org/dc/elements/1.1/"
   xmlns:cc="http://web.resource.org/cc/"
   xmlns:rdf="http://www.w3.org/1999/02/22-rdf-syntax-ns#"
   xmlns:svg="http://www.w3.org/2000/svg"
   xmlns="http://www.w3.org/2000/svg"
   xmlns:xlink="http://www.w3.org/1999/xlink"
   xmlns:sodipodi="http://sodipodi.sourceforge.net/DTD/sodipodi-0.dtd"
   xmlns:inkscape="http://www.inkscape.org/namespaces/inkscape"
   version="1"
   x="0.00000000"
   y="0.00000000"
   width="90.0000000"
   height="90.0000000"
   id="svg548"
   sodipodi:version="0.32"
   sodipodi:docname="audio-input-microphone.svg"
   sodipodi:docbase="/home/tweenk/GNUtoon/devices"
   inkscape:version="0.45.1"
   inkscape:output_extension="org.inkscape.output.svg.inkscape">
  <metadata
     id="metadata27">
    <rdf:RDF>
      <cc:Work
         rdf:about="">
        <dc:format>image/svg+xml</dc:format>
        <dc:type
           rdf:resource="http://purl.org/dc/dcmitype/StillImage" />
      </cc:Work>
    </rdf:RDF>
  </metadata>
  <sodipodi:namedview
     id="base"
     inkscape:zoom="4.5222222"
     inkscape:cx="26.245324"
     inkscape:cy="55.71788"
     inkscape:window-width="795"
     inkscape:window-height="623"
     inkscape:window-x="114"
     inkscape:window-y="72"
     inkscape:current-layer="svg548" />
  <defs
     id="defs550">
    <linearGradient
       id="linearGradient604">
      <stop
         offset="0"
         style="stop-color:#ffffff;stop-opacity:1;"
         id="stop606" />
      <stop
         offset="1"
         style="stop-color:#9b9a9a;stop-opacity:1;"
         id="stop605" />
    </linearGradient>
    <linearGradient
       inkscape:collect="always"
       xlink:href="#linearGradient604"
       id="linearGradient9638"
       x1="51.964485"
       y1="14.07803"
       x2="39.548386"
       y2="47.945545"
       gradientUnits="userSpaceOnUse"
       gradientTransform="matrix(1.0644271,0,0,0.9523709,-0.6693526,2.559431)" />
    <linearGradient
       inkscape:collect="always"
       xlink:href="#linearGradient604"
       id="linearGradient11592"
       x1="68.852676"
       y1="32.317509"
       x2="13.948468"
       y2="50.803577"
       gradientUnits="userSpaceOnUse"
       gradientTransform="matrix(1.0644271,0,0,0.9523709,-0.6693526,2.559431)" />
    <radialGradient
       inkscape:collect="always"
       xlink:href="#linearGradient604"
       id="radialGradient11602"
       cx="53.914089"
       cy="60.499046"
       fx="53.914089"
       fy="60.499046"
       r="28.415249"
       gradientTransform="matrix(1.3200297,0.4190809,-0.3391441,0.8551652,4.5171832,1.2794157)"
       gradientUnits="userSpaceOnUse"
       spreadMethod="pad" />
  </defs>
  <path
     style="fill:#383e49;fill-opacity:1;fill-rule:evenodd;stroke:none;stroke-width:1px;stroke-linecap:butt;stroke-linejoin:miter;stroke-opacity:1"
     d="M 36.334356,64.882633 C 25.122007,66.730846 15.560774,73.498077 13.264,81.63507 C 20.320723,92.54217 73.41141,91.969606 79.476691,82.184065 C 79.257789,74.942895 73.131294,67.397237 59.80655,64.863129 C 66.386551,61.567397 67.960048,57.787829 70.284936,52.899653 C 72.90564,47.389511 75.692292,21.857758 67.431802,12.124195 C 57.848562,-3.0902042 31.897732,-2.523215 21.742548,12.787586 C 11.191265,19.374175 15.086614,46.411637 19.457656,53.9201 C 24.743245,62.999547 32.793919,63.555851 36.334356,64.882633 z "
     id="path3806"
     sodipodi:nodetypes="ccccsccsc" />
  <path
     style="fill:url(#linearGradient11592);fill-opacity:1;fill-rule:evenodd;stroke:none;stroke-width:1px;stroke-linecap:butt;stroke-linejoin:miter;stroke-opacity:1"
     d="M 43.298832,74.264944 C 44.052854,70.363637 45.635511,66.639203 44.711094,62.20028 C 38.370162,61.62639 24.767273,56.274079 22.114903,46.676608 C 19.097202,35.757206 18.745959,19.115039 23.762542,19.088272 C 30.591226,19.050581 25.143393,38.801027 31.101968,47.308402 C 41.688783,62.42376 60.071522,56.711319 63.819372,47.339999 C 67.048054,39.266833 67.307286,27.680709 64.511255,16.750631 C 68.130772,16.555297 74.132274,56.263164 53.65542,61.629065 C 55.067681,66.472818 55.773812,69.631788 54.832305,73.843748 C 51.301651,77.213315 45.887979,74.896738 43.298832,74.264944 z "
     id="path2817"
     sodipodi:nodetypes="ccsssscccc" />
  <path
     style="fill:url(#linearGradient9638);fill-opacity:1;fill-rule:evenodd;stroke:none;stroke-width:1px;stroke-linecap:butt;stroke-linejoin:miter;stroke-opacity:1"
     d="M 24.233296,17.614087 C 25.513447,14.393369 28.349251,11.717586 31.940324,9.7737033 C 43.229386,10.851064 42.022401,27.301393 42.565432,31.191756 C 43.491634,32.781757 45.469287,32.043423 45.627938,31.193745 C 46.17373,30.940607 46.369616,8.351821 35.053686,8.3414795 C 36.174977,7.913054 38.046676,7.3278704 39.237571,7.01342 C 50.884938,7.9120359 49.659357,27.231324 50.37444,30.485203 C 50.964654,31.94533 53.151555,31.689912 53.476217,30.549904 C 54.231058,30.403787 55.117199,7.5360718 43.108523,6.3353019 C 44.13143,6.2073512 45.155371,6.1268826 46.169304,6.0975649 C 56.989096,6.5053674 57.963298,24.008512 57.379694,29.981709 C 57.839399,31.487566 59.758053,31.397265 60.309283,30.0345 C 60.870533,23.846489 60.471966,7.0199802 50.069003,6.2529398 C 56.093583,6.9410142 60.715523,9.9261644 62.651971,15.68834 C 65.264868,23.463385 68.665468,49.002123 54.002108,53.678719 C 42.727092,57.274668 35.877928,50.189369 33.373131,46.585674 C 27.907526,38.722213 33.612874,17.541972 24.233296,17.614087 z "
     id="path2819"
     sodipodi:nodetypes="cccccccccccccsssc" />
  <path
     style="fill:url(#radialGradient11602);fill-opacity:1;fill-rule:evenodd;stroke:none;stroke-width:1px;stroke-linecap:butt;stroke-linejoin:miter;stroke-opacity:1"
     d="M 43.03496,69.010526 C 35.017829,68.152876 21.922141,73.295467 18.91567,80.769403 C 25.763275,87.848646 70.086863,87.242828 73.779607,80.552243 C 72.527216,73.635844 60.962208,69.006509 56.065737,69.418878 C 55.829808,71.345258 55.497204,73.191221 54.580708,74.388445 C 51.81855,76.289659 45.476717,77.31338 41.261634,74.879801 C 41.593526,72.490533 42.36081,70.7761 43.03496,69.010526 z "
     id="path3797"
     sodipodi:nodetypes="ccccccc" />
</svg>
