<?xml version="1.0" encoding="UTF-8" standalone="no"?>
<!-- Created with Sodipodi ("http://www.sodipodi.com/") -->

<svg
   xmlns:dc="http://purl.org/dc/elements/1.1/"
   xmlns:cc="http://creativecommons.org/ns#"
   xmlns:rdf="http://www.w3.org/1999/02/22-rdf-syntax-ns#"
   xmlns:svg="http://www.w3.org/2000/svg"
   xmlns="http://www.w3.org/2000/svg"
   xmlns:xlink="http://www.w3.org/1999/xlink"
   xmlns:sodipodi="http://sodipodi.sourceforge.net/DTD/sodipodi-0.dtd"
   xmlns:inkscape="http://www.inkscape.org/namespaces/inkscape"
   id="svg695"
   sodipodi:version="0.32"
   width="72pt"
   height="72pt"
   sodipodi:docname="drive-harddisk.svg"
   version="1.1"
   inkscape:version="0.47pre1 r21720"
   inkscape:output_extension="org.inkscape.output.svg.inkscape">
  <metadata
     id="metadata41">
    <rdf:RDF>
      <cc:Work
         rdf:about="">
        <dc:format>image/svg+xml</dc:format>
        <dc:type
           rdf:resource="http://purl.org/dc/dcmitype/StillImage" />
        <dc:title></dc:title>
      </cc:Work>
    </rdf:RDF>
  </metadata>
  <defs
     id="defs697">
    <linearGradient
       id="linearGradient59">
      <stop
         style="stop-color:#b3cbef;stop-opacity:1"
         offset="0.000000"
         id="stop61" />
      <stop
         id="stop65"
         offset="0.35850754"
         style="stop-color:#ffffff;stop-opacity:1" />
      <stop
         style="stop-color:#b3cbef;stop-opacity:1"
         offset="1.000000"
         id="stop63" />
    </linearGradient>
    <linearGradient
       inkscape:collect="always"
       id="linearGradient51">
      <stop
         style="stop-color:#ffffff;stop-opacity:1;"
         offset="0"
         id="stop53" />
      <stop
         style="stop-color:#ffffff;stop-opacity:0;"
         offset="1"
         id="stop55" />
    </linearGradient>
    <linearGradient
       id="linearGradient45">
      <stop
         id="stop47"
         offset="0.000000"
         style="stop-color:#b3cbef;stop-opacity:1" />
      <stop
         id="stop49"
         offset="1.000000"
         style="stop-color:#ffffff;stop-opacity:1" />
    </linearGradient>
    <linearGradient
       xlink:href="#linearGradient59"
       id="linearGradient719"
       x1="11.371838"
       y1="68.134689"
       x2="51.88517"
       y2="115.05104"
       gradientUnits="userSpaceOnUse"
       gradientTransform="matrix(1.6071502,0,0,0.88140221,-1.3640299,-53.624807)"
       spreadMethod="pad" />
    <linearGradient
       xlink:href="#linearGradient45"
       id="linearGradient721"
       x1="24.39395"
       y1="79.008072"
       x2="28.610975"
       y2="64.148209"
       gradientUnits="userSpaceOnUse"
       spreadMethod="pad"
       gradientTransform="matrix(1.0605012,0,0,1.3357321,-1.36403,-40.086672)" />
    <linearGradient
       xlink:href="#linearGradient45"
       id="linearGradient725"
       x1="40.272129"
       y1="87.384666"
       x2="46.2594757"
       y2="115.265465"
       gradientUnits="userSpaceOnUse"
       gradientTransform="matrix(1.5115792,0,0,0.93712927,-1.36403,-40.086672)"
       spreadMethod="pad" />
    <linearGradient
       inkscape:collect="always"
       xlink:href="#linearGradient51"
       id="linearGradient57"
       x1="24.3985"
       y1="38.18615"
       x2="63.0463"
       y2="38.18615"
       gradientUnits="userSpaceOnUse"
       gradientTransform="translate(2.368737,-10.131191)" />
  </defs>
  <sodipodi:namedview
     id="base"
     showgrid="false"
     inkscape:zoom="5.2444444"
     inkscape:cx="44.141872"
     inkscape:cy="42.068628"
     inkscape:window-width="1024"
     inkscape:window-height="737"
     inkscape:window-x="0"
     inkscape:window-y="1"
     inkscape:window-maximized="1"
     inkscape:current-layer="svg695" />
  <path
     style="font-size:12px;fill:#000000;fill-opacity:0.3;fill-rule:evenodd;stroke-width:1pt"
     d="m 1.3483089,24.030554 c -1.39226447,7.446411 -0.58621768,26.772328 0.4396583,33.58952 9.7457518,9.019533 23.8881558,19.297791 37.1513218,31.778533 15.607899,-5.45381 32.321857,-9.334357 48.149614,-12.585541 -0.659478,-9.229416 -0.879337,-29.079611 0,-37.994345 C 83.791416,35.042973 45.534064,9.5570677 42.456536,7.3547262 22.891673,3.8936598 1.568138,20.884168 1.3483089,24.030554 z"
     id="path780"
     sodipodi:nodetypes="ccccccc" />
  <path
     style="font-size:12px;fill:#3d4e67;fill-rule:evenodd;stroke-width:1pt"
     d="M 3.6920599,17.83352 C 2.2997955,25.279932 3.1058422,46.32195 4.1317182,53.139142 13.87747,62.158675 28.019874,72.436933 41.28304,84.917675 c 15.607899,-5.45381 32.321857,-9.334357 48.149614,-12.585541 -0.659478,-9.229416 -0.879337,-30.795713 0,-39.710447 C 86.135167,28.845939 47.877815,3.3600342 44.800287,1.1576927 25.235424,-2.3033737 3.911889,14.687135 3.6920599,17.83352 z"
     id="path726"
     sodipodi:nodetypes="ccccccc" />
  <path
     style="font-size:12px;fill:url(#linearGradient725);fill-rule:evenodd;stroke-width:1pt"
     d="m 43.17403,49.659893 c 0,3.880547 0,23.206009 0,27.086555 13.629465,-3.670806 26.686897,-8.29486 40.316363,-11.965667 -0.14654,-4.824448 0.366299,-23.501854 0.219759,-28.326302 C 66.70998,38.552022 52.040514,43.157383 43.17403,49.659893 z"
     id="path724"
     sodipodi:nodetypes="ccccc" />
  <path
     style="font-size:12px;fill:url(#linearGradient719);fill-rule:evenodd;stroke-width:1pt"
     d="M 8.5283207,20.09319 C 21.425,30.476389 29.514648,37.589058 42.411317,47.972115 52.124723,40.44954 71.18145,35.529639 82.404588,34.871726 67.016449,23.335028 59.528848,18.729809 44.14071,7.1929678 31.756979,4.1515239 19.373248,10.549093 8.5283207,20.09319 z"
     id="path718"
     sodipodi:nodetypes="ccccc" />
  <path
     style="font-size:12px;fill:url(#linearGradient721);fill-rule:evenodd;stroke-width:1pt"
     d="M 8.2131527,22.715183 C 19.131369,31.734858 29.676146,40.220654 41.25386,49.869549 41.32718,54.693997 41.20972,71.912512 41.28304,76.736959 30.291484,67.297804 19.872062,58.62136 8.8805258,49.182204 8.221038,45.091918 8.2872259,25.976084 8.2131527,22.715183 z"
     id="path720"
     sodipodi:nodetypes="ccccc" />
  <path
     style="font-size:12px;fill:url(#linearGradient57);fill-rule:evenodd;stroke:#3d4e67;stroke-width:2.875"
     d="m 63.977537,28.054909 c 0,6.5039 -8.0131,11.7824 -17.8864,11.7824 -9.8733,0 -17.8864,-5.2785 -17.8864,-11.7824 0,-6.5038 8.0131,-11.7823 17.8864,-11.7823 9.8733,0 17.8864,5.2785 17.8864,11.7823 z"
     id="path584" />
  <path
     style="fill:none;stroke:#3d4e67;stroke-width:2.39740181;stroke-linecap:butt;stroke-linejoin:miter;stroke-miterlimit:4;stroke-opacity:1;stroke-dasharray:none"
     d="M 47.618193,52.678418 C 57.804461,47.867769 70.726522,44.195488 79.75469,43.232599"
     id="path839"
     sodipodi:nodetypes="cs" />
  <use
     x="0"
     y="0"
     xlink:href="#path839"
     id="use841"
     transform="translate(-0.19067797,6.6737288)"
     width="90"
     height="90" />
  <use
     height="90"
     width="90"
     transform="translate(0,12.966101)"
     id="use843"
     xlink:href="#path839"
     y="0"
     x="0" />
  <path
     sodipodi:type="arc"
     style="fill:#2aaf18;fill-opacity:1;stroke:none"
     id="path845"
     sodipodi:cx="51.387711"
     sodipodi:cy="74.173729"
     sodipodi:rx="3.9088984"
     sodipodi:ry="2.8601694"
     d="m 55.296609,74.173729 a 3.9088984,2.8601694 0 1 1 -7.817797,0 3.9088984,2.8601694 0 1 1 7.817797,0 z"
     transform="matrix(0.65853659,0,0,0.83333333,15.640243,9.0254242)" />
  <path
     transform="matrix(0.65853659,0,0,0.83333333,22.313972,6.7372886)"
     d="m 55.296609,74.173729 a 3.9088984,2.8601694 0 1 1 -7.817797,0 3.9088984,2.8601694 0 1 1 7.817797,0 z"
     sodipodi:ry="2.8601694"
     sodipodi:rx="3.9088984"
     sodipodi:cy="74.173729"
     sodipodi:cx="51.387711"
     id="path847"
     style="fill:#ed0000;fill-opacity:1;stroke:none"
     sodipodi:type="arc" />
</svg>
