<?xml version="1.0" encoding="UTF-8" standalone="no"?>
<!-- Created with Sodipodi ("http://www.sodipodi.com/") -->
<svg
   xmlns:dc="http://purl.org/dc/elements/1.1/"
   xmlns:cc="http://web.resource.org/cc/"
   xmlns:rdf="http://www.w3.org/1999/02/22-rdf-syntax-ns#"
   xmlns:svg="http://www.w3.org/2000/svg"
   xmlns="http://www.w3.org/2000/svg"
   xmlns:xlink="http://www.w3.org/1999/xlink"
   xmlns:sodipodi="http://sodipodi.sourceforge.net/DTD/sodipodi-0.dtd"
   xmlns:inkscape="http://www.inkscape.org/namespaces/inkscape"
   id="svg704"
   sodipodi:version="0.32"
   width="72pt"
   height="72pt"
   sodipodi:docbase="/home/tweenk/GNUtoon additions/devices"
   sodipodi:docname="printer-remote.svg"
   inkscape:version="0.45.1"
   inkscape:output_extension="org.inkscape.output.svg.inkscape">
  <metadata
     id="metadata2498">
    <rdf:RDF>
      <cc:Work
         rdf:about="">
        <dc:format>image/svg+xml</dc:format>
        <dc:type
           rdf:resource="http://purl.org/dc/dcmitype/StillImage" />
      </cc:Work>
    </rdf:RDF>
  </metadata>
  <defs
     id="defs706">
    <linearGradient
       xlink:href="#linearGradient585"
       id="linearGradient588"
       x1="18.5747337"
       y1="70.6098175"
       x2="21.0069866"
       y2="44.9572525"
       gradientUnits="userSpaceOnUse"
       spreadMethod="pad"
       gradientTransform="matrix(0.7238691,0,0,1.1965901,-22.312881,-32.630505)" />
    <linearGradient
       id="linearGradient585">
      <stop
         style="stop-color:#5cb2ff;stop-opacity:1;"
         offset="0.000000"
         id="stop586" />
      <stop
         style="stop-color:#ffffff;stop-opacity:1;"
         offset="1.000000"
         id="stop587" />
    </linearGradient>
    <linearGradient
       xlink:href="#linearGradient585"
       id="linearGradient584"
       x1="38.9676552"
       y1="112.427650"
       x2="34.3394775"
       y2="55.2668114"
       gradientUnits="userSpaceOnUse"
       spreadMethod="pad"
       gradientTransform="matrix(1.0306471,0,0,0.8404179,-22.312881,-32.630505)" />
    <linearGradient
       xlink:href="#linearGradient562"
       id="linearGradient565"
       x1="30.5917225"
       y1="65.8304825"
       x2="18.4360981"
       y2="42.3886795"
       gradientUnits="userSpaceOnUse"
       spreadMethod="pad"
       gradientTransform="matrix(1.2315997,0,0,0.7032926,-22.312881,-32.630505)" />
    <linearGradient
       xlink:href="#linearGradient562"
       id="linearGradient567"
       x1="24.9874783"
       y1="44.9967537"
       x2="33.7596359"
       y2="60.7528610"
       gradientUnits="userSpaceOnUse"
       spreadMethod="pad"
       gradientTransform="matrix(1.4776895,0,0,0.5861677,-22.312881,-32.630505)" />
    <linearGradient
       id="linearGradient562">
      <stop
         style="stop-color:#000;stop-opacity:1;"
         offset="0"
         id="stop563" />
      <stop
         style="stop-color:#fff;stop-opacity:1;"
         offset="1"
         id="stop564" />
    </linearGradient>
    <linearGradient
       xlink:href="#linearGradient562"
       id="linearGradient580"
       x1="39.172943"
       y1="59.184306"
       x2="39.539939"
       y2="68.907069"
       gradientUnits="userSpaceOnUse"
       spreadMethod="pad"
       gradientTransform="matrix(1.1440961,-0.3597427,0.2417862,0.874302,-36.288054,-25.547174)" />
    <linearGradient
       id="linearGradient569">
      <stop
         style="stop-color:#ff3a00;stop-opacity:1;"
         offset="0.000000"
         id="stop570" />
      <stop
         style="stop-color:#370000;stop-opacity:1;"
         offset="1.000000"
         id="stop571" />
    </linearGradient>
    <radialGradient
       xlink:href="#linearGradient569"
       id="radialGradient573"
       cx="39.9771919"
       cy="62.0348434"
       fx="39.9771919"
       fy="62.0348434"
       r="2.87974644"
       gradientUnits="userSpaceOnUse"
       spreadMethod="pad"
       gradientTransform="matrix(1.0544809,-0.3109484,0.2228462,0.7557106,-31.914238,-20.439848)" />
    <linearGradient
       id="linearGradient576">
      <stop
         style="stop-color:#ffffff;stop-opacity:1;"
         offset="0.000000"
         id="stop577" />
      <stop
         style="stop-color:#370000;stop-opacity:0;"
         offset="1.000000"
         id="stop578" />
    </linearGradient>
    <linearGradient
       xlink:href="#linearGradient576"
       id="linearGradient568"
       x1="49.882922"
       y1="51.590988"
       x2="48.923111"
       y2="54.509055"
       gradientUnits="userSpaceOnUse"
       spreadMethod="pad"
       gradientTransform="matrix(0.9671923,0,0,0.8955556,-22.995605,-33.176683)" />
    <linearGradient
       id="linearGradient1341">
      <stop
         style="stop-color:#545554;stop-opacity:1;"
         offset="0.000000"
         id="stop1342" />
      <stop
         style="stop-color:#ffffff;stop-opacity:1;"
         offset="1.000000"
         id="stop1343" />
    </linearGradient>
    <linearGradient
       id="linearGradient734">
      <stop
         style="stop-color:#2a2535;stop-opacity:1;"
         offset="0.000000"
         id="stop735" />
      <stop
         style="stop-color:#e3e1cf;stop-opacity:1;"
         offset="1.000000"
         id="stop736" />
    </linearGradient>
    <linearGradient
       id="linearGradient724">
      <stop
         style="stop-color:#ffffff;stop-opacity:0.490196;"
         offset="0.000000"
         id="stop725" />
      <stop
         style="stop-color:#ffffff;stop-opacity:0.176471;"
         offset="1.000000"
         id="stop726" />
    </linearGradient>
    <linearGradient
       id="linearGradient718">
      <stop
         style="stop-color:#e3e1cf;stop-opacity:1;"
         offset="0.000000"
         id="stop719" />
      <stop
         style="stop-color:#ffffff;stop-opacity:1;"
         offset="1.000000"
         id="stop720" />
    </linearGradient>
    <linearGradient
       xlink:href="#linearGradient718"
       id="linearGradient721"
       x1="45.4330635"
       y1="41.9262352"
       x2="24.0375099"
       y2="27.2048512"
       gradientUnits="userSpaceOnUse"
       spreadMethod="pad"
       gradientTransform="scale(1.033999,0.967119)" />
    <linearGradient
       xlink:href="#linearGradient724"
       id="linearGradient723"
       x1="40.2607956"
       y1="39.8445053"
       x2="37.3197212"
       y2="68.6665039"
       gradientUnits="userSpaceOnUse"
       spreadMethod="pad"
       gradientTransform="scale(1.185464,0.843551)" />
    <linearGradient
       xlink:href="#linearGradient1341"
       id="linearGradient732"
       x1="50.9139214"
       y1="48.5837708"
       x2="36.7141457"
       y2="33.2703362"
       gradientUnits="userSpaceOnUse"
       spreadMethod="reflect"
       gradientTransform="scale(0.992891,1.007159)" />
    <radialGradient
       xlink:href="#linearGradient734"
       id="radialGradient733"
       cx="33.2134209"
       cy="118.190964"
       fx="33.2134209"
       fy="118.190964"
       r="14.8945398"
       gradientUnits="userSpaceOnUse"
       spreadMethod="pad"
       gradientTransform="scale(1.559286,0.641319)" />
    <radialGradient
       xlink:href="#linearGradient734"
       id="radialGradient738" />
    <linearGradient
       xlink:href="#linearGradient1341"
       id="linearGradient1345" />
    <radialGradient
       inkscape:collect="always"
       xlink:href="#linearGradient734"
       id="radialGradient2500"
       gradientUnits="userSpaceOnUse"
       gradientTransform="scale(1.559286,0.641319)"
       spreadMethod="pad"
       cx="33.2134209"
       cy="118.190964"
       fx="33.2134209"
       fy="118.190964"
       r="14.8945398" />
    <linearGradient
       inkscape:collect="always"
       xlink:href="#linearGradient718"
       id="linearGradient2502"
       gradientUnits="userSpaceOnUse"
       gradientTransform="scale(1.033999,0.967119)"
       spreadMethod="pad"
       x1="45.4330635"
       y1="41.9262352"
       x2="24.0375099"
       y2="27.2048512" />
    <linearGradient
       inkscape:collect="always"
       xlink:href="#linearGradient724"
       id="linearGradient2504"
       gradientUnits="userSpaceOnUse"
       gradientTransform="scale(1.185464,0.843551)"
       spreadMethod="pad"
       x1="40.2607956"
       y1="39.8445053"
       x2="37.3197212"
       y2="68.6665039" />
    <radialGradient
       inkscape:collect="always"
       xlink:href="#linearGradient734"
       id="radialGradient2506"
       gradientUnits="userSpaceOnUse"
       gradientTransform="scale(1.559286,0.641319)"
       spreadMethod="pad"
       cx="33.2134209"
       cy="118.190964"
       fx="33.2134209"
       fy="118.190964"
       r="14.8945398" />
    <linearGradient
       inkscape:collect="always"
       xlink:href="#linearGradient718"
       id="linearGradient2508"
       gradientUnits="userSpaceOnUse"
       gradientTransform="scale(1.033999,0.967119)"
       spreadMethod="pad"
       x1="45.4330635"
       y1="41.9262352"
       x2="24.0375099"
       y2="27.2048512" />
    <linearGradient
       inkscape:collect="always"
       xlink:href="#linearGradient724"
       id="linearGradient2510"
       gradientUnits="userSpaceOnUse"
       gradientTransform="scale(1.185464,0.843551)"
       spreadMethod="pad"
       x1="40.2607956"
       y1="39.8445053"
       x2="37.3197212"
       y2="68.6665039" />
  </defs>
  <sodipodi:namedview
     id="base"
     inkscape:zoom="0.56527778"
     inkscape:cx="415.03335"
     inkscape:cy="-85.810971"
     inkscape:window-width="795"
     inkscape:window-height="623"
     inkscape:window-x="106"
     inkscape:window-y="103"
     inkscape:current-layer="svg704" />
  <g
     id="g1350"
     transform="matrix(-0.9932628,-0.1158846,0.1158846,-0.9932628,84.60306,99.460807)">
    <path
       style="fill:none;fill-opacity:1;fill-rule:evenodd;stroke:#818181;stroke-width:3.375;stroke-linecap:butt;stroke-linejoin:miter;stroke-dasharray:none;stroke-opacity:1"
       d="M 77.5079,41.1672 C 85.1735,45.4259 88.0125,71.2177 68.9905,68.1388 C 47.0476,64.6331 57.918,87.1609 34.3533,78.0757"
       id="path1347"
       sodipodi:nodetypes="css"
       transform="translate(3.974767,3.974762)" />
    <path
       style="fill:none;fill-opacity:1;fill-rule:evenodd;stroke:#565656;stroke-width:1.125;stroke-linecap:butt;stroke-linejoin:miter;stroke-dasharray:none;stroke-opacity:1"
       d="M 77.7918,38.8959 C 85.4574,43.1546 88.0125,71.2177 68.9905,68.1388 C 47.0476,64.6331 57.918,87.1609 34.3533,78.0757"
       id="path1348"
       sodipodi:nodetypes="css"
       transform="translate(5.110407,5.394316)" />
    <path
       style="fill:none;fill-opacity:1;fill-rule:evenodd;stroke:#d7d7d7;stroke-width:0.875;stroke-linecap:butt;stroke-linejoin:miter;stroke-dasharray:none;stroke-opacity:1"
       d="M 77.5079,41.1672 C 85.1735,45.4259 88.0125,71.2177 68.9905,68.1388 C 47.0476,64.6331 57.918,87.1609 34.3533,78.0757"
       id="path1349"
       sodipodi:nodetypes="css"
       transform="translate(3.974767,3.974762)" />
  </g>
  <g
     id="g1262"
     transform="matrix(0.5527657,0,0,0.5527657,51.183297,-6.7127893)">
    <path
       transform="matrix(1.010086,0.132643,-0.112456,1.191397,-6.20964,-26.79529)"
       style="font-size:12px;fill:#000000;fill-opacity:0.3;fill-rule:evenodd;stroke-width:1pt"
       d="M 67.6563,79.6875 C 67.6563,84.0863 58.9763,87.6563 48.2813,87.6563 C 37.5863,87.6563 28.9063,84.0863 28.9063,79.6875 C 28.9063,75.2887 37.5863,71.7187 48.2813,71.7187 C 58.9763,71.7187 67.6563,75.2887 67.6563,79.6875 z "
       id="path744" />
    <path
       style="fill:#000000;fill-opacity:0.3;fill-rule:evenodd;stroke:none;stroke-width:1pt;stroke-linecap:butt;stroke-linejoin:miter;stroke-opacity:1"
       d="M 11.9721,61.9975 C 10.1055,59.3328 1.05153,37.445 8.81341,5.71367 C 40.7348,-0.836156 68.3995,11.3724 82.7618,20.5532 C 85.6926,26.6343 80.6883,72.3183 69.9704,76.7947 C 62.7829,79.1385 25.173,78.4924 11.9721,61.9975 z "
       id="path743"
       sodipodi:nodetypes="ccccc"
       transform="matrix(0.762481,0,0,0.762481,0.453728,12.33407)" />
    <path
       transform="matrix(0.93454,0.118698,-0.104046,1.066138,-4.69767,-17.17464)"
       style="font-size:12px;fill:#211301;fill-rule:evenodd;stroke-width:1pt"
       d="M 67.6563,79.6875 C 67.6563,84.0863 58.9763,87.6563 48.2813,87.6563 C 37.5863,87.6563 28.9063,84.0863 28.9063,79.6875 C 28.9063,75.2887 37.5863,71.7187 48.2813,71.7187 C 58.9763,71.7187 67.6563,75.2887 67.6563,79.6875 z "
       id="path739" />
    <path
       sodipodi:type="arc"
       style="fill:url(#radialGradient2500);fill-opacity:1;fill-rule:evenodd;stroke:none;stroke-width:1pt;stroke-linecap:butt;stroke-linejoin:miter;stroke-opacity:1"
       id="path731"
       d="M 67.656265 79.6875 A 19.375004 7.9687538 0 1 1  28.906258,79.6875 A 19.375004 7.9687538 0 1 1  67.656265 79.6875 z"
       sodipodi:cx="48.281261"
       sodipodi:cy="79.6875"
       sodipodi:rx="19.375004"
       sodipodi:ry="7.9687538"
       transform="matrix(0.773175,9.381129e-2,-8.608107e-2,0.842604,1.6616,0.854568)" />
    <path
       transform="matrix(0.84795,7.574809e-2,-9.203027e-2,0.697931,0.937704,13.47022)"
       style="font-size:12px;fill:#211301;fill-opacity:1;fill-rule:evenodd;stroke-width:1pt"
       d="M 58.9063,75.9375 C 58.9063,79.56 53.2713,82.5 46.3281,82.5 C 39.385,82.5 33.75,79.56 33.75,75.9375 C 33.75,72.315 39.385,69.375 46.3281,69.375 C 53.2713,69.375 58.9063,72.315 58.9063,75.9375 z "
       id="path730" />
    <path
       style="font-size:12px;fill:#bebdae;fill-opacity:1;fill-rule:evenodd;stroke-width:1pt"
       d="M 58.9063,75.9375 C 58.9063,79.56 53.2713,82.5 46.3281,82.5 C 39.385,82.5 33.75,79.56 33.75,75.9375 C 33.75,72.315 39.385,69.375 46.3281,69.375 C 53.2713,69.375 58.9063,72.315 58.9063,75.9375 z "
       id="path728"
       transform="matrix(0.737541,6.034318e-2,-8.004759e-2,0.555992,5.142812,24.38289)" />
    <path
       style="fill:#211301;fill-opacity:1;fill-rule:evenodd;stroke:none;stroke-width:1pt;stroke-linecap:butt;stroke-linejoin:miter;stroke-opacity:1"
       d="M 11.9721,61.9975 C 10.1055,59.3328 1.05153,37.445 8.81341,5.71367 C 40.7348,-0.836156 68.3995,11.3724 82.7618,20.5532 C 85.6926,26.6343 80.6883,72.3183 69.9704,76.7947 C 62.7829,79.1385 25.173,78.4924 11.9721,61.9975 z "
       id="path715"
       sodipodi:nodetypes="ccccc"
       transform="matrix(0.762481,0,0,0.762481,-2.993964,12.50645)" />
    <path
       style="fill:url(#linearGradient2502);fill-opacity:1;fill-rule:evenodd;stroke:none;stroke-width:1pt;stroke-linecap:butt;stroke-linejoin:miter;stroke-opacity:1"
       d="M 15.4688,60.7812 C 13.9062,57.8125 5.15625,41.0937 11.0938,8.90623 C 44.6875,2.81248 67.0312,15.7812 80.9375,23.5937 C 82.5,29.2188 77.3437,71.4062 68.9062,73.9062 C 61.7187,76.25 25.7812,74.8437 15.4688,60.7812 z "
       id="path713"
       sodipodi:nodetypes="ccccc"
       transform="matrix(0.741872,0,0,0.741872,-2.063801,13.35296)" />
    <path
       style="fill:#b5a794;fill-opacity:1;fill-rule:evenodd;stroke:none;stroke-width:1pt;stroke-linecap:butt;stroke-linejoin:miter;stroke-opacity:1"
       d="M 19.0625,19.0625 L 16.5625,19.8437 C 16.25,22.1875 12.3438,41.25 16.0938,49.6875 C 20.4688,57.0312 22.5,58.4375 22.0313,57.6562 C 16.7187,48.75 15,35.1562 19.0625,19.0625 z "
       id="path717"
       sodipodi:nodetypes="ccccc"
       transform="matrix(0.741872,0,0,0.741872,-2.063801,13.35296)" />
    <path
       style="fill:#000000;fill-opacity:1;fill-rule:evenodd;stroke:none;stroke-width:1pt;stroke-linecap:butt;stroke-linejoin:miter;stroke-opacity:1"
       d="M 19.6875,19.5312 C 19.6875,19.5312 13.5938,41.7188 21.4063,55.1562 C 27.3438,63.4375 46.5625,70 62.3438,65.3125 C 65.3126,61.5625 72.0312,41.25 65.7813,30 C 63.4375,26.0937 35.1563,14.0625 19.6875,19.5312 z "
       id="path711"
       sodipodi:nodetypes="ccccc"
       transform="matrix(0.769182,0,0,0.769182,-3.235191,12.19212)" />
    <path
       style="fill:#437caf;fill-opacity:1;fill-rule:evenodd;stroke:none;stroke-width:1pt;stroke-linecap:butt;stroke-linejoin:miter;stroke-opacity:1"
       d="M 19.6875,19.5312 C 19.6875,19.5312 13.5938,41.7188 21.4063,55.1562 C 27.3438,63.4375 46.5625,70 62.3438,65.3125 C 65.3126,61.5625 72.0312,41.25 65.7813,30 C 63.4375,26.0937 35.1563,14.0625 19.6875,19.5312 z "
       id="path710"
       sodipodi:nodetypes="ccccc"
       transform="matrix(0.741872,0,0,0.741872,-2.063801,13.35296)" />
    <path
       style="fill:url(#linearGradient2504);fill-opacity:1;fill-rule:evenodd;stroke:none;stroke-width:1pt;stroke-linecap:butt;stroke-linejoin:miter;stroke-opacity:1"
       d="M 17.6563,41.875 C 17.6563,41.875 30.625,24.2187 42.9687,35.4687 C 47.9688,52.1874 66.25,56.0937 66.25,56.0937 L 62.6563,65 C 49.0625,69.8438 22.9688,59.8437 21.7188,56.0937 C 20.4688,52.3437 21.4063,58.125 17.6563,41.875 z "
       id="path722"
       sodipodi:nodetypes="cccccc"
       transform="matrix(0.741872,0,0,0.741872,-2.063801,13.35296)" />
    <path
       style="fill:#000000;fill-opacity:1;fill-rule:evenodd;stroke:none;stroke-width:1pt;stroke-linecap:butt;stroke-linejoin:miter;stroke-opacity:1"
       d="M 24.3561,51.16 L 24.2188,58.7026 C 30.0285,66.1552 47.8599,69.6306 53.2718,67.1686 C 53.1156,65.9185 52.9593,63.125 52.6657,61.9508 C 48.8494,61.0701 31.0369,58.4659 24.3561,51.16 z "
       id="path709"
       sodipodi:nodetypes="ccccc"
       transform="matrix(0.789734,0,0,0.789734,-3.447336,9.913101)" />
    <path
       style="fill:#b5a794;fill-opacity:1;fill-rule:evenodd;stroke:none;stroke-width:1pt;stroke-linecap:butt;stroke-linejoin:miter;stroke-opacity:1"
       d="M 81.25,23.9062 C 81.25,23.9062 76.0938,24.0625 75.9376,24.0625 C 75.7812,24.0625 76.7188,37.3437 76.0938,42.1875 C 75.4688,47.0312 73.9063,58.4375 72.9688,61.4062 C 72.0313,64.375 66.5625,73.9062 66.0938,74.5312 C 65.625,75.1562 67.3438,74.3749 70,73.5937 C 77.1875,65.3124 80.7813,45.4688 81.25,23.9062 z "
       id="path716"
       sodipodi:nodetypes="ccccccc"
       transform="matrix(0.741872,0,0,0.741872,-2.063801,13.35296)" />
    <path
       style="fill:#c7bda8;fill-opacity:1;fill-rule:evenodd;stroke:none;stroke-width:1pt;stroke-linecap:butt;stroke-linejoin:miter;stroke-opacity:1"
       d="M 24.0625,52.1875 L 24.2188,57.9687 C 30.4688,64.6874 48.5938,68.7499 53.125,66.875 C 52.9688,65.6249 52.8125,63.125 52.8125,63.125 C 52.8125,63.125 30.1562,58.9062 24.0625,52.1875 z "
       id="path708"
       sodipodi:nodetypes="ccccc"
       transform="matrix(0.741872,0,0,0.741872,-1.60013,12.77338)" />
    <path
       style="fill:#211301;fill-opacity:1;fill-rule:evenodd;stroke:none;stroke-width:1pt;stroke-linecap:butt;stroke-linejoin:miter;stroke-opacity:1"
       d="M 65.7813,74.2187 C 65.7813,74.2187 77.9688,64.6875 74.8438,24.6875 C 72.1875,22.0312 68.125,19.0625 68.125,19.0625 C 68.125,19.0625 75.9375,22.8125 76.4063,24.0625 C 77.1875,25.7812 77.6562,67.1875 65.7813,74.2187 z "
       id="path712"
       sodipodi:nodetypes="ccccc"
       transform="matrix(0.741872,0,0,0.741872,-2.063801,13.35296)" />
    <path
       style="fill:#fbfbfb;fill-opacity:1;fill-rule:evenodd;stroke:none;stroke-width:1pt;stroke-linecap:butt;stroke-linejoin:miter;stroke-opacity:1"
       d="M 26.5625,78.5937 L 27.9688,77.5 C 32.9688,86.25 53.4375,87.1875 55,86.875 C 56.5625,86.5625 37.6562,92.5 26.5625,78.5937 z "
       id="path740"
       sodipodi:nodetypes="cccc"
       transform="matrix(0.741872,0,0,0.741872,-2.063801,13.35296)" />
    <path
       style="fill:none;fill-opacity:1;fill-rule:evenodd;stroke:#000000;stroke-width:0.875;stroke-linecap:round;stroke-linejoin:round;stroke-dasharray:none;stroke-opacity:1"
       d="M 27.5,54.5312 C 27.5,52.9687 27.5,59.2188 27.5,59.2188"
       id="path741"
       sodipodi:nodetypes="cc"
       transform="matrix(0.741872,0,0,0.741872,-2.063801,13.35296)" />
    <path
       style="fill:none;fill-opacity:1;fill-rule:evenodd;stroke:#000000;stroke-width:0.875;stroke-linecap:round;stroke-linejoin:round;stroke-dasharray:none;stroke-opacity:1"
       d="M 27.5,54.5312 C 27.5,52.9687 27.5,59.2188 27.5,59.2188"
       id="path742"
       sodipodi:nodetypes="cc"
       transform="matrix(0.741872,0,0,0.741872,12.77363,18.56925)" />
    <path
       transform="matrix(1.010086,0.132643,-0.112456,1.191397,-6.20964,-26.79529)"
       style="font-size:12px;fill:#000000;fill-opacity:0.3;fill-rule:evenodd;stroke-width:1pt"
       d="M 67.6563,79.6875 C 67.6563,84.0863 58.9763,87.6563 48.2813,87.6563 C 37.5863,87.6563 28.9063,84.0863 28.9063,79.6875 C 28.9063,75.2887 37.5863,71.7187 48.2813,71.7187 C 58.9763,71.7187 67.6563,75.2887 67.6563,79.6875 z "
       id="path1243" />
    <path
       style="fill:#000000;fill-opacity:0.3;fill-rule:evenodd;stroke:none;stroke-width:1pt;stroke-linecap:butt;stroke-linejoin:miter;stroke-opacity:1"
       d="M 11.9721,61.9975 C 10.1055,59.3328 1.05153,37.445 8.81341,5.71367 C 40.7348,-0.836156 68.3995,11.3724 82.7618,20.5532 C 85.6926,26.6343 80.6883,72.3183 69.9704,76.7947 C 62.7829,79.1385 25.173,78.4924 11.9721,61.9975 z "
       id="path1244"
       sodipodi:nodetypes="ccccc"
       transform="matrix(0.762481,0,0,0.762481,0.453728,12.33407)" />
    <path
       transform="matrix(0.93454,0.118698,-0.104046,1.066138,-4.69767,-17.17464)"
       style="font-size:12px;fill:#211301;fill-rule:evenodd;stroke-width:1pt"
       d="M 67.6563,79.6875 C 67.6563,84.0863 58.9763,87.6563 48.2813,87.6563 C 37.5863,87.6563 28.9063,84.0863 28.9063,79.6875 C 28.9063,75.2887 37.5863,71.7187 48.2813,71.7187 C 58.9763,71.7187 67.6563,75.2887 67.6563,79.6875 z "
       id="path1245" />
    <path
       sodipodi:type="arc"
       style="fill:url(#radialGradient2506);fill-opacity:1;fill-rule:evenodd;stroke:none;stroke-width:1pt;stroke-linecap:butt;stroke-linejoin:miter;stroke-opacity:1"
       id="path1246"
       d="M 67.656265 79.6875 A 19.375004 7.9687538 0 1 1  28.906258,79.6875 A 19.375004 7.9687538 0 1 1  67.656265 79.6875 z"
       sodipodi:cx="48.281261"
       sodipodi:cy="79.6875"
       sodipodi:rx="19.375004"
       sodipodi:ry="7.9687538"
       transform="matrix(0.773175,9.381129e-2,-8.608107e-2,0.842604,1.6616,0.854568)" />
    <path
       transform="matrix(0.84795,7.574809e-2,-9.203027e-2,0.697931,0.937704,13.47022)"
       style="font-size:12px;fill:#211301;fill-opacity:1;fill-rule:evenodd;stroke-width:1pt"
       d="M 58.9063,75.9375 C 58.9063,79.56 53.2713,82.5 46.3281,82.5 C 39.385,82.5 33.75,79.56 33.75,75.9375 C 33.75,72.315 39.385,69.375 46.3281,69.375 C 53.2713,69.375 58.9063,72.315 58.9063,75.9375 z "
       id="path1247" />
    <path
       style="font-size:12px;fill:#bebdae;fill-opacity:1;fill-rule:evenodd;stroke-width:1pt"
       d="M 58.9063,75.9375 C 58.9063,79.56 53.2713,82.5 46.3281,82.5 C 39.385,82.5 33.75,79.56 33.75,75.9375 C 33.75,72.315 39.385,69.375 46.3281,69.375 C 53.2713,69.375 58.9063,72.315 58.9063,75.9375 z "
       id="path1248"
       transform="matrix(0.737541,6.034318e-2,-8.004759e-2,0.555992,5.142812,24.38289)" />
    <path
       style="fill:#211301;fill-opacity:1;fill-rule:evenodd;stroke:none;stroke-width:1pt;stroke-linecap:butt;stroke-linejoin:miter;stroke-opacity:1"
       d="M 11.9721,61.9975 C 10.1055,59.3328 1.05153,37.445 8.81341,5.71367 C 40.7348,-0.836156 68.3995,11.3724 82.7618,20.5532 C 85.6926,26.6343 80.6883,72.3183 69.9704,76.7947 C 62.7829,79.1385 25.173,78.4924 11.9721,61.9975 z "
       id="path1249"
       sodipodi:nodetypes="ccccc"
       transform="matrix(0.762481,0,0,0.762481,-2.993964,12.50645)" />
    <path
       style="fill:url(#linearGradient2508);fill-opacity:1;fill-rule:evenodd;stroke:none;stroke-width:1pt;stroke-linecap:butt;stroke-linejoin:miter;stroke-opacity:1"
       d="M 15.4688,60.7812 C 13.9062,57.8125 5.15625,41.0937 11.0938,8.90623 C 44.6875,2.81248 67.0312,15.7812 80.9375,23.5937 C 82.5,29.2188 77.3437,71.4062 68.9062,73.9062 C 61.7187,76.25 25.7812,74.8437 15.4688,60.7812 z "
       id="path1250"
       sodipodi:nodetypes="ccccc"
       transform="matrix(0.741872,0,0,0.741872,-2.063801,13.35296)" />
    <path
       style="fill:#b5a794;fill-opacity:1;fill-rule:evenodd;stroke:none;stroke-width:1pt;stroke-linecap:butt;stroke-linejoin:miter;stroke-opacity:1"
       d="M 19.0625,19.0625 L 16.5625,19.8437 C 16.25,22.1875 12.3438,41.25 16.0938,49.6875 C 20.4688,57.0312 22.5,58.4375 22.0313,57.6562 C 16.7187,48.75 15,35.1562 19.0625,19.0625 z "
       id="path1251"
       sodipodi:nodetypes="ccccc"
       transform="matrix(0.741872,0,0,0.741872,-2.063801,13.35296)" />
    <path
       style="fill:#000000;fill-opacity:1;fill-rule:evenodd;stroke:none;stroke-width:1pt;stroke-linecap:butt;stroke-linejoin:miter;stroke-opacity:1"
       d="M 19.6875,19.5312 C 19.6875,19.5312 13.5938,41.7188 21.4063,55.1562 C 27.3438,63.4375 46.5625,70 62.3438,65.3125 C 65.3126,61.5625 72.0312,41.25 65.7813,30 C 63.4375,26.0937 35.1563,14.0625 19.6875,19.5312 z "
       id="path1252"
       sodipodi:nodetypes="ccccc"
       transform="matrix(0.769182,0,0,0.769182,-3.235191,12.19212)" />
    <path
       style="fill:#437caf;fill-opacity:1;fill-rule:evenodd;stroke:none;stroke-width:1pt;stroke-linecap:butt;stroke-linejoin:miter;stroke-opacity:1"
       d="M 19.6875,19.5312 C 19.6875,19.5312 13.5938,41.7188 21.4063,55.1562 C 27.3438,63.4375 46.5625,70 62.3438,65.3125 C 65.3126,61.5625 72.0312,41.25 65.7813,30 C 63.4375,26.0937 35.1563,14.0625 19.6875,19.5312 z "
       id="path1253"
       sodipodi:nodetypes="ccccc"
       transform="matrix(0.741872,0,0,0.741872,-2.063801,13.35296)" />
    <path
       style="fill:url(#linearGradient2510);fill-opacity:1;fill-rule:evenodd;stroke:none;stroke-width:1pt;stroke-linecap:butt;stroke-linejoin:miter;stroke-opacity:1"
       d="M 17.6563,41.875 C 17.6563,41.875 30.625,24.2187 42.9687,35.4687 C 47.9688,52.1874 66.25,56.0937 66.25,56.0937 L 62.6563,65 C 49.0625,69.8438 22.9688,59.8437 21.7188,56.0937 C 20.4688,52.3437 21.4063,58.125 17.6563,41.875 z "
       id="path1254"
       sodipodi:nodetypes="cccccc"
       transform="matrix(0.741872,0,0,0.741872,-2.063801,13.35296)" />
    <path
       style="fill:#000000;fill-opacity:1;fill-rule:evenodd;stroke:none;stroke-width:1pt;stroke-linecap:butt;stroke-linejoin:miter;stroke-opacity:1"
       d="M 24.3561,51.16 L 24.2188,58.7026 C 30.0285,66.1552 47.8599,69.6306 53.2718,67.1686 C 53.1156,65.9185 52.9593,63.125 52.6657,61.9508 C 48.8494,61.0701 31.0369,58.4659 24.3561,51.16 z "
       id="path1255"
       sodipodi:nodetypes="ccccc"
       transform="matrix(0.789734,0,0,0.789734,-3.447336,9.913101)" />
    <path
       style="fill:#b5a794;fill-opacity:1;fill-rule:evenodd;stroke:none;stroke-width:1pt;stroke-linecap:butt;stroke-linejoin:miter;stroke-opacity:1"
       d="M 81.25,23.9062 C 81.25,23.9062 76.0938,24.0625 75.9376,24.0625 C 75.7812,24.0625 76.7188,37.3437 76.0938,42.1875 C 75.4688,47.0312 73.9063,58.4375 72.9688,61.4062 C 72.0313,64.375 66.5625,73.9062 66.0938,74.5312 C 65.625,75.1562 67.3438,74.3749 70,73.5937 C 77.1875,65.3124 80.7813,45.4688 81.25,23.9062 z "
       id="path1256"
       sodipodi:nodetypes="ccccccc"
       transform="matrix(0.741872,0,0,0.741872,-2.063801,13.35296)" />
    <path
       style="fill:#c7bda8;fill-opacity:1;fill-rule:evenodd;stroke:none;stroke-width:1pt;stroke-linecap:butt;stroke-linejoin:miter;stroke-opacity:1"
       d="M 24.0625,52.1875 L 24.2188,57.9687 C 30.4688,64.6874 48.5938,68.7499 53.125,66.875 C 52.9688,65.6249 52.8125,63.125 52.8125,63.125 C 52.8125,63.125 30.1562,58.9062 24.0625,52.1875 z "
       id="path1257"
       sodipodi:nodetypes="ccccc"
       transform="matrix(0.741872,0,0,0.741872,-1.60013,12.77338)" />
    <path
       style="fill:#211301;fill-opacity:1;fill-rule:evenodd;stroke:none;stroke-width:1pt;stroke-linecap:butt;stroke-linejoin:miter;stroke-opacity:1"
       d="M 65.7813,74.2187 C 65.7813,74.2187 77.9688,64.6875 74.8438,24.6875 C 72.1875,22.0312 68.125,19.0625 68.125,19.0625 C 68.125,19.0625 75.9375,22.8125 76.4063,24.0625 C 77.1875,25.7812 77.6562,67.1875 65.7813,74.2187 z "
       id="path1258"
       sodipodi:nodetypes="ccccc"
       transform="matrix(0.741872,0,0,0.741872,-2.063801,13.35296)" />
    <path
       style="fill:#fbfbfb;fill-opacity:1;fill-rule:evenodd;stroke:none;stroke-width:1pt;stroke-linecap:butt;stroke-linejoin:miter;stroke-opacity:1"
       d="M 26.5625,78.5937 L 27.9688,77.5 C 32.9688,86.25 53.4375,87.1875 55,86.875 C 56.5625,86.5625 37.6562,92.5 26.5625,78.5937 z "
       id="path1259"
       sodipodi:nodetypes="cccc"
       transform="matrix(0.741872,0,0,0.741872,-2.063801,13.35296)" />
    <path
       style="fill:none;fill-opacity:1;fill-rule:evenodd;stroke:#000000;stroke-width:0.875;stroke-linecap:round;stroke-linejoin:round;stroke-dasharray:none;stroke-opacity:1"
       d="M 27.5,54.5312 C 27.5,52.9687 27.5,59.2188 27.5,59.2188"
       id="path1260"
       sodipodi:nodetypes="cc"
       transform="matrix(0.741872,0,0,0.741872,-2.063801,13.35296)" />
    <path
       style="fill:none;fill-opacity:1;fill-rule:evenodd;stroke:#000000;stroke-width:0.875;stroke-linecap:round;stroke-linejoin:round;stroke-dasharray:none;stroke-opacity:1"
       d="M 27.5,54.5312 C 27.5,52.9687 27.5,59.2188 27.5,59.2188"
       id="path1261"
       sodipodi:nodetypes="cc"
       transform="matrix(0.741872,0,0,0.741872,12.77363,18.56925)" />
  </g>
  <g
     id="g2544"
     transform="matrix(0.9257169,0,0,0.9257169,21.190124,40.098832)">
    <path
       sodipodi:nodetypes="ccccccccccccc"
       id="path592"
       d="M -15.322435,11.455412 C -16.824421,19.147337 -18.462957,25.200792 -19.418771,32.619747 C -16.414798,39.993192 -8.0856145,45.728073 0.51670699,46.820418 C 5.1591499,46.137668 9.1190284,46.001229 13.761564,43.679915 C 20.816343,46.547355 27.73459,49.960922 34.789368,52.828362 C 44.256482,47.321127 57.13707,39.492484 66.604183,33.985248 C 61.233387,31.527402 52.17596,29.615868 46.805163,27.158022 C 50.583,13.958675 48.216175,4.1730809 35.062431,-3.4278235 C 33.287429,-4.7933245 28.644893,-5.7492311 24.548576,-4.2471055 C 24.548576,-4.2471055 22.636949,-10.528205 20.042571,-14.624522 C 16.355849,-15.170741 -12.045372,-7.387702 -13.001186,-5.476075 C -12.363983,-1.1977161 -10.907544,3.6268619 -9.9972415,7.4956264 C -12.591563,9.3161393 -13.137736,10.0444 -15.322435,11.455412 z "
       style="fill:#000000;fill-opacity:0.3;fill-rule:evenodd;stroke:none;stroke-width:1pt;stroke-linecap:butt;stroke-linejoin:miter;stroke-opacity:1" />
    <path
       sodipodi:nodetypes="ccccccccccccc"
       id="path561"
       d="M -17.397282,6.8907538 C -18.899268,14.582679 -20.537804,20.636134 -21.493618,28.055089 C -18.489645,35.428534 -10.160461,41.163415 -1.55814,42.25576 C 3.0843029,41.57301 7.0441814,41.436571 11.686717,39.115257 C 18.741496,41.982697 25.659743,45.396264 32.714521,48.263704 C 42.181635,42.756469 55.062223,34.927826 64.529336,29.42059 C 59.15854,26.962744 50.101113,25.05121 44.730316,22.593364 C 48.508153,9.3940173 46.141328,-0.39157709 32.987584,-7.9924815 C 31.212582,-9.3579825 26.570046,-10.313889 22.473729,-8.8117635 C 22.473729,-8.8117635 20.562102,-15.092863 17.967724,-19.18918 C 14.281002,-19.735399 -14.120219,-11.95236 -15.076033,-10.040733 C -14.43883,-5.7623741 -12.982391,-0.93779612 -12.072088,2.9309684 C -14.66641,4.7514813 -15.212583,5.4797423 -17.397282,6.8907538 z "
       style="fill:#000000;fill-opacity:1;fill-rule:evenodd;stroke:none;stroke-width:1pt;stroke-linecap:butt;stroke-linejoin:miter;stroke-opacity:1" />
    <path
       id="path556"
       d="M 13.188657,35.155471 L 32.168302,42.528823 L 55.653952,30.376404 C 55.653952,30.376404 37.083901,24.231928 36.94737,24.36846 C 36.810838,24.504991 13.325188,35.292003 13.188657,35.155471 z "
       style="fill:#c7eeff;fill-opacity:1;fill-rule:evenodd;stroke:none;stroke-width:1pt;stroke-linecap:butt;stroke-linejoin:miter;stroke-opacity:1" />
    <path
       sodipodi:nodetypes="ccccc"
       id="path557"
       d="M -13.300956,8.8023808 C -15.576695,15.037877 -16.89662,21.273467 -17.670373,27.508963 C -13.619548,34.245168 -6.4281354,36.475369 -1.284984,38.022912 C 0.39909055,34.063126 0.85419551,22.047238 -2.5139535,16.58542 C -5.836499,12.21604 -9.5687319,9.3485998 -13.300956,8.8023808 z "
       style="fill:url(#linearGradient588);fill-opacity:1;fill-rule:evenodd;stroke:none;stroke-width:1pt;stroke-linecap:butt;stroke-linejoin:miter;stroke-opacity:1" />
    <path
       sodipodi:nodetypes="ccccc"
       id="path559"
       d="M -12.071995,7.1639099 C 5.7697945,15.90267 -0.28375304,33.926502 0.49001847,38.15935 C 16.28365,34.290586 27.707808,27.281318 41.180218,20.818269 C 43.046335,13.444917 44.502764,1.7020919 30.393207,-6.2174791 C 16.101608,-4.4878941 0.30797649,0.10903837 -12.071995,7.1639099 z "
       style="fill:url(#linearGradient584);fill-opacity:1;fill-rule:evenodd;stroke:#000000;stroke-width:0.93068504pt;stroke-linecap:butt;stroke-linejoin:miter;stroke-opacity:1" />
    <path
       sodipodi:nodetypes="ccccc"
       id="path558"
       d="M -2.5139535,2.9309684 C 3.7215429,4.5695324 4.4953144,13.171854 7.1807129,13.581448 C 15.373347,15.584096 29.710549,9.1209543 30.120144,6.0714718 C 30.802894,2.8854579 26.29689,-3.9872786 22.746792,-4.7155396 C 14.053449,-2.7128916 5.7697945,-0.57371215 -2.5139535,2.9309684 z "
       style="fill:url(#linearGradient565);fill-opacity:1;fill-rule:evenodd;stroke:none;stroke-width:1pt;stroke-linecap:butt;stroke-linejoin:miter;stroke-opacity:1" />
    <path
       sodipodi:nodetypes="cccccccc"
       id="path560"
       d="M -7.566084,4.4330009 L -10.570056,-8.129106 L 15.919566,-15.092863 L 18.787006,-5.1251341 L 14.963752,-3.8962576 L 12.642438,-9.6311386 L -4.015893,-5.1251341 L -2.2408905,2.3848424"
       style="fill:#ffffff;fill-opacity:1;fill-rule:evenodd;stroke:none;stroke-width:1pt;stroke-linecap:butt;stroke-linejoin:miter;stroke-opacity:1" />
    <path
       sodipodi:nodetypes="ccccc"
       id="path566"
       d="M -2.5139535,2.9309684 C -0.52675489,3.3626201 -0.29054704,4.0550497 2.6099328,6.7542223 C 14.625821,9.0300264 19.415963,0.14077473 27.335534,-1.1337053 C 24.976899,-3.8368799 25.068013,-3.7142156 22.746792,-4.7155396 C 14.053449,-2.7128916 5.7697945,-0.57371215 -2.5139535,2.9309684 z "
       style="fill:url(#linearGradient567);fill-opacity:1;fill-rule:evenodd;stroke:none;stroke-width:1pt;stroke-linecap:butt;stroke-linejoin:miter;stroke-opacity:1" />
    <path
       id="path581"
       d="M 28.170413,14.289152 C 28.667715,16.087404 27.161551,18.147411 24.808362,18.887333 C 22.455173,19.627256 20.141763,18.768253 19.644461,16.97 C 19.147158,15.171748 20.653351,13.111845 23.00654,12.371922 C 25.359729,11.632 27.67311,12.4909 28.170413,14.289152 z "
       style="font-size:12px;fill:url(#linearGradient580);fill-rule:evenodd;stroke-width:1pt" />
    <path
       id="path583"
       d="M 27.495159,13.993128 C 27.953508,15.547467 26.565322,17.328058 24.396459,17.967618 C 22.227597,18.607179 20.095398,17.86469 19.63705,16.31035 C 19.178701,14.756011 20.566913,12.97551 22.735776,12.335949 C 24.904639,11.696389 27.036811,12.438788 27.495159,13.993128 z "
       style="font-size:12px;fill:url(#radialGradient573);fill-rule:evenodd;stroke-width:1pt" />
    <path
       id="path582"
       d="M 25.887322,14.332459 C 25.887322,15.274591 25.061432,16.039242 24.043914,16.039242 C 23.026396,16.039242 22.200599,15.274591 22.200599,14.332459 C 22.200599,13.390234 23.026396,12.625583 24.043914,12.625583 C 25.061432,12.625583 25.887322,13.390234 25.887322,14.332459 z "
       style="font-size:12px;fill:url(#linearGradient568);fill-rule:evenodd;stroke-width:1pt" />
    <path
       id="path589"
       d="M 47.976638,30.4691 C 47.810697,30.394459 46.767586,29.553957 46.238677,30.082959 C 45.438847,30.70326 45.466302,30.883906 45.466302,32.013944 C 45.178813,32.87641 44.653348,32.602323 43.921458,32.207061 C 43.315116,32.116133 43.114089,31.767499 42.955965,32.400178 C 42.698445,32.657606 42.827158,33.301267 42.569731,33.558788 C 41.568035,33.558788 40.29858,33.284515 39.67316,33.558788 C 39.67316,34.604599 39.536442,34.594733 38.51455,34.717398 C 37.37381,34.717398 36.955374,34.577702 36.390448,35.296656 C 35.960471,35.923752 35.767168,36.463084 35.231838,36.648383 C 34.282819,36.619066 33.181818,36.321713 32.528384,36.648383 C 32.308556,37.582698 32.284266,37.89941 31.176657,38.00011 C 30.399163,38.00011 30.404282,37.994991 30.404282,38.772578 C 30.116793,38.895708 30.112326,39.03559 29.82493,39.15872"
       style="fill:none;fill-opacity:1;fill-rule:evenodd;stroke:#000000;stroke-width:0.93068504pt;stroke-linecap:butt;stroke-linejoin:miter;stroke-opacity:1" />
    <path
       id="path590"
       d="M 40.445598,27.765679 C 40.241964,27.600203 39.359116,27.186327 38.51452,27.186327 C 38.007855,27.654089 38.082961,28.083694 37.742144,28.538054 C 36.791449,28.538054 35.962116,28.284722 35.424925,28.538054 C 34.795595,29.167383 34.590193,29.501127 34.459432,30.469132 C 34.114427,30.751409 34.194001,30.855274 33.493846,30.855274 C 32.511694,30.782587 32.048958,30.362476 31.755978,31.241508 C 31.043353,31.805038 30.826782,31.820859 29.631783,31.820859 C 29.052245,31.820859 28.376754,31.724161 28.087032,32.013976 C 27.858269,32.98617 27.751799,33.189152 26.735305,33.558727 C 25.949807,34.095174 25.605826,33.920019 25.576695,34.910454 C 25.060165,35.099476 24.238556,35.103571 23.4525,35.103571"
       style="fill:none;fill-opacity:1;fill-rule:evenodd;stroke:#000000;stroke-width:0.93068504pt;stroke-linecap:butt;stroke-linejoin:miter;stroke-opacity:1" />
  </g>
</svg>
