<?xml version="1.0" encoding="UTF-8" standalone="no"?>
<!-- Created with Sodipodi ("http://www.sodipodi.com/") -->
<svg
   xmlns:dc="http://purl.org/dc/elements/1.1/"
   xmlns:cc="http://creativecommons.org/ns#"
   xmlns:rdf="http://www.w3.org/1999/02/22-rdf-syntax-ns#"
   xmlns:svg="http://www.w3.org/2000/svg"
   xmlns="http://www.w3.org/2000/svg"
   xmlns:xlink="http://www.w3.org/1999/xlink"
   xmlns:sodipodi="http://sodipodi.sourceforge.net/DTD/sodipodi-0.dtd"
   xmlns:inkscape="http://www.inkscape.org/namespaces/inkscape"
   version="1"
   x="0.00000000"
   y="0.00000000"
   width="90.0000000"
   height="90.0000000"
   id="svg548"
   sodipodi:version="0.32"
   sodipodi:docname="folder-open.svg"
   sodipodi:docbase="/home/tweenk/GNUtoon/status"
   inkscape:version="0.46+devel"
   inkscape:output_extension="org.inkscape.output.svg.inkscape">
  <metadata
     id="metadata48">
    <rdf:RDF>
      <cc:Work
         rdf:about="">
        <dc:format>image/svg+xml</dc:format>
        <dc:type
           rdf:resource="http://purl.org/dc/dcmitype/StillImage" />
      </cc:Work>
    </rdf:RDF>
  </metadata>
  <sodipodi:namedview
     id="base"
     inkscape:zoom="4.5222222"
     inkscape:cx="57.566586"
     inkscape:cy="40.529114"
     inkscape:window-width="795"
     inkscape:window-height="724"
     inkscape:window-x="114"
     inkscape:window-y="9"
     inkscape:current-layer="svg548"
     showgrid="false" />
  <defs
     id="defs550">
    <linearGradient
       x1="0.00000000"
       y1="0.00000000"
       x2="1.00000000"
       y2="0.00000000"
       id="linearGradient632"
       gradientUnits="objectBoundingBox"
       spreadMethod="pad">
      <stop
         style="stop-color:#ffb700;stop-opacity:1;"
         offset="0.00000000"
         id="stop633" />
      <stop
         style="stop-color:#ffd58f;stop-opacity:0;"
         offset="1.00000000"
         id="stop634" />
    </linearGradient>
    <linearGradient
       x1="60.6446152"
       y1="19.2956886"
       x2="35.3705750"
       y2="69.1427994"
       id="linearGradient559"
       xlink:href="#linearGradient632"
       gradientUnits="userSpaceOnUse"
       spreadMethod="pad"
       gradientTransform="matrix(1.418885,-0.1793787,0.127692,0.992879,-43.636852,13.91831)" />
    <linearGradient
       x1="85.6376572"
       y1="17.4438438"
       x2="73.9162979"
       y2="54.6281815"
       id="linearGradient631"
       xlink:href="#linearGradient632"
       gradientUnits="userSpaceOnUse"
       gradientTransform="matrix(1.0509199,-0.1486035,0.1724016,1.4993733,-30.536552,4.5904627)"
       spreadMethod="pad" />
  </defs>
  <path
     d="M 17.852181,63.938793 C 19.803053,67.18978 24.392223,71.831127 31.905644,74.47195 38.00904,76.606674 73.631351,88.405996 76.311706,88.203271 78.992074,88.000657 84.694279,88.605085 85.124349,82.548632 85.554547,76.492048 87.702274,60.066993 87.480096,53.61883 86.600061,47.924029 89.266065,43.667515 82.209452,39.466601 z"
     style="font-size:12px;fill:#000009;fill-opacity:0.30147101;fill-rule:evenodd;stroke-width:1pt"
     id="path783"
     sodipodi:nodetypes="ccssccc" />
  <path
     d="M 14.472648,21.326217 C 12.951815,20.946366 9.4186231,19.145693 7.2084456,18.306598 4.7246057,17.363605 1.9731719,19.386086 2.0171502,21.599474 2.2122054,31.637419 7.472858,53.584215 11.140636,60.172263 12.979977,63.476082 15.839206,66.325528 22.761666,70.263161 30.411164,74.614347 70.671421,85.327795 73.351789,85.125181 76.032144,84.922456 81.734349,85.526885 82.164419,79.470431 82.59463,73.413958 88.75182,38.635357 88.390392,37.452124 87.510344,31.757211 82.158498,26.44848 79.560233,25.405032 74.886795,23.949763 26.538712,8.5532501 23.945036,7.7300676 22.385888,7.235224 20.380031,8.4292527 19.414109,9.5461381 16.348087,13.091348 16.076134,13.848958 14.472648,21.326217 z"
     style="font-size:12px;fill:#593a28;fill-rule:evenodd;stroke-width:1pt"
     id="path554"
     sodipodi:nodetypes="cssssssccssc" />
  <path
     d="M 23.86865,11.584425 C 23.2968,11.46317 22.30201,11.690548 21.774378,12.432392 19.052702,16.259034 17.706627,22.139281 17.075447,25.779395 14.591745,24.658005 10.407205,22.580071 8.3101014,21.712723 6.8259818,21.098901 4.8752243,22.567844 5.4993449,24.548234 6.1800161,28.507915 10.091953,58.771049 19.053124,64.204919 28.031946,71.752402 72.89289,81.134141 74.061326,81.498003 75.229609,81.861775 77.648443,81.343458 77.612999,77.116253 77.577556,72.889049 84.370949,40.701454 83.486441,38.886704 83.147123,35.936921 81.639653,32.623236 77.369712,30.758226 73.099772,28.893217 25.198855,11.396329 23.86865,11.584425 z"
     style="font-size:12px;fill:#f1e36c;fill-rule:evenodd;stroke-width:1pt"
     id="path552"
     sodipodi:nodetypes="cscsccsscsc" />
  <path
     d="m 25.638528,15.302855 c 8.3628212,2.651632 50.871041,18.854991 52.983823,21.554 C 80.735145,39.555976 73.78646,75.188546 73.886213,76.056096 73.985979,76.923757 60.334098,49.485704 55.640702,47.856859 52.707914,46.839099 40.258043,43.95038 30.751475,40.482761 29.083728,39.874432 30.284781,29.980207 28.865475,29.365849 25.428,27.87791 19.594388,25.605319 19.633116,24.147332 19.750561,19.72598 22.522305,14.43883 23.745211,14.512522"
     style="font-size:12px;fill:url(#linearGradient631);fill-rule:evenodd;stroke-width:1pt"
     id="path562"
     sodipodi:nodetypes="cssssssc" />
  <path
     d="M 72.527029,77.870751 C 65.248632,65.387209 63.349014,56.923417 59.868148,52.738595 56.688977,49.131597 55.762283,48.938372 51.532401,47.614466 44.360321,46.19186 30.076177,42.343851 29.63507,40.706322 26.511159,40.937747 28.222908,30.70192 20.56983,27.339187 15.554909,25.189157 2.6453227,19.552334 2.6453227,19.552334 l 7.7892018,0.219779 c 2.919777,1.639344 16.121156,6.82882 17.409292,8.054168 2.558361,0.607413 1.33452,7.706912 3.850813,9.703734 2.494168,3.537526 23.125449,7.679324 24.797137,8.395994 1.671545,0.716688 5.174536,3.360805 6.662061,6.099737 6.710766,12.220439 8.353335,20.685714 9.373202,25.845005 z"
     style="font-size:12px;fill:#593a28;fill-rule:evenodd;stroke-width:1pt"
     id="path553"
     sodipodi:nodetypes="cccccccccscc" />
  <path
     d="m 5.5238631,24.264 c 2.651641,0.36463 11.530482,4.668749 14.867765,7.655824 1.705479,3.351889 0.792505,10.317358 7.57102,13.473788 6.778503,3.156331 22.473764,4.106136 25.11995,7.338996 2.646199,3.232961 13.762539,22.585112 14.643627,24.480365 C 68.607184,79.108344 18.544403,63.834781 16.327708,58.986867 13.295864,54.138875 9.1694835,48.870811 5.5238631,24.264 z"
     style="font-size:12px;fill:url(#linearGradient559);fill-rule:evenodd;stroke-width:1pt"
     id="path635"
     sodipodi:nodetypes="ccssscc" />
</svg>
