<?xml version="1.0" encoding="UTF-8" standalone="no"?>
<!-- Created with Sodipodi ("http://www.sodipodi.com/") -->
<svg
   xmlns:dc="http://purl.org/dc/elements/1.1/"
   xmlns:cc="http://web.resource.org/cc/"
   xmlns:rdf="http://www.w3.org/1999/02/22-rdf-syntax-ns#"
   xmlns:svg="http://www.w3.org/2000/svg"
   xmlns="http://www.w3.org/2000/svg"
   xmlns:xlink="http://www.w3.org/1999/xlink"
   xmlns:sodipodi="http://sodipodi.sourceforge.net/DTD/sodipodi-0.dtd"
   xmlns:inkscape="http://www.inkscape.org/namespaces/inkscape"
   version="1"
   x="0.00000000"
   y="0.00000000"
   width="90.0000000"
   height="90.0000000"
   id="svg548"
   sodipodi:version="0.32"
   sodipodi:docname="folder-visiting.svg"
   sodipodi:docbase="/home/tweenk/GNUtoon/status"
   inkscape:version="0.45.1"
   inkscape:output_extension="org.inkscape.output.svg.inkscape">
  <metadata
     id="metadata48">
    <rdf:RDF>
      <cc:Work
         rdf:about="">
        <dc:format>image/svg+xml</dc:format>
        <dc:type
           rdf:resource="http://purl.org/dc/dcmitype/StillImage" />
      </cc:Work>
    </rdf:RDF>
  </metadata>
  <sodipodi:namedview
     id="base"
     inkscape:zoom="4.5222222"
     inkscape:cx="72.10084"
     inkscape:cy="45.830767"
     inkscape:window-width="795"
     inkscape:window-height="619"
     inkscape:window-x="114"
     inkscape:window-y="74"
     inkscape:current-layer="svg548" />
  <defs
     id="defs550">
    <linearGradient
       x1="0.00000000"
       y1="0.00000000"
       x2="1.00000000"
       y2="0.00000000"
       id="linearGradient632"
       gradientUnits="objectBoundingBox"
       spreadMethod="pad">
      <stop
         style="stop-color:#ed0000;stop-opacity:1;"
         offset="0"
         id="stop633" />
      <stop
         style="stop-color:#ffd58f;stop-opacity:0;"
         offset="1.00000000"
         id="stop634" />
    </linearGradient>
    <linearGradient
       x1="60.6446152"
       y1="19.2956886"
       x2="35.3705750"
       y2="69.1427994"
       id="linearGradient559"
       xlink:href="#linearGradient632"
       gradientUnits="userSpaceOnUse"
       spreadMethod="pad"
       gradientTransform="matrix(1.418885,-0.1793787,0.127692,0.992879,-42.08894,15.245091)" />
    <linearGradient
       x1="85.6376572"
       y1="17.4438438"
       x2="73.9162979"
       y2="54.6281815"
       id="linearGradient631"
       xlink:href="#linearGradient632"
       gradientUnits="userSpaceOnUse"
       gradientTransform="scale(0.740666,1.350136)"
       spreadMethod="pad" />
  </defs>
  <path
     d="M 26.2434,59.4235 C 27.3371,62.5485 30.1496,67.236 35.1496,70.5173 C 39.2121,73.1735 62.9754,88.0916 64.8504,88.2478 C 66.7254,88.4041 70.6317,89.6541 71.4129,84.3416 C 72.1942,79.029 74.9934,64.7445 75.3535,59.0032 C 75.1973,53.847 77.3856,50.4095 72.8268,45.8031 L 26.2434,59.4235 z "
     transform="matrix(1.418885,-0.200635,0.127692,1.110535,-25.42418,4.539042)"
     style="font-size:12;fill:#000009;fill-opacity:0.301471;fill-rule:evenodd;stroke-width:1pt;"
     id="path783"
     sodipodi:nodetypes="ccssccc" />
  <path
     d="M 29.879502,20.468178 C 28.855089,19.941059 26.548396,17.902874 25.082541,16.882467 C 23.435185,15.735714 21.531533,16.815535 21.408406,18.785564 C 21.095906,23.785534 21.7948,51.43 24.2948,56.43 C 25.3885,59.555 28.201,64.2425 33.201,67.5238 C 37.2635,70.18 63.75,84.2187 65.625,84.375 C 67.5,84.5312 71.4063,85.7812 72.1875,80.4687 C 72.9688,75.1562 80.0121,45.1117 79.8558,44.018 C 79.6996,38.8617 76.4114,33.4873 74.6927,32.2372 C 71.5677,30.3622 39.26588,10.662336 37.532799,9.6079796 C 36.490984,8.9741696 35.004703,9.7808337 34.245772,10.64944 C 31.836779,13.406563 31.587766,14.043778 29.879502,20.468178 z "
     transform="matrix(1.418885,-0.200635,0.127692,1.110535,-28.98864,5.917244)"
     style="font-size:12;fill:#593a28;fill-rule:evenodd;stroke-width:1pt;"
     id="path554"
     sodipodi:nodetypes="cssccssccssc" />
  <path
     d="M 37.172476,13.013603 C 36.785565,12.834516 36.077544,12.911348 35.652474,13.502558 C 33.459844,16.552191 32.057442,21.593793 31.329452,24.740073 C 29.696417,23.435266 26.960121,21.069802 25.574936,20.038529 C 24.594641,19.308697 23.12465,20.365856 23.399562,22.198798 C 23.555862,25.792598 23.8556,53.0977 29.6369,59.0352 C 35.2619,66.8477 65.625,80.7812 66.4063,81.25 C 67.1875,81.7187 68.9063,81.5625 69.2188,77.8125 C 69.5313,74.0625 76.8092,46.3935 76.3405,44.6747 C 76.3404,42.0185 75.5592,38.8935 72.7467,36.706 C 69.9342,34.5185 38.109976,13.013603 37.172476,13.013603 z "
     transform="matrix(1.418885,-0.200635,0.127692,1.110535,-28.98864,5.917244)"
     style="font-size:12;fill:#ff933d;fill-rule:evenodd;stroke-width:1pt;fill-opacity:1"
     id="path552"
     sodipodi:nodetypes="cscsccsscsc" />
  <path
     d="M 38.103382,16.530109 C 43.691582,19.927409 71.8791,39.6105 73.1291,42.2667 C 74.3791,44.923 66.7188,75.625 66.7188,76.4062 C 66.7188,77.1875 59.439106,51.165255 56.314106,49.133955 C 54.361365,47.864704 45.957689,43.745256 39.641364,39.48164 C 38.533285,38.733669 40.155191,30.117269 39.219887,29.395083 C 36.954637,27.645991 33.090226,24.901434 33.233345,23.614421 C 33.667355,19.711551 36.011169,15.374093 36.853382,15.592609"
     style="font-size:12;fill:url(#linearGradient631);fill-rule:evenodd;stroke-width:1pt;"
     id="path562"
     transform="matrix(1.418885,-0.200635,0.127692,1.110535,-28.98864,5.917244)"
     sodipodi:nodetypes="cssssssc" />
  <path
     d="M 74.074941,79.197532 C 66.796544,66.71399 64.896926,58.250198 61.41606,54.065376 C 58.236889,50.458378 57.310195,50.265153 53.080313,48.941247 C 45.908233,47.518641 31.624089,43.670632 31.182982,42.033103 C 28.059071,42.264528 29.77082,32.028701 22.117742,28.665968 C 17.102821,26.515938 4.1932342,20.879115 4.1932342,20.879115 L 11.982436,21.098894 C 14.902213,22.738238 28.103592,27.927714 29.391728,29.153062 C 31.950089,29.760475 30.726248,36.859974 33.242541,38.856796 C 35.736709,42.394322 56.36799,46.53612 58.039678,47.25279 C 59.711223,47.969478 63.214214,50.613595 64.701739,53.352527 C 71.412505,65.572966 73.055074,74.038241 74.074941,79.197532 z "
     style="font-size:12px;fill:#593a28;fill-rule:evenodd;stroke-width:1pt"
     id="path553"
     sodipodi:nodetypes="cccccccccscc" />
  <path
     d="M 7.0717746,25.590781 C 9.7234156,25.955411 18.602257,30.25953 21.93954,33.246605 C 23.645019,36.598494 22.732045,43.563963 29.51056,46.720393 C 36.289063,49.876724 51.984324,50.826529 54.63051,54.059389 C 57.276709,57.29235 68.393049,76.644501 69.274137,78.539754 C 70.155096,80.435125 20.092315,65.161562 17.87562,60.313648 C 14.843776,55.465656 10.717395,50.197592 7.0717746,25.590781 z "
     style="font-size:12px;fill:url(#linearGradient559);fill-rule:evenodd;stroke-width:1pt"
     id="path635"
     sodipodi:nodetypes="ccssscc" />
</svg>
