<?xml version="1.0" encoding="UTF-8" standalone="no"?>
<!-- Created with Sodipodi ("http://www.sodipodi.com/") -->

<svg
   xmlns:dc="http://purl.org/dc/elements/1.1/"
   xmlns:cc="http://creativecommons.org/ns#"
   xmlns:rdf="http://www.w3.org/1999/02/22-rdf-syntax-ns#"
   xmlns:svg="http://www.w3.org/2000/svg"
   xmlns="http://www.w3.org/2000/svg"
   xmlns:xlink="http://www.w3.org/1999/xlink"
   xmlns:sodipodi="http://sodipodi.sourceforge.net/DTD/sodipodi-0.dtd"
   xmlns:inkscape="http://www.inkscape.org/namespaces/inkscape"
   id="svg695"
   sodipodi:version="0.32"
   width="72pt"
   height="72pt"
   sodipodi:docname="gdu-error.svg"
   version="1.1"
   inkscape:version="0.47pre1 r21720"
   inkscape:output_extension="org.inkscape.output.svg.inkscape">
  <metadata
     id="metadata41">
    <rdf:RDF>
      <cc:Work
         rdf:about="">
        <dc:format>image/svg+xml</dc:format>
        <dc:type
           rdf:resource="http://purl.org/dc/dcmitype/StillImage" />
        <dc:title></dc:title>
      </cc:Work>
    </rdf:RDF>
  </metadata>
  <defs
     id="defs697">
    <linearGradient
       id="linearGradient59">
      <stop
         style="stop-color:#b3cbef;stop-opacity:1"
         offset="0.000000"
         id="stop61" />
      <stop
         id="stop65"
         offset="0.35850754"
         style="stop-color:#ffffff;stop-opacity:1" />
      <stop
         style="stop-color:#b3cbef;stop-opacity:1"
         offset="1.000000"
         id="stop63" />
    </linearGradient>
    <linearGradient
       inkscape:collect="always"
       id="linearGradient51">
      <stop
         style="stop-color:#ffffff;stop-opacity:1;"
         offset="0"
         id="stop53" />
      <stop
         style="stop-color:#ffffff;stop-opacity:0;"
         offset="1"
         id="stop55" />
    </linearGradient>
    <linearGradient
       id="linearGradient45">
      <stop
         id="stop47"
         offset="0.000000"
         style="stop-color:#b3cbef;stop-opacity:1" />
      <stop
         id="stop49"
         offset="1.000000"
         style="stop-color:#ffffff;stop-opacity:1" />
    </linearGradient>
    <linearGradient
       xlink:href="#linearGradient59"
       id="linearGradient719"
       x1="11.371838"
       y1="68.134689"
       x2="51.88517"
       y2="115.05104"
       gradientUnits="userSpaceOnUse"
       gradientTransform="matrix(1.615491,0.000000,0.000000,0.619007,7.394509e-8,-1.278808e-6)"
       spreadMethod="pad" />
    <linearGradient
       xlink:href="#linearGradient45"
       id="linearGradient721"
       x1="24.39395"
       y1="79.008072"
       x2="29.330175"
       y2="64.576462"
       gradientUnits="userSpaceOnUse"
       spreadMethod="pad"
       gradientTransform="matrix(1.066005,0.000000,0.000000,0.938082,7.394509e-8,-1.278808e-6)" />
    <linearGradient
       xlink:href="#linearGradient45"
       id="linearGradient725"
       x1="42.1643028"
       y1="103.865761"
       x2="46.2594757"
       y2="115.265465"
       gradientUnits="userSpaceOnUse"
       gradientTransform="matrix(1.519424,0.000000,0.000000,0.658144,7.394509e-8,-1.278808e-6)"
       spreadMethod="pad" />
    <linearGradient
       inkscape:collect="always"
       xlink:href="#linearGradient51"
       id="linearGradient57"
       x1="24.3985"
       y1="38.18615"
       x2="63.0463"
       y2="38.18615"
       gradientUnits="userSpaceOnUse" />
    <inkscape:perspective
       sodipodi:type="inkscape:persp3d"
       inkscape:vp_x="0 : 45 : 1"
       inkscape:vp_y="0 : 1000 : 0"
       inkscape:vp_z="90 : 45 : 1"
       inkscape:persp3d-origin="45 : 30 : 1"
       id="perspective2530" />
    <linearGradient
       id="linearGradient16960">
      <stop
         style="stop-color:#ed0000;stop-opacity:1;"
         offset="0"
         id="stop16962" />
      <stop
         style="stop-color:#b01911;stop-opacity:0.94117647;"
         offset="1"
         id="stop16964" />
    </linearGradient>
    <linearGradient
       id="linearGradient15975">
      <stop
         style="stop-color:#ff933d;stop-opacity:1;"
         offset="0"
         id="stop15977" />
      <stop
         style="stop-color:#f1e36c;stop-opacity:1;"
         offset="1"
         id="stop15979" />
    </linearGradient>
    <linearGradient
       inkscape:collect="always"
       xlink:href="#linearGradient15975"
       id="linearGradient2214"
       gradientUnits="userSpaceOnUse"
       x1="23.714876"
       y1="8.4751806"
       x2="21.772354"
       y2="2.5743539"
       gradientTransform="matrix(-3.0746745,0,0,3.0746745,85.749857,-1.985899)" />
    <linearGradient
       inkscape:collect="always"
       xlink:href="#linearGradient15975"
       id="linearGradient2218"
       gradientUnits="userSpaceOnUse"
       x1="7.5014257"
       y1="9.9151182"
       x2="9.7260151"
       y2="3.3200767"
       gradientTransform="matrix(-3.0746745,0,0,3.0746745,85.749857,-1.985899)" />
    <linearGradient
       inkscape:collect="always"
       xlink:href="#linearGradient16960"
       id="linearGradient2222"
       gradientUnits="userSpaceOnUse"
       x1="13.131854"
       y1="17.551172"
       x2="9.6861563"
       y2="22.956131"
       gradientTransform="matrix(-3.0746745,0,0,3.0746745,85.749857,-1.985899)" />
    <inkscape:perspective
       id="perspective15"
       inkscape:persp3d-origin="45 : 30 : 1"
       inkscape:vp_z="90 : 45 : 1"
       inkscape:vp_y="0 : 1000 : 0"
       inkscape:vp_x="0 : 45 : 1"
       sodipodi:type="inkscape:persp3d" />
  </defs>
  <sodipodi:namedview
     id="base"
     showgrid="false"
     inkscape:zoom="5.2444444"
     inkscape:cx="20.674178"
     inkscape:cy="49.695746"
     inkscape:window-width="1024"
     inkscape:window-height="737"
     inkscape:window-x="0"
     inkscape:window-y="1"
     inkscape:window-maximized="1"
     inkscape:current-layer="svg695" />
  <path
     style="font-size:12;fill:#000000;fill-rule:evenodd;stroke-width:1pt;fill-opacity:0.3;"
     d="M 5.08233 49.7833 C 3.68284 55.0129 4.49307 60.6846 5.52427 65.4723 C 15.3206 71.8067 29.5364 79.0251 42.8684 87.7903 C 58.5573 83.9601 75.358 81.2348 91.2679 78.9515 C 90.605 72.4697 90.384 66.4298 91.2679 60.169 C 87.9533 57.5173 49.4974 39.6186 46.4039 38.0719 C 26.7375 35.6412 5.3033 47.5736 5.08233 49.7833 z "
     id="path780"
     sodipodi:nodetypes="ccccccc"
     transform="matrix(0.994837,0.000000,0.000000,1.423897,-4.089137,-34.46167)" />
  <path
     style="font-size:12;fill:#3d4e67;fill-rule:evenodd;stroke-width:1pt;"
     d="M 5.08233 49.7833 C 3.68284 55.0129 4.49307 60.6846 5.52427 65.4723 C 15.3206 71.8067 29.5364 79.0251 42.8684 87.7903 C 58.5573 83.9601 75.358 81.2348 91.2679 78.9515 C 90.605 72.4697 90.384 66.4298 91.2679 60.169 C 87.9533 57.5173 49.4974 39.6186 46.4039 38.0719 C 26.7375 35.6412 5.3033 47.5736 5.08233 49.7833 z "
     id="path726"
     sodipodi:nodetypes="ccccccc"
     transform="matrix(0.994837,0.000000,0.000000,1.423897,-1.745386,-40.08667)" />
  <path
     style="font-size:12;fill:url(#linearGradient725);fill-rule:evenodd;stroke-width:1pt;"
     d="m 44.769203,72.536636 c 0,2.7253 0,6.789728 0,9.515028 C 58.469403,79.473664 71.5946,76.2262 85.2948,73.6482 85.1475,70.26 85.663,66.6507 85.5157,63.2625 68.4273,64.7356 53.681703,67.969936 44.769203,72.536636 z"
     id="path724"
     sodipodi:nodetypes="ccccc"
     transform="matrix(0.994837,0.000000,0.000000,1.423897,-1.745386,-40.08667)" />
  <path
     style="font-size:12;fill:url(#linearGradient719);fill-rule:evenodd;stroke-width:1pt"
     d="M 9.94369,51.772 C 22.9073,59.0641 31.038932,64.059313 44.002532,71.351313 53.766349,66.068224 72.921976,62.612987 84.20336,62.150936 68.73536,54.048736 61.2089,50.8145 45.7409,42.7122 33.2929,40.5762 20.8449,45.0692 9.94369,51.772 z"
     id="path718"
     sodipodi:nodetypes="ccccc"
     transform="matrix(0.994837,0.000000,0.000000,1.423897,-1.745386,-40.08667)" />
  <path
     style="font-size:12;fill:url(#linearGradient721);fill-rule:evenodd;stroke-width:1pt"
     d="m 9.6268863,53.61342 c 10.9748797,6.3345 21.5743817,12.294057 33.2121817,19.070457 0.0737,3.3882 -0.04437,5.972923 0.02933,9.361123 C 31.8198,75.4159 21.346303,69.322451 10.297723,62.693351 9.6348126,59.820751 9.701344,55.903544 9.6268863,53.61342 z"
     id="path720"
     sodipodi:nodetypes="ccccc"
     transform="matrix(0.994837,0.000000,0.000000,1.423897,-1.745386,-40.08667)" />
  <path
     style="font-size:12;fill:#810b0b;fill-rule:evenodd;stroke-width:1pt;fill-opacity:1;"
     d="M 47.0668 64.1464 C 45.8426 64.1464 44.8571 65.1319 44.8571 66.3561 L 44.5634 68.7146 C 44.5634 69.9388 45.5489 70.9243 46.7731 70.9243 L 51.6713 70.7121 C 52.8337 70.594 53.5011 70.4665 53.7225 68.7762 L 54.0887 66.1875 C 54.0887 64.9633 53.36 64.0412 52.1359 64.0412 L 47.0668 64.1464 z "
     id="path758"
     transform="matrix(0.859958,-0.246416,0.212199,0.998628,-8.377747,10.19030)"
     sodipodi:nodetypes="ccccccccc" />
  <path
     style="font-size:12;fill:#d01111;fill-rule:evenodd;stroke-width:1pt;fill-opacity:1;"
     d="M 47.0668 64.1464 C 45.8426 64.1464 44.8571 65.1319 44.8571 66.3561 L 44.5634 68.7146 C 44.5634 69.9388 45.5489 70.9243 46.7731 70.9243 L 51.6713 70.7121 C 52.8337 70.594 53.5011 70.4665 53.7225 68.7762 L 54.0887 66.1875 C 54.0887 64.9633 53.36 64.0412 52.1359 64.0412 L 47.0668 64.1464 z "
     id="path759"
     transform="matrix(0.758064,-0.223914,0.203866,0.800327,-3.183137,22.06495)"
     sodipodi:nodetypes="ccccccccc" />
  <path
     style="font-size:12;fill:url(#linearGradient57);fill-rule:evenodd;stroke:#3d4e67;stroke-width:2.87500000000000000"
     d="M 61.6088 38.1861 C 61.6088 44.69 53.5957 49.9685 43.7224 49.9685 C 33.8491 49.9685 25.836 44.69 25.836 38.1861 C 25.836 31.6823 33.8491 26.4038 43.7224 26.4038 C 53.5957 26.4038 61.6088 31.6823 61.6088 38.1861 z "
     id="path584"
     transform="translate(1.987381,3.406944)" />
  <path
     style="fill:none;fill-rule:evenodd;stroke:#3d4e67;stroke-opacity:1;stroke-width:1.25;stroke-linejoin:miter;stroke-linecap:butt;fill-opacity:1;stroke-dasharray:none;"
     d="M 62.7445 72.9653 C 62.4606 68.4227 62.1766 63.8801 61.8927 59.3375 C 68.9905 55.3628 76.3723 53.9432 84.0379 55.0789 "
     id="path587"
     sodipodi:nodetypes="ccc" />
  <path
     style="fill:none;fill-rule:evenodd;stroke:#3d4e67;stroke-opacity:1;stroke-width:1.25;stroke-linejoin:miter;stroke-linecap:butt;fill-opacity:1;stroke-dasharray:none;"
     d="M 67.0032 56.7823 L 68.1388 70.9779 "
     id="path588"
     sodipodi:nodetypes="cc" />
  <path
     style="fill:none;fill-rule:evenodd;stroke:#3d4e67;stroke-opacity:1;stroke-width:1.25;stroke-linejoin:miter;stroke-linecap:butt;fill-opacity:1;stroke-dasharray:none;"
     d="M 72.6814 55.0789 L 73.5332 69.2745 "
     id="path589"
     sodipodi:nodetypes="cc" />
  <path
     style="fill:none;fill-rule:evenodd;stroke:#3d4e67;stroke-opacity:1;stroke-width:1.25;stroke-linejoin:miter;stroke-linecap:butt;fill-opacity:1;stroke-dasharray:none;"
     d="M 78.6435 54.2271 L 78.9274 67.2871 "
     id="path590"
     sodipodi:nodetypes="cc" />
  <g
     id="g198"
     transform="matrix(0.71523357,0,0,0.71523357,-13.488455,27.105424)">
    <path
       sodipodi:nodetypes="ccccccc"
       id="path570"
       d="M 33.252934,57.391746 41.681533,65.9682 54.546163,62.567151 60.9046,14.805286 50.701549,2.82777 24.528625,5.045816 l 8.724309,52.34593 z"
       style="fill:#2c0000;fill-opacity:1;fill-rule:evenodd;stroke:none" />
    <path
       id="path568"
       d="m 51.293068,8.446829 5.323257,5.323276 -5.471112,46.135467 -7.837182,2.070159 -5.02755,-5.619066 9.75939,-1.626498 3.253197,-46.283338 z"
       style="fill:none;stroke:none" />
    <path
       sodipodi:nodetypes="ccccccc"
       id="path569"
       d="m 49.518613,6.968115 -2.957385,46.874727 -9.315825,1.330989 5.619066,6.358338 8.280642,-1.626597 5.323359,-44.656823 -6.949857,-8.280634 z"
       style="fill:#7d0000;fill-opacity:1;fill-rule:evenodd;stroke:none" />
    <path
       sodipodi:nodetypes="ccccc"
       id="path567"
       d="M 29.999737,9.334072 37.54111,55.617393 47.00479,54.34052 49.814323,7.5596 z"
       style="fill:#ff1400;fill-opacity:1;fill-rule:evenodd;stroke:none" />
    <path
       transform="matrix(1.100745,0,0,1.169484,1.421434,-6.62661)"
       sodipodi:ry="10.997026"
       sodipodi:rx="11.939625"
       sodipodi:cy="68.73909"
       sodipodi:cx="40.008221"
       d="m 51.947845,68.73909 c 0,6.07349 -5.345552,10.997026 -11.939624,10.997026 -6.594073,0 -11.939625,-4.923536 -11.939625,-10.997026 0,-6.07349 5.345552,-10.997026 11.939625,-10.997026 6.594072,0 11.939624,4.923536 11.939624,10.997026 z"
       id="path558"
       style="fill:#2c0000;fill-opacity:1;fill-rule:evenodd;stroke:none"
       sodipodi:type="arc" />
    <path
       sodipodi:nodetypes="ccccc"
       id="path562"
       d="m 55.223236,74.41992 c 0,4.974606 -3.995268,9.011955 -8.917974,9.011955 -4.92291,0 -8.918175,-4.037349 -8.918175,-9.011955 0,-4.974609 11.129787,-1.939218 8.918175,-9.011955 4.922706,0 8.917974,4.037346 8.917974,9.011955 z"
       style="font-size:12px;fill:#7d0000;fill-opacity:1;fill-rule:evenodd;stroke-width:1pt" />
    <path
       id="path561"
       d="m 51.84376,73.105689 c 0,4.663677 -3.658821,8.448735 -8.167038,8.448735 -4.508316,0 -8.167137,-3.785058 -8.167137,-8.448735 0,-4.663677 3.658821,-8.448732 8.167137,-8.448732 4.508217,0 8.167038,3.785055 8.167038,8.448732 z"
       style="font-size:12px;fill:#ff1400;fill-opacity:1;fill-rule:evenodd;stroke-width:1pt" />
  </g>
</svg>
