<?xml version="1.0" encoding="UTF-8" standalone="no"?>
<!-- Created with Inkscape (http://www.inkscape.org/) -->
<svg
   xmlns:dc="http://purl.org/dc/elements/1.1/"
   xmlns:cc="http://creativecommons.org/ns#"
   xmlns:rdf="http://www.w3.org/1999/02/22-rdf-syntax-ns#"
   xmlns:svg="http://www.w3.org/2000/svg"
   xmlns="http://www.w3.org/2000/svg"
   xmlns:xlink="http://www.w3.org/1999/xlink"
   xmlns:sodipodi="http://sodipodi.sourceforge.net/DTD/sodipodi-0.dtd"
   xmlns:inkscape="http://www.inkscape.org/namespaces/inkscape"
   width="90"
   height="90"
   id="svg2"
   sodipodi:version="0.32"
   inkscape:version="0.46+devel"
   version="1.0"
   sodipodi:docname="gpm-brightness-lcd-invalid.svg"
   inkscape:output_extension="org.inkscape.output.svg.inkscape">
  <defs
     id="defs4">
    <linearGradient
       id="linearGradient3165">
      <stop
         style="stop-color:#fffbe1;stop-opacity:1"
         offset="0"
         id="stop3167" />
      <stop
         style="stop-color:#a9e2f5;stop-opacity:1"
         offset="1"
         id="stop3169" />
    </linearGradient>
    <radialGradient
       inkscape:collect="always"
       xlink:href="#linearGradient3165"
       id="radialGradient3173"
       cx="42.023693"
       cy="44.997265"
       fx="35.64209"
       fy="32.427597"
       r="28.192772"
       gradientUnits="userSpaceOnUse"
       gradientTransform="matrix(1.0239517,-0.5239538,0.5014648,0.9800017,-19.759209,21.72133)" />
  </defs>
  <sodipodi:namedview
     id="base"
     pagecolor="#ffffff"
     bordercolor="#666666"
     borderopacity="1.0"
     gridtolerance="10000"
     guidetolerance="10"
     objecttolerance="10"
     inkscape:pageopacity="0.0"
     inkscape:pageshadow="2"
     inkscape:zoom="2.7666667"
     inkscape:cx="55.569471"
     inkscape:cy="34.578528"
     inkscape:document-units="px"
     inkscape:current-layer="layer1"
     showgrid="false"
     inkscape:window-width="724"
     inkscape:window-height="724"
     inkscape:window-x="0"
     inkscape:window-y="1" />
  <metadata
     id="metadata7">
    <rdf:RDF>
      <cc:Work
         rdf:about="">
        <dc:format>image/svg+xml</dc:format>
        <dc:type
           rdf:resource="http://purl.org/dc/dcmitype/StillImage" />
      </cc:Work>
    </rdf:RDF>
  </metadata>
  <g
     inkscape:label="Layer 1"
     inkscape:groupmode="layer"
     id="layer1">
    <path
       transform="matrix(0.9917973,0,0,0.9917973,1.6665261,2.7255573)"
       d="M 49.71875,3.625 C 48.566198,3.6704123 47.45915,4.0869255 46.5625,4.8125 C 42.473029,8.1166784 39.775499,10.892732 37.9375,12.84375 C 36.49914,14.370555 36.122873,14.664561 36,14.84375 C 34.691523,14.192036 32.109992,12.546898 28.09375,10.03125 C 26.601109,9.0958114 24.743765,8.9546871 23.126923,9.6538618 C 21.510082,10.353037 20.340769,11.802985 20,13.53125 C 18.991134,18.691235 18.684817,22.57344 18.53125,25.25 C 18.411696,27.333741 18.35666,27.773022 18.375,28 C 16.956198,28.342026 13.885098,28.751208 9.1875,29.40625 C 7.4383492,29.649866 5.9219458,30.740608 5.1346516,32.321445 C 4.3473574,33.902281 4.3905159,35.769722 5.25,37.3125 C 7.7938191,41.913549 10.054373,45.070179 11.65625,47.21875 C 12.923577,48.918594 13.167425,49.337878 13.3125,49.46875 C 12.44333,50.644177 10.363169,52.886946 7.1875,56.40625 C 5.999806,57.712436 5.5325852,59.52027 5.9386788,61.238358 C 6.3447723,62.956446 7.5719436,64.363787 9.21875,65 C 14.124562,66.889332 17.892345,67.851696 20.5,68.46875 C 22.560473,68.956323 23.020531,69.116356 23.21875,69.125 C 23.309018,70.584002 23.170629,73.666517 23,78.40625 C 22.937454,80.168892 23.747272,81.849204 25.16499,82.89844 C 26.582707,83.947676 28.42632,84.231136 30.09375,83.65625 C 35.066497,81.950085 38.542337,80.26692 40.9375,79.0625 C 42.814057,78.118863 43.261134,77.969745 43.4375,77.84375 C 44.444431,78.902941 46.336219,81.324733 49.25,85.0625 C 50.333862,86.455239 52.034586,87.224205 53.796177,87.11801 C 55.557767,87.011815 57.153798,86.044108 58.0625,84.53125 C 60.775184,80.027767 62.3468,76.492011 63.40625,74.03125 C 64.23874,72.097643 64.483368,71.701476 64.53125,71.5 C 65.98336,71.6651 68.985766,72.321174 73.625,73.3125 C 75.348278,73.680637 77.142346,73.176986 78.422248,71.965762 C 79.70215,70.754537 80.303882,68.990944 80.03125,67.25 C 79.214498,62.056425 78.176716,58.317926 77.40625,55.75 C 76.80534,53.747197 76.719387,53.29829 76.625,53.09375 C 77.843072,52.28615 80.563667,50.845129 84.75,48.625 C 86.300487,47.796262 87.345142,46.25896 87.544765,44.512259 C 87.744388,42.765558 87.073523,41.032196 85.75,39.875 C 81.786281,36.421762 78.58219,34.221077 76.34375,32.75 C 74.604567,31.607029 74.268873,31.317264 74.0625,31.21875 C 74.478577,29.8149 75.657204,26.955249 77.4375,22.5625 C 78.092689,20.92853 77.902519,19.076859 76.928888,17.610172 C 75.955257,16.143484 74.322669,15.249334 72.5625,15.21875 C 67.306328,15.121244 63.444389,15.500489 60.78125,15.8125 C 58.68485,16.058113 58.200864,16.03529 58,16.09375 C 57.415519,14.754046 56.490639,11.820562 55.03125,7.3125 C 54.287019,5.0315936 52.1159,3.5245819 49.71875,3.625 L 49.71875,3.625 z"
       id="path3191"
       style="fill:#000000;fill-opacity:0.29411765;fill-rule:evenodd;stroke:#000000;stroke-width:0;stroke-linecap:butt;stroke-linejoin:miter;marker:none;marker-start:none;marker-mid:none;marker-end:none;stroke-miterlimit:4;stroke-dashoffset:0;stroke-opacity:1;visibility:visible;display:inline;overflow:visible;enable-background:accumulate"
       inkscape:original="M 49.9375 8.96875 C 34.522795 21.423402 41.293336 24.611544 25.25 14.5625 C 21.447348 34.011695 28.686808 32.104311 9.9375 34.71875 C 19.526201 52.061996 23.838524 45.945397 11.15625 60 C 29.649645 67.122196 29.02481 59.675294 28.34375 78.59375 C 47.088573 72.162343 41.829925 66.851092 53.46875 81.78125 C 63.694091 64.80557 56.237224 64.137881 74.75 68.09375 C 71.671305 48.516901 65.525609 52.775662 82.25 43.90625 C 67.30783 30.888459 65.358267 38.107098 72.46875 20.5625 C 52.654705 20.194934 55.768007 26.979224 49.9375 8.96875 z "
       inkscape:radius="5.3519611"
       sodipodi:type="inkscape:offset" />
    <path
       sodipodi:type="inkscape:offset"
       inkscape:radius="5.3519611"
       inkscape:original="M 49.9375 8.96875 C 34.522795 21.423402 41.293336 24.611544 25.25 14.5625 C 21.447348 34.011695 28.686808 32.104311 9.9375 34.71875 C 19.526201 52.061996 23.838524 45.945397 11.15625 60 C 29.649645 67.122196 29.02481 59.675294 28.34375 78.59375 C 47.088573 72.162343 41.829925 66.851092 53.46875 81.78125 C 63.694091 64.80557 56.237224 64.137881 74.75 68.09375 C 71.671305 48.516901 65.525609 52.775662 82.25 43.90625 C 67.30783 30.888459 65.358267 38.107098 72.46875 20.5625 C 52.654705 20.194934 55.768007 26.979224 49.9375 8.96875 z "
       style="fill:#346699;fill-opacity:1;fill-rule:evenodd;stroke:#000000;stroke-width:0;stroke-linecap:butt;stroke-linejoin:miter;marker:none;marker-start:none;marker-mid:none;marker-end:none;stroke-miterlimit:4;stroke-dashoffset:0;stroke-opacity:1;visibility:visible;display:inline;overflow:visible;enable-background:accumulate"
       id="path3180"
       d="M 49.71875,3.625 C 48.566198,3.6704123 47.45915,4.0869255 46.5625,4.8125 C 42.473029,8.1166784 39.775499,10.892732 37.9375,12.84375 C 36.49914,14.370555 36.122873,14.664561 36,14.84375 C 34.691523,14.192036 32.109992,12.546898 28.09375,10.03125 C 26.601109,9.0958114 24.743765,8.9546871 23.126923,9.6538618 C 21.510082,10.353037 20.340769,11.802985 20,13.53125 C 18.991134,18.691235 18.684817,22.57344 18.53125,25.25 C 18.411696,27.333741 18.35666,27.773022 18.375,28 C 16.956198,28.342026 13.885098,28.751208 9.1875,29.40625 C 7.4383492,29.649866 5.9219458,30.740608 5.1346516,32.321445 C 4.3473574,33.902281 4.3905159,35.769722 5.25,37.3125 C 7.7938191,41.913549 10.054373,45.070179 11.65625,47.21875 C 12.923577,48.918594 13.167425,49.337878 13.3125,49.46875 C 12.44333,50.644177 10.363169,52.886946 7.1875,56.40625 C 5.999806,57.712436 5.5325852,59.52027 5.9386788,61.238358 C 6.3447723,62.956446 7.5719436,64.363787 9.21875,65 C 14.124562,66.889332 17.892345,67.851696 20.5,68.46875 C 22.560473,68.956323 23.020531,69.116356 23.21875,69.125 C 23.309018,70.584002 23.170629,73.666517 23,78.40625 C 22.937454,80.168892 23.747272,81.849204 25.16499,82.89844 C 26.582707,83.947676 28.42632,84.231136 30.09375,83.65625 C 35.066497,81.950085 38.542337,80.26692 40.9375,79.0625 C 42.814057,78.118863 43.261134,77.969745 43.4375,77.84375 C 44.444431,78.902941 46.336219,81.324733 49.25,85.0625 C 50.333862,86.455239 52.034586,87.224205 53.796177,87.11801 C 55.557767,87.011815 57.153798,86.044108 58.0625,84.53125 C 60.775184,80.027767 62.3468,76.492011 63.40625,74.03125 C 64.23874,72.097643 64.483368,71.701476 64.53125,71.5 C 65.98336,71.6651 68.985766,72.321174 73.625,73.3125 C 75.348278,73.680637 77.142346,73.176986 78.422248,71.965762 C 79.70215,70.754537 80.303882,68.990944 80.03125,67.25 C 79.214498,62.056425 78.176716,58.317926 77.40625,55.75 C 76.80534,53.747197 76.719387,53.29829 76.625,53.09375 C 77.843072,52.28615 80.563667,50.845129 84.75,48.625 C 86.300487,47.796262 87.345142,46.25896 87.544765,44.512259 C 87.744388,42.765558 87.073523,41.032196 85.75,39.875 C 81.786281,36.421762 78.58219,34.221077 76.34375,32.75 C 74.604567,31.607029 74.268873,31.317264 74.0625,31.21875 C 74.478577,29.8149 75.657204,26.955249 77.4375,22.5625 C 78.092689,20.92853 77.902519,19.076859 76.928888,17.610172 C 75.955257,16.143484 74.322669,15.249334 72.5625,15.21875 C 67.306328,15.121244 63.444389,15.500489 60.78125,15.8125 C 58.68485,16.058113 58.200864,16.03529 58,16.09375 C 57.415519,14.754046 56.490639,11.820562 55.03125,7.3125 C 54.287019,5.0315936 52.1159,3.5245819 49.71875,3.625 L 49.71875,3.625 z"
       transform="matrix(0.9917973,0,0,0.9917973,-1.2473353,-0.8739185)" />
    <path
       style="fill:#71cdfb;fill-opacity:1;fill-rule:evenodd;stroke:#000000;stroke-width:0;stroke-linecap:butt;stroke-linejoin:miter;marker:none;marker-start:none;marker-mid:none;marker-end:none;stroke-miterlimit:4;stroke-dashoffset:0;stroke-opacity:1;visibility:visible;display:inline;overflow:visible;enable-background:accumulate"
       d="M 72.889206,66.64879 C 54.528282,62.725367 61.91717,63.399388 51.775704,80.235821 C 40.232348,65.428133 45.459315,70.693943 26.868249,77.072594 C 27.543724,58.30932 28.163013,65.702994 9.8213143,58.639218 C 22.39956,44.699903 18.121398,50.761858 8.6113509,33.560874 C 27.206864,30.967879 20.033053,32.861659 23.804513,13.572 C 39.716252,23.538614 33.00349,20.378099 48.291753,8.0256088 C 54.074435,25.888348 50.9637,19.15237 70.615216,19.516921 C 63.56306,36.917606 65.509906,29.758013 80.32951,42.669024 C 63.742302,51.465682 69.835764,47.232523 72.889206,66.64879 z"
       id="path3175"
       sodipodi:nodetypes="cccccccccc" />
    <g
       id="g2674"
       transform="matrix(0.589561,0,0,0.589561,17.253288,17.976181)">
      <path
         transform="matrix(0.921411,0,0,0.921411,-2.6695357,-2.6695357)"
         d="M 96.565838,51.645908 A 44.91993,44.91993 0 1 1 6.7259789,51.645908 44.91993,44.91993 0 1 1 96.565838,51.645908 z"
         sodipodi:ry="44.91993"
         sodipodi:rx="44.91993"
         sodipodi:cy="51.645908"
         sodipodi:cx="51.645908"
         id="path585"
         style="font-size:12px;fill:#000000;fill-opacity:1;fill-rule:evenodd;stroke:none"
         sodipodi:type="arc" />
      <path
         transform="matrix(0.806112,0,0,0.806112,3.5399513,3.6907343)"
         d="M 96.565838,51.645908 A 44.91993,44.91993 0 1 1 6.7259789,51.645908 44.91993,44.91993 0 1 1 96.565838,51.645908 z"
         sodipodi:ry="44.91993"
         sodipodi:rx="44.91993"
         sodipodi:cy="51.645908"
         sodipodi:cx="51.645908"
         id="path586"
         style="font-size:12px;fill:#ed0000;fill-opacity:1;fill-rule:evenodd;stroke:none"
         sodipodi:type="arc" />
      <path
         sodipodi:nodetypes="ccccc"
         id="path590"
         d="m 18.045524,38.123816 -0.062241,13.489263 53.957055,0.248967 0.062241,-13.489263 z"
         style="font-size:12px;fill:#ffffff;fill-opacity:1;fill-rule:evenodd;stroke:none" />
      <path
         sodipodi:nodetypes="cssssssscssssssc"
         id="path582"
         d="m 81.382946,45.32318 c 0,2.498529 -0.253473,4.938213 -0.736092,7.294728 -0.482619,2.356515 -1.194384,4.629858 -2.110962,6.795702 -0.916578,2.165841 -2.037975,4.224186 -3.339858,6.150699 -1.30188,1.926516 -2.784252,3.7212 -4.422777,5.359728 -1.638528,1.638528 -3.433215,3.120897 -5.359728,4.42278 -1.926513,1.30188 -3.984858,2.423277 -6.150699,3.339855 -2.165844,0.916581 -4.43919,1.628343 -6.795702,2.110962 -2.356515,0.482619 -4.796202,0.736092 -7.294728,0.736092 -2.498529,0 -4.938213,-0.253473 -7.294728,-0.736092 -2.356515,-0.482619 -4.629858,-1.194381 -6.795702,-2.110962 -2.165844,-0.916578 -8.444649,-3.719538 -6.150702,-3.339855 69.020322,11.389485 48.962886,-52.191282 50.264766,-50.264766 1.301883,1.926513 2.42328,3.984855 3.339858,6.150699 0.916578,2.165844 1.628343,4.439187 2.110962,6.795702 0.482619,2.356515 0.736092,4.796199 0.736092,7.294728 z"
         style="font-size:12px;fill:#b01911;fill-opacity:1;fill-rule:evenodd;stroke-width:1pt" />
      <path
         sodipodi:nodetypes="cssssssscssssc"
         id="path583"
         d="m 8.3352653,46.552859 c -0.153969,-2.49378 -0.051324,-4.944447 0.285159,-7.326225 0.33648,-2.381778 0.906798,-4.694664 1.6881657,-6.912876 0.781365,-2.218209 1.773786,-4.341747 2.954472,-6.344826 1.180686,-2.003082 2.54964,-3.885708 4.08408,-5.622093 1.534437,-1.736388 3.234363,-3.326538 5.076987,-4.744668 1.842624,-1.41813 3.827949,-2.664237 5.933193,-3.712545 2.105241,-1.048305 4.330401,-1.8988107 6.652695,-2.5257327 2.322297,-0.626922 4.741725,-1.03026 7.235502,-1.184232 2.49378,-0.153969 4.944447,-0.051324 7.326225,0.285159 2.381778,0.33648 4.694664,0.906798 6.912873,1.6881627 2.218212,0.781368 8.789085,4.215642 6.552885,3.57864 C 7.178132,-2.121166 10.146419,56.110655 9.519497,53.788361 8.892575,51.466064 8.489237,49.046636 8.335265,46.552859 z"
         style="font-size:12px;fill:#ffffff;fill-opacity:1;fill-rule:evenodd;stroke-width:1pt" />
    </g>
  </g>
</svg>
