<?xml version="1.0" encoding="UTF-8" standalone="no"?>
<!-- Created with Inkscape (http://www.inkscape.org/) -->

<svg
   xmlns:dc="http://purl.org/dc/elements/1.1/"
   xmlns:cc="http://creativecommons.org/ns#"
   xmlns:rdf="http://www.w3.org/1999/02/22-rdf-syntax-ns#"
   xmlns:svg="http://www.w3.org/2000/svg"
   xmlns="http://www.w3.org/2000/svg"
   xmlns:xlink="http://www.w3.org/1999/xlink"
   xmlns:sodipodi="http://sodipodi.sourceforge.net/DTD/sodipodi-0.dtd"
   xmlns:inkscape="http://www.inkscape.org/namespaces/inkscape"
   width="72.000000pt"
   height="72.000000pt"
   id="svg1"
   sodipodi:version="0.32"
   inkscape:version="0.47pre1 r21720"
   sodipodi:docname="gpm-keyboard-080.svg"
   inkscape:output_extension="org.inkscape.output.svg.inkscape"
   version="1.1">
  <defs
     id="defs3">
    <linearGradient
       inkscape:collect="always"
       xlink:href="#linearGradient3247"
       id="linearGradient3297"
       gradientUnits="userSpaceOnUse"
       gradientTransform="matrix(1.0218737,0,0,1.0218737,-13.420304,0.3672098)"
       x1="85.833366"
       y1="86.219376"
       x2="30.960642"
       y2="44.019371" />
    <linearGradient
       id="linearGradient3247">
      <stop
         id="stop3249"
         offset="0"
         style="stop-color:#2aaf18;stop-opacity:1;" />
      <stop
         id="stop3251"
         offset="1"
         style="stop-color:#cbff87;stop-opacity:1;" />
    </linearGradient>
  </defs>
  <sodipodi:namedview
     id="base"
     pagecolor="#ffffff"
     bordercolor="#666666"
     borderopacity="1.0"
     inkscape:pageopacity="0.0"
     inkscape:pageshadow="2"
     inkscape:zoom="4.5222222"
     inkscape:cx="45"
     inkscape:cy="39.582309"
     inkscape:current-layer="svg1"
     inkscape:window-width="824"
     inkscape:window-height="619"
     inkscape:window-x="0"
     inkscape:window-y="11"
     showguides="true"
     inkscape:guide-bbox="true"
     showgrid="false"
     inkscape:snap-bbox="false"
     inkscape:object-nodes="true"
     inkscape:window-maximized="0" />
  <metadata
     id="metadata4">
    <rdf:RDF>
      <cc:Work
         rdf:about="">
        <dc:format>image/svg+xml</dc:format>
        <dc:type
           rdf:resource="http://purl.org/dc/dcmitype/StillImage" />
        <dc:title></dc:title>
      </cc:Work>
    </rdf:RDF>
  </metadata>
  <g
     id="g78">
    <path
       sodipodi:nodetypes="ccccccc"
       id="path2183-3"
       d="M 11.0999,84.203038 C 2.999679,74.050939 0.321459,31.224067 6.080933,16.770097 c 3.235423,-2.608335 9.165937,-4.514512 16.14884,-5.65607 8.303235,-12.7540062 18.094454,-11.0199622 26.611836,-0.723896 6.813499,0.727804 12.811839,2.214629 16.581229,4.514232 5.90467,14.92587 -1.18093,58.637341 -7.9713,70.63134 -6.495135,3.731468 -38.576665,3.17625 -46.351638,-1.332665 z"
       style="fill:#283d53;fill-rule:evenodd;stroke:none" />
    <path
       style="fill:#b01911;fill-opacity:1;fill-rule:evenodd;stroke:none"
       d="M 15.327123,78.44611 C 8.918942,70.398182 7.849427,36.432771 11.001473,26.952258 c 9.480815,5.268515 40.573776,4.142516 49.447355,-1.85281 2.72539,12.734542 -2.27655,45.413429 -7.470003,54.364327 -5.276034,2.849462 -31.336044,2.425481 -37.651702,-1.017665 z"
       id="path2185-5"
       sodipodi:nodetypes="ccccc" />
    <path
       sodipodi:nodetypes="ccc"
       id="path2187-1"
       d="M 11.880982,22.911213 C 18.759423,15.49355 51.113938,14.469825 58.639648,21.479866 48.840029,29.038574 17.84866,28.759385 11.880982,22.911213 z"
       style="fill:#f1e36c;fill-rule:evenodd;stroke:none" />
    <path
       sodipodi:nodetypes="ccc"
       id="path2189-7"
       d="m 26.287126,20.6722 c 0.327842,-13.2958402 17.469376,-14.4518402 18.405007,0 -4.682444,3.899344 -15.783495,3.034791 -18.405007,0 z"
       style="fill:#7a889e;fill-rule:evenodd;stroke:none" />
    <path
       id="path3284-4"
       d="m 61.189568,35.560641 c -11.60018,5.918372 -40.222876,7.259341 -51.656249,1 -0.922891,13.910133 0.817943,35.641667 5.781249,41.875 6.315658,3.443146 32.38022,3.880709 37.65625,1.03125 4.08816,-7.045923 8.04367,-28.756488 8.21875,-43.90625 z"
       style="fill:url(#linearGradient3297);fill-opacity:1;fill-rule:evenodd;stroke:none" />
    <path
       sodipodi:nodetypes="ccscc"
       id="path3281-3"
       d="m 13.564568,31.404391 c -2.072234,8.653484 -1.942643,25.180068 1.25,32.75 2.16686,-2.877458 1.193245,-13.790497 3.163837,-22.292884 1.109341,-4.786405 2.458108,-0.954609 12.308928,-7.930707 -9.985825,-0.03755 -12.579296,-0.739686 -16.722765,-2.526409 z"
       style="fill:#ffffff;fill-opacity:1;fill-rule:evenodd;stroke:none" />
  </g>
  <g
     inkscape:label="Layer 1"
     inkscape:groupmode="layer"
     id="layer1" />
  <g
     id="g5129"
     transform="matrix(-0.5884128,0.451092,0.451092,0.5884128,49.829343,12.713123)">
    <path
       id="path684"
       style="font-size:12px;fill:none;fill-rule:evenodd;stroke:#283d53;stroke-width:5.3499999;stroke-linecap:round"
       d="M 15.350537,48.273893 C 15.350537,48.273893 -6.7924144,41.441203 -1.8873334,56.664913 C 3.0177466,71.888623 17.172427,79.920023 17.172427,79.920023" />
    <path
       id="path683"
       style="font-size:12px;fill:#283d53;fill-rule:evenodd;stroke-width:1"
       d="M -2.8383134,63.793013 C -2.8383134,63.793013 -9.4674374,69.980193 -9.0254964,73.515733 C -8.5835544,77.051273 -3.7221904,82.796523 -1.9544234,84.122343 C 0.25528659,87.215943 -0.62860341,85.448173 2.9069366,85.890103 C 9.0941166,95.170883 17.049067,101.35808 22.794317,103.56779 C 26.329857,102.24196 73.175697,54.070283 74.943457,50.092813 C 74.501517,46.557283 71.849887,41.253983 66.104627,38.602333 C 60.359377,35.950673 47.985007,30.647373 45.775297,31.973193 C 42.239757,30.647373 26.329857,42.137863 23.678197,44.789513 C 21.910437,43.021753 18.816837,42.579803 17.049077,43.021743 C 15.281307,43.463683 9.5360566,49.208933 10.419947,50.534753 C 11.303827,51.860583 12.187717,53.186413 12.187717,53.186413 L -2.8383134,63.793013 z " />
    <path
       id="path682"
       style="font-size:12px;fill:none;fill-rule:evenodd;stroke:#ffc93f;stroke-width:1.97011197;stroke-linecap:round"
       d="M 15.350537,48.273893 C 15.350537,48.273893 -6.7924144,41.441203 -1.8873334,56.664913 C 3.0177466,71.888623 17.172427,79.920023 17.172427,79.920023" />
    <path
       id="path676"
       style="font-size:12px;fill:#437caf;fill-rule:evenodd;stroke-width:1"
       d="M 17.592867,52.109783 L 13.668797,50.191833 C 13.668797,50.191833 15.210387,45.876463 17.452707,46.835433 C 19.695027,47.794413 21.937357,49.592483 21.937357,49.592483 L 17.592867,52.109783 z " />
    <path
       id="path652"
       style="font-size:12px;fill:#437caf;fill-rule:evenodd;stroke-width:1"
       d="M -3.9986404,68.150143 C -3.9986404,68.150143 -5.3013344,70.378643 -4.9291344,73.721373 C -3.9986404,76.586563 -3.8125404,78.974233 4.7480166,83.272053 C 6.6090066,85.500533 21.310827,99.667363 23.544007,98.553123 C 25.777207,97.438873 70.068797,51.277283 71.743687,48.889623 C 71.929797,47.457023 72.115887,45.546883 70.254897,45.706063 C 68.393907,45.865243 -3.9986404,68.150143 -3.9986404,68.150143 z " />
    <path
       id="path616"
       style="font-size:12px;fill:#558ada;fill-rule:evenodd;stroke-width:1"
       d="M -3.0736204,67.182063 C -3.0736204,67.182063 -5.7054644,70.333623 -3.4683904,72.584733 C -1.2313334,74.835853 21.665647,95.546113 22.849987,95.546113 C 24.034317,95.546113 69.828307,48.385243 71.802177,46.696913 C 73.776057,45.008583 50.352697,34.428343 46.141747,34.540903 C 41.930807,34.653453 -0.047003413,64.143063 -3.0736204,67.182063 z " />
    <g
       transform="translate(-13.056453,19.621273)"
       style="fill:#a9e2f5"
       id="g4142">
      <path
         d="M 40.88076,61.89982 C 40.88076,61.89982 43.11394,65.56091 44.41664,64.60583 C 45.71933,63.65077 70.09831,40.72916 69.54001,39.61492 C 68.98172,38.50067 67.67902,37.06806 66.37633,37.70477 C 65.07364,38.34149 41.62516,60.94474 40.88076,61.89982 z "
         style="font-size:12px;fill:#a9e2f5;fill-rule:evenodd;stroke-width:1"
         id="path653" />
      <path
         d="M 10.9188,49.80229 L 14.26859,52.6675 L 18.54887,48.52887 L 14.82688,46.30038 L 10.9188,49.80229 z "
         style="font-size:12px;fill:#a9e2f5;fill-rule:evenodd;stroke-width:1"
         id="path660" />
      <path
         d="M 18.54887,44.70861 L 21.89865,47.57381 L 29.15651,41.04753 L 25.43453,38.81903 L 18.54887,44.70861 z "
         style="font-size:12px;fill:#a9e2f5;fill-rule:evenodd;stroke-width:1"
         id="path661" />
      <path
         d="M 28.22601,36.74971 L 31.7619,39.93327 L 39.76415,34.20287 L 36.60048,31.49684 L 28.22601,36.74971 z "
         style="font-size:12px;fill:#a9e2f5;fill-rule:evenodd;stroke-width:1"
         id="path662" />
      <path
         d="M 39.39197,29.58671 L 42.55564,32.29273 L 50.5579,27.03986 L 47.39423,24.49301 L 39.39197,29.58671 z "
         style="font-size:12px;fill:#a9e2f5;fill-rule:evenodd;stroke-width:1"
         id="path663" />
      <path
         d="M 51.1162,21.94617 L 54.46598,24.81137 L 62.28214,19.08097 L 58.93237,16.53412 L 51.1162,21.94617 z "
         style="font-size:12px;fill:#a9e2f5;fill-rule:evenodd;stroke-width:1"
         id="path664" />
      <path
         d="M 58.56017,29.26835 L 65.25973,33.72533 L 59.30457,38.65984 L 56.51307,37.38642 L 58.00188,34.20287 L 52.23279,30.86013 L 58.56017,29.26835 z "
         style="font-size:12px;fill:#a9e2f5;fill-rule:evenodd;stroke-width:1"
         id="path665" />
      <path
         d="M 50.9301,31.81519 L 15.94348,55.85105 C 15.94348,55.85105 33.62289,73.04227 33.80898,72.56474 C 33.99509,72.0872 42.55565,65.56091 42.55565,65.56091 L 38.83366,61.42228 L 67.12073,35.95382 L 65.81803,34.52121 L 58.93236,39.77409 L 55.39649,37.38642 L 56.32698,34.20287 L 50.9301,31.81519 z "
         style="font-size:12px;fill:#a9e2f5;fill-rule:evenodd;stroke-width:1"
         id="path666" />
      <path
         d="M 63.39875,20.19522 L 80.51986,25.76644 L 71.9593,37.38642 L 56.51307,26.7215 L 63.39875,20.19522 z "
         style="font-size:12px;fill:#a9e2f5;fill-rule:evenodd;stroke-width:1"
         id="path667" />
    </g>
    <g
       transform="translate(-13.056453,19.621273)"
       style="fill:#558ada;stroke:#558ada"
       id="g4132">
      <path
         d="M 17.19537,58.8603 C 17.75595,58.62055 55.03456,33.44749 55.03456,33.44749"
         style="font-size:12px;fill:#558ada;fill-rule:evenodd;stroke:#558ada;stroke-width:0.829521"
         id="path668" />
      <path
         d="M 21.68001,63.17568 L 56.9966,38.24236"
         style="font-size:12px;fill:#558ada;fill-rule:evenodd;stroke:#558ada;stroke-width:0.829521"
         id="path669" />
      <path
         d="M 26.16465,67.49106 L 59.51922,39.20133"
         style="font-size:12px;fill:#558ada;fill-rule:evenodd;stroke:#558ada;stroke-width:0.829521"
         id="path670" />
      <path
         d="M 21.96031,50.70903 L 38.77773,68.68978"
         style="font-size:12px;fill:#558ada;fill-rule:evenodd;stroke:#558ada;stroke-width:0.829521"
         id="path671" />
      <path
         d="M 29.24785,45.43467 L 39.61859,61.49748"
         style="font-size:12px;fill:#558ada;fill-rule:evenodd;stroke:#558ada;stroke-width:0.829521"
         id="path672" />
      <path
         d="M 36.53541,41.59878 L 46.90614,54.30518"
         style="font-size:12px;fill:#558ada;fill-rule:evenodd;stroke:#558ada;stroke-width:0.829521"
         id="path673" />
      <path
         d="M 41.30034,38.24236 L 53.9134,47.8321"
         style="font-size:12px;fill:#558ada;fill-rule:evenodd;stroke:#558ada;stroke-width:0.829521"
         id="path674" />
      <path
         d="M 46.06528,34.64621 L 56.43602,38.48211"
         style="font-size:12px;fill:#558ada;fill-rule:evenodd;stroke:#558ada;stroke-width:0.829521"
         id="path675" />
    </g>
    <path
       id="path681"
       style="font-size:12px;fill:#ffffff;fill-rule:evenodd;stroke-width:1"
       d="M 16.611847,47.434793 L 20.255617,49.352743 C 20.255617,49.352743 19.975327,50.191833 19.274597,49.952093 C 18.573877,49.712343 15.770977,48.034143 15.770977,48.034143 L 16.611847,47.434793 z " />
  </g>
</svg>
