<?xml version="1.0" encoding="UTF-8" standalone="no"?>
<!DOCTYPE svg PUBLIC "-//W3C//DTD SVG 20010904//EN"
"http://www.w3.org/TR/2001/REC-SVG-20010904/DTD/svg10.dtd">
<!-- Created with Sodipodi ("http://www.sodipodi.com/") -->
<svg
   id="svg563"
   sodipodi:version="0.32"
   width="24.000000pt"
   height="24.000000pt"
   sodipodi:docbase="/home/zeus/.icons/gartoon/scalable/stock-gar"
   sodipodi:docname="gtk-dialog-warning.svg"
   inkscape:version="0.40"
   xmlns="http://www.w3.org/2000/svg"
   xmlns:inkscape="http://www.inkscape.org/namespaces/inkscape"
   xmlns:sodipodi="http://sodipodi.sourceforge.net/DTD/sodipodi-0.dtd"
   xmlns:xlink="http://www.w3.org/1999/xlink"
   xmlns:rdf="http://www.w3.org/1999/02/22-rdf-syntax-ns#"
   xmlns:cc="http://web.resource.org/cc/"
   xmlns:dc="http://purl.org/dc/elements/1.1/">
  <metadata
     id="metadata13">
    <rdf:RDF
       id="RDF14">
      <cc:Work
         rdf:about=""
         id="Work15">
        <dc:format
           id="format16">image/svg+xml</dc:format>
        <dc:type
           id="type18"
           rdf:resource="http://purl.org/dc/dcmitype/StillImage" />
      </cc:Work>
    </rdf:RDF>
  </metadata>
  <defs
     id="defs565" />
  <sodipodi:namedview
     id="base"
     inkscape:zoom="5.0416667"
     inkscape:cx="36.000000"
     inkscape:cy="-1.0864177"
     inkscape:window-width="1014"
     inkscape:window-height="695"
     inkscape:window-x="0"
     inkscape:window-y="25"
     inkscape:current-layer="svg563" />
  <path
     sodipodi:type="arc"
     style="fill:#000000;fill-opacity:0.29999998;fill-rule:evenodd;stroke:none;stroke-width:1.0000000pt;stroke-linecap:butt;stroke-linejoin:miter;stroke-opacity:1.0000000"
     id="path575"
     d="M 51.947845 68.739090 A 11.939625 10.997026 0 1 1  28.068596,68.739090 A 11.939625 10.997026 0 1 1  51.947845 68.739090 z"
     sodipodi:cx="40.008221"
     sodipodi:cy="68.739090"
     sodipodi:rx="11.939625"
     sodipodi:ry="10.997026"
     transform="matrix(0.408198,0.000000,0.000000,0.416721,-0.383474,-3.353118)" />
  <path
     style="fill:#000000;fill-opacity:0.29999998;fill-rule:evenodd;stroke:none;stroke-width:1.0000000pt;stroke-linecap:butt;stroke-linejoin:miter;stroke-opacity:1.0000000"
     d="M 12.872286,20.198183 L 15.784606,23.137342 L 20.229700,21.971798 L 22.426721,5.6037597 L 18.901277,1.4990542 L 9.8577895,2.2591801 L 12.872286,20.198183 z "
     id="path574"
     sodipodi:nodetypes="ccccccc" />
  <path
     style="fill:#2c0000;fill-opacity:1.0000000;fill-rule:evenodd;stroke:none;stroke-width:1.0000000pt;stroke-linecap:butt;stroke-linejoin:miter;stroke-opacity:1.0000000"
     d="M 11.385776,19.539175 L 14.195309,22.397993 L 18.483519,21.264310 L 20.602998,5.3436886 L 17.201981,1.3511832 L 8.4776729,2.0905319 L 11.385776,19.539175 z "
     id="path570"
     sodipodi:nodetypes="ccccccc" />
  <path
     style="fill:none;fill-opacity:1.0000000;fill-rule:evenodd;stroke:none;stroke-width:1.0000000pt;stroke-linecap:butt;stroke-linejoin:miter;stroke-opacity:1.0000000"
     d="M 17.399154,3.2242027 L 19.173573,4.9986282 L 17.349869,20.377117 L 14.737475,21.067170 L 13.061625,19.194148 L 16.314755,18.651982 L 17.399154,3.2242027 z "
     id="path568" />
  <path
     style="fill:#7d0000;fill-opacity:1.0000000;fill-rule:evenodd;stroke:none;stroke-width:1.0000000pt;stroke-linecap:butt;stroke-linejoin:miter;stroke-opacity:1.0000000"
     d="M 16.807669,2.7312980 L 15.821874,18.356207 L 12.716599,18.799870 L 14.589621,20.919316 L 17.349835,20.377117 L 19.124288,5.4915094 L 16.807669,2.7312980 z "
     id="path569"
     sodipodi:nodetypes="ccccccc" />
  <path
     style="fill:#ff1400;fill-opacity:1.0000000;fill-rule:evenodd;stroke:none;stroke-width:1.0000000pt;stroke-linecap:butt;stroke-linejoin:miter;stroke-opacity:1.0000000"
     d="M 10.301377,3.5199506 L 12.815168,18.947724 L 15.969728,18.257637 L 16.906239,2.9284599 L 10.301377,3.5199506 z "
     id="path567" />
  <path
     sodipodi:type="arc"
     style="fill:#2c0000;fill-opacity:1.0000000;fill-rule:evenodd;stroke:none;stroke-width:1.0000000pt;stroke-linecap:butt;stroke-linejoin:miter;stroke-opacity:1.0000000"
     id="path558"
     d="M 51.947845 68.739090 A 11.939625 10.997026 0 1 1  28.068596,68.739090 A 11.939625 10.997026 0 1 1  51.947845 68.739090 z"
     sodipodi:cx="40.008221"
     sodipodi:cy="68.739090"
     sodipodi:rx="11.939625"
     sodipodi:ry="10.997026"
     transform="matrix(0.366915,0.000000,0.000000,0.389828,0.775276,-1.800277)" />
  <path
     style="font-size:12.000000;fill:#790000;fill-opacity:1.0000000;fill-rule:evenodd;stroke-width:1.0000000pt"
     d="M 18.709210,25.215233 C 18.709210,26.873435 17.377454,28.219218 15.736552,28.219218 C 14.095582,28.219218 12.763827,26.873435 12.763827,25.215233 C 12.763827,23.557030 16.473756,24.568827 15.736552,22.211248 C 17.377454,22.211248 18.709210,23.557030 18.709210,25.215233 z "
     id="path562"
     sodipodi:nodetypes="ccccc" />
  <path
     style="font-size:12.000000;fill:#ff1400;fill-opacity:1.0000000;fill-rule:evenodd;stroke-width:1.0000000pt"
     d="M 17.582718,24.777156 C 17.582718,26.331715 16.363111,27.593401 14.860372,27.593401 C 13.357600,27.593401 12.137993,26.331715 12.137993,24.777156 C 12.137993,23.222597 13.357600,21.960912 14.860372,21.960912 C 16.363111,21.960912 17.582718,23.222597 17.582718,24.777156 z "
     id="path561" />
</svg>
