<?xml version="1.0" encoding="UTF-8" standalone="no"?>
<!-- Created with Sodipodi ("http://www.sodipodi.com/") -->
<svg
   xmlns:dc="http://purl.org/dc/elements/1.1/"
   xmlns:cc="http://creativecommons.org/ns#"
   xmlns:rdf="http://www.w3.org/1999/02/22-rdf-syntax-ns#"
   xmlns:svg="http://www.w3.org/2000/svg"
   xmlns="http://www.w3.org/2000/svg"
   xmlns:sodipodi="http://sodipodi.sourceforge.net/DTD/sodipodi-0.dtd"
   xmlns:inkscape="http://www.inkscape.org/namespaces/inkscape"
   version="1.0"
   x="0"
   y="0"
   width="90"
   height="90"
   id="svg704"
   sodipodi:version="0.32"
   sodipodi:docname="lock-insecure.svg"
   inkscape:version="0.46+devel"
   inkscape:output_extension="org.inkscape.output.svg.inkscape">
  <metadata
     id="metadata32">
    <rdf:RDF>
      <cc:Work
         rdf:about="">
        <dc:format>image/svg+xml</dc:format>
        <dc:type
           rdf:resource="http://purl.org/dc/dcmitype/StillImage" />
      </cc:Work>
    </rdf:RDF>
  </metadata>
  <sodipodi:namedview
     id="base"
     inkscape:zoom="5.6568543"
     inkscape:cx="43.990067"
     inkscape:cy="44.418223"
     inkscape:window-width="1014"
     inkscape:window-height="724"
     inkscape:window-x="0"
     inkscape:window-y="1"
     inkscape:current-layer="svg704"
     width="90px"
     height="90px"
     showgrid="false" />
  <defs
     id="defs706" />
  <path
     transform="matrix(0.95852594,0,0,0.95852594,16.431018,3.9701875)"
     d="M 8.5625,2.59375 C 2.9466832,2.589268 -2.285254,4.1928216 -6.25,7.46875 c -3.964746,3.275928 -6.461507,8.315429 -6.5,14.0625 a 4.2430648,4.2430648 0 0 0 0,0.03125 l 0,19.40625 c 0,5.078901 4.2342578,9.25 9.28125,9.25 5.0469922,0 9.25,-4.203008 9.25,-9.25 l 0,-19.40625 c 0,1.324568 -0.099734,-0.4375 2.6875,-0.4375 l 8.125,0.03125 a 4.2430648,4.2430648 0 0 0 0.03125,0 c 2.568674,-1e-6 2.6875,2.106002 2.6875,0.78125 l 0,10.03125 C 16.320136,33.770729 14.048173,36.476991 13.625,40 c -0.0012,0.01033 0.0012,0.0209 0,0.03125 a 4.2430648,4.2430648 0 0 0 -0.28125,1.5 l 0.0625,29.25 A 4.2430648,4.2430648 0 0 0 13.4375,71.25 c 0.579141,5.134907 2.647105,9.485441 6.125,12.28125 3.477895,2.795809 7.861482,3.944022 12.78125,4.40625 A 4.2430648,4.2430648 0 0 0 32.75,87.96875 l 27.28125,0 c 5.05716,0.0987 9.385739,-1.693666 12.25,-4.78125 2.864261,-3.087584 4.132532,-7.187359 4.125,-11.28125 l 0,-23.53125 0,-0.03125 C 76.442661,48.033006 76.5,47.768672 76.5,47.375 l 0,-6.3125 c 2e-6,-4.159459 -2.84217,-7.373944 -6.125,-9.28125 C 67.09217,29.873944 63.035585,28.875 58.59375,28.875 l -20.75,0 0,-6.9375 c 5e-6,-11.266422 -10.231849,-19.2075209 -21,-19.3125 l -8.25,-0.03125 a 4.2430648,4.2430648 0 0 0 -0.03125,0 z"
     id="path2698"
     style="font-size:12px;fill:#000000;fill-opacity:0.29411765;fill-rule:evenodd"
     inkscape:original="M 8.5625 6.84375 C -1.056451 6.8360731 -8.438059 12.314619 -8.5 21.5625 L -8.5 40.96875 C -8.5 43.738803 -6.238803 45.96875 -3.46875 45.96875 C -0.698697 45.96875 1.53125 43.738803 1.53125 40.96875 L 1.53125 21.5625 C 1.53125 19.490802 4.018865 16.875 8.46875 16.875 L 16.625 16.90625 C 21.074866 16.906249 23.5625 19.865862 23.5625 21.9375 L 23.5625 34.53125 C 19.98771 35.959995 17.65625 38.337498 17.65625 41.0625 L 17.65625 41.53125 L 17.59375 41.53125 L 17.65625 70.78125 C 18.643559 79.535141 23.802131 82.878069 32.75 83.71875 L 60.03125 83.71875 C 68.208467 83.87834 72.168109 78.352095 72.15625 71.90625 L 72.15625 48.34375 C 72.208507 48.036244 72.25 47.707096 72.25 47.375 L 72.25 41.0625 C 72.250002 36.663816 66.153375 33.125 58.59375 33.125 L 33.59375 33.125 L 33.59375 21.9375 C 33.593754 13.306014 25.552745 6.960209 16.8125 6.875 L 8.5625 6.84375 z "
     inkscape:radius="4.2426405"
     sodipodi:type="inkscape:offset" />
  <path
     sodipodi:type="inkscape:offset"
     inkscape:radius="4.2426405"
     inkscape:original="M 8.5625 6.84375 C -1.056451 6.8360731 -8.438059 12.314619 -8.5 21.5625 L -8.5 40.96875 C -8.5 43.738803 -6.238803 45.96875 -3.46875 45.96875 C -0.698697 45.96875 1.53125 43.738803 1.53125 40.96875 L 1.53125 21.5625 C 1.53125 19.490802 4.018865 16.875 8.46875 16.875 L 16.625 16.90625 C 21.074866 16.906249 23.5625 19.865862 23.5625 21.9375 L 23.5625 34.53125 C 19.98771 35.959995 17.65625 38.337498 17.65625 41.0625 L 17.65625 41.53125 L 17.59375 41.53125 L 17.65625 70.78125 C 18.643559 79.535141 23.802131 82.878069 32.75 83.71875 L 60.03125 83.71875 C 68.208467 83.87834 72.168109 78.352095 72.15625 71.90625 L 72.15625 48.34375 C 72.208507 48.036244 72.25 47.707096 72.25 47.375 L 72.25 41.0625 C 72.250002 36.663816 66.153375 33.125 58.59375 33.125 L 33.59375 33.125 L 33.59375 21.9375 C 33.593754 13.306014 25.552745 6.960209 16.8125 6.875 L 8.5625 6.84375 z "
     style="font-size:12px;fill:#593a28;fill-opacity:1;fill-rule:evenodd"
     id="path3307"
     d="M 8.5625,2.59375 C 2.9466832,2.589268 -2.285254,4.1928216 -6.25,7.46875 c -3.964746,3.275928 -6.461507,8.315429 -6.5,14.0625 a 4.2430648,4.2430648 0 0 0 0,0.03125 l 0,19.40625 c 0,5.078901 4.2342578,9.25 9.28125,9.25 5.0469922,0 9.25,-4.203008 9.25,-9.25 l 0,-19.40625 c 0,1.324568 -0.099734,-0.4375 2.6875,-0.4375 l 8.125,0.03125 a 4.2430648,4.2430648 0 0 0 0.03125,0 c 2.568674,-1e-6 2.6875,2.106002 2.6875,0.78125 l 0,10.03125 C 16.320136,33.770729 14.048173,36.476991 13.625,40 c -0.0012,0.01033 0.0012,0.0209 0,0.03125 a 4.2430648,4.2430648 0 0 0 -0.28125,1.5 l 0.0625,29.25 A 4.2430648,4.2430648 0 0 0 13.4375,71.25 c 0.579141,5.134907 2.647105,9.485441 6.125,12.28125 3.477895,2.795809 7.861482,3.944022 12.78125,4.40625 A 4.2430648,4.2430648 0 0 0 32.75,87.96875 l 27.28125,0 c 5.05716,0.0987 9.385739,-1.693666 12.25,-4.78125 2.864261,-3.087584 4.132532,-7.187359 4.125,-11.28125 l 0,-23.53125 0,-0.03125 C 76.442661,48.033006 76.5,47.768672 76.5,47.375 l 0,-6.3125 c 2e-6,-4.159459 -2.84217,-7.373944 -6.125,-9.28125 C 67.09217,29.873944 63.035585,28.875 58.59375,28.875 l -20.75,0 0,-6.9375 c 5e-6,-11.266422 -10.231849,-19.2075209 -21,-19.3125 l -8.25,-0.03125 a 4.2430648,4.2430648 0 0 0 -0.03125,0 z"
     transform="matrix(0.95852594,0,0,0.95852594,12.906234,0.28434884)" />
  <path
     sodipodi:nodetypes="ccccccc"
     id="path3177"
     d="m 29.761138,40.09181 0.06907,28.036884 c 0.94636,8.390835 5.890986,11.595115 14.467751,12.400929 l 26.149785,0 c 7.838075,0.152975 11.645126,-5.144078 11.63376,-11.322588 L 82.06071,45.57041 z"
     style="font-size:12px;fill:#ff933d;fill-opacity:1;fill-rule:evenodd" />
  <path
     sodipodi:nodetypes="ccccccccc"
     d="m 42.917637,32.045244 c -7.246116,0 -13.079623,3.394306 -13.079623,7.610559 l -0.04912,4.806638 c 0,4.216232 4.027359,7.610535 11.273455,7.610535 l 29.391316,0 c 7.246096,0 11.702782,-2.15203 11.702782,-6.368266 l 0,-6.048907 c 0,-4.216253 -5.833506,-7.610559 -13.079603,-7.610559 z"
     style="font-size:12px;fill:#ffd056;fill-opacity:1;fill-rule:evenodd"
     id="path3179" />
  <path
     style="font-size:12px;fill:#955801;fill-opacity:1;fill-rule:evenodd;stroke:none"
     d="m 4.7731996,20.951245 0,18.601394 c 0,2.655167 2.152439,4.807607 4.8076066,4.807607 2.6551688,0 4.8076068,-2.15244 4.8076068,-4.807607 l 0,-18.601394 c 0,-1.985776 2.384444,-4.493091 6.649774,-4.493091 l 7.817977,0.02674 c 4.265313,0 6.649774,2.840081 6.649774,4.8258 l 0,18.601394 c 0,2.655168 2.152439,4.807607 4.807607,4.807607 2.655167,0 4.807607,-2.152439 4.807607,-4.807607 l 0,-18.601394 C 45.121155,13.037188 37.413639,6.9513533 29.035888,6.8696783 L 21.128049,6.8429412 C 11.908035,6.8355823 4.8325717,12.08691 4.7731996,20.951245 z"
     id="path3187"
     sodipodi:nodetypes="ccsccccccsccccc" />
  <path
     style="font-size:12px;fill:#593a28;fill-rule:evenodd"
     d="m 57.597505,55.278455 c -4.013179,0 -7.278806,3.137886 -7.278806,7.009221 0,2.51638 1.440337,4.694464 3.50461,5.93088 -0.03411,0.190613 -0.08986,0.335456 -0.08986,0.53917 l 0,5.481571 c 0,1.497862 0.948998,2.695853 2.156683,2.695853 l 4.313367,0 c 1.207685,-2e-6 2.246545,-1.197991 2.246545,-2.695853 l 0,-5.481571 c 0,-0.419411 -0.133309,-0.724783 -0.269585,-1.078341 1.614947,-1.285674 2.695854,-3.214074 2.695854,-5.391709 0,-3.871335 -3.265644,-7.009221 -7.278807,-7.009221 z"
     id="path3181" />
  <path
     id="path3185"
     d="m 56.249579,55.727764 c -3.252814,0 -5.93088,2.980686 -5.93088,6.649774 0,2.407135 1.176387,4.495894 2.875578,5.661294 -0.02817,0.182231 -0.08986,0.344264 -0.08986,0.539171 l 0,5.122122 c 0,1.419631 0.72854,2.516131 1.707375,2.516131 l 3.594472,0 c 0.978856,0 1.707374,-1.096503 1.707374,-2.516131 l 0,-5.122122 c 0,-0.401776 -0.06702,-0.740536 -0.179723,-1.078342 1.308954,-1.218512 2.156686,-3.058241 2.156683,-5.122123 0,-3.669088 -2.588244,-6.649774 -5.841017,-6.649774 z"
     style="font-size:12px;fill:#b01911;fill-rule:evenodd" />
  <path
     style="font-size:12px;fill:#e9a93d;fill-opacity:1;fill-rule:evenodd;stroke:none"
     d="m 19.690261,9.8083808 c -6.959397,0 -12.9401015,4.6187472 -12.9401015,10.6935552 l 0,18.691256 c 0,0.769254 0.6236036,1.392858 1.392858,1.392858 0.7692545,0 1.392858,-0.623604 1.392858,-1.392858 l 0,-18.691256 c 0,-4.220164 4.3594775,-7.866928 10.0645235,-7.90784 l 0.08986,0 7.728115,0.06907 c 5.753056,0 10.154387,4.044192 10.154384,8.288079 l 0,18.601394 c -0.130779,0.556482 0.09386,1.136126 0.56548,1.459155 0.471621,0.323028 1.093274,0.323028 1.564895,0 0.471624,-0.323029 0.696257,-0.902673 0.565479,-1.459155 l 0,-18.601394 c 4e-6,-6.047904 -5.841265,-11.033112 -12.760376,-11.0737957 l -0.08986,0 z"
     id="path3189"
     sodipodi:nodetypes="cccscccccccssccccc" />
  <path
     sodipodi:type="arc"
     style="color:#000000;fill:#593a28;fill-opacity:1;fill-rule:nonzero;stroke:none;stroke-width:3;marker:none;visibility:visible;display:inline;overflow:visible;enable-background:accumulate"
     id="path2482"
     sodipodi:cx="59.396969"
     sodipodi:cy="43.861282"
     sodipodi:rx="4.5961943"
     sodipodi:ry="3.8890872"
     d="m 63.993163,43.861282 a 4.5961943,3.8890872 0 1 1 -9.192388,0 4.5961943,3.8890872 0 1 1 9.192388,0 z"
     transform="matrix(1.0414753,0,0,1.1981575,9.7584665,-12.513703)" />
</svg>
