<?xml version="1.0" encoding="UTF-8" standalone="no"?>
<!-- Created with Sodipodi ("http://www.sodipodi.com/") -->

<svg
   xmlns:dc="http://purl.org/dc/elements/1.1/"
   xmlns:cc="http://creativecommons.org/ns#"
   xmlns:rdf="http://www.w3.org/1999/02/22-rdf-syntax-ns#"
   xmlns:svg="http://www.w3.org/2000/svg"
   xmlns="http://www.w3.org/2000/svg"
   xmlns:sodipodi="http://sodipodi.sourceforge.net/DTD/sodipodi-0.dtd"
   xmlns:inkscape="http://www.inkscape.org/namespaces/inkscape"
   version="1.0"
   x="0"
   y="0"
   width="90"
   height="90"
   id="svg704"
   sodipodi:version="0.32"
   sodipodi:docname="nm-secure-lock.svg"
   inkscape:version="0.46+devel r22329M, 2009.09.30"
   inkscape:output_extension="org.inkscape.output.svg.inkscape">
  <metadata
     id="metadata32">
    <rdf:RDF>
      <cc:Work
         rdf:about="">
        <dc:format>image/svg+xml</dc:format>
        <dc:type
           rdf:resource="http://purl.org/dc/dcmitype/StillImage" />
        <dc:title></dc:title>
      </cc:Work>
    </rdf:RDF>
  </metadata>
  <sodipodi:namedview
     id="base"
     inkscape:zoom="4"
     inkscape:cx="-1.1840858"
     inkscape:cy="39.397753"
     inkscape:window-width="1014"
     inkscape:window-height="686"
     inkscape:window-x="0"
     inkscape:window-y="1"
     inkscape:current-layer="svg704"
     width="90px"
     height="90px"
     showgrid="false"
     inkscape:window-maximized="0" />
  <defs
     id="defs706" />
  <path
     transform="matrix(1.6843077,0,0,1.6843077,-3.8114988,1.7508628)"
     d="M 13.6875,1.0625 C 11.815211,1.0610059 10.071976,1.5951981 8.75,2.6875 7.4280237,3.7798019 6.6065843,5.4588227 6.59375,7.375 l 0,3.46875 c -0.4047362,0.2252 -0.8634119,0.393626 -1.1875,0.71875 -0.4655862,0.467074 -0.7462917,1.113737 -0.875,1.8125 -0.006,0.03257 -0.02633,0.06085 -0.03125,0.09375 a 1.416195,1.416195 0 0 0 -0.03125,0.0625 1.416195,1.416195 0 0 0 -0.09375,0.5 l 0.03125,9.75 a 1.416195,1.416195 0 0 0 0,0.15625 c 0.1930842,1.711965 0.871541,3.161484 2.03125,4.09375 1.159709,0.932266 2.6411341,1.314656 4.28125,1.46875 a 1.416195,1.416195 0 0 0 0.125,0 l 9.0625,0 c 0.01096,2.14e-4 0.02031,-1.6e-4 0.03125,0 1.67232,0.02453 3.147469,-0.569709 4.09375,-1.59375 0.952472,-1.030741 1.346257,-2.38728 1.34375,-3.75 l 0,-7.6875 0,-0.21875 c 0.01216,-0.0844 0.03125,-0.128411 0.03125,-0.28125 l 0,-2.09375 c 0,-1.337511 -0.890193,-2.238332 -1.96875,-2.90625 l 0,-3.46875 c 1e-6,-3.7566167 -3.406362,-6.402465 -7,-6.4375 l -2.75,0 z m -0.03125,6.15625 2.71875,0 c 0.84878,1e-7 0.90625,0.7243055 0.90625,0.28125 l 0,2.3125 -4.53125,0 0,-2.4375 c 0,0.4429961 -0.02211,-0.1562499 0.90625,-0.15625 z"
     id="path2697"
     style="font-size:12px;fill:#000000;fill-opacity:0.29411765;fill-rule:evenodd"
     inkscape:original="M 13.6875 2.46875 C 10.481183 2.4661913 8.0206471 4.2923732 8 7.375 L 8 11.625 C 6.690965 12.088687 5.8125 12.91445 5.8125 13.875 L 5.8125 14.03125 L 5.78125 14.03125 L 5.8125 23.78125 C 6.1416031 26.699215 7.8611266 27.813523 10.84375 28.09375 L 19.9375 28.09375 C 22.663239 28.146948 23.972703 26.304865 23.96875 24.15625 L 23.96875 16.25 C 23.982136 16.159331 24 16.065706 24 15.96875 L 24 13.875 C 24 12.965512 23.22541 12.163533 22.03125 11.6875 L 22.03125 7.5 C 22.031251 4.6228379 19.350915 2.4971534 16.4375 2.46875 L 13.6875 2.46875 z M 13.65625 5.8125 L 16.375 5.8125 C 17.858289 5.8125001 18.6875 6.8094536 18.6875 7.5 L 18.6875 11.21875 L 11.34375 11.21875 L 11.34375 7.375 C 11.34375 6.6844342 12.172955 5.8125001 13.65625 5.8125 z "
     inkscape:radius="1.4160534"
     sodipodi:type="inkscape:offset" />
  <path
     sodipodi:type="inkscape:offset"
     inkscape:radius="1.4160534"
     inkscape:original="M 13.6875 2.46875 C 10.481183 2.4661913 8.0206471 4.2923732 8 7.375 L 8 11.625 C 6.690965 12.088687 5.8125 12.91445 5.8125 13.875 L 5.8125 14.03125 L 5.78125 14.03125 L 5.8125 23.78125 C 6.1416031 26.699215 7.8611266 27.813523 10.84375 28.09375 L 19.9375 28.09375 C 22.663239 28.146948 23.972703 26.304865 23.96875 24.15625 L 23.96875 16.25 C 23.982136 16.159331 24 16.065706 24 15.96875 L 24 13.875 C 24 12.965512 23.22541 12.163533 22.03125 11.6875 L 22.03125 7.5 C 22.031251 4.6228379 19.350915 2.4971534 16.4375 2.46875 L 13.6875 2.46875 z M 13.65625 5.8125 L 16.375 5.8125 C 17.858289 5.8125001 18.6875 6.8094536 18.6875 7.5 L 18.6875 11.21875 L 11.34375 11.21875 L 11.34375 7.375 C 11.34375 6.6844342 12.172955 5.8125001 13.65625 5.8125 z "
     style="font-size:12px;fill:#593a28;fill-rule:evenodd"
     id="path3240"
     d="M 13.6875,1.0625 C 11.815211,1.0610059 10.071976,1.5951981 8.75,2.6875 7.4280237,3.7798019 6.6065843,5.4588227 6.59375,7.375 l 0,3.46875 c -0.4047362,0.2252 -0.8634119,0.393626 -1.1875,0.71875 -0.4655862,0.467074 -0.7462917,1.113737 -0.875,1.8125 -0.006,0.03257 -0.02633,0.06085 -0.03125,0.09375 a 1.416195,1.416195 0 0 0 -0.03125,0.0625 1.416195,1.416195 0 0 0 -0.09375,0.5 l 0.03125,9.75 a 1.416195,1.416195 0 0 0 0,0.15625 c 0.1930842,1.711965 0.871541,3.161484 2.03125,4.09375 1.159709,0.932266 2.6411341,1.314656 4.28125,1.46875 a 1.416195,1.416195 0 0 0 0.125,0 l 9.0625,0 c 0.01096,2.14e-4 0.02031,-1.6e-4 0.03125,0 1.67232,0.02453 3.147469,-0.569709 4.09375,-1.59375 0.952472,-1.030741 1.346257,-2.38728 1.34375,-3.75 l 0,-7.6875 0,-0.21875 c 0.01216,-0.0844 0.03125,-0.128411 0.03125,-0.28125 l 0,-2.09375 c 0,-1.337511 -0.890193,-2.238332 -1.96875,-2.90625 l 0,-3.46875 c 1e-6,-3.7566167 -3.406362,-6.402465 -7,-6.4375 l -2.75,0 z m -0.03125,6.15625 2.71875,0 c 0.84878,1e-7 0.90625,0.7243055 0.90625,0.28125 l 0,2.3125 -4.53125,0 0,-2.4375 c 0,0.4429961 -0.02211,-0.1562499 0.90625,-0.15625 z"
     transform="matrix(1.6843077,0,0,1.6843077,-6.3379603,-0.91595766)" />
  <path
     sodipodi:nodetypes="ccccccc"
     id="path3177"
     d="m 3.4116225,22.716984 0.040457,16.422 c 0.5543107,4.914751 3.4505182,6.791588 8.4741733,7.263576 l 15.316672,0 c 4.590983,0.0896 6.820882,-3.013032 6.814224,-6.631961 L 34.044968,25.925956 3.4116225,22.716984 z"
     style="font-size:12px;fill:#ff933d;fill-opacity:1;fill-rule:evenodd" />
  <path
     sodipodi:nodetypes="ccccccccc"
     d="m 11.117758,18.003882 c -4.2442567,0 -7.6611076,1.988142 -7.6611076,4.45772 l -0.028778,2.815385 c 0,2.469567 2.3589382,4.457707 6.6031833,4.457707 l 17.215329,0 c 4.244245,0 6.854652,-1.260506 6.854652,-3.730074 l 0,-3.543018 c 0,-2.469578 -3.416851,-4.45772 -7.661096,-4.45772 l -15.322188,0 z"
     style="font-size:12px;fill:#ffd056;fill-opacity:1;fill-rule:evenodd"
     id="path3179" />
  <path
     style="font-size:12px;fill:#955801;fill-opacity:1;fill-rule:evenodd;stroke:none"
     d="m 7.136501,11.505811 0,10.895366 c 0,1.555207 1.2607447,2.815951 2.8159518,2.815951 1.5552072,0 2.8159512,-1.260744 2.8159512,-2.815951 l 0,-10.895366 c 0,-1.163126 1.396637,-2.6317307 3.894962,-2.6317307 l 4.579212,0.015658 c 2.498314,0 3.894961,1.6635168 3.894961,2.8266088 l 0,10.895365 c 0,1.555207 1.260745,2.815951 2.815952,2.815951 1.555207,0 2.815952,-1.260744 2.815952,-2.815951 l 0,-10.895365 c 1e-6,-4.846023 -4.514509,-8.4106701 -9.421596,-8.4585095 l -4.631846,-0.015661 c -5.400425,-0.00431 -9.5447246,3.0715418 -9.5795,8.2636342 z"
     id="path3187"
     sodipodi:nodetypes="ccsccccccsccccc" />
  <path
     style="font-size:12px;fill:#593a28;fill-rule:evenodd"
     d="m 19.716173,31.612234 c -2.350633,0 -4.263403,1.837948 -4.263403,4.1055 0,1.473916 0.843646,2.749681 2.05275,3.473884 -0.01998,0.111648 -0.05264,0.196486 -0.05264,0.315808 l 0,3.210711 c 0,0.877341 0.555856,1.579039 1.263231,1.579039 l 2.526462,0 c 0.707375,-2e-6 1.315865,-0.701698 1.315865,-1.579039 l 0,-3.210711 c 0,-0.245661 -0.07808,-0.424526 -0.157904,-0.631616 0.94592,-0.753055 1.579038,-1.882574 1.579038,-3.158076 0,-2.267552 -1.912781,-4.1055 -4.263404,-4.1055 z"
     id="path3181" />
  <path
     id="path3185"
     d="m 18.926655,31.875407 c -1.905266,0 -3.473885,1.745872 -3.473885,3.894961 0,1.409927 0.689043,2.633373 1.684308,3.315981 -0.01649,0.106738 -0.05264,0.201646 -0.05264,0.315808 l 0,3.000173 c 0,0.831517 0.426727,1.473769 1.000059,1.473769 l 2.105384,0 c 0.573343,0 1.000058,-0.642254 1.000058,-1.473769 l 0,-3.000173 c 0,-0.235332 -0.03925,-0.433753 -0.105269,-0.631615 0.766692,-0.713717 1.263232,-1.791299 1.26323,-3.000174 0,-2.149089 -1.516008,-3.894961 -3.42125,-3.894961 z"
     style="font-size:12px;fill:#b01911;fill-rule:evenodd" />
  <path
     style="font-size:12px;fill:#e9a93d;fill-opacity:1;fill-rule:evenodd;stroke:none"
     d="m 15.873847,4.9791191 c -4.076317,0 -7.579385,2.7053314 -7.579385,6.2635189 l 0,10.948 c 0,0.450574 0.365263,0.815837 0.8158369,0.815837 0.4505745,0 0.8158363,-0.365263 0.8158363,-0.815837 l 0,-10.948 c 0,-2.4718693 2.5534698,-4.6078834 5.8950768,-4.6318464 l 0.05264,0 4.526577,0.040457 c 3.369728,0 5.947713,2.3687986 5.947711,4.8545642 l 0,10.895365 c -0.0766,0.325947 0.05498,0.665461 0.331217,0.854668 0.276242,0.189207 0.640362,0.189207 0.916604,0 0.276244,-0.189207 0.407819,-0.528721 0.331218,-0.854668 l 0,-10.895365 c 0,-3.5424309 -3.421397,-6.4624091 -7.474118,-6.4862387 l -0.05264,0 -4.526577,-0.040455 z"
     id="path3189"
     sodipodi:nodetypes="cccscccccccssccccc" />
</svg>
