<?xml version="1.0" encoding="UTF-8" standalone="no"?>
<!-- Created with Sodipodi ("http://www.sodipodi.com/") -->
<svg
   xmlns:dc="http://purl.org/dc/elements/1.1/"
   xmlns:cc="http://creativecommons.org/ns#"
   xmlns:rdf="http://www.w3.org/1999/02/22-rdf-syntax-ns#"
   xmlns:svg="http://www.w3.org/2000/svg"
   xmlns="http://www.w3.org/2000/svg"
   xmlns:sodipodi="http://sodipodi.sourceforge.net/DTD/sodipodi-0.dtd"
   xmlns:inkscape="http://www.inkscape.org/namespaces/inkscape"
   version="1.0"
   x="0"
   y="0"
   width="90"
   height="90"
   id="svg704"
   sodipodi:version="0.32"
   sodipodi:docname="dialog-password.svg"
   inkscape:version="0.46+devel"
   inkscape:output_extension="org.inkscape.output.svg.inkscape">
  <metadata
     id="metadata32">
    <rdf:RDF>
      <cc:Work
         rdf:about="">
        <dc:format>image/svg+xml</dc:format>
        <dc:type
           rdf:resource="http://purl.org/dc/dcmitype/StillImage" />
      </cc:Work>
    </rdf:RDF>
  </metadata>
  <sodipodi:namedview
     id="base"
     inkscape:zoom="4"
     inkscape:cx="-1.1840858"
     inkscape:cy="39.397753"
     inkscape:window-width="1014"
     inkscape:window-height="686"
     inkscape:window-x="0"
     inkscape:window-y="1"
     inkscape:current-layer="svg704"
     width="90px"
     height="90px"
     showgrid="false" />
  <defs
     id="defs706" />
  <path
     transform="matrix(2.900074,0,0,2.900074,5.6931729,3.3840782)"
     d="M 13.6875,1.0625 C 11.815211,1.0610059 10.071976,1.5951981 8.75,2.6875 7.4280237,3.7798019 6.6065843,5.4588227 6.59375,7.375 l 0,3.46875 c -0.4047362,0.2252 -0.8634119,0.393626 -1.1875,0.71875 -0.4655862,0.467074 -0.7462917,1.113737 -0.875,1.8125 -0.006,0.03257 -0.02633,0.06085 -0.03125,0.09375 a 1.416195,1.416195 0 0 0 -0.03125,0.0625 1.416195,1.416195 0 0 0 -0.09375,0.5 l 0.03125,9.75 a 1.416195,1.416195 0 0 0 0,0.15625 c 0.1930842,1.711965 0.871541,3.161484 2.03125,4.09375 1.159709,0.932266 2.6411341,1.314656 4.28125,1.46875 a 1.416195,1.416195 0 0 0 0.125,0 l 9.09375,0 c 1.686105,0.03291 3.141278,-0.563009 4.09375,-1.59375 0.952472,-1.030741 1.346257,-2.38728 1.34375,-3.75 l 0,-7.6875 0,-0.21875 c 0.01216,-0.0844 0.03125,-0.128411 0.03125,-0.28125 l 0,-2.09375 c 0,-1.337511 -0.890193,-2.238332 -1.96875,-2.90625 l 0,-3.46875 c 1e-6,-3.7566167 -3.406362,-6.402465 -7,-6.4375 l -2.75,0 z m -0.03125,6.15625 2.71875,0 c 0.84878,1e-7 0.90625,0.7243055 0.90625,0.28125 l 0,2.3125 -4.53125,0 0,-2.4375 c 0,0.4429961 -0.02211,-0.1562499 0.90625,-0.15625 z"
     id="path2697"
     style="font-size:12px;fill:#000000;fill-opacity:0.29411765;fill-rule:evenodd"
     inkscape:original="M 13.6875 2.46875 C 10.481183 2.4661913 8.0206471 4.2923732 8 7.375 L 8 11.625 C 6.690965 12.088687 5.8125 12.91445 5.8125 13.875 L 5.8125 14.03125 L 5.78125 14.03125 L 5.8125 23.78125 C 6.1416031 26.699215 7.8611266 27.813523 10.84375 28.09375 L 19.9375 28.09375 C 22.663239 28.146948 23.972703 26.304865 23.96875 24.15625 L 23.96875 16.25 C 23.982136 16.159331 24 16.065706 24 15.96875 L 24 13.875 C 24 12.965512 23.22541 12.163533 22.03125 11.6875 L 22.03125 7.5 C 22.031251 4.6228379 19.350915 2.4971534 16.4375 2.46875 L 13.6875 2.46875 z M 13.65625 5.8125 L 16.375 5.8125 C 17.858289 5.8125001 18.6875 6.8094536 18.6875 7.5 L 18.6875 11.21875 L 11.34375 11.21875 L 11.34375 7.375 C 11.34375 6.6844342 12.172955 5.8125001 13.65625 5.8125 z "
     inkscape:radius="1.4160534"
     sodipodi:type="inkscape:offset" />
  <path
     sodipodi:type="inkscape:offset"
     inkscape:radius="1.4160534"
     inkscape:original="M 13.6875 2.46875 C 10.481183 2.4661913 8.0206471 4.2923732 8 7.375 L 8 11.625 C 6.690965 12.088687 5.8125 12.91445 5.8125 13.875 L 5.8125 14.03125 L 5.78125 14.03125 L 5.8125 23.78125 C 6.1416031 26.699215 7.8611266 27.813523 10.84375 28.09375 L 19.9375 28.09375 C 22.663239 28.146948 23.972703 26.304865 23.96875 24.15625 L 23.96875 16.25 C 23.982136 16.159331 24 16.065706 24 15.96875 L 24 13.875 C 24 12.965512 23.22541 12.163533 22.03125 11.6875 L 22.03125 7.5 C 22.031251 4.6228379 19.350915 2.4971534 16.4375 2.46875 L 13.6875 2.46875 z M 13.65625 5.8125 L 16.375 5.8125 C 17.858289 5.8125001 18.6875 6.8094536 18.6875 7.5 L 18.6875 11.21875 L 11.34375 11.21875 L 11.34375 7.375 C 11.34375 6.6844342 12.172955 5.8125001 13.65625 5.8125 z "
     style="font-size:12px;fill:#593a28;fill-rule:evenodd"
     id="path3240"
     d="M 13.6875,1.0625 C 11.815211,1.0610059 10.071976,1.5951981 8.75,2.6875 7.4280237,3.7798019 6.6065843,5.4588227 6.59375,7.375 l 0,3.46875 c -0.4047362,0.2252 -0.8634119,0.393626 -1.1875,0.71875 -0.4655862,0.467074 -0.7462917,1.113737 -0.875,1.8125 -0.006,0.03257 -0.02633,0.06085 -0.03125,0.09375 a 1.416195,1.416195 0 0 0 -0.03125,0.0625 1.416195,1.416195 0 0 0 -0.09375,0.5 l 0.03125,9.75 a 1.416195,1.416195 0 0 0 0,0.15625 c 0.1930842,1.711965 0.871541,3.161484 2.03125,4.09375 1.159709,0.932266 2.6411341,1.314656 4.28125,1.46875 a 1.416195,1.416195 0 0 0 0.125,0 l 9.09375,0 c 1.686105,0.03291 3.141278,-0.563009 4.09375,-1.59375 0.952472,-1.030741 1.346257,-2.38728 1.34375,-3.75 l 0,-7.6875 0,-0.21875 c 0.01216,-0.0844 0.03125,-0.128411 0.03125,-0.28125 l 0,-2.09375 c 0,-1.337511 -0.890193,-2.238332 -1.96875,-2.90625 l 0,-3.46875 c 1e-6,-3.7566167 -3.406362,-6.402465 -7,-6.4375 l -2.75,0 z m -0.03125,6.15625 2.71875,0 c 0.84878,1e-7 0.90625,0.7243055 0.90625,0.28125 l 0,2.3125 -4.53125,0 0,-2.4375 c 0,0.4429961 -0.02211,-0.1562499 0.90625,-0.15625 z"
     transform="matrix(2.900074,0,0,2.900074,1.3430618,-1.2077056)" />
  <path
     sodipodi:nodetypes="ccccccc"
     id="path3177"
     d="m 18.130085,39.483957 0.06966,28.275722 c 0.954423,8.462315 5.94117,11.69389 14.590998,12.506569 l 26.372547,0 c 7.904845,0.154278 11.744328,-5.187899 11.732864,-11.419041 L 70.87518,45.009228 18.130085,39.483957 z"
     style="font-size:12px;fill:#ff933d;fill-opacity:1;fill-rule:evenodd" />
  <path
     sodipodi:nodetypes="ccccccccc"
     d="m 31.39866,31.368846 c -7.307844,0 -13.191045,3.423221 -13.191045,7.67539 l -0.04955,4.847585 c 0,4.252149 4.061666,7.675367 11.36949,7.675367 l 29.641692,0 c 7.307824,0 11.802474,-2.170363 11.802474,-6.422515 l 0,-6.100437 c 0,-4.252169 -5.8832,-7.67539 -13.191025,-7.67539 l -26.382045,0 z"
     style="font-size:12px;fill:#ffd056;fill-opacity:1;fill-rule:evenodd"
     id="path3179" />
  <path
     style="font-size:12px;fill:#955801;fill-opacity:1;fill-rule:evenodd;stroke:none"
     d="m 24.543654,20.18034 0,18.759854 c 0,2.677786 2.170775,4.848561 4.848561,4.848561 2.677786,0 4.848561,-2.170775 4.848561,-4.848561 l 0,-18.759854 c 0,-2.002693 2.404756,-4.531366 6.706421,-4.531366 l 7.884577,0.02696 c 4.301647,0 6.70642,2.864276 6.70642,4.86691 l 0,18.759854 c 0,2.677786 2.170776,4.84856 4.848562,4.84856 2.677786,0 4.848561,-2.170774 4.848561,-4.84856 l 0,-18.759854 C 65.23532,12.198867 57.462147,6.0611877 49.013028,5.9788169 L 41.037825,5.951852 C 31.739268,5.9444308 24.603531,11.240493 24.543654,20.18034 z"
     id="path3187"
     sodipodi:nodetypes="ccsccccccsccccc" />
  <path
     style="font-size:12px;fill:#593a28;fill-rule:evenodd"
     d="m 46.203581,54.799973 c -4.047366,0 -7.340811,3.164616 -7.340811,7.068931 0,2.537817 1.452606,4.734455 3.534465,5.981402 -0.03441,0.192237 -0.09063,0.338314 -0.09063,0.543764 l 0,5.528266 c 0,1.510623 0.957083,2.718819 2.175055,2.718819 l 4.350112,0 c 1.217972,-3e-6 2.265682,-1.208196 2.265682,-2.718819 l 0,-5.528266 c 0,-0.422984 -0.134444,-0.730957 -0.271882,-1.087528 1.628705,-1.296626 2.718819,-3.241453 2.718819,-5.437638 0,-3.904315 -3.293463,-7.068931 -7.340812,-7.068931 z"
     id="path3181" />
  <path
     id="path3185"
     d="m 44.844172,55.25311 c -3.280524,0 -5.981402,3.006077 -5.981402,6.706421 0,2.42764 1.186407,4.534193 2.900073,5.709521 -0.0284,0.183783 -0.09063,0.347197 -0.09063,0.543764 l 0,5.165756 c 0,1.431723 0.734747,2.537565 1.72192,2.537565 l 3.625092,0 c 0.987194,0 1.721919,-1.105845 1.721919,-2.537565 l 0,-5.165756 c 0,-0.405199 -0.06759,-0.746845 -0.181254,-1.087528 1.320105,-1.228892 2.175058,-3.084293 2.175055,-5.165757 0,-3.700344 -2.610293,-6.706421 -5.890775,-6.706421 z"
     style="font-size:12px;fill:#b01911;fill-rule:evenodd" />
  <path
     style="font-size:12px;fill:#e9a93d;fill-opacity:1;fill-rule:evenodd;stroke:none"
     d="m 39.587788,8.9425534 c -7.018682,0 -13.050334,4.6580926 -13.050334,10.7846496 l 0,18.850481 c 0,0.775808 0.628917,1.404724 1.404724,1.404724 0.775808,0 1.404723,-0.628916 1.404723,-1.404724 l 0,-18.850481 c 0,-4.256113 4.396614,-7.933944 10.150259,-7.975204 l 0.09063,0 7.793949,0.06966 c 5.802064,0 10.240889,4.078644 10.240886,8.358684 l 0,18.759854 c -0.131892,0.561222 0.09466,1.145804 0.570296,1.471584 0.475639,0.32578 1.102588,0.32578 1.578226,0 0.475642,-0.32578 0.70219,-0.910362 0.570297,-1.471584 l 0,-18.759854 c 0,-6.099427 -5.891028,-11.1271028 -12.869082,-11.1681331 l -0.09063,0 -7.793949,-0.069657 z"
     id="path3189"
     sodipodi:nodetypes="cccscccccccssccccc" />
</svg>
