<?xml version="1.0" encoding="UTF-8" standalone="no"?>
<!-- Created with Inkscape (http://www.inkscape.org/) -->
<svg
   xmlns:dc="http://purl.org/dc/elements/1.1/"
   xmlns:cc="http://creativecommons.org/ns#"
   xmlns:rdf="http://www.w3.org/1999/02/22-rdf-syntax-ns#"
   xmlns:svg="http://www.w3.org/2000/svg"
   xmlns="http://www.w3.org/2000/svg"
   xmlns:xlink="http://www.w3.org/1999/xlink"
   xmlns:sodipodi="http://sodipodi.sourceforge.net/DTD/sodipodi-0.dtd"
   xmlns:inkscape="http://www.inkscape.org/namespaces/inkscape"
   width="90"
   height="90"
   id="svg2"
   sodipodi:version="0.32"
   inkscape:version="0.46+devel"
   version="1.0"
   sodipodi:docname="package-installed-outdated.svg"
   inkscape:output_extension="org.inkscape.output.svg.inkscape">
  <defs
     id="defs4">
    <linearGradient
       inkscape:collect="always"
       id="linearGradient3275">
      <stop
         style="stop-color:#2aaf18;stop-opacity:1;"
         offset="0"
         id="stop3277" />
      <stop
         style="stop-color:#cbff87;stop-opacity:1"
         offset="1"
         id="stop3279" />
    </linearGradient>
    <linearGradient
       inkscape:collect="always"
       xlink:href="#linearGradient3275"
       id="linearGradient3281"
       x1="78.791901"
       y1="79.645935"
       x2="11.364216"
       y2="10.450487"
       gradientUnits="userSpaceOnUse" />
    <inkscape:perspective
       id="perspective20"
       inkscape:persp3d-origin="300 : 400 : 1"
       inkscape:vp_z="700 : 600 : 1"
       inkscape:vp_y="0 : 1000 : 0"
       inkscape:vp_x="-50 : 600 : 1"
       sodipodi:type="inkscape:persp3d" />
  </defs>
  <sodipodi:namedview
     id="base"
     pagecolor="#ffffff"
     bordercolor="#666666"
     borderopacity="1.0"
     gridtolerance="10000"
     guidetolerance="10"
     objecttolerance="10"
     inkscape:pageopacity="0.0"
     inkscape:pageshadow="2"
     inkscape:zoom="3.959798"
     inkscape:cx="55.401366"
     inkscape:cy="50.624576"
     inkscape:document-units="px"
     inkscape:current-layer="layer1"
     showgrid="false"
     inkscape:window-width="936"
     inkscape:window-height="724"
     inkscape:window-x="0"
     inkscape:window-y="1" />
  <metadata
     id="metadata7">
    <rdf:RDF>
      <cc:Work
         rdf:about="">
        <dc:format>image/svg+xml</dc:format>
        <dc:type
           rdf:resource="http://purl.org/dc/dcmitype/StillImage" />
      </cc:Work>
    </rdf:RDF>
  </metadata>
  <g
     inkscape:label="Layer 1"
     inkscape:groupmode="layer"
     id="layer1">
    <rect
       style="opacity:1;color:#000000;fill:url(#linearGradient3281);fill-opacity:1;fill-rule:nonzero;stroke:#34674b;stroke-width:3;marker:none;marker-start:none;marker-mid:none;marker-end:none;visibility:visible;display:inline;overflow:visible;enable-background:accumulate;stroke-opacity:1;stroke-miterlimit:4;stroke-dasharray:none"
       id="rect2479"
       width="70"
       height="70"
       x="10"
       y="10" />
    <g
       id="g3303"
       transform="matrix(0.7538011,0,0,0.7538011,24.165691,0.3886515)">
      <path
         id="path635"
         d="M 70.86107,82.352044 44.182975,68.615119 17.785528,82.897893 22.556499,53.172388 0.87647026,32.378321 30.503196,27.743841 43.501599,0.60953026 57.040996,27.470867 86.754439,31.494979 65.495541,52.730717 z"
         style="font-size:12px;fill:#532c25;fill-opacity:1;fill-rule:evenodd;stroke-width:1pt" />
      <polygon
         d="M 41.474475,51.458061 18.018852,40.076651 -4.6542332,52.946537 -1.0780545,27.121866 -20.324413,9.5354936 5.3414098,4.9563792 16.119592,-18.782483 28.405764,4.2121405 54.313405,7.1270889 36.240854,25.917662 z"
         inkscape:randomized="0"
         inkscape:rounded="0"
         inkscape:flatsided="false"
         transform="matrix(0.9371537,2.0719111e-2,-2.0805013e-2,0.9410413,28.282859,25.890915)"
         points="41.4745,51.4581 18.0189,40.0767 -4.65423,52.9465 -1.07805,27.1219 -20.3244,9.53549 5.34141,4.95638 16.1196,-18.7825 28.4058,4.21214 54.3134,7.12709 36.2409,25.9177 41.4745,51.4581 "
         sodipodi:arg2="1.5385396"
         sodipodi:arg1="0.9102211"
         sodipodi:r2="19.629923"
         sodipodi:r1="39.259846"
         sodipodi:cy="20.45694"
         sodipodi:cx="17.385765"
         sodipodi:sides="5"
         id="polygon609"
         style="font-size:12px;fill:#f1e36c;fill-opacity:1;fill-rule:evenodd;stroke-width:1pt"
         sodipodi:type="star" />
      <path
         sodipodi:nodetypes="cccc"
         id="path629"
         d="M 66.198002,75.685186 C 65.977404,74.361812 44.141678,45.24751 44.141678,45.24751 l 0.220491,18.968479 z"
         style="fill:#e07d25;fill-opacity:1;fill-rule:evenodd;stroke:none" />
      <path
         sodipodi:nodetypes="cccc"
         id="path630"
         d="M 22.526443,76.126385 44.362169,45.688598 44.362276,63.995496 z"
         style="fill:#e07d25;fill-opacity:1;fill-rule:evenodd;stroke:none" />
      <path
         sodipodi:nodetypes="cccc"
         id="path631"
         d="M 45.244456,45.909196 8.6309802,34.439891 26.937774,51.643904 z"
         style="fill:#e07d25;fill-opacity:1;fill-rule:evenodd;stroke:none" />
      <path
         sodipodi:nodetypes="cccc"
         id="path632"
         d="M 44.141678,45.468108 78.99058,33.778202 62.227871,50.982215 z"
         style="fill:#e07d25;fill-opacity:1;fill-rule:evenodd;stroke:none" />
      <path
         sodipodi:nodetypes="cccc"
         id="path633"
         d="m 43.700587,8.6340024 c 0,0.4411336 0,37.495688 0.441091,37.275194 L 54.728697,30.690358 z"
         style="fill:#e07d25;fill-opacity:1;fill-rule:evenodd;stroke:none" />
      <path
         id="path636"
         d="M 43.700483,9.075136 43.921081,45.468108 39.06866,39.51291 z"
         style="fill:#fff7dc;fill-opacity:1;fill-rule:evenodd;stroke:none" />
      <path
         id="path637"
         d="M 43.479989,44.806419 8.6309802,34.881086 38.848169,40.174599 z"
         style="fill:#fff7dc;fill-opacity:1;fill-rule:evenodd;stroke:none" />
      <path
         sodipodi:nodetypes="cccc"
         id="path638"
         d="M 43.921081,46.570885 23.188132,75.685293 37.745389,48.335458 z"
         style="fill:#fff7dc;fill-opacity:1;fill-rule:evenodd;stroke:none" />
      <path
         id="path639"
         d="m 74.071906,35.001826 -28.571798,10.15647 c 0,0 1.766993,-4.508516 1.984969,-4.541742 0.218078,-0.033248 26.838033,-5.429983 26.586829,-5.614728 z"
         style="fill:#fff7dc;fill-opacity:1;fill-rule:evenodd;stroke:none" />
      <path
         id="path640"
         d="M 45.023858,46.129797 65.75691,74.58241 62.88956,58.260791 62.448361,65.759858 z"
         style="fill:#fff7dc;fill-opacity:1;fill-rule:evenodd;stroke:none" />
      <path
         sodipodi:nodetypes="cccc"
         id="path641"
         d="m 23.629223,75.244098 c 0,0.661686 11.469307,-11.248706 18.747883,-18.306685 l 1.764572,-10.587126 z"
         style="fill:#a15a1a;fill-opacity:1;fill-rule:evenodd;stroke:none" />
    </g>
  </g>
</svg>
