<?xml version="1.0" encoding="UTF-8" standalone="no"?>
<!-- Created with Sodipodi ("http://www.sodipodi.com/") -->
<svg
   xmlns:dc="http://purl.org/dc/elements/1.1/"
   xmlns:cc="http://creativecommons.org/ns#"
   xmlns:rdf="http://www.w3.org/1999/02/22-rdf-syntax-ns#"
   xmlns:svg="http://www.w3.org/2000/svg"
   xmlns="http://www.w3.org/2000/svg"
   xmlns:xlink="http://www.w3.org/1999/xlink"
   xmlns:sodipodi="http://sodipodi.sourceforge.net/DTD/sodipodi-0.dtd"
   xmlns:inkscape="http://www.inkscape.org/namespaces/inkscape"
   id="svg604"
   sodipodi:version="0.32"
   width="90"
   height="90"
   sodipodi:docbase="/home/tweenk/GNUtoon/stock/document"
   sodipodi:docname="seahorse-applet-signed.svg"
   inkscape:version="0.46+devel"
   inkscape:output_extension="org.inkscape.output.svg.inkscape"
   version="1.0">
  <metadata
     id="metadata23">
    <rdf:RDF>
      <cc:Work
         rdf:about="">
        <dc:format>image/svg+xml</dc:format>
        <dc:type
           rdf:resource="http://purl.org/dc/dcmitype/StillImage" />
      </cc:Work>
    </rdf:RDF>
  </metadata>
  <defs
     id="defs606">
    <linearGradient
       id="linearGradient671">
      <stop
         style="stop-color:#7fa8e3;stop-opacity:0.741176;"
         offset="0.000000"
         id="stop672" />
      <stop
         style="stop-color:#ffffff;stop-opacity:0;"
         offset="1.000000"
         id="stop673" />
    </linearGradient>
    <linearGradient
       id="linearGradient612">
      <stop
         style="stop-color:#955801;stop-opacity:0.4471;"
         offset="0"
         id="stop613" />
      <stop
         style="stop-color:#000500;stop-opacity:0;"
         offset="1"
         id="stop614" />
    </linearGradient>
    <linearGradient
       xlink:href="#linearGradient612"
       id="linearGradient615"
       x1="36.216915"
       y1="12.409"
       x2="37.964546"
       y2="72.903305"
       gradientUnits="userSpaceOnUse"
       spreadMethod="pad"
       gradientTransform="matrix(0.9890292,0,0,0.9890292,1.104983,-1.209964)" />
    <linearGradient
       inkscape:collect="always"
       xlink:href="#linearGradient671"
       id="linearGradient2180"
       gradientUnits="userSpaceOnUse"
       gradientTransform="matrix(0.321682,0,0,0.321682,0.752234,0.87654)"
       x1="36.216915"
       y1="12.409"
       x2="37.964546"
       y2="72.903305" />
    <linearGradient
       id="linearGradient618">
      <stop
         id="stop620"
         style="stop-color:#7fa8e3;stop-opacity:0.741176;"
         offset="0.000000" />
      <stop
         id="stop619"
         style="stop-color:#ffffff;stop-opacity:0;"
         offset="1.000000" />
    </linearGradient>
    <defs
       id="defs598">
      <linearGradient
         id="linearGradient697">
        <stop
           id="stop698"
           offset="0.000000"
           style="stop-color:#7fa8e3;stop-opacity:0.741176;" />
        <stop
           id="stop699"
           offset="1.000000"
           style="stop-color:#ffffff;stop-opacity:0;" />
      </linearGradient>
      <linearGradient
         xlink:href="#linearGradient1787"
         spreadMethod="pad"
         gradientUnits="objectBoundingBox"
         y2="0.50000000"
         x2="1.0000000"
         y1="0.50000000"
         x1="0.0000000"
         id="linearGradient626" />
      <linearGradient
         id="linearGradient3801">
        <stop
           id="stop3803"
           offset="0.000000"
           style="stop-color:#956d47;stop-opacity:1;" />
        <stop
           id="stop3805"
           offset="1.000000"
           style="stop-color:#ab322d;stop-opacity:0;" />
      </linearGradient>
      <linearGradient
         id="linearGradient706">
        <stop
           id="stop707"
           offset="0"
           style="stop-color:#000;stop-opacity:1;" />
        <stop
           id="stop708"
           offset="1"
           style="stop-color:#fff;stop-opacity:1;" />
      </linearGradient>
      <linearGradient
         spreadMethod="pad"
         gradientUnits="objectBoundingBox"
         y2="0.52343726"
         x2="1.07843077"
         y1="0.57031226"
         x1="-0.19608469"
         id="linearGradient3810"
         xlink:href="#linearGradient618" />
      <linearGradient
         gradientTransform="matrix(0.934001,0.000000,0.000000,1.070663,-1.516226e-6,-1.716230e-7)"
         spreadMethod="pad"
         gradientUnits="userSpaceOnUse"
         y2="63.0152588"
         x2="28.5382881"
         y1="77.3980103"
         x1="42.9995728"
         id="linearGradient625"
         xlink:href="#linearGradient626" />
      <linearGradient
         spreadMethod="pad"
         gradientUnits="userSpaceOnUse"
         y2="61.6665344"
         x2="24.6243172"
         y1="10.6072874"
         x1="16.4110699"
         id="linearGradient636"
         xlink:href="#linearGradient612" />
    </defs>
    <linearGradient
       id="linearGradient1787">
      <stop
         id="stop1789"
         style="stop-color:#ffcbcb;stop-opacity:1.0000000;"
         offset="0.0000000" />
      <stop
         id="stop1788"
         style="stop-color:#ea0800;stop-opacity:1.0000000;"
         offset="1.0000000" />
    </linearGradient>
    <linearGradient
       inkscape:collect="always"
       xlink:href="#linearGradient1787"
       id="linearGradient3876"
       gradientUnits="userSpaceOnUse"
       gradientTransform="matrix(0.9479959,-8.5519426e-2,8.5519426e-2,0.9479959,-42.059299,90.842021)"
       x1="45.672657"
       y1="68.29966"
       x2="26.20887"
       y2="81.29966" />
    <linearGradient
       inkscape:collect="always"
       xlink:href="#linearGradient1787"
       id="linearGradient3878"
       gradientUnits="userSpaceOnUse"
       gradientTransform="matrix(0.7057779,-6.3668759e-2,5.8765589e-2,0.6514255,-30.898535,102.46003)"
       x1="32.572178"
       y1="41.439709"
       x2="65.530708"
       y2="86.700996" />
    <radialGradient
       inkscape:collect="always"
       xlink:href="#linearGradient1787"
       id="radialGradient3880"
       gradientUnits="userSpaceOnUse"
       spreadMethod="reflect"
       cx="55.821728"
       cy="67.852768"
       fx="55.988865"
       fy="67.684441"
       r="8.0222836" />
    <linearGradient
       y2="83.034393"
       x2="75.038589"
       y1="62.207943"
       x1="51.095966"
       gradientTransform="matrix(0.9894501,-0.1448744,0.1448744,0.9894501,-7.8893174,6.0717053)"
       gradientUnits="userSpaceOnUse"
       id="linearGradient3745"
       xlink:href="#linearGradient1787"
       inkscape:collect="always" />
    <linearGradient
       y2="83.034393"
       x2="75.038589"
       y1="62.207943"
       x1="51.095966"
       gradientTransform="matrix(0.9894501,-0.1448744,0.1448744,0.9894501,-7.8893174,6.0717053)"
       gradientUnits="userSpaceOnUse"
       id="linearGradient3743"
       xlink:href="#linearGradient1787"
       inkscape:collect="always" />
    <radialGradient
       r="8.0222836"
       fy="67.684441"
       fx="55.988865"
       cy="67.852768"
       cx="55.821728"
       spreadMethod="reflect"
       gradientUnits="userSpaceOnUse"
       id="radialGradient2925"
       xlink:href="#linearGradient1787"
       inkscape:collect="always" />
    <linearGradient
       y2="86.700996"
       x2="65.530708"
       y1="41.439709"
       x1="32.572178"
       gradientTransform="matrix(-1.2412691,-1.1980956,-1.1058296,1.1456781,183.07589,25.127027)"
       gradientUnits="userSpaceOnUse"
       id="linearGradient2919"
       xlink:href="#linearGradient1787"
       inkscape:collect="always" />
  </defs>
  <sodipodi:namedview
     id="base"
     inkscape:zoom="3.5649968"
     inkscape:cx="32.683965"
     inkscape:cy="34.405433"
     inkscape:window-width="874"
     inkscape:window-height="724"
     inkscape:window-x="140"
     inkscape:window-y="9"
     inkscape:current-layer="svg604"
     width="90px"
     height="90px"
     showgrid="false"
     showguides="true"
     inkscape:guide-bbox="true" />
  <path
     style="fill:#000000;fill-opacity:0.27981651;fill-rule:evenodd;stroke:none;stroke-width:1pt;stroke-linecap:butt;stroke-linejoin:miter;stroke-opacity:1"
     d="M 47.848509,5.297292 C 44.413512,5.407213 32.956134,7.411049 32.956134,7.411049 C 32.956134,7.411049 33.384834,9.397354 33.72477,11.158163 C 28.544338,11.912672 24.36746,12.581935 23.155985,12.791521 C 17.969792,13.529692 14.982689,15.655645 13.644079,18.556312 C 11.053436,22.240687 16.423296,75.123482 17.967672,80.719979 C 18.40562,86.259122 23.430933,88.356878 26.4227,88.406369 C 29.887392,87.737798 73.052184,79.604954 77.441106,78.029744 C 81.830097,76.454507 82.673841,71.651561 82.149018,68.229599 C 81.049128,65.308133 73.867794,15.700827 74.07831,13.27192 C 73.873551,8.805751 71.64027,8.109451 68.793918,7.218889 C 67.529808,6.823391 58.997055,7.844145 49.770108,9.044406 C 49.4973,7.532952 49.235337,5.74144 48.713229,5.393372 C 48.60555,5.321587 48.339225,5.281589 47.848509,5.297292 z "
     id="path2188" />
  <path
     style="fill:#7e0000;fill-opacity:1;fill-rule:evenodd;stroke:none;stroke-width:1pt;stroke-linecap:butt;stroke-linejoin:miter;stroke-opacity:1"
     d="M 20.957196,84.729437 C 17.965428,84.679946 12.94976,82.615799 12.511812,77.076662 C 10.967436,71.480162 5.598713,18.583664 8.189356,14.899289 C 9.527966,11.998622 12.442897,9.869272 17.629089,9.131101 C 21.872612,8.396969 60.472257,2.659627 63.318516,3.550129 C 66.164865,4.44069 68.406996,5.193736 68.611755,9.659905 C 68.401242,12.088811 75.570651,61.631195 76.670544,64.552658 C 77.195364,67.97462 76.333857,72.756614 71.944866,74.331854 C 67.555947,75.907064 24.421887,84.060866 20.957196,84.729437 z "
     id="path609"
     sodipodi:nodetypes="ccccccccc" />
  <path
     style="fill:#ffd056;fill-opacity:1;fill-rule:evenodd;stroke:none;stroke-width:1pt;stroke-linecap:butt;stroke-linejoin:miter;stroke-opacity:1"
     d="M 24.413569,78.862334 C 21.513011,79.294976 17.484009,80.199413 17.002756,75.718925 C 14.998773,65.1125 10.403982,23.076759 13.677983,16.245508 C 14.409232,14.639155 18.379437,12.458748 27.398047,11.548514 C 37.646757,10.383892 58.675539,8.612854 60.888459,8.727898 C 63.101265,8.842972 63.778236,8.559893 64.25955,13.040486 C 64.064079,17.804071 70.739724,55.068065 71.134089,61.665746 C 71.440947,66.349361 71.969031,68.33933 69.261399,69.471599"
     id="path608"
     sodipodi:nodetypes="cccccccs" />
  <path
     style="fill:url(#linearGradient615);fill-opacity:1;fill-rule:evenodd;stroke:none;stroke-width:1pt;stroke-linecap:butt;stroke-linejoin:miter;stroke-opacity:1"
     d="M 12.726614,21.368915 C 12.726614,21.368915 12.98748,15.012349 20.496465,13.746509 C 28.005441,12.480699 57.744249,8.166229 58.452831,10.368901 C 59.161383,12.571561 60.038634,26.88612 60.257424,28.044127 C 60.476217,29.202094 35.301837,39.104696 28.389085,48.555239 C 21.476317,58.005758 16.634985,65.652965 16.634985,65.652965 C 16.634985,65.652965 12.67652,32.322821 12.726614,21.368915 z "
     id="path636" />
  <g
     id="g2175"
     transform="matrix(2.9183007,0,0,2.9183007,-11.938322,-12.175405)">
    <path
       sodipodi:nodetypes="ccccccccc"
       id="path703"
       d="M 12.849031,28.48975 C 12.078719,28.477007 10.787295,27.945537 10.67454,26.519332 C 10.276895,25.078363 8.8945711,11.458716 9.5616017,10.510075 C 9.9062658,9.7632181 10.656792,9.2149588 11.992118,9.024896 C 13.084732,8.8358754 23.023256,7.3586394 23.756112,7.5879217 C 24.488997,7.8172233 25.066273,8.0111141 25.119003,9.1610513 C 25.064809,9.7864404 26.91077,22.542476 27.193973,23.294689 C 27.329063,24.175768 27.10727,25.40702 25.977193,25.81261 C 24.847145,26.218187 13.741108,28.317608 12.849031,28.48975 z "
       style="fill:#3d4e67;fill-opacity:1;fill-rule:evenodd;stroke:none;stroke-width:1pt;stroke-linecap:butt;stroke-linejoin:miter;stroke-opacity:1" />
    <path
       sodipodi:nodetypes="cccccccs"
       id="path704"
       d="M 13.738965,26.979103 C 12.992141,27.090499 11.954761,27.323371 11.830849,26.169747 C 11.314874,23.438832 10.131819,12.615585 10.974798,10.856693 C 11.163078,10.443093 12.185314,9.8816873 14.507404,9.6473257 C 17.146212,9.347463 22.560651,8.891459 23.130414,8.9210795 C 23.700187,8.9507097 23.874469,8.8778229 23.998393,10.031475 C 23.948069,11.257986 25.666911,20.852621 25.768441,22.551371 C 25.847465,23.757297 25.983408,24.26967 25.286281,24.561204"
       style="fill:#ffffff;fill-opacity:1;fill-rule:evenodd;stroke:none;stroke-width:1pt;stroke-linecap:butt;stroke-linejoin:miter;stroke-opacity:1" />
    <path
       id="path705"
       d="M 11.16164,12.489891 C 11.16164,12.489891 11.228807,10.853216 13.162199,10.527294 C 15.09559,10.201375 22.752659,9.0904968 22.935088,9.6576355 C 23.117518,10.224771 23.343416,13.910444 23.399723,14.208604 C 23.456085,14.506755 16.974248,17.056451 15.19437,19.48975 C 13.414487,21.923042 12.167956,23.892027 12.167956,23.892027 C 12.167956,23.892027 11.148741,15.31027 11.16164,12.489891 z "
       style="fill:url(#linearGradient2180);fill-opacity:1;fill-rule:evenodd;stroke:none;stroke-width:1pt;stroke-linecap:butt;stroke-linejoin:miter;stroke-opacity:1" />
  </g>
  <g
     id="g3514">
    <path
       id="path674"
       d="M 27.475864,3.74249 C 27.475864,3.74249 42.407037,1.158247 43.268448,1.732522 C 44.129868,2.306796 44.129859,6.901007 44.991273,7.475281 C 45.852687,8.049557 50.159757,7.188139 50.734035,8.33669 C 51.308307,9.48524 51.882579,14.366588 51.882579,14.366588 L 24.317356,18.673656 C 24.317356,18.673656 20.584559,13.792308 23.455941,12.069486 C 26.327323,10.346654 28.624426,11.20807 28.624426,9.772382 C 28.624426,8.33669 27.475864,3.74249 27.475864,3.74249 z "
       style="fill:#4e4e4e;fill-opacity:1;fill-rule:evenodd;stroke:none;stroke-width:1pt;stroke-linecap:butt;stroke-linejoin:miter;stroke-opacity:1" />
    <path
       sodipodi:nodetypes="ccccccccc"
       id="path675"
       d="M 28.978182,4.608595 C 28.978182,4.608595 41.584989,2.373049 42.312312,2.869828 C 43.039638,3.36662 42.752496,8.202348 43.479819,8.699138 C 44.207136,9.195928 48.130851,7.589325 48.615735,8.582896 C 49.100604,9.576477 49.011195,11.502079 49.29834,13.22491 L 26.598495,16.950815 C 25.73709,15.802264 23.733938,13.876671 26.158316,12.386312 C 28.582719,10.895943 31.096497,11.066846 31.096497,9.824872 C 31.096497,8.582896 28.978182,4.608595 28.978182,4.608595 z "
       style="fill:#a4a4a4;fill-opacity:1;fill-rule:evenodd;stroke:none;stroke-width:1pt;stroke-linecap:butt;stroke-linejoin:miter;stroke-opacity:1" />
    <path
       id="path676"
       d="M 47.575509,9.772382 L 47.862642,12.930901 L 28.911559,15.802273 C 28.911559,15.802273 46.714101,13.218037 47.575509,9.772382 z "
       style="fill:#f8f8f8;fill-opacity:1;fill-rule:evenodd;stroke:none;stroke-width:1pt;stroke-linecap:butt;stroke-linejoin:miter;stroke-opacity:1" />
    <path
       id="path677"
       d="M 30.347244,5.178182 L 32.357214,9.198106 C 32.357214,9.198106 25.465898,12.356621 25.465898,13.505172 C 25.465898,14.653723 27.475864,16.376554 27.475864,16.376554 L 29.485831,15.802273 C 29.485831,15.802273 27.188727,14.366588 28.337279,13.218037 C 29.485831,12.069486 35.802864,11.20806 34.654314,8.910964 C 33.505761,6.613865 30.921516,4.89104 30.347244,5.178182 z "
       style="fill:#656565;fill-opacity:1;fill-rule:evenodd;stroke:none;stroke-width:1pt;stroke-linecap:butt;stroke-linejoin:miter;stroke-opacity:1" />
  </g>
  <g
     id="g2681"
     transform="matrix(0.658436,0,0,0.658436,31.371272,30.739871)">
    <path
       id="path3740"
       d="m 39.179977,4.2454423 c -0.352426,0.0527315 -0.69612,0.1111499 -1.046764,0.1848493 -8.837133,1.9299068 -16.380684,7.7352914 -22.312312,14.352651 -2.027879,2.419087 -4.695783,6.434706 -1.956346,9.287659 1.0001904,2.825659 -0.0176372,6.381762 -0.6169464,9.375794 -1.1409577,3.939602 -3.3721633,7.800267 -2.4991325,12.051705 0.7262427,6.116774 6.4226843,9.972382 11.875926,11.652415 5.372377,1.70595 9.071152,6.251948 13.675178,9.272895 3.215743,2.542434 7.643478,5.126769 11.753098,3.048186 3.880265,-1.891727 5.616445,-6.760977 10.124804,-7.641189 2.088811,-0.621965 4.350408,-1.225029 6.453963,-2.081979 0.191552,0.892072 0.339023,2.076894 0.379623,3.671234 -0.005834,-0.228969 -0.250489,1.087014 -0.923656,2.535564 -0.673171,1.448553 -1.640631,3.251851 -2.704798,5.038765 -2.128332,3.573828 -4.577641,7.157341 -5.714369,8.858826 l -4.352531,6.511769 7.514309,-2.174068 c 5.110367,-1.480501 10.397759,-4.650156 15.196408,-9.457597 0.797925,1.463143 2.167867,3.719672 4.845927,5.701854 l 2.69402,2.005867 1.518655,-3.001682 C 87.393001,75.038518 88.269006,69.434091 86.64835,62.26181 85.247017,56.060163 82.592333,52.239835 79.714376,49.633134 78.994885,48.981459 78.293136,48.399692 77.591274,47.859505 77.240227,40.417947 76.995013,32.899056 75.414582,25.659392 73.504463,19.239134 66.920832,16.318708 61.279931,13.895533 55.924396,11.576579 50.447968,8.9469538 46.622816,4.3874134 44.159844,3.9995592 41.646959,3.8763214 39.179977,4.2454423 z"
       style="opacity:1;color:#000000;fill:#000000;fill-opacity:0.29411765;fill-rule:evenodd;stroke:none;stroke-width:5.70000029;marker:none;visibility:visible;display:inline;overflow:visible;enable-background:accumulate" />
    <path
       style="opacity:1;color:#000000;fill:url(#linearGradient3745);fill-opacity:1;fill-rule:evenodd;stroke:#593a28;stroke-width:5.70000029;stroke-linecap:butt;stroke-linejoin:miter;stroke-miterlimit:4;stroke-opacity:1;stroke-dasharray:none;stroke-dashoffset:0;marker:none;marker-start:none;marker-mid:none;marker-end:none;visibility:visible;display:inline;overflow:visible;enable-background:accumulate"
       d="m 52.082389,53.024118 c 5.604858,4.741679 9.652973,2.488847 9.920098,12.978452 0.087983,3.45497 -7.580498,14.734926 -9.825161,18.094796 5.320434,-1.541363 11.064619,-5.057297 16.068776,-10.857348 2.383862,0.707063 1.945874,4.208115 6.467243,7.554633 4.173786,-8.138789 4.833881,-12.528126 3.310874,-19.268259 C 75.43499,50.067651 69.095364,49.176879 63.920797,43.900939 c -4.430098,6.149223 -11.007911,6.40743 -11.838408,9.123179 z"
       id="path3726"
       sodipodi:nodetypes="cscccscc" />
    <path
       sodipodi:nodetypes="cscccscc"
       id="path3714"
       d="m 52.082389,53.024118 c 5.604858,4.741679 9.652973,2.488847 9.920098,12.978452 0.087983,3.45497 -7.580498,14.734926 -9.825161,18.094796 5.320434,-1.541363 11.064619,-5.057297 16.068776,-10.857348 2.383862,0.707063 1.945874,4.208115 6.467243,7.554633 4.173786,-8.138789 4.833881,-12.528126 3.310874,-19.268259 C 75.43499,50.067651 69.095364,49.176879 63.920797,43.900939 c -4.430098,6.149223 -11.007911,6.40743 -11.838408,9.123179 z"
       style="opacity:1;color:#000000;fill:url(#linearGradient3743);fill-opacity:1;fill-rule:evenodd;stroke:#593a28;stroke-width:0;stroke-linecap:butt;stroke-linejoin:miter;stroke-miterlimit:4;stroke-opacity:1;stroke-dasharray:none;stroke-dashoffset:0;marker:none;marker-start:none;marker-mid:none;marker-end:none;visibility:visible;display:inline;overflow:visible;enable-background:accumulate" />
    <path
       sodipodi:nodetypes="cccccccccc"
       id="path1797"
       d="m 67.270409,44.237078 c 0,0 -9.2487046,3.4314648 -4.8927683,8.7593916 C 60.185322,56.497893 60.79999,57.091181 50.936616,59.929358 41.073248,62.767533 42.675469,72.178506 34.176674,66.22231 25.677879,60.266112 23.780607,57.311342 18.408415,55.496501 13.036221,53.681658 5.8200392,50.086947 9.5367433,41.315894 13.253449,32.544843 12.265891,23.727159 12.265891,23.727159 5.3160518,26.00702 23.735618,4.463499 38.516337,6.3716061 c 10.502598,11.260803 27.475626,9.6674992 27.446921,21.998277 0.827743,5.292945 1.307151,15.867195 1.307151,15.867195 z"
       style="fill:none;stroke:#593a28;stroke-width:8.28701305;stroke-linecap:butt;stroke-linejoin:miter;stroke-miterlimit:4;stroke-opacity:1" />
    <path
       id="path2939"
       d="M 32.040944,2.5114113 C 23.203812,4.4413177 15.672866,10.24481 9.741238,16.862171 c -2.0278783,2.419086 -4.718184,6.435282 -1.9787473,9.288236 1.0001907,2.825659 -0.0206442,6.380442 -0.6199534,9.374473 -1.1409588,3.939602 -3.36573,7.814039 -2.4926987,12.065477 0.72624277,6.116775 6.4350156,9.970759 11.888258,11.650791 5.372376,1.705951 9.078856,6.246947 13.682882,9.267895 3.215742,2.542432 7.635735,5.128706 11.745355,3.050122 3.880263,-1.891729 5.61052,-6.767425 10.118879,-7.647637 4.808898,-1.431896 10.571922,-2.638957 13.075767,-7.523775 0.531866,-1.2986 1.962552,-2.598481 2.181366,-3.848876 -0.778679,-1.177049 -3.041277,-2.582011 -0.581149,-3.397538 1.465855,-0.961911 3.157634,-1.444112 4.77711,-2.069473 C 71.153372,39.263863 70.97651,31.33961 69.31609,23.733527 67.405968,17.31327 60.821989,14.406586 55.181088,11.983411 49.825553,9.6644578 44.355698,7.0280729 40.530547,2.468533 37.715722,2.0252709 34.846099,1.9218154 32.040944,2.5114113 z"
       style="fill:#593a28;fill-opacity:1;stroke:none" />
    <path
       sodipodi:nodetypes="cccccccccc"
       id="path1790"
       d="m 67.270409,44.237078 c 0,0 -9.2487046,3.4314648 -4.8927683,8.7593916 C 60.185322,56.497893 60.79999,57.091181 50.936616,59.929358 41.073248,62.767533 42.675469,72.178506 34.176674,66.22231 25.677879,60.266112 23.780607,57.311342 18.408415,55.496501 13.036221,53.681658 5.8200392,50.086947 9.5367433,41.315894 13.253449,32.544843 12.265891,23.727159 12.265891,23.727159 5.3160518,26.00702 23.735618,4.463499 38.516337,6.3716061 c 10.502598,11.260803 23.22623,6.6894032 27.446921,21.998277 0.827743,5.292945 1.307151,15.867195 1.307151,15.867195 z"
       style="fill:url(#linearGradient2919);fill-opacity:1;fill-rule:evenodd;stroke:none" />
    <path
       transform="matrix(-1.2259183,-1.1832788,-1.1196756,1.1600232,183.07589,25.127027)"
       d="m 68.189415,68.189415 a 11.78273,11.78273 0 1 1 -23.56546,0 11.78273,11.78273 0 1 1 23.56546,0 z"
       sodipodi:ry="11.78273"
       sodipodi:rx="11.78273"
       sodipodi:cy="68.189415"
       sodipodi:cx="56.406685"
       id="path1161"
       style="fill:url(#radialGradient2925);fill-opacity:1;fill-rule:nonzero;stroke:none"
       sodipodi:type="arc" />
    <path
       id="path2937"
       d="M 32.040944,2.5114113"
       style="fill:#593a28;fill-opacity:1;stroke:none" />
    <path
       id="path2935"
       d="M 32.040944,2.5114113"
       style="fill:#593a28;fill-opacity:1;stroke:none" />
    <path
       id="path3738"
       d="M 63.57453,39.489368"
       style="opacity:1;color:#000000;fill:#593a28;fill-opacity:1;fill-rule:evenodd;stroke:none;stroke-width:5.70000029;marker:none;visibility:visible;display:inline;overflow:visible;enable-background:accumulate" />
    <path
       id="path3736"
       d="M 63.57453,39.489368"
       style="opacity:1;color:#000000;fill:#593a28;fill-opacity:1;fill-rule:evenodd;stroke:none;stroke-width:5.70000029;marker:none;visibility:visible;display:inline;overflow:visible;enable-background:accumulate" />
  </g>
</svg>
