<?xml version="1.0" encoding="UTF-8" standalone="no"?>
<!-- Created with Inkscape (http://www.inkscape.org/) -->
<svg
   xmlns:dc="http://purl.org/dc/elements/1.1/"
   xmlns:cc="http://creativecommons.org/ns#"
   xmlns:rdf="http://www.w3.org/1999/02/22-rdf-syntax-ns#"
   xmlns:svg="http://www.w3.org/2000/svg"
   xmlns="http://www.w3.org/2000/svg"
   xmlns:xlink="http://www.w3.org/1999/xlink"
   xmlns:sodipodi="http://sodipodi.sourceforge.net/DTD/sodipodi-0.dtd"
   xmlns:inkscape="http://www.inkscape.org/namespaces/inkscape"
   width="90"
   height="90"
   id="svg2"
   sodipodi:version="0.32"
   inkscape:version="0.45+devel"
   version="1.0"
   sodipodi:docname="weather-snow.svg"
   inkscape:output_extension="org.inkscape.output.svg.inkscape">
  <defs
     id="defs4">
    <linearGradient
       inkscape:collect="always"
       id="linearGradient3178">
      <stop
         style="stop-color:#ffffff;stop-opacity:1"
         offset="0"
         id="stop3180" />
      <stop
         style="stop-color:#c2c2c2;stop-opacity:1"
         offset="1"
         id="stop3182" />
    </linearGradient>
    <linearGradient
       id="linearGradient3165">
      <stop
         style="stop-color:#fffbe1;stop-opacity:1"
         offset="0"
         id="stop3167" />
      <stop
         style="stop-color:#ffe058;stop-opacity:1"
         offset="1"
         id="stop3169" />
    </linearGradient>
    <inkscape:perspective
       sodipodi:type="inkscape:persp3d"
       inkscape:vp_x="-50 : 600 : 1"
       inkscape:vp_y="0 : 1000 : 0"
       inkscape:vp_z="700 : 600 : 1"
       inkscape:persp3d-origin="300 : 400 : 1"
       id="perspective11" />
    <inkscape:perspective
       sodipodi:type="inkscape:persp3d"
       inkscape:vp_x="-50 : 600 : 1"
       inkscape:vp_y="0 : 1000 : 0"
       inkscape:vp_z="700 : 600 : 1"
       inkscape:persp3d-origin="300 : 400 : 1"
       id="perspective10" />
    <radialGradient
       inkscape:collect="always"
       xlink:href="#linearGradient3165"
       id="radialGradient3173"
       cx="42.023693"
       cy="44.997265"
       fx="35.64209"
       fy="32.427597"
       r="28.192772"
       gradientUnits="userSpaceOnUse"
       gradientTransform="matrix(1.0239517,-0.5239538,0.5014648,0.9800017,-19.759209,21.72133)" />
    <linearGradient
       inkscape:collect="always"
       xlink:href="#linearGradient3178"
       id="linearGradient3601"
       gradientUnits="userSpaceOnUse"
       gradientTransform="matrix(0.8236127,0,0,1.0901083,8.1047312,-42.4593)"
       x1="55.132481"
       y1="53.540581"
       x2="63.766857"
       y2="88.093849" />
  </defs>
  <sodipodi:namedview
     id="base"
     pagecolor="#ffffff"
     bordercolor="#666666"
     borderopacity="1.0"
     gridtolerance="10000"
     guidetolerance="10"
     objecttolerance="10"
     inkscape:pageopacity="0.0"
     inkscape:pageshadow="2"
     inkscape:zoom="2.7666667"
     inkscape:cx="48.033657"
     inkscape:cy="35.324384"
     inkscape:document-units="px"
     inkscape:current-layer="layer1"
     showgrid="false"
     inkscape:window-width="1024"
     inkscape:window-height="736"
     inkscape:window-x="0"
     inkscape:window-y="1" />
  <metadata
     id="metadata7">
    <rdf:RDF>
      <cc:Work
         rdf:about="">
        <dc:format>image/svg+xml</dc:format>
        <dc:type
           rdf:resource="http://purl.org/dc/dcmitype/StillImage" />
      </cc:Work>
    </rdf:RDF>
  </metadata>
  <g
     inkscape:label="Layer 1"
     inkscape:groupmode="layer"
     id="layer1">
    <g
       id="g4083"
       transform="matrix(2.311623,1.3346161,-1.3346161,2.311623,80.702276,-153.30772)">
      <path
         d="M 22.75,56.9375 C 22.245164,56.971964 21.789518,57.252362 21.53125,57.6875 L 21.4375,57.84375 L 21.375,57.75 C 21.170721,57.390478 20.830372,57.128274 20.430635,57.022461 C 20.030898,56.916648 19.605398,56.976128 19.25,57.1875 L 16.65625,58.6875 C 16.296728,58.891779 16.034524,59.232128 15.928711,59.631865 C 15.822898,60.031602 15.882378,60.457102 16.09375,60.8125 L 16.25,61.09375 L 15.90625,61.09375 C 15.062363,61.098077 14.379327,61.781113 14.375,62.625 L 14.375,64.6875 L 12.34375,65.875 C 11.984228,66.079279 11.722024,66.419628 11.616211,66.819365 C 11.510398,67.219102 11.569878,67.644602 11.78125,68 L 11.875,68.1875 L 11.75,68.1875 C 10.906113,68.191827 10.223077,68.874863 10.21875,69.71875 L 10.21875,72.71875 C 10.223077,73.562637 10.906113,74.245673 11.75,74.25 L 12.09375,74.25 L 11.90625,74.59375 C 11.487031,75.327724 11.738147,76.262433 12.46875,76.6875 L 14.3125,77.75 L 14.3125,80.03125 C 14.316827,80.875137 14.999863,81.558173 15.84375,81.5625 L 16.03125,81.5625 L 15.96875,81.6875 C 15.757378,82.042898 15.697898,82.468398 15.803711,82.868135 C 15.909524,83.267872 16.171728,83.608221 16.53125,83.8125 L 19.125,85.3125 C 19.48423,85.521375 19.912653,85.576124 20.312865,85.4643 C 20.713077,85.352476 21.05107,85.083581 21.25,84.71875 L 21.40625,84.4375 L 21.59375,84.75 C 21.798029,85.109522 22.138378,85.371726 22.538115,85.477539 C 22.937852,85.583352 23.363352,85.523872 23.71875,85.3125 L 25.5625,84.25 L 27.4375,85.3125 C 27.79673,85.521375 28.225153,85.576124 28.625365,85.4643 C 29.025577,85.352476 29.36357,85.083581 29.5625,84.71875 L 29.71875,84.4375 L 29.90625,84.75 C 30.110529,85.109522 30.450878,85.371726 30.850615,85.477539 C 31.250352,85.583352 31.675852,85.523872 32.03125,85.3125 L 34.625,83.8125 C 34.984522,83.608221 35.246726,83.267872 35.352539,82.868135 C 35.458352,82.468398 35.398872,82.042898 35.1875,81.6875 L 35.09375,81.53125 L 35.3125,81.53125 C 36.156387,81.526923 36.839423,80.843887 36.84375,80 L 36.84375,77.75 L 38.65625,76.6875 C 39.386853,76.262433 39.637969,75.327724 39.21875,74.59375 L 39.03125,74.25 L 39.40625,74.25 C 40.250137,74.245673 40.933173,73.562637 40.9375,72.71875 L 40.9375,69.71875 C 40.933173,68.874863 40.250137,68.191827 39.40625,68.1875 L 39.25,68.1875 L 39.34375,68 C 39.555122,67.644602 39.614602,67.219102 39.508789,66.819365 C 39.402976,66.419628 39.140772,66.079279 38.78125,65.875 L 36.78125,64.71875 L 36.78125,62.65625 C 36.776923,61.812363 36.093887,61.129327 35.25,61.125 L 34.875,61.125 L 35.0625,60.78125 C 35.481719,60.047276 35.230603,59.112567 34.5,58.6875 L 31.90625,57.1875 C 31.54702,56.978625 31.118597,56.923876 30.718385,57.0357 C 30.318173,57.147524 29.98018,57.416419 29.78125,57.78125 L 29.71875,57.875 L 29.625,57.71875 C 29.199933,56.988147 28.265224,56.737031 27.53125,57.15625 L 25.59375,58.25 L 23.65625,57.125 C 23.380554,56.971014 23.064165,56.905554 22.75,56.9375 L 22.75,56.9375 z M 25.5625,62.90625 L 26.15625,64 L 25.5625,65.03125 L 24.9375,63.9375 L 25.5625,62.90625 z M 18.34375,67.15625 L 19.75,67.15625 L 20.34375,68.1875 L 18.9375,68.1875 L 18.34375,67.15625 z M 31.375,67.1875 L 32.75,67.1875 L 32.1875,68.1875 L 30.8125,68.1875 L 31.375,67.1875 z M 19.125,74.25 L 20.25,74.25 L 19.53125,75.5 L 18.40625,75.5 L 19.125,74.25 z M 30.90625,74.25 L 32,74.25 L 32.6875,75.46875 L 31.59375,75.46875 L 30.90625,74.25 z M 25.59375,77.21875 L 26.21875,78.3125 L 25.5625,79.4375 L 24.9375,78.34375 L 25.59375,77.21875 z"
         id="path4081"
         style="fill:#31baff;fill-opacity:1;fill-rule:evenodd;stroke:none;stroke-width:3;stroke-linecap:butt;stroke-linejoin:miter;marker:none;stroke-miterlimit:10;stroke-dasharray:none;stroke-dashoffset:0;stroke-opacity:1;visibility:visible;display:inline;overflow:visible;enable-background:accumulate"
         inkscape:original="M 22.875 58.46875 L 21.4375 60.96875 L 20.03125 58.53125 L 17.4375 60.03125 L 18.9375 62.625 L 15.90625 62.625 L 15.90625 65.625 L 20.65625 65.625 L 23.03125 69.71875 L 18.03125 69.71875 L 15.71875 65.71875 L 13.125 67.21875 L 14.5625 69.71875 L 11.75 69.71875 L 11.75 72.71875 L 14.75 72.71875 L 13.25 75.34375 L 15.84375 76.84375 L 18.21875 72.71875 L 22.9375 72.71875 L 20.4375 77.03125 L 15.84375 77.03125 L 15.84375 80.03125 L 18.71875 80.03125 L 17.3125 82.46875 L 19.90625 83.96875 L 21.40625 81.34375 L 22.9375 83.96875 L 25.53125 82.46875 L 23.15625 78.34375 L 25.59375 74.125 L 28 78.34375 L 25.625 82.46875 L 28.21875 83.96875 L 29.71875 81.34375 L 31.25 83.96875 L 33.84375 82.46875 L 32.40625 80 L 35.3125 80 L 35.3125 77 L 30.6875 77 L 28.21875 72.71875 L 32.90625 72.71875 L 35.28125 76.84375 L 37.875 75.34375 L 36.375 72.71875 L 39.40625 72.71875 L 39.40625 69.71875 L 36.5625 69.71875 L 38 67.21875 L 35.40625 65.71875 L 33.09375 69.71875 L 28.125 69.71875 L 30.46875 65.65625 L 35.25 65.65625 L 35.25 62.65625 L 32.21875 62.65625 L 33.71875 60.03125 L 31.125 58.53125 L 29.71875 61 L 28.28125 58.5 L 25.65625 60 L 27.96875 64 L 25.5625 68.125 L 23.15625 63.9375 L 25.46875 59.96875 L 22.875 58.46875 z "
         inkscape:radius="1.5390074"
         sodipodi:type="inkscape:offset" />
      <g
         style="fill:#ffffff;stroke:#ffffff;stroke-opacity:1"
         id="g3985">
        <g
           id="g3964"
           style="fill:#ffffff;stroke:#ffffff;stroke-opacity:1">
          <path
             sodipodi:nodetypes="cc"
             id="path3954"
             d="M 11.746988,71.204819 L 39.397591,71.204819"
             style="opacity:1;fill:#ffffff;fill-opacity:0;fill-rule:evenodd;stroke:#ffffff;stroke-width:3;stroke-linecap:butt;stroke-linejoin:miter;marker:none;marker-start:none;marker-mid:none;marker-end:none;stroke-miterlimit:10;stroke-dasharray:none;stroke-dashoffset:0;stroke-opacity:1;visibility:visible;display:inline;overflow:visible;enable-background:accumulate" />
          <path
             sodipodi:nodetypes="ccc"
             id="path3960"
             d="M 14.548193,76.084337 L 17.266595,71.375927 L 14.433084,66.468142"
             style="opacity:1;fill:#ffffff;fill-opacity:0;fill-rule:evenodd;stroke:#ffffff;stroke-width:3;stroke-linecap:butt;stroke-linejoin:miter;marker:none;marker-start:none;marker-mid:none;marker-end:none;stroke-miterlimit:10;stroke-dasharray:none;stroke-dashoffset:0;stroke-opacity:1;visibility:visible;display:inline;overflow:visible;enable-background:accumulate" />
          <use
             height="90"
             width="90"
             transform="matrix(-1,0,0,1,51.12739,0)"
             id="use3962"
             xlink:href="#path3960"
             y="0"
             x="0"
             style="fill:#ffffff;stroke:#ffffff;stroke-opacity:1" />
        </g>
        <use
           x="0"
           y="0"
           xlink:href="#g3964"
           id="use3969"
           transform="matrix(0.5,0.8660254,-0.8660254,0.5,74.513179,13.491867)"
           width="90"
           height="90"
           style="fill:#ffffff;stroke:#ffffff;stroke-opacity:1" />
        <use
           x="0"
           y="0"
           xlink:href="#g3964"
           id="use3971"
           transform="matrix(0.5,-0.8660254,0.8660254,0.5,-48.940889,57.784372)"
           width="90"
           height="90"
           style="fill:#ffffff;stroke:#ffffff;stroke-opacity:1" />
      </g>
    </g>
  </g>
</svg>
