<?xml version="1.0" encoding="UTF-8" standalone="no"?>
<!DOCTYPE svg PUBLIC "-//W3C//DTD SVG 20010904//EN"
"http://www.w3.org/TR/2001/REC-SVG-20010904/DTD/svg10.dtd">
<!-- Created with Sodipodi ("http://www.sodipodi.com/") -->
<svg
   version="1.0"
   x="0"
   y="0"
   width="60"
   height="60"
   id="svg548"
   xmlns="http://www.w3.org/2000/svg"
   xmlns:xlink="http://www.w3.org/1999/xlink"
   xmlns:sodipodi="http://sodipodi.sourceforge.net/DTD/sodipodi-0.dtd"
   xmlns:inkscape="http://www.inkscape.org/namespaces/inkscape"
   sodipodi:version="0.32"
   inkscape:version="0.40"
   xmlns:rdf="http://www.w3.org/1999/02/22-rdf-syntax-ns#"
   xmlns:cc="http://web.resource.org/cc/"
   xmlns:dc="http://purl.org/dc/elements/1.1/"
   sodipodi:docname="emblem-cvs-removed.svg"
   sodipodi:docbase="/home/zeus/.icons/gartoon/scalable/emblems">
  <metadata
     id="metadata14">
    <rdf:RDF
       id="RDF15">
      <cc:Work
         rdf:about=""
         id="Work16">
        <dc:format
           id="format17">image/svg+xml</dc:format>
        <dc:type
           id="type19"
           rdf:resource="http://purl.org/dc/dcmitype/StillImage" />
      </cc:Work>
    </rdf:RDF>
  </metadata>
  <sodipodi:namedview
     id="base"
     pagecolor="#ffffff"
     bordercolor="#666666"
     borderopacity="1.0"
     inkscape:pageopacity="0.0"
     inkscape:pageshadow="2"
     inkscape:zoom="3.4732669"
     inkscape:cx="19.267097"
     inkscape:cy="28.088354"
     inkscape:window-width="640"
     inkscape:window-height="537"
     inkscape:window-x="350"
     inkscape:window-y="44"
     inkscape:current-layer="svg548" />
  <defs
     id="defs550">
    <linearGradient
       x1="0"
       y1="0"
       x2="1"
       y2="0"
       id="linearGradient556"
       gradientUnits="objectBoundingBox"
       spreadMethod="pad">
      <stop
         style="stop-color:#ff8700;stop-opacity:1;"
         offset="0"
         id="stop557" />
      <stop
         style="stop-color:#ffff8d;stop-opacity:0;"
         offset="1"
         id="stop558" />
    </linearGradient>
    <linearGradient
       x1="0"
       y1="0"
       x2="1"
       y2="0"
       id="linearGradient559"
       xlink:href="#linearGradient556"
       gradientUnits="objectBoundingBox"
       spreadMethod="pad" />
    <linearGradient
       inkscape:collect="always"
       xlink:href="#linearGradient612"
       id="linearGradient1111"
       gradientUnits="userSpaceOnUse"
       spreadMethod="pad"
       x1="50.6438866"
       y1="5.36792946"
       x2="35.7520943"
       y2="68.0443573" />
    <defs
       id="defs606">
      <linearGradient
         id="linearGradient612">
        <stop
           style="stop-color:#7fa8e3;stop-opacity:0.741176;"
           offset="0.000000"
           id="stop613" />
        <stop
           style="stop-color:#ffffff;stop-opacity:0;"
           offset="1.000000"
           id="stop614" />
      </linearGradient>
      <linearGradient
         xlink:href="#linearGradient612"
         id="linearGradient615"
         x1="50.643887"
         y1="5.3679295"
         x2="35.752094"
         y2="68.044357"
         gradientUnits="userSpaceOnUse"
         spreadMethod="pad" />
    </defs>
    <sodipodi:namedview
       id="namedview1076" />
    <linearGradient
       inkscape:collect="always"
       xlink:href="#linearGradient612"
       id="linearGradient1172"
       gradientUnits="userSpaceOnUse"
       spreadMethod="pad"
       x1="50.6438866"
       y1="5.36792946"
       x2="35.7520943"
       y2="68.0443573" />
  </defs>
  <g
     id="g1167"
     transform="translate(80.97564,38.86830)">
    <path
       style="fill:#000000;fill-opacity:0.30147097;fill-rule:evenodd;stroke:none;stroke-width:1.0000000pt;stroke-linecap:butt;stroke-linejoin:miter;stroke-opacity:1.0000000"
       d="M -55.000937,15.503983 C -56.190638,14.963192 -57.812925,13.232750 -56.947698,10.853348 C -56.515110,8.2577063 -48.728028,-14.670913 -46.997537,-15.752445 C -45.916054,-16.725818 -44.347767,-17.104370 -42.130618,-16.509519 C -40.292002,-16.076898 -23.744509,-11.750716 -22.771141,-10.885521 C -21.797729,-10.020273 -21.040649,-9.3172831 -21.797729,-7.4245872 C -22.338470,-6.4512241 -28.773681,15.395814 -28.881801,16.801853 C -29.314423,18.316007 -30.558159,20.154618 -32.613103,20.046449 C -34.668004,19.938280 -53.486783,15.828436 -55.000937,15.503983 z "
       id="path794"
       sodipodi:nodetypes="ccccccccc" />
    <path
       style="fill:#3d4e67;fill-opacity:1.0000000;fill-rule:evenodd;stroke:none;stroke-width:1.0000000pt;stroke-linecap:butt;stroke-linejoin:miter;stroke-opacity:1.0000000"
       d="M 12.816300,74.753000 C 10.385600,73.648100 7.0710700,70.112600 8.8388400,65.251200 C 9.7226700,59.948000 25.632600,13.102100 29.168200,10.892400 C 31.377800,8.9036800 34.582000,8.1302600 39.111900,9.3456100 C 42.868400,10.229500 76.676900,19.068400 78.665600,20.836100 C 80.654400,22.603900 82.201200,24.040200 80.654400,27.907200 C 79.549600,29.895900 66.401700,74.532000 66.180800,77.404700 C 65.296900,80.498300 62.755800,84.254800 58.557300,84.033800 C 54.358900,83.812800 15.909900,75.415900 12.816300,74.753000 z "
       id="path630"
       sodipodi:nodetypes="ccccccccc"
       transform="matrix(0.489448,0.000000,0.000000,0.489448,-63.60940,-23.71536)" />
    <path
       style="fill:#ffffff;fill-opacity:1.0000000;fill-rule:evenodd;stroke:none;stroke-width:1.0000000pt;stroke-linecap:butt;stroke-linejoin:miter;stroke-opacity:1.0000000"
       d="M 17.898700,70.996500 C 15.357600,70.333600 11.711400,69.670600 13.037300,65.693200 C 15.468000,55.970500 27.842400,18.626400 33.145600,13.986000 C 34.361000,12.881100 38.448900,12.439200 46.182900,14.869900 C 55.021800,17.521500 72.920400,23.487700 74.688200,24.371600 C 76.455900,25.255500 77.118900,25.255500 75.793000,29.233000 C 73.804300,33.210500 64.965500,67.240000 62.755700,72.985200 C 61.209000,77.073200 60.877500,78.951400 58.225800,78.951400"
       id="path631"
       sodipodi:nodetypes="cccccccs"
       transform="matrix(0.489448,0.000000,0.000000,0.489448,-63.60940,-23.71536)" />
    <path
       style="fill:url(#linearGradient1172);fill-opacity:1.0000000;fill-rule:evenodd;stroke:none;stroke-width:1.0000000pt;stroke-linecap:butt;stroke-linejoin:miter;stroke-opacity:1.0000000"
       d="M 28.750000,13.750000 C 28.750000,13.750000 31.875000,7.4999500 39.687500,9.3749500 C 47.500000,11.250000 78.125000,19.375000 77.812500,21.875000 C 77.500000,24.375000 71.875000,39.062500 71.562500,40.312500 C 71.250000,41.562500 42.500000,40.937500 31.562500,47.500000 C 20.625000,54.062500 12.500000,59.687500 12.500000,59.687500 C 12.500000,59.687500 23.750000,24.687500 28.750000,13.750000 z "
       id="path632"
       transform="matrix(0.415641,0.000000,0.000000,0.415641,-60.23700,-19.82130)" />
  </g>
  <g
     id="g1173"
     transform="matrix(0.794965,0.000000,0.000000,0.794965,13.27195,13.38913)">
    <path
       d="M 55.953640,40.727803 C 55.953640,49.452463 48.880910,56.525183 40.156260,56.525183 C 31.431620,56.525183 24.358880,49.452463 24.358880,40.727803 C 24.358880,32.003143 31.431620,24.930423 40.156260,24.930423 C 48.880910,24.930423 55.953640,32.003143 55.953640,40.727803 z "
       style="font-size:12.000000;fill:#001500;fill-rule:evenodd"
       id="path749" />
    <path
       d="M 53.946820,40.727803 C 53.946820,48.344123 47.772590,54.518383 40.156260,54.518383 C 32.539930,54.518383 26.365680,48.344123 26.365680,40.727803 C 26.365680,33.111473 32.539930,26.937223 40.156260,26.937223 C 47.772590,26.937223 53.946820,33.111473 53.946820,40.727803 z "
       style="font-size:12.000000;fill:#ff1500;fill-rule:evenodd"
       id="path750" />
    <path
       d="M 35.481390,31.040003 C 34.801460,30.372363 32.638870,32.107423 31.984470,32.800113 C 31.330080,33.492803 29.778050,35.689493 30.477160,36.337033 L 35.359440,40.859163 L 30.671870,45.847853 C 30.019340,46.542313 31.684950,48.530223 32.377640,49.184623 C 33.070320,49.839023 35.045920,51.291033 35.697250,50.595453 L 40.446140,45.523943 L 45.177390,50.121883 C 45.860770,50.785983 48.215470,49.444823 48.869870,48.752133 C 49.524260,48.059443 50.721220,45.858923 50.033660,45.199133 L 44.913970,40.286333 L 49.492150,35.231573 C 50.131830,34.525283 49.057560,32.916363 48.364870,32.261973 C 47.672180,31.607573 45.510710,30.364953 44.853080,31.054563 L 40.328340,35.799283 L 35.481390,31.040003 z "
       style="font-size:12.000000;fill:#001500;fill-rule:evenodd;stroke:#0d3d07;stroke-width:0.37993601"
       id="path584" />
    <path
       d="M 35.148550,32.356683 C 34.688070,31.923183 33.089730,32.974253 32.655420,33.433963 C 32.221110,33.893683 31.256120,35.338273 31.715470,35.772963 L 36.984680,40.759243 L 31.671430,46.401193 C 31.237850,46.861603 32.263870,48.160113 32.723590,48.594413 C 33.183320,49.028723 34.597270,50.138143 35.030380,49.677293 L 40.350270,44.016433 L 45.730720,49.013483 C 46.194130,49.443883 47.690070,48.507563 48.124360,48.047853 C 48.558670,47.588123 49.351410,45.992943 48.898160,45.551883 L 43.486050,40.285603 L 48.597930,34.989383 C 49.037140,34.534343 48.043700,33.298853 47.583980,32.864543 C 47.124270,32.430233 45.748910,31.531153 45.299320,31.975923 L 40.152750,37.067413 L 35.148550,32.356683 z "
       style="font-size:12.000000;fill:#ffffff;fill-rule:evenodd;stroke-width:0.83871001"
       id="path589" />
    <path
       d="M 31.278860,30.835763 C 31.278860,30.835763 40.368460,22.926623 48.867840,30.717713 C 39.542140,26.113893 37.181200,28.474823 31.278860,30.835763 z "
       style="font-size:12.000000;fill:#ffd100;fill-rule:evenodd;stroke-width:1.0000000"
       id="path751" />
    <path
       d="M 49.340020,50.422533 C 48.041510,52.429343 38.361660,57.741453 30.806660,50.540583 C 40.132360,53.727853 43.201580,52.075193 49.340020,50.422533 z "
       style="font-size:12.000000;fill:#830000;fill-rule:evenodd;stroke-width:1.0000000"
       id="path752" />
  </g>
</svg>
