<?xml version="1.0" encoding="UTF-8" standalone="no"?>
<!DOCTYPE svg PUBLIC "-//W3C//DTD SVG 20010904//EN"
"http://www.w3.org/TR/2001/REC-SVG-20010904/DTD/svg10.dtd">
<!-- Created with Sodipodi ("http://www.sodipodi.com/") -->
<svg
   version="1.0"
   x="0"
   y="0"
   width="60"
   height="60"
   id="svg548"
   xmlns="http://www.w3.org/2000/svg"
   xmlns:xlink="http://www.w3.org/1999/xlink"
   xmlns:sodipodi="http://sodipodi.sourceforge.net/DTD/sodipodi-0.dtd"
   xmlns:inkscape="http://www.inkscape.org/namespaces/inkscape"
   sodipodi:version="0.32"
   inkscape:version="0.40"
   xmlns:rdf="http://www.w3.org/1999/02/22-rdf-syntax-ns#"
   xmlns:cc="http://web.resource.org/cc/"
   xmlns:dc="http://purl.org/dc/elements/1.1/"
   sodipodi:docname="emblem-cvs-modified.svg"
   sodipodi:docbase="/home/zeus/.icons/gartoon/scalable/emblems">
  <metadata
     id="metadata14">
    <rdf:RDF
       id="RDF15">
      <cc:Work
         rdf:about=""
         id="Work16">
        <dc:format
           id="format17">image/svg+xml</dc:format>
        <dc:type
           id="type19"
           rdf:resource="http://purl.org/dc/dcmitype/StillImage" />
      </cc:Work>
    </rdf:RDF>
  </metadata>
  <sodipodi:namedview
     id="base"
     pagecolor="#ffffff"
     bordercolor="#666666"
     borderopacity="1.0"
     inkscape:pageopacity="0.0"
     inkscape:pageshadow="2"
     inkscape:zoom="1.2279853"
     inkscape:cx="93.980431"
     inkscape:cy="63.256590"
     inkscape:window-width="640"
     inkscape:window-height="537"
     inkscape:window-x="350"
     inkscape:window-y="44"
     inkscape:current-layer="svg548" />
  <defs
     id="defs550">
    <linearGradient
       x1="0"
       y1="0"
       x2="1"
       y2="0"
       id="linearGradient556"
       gradientUnits="objectBoundingBox"
       spreadMethod="pad">
      <stop
         style="stop-color:#ff8700;stop-opacity:1;"
         offset="0"
         id="stop557" />
      <stop
         style="stop-color:#ffff8d;stop-opacity:0;"
         offset="1"
         id="stop558" />
    </linearGradient>
    <linearGradient
       x1="0"
       y1="0"
       x2="1"
       y2="0"
       id="linearGradient559"
       xlink:href="#linearGradient556"
       gradientUnits="objectBoundingBox"
       spreadMethod="pad" />
    <defs
       id="defs606">
      <linearGradient
         id="linearGradient612">
        <stop
           style="stop-color:#7fa8e3;stop-opacity:0.741176;"
           offset="0.000000"
           id="stop613" />
        <stop
           style="stop-color:#ffffff;stop-opacity:0;"
           offset="1.000000"
           id="stop614" />
      </linearGradient>
      <linearGradient
         xlink:href="#linearGradient612"
         id="linearGradient615"
         x1="50.643887"
         y1="5.3679295"
         x2="35.752094"
         y2="68.044357"
         gradientUnits="userSpaceOnUse"
         spreadMethod="pad" />
    </defs>
    <sodipodi:namedview
       id="namedview1076" />
    <linearGradient
       inkscape:collect="always"
       xlink:href="#linearGradient612"
       id="linearGradient1172"
       gradientUnits="userSpaceOnUse"
       spreadMethod="pad"
       x1="50.6438866"
       y1="5.36792946"
       x2="35.7520943"
       y2="68.0443573" />
    <defs
       id="defs3">
      <sodipodi:namedview
         id="namedview909" />
      <defs
         id="defs1201">
        <linearGradient
           x1="0.0000000"
           y1="0.0000000"
           x2="1.0000000"
           y2="0.0000000"
           id="linearGradient632"
           gradientUnits="objectBoundingBox"
           spreadMethod="pad">
          <stop
             style="stop-color:#ffb700;stop-opacity:1;"
             offset="0.000000"
             id="stop633" />
          <stop
             style="stop-color:#ffd58f;stop-opacity:0;"
             offset="1.000000"
             id="stop634" />
        </linearGradient>
        <linearGradient
           x1="0.0000000"
           y1="0.0000000"
           x2="1.0000000"
           y2="0.0000000"
           id="linearGradient1205"
           gradientUnits="objectBoundingBox"
           spreadMethod="pad">
          <stop
             style="stop-color:#000000;stop-opacity:1;"
             offset="0.000000"
             id="stop1206" />
          <stop
             style="stop-color:#bdf2ff;stop-opacity:0.384314;"
             offset="1.000000"
             id="stop1207" />
        </linearGradient>
        <linearGradient
           id="linearGradient1208"
           xlink:href="#linearGradient632"
           x1="60.644615"
           y1="19.295689"
           x2="35.370575"
           y2="69.142799"
           gradientUnits="userSpaceOnUse"
           spreadMethod="pad" />
        <linearGradient
           xlink:href="#linearGradient632"
           id="linearGradient631"
           x1="85.637657"
           y1="17.443844"
           x2="73.916298"
           y2="54.628181"
           gradientUnits="userSpaceOnUse"
           spreadMethod="pad"
           gradientTransform="scale(0.740666,1.350136)" />
      </defs>
    </defs>
    <sodipodi:namedview
       id="namedview1210"
       pagecolor="#ffffff"
       bordercolor="#666666"
       borderopacity="1.0"
       inkscape:pageopacity="0.0"
       inkscape:pageshadow="2"
       inkscape:zoom="2.4559706"
       inkscape:cx="113.94414"
       inkscape:cy="73.007956"
       inkscape:window-width="812"
       inkscape:window-height="560"
       inkscape:window-x="103"
       inkscape:window-y="56" />
    <metadata
       id="metadata4">
      <rdf:RDF
         id="RDF5">
        <cc:Work
           rdf:about=""
           id="Work6">
          <dc:format
             id="format7">image/svg+xml</dc:format>
          <dc:type
             id="type9"
             rdf:resource="http://purl.org/dc/dcmitype/StillImage" />
        </cc:Work>
      </rdf:RDF>
    </metadata>
    <defs
       id="defs1973">
      <linearGradient
         id="linearGradient1974">
        <stop
           style="stop-color:#7fa8e3;stop-opacity:0.741176;"
           offset="0.000000"
           id="stop1975" />
        <stop
           style="stop-color:#ffffff;stop-opacity:0;"
           offset="1.000000"
           id="stop1976" />
      </linearGradient>
      <linearGradient
         xlink:href="#linearGradient612"
         id="linearGradient1977"
         x1="50.643887"
         y1="5.3679295"
         x2="35.752094"
         y2="68.044357"
         gradientUnits="userSpaceOnUse"
         spreadMethod="pad" />
    </defs>
    <sodipodi:namedview
       id="namedview1978" />
  </defs>
  <g
     id="g1167"
     transform="translate(80.97564,38.86830)">
    <path
       style="fill:#000000;fill-opacity:0.30147097;fill-rule:evenodd;stroke:none;stroke-width:1.0000000pt;stroke-linecap:butt;stroke-linejoin:miter;stroke-opacity:1.0000000"
       d="M -55.000937,15.503983 C -56.190638,14.963192 -57.812925,13.232750 -56.947698,10.853348 C -56.515110,8.2577063 -48.728028,-14.670913 -46.997537,-15.752445 C -45.916054,-16.725818 -44.347767,-17.104370 -42.130618,-16.509519 C -40.292002,-16.076898 -23.744509,-11.750716 -22.771141,-10.885521 C -21.797729,-10.020273 -21.040649,-9.3172831 -21.797729,-7.4245872 C -22.338470,-6.4512241 -28.773681,15.395814 -28.881801,16.801853 C -29.314423,18.316007 -30.558159,20.154618 -32.613103,20.046449 C -34.668004,19.938280 -53.486783,15.828436 -55.000937,15.503983 z "
       id="path794"
       sodipodi:nodetypes="ccccccccc" />
    <path
       style="fill:#3d4e67;fill-opacity:1.0000000;fill-rule:evenodd;stroke:none;stroke-width:1.0000000pt;stroke-linecap:butt;stroke-linejoin:miter;stroke-opacity:1.0000000"
       d="M 12.816300,74.753000 C 10.385600,73.648100 7.0710700,70.112600 8.8388400,65.251200 C 9.7226700,59.948000 25.632600,13.102100 29.168200,10.892400 C 31.377800,8.9036800 34.582000,8.1302600 39.111900,9.3456100 C 42.868400,10.229500 76.676900,19.068400 78.665600,20.836100 C 80.654400,22.603900 82.201200,24.040200 80.654400,27.907200 C 79.549600,29.895900 66.401700,74.532000 66.180800,77.404700 C 65.296900,80.498300 62.755800,84.254800 58.557300,84.033800 C 54.358900,83.812800 15.909900,75.415900 12.816300,74.753000 z "
       id="path630"
       sodipodi:nodetypes="ccccccccc"
       transform="matrix(0.489448,0.000000,0.000000,0.489448,-63.60940,-23.71536)" />
    <path
       style="fill:#ffffff;fill-opacity:1.0000000;fill-rule:evenodd;stroke:none;stroke-width:1.0000000pt;stroke-linecap:butt;stroke-linejoin:miter;stroke-opacity:1.0000000"
       d="M 17.898700,70.996500 C 15.357600,70.333600 11.711400,69.670600 13.037300,65.693200 C 15.468000,55.970500 27.842400,18.626400 33.145600,13.986000 C 34.361000,12.881100 38.448900,12.439200 46.182900,14.869900 C 55.021800,17.521500 72.920400,23.487700 74.688200,24.371600 C 76.455900,25.255500 77.118900,25.255500 75.793000,29.233000 C 73.804300,33.210500 64.965500,67.240000 62.755700,72.985200 C 61.209000,77.073200 60.877500,78.951400 58.225800,78.951400"
       id="path631"
       sodipodi:nodetypes="cccccccs"
       transform="matrix(0.489448,0.000000,0.000000,0.489448,-63.60940,-23.71536)" />
    <path
       style="fill:url(#linearGradient1172);fill-opacity:1.0000000;fill-rule:evenodd;stroke:none;stroke-width:1.0000000pt;stroke-linecap:butt;stroke-linejoin:miter;stroke-opacity:1.0000000"
       d="M 28.750000,13.750000 C 28.750000,13.750000 31.875000,7.4999500 39.687500,9.3749500 C 47.500000,11.250000 78.125000,19.375000 77.812500,21.875000 C 77.500000,24.375000 71.875000,39.062500 71.562500,40.312500 C 71.250000,41.562500 42.500000,40.937500 31.562500,47.500000 C 20.625000,54.062500 12.500000,59.687500 12.500000,59.687500 C 12.500000,59.687500 23.750000,24.687500 28.750000,13.750000 z "
       id="path632"
       transform="matrix(0.415641,0.000000,0.000000,0.415641,-60.23700,-19.82130)" />
  </g>
  <path
     style="fill:#ed0000;fill-opacity:1.0000000;fill-rule:evenodd;stroke:#b01911;stroke-width:1.8125000;stroke-linecap:round;stroke-linejoin:round;stroke-miterlimit:4.0000000;stroke-opacity:1.0000000"
     d="M 30.457992,43.756823 C 30.457992,43.756823 30.203510,39.430631 32.493847,39.939595 C 34.784184,40.448558 37.583485,47.065087 37.583485,47.065087 C 37.583485,47.065087 51.834470,35.104439 54.888252,34.340993 C 57.942035,33.577548 57.942035,33.577548 57.942035,33.577548 C 57.942035,33.577548 45.981387,44.265787 44.200014,47.828533 C 42.418640,51.391279 41.146231,55.717471 38.346930,54.445062 C 35.547630,53.172652 30.457992,43.756823 30.457992,43.756823 z "
     id="path2096" />
</svg>
