<?xml version="1.0" encoding="UTF-8" standalone="no"?>
<!DOCTYPE svg PUBLIC "-//W3C//DTD SVG 20010904//EN"
"http://www.w3.org/TR/2001/REC-SVG-20010904/DTD/svg10.dtd">
<!-- Created with Inkscape (http://www.inkscape.org/) -->
<svg
   width="72.000000pt"
   height="72.000000pt"
   xmlns="http://www.w3.org/2000/svg"
   xmlns:cc="http://web.resource.org/cc/"
   xmlns:inkscape="http://www.inkscape.org/namespaces/inkscape"
   xmlns:sodipodi="http://sodipodi.sourceforge.net/DTD/sodipodi-0.dtd"
   xmlns:rdf="http://www.w3.org/1999/02/22-rdf-syntax-ns#"
   xmlns:dc="http://purl.org/dc/elements/1.1/"
   xmlns:xlink="http://www.w3.org/1999/xlink"
   id="svg2448"
   sodipodi:version="0.32"
   inkscape:version="0.40"
   sodipodi:docbase="/home/zeus/.icons/gartoon/scalable/apps"
   sodipodi:docname="gdict.svg">
  <defs
     id="defs3">
    <linearGradient
       id="linearGradient2718">
      <stop
         offset="0.0000000"
         style="stop-color:#ffffff;stop-opacity:1.0000000;"
         id="stop2720" />
      <stop
         offset="1.0000000"
         style="stop-color:#b6ecff;stop-opacity:1.0000000;"
         id="stop2719" />
    </linearGradient>
    <linearGradient
       inkscape:collect="always"
       id="linearGradient2617">
      <stop
         style="stop-color:#000000;stop-opacity:1;"
         offset="0"
         id="stop2618" />
      <stop
         style="stop-color:#000000;stop-opacity:0;"
         offset="1"
         id="stop2619" />
    </linearGradient>
    <linearGradient
       id="linearGradient2612">
      <stop
         offset="0.0000000"
         style="stop-color:#fdfdfd;stop-opacity:0.45360824;"
         id="stop2613" />
      <stop
         offset="1.0000000"
         style="stop-color:#ffffff;stop-opacity:0.0000000;"
         id="stop2614" />
    </linearGradient>
    <linearGradient
       id="linearGradient2604">
      <stop
         offset="0.0000000"
         style="stop-color:#a9e2f5;stop-opacity:1.0000000;"
         id="stop2605" />
      <stop
         offset="1.0000000"
         style="stop-color:#bdf2ff;stop-opacity:0.20784314;"
         id="stop2606" />
    </linearGradient>
    <linearGradient
       id="linearGradient2601">
      <stop
         style="stop-color:#000000;stop-opacity:1.0000000;"
         offset="0.0000000"
         id="stop2602" />
      <stop
         style="stop-color:#383e49;stop-opacity:0.0000000;"
         offset="1.0000000"
         id="stop2603" />
    </linearGradient>
    <linearGradient
       id="linearGradient2597">
      <stop
         style="stop-color:#000000;stop-opacity:1.0000000;"
         offset="0.0000000"
         id="stop2598" />
      <stop
         style="stop-color:#383e49;stop-opacity:0;"
         offset="1"
         id="stop2599" />
    </linearGradient>
    <linearGradient
       id="linearGradient2594">
      <stop
         offset="0.0000000"
         style="stop-color:#000000;stop-opacity:1.0000000;"
         id="stop2596" />
      <stop
         offset="1.0000000"
         style="stop-color:#bdf2ff;stop-opacity:0.38431400;"
         id="stop2595" />
    </linearGradient>
    <defs
       id="defs2461">
      <sodipodi:namedview
         id="namedview909" />
      <defs
         id="defs550">
        <linearGradient
           x1="0.0000000"
           y1="0.0000000"
           x2="1.0000000"
           y2="0.0000000"
           id="linearGradient632"
           gradientUnits="objectBoundingBox"
           spreadMethod="pad">
          <stop
             style="stop-color:#ffb700;stop-opacity:1;"
             offset="0.000000"
             id="stop633" />
          <stop
             style="stop-color:#ffd58f;stop-opacity:0;"
             offset="1.000000"
             id="stop634" />
        </linearGradient>
        <linearGradient
           x1="0.0000000"
           y1="0.0000000"
           x2="1.0000000"
           y2="0.0000000"
           id="linearGradient556"
           gradientUnits="objectBoundingBox"
           spreadMethod="pad"
           xlink:href="#linearGradient2594" />
        <linearGradient
           id="linearGradient559"
           xlink:href="#linearGradient632"
           x1="60.644615"
           y1="19.295689"
           x2="35.370575"
           y2="69.142799"
           gradientUnits="userSpaceOnUse"
           spreadMethod="pad" />
        <linearGradient
           xlink:href="#linearGradient632"
           id="linearGradient631"
           x1="85.637657"
           y1="17.443844"
           x2="73.916298"
           y2="54.628181"
           gradientUnits="userSpaceOnUse"
           spreadMethod="pad"
           gradientTransform="scale(0.740666,1.350136)" />
      </defs>
    </defs>
    <sodipodi:namedview
       id="namedview2472"
       pagecolor="#ffffff"
       bordercolor="#666666"
       borderopacity="1.0"
       inkscape:pageopacity="0.0"
       inkscape:pageshadow="2"
       inkscape:zoom="2.4559706"
       inkscape:cx="113.94414"
       inkscape:cy="73.007956"
       inkscape:window-width="812"
       inkscape:window-height="560"
       inkscape:window-x="103"
       inkscape:window-y="56" />
    <metadata
       id="metadata2473">
      <rdf:RDF
         id="RDF2474">
        <cc:Work
           rdf:about=""
           id="Work2475">
          <dc:format
             id="format2476">image/svg+xml</dc:format>
          <dc:type
             id="type2478"
             rdf:resource="http://purl.org/dc/dcmitype/StillImage" />
        </cc:Work>
      </rdf:RDF>
    </metadata>
    <linearGradient
       inkscape:collect="always"
       xlink:href="#linearGradient2604"
       id="linearGradient2593"
       gradientTransform="matrix(1.354006,0.000000,0.000000,0.738549,3.750000,0.625000)"
       x1="28.244335"
       y1="96.643951"
       x2="48.778095"
       y2="83.488678"
       gradientUnits="userSpaceOnUse" />
    <linearGradient
       inkscape:collect="always"
       xlink:href="#linearGradient2601"
       id="linearGradient2600"
       gradientTransform="matrix(1.255564,0.000000,0.000000,0.796455,3.437500,0.312500)"
       x1="31.482431"
       y1="80.160988"
       x2="62.873707"
       y2="80.160988"
       gradientUnits="userSpaceOnUse" />
    <linearGradient
       inkscape:collect="always"
       xlink:href="#linearGradient2612"
       id="linearGradient2611"
       gradientTransform="matrix(1.374715,0.000000,0.000000,0.727423,3.750000,0.625000)"
       x1="56.875603"
       y1="52.044476"
       x2="49.251457"
       y2="72.658920"
       gradientUnits="userSpaceOnUse" />
    <linearGradient
       inkscape:collect="always"
       xlink:href="#linearGradient2617"
       id="linearGradient2620"
       gradientTransform="matrix(1.177037,0.000000,0.000000,0.849591,3.750000,0.625000)"
       x1="37.093960"
       y1="57.932289"
       x2="24.468754"
       y2="86.898430"
       gradientUnits="userSpaceOnUse"
       spreadMethod="reflect" />
    <linearGradient
       inkscape:collect="always"
       xlink:href="#linearGradient2232"
       id="linearGradient2672"
       gradientUnits="userSpaceOnUse"
       gradientTransform="matrix(1.265567,0.000000,0.000000,1.076422,-2.312426,-3.241730)"
       x1="3.2158668"
       y1="4.1607237"
       x2="18.154388"
       y2="16.156063" />
    <linearGradient
       inkscape:collect="always"
       xlink:href="#linearGradient2240"
       id="linearGradient2673"
       gradientUnits="userSpaceOnUse"
       gradientTransform="matrix(0.395079,-0.446623,1.835427,1.360379,-1.218205,-2.147509)"
       x1="-5.9833484"
       y1="2.5174093"
       x2="-5.7179537"
       y2="8.0350389" />
    <linearGradient
       inkscape:collect="always"
       xlink:href="#linearGradient2240"
       id="linearGradient2674"
       gradientUnits="userSpaceOnUse"
       gradientTransform="matrix(-0.207950,-0.401572,2.545517,-1.610924,-1.218205,-2.147509)"
       x1="-41.563278"
       y1="-3.5996187"
       x2="-42.266258"
       y2="1.7899539" />
    <linearGradient
       inkscape:collect="always"
       xlink:href="#linearGradient2240"
       id="linearGradient2675"
       gradientUnits="userSpaceOnUse"
       gradientTransform="matrix(0.433534,0.000000,0.000000,3.142272,-1.218205,-2.147509)"
       x1="23.552536"
       y1="1.5308467"
       x2="43.742329"
       y2="5.8121576" />
    <linearGradient
       inkscape:collect="always"
       xlink:href="#linearGradient2240"
       id="linearGradient2676"
       gradientUnits="userSpaceOnUse"
       gradientTransform="matrix(2.986147,0.000000,0.000000,0.456200,-1.218205,-2.147509)"
       x1="0.77897149"
       y1="28.688553"
       x2="8.8372555"
       y2="28.688553" />
    <linearGradient
       inkscape:collect="always"
       xlink:href="#linearGradient2266"
       id="linearGradient2677"
       gradientUnits="userSpaceOnUse"
       gradientTransform="matrix(1.865468,0.000000,0.000000,0.849385,-11.02126,-9.741309)"
       x1="12.264884"
       y1="38.241474"
       x2="26.134735"
       y2="38.241474" />
    <linearGradient
       inkscape:collect="always"
       xlink:href="#linearGradient2269"
       id="linearGradient2678"
       gradientUnits="userSpaceOnUse"
       gradientTransform="matrix(1.831791,0.000000,0.000000,0.865002,-11.02126,-9.741309)"
       x1="17.767797"
       y1="49.007622"
       x2="26.615227"
       y2="49.117954" />
    <defs
       id="defs2626">
      <linearGradient
         id="linearGradient2269"
         x1="0.0000000"
         y1="0.50000000"
         x2="1.0000000"
         y2="0.50000000"
         gradientUnits="objectBoundingBox"
         spreadMethod="pad"
         xlink:href="#linearGradient2718" />
      <linearGradient
         id="linearGradient2266">
        <stop
           style="stop-color:#f37160;stop-opacity:1.0000000;"
           offset="0.0000000"
           id="stop2267" />
        <stop
           style="stop-color:#ff0000;stop-opacity:1.0000000;"
           offset="1.0000000"
           id="stop2268" />
      </linearGradient>
      <linearGradient
         id="linearGradient2240">
        <stop
           style="stop-color:#f39d60;stop-opacity:1.0000000;"
           offset="0.0000000"
           id="stop2241" />
        <stop
           style="stop-color:#ff0000;stop-opacity:1.0000000;"
           offset="1.0000000"
           id="stop2242" />
      </linearGradient>
      <linearGradient
         id="linearGradient2232">
        <stop
           style="stop-color:#8db3ff;stop-opacity:1.0000000;"
           offset="0.0000000"
           id="stop2233" />
        <stop
           style="stop-color:#0d5eff;stop-opacity:1.0000000;"
           offset="1.0000000"
           id="stop2234" />
      </linearGradient>
    </defs>
    <sodipodi:namedview
       id="namedview2646"
       pagecolor="#ffffff"
       bordercolor="#235866"
       borderopacity="1.0000000"
       inkscape:pageopacity="1.0"
       inkscape:pageshadow="0"
       inkscape:zoom="1.00000000"
       inkscape:cx="76.938629"
       inkscape:cy="82.756348"
       inkscape:current-layer="svg1520"
       inkscape:window-width="1117"
       inkscape:window-height="798"
       inkscape:window-x="0"
       inkscape:window-y="25" />
    <metadata
       id="metadata2647">
      <rdf:RDF
         id="RDF2648">
        <cc:Work
           rdf:about=""
           id="Work2649">
          <dc:format
             id="format2650">image/svg+xml</dc:format>
          <dc:type
             id="type2652"
             rdf:resource="http://purl.org/dc/dcmitype/StillImage" />
        </cc:Work>
      </rdf:RDF>
    </metadata>
    <linearGradient
       inkscape:collect="always"
       xlink:href="#linearGradient2718"
       id="linearGradient2721"
       gradientUnits="userSpaceOnUse"
       gradientTransform="matrix(1.831791,0.000000,0.000000,0.865002,61.01524,-32.28034)"
       x1="17.767797"
       y1="49.007622"
       x2="26.615227"
       y2="49.117954" />
    <linearGradient
       inkscape:collect="always"
       xlink:href="#linearGradient2266"
       id="linearGradient2722"
       gradientUnits="userSpaceOnUse"
       gradientTransform="matrix(1.865468,0.000000,0.000000,0.849385,61.01524,-32.28034)"
       x1="12.264884"
       y1="38.241474"
       x2="26.134735"
       y2="38.241474" />
    <linearGradient
       inkscape:collect="always"
       xlink:href="#linearGradient2232"
       id="linearGradient2738"
       gradientUnits="userSpaceOnUse"
       gradientTransform="matrix(1.265567,0.000000,0.000000,1.076422,-2.312426,-3.241730)"
       x1="3.2158668"
       y1="4.1607237"
       x2="18.154388"
       y2="16.156063" />
    <linearGradient
       inkscape:collect="always"
       xlink:href="#linearGradient2240"
       id="linearGradient2739"
       gradientUnits="userSpaceOnUse"
       gradientTransform="matrix(0.395079,-0.446623,1.835427,1.360379,-1.218205,-2.147509)"
       x1="-5.9833484"
       y1="2.5174093"
       x2="-5.7179537"
       y2="8.0350389" />
    <linearGradient
       inkscape:collect="always"
       xlink:href="#linearGradient2240"
       id="linearGradient2740"
       gradientUnits="userSpaceOnUse"
       gradientTransform="matrix(-0.207950,-0.401572,2.545517,-1.610924,-1.218205,-2.147509)"
       x1="-41.563278"
       y1="-3.5996187"
       x2="-42.266258"
       y2="1.7899539" />
    <linearGradient
       inkscape:collect="always"
       xlink:href="#linearGradient2240"
       id="linearGradient2741"
       gradientUnits="userSpaceOnUse"
       gradientTransform="matrix(0.433534,0.000000,0.000000,3.142272,-1.218205,-2.147509)"
       x1="23.552536"
       y1="1.5308467"
       x2="43.742329"
       y2="5.8121576" />
    <linearGradient
       inkscape:collect="always"
       xlink:href="#linearGradient2240"
       id="linearGradient2742"
       gradientUnits="userSpaceOnUse"
       gradientTransform="matrix(2.986147,0.000000,0.000000,0.456200,-1.218205,-2.147509)"
       x1="0.77897149"
       y1="28.688553"
       x2="8.8372555"
       y2="28.688553" />
  </defs>
  <sodipodi:namedview
     id="base"
     pagecolor="#ffffff"
     bordercolor="#666666"
     borderopacity="1.0"
     inkscape:pageopacity="0.0"
     inkscape:pageshadow="2"
     inkscape:zoom="1.0000000"
     inkscape:cx="56.962006"
     inkscape:cy="21.001083"
     inkscape:current-layer="svg2448"
     inkscape:window-width="748"
     inkscape:window-height="536"
     inkscape:window-x="232"
     inkscape:window-y="52" />
  <metadata
     id="metadata4">
    <rdf:RDF
       id="RDF5">
      <cc:Work
         rdf:about=""
         id="Work6">
        <dc:format
           id="format7">image/svg+xml</dc:format>
        <dc:type
           id="type9"
           rdf:resource="http://purl.org/dc/dcmitype/StillImage" />
      </cc:Work>
    </rdf:RDF>
  </metadata>
  <path
     style="fill:#000000;fill-opacity:0.39215687;fill-rule:evenodd;stroke:none;stroke-width:7.5000000;stroke-linecap:butt;stroke-linejoin:miter;stroke-miterlimit:4.0000000;stroke-opacity:1.0000000"
     d="M 86.886454,61.435145 C 86.886454,61.435145 53.706830,70.974317 52.277885,71.293581 C 48.070296,72.967365 47.641251,78.123714 51.206177,79.594433 C 59.065373,77.678852 82.534609,71.632211 82.534609,71.632211 L 82.642960,68.100945 C 82.642960,68.100945 88.607624,68.213822 89.322096,71.087194 C 90.036568,73.960565 88.715974,74.486216 86.929794,75.444007 C 85.143613,76.401798 51.188225,85.189567 47.128607,84.570407 C 45.342426,83.612615 3.6937668,66.185365 3.6937668,66.185365 C 3.6937668,66.185365 -3.4509565,55.011140 6.9088913,51.499241 C 17.268741,47.987342 40.846328,42.879126 40.846328,42.879126 C 40.846328,42.879126 43.346981,42.879126 45.847635,43.836916 C 48.348287,44.794708 85.500850,57.565249 86.929794,59.161566 C 88.358739,60.757885 86.886454,61.435145 86.886454,61.435145 z "
     id="path2743"
     sodipodi:nodetypes="cccccccccccccc" />
  <path
     style="fill:none;fill-opacity:1.0000000;fill-rule:evenodd;stroke:#000000;stroke-width:7.5000000;stroke-linecap:butt;stroke-linejoin:miter;stroke-miterlimit:4.0000000;stroke-opacity:1.0000000"
     d="M 80.587087,54.412913 C 80.587087,54.412913 51.562500,63.750000 50.312500,64.062500 C 46.631820,65.700825 46.256505,70.747937 49.375000,72.187500 C 56.250000,70.312500 76.780218,64.393956 76.780218,64.393956 L 76.875000,60.937500 C 76.875000,60.937500 82.092718,61.047985 82.717718,63.860485 C 83.342718,66.672985 82.187500,67.187500 80.625000,68.125000 C 79.062500,69.062500 49.359296,77.664102 45.808058,77.058058 C 44.245558,76.120558 7.8125000,59.062500 7.8125000,59.062500 C 7.8125000,59.062500 1.5625000,48.125000 10.625000,44.687500 C 19.687500,41.250000 40.312500,36.250000 40.312500,36.250000 C 40.312500,36.250000 42.500000,36.250000 44.687500,37.187500 C 46.875000,38.125000 79.375000,50.625000 80.625000,52.187500 C 81.875000,53.750000 80.587087,54.412913 80.587087,54.412913 z "
     id="path2615"
     sodipodi:nodetypes="cccccccccccccc" />
  <g
     inkscape:label="Layer 1"
     inkscape:groupmode="layer"
     id="layer1" />
  <path
     style="fill:#ffffff;fill-opacity:1.0000000;fill-rule:evenodd;stroke:none;stroke-width:0.25000000pt;stroke-linecap:butt;stroke-linejoin:miter;stroke-opacity:1.0000000"
     d="M 76.891358,54.164807 L 76.891358,64.550437 L 46.397378,72.726360 L 42.861844,62.561700 L 55.678154,55.932574 L 76.891358,54.164807 z "
     id="path2585" />
  <path
     style="fill:url(#linearGradient2593);fill-opacity:1.0000000;fill-rule:evenodd;stroke:none;stroke-width:0.25000000pt;stroke-linecap:butt;stroke-linejoin:miter;stroke-opacity:1.0000000"
     d="M 76.891358,54.164807 L 76.891358,64.550437 L 46.397378,72.726360 L 42.861844,62.561700 L 55.678154,55.932574 L 76.891358,54.164807 z "
     id="path2589" />
  <path
     style="fill:#002f77;fill-opacity:1.0000000;fill-rule:evenodd;stroke:none;stroke-width:0.25000000pt;stroke-linecap:butt;stroke-linejoin:miter;stroke-opacity:1.0000000"
     d="M 80.587087,54.412913 C 80.587087,54.412913 51.562500,63.750000 50.312500,64.062500 C 46.631820,65.700825 46.256505,70.747937 49.375000,72.187500 C 56.250000,70.312500 76.780218,64.393956 76.780218,64.393956 L 76.875000,60.937500 C 76.875000,60.937500 82.092718,61.047985 82.717718,63.860485 C 83.342718,66.672985 82.187500,67.187500 80.625000,68.125000 C 79.062500,69.062500 49.359296,77.664102 45.808058,77.058058 C 44.245558,76.120558 7.8125000,59.062500 7.8125000,59.062500 C 7.8125000,59.062500 1.5625000,48.125000 10.625000,44.687500 C 19.687500,41.250000 40.312500,36.250000 40.312500,36.250000 C 40.312500,36.250000 42.500000,36.250000 44.687500,37.187500 C 46.875000,38.125000 79.375000,50.625000 80.625000,52.187500 C 81.875000,53.750000 80.587087,54.412913 80.587087,54.412913 z "
     id="path2459"
     sodipodi:nodetypes="cccccccccccccc" />
  <path
     style="fill:url(#linearGradient2611);fill-opacity:1.0000000;fill-rule:evenodd;stroke:none;stroke-width:0.25000000pt;stroke-linecap:butt;stroke-linejoin:miter;stroke-opacity:1.0000000"
     d="M 10.625000,44.687500 C 27.812500,40.625000 40.312500,36.250000 40.312500,36.250000 C 40.312500,36.250000 42.500000,36.250000 44.687500,37.187500 C 46.875000,38.125000 79.375000,50.625000 80.625000,52.187500 C 38.437500,37.500000 45.625000,56.562500 10.625000,44.687500 z "
     id="path2607"
     sodipodi:nodetypes="ccccc" />
  <path
     style="fill:url(#linearGradient2600);fill-opacity:1.0000000;fill-rule:evenodd;stroke:none;stroke-width:0.25000000pt;stroke-linecap:butt;stroke-linejoin:miter;stroke-opacity:1.0000000"
     d="M 79.687500,51.656250 C 79.687503,51.656251 47.424017,60.373968 45.214308,62.804648 C 41.457802,66.008725 42.977792,74.625000 45.629442,76.613738 C 48.502065,76.834711 50.500000,76.156250 50.500000,76.156250 L 79.044733,68.321383 C 79.476260,68.058015 82.092720,66.889041 82.379442,66.562500 L 82.281250,63.406250 C 81.808837,62.646552 81.061495,62.804340 81.020146,62.714308 L 66.468750,66.937500 C 59.843967,68.838277 53.428650,70.684232 49.062500,71.875000 C 45.944005,70.435437 46.319320,65.388325 50.000000,63.750000 C 50.055577,63.736106 51.183353,63.360461 51.343750,63.312500 L 51.375000,63.125000 L 55.000000,62.156250 C 62.408281,59.825191 80.281248,54.093749 80.281250,54.093750 C 80.281250,54.093750 80.671089,53.824025 80.781250,53.312500 L 79.687500,51.656250 z "
     id="path2587"
     sodipodi:nodetypes="ccccccccccccccccc" />
  <path
     style="fill:url(#linearGradient2620);fill-opacity:1.0000000;fill-rule:evenodd;stroke:none;stroke-width:0.25000000pt;stroke-linecap:butt;stroke-linejoin:miter;stroke-opacity:1.0000000"
     d="M 7.1875000,47.500000 L 45.312500,62.500000 L 46.250000,73.750000 L 45.937500,77.500000 L 5.6250000,58.750000 L 4.6875000,51.562500 L 7.1875000,47.500000 z "
     id="path2616" />
  <path
     style="font-size:12.000000;font-style:normal;font-variant:normal;font-weight:bold;font-stretch:normal;fill:#ffffff;fill-opacity:1.0000000;stroke:none;stroke-width:1.0000000pt;stroke-linecap:butt;stroke-linejoin:miter;stroke-opacity:1.0000000;font-family:Bitstream Vera Sans;text-anchor:start;writing-mode:lr"
     d="M 17.806154,45.895268 L 21.433696,47.134390 L 22.207275,46.921625 C 23.089225,46.679052 23.606606,46.440992 23.759415,46.207442 C 23.915958,45.972870 23.698241,45.754475 23.106264,45.552260 C 22.516933,45.350956 21.836605,45.261435 21.065272,45.283699 C 20.293935,45.305970 19.465425,45.438904 18.579732,45.682500 L 17.806154,45.895268 M 14.489243,46.093041 L 16.765131,45.467078 C 18.035743,45.117611 19.046265,44.879781 19.796696,44.753585 C 20.548214,44.625463 21.300295,44.552837 22.052948,44.535705 C 22.713453,44.519370 23.314211,44.544839 23.855215,44.612110 C 24.396213,44.679389 24.888373,44.788743 25.331703,44.940172 C 25.780326,45.093421 26.085877,45.256557 26.248356,45.429577 C 26.408167,45.601696 26.425941,45.787509 26.301669,45.987016 C 26.161148,46.215547 25.842014,46.438369 25.344265,46.655479 C 24.843849,46.871685 23.965814,47.152466 22.710157,47.497824 L 20.434268,48.123787 L 14.489243,46.093041 M 24.018826,43.472013 L 26.176995,42.878428 L 32.122020,44.909174 L 29.963849,45.502759 L 24.018826,43.472013 M 40.557110,42.387838 C 40.306976,42.546664 40.004195,42.697875 39.648767,42.841465 C 39.293324,42.985061 38.882040,43.121098 38.414906,43.249578 C 37.020969,43.632967 35.640580,43.842393 34.273734,43.877853 C 32.904232,43.912408 31.745633,43.767824 30.797932,43.444101 C 29.847579,43.119472 29.503666,42.750816 29.766186,42.338130 C 30.026060,41.924544 30.852961,41.526054 32.246895,41.142660 C 32.714030,41.014182 33.199648,40.903536 33.703740,40.810719 C 34.207835,40.717909 34.730947,40.641964 35.273087,40.582881 L 36.503503,41.003176 C 35.909842,41.046964 35.373560,41.106890 34.894648,41.182952 C 34.415732,41.259021 33.961393,41.356156 33.531626,41.474356 C 32.761789,41.686096 32.331584,41.912457 32.241017,42.153437 C 32.150451,42.394421 32.413104,42.620099 33.028978,42.830471 C 33.642191,43.039940 34.344494,43.143878 35.135881,43.142286 C 35.927264,43.140697 36.707879,43.034032 37.477723,42.822293 C 37.907485,42.704091 38.271567,42.576128 38.569971,42.438397 C 38.868366,42.300673 39.120609,42.143720 39.326694,41.967543 L 40.557110,42.387838 M 35.734604,40.249693 L 43.447961,38.128202 L 44.606704,38.524015 L 41.831913,39.287196 L 46.618196,40.922130 L 44.460025,41.515716 L 39.673742,39.880781 L 36.893349,40.645504 L 35.734604,40.249693"
     id="text2621" />
  <g
     inkscape:label="Layer 1"
     inkscape:groupmode="layer"
     id="g2653"
     style="display:block;"
     transform="translate(116.6726,-3.093592)" />
  <g
     inkscape:groupmode="layer"
     id="layer2"
     inkscape:label="layer 2"
     transform="translate(116.6726,-3.093592)" />
</svg>
