<?xml version="1.0" encoding="UTF-8" standalone="no"?>
<!-- Created with Inkscape (http://www.inkscape.org/) -->
<svg
   xmlns:dc="http://purl.org/dc/elements/1.1/"
   xmlns:cc="http://creativecommons.org/ns#"
   xmlns:rdf="http://www.w3.org/1999/02/22-rdf-syntax-ns#"
   xmlns:svg="http://www.w3.org/2000/svg"
   xmlns="http://www.w3.org/2000/svg"
   xmlns:xlink="http://www.w3.org/1999/xlink"
   xmlns:sodipodi="http://sodipodi.sourceforge.net/DTD/sodipodi-0.dtd"
   xmlns:inkscape="http://www.inkscape.org/namespaces/inkscape"
   width="90"
   height="90"
   id="svg2"
   sodipodi:version="0.32"
   inkscape:version="0.46+devel"
   version="1.0"
   sodipodi:docname="anjuta.svg"
   inkscape:output_extension="org.inkscape.output.svg.inkscape">
  <defs
     id="defs4">
    <inkscape:perspective
       sodipodi:type="inkscape:persp3d"
       inkscape:vp_x="0 : 45 : 1"
       inkscape:vp_y="0 : 1000 : 0"
       inkscape:vp_z="90 : 45 : 1"
       inkscape:persp3d-origin="45 : 30 : 1"
       id="perspective44" />
    <linearGradient
       inkscape:collect="always"
       id="linearGradient3468">
      <stop
         style="stop-color:#b01911;stop-opacity:1;"
         offset="0"
         id="stop3470" />
      <stop
         style="stop-color:#593a28;stop-opacity:1"
         offset="1"
         id="stop3472" />
    </linearGradient>
    <linearGradient
       inkscape:collect="always"
       id="linearGradient3460">
      <stop
         style="stop-color:#b01911;stop-opacity:1"
         offset="0"
         id="stop3462" />
      <stop
         style="stop-color:#593a28;stop-opacity:1"
         offset="1"
         id="stop3464" />
    </linearGradient>
    <linearGradient
       inkscape:collect="always"
       id="linearGradient3452">
      <stop
         style="stop-color:#b01911;stop-opacity:1"
         offset="0"
         id="stop3454" />
      <stop
         style="stop-color:#593a28;stop-opacity:1"
         offset="1"
         id="stop3456" />
    </linearGradient>
    <linearGradient
       inkscape:collect="always"
       id="linearGradient3421">
      <stop
         style="stop-color:#ff7068;stop-opacity:1"
         offset="0"
         id="stop3423" />
      <stop
         style="stop-color:#ed0000;stop-opacity:1"
         offset="1"
         id="stop3425" />
    </linearGradient>
    <linearGradient
       inkscape:collect="always"
       id="linearGradient2549">
      <stop
         style="stop-color:#b01911;stop-opacity:1"
         offset="0"
         id="stop2551" />
      <stop
         style="stop-color:#ff7068;stop-opacity:1"
         offset="1"
         id="stop2553" />
    </linearGradient>
    <linearGradient
       inkscape:collect="always"
       xlink:href="#linearGradient2549"
       id="linearGradient2582"
       gradientUnits="userSpaceOnUse"
       x1="30.566521"
       y1="10.503355"
       x2="33.609688"
       y2="16.511402"
       gradientTransform="matrix(1.2366109,0,0,1.2366109,-9.7025951,1.2092597)" />
    <linearGradient
       inkscape:collect="always"
       xlink:href="#linearGradient3421"
       id="linearGradient3448"
       gradientUnits="userSpaceOnUse"
       x1="53.392857"
       y1="51.785713"
       x2="62.142857"
       y2="75"
       gradientTransform="matrix(1.0065995,0,0,1.0065995,1.5209727,-1.1135954)" />
    <linearGradient
       inkscape:collect="always"
       xlink:href="#linearGradient3452"
       id="linearGradient3458"
       x1="68.437836"
       y1="56.159889"
       x2="69.953064"
       y2="50.098976"
       gradientUnits="userSpaceOnUse"
       gradientTransform="matrix(1.0065995,0,0,1.0065995,-0.7668703,-1.6220048)" />
    <linearGradient
       inkscape:collect="always"
       xlink:href="#linearGradient3460"
       id="linearGradient3466"
       x1="42.931484"
       y1="12.72333"
       x2="42.931484"
       y2="21.856039"
       gradientUnits="userSpaceOnUse"
       gradientTransform="matrix(1.0065995,0,0,1.0065995,-0.7668703,-1.6220048)" />
    <linearGradient
       inkscape:collect="always"
       xlink:href="#linearGradient3468"
       id="linearGradient3474"
       x1="11.869292"
       y1="42.27029"
       x2="20.708126"
       y2="45.906303"
       gradientUnits="userSpaceOnUse"
       gradientTransform="matrix(1.0065995,0,0,1.0065995,-0.7668703,-1.6220048)" />
    <linearGradient
       inkscape:collect="always"
       xlink:href="#linearGradient3421"
       id="linearGradient3523"
       gradientUnits="userSpaceOnUse"
       gradientTransform="matrix(1.0065995,0,0,1.0065995,1.5209727,-1.1135954)"
       x1="13.575788"
       y1="60.513126"
       x2="47.386421"
       y2="78.504898" />
    <linearGradient
       inkscape:collect="always"
       xlink:href="#linearGradient3421"
       id="linearGradient3527"
       gradientUnits="userSpaceOnUse"
       gradientTransform="matrix(1.0065995,0,0,1.0065995,1.5209727,-1.1135954)"
       x1="67.68293"
       y1="57.514866"
       x2="63.279278"
       y2="79.040611" />
  </defs>
  <sodipodi:namedview
     id="base"
     pagecolor="#ffffff"
     bordercolor="#666666"
     borderopacity="1.0"
     gridtolerance="10000"
     guidetolerance="10"
     objecttolerance="10"
     inkscape:pageopacity="0.0"
     inkscape:pageshadow="2"
     inkscape:zoom="5.6"
     inkscape:cx="29.163508"
     inkscape:cy="54.130455"
     inkscape:document-units="px"
     inkscape:current-layer="layer1"
     showgrid="false"
     inkscape:window-width="1023"
     inkscape:window-height="736"
     inkscape:window-x="0"
     inkscape:window-y="1" />
  <metadata
     id="metadata7">
    <rdf:RDF>
      <cc:Work
         rdf:about="">
        <dc:format>image/svg+xml</dc:format>
        <dc:type
           rdf:resource="http://purl.org/dc/dcmitype/StillImage" />
      </cc:Work>
    </rdf:RDF>
  </metadata>
  <g
     inkscape:label="Layer 1"
     inkscape:groupmode="layer"
     id="layer1">
    <path
       sodipodi:nodetypes="cccccccccccccccccsccc"
       id="path2519"
       d="m 5.9800709,77.178228 c -9.7742067,-11.85943 -3.1661072,-44.517845 10.4946941,-61.011471 0.508409,-6.6093237 1.091274,-8.7610314 3.124912,-12.0656934 3.279575,0.754252 7.589789,3.7461769 9.405576,6.6710044 4.950606,-3.4998319 16.935458,-4.8171161 18.969096,-4.8171161 -1.652331,1.3981263 -3.642354,3.0376829 -3.642354,3.0376829 4.262445,-0.4339548 9.188599,-0.4557621 11.730646,-0.2015574 -0.70683,0.6473774 -1.344449,0.7292269 -2.121117,1.0511108 0.738408,1.4051588 1.200561,3.4809208 1.470186,5.5980858 1.224763,0.68816 2.195322,1.626555 3.630677,3.346954 -1.692205,0.866587 -2.139483,0.951171 -3.649292,2.253034 -0.193846,1.481614 -0.488472,2.703186 -1.012301,4.468521 1.4706,1.19855 6.193739,5.97857 2.893838,12.900891 2.033637,1.01682 4.130826,1.715883 5.40185,1.715883 3.813072,-1.271024 5.973813,-1.016819 8.261655,-0.254205 6.545774,-2.414945 14.171917,3.940175 12.392483,13.599956 0.826165,2.605599 2.097189,9.723332 0.50841,16.0149 -3.876624,9.850436 -13.027995,13.091546 -21.734508,12.392483 -8.648709,-0.694423 -14.171917,-4.702788 -16.650413,-8.770064 1.65233,4.639236 5.274749,8.642961 6.799977,9.659781 -8.642962,3.650963 -39.664691,12.541826 -46.2740151,-5.59018 z"
       style="opacity:1;color:#000000;fill:#000000;fill-opacity:0.29411765;fill-rule:evenodd;stroke:none;stroke-width:1.5;marker:none;marker-start:none;marker-mid:none;marker-end:none;visibility:visible;display:inline;overflow:visible;enable-background:accumulate" />
    <path
       style="opacity:1;color:#000000;fill:#000000;fill-opacity:1;fill-rule:evenodd;stroke:none;stroke-width:1.5;marker:none;marker-start:none;marker-mid:none;marker-end:none;visibility:visible;display:inline;overflow:visible;enable-background:accumulate"
       d="m 10.345841,73.721993 c -9.774206,-11.85943 -3.1661065,-44.517845 10.494695,-61.011471 0.508408,-6.6093238 1.091274,-8.7610315 3.124911,-12.06569356 3.279576,0.75425196 7.589789,3.74617696 9.405576,6.67100456 4.950607,-3.499832 16.935459,-4.8171162 18.969096,-4.8171162 -1.65233,1.3981263 -3.642354,3.0376828 -3.642354,3.0376828 4.262446,-0.4339547 9.188599,-0.455762 11.730647,-0.2015573 -0.706831,0.6473774 -1.34445,0.7292269 -2.121118,1.0511107 0.738408,1.4051585 1.200561,3.4809216 1.470186,5.598086 1.224763,0.68816 2.195323,1.626555 3.630677,3.346954 -1.692204,0.866587 -2.139482,0.951171 -3.649291,2.253034 -0.193847,1.481614 -0.488472,2.703186 -1.012302,4.468521 1.470601,1.19855 6.193739,5.97857 2.893838,12.900891 2.033638,1.01682 4.130826,1.715883 5.401851,1.715883 3.813071,-1.271024 5.973812,-1.016819 8.261654,-0.254205 6.545775,-2.414945 14.171918,3.940175 12.392484,13.599956 0.826164,2.605599 2.097189,9.723332 0.50841,16.0149 -3.876624,9.850436 -13.027996,13.091546 -21.734509,12.392483 -8.648709,-0.694423 -14.171916,-4.702788 -16.650412,-8.770064 1.65233,4.639236 5.274748,8.642961 6.799977,9.659781 -8.642963,3.650963 -39.664692,12.541826 -46.274016,-5.59018 z"
       id="path3450"
       sodipodi:nodetypes="cccccccccccccccccsccc" />
    <path
       style="opacity:1;color:#000000;fill:url(#linearGradient3527);fill-opacity:1;fill-rule:evenodd;stroke:none;stroke-width:1.5;marker:none;marker-start:none;marker-mid:none;marker-end:none;visibility:visible;display:inline;overflow:visible;enable-background:accumulate"
       d="m 25.540028,5.5989934 c -2.115279,3.8818657 -1.995222,12.2910276 -0.34149,19.2494066 -6.167363,12.353666 -13.184672,31.494655 -11.558534,46.700081 1.766586,12.366108 27.010649,10.934821 36.506054,6.076704 -2.846802,-4.364247 -5.507808,-7.752967 -5.619734,-11.603387 -15.012677,-1.336413 -22.825318,-2.765032 -18.880611,-21.209634 -0.715242,16.537147 7.059831,16.553566 17.383521,18.339228 2.318644,0.441645 8.724306,2.569704 11.511208,6.496549 8.116052,8.270723 22.731487,6.618257 27.034302,-0.264988 -15.853071,5.29016 -28.823944,-2.135077 -39.192837,-13.601835 -0.28485,0.792491 -0.746976,2.082716 -0.588493,3.195533 -4.427241,-3.487637 -1.911343,-9.125891 4.377157,-7.942351 -1.218564,1.39298 -2.157129,1.934936 -2.815716,3.029477 5.146929,4.273738 10.359903,8.593364 16.50191,12.033327 7.093546,3.972892 22.74448,1.892209 24.500352,-1.158438 5.420719,-17.009871 -8.980675,-29.905323 -18.974247,-24.853453 -5.988581,-0.886381 -10.164391,-5.56417 -11.477295,-6.183054 1.324942,-4.416467 0.858802,-8.463841 0.858802,-8.463841 0,0 1.292391,-3.996331 1.790491,-8.279294 -0.857776,-0.686472 -8.048297,1.723085 -9.983038,4.303661 -2.097824,-0.772881 -6.49532,-1.146684 -9.476433,-0.815449 -2.848511,-8.331206 -8.218524,-13.6965132 -11.555369,-15.0482426 z"
       id="path2523"
       sodipodi:nodetypes="cccccccccccccscccccccc" />
    <path
       style="opacity:1;color:#000000;fill:#000000;fill-opacity:1;fill-rule:evenodd;stroke:none;stroke-width:4.5;marker:none;marker-start:none;marker-mid:none;marker-end:none;visibility:visible;display:inline;overflow:visible;enable-background:accumulate"
       d="M 61.348239,51.399218 C 58.59753,42.008368 78.174758,34.615572 74.735015,51.998632 74.216712,38.61168 62.456004,43.407006 61.348239,51.399218 z"
       id="path2509"
       sodipodi:nodetypes="ccc" />
    <path
       style="opacity:1;color:#000000;fill:url(#linearGradient3458);fill-opacity:1;fill-rule:evenodd;stroke:none;stroke-width:4.5;marker:none;marker-start:none;marker-mid:none;marker-end:none;visibility:visible;display:inline;overflow:visible;enable-background:accumulate"
       d="m 68.879099,46.698873 c -5.50892,0.372041 -6.805136,9.301055 -1.944324,10.417181 4.860814,1.116128 4.789921,-2.604295 4.789921,-4.092464 0,-1.488169 -0.90127,-5.580633 -2.845597,-6.324717 z"
       id="path2511"
       sodipodi:nodetypes="cssc" />
    <path
       transform="matrix(1.777293,0,0,1.0378997,-15.287216,2.7446829)"
       d="m 42.5,26.696428 a 4.375,7.7678571 0 1 1 -8.75,0 4.375,7.7678571 0 1 1 8.75,0 z"
       sodipodi:ry="7.7678571"
       sodipodi:rx="4.375"
       sodipodi:cy="26.696428"
       sodipodi:cx="38.125"
       id="path3285"
       style="color:#000000;fill:#ffffff;fill-opacity:1;fill-rule:evenodd;stroke:#000000;stroke-width:1.11170816;stroke-miterlimit:4;stroke-opacity:1;stroke-dasharray:none;marker:none;marker-start:none;marker-mid:none;marker-end:none;visibility:visible;display:inline;overflow:visible;enable-background:accumulate"
       sodipodi:type="arc" />
    <path
       sodipodi:type="arc"
       style="color:#000000;fill:#000000;fill-opacity:1;fill-rule:evenodd;stroke:none;stroke-width:1.5;marker:none;marker-start:none;marker-mid:none;marker-end:none;visibility:visible;display:inline;overflow:visible;enable-background:accumulate"
       id="path3287"
       sodipodi:cx="38.125"
       sodipodi:cy="26.696428"
       sodipodi:rx="4.375"
       sodipodi:ry="7.7678571"
       d="m 42.5,26.696428 a 4.375,7.7678571 0 1 1 -8.75,0 4.375,7.7678571 0 1 1 8.75,0 z"
       transform="matrix(0.6563052,0,0,0.3750932,28.520624,21.470143)" />
    <path
       sodipodi:type="arc"
       style="color:#000000;fill:#ffffff;fill-opacity:1;fill-rule:evenodd;stroke:#000000;stroke-width:1.08544981;stroke-miterlimit:4;stroke-opacity:1;stroke-dasharray:none;marker:none;marker-start:none;marker-mid:none;marker-end:none;visibility:visible;display:inline;overflow:visible;enable-background:accumulate"
       id="path2513"
       sodipodi:cx="38.125"
       sodipodi:cy="26.696428"
       sodipodi:rx="4.375"
       sodipodi:ry="7.7678571"
       d="m 42.5,26.696428 a 4.375,7.7678571 0 1 1 -8.75,0 4.375,7.7678571 0 1 1 8.75,0 z"
       transform="matrix(1.8427061,0,0,1.1032817,-32.417971,3.2717113)" />
    <path
       transform="matrix(0.6492985,0,0,0.3698573,15.07426,23.191039)"
       d="m 42.5,26.696428 a 4.375,7.7678571 0 1 1 -8.75,0 4.375,7.7678571 0 1 1 8.75,0 z"
       sodipodi:ry="7.7678571"
       sodipodi:rx="4.375"
       sodipodi:cy="26.696428"
       sodipodi:cx="38.125"
       id="path3289"
       style="color:#000000;fill:#000000;fill-opacity:1;fill-rule:evenodd;stroke:none;stroke-width:1.5;marker:none;marker-start:none;marker-mid:none;marker-end:none;visibility:visible;display:inline;overflow:visible;enable-background:accumulate"
       sodipodi:type="arc" />
    <path
       style="opacity:1;color:#000000;fill:#ff7068;fill-opacity:1;fill-rule:evenodd;stroke:none;stroke-width:1.5;marker:none;marker-start:none;marker-mid:none;marker-end:none;visibility:visible;display:inline;overflow:visible;enable-background:accumulate"
       d="m 76.162154,39.234709 c 3.254283,1.107633 6.80159,3.912945 8.229,9.348721 1.647633,-4.920178 -2.557621,-10.958013 -8.229,-9.348721 z"
       id="path3291"
       sodipodi:nodetypes="ccc" />
    <path
       style="opacity:1;color:#000000;fill:url(#linearGradient2582);fill-opacity:1;fill-rule:evenodd;stroke:none;stroke-width:1.5;marker:none;marker-start:none;marker-mid:none;marker-end:none;visibility:visible;display:inline;overflow:visible;enable-background:accumulate"
       d="m 27.74361,22.941417 c -2.5963,-6.352596 -0.945672,-12.163276 -0.724849,-13.7090404 2.64988,1.5457644 7.66414,7.2136944 7.884964,11.8509864 -1.987411,0.441645 -5.172704,0.974761 -7.160115,1.858054 z"
       id="path3309"
       sodipodi:nodetypes="cccc" />
    <path
       style="opacity:1;color:#000000;fill:url(#linearGradient3466);fill-opacity:1;fill-rule:evenodd;stroke:none;stroke-width:1.5;marker:none;marker-start:none;marker-mid:none;marker-end:none;visibility:visible;display:inline;overflow:visible;enable-background:accumulate"
       d="m 45.602025,19.61566 c 0.858803,-1.483384 9.603264,-4.666259 13.663052,-4.666259 -2.994548,-1.562371 -7.382523,-3.209654 -11.611082,-2.845297 1.156451,-1.517535 2.90046,-2.5676973 5.58624,-4.2284291 -4.042255,-0.2933912 -7.757311,0.7166376 -10.795293,1.4012842 0.755426,-0.681178 1.158033,-2.073216 2.452578,-2.8438883 -6.649321,1.2878503 -8.28411,2.6884327 -10.236622,4.1804792 1.561455,2.186041 3.388047,7.001258 3.544193,8.250425 1.873748,-0.156146 5.210895,-0.185191 7.396934,0.751685 z"
       id="path2578"
       sodipodi:nodetypes="ccccccccc" />
    <path
       style="opacity:1;color:#000000;fill:url(#linearGradient3474);fill-opacity:1;fill-rule:evenodd;stroke:none;stroke-width:1.5;marker:none;marker-start:none;marker-mid:none;marker-end:none;visibility:visible;display:inline;overflow:visible;enable-background:accumulate"
       d="M 21.895052,17.732853 C 10.014288,33.138207 8.5797381,51.458211 9.8311588,62.86856 10.729932,67.046393 10.146023,67.211055 11.317116,68.772512 11.923584,57.226786 12.381092,46.84497 23.155144,25.180689 22.530563,22.21392 21.660832,19.996967 21.895052,17.732853 z"
       id="path2580"
       sodipodi:nodetypes="ccccc" />
    <path
       style="opacity:1;color:#000000;fill:url(#linearGradient3448);fill-opacity:1;fill-rule:evenodd;stroke:none;stroke-width:1.5;marker:none;marker-start:none;marker-mid:none;marker-end:none;visibility:visible;display:inline;overflow:visible;enable-background:accumulate"
       d="m 55.596796,8.1948957 c -2.013147,0.8011166 -3.160391,1.9310333 -3.945601,3.0019143 1.354999,0.274324 3.948698,1.184056 5.012559,1.527304 0.22356,-1.79979 -0.758216,-4.0591869 -1.066958,-4.5292183 z"
       id="path3443"
       sodipodi:nodetypes="cccc" />
    <path
       style="opacity:1;color:#000000;fill:url(#linearGradient3523);fill-opacity:1;fill-rule:evenodd;stroke:none;stroke-width:1.5;marker:none;marker-start:none;marker-mid:none;marker-end:none;visibility:visible;display:inline;overflow:visible;enable-background:accumulate"
       d="m 24.20938,38.453239 c -1.284552,0.095695 -3.209088,0.634403 -5.410472,1.478444 -3.624997,10.244647 -6.213119,21.755174 -5.158822,31.613517 1.766585,12.366109 27.025285,10.929169 36.520689,6.071053 -2.8468,-4.364247 -5.51874,-7.756932 -5.630666,-11.607351 -15.012676,-1.336412 -22.818448,-2.756901 -18.873742,-21.201503 -0.044222,1.02246 -0.050741,1.993499 -0.031456,2.893974 0.957062,-4.9981 2.527383,-7.591204 0.031456,-9.059396 -0.286476,-0.168516 -0.785152,-0.238042 -1.446987,-0.188738 z"
       id="path3485" />
  </g>
</svg>
