<?xml version="1.0" encoding="UTF-8" standalone="no"?>
<!DOCTYPE svg PUBLIC "-//W3C//DTD SVG 20010904//EN"
"http://www.w3.org/TR/2001/REC-SVG-20010904/DTD/svg10.dtd"
[
 <!ATTLIST svg
  xmlns:xlink CDATA #FIXED "http://www.w3.org/1999/xlink">
]>
<!-- Created with Sodipodi ("http://www.sodipodi.com/") -->
<svg
   id="svg548"
   sodipodi:version="0.32"
   xmlns="http://www.w3.org/2000/svg"
   xmlns:sodipodi="http://sodipodi.sourceforge.net/DTD/sodipodi-0.dtd"
   xmlns:xlink="http://www.w3.org/1999/xlink"
   width="72pt"
   height="72pt"
   sodipodi:docbase="/home/zeus/images/icons/gartoon/svg"
   sodipodi:docname="/home/zeus/images/icons/gartoon/svg/bluefish.svg">
  <defs
     id="defs550">
    <linearGradient
       id="linearGradient582">
      <stop
         style="stop-color:#7dc7da;stop-opacity:1;"
         offset="0.000000"
         id="stop583" />
      <stop
         style="stop-color:#002f77;stop-opacity:1;"
         offset="1.000000"
         id="stop584" />
    </linearGradient>
    <linearGradient
       id="linearGradient577">
      <stop
         style="stop-color:#008ada;stop-opacity:0;"
         offset="0.000000"
         id="stop578" />
      <stop
         style="stop-color:#225aa7;stop-opacity:1;"
         offset="1.000000"
         id="stop579" />
    </linearGradient>
    <linearGradient
       id="linearGradient571">
      <stop
         style="stop-color:#bfffda;stop-opacity:1;"
         offset="0.000000"
         id="stop572" />
      <stop
         style="stop-color:#558ada;stop-opacity:1;"
         offset="1.000000"
         id="stop573" />
    </linearGradient>
    <radialGradient
       xlink:href="#linearGradient571"
       id="radialGradient574"
       cx="36.8354492"
       cy="18.8851871"
       fx="36.8354492"
       fy="18.8851871"
       r="27.7366714"
       gradientUnits="userSpaceOnUse"
       spreadMethod="pad"
       gradientTransform="scale(0.836844,1.194966)" />
    <linearGradient
       xlink:href="#linearGradient582"
       id="linearGradient576"
       x1="0.43332064"
       y1="0.28708330"
       x2="0.30091715"
       y2="1.04847801"
       gradientUnits="objectBoundingBox"
       spreadMethod="pad"
       gradientTransform="scale(1.597681,0.625907)" />
    <radialGradient
       xlink:href="#linearGradient577"
       id="radialGradient580"
       cx="41.4256859"
       cy="48.5806313"
       fx="41.4256859"
       fy="48.5806313"
       r="11.3269320"
       gradientUnits="userSpaceOnUse"
       spreadMethod="pad" />
    <linearGradient
       xlink:href="#linearGradient582"
       id="linearGradient601"
       x1="81.0670547"
       y1="59.3543587"
       x2="81.0668335"
       y2="53.4025955"
       gradientUnits="userSpaceOnUse"
       spreadMethod="pad"
       gradientTransform="scale(0.822233,1.216201)" />
    <linearGradient
       xlink:href="#linearGradient582"
       id="linearGradient602"
       x1="74.6158524"
       y1="45.8099861"
       x2="65.3682175"
       y2="51.4309006"
       gradientUnits="userSpaceOnUse"
       gradientTransform="matrix(1.140720,-4.211218e-10,1.010817e-7,0.876640,-2.039972e-6,4.502536e-8)"
       spreadMethod="pad" />
    <linearGradient
       xlink:href="#linearGradient582"
       id="linearGradient603"
       x1="1.00388145"
       y1="0.14092912"
       x2="0.36827949"
       y2="0.52726197"
       gradientUnits="objectBoundingBox"
       spreadMethod="pad" />
    <linearGradient
       xlink:href="#linearGradient582"
       id="linearGradient604"
       x1="76.4219437"
       y1="8.08097363"
       x2="65.6816101"
       y2="18.8852119"
       gradientUnits="userSpaceOnUse"
       spreadMethod="pad"
       gradientTransform="scale(0.922264,1.084288)" />
    <linearGradient
       xlink:href="#linearGradient582"
       id="linearGradient605"
       x1="74.9923935"
       y1="47.8515511"
       x2="68.5837250"
       y2="51.8299255"
       gradientUnits="userSpaceOnUse"
       gradientTransform="scale(1.140720,0.876640)"
       spreadMethod="pad" />
  </defs>
  <sodipodi:namedview
     id="base" />
  <path
     style="fill:#000040;fill-rule:evenodd;stroke:none;stroke-opacity:1;stroke-width:1pt;stroke-linejoin:miter;stroke-linecap:butt;fill-opacity:1;"
     d="M 19.2245 55.5285 C 6.55549 51.4037 5.59794 48.6048 5.08233 43.8171 C 6.33451 35.1992 11.5642 36.525 15.468 37.1879 C 11.6378 24.2243 17.5304 18.9946 23.8649 18.8473 C 31.5252 11.187 40.2904 8.82998 48.8346 9.78754 C 55.4637 3.1584 61.6509 4.48423 67.3961 7.7988 C 74.0252 12.8811 71.5946 21.0571 67.6171 26.5813 C 69.1639 29.8959 71.5946 36.967 72.0365 36.967 C 87.2836 33.6524 87.5045 42.2703 87.5045 42.2703 C 86.1787 53.0242 77.7818 52.9505 75.5721 53.9817 C 77.8554 69.2287 73.0677 86.0225 65.1864 76.5208 C 56.2003 82.0451 55.39 76.9627 55.4637 72.5433 C 20.8449 84.9913 21.5815 56.5597 19.2245 55.5285 z "
     id="path606"
     sodipodi:nodetypes="ccccccccccccc" />
  <path
     style="font-size:12;fill:#4f6fa1;fill-rule:evenodd;stroke-width:1pt;fill-opacity:1;"
     d="M 68.28 15.9747 C 66.2913 21.3187 62.1865 27.6862 57.6734 27.6862 C 53.1603 27.6862 51.9282 21.0977 51.9282 15.9747 C 51.9282 10.8517 56.0329 8.4617 60.546 8.4617 C 65.0591 8.4617 68.28 10.8517 68.28 15.9747 z "
     id="path598"
     sodipodi:nodetypes="ccccc" />
  <path
     style="font-size:12;fill:url(#linearGradient604);fill-rule:evenodd;stroke-width:1pt;fill-opacity:1;"
     d="M 68.28 15.9747 C 66.2913 21.3187 62.1865 27.6862 57.6734 27.6862 C 53.1603 27.6862 51.9282 21.0977 51.9282 15.9747 C 51.9282 10.8517 56.0329 8.4617 60.546 8.4617 C 65.0591 8.4617 68.28 10.8517 68.28 15.9747 z "
     id="path599"
     sodipodi:nodetypes="ccccc"
     transform="matrix(0.878378,0.000000,0.000000,0.931035,6.315601,0.583563)" />
  <g
     id="g591"
     transform="matrix(-0.999852,-1.721287e-2,-1.721287e-2,0.999852,93.44453,0.980263)"
     style="fill:url(#linearGradient602);">
    <path
       transform="matrix(0.930094,-0.367321,0.367321,0.930094,-12.17083,32.41666)"
       style="font-size:12;fill:url(#linearGradient602);fill-rule:evenodd;stroke-width:1pt;fill-opacity:1;"
       d="M 86.6206 44.3695 C 86.6206 47.114 84.1605 50.6072 79.4035 50.6072 C 74.6464 50.6072 69.3849 47.114 69.3849 44.3695 C 69.3849 41.625 73.5704 38.5755 78.3275 38.5755 C 83.0845 38.5755 86.6206 41.625 86.6206 44.3695 z "
       id="path592"
       sodipodi:nodetypes="ccccc" />
    <path
       transform="matrix(0.860462,-0.477385,0.502559,0.737657,-12.72568,48.76812)"
       style="font-size:12;fill:url(#linearGradient602);fill-rule:evenodd;stroke-width:1pt;fill-opacity:1;"
       d="M 86.6206 44.3695 C 86.6206 47.114 84.1605 50.6072 79.4035 50.6072 C 74.6464 50.6072 69.3849 47.114 69.3849 44.3695 C 69.3849 41.625 73.5704 38.5755 78.3275 38.5755 C 83.0845 38.5755 86.6206 41.625 86.6206 44.3695 z "
       id="path593"
       sodipodi:nodetypes="ccccc" />
  </g>
  <path
     style="fill:url(#radialGradient574);fill-rule:evenodd;stroke:none;stroke-opacity:1;stroke-width:1pt;stroke-linejoin:miter;stroke-linecap:butt;fill-opacity:1;"
     d="M 21.8761 39.8396 C 22.3917 66.1351 29.0945 69.2287 37.3441 71.6594 C 63.124 73.8691 59.0729 48.6784 62.3138 40.5025 C 61.5772 21.278 53.3276 14.6489 46.8458 13.986 C 29.0208 15.7538 21.1395 26.5813 21.8761 39.8396 z "
     id="path570"
     sodipodi:nodetypes="ccccc" />
  <path
     style="fill:#ffffff;fill-rule:evenodd;stroke:none;stroke-opacity:1;stroke-width:1pt;stroke-linejoin:miter;stroke-linecap:butt;fill-opacity:1;"
     d="M 48.1716 56.302 C 49.2028 56.0441 50.234 55.7863 51.2652 55.5285 C 50.1972 63.4098 42.942 64.441 37.1231 63.9254 C 48.2821 65.2144 50.7128 60.8686 53.033 55.5285 C 54.0642 55.1602 55.0954 54.792 56.1266 54.4237 C 56.1266 54.4237 49.0555 51.6616 48.1716 56.302 z "
     id="path607"
     sodipodi:nodetypes="cccccc"
     transform="matrix(0.975334,0.000000,0.000000,1.000000,1.384447,0.156250)" />
  <path
     transform="translate(21.87612,2.430687)"
     style="font-size:12;fill:#ffffff;fill-rule:evenodd;stroke:#000000;stroke-width:2.5;"
     d="M 40.2167 31.5532 C 40.2167 37.835 35.3165 42.9332 29.2786 42.9332 C 23.2408 42.9332 18.3406 37.835 18.3406 31.5532 C 18.3406 25.2714 23.2408 20.1732 29.2786 20.1732 C 35.3165 20.1732 40.2167 25.2714 40.2167 31.5532 z "
     id="path566" />
  <path
     transform="translate(-0.883884,0.000000)"
     style="font-size:12;fill:#ffffff;fill-rule:evenodd;stroke:#000000;stroke-width:2.5;"
     d="M 40.2167 31.5532 C 40.2167 37.835 35.3165 42.9332 29.2786 42.9332 C 23.2408 42.9332 18.3406 37.835 18.3406 31.5532 C 18.3406 25.2714 23.2408 20.1732 29.2786 20.1732 C 35.3165 20.1732 40.2167 25.2714 40.2167 31.5532 z "
     id="path565" />
  <g
     id="g555">
    <path
       transform="translate(-0.662913,-0.441942)"
       style="font-size:12;fill-rule:evenodd;stroke-width:1pt;"
       d="M 35.3553 34.3153 C 35.3553 36.5109 33.6724 38.2928 31.5988 38.2928 C 29.5252 38.2928 27.8423 36.5109 27.8423 34.3153 C 27.8423 32.1198 29.5252 30.3379 31.5988 30.3379 C 33.6724 30.3379 35.3553 32.1198 35.3553 34.3153 z "
       id="path553" />
    <path
       sodipodi:type="arc"
       style="fill-rule:evenodd;stroke:none;fill:#ffffff;fill-opacity:1;stroke-opacity:1;stroke-width:1pt;stroke-linejoin:miter;stroke-linecap:butt;"
       id="path554"
       d="M 32.703693 32.879025 A 1.767767 1.657281 0 1 0 29.168159,32.879025 A 1.76777 1.65728 0 1 0 32.7037 32.879 L 30.935926 32.879025 z"
       sodipodi:cx="30.935926"
       sodipodi:cy="32.879025"
       sodipodi:rx="1.767767"
       sodipodi:ry="1.657281" />
  </g>
  <path
     transform="translate(20.55030,1.104861)"
     style="font-size:12;fill-rule:evenodd;stroke-width:1pt;"
     d="M 35.3553 34.3153 C 35.3553 36.5109 33.6724 38.2928 31.5988 38.2928 C 29.5252 38.2928 27.8423 36.5109 27.8423 34.3153 C 27.8423 32.1198 29.5252 30.3379 31.5988 30.3379 C 33.6724 30.3379 35.3553 32.1198 35.3553 34.3153 z "
     id="path559" />
  <path
     transform="translate(21.21321,1.546803)"
     style="font-size:12;fill:#ffffff;fill-rule:evenodd;stroke-width:1pt;"
     d="M 32.7037 32.879 C 32.7037 33.7938 31.9117 34.5363 30.9359 34.5363 C 29.9601 34.5363 29.1682 33.7938 29.1682 32.879 C 29.1682 31.9642 29.9601 31.2217 30.9359 31.2217 C 31.9117 31.2217 32.7037 31.9642 32.7037 32.879 z "
     id="path563" />
  <path
     style="fill:#000000;fill-rule:evenodd;stroke:none;stroke-opacity:1;stroke-width:1pt;stroke-linejoin:miter;stroke-linecap:butt;fill-opacity:1;"
     d="M 48.1716 56.302 C 49.2028 56.0441 50.234 55.7863 51.2652 55.5285 C 50.1972 63.4098 42.942 64.441 37.1231 63.9254 C 48.2821 65.2144 50.7128 60.8686 53.033 55.5285 C 54.0642 55.1602 55.0954 54.792 56.1266 54.4237 C 56.1266 54.4237 49.0555 51.6616 48.1716 56.302 z "
     id="path569"
     sodipodi:nodetypes="cccccc" />
  <path
     style="fill:url(#linearGradient576);fill-rule:nonzero;stroke:none;stroke-opacity:1;stroke-width:1pt;stroke-linejoin:miter;stroke-linecap:butt;fill-opacity:1;"
     d="M 62.0928 27.9072 C 67.5434 34.9782 70.7843 43.8171 70.4897 52.4349 C 66.9542 63.4834 60.546 65.0302 54.5798 68.5658 C 62.1665 56.4124 64.6708 44.0381 62.0928 27.9072 z "
     id="path581"
     sodipodi:nodetypes="cccc" />
  <g
     id="g588"
     style="fill:url(#linearGradient605);">
    <path
       transform="matrix(0.930094,-0.367321,0.367321,0.930094,-12.17083,32.41666)"
       style="font-size:12;fill:url(#linearGradient605);fill-rule:evenodd;stroke-width:1pt;fill-opacity:1;"
       d="M 86.6206 44.3695 C 86.6206 47.114 84.1605 50.6072 79.4035 50.6072 C 74.6464 50.6072 69.3849 47.114 69.3849 44.3695 C 69.3849 41.625 73.5704 38.5755 78.3275 38.5755 C 83.0845 38.5755 86.6206 41.625 86.6206 44.3695 z "
       id="path586"
       sodipodi:nodetypes="ccccc" />
    <path
       transform="matrix(0.860462,-0.477385,0.502559,0.737657,-12.72568,48.76812)"
       style="font-size:12;fill:url(#linearGradient605);fill-rule:evenodd;stroke-width:1pt;fill-opacity:1;"
       d="M 86.6206 44.3695 C 86.6206 47.114 84.1605 50.6072 79.4035 50.6072 C 74.6464 50.6072 69.3849 47.114 69.3849 44.3695 C 69.3849 41.625 73.5704 38.5755 78.3275 38.5755 C 83.0845 38.5755 86.6206 41.625 86.6206 44.3695 z "
       id="path587"
       sodipodi:nodetypes="ccccc" />
  </g>
  <path
     style="fill:url(#linearGradient601);fill-rule:evenodd;stroke:none;stroke-opacity:1;stroke-width:1pt;stroke-linejoin:miter;stroke-linecap:butt;fill-opacity:1;"
     d="M 71.1527 55.7495 C 73.5834 61.7157 72.2576 83.1499 65.8494 70.9965 C 58.1891 78.2886 56.9369 75.4159 63.4187 65.0303 C 65.9967 61.9367 68.5747 58.8431 71.1527 55.7495 z "
     id="path600"
     sodipodi:nodetypes="cccc" />
  <path
     sodipodi:type="arc"
     style="fill-rule:evenodd;stroke:none;fill:#000000;fill-opacity:0.3;stroke-opacity:1;stroke-width:1pt;stroke-linejoin:miter;stroke-linecap:butt;"
     id="path608"
     d="M 87.187569 82.500000 A 39.687531 3.437504 0 1 0 7.812508,82.500000 A 39.6875 3.4375 0 1 0 87.1876 82.5 L 47.500038 82.500000 z"
     sodipodi:cx="47.500038"
     sodipodi:cy="82.500000"
     sodipodi:rx="39.687531"
     sodipodi:ry="3.437504" />
</svg>
