<?xml version="1.0" encoding="UTF-8" standalone="no"?>
<!-- Created with Sodipodi ("http://www.sodipodi.com/") -->
<svg
   xmlns:dc="http://purl.org/dc/elements/1.1/"
   xmlns:cc="http://creativecommons.org/ns#"
   xmlns:rdf="http://www.w3.org/1999/02/22-rdf-syntax-ns#"
   xmlns:svg="http://www.w3.org/2000/svg"
   xmlns="http://www.w3.org/2000/svg"
   xmlns:xlink="http://www.w3.org/1999/xlink"
   xmlns:sodipodi="http://sodipodi.sourceforge.net/DTD/sodipodi-0.dtd"
   xmlns:inkscape="http://www.inkscape.org/namespaces/inkscape"
   version="1"
   x="0.00000000"
   y="0.00000000"
   width="90.0000000"
   height="90.0000000"
   id="svg548"
   sodipodi:version="0.32"
   sodipodi:docname="blueradio.svg"
   sodipodi:docbase="/home/zeus/images/icons/gartoon/svg"
   inkscape:version="0.45+devel"
   inkscape:output_extension="org.inkscape.output.svg.inkscape">
  <metadata
     id="metadata2740">
    <rdf:RDF>
      <cc:Work
         rdf:about="">
        <dc:format>image/svg+xml</dc:format>
        <dc:type
           rdf:resource="http://purl.org/dc/dcmitype/StillImage" />
      </cc:Work>
    </rdf:RDF>
  </metadata>
  <sodipodi:namedview
     id="base"
     showgrid="false"
     inkscape:zoom="5.5333333"
     inkscape:cx="17.439759"
     inkscape:cy="45"
     inkscape:window-width="945"
     inkscape:window-height="708"
     inkscape:window-x="0"
     inkscape:window-y="1"
     inkscape:current-layer="svg548" />
  <defs
     id="defs550">
    <inkscape:perspective
       sodipodi:type="inkscape:persp3d"
       inkscape:vp_x="-50 : 600 : 1"
       inkscape:vp_y="0 : 1000 : 0"
       inkscape:vp_z="700 : 600 : 1"
       inkscape:persp3d-origin="300 : 400 : 1"
       id="perspective2742" />
    <linearGradient
       x1="0.00000000"
       y1="0.00000000"
       x2="1.00000000"
       y2="0.00000000"
       id="linearGradient632"
       gradientUnits="objectBoundingBox"
       spreadMethod="pad">
      <stop
         style="stop-color:#ffb700;stop-opacity:1;"
         offset="0.00000000"
         id="stop633" />
      <stop
         style="stop-color:#ffd58f;stop-opacity:0;"
         offset="1.00000000"
         id="stop634" />
    </linearGradient>
    <linearGradient
       x1="0.00000000"
       y1="0.00000000"
       x2="1.00000000"
       y2="0.00000000"
       id="linearGradient556"
       gradientUnits="objectBoundingBox"
       spreadMethod="pad">
      <stop
         style="stop-color:#000000;stop-opacity:1;"
         offset="0.00000000"
         id="stop557" />
      <stop
         style="stop-color:#bdf2ff;stop-opacity:0.384314;"
         offset="1.00000000"
         id="stop558" />
    </linearGradient>
    <linearGradient
       x1="60.6446152"
       y1="19.2956886"
       x2="35.3705750"
       y2="69.1427994"
       id="linearGradient559"
       xlink:href="#linearGradient632"
       gradientUnits="userSpaceOnUse"
       spreadMethod="pad" />
    <linearGradient
       x1="85.6376572"
       y1="17.4438438"
       x2="73.9162979"
       y2="54.6281815"
       id="linearGradient631"
       xlink:href="#linearGradient632"
       gradientUnits="userSpaceOnUse"
       gradientTransform="scale(0.740666,1.350136)"
       spreadMethod="pad" />
  </defs>
  <path
     d="M 32.5076 12.1608 C 32.0388 12.0045 25.3201 7.94201 25.0076 12.942 C 24.6951 17.942 23.7434 54.4234 26.2434 59.4235 C 27.3371 62.5485 30.1496 67.236 35.1496 70.5173 C 39.2121 73.1735 62.9754 88.0916 64.8504 88.2478 C 66.7254 88.4041 70.6317 89.6541 71.4129 84.3416 C 72.1942 79.029 74.9934 64.7445 75.3535 59.0032 C 75.1973 53.847 77.3856 50.4095 72.8268 45.8031 C 69.7018 43.9281 38.2679 19.4101 36.5491 18.3164 C 34.8304 17.2226 33.3974 16.6862 32.5076 12.1608 z "
     transform="matrix(1.418885,-0.200635,0.127692,1.110535,-25.42418,4.539042)"
     style="font-size:12;fill:#000009;fill-opacity:0.301471;fill-rule:evenodd;stroke-width:1pt;"
     id="path783" />
  <path
     d="M 27.3438 9.06248 C 26.875 8.90623 20.1563 4.84373 19.8438 9.84373 C 19.5313 14.8437 21.7948 51.43 24.2948 56.43 C 25.3885 59.555 28.201 64.2425 33.201 67.5238 C 37.2635 70.18 63.75 84.2187 65.625 84.375 C 67.5 84.5312 71.4063 85.7812 72.1875 80.4687 C 72.9688 75.1562 80.0121 45.1117 79.8558 44.018 C 79.6996 38.8617 76.4114 33.4873 74.6927 32.2372 C 71.5677 30.3622 37.2457 8.74632 35.5269 7.65262 C 33.8082 6.55886 28.75 6.87498 27.3438 9.06248 z "
     transform="matrix(1.418885,-0.200635,0.127692,1.110535,-28.98864,5.917244)"
     style="font-size:12;fill:#593a28;fill-rule:evenodd;stroke-width:1pt;"
     id="path554" />
  <path
     d="M 34.7347 11.5278 C 31.8242 11.9203 31.7279 18.5979 27.9688 13.75 C 25.6793 11.7389 22.2842 11.565 22.7529 14.69 C 22.9092 18.2838 23.8556 53.0977 29.6369 59.0352 C 35.2619 66.8477 65.625 80.7812 66.4063 81.25 C 67.1875 81.7187 68.9063 81.5625 69.2188 77.8125 C 69.5313 74.0625 76.8092 46.3935 76.3405 44.6747 C 76.3404 42.0185 75.5592 38.8935 72.7467 36.706 C 69.9342 34.5185 35.6722 11.5278 34.7347 11.5278 z "
     transform="matrix(1.418885,-0.200635,0.127692,1.110535,-28.98864,5.917244)"
     style="font-size:12;fill:#f1e36c;fill-rule:evenodd;stroke-width:1pt;"
     id="path552" />
  <path
     d="M 35.3959 15.4436 C 40.9841 18.8409 71.8791 39.6105 73.1291 42.2667 C 74.3791 44.923 66.7188 75.625 66.7188 76.4062 C 66.7188 77.1875 61.1313 48.9239 58.0063 46.8926 C 54.8813 44.8614 41.631 37.9363 40.381 33.2488 C 39.131 28.5613 31.7315 17.5287 34.1459 14.5061 "
     transform="matrix(1.418885,-0.200635,0.127692,1.110535,-28.98864,5.917244)"
     style="font-size:12;fill:url(#linearGradient631);fill-rule:evenodd;stroke-width:1pt;"
     id="path562" />
  <path
     d="M 65.6315 77.8438 C 61.7252 64.2501 61.1816 55.4139 59.1502 50.7265 C 57.2752 46.6639 56.6502 46.3515 53.8378 44.4766 C 48.994 42.1328 39.4397 36.434 39.2835 34.7152 C 37.0959 34.5589 39.2188 24.375 34.2188 20 C 30.9375 17.1875 22.5 9.8437 22.5 9.8437 L 28.125 10.9375 C 30 12.9687 38.4375 20 39.2188 21.4062 C 40.9375 22.3438 39.4397 29.4027 41.0022 31.7465 C 42.4085 35.6527 56.3377 42.4452 57.4315 43.3827 C 58.5252 44.3202 60.7128 47.4452 61.494 50.414 C 65.0307 63.6693 65.3959 72.4748 65.6315 77.8438 z "
     transform="matrix(1.418885,-0.200635,0.127692,1.110535,-28.98864,5.917244)"
     style="font-size:12;fill:#593a28;fill-rule:evenodd;stroke-width:1pt;"
     id="path553" />
  <path
     d="M 32.2401 16.3592 C 34.0465 17.0528 40.7504 22.4843 42.7984 25.8628 C 43.6822 29.3984 42.4278 36.1872 46.8472 40.1647 C 51.2666 44.1421 62.0666 47.0499 63.6134 50.5854 C 65.1602 54.121 71.1434 74.6929 71.5854 76.6816 C 72.0273 78.6704 38.4557 61.3834 37.3508 56.3011 C 35.6801 51.1165 33.3449 40.666 32.2401 16.3592 z "
     transform="matrix(1.418885,-0.200635,0.127692,1.110535,-42.08894,7.593317)"
     style="font-size:12;fill:url(#linearGradient559);fill-rule:evenodd;stroke-width:1pt;"
     id="path635" />
  <g
     id="g2518"
     transform="matrix(0.7599862,0,0,0.7599862,-7.7847777,23.51623)">
    <path
       transform="matrix(1.0703989,0.2201752,-0.194137,0.9279861,6.4816565,-3.0854244)"
       d="M 74.078625,44.557739 A 27.530712,40.135136 0 1 1 19.0172,44.557739 A 27.530712,40.135136 0 1 1 74.078625,44.557739 z"
       sodipodi:ry="40.135136"
       sodipodi:rx="27.530712"
       sodipodi:cy="44.557739"
       sodipodi:cx="46.547913"
       id="path3134"
       style="opacity:1;fill:#000000;fill-opacity:0.29411765;fill-rule:nonzero;stroke:none;stroke-width:0.05;stroke-linecap:round;stroke-linejoin:miter;stroke-miterlimit:4;stroke-dasharray:none;stroke-opacity:1"
       sodipodi:type="arc" />
    <path
       sodipodi:type="arc"
       style="opacity:1;fill:#000000;fill-opacity:1;fill-rule:nonzero;stroke:none;stroke-width:0.05;stroke-linecap:round;stroke-linejoin:miter;stroke-miterlimit:4;stroke-dasharray:none;stroke-opacity:1"
       id="path2159"
       sodipodi:cx="46.547913"
       sodipodi:cy="44.557739"
       sodipodi:rx="27.530712"
       sodipodi:ry="40.135136"
       d="M 74.078625,44.557739 A 27.530712,40.135136 0 1 1 19.0172,44.557739 A 27.530712,40.135136 0 1 1 74.078625,44.557739 z"
       transform="matrix(1.0703989,0.2201752,-0.194137,0.9279861,2.4816565,-7.0854244)" />
    <path
       transform="matrix(0.9360468,8.5544862e-3,-1.0152661e-2,0.8120459,0.3130189,7.963501)"
       d="M 74.078625,44.557739 A 27.530712,40.135136 0 1 1 19.0172,44.557739 A 27.530712,40.135136 0 1 1 74.078625,44.557739 z"
       sodipodi:ry="40.135136"
       sodipodi:rx="27.530712"
       sodipodi:cy="44.557739"
       sodipodi:cx="46.547913"
       id="path2173"
       style="opacity:1;fill:#558ada;fill-opacity:1;fill-rule:nonzero;stroke:none;stroke-width:0.05;stroke-linecap:round;stroke-linejoin:miter;stroke-miterlimit:4;stroke-dasharray:none;stroke-opacity:1"
       sodipodi:type="arc" />
    <path
       sodipodi:nodetypes="cccccc"
       id="path2177"
       d="M 29.706111,51.874873 L 57.292906,34.059293 L 41.021497,19.532639 L 40.974969,69.93697 L 58.322387,57.348022 L 29.99357,35.911704"
       style="fill:none;fill-rule:evenodd;stroke:#ffffff;stroke-width:5.69310188;stroke-linecap:round;stroke-linejoin:round;stroke-miterlimit:4;stroke-dasharray:none;stroke-opacity:1" />
    <path
       sodipodi:nodetypes="cssc"
       id="path2161"
       d="M 19.90172,33.169533 C 22.84786,24.331114 28.525799,15.257984 36.265356,13.931203 C 41.496177,13.034491 38.880999,16.680205 34.938574,18.132678 C 30.7371,19.680589 28.376115,19.687379 19.90172,33.169533 z"
       style="fill:#ffffff;fill-rule:evenodd;stroke:none;stroke-width:1px;stroke-linecap:butt;stroke-linejoin:miter;stroke-opacity:1" />
  </g>
</svg>
