<?xml version="1.0" encoding="UTF-8" standalone="no"?>
<!-- Created with Sodipodi ("http://www.sodipodi.com/") -->
<svg
   xmlns:dc="http://purl.org/dc/elements/1.1/"
   xmlns:cc="http://creativecommons.org/ns#"
   xmlns:rdf="http://www.w3.org/1999/02/22-rdf-syntax-ns#"
   xmlns:svg="http://www.w3.org/2000/svg"
   xmlns="http://www.w3.org/2000/svg"
   xmlns:xlink="http://www.w3.org/1999/xlink"
   xmlns:sodipodi="http://sodipodi.sourceforge.net/DTD/sodipodi-0.dtd"
   xmlns:inkscape="http://www.inkscape.org/namespaces/inkscape"
   id="svg704"
   sodipodi:version="0.32"
   width="72pt"
   height="72pt"
   sodipodi:docname="video-television.svg"
   inkscape:version="0.46+devel"
   inkscape:output_extension="org.inkscape.output.svg.inkscape">
  <metadata
     id="metadata38">
    <rdf:RDF>
      <cc:Work
         rdf:about="">
        <dc:format>image/svg+xml</dc:format>
        <dc:type
           rdf:resource="http://purl.org/dc/dcmitype/StillImage" />
        <dc:title />
      </cc:Work>
    </rdf:RDF>
  </metadata>
  <defs
     id="defs706">
    <linearGradient
       id="linearGradient3660">
      <stop
         id="stop3662"
         offset="0.000000"
         style="stop-color:#ffffff;stop-opacity:0.29017857" />
      <stop
         id="stop3664"
         offset="1.000000"
         style="stop-color:#ffffff;stop-opacity:0" />
    </linearGradient>
    <linearGradient
       id="linearGradient3654">
      <stop
         id="stop3656"
         offset="0.000000"
         style="stop-color:#ed0000;stop-opacity:1" />
      <stop
         id="stop3658"
         offset="1.000000"
         style="stop-color:#ffbfbc;stop-opacity:1" />
    </linearGradient>
    <linearGradient
       id="linearGradient3648">
      <stop
         style="stop-color:#ed0000;stop-opacity:1"
         offset="0.000000"
         id="stop3650" />
      <stop
         style="stop-color:#ffbfbc;stop-opacity:1"
         offset="1.000000"
         id="stop3652" />
    </linearGradient>
    <linearGradient
       id="linearGradient3642">
      <stop
         id="stop3644"
         offset="0.000000"
         style="stop-color:#002f77;stop-opacity:1" />
      <stop
         id="stop3646"
         offset="1.000000"
         style="stop-color:#558ada;stop-opacity:1" />
    </linearGradient>
    <linearGradient
       inkscape:collect="always"
       xlink:href="#linearGradient3654"
       id="linearGradient3631"
       gradientUnits="userSpaceOnUse"
       gradientTransform="matrix(0.8856677,0,0,0.8283819,-3.2108801,17.26114)"
       spreadMethod="pad"
       x1="54.811188"
       y1="56.195293"
       x2="20.078783"
       y2="-12.247639" />
    <linearGradient
       inkscape:collect="always"
       xlink:href="#linearGradient3660"
       id="linearGradient3633"
       gradientUnits="userSpaceOnUse"
       gradientTransform="matrix(1.1065535,0,0,0.7874,-6.9171753,13.264432)"
       spreadMethod="pad"
       x1="37.362808"
       y1="41.166351"
       x2="30.316248"
       y2="70.872505" />
    <linearGradient
       inkscape:collect="always"
       xlink:href="#linearGradient3648"
       id="linearGradient3635"
       gradientUnits="userSpaceOnUse"
       x1="80.680023"
       y1="31.603554"
       x2="51.236031"
       y2="18.396246"
       gradientTransform="matrix(0.93337768,0,0,0.93337768,0.19453595,2.4336933)" />
    <linearGradient
       inkscape:collect="always"
       xlink:href="#linearGradient3642"
       id="linearGradient3640"
       x1="46.7859"
       y1="75.968109"
       x2="18.606495"
       y2="32.967045"
       gradientUnits="userSpaceOnUse"
       gradientTransform="matrix(0.9909971,0,0,0.9909971,-1.3321281,-0.79650477)" />
  </defs>
  <sodipodi:namedview
     id="base"
     showgrid="false"
     inkscape:zoom="3.7083823"
     inkscape:cx="48.618024"
     inkscape:cy="45.556132"
     inkscape:window-width="1024"
     inkscape:window-height="736"
     inkscape:window-x="0"
     inkscape:window-y="1"
     inkscape:current-layer="svg704" />
  <path
     sodipodi:nodetypes="cccccccccccccc"
     id="path2729"
     d="m 37.036799,20.826737 c -5.434202,-0.680326 -11.005043,-1.652455 -16.3786,-0.0565 -4.863265,1.107613 -9.785892,2.743367 -13.8973879,5.5939 C 4.6944603,29.5264 5.138605,33.693559 4.4268308,37.307992 3.181089,50.355802 3.9314313,64.246373 10.202191,76.012697 c 6.477873,8.473248 17.596618,11.011223 27.57438,12.682291 6.694001,1.091115 13.544826,1.069642 20.261227,0.705845 4.037217,-1.07706 7.896335,-2.775429 11.918589,-3.999968 2.985293,-2.498368 4.581242,-6.482565 7.696548,-9.015858 2.533713,-2.918391 6.238197,-5.013873 8.038809,-8.414706 2.606853,-10.074162 3.563149,-19.769922 3.72665,-35.095679 -5.314367,-5.377616 -14.502774,-8.242435 -18.365368,-9.813493 -2.654913,-0.65823 -5.76881,-0.909247 -8.523349,-0.892661 L 37.036799,20.826737 z"
     style="fill:#000000;fill-opacity:0.29411765;fill-rule:evenodd;stroke:none" />
  <path
     style="fill:#342217;fill-opacity:1;fill-rule:evenodd;stroke:none"
     d="m 33.562787,16.55103 c -5.434202,-0.680326 -11.005042,-1.652455 -16.3786,-0.0565 -4.863265,1.107612 -9.7858911,2.743366 -13.8973873,5.5939 -2.0663508,3.16226 -1.6222061,7.329418 -2.33398032,10.943851 -1.24574183,13.04781 -0.49539955,26.938382 5.77536032,38.704705 6.4778723,8.473249 17.5966183,11.011223 27.5743793,12.682292 6.694001,1.091114 13.544826,1.069641 20.261227,0.705844 4.037217,-1.07706 7.896335,-2.775429 11.918589,-3.999967 2.985293,-2.498368 4.581242,-6.482566 7.696549,-9.015859 2.533713,-2.91839 6.238197,-5.013872 8.038809,-8.414706 C 84.824585,53.620433 85.780882,43.924673 85.944382,28.598915 80.630016,23.221299 71.441608,20.35648 67.579015,18.785423 64.924101,18.127193 61.810205,17.876176 59.055666,17.892761 64.391436,11.469571 72.532969,8.4668351 79.387386,4.0242397 67.312979,1.8761014 55.184613,7.4379672 46.659243,15.763493 39.596257,6.8224725 28.766037,-0.17455633 16.993993,0.64125058 c 0.898986,1.70347882 6.039025,4.88551162 8.334233,7.49073762 2.855718,2.6957808 5.538368,5.5659958 8.234561,8.4190418 z"
     id="path3627"
     sodipodi:nodetypes="cccccccccccccccccc" />
  <path
     style="fill:url(#linearGradient3631);fill-opacity:1;fill-rule:evenodd;stroke:none"
     d="M 10.038859,69.323034 C 8.7004194,66.780206 1.2056852,52.459785 6.2914699,24.889736 11.377067,22.267037 14.461468,20.883026 22.844518,19.651632 49.134719,21.029904 63.59618,29.7752 73.402355,35.284268 74.740708,40.102423 63.037556,78.423836 55.810448,80.5652 49.654025,82.572773 18.871902,81.368213 10.038859,69.323034 z"
     id="path713"
     sodipodi:nodetypes="cccccc" />
  <path
     style="fill:#c90000;fill-opacity:1;fill-rule:evenodd;stroke:none"
     d="m 10.876428,31.058036 -2.333587,0.729199 c -0.2916975,2.187785 -3.9378818,19.981389 -0.4375,27.857247 4.083777,6.854865 5.979771,8.167555 5.542268,7.438262 C 8.6886434,58.769386 7.0843492,46.080458 10.876428,31.058036 z"
     id="path717"
     sodipodi:nodetypes="ccccc" />
  <path
     style="fill:#342217;fill-opacity:1;fill-rule:evenodd;stroke:none"
     d="m 10.662486,30.706115 c 0,0 -5.897473,21.473124 1.663452,34.477822 5.746304,8.014629 24.346133,14.365806 39.619252,9.829251 2.8732,-3.629245 9.37545,-23.287652 3.326807,-34.175385 C 53.00367,37.057292 25.633168,25.413516 10.662486,30.706115 z"
     id="path711"
     sodipodi:nodetypes="ccccc" />
  <path
     style="fill:url(#linearGradient3640);fill-opacity:1;fill-rule:evenodd;stroke:none"
     d="m 11.459825,31.495535 c 0,0 -5.6880722,20.710683 1.604389,33.253622 5.542269,7.730055 23.481675,13.855722 38.212493,9.480247 2.771181,-3.500382 9.042557,-22.46078 3.208682,-32.961924 C 52.297605,37.621205 25.898943,26.390862 11.459825,31.495535 z"
     id="path710"
     sodipodi:nodetypes="ccccc" />
  <path
     style="fill:url(#linearGradient3633);fill-opacity:1;fill-rule:evenodd;stroke:none"
     d="m 9.5638316,52.352021 c 0,0 12.1054394,-16.481007 23.6274804,-5.979865 4.667269,15.60582 21.731578,19.252097 21.731578,19.252097 l -3.354485,8.313451 C 38.879478,78.459075 14.522706,69.124633 13.355912,65.624253 12.189118,62.123872 13.064214,67.520339 9.5638316,52.352021 z"
     id="path722"
     sodipodi:nodetypes="cccccc" />
  <path
     style="fill:#c90000;fill-opacity:1;fill-rule:evenodd;stroke:none"
     d="m 73.427141,35.066168 c 0,0 -11.46018,2.805611 -11.593974,2.805611 -0.133965,0 0.669134,11.375959 0.133794,15.524896 -0.535342,4.148851 -1.873696,13.918873 -2.676707,16.4617 -0.803012,2.542914 -5.487291,10.706825 -5.888754,11.242167 -0.401548,0.535341 9.08588,-3.048496 11.361037,-3.717629 6.156423,-7.093314 8.263141,-23.847387 8.664604,-42.316745 z"
     id="path716"
     sodipodi:nodetypes="ccccccc" />
  <path
     style="fill:#342217;fill-opacity:1;fill-rule:evenodd;stroke:none"
     d="m 53.133829,80.832871 c 0,0 10.439155,-8.163911 7.762448,-42.425751 C 44.047947,26.416486 21.380331,25.330967 21.380331,25.330967 c 0,0 25.636779,0.297429 40.8543,12.540812 0.669133,1.472145 1.070595,36.938546 -9.100802,42.961092 z"
     id="path712"
     sodipodi:nodetypes="ccccc" />
  <path
     style="fill:url(#linearGradient3635);fill-opacity:1;stroke:none"
     d="m 52.052484,21.61789 c 4.966549,0.08188 10.448914,0.37062 12.629911,0.578334 3.606654,0.343491 15.088119,5.452176 15.946848,6.482649 -2.310112,8.91e-4 -10.445493,-0.140525 -14.121558,1.024319 -2.626284,-0.913491 -10.339048,-4.180426 -16.980416,-6.217126 l 2.525215,-1.868176 z"
     id="path2724"
     sodipodi:nodetypes="cscccc" />
  <path
     style="fill:#c90000;fill-opacity:1;stroke:none"
     d="m 67.881649,30.733665 c 3.535464,-1.284977 11.344944,-1.104267 13.914005,-1.104267 1.030474,2.919672 -0.307335,26.03721 -3.27684,33.509473 -2.576182,2.919672 -6.74931,5.940306 -9.153747,9.20347 3.668946,-9.330317 5.3864,-29.414749 5.3864,-37.658531 -2.404436,-1.8892 -4.465382,-2.404436 -6.869818,-3.950145 z"
     id="path2726"
     sodipodi:nodetypes="cccccc" />
  <path
     style="fill:#c2c2c2;fill-opacity:1;stroke:none"
     d="M 42.951987,21.470089 C 39.446157,16.522575 32.844109,8.4989017 24.933637,3.7725473 38.179642,10.53558 41.439316,15.413508 46.516379,22.417757 45.383757,22.166063 42.700293,21.595935 42.951987,21.470089 z"
     id="path3502"
     sodipodi:nodetypes="cccc" />
  <path
     style="fill:#c2c2c2;fill-opacity:1;stroke:none"
     d="M 46.328263,22.322446 C 48.606157,19.39743 55.479322,10.767853 70.302438,6.3490244 57.360253,12.004731 53.333822,17.788024 48.564284,23.017767 47.935049,22.766074 46.07657,22.322446 46.328263,22.322446 z"
     id="path3504"
     sodipodi:nodetypes="cccc" />
</svg>
