<?xml version="1.0" encoding="UTF-8" standalone="no"?>
<!-- Created with Sodipodi ("http://www.sodipodi.com/") -->
<svg
   xmlns:dc="http://purl.org/dc/elements/1.1/"
   xmlns:cc="http://web.resource.org/cc/"
   xmlns:rdf="http://www.w3.org/1999/02/22-rdf-syntax-ns#"
   xmlns:svg="http://www.w3.org/2000/svg"
   xmlns="http://www.w3.org/2000/svg"
   xmlns:xlink="http://www.w3.org/1999/xlink"
   xmlns:sodipodi="http://sodipodi.sourceforge.net/DTD/sodipodi-0.dtd"
   xmlns:inkscape="http://www.inkscape.org/namespaces/inkscape"
   version="1.0"
   x="0"
   y="0"
   width="90"
   height="90"
   id="svg602"
   xml:space="preserve"
   sodipodi:version="0.32"
   inkscape:version="0.45.1"
   sodipodi:docname="xfce4-workspaces.svg"
   sodipodi:docbase="/home/nathan/GNUtoon/scalable/apps"
   inkscape:output_extension="org.inkscape.output.svg.inkscape"><sodipodi:namedview
     inkscape:window-height="701"
     inkscape:window-width="1024"
     inkscape:pageshadow="2"
     inkscape:pageopacity="0.0"
     guidetolerance="10.0"
     gridtolerance="10.0"
     objecttolerance="10.0"
     borderopacity="1.0"
     bordercolor="#666666"
     pagecolor="#ffffff"
     id="base"
     inkscape:zoom="4.5222222"
     inkscape:cx="58.870323"
     inkscape:cy="45"
     inkscape:window-x="0"
     inkscape:window-y="42"
     inkscape:current-layer="svg602" /><metadata
     id="metadata22"><rdf:RDF><cc:Work
         rdf:about=""><dc:format>image/svg+xml</dc:format><dc:type
           rdf:resource="http://purl.org/dc/dcmitype/StillImage" /></cc:Work></rdf:RDF></metadata><defs
     id="defs604"><linearGradient
       id="linearGradient612"><stop
         offset="0.000000"
         id="stop613"
         style="stop-color:#7fa8e3;stop-opacity:0.741176;" /><stop
         offset="1.000000"
         id="stop614"
         style="stop-color:#ffffff;stop-opacity:0;" /></linearGradient><linearGradient
       id="linearGradient615"
       x1="50.6438866"
       y1="5.36792946"
       gradientTransform="matrix(0,0.5402319,-0.5715026,0,45.9699,11.531115)"
       x2="35.7520943"
       gradientUnits="userSpaceOnUse"
       spreadMethod="pad"
       xlink:href="#linearGradient612"
       y2="68.0443573" /><linearGradient
       inkscape:collect="always"
       id="linearGradient2214"
       x1="50.6438866"
       y1="5.36792946"
       gradientTransform="matrix(0,0.5402319,-0.5715026,0,8.7328732,14.447869)"
       x2="35.7520943"
       gradientUnits="userSpaceOnUse"
       spreadMethod="pad"
       xlink:href="#linearGradient612"
       y2="68.0443573" /><linearGradient
       inkscape:collect="always"
       id="linearGradient2228"
       x1="50.6438866"
       y1="5.36792946"
       gradientTransform="matrix(9.7264505e-2,0.5516144,-0.5799427,0.1022595,42.650289,-2.0842527)"
       x2="35.7520943"
       gradientUnits="userSpaceOnUse"
       spreadMethod="pad"
       xlink:href="#linearGradient612"
       y2="68.0443573" /><linearGradient
       inkscape:collect="always"
       id="linearGradient2230"
       x1="50.6438866"
       y1="5.36792946"
       gradientTransform="matrix(-4.0547167e-3,0.5398778,-0.5224786,4.2893847e-3,46.675658,45.219703)"
       x2="35.7520943"
       gradientUnits="userSpaceOnUse"
       spreadMethod="pad"
       xlink:href="#linearGradient612"
       y2="68.0443573" /></defs><path
     id="path737"
     d="M 41.766807,14.767694 C 41.792545,13.255715 42.866125,10.720903 45.747086,10.499575 C 48.657878,9.7190764 76.169811,7.0058254 78.086088,8.3150885 C 79.594753,8.9915958 80.702246,10.464746 81.086177,13.085731 C 81.468003,15.230327 84.45204,34.737819 83.988889,36.176263 C 83.525698,37.614749 83.134034,38.747881 80.811135,38.851362 C 79.547846,38.744974 53.780415,42.368257 52.260934,42.924118 C 50.481144,43.189342 47.993979,42.753962 47.174679,40.535849 C 46.355405,38.317781 42.114536,16.518683 41.766807,14.767694 z "
     style="fill:#3d4e67;fill-opacity:1;fill-rule:evenodd;stroke:none;stroke-width:1pt;stroke-linecap:butt;stroke-linejoin:miter;stroke-opacity:1"
     sodipodi:nodetypes="ccccccccc" /><path
     id="path738"
     d="M 44.87777,16.554661 C 44.652752,15.088779 44.182343,13.052597 46.512684,12.809379 C 52.029184,11.796611 73.892348,9.4744935 77.445338,11.129111 C 78.280824,11.498668 79.414869,13.505127 79.888296,18.062956 C 80.494013,23.242447 81.41515,33.869978 81.355315,34.98834 C 81.295461,36.106651 81.442691,36.448774 79.112303,36.69202 C 76.63472,36.593239 57.25338,39.966972 53.821873,40.166285 C 51.385883,40.321359 50.350887,40.588244 49.761975,39.219858"
     style="fill:#c7c7c7;fill-opacity:1;fill-rule:evenodd;stroke:none;stroke-width:1pt;stroke-linecap:butt;stroke-linejoin:miter;stroke-opacity:1"
     sodipodi:nodetypes="cccccccs" /><path
     id="path2216"
     d="M 39.787229,14.854422 C 39.371041,13.400624 37.677986,11.230047 34.837905,11.761908 C 31.824289,11.761372 4.5475608,16.261185 3.0354418,18.021806 C 1.7532758,19.065733 1.0647998,20.775328 1.3723108,23.406373 C 1.5585588,25.576717 3.7251108,45.191833 4.5447768,46.46139 C 5.3644918,47.730978 6.0360868,48.72413 8.3066178,48.222875 C 9.4993258,47.793149 35.326526,44.623869 36.9381,44.767519 C 38.725892,44.563062 41.015622,43.498792 41.232917,41.144209 C 41.450196,38.789678 39.90454,16.635746 39.787229,14.854422 z "
     style="fill:#3d4e67;fill-opacity:1;fill-rule:evenodd;stroke:none;stroke-width:1pt;stroke-linecap:butt;stroke-linejoin:miter;stroke-opacity:1"
     sodipodi:nodetypes="ccccccccc" /><path
     id="path2218"
     d="M 37.244773,17.385677 C 37.082723,15.911505 37.010101,13.822953 34.696217,14.191159 C 29.105564,14.640674 7.3863608,18.056286 4.3826818,20.574104 C 3.6713128,21.147308 3.0952188,23.378911 3.8175768,27.903969 C 4.5730498,33.063744 6.4339078,43.567559 6.7811568,44.632327 C 7.1284118,45.697041 7.0747458,46.065611 9.3886858,45.697421 C 11.75628,44.96076 31.350402,43.203276 34.71657,42.507659 C 37.109691,42.026968 38.178496,42.016882 38.393176,40.5427"
     style="fill:#949fb1;fill-opacity:1;fill-rule:evenodd;stroke:none;stroke-width:1pt;stroke-linecap:butt;stroke-linejoin:miter;stroke-opacity:1"
     sodipodi:nodetypes="cccccccs" /><path
     id="path2171"
     d="M 48.223624,75.971657 C 48.197886,77.483636 47.124306,80.018449 44.243345,80.239777 C 41.332553,81.020276 13.820621,83.733527 11.904344,82.424263 C 10.395679,81.747756 9.2881862,80.274606 8.9042552,77.65362 C 8.5224292,75.509024 5.5383912,56.001533 6.0015422,54.563089 C 6.4647332,53.124603 6.8563972,51.991471 9.1792972,51.88799 C 10.442586,51.994378 36.210016,48.371095 37.729497,47.815234 C 39.509287,47.55001 41.996452,47.98539 42.815752,50.203503 C 43.635026,52.421571 47.875895,74.220668 48.223624,75.971657 z "
     style="fill:#3d4e67;fill-opacity:1;fill-rule:evenodd;stroke:none;stroke-width:1pt;stroke-linecap:butt;stroke-linejoin:miter;stroke-opacity:1"
     sodipodi:nodetypes="ccccccccc" /><path
     id="path2173"
     d="M 45.112661,74.18469 C 45.337679,75.650572 45.808088,77.686755 43.477747,77.929973 C 37.961247,78.942741 16.098084,81.264858 12.545094,79.610241 C 11.709608,79.240684 10.575563,77.234224 10.102136,72.676395 C 9.4964192,67.496904 8.5752822,56.869374 8.6351172,55.751012 C 8.6949712,54.632701 8.5477412,54.290578 10.878129,54.047332 C 13.355712,54.146113 32.737051,50.77238 36.168558,50.573067 C 38.604548,50.417993 39.639544,50.151108 40.228456,51.519494"
     style="fill:#c7c7c7;fill-opacity:1;fill-rule:evenodd;stroke:none;stroke-width:1pt;stroke-linecap:butt;stroke-linejoin:miter;stroke-opacity:1"
     sodipodi:nodetypes="cccccccs" /><path
     id="path2175"
     d="M 50.203202,75.884929 C 50.61939,77.338727 52.312445,79.509305 55.152526,78.977444 C 58.166142,78.97798 85.442871,74.478166 86.95499,72.717545 C 88.237156,71.673618 88.925632,69.964023 88.618121,67.332978 C 88.431873,65.162634 86.265321,45.547519 85.445655,44.277962 C 84.62594,43.008374 83.954345,42.015222 81.683813,42.516477 C 80.491105,42.946203 54.663905,46.115483 53.052331,45.971833 C 51.264539,46.17629 48.974809,47.24056 48.757514,49.595143 C 48.540235,51.949674 50.085891,74.103605 50.203202,75.884929 z "
     style="fill:#3d4e67;fill-opacity:1;fill-rule:evenodd;stroke:none;stroke-width:1pt;stroke-linecap:butt;stroke-linejoin:miter;stroke-opacity:1"
     sodipodi:nodetypes="ccccccccc" /><path
     id="path2177"
     d="M 52.745658,73.353674 C 52.907708,74.827846 52.98033,76.916398 55.294214,76.548192 C 60.884867,76.098677 82.60407,72.683065 85.60775,70.165247 C 86.319119,69.592043 86.895213,67.36044 86.172855,62.835382 C 85.417382,57.675607 83.556524,47.171793 83.209275,46.107025 C 82.862019,45.042311 82.915686,44.673741 80.601745,45.041931 C 78.234151,45.778592 58.640029,47.536076 55.273861,48.231693 C 52.88074,48.712384 51.811935,48.72247 51.597255,50.196652"
     style="fill:#c7c7c7;fill-opacity:1;fill-rule:evenodd;stroke:none;stroke-width:1pt;stroke-linecap:butt;stroke-linejoin:miter;stroke-opacity:1"
     sodipodi:nodetypes="cccccccs" /></svg>