<?xml version="1.0" encoding="UTF-8" standalone="no"?>
<!DOCTYPE svg PUBLIC "-//W3C//DTD SVG 20010904//EN"
"http://www.w3.org/TR/2001/REC-SVG-20010904/DTD/svg10.dtd"
[
 <!ATTLIST svg
  xmlns:xlink CDATA #FIXED "http://www.w3.org/1999/xlink">
]>
<!-- Created with Sodipodi ("http://www.sodipodi.com/") -->
<svg
   id="svg548"
   sodipodi:version="0.32"
   xmlns="http://www.w3.org/2000/svg"
   xmlns:sodipodi="http://sodipodi.sourceforge.net/DTD/sodipodi-0.dtd"
   xmlns:xlink="http://www.w3.org/1999/xlink"
   width="72pt"
   height="72pt"
   sodipodi:docbase="/home/zeus/desktop/icons/gartoon/svg"
   sodipodi:docname="/home/zeus/desktop/icons/gartoon/svg/help.svg">
  <defs
     id="defs550" />
  <sodipodi:namedview
     id="base" />
  <path
     style="fill:#000000;fill-rule:evenodd;stroke:none;stroke-opacity:1;stroke-width:1pt;stroke-linejoin:miter;stroke-linecap:butt;fill-opacity:0.3;"
     d="M 20.3183 54.3906 L 32.0484 61.0936 C 34.981 60.4652 43.1502 57.3232 46.5017 55.019 C 45.2449 53.3432 44.826 50.2013 43.9881 47.8971 C 47.3396 47.0593 66.4011 34.7006 61.1645 16.8959 C 46.7113 -16.6188 10.6828 6.21315 10.4733 8.09835 C 10.2639 9.98353 15.5006 18.9907 16.9669 21.2948 L 26.1834 25.4841 L 32.258 21.9232 C 27.2308 31.3492 19.8994 34.0722 18.2236 36.1669 C 17.3858 36.5858 20.5278 55.019 20.3183 54.3906 z "
     id="path577"
     sodipodi:nodetypes="ccccccccccc"
     transform="matrix(1.097592,0.000000,0.000000,1.071284,3.493831,5.744114)" />
  <path
     sodipodi:type="arc"
     style="fill-rule:evenodd;stroke:none;fill:#000000;fill-opacity:0.3;stroke-opacity:1;stroke-width:1pt;stroke-linejoin:miter;stroke-linecap:butt;"
     id="path575"
     d="M 51.947845 68.739090 A 11.939625 10.997026 0 1 0 28.068596,68.739090 A 11.9396 10.997 0 1 0 51.9478 68.7391 L 40.008221 68.739090 z"
     sodipodi:cx="40.008221"
     sodipodi:cy="68.739090"
     sodipodi:rx="11.939625"
     sodipodi:ry="10.997026"
     transform="matrix(1.226628,0.000000,0.000000,1.252240,-3.373398,-10.63585)" />
  <path
     sodipodi:type="arc"
     style="fill-rule:evenodd;stroke:none;fill:#2c0000;fill-opacity:1;stroke-opacity:1;stroke-width:1pt;stroke-linejoin:miter;stroke-linecap:butt;"
     id="path558"
     d="M 51.947845 68.739090 A 11.939625 10.997026 0 1 0 28.068596,68.739090 A 11.9396 10.997 0 1 0 51.9478 68.7391 L 40.008221 68.739090 z"
     sodipodi:cx="40.008221"
     sodipodi:cy="68.739090"
     sodipodi:rx="11.939625"
     sodipodi:ry="10.997026"
     transform="matrix(1.102574,0.000000,0.000000,1.171428,-0.335725,-6.265821)" />
  <path
     style="fill:#2c0000;fill-rule:evenodd;stroke:none;stroke-opacity:1;stroke-width:1pt;stroke-linejoin:miter;stroke-linecap:butt;fill-opacity:1;"
     d="M 20.3183 54.3906 L 32.0484 61.0936 C 34.981 60.4652 43.1502 57.3232 46.5017 55.019 C 45.2449 53.3432 44.826 50.2013 43.9881 47.8971 C 47.3396 47.0593 66.4011 34.7006 61.1645 16.8959 C 46.7113 -16.6188 10.6828 6.21315 10.4733 8.09835 C 10.2639 9.98353 15.5006 18.9907 16.9669 21.2948 L 26.1834 25.4841 L 32.258 21.9232 C 27.2308 31.3492 19.8994 34.0722 18.2236 36.1669 C 17.3858 36.5858 20.5278 55.019 20.3183 54.3906 z "
     id="path556"
     sodipodi:nodetypes="ccccccccccc"
     transform="translate(4.219115,4.470692)" />
  <path
     style="fill:#790000;fill-rule:evenodd;stroke:none;stroke-opacity:1;stroke-width:1pt;stroke-linejoin:miter;stroke-linecap:butt;fill-opacity:1;"
     d="M 24.2982 51.877 L 33.5147 48.3161 L 41.6839 53.3432 L 32.2579 56.6947 L 24.2982 51.877 z "
     id="path553"
     sodipodi:nodetypes="ccccc"
     transform="translate(4.219115,4.470692)" />
  <path
     style="fill:#790000;fill-rule:evenodd;stroke:none;stroke-opacity:1;stroke-width:1pt;stroke-linejoin:miter;stroke-linecap:butt;fill-opacity:1;"
     d="M 33.5147 48.316 C 33.5147 48.316 40.846 53.7622 41.0555 53.7622 C 41.265 53.7622 39.3798 46.0119 39.3798 46.0119 C 74.5702 22.9705 47.7585 7.88889 45.4544 5.79422 C 55.5089 24.4368 37.7041 38.8901 32.2579 43.0794 C 31.839 46.4309 33.7242 48.9445 33.7242 48.9445 L 33.5147 48.316 z "
     id="path554"
     sodipodi:nodetypes="ccccccc"
     transform="translate(4.219115,4.470692)" />
  <path
     style="fill:#790000;fill-rule:evenodd;stroke:none;stroke-opacity:1;stroke-width:1pt;stroke-linejoin:miter;stroke-linecap:butt;fill-opacity:1;"
     d="M 18.4331 16.8959 C 21.3657 18.9907 27.2307 21.0853 27.2307 21.0853 L 37.7041 16.477 C 35.1905 12.7066 26.8118 13.335 18.4331 16.8959 z "
     id="path557"
     sodipodi:nodetypes="cccc"
     transform="translate(4.219115,4.470692)" />
  <path
     style="font-size:12;fill:#790000;fill-rule:evenodd;stroke-width:1pt;fill-opacity:1;"
     d="M 51.1099 70.2053 C 51.1099 74.7725 47.1217 78.4792 42.2077 78.4792 C 37.2935 78.4792 33.3053 74.7725 33.3053 70.2053 C 33.3053 65.6381 44.4154 68.4249 42.2077 61.9314 C 47.1217 61.9314 51.1099 65.6381 51.1099 70.2053 z "
     id="path562"
     transform="matrix(1.003436,0.000000,0.000000,1.091012,2.269937,-1.679497)"
     sodipodi:nodetypes="ccccc" />
  <path
     transform="matrix(0.976369,0.000000,0.000000,1.122264,3.744994,-2.956772)"
     style="font-size:12;fill:#ff0000;fill-rule:evenodd;stroke-width:1pt;"
     d="M 47.549 68.2154 C 47.549 72.3779 43.7954 75.7562 39.1704 75.7562 C 34.5453 75.7562 30.7917 72.3779 30.7917 68.2154 C 30.7917 64.0529 34.5453 60.6746 39.1704 60.6746 C 43.7954 60.6746 47.549 64.0529 47.549 68.2154 z "
     id="path561" />
  <path
     style="fill:#ff0000;fill-rule:evenodd;stroke:none;stroke-opacity:1;stroke-width:1pt;stroke-linejoin:miter;stroke-linecap:butt;fill-opacity:1;"
     d="M 21.7846 38.0522 L 24.0887 52.2959 L 33.5147 48.9444 L 32.4674 43.0794 C 32.4674 43.0794 56.5561 28.4167 50.0626 11.4498 C 43.5692 0.976467 31.839 -0.699263 15.71 10.4025 C 17.8047 13.754 19.4804 18.3623 20.3183 18.3623 C 27.4401 14.3824 37.9135 11.8688 38.542 18.7812 C 39.1704 21.9232 25.9739 37.6332 21.7846 38.0522 z "
     id="path552"
     sodipodi:nodetypes="ccccccccc"
     transform="translate(4.219115,4.470692)" />
</svg>
