<?xml version="1.0" encoding="UTF-8" standalone="no"?>
<!-- Created with Sodipodi ("http://www.sodipodi.com/") -->
<svg
   xmlns:dc="http://purl.org/dc/elements/1.1/"
   xmlns:cc="http://creativecommons.org/ns#"
   xmlns:rdf="http://www.w3.org/1999/02/22-rdf-syntax-ns#"
   xmlns:svg="http://www.w3.org/2000/svg"
   xmlns="http://www.w3.org/2000/svg"
   xmlns:xlink="http://www.w3.org/1999/xlink"
   xmlns:sodipodi="http://sodipodi.sourceforge.net/DTD/sodipodi-0.dtd"
   xmlns:inkscape="http://www.inkscape.org/namespaces/inkscape"
   id="svg695"
   sodipodi:version="0.32"
   width="72pt"
   height="72pt"
   sodipodi:docname="gopchop.svg"
   inkscape:version="0.46+devel"
   inkscape:output_extension="org.inkscape.output.svg.inkscape">
  <metadata
     id="metadata41">
    <rdf:RDF>
      <cc:Work
         rdf:about="">
        <dc:format>image/svg+xml</dc:format>
        <dc:type
           rdf:resource="http://purl.org/dc/dcmitype/StillImage" />
        <dc:title></dc:title>
      </cc:Work>
    </rdf:RDF>
  </metadata>
  <defs
     id="defs697">
    <linearGradient
       id="linearGradient652">
      <stop
         style="stop-color:#ffffff;stop-opacity:0;"
         offset="0"
         id="stop653" />
      <stop
         style="stop-color:#ffffff;stop-opacity:1;"
         offset="1"
         id="stop654" />
    </linearGradient>
    <linearGradient
       id="linearGradient659">
      <stop
         style="stop-color:#ffd056;stop-opacity:1;"
         offset="0"
         id="stop660" />
      <stop
         style="stop-color:#ff933d;stop-opacity:1;"
         offset="1"
         id="stop661" />
    </linearGradient>
    <linearGradient
       inkscape:collect="always"
       xlink:href="#linearGradient652"
       id="linearGradient2371"
       gradientUnits="userSpaceOnUse"
       gradientTransform="matrix(-0.09106705,-0.2264246,1.5501401,-0.6234601,47.715979,63.762844)"
       x1="108.462662"
       y1="6.6808219"
       x2="120.686676"
       y2="6.59777737" />
    <linearGradient
       inkscape:collect="always"
       xlink:href="#linearGradient659"
       id="linearGradient2410"
       gradientUnits="userSpaceOnUse"
       gradientTransform="matrix(-0.2143034,-0.5328335,0.6587235,-0.264936,47.715979,63.762844)"
       x1="42.3279762"
       y1="33.3070946"
       x2="67.5505295"
       y2="59.4537506" />
    <linearGradient
       inkscape:collect="always"
       xlink:href="#linearGradient659"
       id="linearGradient2412"
       gradientUnits="userSpaceOnUse"
       gradientTransform="matrix(-0.2143034,-0.5328335,0.6587235,-0.264936,47.715979,63.762844)"
       x1="42.3279762"
       y1="33.3070946"
       x2="67.5505295"
       y2="59.4537506" />
  </defs>
  <sodipodi:namedview
     id="base"
     inkscape:zoom="4.5222222"
     inkscape:cx="42.494346"
     inkscape:cy="50.227029"
     inkscape:window-width="795"
     inkscape:window-height="623"
     inkscape:window-x="114"
     inkscape:window-y="72"
     inkscape:current-layer="svg695"
     showgrid="false" />
  <path
     style="font-size:12px;fill:#000000;fill-opacity:0.29411765;fill-rule:evenodd;stroke-width:1"
     d="m 67.34399,2.9546941 c -0.86354,0.00439 -1.755744,0.1421968 -2.59375,0.40625 -2.234681,0.7041419 -4.386242,2.2125945 -6.15625,4.3437494 -1.77,2.1311482 -2.843058,4.5177885 -3.125,6.8437505 -0.217794,1.796753 0.07454,3.648134 1.0625,5.09375 -1.656307,0.665255 -3.286543,2.158037 -4.84375,3.3125 -6.192145,2.877768 -13.636765,6.093446 -21.53125,9.5 -1.394795,1.849655 -1.051721,5.542123 0.875,5.71875 5.386388,-1.336237 9.308604,-2.051311 14.84375,-2.375 -0.03833,0.07023 -0.05559,0.14853 -0.09375,0.21875 -2.579809,4.747417 -4.798725,9.462288 -7.40625,14.21875 -0.1003,1.609971 3.247759,3.361152 5.15625,2.875 5.080903,-5.150212 9.662182,-8.858362 14.625,-16.59375 -0.0121,-0.06992 0.05265,-0.200236 0.09375,-0.3125 0.01837,-0.05016 0.02887,-0.125753 0.03125,-0.15625 0.350618,-1.696976 4.052266,-3.055111 5.1875,-4.375 0.740636,0.02075 1.393382,-0.14981 2.03125,-0.34375 0.904058,1.226068 2.26119,2.109381 3.75,2.625 2.223479,0.770056 4.863611,0.845275 7.5625,0.1875 2.698893,-0.657777 5.005169,-1.949502 6.625,-3.65625 1.619831,-1.706748 2.597287,-3.990054 2.03125,-6.3125 -0.566019,-2.322447 -2.495272,-3.917445 -4.71875,-4.6875 -1.111739,-0.385027 -2.318757,-0.590825 -3.59375,-0.625 -1.274993,-0.03418 -2.619299,0.108614 -3.96875,0.4375 -2.698885,0.657778 -5.00517,1.949506 -6.625,3.65625 -0.541121,0.570156 -1.010847,1.196194 -1.375,1.875 -0.654385,-0.01861 -0.955315,-0.547285 -1.875,-0.59375 -0.614519,-0.391291 0.384178,-0.294414 -1.0625,-0.34375 0.660221,-0.628853 0.716315,-1.260622 0.875,-1.90625 0.336869,-0.06593 0.670599,-0.146207 1,-0.25 2.234676,-0.70414 4.386249,-2.212606 6.15625,-4.34375 1.770005,-2.131155 2.874302,-4.517788 3.15625,-6.84375 0.281948,-2.3259625 -0.300109,-4.7343592 -2.125,-6.2499999 -0.912447,-0.7578243 -1.997039,-1.1805109 -3.125,-1.3125 -0.28199,-0.032997 -0.555903,-0.032714 -0.84375,-0.03125 z m 0.34375,3.8124994 c 0.489895,0.05043 0.891531,0.222936 1.1875,0.46875 0.591921,0.491613 0.925414,1.396647 0.75,2.8437505 -0.175414,1.447103 -0.936527,3.255902 -2.28125,4.875 -1.344716,1.619084 -2.984694,2.718169 -4.375,3.15625 -1.390306,0.438081 -2.345572,0.241621 -2.9375,-0.25 -0.591925,-0.491613 -0.956661,-1.396649 -0.78125,-2.84375 0.175411,-1.447101 0.936537,-3.255913 2.28125,-4.875 1.344723,-1.6190975 2.984691,-2.6869175 4.375,-3.1250005 0.695155,-0.219041 1.291355,-0.300431 1.78125,-0.25 z m 9.34375,16.0000005 c 0.913362,0.02504 1.753541,0.169375 2.4375,0.40625 1.367918,0.473749 2.040866,1.176368 2.21875,1.90625 0.177889,0.729877 -0.0972,1.668731 -1.09375,2.71875 -0.996546,1.050019 -2.681263,2.034671 -4.71875,2.53125 -2.037481,0.496577 -3.97583,0.411251 -5.34375,-0.0625 -1.36792,-0.473751 -2.040861,-1.20761 -2.21875,-1.9375 -0.177887,-0.729883 0.09721,-1.637483 1.09375,-2.6875 0.996545,-1.050017 2.681268,-2.065921 4.71875,-2.5625 1.018751,-0.248288 1.992888,-0.337541 2.90625,-0.3125 z"
     id="path3821" />
  <g
     id="g2857"
     transform="matrix(1.0257941,0.15081479,-0.15081479,1.0257941,-0.72990069,-6.8604763)">
    <path
       sodipodi:nodetypes="cccccc"
       id="path2403"
       d="m 65.100566,33.259254 -11.870697,1.489041 c -1.83338,4.966813 -3.279511,9.849824 -5.12732,14.826937 0.130158,1.550351 3.563508,2.765545 5.31644,2.033897 4.125803,-5.627293 7.974803,-9.827992 11.625244,-17.905567 -0.03089,-0.09407 0.06282,-0.348993 0.05633,-0.444308 z"
       style="font-size:12px;fill-rule:evenodd;stroke-width:1" />
    <path
       id="path2408"
       d="m 62.024407,33.456895 -6.343826,1.597193 C 53.60696,41.341677 50.59708,48.565656 50.59708,48.565656 l 1.702136,0.35409 c 3e-6,0 5.893463,-8.750098 9.725191,-15.462851 z"
       style="font-size:12px;fill:url(#linearGradient2412);fill-rule:evenodd;stroke-width:1" />
  </g>
  <path
     style="font-size:12px;fill-opacity:0.29411766;fill-rule:evenodd;stroke-width:1pt;fill:#000000"
     d="m 39.344221,1.2553169 c -1.344307,0.5839779 -5.322063,0.8399697 -6.666264,1.4238796 0.444707,2.2765389 0.177589,4.1479916 0.622296,6.4245306 C 25.092899,12.158928 20.406612,13.835909 12.199259,16.89111 11.226513,14.51295 11.635382,12.40077 12.130822,9.9477002 10.21627,10.759046 7.2869675,11.643111 5.372415,12.454456 c -0.4895248,21.585385 5.225748,52.945192 19.890242,76.195576 1.832689,-0.489989 4.380236,-2.719342 6.212817,-3.209264 -1.449649,-2.201842 -1.713863,-3.013535 -2.645559,-5.115698 6.843151,-2.727841 14.183995,-6.34292 21.027081,-9.070862 1.229884,2.33315 1.943887,3.136905 3.346491,5.503152 2.382911,-0.973937 3.872736,-1.64213 6.255642,-2.616077 C 46.770468,49.200047 40.185676,26.444599 39.344221,1.2553169 z"
     id="path684"
     sodipodi:nodetypes="ccccccccccccc" />
  <path
     style="font-size:12px;fill-rule:evenodd;stroke-width:1pt"
     d="m 42.990372,1.9180718 c -1.344308,0.5839779 -5.322063,0.8399697 -6.666264,1.4238796 0.444706,2.2765389 0.177588,4.1479916 0.622296,6.4245306 -8.207354,3.055201 -12.893641,4.732182 -21.100994,7.787383 -0.972746,-2.37816 -0.563878,-4.49034 -0.06844,-6.94341 -1.914552,0.811346 -4.843855,1.695411 -6.7584072,2.506756 -0.4895249,21.585385 5.2257482,52.945192 19.8902422,76.195576 1.832688,-0.489989 4.380236,-2.719343 6.212817,-3.209264 -1.449649,-2.201842 -1.713863,-3.013535 -2.645559,-5.115699 6.84315,-2.72784 14.183995,-6.34292 21.027081,-9.070861 1.229884,2.333149 1.943887,3.136905 3.346491,5.503152 2.382911,-0.973937 3.872736,-1.64213 6.255641,-2.616078 C 50.416618,49.862802 43.831826,27.107353 42.990372,1.9180718 z"
     id="path559"
     sodipodi:nodetypes="ccccccccccccc" />
  <path
     style="font-size:12px;fill:#ff7f00;fill-opacity:1;fill-rule:evenodd;stroke-width:1pt"
     d="M 31.721155,75.258092 C 27.18841,68.993233 25.226626,61.524946 23.523337,54.463868 c 7.856057,-3.22518 11.801102,-4.253443 19.657159,-7.478622 1.019637,7.018787 3.680281,13.995923 7.442525,20.559415"
     id="path560"
     sodipodi:nodetypes="cccc" />
  <path
     style="font-size:12px;fill:#ff7f00;fill-opacity:1;fill-rule:evenodd;stroke-width:1pt"
     d="m 21.459767,47.631579 c -4.226914,-8.887317 -3.77028,-16.605104 -4.00534,-23.74126 7.856056,-3.225181 10.806633,-3.193536 18.662689,-6.418716 0.56524,7.735715 1.733486,16.659863 4.82624,23.362697"
     id="path561"
     sodipodi:nodetypes="cccc" />
  <path
     style="font-size:12px;fill:#ffffff;fill-rule:evenodd;stroke-width:1pt"
     d="m 29.075917,76.240011 c -1.447251,0.657947 -2.724476,1.088648 -4.171726,1.746597 -0.893573,-2.047977 -1.957237,-3.868546 -2.512083,-6.096906 1.447251,-0.657947 2.555938,-1.135453 4.003189,-1.793401 0.38626,2.181444 1.448371,4.276227 2.68062,6.14371 z"
     id="path563"
     sodipodi:nodetypes="ccccc" />
  <path
     style="font-size:12px;fill:#ffffff;fill-rule:evenodd;stroke-width:1pt"
     d="m 24.645008,65.104682 c -1.507102,0.492791 -2.819191,0.777822 -4.326294,1.270613 -0.636614,-2.148585 -1.468329,-4.089258 -1.749049,-6.379558 1.507102,-0.492791 2.658463,-0.843792 4.165566,-1.336583 0.119959,2.224215 0.917301,4.438771 1.909777,6.445528 z"
     id="path564"
     sodipodi:nodetypes="ccccc" />
  <path
     style="font-size:12px;fill:#ffffff;fill-rule:evenodd;stroke-width:1pt"
     d="m 21.421007,54.295042 c -1.507103,0.49279 -2.819191,0.777821 -4.326294,1.270612 -0.636614,-2.148585 -1.468329,-4.089258 -1.749049,-6.379558 1.507101,-0.492791 2.658463,-0.843792 4.165566,-1.336583 0.119959,2.224216 0.917301,4.438771 1.909777,6.445529 z"
     id="path565"
     sodipodi:nodetypes="ccccc" />
  <path
     style="font-size:12px;fill:#ffffff;fill-rule:evenodd;stroke-width:1pt"
     d="m 18.521151,43.279628 c -1.507102,0.492791 -2.819191,0.777821 -4.326294,1.270612 -0.636614,-2.148585 -1.468329,-4.089258 -1.749049,-6.379558 1.507102,-0.492791 2.658463,-0.843792 4.165566,-1.336583 0.119959,2.224216 0.917301,4.438771 1.909777,6.445529 z"
     id="path566"
     sodipodi:nodetypes="ccccc" />
  <path
     style="font-size:12px;fill:#ffffff;fill-rule:evenodd;stroke-width:1pt"
     d="m 18.521151,43.279628 c -1.507102,0.492791 -2.819191,0.777821 -4.326294,1.270612 -0.636614,-2.148585 -1.468329,-4.089258 -1.749049,-6.379558 1.507102,-0.492791 2.658463,-0.843792 4.165566,-1.336583 0.119959,2.224216 0.917301,4.438771 1.909777,6.445529 z"
     id="path567"
     sodipodi:nodetypes="ccccc" />
  <path
     style="font-size:12px;fill:#ffffff;fill-rule:evenodd;stroke-width:1pt"
     d="m 16.808815,32.224622 c -1.507103,0.492791 -2.819191,0.777822 -4.326294,1.270612 -0.636615,-2.148585 -1.46833,-4.089257 -1.74905,-6.379557 1.507102,-0.492791 2.658464,-0.843792 4.165566,-1.336583 0.119959,2.224215 0.917301,4.438771 1.909778,6.445528 z"
     id="path568"
     sodipodi:nodetypes="ccccc" />
  <path
     style="font-size:12px;fill:#ffffff;fill-rule:evenodd;stroke-width:1pt"
     d="m 56.337658,65.219547 c -1.447251,0.657947 -2.724476,1.088648 -4.171727,1.746596 -0.893572,-2.047976 -1.957236,-3.868545 -2.512082,-6.096905 1.447251,-0.657947 2.555938,-1.135453 4.003189,-1.793401 0.38626,2.181444 1.44837,4.276227 2.68062,6.14371 z"
     id="path569"
     sodipodi:nodetypes="ccccc" />
  <path
     style="font-size:12px;fill:#ffffff;fill-rule:evenodd;stroke-width:1pt"
     d="m 51.906751,54.084208 c -1.507103,0.492791 -2.819191,0.777821 -4.326294,1.270612 -0.636615,-2.148585 -1.46833,-4.089258 -1.74905,-6.379558 1.507102,-0.492791 2.658464,-0.843792 4.165566,-1.336582 0.119959,2.224215 0.917301,4.438771 1.909778,6.445528 z"
     id="path570"
     sodipodi:nodetypes="ccccc" />
  <path
     style="font-size:12px;fill:#ffffff;fill-rule:evenodd;stroke-width:1pt"
     d="m 48.682728,43.274574 c -1.507103,0.492791 -2.819192,0.777822 -4.326294,1.270613 -0.636615,-2.148585 -1.46833,-4.089258 -1.74905,-6.379558 1.507102,-0.492791 2.658463,-0.843792 4.165566,-1.336583 0.119959,2.224216 0.917301,4.438771 1.909778,6.445528 z"
     id="path571"
     sodipodi:nodetypes="ccccc" />
  <path
     style="font-size:12px;fill:#ffffff;fill-rule:evenodd;stroke-width:1pt"
     d="m 45.78287,32.259171 c -1.507103,0.492791 -2.819191,0.777821 -4.326294,1.270612 -0.636614,-2.148585 -1.468329,-4.089258 -1.749049,-6.379558 1.507101,-0.492791 2.658463,-0.843792 4.165566,-1.336583 0.119959,2.224216 0.917301,4.438772 1.909777,6.445529 z"
     id="path572"
     sodipodi:nodetypes="ccccc" />
  <path
     style="font-size:12px;fill:#ffffff;fill-rule:evenodd;stroke-width:1pt"
     d="m 44.070523,21.204164 c -1.507103,0.492791 -2.819191,0.777821 -4.326294,1.270612 -0.636614,-2.148585 -1.468329,-4.089257 -1.749049,-6.379557 1.507101,-0.492792 2.658463,-0.843793 4.165566,-1.336584 0.119959,2.224216 0.917301,4.438772 1.909777,6.445529 z"
     id="path573"
     sodipodi:nodetypes="ccccc" />
  <g
     id="g2847"
     transform="matrix(1.0257941,0.15081479,-0.15081479,1.0257941,-0.72990069,-6.8604763)">
    <path
       id="path650"
       d="m 61.3698,17.702421 c -1.587947,0.82117 -3.000871,2.570163 -4.398527,3.963722 -5.504989,3.614762 -12.173731,7.751048 -19.228956,12.10922 -1.071459,1.960673 -0.217224,5.440681 1.646087,5.338918 4.962241,-2.034792 8.607511,-3.280049 13.860699,-4.366994 -0.02957,0.07965 -0.04889,0.155064 -0.07823,0.234552 l 11.928533,-1.571794 c -0.116492,-1.710442 3.416084,-3.600292 4.342334,-5.0635 1.467778,-0.173951 2.404728,-1.136584 3.872502,-1.310535 0.06419,-0.06119 -1.975735,-3.519982 -0.885659,-7.131987 -2.702012,2.820707 -2.618645,1.216322 -4.190393,1.366876 -0.641287,-0.287168 0.336355,-0.322709 -1.051028,-0.166828 0.824797,-1.054549 0.2504,-1.927751 0.840123,-2.979981 -1.665732,-0.290783 -3.342009,-0.606114 -5.007744,-0.896901 -0.57649,0.01621 -1.120424,0.201509 -1.649739,0.475232 z"
       style="font-size:12px;fill-rule:evenodd;stroke-width:1" />
    <path
       id="path647"
       style="font-size:12px;fill:#ff933d;fill-rule:evenodd;stroke-width:1"
       d="m 73.288509,25.581347 c 0,0 -3.828608,0.09652 -4.724266,0.827777 -0.895678,0.731274 -2.888587,2.753515 -6.06211,4.30843 C 58.315404,30.052798 40.594116,36.65386 40.594116,36.65386 L 40.32118,34.953719 c 0,0 19.480306,-11.953385 22.990951,-11.869336 3.510639,0.08404 6.324178,0.465014 7.030275,-0.20806 0.706112,-0.673094 2.02294,-3.276062 2.66484,-3.887945 -1.530404,3.664193 0.470827,6.534775 0.281263,6.592969 z" />
    <path
       id="path641"
       style="font-size:12px;fill:none;stroke:#000000;stroke-width:3.77042818"
       d="m 77.679946,16.911929 c 4.357663,-1.765996 8.812812,-0.921075 9.950886,1.88718 1.138095,2.808245 -1.471864,6.516412 -5.829504,8.282412 -4.357631,1.765995 -8.812794,0.921072 -9.950883,-1.88719 -1.138084,-2.808251 1.471874,-6.516403 5.829501,-8.282402 z" />
    <path
       sodipodi:nodetypes="cscccsscc"
       id="path646"
       d="m 64.156681,16.136609 c -0.228585,1.68813 -1.216964,4.133781 -1.990255,4.993439 -0.773287,0.859652 -2.878476,2.742171 -4.583454,5.837649 0.163082,1.482097 -0.777321,4.674975 -1.902391,8.086391 l 5.969562,-0.939681 c 1.758675,-3.081 3.552287,-6.48309 3.578727,-7.587494 0.08405,-3.510633 -0.152347,-6.341998 0.553758,-7.015077 0.706089,-0.673077 5.785556,-2.683644 6.427459,-3.295533 -6.39623,2.544081 -7.986209,-0.26626 -8.053406,-0.07969 z"
       style="font-size:12px;fill:url(#linearGradient2410);fill-rule:evenodd;stroke-width:1" />
    <path
       id="path642"
       style="font-size:12px;fill:none;stroke:#000000;stroke-width:3.6866405"
       d="m 62.99642,7.1074165 c 2.44603,-4.0155725 6.526751,-5.9929617 9.114568,-4.4166254 2.587794,1.5763158 2.702724,6.109433 0.256697,10.1250049 -2.44602,4.015547 -6.526739,5.992937 -9.11454,4.416607 -2.587803,-1.576312 -2.70274,-6.109434 -0.256725,-10.1249865 z" />
    <ellipse
       sodipodi:ry="3.359376"
       sodipodi:rx="3.359375"
       sodipodi:cy="33.828117"
       sodipodi:cx="45.703133"
       id="path648"
       style="font-size:12px;fill:#7e0000;fill-rule:evenodd;stroke-width:1"
       transform="matrix(-0.3916107,-0.4108214,0.4108214,-0.3916107,65.778406,58.960565)"
       ry="3.359376"
       rx="3.359375"
       cy="33.828117"
       cx="45.703133"
       d="m 49.062508,33.828117 c 0,1.854376 -1.505,3.359376 -3.359375,3.359376 -1.854375,0 -3.359375,-1.505 -3.359375,-3.359376 0,-1.854375 1.505,-3.359376 3.359375,-3.359376 1.854375,0 3.359375,1.505001 3.359375,3.359376 z" />
    <ellipse
       sodipodi:ry="3.359376"
       sodipodi:rx="3.359375"
       sodipodi:cy="33.828117"
       sodipodi:cx="45.703133"
       id="path649"
       style="font-size:12px;fill:#ff1500;fill-rule:evenodd;stroke-width:1"
       transform="matrix(-0.2641097,-0.2770646,0.2770646,-0.2641097,64.475877,48.534407)"
       ry="3.359376"
       rx="3.359375"
       cy="33.828117"
       cx="45.703133"
       d="m 49.062508,33.828117 c 0,1.854376 -1.505,3.359376 -3.359375,3.359376 -1.854375,0 -3.359375,-1.505 -3.359375,-3.359376 0,-1.854375 1.505,-3.359376 3.359375,-3.359376 1.854375,0 3.359375,1.505001 3.359375,3.359376 z" />
    <path
       id="path651"
       style="font-size:12px;fill:url(#linearGradient2371);fill-rule:evenodd;stroke-width:1"
       d="m 40.438634,36.577534 0.923661,-1.446932 15.479251,-5.365344 -0.255541,2.038566 -16.147371,4.77371 z" />
  </g>
</svg>
