<?xml version="1.0" encoding="UTF-8" standalone="no"?>
<!-- Created with Sodipodi ("http://www.sodipodi.com/") -->
<svg
   xmlns:dc="http://purl.org/dc/elements/1.1/"
   xmlns:cc="http://creativecommons.org/ns#"
   xmlns:rdf="http://www.w3.org/1999/02/22-rdf-syntax-ns#"
   xmlns:svg="http://www.w3.org/2000/svg"
   xmlns="http://www.w3.org/2000/svg"
   xmlns:xlink="http://www.w3.org/1999/xlink"
   xmlns:sodipodi="http://sodipodi.sourceforge.net/DTD/sodipodi-0.dtd"
   xmlns:inkscape="http://www.inkscape.org/namespaces/inkscape"
   id="svg548"
   sodipodi:version="0.32"
   width="72pt"
   height="72pt"
   sodipodi:docbase="/home/tweenk/dev/GartoonRedux/scalable/mimetypes"
   sodipodi:docname="software-properties.svg"
   inkscape:version="0.46+devel"
   inkscape:output_extension="org.inkscape.output.svg.inkscape">
  <metadata
     id="metadata27">
    <rdf:RDF>
      <cc:Work
         rdf:about="">
        <dc:format>image/svg+xml</dc:format>
        <dc:type
           rdf:resource="http://purl.org/dc/dcmitype/StillImage" />
      </cc:Work>
      <cc:Work
         rdf:about="">
        <dc:format>image/svg+xml</dc:format>
        <dc:type
           rdf:resource="http://purl.org/dc/dcmitype/StillImage" />
        <cc:license
           rdf:resource="http://creativecommons.org/licenses/GPL/2.0/" />
      </cc:Work>
      <cc:License
         rdf:about="http://creativecommons.org/licenses/GPL/2.0/">
        <cc:permits
           rdf:resource="http://web.resource.org/cc/Reproduction" />
        <cc:permits
           rdf:resource="http://web.resource.org/cc/Distribution" />
        <cc:requires
           rdf:resource="http://web.resource.org/cc/Notice" />
        <cc:permits
           rdf:resource="http://web.resource.org/cc/DerivativeWorks" />
        <cc:requires
           rdf:resource="http://web.resource.org/cc/ShareAlike" />
        <cc:requires
           rdf:resource="http://web.resource.org/cc/SourceCode" />
      </cc:License>
    </rdf:RDF>
  </metadata>
  <defs
     id="defs550">
    <linearGradient
       id="linearGradient569">
      <stop
         style="stop-color:#c57700;stop-opacity:1;"
         offset="0.000000"
         id="stop570" />
      <stop
         style="stop-color:#ffa75f;stop-opacity:0;"
         offset="1.000000"
         id="stop571" />
    </linearGradient>
    <linearGradient
       id="linearGradient559">
      <stop
         style="stop-color:#945700;stop-opacity:1;"
         offset="0.000000"
         id="stop560" />
      <stop
         style="stop-color:#ffa75f;stop-opacity:0;"
         offset="1.000000"
         id="stop561" />
    </linearGradient>
    <linearGradient
       gradientTransform="matrix(1.036821,-1.811349e-6,3.827296e-7,0.964487,2.057071e-6,1.075978e-6)"
       spreadMethod="pad"
       gradientUnits="userSpaceOnUse"
       y2="21.4794312"
       x2="68.3603058"
       y1="32.8688049"
       x1="28.2520447"
       id="linearGradient587"
       xlink:href="#linearGradient584" />
    <linearGradient
       id="linearGradient584">
      <stop
         id="stop585"
         offset="0.000000"
         style="stop-color:#ffffff;stop-opacity:0;" />
      <stop
         id="stop586"
         offset="1.000000"
         style="stop-color:#ffffff;stop-opacity:1;" />
    </linearGradient>
    <linearGradient
       gradientTransform="scale(1.122498,0.89087)"
       spreadMethod="pad"
       gradientUnits="userSpaceOnUse"
       y2="72.2902298"
       x2="8.33575153"
       y1="79.9603500"
       x1="12.9236002"
       id="linearGradient557"
       xlink:href="#linearGradient554" />
    <linearGradient
       id="linearGradient554">
      <stop
         id="stop555"
         offset="0.000000"
         style="stop-color:#666565;stop-opacity:1;" />
      <stop
         id="stop556"
         offset="1.000000"
         style="stop-color:#ffffff;stop-opacity:1;" />
    </linearGradient>
    <linearGradient
       inkscape:collect="always"
       xlink:href="#linearGradient559"
       id="linearGradient2641"
       gradientTransform="scale(1.1224975,0.8908706)"
       x1="6.2540186"
       y1="75.414543"
       x2="14.462394"
       y2="75.414543"
       gradientUnits="userSpaceOnUse" />
    <linearGradient
       gradientTransform="matrix(0.7296653,0,0,1.2251888,-7.1389191,1.8739714)"
       spreadMethod="pad"
       gradientUnits="userSpaceOnUse"
       y2="42.8786545"
       x2="90.8925323"
       y1="64.9443817"
       x1="92.7804184"
       id="linearGradient568"
       xlink:href="#linearGradient569" />
    <linearGradient
       gradientTransform="matrix(0.5734264,0,0,1.5590094,-6.8541051,2.1587764)"
       spreadMethod="pad"
       gradientUnits="userSpaceOnUse"
       y2="23.6183739"
       x2="58.3435440"
       y1="48.8431816"
       x1="59.0300407"
       id="linearGradient566"
       xlink:href="#linearGradient559" />
    <linearGradient
       gradientTransform="matrix(1.2287685,0,0,0.7275398,-7.1389191,1.8739714)"
       spreadMethod="pad"
       gradientUnits="userSpaceOnUse"
       y2="35.4855690"
       x2="42.7533417"
       y1="31.7318363"
       x1="40.9153252"
       id="linearGradient562"
       xlink:href="#linearGradient559" />
    <linearGradient
       gradientTransform="scale(1.011562,0.98857)"
       spreadMethod="pad"
       gradientUnits="userSpaceOnUse"
       y2="39.579781"
       x2="52.578365"
       y1="71.296051"
       x1="68.311676"
       id="linearGradient680"
       xlink:href="#linearGradient677" />
    <linearGradient
       id="linearGradient677">
      <stop
         id="stop678"
         offset="0.000000"
         style="stop-color:#000000;stop-opacity:1;" />
      <stop
         id="stop679"
         offset="1.000000"
         style="stop-color:#6a6762;stop-opacity:1;" />
    </linearGradient>
    <linearGradient
       gradientTransform="scale(1.017548,0.982755)"
       spreadMethod="pad"
       gradientUnits="userSpaceOnUse"
       y2="53.182751"
       x2="56.455326"
       y1="44.340187"
       x1="49.025764"
       id="linearGradient683"
       xlink:href="#linearGradient684" />
    <linearGradient
       id="linearGradient684">
      <stop
         id="stop685"
         offset="0.000000"
         style="stop-color:#ffffff;stop-opacity:0.647059;" />
      <stop
         id="stop686"
         offset="1.000000"
         style="stop-color:#fdffff;stop-opacity:0;" />
    </linearGradient>
    <linearGradient
       gradientTransform="scale(1.326975,0.753594)"
       spreadMethod="pad"
       gradientUnits="userSpaceOnUse"
       y2="102.82758"
       x2="31.715986"
       y1="98.952934"
       x1="26.295921"
       id="linearGradient688"
       xlink:href="#linearGradient689" />
    <linearGradient
       id="linearGradient689">
      <stop
         id="stop690"
         offset="0.000000"
         style="stop-color:#ffb700;stop-opacity:1;" />
      <stop
         id="stop691"
         offset="1.000000"
         style="stop-color:#fdffff;stop-opacity:0;" />
    </linearGradient>
    <linearGradient
       gradientTransform="scale(0.780786,1.280761)"
       spreadMethod="pad"
       gradientUnits="userSpaceOnUse"
       y2="26.552649"
       x2="-14.069118"
       y1="53.821957"
       x1="33.579441"
       id="linearGradient693"
       xlink:href="#linearGradient689" />
    <linearGradient
       spreadMethod="pad"
       gradientTransform="scale(0.986297,1.013893)"
       gradientUnits="userSpaceOnUse"
       y2="18.4172096"
       x2="45.7012291"
       y1="24.2094688"
       x1="23.9531670"
       id="linearGradient563"
       xlink:href="#linearGradient558" />
    <linearGradient
       id="linearGradient558">
      <stop
         id="stop559"
         offset="0.000000"
         style="stop-color:#7fa8e3;stop-opacity:0.741176;" />
      <stop
         id="stop3377"
         offset="1.000000"
         style="stop-color:#ffffff;stop-opacity:0;" />
    </linearGradient>
    <linearGradient
       y2="43.8150940"
       x2="46.2984352"
       y1="38.8011742"
       x1="73.0144653"
       spreadMethod="pad"
       gradientTransform="scale(0.766548,1.30455)"
       gradientUnits="userSpaceOnUse"
       id="linearGradient4204"
       xlink:href="#linearGradient558"
       inkscape:collect="always" />
  </defs>
  <sodipodi:namedview
     id="base"
     showgrid="false"
     inkscape:zoom="3.9205143"
     inkscape:cx="15.676486"
     inkscape:cy="50.575994"
     inkscape:window-width="795"
     inkscape:window-height="724"
     inkscape:window-x="0"
     inkscape:window-y="1"
     inkscape:current-layer="svg548" />
  <g
     id="g2540"
     transform="matrix(0.7846779,0,0,0.7846779,-0.2378246,-0.7527838)">
    <path
       transform="matrix(0.941981,0,0,0.941981,5.915554,5.37508)"
       sodipodi:ry="40.459522"
       sodipodi:rx="40.459526"
       sodipodi:cy="45.390781"
       sodipodi:cx="43.364311"
       d="M 83.823837,45.390781 A 40.459526,40.459522 0 1 1 2.9047852,45.390781 40.459526,40.459522 0 1 1 83.823837,45.390781 z"
       id="path589"
       style="font-size:12px;fill:none;stroke:#000000;stroke-width:8.5;stroke-opacity:0.3"
       sodipodi:type="arc" />
    <path
       transform="matrix(0.846155,0,0,0.846155,6.256445,5.738268)"
       sodipodi:ry="40.459522"
       sodipodi:rx="40.459526"
       sodipodi:cy="45.390781"
       sodipodi:cx="43.364311"
       d="M 83.823837,45.390781 A 40.459526,40.459522 0 1 1 2.9047852,45.390781 40.459526,40.459522 0 1 1 83.823837,45.390781 z"
       id="path2543"
       style="font-size:12px;fill:#31baff;fill-rule:evenodd;stroke-width:1pt"
       sodipodi:type="arc" />
    <path
       sodipodi:nodetypes="ccccccccc"
       id="path576"
       d="m 28.507,13.4277 5.0005,8.6389 -12.0802,14.964 c 0,0 5.8765,13.7192 10.1312,13.5473 -2.6408,0.5617 -2.6365,11.904 -1.3161,15.4251 4.135,-3.5715 -15.3747,-8.5174 -13.7148,-18.4766 1.6598,-9.9593 0.4862,-12.5098 -4.0785,-5.4553 -4.56468,7.0544 -5.39462,8.9218 -4.97965,5.602 C 7.88442,44.3534 6.46331,19.7781 28.507,13.4277 z"
       style="font-size:12px;fill:#e48e6f;fill-rule:evenodd;stroke-width:1pt" />
    <path
       id="path574"
       d="m 30.7077,12.4007 7.0545,9.9593 -13.694,14.5239 c 0,0 9.5443,13.279 9.5443,13.694 0,0.415 -3.7347,10.7892 -3.7347,10.7892 0,0 -13.279,-7.0545 -11.6191,-17.0137 1.6598,-9.9593 0,-13.694 -4.5647,-6.6395 C 9.12933,44.7683 7.05448,50.9929 7.46945,47.6731 7.88442,44.3534 9.5443,16.5504 30.7077,12.4007 z"
       style="font-size:12px;fill:#fffcac;fill-rule:evenodd;stroke-width:1pt" />
    <path
       sodipodi:nodetypes="ccccccccc"
       id="path575"
       d="m 28.507,13.4277 5.0005,8.6389 -12.0802,14.964 c 0,0 5.8765,13.7192 10.1312,13.5473 -2.6408,0.5617 -3.8814,6.0944 -2.561,9.6155 C 27.5304,55.792 16.5276,56.2407 18.1875,46.2815 19.8473,36.3222 18.2587,30.6594 13.694,37.7139 9.12933,44.7683 7.05448,50.9929 7.46945,47.6731 7.88442,44.3534 6.46331,19.7781 28.507,13.4277 z"
       style="font-size:12px;fill:#ffd87c;fill-rule:evenodd;stroke-width:1pt" />
    <path
       id="path577"
       d="m 42.8405,18.697 c 0,0 5.2817,3.8146 -0.5869,9.3897 -5.8686,5.5752 -14.0845,7.6292 -7.0423,11.4437 7.0423,3.8146 16.7254,4.4014 15.8451,-2.3474 -0.8802,-6.7488 -2.0539,-21.1268 -8.2159,-18.486 z"
       style="font-size:12px;fill:#e48e6f;fill-rule:evenodd;stroke-width:1pt" />
    <path
       transform="matrix(0.968474,0,0,0.938789,2.198177,1.124868)"
       id="path578"
       d="m 42.8405,18.697 c 0,0 5.2817,3.8146 -0.5869,9.3897 -5.8686,5.5752 -14.0845,7.6292 -7.0423,11.4437 7.0423,3.8146 16.7254,4.4014 15.8451,-2.3474 -0.8802,-6.7488 -2.0539,-21.1268 -8.2159,-18.486 z"
       style="font-size:12px;fill:#fffbaa;fill-rule:evenodd;stroke-width:1pt" />
    <path
       transform="matrix(0.82661,0,0,0.889821,6.808317,2.024765)"
       id="path579"
       d="m 42.8405,18.697 c 0,0 5.2817,3.8146 -0.5869,9.3897 -5.8686,5.5752 -14.0845,7.6292 -7.0423,11.4437 7.0423,3.8146 16.7254,4.4014 15.8451,-2.3474 -0.8802,-6.7488 -2.0539,-21.1268 -8.2159,-18.486 z"
       style="font-size:12px;fill:#ffd87c;fill-rule:evenodd;stroke-width:1pt" />
    <path
       id="path580"
       d="m 77.1715,47.1595 c 0,0 -14.0845,-2.054 -14.9648,-1.4671 -0.8803,0.5869 -13.2043,1.7606 -12.0305,8.216 1.1737,6.4554 5.2817,11.7371 0,15.5517 -5.2817,3.8145 -11.1503,6.7488 -5.8686,8.5094 5.2817,1.7605 12.6174,-0.2935 14.9648,-2.3475 2.3474,-2.054 -2.6408,-3.2277 -2.054,-9.0962 0.5869,-5.8686 -1.1737,-9.6831 4.9883,-7.6292 6.162,2.054 5.8686,4.4015 9.9765,0 4.108,-4.4014 7.6292,-5.5751 4.9883,-11.7371 z"
       style="font-size:12px;fill:#e48e6f;fill-rule:evenodd;stroke-width:1pt" />
    <path
       sodipodi:nodetypes="cccccccccc"
       transform="matrix(1,0,0,0.946729,0,2.428446)"
       id="path582"
       d="m 77.1715,47.1595 c 1.1737,-1.5497 -14.0845,-5.7733 -14.9648,-3.3267 -0.8803,-1.8926 -15.8452,0.8308 -14.6713,7.2861 1.1737,6.4555 6.1619,13.5968 0.8802,17.4114 -5.2817,3.8145 -9.3897,7.6786 -4.108,9.4392 5.2817,1.7605 12.6174,-0.2935 14.9648,-2.3475 2.3474,-2.054 -3.8145,-3.2277 -3.2277,-9.0962 0.5869,-5.8686 0,-11.2328 6.162,-9.1789 6.162,2.054 5.8686,4.4015 9.9765,0 4.108,-4.4014 7.6292,-4.0254 4.9883,-10.1874 z"
       style="font-size:12px;fill:#fffcac;fill-rule:evenodd;stroke-width:1pt" />
    <path
       sodipodi:nodetypes="cccccccccc"
       transform="matrix(1,0,0,0.946729,0,2.428446)"
       id="path581"
       d="m 77.1715,47.1595 c 0,0 -14.0845,-2.054 -14.9648,-1.4671 -0.8803,0.5869 -13.2043,1.7606 -12.0305,8.216 1.1737,6.4554 5.2817,11.7371 0,15.5517 -5.2817,3.8145 -11.1503,6.7488 -5.8686,8.5094 5.2817,1.7605 12.6174,-0.2935 14.9648,-2.3475 2.3474,-2.054 -3.8145,-3.2277 -3.2277,-9.0962 0.5869,-5.8686 0,-11.2328 6.162,-9.1789 6.162,2.054 5.8686,4.4015 9.9765,0 4.108,-4.4014 7.6292,-4.0254 4.9883,-10.1874 z"
       style="font-size:12px;fill:#ffd87c;fill-rule:evenodd;stroke-width:1pt" />
    <path
       id="path654"
       d="m 83.8238,45.3908 c 0,22.3336 -18.1258,40.4595 -40.4595,40.4595 -22.3336,0 -40.45951,-18.1259 -40.45951,-40.4595 0,-22.3337 18.12591,-40.45954 40.45951,-40.45954 22.3337,0 40.4595,18.12584 40.4595,40.45954 z"
       style="font-size:12px;fill:none;stroke:#283d53;stroke-width:8.5"
       transform="matrix(0.920224,0,0,0.920224,3.044474,1.961231)" />
    <path
       id="path588"
       d="m 72.1832,30.4342 c 0,9.7183 -8.4788,17.6056 -18.9261,17.6056 -10.4472,0 -18.926,-7.8873 -18.926,-17.6056 0,-9.7184 8.4788,-17.6057 18.926,-17.6057 10.4473,0 18.9261,7.8873 18.9261,17.6057 z"
       style="font-size:12px;fill:url(#linearGradient587);fill-rule:evenodd;stroke-width:1pt"
       transform="matrix(0.933582,-0.664775,0.918324,1.029434,-29.83966,37.88266)" />
  </g>
  <g
     id="g2743"
     transform="matrix(0.7762993,0,0,0.7762993,20.82701,20.98)">
    <path
       id="path594"
       d="M 41.126783,86.944379 C 40.267791,86.568459 6.0797264,81.723193 6.0797264,81.723193 l -3.0923894,1.394269 -0.8589984,-3.49802 2.576987,-3.03514 -2.576987,-0.91956 14.60294,-10.885364 1.374368,0.976093 0.343613,-2.305753 4.123186,-0.401925 44.667819,9.348027 z"
       style="fill:#000000;fill-opacity:0.3;fill-rule:evenodd;stroke:none" />
    <path
       sodipodi:nodetypes="ccccccccccccc"
       id="path564"
       d="m 16.673693,33.243336 c 3.300377,14.894713 2.613468,38.333758 -2.915178,49.810758 L 40.68316,87.362945 73.900512,75.358259 C 72.191703,59.003214 70.767585,40.369694 74.185298,24.584221 L 80.04279,11.201955 74.138779,11.989068 74.926006,8.0531426 C 67.428537,2.8625904 57.937379,1.9442 48.161435,5.2979534 L 47.571062,9.6275486 41.863905,4.7075618 C 29.375972,5.2465936 18.027277,8.6337294 7.8178196,18.286692 z"
       style="fill:#593a28;fill-opacity:1;fill-rule:evenodd;stroke:none" />
    <path
       sodipodi:nodetypes="cccc"
       id="path558"
       d="m 49.539129,19.270583 c -0.393614,0 -28.535878,10.036809 -28.535878,10.036809 0,0 2.558439,18.695829 8.068742,19.089442 5.510397,0.393613 39.359724,-26.370958 39.359724,-26.370958"
       style="fill:url(#linearGradient562);fill-opacity:1;fill-rule:evenodd;stroke:none" />
    <path
       sodipodi:nodetypes="ccccc"
       id="path552"
       d="m 20.806491,31.472123 18.105456,1.574453 c -2.016098,17.451073 -2.323387,34.047694 0.787132,49.789957 0,0 -18.498974,-1.771118 -18.498974,-2.951958 0,-1.180745 5.017789,-27.797344 -0.393614,-48.412452 z"
       style="fill:#e9a93d;fill-opacity:1;fill-rule:evenodd;stroke:none" />
    <path
       sodipodi:nodetypes="ccccc"
       id="path553"
       d="m 69.394996,23.885021 -30.876662,9.555169 0.787227,49.593197 c 0,0 29.519769,-11.0207 29.519769,-12.20154 0,-1.180745 -3.987379,-34.875955 0.569666,-46.946826 z"
       style="fill:#ffe6ba;fill-opacity:1;fill-rule:evenodd;stroke:none" />
    <path
       sodipodi:nodetypes="ccccc"
       id="path556"
       d="M 50.326261,19.270678 42.847891,9.8243269 C 33.663927,11.08821 23.625606,12.352141 15.296094,20.451423 l 5.116784,9.446341 z"
       style="fill:#e3c084;fill-opacity:1;fill-rule:evenodd;stroke:none" />
    <path
       sodipodi:nodetypes="ccccc"
       id="path557"
       d="m 49.539034,19.467532 20.073428,3.73909 1.574454,-10.233474 C 64.079751,10.608282 57.542253,9.3826536 50.719874,11.005129 z"
       style="fill:#e3b463;fill-opacity:1;fill-rule:evenodd;stroke:none" />
    <path
       sodipodi:nodetypes="ccccc"
       id="path554"
       d="m 38.911947,33.046576 c -1.18084,-2.623962 -2.361585,-5.24802 -3.542425,-7.871982 -6.537498,-2.956875 -13.644663,-4.774512 -20.467041,-1.180746 1.83683,2.492727 3.673566,4.985548 5.510397,7.478275 6.166388,0.524849 12.332681,1.049604 18.499069,1.574453 z"
       style="fill:#c89134;fill-opacity:1;fill-rule:evenodd;stroke:none" />
    <path
       sodipodi:nodetypes="ccccc"
       id="path555"
       d="m 38.518334,34.227322 4.723171,-9.446342 c 10.102332,-5.865717 20.48945,-8.598413 30.306901,-9.052728 -1.50874,2.755199 -3.017576,5.510398 -4.526316,8.265596 z"
       style="fill:#e3c084;fill-opacity:1;fill-rule:evenodd;stroke:none" />
    <path
       sodipodi:nodetypes="ccccc"
       id="path565"
       d="m 21.091305,31.756928 c 6.035152,0.524849 12.070304,1.049604 18.105456,1.574453 -3.440121,17.735859 -2.038506,33.491824 0.787132,49.518873 0,0 -18.86042,-1.771118 -18.86042,-2.951958 4.535192,-30.772427 0.871447,-42.326068 -0.032168,-48.141368 z"
       style="fill:url(#linearGradient566);fill-opacity:1;fill-rule:evenodd;stroke:none" />
    <path
       sodipodi:nodetypes="ccccc"
       id="path567"
       d="m 59.426642,32.144566 -20.908308,1.295624 0.787227,49.593197 c 0,0 29.519769,-11.0207 29.519769,-12.20154 C 67.740993,53.386042 59.426642,32.538179 59.426642,32.144566 z"
       style="fill:url(#linearGradient568);fill-opacity:1;fill-rule:evenodd;stroke:none" />
    <path
       sodipodi:nodetypes="ccccc"
       id="path573"
       d="m 23.012112,70.804052 0,7.0768 12.2803,1.8733 0,-7.0768 z"
       style="font-size:12px;fill:#ffffff;fill-opacity:0.70434804;fill-rule:evenodd;stroke-width:1pt" />
    <g
       transform="matrix(0.6772557,0,0,0.6772557,28.570898,28.570262)"
       id="g3817">
      <path
         id="path2421"
         d="M 50.147213,8.8878012 C 31.789583,8.9112875 13.972647,21.40043 8.1784639,39.481552 c -6.6219566,20.664242 4.9554301,40.858883 25.843749,45.0625 20.888213,4.203596 43.221796,-9.148256 49.84375,-29.8125 6.621924,-20.664142 -4.955536,-40.858904 -25.84375,-45.062501 -2.61104,-0.5254523 -5.252481,-0.7846052 -7.875,-0.78125 z m 0,0 m 0,0 m 0,0 m 0,0 m -6.0625,28.437501 c 0.558476,-0.000693 1.131468,0.047664 1.6875,0.15625 4.448232,0.868685 6.910158,5.042207 5.5,9.3125 -1.410167,4.270313 -6.176769,7.056185 -10.625,6.1875 -4.448253,-0.86869 -6.910165,-5.042186 -5.5,-9.3125 1.233888,-3.736508 5.028168,-6.338898 8.9375,-6.34375 z"
         style="font-size:12px;fill:#000000;fill-opacity:0.29411765;fill-rule:evenodd;stroke-width:1pt" />
      <path
         style="font-size:12px;fill:#143c69;fill-rule:evenodd;stroke-width:1pt"
         d="M 44.90625,2.5625 C 26.54862,2.5859863 8.7316839,15.075128 2.9375,33.15625 -3.6844565,53.820492 7.8929302,74.015133 28.78125,78.21875 49.669463,82.422346 72.003046,69.070494 78.625,48.40625 85.246924,27.742108 73.669464,7.5473465 52.78125,3.34375 50.17021,2.8182977 47.528769,2.5591448 44.90625,2.5625 z m 0,0 m 0,0 m 0,0 m 0,0 M 38.84375,31 c 0.558476,-0.000693 1.131468,0.047664 1.6875,0.15625 4.448232,0.868685 6.910158,5.042207 5.5,9.3125 -1.410167,4.270313 -6.176769,7.056185 -10.625,6.1875 -4.448253,-0.86869 -6.910165,-5.042186 -5.5,-9.3125 1.233888,-3.736508 5.028168,-6.338898 8.9375,-6.34375 z"
         id="path2759" />
      <path
         style="font-size:12px;fill:#ffffff;fill-rule:evenodd;stroke-width:1pt"
         d="M 44.0625,7.25 C 28.016595,7.2706008 12.470783,18.23085 7.40625,34.09375 1.6181836,52.222866 11.710836,69.937087 29.96875,73.625 48.226569,77.312896 67.743181,65.597864 73.53125,47.46875 79.319288,29.339722 69.226567,11.625396 50.96875,7.9375 48.686511,7.4765106 46.354772,7.247057 44.0625,7.25 z m 0,0 m 0,0 m 0,0 m 0,0 m -4.40625,19.0625 c 0.868083,-0.001105 1.729466,0.07695 2.59375,0.25 6.914236,1.384395 10.754417,8.038322 8.5625,14.84375 -2.191927,6.80546 -9.585765,11.228146 -16.5,9.84375 C 27.39823,49.865599 23.558073,43.211711 25.75,36.40625 27.667928,30.451502 33.579669,26.320232 39.65625,26.3125 z"
         id="path2761" />
      <path
         sodipodi:nodetypes="cccssccc"
         style="fill:url(#linearGradient563);fill-opacity:1;fill-rule:evenodd;stroke:none"
         d="M 41.28125,10.25 C 31.933144,10.039175 18.75,20.3125 18.75,20.3125 c 0,0 5.922412,10.87538 7.84375,14.0625 2.474406,-4.848289 7.700305,-8.055677 13.0625,-8.0625 0.868083,-0.001105 1.729466,0.07695 2.59375,0.25 0.249116,0.049879 0.477753,0.124179 0.71875,0.1875 L 42.1875,10.3125 C 41.894531,10.283202 41.582802,10.256801 41.28125,10.25 z"
         id="path2763" />
      <path
         style="fill:url(#linearGradient4204);fill-opacity:1;fill-rule:evenodd;stroke:none"
         d="m 48.65625,45.5 c -3.280133,4.363235 -8.949315,6.830095 -14.34375,5.75 -0.312667,-0.062603 -0.606429,-0.135069 -0.90625,-0.21875 L 28.875,73.375 c 0.363523,0.086224 0.723445,0.175202 1.09375,0.25 5.54399,1.11983 11.205989,0.812659 16.5625,-0.65625 3.198422,-1.043333 7.087965,-2.81053 12.0625,-5.65625 0.384835,-0.265933 0.780611,-0.533185 1.15625,-0.8125 0.005263,-0.007442 -0.005145,-0.023715 0,-0.03125 C 61.920082,63.290708 53.691958,51.935458 48.65625,45.5 z"
         id="path3385" />
    </g>
    <g
       transform="matrix(0.50143,0,0,0.50143,43.929162,43.709771)"
       id="g725">
      <defs
         id="defs668" />
      <sodipodi:namedview
         id="namedview741" />
      <path
         transform="matrix(1.120973,0,0,0.970624,-0.312708,8.246927)"
         sodipodi:nodetypes="ccccccccc"
         id="path699"
         d="m 1.43587,43.3341 c 0,0 12.54703,18.7993 22.97403,34.2815 1.9511,1.6554 14.3419,7.5151 17.2305,6.1024 2.576,-1.5688 37.4488,-28.4113 38.0738,-31.5955 0.984,-3.5898 -0.2259,-5.9167 -1.1001,-7.7115 C 77.8962,42.6161 54.5632,6.53978 53.6658,5.64236 52.7684,4.74493 50.2556,3.48854 47.2044,4.56545 39.4401,9.04617 15.007,24.332 2.58248,37.1683 0.96712,38.9632 1.25639,41.5392 1.43587,43.3341 z"
         style="fill:#000000;fill-opacity:0.29824602;fill-rule:evenodd;stroke:none" />
      <path
         id="path671"
         d="m 8.79473,37.4111 c 0,0.0598 0,0.1196 0,0.1795"
         style="fill:none;stroke:#000000;stroke-width:1pt;stroke-linecap:butt;stroke-linejoin:miter;stroke-opacity:1" />
      <path
         sodipodi:nodetypes="ccccccccc"
         id="path676"
         d="m 1.43587,43.3341 c 0,0 12.54703,18.7993 22.97403,34.2815 1.9511,1.6554 14.3419,7.5151 17.2305,6.1024 2.576,-1.5688 37.4488,-28.4113 38.0738,-31.5955 0.984,-3.5898 -0.2259,-5.9167 -1.1001,-7.7115 C 77.8962,42.6161 54.5632,6.53978 53.6658,5.64236 52.7684,4.74493 50.2556,3.48854 47.2044,4.56545 39.4401,9.04617 15.007,24.332 2.58248,37.1683 0.96712,38.9632 1.25639,41.5392 1.43587,43.3341 z"
         style="fill:#261d14;fill-opacity:1;fill-rule:evenodd;stroke:none" />
      <path
         sodipodi:nodetypes="ccccccccccccccc"
         id="path672"
         d="m 8.61525,37.5906 c 0,0 18.66635,29.2559 19.38425,30.5123 0.718,1.2564 2.3334,3.0513 5.5641,3.9487 4.8461,1.9743 9.5126,3.7691 9.8716,3.7691 0.359,0 2.6923,-2.1538 2.6923,-2.1538 L 35.5379,60.3851 59.7683,39.2059 69.9989,54.1031 75.5629,49.616 c 0,0 -25.1278,-40.92241 -25.4868,-40.92241 -0.3589,0 -6.2819,3.58971 -6.2819,3.58971 l 12.5639,19.0253 c 0,0 -24.5894,18.128 -26.7432,19.9228 -1.9743,0 -16.1536,-17.769 -16.1536,-17.769 z"
         style="fill:#f1e36c;fill-opacity:1;fill-rule:evenodd;stroke:none" />
      <path
         sodipodi:nodetypes="ccccc"
         id="path673"
         d="M 14.8972,32.565 29.6149,49.2571 54.2043,30.7702 42.3583,12.8217 z"
         style="fill:#ffffff;fill-opacity:1;fill-rule:evenodd;stroke:none" />
      <path
         sodipodi:nodetypes="ccccccccc"
         id="path674"
         d="m 37.5122,60.5646 9.5127,11.8459 2.3333,-1.7948 -8.2563,-10.2306 c 0,0 2.6923,-3.0513 4.4871,-3.2307 2.8718,2.6922 8.6153,9.8716 8.6153,9.8716 L 69.1015,55.7185 59.2298,41.5392 z"
         style="fill:url(#linearGradient680);fill-opacity:1;fill-rule:evenodd;stroke:none" />
      <path
         sodipodi:nodetypes="ccccccc"
         id="path675"
         d="M 7.92054,38.5345 C 7.20261,38.355 28.897,71.872 29.4355,71.872 c 0.5384,0 12.0254,4.8462 12.0254,4.8462 L 40.743,79.0514 28.7175,75.6413 5.40776,41.25 z"
         style="fill:#f1e36c;fill-opacity:1;fill-rule:evenodd;stroke:none" />
      <path
         id="path681"
         d="m 42.3583,60.2056 7.3589,9.5127 3.2307,-2.6923 -7.7178,-9.3332 z"
         style="fill:#f1e36c;fill-opacity:1;fill-rule:evenodd;stroke:none" />
      <path
         sodipodi:nodetypes="ccccc"
         id="path682"
         d="M 59.0625,42.5 45.1563,54.6875 c 1.1979,3.5416 5.2083,6.302 6.875,8.2812 2.5521,-19.1667 7.9167,-17.5521 13.2813,-10.625 z"
         style="fill:url(#linearGradient683);fill-opacity:1;fill-rule:evenodd;stroke:none" />
      <path
         id="path687"
         d="m 41.25,76.7187 -0.625,2.3438 -12.0312,-3.125 0.4687,-4.0625 z"
         style="fill:url(#linearGradient688);fill-opacity:1;fill-rule:evenodd;stroke:none" />
      <path
         id="path692"
         d="M 28.5938,75.7812 29.375,72.1875 12.5,46.5625 11.5625,50 z"
         style="fill:url(#linearGradient693);fill-opacity:1;fill-rule:evenodd;stroke:none" />
      <path
         sodipodi:nodetypes="ccccc"
         id="path697"
         d="m 14.8438,32.5 6.25,7.0312 26.7188,-18.75 -5.4688,-7.9687 z"
         style="fill:#bae6ff;fill-opacity:1;fill-rule:evenodd;stroke:none" />
    </g>
  </g>
</svg>
