<?xml version="1.0" encoding="UTF-8" standalone="no"?>
<!DOCTYPE svg PUBLIC "-//W3C//DTD SVG 20010904//EN"
"http://www.w3.org/TR/2001/REC-SVG-20010904/DTD/svg10.dtd">
<!-- Created with Sodipodi ("http://www.sodipodi.com/") -->
<svg
   id="svg704"
   sodipodi:version="0.32"
   width="72pt"
   height="72pt"
   sodipodi:docbase="/home/zeus/.icons/gartoon/scalable/apps"
   sodipodi:docname="gucharmap.svg"
   inkscape:version="0.40"
   xmlns="http://www.w3.org/2000/svg"
   xmlns:cc="http://web.resource.org/cc/"
   xmlns:inkscape="http://www.inkscape.org/namespaces/inkscape"
   xmlns:sodipodi="http://sodipodi.sourceforge.net/DTD/sodipodi-0.dtd"
   xmlns:rdf="http://www.w3.org/1999/02/22-rdf-syntax-ns#"
   xmlns:xml="http://www.w3.org/XML/1998/namespace"
   xmlns:dc="http://purl.org/dc/elements/1.1/"
   xmlns:xlink="http://www.w3.org/1999/xlink">
  <metadata
     id="metadata26">
    <rdf:RDF
       id="RDF27">
      <cc:Work
         rdf:about=""
         id="Work28">
        <dc:format
           id="format29">image/svg+xml</dc:format>
        <dc:type
           id="type31"
           rdf:resource="http://purl.org/dc/dcmitype/StillImage" />
      </cc:Work>
    </rdf:RDF>
  </metadata>
  <defs
     id="defs706">
    <linearGradient
       id="linearGradient1715">
      <stop
         style="stop-color:#b8b1ab;stop-opacity:1.0000000;"
         offset="0.0000000"
         id="stop1716" />
      <stop
         style="stop-color:#818075;stop-opacity:1.0000000;"
         offset="1.0000000"
         id="stop1717" />
    </linearGradient>
    <linearGradient
       id="linearGradient734">
      <stop
         style="stop-color:#767574;stop-opacity:1.0000000;"
         offset="0.0000000"
         id="stop735" />
      <stop
         style="stop-color:#e3e1cf;stop-opacity:1;"
         offset="1.000000"
         id="stop736" />
    </linearGradient>
    <linearGradient
       id="linearGradient724">
      <stop
         style="stop-color:#ffffff;stop-opacity:0.490196;"
         offset="0.000000"
         id="stop725" />
      <stop
         style="stop-color:#ffffff;stop-opacity:0.176471;"
         offset="1.000000"
         id="stop726" />
    </linearGradient>
    <linearGradient
       id="linearGradient718">
      <stop
         style="stop-color:#e3e1cf;stop-opacity:1;"
         offset="0.000000"
         id="stop719" />
      <stop
         style="stop-color:#ffffff;stop-opacity:1;"
         offset="1.000000"
         id="stop720" />
    </linearGradient>
    <linearGradient
       xlink:href="#linearGradient718"
       id="linearGradient721"
       x1="45.4330635"
       y1="41.9262352"
       x2="24.0375099"
       y2="27.2048512"
       gradientUnits="userSpaceOnUse"
       spreadMethod="pad"
       gradientTransform="matrix(1.033999,0.000000,0.000000,0.967119,135.8774,-57.15877)" />
    <linearGradient
       xlink:href="#linearGradient724"
       id="linearGradient723"
       x1="40.2607956"
       y1="39.8445053"
       x2="37.3197212"
       y2="68.6665039"
       gradientUnits="userSpaceOnUse"
       spreadMethod="pad"
       gradientTransform="matrix(1.185464,0.000000,0.000000,0.843551,135.8774,-57.15877)" />
    <linearGradient
       xlink:href="#linearGradient734"
       id="linearGradient732" />
    <radialGradient
       xlink:href="#linearGradient734"
       id="radialGradient733"
       cx="33.2134209"
       cy="118.190964"
       fx="33.2134209"
       fy="118.190964"
       r="14.8945398"
       gradientUnits="userSpaceOnUse"
       spreadMethod="pad"
       gradientTransform="scale(1.559286,0.641319)" />
    <radialGradient
       xlink:href="#linearGradient734"
       id="radialGradient738" />
    <linearGradient
       inkscape:collect="always"
       xlink:href="#linearGradient734"
       id="linearGradient1709"
       x1="32.914421"
       y1="66.190117"
       x2="47.190083"
       y2="22.669785"
       gradientUnits="userSpaceOnUse"
       gradientTransform="matrix(1.102541,0.000000,0.000000,1.102541,-4.604739,-3.399411)" />
  </defs>
  <sodipodi:namedview
     id="base"
     inkscape:zoom="1.0000000"
     inkscape:cx="36.000061"
     inkscape:cy="36.000061"
     inkscape:window-width="847"
     inkscape:window-height="799"
     inkscape:window-x="0"
     inkscape:window-y="26"
     inkscape:current-layer="svg704" />
  <rect
     style="opacity:0.99450547;color:#000000;fill:#e3e1cf;fill-opacity:1.0000000;fill-rule:nonzero;stroke:#211301;stroke-width:6.2500000;stroke-linecap:butt;stroke-linejoin:round;stroke-miterlimit:4.0000000;stroke-dashoffset:0.0000000;stroke-opacity:1.0000000;marker:none;marker-start:none;marker-mid:none;marker-end:none;visibility:visible;display:block"
     id="rect1082"
     width="71.761330"
     height="71.761330"
     x="8.2418957"
     y="9.9967718"
     rx="7.2959838"
     ry="9.0637503" />
  <rect
     style="opacity:0.44505492;color:#000000;fill:url(#linearGradient1709);fill-opacity:1.0000000;fill-rule:nonzero;stroke:none;stroke-width:4.4825258;stroke-linecap:butt;stroke-linejoin:round;stroke-miterlimit:4.0000000;stroke-dashoffset:0.0000000;stroke-opacity:1.0000000;marker:none;marker-start:none;marker-mid:none;marker-end:none;visibility:visible;display:block"
     id="rect1704"
     width="56.745037"
     height="56.745037"
     x="15.116853"
     y="18.257006"
     rx="10.278556"
     ry="12.284126" />
  <path
     transform="matrix(3.142748,0.000000,0.000000,3.142748,-121.1658,-60.27617)"
     style="font-size:12.000000;font-style:normal;font-variant:normal;font-weight:normal;font-stretch:normal;fill:#000000;fill-opacity:1.0000000;stroke:none;stroke-width:1.0000000pt;stroke-linecap:butt;stroke-linejoin:miter;stroke-opacity:1.0000000;font-family:Bitstream Vera Sans;text-anchor:start;writing-mode:lr"
     d="M 59.030183,37.884816 C 58.678171,37.908817 58.318172,37.776817 57.950183,37.488816 C 57.758172,37.336817 57.566172,37.144817 57.374183,36.912816 C 57.262173,37.072817 57.102173,37.280817 56.894183,37.536816 C 56.630173,37.752817 56.330174,37.860817 55.994183,37.860816 C 55.890174,37.860817 55.738174,37.836817 55.538183,37.788816 L 55.346183,37.704816 L 55.178183,37.596816 C 55.178175,38.076816 55.162175,38.344816 55.130183,38.400816 L 55.106183,38.592816 L 55.070183,38.808816 C 55.070175,38.832816 55.058175,38.864816 55.034183,38.904816 L 55.010183,39.024816 L 54.962183,39.156816 C 54.946175,39.228815 54.930175,39.272815 54.914183,39.288816 L 54.854183,39.444816 C 54.542175,40.100814 54.158176,40.580814 53.702183,40.884816 C 53.086177,41.308813 52.290178,41.520813 51.314183,41.520816 C 50.490179,41.520813 49.762180,41.316813 49.130183,40.908816 C 48.738181,40.668814 48.358182,40.200814 47.990183,39.504816 L 47.870183,39.144816 L 47.750183,38.712816 C 47.702182,38.424816 47.678182,38.140816 47.678183,37.860816 L 47.678183,37.680816 C 47.678182,37.592817 47.682182,37.544817 47.690183,37.536816 L 47.702183,37.368816 L 47.786183,37.104816 L 47.990183,36.276816 L 48.038183,36.192816 L 48.086183,36.108816 L 49.262183,36.516816 L 49.190183,36.720816 L 49.130183,36.936816 L 49.010183,37.428816 L 48.974183,37.884816 C 48.942181,38.340816 49.046181,38.732816 49.286183,39.060816 C 49.414180,39.236815 49.582180,39.392815 49.790183,39.528816 C 49.982180,39.656815 50.210180,39.748815 50.474183,39.804816 L 50.690183,39.852816 L 50.918183,39.876816 L 51.122183,39.900816 L 51.362183,39.912816 C 52.218178,39.936815 52.854177,39.732815 53.270183,39.300816 C 53.622176,38.932816 53.798176,38.388816 53.798183,37.668816 C 53.798176,37.316817 53.734176,36.984817 53.606183,36.672816 L 53.318183,35.916816 L 53.162183,35.604816 L 52.994183,35.256816 L 52.682183,34.692816 L 53.834183,33.960816 L 54.398183,34.992816 L 54.554183,35.256816 L 54.890183,35.724816 C 55.154175,36.076818 55.434174,36.252818 55.730183,36.252816 C 55.922174,36.252818 56.082174,36.188818 56.210183,36.060816 C 56.354174,35.884819 56.426173,35.652819 56.426183,35.364816 L 56.426183,33.924816 L 57.686183,33.924816 L 57.686183,34.524816 L 57.710183,34.908816 C 57.734172,35.324819 57.822172,35.636819 57.974183,35.844816 C 58.166172,36.116818 58.438171,36.252818 58.790183,36.252816 C 59.238171,36.252818 59.462170,36.040818 59.462183,35.616816 C 59.462170,35.424819 59.338171,35.116819 59.090183,34.692816 L 58.814183,34.212816 L 59.978183,33.492816 L 60.290183,34.044816 L 60.434183,34.332816 L 60.530183,34.584816 L 60.674183,34.908816 L 60.794183,35.244816 C 60.850169,35.460819 60.878169,35.636819 60.878183,35.772816 L 60.878183,35.832816 L 60.878183,36.048816 L 60.866183,36.144816 L 60.842183,36.300816 L 60.842183,36.408816 L 60.818183,36.456816 L 60.746183,36.660816 C 60.650169,36.940818 60.510169,37.164817 60.326183,37.332816 L 59.750183,37.740816 L 59.390183,37.848816 L 59.198183,37.872816 L 59.030183,37.884816"
     id="text1718" />
</svg>
