<?xml version="1.0" encoding="UTF-8" standalone="no"?>
<!-- Created with Sodipodi ("http://www.sodipodi.com/") -->
<svg
   xmlns:dc="http://purl.org/dc/elements/1.1/"
   xmlns:cc="http://creativecommons.org/ns#"
   xmlns:rdf="http://www.w3.org/1999/02/22-rdf-syntax-ns#"
   xmlns:svg="http://www.w3.org/2000/svg"
   xmlns="http://www.w3.org/2000/svg"
   xmlns:xlink="http://www.w3.org/1999/xlink"
   xmlns:sodipodi="http://sodipodi.sourceforge.net/DTD/sodipodi-0.dtd"
   xmlns:inkscape="http://www.inkscape.org/namespaces/inkscape"
   id="svg604"
   sodipodi:version="0.32"
   width="72pt"
   height="72pt"
   sodipodi:docname="kdevelop.svg"
   inkscape:version="0.46+devel"
   inkscape:output_extension="org.inkscape.output.svg.inkscape">
  <metadata
     id="metadata32">
    <rdf:RDF>
      <cc:Work
         rdf:about="">
        <dc:format>image/svg+xml</dc:format>
        <dc:type
           rdf:resource="http://purl.org/dc/dcmitype/StillImage" />
        <dc:title></dc:title>
      </cc:Work>
    </rdf:RDF>
  </metadata>
  <defs
     id="defs606">
    <linearGradient
       inkscape:collect="always"
       id="linearGradient3507">
      <stop
         style="stop-color:#2aaf18;stop-opacity:1"
         offset="0"
         id="stop3509" />
      <stop
         style="stop-color:#34674b;stop-opacity:1"
         offset="1"
         id="stop3511" />
    </linearGradient>
    <linearGradient
       id="linearGradient584">
      <stop
         id="stop585"
         offset="0.000000"
         style="stop-color:#ffffff;stop-opacity:0;" />
      <stop
         id="stop586"
         offset="1.000000"
         style="stop-color:#ffffff;stop-opacity:1;" />
    </linearGradient>
    <linearGradient
       inkscape:collect="always"
       xlink:href="#linearGradient584"
       id="linearGradient2719"
       gradientUnits="userSpaceOnUse"
       gradientTransform="matrix(0.71344095,-0.50802164,0.65282244,0.73180842,-1.3480185,30.059125)"
       spreadMethod="pad"
       x1="28.2520447"
       y1="32.8688049"
       x2="68.3603058"
       y2="21.4794312" />
    <linearGradient
       inkscape:collect="always"
       xlink:href="#linearGradient3507"
       id="linearGradient3513"
       x1="43.68969"
       y1="23.450628"
       x2="51.397388"
       y2="41.770832"
       gradientUnits="userSpaceOnUse"
       gradientTransform="matrix(0.6640461,-0.03625501,0.03625501,0.6640461,9.610693,23.624865)" />
    <linearGradient
       inkscape:collect="always"
       xlink:href="#linearGradient3507"
       id="linearGradient3521"
       gradientUnits="userSpaceOnUse"
       gradientTransform="matrix(0.6640461,-0.03625501,0.03625501,0.6640461,9.610693,23.624865)"
       x1="43.68969"
       y1="23.450628"
       x2="51.397388"
       y2="41.770832" />
    <linearGradient
       inkscape:collect="always"
       xlink:href="#linearGradient3507"
       id="linearGradient3524"
       gradientUnits="userSpaceOnUse"
       gradientTransform="matrix(0.66830241,-0.38069539,0.38069539,0.66830241,-1.336984,38.350143)"
       x1="46.645325"
       y1="22.534538"
       x2="51.397388"
       y2="41.770832" />
  </defs>
  <sodipodi:namedview
     id="base"
     showgrid="false"
     inkscape:zoom="5.5333334"
     inkscape:cx="54.733277"
     inkscape:cy="43.942871"
     inkscape:window-width="695"
     inkscape:window-height="724"
     inkscape:window-x="319"
     inkscape:window-y="9"
     inkscape:current-layer="svg604" />
  <path
     id="path628"
     d="m 11.348956,15.653367 -2.8631841,3.181332 7.6351753,8.9077 c 0,0 -9.8621087,9.8621099 -9.8621087,10.498372 0,0.63626202 -0.63626202,14.315954 -0.63626202,14.315954 l 7.9533127,0.954398 2.545058,7.953314 -7.3170494,9.543963 14.952226,13.04343 6.044517,-9.225837 8.589575,1.272525 -0.954399,9.543973 22.269268,3.181322 -0.636262,-10.816499 5.408243,-2.226922 6.998914,9.225838 L 85.740288,73.797654 71.285043,52.34345 37.117682,11.199522 c 0,1.272524 -18.451674,5.7263797 -18.451674,5.7263797"
     style="fill:#000000;fill-opacity:0.29411765;fill-rule:evenodd;stroke:none"
     sodipodi:nodetypes="cccscccccccccccccccc" />
  <path
     sodipodi:nodetypes="ccccccccccccccccccccc"
     id="path621"
     d="m 22.825393,0.92312535 -13.375626,13.057484 6.630953,8.221615 -2.456903,5.180828 -9.8506033,1.934335 0.992726,19.968258 8.8323283,0.661812 4.085886,7.115173 -7.2672099,7.9035 13.680973,13.044696 5.663781,-7.547018 6.809813,1.769539 -0.012775,8.578075 20.286373,2.9015195 0,-9.863396 7.738671,-3.7038645 7.279992,7.85238 L 84.946802,67.854865 75.970124,53.196604 30.105375,7.8594338 C 28.119917,6.2048892 26.006715,2.1828739 22.825393,0.92312535 z"
     style="fill:#000000;fill-opacity:1;fill-rule:evenodd;stroke:none" />
  <path
     id="path620"
     d="m 22.861166,6.2097206 -8.271448,8.2714394 6.680778,6.680777 -5.72638,10.180236 -7.6351769,0.636262 0.9543974,13.997829 6.0445175,0.636262 6.680778,10.816498 -6.680778,6.680788 7.953312,7.953302 6.362643,-5.726379 11.134634,4.453856 -0.318137,7.635176 13.99783,0.95439793 0,-7.9533131 10.498372,-5.0901168 6.998904,5.408254 8.90771,-6.998915 L 75.67113,56.792762 29.86007,12.572363 C 27.951273,10.981702 22.861166,5.8915844 22.861166,6.2097206 z"
     style="fill:#d8d8d8;fill-opacity:1;fill-rule:evenodd;stroke:none"
     sodipodi:nodetypes="ccccccccccccccccccccc" />
  <path
     id="path624"
     d="M 20.634235,20.525675 21.270496,17.980616 17.771038,13.526761 24.769954,7.8003812 22.861166,5.8915844 14.589718,14.163022 z"
     style="fill:#ffffff;fill-opacity:1;fill-rule:evenodd;stroke:none" />
  <path
     id="path625"
     d="M 16.889425,30.665015 14.271581,32.932832 10.135867,33.25097 10.772131,45.658128 8.5452044,45.976264 7.90894,31.024037 z"
     style="fill:#ffffff;fill-opacity:1;fill-rule:evenodd;stroke:none"
     sodipodi:nodetypes="ccccccc" />
  <path
     id="path626"
     d="m 14.532877,64.305263 7.887478,6.942072 -3.694918,-7.137523 3.499457,-6.998914 z"
     style="fill:#ffffff;fill-opacity:1;fill-rule:evenodd;stroke:none"
     sodipodi:nodetypes="ccccc" />
  <path
     id="path627"
     d="m 40.358443,70.472454 2.8631847,0.9543989 -0.31812646,6.9989144 -3.1813208,0 z"
     style="fill:#ffffff;fill-opacity:1;fill-rule:evenodd;stroke:none" />
  <path
     id="path3372"
     d="m 49.289411,7.0537744 c -16.707657,0 -30.311573,13.6038466 -30.311573,30.3115756 0,16.707657 13.603912,30.334607 30.311573,30.334607 16.707723,0 30.334604,-13.626961 30.334607,-30.334607 0,-16.707718 -13.626889,-30.3115756 -30.334607,-30.3115756 z"
     style="font-size:12px;fill:#000000;fill-opacity:0.29411765;stroke:none" />
  <path
     sodipodi:type="arc"
     style="font-size:12px;fill:#2aaf18;fill-rule:evenodd;stroke-width:1pt"
     id="path573"
     d="m 83.823837,45.390781 a 40.459526,40.459522 0 1 1 -80.9190518,0 40.459526,40.459522 0 1 1 80.9190518,0 z"
     sodipodi:cx="43.364311"
     sodipodi:cy="45.390781"
     sodipodi:rx="40.459526"
     sodipodi:ry="40.459522"
     transform="matrix(0.62366665,0,0,0.62366665,25.256958,6.3667906)" />
  <path
     style="font-size:12px;fill:none;stroke:#274d38;stroke-width:5.76520872000000040"
     d="m 79.74386,34.369647 c 0,15.147982 -12.294002,27.442051 -27.442053,27.442051 -15.147984,0 -27.442061,-12.294069 -27.442061,-27.442051 0,-15.148055 12.294077,-27.442081 27.442061,-27.442081 15.148051,0 27.442053,12.294026 27.442053,27.442081 z"
     id="path654" />
  <path
     sodipodi:type="arc"
     style="fill:#ffffff;fill-opacity:1;stroke:none"
     id="path3515"
     sodipodi:cx="44.548191"
     sodipodi:cy="44.548195"
     sodipodi:rx="10.391566"
     sodipodi:ry="10.391566"
     d="m 54.939757,44.548195 a 10.391566,10.391566 0 1 1 -20.783132,0 10.391566,10.391566 0 1 1 20.783132,0 z"
     transform="matrix(1.1565217,0,0,1.1565217,-5.1655314,-9.8643271)" />
  <path
     style="fill:url(#linearGradient3524);fill-opacity:1;stroke:none"
     d="m 37.182248,35.764135 c 1.795002,5.980073 3.38201,10.711033 7.857049,16.320284 3.545405,-2.221716 9.583129,-5.80173 11.619982,-10.819572 -4.99632,-2.592828 -14.976125,-6.304971 -19.477031,-5.500712 z"
     id="path2733"
     sodipodi:nodetypes="cccc" />
  <path
     style="font-size:12px;fill:url(#linearGradient2719);fill-rule:evenodd;stroke-width:1pt"
     d="M 68.921311,17.782973 C 75.499235,25.156772 75.00352,35.295726 67.814676,40.414682 60.6259,45.533586 49.452997,43.703494 42.875075,36.329696 36.297083,28.955814 36.792798,18.81686 43.981573,13.697956 51.170417,8.5790029 62.34332,10.409094 68.921311,17.782973 z"
     id="path588" />
</svg>
