<?xml version="1.0" encoding="UTF-8" standalone="no"?>
<!-- Created with Sodipodi ("http://www.sodipodi.com/") -->
<svg
   xmlns:dc="http://purl.org/dc/elements/1.1/"
   xmlns:cc="http://creativecommons.org/ns#"
   xmlns:rdf="http://www.w3.org/1999/02/22-rdf-syntax-ns#"
   xmlns:svg="http://www.w3.org/2000/svg"
   xmlns="http://www.w3.org/2000/svg"
   xmlns:xlink="http://www.w3.org/1999/xlink"
   xmlns:sodipodi="http://sodipodi.sourceforge.net/DTD/sodipodi-0.dtd"
   xmlns:inkscape="http://www.inkscape.org/namespaces/inkscape"
   version="1.0"
   x="0"
   y="0"
   width="90.0000000"
   height="90.0000000"
   id="svg604"
   sodipodi:version="0.32"
   sodipodi:docname="mathematica.svg"
   sodipodi:docbase="/home/zeus/.icons/gartoon/scalable/mimetypes"
   inkscape:version="0.46+devel"
   inkscape:output_extension="org.inkscape.output.svg.inkscape">
  <metadata
     id="metadata13">
    <rdf:RDF>
      <cc:Work
         rdf:about="">
        <dc:format>image/svg+xml</dc:format>
        <dc:type
           rdf:resource="http://purl.org/dc/dcmitype/StillImage" />
      </cc:Work>
    </rdf:RDF>
  </metadata>
  <sodipodi:namedview
     id="base"
     inkscape:zoom="3.5649967"
     inkscape:cx="48.126545"
     inkscape:cy="41.567122"
     inkscape:window-width="691"
     inkscape:window-height="724"
     inkscape:window-x="271"
     inkscape:window-y="1"
     inkscape:current-layer="svg604"
     showgrid="false" />
  <defs
     id="defs606">
    <linearGradient
       inkscape:collect="always"
       id="linearGradient3345">
      <stop
         style="stop-color:#ed0000;stop-opacity:1"
         offset="0"
         id="stop3347" />
      <stop
         style="stop-color:#f1e36c;stop-opacity:1"
         offset="1"
         id="stop3349" />
    </linearGradient>
    <linearGradient
       inkscape:collect="always"
       id="linearGradient3337">
      <stop
         style="stop-color:#ed0000;stop-opacity:1"
         offset="0"
         id="stop3339" />
      <stop
         style="stop-color:#f1e36c;stop-opacity:1"
         offset="1"
         id="stop3341" />
    </linearGradient>
    <linearGradient
       inkscape:collect="always"
       id="linearGradient3321">
      <stop
         style="stop-color:#ed0000;stop-opacity:1"
         offset="0"
         id="stop3323" />
      <stop
         style="stop-color:#f1e36c;stop-opacity:1"
         offset="1"
         id="stop3325" />
    </linearGradient>
    <linearGradient
       inkscape:collect="always"
       id="linearGradient3313">
      <stop
         style="stop-color:#ed0000;stop-opacity:1"
         offset="0"
         id="stop3315" />
      <stop
         style="stop-color:#f1e36c;stop-opacity:1"
         offset="1"
         id="stop3317" />
    </linearGradient>
    <linearGradient
       inkscape:collect="always"
       id="linearGradient3303">
      <stop
         style="stop-color:#ed0000;stop-opacity:1"
         offset="0"
         id="stop3305" />
      <stop
         style="stop-color:#f1e36c;stop-opacity:1"
         offset="1"
         id="stop3307" />
    </linearGradient>
    <linearGradient
       inkscape:collect="always"
       id="linearGradient3293">
      <stop
         style="stop-color:#ed0000;stop-opacity:1"
         offset="0"
         id="stop3295" />
      <stop
         style="stop-color:#f1e36c;stop-opacity:1"
         offset="1"
         id="stop3297" />
    </linearGradient>
    <radialGradient
       inkscape:collect="always"
       xlink:href="#linearGradient3303"
       id="radialGradient2509"
       gradientUnits="userSpaceOnUse"
       gradientTransform="matrix(0.9647252,0.1410994,-0.2348271,1.6055609,10.413839,-27.958318)"
       cx="49.923401"
       cy="36.84753"
       fx="49.923401"
       fy="36.84753"
       r="11.927984" />
    <radialGradient
       inkscape:collect="always"
       xlink:href="#linearGradient3337"
       id="radialGradient2511"
       gradientUnits="userSpaceOnUse"
       gradientTransform="matrix(-0.3983671,-1.763749,0.9941241,-0.2245367,2.2924891,93.351737)"
       cx="26.817785"
       cy="34.448589"
       fx="26.817785"
       fy="34.448589"
       r="11.970334" />
    <radialGradient
       inkscape:collect="always"
       xlink:href="#linearGradient3321"
       id="radialGradient2513"
       gradientUnits="userSpaceOnUse"
       gradientTransform="matrix(0.8031993,-0.2537184,0.1808849,0.5726295,2.2503054,18.989301)"
       cx="37.475998"
       cy="33.214912"
       fx="37.475998"
       fy="33.214912"
       r="19.424983" />
    <radialGradient
       inkscape:collect="always"
       xlink:href="#linearGradient3313"
       id="radialGradient2515"
       gradientUnits="userSpaceOnUse"
       gradientTransform="matrix(0.903734,-0.1419479,0.2185149,1.3912087,-7.371685,-14.603978)"
       cx="44.880829"
       cy="53.507492"
       fx="44.880829"
       fy="53.507492"
       r="11.640964" />
    <radialGradient
       inkscape:collect="always"
       xlink:href="#linearGradient3345"
       id="radialGradient2517"
       gradientUnits="userSpaceOnUse"
       gradientTransform="matrix(-0.8378137,1.0192815,-1.1266938,-0.926103,113.76166,67.43163)"
       cx="30.500353"
       cy="51.21862"
       fx="30.500353"
       fy="51.21862"
       r="6.5171603" />
    <radialGradient
       inkscape:collect="always"
       xlink:href="#linearGradient3293"
       id="radialGradient2519"
       gradientUnits="userSpaceOnUse"
       gradientTransform="matrix(0.5904702,1.8255186e-2,-2.1004961e-2,0.6794127,15.921261,13.115908)"
       cx="35.849491"
       cy="43.044579"
       fx="35.206711"
       fy="43.638855"
       r="20.476877" />
  </defs>
  <path
     transform="matrix(1.1619926,-3.3012663e-2,3.3012663e-2,1.1619926,-1.1040464,2.232666)"
     d="m 44.34375,2.96875 c -1.604814,0.0538139 -2.98073,1.1621907 -3.375,2.71875 -1.276616,5.045676 -3.42592,8.575104 -5,9.46875 -0.78704,0.446823 -1.42169,0.59163 -2.78125,0.1875 -1.321113,-0.392701 -3.294901,-1.533897 -5.6875,-3.75 -0.470424,-0.621046 -0.955589,-1.287278 -1.53125,-2 -0.562959,-0.6726272 -1.351763,-1.1170239 -2.21875,-1.25 -0.051847,-0.0115662 -0.103943,-0.0219854 -0.15625,-0.03125 -0.041477,-0.0111602 -0.083151,-0.0215786 -0.125,-0.03125 -1.44069,-0.3441387 -2.945301,0.2276673 -3.7938,1.4417796 -0.848499,1.2141124 -0.868309,2.8235924 -0.04995,4.0582204 0.385388,0.566284 0.749376,1.119921 1.125,1.6875 0.992025,2.467557 1.409418,4.412684 1.59375,5.875 -0.589105,0.630158 -0.932808,1.450611 -0.96875,2.3125 -1.187505,0.042552 -3.439434,-0.327648 -6.59375,-1.4375 -1.656937,-0.572254 -3.485384,0.129887 -4.333428,1.664075 -0.8480445,1.534189 -0.4700163,3.455989 0.895928,4.554675 3.672181,2.937745 5.889049,5.854754 5.9375,7.1875 0.024225,0.666373 -0.128608,1.383496 -1.5,2.78125 -1.371392,1.397754 -3.978125,3.201736 -8.15625,5.125 -1.6002078,0.727426 -2.4428374,2.502594 -1.994732,4.202304 0.4481054,1.69971 2.0563847,2.82873 3.807232,2.672696 1.177122,-0.105414 1.848477,-0.183897 2.78125,-0.28125 0.661619,1.052882 1.819001,1.690623 3.0625,1.6875 0.041664,0.000722 0.083336,0.000722 0.125,0 0.19758,0.016321 0.39617,0.016321 0.59375,0 1.746719,-0.137899 3.209676,-0.180236 4.6875,-0.21875 0.271807,0.487385 0.420822,0.901924 0.4375,1.40625 0.030296,0.916123 -0.388839,2.852737 -2.375,6.3125 -0.860871,1.533794 -0.489686,3.464887 0.878466,4.57023 1.368152,1.105343 3.334126,1.062464 4.652784,-0.10148 1.821778,-1.645477 2.872216,-2.199271 3.875,-2.40625 0.568344,-0.117308 1.325876,-0.084239 2.28125,0.03125 0.108216,1.510691 0.271645,2.883556 0.1875,4.875 -0.068199,1.633137 0.97056,3.107918 2.53125,3.59375 0.034811,0.928471 0.047838,1.401466 0.125,2.6875 0.129223,1.684751 1.41089,3.05389 3.083457,3.293899 1.672566,0.24001 3.287524,-0.71347 3.885293,-2.293899 2.270501,-6.261076 4.701333,-10.328845 5.96875,-11.03125 0.633708,-0.351203 1.025156,-0.470902 2.53125,0.125 1.506094,0.595902 3.843455,2.131662 6.8125,4.96875 1.22311,1.152193 3.079891,1.306956 4.476869,0.373147 1.396979,-0.933809 1.963892,-2.708688 1.366881,-4.279397 -1.797959,-4.594783 -2.271861,-6.741508 -2.3125,-7.53125 -0.012655,-0.245923 0.177717,-0.710768 0.21875,-0.90625 0.777014,-0.186792 1.490127,-0.300871 2.40625,-0.21875 1.472854,0.132026 3.758315,0.740198 7.5,2.25 1.693824,0.677278 3.626658,-0.016978 4.502416,-1.617226 0.875757,-1.600248 0.418602,-3.602459 -1.064916,-4.664024 -3.812856,-2.74258 -7.011271,-6.125987 -7.40625,-7.96875 -0.197489,-0.921382 -0.20428,-1.525735 0.875,-2.875 1.07928,-1.349265 3.472829,-3.196039 7.625,-5.125 1.57365,-0.725759 2.408584,-2.46821 1.988283,-4.149415 -0.420301,-1.681204 -1.976985,-2.825751 -3.707033,-2.725585 -2.679715,0.137421 -5.154194,0.193386 -7.03125,0 -1.877056,-0.193386 -3.002125,-0.72202 -3.28125,-0.96875 -0.279125,-0.24673 -0.488689,-0.196454 -0.25,-1.78125 0.238689,-1.584796 1.299656,-4.423885 3.625,-8.34375 0.905522,-1.549609 0.533697,-3.52926 -0.872381,-4.644696 -1.406079,-1.115437 -3.418409,-1.027126 -4.721369,0.207196 -0.179502,0.172323 -0.242744,0.240268 -0.34375,0.34375 -2.519708,1.760142 -4.731113,3.039665 -6.3125,3.65625 -1.620883,0.631985 -2.385658,0.522441 -2.59375,0.4375 -0.208092,-0.084941 -0.640133,-0.293986 -1.1875,-1.96875 -0.547367,-1.674764 -0.966719,-4.566761 -1,-8.59375 -0.011282,-0.9686388 -0.411785,-1.8920105 -1.111301,-2.5621347 -0.699515,-0.6701241 -1.639218,-1.0306473 -2.607449,-1.0003653 z"
     id="path2530"
     style="color:#000000;fill:#000000;fill-opacity:0.29411765;fill-rule:evenodd;stroke:none;stroke-width:4.45300007;marker:none;marker-start:none;marker-mid:none;marker-end:none;visibility:visible;display:inline;overflow:visible;enable-background:accumulate"
     inkscape:original="M 44.46875 6.5625 C 41.707529 17.475904 35.848579 24.443794 24.84375 14.0625 C 24.304145 13.35293 23.757029 12.618821 23.15625 11.875 C 23.296307 12.183949 23.429524 12.47599 23.5625 12.78125 C 23.238274 12.447783 22.9265 12.11266 22.59375 11.75 C 23.100368 12.494418 23.555041 13.189024 24.03125 13.90625 C 25.810884 18.230452 26.735081 22.065953 25.90625 24.5 C 25.594749 24.265557 25.286685 24.057065 24.96875 23.8125 C 25.232642 24.246038 25.451314 24.620507 25.6875 25.03125 C 25.644376 25.118106 25.580051 25.198949 25.53125 25.28125 C 25.291531 25.161265 25.074411 25.078529 24.8125 24.9375 C 24.988345 25.071698 25.242338 25.284621 25.4375 25.4375 C 24.009595 27.5999 20.438798 28.033443 13.59375 25.625 C 21.307642 31.796115 26.796826 38.67785 9.125 46.8125 C 18.521923 45.970985 20.049837 45.133193 15.28125 48.21875 C 15.671148 48.039134 16.073232 47.835143 16.46875 47.65625 C 16.200212 47.846779 15.995132 48.022212 15.71875 48.21875 C 18.126499 48.028665 20.411166 47.857096 22.53125 47.90625 C 24.988635 51.072018 26.165263 53.62039 21.875 61.09375 C 25.99513 57.372342 28.525402 57.085538 33.90625 58.375 C 34.229755 60.585303 34.353548 63.247278 34.21875 66.4375 C 34.670237 64.825047 35.183565 63.342211 35.71875 61.96875 C 36.850338 64.937515 36.528343 66.566142 36.875 72.34375 C 41.503336 59.580768 45.439767 52.969528 58.0625 65.03125 C 54.377522 55.614085 55.475443 55.598482 56.3125 52.375 C 56.364624 52.356475 56.417143 52.361865 56.46875 52.34375 C 56.531623 52.370863 56.593107 52.378529 56.65625 52.40625 C 56.635475 52.385475 56.584979 52.334951 56.5625 52.3125 C 60.304318 51.010311 62.787948 50.831651 70.5625 53.96875 C 62.568102 48.218394 54.406672 40.056152 72.21875 31.78125 C 61.279049 32.342261 52.182319 31.799805 62 15.25 C 61.809182 15.433186 61.628434 15.628465 61.4375 15.8125 C 61.421503 15.827919 61.390996 15.828325 61.375 15.84375 C 50.473087 23.516059 44.608751 23.502554 44.46875 6.5625 z "
     inkscape:radius="3.605901"
     sodipodi:type="inkscape:offset" />
  <path
     sodipodi:type="inkscape:offset"
     inkscape:radius="3.605901"
     inkscape:original="M 44.46875 6.5625 C 41.707529 17.475904 35.848579 24.443794 24.84375 14.0625 C 24.304145 13.35293 23.757029 12.618821 23.15625 11.875 C 23.296307 12.183949 23.429524 12.47599 23.5625 12.78125 C 23.238274 12.447783 22.9265 12.11266 22.59375 11.75 C 23.100368 12.494418 23.555041 13.189024 24.03125 13.90625 C 25.810884 18.230452 26.735081 22.065953 25.90625 24.5 C 25.594749 24.265557 25.286685 24.057065 24.96875 23.8125 C 25.232642 24.246038 25.451314 24.620507 25.6875 25.03125 C 25.644376 25.118106 25.580051 25.198949 25.53125 25.28125 C 25.291531 25.161265 25.074411 25.078529 24.8125 24.9375 C 24.988345 25.071698 25.242338 25.284621 25.4375 25.4375 C 24.009595 27.5999 20.438798 28.033443 13.59375 25.625 C 21.307642 31.796115 26.796826 38.67785 9.125 46.8125 C 18.521923 45.970985 20.049837 45.133193 15.28125 48.21875 C 15.671148 48.039134 16.073232 47.835143 16.46875 47.65625 C 16.200212 47.846779 15.995132 48.022212 15.71875 48.21875 C 18.126499 48.028665 20.411166 47.857096 22.53125 47.90625 C 24.988635 51.072018 26.165263 53.62039 21.875 61.09375 C 25.99513 57.372342 28.525402 57.085538 33.90625 58.375 C 34.229755 60.585303 34.353548 63.247278 34.21875 66.4375 C 34.670237 64.825047 35.183565 63.342211 35.71875 61.96875 C 36.850338 64.937515 36.528343 66.566142 36.875 72.34375 C 41.503336 59.580768 45.439767 52.969528 58.0625 65.03125 C 54.377522 55.614085 55.475443 55.598482 56.3125 52.375 C 56.364624 52.356475 56.417143 52.361865 56.46875 52.34375 C 56.531623 52.370863 56.593107 52.378529 56.65625 52.40625 C 56.635475 52.385475 56.584979 52.334951 56.5625 52.3125 C 60.304318 51.010311 62.787948 50.831651 70.5625 53.96875 C 62.568102 48.218394 54.406672 40.056152 72.21875 31.78125 C 61.279049 32.342261 52.182319 31.799805 62 15.25 C 61.809182 15.433186 61.628434 15.628465 61.4375 15.8125 C 61.421503 15.827919 61.390996 15.828325 61.375 15.84375 C 50.473087 23.516059 44.608751 23.502554 44.46875 6.5625 z "
     style="color:#000000;fill:#b01911;fill-opacity:1;fill-rule:evenodd;stroke:none;stroke-width:4.45300007;marker:none;marker-start:none;marker-mid:none;marker-end:none;visibility:visible;display:inline;overflow:visible;enable-background:accumulate"
     id="path3466"
     d="m 44.34375,2.96875 c -1.604814,0.0538139 -2.98073,1.1621907 -3.375,2.71875 -1.276616,5.045676 -3.42592,8.575104 -5,9.46875 -0.78704,0.446823 -1.42169,0.59163 -2.78125,0.1875 -1.321113,-0.392701 -3.294901,-1.533897 -5.6875,-3.75 -0.470424,-0.621046 -0.955589,-1.287278 -1.53125,-2 -0.562959,-0.6726272 -1.351763,-1.1170239 -2.21875,-1.25 -0.051847,-0.0115662 -0.103943,-0.0219854 -0.15625,-0.03125 -0.041477,-0.0111602 -0.083151,-0.0215786 -0.125,-0.03125 -1.44069,-0.3441387 -2.945301,0.2276673 -3.7938,1.4417796 -0.848499,1.2141124 -0.868309,2.8235924 -0.04995,4.0582204 0.385388,0.566284 0.749376,1.119921 1.125,1.6875 0.992025,2.467557 1.409418,4.412684 1.59375,5.875 -0.589105,0.630158 -0.932808,1.450611 -0.96875,2.3125 -1.187505,0.042552 -3.439434,-0.327648 -6.59375,-1.4375 -1.656937,-0.572254 -3.485384,0.129887 -4.333428,1.664075 -0.8480445,1.534189 -0.4700163,3.455989 0.895928,4.554675 3.672181,2.937745 5.889049,5.854754 5.9375,7.1875 0.024225,0.666373 -0.128608,1.383496 -1.5,2.78125 -1.371392,1.397754 -3.978125,3.201736 -8.15625,5.125 -1.6002078,0.727426 -2.4428374,2.502594 -1.994732,4.202304 0.4481054,1.69971 2.0563847,2.82873 3.807232,2.672696 1.177122,-0.105414 1.848477,-0.183897 2.78125,-0.28125 0.661619,1.052882 1.819001,1.690623 3.0625,1.6875 0.041664,0.000722 0.083336,0.000722 0.125,0 0.19758,0.016321 0.39617,0.016321 0.59375,0 1.746719,-0.137899 3.209676,-0.180236 4.6875,-0.21875 0.271807,0.487385 0.420822,0.901924 0.4375,1.40625 0.030296,0.916123 -0.388839,2.852737 -2.375,6.3125 -0.860871,1.533794 -0.489686,3.464887 0.878466,4.57023 1.368152,1.105343 3.334126,1.062464 4.652784,-0.10148 1.821778,-1.645477 2.872216,-2.199271 3.875,-2.40625 0.568344,-0.117308 1.325876,-0.084239 2.28125,0.03125 0.108216,1.510691 0.271645,2.883556 0.1875,4.875 -0.068199,1.633137 0.97056,3.107918 2.53125,3.59375 0.034811,0.928471 0.047838,1.401466 0.125,2.6875 0.129223,1.684751 1.41089,3.05389 3.083457,3.293899 1.672566,0.24001 3.287524,-0.71347 3.885293,-2.293899 2.270501,-6.261076 4.701333,-10.328845 5.96875,-11.03125 0.633708,-0.351203 1.025156,-0.470902 2.53125,0.125 1.506094,0.595902 3.843455,2.131662 6.8125,4.96875 1.22311,1.152193 3.079891,1.306956 4.476869,0.373147 1.396979,-0.933809 1.963892,-2.708688 1.366881,-4.279397 -1.797959,-4.594783 -2.271861,-6.741508 -2.3125,-7.53125 -0.012655,-0.245923 0.177717,-0.710768 0.21875,-0.90625 0.777014,-0.186792 1.490127,-0.300871 2.40625,-0.21875 1.472854,0.132026 3.758315,0.740198 7.5,2.25 1.693824,0.677278 3.626658,-0.016978 4.502416,-1.617226 0.875757,-1.600248 0.418602,-3.602459 -1.064916,-4.664024 -3.812856,-2.74258 -7.011271,-6.125987 -7.40625,-7.96875 -0.197489,-0.921382 -0.20428,-1.525735 0.875,-2.875 1.07928,-1.349265 3.472829,-3.196039 7.625,-5.125 1.57365,-0.725759 2.408584,-2.46821 1.988283,-4.149415 -0.420301,-1.681204 -1.976985,-2.825751 -3.707033,-2.725585 -2.679715,0.137421 -5.154194,0.193386 -7.03125,0 -1.877056,-0.193386 -3.002125,-0.72202 -3.28125,-0.96875 -0.279125,-0.24673 -0.488689,-0.196454 -0.25,-1.78125 0.238689,-1.584796 1.299656,-4.423885 3.625,-8.34375 0.905522,-1.549609 0.533697,-3.52926 -0.872381,-4.644696 -1.406079,-1.115437 -3.418409,-1.027126 -4.721369,0.207196 -0.179502,0.172323 -0.242744,0.240268 -0.34375,0.34375 -2.519708,1.760142 -4.731113,3.039665 -6.3125,3.65625 -1.620883,0.631985 -2.385658,0.522441 -2.59375,0.4375 -0.208092,-0.084941 -0.640133,-0.293986 -1.1875,-1.96875 -0.547367,-1.674764 -0.966719,-4.566761 -1,-8.59375 -0.011282,-0.9686388 -0.411785,-1.8920105 -1.111301,-2.5621347 -0.699515,-0.6701241 -1.639218,-1.0306473 -2.607449,-1.0003653 z"
     transform="matrix(1.1619926,-3.3012663e-2,3.3012663e-2,1.1619926,-4.603209,-1.2664966)" />
  <g
     id="g3411"
     transform="matrix(1.1619926,-3.3012663e-2,3.3012663e-2,1.1619926,-4.603209,-1.2664966)">
    <path
       id="path3285"
       d="m 61.991642,15.245373 c -10.518944,10.098186 -21.458645,21.458645 -5.750356,37.166935 3.927072,-1.402526 6.311366,-1.683031 14.305764,1.542778 -7.994398,-5.750356 -16.129047,-13.885006 1.683031,-22.159908 -10.939702,0.56101 -20.05612,0 -10.238439,-16.549805 z"
       style="color:#000000;fill:url(#radialGradient2509);fill-opacity:1;fill-rule:evenodd;stroke:none;stroke-width:4.45300007;marker:none;marker-start:none;marker-mid:none;marker-end:none;visibility:visible;display:inline;overflow:visible;enable-background:accumulate" />
    <path
       id="path3287"
       d="m 15.287532,48.20473 c 12.48248,-5.750356 28.471274,-10.799449 7.854144,-36.325419 4.768588,10.518944 5.610104,19.074351 -9.537175,13.744753 7.713892,6.171114 13.183743,13.04349 -4.4880831,21.17814 9.3969231,-0.841515 10.9397011,-1.683031 6.1711141,1.402526 z"
       style="color:#000000;fill:url(#radialGradient2511);fill-opacity:1;fill-rule:evenodd;stroke:none;stroke-width:4.45300007;marker:none;marker-start:none;marker-mid:none;marker-end:none;visibility:visible;display:inline;overflow:visible;enable-background:accumulate" />
    <path
       id="path3283"
       d="M 22.580666,11.739058 C 29.453043,21.837244 33.941125,29.831642 24.824707,24.922801 30.154306,28.990126 44.460069,42.454374 61.430632,15.806383 50.49093,23.520275 44.600322,23.520275 44.460069,6.5497126 41.514765,18.190677 35.063146,25.343559 22.580666,11.739058 z"
       style="color:#000000;fill:url(#radialGradient2513);fill-opacity:1;fill-rule:evenodd;stroke:none;stroke-width:4.45300007;marker:none;marker-start:none;marker-mid:none;marker-end:none;visibility:visible;display:inline;overflow:visible;enable-background:accumulate" />
    <path
       id="path3289"
       d="m 58.06457,65.03504 c -3.78682,-9.677428 -2.524547,-9.396923 -1.683031,-12.903238 -5.750356,-2.945304 -15.568037,-8.134649 -21.598898,7.713892 2.244041,4.628336 1.683031,5.469851 2.103789,12.48248 4.628335,-12.762985 8.555407,-19.354856 21.17814,-7.293134 z"
       style="color:#000000;fill:url(#radialGradient2515);fill-opacity:1;fill-rule:evenodd;stroke:none;stroke-width:4.45300007;marker:none;marker-start:none;marker-mid:none;marker-end:none;visibility:visible;display:inline;overflow:visible;enable-background:accumulate" />
    <path
       id="path3291"
       d="m 21.879403,61.107967 c 4.34783,-7.573639 3.085557,-10.098186 0.56101,-13.323995 5.469851,-1.542778 13.604501,3.78682 12.342228,10.799449 -6.030861,-1.542779 -8.555408,-1.402526 -12.903238,2.524546 z"
       style="color:#000000;fill:url(#radialGradient2517);fill-opacity:1;fill-rule:evenodd;stroke:none;stroke-width:4.45300007;marker:none;marker-start:none;marker-mid:none;marker-end:none;visibility:visible;display:inline;overflow:visible;enable-background:accumulate" />
    <path
       sodipodi:nodetypes="cccccc"
       id="path2509"
       d="m 34.22163,66.437566 c 0.841516,-19.915867 -7.854144,-19.074351 -18.513341,-18.232836 12.622733,-8.976165 17.110816,-11.500712 9.256671,-24.40395 10.939701,8.415156 17.952331,10.939702 29.172537,0.561011 -12.061722,13.744753 0.280505,25.806475 2.524547,28.050517 -11.500712,-5.049093 -18.513341,0 -22.440414,14.025258 z"
       style="color:#000000;fill:url(#radialGradient2519);fill-opacity:1;fill-rule:evenodd;stroke:none;stroke-width:4.45300007;marker:none;marker-start:none;marker-mid:none;marker-end:none;visibility:visible;display:inline;overflow:visible;enable-background:accumulate" />
  </g>
</svg>
