<?xml version="1.0" encoding="UTF-8" standalone="no"?>
<!-- Created with Inkscape (http://www.inkscape.org/) -->
<svg
   xmlns:dc="http://purl.org/dc/elements/1.1/"
   xmlns:cc="http://creativecommons.org/ns#"
   xmlns:rdf="http://www.w3.org/1999/02/22-rdf-syntax-ns#"
   xmlns:svg="http://www.w3.org/2000/svg"
   xmlns="http://www.w3.org/2000/svg"
   xmlns:xlink="http://www.w3.org/1999/xlink"
   xmlns:sodipodi="http://sodipodi.sourceforge.net/DTD/sodipodi-0.dtd"
   xmlns:inkscape="http://www.inkscape.org/namespaces/inkscape"
   version="1.0"
   width="90"
   height="90"
   id="svg2"
   sodipodi:version="0.32"
   inkscape:version="0.46+devel"
   sodipodi:docname="pinball.svg"
   inkscape:output_extension="org.inkscape.output.svg.inkscape">
  <metadata
     id="metadata168">
    <rdf:RDF>
      <cc:Work
         rdf:about="">
        <dc:format>image/svg+xml</dc:format>
        <dc:type
           rdf:resource="http://purl.org/dc/dcmitype/StillImage" />
        <dc:title></dc:title>
      </cc:Work>
    </rdf:RDF>
  </metadata>
  <sodipodi:namedview
     inkscape:window-height="724"
     inkscape:window-width="940"
     inkscape:pageshadow="2"
     inkscape:pageopacity="0.0"
     guidetolerance="10.0"
     gridtolerance="10.0"
     objecttolerance="10.0"
     borderopacity="1.0"
     bordercolor="#666666"
     pagecolor="#ffffff"
     id="base"
     inkscape:zoom="3.8105199"
     inkscape:cx="45.61539"
     inkscape:cy="33.107828"
     inkscape:window-x="40"
     inkscape:window-y="9"
     inkscape:current-layer="svg2"
     showgrid="false" />
  <defs
     id="defs4">
    <linearGradient
       id="linearGradient2909">
      <stop
         style="stop-color:#ffffff;stop-opacity:1"
         offset="0"
         id="stop2911" />
      <stop
         style="stop-color:#383e49;stop-opacity:1"
         offset="1"
         id="stop2913" />
    </linearGradient>
    <linearGradient
       inkscape:collect="always"
       id="linearGradient2883">
      <stop
         style="stop-color:#ffffff;stop-opacity:1;"
         offset="0"
         id="stop2885" />
      <stop
         style="stop-color:#ffffff;stop-opacity:0;"
         offset="1"
         id="stop2887" />
    </linearGradient>
    <linearGradient
       inkscape:collect="always"
       id="linearGradient2875">
      <stop
         style="stop-color:#ffffff;stop-opacity:1;"
         offset="0"
         id="stop2877" />
      <stop
         style="stop-color:#ffffff;stop-opacity:0;"
         offset="1"
         id="stop2879" />
    </linearGradient>
    <linearGradient
       id="linearGradient2647">
      <stop
         id="stop2649"
         offset="0"
         style="stop-color:#c2c2c2;stop-opacity:1" />
      <stop
         id="stop2651"
         offset="1"
         style="stop-color:#383e49;stop-opacity:1" />
    </linearGradient>
    <linearGradient
       inkscape:collect="always"
       xlink:href="#linearGradient2647"
       id="linearGradient2330"
       gradientUnits="userSpaceOnUse"
       gradientTransform="matrix(0.9999963,0,0,1.0000001,-102.93165,18.163018)"
       x1="133.06964"
       y1="-11.043011"
       x2="151.07925"
       y2="65.730194" />
    <linearGradient
       inkscape:collect="always"
       xlink:href="#linearGradient2875"
       id="linearGradient2881"
       x1="84.668861"
       y1="81.933342"
       x2="52.678539"
       y2="52.792664"
       gradientUnits="userSpaceOnUse"
       gradientTransform="matrix(0.80672028,0,0,0.80672028,13.811429,12.827828)" />
    <linearGradient
       inkscape:collect="always"
       xlink:href="#linearGradient2883"
       id="linearGradient2889"
       x1="7.0856462"
       y1="2.0854867"
       x2="49.337101"
       y2="43.024784"
       gradientUnits="userSpaceOnUse"
       gradientTransform="translate(-0.26243138,0)" />
    <linearGradient
       inkscape:collect="always"
       xlink:href="#linearGradient2909"
       id="linearGradient2907"
       gradientUnits="userSpaceOnUse"
       gradientTransform="matrix(0.9999963,0,0,1.0000001,-102.66922,18.163018)"
       x1="125.98398"
       y1="4.3619752"
       x2="149.76285"
       y2="57.594822" />
    <filter
       inkscape:collect="always"
       id="filter3689">
      <feGaussianBlur
         inkscape:collect="always"
         stdDeviation="1.0995898"
         id="feGaussianBlur3691" />
    </filter>
  </defs>
  <path
     sodipodi:type="arc"
     style="color:#000000;fill:#000000;fill-opacity:0.29411765;fill-rule:evenodd;stroke:none;stroke-width:1.28962505;marker:none;visibility:visible;display:inline;overflow:visible;enable-background:accumulate"
     id="path3423"
     sodipodi:cx="46.670101"
     sodipodi:cy="76.546394"
     sodipodi:rx="38.134022"
     sodipodi:ry="12.525773"
     d="m 84.804123,76.546394 a 38.134022,12.525773 0 1 1 -76.2680436,0 38.134022,12.525773 0 1 1 76.2680436,0 z"
     transform="matrix(1.0291971,0,0,0.9777778,-4.1461357,1.4226806)" />
  <path
     id="path726"
     style="font-size:12px;fill:url(#linearGradient2330);fill-opacity:1;stroke:none"
     d="M 12.55205,64.240548 C 23.47804,81.724775 46.511005,87.041701 63.994271,76.116227 81.479327,65.189646 86.794467,42.157706 75.868477,24.673478 64.942487,7.1892518 41.912732,1.8715483 24.427686,12.79813 6.9435291,23.724155 1.6260689,46.756321 12.55205,64.240548 z" />
  <path
     style="fill:#283d53;fill-opacity:1;stroke:none"
     d="m 44.206319,4.21875 c -22.195596,0 -40.2500004,18.054344 -40.2500004,40.25 0,22.195657 18.0544024,40.250003 40.2500004,40.25 22.195596,0 40.250004,-18.054341 40.25,-40.25 0,-22.195657 -18.054405,-40.25 -40.25,-40.25 z m 0,6 c 18.952943,0 34.25,15.29697 34.25,34.25 3e-6,18.953031 -15.297056,34.25 -34.25,34.25 -18.952945,2e-6 -34.2500004,-15.296971 -34.2500004,-34.25 0,-18.953028 15.2970564,-34.25 34.2500004,-34.25 z"
     id="path17610"
     sodipodi:nodetypes="csssscssss" />
  <path
     id="path1434"
     style="fill:url(#linearGradient2889);fill-opacity:1;fill-rule:evenodd;stroke:none"
     d="M 58.015443,17.756426 C 63.272617,26.169175 55.250097,40.532842 44.438402,47.289181 33.626706,54.045519 18.544063,55.85583 13.286891,47.443082 8.0297175,39.030336 14.056142,23.041705 24.867838,16.285365 35.679534,9.5290301 52.758271,9.3436808 58.015443,17.756426 z"
     sodipodi:nodetypes="cssss" />
  <path
     style="color:#000000;fill:#ffffff;fill-opacity:1;fill-rule:evenodd;stroke:none;stroke-width:6;marker:none;visibility:visible;display:inline;overflow:visible;enable-background:accumulate"
     d="m 22.978,22.047343 c 5.768236,-6.236653 14.146459,-7.125552 15.268421,-5.625549 1.491206,1.993664 -5.072058,1.332674 -12.360058,8.925664 -8.132473,8.472805 -7.141468,16.001282 -9.73197,14.709433 -1.274447,-0.635549 2.6e-5,-10.631851 6.823607,-18.009548 z"
     id="path3435"
     sodipodi:nodetypes="cssss" />
  <path
     sodipodi:nodetypes="cssss"
     d="M 42.445546,72.616889 C 37.675864,66.19065 45.53022,57.51054 53.788938,51.380712 62.047655,45.250885 70.248818,37.74211 75.0185,44.168348 c 4.769684,6.426238 0.107152,19.671747 -8.151565,25.801577 -8.258717,6.129823 -19.651706,9.073201 -24.421389,2.646964 z"
     style="fill:url(#linearGradient2881);fill-opacity:1;fill-rule:evenodd;stroke:none"
     id="path2865" />
  <path
     sodipodi:nodetypes="cssss"
     id="path2915"
     d="m 28.455375,26.665568 c 5.026,-5.434143 9.124866,-4.608023 10.102458,-3.301035 1.299322,1.737127 -1.218127,-0.439448 -7.568333,6.176502 -7.086015,7.382555 -5.307878,11.198342 -7.565043,10.072723 -1.110456,-0.553769 -0.914628,-6.51983 5.030918,-12.94819 z"
     style="color:#000000;fill:#ffffff;fill-opacity:1;fill-rule:evenodd;stroke:none;stroke-width:6;marker:none;visibility:visible;display:inline;overflow:visible;enable-background:accumulate" />
  <path
     style="color:#000000;fill:#ffffff;fill-opacity:1;fill-rule:evenodd;stroke:none;stroke-width:6;marker:none;visibility:visible;display:inline;overflow:visible;enable-background:accumulate"
     d="m 69.818094,67.146546 c -2.881761,3.115778 -4.838284,3.823046 -5.398807,3.073658 -0.744993,-0.996018 0.304792,-0.928975 3.945814,-4.722367 4.062914,-4.232941 3.961892,-5.895939 5.256084,-5.250542 0.636703,0.317515 -0.394089,3.213417 -3.803091,6.899251 z"
     id="path3693"
     sodipodi:nodetypes="cssss" />
</svg>
