<?xml version="1.0" encoding="UTF-8" standalone="no"?>
<!DOCTYPE svg PUBLIC "-//W3C//DTD SVG 20010904//EN"
"http://www.w3.org/TR/2001/REC-SVG-20010904/DTD/svg10.dtd">
<!-- Created with Sodipodi ("http://www.sodipodi.com/") -->
<svg
   id="svg604"
   sodipodi:version="0.32"
   width="72pt"
   height="72pt"
   sodipodi:docbase="/home/zeus/.icons/gartoon/scalable/apps/"
   sodipodi:docname="/home/zeus/.icons/gartoon/scalable/apps/gnome-multimedia.svg"
   xmlns="http://www.w3.org/2000/svg"
   xmlns:sodipodi="http://sodipodi.sourceforge.net/DTD/sodipodi-0.dtd"
   xmlns:xlink="http://www.w3.org/1999/xlink">
  <defs
     id="defs606">
    <linearGradient
       id="linearGradient575">
      <stop
         style="stop-color:#de8a17;stop-opacity:0.741176;"
         offset="0.000000"
         id="stop576" />
      <stop
         style="stop-color:#1ac5aa;stop-opacity:0.929412;"
         offset="1.000000"
         id="stop577" />
    </linearGradient>
    <linearGradient
       id="linearGradient612">
      <stop
         style="stop-color:#7fa8e3;stop-opacity:0.741176;"
         offset="0.000000"
         id="stop613" />
      <stop
         style="stop-color:#ffffff;stop-opacity:0;"
         offset="1.000000"
         id="stop614" />
    </linearGradient>
    <linearGradient
       xlink:href="#linearGradient612"
       id="linearGradient615"
       x1="50.6438866"
       y1="5.36792946"
       x2="35.7520943"
       y2="68.0443573"
       gradientUnits="userSpaceOnUse"
       spreadMethod="pad" />
    <linearGradient
       xlink:href="#linearGradient575"
       id="linearGradient574"
       x1="38.7992325"
       y1="47.4790993"
       x2="23.6706333"
       y2="51.0043793"
       gradientUnits="userSpaceOnUse"
       spreadMethod="pad"
       gradientTransform="scale(1.044094,0.957768)" />
    <linearGradient
       xlink:href="#linearGradient575"
       id="linearGradient578"
       x1="1.32557678"
       y1="0.18749924"
       x2="0.82945710"
       y2="0.34375003"
       gradientUnits="objectBoundingBox"
       spreadMethod="pad" />
  </defs>
  <sodipodi:namedview
     id="base" />
  <path
     style="font-size:12;fill-opacity:0.438849;fill-rule:evenodd;stroke-width:1pt;"
     d="M 67.7143 20.8571 C 67.9048 22 69.5094 24.7591 69.6999 25.9019 C 67.8904 26.5686 66.6869 27.5383 64.8774 28.205 C 66.4012 34.9669 67.319 38.7993 68.8428 45.5612 C 70.9612 45.2034 72.2713 44.0374 73.7836 42.6695 C 74.0693 44.2886 74.7591 46.6147 75.0448 48.2338 C 60.0003 57.6914 35.2584 67.149 12.2338 67.2122 C 11.7576 65.7836 12.1905 63.1428 11.7143 61.7143 C 13.9221 61.7489 14.6147 61.5816 16.5195 61.3132 C 15.3766 55.5989 14.6377 49.1776 13.4949 43.4633 C 11.2929 43.6307 10.404 43.4949 8.10106 43.5612 C 7.72009 41.5612 7.52382 40.2857 7.14286 38.2857 C 30.4762 36.1905 49.5238 30.9523 67.7143 20.8571 z "
     id="path684"
     sodipodi:nodetypes="ccccccccccccc"
     transform="matrix(0.751962,-0.872042,0.925365,0.797943,-10.15297,46.71550)" />
  <path
     style="font-size:12;fill-rule:evenodd;stroke-width:1pt;"
     d="M 67.7143 20.8571 C 67.9048 22 69.5094 24.7591 69.6999 25.9019 C 67.8904 26.5686 66.6869 27.5383 64.8774 28.205 C 66.4012 34.9669 67.319 38.7993 68.8428 45.5612 C 70.9612 45.2034 72.2713 44.0374 73.7836 42.6695 C 74.0693 44.2886 74.7591 46.6147 75.0448 48.2338 C 60.0003 57.6914 35.2584 67.149 12.2338 67.2122 C 11.7576 65.7836 12.1905 63.1428 11.7143 61.7143 C 13.9221 61.7489 14.6147 61.5816 16.5195 61.3132 C 15.3766 55.5989 14.6377 49.1776 13.4949 43.4633 C 11.2929 43.6307 10.404 43.4949 8.10106 43.5612 C 7.72009 41.5612 7.52382 40.2857 7.14286 38.2857 C 30.4762 36.1905 49.5238 30.9523 67.7143 20.8571 z "
     id="path559"
     sodipodi:nodetypes="ccccccccccccc"
     transform="matrix(0.751962,-0.872042,0.925365,0.797943,-13.72521,46.83639)" />
  <path
     style="font-size:12;fill:#ff7f00;fill-rule:evenodd;stroke-width:1pt;fill-opacity:1;"
     d="M 20.9102 59.3924 C 27.3752 59.7628 33.5371 57.9108 39.295 56.0588 C 38.0491 49.4591 37.0053 46.3951 35.7594 39.7954 C 30.3383 42.0851 24.21 43.2636 17.8797 43.533 "
     id="path560"
     sodipodi:nodetypes="cccc"
     transform="matrix(0.751962,-0.872042,0.925365,0.797943,-13.72521,46.83639)" />
  <path
     style="font-size:12;fill:#ff7f00;fill-rule:evenodd;stroke-width:1pt;fill-opacity:1;"
     d="M 22.2234 60.6046 C 30.4056 59.6618 35.6583 56.0926 40.8102 53.2304 C 39.5643 46.6307 38.2174 44.6778 36.9715 38.0781 C 31.2474 40.9739 24.4122 43.9706 18.2839 44.7451 "
     id="path561"
     sodipodi:nodetypes="cccc"
     transform="matrix(0.751962,-0.872042,0.925365,0.797943,-2.166905,22.09189)" />
  <path
     transform="matrix(0.609913,-0.978479,1.025710,0.661311,-15.46755,52.92944)"
     style="font-size:12;fill:#ffffff;fill-rule:evenodd;stroke-width:1pt;"
     d="M 17.3956 62.593 C 17.3956 63.8494 17.5098 64.9108 17.5098 66.1672 C 19.3789 66.1672 21.1337 66.3623 23.0229 66.0599 C 23.0229 64.8035 23.0027 63.8494 23.0027 62.593 C 21.2076 63.0027 19.2445 62.8954 17.3956 62.593 z "
     id="path563"
     sodipodi:nodetypes="ccccc" />
  <path
     transform="matrix(0.486281,-1.049130,1.089609,0.542559,-11.52622,51.58748)"
     style="font-size:12;fill:#ffffff;fill-rule:evenodd;stroke-width:1pt;"
     d="M 17.3956 62.593 C 17.3956 63.8494 17.5098 64.9108 17.5098 66.1672 C 19.3789 66.1672 21.1337 66.3623 23.0229 66.0599 C 23.0229 64.8035 23.0027 63.8494 23.0027 62.593 C 21.2076 63.0027 19.2445 62.8954 17.3956 62.593 z "
     id="path564"
     sodipodi:nodetypes="ccccc" />
  <path
     transform="matrix(0.486281,-1.049130,1.089609,0.542559,-6.933274,41.72492)"
     style="font-size:12;fill:#ffffff;fill-rule:evenodd;stroke-width:1pt;"
     d="M 17.3956 62.593 C 17.3956 63.8494 17.5098 64.9108 17.5098 66.1672 C 19.3789 66.1672 21.1337 66.3623 23.0229 66.0599 C 23.0229 64.8035 23.0027 63.8494 23.0027 62.593 C 21.2076 63.0027 19.2445 62.8954 17.3956 62.593 z "
     id="path565"
     sodipodi:nodetypes="ccccc" />
  <path
     transform="matrix(0.486281,-1.049130,1.089609,0.542559,-2.620756,31.62053)"
     style="font-size:12;fill:#ffffff;fill-rule:evenodd;stroke-width:1pt;"
     d="M 17.3956 62.593 C 17.3956 63.8494 17.5098 64.9108 17.5098 66.1672 C 19.3789 66.1672 21.1337 66.3623 23.0229 66.0599 C 23.0229 64.8035 23.0027 63.8494 23.0027 62.593 C 21.2076 63.0027 19.2445 62.8954 17.3956 62.593 z "
     id="path566"
     sodipodi:nodetypes="ccccc" />
  <path
     transform="matrix(0.486281,-1.049130,1.089609,0.542559,-2.620756,31.62053)"
     style="font-size:12;fill:#ffffff;fill-rule:evenodd;stroke-width:1pt;"
     d="M 17.3956 62.593 C 17.3956 63.8494 17.5098 64.9108 17.5098 66.1672 C 19.3789 66.1672 21.1337 66.3623 23.0229 66.0599 C 23.0229 64.8035 23.0027 63.8494 23.0027 62.593 C 21.2076 63.0027 19.2445 62.8954 17.3956 62.593 z "
     id="path567"
     sodipodi:nodetypes="ccccc" />
  <path
     transform="matrix(0.486281,-1.049130,1.089609,0.542559,0.564138,21.31176)"
     style="font-size:12;fill:#ffffff;fill-rule:evenodd;stroke-width:1pt;"
     d="M 17.3956 62.593 C 17.3956 63.8494 17.5098 64.9108 17.5098 66.1672 C 19.3789 66.1672 21.1337 66.3623 23.0229 66.0599 C 23.0229 64.8035 23.0027 63.8494 23.0027 62.593 C 21.2076 63.0027 19.2445 62.8954 17.3956 62.593 z "
     id="path568"
     sodipodi:nodetypes="ccccc" />
  <path
     transform="matrix(0.609913,-0.978479,1.025710,0.661311,-39.93538,38.58877)"
     style="font-size:12;fill:#ffffff;fill-rule:evenodd;stroke-width:1pt;"
     d="M 17.3956 62.593 C 17.3956 63.8494 17.5098 64.9108 17.5098 66.1672 C 19.3789 66.1672 21.1337 66.3623 23.0229 66.0599 C 23.0229 64.8035 23.0027 63.8494 23.0027 62.593 C 21.2076 63.0027 19.2445 62.8954 17.3956 62.593 z "
     id="path569"
     sodipodi:nodetypes="ccccc" />
  <path
     transform="matrix(0.486281,-1.049130,1.089609,0.542559,-35.99405,37.24680)"
     style="font-size:12;fill:#ffffff;fill-rule:evenodd;stroke-width:1pt;"
     d="M 17.3956 62.593 C 17.3956 63.8494 17.5098 64.9108 17.5098 66.1672 C 19.3789 66.1672 21.1337 66.3623 23.0229 66.0599 C 23.0229 64.8035 23.0027 63.8494 23.0027 62.593 C 21.2076 63.0027 19.2445 62.8954 17.3956 62.593 z "
     id="path570"
     sodipodi:nodetypes="ccccc" />
  <path
     transform="matrix(0.486281,-1.049130,1.089609,0.542559,-31.40108,27.38425)"
     style="font-size:12;fill:#ffffff;fill-rule:evenodd;stroke-width:1pt;"
     d="M 17.3956 62.593 C 17.3956 63.8494 17.5098 64.9108 17.5098 66.1672 C 19.3789 66.1672 21.1337 66.3623 23.0229 66.0599 C 23.0229 64.8035 23.0027 63.8494 23.0027 62.593 C 21.2076 63.0027 19.2445 62.8954 17.3956 62.593 z "
     id="path571"
     sodipodi:nodetypes="ccccc" />
  <path
     transform="matrix(0.486281,-1.049130,1.089609,0.542559,-27.08857,17.27987)"
     style="font-size:12;fill:#ffffff;fill-rule:evenodd;stroke-width:1pt;"
     d="M 17.3956 62.593 C 17.3956 63.8494 17.5098 64.9108 17.5098 66.1672 C 19.3789 66.1672 21.1337 66.3623 23.0229 66.0599 C 23.0229 64.8035 23.0027 63.8494 23.0027 62.593 C 21.2076 63.0027 19.2445 62.8954 17.3956 62.593 z "
     id="path572"
     sodipodi:nodetypes="ccccc" />
  <path
     transform="matrix(0.486281,-1.049130,1.089609,0.542559,-23.90366,6.971100)"
     style="font-size:12;fill:#ffffff;fill-rule:evenodd;stroke-width:1pt;"
     d="M 17.3956 62.593 C 17.3956 63.8494 17.5098 64.9108 17.5098 66.1672 C 19.3789 66.1672 21.1337 66.3623 23.0229 66.0599 C 23.0229 64.8035 23.0027 63.8494 23.0027 62.593 C 21.2076 63.0027 19.2445 62.8954 17.3956 62.593 z "
     id="path573"
     sodipodi:nodetypes="ccccc" />
  <g
     id="g630"
     transform="matrix(0.896872,0.000000,0.000000,1.122047,-0.923243,1.249037)">
    <defs
       id="defs550">
      <linearGradient
         x1="0.00000000"
         y1="0.00000000"
         x2="1.00000000"
         y2="0.00000000"
         id="linearGradient619"
         gradientUnits="objectBoundingBox"
         spreadMethod="pad">
        <stop
           style="stop-color:#ffffff;stop-opacity:1;"
           offset="0.00000000"
           id="stop620" />
        <stop
           style="stop-color:#ffffff;stop-opacity:0;"
           offset="1.00000000"
           id="stop621" />
      </linearGradient>
      <radialGradient
         cx="9.37104893"
         cy="60.7591972"
         fx="9.37104893"
         fy="60.7591972"
         r="3.43041444"
         id="radialGradient622"
         xlink:href="#linearGradient619"
         gradientUnits="userSpaceOnUse"
         gradientTransform="matrix(1.074967,0.000000,0.000000,0.930261,-2.970606e-7,-1.274941e-6)"
         spreadMethod="pad" />
      <linearGradient
         x1="0.00000000"
         y1="0.00000000"
         x2="1.00000000"
         y2="0.00000000"
         id="linearGradient626"
         xlink:href="#linearGradient619"
         gradientUnits="objectBoundingBox"
         spreadMethod="pad" />
      <radialGradient
         cx="0.12751552"
         cy="0.13278121"
         fx="0.12751552"
         fy="0.13278121"
         r="0.80776817"
         id="radialGradient627"
         xlink:href="#linearGradient619"
         gradientUnits="objectBoundingBox"
         spreadMethod="pad" />
    </defs>
    <g
       transform="translate(3.125000,-8.281250)"
       style="font-size:12;"
       id="g644">
      <path
         d="M 7.73398 34.2049 L 12.0429 51.3301 C 5.08232 51.2196 4.19844 55.9705 4.64039 59.1746 C 6.73961 68.2343 17.4567 65.6933 24.5277 62.7102 C 23.6438 59.506 20.3293 44.3696 19.8874 41.7178 C 23.7543 40.7235 31.8198 38.4033 31.8198 38.4033 C 31.8198 38.4033 34.6924 45.5849 35.1343 47.0212 C 26.0745 46.6897 25.4117 52.3244 26.1851 54.8656 C 27.6214 61.9367 34.0295 61.8262 37.5651 60.8318 C 40.8796 60.2795 45.52 58.2907 48.0612 57.1859 C 47.0668 53.3189 38.3384 29.233 37.2336 26.1394 C 32.9246 27.6862 7.62349 34.4258 7.73398 34.2049 z "
         transform="matrix(1.035546,0.000000,0.000000,1.035546,0.722309,-0.302267)"
         style="fill:#0d0000;fill-opacity:0.301471;fill-rule:evenodd;stroke-width:1pt;"
         id="path635" />
      <path
         d="M 7.73398 34.2049 L 12.0429 51.3301 C 5.08232 51.2196 4.19844 55.9705 4.64039 59.1746 C 6.73961 68.2343 17.4567 65.6933 24.5277 62.7102 C 23.6438 59.506 20.3293 44.3696 19.8874 41.7178 C 23.7543 40.7235 31.8198 38.4033 31.8198 38.4033 C 31.8198 38.4033 34.6924 45.5849 35.1343 47.0212 C 26.0745 46.6897 25.4117 52.3244 26.1851 54.8656 C 27.6214 61.9367 34.0295 61.8262 37.5651 60.8318 C 40.8796 60.2795 45.52 58.2907 48.0612 57.1859 C 47.0668 53.3189 38.3384 29.233 37.2336 26.1394 C 32.9246 27.6862 7.62349 34.4258 7.73398 34.2049 z "
         style="fill:#0d3c07;fill-rule:evenodd;stroke-width:1pt;"
         id="path616" />
      <path
         d="M 15.7994 54.2027 L 11.159 35.9726 L 35.7973 29.1225 L 44.7466 54.9761 C 44.7466 54.9761 33.3666 59.506 31.7093 57.5173 C 28.9471 57.4067 26.7375 51.2197 33.4771 50.0043 C 37.1231 49.8938 38.5594 49.6728 39.5538 50.0042 L 33.3666 34.0944 L 15.247 39.3977 L 20.3293 60.0584 C 20.3293 60.0584 13.7002 64.9198 7.95495 60.1689 C 6.73961 59.0641 6.62912 56.0809 8.61786 54.9761 C 10.2751 52.8769 15.6889 54.4237 15.7994 54.2027 z "
         style="fill:#2aaf18;fill-rule:evenodd;stroke-width:1pt;"
         id="path574" />
      <path
         d="M 14.4736 57.5725 C 12.6184 56.7928 11.9994 58.2032 11.601 60.0584 C 10.0153 60.0584 8.87676 59.2416 8.87676 57.8693 C 8.87676 56.4971 9.94109 55.5318 11.5268 55.5318 C 13.1125 55.5318 14.4736 56.2003 14.4736 57.5725 z "
         transform="matrix(1.488889,0.000000,0.000000,1.488889,-6.003039,-28.69898)"
         style="fill:url(#radialGradient622);fill-rule:evenodd;stroke-width:1pt;"
         id="path623" />
      <path
         d="M 37.3441 53.6503 C 33.3666 51.8834 34.4706 54.4237 33.6428 56.8544 C 31.5997 56.8544 29.9416 55.4189 29.9416 53.6503 C 29.9416 51.8816 31.5997 50.4462 33.6428 50.4462 C 35.6859 50.4462 37.3441 51.8816 37.3441 53.6503 z "
         style="fill:url(#radialGradient627);fill-rule:evenodd;stroke-width:1pt;"
         id="path625" />
      <path
         d="M 15.3575 39.5082 L 33.3666 34.2049 L 33.8085 32.5476 L 15.7994 37.7404 L 15.3575 39.5082 z "
         style="fill:#34674b;fill-rule:evenodd;stroke-width:1pt;"
         id="path630" />
      <path
         d="M 11.159 35.9726 L 13.3687 36.5251 L 36.1287 30.2274 L 35.6868 29.1225 L 11.159 35.9726 z "
         style="fill:#cbff87;fill-rule:evenodd;stroke-width:1pt;"
         id="path631" />
      <path
         d="M 33.6981 32.879 L 39.6643 49.8938 L 33.2561 34.2049 L 33.6981 32.879 z "
         style="fill:#cbff87;fill-rule:evenodd;stroke-width:1pt;"
         id="path633" />
      <path
         d="M 13.1478 36.1936 C 13.1478 36.1936 16.1309 54.3132 16.0204 54.3132 C 15.9099 54.3132 11.2695 36.0831 11.2695 36.0831 L 13.1478 36.1936 z "
         style="fill:#cbff87;fill-rule:evenodd;stroke-width:1pt;"
         id="path634" />
    </g>
    <g
       transform="translate(-8.906250,-2.187500)"
       style="font-size:12;"
       id="g637">
      <path
         d="M 59.5517 32.3266 L 63.5291 56.8544 C 52.7015 54.3132 51.9282 59.948 52.1491 63.152 C 52.7016 75.8578 66.6227 75.416 71.926 72.6538 C 72.147 68.8973 71.926 40.7235 71.926 40.7235 C 76.3454 35.9727 84.4109 27.0233 86.7311 24.4821 C 80.8753 25.808 62.5347 31.6637 59.5517 32.3266 z "
         transform="translate(1.878252,1.988735)"
         style="fill:#0d0007;fill-opacity:0.3;fill-rule:evenodd;stroke-width:1pt;"
         id="path636" />
      <path
         d="M 59.5517 32.3266 L 63.5291 56.8544 C 52.7015 54.3132 51.9282 59.948 52.1491 63.152 C 52.7016 75.8578 66.6227 75.416 71.926 72.6538 C 72.147 68.8973 71.926 40.7235 71.926 40.7235 C 76.3454 35.9727 84.4109 27.0233 86.7311 24.4821 C 80.8753 25.808 62.5347 31.6637 59.5517 32.3266 z "
         style="fill:#0d3c07;fill-rule:evenodd;stroke-width:1pt;"
         id="path617" />
      <path
         d="M 67.5066 63.9254 L 63.1977 35.6412 L 80.4334 28.1282 L 67.9485 39.6186 C 67.838 41.3864 69.6058 67.3505 69.2744 69.3392 C 69.6059 70.9966 67.1751 70.665 64.8549 70.665 C 56.0162 69.2287 53.1435 62.5996 58.5573 60.0584 C 61.5404 59.5061 66.5122 61.2738 67.5066 63.9254 z "
         style="fill:#2aaf18;fill-rule:evenodd;stroke-width:1pt;"
         id="path575" />
      <path
         d="M 14.4736 57.5725 C 12.6184 56.7928 11.9994 58.2032 11.601 60.0584 C 10.0153 60.0584 8.87676 59.2416 8.87676 57.8693 C 8.87676 56.4971 9.94109 55.5318 11.5268 55.5318 C 13.1125 55.5318 14.4736 56.2003 14.4736 57.5725 z "
         transform="matrix(1.488889,0.000000,0.000000,1.488889,42.83153,-22.62228)"
         style="fill:url(#radialGradient622);fill-rule:evenodd;stroke-width:1pt;"
         id="path628" />
      <path
         d="M 67.9485 39.8396 L 67.3961 37.9614 L 80.2124 28.2386 L 67.9485 39.8396 z "
         style="fill:#34674b;fill-rule:evenodd;stroke-width:1pt;"
         id="path629" />
      <path
         d="M 79.881 28.4596 L 64.634 36.5251 L 67.5066 63.4835 L 63.1977 35.5307 L 79.881 28.4596 z "
         style="fill:#cbff87;fill-rule:evenodd;stroke-width:1pt;"
         id="path632" />
    </g>
  </g>
</svg>
