<?xml version="1.0" encoding="UTF-8" standalone="no"?>
<!-- Created with Sodipodi ("http://www.sodipodi.com/") -->

<svg
   xmlns:dc="http://purl.org/dc/elements/1.1/"
   xmlns:cc="http://creativecommons.org/ns#"
   xmlns:rdf="http://www.w3.org/1999/02/22-rdf-syntax-ns#"
   xmlns:svg="http://www.w3.org/2000/svg"
   xmlns="http://www.w3.org/2000/svg"
   xmlns:xlink="http://www.w3.org/1999/xlink"
   xmlns:sodipodi="http://sodipodi.sourceforge.net/DTD/sodipodi-0.dtd"
   xmlns:inkscape="http://www.inkscape.org/namespaces/inkscape"
   id="svg548"
   sodipodi:version="0.32"
   width="72pt"
   height="72pt"
   sodipodi:docname="package-x-generic.svg"
   inkscape:version="0.46+devel r22329M, 2009.09.30"
   inkscape:output_extension="org.inkscape.output.svg.inkscape"
   version="1.1">
  <metadata
     id="metadata27">
    <rdf:RDF>
      <cc:Work
         rdf:about="">
        <dc:format>image/svg+xml</dc:format>
        <dc:type
           rdf:resource="http://purl.org/dc/dcmitype/StillImage" />
        <dc:title></dc:title>
      </cc:Work>
      <cc:Work
         rdf:about="">
        <dc:format>image/svg+xml</dc:format>
        <dc:type
           rdf:resource="http://purl.org/dc/dcmitype/StillImage" />
      </cc:Work>
    </rdf:RDF>
  </metadata>
  <defs
     id="defs550">
    <linearGradient
       id="linearGradient569">
      <stop
         style="stop-color:#c57700;stop-opacity:1;"
         offset="0.000000"
         id="stop570" />
      <stop
         style="stop-color:#ffa75f;stop-opacity:0;"
         offset="1.000000"
         id="stop571" />
    </linearGradient>
    <linearGradient
       id="linearGradient559">
      <stop
         style="stop-color:#945700;stop-opacity:1;"
         offset="0.000000"
         id="stop560" />
      <stop
         style="stop-color:#ffa75f;stop-opacity:0;"
         offset="1.000000"
         id="stop561" />
    </linearGradient>
    <linearGradient
       xlink:href="#linearGradient559"
       id="linearGradient562"
       x1="40.9153252"
       y1="31.7318363"
       x2="42.7533417"
       y2="35.4855690"
       gradientUnits="userSpaceOnUse"
       spreadMethod="pad"
       gradientTransform="matrix(1.2287685,0,0,0.7275398,-7.1389191,1.8739714)" />
    <linearGradient
       xlink:href="#linearGradient559"
       id="linearGradient566"
       x1="59.0300407"
       y1="48.8431816"
       x2="58.3435440"
       y2="23.6183739"
       gradientUnits="userSpaceOnUse"
       spreadMethod="pad"
       gradientTransform="matrix(0.5734264,0,0,1.5590094,-6.8541051,2.1587764)" />
    <linearGradient
       xlink:href="#linearGradient569"
       id="linearGradient568"
       x1="92.7804184"
       y1="64.9443817"
       x2="90.8925323"
       y2="42.8786545"
       gradientUnits="userSpaceOnUse"
       spreadMethod="pad"
       gradientTransform="matrix(0.7296653,0,0,1.2251888,-7.1389191,1.8739714)" />
  </defs>
  <sodipodi:namedview
     id="base"
     showgrid="false"
     inkscape:zoom="1.9602572"
     inkscape:cx="14.146013"
     inkscape:cy="21.013105"
     inkscape:window-width="795"
     inkscape:window-height="711"
     inkscape:window-x="0"
     inkscape:window-y="1"
     inkscape:current-layer="svg548"
     inkscape:window-maximized="0" />
  <path
     style="fill:#000000;fill-opacity:0.3;fill-rule:evenodd;stroke:none;stroke-width:1pt;stroke-linecap:butt;stroke-linejoin:miter;stroke-opacity:1"
     d="M 41.126783,86.944379 C 40.267791,86.568459 6.0797264,81.723193 6.0797264,81.723193 L 2.987337,83.117462 L 2.1283386,79.619442 L 4.7053256,76.584302 L 2.1283386,75.664742 L 16.731279,64.779378 L 18.105647,65.755471 L 18.44926,63.449718 L 22.572446,63.047793 L 67.240265,72.39582 L 41.126783,86.944379 z "
     id="path594" />
  <path
     style="fill:#593a28;fill-opacity:1;fill-rule:evenodd;stroke:none;stroke-width:1pt;stroke-linecap:butt;stroke-linejoin:miter;stroke-opacity:1"
     d="M 16.673693,33.243336 C 19.97407,48.138049 19.287161,71.577094 13.758515,83.054094 L 40.68316,87.362945 L 73.900512,75.358259 C 72.191703,59.003214 70.767585,40.369694 74.185298,24.584221 L 80.04279,11.201955 L 74.138779,11.989068 L 74.926006,8.0531426 C 67.428537,2.8625904 57.937379,1.9442 48.161435,5.2979534 L 47.571062,9.6275486 L 41.863905,4.7075618 C 29.375972,5.2465936 18.027277,8.6337294 7.8178196,18.286692 L 16.673693,33.243336 z "
     id="path564"
     sodipodi:nodetypes="ccccccccccccc" />
  <path
     style="fill:url(#linearGradient562);fill-opacity:1;fill-rule:evenodd;stroke:none;stroke-width:1pt;stroke-linecap:butt;stroke-linejoin:miter;stroke-opacity:1"
     d="M 49.539129,19.270583 C 49.145515,19.270583 21.003251,29.307392 21.003251,29.307392 C 21.003251,29.307392 23.56169,48.003221 29.071993,48.396834 C 34.58239,48.790447 68.431717,22.025876 68.431717,22.025876"
     id="path558"
     sodipodi:nodetypes="cccc" />
  <path
     style="fill:#e9a93d;fill-opacity:1;fill-rule:evenodd;stroke:none;stroke-width:1pt;stroke-linecap:butt;stroke-linejoin:miter;stroke-opacity:1"
     d="M 20.806491,31.472123 L 38.911947,33.046576 C 36.895849,50.497649 36.58856,67.09427 39.699079,82.836533 C 39.699079,82.836533 21.200105,81.065415 21.200105,79.884575 C 21.200105,78.70383 26.217894,52.087231 20.806491,31.472123 z "
     id="path552"
     sodipodi:nodetypes="ccccc" />
  <path
     style="fill:#ffe6ba;fill-opacity:1;fill-rule:evenodd;stroke:none;stroke-width:1pt;stroke-linecap:butt;stroke-linejoin:miter;stroke-opacity:1"
     d="M 69.394996,23.885021 L 38.518334,33.44019 L 39.305561,83.033387 C 39.305561,83.033387 68.82533,72.012687 68.82533,70.831847 C 68.82533,69.651102 64.837951,35.955892 69.394996,23.885021 z "
     id="path553"
     sodipodi:nodetypes="ccccc" />
  <path
     style="fill:#e3c084;fill-opacity:1;fill-rule:evenodd;stroke:none;stroke-width:1pt;stroke-linecap:butt;stroke-linejoin:miter;stroke-opacity:1"
     d="M 50.326261,19.270678 L 42.847891,9.8243269 C 33.663927,11.08821 23.625606,12.352141 15.296094,20.451423 L 20.412878,29.897764 L 50.326261,19.270678 z "
     id="path556"
     sodipodi:nodetypes="ccccc" />
  <path
     style="fill:#e3b463;fill-opacity:1;fill-rule:evenodd;stroke:none;stroke-width:1pt;stroke-linecap:butt;stroke-linejoin:miter;stroke-opacity:1"
     d="M 49.539034,19.467532 L 69.612462,23.206622 L 71.186916,12.973148 C 64.079751,10.608282 57.542253,9.3826536 50.719874,11.005129 L 49.539034,19.467532 z "
     id="path557"
     sodipodi:nodetypes="ccccc" />
  <path
     style="fill:#c89134;fill-opacity:1;fill-rule:evenodd;stroke:none;stroke-width:1pt;stroke-linecap:butt;stroke-linejoin:miter;stroke-opacity:1"
     d="M 38.911947,33.046576 C 37.731107,30.422614 36.550362,27.798556 35.369522,25.174594 C 28.832024,22.217719 21.724859,20.400082 14.902481,23.993848 C 16.739311,26.486575 18.576047,28.979396 20.412878,31.472123 C 26.579266,31.996972 32.745559,32.521727 38.911947,33.046576 z "
     id="path554"
     sodipodi:nodetypes="ccccc" />
  <path
     style="fill:#e3c084;fill-opacity:1;fill-rule:evenodd;stroke:none;stroke-width:1pt;stroke-linecap:butt;stroke-linejoin:miter;stroke-opacity:1"
     d="M 38.518334,34.227322 L 43.241505,24.78098 C 53.343837,18.915263 63.730955,16.182567 73.548406,15.728252 C 72.039666,18.483451 70.53083,21.23865 69.02209,23.993848 L 38.518334,34.227322 z "
     id="path555"
     sodipodi:nodetypes="ccccc" />
  <path
     style="fill:url(#linearGradient566);fill-opacity:1;fill-rule:evenodd;stroke:none;stroke-width:1pt;stroke-linecap:butt;stroke-linejoin:miter;stroke-opacity:1"
     d="M 21.091305,31.756928 C 27.126457,32.281777 33.161609,32.806532 39.196761,33.331381 C 35.75664,51.06724 37.158255,66.823205 39.983893,82.850254 C 39.983893,82.850254 21.123473,81.079136 21.123473,79.898296 C 25.658665,49.125869 21.99492,37.572228 21.091305,31.756928 z "
     id="path565"
     sodipodi:nodetypes="ccccc" />
  <path
     style="fill:url(#linearGradient568);fill-opacity:1;fill-rule:evenodd;stroke:none;stroke-width:1pt;stroke-linecap:butt;stroke-linejoin:miter;stroke-opacity:1"
     d="M 59.426642,32.144566 L 38.518334,33.44019 L 39.305561,83.033387 C 39.305561,83.033387 68.82533,72.012687 68.82533,70.831847 C 67.740993,53.386042 59.426642,32.538179 59.426642,32.144566 z "
     id="path567"
     sodipodi:nodetypes="ccccc" />
  <path
     style="font-size:12px;fill:#ffffff;fill-opacity:0.70434804;fill-rule:evenodd;stroke-width:1pt"
     d="M 23.012112,70.804052 L 23.012112,77.880852 L 35.292412,79.754152 L 35.292412,72.677352 L 23.012112,70.804052 z "
     id="path573"
     sodipodi:nodetypes="ccccc" />
  <g
     id="g2887"
     transform="matrix(0.07836683,-0.02525429,0,0.12275013,39.537289,52.643331)">
    <g
       style="stroke:none"
       transform="matrix(3.6205203,0,0,3.6205203,7.6425239,-129.17231)"
       id="g2502">
      <circle
         cx="9.1239996"
         cy="46.903999"
         r="9.1239996"
         id="circle4"
         sodipodi:cx="9.1239996"
         sodipodi:cy="46.903999"
         sodipodi:rx="9.1239996"
         sodipodi:ry="9.1239996"
         style="fill:#ed0000;stroke:none"
         d="m 18.247999,46.903999 c 0,5.039046 -4.084954,9.124 -9.1239994,9.124 C 4.0849538,56.027999 0,51.943045 0,46.903999 0,41.864953 4.0849538,37.78 9.1239996,37.78 c 5.0390454,0 9.1239994,4.084953 9.1239994,9.123999 z" />
      <circle
         cx="74.547997"
         cy="84.667"
         r="9.1239996"
         id="circle6"
         sodipodi:cx="74.547997"
         sodipodi:cy="84.667"
         sodipodi:rx="9.1239996"
         sodipodi:ry="9.1239996"
         style="fill:#ff933d;stroke:none"
         d="m 83.671996,84.667 c 0,5.039046 -4.084954,9.123999 -9.123999,9.123999 -5.039046,0 -9.124,-4.084953 -9.124,-9.123999 0,-5.039046 4.084954,-9.124 9.124,-9.124 5.039045,0 9.123999,4.084954 9.123999,9.124 z" />
      <circle
         cx="74.540001"
         cy="9.1260004"
         r="9.1239996"
         id="circle8"
         sodipodi:cx="74.540001"
         sodipodi:cy="9.1260004"
         sodipodi:rx="9.1239996"
         sodipodi:ry="9.1239996"
         style="fill:#b01911;stroke:none"
         d="m 83.664001,9.1260004 c 0,5.0390456 -4.084954,9.1239996 -9.124,9.1239996 -5.039046,0 -9.124,-4.084954 -9.124,-9.1239996 0,-5.0390458 4.084954,-9.12399959 9.124,-9.12399959 5.039046,0 9.124,4.08495379 9.124,9.12399959 z" />
      <path
         d="m 52.739,24.327 c 11.361,0 20.787,8.436 22.348,19.373 l 15.632,0 C 90.009,35.106 86.446,27.096 80.489,20.779 76.674,22.722 71.983,22.759 67.998,20.459 64.01,18.156 61.696,14.072 61.474,9.792 58.643,9.132 55.718,8.79 52.739,8.79 c -5.704,0 -11.216,1.245 -16.229,3.606 l 7.826,13.555 c 2.599,-1.046 5.435,-1.624 8.403,-1.624 z"
         id="path10"
         style="fill:#ed0000;stroke:none" />
      <path
         d="m 30.163,46.904 c 0,-7.193 3.381,-13.61 8.636,-17.747 L 30.975,15.604 c -1.835,1.282 -3.571,2.733 -5.188,4.349 -4.528,4.528 -7.775,9.995 -9.562,15.962 3.6,2.332 5.984,6.38 5.984,10.989 0,4.608 -2.384,8.657 -5.984,10.988 1.787,5.967 5.034,11.434 9.562,15.962 1.616,1.616 3.35,3.065 5.184,4.348 L 38.796,64.648 C 33.542,60.511 30.163,54.094 30.163,46.904 z"
         id="path12"
         style="fill:#ff933d;stroke:none" />
      <path
         d="M 75.088,50.098 C 73.531,61.039 64.103,69.48 52.739,69.48 c -2.97,0 -5.807,-0.578 -8.406,-1.626 L 36.506,81.41 c 5.012,2.362 10.526,3.608 16.232,3.608 2.981,0 5.91,-0.344 8.742,-1.004 0.218,-4.285 2.533,-8.376 6.524,-10.68 3.986,-2.302 8.679,-2.265 12.495,-0.318 5.952,-6.318 9.511,-14.327 10.219,-22.918 z"
         id="path14"
         style="fill:#b01911;stroke:none" />
    </g>
    <path
       id="circle3439"
       d="m 272.03125,-134.0625 c -18.06672,2.09681 -33.79802,18.76724 -33.09375,37.25 2.30819,19.38274 19.57103,36.212509 39.28125,36.84375 18.96897,-0.667273 35.04112,-18.461035 34.90625,-37.21875 -0.74257,-16.08456 -13.17943,-30.22537 -28.16929,-35.14898 -4.14464,-1.38401 -8.56206,-1.95887 -12.92446,-1.72602 z m 10.8125,11.03125 c 17.8974,1.6536 29.77835,23.833917 21.50813,39.712766 -7.55316,15.62591 -30.06289,21.187045 -43.94563,10.755984 -11.27737,-8.934556 -11.58964,-26.822496 -3.26515,-37.84057 5.89345,-7.78896 15.83199,-13.04909 25.70265,-12.62818 z M 196.9375,-100.625 c -21.0452,2.218994 -41.92627,6.598365 -61.8125,13.90625 7.4485,19.060526 17.52468,36.974026 28.625,54.125 6.9164,3.681298 14.12097,-1.316491 21.06817,-2.197238 17.78629,-2.738699 37.13041,0.204177 51.82191,11.091915 12.69566,8.717577 26.21694,18.2565771 32.48492,32.886573 2.92918,6.583711 3.94673,13.838249 6.06056,20.629536 3.33479,4.673483 9.84984,3.562046 14.84027,3.689508 15.54229,-0.269432 31.08509,-0.564177 46.63042,-0.537794 4.3506,-2.713695 3.06533,-8.609797 2.0625,-12.75 -5.24709,-27.8071151 -18.46154,-53.80285 -36.5625,-75.4375 -10.47586,-1.683938 -20.78034,5.012285 -31.15625,1.53125 -17.39689,-2.668474 -32.57188,-17.14717 -35.09375,-34.71875 0.92931,-4.153263 -1.20986,-9.823458 -6.09318,-9.890395 -10.79056,-2.278145 -21.89059,-2.466355 -32.87557,-2.328355 z m 3.21875,7.375 c 8.81458,0.437713 17.47548,2.243891 26.1875,3.53125 5.01492,20.922079 21.91324,38.68228 42.8125,44.125 9.77595,0.453599 19.6514,-1.001426 28.84375,-4.375 16.76453,19.169232 28.23515,42.9182207 32.6875,68 2.96354,3.10334 -0.7843,9.241092 -4.90625,7.6875 -14.229,-0.726878 -28.4764,-0.919884 -42.71875,-1.21875 -4.13619,-16.3416467 -10.72494,-32.6088793 -22.20078,-45.209063 -13.07936,-13.502613 -31.15958,-22.053902 -49.89451,-23.626451 -12.55841,-1.260207 -25.20965,0.162492 -37.56096,2.398014 -4.20803,-0.856937 -5.35036,-5.874028 -7.53489,-8.981547 -5.23995,-9.598224 -11.2445,-18.78204 -17.34011,-27.830953 -2.67406,-4.601667 3.83489,-4.920651 6.50806,-6.529607 14.23106,-5.933823 29.74991,-8.324384 45.11694,-7.970393 z m -80,14.5625 c -24.851278,17.193461 -43.087346,42.777789 -54,70.75 -3.045762,4.3014725 -2.803676,11.4112405 2.09375,14.28125 18.303074,16.369514 19.848809,47.86524 3.0625,65.84375 -3.822954,2.962449 -8.227013,8.049622 -5.71875,13.15625 7.662592,21.85045 17.18775,44.16367 34.71875,60 5.28758,4.67018 11.00019,8.83694 16.90625,12.6875 5.39978,0.61357 8.28545,-5.08061 10.28125,-9.15625 7.98609,-14.99428 16.27036,-29.82631 24.5,-44.6875 C 123.39916,80.468225 114.32494,36.256507 131.57509,3.298352 c 4.36773,-8.4219083 10.74376,-15.624952 17.88428,-21.774222 4.21385,-5.277329 2.01004,-12.852999 -1.86871,-17.650656 -8.57022,-14.190709 -17.07002,-28.425788 -25.93441,-42.435974 -0.44716,-0.296905 -1.00499,-0.239992 -1.5,-0.125 z m 8.625,33.875 c 3.82723,6.178976 7.72297,12.314457 11.6875,18.40625 -2.22577,8.490086 -10.30191,13.537688 -13.85518,21.3401685 C 114.13318,14.331752 108.3444,39.088782 115.3125,61.53125 c 4.66082,15.601534 14.46976,29.109588 25.78125,40.59375 2.93266,5.88728 -1.13573,12.0774 -4.59375,16.71875 -5.83333,8.9375 -11.66667,17.875 -17.5,26.8125 C 105.68119,135.94574 95.465969,122.7763 85.33153,109.95209 79.530477,101.88435 74.600151,93.206052 70.4375,84.1875 73.86712,74.573066 84.992039,70.080469 87.539017,59.952722 95.798665,42.362878 91.656819,19.892095 77.65012,6.4119943 75.15174,3.6887187 69.051209,1.0639556 71.820337,-3.4860925 80.675673,-26.610873 96.509489,-46.644227 115.60862,-62.205827 c 3.43268,-2.756796 4.69593,5.466004 7.12336,7.532183 2.01642,3.287048 4.03285,6.574096 6.04927,9.861144 z M 36.28125,4.75 C 15.342008,6.1802929 -1.6293417,28.762946 3.90625,49.25 7.6479362,65.596958 24.818988,76.752573 41.23126,75.316413 59.011417,75.085636 76.28763,60.395769 77.094635,42.206436 78.013503,26.788869 66.85244,12.363406 52.548788,7.4217132 47.38779,5.4243703 41.807947,4.54017 36.28125,4.75 z M 45.375,11.125 C 63.86897,14.64077 75.367203,38.094985 66.096681,54.678807 59.754416,67.487199 42.497291,74.619101 29.465587,67.749634 15.291597,59.95041 8.6822151,39.831003 17.487436,25.767074 23.156573,16.313278 34.22234,9.901656 45.375,11.125 z m 232.84375,36.71875 c -5.76298,7.175795 -4.74137,17.422266 -10.35148,24.704333 C 252.92954,100.4634 221.54998,119.5693 189.625,117.5 c -5.69704,-0.30928 -11.32268,-1.31522 -16.875,-2.59375 -2.89801,-3.15106 -9.0157,-0.73655 -9.125,3.5 -9.58333,16.0625 -19.16667,32.125 -28.75,48.1875 18.79124,9.24063 39.37375,14.91537 60.25,16.53125 9.79598,0.38516 19.63325,-0.60831 29.15625,-2.9375 4.4549,0.13836 10.18665,-2.24722 10.5,-7.3125 3.34889,-16.35265 15.117,-31.69247 31.67391,-36.1018 9.58716,-2.94476 20.2208,-2.66482 29.51359,1.19555 7.5203,0.089 11.94581,-6.94883 16.15625,-12.125 16.33951,-20.71088 26.16546,-46.44205 27.96875,-72.75 -1.56166,-4.952267 -7.70154,-5.268343 -12.03125,-4.9375 C 311.66667,47.9375 295.27083,47.71875 278.875,47.5 l -0.64823,0.339547 -0.008,0.0042 z m 10,8.65625 c 13.75939,0.231549 27.5208,0.132712 41.28125,0.09375 2.02489,4.964714 -1.65914,9.753244 -2.34845,14.603069 -5.97514,19.577116 -14.95212,38.160911 -25.90155,55.428181 -3.07835,3.65716 -8.4193,2.8028 -12.3077,1.152 -21.33509,-5.43213 -46.46722,3.96762 -56.89857,23.84425 -2.76447,5.20059 -4.45462,10.90371 -5.44998,16.69125 -7.50551,5.39694 -17.18037,3.06114 -25.76302,3.8125 -17.39381,0.13643 -35.01245,-1.12365 -51.70573,-6.3125 -3.13501,-2.59935 -2.5865,-7.82634 0.1875,-10.5 6.3125,-11.0625 12.625,-22.125 18.9375,-33.1875 8.39462,-1.72295 16.13677,3.62792 24.47752,3.42253 26.25732,3.44574 54.66921,-6.38676 71.14208,-27.582114 9.11791,-11.150841 14.8071,-24.696342 18.5679,-38.496666 0.93741,-2.205708 3.52101,-3.185677 5.78125,-2.96875 z m -16.25,84.59375 c -20.89088,2.34311 -36.19568,26.50367 -28.75,46.3125 5.79386,15.3308 20.76366,27.78644 37.59375,27.625 18.944,-1.03234 34.58562,-19.70993 32.57654,-38.52387 -0.87445,-18.81065 -17.78921,-35.30659 -36.68288,-35.43885 -1.57822,-0.0814 -3.15837,0.0201 -4.73741,0.0252 z m 9.125,6.65625 c 16.87054,2.10374 29.74473,21.10182 24.34375,37.46875 -5.97597,16.85568 -28.5124,25.71894 -44.03125,16.34375 -14.94059,-8.93962 -17.0971,-32.54273 -4.48932,-44.36787 6.20456,-6.4673 15.30344,-9.69202 24.17682,-9.44463 z"
       style="fill:#000000;fill-opacity:1;stroke:none" />
  </g>
</svg>
