<?xml version="1.0" encoding="UTF-8" standalone="no"?>
<!-- Created with Inkscape (http://www.inkscape.org/) -->
<svg
   xmlns:dc="http://purl.org/dc/elements/1.1/"
   xmlns:cc="http://creativecommons.org/ns#"
   xmlns:rdf="http://www.w3.org/1999/02/22-rdf-syntax-ns#"
   xmlns:svg="http://www.w3.org/2000/svg"
   xmlns="http://www.w3.org/2000/svg"
   xmlns:xlink="http://www.w3.org/1999/xlink"
   xmlns:sodipodi="http://sodipodi.sourceforge.net/DTD/sodipodi-0.dtd"
   xmlns:inkscape="http://www.inkscape.org/namespaces/inkscape"
   width="90"
   height="90"
   id="svg2"
   sodipodi:version="0.32"
   inkscape:version="0.46+devel"
   version="1.0"
   sodipodi:docname="transmission.svg"
   inkscape:output_extension="org.inkscape.output.svg.inkscape">
  <defs
     id="defs4">
    <linearGradient
       id="linearGradient3394"
       inkscape:collect="always">
      <stop
         id="stop3396"
         offset="0"
         style="stop-color:#ffe6ba;stop-opacity:1" />
      <stop
         id="stop3398"
         offset="1"
         style="stop-color:#ff933d;stop-opacity:1" />
    </linearGradient>
    <linearGradient
       inkscape:collect="always"
       id="linearGradient3337">
      <stop
         style="stop-color:#b01911;stop-opacity:1"
         offset="0"
         id="stop3339" />
      <stop
         style="stop-color:#ed0000;stop-opacity:1"
         offset="1"
         id="stop3341" />
    </linearGradient>
    <linearGradient
       inkscape:collect="always"
       id="linearGradient3264">
      <stop
         style="stop-color:#ffbfbc;stop-opacity:1"
         offset="0"
         id="stop3266" />
      <stop
         style="stop-color:#ffbfbc;stop-opacity:0"
         offset="1"
         id="stop3268" />
    </linearGradient>
    <inkscape:perspective
       sodipodi:type="inkscape:persp3d"
       inkscape:vp_x="0 : 526.18109 : 1"
       inkscape:vp_y="0 : 1000 : 0"
       inkscape:vp_z="744.09448 : 526.18109 : 1"
       inkscape:persp3d-origin="372.04724 : 350.78739 : 1"
       id="perspective10" />
    <linearGradient
       inkscape:collect="always"
       xlink:href="#linearGradient3337"
       id="linearGradient3448"
       gradientUnits="userSpaceOnUse"
       x1="46.365261"
       y1="82.203156"
       x2="45.472404"
       y2="73.631721" />
    <linearGradient
       inkscape:collect="always"
       xlink:href="#linearGradient3337"
       id="linearGradient3450"
       gradientUnits="userSpaceOnUse"
       x1="47.527901"
       y1="73.50412"
       x2="47.527901"
       y2="62.648685" />
    <linearGradient
       inkscape:collect="always"
       xlink:href="#linearGradient3337"
       id="linearGradient3452"
       gradientUnits="userSpaceOnUse"
       x1="49.085773"
       y1="64.325935"
       x2="47.87254"
       y2="54.040073" />
    <linearGradient
       inkscape:collect="always"
       xlink:href="#linearGradient3337"
       id="linearGradient3454"
       gradientUnits="userSpaceOnUse"
       x1="51.513355"
       y1="54.467087"
       x2="49.046898"
       y2="46.967087" />
    <linearGradient
       inkscape:collect="always"
       xlink:href="#linearGradient3394"
       id="linearGradient3456"
       gradientUnits="userSpaceOnUse"
       gradientTransform="translate(-0.3788072,0)"
       x1="42.151401"
       y1="37.244861"
       x2="56.301832"
       y2="37.244861" />
    <linearGradient
       inkscape:collect="always"
       xlink:href="#linearGradient3264"
       id="linearGradient3458"
       gradientUnits="userSpaceOnUse"
       gradientTransform="translate(-0.3788072,0)"
       x1="51.162693"
       y1="6.3147435"
       x2="52.77232"
       y2="14.082601" />
    <linearGradient
       inkscape:collect="always"
       xlink:href="#linearGradient3264"
       id="linearGradient3506"
       gradientUnits="userSpaceOnUse"
       gradientTransform="matrix(0.9888261,0,0,0.9888261,-5.2601855,2.0244797)"
       x1="51.162693"
       y1="6.3147435"
       x2="52.77232"
       y2="14.082601" />
    <linearGradient
       inkscape:collect="always"
       xlink:href="#linearGradient3394"
       id="linearGradient3510"
       gradientUnits="userSpaceOnUse"
       gradientTransform="matrix(0.9888261,0,0,0.9888261,-5.2601855,2.0244797)"
       x1="42.151401"
       y1="37.244861"
       x2="56.301832"
       y2="37.244861" />
    <linearGradient
       inkscape:collect="always"
       xlink:href="#linearGradient3337"
       id="linearGradient3513"
       gradientUnits="userSpaceOnUse"
       x1="51.513355"
       y1="54.467087"
       x2="49.046898"
       y2="46.967087"
       gradientTransform="matrix(0.9888261,0,0,0.9888261,-4.885611,2.0244797)" />
    <linearGradient
       inkscape:collect="always"
       xlink:href="#linearGradient3337"
       id="linearGradient3516"
       gradientUnits="userSpaceOnUse"
       x1="49.085773"
       y1="64.325935"
       x2="47.87254"
       y2="54.040073"
       gradientTransform="matrix(0.9888261,0,0,0.9888261,-4.885611,2.0244797)" />
    <linearGradient
       inkscape:collect="always"
       xlink:href="#linearGradient3337"
       id="linearGradient3519"
       gradientUnits="userSpaceOnUse"
       x1="47.527901"
       y1="73.50412"
       x2="47.527901"
       y2="62.648685"
       gradientTransform="matrix(0.9888261,0,0,0.9888261,-4.885611,2.0244797)" />
    <linearGradient
       inkscape:collect="always"
       xlink:href="#linearGradient3337"
       id="linearGradient3522"
       gradientUnits="userSpaceOnUse"
       x1="46.365261"
       y1="82.203156"
       x2="45.472404"
       y2="73.631721"
       gradientTransform="matrix(0.9888261,0,0,0.9888261,-4.885611,2.0244797)" />
    <linearGradient
       gradientTransform="matrix(1.036821,-1.811349e-6,3.827296e-7,0.964487,2.057071e-6,1.075978e-6)"
       spreadMethod="pad"
       gradientUnits="userSpaceOnUse"
       y2="21.4794312"
       x2="68.3603058"
       y1="32.8688049"
       x1="28.2520447"
       id="linearGradient587"
       xlink:href="#linearGradient584" />
    <linearGradient
       id="linearGradient584">
      <stop
         id="stop585"
         offset="0.000000"
         style="stop-color:#ffffff;stop-opacity:0;" />
      <stop
         id="stop586"
         offset="1.000000"
         style="stop-color:#ffffff;stop-opacity:1;" />
    </linearGradient>
    <inkscape:perspective
       id="perspective3551"
       inkscape:persp3d-origin="45 : 30 : 1"
       inkscape:vp_z="90 : 45 : 1"
       inkscape:vp_y="0 : 1000 : 0"
       inkscape:vp_x="0 : 45 : 1"
       sodipodi:type="inkscape:persp3d" />
    <inkscape:perspective
       id="perspective3629"
       inkscape:persp3d-origin="0.5 : 0.33333333 : 1"
       inkscape:vp_z="1 : 0.5 : 1"
       inkscape:vp_y="0 : 1000 : 0"
       inkscape:vp_x="0 : 0.5 : 1"
       sodipodi:type="inkscape:persp3d" />
  </defs>
  <sodipodi:namedview
     id="base"
     pagecolor="#ffffff"
     bordercolor="#666666"
     borderopacity="1.0"
     gridtolerance="10000"
     guidetolerance="10"
     objecttolerance="10"
     inkscape:pageopacity="0.0"
     inkscape:pageshadow="2"
     inkscape:zoom="1.979899"
     inkscape:cx="13.994702"
     inkscape:cy="11.11678"
     inkscape:document-units="px"
     inkscape:current-layer="layer1"
     showgrid="false"
     inkscape:window-width="926"
     inkscape:window-height="724"
     inkscape:window-x="55"
     inkscape:window-y="1" />
  <metadata
     id="metadata7">
    <rdf:RDF>
      <cc:Work
         rdf:about="">
        <dc:format>image/svg+xml</dc:format>
        <dc:type
           rdf:resource="http://purl.org/dc/dcmitype/StillImage" />
        <cc:license
           rdf:resource="" />
      </cc:Work>
    </rdf:RDF>
  </metadata>
  <g
     inkscape:label="Layer 1"
     inkscape:groupmode="layer"
     id="layer1">
    <path
       style="opacity:1;color:#000000;fill:#000000;fill-opacity:0.29411765;fill-rule:nonzero;stroke:none;stroke-width:7;marker:none;marker-start:none;marker-mid:none;marker-end:none;visibility:visible;display:inline;overflow:visible;enable-background:accumulate"
       d="M 52.935287,88.457749 C 69.012176,87.161226 73.105834,82.20961 80.162276,74.714602 87.944239,66.448981 83.273931,49.562052 61.233037,52.155099 47.574307,53.762008 13.780285,64.083111 52.935287,88.457749 z"
       id="path3527"
       sodipodi:nodetypes="cssc" />
    <g
       id="g3437"
       transform="matrix(0.9888261,0,0,0.9888261,-4.885611,2.0244797)">
      <path
         d="M 49.84375,0.375 C 48.893947,0.36369964 47.999142,0.42213911 47.1875,0.5 47.388717,0.48091391 47.225151,0.48995436 46.625,0.5625 46.614583,0.56246608 46.604167,0.56246608 46.59375,0.5625 46.057716,0.62836595 45.558464,0.68925695 45.09375,0.78125 44.612263,0.8759761 44.565669,0.92029693 44.9375,0.84375 44.108626,1.0152277 43.277897,1.2102344 42.46875,1.5 41.990128,1.6702578 41.77062,1.80403 41.75,1.8125 41.739583,1.8124661 41.729167,1.8124661 41.71875,1.8125 41.987799,1.7011428 41.763429,1.7503283 41.03125,2.09375 39.657619,2.7341237 39.628589,2.7671888 40.90625,2.15625 40.895785,2.1666186 40.885369,2.1770354 40.875,2.1875 c -0.606555,0.2921873 -0.702388,0.3553981 -0.3125,0.15625 -0.651374,0.3309681 -1.345891,0.7245336 -2.0625,1.25 -5.470258,4.0111611 -6.738267,10.736878 -5.875,16.25 0.67777,4.328475 2.409321,8.483251 5.75,11.1875 0.232826,1.497992 0.182707,4.880076 -0.125,8.25 -1.982375,0.57756 -3.914585,1.355483 -5.71875,2.53125 -1.474613,0.960999 -2.903988,2.120996 -3.96875,4.0625 -0.284112,0.518054 -0.298001,1.268954 -0.4375,1.9375 -2.637667,1.039445 -4.771274,3.184205 -5.375,5.5625 -0.123128,0.485044 -0.137542,0.964834 -0.1875,1.4375 -2.291364,0.934558 -4.105849,2.760861 -4.90625,4.71875 -0.564232,1.380188 -0.837016,2.866922 -0.75,4.34375 -2.971018,1.718121 -4.913181,4.747812 -5.125,7.65625 -0.278682,3.826517 1.444922,7.795246 5.59375,9.375 5.762348,2.194141 14.961238,8.891382 38,7.3125 7.103533,-0.492436 13.008121,-2.492473 17.34375,-4.96875 2.167814,-1.238138 3.962661,-2.572221 5.375,-4.09375 1.412339,-1.521529 2.78125,-3.167421 2.78125,-6.0625 1e-06,-0.861448 0.303638,-2.612138 0,-4.9375 -0.151819,-1.162681 -0.484583,-2.666585 -1.71875,-4.125 C 78.857563,63.678292 78.388485,63.469363 78,63.1875 77.930887,61.449279 77.44152,59.759565 76.4375,58.40625 75.567292,57.2333 74.354254,56.407985 73.03125,55.8125 72.59208,53.741855 71.341526,52.036937 69.96875,50.96875 69.293854,50.443599 68.604433,50.019957 67.90625,49.6875 67.83352,48.528729 67.618699,47.414978 67.15625,46.46875 65.715702,43.521207 63.284765,41.6624 60.5625,40.5 59.968073,40.246181 59.305283,40.167536 58.6875,39.96875 58.714319,36.615739 59.092821,33.047457 59.25,32.5 59.274287,32.396554 59.295132,32.29233 59.3125,32.1875 62.926866,29.748965 65.339637,26.022233 66.5,21.9375 67.892435,17.035821 67.62855,11.312058 64.1875,6.75 63.37346,5.6727588 63.324166,5.6250727 64.09375,6.625 63.78356,6.2213685 63.4152,5.8002535 62.96875,5.34375 62.883646,5.256506 62.759253,5.126715 62.59375,4.96875 62.260492,4.6520394 61.907094,4.3344845 61.5625,4.0625 61.359381,3.9015822 61.291948,3.8737516 61.375,3.9375 61.043612,3.684281 60.591512,3.3567149 60,3 59.312146,2.5845656 59.160612,2.5240369 59.5625,2.75 58.592228,2.2050892 57.514271,1.7450649 56.34375,1.375 56.212358,1.3336101 56.180375,1.3427717 56.0625,1.3125 56.199453,1.3454387 56.124314,1.2950452 56.28125,1.34375 55.846095,1.2082632 55.171916,0.9856422 54.3125,0.8125 54.018546,0.75354528 53.785725,0.74567039 53.625,0.71875 53.161217,0.64127408 52.694178,0.55174715 52.1875,0.5 52.177083,0.49996608 52.166667,0.49996608 52.15625,0.5 52.103344,0.49469075 51.982816,0.48584007 51.78125,0.46875 51.065931,0.40757447 50.428331,0.38175663 49.84375,0.375 z"
         id="path3390"
         style="opacity:1;color:#000000;fill:#593a28;fill-opacity:1;fill-rule:nonzero;stroke:none;stroke-width:7;marker:none;marker-start:none;marker-mid:none;marker-end:none;visibility:visible;display:inline;overflow:visible;enable-background:accumulate"
         inkscape:original="M 49.78125 5.1875 C 49.025517 5.1785086 48.33486 5.2161509 47.65625 5.28125 C 47.50381 5.2957094 47.336167 5.2945293 47.1875 5.3125 C 46.789379 5.3614197 46.402448 5.4265191 46.03125 5.5 C 45.988044 5.5085002 45.949097 5.5224293 45.90625 5.53125 C 45.26338 5.6642471 44.657273 5.8294455 44.09375 6.03125 C 43.911574 6.0960546 43.736599 6.1784844 43.5625 6.25 C 43.398741 6.3177784 43.219205 6.363999 43.0625 6.4375 C 43.029808 6.4527407 43.001136 6.484514 42.96875 6.5 C 42.891732 6.5371008 42.825302 6.586537 42.75 6.625 C 42.244029 6.8820878 41.773514 7.153618 41.34375 7.46875 C 33.989701 12.861233 37.41398 26.072164 43.28125 28.5 C 46.903379 29.464371 52.742229 29.716747 55.125 29.1875 C 61.61372 26.303624 64.953856 15.736962 60.34375 9.625 C 60.326341 9.6019622 60.298882 9.5854094 60.28125 9.5625 C 60.048931 9.2601972 59.803686 8.9660711 59.53125 8.6875 C 59.450125 8.6043355 59.365972 8.5183633 59.28125 8.4375 C 59.063571 8.2306293 58.835675 8.0346988 58.59375 7.84375 C 58.553361 7.8117524 58.509823 7.7815266 58.46875 7.75 C 58.169932 7.5216683 57.866803 7.2961073 57.53125 7.09375 C 57.435127 7.0356958 57.31795 6.9932756 57.21875 6.9375 C 56.524447 6.547575 55.755084 6.2058623 54.90625 5.9375 C 54.887723 5.9316638 54.862353 5.9432734 54.84375 5.9375 C 54.37206 5.790638 53.895884 5.6361899 53.375 5.53125 C 53.204599 5.4970748 53.019576 5.4669498 52.84375 5.4375 C 52.474994 5.3758985 52.080091 5.3213454 51.6875 5.28125 C 51.588266 5.2712917 51.475793 5.2585459 51.375 5.25 C 50.868542 5.2066867 50.327042 5.1938083 49.78125 5.1875 z M 43.09375 30.125 C 43.570443 32.995258 43.573591 38.446006 42.6875 43.25 C 42.616205 43.255739 42.539654 43.243997 42.46875 43.25 C 38.049056 43.624199 30.583637 47.313574 32.8125 50.71875 C 33.048061 51.078629 37.640223 57.219086 57.21875 55.03125 C 41.727333 60.754337 31.767703 51.91412 31.125 51.96875 C 26.51293 52.360779 26.738007 56.555465 28.34375 57.84375 C 29.473456 58.750112 41.687443 67.265333 58.875 63.25 L 57.9375 63.59375 C 43.309158 70.042073 26.611904 59.087869 26.3125 59.03125 C 26.062931 58.984056 25.82486 58.943518 25.59375 58.9375 C 22.127093 58.847228 20.764443 63.196258 22.40625 65.71875 C 22.987108 66.611189 38.470924 77.254754 60.03125 72.09375 C 42.552271 80.139571 22.153032 67.133754 20.96875 67.375 C 15.054659 68.579741 15.789017 75.179153 19.09375 76.4375 C 26.071198 79.094317 32.932302 84.954117 55.0625 83.4375 C 67.831846 82.552295 76.0625 76.201077 76.0625 73.09375 C 76.062503 70.374837 76.909096 66.522637 73.84375 66.4375 C 73.405843 66.425338 72.892931 66.500884 72.28125 66.65625 C 75.143049 62.555823 71.733111 58.612798 67.78125 59.9375 C 70.223831 55.101155 65.234105 53.056838 62.03125 53.625 C 62.047114 53.607762 62.046948 53.579765 62.0625 53.5625 C 65.03715 50.260048 62.323905 46.458985 58.6875 44.90625 C 57.323666 44.323897 55.695343 43.890114 53.9375 43.59375 C 53.383513 38.966433 54.028868 33.263841 54.625 31.1875 C 51.549754 31.833414 45.332103 31.047226 43.09375 30.125 z "
         inkscape:radius="4.7982244"
         sodipodi:type="inkscape:offset" />
      <path
         sodipodi:nodetypes="cccsscsc"
         id="path3322"
         d="m 73.84375,66.4375 c -0.437907,-0.012162 -0.950819,0.063384 -1.5625,0.21875 L 61.25,71.53125 C 43.520495,80.76726 22.180155,67.128229 20.96875,67.375 c -5.914091,1.204741 -5.179733,7.804153 -1.875,9.0625 6.977448,2.656817 13.838552,8.516617 35.96875,7 12.769346,-0.885205 21,-7.236423 21,-10.34375 3e-06,-2.718913 0.846596,-6.571113 -2.21875,-6.65625 z"
         style="opacity:1;color:#000000;fill:url(#linearGradient3448);fill-opacity:1;fill-rule:nonzero;stroke:none;stroke-width:7;marker:none;marker-start:none;marker-mid:none;marker-end:none;visibility:visible;display:inline;overflow:visible;enable-background:accumulate" />
      <path
         sodipodi:nodetypes="csccccscc"
         id="path3318"
         d="m 25.59375,58.9375 c -3.466657,-0.090272 -4.829307,4.258758 -3.1875,6.78125 0.599595,0.921227 17.081262,12.238183 39.732143,5.8303571 L 72.28125,66.65625 c 2.891582,-4.143101 -0.621272,-8.137585 -4.625,-6.6875 l -9.71875,3.625 C 43.309158,70.042073 26.611904,59.087869 26.3125,59.03125 26.062931,58.984056 25.82486,58.943518 25.59375,58.9375 z"
         style="opacity:1;color:#000000;fill:url(#linearGradient3450);fill-opacity:1;fill-rule:nonzero;stroke:none;stroke-width:7;marker:none;marker-start:none;marker-mid:none;marker-end:none;visibility:visible;display:inline;overflow:visible;enable-background:accumulate" />
      <path
         sodipodi:nodetypes="ccccccsc"
         id="path3320"
         d="M 67.678796,60.150661 C 70.390538,55.15427 65.282798,53.0482 62.03125,53.625 c 0.015864,-0.017238 0.015698,-0.045235 0.03125,-0.0625 -1.449522,0.384309 -2.896615,0.78721 -4.3125,1.28125 -15.795101,6.127568 -25.97497,-2.930253 -26.625,-2.875 l 0,0 c -4.61207,0.392029 -4.386993,4.586715 -2.78125,5.875 1.144169,0.917965 13.652427,9.6477421 31.188135,5.2525381"
         style="opacity:1;color:#000000;fill:url(#linearGradient3452);fill-opacity:1;fill-rule:nonzero;stroke:none;stroke-width:7;marker:none;marker-start:none;marker-mid:none;marker-end:none;visibility:visible;display:inline;overflow:visible;enable-background:accumulate" />
      <path
         sodipodi:nodetypes="cssccsc"
         id="path3307"
         d="m 46.71875,43.0625 c -1.452006,0.005308 -2.887857,0.072173 -4.25,0.1875 -4.419694,0.374199 -11.885113,4.063574 -9.65625,7.46875 0.237119,0.362259 4.8758914,6.5965391 24.784105,4.2825191 L 62.0625,53.5625 c 2.97465,-3.302452 0.261405,-7.103515 -3.375,-8.65625 -3.126213,-1.334883 -7.612733,-1.859674 -11.96875,-1.84375 z"
         style="opacity:1;color:#000000;fill:url(#linearGradient3454);fill-opacity:1;fill-rule:nonzero;stroke:none;stroke-width:7;marker:none;marker-start:none;marker-mid:none;marker-end:none;visibility:visible;display:inline;overflow:visible;enable-background:accumulate" />
      <path
         sodipodi:nodetypes="cccccc"
         id="path2481"
         d="m 41.772594,46.963054 c 1.776358,-5.338305 2.3211002,-13.830365 1.7149532,-17.480091 2.238355,0.922225 8.0621378,1.589505 11.137384,0.94359103 -0.818236,2.849937 -1.738266,13.303491 0.493426,17.648646 -0.724171,2.70604 -13.314463,2.935441 -13.345763,-1.112146 z"
         style="opacity:1;color:#000000;fill:url(#linearGradient3456);fill-opacity:1;fill-rule:nonzero;stroke:none;stroke-width:7;marker:none;marker-start:none;marker-mid:none;marker-end:none;visibility:visible;display:inline;overflow:visible;enable-background:accumulate" />
      <path
         sodipodi:nodetypes="cscc"
         id="path2485"
         d="M 55.122563,29.185633 C 64.368532,25.076313 67.26056,5.3797148 49.795229,5.1778496 32.311151,4.9698308 35.835902,25.411405 43.284043,28.493395 c 3.622128,0.964371 9.455749,1.221485 11.83852,0.692238 z"
         style="opacity:1;color:#000000;fill:#ed0000;fill-opacity:1;fill-rule:nonzero;stroke:none;stroke-width:7;marker:none;marker-start:none;marker-mid:none;marker-end:none;visibility:visible;display:inline;overflow:visible;enable-background:accumulate" />
      <path
         id="path2487"
         d="m 49.808693,5.1875 c -3.711002,-0.0441521 -6.487283,0.8283051 -8.46875,2.28125 -0.845395,2.869716 3.195689,4.497895 8.5625,4.4375 C 53.052478,11.870801 57.995928,11.74158 59.964943,10 60.107954,9.873508 60.21554,9.7466894 60.339943,9.625 58.380154,7.0315977 55.012397,5.2476447 49.808693,5.1875 z"
         style="opacity:1;color:#000000;fill:url(#linearGradient3458);fill-opacity:1;fill-rule:nonzero;stroke:none;stroke-width:7;marker:none;marker-start:none;marker-mid:none;marker-end:none;visibility:visible;display:inline;overflow:visible;enable-background:accumulate" />
      <path
         id="path2492"
         d="m 45.178572,8.6607141 c -3.75,0.26785714 -5.2678572,4.1964286 -5.2678572,6.0714286 0,1.875 0.17857143,1.9642857 0.98214286,0.26785714 0.80357134,-1.6964288 1.8750003,-4.2857138 4.4642853,-5.2678572 2.589286,-0.9821428 0.714286,-1.25 -0.178571,-1.0714286 z"
         style="opacity:1;color:#000000;fill:#ffffff;fill-opacity:1;fill-rule:nonzero;stroke:none;stroke-width:7;marker:none;marker-start:none;marker-mid:none;marker-end:none;visibility:visible;display:inline;overflow:visible;enable-background:accumulate" />
    </g>
    <path
       d="M 49.84375,0.375 C 48.893947,0.36369964 47.999142,0.42213911 47.1875,0.5 47.388717,0.48091391 47.225151,0.48995436 46.625,0.5625 46.614583,0.56246608 46.604167,0.56246608 46.59375,0.5625 46.057716,0.62836595 45.558464,0.68925695 45.09375,0.78125 44.612263,0.8759761 44.565669,0.92029693 44.9375,0.84375 44.108626,1.0152277 43.277897,1.2102344 42.46875,1.5 41.990128,1.6702578 41.77062,1.80403 41.75,1.8125 41.739583,1.8124661 41.729167,1.8124661 41.71875,1.8125 41.987799,1.7011428 41.763429,1.7503283 41.03125,2.09375 39.657619,2.7341237 39.628589,2.7671888 40.90625,2.15625 40.895785,2.1666186 40.885369,2.1770354 40.875,2.1875 c -0.606555,0.2921873 -0.702388,0.3553981 -0.3125,0.15625 -0.651374,0.3309681 -1.345891,0.7245336 -2.0625,1.25 -5.470258,4.0111611 -6.738267,10.736878 -5.875,16.25 0.67777,4.328475 2.409321,8.483251 5.75,11.1875 0.232826,1.497992 0.182707,4.880076 -0.125,8.25 -1.982375,0.57756 -3.914585,1.355483 -5.71875,2.53125 -1.474613,0.960999 -2.903988,2.120996 -3.96875,4.0625 -0.284112,0.518054 -0.298001,1.268954 -0.4375,1.9375 -2.637667,1.039445 -4.771274,3.184205 -5.375,5.5625 -0.123128,0.485044 -0.137542,0.964834 -0.1875,1.4375 -2.291364,0.934558 -4.105849,2.760861 -4.90625,4.71875 -0.564232,1.380188 -0.837016,2.866922 -0.75,4.34375 -2.971018,1.718121 -4.913181,4.747812 -5.125,7.65625 -0.278682,3.826517 1.444922,7.795246 5.59375,9.375 5.762348,2.194141 14.961238,8.891382 38,7.3125 7.103533,-0.492436 13.008121,-2.492473 17.34375,-4.96875 2.167814,-1.238138 3.962661,-2.572221 5.375,-4.09375 1.412339,-1.521529 2.78125,-3.167421 2.78125,-6.0625 1e-06,-0.861448 0.303638,-2.612138 0,-4.9375 -0.151819,-1.162681 -0.484583,-2.666585 -1.71875,-4.125 C 78.857563,63.678292 78.388485,63.469363 78,63.1875 77.930887,61.449279 77.44152,59.759565 76.4375,58.40625 75.567292,57.2333 74.354254,56.407985 73.03125,55.8125 72.59208,53.741855 71.341526,52.036937 69.96875,50.96875 69.293854,50.443599 68.604433,50.019957 67.90625,49.6875 67.83352,48.528729 67.618699,47.414978 67.15625,46.46875 65.715702,43.521207 63.284765,41.6624 60.5625,40.5 59.968073,40.246181 59.305283,40.167536 58.6875,39.96875 58.714319,36.615739 59.092821,33.047457 59.25,32.5 59.274287,32.396554 59.295132,32.29233 59.3125,32.1875 62.926866,29.748965 65.339637,26.022233 66.5,21.9375 67.892435,17.035821 67.62855,11.312058 64.1875,6.75 63.37346,5.6727588 63.324166,5.6250727 64.09375,6.625 63.78356,6.2213685 63.4152,5.8002535 62.96875,5.34375 62.883646,5.256506 62.759253,5.126715 62.59375,4.96875 62.260492,4.6520394 61.907094,4.3344845 61.5625,4.0625 61.359381,3.9015822 61.291948,3.8737516 61.375,3.9375 61.043612,3.684281 60.591512,3.3567149 60,3 59.312146,2.5845656 59.160612,2.5240369 59.5625,2.75 58.592228,2.2050892 57.514271,1.7450649 56.34375,1.375 56.212358,1.3336101 56.180375,1.3427717 56.0625,1.3125 56.199453,1.3454387 56.124314,1.2950452 56.28125,1.34375 55.846095,1.2082632 55.171916,0.9856422 54.3125,0.8125 54.018546,0.75354528 53.785725,0.74567039 53.625,0.71875 53.161217,0.64127408 52.694178,0.55174715 52.1875,0.5 52.177083,0.49996608 52.166667,0.49996608 52.15625,0.5 52.103344,0.49469075 51.982816,0.48584007 51.78125,0.46875 51.065931,0.40757447 50.428331,0.38175663 49.84375,0.375 z"
       id="path3462"
       style="color:#000000;fill:#593a28;fill-opacity:1;fill-rule:nonzero;stroke:none;stroke-width:7;marker:none;marker-start:none;marker-mid:none;marker-end:none;visibility:visible;display:inline;overflow:visible;enable-background:accumulate"
       inkscape:original="M 49.78125 5.1875 C 49.025517 5.1785086 48.33486 5.2161509 47.65625 5.28125 C 47.50381 5.2957094 47.336167 5.2945293 47.1875 5.3125 C 46.789379 5.3614197 46.402448 5.4265191 46.03125 5.5 C 45.988044 5.5085002 45.949097 5.5224293 45.90625 5.53125 C 45.26338 5.6642471 44.657273 5.8294455 44.09375 6.03125 C 43.911574 6.0960546 43.736599 6.1784844 43.5625 6.25 C 43.398741 6.3177784 43.219205 6.363999 43.0625 6.4375 C 43.029808 6.4527407 43.001136 6.484514 42.96875 6.5 C 42.891732 6.5371008 42.825302 6.586537 42.75 6.625 C 42.244029 6.8820878 41.773514 7.153618 41.34375 7.46875 C 33.989701 12.861233 37.41398 26.072164 43.28125 28.5 C 46.903379 29.464371 52.742229 29.716747 55.125 29.1875 C 61.61372 26.303624 64.953856 15.736962 60.34375 9.625 C 60.326341 9.6019622 60.298882 9.5854094 60.28125 9.5625 C 60.048931 9.2601972 59.803686 8.9660711 59.53125 8.6875 C 59.450125 8.6043355 59.365972 8.5183633 59.28125 8.4375 C 59.063571 8.2306293 58.835675 8.0346988 58.59375 7.84375 C 58.553361 7.8117524 58.509823 7.7815266 58.46875 7.75 C 58.169932 7.5216683 57.866803 7.2961073 57.53125 7.09375 C 57.435127 7.0356958 57.31795 6.9932756 57.21875 6.9375 C 56.524447 6.547575 55.755084 6.2058623 54.90625 5.9375 C 54.887723 5.9316638 54.862353 5.9432734 54.84375 5.9375 C 54.37206 5.790638 53.895884 5.6361899 53.375 5.53125 C 53.204599 5.4970748 53.019576 5.4669498 52.84375 5.4375 C 52.474994 5.3758985 52.080091 5.3213454 51.6875 5.28125 C 51.588266 5.2712917 51.475793 5.2585459 51.375 5.25 C 50.868542 5.2066867 50.327042 5.1938083 49.78125 5.1875 z M 43.09375 30.125 C 43.570443 32.995258 43.573591 38.446006 42.6875 43.25 C 42.616205 43.255739 42.539654 43.243997 42.46875 43.25 C 38.049056 43.624199 30.583637 47.313574 32.8125 50.71875 C 33.048061 51.078629 37.640223 57.219086 57.21875 55.03125 C 41.727333 60.754337 31.767703 51.91412 31.125 51.96875 C 26.51293 52.360779 26.738007 56.555465 28.34375 57.84375 C 29.473456 58.750112 41.687443 67.265333 58.875 63.25 L 57.9375 63.59375 C 43.309158 70.042073 26.611904 59.087869 26.3125 59.03125 C 26.062931 58.984056 25.82486 58.943518 25.59375 58.9375 C 22.127093 58.847228 20.764443 63.196258 22.40625 65.71875 C 22.987108 66.611189 38.470924 77.254754 60.03125 72.09375 C 42.552271 80.139571 22.153032 67.133754 20.96875 67.375 C 15.054659 68.579741 15.789017 75.179153 19.09375 76.4375 C 26.071198 79.094317 32.932302 84.954117 55.0625 83.4375 C 67.831846 82.552295 76.0625 76.201077 76.0625 73.09375 C 76.062503 70.374837 76.909096 66.522637 73.84375 66.4375 C 73.405843 66.425338 72.892931 66.500884 72.28125 66.65625 C 75.143049 62.555823 71.733111 58.612798 67.78125 59.9375 C 70.223831 55.101155 65.234105 53.056838 62.03125 53.625 C 62.047114 53.607762 62.046948 53.579765 62.0625 53.5625 C 65.03715 50.260048 62.323905 46.458985 58.6875 44.90625 C 57.323666 44.323897 55.695343 43.890114 53.9375 43.59375 C 53.383513 38.966433 54.028868 33.263841 54.625 31.1875 C 51.549754 31.833414 45.332103 31.047226 43.09375 30.125 z "
       inkscape:radius="4.7982244"
       sodipodi:type="inkscape:offset"
       transform="matrix(0.9888261,0,0,0.9888261,-4.885611,2.0244797)" />
    <path
       sodipodi:nodetypes="cccsscsc"
       id="path3464"
       d="m 68.133017,67.719612 c -0.433015,-0.012025 -0.940195,0.062676 -1.545041,0.216307 L 55.679988,72.756446 C 38.14859,81.889253 17.046706,68.402624 15.848837,68.646637 c -5.8480084,1.19128 -5.1218556,7.71695 -1.85405,8.961236 6.899484,2.627131 13.683922,8.421453 35.56684,6.921783 12.626663,-0.875314 20.765347,-7.155564 20.765347,-10.22817 3e-06,-2.688532 0.837136,-6.497688 -2.193957,-6.581874 z"
       style="color:#000000;fill:url(#linearGradient3522);fill-opacity:1;fill-rule:nonzero;stroke:none;stroke-width:7;marker:none;marker-start:none;marker-mid:none;marker-end:none;visibility:visible;display:inline;overflow:visible;enable-background:accumulate" />
    <path
       sodipodi:nodetypes="csccccscc"
       id="path3466"
       d="m 20.422157,60.303417 c -3.427921,-0.089263 -4.775344,4.211172 -3.151883,6.705477 0.592896,0.910933 16.890398,12.101434 39.288181,5.765209 l 10.029521,-4.838184 c 2.859271,-4.096807 -0.614331,-8.046656 -4.57332,-6.612775 L 52.4045,64.907639 C 37.939615,71.283908 21.428935,60.452106 21.132876,60.39612 c -0.24678,-0.046667 -0.48219,-0.086753 -0.710719,-0.092703 z"
       style="color:#000000;fill:url(#linearGradient3519);fill-opacity:1;fill-rule:nonzero;stroke:none;stroke-width:7;marker:none;marker-start:none;marker-mid:none;marker-end:none;visibility:visible;display:inline;overflow:visible;enable-background:accumulate" />
    <path
       sodipodi:nodetypes="ccccccsc"
       id="path3468"
       d="m 62.03695,61.503022 c 2.68144,-4.940562 -2.369226,-7.023098 -5.584441,-6.452743 0.015686,-0.017047 0.015522,-0.04473 0.030901,-0.061803 -1.433326,0.380015 -2.86425,0.778415 -4.264314,1.266935 -15.618608,6.059098 -25.684728,-2.897512 -26.327494,-2.842877 l 0,0 c -4.560536,0.387649 -4.337973,4.535465 -2.750174,5.809355 1.131386,0.907708 13.499877,9.539939 30.839643,5.193846"
       style="color:#000000;fill:url(#linearGradient3516);fill-opacity:1;fill-rule:nonzero;stroke:none;stroke-width:7;marker:none;marker-start:none;marker-mid:none;marker-end:none;visibility:visible;display:inline;overflow:visible;enable-background:accumulate" />
    <path
       sodipodi:nodetypes="cssccsc"
       id="path3470"
       d="m 41.311108,44.605802 c -1.43578,0.00525 -2.855588,0.071367 -4.202511,0.185405 -4.370308,0.370018 -11.752309,4.018168 -9.54835,7.385295 0.234469,0.358212 4.821408,6.522831 24.507169,4.234667 l 4.415994,-1.422693 c 2.941411,-3.265551 0.258484,-7.02414 -3.337289,-8.559525 -3.091282,-1.319967 -7.527668,-1.838895 -11.835013,-1.823149 z"
       style="color:#000000;fill:url(#linearGradient3513);fill-opacity:1;fill-rule:nonzero;stroke:none;stroke-width:7;marker:none;marker-start:none;marker-mid:none;marker-end:none;visibility:visible;display:inline;overflow:visible;enable-background:accumulate" />
    <path
       sodipodi:nodetypes="cccccc"
       id="path3472"
       d="m 36.42022,48.462772 c 1.756509,-5.278655 2.295165,-13.675826 1.695791,-17.28477 2.213343,0.91192 7.972052,1.571744 11.012935,0.933047 -0.809093,2.818092 -1.718842,13.15484 0.487913,17.451442 -0.716078,2.675803 -13.165688,2.902641 -13.196639,-1.099719 z"
       style="color:#000000;fill:url(#linearGradient3510);fill-opacity:1;fill-rule:nonzero;stroke:none;stroke-width:7;marker:none;marker-start:none;marker-mid:none;marker-end:none;visibility:visible;display:inline;overflow:visible;enable-background:accumulate" />
    <path
       sodipodi:nodetypes="cscc"
       id="path3474"
       d="M 49.621019,30.883995 C 58.763673,26.820591 61.623387,7.3440813 44.353211,7.1444725 27.064499,6.9387783 30.549865,27.151941 37.914782,30.199492 c 3.581653,0.953596 9.35009,1.207837 11.706237,0.684504 z"
       style="color:#000000;fill:#ed0000;fill-opacity:1;fill-rule:nonzero;stroke:none;stroke-width:7;marker:none;marker-start:none;marker-mid:none;marker-end:none;visibility:visible;display:inline;overflow:visible;enable-background:accumulate" />
    <path
       id="path3476"
       d="m 44.366525,7.1540151 c -3.669536,-0.0436588 -6.414794,0.8190497 -8.374122,2.2557595 -0.835947,2.8376509 3.159982,4.4476359 8.466825,4.3879159 3.114837,-0.035054 8.003048,-0.16283 9.950061,-1.88495 0.141413,-0.125078 0.247797,-0.250481 0.370811,-0.37081 C 52.842208,8.9775073 49.512083,7.2134878 44.366525,7.1540151 z"
       style="color:#000000;fill:url(#linearGradient3506);fill-opacity:1;fill-rule:nonzero;stroke:none;stroke-width:7;marker:none;marker-start:none;marker-mid:none;marker-end:none;visibility:visible;display:inline;overflow:visible;enable-background:accumulate" />
    <path
       id="path3478"
       d="m 39.788141,10.588418 c -3.708099,0.2648648 -5.208995,4.1495388 -5.208995,6.0035878 0,1.8540491 0.17657571,1.942337 0.97116848,0.26486357 0.79459252,-1.6774724 1.8540485,-4.2378254 4.4144015,-5.2089934 2.560353,-0.971169 0.706305,-1.236032 -0.176575,-1.059458 z"
       style="color:#000000;fill:#ffffff;fill-opacity:1;fill-rule:nonzero;stroke:none;stroke-width:7;marker:none;marker-start:none;marker-mid:none;marker-end:none;visibility:visible;display:inline;overflow:visible;enable-background:accumulate" />
  </g>
</svg>
