<?xml version="1.0" encoding="UTF-8" standalone="no"?>
<!-- Created with Sodipodi ("http://www.sodipodi.com/") -->
<svg
   xmlns:dc="http://purl.org/dc/elements/1.1/"
   xmlns:cc="http://web.resource.org/cc/"
   xmlns:rdf="http://www.w3.org/1999/02/22-rdf-syntax-ns#"
   xmlns:svg="http://www.w3.org/2000/svg"
   xmlns="http://www.w3.org/2000/svg"
   xmlns:sodipodi="http://sodipodi.sourceforge.net/DTD/sodipodi-0.dtd"
   xmlns:inkscape="http://www.inkscape.org/namespaces/inkscape"
   version="1.0"
   x="0"
   y="0"
   width="90"
   height="90"
   id="svg602"
   xml:space="preserve"
   sodipodi:version="0.32"
   inkscape:version="0.45.1"
   sodipodi:docname="window-capplet.svg"
   sodipodi:docbase="/home/nathan/GNUtoon/scalable/apps"
   inkscape:output_extension="org.inkscape.output.svg.inkscape"><metadata
     id="metadata22"><rdf:RDF><cc:Work
         rdf:about=""><dc:format>image/svg+xml</dc:format><dc:type
           rdf:resource="http://purl.org/dc/dcmitype/StillImage" /></cc:Work></rdf:RDF></metadata><sodipodi:namedview
     inkscape:window-height="480"
     inkscape:window-width="640"
     inkscape:pageshadow="2"
     inkscape:pageopacity="0.0"
     guidetolerance="10.0"
     gridtolerance="10.0"
     objecttolerance="10.0"
     borderopacity="1.0"
     bordercolor="#666666"
     pagecolor="#ffffff"
     id="base" /><defs
     id="defs604" /><rect
     width="75.000008"
     height="56.875008"
     ry="4.1143618"
     x="-78.218285"
     y="24.99999"
     style="font-size:12px;fill-opacity:0.32289997;fill-rule:evenodd"
     id="rect683"
     transform="scale(-1,1)" /><rect
     width="75.937508"
     height="56.875008"
     ry="4.1143618"
     x="-86.343292"
     y="12.499991"
     style="font-size:12px;fill-opacity:0.32289997;fill-rule:evenodd"
     id="rect682"
     transform="scale(-1,1)" /><path
     d="M 74.883211,20.62499 C 77.717921,20.62499 80.000011,22.98328 80.000011,25.91262 L 80.000011,71.27489 C 80.000011,74.20422 77.717921,76.56252 74.883211,76.56252 L 11.865861,76.56252 C 9.0311614,76.56252 6.7490614,74.20422 6.7490614,71.27489 L 6.7490614,25.91262 C 6.7490614,22.98328 9.0311614,20.62499 11.865861,20.62499 L 74.883211,20.62499 z "
     style="font-size:12px;fill:#66758a;fill-rule:evenodd"
     id="path668" /><path
     d="M 73.594981,22.36007 C 76.259651,22.36007 78.404861,23.72118 78.404861,25.4119 L 78.404861,27.01813 C 78.404861,28.70884 76.259651,30.06996 73.594981,30.06996 L 14.357441,30.06996 C 11.692771,30.06996 9.5475714,28.70884 9.5475714,27.01813 L 9.5475714,25.4119 C 9.5475714,23.72118 11.692771,22.36007 14.357441,22.36007 L 73.594981,22.36007 z "
     style="font-size:12px;fill:#99bed2;fill-rule:evenodd"
     id="path669" /><path
     d="M 72.821841,31.66512 C 75.472981,31.66512 77.607291,33.79943 77.607291,36.45056 L 77.607291,68.35355 C 77.607291,71.00469 75.472981,73.139 72.821841,73.139 L 14.598871,73.139 C 11.947741,73.139 9.8134314,71.00469 9.8134314,68.35355 L 9.8134314,36.45056 C 9.8134314,33.79943 11.947741,31.66512 14.598871,31.66512 L 72.821841,31.66512 z "
     style="font-size:12px;fill:#b3c3d7;fill-rule:evenodd"
     id="path670" /><path
     d="M 71.030791,26.24999 C 71.030791,27.80329 72.289991,29.06249 73.843291,29.06249 C 75.396591,29.06249 76.655791,27.80329 76.655791,26.24999 C 76.655791,24.69669 75.396591,23.43749 73.843291,23.43749 C 72.289991,23.43749 71.030791,24.69669 71.030791,26.24999 z "
     style="font-size:12px;fill:#ff0000;fill-rule:evenodd"
     id="path671" /><path
     d="M 64.780791,26.24999 C 64.780791,27.80329 66.039991,29.06249 67.593291,29.06249 C 69.146591,29.06249 70.405791,27.80329 70.405791,26.24999 C 70.405791,24.69669 69.146591,23.43749 67.593291,23.43749 C 66.039991,23.43749 64.780791,24.69669 64.780791,26.24999 z "
     style="font-size:12px;fill:#ff933d;fill-rule:evenodd"
     id="path672" /><path
     d="M 58.843291,26.24999 C 58.843291,27.80329 60.102491,29.06249 61.655791,29.06249 C 63.209091,29.06249 64.468291,27.80329 64.468291,26.24999 C 64.468291,24.69669 63.209091,23.43749 61.655791,23.43749 C 60.102491,23.43749 58.843291,24.69669 58.843291,26.24999 z "
     style="font-size:12px;fill:#29ad17;fill-rule:evenodd"
     id="path673" /><path
     d="M 18.843291,23.74999 C 20.228291,23.74999 21.343291,24.86499 21.343291,26.24999 C 21.343291,27.63499 20.228291,28.74999 18.843291,28.74999 L 14.468281,28.74999 C 13.083281,28.74999 11.968281,27.63499 11.968281,26.24999 C 11.968281,24.86499 13.083281,23.74999 14.468281,23.74999 L 18.843291,23.74999 z "
     style="font-size:12px;fill:#c7dfff;fill-rule:evenodd;stroke:#000000"
     id="path674" /><g
     transform="matrix(-1,0,0,1,92.593291,4.0625)"
     style="font-size:12px"
     id="g659"><path
       d="M 8.960077,2.812495 C 6.125367,2.812495 3.843279,5.170778 3.843279,8.100118 L 3.843279,53.46239 C 3.843279,56.39172 6.125367,58.75002 8.960077,58.75002 L 71.97743,58.75002 C 74.81213,58.75002 77.09423,56.39172 77.09423,53.46239 L 77.09423,8.100118 C 77.09423,5.170778 74.81213,2.812495 71.97743,2.812495 L 8.960077,2.812495 z "
       style="fill:#3d4e67;fill-rule:evenodd"
       id="path611" /><path
       d="M 10.24831,4.547568 C 7.58364,4.547568 5.43843,5.90868 5.43843,7.5994 L 5.43843,9.20563 C 5.43843,10.89634 7.58364,12.25746 10.24831,12.25746 L 69.48585,12.25746 C 72.15052,12.25746 74.29572,10.89634 74.29572,9.20563 L 74.29572,7.5994 C 74.29572,5.90868 72.15052,4.547568 69.48585,4.547568 L 10.24831,4.547568 z "
       style="fill:#bae6ff;fill-rule:evenodd"
       id="path610" /><path
       d="M 11.02145,13.85262 C 8.37031,13.85262 6.236,15.98693 6.236,18.63806 L 6.236,50.54105 C 6.236,53.19219 8.37031,55.3265 11.02145,55.3265 L 69.24442,55.3265 C 71.89555,55.3265 74.02986,53.19219 74.02986,50.54105 L 74.02986,18.63806 C 74.02986,15.98693 71.89555,13.85262 69.24442,13.85262 L 11.02145,13.85262 z "
       style="fill:#9bb9e3;fill-rule:evenodd"
       id="path609" /><path
       d="M 13.4375,10.62499 C 13.4375,12.17829 12.1783,13.43749 10.625,13.43749 C 9.071699,13.43749 7.8125,12.17829 7.8125,10.62499 C 7.8125,9.07169 9.071699,7.81249 10.625,7.81249 C 12.1783,7.81249 13.4375,9.07169 13.4375,10.62499 z "
       transform="translate(-0.625,-2.1875)"
       style="fill:#ff0000;fill-rule:evenodd"
       id="path648" /><path
       d="M 19.0625,8.43749 C 19.0625,9.99079 17.8033,11.24999 16.25,11.24999 C 14.6967,11.24999 13.4375,9.99079 13.4375,8.43749 C 13.4375,6.88419 14.6967,5.62499 16.25,5.62499 C 17.8033,5.62499 19.0625,6.88419 19.0625,8.43749 z "
       style="fill:#ff933d;fill-rule:evenodd"
       id="path649" /><path
       d="M 25,8.43749 C 25,9.99079 23.7408,11.24999 22.1875,11.24999 C 20.6342,11.24999 19.375,9.99079 19.375,8.43749 C 19.375,6.88419 20.6342,5.62499 22.1875,5.62499 C 23.7408,5.62499 25,6.88419 25,8.43749 z "
       style="fill:#29ad17;fill-rule:evenodd"
       id="path650" /><path
       d="M 65,5.93749 C 63.615,5.93749 62.5,7.05249 62.5,8.43749 C 62.5,9.82249 63.615,10.93749 65,10.93749 L 69.37501,10.93749 C 70.76001,10.93749 71.87501,9.82249 71.87501,8.43749 C 71.87501,7.05249 70.76001,5.93749 69.37501,5.93749 L 65,5.93749 z "
       style="fill:#ffffff;fill-rule:evenodd;stroke:#000000"
       id="path658" /></g></svg>