<?xml version="1.0" encoding="UTF-8" standalone="no"?>
<!-- Created with Sodipodi ("http://www.sodipodi.com/") -->
<svg
   xmlns:dc="http://purl.org/dc/elements/1.1/"
   xmlns:cc="http://web.resource.org/cc/"
   xmlns:rdf="http://www.w3.org/1999/02/22-rdf-syntax-ns#"
   xmlns:svg="http://www.w3.org/2000/svg"
   xmlns="http://www.w3.org/2000/svg"
   xmlns:xlink="http://www.w3.org/1999/xlink"
   xmlns:sodipodi="http://sodipodi.sourceforge.net/DTD/sodipodi-0.dtd"
   xmlns:inkscape="http://www.inkscape.org/namespaces/inkscape"
   version="1.0"
   x="0"
   y="0"
   width="90"
   height="90"
   id="svg602"
   xml:space="preserve"
   sodipodi:version="0.32"
   sodipodi:docname="wmtweaks.svg"
   sodipodi:docbase="/home/nathan/GNUtoon/scalable/apps"
   inkscape:version="0.45.1"
   inkscape:output_extension="org.inkscape.output.svg.inkscape"><metadata
     id="metadata21"><rdf:RDF><cc:Work
         rdf:about=""><dc:format>image/svg+xml</dc:format><dc:type
           rdf:resource="http://purl.org/dc/dcmitype/StillImage" /></cc:Work></rdf:RDF></metadata><sodipodi:namedview
     id="base"
     inkscape:zoom="4.5222222"
     inkscape:cx="45"
     inkscape:cy="45"
     inkscape:window-width="1024"
     inkscape:window-height="701"
     inkscape:window-x="0"
     inkscape:window-y="42"
     inkscape:current-layer="svg602" /><defs
     id="defs604"><linearGradient
       inkscape:collect="always"
       xlink:href="#linearGradient604"
       id="linearGradient1099"
       gradientUnits="userSpaceOnUse"
       gradientTransform="scale(0.994399,1.005632)"
       spreadMethod="pad"
       x1="61.0468903"
       y1="28.6572132"
       x2="79.6281509"
       y2="14.1547699" /><linearGradient
       xlink:href="#linearGradient554"
       id="linearGradient559"
       x1="7.79836702"
       y1="68.6560287"
       x2="12.9945765"
       y2="78.4289169"
       gradientUnits="userSpaceOnUse"
       spreadMethod="pad"
       gradientTransform="matrix(-0.575617,0,0,0.456837,68.774946,53.824958)" /><linearGradient
       id="linearGradient554"><stop
         style="stop-color:#666565;stop-opacity:1;"
         offset="0.000000"
         id="stop555" /><stop
         style="stop-color:#ffffff;stop-opacity:1;"
         offset="1.000000"
         id="stop556" /></linearGradient><linearGradient
       xlink:href="#linearGradient554"
       id="linearGradient557"
       x1="12.9236002"
       y1="79.9603500"
       x2="8.33575153"
       y2="72.2902298"
       gradientUnits="userSpaceOnUse"
       spreadMethod="pad"
       gradientTransform="matrix(-0.575617,0,0,0.456837,67.647412,38.788102)" /><linearGradient
       id="linearGradient604"><stop
         offset="0.000000"
         style="stop-color:#666565;stop-opacity:1;"
         id="stop606" /><stop
         offset="1.000000"
         style="stop-color:#ffffff;stop-opacity:1;"
         id="stop605" /></linearGradient><linearGradient
       inkscape:collect="always"
       xlink:href="#linearGradient604"
       id="linearGradient2441"
       gradientUnits="userSpaceOnUse"
       gradientTransform="scale(0.994399,1.005632)"
       spreadMethod="pad"
       x1="61.0468903"
       y1="28.6572132"
       x2="79.6281509"
       y2="14.1547699" /><linearGradient
       inkscape:collect="always"
       xlink:href="#linearGradient554"
       id="linearGradient2423"
       gradientUnits="userSpaceOnUse"
       gradientTransform="matrix(-0.575617,0,0,0.456837,68.774946,53.824958)"
       spreadMethod="pad"
       x1="12.9236002"
       y1="79.9603500"
       x2="8.33575153"
       y2="72.2902298" /></defs><rect
     width="75.000008"
     height="56.875008"
     ry="4.1143618"
     x="-77.997154"
     y="8.4152231"
     style="font-size:12px;fill-opacity:0.32289997;fill-rule:evenodd"
     id="rect683"
     transform="scale(-1,1)" /><path
     d="M 74.662081,4.4824839 C 77.496791,4.4824839 79.778881,6.8407739 79.778881,9.7701139 L 79.778881,55.132384 C 79.778881,58.061714 77.496791,60.420014 74.662081,60.420014 L 11.644731,60.420014 C 8.8100312,60.420014 6.5279312,58.061714 6.5279312,55.132384 L 6.5279312,9.7701139 C 6.5279312,6.8407739 8.8100312,4.4824839 11.644731,4.4824839 L 74.662081,4.4824839 z "
     style="font-size:12px;fill:#66758a;fill-rule:evenodd"
     id="path668" /><path
     d="M 73.373851,6.2175639 C 76.038521,6.2175639 78.183731,7.5786739 78.183731,9.2693939 L 78.183731,10.875624 C 78.183731,12.566334 76.038521,13.927454 73.373851,13.927454 L 14.136311,13.927454 C 11.471641,13.927454 9.3264412,12.566334 9.3264412,10.875624 L 9.3264412,9.2693939 C 9.3264412,7.5786739 11.471641,6.2175639 14.136311,6.2175639 L 73.373851,6.2175639 z "
     style="font-size:12px;fill:#99bed2;fill-rule:evenodd"
     id="path669" /><path
     d="M 72.600711,15.522614 C 75.251851,15.522614 77.386161,17.656924 77.386161,20.308054 L 77.386161,52.211044 C 77.386161,54.862184 75.251851,56.996494 72.600711,56.996494 L 14.377741,56.996494 C 11.726611,56.996494 9.5923012,54.862184 9.5923012,52.211044 L 9.5923012,20.308054 C 9.5923012,17.656924 11.726611,15.522614 14.377741,15.522614 L 72.600711,15.522614 z "
     style="font-size:12px;fill:#b3c3d7;fill-rule:evenodd"
     id="path670" /><path
     d="M 70.809661,10.107484 C 70.809661,11.660784 72.068861,12.919984 73.622161,12.919984 C 75.175461,12.919984 76.434661,11.660784 76.434661,10.107484 C 76.434661,8.5541839 75.175461,7.2949839 73.622161,7.2949839 C 72.068861,7.2949839 70.809661,8.5541839 70.809661,10.107484 z "
     style="font-size:12px;fill:#ff0000;fill-rule:evenodd"
     id="path671" /><path
     d="M 64.559661,10.107484 C 64.559661,11.660784 65.818861,12.919984 67.372161,12.919984 C 68.925461,12.919984 70.184661,11.660784 70.184661,10.107484 C 70.184661,8.5541839 68.925461,7.2949839 67.372161,7.2949839 C 65.818861,7.2949839 64.559661,8.5541839 64.559661,10.107484 z "
     style="font-size:12px;fill:#ff933d;fill-rule:evenodd"
     id="path672" /><path
     d="M 58.622161,10.107484 C 58.622161,11.660784 59.881361,12.919984 61.434661,12.919984 C 62.987961,12.919984 64.247161,11.660784 64.247161,10.107484 C 64.247161,8.5541839 62.987961,7.2949839 61.434661,7.2949839 C 59.881361,7.2949839 58.622161,8.5541839 58.622161,10.107484 z "
     style="font-size:12px;fill:#29ad17;fill-rule:evenodd"
     id="path673" /><path
     d="M 18.622161,7.6074839 C 20.007161,7.6074839 21.122161,8.7224839 21.122161,10.107484 C 21.122161,11.492484 20.007161,12.607484 18.622161,12.607484 L 14.247151,12.607484 C 12.862151,12.607484 11.747151,11.492484 11.747151,10.107484 C 11.747151,8.7224839 12.862151,7.6074839 14.247151,7.6074839 L 18.622161,7.6074839 z "
     style="font-size:12px;fill:#c7dfff;fill-rule:evenodd;stroke:#000000"
     id="path674" /><rect
     width="75.937508"
     height="56.875008"
     ry="4.1143618"
     x="-85.41404"
     y="26.119467"
     style="font-size:12px;fill-opacity:0.32289997;fill-rule:evenodd"
     id="rect682"
     transform="scale(-1,1)" /><path
     d="M 70.101541,41.638507 C 70.101541,43.191807 71.360741,44.451007 72.914041,44.451007 C 74.467341,44.451007 75.726541,43.191807 75.726541,41.638507 C 75.726541,40.085207 74.467341,38.826007 72.914041,38.826007 C 71.360741,38.826007 70.101541,40.085207 70.101541,41.638507 z "
     style="font-size:12px;fill:#ff0000;fill-rule:evenodd"
     id="path2393" /><path
     d="M 63.851541,41.638507 C 63.851541,43.191807 65.110741,44.451007 66.664041,44.451007 C 68.217341,44.451007 69.476541,43.191807 69.476541,41.638507 C 69.476541,40.085207 68.217341,38.826007 66.664041,38.826007 C 65.110741,38.826007 63.851541,40.085207 63.851541,41.638507 z "
     style="font-size:12px;fill:#ff933d;fill-rule:evenodd"
     id="path2395" /><path
     d="M 57.914041,41.638507 C 57.914041,43.191807 59.173241,44.451007 60.726541,44.451007 C 62.279841,44.451007 63.539041,43.191807 63.539041,41.638507 C 63.539041,40.085207 62.279841,38.826007 60.726541,38.826007 C 59.173241,38.826007 57.914041,40.085207 57.914041,41.638507 z "
     style="font-size:12px;fill:#29ad17;fill-rule:evenodd"
     id="path2397" /><path
     d="M 82.703967,22.263512 C 85.538677,22.263512 87.820767,24.621795 87.820767,27.551135 L 87.820767,72.913407 C 87.820767,75.842737 85.538677,78.201037 82.703967,78.201037 L 19.686611,78.201037 C 16.851911,78.201037 14.569811,75.842737 14.569811,72.913407 L 14.569811,27.551135 C 14.569811,24.621795 16.851911,22.263512 19.686611,22.263512 L 82.703967,22.263512 z "
     style="font-size:12px;fill:#3d4e67;fill-rule:evenodd"
     id="path611" /><path
     d="M 81.415727,23.998585 C 84.080397,23.998585 86.225607,25.359697 86.225607,27.050417 L 86.225607,28.656647 C 86.225607,30.347357 84.080397,31.708477 81.415727,31.708477 L 22.178191,31.708477 C 19.513521,31.708477 17.368321,30.347357 17.368321,28.656647 L 17.368321,27.050417 C 17.368321,25.359697 19.513521,23.998585 22.178191,23.998585 L 81.415727,23.998585 z "
     style="font-size:12px;fill:#bae6ff;fill-rule:evenodd"
     id="path610" /><path
     d="M 80.642587,33.303637 C 83.293727,33.303637 85.428037,35.437947 85.428037,38.089077 L 85.428037,69.992067 C 85.428037,72.643207 83.293727,74.777517 80.642587,74.777517 L 22.419621,74.777517 C 19.768491,74.777517 17.634181,72.643207 17.634181,69.992067 L 17.634181,38.089077 C 17.634181,35.437947 19.768491,33.303637 22.419621,33.303637 L 80.642587,33.303637 z "
     style="font-size:12px;fill:#ffffff;fill-opacity:1;fill-rule:evenodd"
     id="path609" /><path
     d="M 78.851537,27.888507 C 78.851537,29.441807 80.110737,30.701007 81.664037,30.701007 C 83.217347,30.701007 84.476537,29.441807 84.476537,27.888507 C 84.476537,26.335207 83.217347,25.076007 81.664037,25.076007 C 80.110737,25.076007 78.851537,26.335207 78.851537,27.888507 z "
     style="font-size:12px;fill:#ff0000;fill-rule:evenodd"
     id="path648" /><path
     d="M 72.601541,27.888507 C 72.601541,29.441807 73.860741,30.701007 75.414041,30.701007 C 76.967341,30.701007 78.226537,29.441807 78.226537,27.888507 C 78.226537,26.335207 76.967341,25.076007 75.414041,25.076007 C 73.860741,25.076007 72.601541,26.335207 72.601541,27.888507 z "
     style="font-size:12px;fill:#ff933d;fill-rule:evenodd"
     id="path649" /><path
     d="M 66.664041,27.888507 C 66.664041,29.441807 67.923241,30.701007 69.476541,30.701007 C 71.029841,30.701007 72.289041,29.441807 72.289041,27.888507 C 72.289041,26.335207 71.029841,25.076007 69.476541,25.076007 C 67.923241,25.076007 66.664041,26.335207 66.664041,27.888507 z "
     style="font-size:12px;fill:#29ad17;fill-rule:evenodd"
     id="path650" /><path
     d="M 26.664041,25.388507 C 28.049041,25.388507 29.164041,26.503507 29.164041,27.888507 C 29.164041,29.273507 28.049041,30.388507 26.664041,30.388507 L 22.289031,30.388507 C 20.904031,30.388507 19.789031,29.273507 19.789031,27.888507 C 19.789031,26.503507 20.904031,25.388507 22.289031,25.388507 L 26.664041,25.388507 z "
     style="font-size:12px;fill:#ffffff;fill-rule:evenodd;stroke:#000000"
     id="path658" /><path
     style="font-size:12px;fill:url(#linearGradient557);fill-rule:evenodd;stroke-width:1pt"
     d="M 60.869452,58.339516 C 60.540402,58.916185 60.859642,59.722638 61.582022,60.139647 C 62.304432,60.556665 63.157772,60.427103 63.486832,59.850434 C 63.815882,59.273767 63.496642,58.46731 62.774232,58.050292 C 62.051852,57.633284 61.198512,57.762848 60.869452,58.339516 z "
     id="path561" /><path
     style="fill:#000000;fill-opacity:0.3;fill-rule:evenodd;stroke:none;stroke-width:1pt;stroke-linecap:butt;stroke-linejoin:miter;stroke-opacity:1"
     d="M 48.322743,55.042874 L 61.872703,64.030792 C 64.321113,65.048654 67.362623,61.849339 65.020653,58.901145 L 51.516343,49.584667 L 51.470713,45.213992 L 43.897313,41.366368 L 41.844303,44.971553 L 45.083543,47.77444 L 44.627293,48.75881 L 40.065003,46.74819 L 38.240123,51.058403 L 44.125433,55.567797 L 48.322743,55.042874 z "
     id="path570"
     sodipodi:nodetypes="ccccccccccccc" /><path
     style="fill:#000000;fill-opacity:1;fill-rule:evenodd;stroke:none;stroke-width:1pt;stroke-linecap:butt;stroke-linejoin:miter;stroke-opacity:1"
     d="M 49.512693,53.952087 L 63.062653,62.940005 C 65.511063,63.957867 68.552573,60.75855 66.210603,57.810357 L 52.706293,48.49388 L 52.660663,44.123204 L 45.087253,40.275581 L 43.034253,43.880766 L 46.273493,46.683653 L 45.817243,47.668023 L 41.254953,45.657403 L 39.430073,49.967616 L 45.315383,54.477009 L 49.512693,53.952087 z "
     id="path569"
     sodipodi:nodetypes="ccccccccccccc" /><path
     style="fill:#c9c9c9;fill-opacity:1;fill-rule:evenodd;stroke:none;stroke-width:1pt;stroke-linecap:butt;stroke-linejoin:miter;stroke-opacity:1"
     d="M 49.603943,52.456844 L 62.925773,61.490149 C 64.781103,62.372204 66.545173,60.151904 65.206903,58.387824 L 51.337603,49.172032 L 51.383213,44.837867 L 45.497873,41.826755 L 44.631033,43.651696 L 47.596543,46.754021 L 46.227853,49.080756 L 41.756803,47.210272 L 40.935613,49.445763 L 45.589113,52.913094 L 49.603943,52.456844 z "
     id="path552"
     sodipodi:nodetypes="ccccccccccccc" /><path
     style="fill:#9d9d9d;fill-opacity:1;fill-rule:evenodd;stroke:none;stroke-width:1pt;stroke-linecap:butt;stroke-linejoin:miter;stroke-opacity:1"
     d="M 49.695183,52.502482 C 49.740793,52.365632 50.744503,51.909381 50.379533,51.270673 L 54.759303,54.190541 C 54.668053,54.646761 54.257443,55.42235 54.257443,55.467956 C 54.257443,55.513593 49.832033,52.639363 49.695183,52.502482 z "
     id="path566"
     sodipodi:nodetypes="ccccc" /><path
     style="fill:#ffc83d;fill-opacity:1;fill-rule:evenodd;stroke:none;stroke-width:1pt;stroke-linecap:butt;stroke-linejoin:miter;stroke-opacity:1"
     d="M 53.162513,54.829217 L 62.925773,61.490149 C 64.781103,62.372204 66.545173,60.151904 65.206903,58.387824 L 55.215553,51.726892 C 53.573133,52.16792 53.253763,53.566995 53.162513,54.829217 z "
     id="path562"
     sodipodi:nodetypes="ccccc" /><path
     style="fill:#ffffff;fill-opacity:1;fill-rule:evenodd;stroke:none;stroke-width:1pt;stroke-linecap:butt;stroke-linejoin:miter;stroke-opacity:1"
     d="M 54.713663,52.776214 L 64.111963,58.935288 C 64.111963,58.935288 64.796303,58.615918 64.705063,58.570312 C 64.613813,58.524675 55.306763,52.183111 55.306763,52.183111 L 54.713663,52.776214 z "
     id="path568" /><path
     style="fill:#ff933d;fill-opacity:1;fill-rule:evenodd;stroke:none;stroke-width:1pt;stroke-linecap:butt;stroke-linejoin:miter;stroke-opacity:1"
     d="M 53.162513,54.829217 L 62.925773,61.490149 C 64.233623,61.824741 62.347893,61.201225 64.385693,59.893365 L 54.348723,53.141189 C 53.846863,53.217241 53.253763,53.566995 53.162513,54.829217 z "
     id="path567"
     sodipodi:nodetypes="ccccc" /><path
     style="font-size:12px;fill:url(#linearGradient2423);fill-rule:evenodd;stroke-width:1pt"
     d="M 61.753973,58.339516 C 61.424923,58.916185 61.744163,59.722638 62.466543,60.139647 C 63.188953,60.556665 64.042293,60.427103 64.371353,59.850434 C 64.700403,59.273767 64.381163,58.46731 63.658753,58.050292 C 62.936373,57.633284 62.083033,57.762848 61.753973,58.339516 z "
     id="path2396" /><path
     style="font-size:12px;fill:url(#linearGradient559);fill-rule:evenodd;stroke-width:1pt"
     d="M 62.086073,58.531227 C 61.840513,58.961559 62.078743,59.563365 62.617813,59.874552 C 63.156903,60.185747 63.793693,60.089064 64.039253,59.658733 C 64.284803,59.228401 64.046573,58.626593 63.507483,58.315398 C 62.968413,58.00421 62.331623,58.100896 62.086073,58.531227 z "
     id="path560" /><path
     style="fill:#969696;fill-opacity:1;fill-rule:evenodd;stroke:none;stroke-width:1pt;stroke-linecap:butt;stroke-linejoin:miter;stroke-opacity:1"
     d="M 45.862873,42.739225 L 50.470773,45.157236 L 50.470773,48.578931 L 48.737113,51.407524 L 45.725993,51.772531 L 41.665563,49.263275 L 42.076173,48.213955 L 46.638463,50.266958 L 48.600223,46.845265 L 45.497873,43.42357 L 45.862873,42.739225 z "
     id="path564"
     sodipodi:nodetypes="ccccccccccc" /><path
     style="fill:#bbbbbb;fill-opacity:1;fill-rule:evenodd;stroke:none;stroke-width:1pt;stroke-linecap:butt;stroke-linejoin:miter;stroke-opacity:1"
     d="M 45.680393,43.104201 L 50.151403,45.7047 L 49.968913,48.442049 L 48.463373,50.905666 L 45.725993,51.772531 L 41.665563,49.263275 L 41.984933,48.533324 L 46.410343,50.586328 L 48.508983,46.890902 L 45.497873,43.42357 L 45.680393,43.104201 z "
     id="path565"
     sodipodi:nodetypes="ccccccccccc" /><g
     id="g790"
     transform="matrix(0.339011,0,0,0.339011,37.849563,39.450876)"><defs
       id="defs573"><linearGradient
         id="linearGradient2331"><stop
           offset="0.000000"
           style="stop-color:#666565;stop-opacity:1;"
           id="stop2333" /><stop
           offset="1.000000"
           style="stop-color:#ffffff;stop-opacity:1;"
           id="stop2335" /></linearGradient><linearGradient
         id="linearGradient600"><stop
           style="stop-color:#000;stop-opacity:1;"
           offset="0"
           id="stop601" /><stop
           style="stop-color:#fff;stop-opacity:1;"
           offset="1"
           id="stop602" /></linearGradient><linearGradient
         xlink:href="#linearGradient604"
         id="linearGradient603"
         x1="61.04689"
         y1="28.657213"
         x2="79.628151"
         y2="14.15477"
         gradientUnits="userSpaceOnUse"
         spreadMethod="pad"
         gradientTransform="scale(0.994399,1.005632)" /></defs><sodipodi:namedview
       id="namedview799" /><path
       style="fill:#000000;fill-opacity:0.30275197;fill-rule:evenodd;stroke:none;stroke-width:1pt;stroke-linecap:butt;stroke-linejoin:miter;stroke-opacity:1"
       d="M 1.25,73.9062 L 31.7187,41.8749 C 35.3646,40.8853 38.2292,39.8957 39.6876,41.7187 L 53.5938,27.9686 L 54.0626,15.6249 L 73.5938,3.12489 L 86.4064,16.0937 C 85.7814,17.4999 75.0001,36.0936 74.2188,37.1874 C 73.2813,37.0312 64.8438,37.6562 63.2813,37.6562 C 62.0313,37.3437 51.2501,49.2187 50.6251,50.4687 C 52.0834,52.1354 51.9793,55.2083 51.0938,57.3437 L 20.1562,89.6875 C 10.3646,93.3333 -0.208344,88.2291 1.25,73.9062 z "
       id="path613"
       sodipodi:nodetypes="ccccccccccccc"
       transform="matrix(0.949606,0,0,0.949606,3.089142,0.15748)" /><path
       style="fill:#000000;fill-opacity:1;fill-rule:evenodd;stroke:none;stroke-width:1pt;stroke-linecap:butt;stroke-linejoin:miter;stroke-opacity:1"
       d="M 1.25,73.9062 L 31.7187,41.8749 C 35.3646,40.8853 38.2292,39.8957 39.6876,41.7187 L 53.5938,27.9686 L 54.0626,15.6249 L 73.5938,3.12489 L 86.4064,16.0937 C 85.7814,17.4999 75.0001,36.0936 74.2188,37.1874 C 73.2813,37.0312 64.8438,37.6562 63.2813,37.6562 C 62.0313,37.3437 51.2501,49.2187 50.6251,50.4687 C 52.0834,52.1354 51.9793,55.2083 51.0938,57.3437 L 20.1562,89.6875 C 10.3646,93.3333 -0.208344,88.2291 1.25,73.9062 z "
       id="path612"
       sodipodi:nodetypes="ccccccccccccc"
       transform="matrix(0.949606,0,0,0.949606,-4.456341e-3,-2.494173)" /><path
       sodipodi:type="arc"
       style="fill:#ff933d;fill-opacity:1;fill-rule:evenodd;stroke:none;stroke-width:1pt;stroke-linecap:butt;stroke-linejoin:miter;stroke-opacity:1"
       id="path596"
       d="M 22.980988 78.619995 A 7.1815591 6.2976718 0 1 1  8.6178699,78.619995 A 7.1815591 6.2976718 0 1 1  22.980988 78.619995 z"
       sodipodi:cx="15.799429"
       sodipodi:cy="78.619995"
       sodipodi:rx="7.1815591"
       sodipodi:ry="6.2976718"
       transform="matrix(0.877883,0.215653,2.038332e-2,0.922358,-3.265319,-3.362741)" /><path
       style="fill:#c2c2c2;fill-opacity:1;fill-rule:evenodd;stroke:none;stroke-width:1pt;stroke-linecap:butt;stroke-linejoin:miter;stroke-opacity:1"
       d="M 39.5538,47.3526 C 39.3329,47.3526 57.6735,29.4539 57.6735,29.4539 L 58.1154,18.6263 L 72.6995,8.46167 L 81.5384,17.0796 L 71.5946,33.2104 L 61.6509,32.7685 L 43.7523,51.772 L 39.5538,47.3526 z "
       id="path598"
       sodipodi:nodetypes="ccccccccc"
       transform="matrix(0.949606,0,0,0.949606,-4.456341e-3,-2.494173)" /><path
       style="fill:#ffffff;fill-opacity:0.98165128;fill-rule:evenodd;stroke:none;stroke-width:1pt;stroke-linecap:butt;stroke-linejoin:miter;stroke-opacity:1"
       d="M 41.7635,47.5735 C 42.4265,47.1316 58.3364,30.7797 58.3364,30.7797 L 59.4412,32.3265 L 43.3103,48.8994 L 41.7635,47.5735 z "
       id="path607"
       transform="matrix(0.949606,0,0,0.949606,-4.456341e-3,-2.494173)" /><path
       style="fill:#e32116;fill-opacity:1;fill-rule:evenodd;stroke:none;stroke-width:1pt;stroke-linecap:butt;stroke-linejoin:miter;stroke-opacity:1"
       d="M 29.6875,50.3125 C 29.6875,50.4687 33.75,46.25 35,45.4688 C 40,43.125 45.9375,49.8437 46.4063,54.375 C 45.4688,55.1562 41.4063,60.1562 41.4063,60.1562 C 38.9063,53.9062 35.625,51.25 29.6875,50.3125 z "
       id="path597"
       sodipodi:nodetypes="ccccc"
       transform="matrix(0.949606,0,0,0.949606,-4.456341e-3,-2.494173)" /><path
       style="fill:#ffc93f;fill-opacity:1;fill-rule:evenodd;stroke:none;stroke-width:1pt;stroke-linecap:butt;stroke-linejoin:miter;stroke-opacity:1"
       d="M 8.61787,72.7643 C 15.6889,72.5433 19.2245,79.3934 18.7825,83.8128 C 21.4342,80.7192 41.5426,59.9479 41.5426,59.9479 C 41.6899,53.0242 35.65,48.0892 29.3891,50.4462 L 8.61787,72.7643 z "
       id="path575"
       sodipodi:nodetypes="ccccc"
       transform="matrix(0.949606,0,0,0.949606,-4.456341e-3,-2.494173)" /><path
       style="fill:#b01911;fill-opacity:1;fill-rule:evenodd;stroke:none;stroke-width:1pt;stroke-linecap:butt;stroke-linejoin:miter;stroke-opacity:1"
       d="M 37.7529,51.3069 C 42.7248,48.701 40.0477,48.4597 41.2977,47.6785 C 41.5468,45.3347 45.9375,49.8437 46.4063,54.375 C 45.4688,55.1562 41.4063,60.1562 41.4063,60.1562 C 38.9063,53.9062 39.492,53.4597 37.7529,51.3069 z "
       id="path2349"
       sodipodi:nodetypes="ccccc"
       transform="matrix(0.949606,0,0,0.949606,-4.456341e-3,-2.494173)" /><path
       style="fill:url(#linearGradient1099);fill-opacity:1;fill-rule:evenodd;stroke:none;stroke-width:1pt;stroke-linecap:butt;stroke-linejoin:miter;stroke-opacity:1"
       d="M 60.1041,19.9522 L 70.0478,30.3378 C 70.0478,30.3378 79.5496,16.8586 79.3286,16.8586 C 79.1077,16.8586 72.6995,10.8923 72.6995,10.8923 L 60.1041,19.9522 z "
       id="path599"
       transform="matrix(0.949606,0,0,0.949606,-4.456341e-3,-2.494173)" /><path
       style="fill:#ff933d;fill-opacity:1;fill-rule:evenodd;stroke:none;stroke-width:1pt;stroke-linecap:butt;stroke-linejoin:miter;stroke-opacity:1"
       d="M 13.9212,76.0789 C 17.4567,77.6256 19.2245,79.3934 18.7825,83.8128 C 21.4342,80.7192 41.5426,59.9479 41.5426,59.9479 C 41.6899,55.2339 38.7436,52.0666 37.1231,52.4349 L 13.9212,76.0789 z "
       id="path608"
       sodipodi:nodetypes="ccccc"
       transform="matrix(0.949606,0,0,0.949606,-4.456341e-3,-2.494173)" /><path
       style="fill:#ffffff;fill-opacity:1;fill-rule:evenodd;stroke:none;stroke-width:1pt;stroke-linecap:butt;stroke-linejoin:miter;stroke-opacity:1"
       d="M 31.3779,50.8881 L 11.9324,70.7755 L 15.468,72.7643 L 15.6889,70.1126 L 32.9247,51.772 L 31.3779,50.8881 z "
       id="path2353"
       transform="matrix(0.949606,0,0,0.949606,-4.456341e-3,-2.494173)" /><path
       style="fill:#ffffff;fill-opacity:1;fill-rule:evenodd;stroke:none;stroke-width:1pt;stroke-linecap:butt;stroke-linejoin:miter;stroke-opacity:1"
       d="M 36.5707,46.2477 L 32.8142,49.0099 C 32.8142,49.0099 34.9134,49.6728 35.0239,49.5623 C 35.1344,49.4518 38.5595,46.2477 38.5595,46.2477 C 38.5595,46.2477 36.3498,46.5792 36.5707,46.2477 z "
       id="path2355"
       transform="matrix(0.949606,0,0,0.949606,-4.456341e-3,-2.494173)" /></g></svg>