<?xml version="1.0" encoding="UTF-8" standalone="no"?>
<!DOCTYPE svg PUBLIC "-//W3C//DTD SVG 20010904//EN"
"http://www.w3.org/TR/2001/REC-SVG-20010904/DTD/svg10.dtd">
<!-- Created with Sodipodi ("http://www.sodipodi.com/") -->
<svg
   version="1"
   x="0.00000000"
   y="0.00000000"
   width="144.00000pt"
   height="144.00000pt"
   id="svg548"
   sodipodi:version="0.32"
   sodipodi:docname="gnome-searchtool-animation.svg"
   sodipodi:docbase="/home/zeus/.icons/gartoon/scalable/apps"
   xmlns="http://www.w3.org/2000/svg"
   xmlns:sodipodi="http://sodipodi.sourceforge.net/DTD/sodipodi-0.dtd"
   xmlns:xlink="http://www.w3.org/1999/xlink"
   xmlns:inkscape="http://www.inkscape.org/namespaces/inkscape"
   inkscape:version="0.40"
   xmlns:rdf="http://www.w3.org/1999/02/22-rdf-syntax-ns#"
   xmlns:cc="http://web.resource.org/cc/"
   xmlns:dc="http://purl.org/dc/elements/1.1/">
  <metadata
     id="metadata27">
    <rdf:RDF
       id="RDF28">
      <cc:Work
         rdf:about=""
         id="Work29">
        <dc:format
           id="format30">image/svg+xml</dc:format>
        <dc:type
           id="type32"
           rdf:resource="http://purl.org/dc/dcmitype/StillImage" />
      </cc:Work>
    </rdf:RDF>
  </metadata>
  <sodipodi:namedview
     id="base"
     inkscape:zoom="1.7824983"
     inkscape:cx="112.31954"
     inkscape:cy="64.037957"
     inkscape:window-width="844"
     inkscape:window-height="536"
     inkscape:window-x="0"
     inkscape:window-y="25"
     inkscape:current-layer="svg548"
     showguides="true"
     inkscape:guide-bbox="true">
    <sodipodi:guide
       orientation="vertical"
       position="69.004272"
       id="guide1211" />
    <sodipodi:guide
       orientation="vertical"
       position="1.6830310"
       id="guide1212" />
    <sodipodi:guide
       orientation="vertical"
       position="141.37461"
       id="guide1213" />
    <sodipodi:guide
       orientation="horizontal"
       position="143.05764"
       id="guide1214" />
    <sodipodi:guide
       orientation="horizontal"
       position="2.8050517"
       id="guide1215" />
  </sodipodi:namedview>
  <defs
     id="defs550">
    <linearGradient
       x1="0.00000000"
       y1="0.00000000"
       x2="1.00000000"
       y2="0.00000000"
       id="linearGradient632"
       gradientUnits="objectBoundingBox"
       spreadMethod="pad">
      <stop
         style="stop-color:#ffb700;stop-opacity:1;"
         offset="0.000000"
         id="stop633" />
      <stop
         style="stop-color:#ffd58f;stop-opacity:0;"
         offset="1.000000"
         id="stop634" />
    </linearGradient>
    <linearGradient
       x1="0.00000000"
       y1="0.00000000"
       x2="1.00000000"
       y2="0.00000000"
       id="linearGradient556"
       gradientUnits="objectBoundingBox"
       spreadMethod="pad">
      <stop
         style="stop-color:#000000;stop-opacity:1;"
         offset="0.000000"
         id="stop557" />
      <stop
         style="stop-color:#bdf2ff;stop-opacity:0.384314;"
         offset="1.000000"
         id="stop558" />
    </linearGradient>
    <linearGradient
       id="linearGradient559"
       xlink:href="#linearGradient632"
       x1="60.6446152"
       y1="19.2956886"
       x2="35.3705750"
       y2="69.1427994"
       gradientUnits="userSpaceOnUse"
       spreadMethod="pad" />
    <linearGradient
       xlink:href="#linearGradient632"
       id="linearGradient631"
       x1="85.6376572"
       y1="17.4438438"
       x2="73.9162979"
       y2="54.6281815"
       gradientUnits="userSpaceOnUse"
       spreadMethod="pad"
       gradientTransform="scale(0.740666,1.350136)" />
    <linearGradient
       inkscape:collect="always"
       xlink:href="#linearGradient612"
       id="linearGradient1155"
       gradientUnits="userSpaceOnUse"
       spreadMethod="pad"
       x1="50.6438866"
       y1="5.36792946"
       x2="35.7520943"
       y2="68.0443573" />
    <linearGradient
       inkscape:collect="always"
       xlink:href="#linearGradient612"
       id="linearGradient1177"
       gradientUnits="userSpaceOnUse"
       spreadMethod="pad"
       x1="50.6438866"
       y1="5.36792946"
       x2="35.7520943"
       y2="68.0443573" />
    <linearGradient
       inkscape:collect="always"
       xlink:href="#linearGradient612"
       id="linearGradient1199"
       gradientUnits="userSpaceOnUse"
       spreadMethod="pad"
       x1="50.6438866"
       y1="5.36792946"
       x2="35.7520943"
       y2="68.0443573" />
    <linearGradient
       inkscape:collect="always"
       xlink:href="#linearGradient612"
       id="linearGradient1210"
       gradientUnits="userSpaceOnUse"
       spreadMethod="pad"
       x1="50.6438866"
       y1="5.36792946"
       x2="35.7520943"
       y2="68.0443573" />
  </defs>
  <g
     id="g1144"
     transform="matrix(0.994491,0.000000,0.000000,0.994491,1.406389,0.708484)">
    <defs
       id="defs1145">
      <linearGradient
         id="linearGradient1146">
        <stop
           style="stop-color:#7fa8e3;stop-opacity:0.741176;"
           offset="0.000000"
           id="stop1147" />
        <stop
           style="stop-color:#ffffff;stop-opacity:0;"
           offset="1.000000"
           id="stop1148" />
      </linearGradient>
      <linearGradient
         xlink:href="#linearGradient612"
         id="linearGradient1149"
         x1="50.643887"
         y1="5.3679295"
         x2="35.752094"
         y2="68.044357"
         gradientUnits="userSpaceOnUse"
         spreadMethod="pad" />
    </defs>
    <sodipodi:namedview
       id="namedview1150" />
    <path
       style="fill:#000000;fill-opacity:0.30147097;fill-rule:evenodd;stroke:none;stroke-width:1.0000000pt;stroke-linecap:butt;stroke-linejoin:miter;stroke-opacity:1.0000000"
       d="M 12.816300,74.753000 C 10.385600,73.648100 7.0710700,70.112600 8.8388400,65.251200 C 9.7226700,59.948000 25.632600,13.102100 29.168200,10.892400 C 31.377800,8.9036800 34.582000,8.1302600 39.111900,9.3456100 C 42.868400,10.229500 76.676900,19.068400 78.665600,20.836100 C 80.654400,22.603900 82.201200,24.040200 80.654400,27.907200 C 79.549600,29.895900 66.401700,74.532000 66.180800,77.404700 C 65.296900,80.498300 62.755800,84.254800 58.557300,84.033800 C 54.358900,83.812800 15.909900,75.415900 12.816300,74.753000 z "
       id="path1151"
       sodipodi:nodetypes="ccccccccc"
       transform="matrix(1.114903,0.000000,0.000000,1.114903,-5.305332,-3.889256)" />
    <path
       style="fill:#3d4e67;fill-opacity:1.0000000;fill-rule:evenodd;stroke:none;stroke-width:1.0000000pt;stroke-linecap:butt;stroke-linejoin:miter;stroke-opacity:1.0000000"
       d="M 12.816300,74.753000 C 10.385600,73.648100 7.0710700,70.112600 8.8388400,65.251200 C 9.7226700,59.948000 25.632600,13.102100 29.168200,10.892400 C 31.377800,8.9036800 34.582000,8.1302600 39.111900,9.3456100 C 42.868400,10.229500 76.676900,19.068400 78.665600,20.836100 C 80.654400,22.603900 82.201200,24.040200 80.654400,27.907200 C 79.549600,29.895900 66.401700,74.532000 66.180800,77.404700 C 65.296900,80.498300 62.755800,84.254800 58.557300,84.033800 C 54.358900,83.812800 15.909900,75.415900 12.816300,74.753000 z "
       id="path1152"
       sodipodi:nodetypes="ccccccccc"
       transform="matrix(1.114903,0.000000,0.000000,1.114903,-8.162471,-8.460684)" />
    <path
       style="fill:#ffffff;fill-opacity:1.0000000;fill-rule:evenodd;stroke:none;stroke-width:1.0000000pt;stroke-linecap:butt;stroke-linejoin:miter;stroke-opacity:1.0000000"
       d="M 17.898700,70.996500 C 15.357600,70.333600 11.711400,69.670600 13.037300,65.693200 C 15.468000,55.970500 27.842400,18.626400 33.145600,13.986000 C 34.361000,12.881100 38.448900,12.439200 46.182900,14.869900 C 55.021800,17.521500 72.920400,23.487700 74.688200,24.371600 C 76.455900,25.255500 77.118900,25.255500 75.793000,29.233000 C 73.804300,33.210500 64.965500,67.240000 62.755700,72.985200 C 61.209000,77.073200 60.877500,78.951400 58.225800,78.951400"
       id="path1153"
       sodipodi:nodetypes="cccccccs"
       transform="matrix(1.114903,0.000000,0.000000,1.114903,-8.162471,-8.460684)" />
    <path
       style="fill:url(#linearGradient1155);fill-opacity:1.0000000;fill-rule:evenodd;stroke:none;stroke-width:1.0000000pt;stroke-linecap:butt;stroke-linejoin:miter;stroke-opacity:1.0000000"
       d="M 28.750000,13.750000 C 28.750000,13.750000 31.875000,7.4999500 39.687500,9.3749500 C 47.500000,11.250000 78.125000,19.375000 77.812500,21.875000 C 77.500000,24.375000 71.875000,39.062500 71.562500,40.312500 C 71.250000,41.562500 42.500000,40.937500 31.562500,47.500000 C 20.625000,54.062500 12.500000,59.687500 12.500000,59.687500 C 12.500000,59.687500 23.750000,24.687500 28.750000,13.750000 z "
       id="path1154"
       transform="matrix(0.946780,0.000000,0.000000,0.946780,-0.480566,0.409517)" />
  </g>
  <g
     id="g1166"
     transform="matrix(0.994491,0.000000,0.000000,0.994491,90.90733,0.708484)">
    <defs
       id="defs1167">
      <linearGradient
         id="linearGradient1168">
        <stop
           style="stop-color:#7fa8e3;stop-opacity:0.741176;"
           offset="0.000000"
           id="stop1169" />
        <stop
           style="stop-color:#ffffff;stop-opacity:0;"
           offset="1.000000"
           id="stop1170" />
      </linearGradient>
      <linearGradient
         xlink:href="#linearGradient612"
         id="linearGradient1171"
         x1="50.643887"
         y1="5.3679295"
         x2="35.752094"
         y2="68.044357"
         gradientUnits="userSpaceOnUse"
         spreadMethod="pad" />
    </defs>
    <sodipodi:namedview
       id="namedview1172" />
    <path
       style="fill:#000000;fill-opacity:0.30147097;fill-rule:evenodd;stroke:none;stroke-width:1.0000000pt;stroke-linecap:butt;stroke-linejoin:miter;stroke-opacity:1.0000000"
       d="M 12.816300,74.753000 C 10.385600,73.648100 7.0710700,70.112600 8.8388400,65.251200 C 9.7226700,59.948000 25.632600,13.102100 29.168200,10.892400 C 31.377800,8.9036800 34.582000,8.1302600 39.111900,9.3456100 C 42.868400,10.229500 76.676900,19.068400 78.665600,20.836100 C 80.654400,22.603900 82.201200,24.040200 80.654400,27.907200 C 79.549600,29.895900 66.401700,74.532000 66.180800,77.404700 C 65.296900,80.498300 62.755800,84.254800 58.557300,84.033800 C 54.358900,83.812800 15.909900,75.415900 12.816300,74.753000 z "
       id="path1173"
       sodipodi:nodetypes="ccccccccc"
       transform="matrix(1.114903,0.000000,0.000000,1.114903,-5.305332,-3.889256)" />
    <path
       style="fill:#3d4e67;fill-opacity:1.0000000;fill-rule:evenodd;stroke:none;stroke-width:1.0000000pt;stroke-linecap:butt;stroke-linejoin:miter;stroke-opacity:1.0000000"
       d="M 12.816300,74.753000 C 10.385600,73.648100 7.0710700,70.112600 8.8388400,65.251200 C 9.7226700,59.948000 25.632600,13.102100 29.168200,10.892400 C 31.377800,8.9036800 34.582000,8.1302600 39.111900,9.3456100 C 42.868400,10.229500 76.676900,19.068400 78.665600,20.836100 C 80.654400,22.603900 82.201200,24.040200 80.654400,27.907200 C 79.549600,29.895900 66.401700,74.532000 66.180800,77.404700 C 65.296900,80.498300 62.755800,84.254800 58.557300,84.033800 C 54.358900,83.812800 15.909900,75.415900 12.816300,74.753000 z "
       id="path1174"
       sodipodi:nodetypes="ccccccccc"
       transform="matrix(1.114903,0.000000,0.000000,1.114903,-8.162471,-8.460684)" />
    <path
       style="fill:#ffffff;fill-opacity:1.0000000;fill-rule:evenodd;stroke:none;stroke-width:1.0000000pt;stroke-linecap:butt;stroke-linejoin:miter;stroke-opacity:1.0000000"
       d="M 17.898700,70.996500 C 15.357600,70.333600 11.711400,69.670600 13.037300,65.693200 C 15.468000,55.970500 27.842400,18.626400 33.145600,13.986000 C 34.361000,12.881100 38.448900,12.439200 46.182900,14.869900 C 55.021800,17.521500 72.920400,23.487700 74.688200,24.371600 C 76.455900,25.255500 77.118900,25.255500 75.793000,29.233000 C 73.804300,33.210500 64.965500,67.240000 62.755700,72.985200 C 61.209000,77.073200 60.877500,78.951400 58.225800,78.951400"
       id="path1175"
       sodipodi:nodetypes="cccccccs"
       transform="matrix(1.114903,0.000000,0.000000,1.114903,-8.162471,-8.460684)" />
    <path
       style="fill:url(#linearGradient1177);fill-opacity:1.0000000;fill-rule:evenodd;stroke:none;stroke-width:1.0000000pt;stroke-linecap:butt;stroke-linejoin:miter;stroke-opacity:1.0000000"
       d="M 28.750000,13.750000 C 28.750000,13.750000 31.875000,7.4999500 39.687500,9.3749500 C 47.500000,11.250000 78.125000,19.375000 77.812500,21.875000 C 77.500000,24.375000 71.875000,39.062500 71.562500,40.312500 C 71.250000,41.562500 42.500000,40.937500 31.562500,47.500000 C 20.625000,54.062500 12.500000,59.687500 12.500000,59.687500 C 12.500000,59.687500 23.750000,24.687500 28.750000,13.750000 z "
       id="path1176"
       transform="matrix(0.946780,0.000000,0.000000,0.946780,-0.480566,0.409517)" />
  </g>
  <g
     id="g1188"
     transform="matrix(0.994491,0.000000,0.000000,0.994491,0.974015,87.88339)">
    <defs
       id="defs1189">
      <linearGradient
         id="linearGradient1190">
        <stop
           style="stop-color:#7fa8e3;stop-opacity:0.741176;"
           offset="0.000000"
           id="stop1191" />
        <stop
           style="stop-color:#ffffff;stop-opacity:0;"
           offset="1.000000"
           id="stop1192" />
      </linearGradient>
      <linearGradient
         xlink:href="#linearGradient612"
         id="linearGradient1193"
         x1="50.643887"
         y1="5.3679295"
         x2="35.752094"
         y2="68.044357"
         gradientUnits="userSpaceOnUse"
         spreadMethod="pad" />
    </defs>
    <sodipodi:namedview
       id="namedview1194" />
    <path
       style="fill:#000000;fill-opacity:0.30147097;fill-rule:evenodd;stroke:none;stroke-width:1.0000000pt;stroke-linecap:butt;stroke-linejoin:miter;stroke-opacity:1.0000000"
       d="M 12.816300,74.753000 C 10.385600,73.648100 7.0710700,70.112600 8.8388400,65.251200 C 9.7226700,59.948000 25.632600,13.102100 29.168200,10.892400 C 31.377800,8.9036800 34.582000,8.1302600 39.111900,9.3456100 C 42.868400,10.229500 76.676900,19.068400 78.665600,20.836100 C 80.654400,22.603900 82.201200,24.040200 80.654400,27.907200 C 79.549600,29.895900 66.401700,74.532000 66.180800,77.404700 C 65.296900,80.498300 62.755800,84.254800 58.557300,84.033800 C 54.358900,83.812800 15.909900,75.415900 12.816300,74.753000 z "
       id="path1195"
       sodipodi:nodetypes="ccccccccc"
       transform="matrix(1.114903,0.000000,0.000000,1.114903,-5.305332,-3.889256)" />
    <path
       style="fill:#3d4e67;fill-opacity:1.0000000;fill-rule:evenodd;stroke:none;stroke-width:1.0000000pt;stroke-linecap:butt;stroke-linejoin:miter;stroke-opacity:1.0000000"
       d="M 12.816300,74.753000 C 10.385600,73.648100 7.0710700,70.112600 8.8388400,65.251200 C 9.7226700,59.948000 25.632600,13.102100 29.168200,10.892400 C 31.377800,8.9036800 34.582000,8.1302600 39.111900,9.3456100 C 42.868400,10.229500 76.676900,19.068400 78.665600,20.836100 C 80.654400,22.603900 82.201200,24.040200 80.654400,27.907200 C 79.549600,29.895900 66.401700,74.532000 66.180800,77.404700 C 65.296900,80.498300 62.755800,84.254800 58.557300,84.033800 C 54.358900,83.812800 15.909900,75.415900 12.816300,74.753000 z "
       id="path1196"
       sodipodi:nodetypes="ccccccccc"
       transform="matrix(1.114903,0.000000,0.000000,1.114903,-8.162471,-8.460684)" />
    <path
       style="fill:#ffffff;fill-opacity:1.0000000;fill-rule:evenodd;stroke:none;stroke-width:1.0000000pt;stroke-linecap:butt;stroke-linejoin:miter;stroke-opacity:1.0000000"
       d="M 17.898700,70.996500 C 15.357600,70.333600 11.711400,69.670600 13.037300,65.693200 C 15.468000,55.970500 27.842400,18.626400 33.145600,13.986000 C 34.361000,12.881100 38.448900,12.439200 46.182900,14.869900 C 55.021800,17.521500 72.920400,23.487700 74.688200,24.371600 C 76.455900,25.255500 77.118900,25.255500 75.793000,29.233000 C 73.804300,33.210500 64.965500,67.240000 62.755700,72.985200 C 61.209000,77.073200 60.877500,78.951400 58.225800,78.951400"
       id="path1197"
       sodipodi:nodetypes="cccccccs"
       transform="matrix(1.114903,0.000000,0.000000,1.114903,-8.162471,-8.460684)" />
    <path
       style="fill:url(#linearGradient1199);fill-opacity:1.0000000;fill-rule:evenodd;stroke:none;stroke-width:1.0000000pt;stroke-linecap:butt;stroke-linejoin:miter;stroke-opacity:1.0000000"
       d="M 28.750000,13.750000 C 28.750000,13.750000 31.875000,7.4999500 39.687500,9.3749500 C 47.500000,11.250000 78.125000,19.375000 77.812500,21.875000 C 77.500000,24.375000 71.875000,39.062500 71.562500,40.312500 C 71.250000,41.562500 42.500000,40.937500 31.562500,47.500000 C 20.625000,54.062500 12.500000,59.687500 12.500000,59.687500 C 12.500000,59.687500 23.750000,24.687500 28.750000,13.750000 z "
       id="path1198"
       transform="matrix(0.946780,0.000000,0.000000,0.946780,-0.480566,0.409517)" />
  </g>
  <g
     id="g1115"
     transform="matrix(0.994491,0.000000,0.000000,0.994491,92.76570,87.18600)">
    <defs
       id="defs606">
      <linearGradient
         id="linearGradient612">
        <stop
           style="stop-color:#7fa8e3;stop-opacity:0.741176;"
           offset="0.000000"
           id="stop613" />
        <stop
           style="stop-color:#ffffff;stop-opacity:0;"
           offset="1.000000"
           id="stop614" />
      </linearGradient>
      <linearGradient
         xlink:href="#linearGradient612"
         id="linearGradient615"
         x1="50.643887"
         y1="5.3679295"
         x2="35.752094"
         y2="68.044357"
         gradientUnits="userSpaceOnUse"
         spreadMethod="pad" />
    </defs>
    <sodipodi:namedview
       id="namedview1121" />
    <path
       style="fill:#000000;fill-opacity:0.30147097;fill-rule:evenodd;stroke:none;stroke-width:1.0000000pt;stroke-linecap:butt;stroke-linejoin:miter;stroke-opacity:1.0000000"
       d="M 12.816300,74.753000 C 10.385600,73.648100 7.0710700,70.112600 8.8388400,65.251200 C 9.7226700,59.948000 25.632600,13.102100 29.168200,10.892400 C 31.377800,8.9036800 34.582000,8.1302600 39.111900,9.3456100 C 42.868400,10.229500 76.676900,19.068400 78.665600,20.836100 C 80.654400,22.603900 82.201200,24.040200 80.654400,27.907200 C 79.549600,29.895900 66.401700,74.532000 66.180800,77.404700 C 65.296900,80.498300 62.755800,84.254800 58.557300,84.033800 C 54.358900,83.812800 15.909900,75.415900 12.816300,74.753000 z "
       id="path794"
       sodipodi:nodetypes="ccccccccc"
       transform="matrix(1.114903,0.000000,0.000000,1.114903,-5.305332,-3.889256)" />
    <path
       style="fill:#3d4e67;fill-opacity:1.0000000;fill-rule:evenodd;stroke:none;stroke-width:1.0000000pt;stroke-linecap:butt;stroke-linejoin:miter;stroke-opacity:1.0000000"
       d="M 12.816300,74.753000 C 10.385600,73.648100 7.0710700,70.112600 8.8388400,65.251200 C 9.7226700,59.948000 25.632600,13.102100 29.168200,10.892400 C 31.377800,8.9036800 34.582000,8.1302600 39.111900,9.3456100 C 42.868400,10.229500 76.676900,19.068400 78.665600,20.836100 C 80.654400,22.603900 82.201200,24.040200 80.654400,27.907200 C 79.549600,29.895900 66.401700,74.532000 66.180800,77.404700 C 65.296900,80.498300 62.755800,84.254800 58.557300,84.033800 C 54.358900,83.812800 15.909900,75.415900 12.816300,74.753000 z "
       id="path609"
       sodipodi:nodetypes="ccccccccc"
       transform="matrix(1.114903,0.000000,0.000000,1.114903,-8.162471,-8.460684)" />
    <path
       style="fill:#ffffff;fill-opacity:1.0000000;fill-rule:evenodd;stroke:none;stroke-width:1.0000000pt;stroke-linecap:butt;stroke-linejoin:miter;stroke-opacity:1.0000000"
       d="M 17.898700,70.996500 C 15.357600,70.333600 11.711400,69.670600 13.037300,65.693200 C 15.468000,55.970500 27.842400,18.626400 33.145600,13.986000 C 34.361000,12.881100 38.448900,12.439200 46.182900,14.869900 C 55.021800,17.521500 72.920400,23.487700 74.688200,24.371600 C 76.455900,25.255500 77.118900,25.255500 75.793000,29.233000 C 73.804300,33.210500 64.965500,67.240000 62.755700,72.985200 C 61.209000,77.073200 60.877500,78.951400 58.225800,78.951400"
       id="path608"
       sodipodi:nodetypes="cccccccs"
       transform="matrix(1.114903,0.000000,0.000000,1.114903,-8.162471,-8.460684)" />
    <path
       style="fill:url(#linearGradient1210);fill-opacity:1.0000000;fill-rule:evenodd;stroke:none;stroke-width:1.0000000pt;stroke-linecap:butt;stroke-linejoin:miter;stroke-opacity:1.0000000"
       d="M 28.750000,13.750000 C 28.750000,13.750000 31.875000,7.4999500 39.687500,9.3749500 C 47.500000,11.250000 78.125000,19.375000 77.812500,21.875000 C 77.500000,24.375000 71.875000,39.062500 71.562500,40.312500 C 71.250000,41.562500 42.500000,40.937500 31.562500,47.500000 C 20.625000,54.062500 12.500000,59.687500 12.500000,59.687500 C 12.500000,59.687500 23.750000,24.687500 28.750000,13.750000 z "
       id="path636"
       transform="matrix(0.946780,0.000000,0.000000,0.946780,-0.480566,0.409517)" />
  </g>
  <g
     id="g1156"
     transform="matrix(0.680687,0.000000,0.000000,0.680687,-110.6866,41.80617)">
    <path
       style="font-size:12.000000;fill:none;fill-rule:evenodd;stroke:#000000;stroke-width:4.7923589"
       d="M 230.25704,37.276672 L 223.83873,24.652742 C 223.77923,24.535692 213.24089,24.493642 209.03663,22.852462 C 199.26439,19.036352 187.92274,7.6024317 193.27607,-9.8978483 C 197.54969,-23.841568 211.33361,-33.101058 227.71217,-26.921448 C 241.16985,-21.843658 249.85727,-7.2774783 242.39056,8.4264817 C 238.73305,16.168432 233.15122,19.325792 233.54345,20.282132 L 239.92531,35.841952 C 240.96234,38.370372 235.32085,47.236482 230.25704,37.276672 z "
       id="path1157"
       sodipodi:nodetypes="cssssssss" />
    <path
       style="font-size:12.000000;fill:none;fill-rule:evenodd;stroke:#efe16b;stroke-width:3.6191180"
       d="M 240.64421,6.5837417 C 239.45135,9.7301517 237.67627,12.486342 235.48798,14.776202 C 234.39384,15.921132 231.90806,18.861922 230.54813,19.637872 L 234.81908,34.453202 L 233.53295,35.373892 L 225.77061,20.953032 C 224.28812,21.456752 220.33443,22.250722 218.75190,22.310822 C 215.58683,22.431042 212.34659,21.932772 209.20019,20.739902 C 196.61452,15.968452 190.27255,1.8815317 195.04400,-10.704118 C 199.81545,-23.289778 213.90238,-29.631738 226.48804,-24.860288 C 239.07369,-20.088838 245.41566,-6.0019083 240.64421,6.5837417 z "
       id="path1158"
       sodipodi:nodetypes="csccccscccc" />
    <path
       style="font-size:12.000000;fill:#ffc83d;fill-rule:evenodd"
       d="M 232.15777,17.928682 L 239.31640,36.485182 C 240.24015,40.106302 235.65819,42.476432 232.97869,39.468902 L 223.47227,21.663792 C 224.83556,18.886752 229.87270,17.648852 232.15777,17.928682 z "
       id="path1159"
       sodipodi:nodetypes="ccccc" />
    <path
       style="font-size:12.000000;fill:#ff933d;fill-rule:evenodd"
       d="M 231.60474,18.193552 L 238.81258,36.547022 C 238.84553,39.080222 238.82553,34.833482 235.54045,37.973042 L 228.00217,19.612012 C 228.36244,18.730202 229.26219,17.802782 231.60474,18.193552 z "
       id="path1160"
       sodipodi:nodetypes="ccccc" />
    <path
       style="font-size:12.000000;fill:#ffffff;fill-rule:evenodd"
       d="M 226.39794,19.922282 L 234.64658,37.912332 C 235.12671,38.270312 233.85658,38.091722 233.53788,39.518152 C 233.32352,38.696662 224.49672,21.203962 224.49672,21.203962 L 226.39794,19.922282 z "
       id="path1161"
       sodipodi:nodetypes="ccccc" />
    <path
       sodipodi:type="arc"
       style="font-size:12.000000;fill:#bae6ff;fill-opacity:0.43099996;fill-rule:evenodd;stroke:none;stroke-width:1.0000000pt"
       id="path1162"
       sodipodi:cx="29.499611"
       sodipodi:cy="28.953592"
       sodipodi:rx="18.451067"
       sodipodi:ry="18.451067"
       d="M 47.950678 28.953592 A 18.451067 18.451067 0 1 1  11.048544,28.953592 A 18.451067 18.451067 0 1 1  47.950678 28.953592 z"
       transform="matrix(1.152014,0.436749,-0.436749,1.152014,196.8115,-47.96003)" />
    <path
       style="font-size:12.000000;fill:#437caf;fill-opacity:0.34479997;fill-rule:evenodd;stroke-width:1.0000000pt"
       d="M 237.59480,-13.056268 C 240.82539,-8.2166583 242.21104,-2.1454983 240.98429,4.0074717 C 239.75752,10.160462 236.14944,15.235982 231.30983,18.466562 C 226.47021,21.697162 220.39906,23.082812 214.24608,21.856032 C 208.09312,20.629282 204.72924,18.018422 199.78699,12.181602 M 199.78699,12.181602 C 233.68037,14.559172 229.01890,4.2868317 237.59480,-13.056268"
       id="path1163"
       sodipodi:nodetypes="ccscscs" />
    <path
       style="fill:#ff0000;fill-opacity:1.0000000;fill-rule:evenodd;stroke:none;stroke-width:1.0000000pt;stroke-linecap:butt;stroke-linejoin:miter;stroke-opacity:1.0000000"
       d="M 232.18726,17.691022 C 229.75417,17.685172 230.45426,17.813092 228.01927,18.335042 C 227.84291,18.471812 226.71042,17.909312 223.49462,21.764182 L 225.64827,25.923182 C 226.97766,25.085412 229.08296,23.443832 230.05594,23.197642 C 231.48469,22.793402 232.19687,22.579922 234.07978,22.546052 L 232.18726,17.691022 z "
       id="path1164"
       sodipodi:nodetypes="ccccccc" />
    <path
       style="fill:#ffffff;fill-opacity:1.0000000;fill-rule:evenodd;stroke:none;stroke-width:1.0000000pt;stroke-linecap:butt;stroke-linejoin:miter;stroke-opacity:1.0000000"
       d="M 227.33501,22.846212 L 225.75404,23.922972 L 224.40402,21.536282 L 225.87563,20.442632 L 227.33501,22.846212 z "
       id="path1165"
       sodipodi:nodetypes="ccccc" />
  </g>
  <g
     id="g1178"
     transform="matrix(0.680687,0.000000,0.000000,0.680687,-17.93242,57.14896)">
    <path
       style="font-size:12.000000;fill:none;fill-rule:evenodd;stroke:#000000;stroke-width:4.7923589"
       d="M 230.25704,37.276672 L 223.83873,24.652742 C 223.77923,24.535692 213.24089,24.493642 209.03663,22.852462 C 199.26439,19.036352 187.92274,7.6024317 193.27607,-9.8978483 C 197.54969,-23.841568 211.33361,-33.101058 227.71217,-26.921448 C 241.16985,-21.843658 249.85727,-7.2774783 242.39056,8.4264817 C 238.73305,16.168432 233.15122,19.325792 233.54345,20.282132 L 239.92531,35.841952 C 240.96234,38.370372 235.32085,47.236482 230.25704,37.276672 z "
       id="path1179"
       sodipodi:nodetypes="cssssssss" />
    <path
       style="font-size:12.000000;fill:none;fill-rule:evenodd;stroke:#efe16b;stroke-width:3.6191180"
       d="M 240.64421,6.5837417 C 239.45135,9.7301517 237.67627,12.486342 235.48798,14.776202 C 234.39384,15.921132 231.90806,18.861922 230.54813,19.637872 L 234.81908,34.453202 L 233.53295,35.373892 L 225.77061,20.953032 C 224.28812,21.456752 220.33443,22.250722 218.75190,22.310822 C 215.58683,22.431042 212.34659,21.932772 209.20019,20.739902 C 196.61452,15.968452 190.27255,1.8815317 195.04400,-10.704118 C 199.81545,-23.289778 213.90238,-29.631738 226.48804,-24.860288 C 239.07369,-20.088838 245.41566,-6.0019083 240.64421,6.5837417 z "
       id="path1180"
       sodipodi:nodetypes="csccccscccc" />
    <path
       style="font-size:12.000000;fill:#ffc83d;fill-rule:evenodd"
       d="M 232.15777,17.928682 L 239.31640,36.485182 C 240.24015,40.106302 235.65819,42.476432 232.97869,39.468902 L 223.47227,21.663792 C 224.83556,18.886752 229.87270,17.648852 232.15777,17.928682 z "
       id="path1181"
       sodipodi:nodetypes="ccccc" />
    <path
       style="font-size:12.000000;fill:#ff933d;fill-rule:evenodd"
       d="M 231.60474,18.193552 L 238.81258,36.547022 C 238.84553,39.080222 238.82553,34.833482 235.54045,37.973042 L 228.00217,19.612012 C 228.36244,18.730202 229.26219,17.802782 231.60474,18.193552 z "
       id="path1182"
       sodipodi:nodetypes="ccccc" />
    <path
       style="font-size:12.000000;fill:#ffffff;fill-rule:evenodd"
       d="M 226.39794,19.922282 L 234.64658,37.912332 C 235.12671,38.270312 233.85658,38.091722 233.53788,39.518152 C 233.32352,38.696662 224.49672,21.203962 224.49672,21.203962 L 226.39794,19.922282 z "
       id="path1183"
       sodipodi:nodetypes="ccccc" />
    <path
       sodipodi:type="arc"
       style="font-size:12.000000;fill:#bae6ff;fill-opacity:0.43099996;fill-rule:evenodd;stroke:none;stroke-width:1.0000000pt"
       id="path1184"
       sodipodi:cx="29.499611"
       sodipodi:cy="28.953592"
       sodipodi:rx="18.451067"
       sodipodi:ry="18.451067"
       d="M 47.950678 28.953592 A 18.451067 18.451067 0 1 1  11.048544,28.953592 A 18.451067 18.451067 0 1 1  47.950678 28.953592 z"
       transform="matrix(1.152014,0.436749,-0.436749,1.152014,196.8115,-47.96003)" />
    <path
       style="font-size:12.000000;fill:#437caf;fill-opacity:0.34479997;fill-rule:evenodd;stroke-width:1.0000000pt"
       d="M 237.59480,-13.056268 C 240.82539,-8.2166583 242.21104,-2.1454983 240.98429,4.0074717 C 239.75752,10.160462 236.14944,15.235982 231.30983,18.466562 C 226.47021,21.697162 220.39906,23.082812 214.24608,21.856032 C 208.09312,20.629282 204.72924,18.018422 199.78699,12.181602 M 199.78699,12.181602 C 233.68037,14.559172 229.01890,4.2868317 237.59480,-13.056268"
       id="path1185"
       sodipodi:nodetypes="ccscscs" />
    <path
       style="fill:#ff0000;fill-opacity:1.0000000;fill-rule:evenodd;stroke:none;stroke-width:1.0000000pt;stroke-linecap:butt;stroke-linejoin:miter;stroke-opacity:1.0000000"
       d="M 232.18726,17.691022 C 229.75417,17.685172 230.45426,17.813092 228.01927,18.335042 C 227.84291,18.471812 226.71042,17.909312 223.49462,21.764182 L 225.64827,25.923182 C 226.97766,25.085412 229.08296,23.443832 230.05594,23.197642 C 231.48469,22.793402 232.19687,22.579922 234.07978,22.546052 L 232.18726,17.691022 z "
       id="path1186"
       sodipodi:nodetypes="ccccccc" />
    <path
       style="fill:#ffffff;fill-opacity:1.0000000;fill-rule:evenodd;stroke:none;stroke-width:1.0000000pt;stroke-linecap:butt;stroke-linejoin:miter;stroke-opacity:1.0000000"
       d="M 227.33501,22.846212 L 225.75404,23.922972 L 224.40402,21.536282 L 225.87563,20.442632 L 227.33501,22.846212 z "
       id="path1187"
       sodipodi:nodetypes="ccccc" />
  </g>
  <g
     id="g1200"
     transform="matrix(0.680687,0.000000,0.000000,0.680687,-96.04114,138.0474)">
    <path
       style="font-size:12.000000;fill:none;fill-rule:evenodd;stroke:#000000;stroke-width:4.7923589"
       d="M 230.25704,37.276672 L 223.83873,24.652742 C 223.77923,24.535692 213.24089,24.493642 209.03663,22.852462 C 199.26439,19.036352 187.92274,7.6024317 193.27607,-9.8978483 C 197.54969,-23.841568 211.33361,-33.101058 227.71217,-26.921448 C 241.16985,-21.843658 249.85727,-7.2774783 242.39056,8.4264817 C 238.73305,16.168432 233.15122,19.325792 233.54345,20.282132 L 239.92531,35.841952 C 240.96234,38.370372 235.32085,47.236482 230.25704,37.276672 z "
       id="path1201"
       sodipodi:nodetypes="cssssssss" />
    <path
       style="font-size:12.000000;fill:none;fill-rule:evenodd;stroke:#efe16b;stroke-width:3.6191180"
       d="M 240.64421,6.5837417 C 239.45135,9.7301517 237.67627,12.486342 235.48798,14.776202 C 234.39384,15.921132 231.90806,18.861922 230.54813,19.637872 L 234.81908,34.453202 L 233.53295,35.373892 L 225.77061,20.953032 C 224.28812,21.456752 220.33443,22.250722 218.75190,22.310822 C 215.58683,22.431042 212.34659,21.932772 209.20019,20.739902 C 196.61452,15.968452 190.27255,1.8815317 195.04400,-10.704118 C 199.81545,-23.289778 213.90238,-29.631738 226.48804,-24.860288 C 239.07369,-20.088838 245.41566,-6.0019083 240.64421,6.5837417 z "
       id="path1202"
       sodipodi:nodetypes="csccccscccc" />
    <path
       style="font-size:12.000000;fill:#ffc83d;fill-rule:evenodd"
       d="M 232.15777,17.928682 L 239.31640,36.485182 C 240.24015,40.106302 235.65819,42.476432 232.97869,39.468902 L 223.47227,21.663792 C 224.83556,18.886752 229.87270,17.648852 232.15777,17.928682 z "
       id="path1203"
       sodipodi:nodetypes="ccccc" />
    <path
       style="font-size:12.000000;fill:#ff933d;fill-rule:evenodd"
       d="M 231.60474,18.193552 L 238.81258,36.547022 C 238.84553,39.080222 238.82553,34.833482 235.54045,37.973042 L 228.00217,19.612012 C 228.36244,18.730202 229.26219,17.802782 231.60474,18.193552 z "
       id="path1204"
       sodipodi:nodetypes="ccccc" />
    <path
       style="font-size:12.000000;fill:#ffffff;fill-rule:evenodd"
       d="M 226.39794,19.922282 L 234.64658,37.912332 C 235.12671,38.270312 233.85658,38.091722 233.53788,39.518152 C 233.32352,38.696662 224.49672,21.203962 224.49672,21.203962 L 226.39794,19.922282 z "
       id="path1205"
       sodipodi:nodetypes="ccccc" />
    <path
       sodipodi:type="arc"
       style="font-size:12.000000;fill:#bae6ff;fill-opacity:0.43099996;fill-rule:evenodd;stroke:none;stroke-width:1.0000000pt"
       id="path1206"
       sodipodi:cx="29.499611"
       sodipodi:cy="28.953592"
       sodipodi:rx="18.451067"
       sodipodi:ry="18.451067"
       d="M 47.950678 28.953592 A 18.451067 18.451067 0 1 1  11.048544,28.953592 A 18.451067 18.451067 0 1 1  47.950678 28.953592 z"
       transform="matrix(1.152014,0.436749,-0.436749,1.152014,196.8115,-47.96003)" />
    <path
       style="font-size:12.000000;fill:#437caf;fill-opacity:0.34479997;fill-rule:evenodd;stroke-width:1.0000000pt"
       d="M 237.59480,-13.056268 C 240.82539,-8.2166583 242.21104,-2.1454983 240.98429,4.0074717 C 239.75752,10.160462 236.14944,15.235982 231.30983,18.466562 C 226.47021,21.697162 220.39906,23.082812 214.24608,21.856032 C 208.09312,20.629282 204.72924,18.018422 199.78699,12.181602 M 199.78699,12.181602 C 233.68037,14.559172 229.01890,4.2868317 237.59480,-13.056268"
       id="path1207"
       sodipodi:nodetypes="ccscscs" />
    <path
       style="fill:#ff0000;fill-opacity:1.0000000;fill-rule:evenodd;stroke:none;stroke-width:1.0000000pt;stroke-linecap:butt;stroke-linejoin:miter;stroke-opacity:1.0000000"
       d="M 232.18726,17.691022 C 229.75417,17.685172 230.45426,17.813092 228.01927,18.335042 C 227.84291,18.471812 226.71042,17.909312 223.49462,21.764182 L 225.64827,25.923182 C 226.97766,25.085412 229.08296,23.443832 230.05594,23.197642 C 231.48469,22.793402 232.19687,22.579922 234.07978,22.546052 L 232.18726,17.691022 z "
       id="path1208"
       sodipodi:nodetypes="ccccccc" />
    <path
       style="fill:#ffffff;fill-opacity:1.0000000;fill-rule:evenodd;stroke:none;stroke-width:1.0000000pt;stroke-linecap:butt;stroke-linejoin:miter;stroke-opacity:1.0000000"
       d="M 227.33501,22.846212 L 225.75404,23.922972 L 224.40402,21.536282 L 225.87563,20.442632 L 227.33501,22.846212 z "
       id="path1209"
       sodipodi:nodetypes="ccccc" />
  </g>
  <g
     id="g1105"
     transform="matrix(0.680687,0.000000,0.000000,0.680687,-8.866208,124.0993)">
    <path
       style="font-size:12.000000;fill:none;fill-rule:evenodd;stroke:#000000;stroke-width:4.7923589"
       d="M 230.25704,37.276672 L 223.83873,24.652742 C 223.77923,24.535692 213.24089,24.493642 209.03663,22.852462 C 199.26439,19.036352 187.92274,7.6024317 193.27607,-9.8978483 C 197.54969,-23.841568 211.33361,-33.101058 227.71217,-26.921448 C 241.16985,-21.843658 249.85727,-7.2774783 242.39056,8.4264817 C 238.73305,16.168432 233.15122,19.325792 233.54345,20.282132 L 239.92531,35.841952 C 240.96234,38.370372 235.32085,47.236482 230.25704,37.276672 z "
       id="path634"
       sodipodi:nodetypes="cssssssss" />
    <path
       style="font-size:12.000000;fill:none;fill-rule:evenodd;stroke:#efe16b;stroke-width:3.6191180"
       d="M 240.64421,6.5837417 C 239.45135,9.7301517 237.67627,12.486342 235.48798,14.776202 C 234.39384,15.921132 231.90806,18.861922 230.54813,19.637872 L 234.81908,34.453202 L 233.53295,35.373892 L 225.77061,20.953032 C 224.28812,21.456752 220.33443,22.250722 218.75190,22.310822 C 215.58683,22.431042 212.34659,21.932772 209.20019,20.739902 C 196.61452,15.968452 190.27255,1.8815317 195.04400,-10.704118 C 199.81545,-23.289778 213.90238,-29.631738 226.48804,-24.860288 C 239.07369,-20.088838 245.41566,-6.0019083 240.64421,6.5837417 z "
       id="path620"
       sodipodi:nodetypes="csccccscccc" />
    <path
       style="font-size:12.000000;fill:#ffc83d;fill-rule:evenodd"
       d="M 232.15777,17.928682 L 239.31640,36.485182 C 240.24015,40.106302 235.65819,42.476432 232.97869,39.468902 L 223.47227,21.663792 C 224.83556,18.886752 229.87270,17.648852 232.15777,17.928682 z "
       id="path1170"
       sodipodi:nodetypes="ccccc" />
    <path
       style="font-size:12.000000;fill:#ff933d;fill-rule:evenodd"
       d="M 231.60474,18.193552 L 238.81258,36.547022 C 238.84553,39.080222 238.82553,34.833482 235.54045,37.973042 L 228.00217,19.612012 C 228.36244,18.730202 229.26219,17.802782 231.60474,18.193552 z "
       id="path567"
       sodipodi:nodetypes="ccccc" />
    <path
       style="font-size:12.000000;fill:#ffffff;fill-rule:evenodd"
       d="M 226.39794,19.922282 L 234.64658,37.912332 C 235.12671,38.270312 233.85658,38.091722 233.53788,39.518152 C 233.32352,38.696662 224.49672,21.203962 224.49672,21.203962 L 226.39794,19.922282 z "
       id="path568"
       sodipodi:nodetypes="ccccc" />
    <path
       sodipodi:type="arc"
       style="font-size:12.000000;fill:#bae6ff;fill-opacity:0.43099996;fill-rule:evenodd;stroke:none;stroke-width:1.0000000pt"
       id="path611"
       sodipodi:cx="29.499611"
       sodipodi:cy="28.953592"
       sodipodi:rx="18.451067"
       sodipodi:ry="18.451067"
       d="M 47.950678 28.953592 A 18.451067 18.451067 0 1 1  11.048544,28.953592 A 18.451067 18.451067 0 1 1  47.950678 28.953592 z"
       transform="matrix(1.152014,0.436749,-0.436749,1.152014,196.8115,-47.96003)" />
    <path
       style="font-size:12.000000;fill:#437caf;fill-opacity:0.34479997;fill-rule:evenodd;stroke-width:1.0000000pt"
       d="M 237.59480,-13.056268 C 240.82539,-8.2166583 242.21104,-2.1454983 240.98429,4.0074717 C 239.75752,10.160462 236.14944,15.235982 231.30983,18.466562 C 226.47021,21.697162 220.39906,23.082812 214.24608,21.856032 C 208.09312,20.629282 204.72924,18.018422 199.78699,12.181602 M 199.78699,12.181602 C 233.68037,14.559172 229.01890,4.2868317 237.59480,-13.056268"
       id="path610"
       sodipodi:nodetypes="ccscscs" />
    <path
       style="fill:#ff0000;fill-opacity:1.0000000;fill-rule:evenodd;stroke:none;stroke-width:1.0000000pt;stroke-linecap:butt;stroke-linejoin:miter;stroke-opacity:1.0000000"
       d="M 232.18726,17.691022 C 229.75417,17.685172 230.45426,17.813092 228.01927,18.335042 C 227.84291,18.471812 226.71042,17.909312 223.49462,21.764182 L 225.64827,25.923182 C 226.97766,25.085412 229.08296,23.443832 230.05594,23.197642 C 231.48469,22.793402 232.19687,22.579922 234.07978,22.546052 L 232.18726,17.691022 z "
       id="path651"
       sodipodi:nodetypes="ccccccc" />
    <path
       style="fill:#ffffff;fill-opacity:1.0000000;fill-rule:evenodd;stroke:none;stroke-width:1.0000000pt;stroke-linecap:butt;stroke-linejoin:miter;stroke-opacity:1.0000000"
       d="M 227.33501,22.846212 L 225.75404,23.922972 L 224.40402,21.536282 L 225.87563,20.442632 L 227.33501,22.846212 z "
       id="path652"
       sodipodi:nodetypes="ccccc" />
  </g>
</svg>
