<?xml version="1.0" encoding="UTF-8" standalone="no"?>
<!DOCTYPE svg PUBLIC "-//W3C//DTD SVG 1.0//EN"
"http://www.w3.org/TR/2001/REC-SVG-20010904/DTD/svg10.dtd">
<!-- Created with Sodipodi ("http://www.sodipodi.com/") -->
<svg
   xmlns="http://www.w3.org/2000/svg"
   xmlns:xlink="http://www.w3.org/1999/xlink"
   version="1.0"
   x="0"
   y="0"
   width="90"
   height="90"
   id="svg704">
  <defs
     id="defs706">
    <linearGradient
       id="linearGradient734">
      <stop
         style="stop-color:#2a2535;stop-opacity:1;"
         offset="0"
         id="stop735" />
      <stop
         style="stop-color:#e3e1cf;stop-opacity:1;"
         offset="1"
         id="stop736" />
    </linearGradient>
    <linearGradient
       id="linearGradient724">
      <stop
         style="stop-color:#ffffff;stop-opacity:0.4902;"
         offset="0"
         id="stop725" />
      <stop
         style="stop-color:#ffffff;stop-opacity:0.1765;"
         offset="1"
         id="stop726" />
    </linearGradient>
    <linearGradient
       id="linearGradient718">
      <stop
         style="stop-color:#e3e1cf;stop-opacity:1;"
         offset="0"
         id="stop719" />
      <stop
         style="stop-color:#ffffff;stop-opacity:1;"
         offset="1"
         id="stop720" />
    </linearGradient>
    <linearGradient
       x1="45.4330635"
       y1="41.9262352"
       x2="24.0375099"
       y2="27.2048512"
       id="linearGradient721"
       xlink:href="#linearGradient718"
       gradientUnits="userSpaceOnUse"
       gradientTransform="scale(1.033999,0.967119)"
       spreadMethod="pad" />
    <linearGradient
       x1="40.2607956"
       y1="39.8445053"
       x2="37.3197212"
       y2="68.6665039"
       id="linearGradient723"
       xlink:href="#linearGradient724"
       gradientUnits="userSpaceOnUse"
       gradientTransform="scale(1.185464,0.843551)"
       spreadMethod="pad" />
    <linearGradient
       id="linearGradient732"
       xlink:href="#linearGradient734" />
    <radialGradient
       cx="33.2134209"
       cy="118.190964"
       r="14.8945398"
       fx="33.2134209"
       fy="118.190964"
       id="radialGradient733"
       xlink:href="#linearGradient734"
       gradientUnits="userSpaceOnUse"
       gradientTransform="scale(1.559286,0.641319)"
       spreadMethod="pad" />
    <radialGradient
       id="radialGradient738"
       xlink:href="#linearGradient734" />
  </defs>
  <path
     d="M 12.54589 66.08518 C 10.53906 63.2203 0.804919 39.68818 9.149907 5.573048 C 43.46938 -1.468831 73.21238 11.65689 88.65365 21.52739 C 91.80462 28.06533 86.42437 77.18133 74.9013 81.99402 C 67.17384 84.51389 26.73851 83.81925 12.54589 66.08518 z "
     style="font-size:12;fill-opacity:0.3;fill-rule:evenodd;stroke-width:1;"
     id="path743" />
  <path
     d="M 7.684535 66.32826 C 5.677707 63.46338 -4.056439 39.93127 4.288549 5.81613 C 38.60802 -1.225749 68.35102 11.89997 83.79229 21.77048 C 86.94326 28.30842 81.56302 77.42441 70.03994 82.2371 C 62.31248 84.75697 21.87715 84.06234 7.684535 66.32826 z "
     style="font-size:12;fill:#211301;fill-rule:evenodd;stroke-width:1;"
     id="path715" />
  <path
     d="M 12.30597 64.44791 C 10.67139 61.34246 1.518372 43.85351 7.729434 10.18333 C 42.87063 3.808869 66.24359 17.37499 80.79048 25.54737 C 82.42495 31.43159 77.03113 75.56235 68.20496 78.17751 C 60.68637 80.62928 23.09341 79.1582 12.30597 64.44791 z "
     style="font-size:12;fill:url(#linearGradient721);fill-rule:evenodd;stroke-width:1;"
     id="path713" />
  <path
     d="M 16.06521 20.80745 L 13.45005 21.62463 C 13.12316 24.0764 9.037015 44.01701 12.95976 52.84318 C 17.5363 60.52517 19.66106 61.99625 19.17077 61.17896 C 13.61345 51.8625 11.81557 37.6425 16.06521 20.80745 z "
     style="font-size:12;fill:#b5a794;fill-rule:evenodd;stroke-width:1;"
     id="path717" />
  <path
     d="M 15.82546 20.41306 C 15.82546 20.41306 9.216381 44.47717 17.68962 59.05103 C 24.12929 68.03272 44.9734 75.15024 62.0894 70.0663 C 65.30929 65.99914 72.59611 43.96872 65.81763 31.76726 C 63.2756 27.53058 32.60253 14.48184 15.82546 20.41306 z "
     style="font-size:12;fill-rule:evenodd;stroke-width:1;"
     id="path711" />
  <path
     d="M 14.59424 44.6708 C 14.59424 44.6708 28.16034 26.20117 41.07265 37.96939 C 46.30308 55.45824 65.4264 59.54448 65.4264 59.54448 L 61.66716 68.86105 C 47.44716 73.92798 20.15146 63.46723 18.84388 59.54448 C 17.5363 55.62174 18.51698 61.66935 14.59424 44.6708 z "
     style="font-size:12;fill:url(#linearGradient723);fill-rule:evenodd;stroke-width:1;"
     id="path722" />
  <path
     d="M 81.11737 25.87427 C 81.11737 25.87427 75.72365 26.03777 75.56026 26.03777 C 75.39665 26.03777 76.37744 39.93077 75.72365 44.9977 C 75.06986 50.06452 73.43539 61.99625 72.4547 65.1017 C 71.47401 68.20726 65.75329 78.17751 65.263 78.8313 C 64.77261 79.48509 66.57059 78.6678 69.34914 77.85062 C 76.86773 69.18784 80.62708 48.43015 81.11737 25.87427 z "
     style="font-size:12;fill:#b5a794;fill-rule:evenodd;stroke-width:1;"
     id="path716" />
  <path
     d="M 64.93611 78.50441 C 64.93611 78.50441 77.68502 68.53415 74.41607 26.69156 C 71.63741 23.9129 67.38777 20.80745 67.38777 20.80745 C 67.38777 20.80745 75.56015 24.73019 76.05055 26.03777 C 76.86773 27.83564 77.35802 71.14932 64.93611 78.50441 z "
     style="font-size:12;fill:#211301;fill-rule:evenodd;stroke-width:1;"
     id="path712" />
  <g
     transform="matrix(0.510178,0,0,0.481841,41.57416,44.68832)"
     style="font-size:12;"
     id="g633">
    <defs
       id="defs571">
      <linearGradient
         id="linearGradient584">
        <stop
           style="stop-color:#ffffff;stop-opacity:0;"
           offset="0"
           id="stop585" />
        <stop
           style="stop-color:#ffffff;stop-opacity:1;"
           offset="1"
           id="stop586" />
      </linearGradient>
      <linearGradient
         x1="28.2520447"
         y1="32.8688049"
         x2="68.3603058"
         y2="21.4794312"
         id="linearGradient587"
         xlink:href="#linearGradient584"
         gradientUnits="userSpaceOnUse"
         gradientTransform="matrix(1.036821,-1.811349e-6,3.827296e-7,0.964487,2.057071e-6,1.075978e-6)"
         spreadMethod="pad" />
    </defs>
    <ellipse
       cx="43.3643112"
       cy="45.3907814"
       rx="40.4595261"
       ry="40.4595222"
       transform="matrix(0.941981,0,0,0.941981,5.915554,5.37508)"
       style="fill:none;fill-rule:evenodd;stroke:#000000;stroke-width:8.5;stroke-opacity:0.3;"
       id="path589" />
    <ellipse
       cx="43.3643112"
       cy="45.3907814"
       rx="40.4595261"
       ry="40.4595222"
       transform="matrix(0.846155,0,0,0.846155,6.256445,5.738268)"
       style="fill:#31baff;fill-rule:evenodd;stroke-width:1;"
       id="path573" />
    <path
       d="M 28.507 13.4277 L 33.5075 22.0666 L 21.4273 37.0306 C 21.4273 37.0306 27.3038 50.7498 31.5585 50.5779 C 28.9177 51.1396 28.922 62.4819 30.2424 66.003 C 34.3774 62.4315 14.8677 57.4856 16.5276 47.5264 C 18.1874 37.5671 17.0138 35.0166 12.4491 42.0711 C 7.88442 49.1255 7.05448 50.9929 7.46945 47.6731 C 7.88442 44.3534 6.46331 19.7781 28.507 13.4277 z "
       style="fill:#e48e6f;fill-rule:evenodd;stroke-width:1;"
       id="path576" />
    <path
       d="M 30.7077 12.4007 L 37.7622 22.36 L 24.0682 36.8839 C 24.0682 36.8839 33.6125 50.1629 33.6125 50.5779 C 33.6125 50.9929 29.8778 61.3671 29.8778 61.3671 C 29.8778 61.3671 16.5988 54.3126 18.2587 44.3534 C 19.9185 34.3941 18.2587 30.6594 13.694 37.7139 C 9.12933 44.7683 7.05448 50.9929 7.46945 47.6731 C 7.88442 44.3534 9.5443 16.5504 30.7077 12.4007 z "
       style="fill:#fffcac;fill-rule:evenodd;stroke-width:1;"
       id="path574" />
    <path
       d="M 28.507 13.4277 L 33.5075 22.0666 L 21.4273 37.0306 C 21.4273 37.0306 27.3038 50.7498 31.5585 50.5779 C 28.9177 51.1396 27.6771 56.6723 28.9975 60.1934 C 27.5304 55.792 16.5276 56.2407 18.1875 46.2815 C 19.8473 36.3222 18.2587 30.6594 13.694 37.7139 C 9.12933 44.7683 7.05448 50.9929 7.46945 47.6731 C 7.88442 44.3534 6.46331 19.7781 28.507 13.4277 z "
       style="fill:#ffd87c;fill-rule:evenodd;stroke-width:1;"
       id="path575" />
    <path
       d="M 42.8405 18.697 C 42.8405 18.697 48.1222 22.5116 42.2536 28.0867 C 36.385 33.6619 28.1691 35.7159 35.2113 39.5304 C 42.2536 43.345 51.9367 43.9318 51.0564 37.183 C 50.1762 30.4342 49.0025 16.0562 42.8405 18.697 z "
       style="fill:#e48e6f;fill-rule:evenodd;stroke-width:1;"
       id="path577" />
    <path
       d="M 42.8405 18.697 C 42.8405 18.697 48.1222 22.5116 42.2536 28.0867 C 36.385 33.6619 28.1691 35.7159 35.2113 39.5304 C 42.2536 43.345 51.9367 43.9318 51.0564 37.183 C 50.1762 30.4342 49.0025 16.0562 42.8405 18.697 z "
       transform="matrix(0.968474,0,0,0.938789,2.198177,1.124868)"
       style="fill:#fffbaa;fill-rule:evenodd;stroke-width:1;"
       id="path578" />
    <path
       d="M 42.8405 18.697 C 42.8405 18.697 48.1222 22.5116 42.2536 28.0867 C 36.385 33.6619 28.1691 35.7159 35.2113 39.5304 C 42.2536 43.345 51.9367 43.9318 51.0564 37.183 C 50.1762 30.4342 49.0025 16.0562 42.8405 18.697 z "
       transform="matrix(0.82661,0,0,0.889821,6.808317,2.024765)"
       style="fill:#ffd87c;fill-rule:evenodd;stroke-width:1;"
       id="path579" />
    <path
       d="M 77.1715 47.1595 C 77.1715 47.1595 63.087 45.1055 62.2067 45.6924 C 61.3264 46.2793 49.0024 47.453 50.1762 53.9084 C 51.3499 60.3638 55.4579 65.6455 50.1762 69.4601 C 44.8945 73.2746 39.0259 76.2089 44.3076 77.9695 C 49.5893 79.73 56.925 77.676 59.2724 75.622 C 61.6198 73.568 56.6316 72.3943 57.2184 66.5258 C 57.8053 60.6572 56.0447 56.8427 62.2067 58.8966 C 68.3687 60.9506 68.0753 63.2981 72.1832 58.8966 C 76.2912 54.4952 79.8124 53.3215 77.1715 47.1595 z "
       style="fill:#e48e6f;fill-rule:evenodd;stroke-width:1;"
       id="path580" />
    <path
       d="M 77.1715 47.1595 C 78.3452 45.6098 63.087 41.3862 62.2067 43.8328 C 61.3264 41.9402 46.3615 44.6636 47.5354 51.1189 C 48.7091 57.5744 53.6973 64.7157 48.4156 68.5303 C 43.1339 72.3448 39.0259 76.2089 44.3076 77.9695 C 49.5893 79.73 56.925 77.676 59.2724 75.622 C 61.6198 73.568 55.4579 72.3943 56.0447 66.5258 C 56.6316 60.6572 56.0447 55.293 62.2067 57.3469 C 68.3687 59.4009 68.0753 61.7484 72.1832 57.3469 C 76.2912 52.9455 79.8124 53.3215 77.1715 47.1595 z "
       transform="matrix(1,0,0,0.946729,0,2.428446)"
       style="fill:#fffcac;fill-rule:evenodd;stroke-width:1;"
       id="path582" />
    <path
       d="M 77.1715 47.1595 C 77.1715 47.1595 63.087 45.1055 62.2067 45.6924 C 61.3264 46.2793 49.0024 47.453 50.1762 53.9084 C 51.3499 60.3638 55.4579 65.6455 50.1762 69.4601 C 44.8945 73.2746 39.0259 76.2089 44.3076 77.9695 C 49.5893 79.73 56.925 77.676 59.2724 75.622 C 61.6198 73.568 55.4579 72.3943 56.0447 66.5258 C 56.6316 60.6572 56.0447 55.293 62.2067 57.3469 C 68.3687 59.4009 68.0753 61.7484 72.1832 57.3469 C 76.2912 52.9455 79.8124 53.3215 77.1715 47.1595 z "
       transform="matrix(1,0,0,0.946729,0,2.428446)"
       style="fill:#ffd87c;fill-rule:evenodd;stroke-width:1;"
       id="path581" />
    <path
       d="M 83.8238 45.3908 C 83.8238 67.7244 65.698 85.8503 43.3643 85.8503 C 21.0307 85.8503 2.90479 67.7244 2.90479 45.3908 C 2.90479 23.0571 21.0307 4.93126 43.3643 4.93126 C 65.698 4.93126 83.8238 23.0571 83.8238 45.3908 z "
       transform="matrix(0.920224,0,0,0.920224,3.044474,1.961231)"
       style="fill:none;fill-rule:evenodd;stroke:#283d53;stroke-width:8.5;"
       id="path654" />
    <path
       d="M 72.1832 30.4342 C 72.1832 40.1525 63.7044 48.0398 53.2571 48.0398 C 42.8099 48.0398 34.3311 40.1525 34.3311 30.4342 C 34.3311 20.7158 42.8099 12.8285 53.2571 12.8285 C 63.7044 12.8285 72.1832 20.7158 72.1832 30.4342 z "
       transform="matrix(0.933582,-0.664775,0.918324,1.029434,-29.83966,37.88266)"
       style="fill:url(#linearGradient587);fill-rule:evenodd;stroke-width:1;"
       id="path588" />
  </g>
</svg>
