<?xml version="1.0" encoding="UTF-8" standalone="no"?>
<!-- Created with Sodipodi ("http://www.sodipodi.com/") -->
<svg
   xmlns:dc="http://purl.org/dc/elements/1.1/"
   xmlns:cc="http://web.resource.org/cc/"
   xmlns:rdf="http://www.w3.org/1999/02/22-rdf-syntax-ns#"
   xmlns:svg="http://www.w3.org/2000/svg"
   xmlns="http://www.w3.org/2000/svg"
   xmlns:xlink="http://www.w3.org/1999/xlink"
   xmlns:sodipodi="http://sodipodi.sourceforge.net/DTD/sodipodi-0.dtd"
   xmlns:inkscape="http://www.inkscape.org/namespaces/inkscape"
   version="1.0"
   x="0"
   y="0"
   width="90"
   height="90"
   id="svg548"
   sodipodi:version="0.32"
   inkscape:version="0.45.1"
   sodipodi:docname="gnome-session.svg"
   sodipodi:docbase="/home/nathan/GNUtoon/scalable/apps"
   inkscape:output_extension="org.inkscape.output.svg.inkscape">
  <metadata
     id="metadata81">
    <rdf:RDF>
      <cc:Work
         rdf:about="">
        <dc:format>image/svg+xml</dc:format>
        <dc:type
           rdf:resource="http://purl.org/dc/dcmitype/StillImage" />
      </cc:Work>
    </rdf:RDF>
  </metadata>
  <sodipodi:namedview
     inkscape:window-height="615"
     inkscape:window-width="772"
     inkscape:pageshadow="2"
     inkscape:pageopacity="0.0"
     guidetolerance="10.0"
     gridtolerance="10.0"
     objecttolerance="10.0"
     borderopacity="1.0"
     bordercolor="#666666"
     pagecolor="#ffffff"
     id="base"
     inkscape:zoom="4.5222222"
     inkscape:cx="45"
     inkscape:cy="45"
     inkscape:window-x="20"
     inkscape:window-y="109"
     inkscape:current-layer="svg548" />
  <defs
     id="defs550">
    <linearGradient
       id="linearGradient589">
      <stop
         style="stop-color:#ffffff;stop-opacity:1;"
         offset="0"
         id="stop590" />
      <stop
         style="stop-color:#ffffff;stop-opacity:0;"
         offset="1"
         id="stop591" />
    </linearGradient>
    <linearGradient
       x1="38.4874878"
       y1="25.5889244"
       x2="50.0719948"
       y2="48.2551422"
       id="linearGradient592"
       xlink:href="#linearGradient589"
       gradientUnits="userSpaceOnUse"
       gradientTransform="scale(0.608808,1.642555)"
       spreadMethod="pad" />
    <linearGradient
       x1="-0.12901177"
       y1="2.34353207e-2"
       x2="0.70967788"
       y2="0.96093744"
       id="linearGradient594"
       xlink:href="#linearGradient589"
       gradientUnits="objectBoundingBox"
       spreadMethod="pad" />
    <linearGradient
       id="linearGradient596"
       xlink:href="#linearGradient589" />
    <linearGradient
       id="linearGradient629"
       xlink:href="#linearGradient589" />
    <linearGradient
       id="linearGradient631"
       xlink:href="#linearGradient589" />
  </defs>
  <g
     transform="matrix(1.2177522,0,0,1.2177522,4.7902139,-1.6889243)"
     style="font-size:12px"
     id="g797">
    <defs
       id="defs799">
      <linearGradient
         x1="0"
         y1="0"
         x2="1"
         y2="0"
         id="linearGradient556"
         gradientUnits="objectBoundingBox"
         spreadMethod="pad">
        <stop
           style="stop-color:#ff8700;stop-opacity:1;"
           offset="0"
           id="stop557" />
        <stop
           style="stop-color:#ffff8d;stop-opacity:0;"
           offset="1"
           id="stop558" />
      </linearGradient>
      <linearGradient
         x1="0"
         y1="0"
         x2="1"
         y2="0"
         id="linearGradient559"
         xlink:href="#linearGradient556"
         gradientUnits="objectBoundingBox"
         spreadMethod="pad" />
    </defs>
    <g
       transform="matrix(0.879515,0,0,0.747904,3.240334,1.906033)"
       id="g622">
      <defs
         id="defs624">
        <linearGradient
           x1="0"
           y1="0"
           x2="1"
           y2="0"
           id="linearGradient625"
           gradientUnits="objectBoundingBox"
           spreadMethod="pad">
          <stop
             style="stop-color:#ff0000;stop-opacity:1;"
             offset="0"
             id="stop626" />
          <stop
             style="stop-color:#ffff8d;stop-opacity:0;"
             offset="1"
             id="stop627" />
        </linearGradient>
        <linearGradient
           x1="0.98450798"
           y1="0.96875602"
           x2="-0.57364303"
           y2="-0.171875"
           id="linearGradient628"
           xlink:href="#linearGradient556" />
      </defs>
      <path
         d="M 60.01725,23.99648 C 59.53549,18.42523 39.28151,-0.155997 34.6921,1.525979 C 26.26824,2.875133 27.80318,12.48977 24.47333,13.67308 C 21.12074,14.2603 -7.972638,17.44191 5.187324,48.65893 C 7.581571,54.25087 9.102327,55.29983 11.60488,57.13311 C 14.0401,58.78143 17.95009,58.8779 21.12059,55.3124 C 24.01675,51.00947 22.76623,46.76743 21.42301,43.20362 C 17.19612,32.53529 24.99563,32.40727 29.30969,30.15509 C 30.31799,33.8884 32.17592,42.69868 34.68069,42.57612 C 37.18548,42.45358 60.64089,35.12471 60.01725,23.99648 z "
         style="fill:#0d3c07;fill-rule:evenodd"
         id="path811" />
      <path
         d="M 56.43394,23.6407 C 56.27621,19.46667 39.11294,4.640965 35.3464,6.096892 C 31.57967,7.552896 33.49308,12.85851 31.87806,15.80547 C -4.80765,16.56439 4.758002,57.5538 16.64254,52.80007 C 23.15131,50.27578 12.05925,39.66178 17.21876,32.46884 C 21.59482,26.19341 33.14937,25.01374 33.38684,26.55734 C 33.86179,29.64459 34.44591,38.87531 36.46869,38.67948 C 38.4915,38.48365 57.31595,28.02613 56.43394,23.6407 z "
         style="fill:#2aaf18;fill-rule:evenodd"
         id="path812" />
      <path
         d="M 6.835245,41.70574 C 8.271465,32.53362 10.38564,27.15574 15.38294,23.37504 C 20.88176,19.00195 30.21643,18.33108 30.49849,17.5357 C 30.78051,16.74034 23.72856,18.85646 18.28161,20.48563 C 8.069523,23.49743 5.940525,35.37665 6.835245,41.70574 z "
         style="fill:#ffffff;fill-rule:evenodd"
         id="path813" />
      <path
         d="M 48.10932,19.7236 C 46.94802,18.36876 38.77247,11.53838 36.54244,11.06304 C 34.31254,10.58784 35.79821,14.70468 35.79821,14.70468 C 35.79821,14.70468 47.19147,18.18673 48.10932,19.7236 z "
         style="fill:#ffffff;fill-rule:evenodd"
         id="path589" />
      <path
         d="M 48.89974,35.68601 C 48.89974,35.68601 58.05552,31.86359 58.04005,31.98362 C 58.02458,32.10363 56.33631,30.05579 56.33631,30.05579 L 53.96308,30.48197 L 48.70187,32.48812 L 48.89974,35.68601 z "
         style="fill:none;fill-rule:evenodd;stroke-width:1"
         id="path576" />
      <path
         d="M 56.32258,23.6129 C 57.29033,29.41935 36.19355,39.09677 36.19355,39.09677 C 34.25806,37.54839 33.09677,27.09678 31.16129,25.74193 C 27.67742,27.29032 16.83871,30.38709 16.25807,34.45161 C 15.67741,38.51613 18.58065,46.64516 18.96775,48.58064 C 19.74194,51.48388 17.22581,54.19355 14.70968,53.03226 C 12.19355,51.87097 11.80645,49.54838 11.80645,49.54838 C 11.80645,49.54838 14.51613,49.54839 14.90323,47.41935 C 15.29032,45.29032 9.67742,34.83871 12.58065,30.77419 C 15.48387,26.70968 27.09677,21.09678 34.25806,21.67742 L 37.16129,33.67741 C 37.16129,33.67741 40.06451,33.48388 56.32258,23.6129 z "
         style="fill:#1f8b10;fill-opacity:0.9899;fill-rule:evenodd;stroke-width:1"
         id="path615" />
    </g>
    <g
       transform="matrix(-0.85655,-0.248384,0.26059,-0.816429,51.42725,83.10669)"
       id="g635">
      <defs
         id="defs637">
        <linearGradient
           x1="0"
           y1="0"
           x2="1"
           y2="0"
           id="linearGradient638"
           gradientUnits="objectBoundingBox"
           spreadMethod="pad">
          <stop
             style="stop-color:#ff0000;stop-opacity:1;"
             offset="0"
             id="stop639" />
          <stop
             style="stop-color:#ffff8d;stop-opacity:0;"
             offset="1"
             id="stop640" />
        </linearGradient>
        <linearGradient
           x1="0.98450798"
           y1="0.96875602"
           x2="-0.57364303"
           y2="-0.171875"
           id="linearGradient641"
           xlink:href="#linearGradient556" />
      </defs>
      <path
         d="M 60.01725,23.99648 C 59.53549,18.42523 39.28151,-0.155997 34.6921,1.525979 C 26.26824,2.875133 27.80318,12.48977 24.47333,13.67308 C 21.12074,14.2603 -7.972638,17.44191 5.187324,48.65893 C 7.581571,54.25087 9.102327,55.29983 11.60488,57.13311 C 14.0401,58.78143 17.95009,58.8779 21.12059,55.3124 C 24.01675,51.00947 22.76623,46.76743 21.42301,43.20362 C 17.19612,32.53529 24.99563,32.40727 29.30969,30.15509 C 30.31799,33.8884 32.17592,42.69868 34.68069,42.57612 C 37.18548,42.45358 60.64089,35.12471 60.01725,23.99648 z "
         style="fill:#0d3c07;fill-rule:evenodd"
         id="path642" />
      <path
         d="M 56.43394,23.6407 C 56.27621,19.46667 39.11294,4.640965 35.3464,6.096892 C 31.57967,7.552896 33.49308,12.85851 31.87806,15.80547 C -4.80765,16.56439 4.758002,57.5538 16.64254,52.80007 C 23.15131,50.27578 12.05925,39.66178 17.21876,32.46884 C 21.59482,26.19341 33.14937,25.01374 33.38684,26.55734 C 33.86179,29.64459 34.44591,38.87531 36.46869,38.67948 C 38.4915,38.48365 57.31595,28.02613 56.43394,23.6407 z "
         style="fill:#2aaf18;fill-rule:evenodd"
         id="path643" />
      <path
         d="M 6.835245,41.70574 C 8.271465,32.53362 10.38564,27.15574 15.38294,23.37504 C 20.88176,19.00195 30.21643,18.33108 30.49849,17.5357 C 30.78051,16.74034 23.72856,18.85646 18.28161,20.48563 C 8.069523,23.49743 5.940525,35.37665 6.835245,41.70574 z "
         style="fill:#ffffff;fill-rule:evenodd"
         id="path644" />
      <path
         d="M 48.10932,19.7236 C 46.94802,18.36876 38.77247,11.53838 36.54244,11.06304 C 34.31254,10.58784 35.79821,14.70468 35.79821,14.70468 C 35.79821,14.70468 47.19147,18.18673 48.10932,19.7236 z "
         style="fill:#ffffff;fill-rule:evenodd"
         id="path645" />
      <path
         d="M 48.89974,35.68601 C 48.89974,35.68601 58.05552,31.86359 58.04005,31.98362 C 58.02458,32.10363 56.33631,30.05579 56.33631,30.05579 L 53.96308,30.48197 L 48.70187,32.48812 L 48.89974,35.68601 z "
         style="fill:none;fill-rule:evenodd;stroke-width:1"
         id="path646" />
      <path
         d="M 56.32258,23.6129 C 57.29033,29.41935 36.19355,39.09677 36.19355,39.09677 C 34.25806,37.54839 33.09677,27.09678 31.16129,25.74193 C 27.67742,27.29032 16.83871,30.38709 16.25807,34.45161 C 15.67741,38.51613 18.58065,46.64516 18.96775,48.58064 C 19.74194,51.48388 17.22581,54.19355 14.70968,53.03226 C 12.19355,51.87097 11.80645,49.54838 11.80645,49.54838 C 11.80645,49.54838 14.51613,49.54839 14.90323,47.41935 C 15.29032,45.29032 9.67742,34.83871 12.58065,30.77419 C 15.48387,26.70968 27.09677,21.09678 34.25806,21.67742 L 37.16129,33.67741 C 37.16129,33.67741 40.06451,33.48388 56.32258,23.6129 z "
         style="fill:#1f8b10;fill-opacity:0.9899;fill-rule:evenodd;stroke-width:1"
         id="path647" />
    </g>
  </g>
</svg>
