<?xml version="1.0" encoding="UTF-8" standalone="no"?>
<!-- Created with Sodipodi ("http://www.sodipodi.com/") -->
<svg
   xmlns:dc="http://purl.org/dc/elements/1.1/"
   xmlns:cc="http://web.resource.org/cc/"
   xmlns:rdf="http://www.w3.org/1999/02/22-rdf-syntax-ns#"
   xmlns:svg="http://www.w3.org/2000/svg"
   xmlns="http://www.w3.org/2000/svg"
   xmlns:xlink="http://www.w3.org/1999/xlink"
   xmlns:sodipodi="http://sodipodi.sourceforge.net/DTD/sodipodi-0.dtd"
   xmlns:inkscape="http://www.inkscape.org/namespaces/inkscape"
   id="svg683"
   sodipodi:version="0.32"
   width="72pt"
   height="72pt"
   xml:space="preserve"
   sodipodi:docbase="/home/nathan/GNUtoon/scalable/apps"
   sodipodi:docname="user-info.svg"
   inkscape:version="0.45.1"
   inkscape:output_extension="org.inkscape.output.svg.inkscape">
  <metadata
   id="metadata9">
    <rdf:RDF>
      <cc:Work
   rdf:about="">
        <dc:format>image/svg+xml</dc:format>
        <dc:type
   rdf:resource="http://purl.org/dc/dcmitype/StillImage" />
      </cc:Work>
    </rdf:RDF>
  </metadata>
  <defs
   id="defs685">
    <linearGradient
   id="linearGradient1853">
      <stop
   offset="0.0000000"
   style="stop-color:#000000;stop-opacity:1.0000000;"
   id="stop1855" />
      <stop
   offset="1.0000000"
   style="stop-color:#3b91cd;stop-opacity:0.98969072;"
   id="stop1854" />
    </linearGradient>
    <linearGradient
   id="linearGradient1843">
      <stop
   style="stop-color:#ffe6bb;stop-opacity:1.0000000;"
   offset="0.0000000"
   id="stop1844" />
      <stop
   style="stop-color:#ff933d;stop-opacity:1.0000000;"
   offset="1.0000000"
   id="stop1845" />
    </linearGradient>
    <linearGradient
   id="linearGradient1840">
      <stop
   offset="0.0000000"
   style="stop-color:#ffb700;stop-opacity:1.0000000;"
   id="stop1842" />
      <stop
   offset="1.0000000"
   style="stop-color:#ffd58f;stop-opacity:0.0000000;"
   id="stop1841" />
    </linearGradient>
    <defs
   id="defs3">
      <sodipodi:namedview
   id="namedview909" />
      <defs
   id="defs550">
        <linearGradient
   x1="0.0000000"
   y1="0.0000000"
   x2="1.0000000"
   y2="0.0000000"
   id="linearGradient632"
   gradientUnits="objectBoundingBox"
   spreadMethod="pad"
   xlink:href="#linearGradient1840" />
        <linearGradient
   x1="0.0000000"
   y1="0.0000000"
   x2="1.0000000"
   y2="0.0000000"
   id="linearGradient556"
   gradientUnits="objectBoundingBox"
   spreadMethod="pad"
   xlink:href="#linearGradient1853" />
        <linearGradient
   id="linearGradient559"
   xlink:href="#linearGradient632"
   x1="60.644615"
   y1="19.295689"
   x2="35.370575"
   y2="69.142799"
   gradientUnits="userSpaceOnUse"
   spreadMethod="pad" />
        <linearGradient
   xlink:href="#linearGradient632"
   id="linearGradient631"
   x1="85.637657"
   y1="17.443844"
   x2="73.916298"
   y2="54.628181"
   gradientUnits="userSpaceOnUse"
   spreadMethod="pad"
   gradientTransform="scale(0.740666,1.350136)" />
      </defs>
    </defs>
    <sodipodi:namedview
   id="namedview1078"
   pagecolor="#ffffff"
   bordercolor="#666666"
   borderopacity="1.0"
   inkscape:pageopacity="0.0"
   inkscape:pageshadow="2"
   inkscape:zoom="2.4559706"
   inkscape:cx="113.94414"
   inkscape:cy="73.007956"
   inkscape:window-width="812"
   inkscape:window-height="560"
   inkscape:window-x="103"
   inkscape:window-y="56" />
    <metadata
   id="metadata4">
      <rdf:RDF>
        <cc:Work
   rdf:about="">
          <dc:format>image/svg+xml</dc:format>
          <dc:type
   rdf:resource="http://purl.org/dc/dcmitype/StillImage" />
        </cc:Work>
      </rdf:RDF>
    </metadata>
    <radialGradient
   inkscape:collect="always"
   xlink:href="#linearGradient1843"
   id="radialGradient1847"
   gradientTransform="scale(0.965451,1.035785)"
   cx="44.176689"
   cy="30.546623"
   fx="44.176689"
   fy="30.546623"
   r="69.292931"
   gradientUnits="userSpaceOnUse" />
    <linearGradient
   inkscape:collect="always"
   xlink:href="#linearGradient1853"
   id="linearGradient1852"
   gradientTransform="scale(1.192647,0.838471)"
   x1="49.805740"
   y1="54.607960"
   x2="9.1116619"
   y2="15.821439"
   gradientUnits="userSpaceOnUse" />
    <radialGradient
   inkscape:collect="always"
   xlink:href="#linearGradient1843"
   id="radialGradient1858"
   gradientUnits="userSpaceOnUse"
   gradientTransform="scale(0.965451,1.035785)"
   cx="44.176689"
   cy="30.546623"
   fx="44.176689"
   fy="30.546623"
   r="69.292931" />
  </defs>
  <sodipodi:namedview
   id="base"
   inkscape:zoom="0.89124917"
   inkscape:cx="3.7349441"
   inkscape:cy="35.456819"
   inkscape:window-width="764"
   inkscape:window-height="709"
   inkscape:window-x="52"
   inkscape:window-y="292"
   inkscape:current-layer="svg683" />
  <path
   style="fill:#000000;fill-opacity:0.24999996;stroke:none;stroke-width:3.3125000;stroke-miterlimit:4.0000000;stroke-opacity:1.0000000"
   d="M 43.119672,18.384392 C 24.899845,18.384392 10.117910,33.934331 10.117911,53.095694 C 10.117911,53.854752 10.272218,54.558536 10.317921,55.305522 C 9.1015223,54.874267 7.8954823,54.689072 6.8844054,55.101538 C 3.1441396,56.627362 0.89263601,69.981455 7.2510913,72.270203 C 11.005857,73.621731 13.756077,73.304484 15.684875,72.406193 C 21.609868,81.697131 31.690698,87.806995 43.119672,87.806995 C 61.339499,87.806995 76.121434,72.257061 76.121434,53.095694 C 76.121434,33.934326 61.339500,18.384392 43.119672,18.384392 z "
   id="path1065" />
  <path
   sodipodi:type="arc"
   style="fill:url(#radialGradient1858);fill-opacity:1.0000000;stroke:#b01911;stroke-width:3.3125000;stroke-miterlimit:4.0000000;stroke-opacity:1.0000000"
   id="path1857"
   sodipodi:cx="41.900459"
   sodipodi:cy="42.664753"
   sodipodi:rx="29.628359"
   sodipodi:ry="31.907463"
   d="M 71.528818 42.664753 A 29.628359 31.907463 0 1 1  12.272100,42.664753 A 29.628359 31.907463 0 1 1  71.528818 42.664753 z"
   transform="matrix(1.044349,0.000000,0.000000,1.000000,1.780817,5.514704)" />
  <path
   sodipodi:type="arc"
   style="fill:#ffffff;fill-opacity:1.0000000;stroke:#000000;stroke-width:1.8750000;stroke-miterlimit:4.0000000;stroke-opacity:1.0000000"
   id="path1167"
   sodipodi:cx="36.446281"
   sodipodi:cy="34.214874"
   sodipodi:rx="11.652892"
   sodipodi:ry="11.652892"
   d="M 48.099174 34.214874 A 11.652892 11.652892 0 1 1  24.793389,34.214874 A 11.652892 11.652892 0 1 1  48.099174 34.214874 z"
   transform="translate(33.22315,8.429752)" />
  <path
   sodipodi:type="arc"
   style="fill:#ffffff;fill-opacity:1.0000000;stroke:#000000;stroke-width:1.8750000;stroke-miterlimit:4.0000000;stroke-opacity:1.0000000"
   id="path1789"
   sodipodi:cx="36.446281"
   sodipodi:cy="34.214874"
   sodipodi:rx="11.652892"
   sodipodi:ry="11.652892"
   d="M 48.099174 34.214874 A 11.652892 11.652892 0 1 1  24.793389,34.214874 A 11.652892 11.652892 0 1 1  48.099174 34.214874 z"
   transform="matrix(1.177231,0.000000,0.000000,1.177231,5.689358,4.597228)" />
  <path
   sodipodi:type="arc"
   style="fill:#000000;fill-opacity:1;stroke:none;stroke-width:1.875;stroke-miterlimit:4;stroke-opacity:1"
   id="path1806"
   sodipodi:cx="44.132233"
   sodipodi:cy="43.140495"
   sodipodi:rx="4.9586778"
   sodipodi:ry="5.2066116"
   d="M 49.09091 43.140495 A 4.9586778 5.2066116 0 1 1  39.173555,43.140495 A 4.9586778 5.2066116 0 1 1  49.09091 43.140495 z"
   transform="translate(4.3296058,3.6042793)" />
  <path
   sodipodi:type="arc"
   style="fill:#000000;fill-opacity:1.0000000;stroke:none;stroke-width:1.8750000;stroke-miterlimit:4.0000000;stroke-opacity:1.0000000"
   id="path1805"
   sodipodi:cx="44.132233"
   sodipodi:cy="43.140495"
   sodipodi:rx="4.9586778"
   sodipodi:ry="5.2066116"
   d="M 49.090910 43.140495 A 4.9586778 5.2066116 0 1 1  39.173555,43.140495 A 4.9586778 5.2066116 0 1 1  49.090910 43.140495 z"
   transform="translate(25.28926,0.495868)" />
  <path
   style="fill:#000000;fill-opacity:1.0000000;fill-rule:evenodd;stroke:none;stroke-width:3.1875000;stroke-linecap:round;stroke-linejoin:round;stroke-miterlimit:4.0000000;stroke-opacity:1.0000000"
   d="M 36.562500,58.154442 C 36.306246,58.178522 36.059634,58.264299 35.843750,58.404442 C 35.843750,58.404442 33.740280,59.695412 31.843750,61.591942 C 30.895485,62.540207 29.966355,63.634711 29.375000,64.935692 C 28.783645,66.236673 28.567171,67.913784 29.312500,69.404442 C 29.559040,69.930187 30.071989,70.280257 30.651428,70.318215 C 31.230866,70.356172 31.785100,70.076010 32.098119,69.586920 C 32.411138,69.097830 32.433408,68.477209 32.156250,67.966942 C 31.909843,67.474129 30.951117,67.023915 31.289514,66.279442 C 31.627911,65.534969 31.570941,64.629214 32.358213,63.841942 C 33.932757,62.267398 35.547779,61.091942 35.547779,61.091942 C 36.166634,60.701436 38.423560,59.939708 38.194375,59.244761 C 37.965191,58.549814 37.292250,58.100196 36.562500,58.154442 L 36.562500,58.154442 z "
   id="path1807"
   sodipodi:nodetypes="cccccccccccccc" />
  <path
   style="fill:#000000;fill-opacity:1.0000000;fill-rule:evenodd;stroke:none;stroke-width:3.5625000;stroke-linecap:square;stroke-linejoin:round;stroke-miterlimit:4.0000000;stroke-opacity:1.0000000"
   d="M 32.839618,61.212810 L 30.214618,63.587810 L 31.402118,64.931560 C 31.402118,64.931560 42.227268,76.754743 55.745868,70.806560 L 57.402118,70.087810 L 56.708420,69.317149 L 54.804236,70.035899 C 41.050107,74.996806 34.058368,62.525310 34.058368,62.525310 L 32.839618,61.212810 z "
   id="path1808"
   sodipodi:nodetypes="ccccccccc" />
  <path
   style="fill:url(#linearGradient1852);fill-opacity:1.0;fill-rule:evenodd;stroke:none;stroke-width:0.25000000pt;stroke-linecap:butt;stroke-linejoin:miter;stroke-opacity:1.0000000;"
   d="M 29.752067,28.016529 C 30.247934,30.991735 31.735537,36.446281 29.752066,43.884298 C 24.793388,51.322314 16.859504,59.752066 16.859504,59.752066 C 14.876033,60.743802 8.9256202,55.785124 7.9338842,44.876034 C 6.9421488,33.966943 11.404959,20.082645 17.851240,19.586777 C 21.818182,17.107438 22.314049,16.115702 22.314049,16.115702 C 22.314049,16.115702 22.314050,13.140496 26.280992,10.661157 C 30.247934,8.1818182 41.157025,2.7272728 51.570248,6.6942149 C 61.983471,10.661157 64.958677,22.561983 73.884297,20.082644 C 82.809917,17.603305 87.768595,14.628099 87.768595,14.628099 C 87.768595,14.628099 88.760331,25.041323 81.322314,30.991736 C 73.884298,36.942149 70.413223,39.917356 59.008264,38.429752 C 47.603306,36.942149 34.214876,29.504132 29.752067,28.016529 z "
   id="path1848"
   sodipodi:nodetypes="ccccccccccccc" />
  <path
   style="fill:#ffb978;fill-opacity:1.0000000;fill-rule:evenodd;stroke:#b01911;stroke-width:3.6875000;stroke-linecap:round;stroke-linejoin:miter;stroke-miterlimit:4.0000000;stroke-opacity:1.0000000"
   d="M 21.037887,54.235591 C 21.037887,54.235591 15.077152,48.625488 11.570838,50.028014 C 8.0645236,51.430539 5.9607349,63.702641 11.921469,65.806429 C 17.882204,67.910218 21.388519,65.806429 22.440413,63.702641"
   id="path1859" />
<path
   style="font-size:12px;fill:none;fill-rule:evenodd;stroke-width:1pt"
   d="M 82.078892,80.714566 L 83.644862,79.096406 L 81.300022,65.764946 L 78.853342,65.268656 L 77.382792,66.968796 L 80.416002,67.310376 L 82.078892,80.714566 z "
   id="path568" /><path
   style="font-size:12px;fill-opacity:0.3;fill-rule:evenodd;stroke-width:1pt"
   d="M 75.262362,70.033226 L 77.740122,68.603866 L 88.711892,69.836176 L 86.121432,85.565996 L 82.369732,90.087576 L 72.804172,89.187456 L 75.262362,70.033226 z "
   id="path574"
   sodipodi:nodetypes="ccccccc" /><path
   style="font-size:12px;fill:#2c0000;fill-rule:evenodd;stroke-width:1pt"
   d="M 70.615052,70.051816 L 76.743502,66.992806 L 87.429642,68.736456 L 83.438902,85.608346 L 80.251282,89.682486 L 71.260742,89.433696 L 70.615052,70.051816 z "
   id="path570"
   sodipodi:nodetypes="ccccccc" /><path
   style="font-size:12px;fill:none;fill-rule:evenodd;stroke-width:1pt"
   d="M 81.235602,87.795836 L 83.139052,85.828946 L 80.288882,69.624476 L 77.314922,69.021216 L 75.527482,71.087756 L 79.214352,71.502946 L 81.235602,87.795836 z "
   id="path2335" /><path
   style="font-size:12px;fill:#790000;fill-rule:evenodd;stroke-width:1pt"
   d="M 78.876192,87.917086 L 81.792572,72.485356 L 73.117642,71.199916 L 77.156332,69.185116 L 84.803372,70.269416 L 81.338212,84.879166 L 78.876192,87.917086 z "
   id="path569"
   sodipodi:nodetypes="ccccccc" /><path
   style="font-size:12px;fill:#ff1400;fill-opacity:1;fill-rule:evenodd;stroke-width:1pt"
   d="M 73.237532,87.829926 L 72.898332,71.253416 L 82.178952,72.152626 L 78.976782,88.025806 L 73.237532,87.829926 z "
   id="path567"
   sodipodi:nodetypes="ccccc" /><path
   sodipodi:type="arc"
   style="font-size:12px;fill-opacity:0.3;fill-rule:evenodd;stroke-width:1pt"
   id="path575"
   d="M 51.947845 68.73909 A 11.939625 10.997026 0 1 1  28.068596,68.73909 A 11.939625 10.997026 0 1 1  51.947845 68.73909 z"
   sodipodi:cx="40.008221"
   sodipodi:cy="68.73909"
   sodipodi:rx="11.939625"
   sodipodi:ry="10.997026"
   transform="matrix(0.6835849,-2.9752955e-2,-3.2242178e-2,-0.6574273,54.654282,109.87174)" /><path
   sodipodi:type="arc"
   style="font-size:12px;fill:#2c0000;fill-rule:evenodd;stroke-width:1pt"
   id="path558"
   d="M 51.947845 68.73909 A 11.939625 10.997026 0 1 1  28.068596,68.73909 A 11.939625 10.997026 0 1 1  51.947845 68.73909 z"
   sodipodi:cx="40.008221"
   sodipodi:cy="68.73909"
   sodipodi:rx="11.939625"
   sodipodi:ry="10.997026"
   transform="matrix(0.6144506,-2.6743921e-2,-3.0161463e-2,-0.615,56.474612,107.3375)" /><path
   style="font-size:12px;fill:#790000;fill-rule:evenodd;stroke-width:1pt"
   d="M 84.417282,63.410186 C 84.288972,60.794176 81.954642,58.768116 79.206722,58.887716 C 76.458692,59.007326 74.332602,61.227546 74.460902,63.843546 C 74.589192,66.459556 80.723702,64.592896 79.671572,68.365996 C 82.419492,68.246396 84.545582,66.026186 84.417282,63.410186 z "
   id="path562"
   sodipodi:nodetypes="ccccc" /><path
   style="font-size:12px;fill:#ff1400;fill-opacity:1;fill-rule:evenodd;stroke-width:1pt"
   d="M 82.564692,64.183366 C 82.444422,61.730866 80.304412,59.829286 77.787872,59.938836 C 75.271262,60.048376 73.326482,62.127726 73.446752,64.580216 C 73.567022,67.032726 75.707042,68.934296 78.223652,68.824756 C 80.740202,68.715206 82.684972,66.635866 82.564692,64.183366 z "
   id="path561" /></svg>