<?xml version="1.0" encoding="UTF-8" standalone="no"?>
<!DOCTYPE svg PUBLIC "-//W3C//DTD SVG 20010904//EN"
"http://www.w3.org/TR/2001/REC-SVG-20010904/DTD/svg10.dtd">
<!-- Created with Sodipodi ("http://www.sodipodi.com/") -->
<svg
   version="1"
   x="0.00000000"
   y="0.00000000"
   width="90.0000000"
   height="90.0000000"
   id="svg604"
   sodipodi:version="0.32"
   sodipodi:docname="gnome-mime-application-x-dc-rom.svg"
   sodipodi:docbase="/home/zeus/.icons/gartoon/scalable/mimetypes"
   inkscape:version="0.40"
   xmlns="http://www.w3.org/2000/svg"
   xmlns:cc="http://web.resource.org/cc/"
   xmlns:inkscape="http://www.inkscape.org/namespaces/inkscape"
   xmlns:sodipodi="http://sodipodi.sourceforge.net/DTD/sodipodi-0.dtd"
   xmlns:rdf="http://www.w3.org/1999/02/22-rdf-syntax-ns#"
   xmlns:dc="http://purl.org/dc/elements/1.1/"
   xmlns:xlink="http://www.w3.org/1999/xlink">
  <metadata
     id="metadata58">
    <rdf:RDF
       id="RDF59">
      <cc:Work
         rdf:about=""
         id="Work60">
        <dc:format
           id="format61">image/svg+xml</dc:format>
        <dc:type
           id="type63"
           rdf:resource="http://purl.org/dc/dcmitype/StillImage" />
      </cc:Work>
    </rdf:RDF>
  </metadata>
  <sodipodi:namedview
     id="base"
     inkscape:zoom="5.0416667"
     inkscape:cx="36.000000"
     inkscape:cy="36.000000"
     inkscape:window-width="640"
     inkscape:window-height="536"
     inkscape:window-x="5"
     inkscape:window-y="48"
     inkscape:current-layer="svg604" />
  <defs
     id="defs606">
    <linearGradient
       x1="0.00000000"
       y1="0.00000000"
       x2="1.00000000"
       y2="0.00000000"
       id="linearGradient612"
       gradientUnits="objectBoundingBox"
       spreadMethod="pad">
      <stop
         style="stop-color:#7fa8e3;stop-opacity:0.741176;"
         offset="0.00000000"
         id="stop613" />
      <stop
         style="stop-color:#ffffff;stop-opacity:0;"
         offset="1.00000000"
         id="stop614" />
    </linearGradient>
    <linearGradient
       x1="50.6438866"
       y1="5.36792946"
       x2="35.7520943"
       y2="68.0443573"
       id="linearGradient615"
       xlink:href="#linearGradient612"
       gradientUnits="userSpaceOnUse"
       spreadMethod="pad" />
    <linearGradient
       inkscape:collect="always"
       xlink:href="#linearGradient577"
       id="linearGradient1114"
       gradientUnits="userSpaceOnUse"
       spreadMethod="pad"
       x1="0.93126918"
       y1="52.570902"
       x2="6.9733135"
       y2="60.732933"
       gradientTransform="scale(0.949764,1.052894)" />
    <linearGradient
       inkscape:collect="always"
       xlink:href="#linearGradient568"
       id="linearGradient1115"
       gradientUnits="userSpaceOnUse"
       gradientTransform="scale(1.566986,0.638168)"
       spreadMethod="pad"
       x1="23.4216499"
       y1="36.1659203"
       x2="29.5057697"
       y2="61.8460312" />
    <radialGradient
       inkscape:collect="always"
       xlink:href="#linearGradient557"
       id="radialGradient1116"
       gradientUnits="userSpaceOnUse"
       gradientTransform="scale(1.494434,0.669150)"
       spreadMethod="pad"
       cx="22.8891735"
       cy="42.2030029"
       fx="22.8891735"
       fy="42.2030029"
       r="27.1401024" />
    <linearGradient
       inkscape:collect="always"
       xlink:href="#linearGradient557"
       id="linearGradient1117"
       gradientUnits="userSpaceOnUse"
       gradientTransform="scale(1.395965,0.716350)"
       spreadMethod="pad"
       x1="19.4011784"
       y1="49.7517815"
       x2="30.0717945"
       y2="59.1887779" />
    <linearGradient
       inkscape:collect="always"
       xlink:href="#linearGradient557"
       id="linearGradient1118"
       gradientUnits="userSpaceOnUse"
       gradientTransform="scale(1.241185,0.805681)"
       spreadMethod="pad"
       x1="55.4934044"
       y1="45.3989868"
       x2="49.2034531"
       y2="41.1385117" />
    <linearGradient
       inkscape:collect="always"
       xlink:href="#linearGradient568"
       id="linearGradient1119"
       gradientUnits="userSpaceOnUse"
       gradientTransform="scale(1.301968,0.768068)"
       spreadMethod="pad"
       x1="3.44396615"
       y1="54.6343613"
       x2="12.9325171"
       y2="64.2783432" />
    <linearGradient
       inkscape:collect="always"
       xlink:href="#linearGradient577"
       id="linearGradient1120"
       gradientUnits="userSpaceOnUse"
       gradientTransform="scale(1.045857,0.956154)"
       spreadMethod="pad"
       x1="25.7572994"
       y1="57.0723801"
       x2="24.1922855"
       y2="73.3503952" />
    <linearGradient
       inkscape:collect="always"
       xlink:href="#linearGradient568"
       id="linearGradient1121"
       gradientUnits="userSpaceOnUse"
       spreadMethod="pad"
       x1="61.635069"
       y1="42.958833"
       x2="65.301711"
       y2="50.903113"
       gradientTransform="scale(1.081764,0.924416)" />
    <linearGradient
       inkscape:collect="always"
       xlink:href="#linearGradient577"
       id="linearGradient1122"
       gradientUnits="userSpaceOnUse"
       gradientTransform="scale(0.991720,1.008349)"
       spreadMethod="pad"
       x1="67.5966949"
       y1="48.1304512"
       x2="73.0329590"
       y2="62.9485321" />
    <defs
       id="defs550">
      <linearGradient
         id="linearGradient577">
        <stop
           style="stop-color:#ffbd00;stop-opacity:1;"
           offset="0.000000"
           id="stop578" />
        <stop
           style="stop-color:#ff6d19;stop-opacity:1;"
           offset="1.000000"
           id="stop579" />
      </linearGradient>
      <linearGradient
         id="linearGradient568">
        <stop
           style="stop-color:#cfd2c2;stop-opacity:1;"
           offset="0.000000"
           id="stop569" />
        <stop
           style="stop-color:#595a59;stop-opacity:1;"
           offset="1.000000"
           id="stop570" />
      </linearGradient>
      <linearGradient
         id="linearGradient557">
        <stop
           style="stop-color:#ffff00;stop-opacity:1;"
           offset="0.000000"
           id="stop558" />
        <stop
           style="stop-color:#9d0000;stop-opacity:1;"
           offset="1.000000"
           id="stop559" />
      </linearGradient>
      <linearGradient
         xlink:href="#linearGradient557"
         id="linearGradient560"
         x1="19.401178"
         y1="49.751781"
         x2="30.071795"
         y2="59.188778"
         gradientUnits="userSpaceOnUse"
         spreadMethod="pad"
         gradientTransform="scale(1.395965,0.716350)" />
      <radialGradient
         xlink:href="#linearGradient557"
         id="radialGradient561"
         cx="22.889174"
         cy="42.203003"
         fx="22.889174"
         fy="42.203003"
         r="27.140102"
         gradientUnits="userSpaceOnUse"
         spreadMethod="pad"
         gradientTransform="scale(1.494434,0.669150)" />
      <radialGradient
         xlink:href="#linearGradient568"
         id="radialGradient563"
         cx="0.50000000"
         cy="0.50000000"
         fx="0.50000000"
         fy="0.50000000"
         r="0.50000000"
         gradientUnits="objectBoundingBox"
         spreadMethod="pad" />
      <linearGradient
         xlink:href="#linearGradient557"
         id="linearGradient565"
         x1="55.493404"
         y1="45.398987"
         x2="49.203453"
         y2="41.138512"
         gradientUnits="userSpaceOnUse"
         spreadMethod="pad"
         gradientTransform="scale(1.241185,0.805681)" />
      <linearGradient
         xlink:href="#linearGradient568"
         id="linearGradient571"
         x1="23.421650"
         y1="36.165920"
         x2="29.505770"
         y2="61.846031"
         gradientUnits="userSpaceOnUse"
         gradientTransform="scale(1.566986,0.638168)"
         spreadMethod="pad" />
      <linearGradient
         xlink:href="#linearGradient577"
         id="linearGradient573"
         x1="25.757299"
         y1="57.072380"
         x2="24.192286"
         y2="73.350395"
         gradientUnits="userSpaceOnUse"
         spreadMethod="pad"
         gradientTransform="scale(1.045857,0.956154)" />
      <linearGradient
         xlink:href="#linearGradient568"
         id="linearGradient581"
         x1="3.4439662"
         y1="54.634361"
         x2="12.932517"
         y2="64.278343"
         gradientUnits="userSpaceOnUse"
         spreadMethod="pad"
         gradientTransform="scale(1.301968,0.768068)" />
      <linearGradient
         xlink:href="#linearGradient577"
         id="linearGradient583"
         x1="67.596695"
         y1="48.130451"
         x2="73.032959"
         y2="62.948532"
         gradientUnits="userSpaceOnUse"
         spreadMethod="pad"
         gradientTransform="scale(0.991720,1.008349)" />
      <linearGradient
         xlink:href="#linearGradient568"
         id="linearGradient588"
         x1="0.44871512"
         y1="0.085935123"
         x2="0.56410247"
         y2="0.33593756"
         gradientUnits="objectBoundingBox"
         spreadMethod="pad" />
      <linearGradient
         xlink:href="#linearGradient577"
         id="linearGradient591"
         x1="-0.19643033"
         y1="0.20312500"
         x2="0.31250003"
         y2="0.89062500"
         gradientUnits="objectBoundingBox"
         spreadMethod="pad" />
    </defs>
    <sodipodi:namedview
       id="namedview876">
      <sodipodi:guide
         orientation="vertical"
         position="0.00000000"
         id="guide552" />
      <sodipodi:guide
         orientation="horizontal"
         position="72.0000076"
         id="guide553" />
      <sodipodi:guide
         orientation="vertical"
         position="71.7500076"
         id="guide554" />
      <sodipodi:guide
         orientation="horizontal"
         position="0.25000003"
         id="guide555" />
    </sodipodi:namedview>
    <linearGradient
       inkscape:collect="always"
       xlink:href="#linearGradient577"
       id="linearGradient1167"
       gradientUnits="userSpaceOnUse"
       gradientTransform="matrix(0.518679,0.000000,0.000000,0.527377,15.41444,29.21814)"
       spreadMethod="pad"
       x1="67.5966949"
       y1="48.1304512"
       x2="73.0329590"
       y2="62.9485321" />
    <linearGradient
       inkscape:collect="always"
       xlink:href="#linearGradient568"
       id="linearGradient1168"
       gradientUnits="userSpaceOnUse"
       gradientTransform="matrix(0.565773,0.000000,0.000000,0.483479,15.41444,29.21814)"
       spreadMethod="pad"
       x1="61.635069"
       y1="42.958833"
       x2="65.301711"
       y2="50.903113" />
    <linearGradient
       inkscape:collect="always"
       xlink:href="#linearGradient577"
       id="linearGradient1169"
       gradientUnits="userSpaceOnUse"
       gradientTransform="matrix(0.546994,0.000000,0.000000,0.500078,15.41444,29.21814)"
       spreadMethod="pad"
       x1="25.7572994"
       y1="57.0723801"
       x2="24.1922855"
       y2="73.3503952" />
    <linearGradient
       inkscape:collect="always"
       xlink:href="#linearGradient568"
       id="linearGradient1170"
       gradientUnits="userSpaceOnUse"
       gradientTransform="matrix(0.680942,0.000000,0.000000,0.401707,15.41444,29.21814)"
       spreadMethod="pad"
       x1="3.44396615"
       y1="54.6343613"
       x2="12.9325171"
       y2="64.2783432" />
    <linearGradient
       inkscape:collect="always"
       xlink:href="#linearGradient557"
       id="linearGradient1171"
       gradientUnits="userSpaceOnUse"
       gradientTransform="matrix(0.649152,0.000000,0.000000,0.421379,15.41444,29.21814)"
       spreadMethod="pad"
       x1="55.4934044"
       y1="45.3989868"
       x2="49.2034531"
       y2="41.1385117" />
    <linearGradient
       inkscape:collect="always"
       xlink:href="#linearGradient557"
       id="linearGradient1172"
       gradientUnits="userSpaceOnUse"
       gradientTransform="matrix(0.730104,0.000000,0.000000,0.374658,15.41444,29.21814)"
       spreadMethod="pad"
       x1="19.4011784"
       y1="49.7517815"
       x2="30.0717945"
       y2="59.1887779" />
    <radialGradient
       inkscape:collect="always"
       xlink:href="#linearGradient557"
       id="radialGradient1173"
       gradientUnits="userSpaceOnUse"
       gradientTransform="matrix(0.781604,0.000000,0.000000,0.349972,15.41444,29.21814)"
       spreadMethod="pad"
       cx="22.8891735"
       cy="42.2030029"
       fx="22.8891735"
       fy="42.2030029"
       r="27.1401024" />
    <linearGradient
       inkscape:collect="always"
       xlink:href="#linearGradient568"
       id="linearGradient1174"
       gradientUnits="userSpaceOnUse"
       gradientTransform="matrix(0.819549,0.000000,0.000000,0.333768,15.41444,29.21814)"
       spreadMethod="pad"
       x1="23.4216499"
       y1="36.1659203"
       x2="29.5057697"
       y2="61.8460312" />
    <linearGradient
       inkscape:collect="always"
       xlink:href="#linearGradient577"
       id="linearGradient1175"
       gradientUnits="userSpaceOnUse"
       gradientTransform="matrix(0.496736,0.000000,0.000000,0.550674,15.41444,29.21814)"
       spreadMethod="pad"
       x1="0.93126918"
       y1="52.570902"
       x2="6.9733135"
       y2="60.732933" />
  </defs>
  <path
     d="M 12.8163 74.753 C 10.3856 73.6481 7.07107 70.1126 8.83884 65.2512 C 9.72267 59.948 25.6326 13.1021 29.1682 10.8924 C 31.3778 8.90368 34.582 8.13026 39.1119 9.34561 C 42.8684 10.2295 76.6769 19.0684 78.6656 20.8361 C 80.6544 22.6039 82.2012 24.0402 80.6544 27.9072 C 79.5496 29.8959 66.4017 74.532 66.1808 77.4047 C 65.2969 80.4983 62.7558 84.2548 58.5573 84.0338 C 54.3589 83.8128 15.9099 75.4159 12.8163 74.753 z "
     transform="matrix(1.114903,0.000000,0.000000,1.114903,-5.305332,-3.889256)"
     style="font-size:12;fill-opacity:0.301471;fill-rule:evenodd;stroke-width:1pt;"
     id="path794" />
  <path
     d="M 12.8163 74.753 C 10.3856 73.6481 7.07107 70.1126 8.83884 65.2512 C 9.72267 59.948 25.6326 13.1021 29.1682 10.8924 C 31.3778 8.90368 34.582 8.13026 39.1119 9.34561 C 42.8684 10.2295 76.6769 19.0684 78.6656 20.8361 C 80.6544 22.6039 82.2012 24.0402 80.6544 27.9072 C 79.5496 29.8959 66.4017 74.532 66.1808 77.4047 C 65.2969 80.4983 62.7558 84.2548 58.5573 84.0338 C 54.3589 83.8128 15.9099 75.4159 12.8163 74.753 z "
     transform="matrix(1.114903,0.000000,0.000000,1.114903,-8.162471,-8.460684)"
     style="font-size:12;fill:#3d4e67;fill-rule:evenodd;stroke-width:1pt;"
     id="path609" />
  <path
     d="M 17.8987 70.9965 C 15.3576 70.3336 11.7114 69.6706 13.0373 65.6932 C 15.468 55.9705 27.8424 18.6264 33.1456 13.986 C 34.361 12.8811 38.4489 12.4392 46.1829 14.8699 C 55.0218 17.5215 72.9204 23.4877 74.6882 24.3716 C 76.4559 25.2555 77.1189 25.2555 75.793 29.233 C 73.8043 33.2105 64.9655 67.24 62.7557 72.9852 C 61.209 77.0732 60.8775 78.9514 58.2258 78.9514 "
     transform="matrix(1.114903,0.000000,0.000000,1.114903,-8.162471,-8.460684)"
     style="font-size:12;fill:#ffffff;fill-rule:evenodd;stroke-width:1pt;"
     id="path608" />
  <path
     d="M 28.75 13.75 C 28.75 13.75 31.875 7.49995 39.6875 9.37495 C 47.5 11.25 78.125 19.375 77.8125 21.875 C 77.5 24.375 71.875 39.0625 71.5625 40.3125 C 71.25 41.5625 42.5 40.9375 31.5625 47.5 C 20.625 54.0625 12.5 59.6875 12.5 59.6875 C 12.5 59.6875 23.75 24.6875 28.75 13.75 z "
     transform="matrix(0.946780,0.000000,0.000000,0.946780,-0.480566,0.409517)"
     style="font-size:12;fill:url(#linearGradient615);fill-rule:evenodd;stroke-width:1pt;"
     id="path636" />
  <path
     d="M 61.090288,22.980456 C 60.924121,23.285160 60.635940,23.493390 60.225551,23.605091 C 59.850067,23.718015 59.487355,23.724561 59.137417,23.624730 C 58.697951,23.499358 58.437360,23.178561 58.355808,22.662489 C 58.323022,22.221891 58.294372,21.782473 58.269787,21.344111 C 56.267667,20.772943 54.483183,20.857956 52.916334,21.599148 C 51.858611,22.098327 51.099708,22.783936 50.639721,23.656002 C 50.525853,23.869972 50.439894,24.078699 50.381844,24.282180 C 50.203059,24.908876 50.260862,25.462265 50.555184,25.942222 C 50.857653,26.424607 51.358839,26.765582 52.058812,26.965271 C 53.450487,27.362290 55.344267,27.202908 57.739986,26.486975 C 58.089930,26.463579 58.362569,26.479693 58.557877,26.535410 C 58.997343,26.660782 59.154487,26.943228 59.029088,27.382791 C 58.861908,27.968810 58.455142,28.345574 57.808832,28.513302 C 56.808071,28.905400 55.681025,29.138347 54.427792,29.212172 C 53.147856,29.287010 51.999218,29.179367 50.981907,28.889147 C 49.484356,28.461924 48.508053,27.672918 48.052970,26.522225 C 47.644525,25.516800 47.580789,24.521635 47.861737,23.536827 C 47.980140,23.121786 48.164271,22.707818 48.414006,22.294991 C 49.508422,20.433305 51.238987,19.272425 53.605826,18.812282 C 55.629604,18.412645 57.761785,18.558891 60.002301,19.250896 C 60.737199,19.574937 61.186685,19.989242 61.350785,20.493715 C 61.487035,20.911003 61.455279,21.531184 61.255680,22.354410 C 61.229035,22.602000 61.173845,22.810768 61.090288,22.980456 z M 44.208431,14.824334 C 45.885038,15.302639 47.038583,16.071808 47.669066,17.131841 C 48.310055,18.186032 48.489707,19.623465 48.207927,21.444112 C 47.521775,23.756699 46.029590,25.100077 43.731397,25.474150 C 41.845811,25.789982 39.258456,25.465529 35.969138,24.500734 C 35.536657,24.289276 35.283108,24.128968 35.208711,24.019769 C 35.126071,23.908114 35.064965,23.613445 35.025201,23.135708 C 35.763576,20.547473 36.683369,18.248817 37.784663,16.239452 C 37.834629,16.156892 37.872382,16.070848 37.897923,15.981320 C 37.930432,15.867366 37.947788,15.713942 37.950114,15.520977 C 37.946503,15.317479 37.956363,15.175018 37.979572,15.093664 C 38.081735,14.735552 38.425778,14.486064 39.011605,14.345172 C 41.051826,14.258244 42.784156,14.418015 44.208431,14.824334 z M 38.616177,19.711056 C 38.332801,20.395993 38.120211,20.986632 37.978599,21.483027 C 37.850896,21.930667 37.780153,22.302215 37.766329,22.597449 C 38.188417,22.753115 38.627286,22.895891 39.083100,23.025926 C 40.629502,23.467086 41.933325,23.632207 42.994665,23.521317 C 44.528065,23.360307 45.482836,22.620555 45.858979,21.302060 C 46.184798,19.141868 45.163491,17.723988 42.795086,17.048326 C 41.973082,16.813824 41.053424,16.705471 40.036208,16.723296 C 39.511085,17.700111 39.037728,18.695958 38.616177,19.711056 z "
     style="font-size:13.000000;font-weight:bold;fill:#3d4e67;stroke-width:1.0000000pt;font-family:Kid Kosmic"
     id="path676" />
  <path
     style="fill:#000000;fill-opacity:0.29999998;fill-rule:evenodd;stroke:none;stroke-width:1.0000000pt;stroke-linecap:butt;stroke-linejoin:miter;stroke-opacity:1.0000000"
     d="M 17.539164,62.886908 L 16.885401,66.482602 L 19.337010,65.501958 L 18.846689,68.934211 L 40.420851,74.491193 L 39.603648,69.261093 L 41.238054,71.058940 L 42.545579,69.097652 L 42.382139,73.673990 L 60.687489,65.501958 L 61.341249,57.983690 L 61.995009,58.147130 C 61.995009,58.147130 61.995009,52.917030 61.995009,52.753590 C 61.995009,52.590149 45.650951,46.215965 45.650951,46.215965 L 18.356367,56.839605"
     id="path593" />
  <path
     style="fill:#000000;fill-opacity:1.0000000;fill-rule:evenodd;stroke:none;stroke-width:1.0000000pt;stroke-linecap:butt;stroke-linejoin:miter;stroke-opacity:1.0000000"
     d="M 17.866045,53.734233 C 17.539164,56.676165 15.250995,57.820249 15.741317,64.521315 C 19.990773,64.684755 22.932704,61.415943 22.932704,61.415943 C 21.897563,60.053920 19.881814,57.057543 18.356367,54.878318"
     id="path592"
     sodipodi:nodetypes="cccc" />
  <path
     style="fill:url(#linearGradient1175);fill-opacity:1.0000000;fill-rule:evenodd;stroke:none;stroke-width:1.0000000pt;stroke-linecap:butt;stroke-linejoin:miter;stroke-opacity:1.0000000"
     d="M 19.173570,56.839605 C 17.212282,58.365068 16.721960,61.198004 17.212282,63.377230 C 19.119088,62.560027 21.025914,61.742824 22.932704,60.925621 C 21.352796,59.890479 20.099732,58.691950 19.173570,56.839605 z "
     id="path590"
     sodipodi:nodetypes="cccc" />
  <path
     style="fill:#000000;fill-opacity:1.0000000;fill-rule:evenodd;stroke:none;stroke-width:1.0000000pt;stroke-linecap:butt;stroke-linejoin:miter;stroke-opacity:1.0000000"
     d="M 16.231639,49.484777 C 17.048842,52.917030 18.356367,57.329927 19.173570,60.762180 C 26.092574,62.396586 34.482491,65.665399 41.401495,67.299805 C 47.830177,63.922050 54.749129,59.236717 61.177809,55.858961 C 61.559189,53.298409 61.940519,50.084042 62.321899,47.523490 C 63.792859,46.379405 44.833748,35.428883 36.988598,38.207374 C 34.373548,39.024577 19.173570,47.686930 16.231639,49.484777 z "
     id="path589"
     sodipodi:nodetypes="ccccccc" />
  <path
     style="fill:url(#linearGradient1174);fill-opacity:1.0000000;fill-rule:evenodd;stroke:none;stroke-width:1.0000000pt;stroke-linecap:butt;stroke-linejoin:miter;stroke-opacity:1.0000000"
     d="M 41.891817,57.003046 C 41.728376,56.839605 18.846689,50.628861 18.846689,50.628861 C 25.329816,47.251106 31.812996,43.873298 38.296123,40.495543 C 46.141273,41.040362 53.005779,44.200179 59.379959,48.013811 C 53.550599,51.010240 47.721182,54.006617 41.891817,57.003046 z "
     id="path567"
     sodipodi:nodetypes="ccccc" />
  <path
     style="fill:#000000;fill-opacity:1.0000000;fill-rule:evenodd;stroke:none;stroke-width:1.0000000pt;stroke-linecap:butt;stroke-linejoin:miter;stroke-opacity:1.0000000"
     d="M 28.653126,47.033168 C 28.653126,47.795873 28.653126,48.558631 28.653126,49.321336 C 33.066023,50.574364 37.642360,52.808087 41.891817,55.205199 C 45.269572,52.372211 48.483939,51.173681 52.025139,49.484777 C 52.079629,48.558631 52.134079,47.632433 52.188579,46.706286 C 47.775679,45.071880 43.362782,43.437474 38.949885,41.803068 C 35.354192,42.729214 31.758498,44.472615 28.653126,47.033168 z "
     id="path566"
     sodipodi:nodetypes="ccccccc" />
  <path
     style="fill:url(#radialGradient1173);fill-opacity:1.0000000;fill-rule:evenodd;stroke:none;stroke-width:1.0000000pt;stroke-linecap:butt;stroke-linejoin:miter;stroke-opacity:1.0000000"
     d="M 30.124092,47.360049 C 34.101164,48.939958 38.078185,50.519918 42.055257,52.099827 C 45.106132,50.519918 48.157058,48.939958 51.207932,47.360049 C 47.121917,45.834586 43.035901,44.309175 38.949885,42.783711 C 36.007954,43.491972 33.229464,45.017383 30.124092,47.360049 z "
     id="path556"
     sodipodi:nodetypes="ccccc" />
  <path
     style="fill:url(#linearGradient1172);fill-opacity:1.0000000;fill-rule:evenodd;stroke:none;stroke-width:1.0000000pt;stroke-linecap:butt;stroke-linejoin:miter;stroke-opacity:1.0000000"
     d="M 41.891817,52.426708 L 41.401495,53.734233 L 29.470329,48.667574 L 29.633770,47.360049 L 41.891817,52.426708 z "
     id="path562"
     sodipodi:nodetypes="ccccc" />
  <path
     style="fill:url(#linearGradient1171);fill-opacity:1.0000000;fill-rule:evenodd;stroke:none;stroke-width:1.0000000pt;stroke-linecap:butt;stroke-linejoin:miter;stroke-opacity:1.0000000"
     d="M 42.055257,52.590149 L 41.891817,53.734233 L 51.207932,48.831015 L 51.207932,47.686930 L 42.055257,52.590149 z "
     id="path564"
     sodipodi:nodetypes="ccccc" />
  <path
     style="fill:url(#linearGradient1170);fill-opacity:1.0000000;fill-rule:evenodd;stroke:none;stroke-width:1.0000000pt;stroke-linecap:butt;stroke-linejoin:miter;stroke-opacity:1.0000000"
     d="M 41.401495,57.493368 L 41.401495,64.357874 L 20.971417,58.800893 L 19.010129,50.955743 L 41.401495,57.493368 z "
     id="path580"
     sodipodi:nodetypes="ccccc" />
  <path
     style="fill:#000000;fill-opacity:1.0000000;fill-rule:evenodd;stroke:none;stroke-width:1.0000000pt;stroke-linecap:butt;stroke-linejoin:miter;stroke-opacity:1.0000000"
     d="M 39.276767,59.454655 C 37.478920,61.579383 37.315479,66.646043 37.805801,71.549261 C 34.536989,70.568618 20.971417,66.972924 20.971417,66.972924 C 21.189355,62.832411 20.753478,58.528509 23.096145,54.551436 C 27.944866,56.131345 33.610842,57.547865 39.276767,59.454655 z "
     id="path574"
     sodipodi:nodetypes="ccccc" />
  <path
     style="fill:url(#linearGradient1169);fill-opacity:1.0000000;fill-rule:evenodd;stroke:none;stroke-width:1.0000000pt;stroke-linecap:butt;stroke-linejoin:miter;stroke-opacity:1.0000000"
     d="M 24.076789,56.022402 L 37.315479,59.781536 C 36.280338,63.159292 35.899011,66.537100 36.171395,69.914855 C 36.171395,69.914855 22.442382,65.828840 22.278942,65.828840 C 21.788620,63.377230 22.442382,57.493368 24.076789,56.022402 z "
     id="path572"
     sodipodi:nodetypes="ccccc" />
  <path
     style="fill:none;fill-opacity:1.0000000;fill-rule:evenodd;stroke:#000000;stroke-width:1.3729012;stroke-linecap:butt;stroke-linejoin:miter;stroke-opacity:1.0000000"
     d="M 27.672482,56.839605 C 27.672482,56.839605 24.403670,64.521315 26.364957,67.953568"
     id="path575" />
  <path
     style="fill:none;fill-opacity:1.0000000;fill-rule:evenodd;stroke:#000000;stroke-width:1.3075250;stroke-linecap:butt;stroke-linejoin:miter;stroke-opacity:1.0000000"
     d="M 33.556345,58.147130 C 33.392904,58.310571 30.614414,63.540671 31.921939,68.934211"
     id="path576"
     sodipodi:nodetypes="cc" />
  <path
     style="fill:url(#linearGradient1168);fill-opacity:1.0000000;fill-rule:evenodd;stroke:none;stroke-width:1.0000000pt;stroke-linecap:butt;stroke-linejoin:miter;stroke-opacity:1.0000000"
     d="M 42.382139,57.329927 L 42.218698,64.030993 L 59.543409,54.387996 L 60.197169,48.667574 L 42.382139,57.329927 z "
     id="path587"
     sodipodi:nodetypes="ccccc" />
  <path
     style="fill:#000000;fill-opacity:1.0000000;fill-rule:evenodd;stroke:none;stroke-width:1.0000000pt;stroke-linecap:butt;stroke-linejoin:miter;stroke-opacity:1.0000000"
     d="M 43.853104,58.147130 C 45.487510,61.470440 45.650951,65.284020 44.179985,69.587974 C 46.468154,68.770771 58.235879,63.867552 60.033729,62.886908 C 60.524049,60.598740 61.177809,54.878318 57.908999,51.609505 C 55.784269,52.426708 46.304714,56.512724 43.853104,58.147130 z "
     id="path584"
     sodipodi:nodetypes="ccccc" />
  <path
     style="fill:url(#linearGradient1167);fill-opacity:1.0000000;fill-rule:evenodd;stroke:none;stroke-width:1.0000000pt;stroke-linecap:butt;stroke-linejoin:miter;stroke-opacity:1.0000000"
     d="M 45.487510,58.800893 C 46.795035,61.089061 46.468154,64.684755 45.977832,67.299805 C 48.266001,66.972924 57.582119,62.723468 58.889639,62.069705 C 59.379959,59.291215 59.379959,54.714877 57.091799,53.407352 C 56.274589,54.061115 47.775679,57.493368 45.487510,58.800893 z "
     id="path582"
     sodipodi:nodetypes="ccccc" />
  <path
     style="fill:none;fill-opacity:1.0000000;fill-rule:evenodd;stroke:#000000;stroke-width:1.0460200;stroke-linecap:butt;stroke-linejoin:miter;stroke-opacity:1.0000000"
     d="M 49.083204,57.003046 C 49.083204,57.003046 51.207932,62.233146 49.900407,66.155721"
     id="path585"
     sodipodi:nodetypes="cc" />
  <path
     style="fill:none;fill-opacity:1.0000000;fill-rule:evenodd;stroke:#000000;stroke-width:1.0460200;stroke-linecap:butt;stroke-linejoin:miter;stroke-opacity:1.0000000"
     d="M 54.313309,54.551436 C 54.313309,54.551436 57.091799,58.637452 55.457389,63.867552"
     id="path586"
     sodipodi:nodetypes="cc" />
</svg>
