<?xml version="1.0" encoding="UTF-8" standalone="no"?>
<!-- Created with Sodipodi ("http://www.sodipodi.com/") -->
<svg
   xmlns:dc="http://purl.org/dc/elements/1.1/"
   xmlns:cc="http://creativecommons.org/ns#"
   xmlns:rdf="http://www.w3.org/1999/02/22-rdf-syntax-ns#"
   xmlns:svg="http://www.w3.org/2000/svg"
   xmlns="http://www.w3.org/2000/svg"
   xmlns:xlink="http://www.w3.org/1999/xlink"
   xmlns:sodipodi="http://sodipodi.sourceforge.net/DTD/sodipodi-0.dtd"
   xmlns:inkscape="http://www.inkscape.org/namespaces/inkscape"
   version="1.0"
   x="0"
   y="0"
   width="90.0000000"
   height="90.0000000"
   id="svg604"
   sodipodi:version="0.32"
   sodipodi:docname="application-x-mathematica.svg"
   sodipodi:docbase="/home/zeus/.icons/gartoon/scalable/mimetypes"
   inkscape:version="0.46+devel"
   inkscape:output_extension="org.inkscape.output.svg.inkscape">
  <metadata
     id="metadata13">
    <rdf:RDF>
      <cc:Work
         rdf:about="">
        <dc:format>image/svg+xml</dc:format>
        <dc:type
           rdf:resource="http://purl.org/dc/dcmitype/StillImage" />
      </cc:Work>
    </rdf:RDF>
  </metadata>
  <sodipodi:namedview
     id="base"
     inkscape:zoom="3.5649967"
     inkscape:cx="48.126545"
     inkscape:cy="41.567122"
     inkscape:window-width="691"
     inkscape:window-height="724"
     inkscape:window-x="271"
     inkscape:window-y="1"
     inkscape:current-layer="svg604"
     showgrid="false" />
  <defs
     id="defs606">
    <linearGradient
       inkscape:collect="always"
       id="linearGradient3345">
      <stop
         style="stop-color:#ed0000;stop-opacity:1"
         offset="0"
         id="stop3347" />
      <stop
         style="stop-color:#f1e36c;stop-opacity:1"
         offset="1"
         id="stop3349" />
    </linearGradient>
    <linearGradient
       inkscape:collect="always"
       id="linearGradient3337">
      <stop
         style="stop-color:#ed0000;stop-opacity:1"
         offset="0"
         id="stop3339" />
      <stop
         style="stop-color:#f1e36c;stop-opacity:1"
         offset="1"
         id="stop3341" />
    </linearGradient>
    <linearGradient
       inkscape:collect="always"
       id="linearGradient3321">
      <stop
         style="stop-color:#ed0000;stop-opacity:1"
         offset="0"
         id="stop3323" />
      <stop
         style="stop-color:#f1e36c;stop-opacity:1"
         offset="1"
         id="stop3325" />
    </linearGradient>
    <linearGradient
       inkscape:collect="always"
       id="linearGradient3313">
      <stop
         style="stop-color:#ed0000;stop-opacity:1"
         offset="0"
         id="stop3315" />
      <stop
         style="stop-color:#f1e36c;stop-opacity:1"
         offset="1"
         id="stop3317" />
    </linearGradient>
    <linearGradient
       inkscape:collect="always"
       id="linearGradient3303">
      <stop
         style="stop-color:#ed0000;stop-opacity:1"
         offset="0"
         id="stop3305" />
      <stop
         style="stop-color:#f1e36c;stop-opacity:1"
         offset="1"
         id="stop3307" />
    </linearGradient>
    <linearGradient
       inkscape:collect="always"
       id="linearGradient3293">
      <stop
         style="stop-color:#ed0000;stop-opacity:1"
         offset="0"
         id="stop3295" />
      <stop
         style="stop-color:#f1e36c;stop-opacity:1"
         offset="1"
         id="stop3297" />
    </linearGradient>
    <inkscape:perspective
       sodipodi:type="inkscape:persp3d"
       inkscape:vp_x="0 : 45 : 1"
       inkscape:vp_y="0 : 1000 : 0"
       inkscape:vp_z="90 : 45 : 1"
       inkscape:persp3d-origin="45 : 30 : 1"
       id="perspective14" />
    <linearGradient
       id="linearGradient612">
      <stop
         style="stop-color:#7fa8e3;stop-opacity:0.7412;"
         offset="0"
         id="stop613" />
      <stop
         style="stop-color:#ffffff;stop-opacity:0;"
         offset="1"
         id="stop614" />
    </linearGradient>
    <linearGradient
       x1="50.64389"
       y1="5.367929"
       x2="35.75209"
       y2="68.04436"
       id="linearGradient615"
       xlink:href="#linearGradient612"
       gradientUnits="userSpaceOnUse"
       spreadMethod="pad" />
    <inkscape:perspective
       id="perspective2490"
       inkscape:persp3d-origin="0.5 : 0.33333333 : 1"
       inkscape:vp_z="1 : 0.5 : 1"
       inkscape:vp_y="0 : 1000 : 0"
       inkscape:vp_x="0 : 0.5 : 1"
       sodipodi:type="inkscape:persp3d" />
    <inkscape:perspective
       id="perspective2503"
       inkscape:persp3d-origin="0.5 : 0.33333333 : 1"
       inkscape:vp_z="1 : 0.5 : 1"
       inkscape:vp_y="0 : 1000 : 0"
       inkscape:vp_x="0 : 0.5 : 1"
       sodipodi:type="inkscape:persp3d" />
    <linearGradient
       inkscape:collect="always"
       xlink:href="#linearGradient612"
       id="linearGradient3409"
       gradientUnits="userSpaceOnUse"
       spreadMethod="pad"
       x1="50.64389"
       y1="5.367929"
       x2="35.75209"
       y2="68.04436"
       gradientTransform="matrix(0.94678,0,0,0.94678,-0.480566,0.409517)" />
    <radialGradient
       inkscape:collect="always"
       xlink:href="#linearGradient3303"
       id="radialGradient3470"
       gradientUnits="userSpaceOnUse"
       gradientTransform="matrix(0.9647252,0.1410994,-0.2348271,1.6055609,10.413839,-27.958318)"
       cx="49.923401"
       cy="36.84753"
       fx="49.923401"
       fy="36.84753"
       r="11.927984" />
    <radialGradient
       inkscape:collect="always"
       xlink:href="#linearGradient3337"
       id="radialGradient3472"
       gradientUnits="userSpaceOnUse"
       gradientTransform="matrix(-0.3983671,-1.763749,0.9941241,-0.2245367,2.2924891,93.351737)"
       cx="26.817785"
       cy="34.448589"
       fx="26.817785"
       fy="34.448589"
       r="11.970334" />
    <radialGradient
       inkscape:collect="always"
       xlink:href="#linearGradient3321"
       id="radialGradient3474"
       gradientUnits="userSpaceOnUse"
       gradientTransform="matrix(0.9718838,-0.2244259,0.1527511,0.6614935,-3.1368477,14.939921)"
       cx="37.475998"
       cy="33.214912"
       fx="37.475998"
       fy="33.214912"
       r="19.424983" />
    <radialGradient
       inkscape:collect="always"
       xlink:href="#linearGradient3313"
       id="radialGradient3476"
       gradientUnits="userSpaceOnUse"
       gradientTransform="matrix(0.903734,-0.1419479,0.2185149,1.3912087,-7.371685,-14.603978)"
       cx="44.880829"
       cy="53.507492"
       fx="44.880829"
       fy="53.507492"
       r="11.640964" />
    <radialGradient
       inkscape:collect="always"
       xlink:href="#linearGradient3345"
       id="radialGradient3478"
       gradientUnits="userSpaceOnUse"
       gradientTransform="matrix(-0.8378137,1.0192815,-1.1266938,-0.926103,113.76166,67.43163)"
       cx="30.500353"
       cy="51.21862"
       fx="30.500353"
       fy="51.21862"
       r="6.5171603" />
    <radialGradient
       inkscape:collect="always"
       xlink:href="#linearGradient3293"
       id="radialGradient3480"
       gradientUnits="userSpaceOnUse"
       gradientTransform="matrix(0.7054144,-2.267242e-2,2.5524397e-2,0.7941489,9.3870455,9.9565397)"
       cx="38.232853"
       cy="42.719536"
       fx="38.232853"
       fy="42.719536"
       r="20.476877" />
    <radialGradient
       inkscape:collect="always"
       xlink:href="#linearGradient3303"
       id="radialGradient3492"
       gradientUnits="userSpaceOnUse"
       gradientTransform="matrix(0.9647252,0.1410994,-0.2348271,1.6055609,10.413839,-27.958318)"
       cx="49.923401"
       cy="36.84753"
       fx="49.923401"
       fy="36.84753"
       r="11.927984" />
    <radialGradient
       inkscape:collect="always"
       xlink:href="#linearGradient3337"
       id="radialGradient3494"
       gradientUnits="userSpaceOnUse"
       gradientTransform="matrix(-0.3983671,-1.763749,0.9941241,-0.2245367,2.2924891,93.351737)"
       cx="26.817785"
       cy="34.448589"
       fx="26.817785"
       fy="34.448589"
       r="11.970334" />
    <radialGradient
       inkscape:collect="always"
       xlink:href="#linearGradient3321"
       id="radialGradient3496"
       gradientUnits="userSpaceOnUse"
       gradientTransform="matrix(0.8031993,-0.2537184,0.1808849,0.5726295,2.2503054,18.989301)"
       cx="37.475998"
       cy="33.214912"
       fx="37.475998"
       fy="33.214912"
       r="19.424983" />
    <radialGradient
       inkscape:collect="always"
       xlink:href="#linearGradient3313"
       id="radialGradient3498"
       gradientUnits="userSpaceOnUse"
       gradientTransform="matrix(0.903734,-0.1419479,0.2185149,1.3912087,-7.371685,-14.603978)"
       cx="44.880829"
       cy="53.507492"
       fx="44.880829"
       fy="53.507492"
       r="11.640964" />
    <radialGradient
       inkscape:collect="always"
       xlink:href="#linearGradient3345"
       id="radialGradient3500"
       gradientUnits="userSpaceOnUse"
       gradientTransform="matrix(-0.8378137,1.0192815,-1.1266938,-0.926103,113.76166,67.43163)"
       cx="30.500353"
       cy="51.21862"
       fx="30.500353"
       fy="51.21862"
       r="6.5171603" />
    <radialGradient
       inkscape:collect="always"
       xlink:href="#linearGradient3293"
       id="radialGradient3502"
       gradientUnits="userSpaceOnUse"
       gradientTransform="matrix(0.5904702,1.8255186e-2,-2.1004961e-2,0.6794127,15.921261,13.115908)"
       cx="35.849491"
       cy="43.044579"
       fx="35.206711"
       fy="43.638855"
       r="20.476877" />
  </defs>
  <path
     d="M 12.81630 74.75300 C 10.38560 73.64810 7.071070 70.11260 8.838840 65.25120 C 9.722670 59.94800 25.63260 13.10210 29.16820 10.89240 C 31.37780 8.903680 34.58200 8.130260 39.11190 9.345610 C 42.86840 10.22950 76.67690 19.06840 78.66560 20.83610 C 80.65440 22.60390 82.20120 24.04020 80.65440 27.90720 C 79.54960 29.89590 66.40170 74.53200 66.18080 77.40470 C 65.29690 80.49830 62.75580 84.25480 58.55730 84.03380 C 54.35890 83.81280 15.90990 75.41590 12.81630 74.75300 z "
     transform="matrix(1.114903,0,0,1.114903,-5.305332,-3.889256)"
     style="font-size:12.000;fill-opacity:0.301471;fill-rule:evenodd;stroke-width:1;"
     id="path794" />
  <path
     d="M 12.81630 74.75300 C 10.38560 73.64810 7.071070 70.11260 8.838840 65.25120 C 9.722670 59.94800 25.63260 13.10210 29.16820 10.89240 C 31.37780 8.903680 34.58200 8.130260 39.11190 9.345610 C 42.86840 10.22950 76.67690 19.06840 78.66560 20.83610 C 80.65440 22.60390 82.20120 24.04020 80.65440 27.90720 C 79.54960 29.89590 66.40170 74.53200 66.18080 77.40470 C 65.29690 80.49830 62.75580 84.25480 58.55730 84.03380 C 54.35890 83.81280 15.90990 75.41590 12.81630 74.75300 z "
     transform="matrix(1.114903,0,0,1.114903,-8.162471,-8.460684)"
     style="font-size:12.000;fill:#3d4e67;fill-rule:evenodd;stroke-width:1;"
     id="path609" />
  <path
     d="M 17.89870 70.99650 C 15.35760 70.33360 11.71140 69.67060 13.03730 65.69320 C 15.46800 55.97050 27.84240 18.62640 33.14560 13.98600 C 34.36100 12.88110 38.44890 12.43920 46.18290 14.86990 C 55.02180 17.52150 72.92040 23.48770 74.68820 24.37160 C 76.45590 25.25550 77.11890 25.25550 75.79300 29.23300 C 73.80430 33.21050 64.96550 67.24000 62.75570 72.98520 C 61.20900 77.07320 60.87750 78.95140 58.22580 78.95140 "
     transform="matrix(1.114903,0,0,1.114903,-8.162471,-8.460684)"
     style="font-size:12.000;fill:#ffffff;fill-rule:evenodd;stroke-width:1;"
     id="path608" />
  <path
     d="m 26.739359,13.427742 c 0,0 2.958688,-5.9174223 10.355406,-4.1422098 7.396719,1.7752598 36.391856,9.4678468 36.095988,11.8347978 -0.295869,2.366949 -5.621507,16.272781 -5.917375,17.456256 -0.295869,1.183475 -27.515794,0.591737 -37.8712,6.804981 -10.355407,6.213244 -18.047994,11.538881 -18.047994,11.538881 0,0 10.651275,-33.1373 15.385175,-43.492706 z"
     style="font-size:12px;fill:url(#linearGradient3409);fill-rule:evenodd;stroke-width:1"
     id="path636" />
  <g
     id="g3482"
     transform="matrix(0.8475833,0,0,0.8475833,12.383349,8.0226837)">
    <path
       transform="matrix(0.8441988,0,0,0.8441988,-0.3360021,7.5522968)"
       d="m 44.28125,1.46875 c -2.262321,0.0813402 -4.198553,1.6481597 -4.75,3.84375 -1.233946,4.877027 -3.36835,8.044223 -4.28125,8.5625 -0.45645,0.259138 -0.585652,0.371446 -1.625,0.0625 -0.996253,-0.296136 -2.791053,-1.288158 -5.03125,-3.34375 -0.449609,-0.5939945 -0.903218,-1.2060676 -1.46875,-1.90625 -0.810151,-1.0046901 -1.971968,-1.6637979 -3.25,-1.84375 -0.041533,-0.0109441 -0.083203,-0.0213616 -0.125,-0.03125 -2.042405,-0.4835167 -4.172061,0.3372479 -5.361712,2.0663918 -1.189651,1.7291442 -1.194929,4.0114812 -0.013288,5.7461082 0.364029,0.534899 0.732918,1.048485 1.09375,1.59375 0.693724,1.788959 1.099022,3.494217 1.3125,4.6875 0.003573,0.019974 -0.003482,0.011524 0,0.03125 -0.231055,0.340486 -0.419936,0.707754 -0.5625,1.09375 -1.108867,-0.119315 -2.644754,-0.412043 -4.9375,-1.21875 -2.348543,-0.851613 -4.967869,0.128531 -6.1804316,2.312699 -1.2125629,2.184167 -0.6593085,4.925601 1.3054316,6.468551 3.59637,2.877097 5.390256,5.622551 5.40625,6.0625 0.007997,0.219974 0.08128,0.521132 -1.09375,1.71875 -1.17503,1.197618 -3.63903,2.934534 -7.71875,4.8125 -2.2553545,1.033229 -3.43623,3.542859 -2.7946247,5.939216 0.6416053,2.396357 2.9184763,3.980204 5.3883747,3.748284 0.839084,-0.075142 1.253099,-0.115302 1.96875,-0.1875 1.004314,1.083234 2.429967,1.676306 3.90625,1.625 0.041665,0.000512 0.083335,0.000512 0.125,0 0.177507,-0.001139 0.354833,-0.01157 0.53125,-0.03125 1.346678,-0.106316 2.368607,-0.101666 3.53125,-0.15625 0.004843,0.51845 -0.301043,2.151415 -2.1875,5.4375 -1.243411,2.167225 -0.728436,4.916658 1.215025,6.486974 1.943461,1.570316 4.739728,1.496367 6.597475,-0.174474 1.724007,-1.557167 2.488856,-1.893497 3.15625,-2.03125 0.087702,-0.018102 0.45553,0.073644 0.5625,0.0625 0.038931,1.12269 0.18301,1.939607 0.125,3.3125 -0.083038,1.917109 0.920005,3.717752 2.59375,4.65625 0.030161,0.699889 0.04172,0.914083 0.09375,1.78125 0.168368,2.390138 1.982135,4.338594 4.354115,4.677448 2.371979,0.338855 4.658763,-1.023809 5.489635,-3.271198 2.252584,-6.211669 4.782375,-9.973522 5.28125,-10.25 0.249438,-0.138239 0.066614,-0.261834 1.28125,0.21875 1.214636,0.480584 3.451284,1.923588 6.34375,4.6875 1.725009,1.648929 4.364482,1.876794 6.346566,0.547897 1.982084,-1.328897 2.773703,-3.857154 1.903434,-6.079147 -1.637338,-4.184307 -1.97599,-5.834838 -2.0625,-6.5 0.247565,-0.004985 0.535324,-0.183897 0.84375,-0.15625 1.231756,0.110414 3.380553,0.670552 7.0625,2.15625 2.385951,0.962682 5.115033,-0.008075 6.357072,-2.261263 1.24204,-2.253187 0.605789,-5.079039 -1.482072,-6.582487 -3.737218,-2.688174 -6.62035,-6.051483 -6.84375,-7.09375 -0.1117,-0.521133 -0.26581,-0.581669 0.59375,-1.65625 0.85956,-1.074581 3.06502,-2.815885 7.09375,-4.6875 2.248445,-1.004471 3.45423,-3.475512 2.862386,-5.865948 -0.591844,-2.390437 -2.811267,-4.013437 -5.268636,-3.852802 -2.657062,0.13626 -5.083467,0.209386 -6.8125,0.03125 -1.620609,-0.166965 -2.298767,-0.581491 -2.3125,-0.5625 0.025993,-0.080407 0.030613,-0.080797 0.09375,-0.5 0.190202,-1.262863 1.165118,-3.981912 3.4375,-7.8125 1.29236,-2.189921 0.76874,-4.997804 -1.226068,-6.574727 -1.994808,-1.5769235 -4.847728,-1.4382416 -6.680182,0.324727 -0.111986,0.107507 -0.108783,0.108618 -0.1875,0.1875 -2.464411,1.720234 -4.575021,2.956583 -5.96875,3.5 -1.430431,0.557727 -1.790464,0.318935 -1.5,0.4375 0.290464,0.118565 0.124655,0.370665 -0.34375,-1.0625 -0.468405,-1.433165 -0.873674,-4.183365 -0.90625,-8.125 -0.005342,-1.379334 -0.570696,-2.6973431 -1.566443,-3.6518469 -0.995748,-0.9545037 -2.33648,-1.4636306 -3.714807,-1.4106531 z"
       id="path3466"
       style="color:#000000;fill:#b01911;fill-opacity:1;fill-rule:evenodd;stroke:none;stroke-width:4.45300007;marker:none;marker-start:none;marker-mid:none;marker-end:none;visibility:visible;display:inline;overflow:visible;enable-background:accumulate"
       inkscape:original="M 44.46875 6.5625 C 41.707529 17.475904 35.848579 24.443794 24.84375 14.0625 C 24.304145 13.35293 23.757029 12.618821 23.15625 11.875 C 23.296307 12.183949 23.429524 12.47599 23.5625 12.78125 C 23.238274 12.447783 22.9265 12.11266 22.59375 11.75 C 23.100368 12.494418 23.555041 13.189024 24.03125 13.90625 C 25.810884 18.230452 26.735081 22.065953 25.90625 24.5 C 25.594749 24.265557 25.286685 24.057065 24.96875 23.8125 C 25.232642 24.246038 25.451314 24.620507 25.6875 25.03125 C 25.644376 25.118106 25.580051 25.198949 25.53125 25.28125 C 25.291531 25.161265 25.074411 25.078529 24.8125 24.9375 C 24.988345 25.071698 25.242338 25.284621 25.4375 25.4375 C 24.009595 27.5999 20.438798 28.033443 13.59375 25.625 C 21.307642 31.796115 26.796826 38.67785 9.125 46.8125 C 18.521923 45.970985 20.049837 45.133193 15.28125 48.21875 C 15.671148 48.039134 16.073232 47.835143 16.46875 47.65625 C 16.200212 47.846779 15.995132 48.022212 15.71875 48.21875 C 18.126499 48.028665 20.411166 47.857096 22.53125 47.90625 C 24.988635 51.072018 26.165263 53.62039 21.875 61.09375 C 25.99513 57.372342 28.525402 57.085538 33.90625 58.375 C 34.229755 60.585303 34.353548 63.247278 34.21875 66.4375 C 34.670237 64.825047 35.183565 63.342211 35.71875 61.96875 C 36.850338 64.937515 36.528343 66.566142 36.875 72.34375 C 41.503336 59.580768 45.439767 52.969528 58.0625 65.03125 C 54.377522 55.614085 55.475443 55.598482 56.3125 52.375 C 56.364624 52.356475 56.417143 52.361865 56.46875 52.34375 C 56.531623 52.370863 56.593107 52.378529 56.65625 52.40625 C 56.635475 52.385475 56.584979 52.334951 56.5625 52.3125 C 60.304318 51.010311 62.787948 50.831651 70.5625 53.96875 C 62.568102 48.218394 54.406672 40.056152 72.21875 31.78125 C 61.279049 32.342261 52.182319 31.799805 62 15.25 C 61.809182 15.433186 61.628434 15.628465 61.4375 15.8125 C 61.421503 15.827919 61.390996 15.828325 61.375 15.84375 C 50.473087 23.516059 44.608751 23.502554 44.46875 6.5625 z "
       inkscape:radius="5.0854397"
       sodipodi:type="inkscape:offset" />
    <g
       transform="matrix(0.8441988,0,0,0.8441988,-0.3360021,7.5522968)"
       id="g3411">
      <path
         style="color:#000000;fill:url(#radialGradient3492);fill-opacity:1;fill-rule:evenodd;stroke:none;stroke-width:4.45300007;marker:none;marker-start:none;marker-mid:none;marker-end:none;visibility:visible;display:inline;overflow:visible;enable-background:accumulate"
         d="m 61.991642,15.245373 c -10.518944,10.098186 -21.458645,21.458645 -5.750356,37.166935 3.927072,-1.402526 6.311366,-1.683031 14.305764,1.542778 -7.994398,-5.750356 -16.129047,-13.885006 1.683031,-22.159908 -10.939702,0.56101 -20.05612,0 -10.238439,-16.549805 z"
         id="path3285" />
      <path
         style="color:#000000;fill:url(#radialGradient3494);fill-opacity:1;fill-rule:evenodd;stroke:none;stroke-width:4.45300007;marker:none;marker-start:none;marker-mid:none;marker-end:none;visibility:visible;display:inline;overflow:visible;enable-background:accumulate"
         d="m 15.287532,48.20473 c 12.48248,-5.750356 28.471274,-10.799449 7.854144,-36.325419 4.768588,10.518944 5.610104,19.074351 -9.537175,13.744753 7.713892,6.171114 13.183743,13.04349 -4.4880831,21.17814 9.3969231,-0.841515 10.9397011,-1.683031 6.1711141,1.402526 z"
         id="path3287" />
      <path
         style="color:#000000;fill:url(#radialGradient3496);fill-opacity:1;fill-rule:evenodd;stroke:none;stroke-width:4.45300006999999987;marker:none;marker-start:none;marker-mid:none;marker-end:none;visibility:visible;display:inline;overflow:visible;enable-background:accumulate"
         d="M 22.580666,11.739058 C 29.453043,21.837244 33.941125,29.831642 24.824707,24.922801 30.154306,28.990126 44.460069,42.454374 61.430632,15.806383 50.49093,23.520275 44.600322,23.520275 44.460069,6.5497126 41.514765,18.190677 35.063146,25.343559 22.580666,11.739058 z"
         id="path3283" />
      <path
         style="color:#000000;fill:url(#radialGradient3498);fill-opacity:1;fill-rule:evenodd;stroke:none;stroke-width:4.45300007;marker:none;marker-start:none;marker-mid:none;marker-end:none;visibility:visible;display:inline;overflow:visible;enable-background:accumulate"
         d="m 58.06457,65.03504 c -3.78682,-9.677428 -2.524547,-9.396923 -1.683031,-12.903238 -5.750356,-2.945304 -15.568037,-8.134649 -21.598898,7.713892 2.244041,4.628336 1.683031,5.469851 2.103789,12.48248 4.628335,-12.762985 8.555407,-19.354856 21.17814,-7.293134 z"
         id="path3289" />
      <path
         style="color:#000000;fill:url(#radialGradient3500);fill-opacity:1;fill-rule:evenodd;stroke:none;stroke-width:4.45300007;marker:none;marker-start:none;marker-mid:none;marker-end:none;visibility:visible;display:inline;overflow:visible;enable-background:accumulate"
         d="m 21.879403,61.107967 c 4.34783,-7.573639 3.085557,-10.098186 0.56101,-13.323995 5.469851,-1.542778 13.604501,3.78682 12.342228,10.799449 -6.030861,-1.542779 -8.555408,-1.402526 -12.903238,2.524546 z"
         id="path3291" />
      <path
         style="color:#000000;fill:url(#radialGradient3502);fill-opacity:1;fill-rule:evenodd;stroke:none;stroke-width:4.45300006999999987;marker:none;marker-start:none;marker-mid:none;marker-end:none;visibility:visible;display:inline;overflow:visible;enable-background:accumulate"
         d="m 34.22163,66.437566 c 0.841516,-19.915867 -7.854144,-19.074351 -18.513341,-18.232836 12.622733,-8.976165 17.110816,-11.500712 9.256671,-24.40395 10.939701,8.415156 17.952331,10.939702 29.172537,0.561011 -12.061722,13.744753 0.280505,25.806475 2.524547,28.050517 -11.500712,-5.049093 -18.513341,0 -22.440414,14.025258 z"
         id="path2509"
         sodipodi:nodetypes="cccccc" />
    </g>
  </g>
</svg>
