<?xml version="1.0" encoding="UTF-8" standalone="no"?>
<!-- Created with Sodipodi ("http://www.sodipodi.com/") -->
<svg
   xmlns:dc="http://purl.org/dc/elements/1.1/"
   xmlns:cc="http://web.resource.org/cc/"
   xmlns:rdf="http://www.w3.org/1999/02/22-rdf-syntax-ns#"
   xmlns:svg="http://www.w3.org/2000/svg"
   xmlns="http://www.w3.org/2000/svg"
   xmlns:xlink="http://www.w3.org/1999/xlink"
   xmlns:sodipodi="http://sodipodi.sourceforge.net/DTD/sodipodi-0.dtd"
   xmlns:inkscape="http://www.inkscape.org/namespaces/inkscape"
   version="1"
   x="0.00000000"
   y="0.00000000"
   width="90.0000000"
   height="90.0000000"
   id="svg604"
   sodipodi:version="0.32"
   sodipodi:docname="application-vnd.rn-realmedia-secure.svg"
   sodipodi:docbase="/home/tweenk/dev/GartoonRedux/scalable/mimetypes"
   inkscape:version="0.45.1"
   inkscape:output_extension="org.inkscape.output.svg.inkscape">
  <metadata
     id="metadata23">
    <rdf:RDF>
      <cc:Work
         rdf:about="">
        <dc:format>image/svg+xml</dc:format>
        <dc:type
           rdf:resource="http://purl.org/dc/dcmitype/StillImage" />
      </cc:Work>
    </rdf:RDF>
  </metadata>
  <sodipodi:namedview
     id="base"
     inkscape:zoom="2.2611111"
     inkscape:cx="71.90735"
     inkscape:cy="43.498371"
     inkscape:window-width="795"
     inkscape:window-height="619"
     inkscape:window-x="114"
     inkscape:window-y="74"
     inkscape:current-layer="svg604" />
  <defs
     id="defs606">
    <linearGradient
       x1="0.00000000"
       y1="0.00000000"
       x2="1.00000000"
       y2="0.00000000"
       id="linearGradient705"
       gradientUnits="objectBoundingBox"
       spreadMethod="pad">
      <stop
         style="stop-color:#7fa8e3;stop-opacity:0.741176;"
         offset="0.00000000"
         id="stop706" />
      <stop
         style="stop-color:#ffffff;stop-opacity:0;"
         offset="1.00000000"
         id="stop707" />
    </linearGradient>
    <linearGradient
       x1="0.00000000"
       y1="0.00000000"
       x2="1.00000000"
       y2="0.00000000"
       id="linearGradient612"
       gradientUnits="objectBoundingBox"
       spreadMethod="pad">
      <stop
         style="stop-color:#ffffff;stop-opacity:1;"
         offset="0.00000000"
         id="stop613" />
      <stop
         style="stop-color:#ffffff;stop-opacity:0;"
         offset="1.00000000"
         id="stop614" />
    </linearGradient>
    <linearGradient
       x1="50.6438866"
       y1="5.36792946"
       x2="35.7520943"
       y2="68.0443573"
       id="linearGradient615"
       xlink:href="#linearGradient705"
       gradientUnits="userSpaceOnUse"
       spreadMethod="pad" />
    <radialGradient
       cx="8.17300129"
       cy="62.0631676"
       fx="8.17300129"
       fy="62.0631676"
       r="4.03522396"
       id="radialGradient704"
       xlink:href="#linearGradient612"
       gradientUnits="userSpaceOnUse"
       gradientTransform="matrix(1.111950,0.000000,0.000000,0.899321,3.428790e-7,-1.512959e-6)"
       spreadMethod="pad" />
    <radialGradient
       cx="0.05366803"
       cy="0.10153580"
       fx="0.05366803"
       fy="0.10153580"
       r="0.75628221"
       id="radialGradient708"
       xlink:href="#linearGradient612"
       gradientUnits="objectBoundingBox"
       spreadMethod="pad" />
  </defs>
  <path
     d="M 12.8163 74.753 C 10.3856 73.6481 7.07107 70.1126 8.83884 65.2512 C 9.72267 59.948 25.6326 13.1021 29.1682 10.8924 C 31.3778 8.90368 34.582 8.13026 39.1119 9.34561 C 42.8684 10.2295 76.6769 19.0684 78.6656 20.8361 C 80.6544 22.6039 82.2012 24.0402 80.6544 27.9072 C 79.5496 29.8959 66.4017 74.532 66.1808 77.4047 C 65.2969 80.4983 62.7558 84.2548 58.5573 84.0338 C 54.3589 83.8128 15.9099 75.4159 12.8163 74.753 z "
     transform="matrix(1.114903,0.000000,0.000000,1.114903,-5.305332,-3.889256)"
     style="font-size:12;fill-opacity:0.301471;fill-rule:evenodd;stroke-width:1pt;"
     id="path794" />
  <path
     d="M 12.8163 74.753 C 10.3856 73.6481 7.07107 70.1126 8.83884 65.2512 C 9.72267 59.948 25.6326 13.1021 29.1682 10.8924 C 31.3778 8.90368 34.582 8.13026 39.1119 9.34561 C 42.8684 10.2295 76.6769 19.0684 78.6656 20.8361 C 80.6544 22.6039 82.2012 24.0402 80.6544 27.9072 C 79.5496 29.8959 66.4017 74.532 66.1808 77.4047 C 65.2969 80.4983 62.7558 84.2548 58.5573 84.0338 C 54.3589 83.8128 15.9099 75.4159 12.8163 74.753 z "
     transform="matrix(1.114903,0.000000,0.000000,1.114903,-8.162471,-8.460684)"
     style="font-size:12;fill:#143c69;fill-rule:evenodd;stroke-width:1pt;"
     id="path609" />
  <path
     d="M 17.8987 70.9965 C 15.3576 70.3336 11.7114 69.6706 13.0373 65.6932 C 15.468 55.9705 27.8424 18.6264 33.1456 13.986 C 34.361 12.8811 38.4489 12.4392 46.1829 14.8699 C 55.0218 17.5215 72.9204 23.4877 74.6882 24.3716 C 76.4559 25.2555 77.1189 25.2555 75.793 29.233 C 73.8043 33.2105 64.9655 67.24 62.7557 72.9852 C 61.209 77.0732 60.8775 78.9514 58.2258 78.9514 "
     transform="matrix(1.114903,0.000000,0.000000,1.114903,-8.162471,-8.460684)"
     style="font-size:12;fill:#ffffff;fill-rule:evenodd;stroke-width:1pt;"
     id="path608" />
  <path
     d="M 28.75 13.75 C 28.75 13.75 31.875 7.49995 39.6875 9.37495 C 47.5 11.25 78.125 19.375 77.8125 21.875 C 77.5 24.375 71.875 39.0625 71.5625 40.3125 C 71.25 41.5625 42.5 40.9375 31.5625 47.5 C 20.625 54.0625 12.5 59.6875 12.5 59.6875 C 12.5 59.6875 23.75 24.6875 28.75 13.75 z "
     transform="matrix(0.946780,0.000000,0.000000,0.946780,-0.480566,0.409517)"
     style="font-size:12;fill:url(#linearGradient615);fill-rule:evenodd;stroke-width:1pt;"
     id="path636" />
  <g
     id="g708"
     transform="matrix(1.312583,0.275531,-0.275531,1.312583,-86.01182,-112.4072)">
    <rect
       style="font-size:12;fill:#000000;fill-rule:evenodd;stroke:none;stroke-width:0.942946pt;fill-opacity:0.301471;"
       id="rect707"
       width="34.471455"
       height="29.168159"
       x="101.986559"
       y="75.721880"
       ry="2.61765289" />
    <rect
       style="font-size:12;fill:#000000;fill-rule:evenodd;stroke:none;stroke-width:0.942946pt;fill-opacity:1;"
       id="rect672"
       width="34.471455"
       height="29.168159"
       x="100.558746"
       y="73.886124"
       ry="2.61765289" />
    <path
       style="fill:#0130ff;fill-rule:evenodd;stroke:none;stroke-opacity:1;stroke-width:1pt;stroke-linejoin:miter;stroke-linecap:butt;fill-opacity:1;"
       d="M 103.618 98.5669 L 102.191 75.9259 L 132.99 75.5179 L 133.194 80.2093 C 131.358 79.1894 107.494 73.2742 105.25 86.1245 C 105.046 94.2835 120.752 93.0596 122.384 93.2636 C 124.016 93.4675 120.548 97.547 120.548 97.751 C 120.548 97.955 132.379 91.8358 132.583 91.8358 C 132.787 91.8358 131.971 96.3231 131.767 98.5668 L 103.618 98.5669 z "
       id="path671"
       sodipodi:nodetypes="cccccccccc" />
    <path
       style="font-size:14;font-style:italic;font-weight:bold;fill:#ffffff;stroke-width:1pt;font-family:Nimbus Sans L;"
       d="M 130.11 79.3361 L 128.5 79.3361 L 126.75 89.3881 L 128.36 89.3881 L 130.11 79.3361 z M 122.522 84.3481 C 122.746 83.5921 123.082 83.3121 123.754 83.3121 C 124.342 83.3121 124.622 83.5221 124.622 83.9701 C 124.622 84.4321 124.398 84.6841 123.936 84.7681 L 122.438 85.0341 C 121.094 85.2721 120.198 86.4481 120.198 87.9741 C 120.198 88.9821 120.786 89.5841 121.766 89.5841 C 122.55 89.5841 123.124 89.2901 123.894 88.5061 C 123.866 88.7721 123.866 88.8701 123.866 88.9821 C 123.866 89.0801 123.866 89.1641 123.88 89.3881 L 125.616 89.3881 L 125.672 89.0941 C 125.518 89.0101 125.448 88.8701 125.448 88.6181 C 125.448 88.4221 125.476 88.1981 125.518 87.9321 L 126.218 83.9001 C 126.246 83.7461 126.26 83.5921 126.26 83.4381 C 126.26 82.3601 125.476 81.7441 124.09 81.7441 C 123.04 81.7441 122.284 82.0521 121.752 82.6961 C 121.402 83.1161 121.22 83.5221 120.982 84.3481 L 122.522 84.3481 z M 124.16 86.7141 C 124.02 87.5261 123.264 88.1841 122.48 88.1841 C 122.088 88.1841 121.85 87.9321 121.85 87.5261 C 121.85 86.7561 122.242 86.3641 123.166 86.1681 C 123.824 86.0421 124.076 85.9441 124.328 85.7621 L 124.16 86.7141 z M 117.902 87.2041 C 117.65 87.7361 117.244 88.0161 116.698 88.0161 C 115.984 88.0161 115.578 87.5541 115.578 86.7421 C 115.578 86.6301 115.592 86.4061 115.62 86.1961 L 119.806 86.1961 L 119.862 85.8461 C 119.946 85.3841 119.988 84.9221 119.988 84.4741 C 119.988 82.7101 119.176 81.7441 117.678 81.7441 C 116.418 81.7441 115.396 82.4301 114.724 83.7321 C 114.262 84.6141 113.996 85.7621 113.996 86.8821 C 113.996 88.6461 114.836 89.5841 116.404 89.5841 C 117.076 89.5841 117.692 89.3881 118.238 88.9821 C 118.812 88.5621 119.134 88.1281 119.554 87.2041 L 117.902 87.2041 z M 115.886 84.9221 C 116.208 83.8301 116.67 83.3541 117.384 83.3541 C 118 83.3541 118.392 83.8161 118.392 84.5581 L 118.378 84.9221 L 115.886 84.9221 z M 109.446 89.3881 L 111.056 89.3881 L 111.728 85.5101 C 111.938 84.3061 112.54 83.7321 113.576 83.7321 C 113.758 83.7321 113.828 83.7321 113.982 83.7601 L 114.332 81.7721 C 114.164 81.7581 114.08 81.7441 114.024 81.7441 C 113.24 81.7441 112.792 82.0941 112.05 83.2701 L 112.288 81.9401 L 110.748 81.9401 L 109.446 89.3881 z "
       id="path706"
       transform="matrix(1.148065,0.000000,0.000000,0.701444,-17.22495,25.92994)" />
  </g>
  <g
     id="g2364"
     transform="matrix(0.4517605,0,0,0.4517605,-8.794699,27.615234)">
    <path
       transform="matrix(3,0,0,3,28.743358,14.301605)"
       d="M 13.6875,1.0625 C 11.815211,1.0610059 10.071976,1.5951981 8.75,2.6875 C 7.4280237,3.7798019 6.6065843,5.4588227 6.59375,7.375 L 6.59375,10.84375 C 6.1890138,11.06895 5.7303381,11.237376 5.40625,11.5625 C 4.9406638,12.029574 4.6599583,12.676237 4.53125,13.375 C 4.5252509,13.407569 4.5049203,13.435845 4.5,13.46875 C 4.4890709,13.489323 4.478651,13.510163 4.46875,13.53125 C 4.4075765,13.690892 4.3758142,13.860291 4.375,14.03125 L 4.40625,23.78125 C 4.4033746,23.833294 4.4033746,23.885456 4.40625,23.9375 C 4.5993342,25.649465 5.277791,27.098984 6.4375,28.03125 C 7.597209,28.963516 9.0786341,29.345906 10.71875,29.5 C 10.760396,29.50184 10.802104,29.50184 10.84375,29.5 L 19.9375,29.5 C 21.623605,29.532908 23.078778,28.936991 24.03125,27.90625 C 24.983722,26.875509 25.377507,25.51897 25.375,24.15625 L 25.375,16.46875 L 25.375,16.25 C 25.387162,16.165603 25.40625,16.121589 25.40625,15.96875 L 25.40625,13.875 C 25.40625,12.537489 24.516057,11.636668 23.4375,10.96875 L 23.4375,7.5 C 23.437501,3.7433833 20.031138,1.097535 16.4375,1.0625 L 13.6875,1.0625 z M 13.65625,7.21875 L 16.375,7.21875 C 17.22378,7.2187501 17.28125,7.9430555 17.28125,7.5 L 17.28125,9.8125 L 12.75,9.8125 L 12.75,7.375 C 12.75,7.8179961 12.727893,7.2187501 13.65625,7.21875 z "
       id="path3240"
       style="font-size:12px;fill:#593a28;fill-rule:evenodd"
       inkscape:original="M 13.6875 2.46875 C 10.481183 2.4661913 8.0206471 4.2923732 8 7.375 L 8 11.625 C 6.690965 12.088687 5.8125 12.91445 5.8125 13.875 L 5.8125 14.03125 L 5.78125 14.03125 L 5.8125 23.78125 C 6.1416031 26.699215 7.8611266 27.813523 10.84375 28.09375 L 19.9375 28.09375 C 22.663239 28.146948 23.972703 26.304865 23.96875 24.15625 L 23.96875 16.25 C 23.982136 16.159331 24 16.065706 24 15.96875 L 24 13.875 C 24 12.965512 23.22541 12.163533 22.03125 11.6875 L 22.03125 7.5 C 22.031251 4.6228379 19.350915 2.4971534 16.4375 2.46875 L 13.6875 2.46875 z M 13.65625 5.8125 L 16.375 5.8125 C 17.858289 5.8125001 18.6875 6.8094536 18.6875 7.5 L 18.6875 11.21875 L 11.34375 11.21875 L 11.34375 7.375 C 11.34375 6.6844342 12.172955 5.8125001 13.65625 5.8125 z "
       inkscape:radius="1.4160534"
       sodipodi:type="inkscape:offset" />
    <path
       style="font-size:12px;fill:#ff933d;fill-opacity:1;fill-rule:evenodd"
       d="M 46.108801,56.395355 L 46.180858,85.645355 C 47.168167,94.39925 52.326739,97.742174 61.274608,98.582855 L 88.555858,98.582855 C 96.733075,98.742449 100.70485,93.2162 100.69299,86.770355 L 100.6713,62.111006 L 46.108801,56.395355 z "
       id="path3177"
       sodipodi:nodetypes="ccccccc" />
    <path
       id="path3179"
       style="font-size:12px;fill:#ffd056;fill-opacity:1;fill-rule:evenodd"
       d="M 59.834563,48.000626 C 52.274917,48.000626 46.189003,51.541799 46.189003,55.940483 L 46.137754,60.955097 C 46.137754,65.35376 50.339371,68.89493 57.898996,68.89493 L 88.562032,68.89493 C 96.121657,68.89493 100.77118,66.649784 100.77118,62.251118 L 100.77118,55.940483 C 100.77118,51.541799 94.685263,48.000626 87.125638,48.000626 L 59.834563,48.000626 z "
       sodipodi:nodetypes="ccccccccc" />
    <path
       sodipodi:nodetypes="ccsccccccsccccc"
       id="path3187"
       d="M 52.743358,36.426605 L 52.743358,55.832855 C 52.743358,58.602908 54.98893,60.84848 57.758983,60.84848 C 60.529036,60.84848 62.774608,58.602908 62.774608,55.832855 L 62.774608,36.426605 C 62.774608,34.354907 65.262223,31.739105 69.712108,31.739105 L 77.868358,31.766999 C 82.318225,31.766999 84.805858,34.729967 84.805858,36.801605 L 84.805858,56.207855 C 84.805858,58.977908 87.05143,61.22348 89.821483,61.22348 C 92.591536,61.22348 94.837108,58.977908 94.837108,56.207855 L 94.837108,36.801605 C 94.837111,28.170119 86.796103,21.820958 78.055858,21.735749 L 69.805858,21.707855 C 60.186907,21.700178 52.805299,27.178724 52.743358,36.426605 z "
       style="font-size:12px;fill:#955801;fill-opacity:1;fill-rule:evenodd;stroke:none;stroke-width:3.33820772;stroke-linecap:round;stroke-opacity:1" />
    <path
       id="path3181"
       d="M 75.149608,72.239105 C 70.962784,72.239105 67.555858,75.512762 67.555858,79.551605 C 67.555858,82.176866 69.058516,84.449192 71.212108,85.739105 C 71.176519,85.937966 71.118358,86.089076 71.118358,86.301605 L 71.118358,92.020355 C 71.118358,93.583028 72.108418,94.832855 73.368358,94.832855 L 77.868358,94.832855 C 79.128298,94.832852 80.212108,93.583028 80.212108,92.020355 L 80.212108,86.301605 C 80.212108,85.864046 80.073031,85.545461 79.930858,85.176605 C 81.615682,83.835302 82.743358,81.823463 82.743358,79.551605 C 82.743358,75.512762 79.336414,72.239105 75.149608,72.239105 z "
       style="font-size:12px;fill:#593a28;fill-rule:evenodd" />
    <path
       style="font-size:12px;fill:#b01911;fill-rule:evenodd"
       d="M 73.743358,72.707855 C 70.3498,72.707855 67.555858,75.817511 67.555858,79.645355 C 67.555858,82.156643 68.783146,84.33578 70.555858,85.551605 C 70.526476,85.741721 70.462108,85.910765 70.462108,86.114105 L 70.462108,91.457855 C 70.462108,92.93891 71.22217,94.082855 72.243358,94.082855 L 75.993358,94.082855 C 77.014567,94.082855 77.774608,92.938907 77.774608,91.457855 L 77.774608,86.114105 C 77.774608,85.694945 77.70469,85.341527 77.587108,84.989105 C 78.952699,83.71787 79.837111,81.798539 79.837108,79.645355 C 79.837108,75.817511 77.136874,72.707855 73.743358,72.707855 z "
       id="path3185" />
    <path
       sodipodi:nodetypes="cccscccccccssccccc"
       id="path3189"
       d="M 68.305858,24.801605 C 61.045339,24.801605 54.805858,29.620199 54.805858,35.957855 L 54.805858,55.457855 C 54.805858,56.260394 55.456444,56.91098 56.258983,56.91098 C 57.061522,56.91098 57.712108,56.260394 57.712108,55.457855 L 57.712108,35.957855 C 57.712108,31.555091 62.260213,27.750536 68.212108,27.707855 L 68.305858,27.707855 L 76.368358,27.779912 C 82.370341,27.779912 86.962111,31.999091 86.962108,36.426605 L 86.962108,55.832855 C 86.825671,56.413415 87.060025,57.01814 87.552055,57.355145 C 88.044082,57.69215 88.692634,57.69215 89.184661,57.355145 C 89.676691,57.01814 89.911045,56.413415 89.774608,55.832855 L 89.774608,36.426605 C 89.774611,30.117017 83.6806,24.916106 76.462108,24.873662 L 76.368358,24.873662 L 68.305858,24.801605 z "
       style="font-size:12px;fill:#e9a93d;fill-opacity:1;fill-rule:evenodd;stroke:none;stroke-width:0.96294451;stroke-linecap:round;stroke-opacity:1" />
  </g>
</svg>
