<?xml version="1.0" encoding="UTF-8" standalone="no"?>
<!-- Created with Sodipodi ("http://www.sodipodi.com/") -->
<svg
   xmlns:dc="http://purl.org/dc/elements/1.1/"
   xmlns:cc="http://creativecommons.org/ns#"
   xmlns:rdf="http://www.w3.org/1999/02/22-rdf-syntax-ns#"
   xmlns:svg="http://www.w3.org/2000/svg"
   xmlns="http://www.w3.org/2000/svg"
   xmlns:xlink="http://www.w3.org/1999/xlink"
   xmlns:sodipodi="http://sodipodi.sourceforge.net/DTD/sodipodi-0.dtd"
   xmlns:inkscape="http://www.inkscape.org/namespaces/inkscape"
   version="1.0"
   x="0"
   y="0"
   width="90.0000000"
   height="90.0000000"
   id="svg548"
   sodipodi:version="0.32"
   sodipodi:docname="application-pdf.svg"
   sodipodi:docbase="/home/zeus/.icons/gartoon/scalable/mimetypes/"
   inkscape:version="0.46+devel"
   inkscape:output_extension="org.inkscape.output.svg.inkscape">
  <metadata
     id="metadata44">
    <rdf:RDF>
      <cc:Work
         rdf:about="">
        <dc:format>image/svg+xml</dc:format>
        <dc:type
           rdf:resource="http://purl.org/dc/dcmitype/StillImage" />
      </cc:Work>
    </rdf:RDF>
  </metadata>
  <sodipodi:namedview
     id="base"
     showgrid="false"
     inkscape:zoom="5.8888889"
     inkscape:cx="51.792453"
     inkscape:cy="52.640058"
     inkscape:window-width="640"
     inkscape:window-height="724"
     inkscape:window-x="374"
     inkscape:window-y="9"
     inkscape:current-layer="svg548" />
  <defs
     id="defs550">
    <linearGradient
       gradientTransform="matrix(1.5433708,-0.1192666,0.1192666,1.5433708,-21.257919,-17.872199)"
       y2="16.033962"
       x2="46.1087"
       y1="53.49728"
       x1="34.221302"
       gradientUnits="userSpaceOnUse"
       id="linearGradient2581"
       xlink:href="#linearGradient2552"
       inkscape:collect="always" />
    <linearGradient
       id="linearGradient2552"
       inkscape:collect="always">
      <stop
         id="stop2554"
         offset="0"
         style="stop-color:#f8310e;stop-opacity:1;" />
      <stop
         id="stop2556"
         offset="1"
         style="stop-color:#ff933d;stop-opacity:1" />
    </linearGradient>
  </defs>
  <g
     style="font-size:12.000;"
     id="g624">
    <defs
       id="defs606">
      <linearGradient
         id="linearGradient612">
        <stop
           style="stop-color:#7fa8e3;stop-opacity:0.7412;"
           offset="0"
           id="stop613" />
        <stop
           style="stop-color:#ffffff;stop-opacity:0;"
           offset="1"
           id="stop614" />
      </linearGradient>
      <linearGradient
         x1="50.64389"
         y1="5.367929"
         x2="35.75209"
         y2="68.04436"
         id="linearGradient615"
         xlink:href="#linearGradient612"
         gradientUnits="userSpaceOnUse"
         spreadMethod="pad" />
    </defs>
    <path
       d="M 12.81630 74.75300 C 10.38560 73.64810 7.071070 70.11260 8.838840 65.25120 C 9.722670 59.94800 25.63260 13.10210 29.16820 10.89240 C 31.37780 8.903680 34.58200 8.130260 39.11190 9.345610 C 42.86840 10.22950 76.67690 19.06840 78.66560 20.83610 C 80.65440 22.60390 82.20120 24.04020 80.65440 27.90720 C 79.54960 29.89590 66.40170 74.53200 66.18080 77.40470 C 65.29690 80.49830 62.75580 84.25480 58.55730 84.03380 C 54.35890 83.81280 15.90990 75.41590 12.81630 74.75300 z "
       transform="matrix(1.114903,0,0,1.114903,-5.305332,-3.889256)"
       style="fill-opacity:0.301471;fill-rule:evenodd;stroke-width:1;"
       id="path794" />
    <path
       d="M 12.81630 74.75300 C 10.38560 73.64810 7.071070 70.11260 8.838840 65.25120 C 9.722670 59.94800 25.63260 13.10210 29.16820 10.89240 C 31.37780 8.903680 34.58200 8.130260 39.11190 9.345610 C 42.86840 10.22950 76.67690 19.06840 78.66560 20.83610 C 80.65440 22.60390 82.20120 24.04020 80.65440 27.90720 C 79.54960 29.89590 66.40170 74.53200 66.18080 77.40470 C 65.29690 80.49830 62.75580 84.25480 58.55730 84.03380 C 54.35890 83.81280 15.90990 75.41590 12.81630 74.75300 z "
       transform="matrix(1.114903,0,0,1.114903,-8.162471,-8.460684)"
       style="fill:#3d4e67;fill-rule:evenodd;stroke-width:1;"
       id="path609" />
    <path
       d="M 17.89870 70.99650 C 15.35760 70.33360 11.71140 69.67060 13.03730 65.69320 C 15.46800 55.97050 27.84240 18.62640 33.14560 13.98600 C 34.36100 12.88110 38.44890 12.43920 46.18290 14.86990 C 55.02180 17.52150 72.92040 23.48770 74.68820 24.37160 C 76.45590 25.25550 77.11890 25.25550 75.79300 29.23300 C 73.80430 33.21050 64.96550 67.24000 62.75570 72.98520 C 61.20900 77.07320 60.87750 78.95140 58.22580 78.95140 "
       transform="matrix(1.114903,0,0,1.114903,-8.162471,-8.460684)"
       style="fill:#ffffff;fill-rule:evenodd;stroke-width:1;"
       id="path608" />
    <path
       d="M 28.75000 13.75000 C 28.75000 13.75000 31.87500 7.499950 39.68750 9.374950 C 47.50000 11.25000 78.12500 19.37500 77.81250 21.87500 C 77.50000 24.37500 71.87500 39.06250 71.56250 40.31250 C 71.25000 41.56250 42.50000 40.93750 31.56250 47.50000 C 20.62500 54.06250 12.50000 59.68750 12.50000 59.68750 C 12.50000 59.68750 23.75000 24.68750 28.75000 13.75000 z "
       transform="matrix(0.946780,0,0,0.946780,-0.480566,0.409517)"
       style="fill:url(#linearGradient615);fill-rule:evenodd;stroke-width:1;"
       id="path636" />
  </g>
  <path
     style="font-size:12;fill:#fffffa;fill-opacity:0.996078;fill-rule:evenodd;stroke:none;stroke-width:0.871904;"
     d="M 43.4826 43.68723 L 38.26509 52.15618 C 38.26509 52.15618 46.47397 51.88582 46.51709 51.71538 C 46.56021 51.54493 43.43949 43.85768 43.4826 43.68723 z "
     id="path725"
     sodipodi:nodetypes="cccc" />
  <g
     id="g2534"
     transform="matrix(0.6260783,0,0,0.6260783,10.420622,12.105014)">
    <path
       d="m 47.375,15.78125 c -1.013164,0.029344 -1.99145,0.293533 -3.03125,0.6875 C 44.333248,16.479081 44.322831,16.489498 44.3125,16.5 c -0.545892,0.217647 -0.54747,0.291172 -0.75,0.46875 0.208742,-0.149561 0.212272,-0.326808 -0.78125,0.34375 C 42.014203,17.81683 41.555309,18.675786 41.5625,19.59375 41.56244,19.604167 41.56244,19.614583 41.5625,19.625 39.326562,23.192406 39.375341,27.95832 40.09375,33.21875 37.641558,38.483659 34.757879,43.550144 31.4375,48.5 c -0.917311,1.269738 -2.022695,2.685593 -3.15625,4.125 -1.915403,0.360771 -3.821718,0.725499 -5.71875,1.1875 -1.015535,0.23739 -4.919699,1.070335 -8.21875,2.59375 -1.649526,0.761707 -3.253559,1.581354 -4.375,3.375 -0.5607207,0.896823 -0.8976497,2.207914 -0.625,3.4375 0.2726497,1.229586 0.987268,2.209996 1.875,3 C 11.229167,66.21881 11.239583,66.21881 11.25,66.21875 c 1.899444,1.672447 4.245628,2.408938 6.4375,2.375 2.191872,-0.033938 4.243717,-0.718249 6.09375,-1.625 3.700065,-1.813501 6.729231,-4.58684 8.5,-6.375 0.355671,-0.342636 0.428787,-0.480337 0.625,-0.71875 4.926955,-0.726935 9.861369,-1.191752 14.875,-1.3125 C 47.833629,58.55362 47.885735,58.543199 47.9375,58.53125 c 0.528363,-0.041463 1.44415,0.031932 2.28125,0.09375 1.36005,1.589136 2.804455,2.995007 4.5625,3.875 2.12976,1.066056 4.827208,1.28686 7.1875,0.15625 1.982563,-0.937559 3.598424,-2.090278 4.0625,-4.15625 0.464076,-2.065972 -0.796009,-3.827789 -1.9375,-4.78125 C 61.810767,51.811827 58.889024,50.991747 56.34375,50.75 56.333333,50.74994 56.322917,50.74994 56.3125,50.75 55.886773,50.714771 55.59694,50.72896 55.21875,50.71875 53.351042,47.069188 52.006357,42.604141 50.875,38.84375 c -0.238534,-0.787224 -0.788122,-2.982098 -1.3125,-4.9375 0.689148,-1.617811 1.394874,-3.257217 2,-4.96875 0.665171,-1.734326 1.371169,-4.18965 1.375,-6.8125 0.001915,-1.311425 -0.14099,-2.738102 -1.03125,-4.09375 -0.89026,-1.355648 -2.767647,-2.301079 -4.53125,-2.25 z m 0,0 m -4.03125,30.25 c 0.595185,1.620738 1.280764,3.119572 2,4.625 -1.75518,0.072412 -3.501928,0.182805 -5.25,0.34375 1.144318,-1.619332 2.22803,-3.264031 3.25,-4.96875 z"
       id="path2586"
       style="font-size:12px;fill:#000000;fill-opacity:0.29411765;stroke:none"
       inkscape:original="M 47.46875 18.5 C 46.865111 18.517483 46.170601 18.674876 45.3125 19 C 45.017704 19.117535 44.910511 19.28788 44.71875 19.4375 C 44.575938 19.49175 44.400455 19.482045 44.28125 19.5625 L 44.5625 19.5625 C 44.195845 19.906577 43.99144 20.240175 44.0625 20.5625 C 42.227269 23.060111 42.043591 28.07469 42.875 33.71875 C 40.294614 39.361334 37.210504 44.74808 33.6875 50 C 32.583904 51.527593 31.261124 53.295433 29.84375 55.0625 C 27.591331 55.479413 25.349338 55.911009 23.1875 56.4375 C 21.067044 56.933175 8.14571 59.839793 13.03125 64.1875 C 18.651506 69.136095 27.100077 61.994586 30.375 58.6875 C 30.810565 58.267897 31.170148 57.748778 31.59375 57.3125 C 36.92259 56.490307 42.270763 55.974959 47.71875 55.84375 C 48.932367 55.748511 50.215588 55.936197 51.46875 56 C 54.340809 59.703137 57.564024 61.774811 60.8125 60.21875 C 67.359146 57.122826 59.990303 53.80759 56.09375 53.4375 C 55.219844 53.365185 54.320681 53.387096 53.4375 53.34375 C 50.948477 49.080855 49.514822 43.72513 48.28125 39.625 C 47.949238 38.529273 47.284265 35.949606 46.6875 33.75 C 47.498622 31.840572 48.327482 29.933393 49 28.03125 C 50.139293 25.060725 51.694225 18.377619 47.46875 18.5 z M 46.4375 21.40625 C 47.054652 22.309098 46.38937 24.882003 45.5 27.5 C 45.259829 24.96755 45.373128 22.687196 46.4375 21.40625 z M 44.03125 39.40625 C 45.323788 44.436448 47.253352 49.289721 49.625 53.21875 C 44.495734 53.196711 39.313167 53.628203 34.21875 54.375 C 38.049279 49.863327 41.319067 44.772646 44.03125 39.40625 z M 55.59375 56.21875 C 59.421132 56.742125 58.890452 59.697485 56.625 57.5 C 56.230158 57.13745 55.951568 56.629855 55.59375 56.21875 z M 27.375 57.9375 C 24.937689 60.475028 22.166709 62.60796 19.03125 63.25 C 14.116314 64.276911 16.291628 60.89418 18.71875 60.0625 C 21.482639 59.0153 24.526781 58.404118 27.375 57.9375 z "
       inkscape:radius="2.7045445"
       sodipodi:type="inkscape:offset"
       transform="matrix(1.5433708,-0.1192666,0.1192666,1.5433708,-20.197131,-14.453609)" />
    <path
       transform="matrix(1.5433708,-0.1192666,0.1192666,1.5433708,-21.257919,-17.872199)"
       sodipodi:type="inkscape:offset"
       inkscape:radius="2.7045445"
       inkscape:original="M 47.46875 18.5 C 46.865111 18.517483 46.170601 18.674876 45.3125 19 C 45.017704 19.117535 44.910511 19.28788 44.71875 19.4375 C 44.575938 19.49175 44.400455 19.482045 44.28125 19.5625 L 44.5625 19.5625 C 44.195845 19.906577 43.99144 20.240175 44.0625 20.5625 C 42.227269 23.060111 42.043591 28.07469 42.875 33.71875 C 40.294614 39.361334 37.210504 44.74808 33.6875 50 C 32.583904 51.527593 31.261124 53.295433 29.84375 55.0625 C 27.591331 55.479413 25.349338 55.911009 23.1875 56.4375 C 21.067044 56.933175 8.14571 59.839793 13.03125 64.1875 C 18.651506 69.136095 27.100077 61.994586 30.375 58.6875 C 30.810565 58.267897 31.170148 57.748778 31.59375 57.3125 C 36.92259 56.490307 42.270763 55.974959 47.71875 55.84375 C 48.932367 55.748511 50.215588 55.936197 51.46875 56 C 54.340809 59.703137 57.564024 61.774811 60.8125 60.21875 C 67.359146 57.122826 59.990303 53.80759 56.09375 53.4375 C 55.219844 53.365185 54.320681 53.387096 53.4375 53.34375 C 50.948477 49.080855 49.514822 43.72513 48.28125 39.625 C 47.949238 38.529273 47.284265 35.949606 46.6875 33.75 C 47.498622 31.840572 48.327482 29.933393 49 28.03125 C 50.139293 25.060725 51.694225 18.377619 47.46875 18.5 z M 46.4375 21.40625 C 47.054652 22.309098 46.38937 24.882003 45.5 27.5 C 45.259829 24.96755 45.373128 22.687196 46.4375 21.40625 z M 44.03125 39.40625 C 45.323788 44.436448 47.253352 49.289721 49.625 53.21875 C 44.495734 53.196711 39.313167 53.628203 34.21875 54.375 C 38.049279 49.863327 41.319067 44.772646 44.03125 39.40625 z M 55.59375 56.21875 C 59.421132 56.742125 58.890452 59.697485 56.625 57.5 C 56.230158 57.13745 55.951568 56.629855 55.59375 56.21875 z M 27.375 57.9375 C 24.937689 60.475028 22.166709 62.60796 19.03125 63.25 C 14.116314 64.276911 16.291628 60.89418 18.71875 60.0625 C 21.482639 59.0153 24.526781 58.404118 27.375 57.9375 z "
       style="font-size:12px;fill:#7e0000;fill-opacity:1;stroke:none"
       id="path2574"
       d="m 47.375,15.78125 c -1.013164,0.029344 -1.99145,0.293533 -3.03125,0.6875 C 44.333248,16.479081 44.322831,16.489498 44.3125,16.5 c -0.545892,0.217647 -0.54747,0.291172 -0.75,0.46875 0.208742,-0.149561 0.212272,-0.326808 -0.78125,0.34375 C 42.014203,17.81683 41.555309,18.675786 41.5625,19.59375 41.56244,19.604167 41.56244,19.614583 41.5625,19.625 39.326562,23.192406 39.375341,27.95832 40.09375,33.21875 37.641558,38.483659 34.757879,43.550144 31.4375,48.5 c -0.917311,1.269738 -2.022695,2.685593 -3.15625,4.125 -1.915403,0.360771 -3.821718,0.725499 -5.71875,1.1875 -1.015535,0.23739 -4.919699,1.070335 -8.21875,2.59375 -1.649526,0.761707 -3.253559,1.581354 -4.375,3.375 -0.5607207,0.896823 -0.8976497,2.207914 -0.625,3.4375 0.2726497,1.229586 0.987268,2.209996 1.875,3 C 11.229167,66.21881 11.239583,66.21881 11.25,66.21875 c 1.899444,1.672447 4.245628,2.408938 6.4375,2.375 2.191872,-0.033938 4.243717,-0.718249 6.09375,-1.625 3.700065,-1.813501 6.729231,-4.58684 8.5,-6.375 0.355671,-0.342636 0.428787,-0.480337 0.625,-0.71875 4.926955,-0.726935 9.861369,-1.191752 14.875,-1.3125 C 47.833629,58.55362 47.885735,58.543199 47.9375,58.53125 c 0.528363,-0.041463 1.44415,0.031932 2.28125,0.09375 1.36005,1.589136 2.804455,2.995007 4.5625,3.875 2.12976,1.066056 4.827208,1.28686 7.1875,0.15625 1.982563,-0.937559 3.598424,-2.090278 4.0625,-4.15625 0.464076,-2.065972 -0.796009,-3.827789 -1.9375,-4.78125 C 61.810767,51.811827 58.889024,50.991747 56.34375,50.75 56.333333,50.74994 56.322917,50.74994 56.3125,50.75 55.886773,50.714771 55.59694,50.72896 55.21875,50.71875 53.351042,47.069188 52.006357,42.604141 50.875,38.84375 c -0.238534,-0.787224 -0.788122,-2.982098 -1.3125,-4.9375 0.689148,-1.617811 1.394874,-3.257217 2,-4.96875 0.665171,-1.734326 1.371169,-4.18965 1.375,-6.8125 0.001915,-1.311425 -0.14099,-2.738102 -1.03125,-4.09375 -0.89026,-1.355648 -2.767647,-2.301079 -4.53125,-2.25 z m 0,0 m -4.03125,30.25 c 0.595185,1.620738 1.280764,3.119572 2,4.625 -1.75518,0.072412 -3.501928,0.182805 -5.25,0.34375 1.144318,-1.619332 2.22803,-3.264031 3.25,-4.96875 z" />
    <path
       d="M 52.675103,7.6210515 C 43.320931,12.930884 68.659795,79.424893 79.81814,65.602894 92.328878,49.809384 -9.0505618,70.027016 10.702272,78.815683 33.627306,88.785637 70.24196,-2.2512638 52.622372,7.9270891 z"
       style="font-size:12px;fill:none;stroke:none"
       id="path2538" />
    <path
       sodipodi:nodetypes="ccccccccccccccccccccc"
       d="M 50.433473,6.916567 C 38.544087,17.144456 62.157218,77.980439 79.776802,67.802084 89.511466,62.243133 77.753246,57.994793 71.695281,57.888334 54.832448,57.796644 37.009106,61.3205 21.269206,66.466956 18.055672,67.484863 -1.5532922,73.535384 6.505443,79.662828 15.769783,86.63003 27.975543,74.565909 32.63554,69.07126 44.777177,55.420025 53.015572,36.99339 57.712669,19.527745 59.31732,14.132887 61.204162,1.2223372 50.919425,6.0553711 47.600434,7.6853555 49.092468,10.781229 52.411458,9.1512443 55.598587,9.3930154 51.032148,24.772542 50.166907,26.09722 46.7353,36.217935 42.04536,45.804929 36.69989,55.27808 31.998558,62.971921 25.247961,74.72262 15.660091,77.4703 c -7.4630918,2.171093 -4.494652,-3.302118 -0.847895,-4.875184 4.407743,-2.071299 9.365562,-3.41668 13.942886,-4.512943 9.915636,-2.690761 20.00085,-4.406486 30.308374,-5.453212 3.816336,-0.598027 7.854979,-0.527055 11.893623,-0.456082 6.38573,0.163377 5.869834,5.116919 2.030713,1.928639 C 65.256822,58.030996 61.25528,45.989024 57.984783,37.541163 55.878556,32.132256 47.909649,13.727775 53.500212,8.709929 56.26913,6.3540256 51.352649,5.5002146 49.397449,7.0518421 z"
       style="font-size:12px;fill:url(#linearGradient2581);fill-opacity:1;stroke:none"
       id="path2540" />
  </g>
</svg>
