<?xml version="1.0" encoding="UTF-8" standalone="no"?>
<!-- Created with Sodipodi ("http://www.sodipodi.com/") -->

<svg
   xmlns:dc="http://purl.org/dc/elements/1.1/"
   xmlns:cc="http://creativecommons.org/ns#"
   xmlns:rdf="http://www.w3.org/1999/02/22-rdf-syntax-ns#"
   xmlns:svg="http://www.w3.org/2000/svg"
   xmlns="http://www.w3.org/2000/svg"
   xmlns:xlink="http://www.w3.org/1999/xlink"
   xmlns:sodipodi="http://sodipodi.sourceforge.net/DTD/sodipodi-0.dtd"
   xmlns:inkscape="http://www.inkscape.org/namespaces/inkscape"
   version="1.0"
   x="0"
   y="0"
   width="90.0000000"
   height="90.0000000"
   id="svg548"
   sodipodi:version="0.32"
   sodipodi:docname="application-pdf.svg"
   inkscape:version="0.46+devel r21210 custom"
   inkscape:output_extension="org.inkscape.output.svg.inkscape">
  <metadata
     id="metadata44">
    <rdf:RDF>
      <cc:Work
         rdf:about="">
        <dc:format>image/svg+xml</dc:format>
        <dc:type
           rdf:resource="http://purl.org/dc/dcmitype/StillImage" />
        <dc:title></dc:title>
      </cc:Work>
    </rdf:RDF>
  </metadata>
  <sodipodi:namedview
     id="base"
     showgrid="false"
     inkscape:zoom="2.0820366"
     inkscape:cx="50.193961"
     inkscape:cy="4.0747973"
     inkscape:window-width="640"
     inkscape:window-height="724"
     inkscape:window-x="374"
     inkscape:window-y="9"
     inkscape:current-layer="svg548" />
  <defs
     id="defs550">
    <inkscape:perspective
       sodipodi:type="inkscape:persp3d"
       inkscape:vp_x="0 : 45 : 1"
       inkscape:vp_y="0 : 1000 : 0"
       inkscape:vp_z="90 : 45 : 1"
       inkscape:persp3d-origin="45 : 30 : 1"
       id="perspective26" />
    <linearGradient
       gradientTransform="matrix(1.5433708,-0.1192666,0.1192666,1.5433708,-21.257919,-17.872199)"
       y2="16.033962"
       x2="46.1087"
       y1="53.49728"
       x1="34.221302"
       gradientUnits="userSpaceOnUse"
       id="linearGradient2581"
       xlink:href="#linearGradient2552"
       inkscape:collect="always" />
    <linearGradient
       id="linearGradient2552"
       inkscape:collect="always">
      <stop
         id="stop2554"
         offset="0"
         style="stop-color:#f8310e;stop-opacity:1;" />
      <stop
         id="stop2556"
         offset="1"
         style="stop-color:#ff933d;stop-opacity:1" />
    </linearGradient>
    <inkscape:perspective
       id="perspective3027"
       inkscape:persp3d-origin="0.5 : 0.33333333 : 1"
       inkscape:vp_z="1 : 0.5 : 1"
       inkscape:vp_y="0 : 1000 : 0"
       inkscape:vp_x="0 : 0.5 : 1"
       sodipodi:type="inkscape:persp3d" />
    <inkscape:perspective
       sodipodi:type="inkscape:persp3d"
       inkscape:vp_x="0 : 0.5 : 1"
       inkscape:vp_y="0 : 1000 : 0"
       inkscape:vp_z="1 : 0.5 : 1"
       inkscape:persp3d-origin="0.5 : 0.33333333 : 1"
       id="perspective3113" />
  </defs>
  <g
     style="font-size:12.000;"
     id="g624">
    <defs
       id="defs606">
      <linearGradient
         id="linearGradient612">
        <stop
           style="stop-color:#7fa8e3;stop-opacity:0.7412;"
           offset="0"
           id="stop613" />
        <stop
           style="stop-color:#ffffff;stop-opacity:0;"
           offset="1"
           id="stop614" />
      </linearGradient>
      <linearGradient
         x1="50.64389"
         y1="5.367929"
         x2="35.75209"
         y2="68.04436"
         id="linearGradient615"
         xlink:href="#linearGradient612"
         gradientUnits="userSpaceOnUse"
         spreadMethod="pad" />
    </defs>
    <path
       d="M 12.81630 74.75300 C 10.38560 73.64810 7.071070 70.11260 8.838840 65.25120 C 9.722670 59.94800 25.63260 13.10210 29.16820 10.89240 C 31.37780 8.903680 34.58200 8.130260 39.11190 9.345610 C 42.86840 10.22950 76.67690 19.06840 78.66560 20.83610 C 80.65440 22.60390 82.20120 24.04020 80.65440 27.90720 C 79.54960 29.89590 66.40170 74.53200 66.18080 77.40470 C 65.29690 80.49830 62.75580 84.25480 58.55730 84.03380 C 54.35890 83.81280 15.90990 75.41590 12.81630 74.75300 z "
       transform="matrix(1.114903,0,0,1.114903,-5.305332,-3.889256)"
       style="fill-opacity:0.301471;fill-rule:evenodd;stroke-width:1;"
       id="path794" />
    <path
       d="M 12.81630 74.75300 C 10.38560 73.64810 7.071070 70.11260 8.838840 65.25120 C 9.722670 59.94800 25.63260 13.10210 29.16820 10.89240 C 31.37780 8.903680 34.58200 8.130260 39.11190 9.345610 C 42.86840 10.22950 76.67690 19.06840 78.66560 20.83610 C 80.65440 22.60390 82.20120 24.04020 80.65440 27.90720 C 79.54960 29.89590 66.40170 74.53200 66.18080 77.40470 C 65.29690 80.49830 62.75580 84.25480 58.55730 84.03380 C 54.35890 83.81280 15.90990 75.41590 12.81630 74.75300 z "
       transform="matrix(1.114903,0,0,1.114903,-8.162471,-8.460684)"
       style="fill:#3d4e67;fill-rule:evenodd;stroke-width:1;"
       id="path609" />
    <path
       d="M 17.89870 70.99650 C 15.35760 70.33360 11.71140 69.67060 13.03730 65.69320 C 15.46800 55.97050 27.84240 18.62640 33.14560 13.98600 C 34.36100 12.88110 38.44890 12.43920 46.18290 14.86990 C 55.02180 17.52150 72.92040 23.48770 74.68820 24.37160 C 76.45590 25.25550 77.11890 25.25550 75.79300 29.23300 C 73.80430 33.21050 64.96550 67.24000 62.75570 72.98520 C 61.20900 77.07320 60.87750 78.95140 58.22580 78.95140 "
       transform="matrix(1.114903,0,0,1.114903,-8.162471,-8.460684)"
       style="fill:#ffffff;fill-rule:evenodd;stroke-width:1;"
       id="path608" />
    <path
       d="M 28.75000 13.75000 C 28.75000 13.75000 31.87500 7.499950 39.68750 9.374950 C 47.50000 11.25000 78.12500 19.37500 77.81250 21.87500 C 77.50000 24.37500 71.87500 39.06250 71.56250 40.31250 C 71.25000 41.56250 42.50000 40.93750 31.56250 47.50000 C 20.62500 54.06250 12.50000 59.68750 12.50000 59.68750 C 12.50000 59.68750 23.75000 24.68750 28.75000 13.75000 z "
       transform="matrix(0.946780,0,0,0.946780,-0.480566,0.409517)"
       style="fill:url(#linearGradient615);fill-rule:evenodd;stroke-width:1;"
       id="path636" />
  </g>
  <path
     style="font-size:12;fill:#fffffa;fill-opacity:0.996078;fill-rule:evenodd;stroke:none;stroke-width:0.871904;"
     d="M 43.4826 43.68723 L 38.26509 52.15618 C 38.26509 52.15618 46.47397 51.88582 46.51709 51.71538 C 46.56021 51.54493 43.43949 43.85768 43.4826 43.68723 z "
     id="path725"
     sodipodi:nodetypes="cccc" />
  <path
     id="path633"
     d="M 29.772115,14.965127 73.072677,26.471514"
     style="fill:none;stroke:#42667e;stroke-width:1.06653214pt;stroke-linecap:butt;stroke-linejoin:miter;stroke-opacity:1" />
  <path
     id="path634"
     d="m 26.64141,22.596904 42.900306,11.68567"
     style="fill:none;stroke:#42667e;stroke-width:1.06653223pt;stroke-linecap:butt;stroke-linejoin:miter;stroke-opacity:1" />
  <path
     id="path635"
     d="M 22.807693,32.224777 66.108256,43.731165"
     style="fill:none;stroke:#42667e;stroke-width:1.06653214pt;stroke-linecap:butt;stroke-linejoin:miter;stroke-opacity:1" />
  <path
     id="path637"
     d="M 16.448873,50.392831 59.749435,61.89922"
     style="fill:none;stroke:#42667e;stroke-width:1.06653214pt;stroke-linecap:butt;stroke-linejoin:miter;stroke-opacity:1" />
  <path
     id="path638"
     d="M 13.318175,58.024612 56.21848,69.710281"
     style="fill:none;stroke:#42667e;stroke-width:1.06653223pt;stroke-linecap:butt;stroke-linejoin:miter;stroke-opacity:1" />
  <path
     id="path639"
     d="m 19.676991,39.856557 42.900305,11.68567"
     style="fill:none;stroke:#42667e;stroke-width:1.06653223pt;stroke-linecap:butt;stroke-linejoin:miter;stroke-opacity:1" />
  <path
     style="fill:#383e49;fill-opacity:1;fill-rule:evenodd;stroke:none"
     d="m 30.621138,17.886149 11.091119,19.275439 -19.275439,11.091117 33.403217,9.002753 2.455289,-9.109967 -5.782625,3.327335 -18.219938,-4.910591 13.492801,-7.763783 -7.763777,-13.492807 18.219936,4.910591 3.327328,5.782634 2.455302,-9.109968 -33.403213,-9.002753 z"
     id="path1120"
     sodipodi:nodetypes="ccccccccccccc" />
</svg>
