<?xml version="1.0" encoding="UTF-8" standalone="no"?>
<!-- Created with Sodipodi ("http://www.sodipodi.com/") -->
<svg
   xmlns:dc="http://purl.org/dc/elements/1.1/"
   xmlns:cc="http://web.resource.org/cc/"
   xmlns:rdf="http://www.w3.org/1999/02/22-rdf-syntax-ns#"
   xmlns:svg="http://www.w3.org/2000/svg"
   xmlns="http://www.w3.org/2000/svg"
   xmlns:xlink="http://www.w3.org/1999/xlink"
   xmlns:sodipodi="http://sodipodi.sourceforge.net/DTD/sodipodi-0.dtd"
   xmlns:inkscape="http://www.inkscape.org/namespaces/inkscape"
   id="svg548"
   sodipodi:version="0.32"
   width="72pt"
   height="72pt"
   sodipodi:docbase="/home/tweenk/dev/GartoonRedux/scalable/mimetypes"
   sodipodi:docname="application-pgp.svg"
   inkscape:version="0.45.1"
   inkscape:output_extension="org.inkscape.output.svg.inkscape">
  <metadata
     id="metadata2319">
    <rdf:RDF>
      <cc:Work
         rdf:about="">
        <dc:format>image/svg+xml</dc:format>
        <dc:type
           rdf:resource="http://purl.org/dc/dcmitype/StillImage" />
      </cc:Work>
    </rdf:RDF>
  </metadata>
  <defs
     id="defs550">
    <linearGradient
       id="linearGradient618">
      <stop
         offset="0.000000"
         style="stop-color:#7fa8e3;stop-opacity:0.741176;"
         id="stop620" />
      <stop
         offset="1.000000"
         style="stop-color:#ffffff;stop-opacity:0;"
         id="stop619" />
    </linearGradient>
    <linearGradient
       id="linearGradient614">
      <stop
         style="stop-color:#000;stop-opacity:1;"
         offset="0"
         id="stop615" />
      <stop
         style="stop-color:#fff;stop-opacity:1;"
         offset="1"
         id="stop616" />
    </linearGradient>
    <linearGradient
       xlink:href="#linearGradient618"
       id="linearGradient617"
       x1="1.00487828"
       y1="0.07030509"
       x2="-0.33658543"
       y2="1.33593702"
       gradientUnits="objectBoundingBox"
       spreadMethod="pad" />
  </defs>
  <sodipodi:namedview
     id="base"
     inkscape:zoom="4.5222222"
     inkscape:cx="45"
     inkscape:cy="45"
     inkscape:window-width="795"
     inkscape:window-height="619"
     inkscape:window-x="0"
     inkscape:window-y="1"
     inkscape:current-layer="svg548" />
  <g
     id="g572">
    <defs
       id="defs606">
      <linearGradient
         id="linearGradient612"
         x1="0.000000"
         y1="0.000000"
         x2="1.000000"
         y2="0.000000"
         xlink:href="#linearGradient618" />
      <linearGradient
         xlink:href="#linearGradient612"
         id="linearGradient615"
         x1="50.6438866"
         y1="5.36792946"
         x2="35.7520943"
         y2="68.0443573"
         gradientUnits="userSpaceOnUse"
         spreadMethod="pad" />
    </defs>
    <sodipodi:namedview
       id="namedview578" />
    <path
       style="fill:#000000;fill-rule:evenodd;stroke:none;stroke-opacity:1;stroke-width:1pt;stroke-linejoin:miter;stroke-linecap:butt;fill-opacity:0.301471;"
       d="M 12.8163 74.753 C 10.3856 73.6481 7.07107 70.1126 8.83884 65.2512 C 9.72267 59.948 25.6326 13.1021 29.1682 10.8924 C 31.3778 8.90368 34.582 8.13026 39.1119 9.34561 C 42.8684 10.2295 76.6769 19.0684 78.6656 20.8361 C 80.6544 22.6039 82.2012 24.0402 80.6544 27.9072 C 79.5496 29.8959 66.4017 74.532 66.1808 77.4047 C 65.2969 80.4983 62.7558 84.2548 58.5573 84.0338 C 54.3589 83.8128 15.9099 75.4159 12.8163 74.753 z "
       id="path794"
       sodipodi:nodetypes="ccccccccc"
       transform="matrix(1.114903,0.000000,0.000000,1.114903,-5.305332,-3.889256)" />
    <path
       style="fill:#3d4e67;fill-rule:evenodd;stroke:none;stroke-opacity:1;stroke-width:1pt;stroke-linejoin:miter;stroke-linecap:butt;fill-opacity:1;"
       d="M 12.8163 74.753 C 10.3856 73.6481 7.07107 70.1126 8.83884 65.2512 C 9.72267 59.948 25.6326 13.1021 29.1682 10.8924 C 31.3778 8.90368 34.582 8.13026 39.1119 9.34561 C 42.8684 10.2295 76.6769 19.0684 78.6656 20.8361 C 80.6544 22.6039 82.2012 24.0402 80.6544 27.9072 C 79.5496 29.8959 66.4017 74.532 66.1808 77.4047 C 65.2969 80.4983 62.7558 84.2548 58.5573 84.0338 C 54.3589 83.8128 15.9099 75.4159 12.8163 74.753 z "
       id="path609"
       sodipodi:nodetypes="ccccccccc"
       transform="matrix(1.114903,0.000000,0.000000,1.114903,-8.162471,-8.460684)" />
    <path
       style="fill:#ffffff;fill-rule:evenodd;stroke:none;stroke-opacity:1;stroke-width:1pt;stroke-linejoin:miter;stroke-linecap:butt;fill-opacity:1;"
       d="M 17.8987 70.9965 C 15.3576 70.3336 11.7114 69.6706 13.0373 65.6932 C 15.468 55.9705 27.8424 18.6264 33.1456 13.986 C 34.361 12.8811 38.4489 12.4392 46.1829 14.8699 C 55.0218 17.5215 72.9204 23.4877 74.6882 24.3716 C 76.4559 25.2555 77.1189 25.2555 75.793 29.233 C 73.8043 33.2105 64.9655 67.24 62.7557 72.9852 C 61.209 77.0732 60.8775 78.9514 58.2258 78.9514 "
       id="path608"
       sodipodi:nodetypes="cccccccs"
       transform="matrix(1.114903,0.000000,0.000000,1.114903,-8.162471,-8.460684)" />
    <path
       style="fill:url(#linearGradient615);fill-rule:evenodd;stroke:none;stroke-opacity:1;stroke-width:1pt;stroke-linejoin:miter;stroke-linecap:butt;fill-opacity:1;"
       d="M 28.75 13.75 C 28.75 13.75 31.875 7.49995 39.6875 9.37495 C 47.5 11.25 78.125 19.375 77.8125 21.875 C 77.5 24.375 71.875 39.0625 71.5625 40.3125 C 71.25 41.5625 42.5 40.9375 31.5625 47.5 C 20.625 54.0625 12.5 59.6875 12.5 59.6875 C 12.5 59.6875 23.75 24.6875 28.75 13.75 z "
       id="path636"
       transform="matrix(0.946780,0.000000,0.000000,0.946780,-0.480566,0.409517)" />
  </g>
  <g
     id="g2221"
     transform="matrix(0.9998671,1.6304006e-2,-1.6304006e-2,0.9998671,0.9494512,-1.1083702)">
    <path
       sodipodi:nodetypes="ccccccccccccccccccccccccccccccc"
       id="path2322"
       d="M 40.28125,8.59375 L 6.4375,22.34375 L 5.90625,30.4375 L 16.46875,49.65625 L 32.3125,47.875 L 40.28125,56.0625 L 36.90625,64.90625 L 41.84375,64.125 L 42.9375,65.96875 L 42.9375,65.96875 L 41.59375,67.75 L 45.9375,72.9375 L 50.0625,70.375 L 51.15625,72.59375 L 48.0625,75.34375 L 52.40625,81.09375 L 57.28125,82.6875 L 64.84375,83.03125 L 71.3125,80.0625 L 70.03125,60.21875 L 52.75,40.78125 L 57.4375,34.875 L 56.40625,25.34375 L 40.28125,8.59375 z M 38.054096,26.267935 L 39.73229,28.422608 L 39.302293,29.48353 L 30.896606,32.967398 L 25.486009,34.021382 L 24.549861,32.375676 L 38.054096,26.267935 z "
       style="font-size:12px;fill:#421f00;fill-opacity:1;fill-rule:evenodd;stroke-width:1pt" />
    <path
       sodipodi:nodetypes="cccccccccccccccccccccccccccccsscccc"
       id="path2324"
       d="M 39.03125,16.0625 L 10.46875,25.375 L 10,31.125 L 19.3125,47.25 L 34.0625,44.625 L 44.625,56.875 L 41.53125,58.28125 L 40.75,61.6875 L 46.03125,60.46875 L 48.5,63.25 L 44.312162,62.781363 L 43.84375,66.5 L 46.03125,70.40625 L 51,67.59375 L 54.5625,72.25 L 52.132728,72.578407 L 51.625,75.6875 L 54.09375,78.15625 L 60.625,78.46875 L 66.21875,75.84375 L 66.53125,72.5625 L 45.09375,41.375 L 53,32.375 L 53.3125,27.3125 L 39.03125,16.0625 z M 38.875,23.0625 L 42.625,27.40625 C 42.625,27.40625 42.651209,27.914055 42.6875,28.21875 L 42.71875,28.09375 C 42.824877,28.949492 42.991965,30.65625 42.625,30.65625 C 42.159283,30.656249 33.747979,34.84375 33.4375,34.84375 C 33.127022,34.84375 20.579605,37.961676 23.21875,36.875 L 20.40625,31.4375 L 20.46875,31.40625 L 38.875,23.0625 z "
       style="font-size:12px;fill:#b95900;fill-rule:evenodd;stroke-width:1pt" />
    <path
       sodipodi:nodetypes="cccsc"
       transform="matrix(0.743484,0,0,0.743484,5.664084,11.8654)"
       id="path2326"
       d="M 19.8362,41.9755 L 18.39751,47.627468 L 38.23371,44.077768 C 38.23371,44.077768 40.5076,38.6347 39.8812,38.8435 C 39.2548,39.0523 19.8362,42.6019 19.8362,41.9755 z "
       style="font-size:12px;fill:#763900;fill-rule:evenodd;stroke-width:1pt" />
    <path
       sodipodi:nodetypes="ccccccccccccccccccccccccccc"
       id="path2328"
       d="M 40.90625,13.71875 L 10.390794,25.413978 L 20.40625,43.21875 L 35.15625,40.90625 L 45.875,54.25 L 41.21875,58.59375 L 47.4375,57.5 L 49.4375,60.46875 L 44.3125,62.78125 L 46.96875,67.59375 L 52.40625,64.8125 L 56.4375,69.9375 L 52.09375,72.5625 L 54.40625,75.21875 L 62.46875,75.6875 L 66.53125,72.71875 L 66.53125,62.3125 L 44.9375,36.71875 L 53.3125,27.40625 L 40.90625,13.71875 z M 38.71875,19 L 43.21875,23.8125 L 42.312275,30.65625 L 33.242047,34.765569 L 23.465557,36.796819 L 19.15625,29.09375 C 17.91426,28.938511 38.56351,19.000001 38.71875,19 z "
       style="font-size:12px;fill:#fcc500;fill-rule:evenodd;stroke-width:1pt" />
    <path
       sodipodi:nodetypes="ccccc"
       transform="matrix(0.743484,0,0,0.743484,5.664084,11.8654)"
       id="path2330"
       d="M 47.916323,62.806144 L 47.186278,67.033311 L 54.390734,65.415388 L 56.1678,61.234856 L 47.916323,62.806144 z "
       style="font-size:12px;fill:#763900;fill-rule:evenodd;stroke-width:1pt" />
    <path
       transform="matrix(0.743484,0,0,0.743484,5.664084,11.8654)"
       sodipodi:nodetypes="ccccc"
       id="path2332"
       d="M 55.3326,74.7574 L 54.389223,78.675144 L 61.304401,75.281666 L 62.8772,71.258867 L 55.3326,74.7574 z "
       style="font-size:12px;fill:#763900;fill-rule:evenodd;stroke-width:1pt" />
    <path
       transform="matrix(0.743484,0,0,0.743484,5.664084,11.8654)"
       sodipodi:nodetypes="ccccccc"
       id="path2334"
       d="M 65.5639,85.1976 L 65.5639,89.3736 L 76.4216,90 L 81.6417,86.868 L 81.848889,81.855189 L 76.423111,85.822489 L 65.5639,85.1976 z "
       style="font-size:12px;fill:#763900;fill-rule:evenodd;stroke-width:1pt" />
    <path
       transform="matrix(0.743484,0,0,0.743484,5.664084,11.8654)"
       sodipodi:nodetypes="ccccc"
       id="path2336"
       d="M 78.3008,71.2078 C 77.8832,70.999 50.1125,34.8762 50.1125,34.8762 L 46.5629,36.7555 L 75.1688,73.7134 L 78.3008,71.2078 z "
       style="font-size:12px;fill:#e49f00;fill-rule:evenodd;stroke-width:1pt" />
    <path
       transform="matrix(0.743484,0,0,0.743484,5.664084,11.8654)"
       id="path2338"
       d="M 49.6949,35.5026 C 49.6949,35.9202 77.6744,70.999 77.6744,70.999"
       style="font-size:12px;fill:none;fill-rule:evenodd;stroke:#946900;stroke-width:1pt" />
  </g>
</svg>
