<?xml version="1.0" encoding="UTF-8" standalone="no"?>
<!DOCTYPE svg PUBLIC "-//W3C//DTD SVG 20010904//EN"
"http://www.w3.org/TR/2001/REC-SVG-20010904/DTD/svg10.dtd">
<!-- Created with Sodipodi ("http://www.sodipodi.com/") -->
<svg
   version="1"
   x="0.00000000"
   y="0.00000000"
   width="90.0000000"
   height="90.0000000"
   id="svg596"
   xmlns="http://www.w3.org/2000/svg"
   xmlns:xlink="http://www.w3.org/1999/xlink"
   xmlns:sodipodi="http://sodipodi.sourceforge.net/DTD/sodipodi-0.dtd"
   xmlns:inkscape="http://www.inkscape.org/namespaces/inkscape"
   sodipodi:version="0.32"
   inkscape:version="0.40"
   xmlns:rdf="http://www.w3.org/1999/02/22-rdf-syntax-ns#"
   xmlns:cc="http://web.resource.org/cc/"
   xmlns:dc="http://purl.org/dc/elements/1.1/"
   sodipodi:docname="gnome-mime-image-x-tga.svg"
   sodipodi:docbase="/home/zeus/.icons/gartoon/scalable/mimetypes">
  <metadata
     id="metadata40">
    <rdf:RDF
       id="RDF41">
      <cc:Work
         rdf:about=""
         id="Work42">
        <dc:format
           id="format43">image/svg+xml</dc:format>
        <dc:type
           id="type45"
           rdf:resource="http://purl.org/dc/dcmitype/StillImage" />
      </cc:Work>
    </rdf:RDF>
  </metadata>
  <sodipodi:namedview
     id="base"
     pagecolor="#ffffff"
     bordercolor="#666666"
     borderopacity="1.0"
     inkscape:pageopacity="0.0"
     inkscape:pageshadow="2"
     inkscape:zoom="5.6568542"
     inkscape:cx="32.253782"
     inkscape:cy="36.018683"
     inkscape:window-width="640"
     inkscape:window-height="536"
     inkscape:window-x="5"
     inkscape:window-y="48"
     inkscape:current-layer="svg596" />
  <defs
     id="defs598">
    <linearGradient
       x1="0.00000000"
       y1="0.00000000"
       x2="1.00000000"
       y2="0.00000000"
       id="linearGradient612"
       gradientUnits="objectBoundingBox"
       spreadMethod="pad">
      <stop
         style="stop-color:#7fa8e3;stop-opacity:0.741176;"
         offset="0.00000000"
         id="stop613" />
      <stop
         style="stop-color:#ffffff;stop-opacity:0;"
         offset="1.00000000"
         id="stop614" />
    </linearGradient>
    <linearGradient
       x1="0.00000000"
       y1="0.00000000"
       x2="1.00000000"
       y2="0.00000000"
       id="linearGradient626"
       gradientUnits="objectBoundingBox"
       spreadMethod="pad">
      <stop
         style="stop-color:#ff0047;stop-opacity:1;"
         offset="0.00000000"
         id="stop627" />
      <stop
         style="stop-color:#ab322d;stop-opacity:0;"
         offset="1.00000000"
         id="stop628" />
    </linearGradient>
    <linearGradient
       x1="0.00000000"
       y1="0.00000000"
       x2="1.00000000"
       y2="0.00000000"
       id="linearGradient618"
       gradientUnits="objectBoundingBox"
       spreadMethod="pad">
      <stop
         style="stop-color:#956d47;stop-opacity:1;"
         offset="0.00000000"
         id="stop619" />
      <stop
         style="stop-color:#ab322d;stop-opacity:0;"
         offset="1.00000000"
         id="stop620" />
    </linearGradient>
    <linearGradient
       x1="0.00000000"
       y1="0.00000000"
       x2="1.00000000"
       y2="0.00000000"
       id="linearGradient614"
       gradientUnits="objectBoundingBox"
       spreadMethod="pad">
      <stop
         style="stop-color:#000000;stop-opacity:1;"
         offset="0.00000000"
         id="stop615" />
      <stop
         style="stop-color:#ffffff;stop-opacity:1;"
         offset="1.00000000"
         id="stop616" />
    </linearGradient>
    <linearGradient
       x1="14.043809"
       y1="22.932673"
       x2="54.455856"
       y2="21.446371"
       id="linearGradient617"
       xlink:href="#linearGradient618"
       gradientUnits="userSpaceOnUse"
       spreadMethod="pad"
       gradientTransform="matrix(0.417027,0.000000,0.000000,1.060735,21.01310,16.91614)" />
    <linearGradient
       x1="42.9995728"
       y1="77.3980103"
       x2="28.5382881"
       y2="63.0152588"
       id="linearGradient625"
       xlink:href="#linearGradient626"
       gradientUnits="userSpaceOnUse"
       gradientTransform="matrix(0.621202,0.000000,0.000000,0.712096,21.01310,16.91614)"
       spreadMethod="pad" />
    <linearGradient
       x1="16.4110699"
       y1="10.6072874"
       x2="24.6243172"
       y2="61.6665344"
       id="linearGradient636"
       xlink:href="#linearGradient612"
       gradientUnits="userSpaceOnUse"
       spreadMethod="pad" />
  </defs>
  <g
     transform="translate(-1.146498,1.146498)"
     style="font-size:12;"
     id="g898">
    <path
       d="M 12.8163 74.753 C 10.3856 73.6481 7.07107 70.1126 8.83884 65.2512 C 9.72267 59.948 25.6326 13.1021 29.1682 10.8924 C 31.3778 8.90368 34.582 8.13026 39.1119 9.34561 C 42.8684 10.2295 76.6769 19.0684 78.6656 20.8361 C 80.6544 22.6039 82.2012 24.0402 80.6544 27.9072 C 79.5496 29.8959 66.4017 74.532 66.1808 77.4047 C 65.2969 80.4983 62.7558 84.2548 58.5573 84.0338 C 54.3589 83.8128 15.9099 75.4159 12.8163 74.753 z "
       transform="matrix(1.114903,0.000000,0.000000,1.114903,1.287023,-5.035753)"
       style="fill-opacity:0.301471;fill-rule:evenodd;stroke-width:1pt;"
       id="path794" />
    <path
       d="M 12.8163 74.753 C 10.3856 73.6481 7.07107 70.1126 8.83884 65.2512 C 9.72267 59.948 25.6326 13.1021 29.1682 10.8924 C 31.3778 8.90368 34.582 8.13026 39.1119 9.34561 C 42.8684 10.2295 76.6769 19.0684 78.6656 20.8361 C 80.6544 22.6039 82.2012 24.0402 80.6544 27.9072 C 79.5496 29.8959 66.4017 74.532 66.1808 77.4047 C 65.2969 80.4983 62.7558 84.2548 58.5573 84.0338 C 54.3589 83.8128 15.9099 75.4159 12.8163 74.753 z "
       transform="matrix(1.114903,0.000000,0.000000,1.114903,-1.570116,-9.607182)"
       style="fill:#3d4e67;fill-rule:evenodd;stroke-width:1pt;"
       id="path895" />
    <path
       d="M 17.8987 70.9965 C 15.3576 70.3336 11.7114 69.6706 13.0373 65.6932 C 15.468 55.9705 27.8424 18.6264 33.1456 13.986 C 34.361 12.8811 38.4489 12.4392 46.1829 14.8699 C 55.0218 17.5215 72.9204 23.4877 74.6882 24.3716 C 76.4559 25.2555 77.1189 25.2555 75.793 29.233 C 73.8043 33.2105 64.9655 67.24 62.7557 72.9852 C 61.209 77.0732 60.8775 78.9514 58.2258 78.9514 "
       transform="matrix(1.114903,0.000000,0.000000,1.114903,-1.570116,-9.607182)"
       style="fill:#ffffff;fill-rule:evenodd;stroke-width:1pt;"
       id="path896" />
    <path
       d="M 28.75 13.75 C 28.75 13.75 31.875 7.49995 39.6875 9.37495 C 47.5 11.25 78.125 19.375 77.8125 21.875 C 77.5 24.375 71.875 39.0625 71.5625 40.3125 C 71.25 41.5625 42.5 40.9375 31.5625 47.5 C 20.625 54.0625 12.5 59.6875 12.5 59.6875 C 12.5 59.6875 23.75 24.6875 28.75 13.75 z "
       transform="matrix(0.946780,0.000000,0.000000,0.946780,6.111789,-0.736980)"
       style="fill:url(#linearGradient636);fill-rule:evenodd;stroke-width:1pt;"
       id="path636" />
  </g>
  <path
     d="M 66.180568,61.136242 C 66.180568,62.264647 65.209658,63.180354 64.013346,63.180354 C 62.816968,63.180354 61.846057,62.264647 61.846057,61.136242 C 61.846057,60.007903 62.816968,59.092130 64.013346,59.092130 C 65.209658,59.092130 66.180568,60.007903 66.180568,61.136242 z "
     style="font-size:12.000000;fill:#470000;fill-rule:evenodd;stroke-width:1.0000000pt"
     id="path613" />
  <path
     d="M 61.747556,66.332786 C 60.713130,65.150574 59.038479,65.790930 58.496624,66.628289 C 57.905551,68.697010 58.841477,70.568728 61.304269,69.682153 C 63.767060,68.795511 64.653636,67.416363 64.653636,67.514864 C 64.653636,67.613432 62.683416,72.834518 59.728053,73.228522 C 56.772690,73.622592 55.147257,73.721093 51.896391,73.770377 C 48.547024,74.361450 46.921591,74.312166 46.921591,74.312166 L 51.059033,68.401507 C 51.059033,68.401507 52.142677,67.810434 53.915895,64.855071 C 55.689112,61.899775 58.841411,61.210135 60.417627,62.195278 C 61.846057,62.786284 62.634132,63.574425 63.028203,65.101357 C 62.929702,66.776007 62.634132,67.416363 61.747556,66.332786 z "
     style="font-size:12.000000;fill:#470000;fill-rule:evenodd;stroke-width:1.0000000pt"
     id="path610" />
  <path
     d="M 46.429037,67.761150 C 47.906686,68.155221 46.182752,70.273159 45.246892,68.795511 C 44.508035,69.829871 44.852822,67.317862 44.852822,67.317862 L 41.700457,73.918095 C 41.700457,73.918095 47.118611,75.888382 49.187332,73.031520 C 51.256053,70.174724 51.502405,68.697010 50.369543,67.514864 C 49.039547,65.692496 47.857402,66.431287 47.364897,66.726790 C 46.872325,67.022359 46.675323,67.219361 46.429037,67.761150 z "
     style="font-size:12.000000;fill:#230000;fill-opacity:0.99899000;fill-rule:evenodd;stroke-width:1.0000000pt"
     id="path609" />
  <path
     d="M 45.049872,58.156337 C 45.049872,58.156337 45.640878,54.609901 45.443876,52.738183 C 45.148373,48.699176 36.676355,14.712794 30.371691,20.623480 C 23.081832,23.480315 31.750839,56.087550 32.834483,57.959268 C 33.918060,59.830987 35.494276,61.210135 35.494276,61.210135 C 35.494276,61.210135 33.031418,72.440514 42.242294,74.016596 C 45.591727,67.810434 47.955353,65.335671 47.414163,62.540064 C 47.118593,60.963915 46.724589,59.486200 45.049872,58.156337 z "
     style="font-size:12.000000;fill:#230000;fill-rule:evenodd;stroke-width:1.0000000pt"
     id="path608" />
  <path
     d="M 33.918060,55.693546 C 35.691278,53.526324 37.661498,51.950108 42.685582,52.442680 C 41.109433,43.675092 35.494276,20.032408 31.455269,22.199663 C 26.923803,22.987757 31.159766,49.388816 33.918060,55.693546 z "
     style="font-size:12.000000;fill:#f2962c;fill-rule:evenodd;stroke-width:1.0000000pt"
     id="path600" />
  <path
     d="M 34.213630,56.580121 C 34.213630,56.580121 35.100206,59.436917 37.464496,59.633985 C 38.548140,57.959268 41.010932,57.663765 43.079652,57.762266 C 43.572224,55.890548 43.966228,53.624758 43.178153,53.526257 C 42.193077,52.935185 36.676421,51.851607 34.213630,56.580121 z "
     style="font-size:12.000000;fill:#8b8b8b;fill-rule:evenodd;stroke-width:1.0000000pt"
     id="path601" />
  <path
     d="M 37.562997,61.111633 C 38.055569,58.944412 41.799006,57.466763 43.473656,59.239915 C 47.512664,61.505704 45.739446,67.120860 43.966228,67.219361 C 43.473656,74.213665 48.202237,70.371660 48.103736,68.894078 C 51.650105,68.401507 48.793310,73.425590 46.429019,73.130021 C 43.178153,73.622592 34.509133,70.667296 37.562997,61.111633 z "
     style="font-size:12.000000;fill:#65532d;fill-rule:evenodd;stroke-width:1.0000000pt"
     id="path602" />
  <path
     d="M 50.665029,70.962799 C 50.763530,71.061300 52.044176,70.962799 52.733749,69.780654 C 53.423323,68.598509 55.787613,63.771427 57.462330,63.672926 C 61.501271,62.195278 61.501271,64.953572 61.501271,64.953572 C 61.501271,64.953572 57.757833,63.574425 57.363763,65.938715 C 56.969758,68.303006 56.280185,69.682153 60.811631,71.553872 C 58.250405,72.440447 50.254796,72.611444 49.762158,72.611444 C 49.269586,72.611444 50.763530,70.864298 50.665029,70.962799 z "
     style="font-size:12.000000;fill:#bc0000;fill-rule:evenodd;stroke-width:1.0000000pt"
     id="path603" />
  <path
     d="M 52.044176,61.899775 C 53.226321,60.126557 57.314545,61.013132 59.186198,60.619128 C 61.451987,60.028056 60.267181,55.887821 57.705889,55.887887 C 55.940187,55.534920 52.241244,55.594978 52.044176,61.899775 z "
     style="font-size:12.000000;fill:#470000;fill-rule:evenodd;stroke-width:1.0000000pt"
     id="path611" />
  <path
     d="M 53.029319,60.028056 C 53.029319,60.028056 57.265262,59.633985 58.348906,59.633985 C 59.629552,59.907873 59.716148,57.964722 58.644409,57.269695 C 56.772756,55.989049 54.211398,55.890548 53.029319,60.028056 z "
     style="font-size:12.000000;fill:#bc0000;fill-rule:evenodd;stroke-width:1.0000000pt"
     id="path604" />
  <path
     d="M 65.441710,61.210135 C 65.441710,61.971472 64.801820,62.589348 64.013279,62.589348 C 63.224806,62.589348 62.584915,61.971472 62.584915,61.210135 C 62.584915,60.448863 63.224806,59.830987 64.013279,59.830987 C 64.801820,59.830987 65.441710,60.448863 65.441710,61.210135 z "
     style="font-size:12.000000;fill:#bc0000;fill-rule:evenodd;stroke-width:1.0000000pt"
     id="path606" />
  <path
     d="M 33.918060,55.693546 C 35.691278,53.526324 37.661498,51.950108 42.685582,52.442680 C 41.109433,43.675092 35.494276,20.032408 31.455269,22.199663 C 26.923803,22.987757 31.159766,49.388816 33.918060,55.693546 z "
     style="font-size:12.000000;fill:url(#linearGradient617);fill-rule:evenodd;stroke-width:1.0000000pt"
     id="path621" />
  <path
     d="M 39.927287,51.851541 C 37.731599,51.951837 30.724659,22.239695 33.425489,23.874393 C 34.060923,24.318545 43.875775,51.848415 39.927287,51.851541 z "
     style="font-size:12.000000;fill:#f2d0a8;fill-rule:evenodd;stroke-width:1.0000000pt"
     id="path622" />
  <path
     d="M 41.306435,53.132253 L 41.700505,57.663765 L 39.434716,58.156337 L 38.449639,53.230688 C 38.449639,53.230688 41.109433,52.935251 41.306435,53.132253 z "
     style="font-size:12.000000;fill:#f2f2f2;fill-rule:evenodd;stroke-width:1.0000000pt"
     id="path623" />
  <path
     d="M 37.562997,61.111633 C 38.055569,58.944412 41.799006,57.466763 43.473656,59.239915 C 47.512664,61.505704 45.739446,67.120860 43.966228,67.219361 C 43.473656,74.213665 48.202237,70.371660 48.103736,68.894078 C 51.650105,68.401507 48.793310,73.425590 46.429019,73.130021 C 43.178153,73.622592 34.509133,70.667296 37.562997,61.111633 z "
     style="font-size:12.000000;fill:url(#linearGradient625);stroke-width:1.0000000pt"
     id="path624" />
  <path
     d="M 68.142372,18.538735 C 68.711927,18.271691 69.798457,18.252596 71.401810,18.481609 C 72.741955,18.673677 73.889496,18.930328 74.844433,19.251563 C 75.621353,19.517867 76.124224,19.854604 76.352855,20.261711 C 76.166285,21.010175 75.958122,21.756371 75.728530,22.500455 C 74.994908,24.878046 74.041943,27.263411 72.869531,29.656206 C 72.557296,30.295046 72.073562,30.628547 71.418361,30.656614 C 71.177456,30.662026 70.980273,30.641056 70.826621,30.593646 C 70.503073,30.493813 70.338661,30.265906 70.333354,29.910021 C 71.024913,28.874488 71.579535,27.880841 71.997191,26.929178 L 64.964833,25.994923 C 64.758115,26.205642 64.366051,26.629382 63.788734,27.266173 C 63.430464,27.881912 62.913166,28.151894 62.236873,28.076022 C 62.065103,28.058499 61.942874,28.038470 61.870062,28.016004 C 61.481919,27.896240 61.335162,27.682676 61.429983,27.375372 C 61.457433,27.286411 61.506379,27.199687 61.576754,27.115075 C 64.158932,24.200649 66.347513,21.341847 68.142372,18.538735 z M 73.188424,21.862782 C 73.154402,21.542305 72.817951,21.283500 72.179073,21.086369 C 71.758537,20.956611 71.217307,20.873750 70.555194,20.837731 C 69.804847,20.801070 69.281408,20.861003 68.985192,21.017524 C 68.387078,21.922505 67.696825,22.838824 66.914596,23.766636 L 72.889654,24.294909 C 73.053988,23.504213 73.153566,22.693430 73.188424,21.862782 z M 64.143831,19.656597 C 63.979338,19.960088 63.690781,20.163346 63.278163,20.266369 C 62.900350,20.371236 62.537580,20.370022 62.189762,20.262701 C 61.753077,20.127959 61.496631,19.796410 61.420549,19.267987 C 61.405316,18.829294 61.384832,18.393376 61.359067,17.960329 C 59.288684,17.321499 57.542669,17.354049 56.120832,18.057925 C 54.672882,18.789114 53.779263,19.647183 53.440037,20.631941 C 53.116326,21.594906 53.414953,22.435522 54.335948,23.153694 C 54.556728,23.328143 54.820799,23.462684 55.128103,23.557504 C 56.155125,23.874399 57.691552,23.803759 59.737290,23.345557 C 59.786504,23.272207 59.849726,23.167702 59.926928,23.032137 C 59.767959,22.743852 59.421514,22.517441 58.887746,22.352743 C 57.901049,22.048290 56.953155,21.977256 56.043904,22.139483 C 55.595420,21.956833 55.378856,21.611007 55.394117,21.101978 C 55.397392,21.005558 55.411437,20.916960 55.436410,20.836026 C 55.546209,20.480180 55.833565,20.223494 56.298441,20.065745 C 56.940339,19.679220 57.904180,19.684327 59.190059,20.081094 C 59.578297,20.200888 60.058810,20.380130 60.631662,20.618947 C 61.388084,20.923195 61.801495,21.090629 61.871831,21.121122 C 62.602402,21.824910 62.884116,22.447654 62.716911,22.989544 C 62.637068,23.248307 62.449206,23.584460 62.153198,23.998071 C 61.707261,24.639819 61.236469,25.017186 60.741073,25.130040 C 59.713469,25.503879 58.581698,25.712669 57.345856,25.756438 C 56.083331,25.800871 54.942510,25.665910 53.923515,25.351493 C 52.435441,24.892337 51.472222,24.081391 51.033857,22.918656 C 50.660651,21.917828 50.623735,20.932126 50.923175,19.961673 C 51.055441,19.533014 51.246847,19.113814 51.497327,18.703946 C 52.631216,16.866061 54.386245,15.742362 56.762387,15.332945 C 58.786195,14.974303 60.910779,15.164783 63.135985,15.904549 C 63.863785,16.244235 64.308320,16.669298 64.469716,17.179672 C 64.596915,17.599749 64.547858,18.217967 64.322606,19.034136 C 64.298764,19.283700 64.239151,19.491145 64.143831,19.656597 z M 43.450534,15.330879 C 43.919102,14.501147 44.437182,13.669007 45.004706,12.834331 C 43.950139,12.606369 42.861940,12.430087 41.740137,12.305391 C 41.681092,12.295963 41.607011,12.277605 41.518050,12.250155 C 41.226895,12.160317 41.022965,11.960089 40.906260,11.649472 C 40.797580,11.341331 40.789432,11.037732 40.881776,10.738456 C 41.006552,10.334068 41.369535,9.9899952 41.970879,9.7060739 C 43.992962,9.9845454 45.874633,10.388076 47.615947,10.916476 C 49.540705,11.510373 51.335476,12.095140 53.000136,12.670840 C 53.110015,13.032411 53.102552,13.415437 52.977806,13.819729 C 52.862995,14.191818 52.675467,14.483808 52.415196,14.695793 C 52.128809,14.935093 51.801650,15.033507 51.433965,14.990906 C 50.133312,14.412403 48.865522,13.928182 47.630661,13.538366 C 45.883834,15.381987 44.619824,17.569341 43.838761,20.100680 C 43.761396,20.351415 43.690913,20.608671 43.627219,20.872416 C 43.463328,21.202780 43.219839,21.446524 42.896749,21.603650 C 42.576137,21.752748 42.246030,21.774904 41.906333,21.670088 C 41.550487,21.560289 41.241514,21.270092 40.979319,20.799464 C 41.715771,18.785785 42.539541,16.962932 43.450534,15.330879 z M 36.297934,17.800487 C 36.173157,18.204874 35.869287,18.500837 35.386323,18.688377 C 34.911386,18.878393 34.455575,18.906030 34.018795,18.771258 C 33.857116,18.721371 33.714967,18.650928 33.592412,18.560055 C 33.237941,18.273503 33.124347,17.923974 33.251600,17.511560 C 33.338932,17.228527 33.524884,16.984715 33.809427,16.780219 C 34.349892,16.406664 34.911216,16.309757 35.493526,16.489433 C 35.663327,16.541827 35.816374,16.620027 35.952542,16.724101 C 36.317545,17.005006 36.432676,17.363802 36.297934,17.800487 z "
     style="font-size:13.000000;font-weight:bold;fill:#3c4d66;fill-opacity:0.99330503;stroke-width:1.0000000pt;font-family:Kid Kosmic"
     id="path1007" />
</svg>
