<?xml version="1.0" encoding="UTF-8" standalone="no"?>
<!DOCTYPE svg PUBLIC "-//W3C//DTD SVG 20010904//EN"
"http://www.w3.org/TR/2001/REC-SVG-20010904/DTD/svg10.dtd">
<!-- Created with Sodipodi ("http://www.sodipodi.com/") -->
<svg
   id="svg604"
   sodipodi:version="0.32"
   width="72pt"
   height="72pt"
   sodipodi:docbase="/home/zeus/.icons/gartoon/scalable/mimetypes"
   sodipodi:docname="gnome-mime-application-qif.svg"
   xmlns="http://www.w3.org/2000/svg"
   xmlns:sodipodi="http://sodipodi.sourceforge.net/DTD/sodipodi-0.dtd"
   xmlns:xlink="http://www.w3.org/1999/xlink"
   xmlns:inkscape="http://www.inkscape.org/namespaces/inkscape"
   inkscape:version="0.40"
   xmlns:rdf="http://www.w3.org/1999/02/22-rdf-syntax-ns#"
   xmlns:cc="http://web.resource.org/cc/"
   xmlns:dc="http://purl.org/dc/elements/1.1/">
  <metadata
     id="metadata14">
    <rdf:RDF
       id="RDF15">
      <cc:Work
         rdf:about=""
         id="Work16">
        <dc:format
           id="format17">image/svg+xml</dc:format>
        <dc:type
           id="type19"
           rdf:resource="http://purl.org/dc/dcmitype/StillImage" />
      </cc:Work>
    </rdf:RDF>
  </metadata>
  <defs
     id="defs606">
    <linearGradient
       id="linearGradient612">
      <stop
         style="stop-color:#7fa8e3;stop-opacity:0.741176;"
         offset="0.000000"
         id="stop613" />
      <stop
         style="stop-color:#ffffff;stop-opacity:0;"
         offset="1.000000"
         id="stop614" />
    </linearGradient>
    <linearGradient
       xlink:href="#linearGradient612"
       id="linearGradient615"
       x1="50.6438866"
       y1="5.36792946"
       x2="35.7520943"
       y2="68.0443573"
       gradientUnits="userSpaceOnUse"
       spreadMethod="pad" />
  </defs>
  <sodipodi:namedview
     id="base"
     inkscape:zoom="5.0416667"
     inkscape:cx="36.000000"
     inkscape:cy="36.000000"
     inkscape:window-width="640"
     inkscape:window-height="536"
     inkscape:window-x="5"
     inkscape:window-y="48"
     inkscape:current-layer="svg604" />
  <path
     style="fill:#000000;fill-rule:evenodd;stroke:none;stroke-opacity:1;stroke-width:1pt;stroke-linejoin:miter;stroke-linecap:butt;fill-opacity:0.301471;"
     d="M 12.8163 74.753 C 10.3856 73.6481 7.07107 70.1126 8.83884 65.2512 C 9.72267 59.948 25.6326 13.1021 29.1682 10.8924 C 31.3778 8.90368 34.582 8.13026 39.1119 9.34561 C 42.8684 10.2295 76.6769 19.0684 78.6656 20.8361 C 80.6544 22.6039 82.2012 24.0402 80.6544 27.9072 C 79.5496 29.8959 66.4017 74.532 66.1808 77.4047 C 65.2969 80.4983 62.7558 84.2548 58.5573 84.0338 C 54.3589 83.8128 15.9099 75.4159 12.8163 74.753 z "
     id="path794"
     sodipodi:nodetypes="ccccccccc"
     transform="matrix(1.114903,0.000000,0.000000,1.114903,-5.305332,-3.889256)" />
  <path
     style="fill:#3d4e67;fill-rule:evenodd;stroke:none;stroke-opacity:1;stroke-width:1pt;stroke-linejoin:miter;stroke-linecap:butt;fill-opacity:1;"
     d="M 12.8163 74.753 C 10.3856 73.6481 7.07107 70.1126 8.83884 65.2512 C 9.72267 59.948 25.6326 13.1021 29.1682 10.8924 C 31.3778 8.90368 34.582 8.13026 39.1119 9.34561 C 42.8684 10.2295 76.6769 19.0684 78.6656 20.8361 C 80.6544 22.6039 82.2012 24.0402 80.6544 27.9072 C 79.5496 29.8959 66.4017 74.532 66.1808 77.4047 C 65.2969 80.4983 62.7558 84.2548 58.5573 84.0338 C 54.3589 83.8128 15.9099 75.4159 12.8163 74.753 z "
     id="path609"
     sodipodi:nodetypes="ccccccccc"
     transform="matrix(1.114903,0.000000,0.000000,1.114903,-8.162471,-8.460684)" />
  <path
     style="fill:#ffffff;fill-rule:evenodd;stroke:none;stroke-opacity:1;stroke-width:1pt;stroke-linejoin:miter;stroke-linecap:butt;fill-opacity:1;"
     d="M 17.8987 70.9965 C 15.3576 70.3336 11.7114 69.6706 13.0373 65.6932 C 15.468 55.9705 27.8424 18.6264 33.1456 13.986 C 34.361 12.8811 38.4489 12.4392 46.1829 14.8699 C 55.0218 17.5215 72.9204 23.4877 74.6882 24.3716 C 76.4559 25.2555 77.1189 25.2555 75.793 29.233 C 73.8043 33.2105 64.9655 67.24 62.7557 72.9852 C 61.209 77.0732 60.8775 78.9514 58.2258 78.9514 "
     id="path608"
     sodipodi:nodetypes="cccccccs"
     transform="matrix(1.114903,0.000000,0.000000,1.114903,-8.162471,-8.460684)" />
  <path
     style="fill:url(#linearGradient615);fill-rule:evenodd;stroke:none;stroke-opacity:1;stroke-width:1pt;stroke-linejoin:miter;stroke-linecap:butt;fill-opacity:1;"
     d="M 28.75 13.75 C 28.75 13.75 31.875 7.49995 39.6875 9.37495 C 47.5 11.25 78.125 19.375 77.8125 21.875 C 77.5 24.375 71.875 39.0625 71.5625 40.3125 C 71.25 41.5625 42.5 40.9375 31.5625 47.5 C 20.625 54.0625 12.5 59.6875 12.5 59.6875 C 12.5 59.6875 23.75 24.6875 28.75 13.75 z "
     id="path636"
     transform="matrix(0.946780,0.000000,0.000000,0.946780,-0.480566,0.409517)" />
  <path
     style="font-size:28.000000;font-weight:normal;fill:#2aaf18;fill-opacity:1.0000000;stroke:#0d3c07;stroke-width:1.5000000;stroke-linecap:square;stroke-linejoin:bevel;stroke-opacity:1.0000000;font-family:Kid Kosmic"
     d="M 21.907738,66.230245 L 22.042088,64.832545 C 22.084938,64.375545 22.138638,63.911575 22.203158,63.440615 C 18.412858,62.770305 15.284688,61.021545 12.818648,58.194365 C 12.567278,57.804305 12.485888,57.404375 12.574498,56.994575 C 12.632278,56.727315 12.767118,56.448735 12.978998,56.158835 C 13.381088,55.593015 13.831588,55.364035 14.330468,55.471905 C 14.473018,55.502725 14.618688,55.562195 14.767488,55.650315 C 15.663178,56.683245 16.688878,57.632375 17.844608,58.497725 C 18.688778,59.165155 19.805738,59.649115 21.195498,59.949595 C 21.640938,60.045905 22.118878,60.121275 22.629318,60.175685 C 22.949548,57.745765 23.370428,55.281655 23.891938,52.783365 C 21.662828,51.965695 20.478928,51.532545 20.340238,51.483905 C 18.968778,50.926265 17.874928,50.335415 17.058688,49.711325 C 15.368918,48.469405 14.732068,46.886305 15.148118,44.962015 C 15.217468,44.641295 15.317378,44.308545 15.447888,43.963745 C 16.204398,42.448785 17.909568,41.549235 20.563408,41.265115 C 22.472278,41.062375 24.528278,41.171195 26.731378,41.591585 C 26.942778,40.872625 27.132268,40.298135 27.299848,39.868115 C 27.676418,39.334065 28.173628,38.975315 28.791458,38.791835 C 29.413138,38.590545 30.047828,38.587895 30.695508,38.783885 C 31.165028,38.941355 31.542078,39.181405 31.826688,39.504045 C 32.170998,39.895545 32.294988,40.314015 32.198678,40.759445 C 32.175568,40.866355 32.141618,40.980245 32.096838,41.101115 C 31.748198,41.678495 31.437118,42.254675 31.163588,42.829645 C 33.878588,43.901575 35.856578,45.233785 37.097538,46.826285 C 37.118728,47.073315 37.106208,47.303735 37.059978,47.517545 C 36.932848,48.105515 36.558928,48.584185 35.938208,48.953545 C 35.512518,49.197205 35.148218,49.286305 34.845318,49.220805 C 34.488968,49.143765 34.199798,48.885405 33.977798,48.445755 C 32.512438,47.718605 31.032858,47.100305 29.539088,46.590825 C 29.044058,47.845275 28.620288,49.115115 28.267808,50.400385 C 29.560288,50.978245 30.509918,51.416705 31.116668,51.715745 C 32.340298,52.353315 33.205648,52.922745 33.712718,53.424035 C 34.815008,54.967895 35.308598,56.221625 35.193508,57.185205 C 35.074568,58.166615 34.695108,59.231565 34.055128,60.380065 C 32.153008,62.449305 29.503978,63.573745 26.108068,63.753375 C 26.075328,64.249845 26.050778,64.794725 26.034398,65.388005 C 25.822038,66.628965 25.275718,67.387405 24.395448,67.663345 C 24.132998,67.755795 23.868138,67.773135 23.600878,67.715345 C 23.012908,67.588225 22.448518,67.093195 21.907738,66.230245 z M 24.747158,48.827895 C 25.024538,47.545035 25.307918,46.449985 25.597338,45.542735 C 22.762918,45.023155 21.221468,45.165455 20.972988,45.969645 C 20.918088,46.051025 20.882928,46.127355 20.867518,46.198625 C 20.748098,46.750965 22.041318,47.627385 24.747158,48.827895 z M 27.317228,54.279295 C 26.901168,56.203585 26.586238,58.177715 26.372438,60.201675 C 26.443708,60.217085 26.565298,60.215405 26.737208,60.196615 C 28.413488,59.775735 29.543698,59.292735 30.127818,58.747615 C 30.265538,58.628195 30.355598,58.470485 30.397968,58.274495 C 30.525098,57.686515 30.161278,56.824535 29.306528,55.688555 C 28.813418,55.208935 28.150308,54.739175 27.317228,54.279295 z M 46.549288,71.558075 L 46.683638,70.160365 C 46.726488,69.703375 46.780188,69.239405 46.844708,68.768445 C 43.054398,68.098125 39.926238,66.349375 37.460198,63.522195 C 37.208818,63.132135 37.127438,62.732205 37.216048,62.322395 C 37.273828,62.055145 37.408668,61.776555 37.620548,61.486665 C 38.022638,60.920845 38.473138,60.691865 38.972018,60.799725 C 39.114568,60.830545 39.260228,60.890015 39.409038,60.978145 C 40.304728,62.011065 41.330428,62.960205 42.486158,63.825555 C 43.330328,64.492985 44.447288,64.976945 45.837048,65.277425 C 46.282488,65.373735 46.760418,65.449105 47.270868,65.503515 C 47.591098,63.073595 48.011978,60.609485 48.533488,58.111195 C 46.304368,57.293525 45.120478,56.860375 44.981788,56.811735 C 43.610328,56.254095 42.516478,55.663235 41.700238,55.039145 C 40.010468,53.797235 39.373618,52.214125 39.789668,50.289845 C 39.859018,49.969125 39.958928,49.636375 40.089438,49.291575 C 40.845948,47.776615 42.551118,46.877065 45.204958,46.592945 C 47.113828,46.390205 49.169818,46.499025 51.372928,46.919415 C 51.584328,46.200455 51.773818,45.625965 51.941398,45.195935 C 52.317968,44.661895 52.815168,44.303135 53.433008,44.119665 C 54.054688,43.918375 54.689368,43.915725 55.337058,44.111715 C 55.806578,44.269175 56.183628,44.509235 56.468228,44.831875 C 56.812548,45.223375 56.936538,45.641845 56.840228,46.087275 C 56.817118,46.194185 56.783168,46.308075 56.738388,46.428945 C 56.389748,47.006325 56.078668,47.582505 55.805138,48.157475 C 58.520138,49.229405 60.498118,50.561615 61.739078,52.154105 C 61.760278,52.401145 61.747758,52.631565 61.701528,52.845375 C 61.574398,53.433345 61.200478,53.912015 60.579758,54.281375 C 60.154068,54.525035 59.789768,54.614125 59.486868,54.548635 C 59.130518,54.471595 58.841348,54.213235 58.619348,53.773575 C 57.153978,53.046435 55.674408,52.428125 54.180628,51.918655 C 53.685598,53.173095 53.261838,54.442945 52.909348,55.728215 C 54.201838,56.306075 55.151458,56.744525 55.758208,57.043565 C 56.981838,57.681135 57.847198,58.250575 58.354268,58.751865 C 59.456558,60.295725 59.950138,61.549445 59.835058,62.513025 C 59.716108,63.494435 59.336658,64.559385 58.696678,65.707895 C 56.794548,67.777125 54.145528,68.901565 50.749618,69.081195 C 50.716878,69.577675 50.692318,70.122545 50.675948,70.715825 C 50.463588,71.956785 49.917268,72.715235 49.036988,72.991165 C 48.774548,73.083625 48.509688,73.100965 48.242428,73.043175 C 47.654458,72.916045 47.090078,72.421015 46.549288,71.558075 z M 49.388708,54.155725 C 49.666088,52.872865 49.949468,51.777805 50.238878,50.870555 C 47.404468,50.350975 45.863008,50.493275 45.614538,51.297465 C 45.559638,51.378855 45.524478,51.455185 45.509068,51.526455 C 45.389648,52.078795 46.682868,52.955205 49.388708,54.155725 z M 51.958778,59.607125 C 51.542718,61.531405 51.227778,63.505545 51.013978,65.529495 C 51.085258,65.544915 51.206848,65.543225 51.378758,65.524445 C 53.055038,65.103565 54.185248,64.620565 54.769358,64.075445 C 54.907088,63.956025 54.997148,63.798315 55.039518,63.602325 C 55.166648,63.014345 54.802828,62.152365 53.948078,61.016385 C 53.454958,60.536755 52.791858,60.067005 51.958778,59.607125 z "
     id="path626" />
  <path
     style="font-size:16.000000;font-weight:bold;fill:#3d4e67;stroke-width:1.0000000;font-family:Kid Kosmic"
     d="M 28.363014,26.923479 C 28.218388,27.423836 27.850952,27.794722 27.260701,28.036147 C 26.680459,28.280475 26.120150,28.324532 25.579771,28.168338 C 25.379624,28.110486 25.203170,28.026954 25.050409,27.917741 C 24.607910,27.572981 24.460414,27.145420 24.607930,26.635062 C 24.709166,26.284819 24.932601,25.980734 25.278231,25.722815 C 25.935010,25.251223 26.623653,25.119556 27.344158,25.327814 C 27.554306,25.388556 27.744319,25.481431 27.914207,25.606441 C 28.369607,25.944094 28.519208,26.383100 28.363014,26.923479 z M 43.575124,30.621090 C 41.531211,31.765202 39.441480,32.223794 37.305929,31.996875 C 37.076166,32.266602 36.737304,32.651171 36.289342,33.150581 C 35.604337,33.494745 35.016664,33.595951 34.526326,33.454221 C 34.356200,33.405047 34.179088,33.305065 33.994973,33.154260 C 33.489766,32.726316 33.315266,32.242151 33.471460,31.701772 C 33.494599,31.621719 33.524182,31.538095 33.560225,31.450925 C 33.755275,31.301292 33.933876,31.152317 34.096024,31.004010 C 33.330403,30.576689 32.673882,30.034526 32.126463,29.377512 C 30.793476,27.799484 30.368501,26.174879 30.851544,24.503710 C 31.320126,22.882573 32.584733,21.339722 34.645368,19.875151 C 37.250901,18.025928 39.819557,17.467216 42.351336,18.199014 C 43.932442,18.656025 45.204356,19.620038 46.167089,21.091046 C 47.431752,23.017994 47.824008,24.812047 47.343856,26.473216 C 46.878167,28.084343 45.621919,29.466973 43.575124,30.621090 z M 41.823787,28.520942 C 42.914462,27.936224 43.582730,27.218565 43.828592,26.367965 C 43.987679,25.817576 43.953736,25.222239 43.726773,24.581956 C 43.026094,22.579474 41.975263,21.375765 40.574283,20.970818 C 38.973157,20.508021 37.155920,21.224292 35.122586,23.119625 C 34.468234,23.732883 34.047049,24.364737 33.859039,25.015190 C 33.676813,25.645632 33.729320,26.251758 34.016562,26.833559 C 34.475884,27.757872 35.113366,28.440918 35.929022,28.882691 C 36.377684,28.155778 36.698909,27.457078 36.892707,26.786605 C 37.126997,25.976036 37.186053,25.152769 37.069864,24.316801 C 37.288993,23.783767 37.609947,23.404868 38.032740,23.180089 C 38.458423,22.945309 38.945007,22.912471 39.492505,23.081559 C 40.009980,23.241979 40.402559,23.534368 40.670253,23.958718 C 40.947958,24.385963 41.058078,24.867778 41.000625,25.404169 C 40.585666,26.802265 39.974131,28.148954 39.166017,29.444247 C 40.037790,29.316724 40.923711,29.008952 41.823787,28.520942 z M 54.083934,21.330029 C 54.564271,21.468868 54.951303,21.705431 55.245029,22.039719 C 55.590118,22.421392 55.697583,22.837382 55.567421,23.287698 C 55.544282,23.367751 55.516136,23.446366 55.482996,23.523529 C 52.727003,27.768954 50.677391,31.464959 49.334160,34.611545 C 48.919743,35.370049 48.315931,35.602141 47.522717,35.307808 C 46.719493,35.010581 46.388866,34.578876 46.530833,34.012702 C 48.002421,30.534550 50.075558,26.400771 52.750242,21.611376 C 53.159033,21.284972 53.603597,21.191190 54.083934,21.330029 z M 62.309702,30.685161 C 64.696990,30.941479 66.390247,30.991756 67.389459,30.836011 C 68.075017,31.240190 68.329583,31.747487 68.153141,32.357919 C 68.124215,32.457992 68.083835,32.560167 68.032008,32.664457 C 67.674967,33.374487 67.082919,33.734673 66.255866,33.745005 L 56.518753,32.882295 C 56.151079,33.329018 55.918074,33.722501 55.819729,34.062743 C 55.767664,34.242870 55.749961,34.416658 55.766616,34.584118 C 55.804140,34.941950 55.769398,35.305989 55.662375,35.676252 C 55.587171,35.936431 55.472602,36.201502 55.318678,36.471457 C 54.887831,36.986671 54.304935,37.165163 53.569968,37.006936 C 52.824988,36.845826 52.413957,36.504738 52.336864,35.983670 C 52.871972,34.132374 53.630244,32.296784 54.611682,30.476900 C 55.574429,28.684153 56.790518,26.633917 58.259939,24.326190 C 59.687558,23.513572 63.496988,24.045402 69.688209,25.921685 C 70.332809,26.617634 70.565442,27.275825 70.386109,27.896257 C 70.183635,28.596752 69.547762,29.014742 68.478508,29.150242 C 67.187204,28.440869 65.911111,27.903951 64.650226,27.539498 C 63.426479,27.196627 61.867545,27.206847 59.973419,27.570178 C 59.242059,28.562364 58.652837,29.400458 58.205743,30.084459 C 58.929139,30.282717 60.297125,30.482951 62.309702,30.685161 z "
     id="path637" />
</svg>
