<?xml version="1.0" encoding="UTF-8" standalone="no"?>
<!DOCTYPE svg PUBLIC "-//W3C//DTD SVG 20010904//EN"
"http://www.w3.org/TR/2001/REC-SVG-20010904/DTD/svg10.dtd">
<!-- Created with Sodipodi ("http://www.sodipodi.com/") -->
<svg
   id="svg604"
   sodipodi:version="0.32"
   width="72pt"
   height="72pt"
   sodipodi:docbase="/home/zeus/.icons/gartoon/scalable/mimetypes"
   sodipodi:docname="gnome-mime-application-x-font-pcf.svg"
   xmlns="http://www.w3.org/2000/svg"
   xmlns:sodipodi="http://sodipodi.sourceforge.net/DTD/sodipodi-0.dtd"
   xmlns:xlink="http://www.w3.org/1999/xlink"
   xmlns:inkscape="http://www.inkscape.org/namespaces/inkscape"
   inkscape:version="0.40"
   xmlns:rdf="http://www.w3.org/1999/02/22-rdf-syntax-ns#"
   xmlns:cc="http://web.resource.org/cc/"
   xmlns:dc="http://purl.org/dc/elements/1.1/">
  <metadata
     id="metadata14">
    <rdf:RDF
       id="RDF15">
      <cc:Work
         rdf:about=""
         id="Work16">
        <dc:format
           id="format17">image/svg+xml</dc:format>
        <dc:type
           id="type19"
           rdf:resource="http://purl.org/dc/dcmitype/StillImage" />
      </cc:Work>
    </rdf:RDF>
  </metadata>
  <defs
     id="defs606">
    <linearGradient
       id="linearGradient612">
      <stop
         style="stop-color:#7fa8e3;stop-opacity:0.741176;"
         offset="0.000000"
         id="stop613" />
      <stop
         style="stop-color:#ffffff;stop-opacity:0;"
         offset="1.000000"
         id="stop614" />
    </linearGradient>
    <linearGradient
       xlink:href="#linearGradient612"
       id="linearGradient615"
       x1="50.6438866"
       y1="5.36792946"
       x2="35.7520943"
       y2="68.0443573"
       gradientUnits="userSpaceOnUse"
       spreadMethod="pad" />
  </defs>
  <sodipodi:namedview
     id="base"
     inkscape:zoom="5.0416667"
     inkscape:cx="36.000000"
     inkscape:cy="36.000000"
     inkscape:window-width="640"
     inkscape:window-height="536"
     inkscape:window-x="5"
     inkscape:window-y="48"
     inkscape:current-layer="svg604" />
  <path
     style="fill:#000000;fill-rule:evenodd;stroke:none;stroke-opacity:1;stroke-width:1pt;stroke-linejoin:miter;stroke-linecap:butt;fill-opacity:0.301471;"
     d="M 12.8163 74.753 C 10.3856 73.6481 7.07107 70.1126 8.83884 65.2512 C 9.72267 59.948 25.6326 13.1021 29.1682 10.8924 C 31.3778 8.90368 34.582 8.13026 39.1119 9.34561 C 42.8684 10.2295 76.6769 19.0684 78.6656 20.8361 C 80.6544 22.6039 82.2012 24.0402 80.6544 27.9072 C 79.5496 29.8959 66.4017 74.532 66.1808 77.4047 C 65.2969 80.4983 62.7558 84.2548 58.5573 84.0338 C 54.3589 83.8128 15.9099 75.4159 12.8163 74.753 z "
     id="path794"
     sodipodi:nodetypes="ccccccccc"
     transform="matrix(1.114903,0.000000,0.000000,1.114903,-5.305332,-3.889256)" />
  <path
     style="fill:#3d4e67;fill-rule:evenodd;stroke:none;stroke-opacity:1;stroke-width:1pt;stroke-linejoin:miter;stroke-linecap:butt;fill-opacity:1;"
     d="M 12.8163 74.753 C 10.3856 73.6481 7.07107 70.1126 8.83884 65.2512 C 9.72267 59.948 25.6326 13.1021 29.1682 10.8924 C 31.3778 8.90368 34.582 8.13026 39.1119 9.34561 C 42.8684 10.2295 76.6769 19.0684 78.6656 20.8361 C 80.6544 22.6039 82.2012 24.0402 80.6544 27.9072 C 79.5496 29.8959 66.4017 74.532 66.1808 77.4047 C 65.2969 80.4983 62.7558 84.2548 58.5573 84.0338 C 54.3589 83.8128 15.9099 75.4159 12.8163 74.753 z "
     id="path609"
     sodipodi:nodetypes="ccccccccc"
     transform="matrix(1.114903,0.000000,0.000000,1.114903,-8.162471,-8.460684)" />
  <path
     style="fill:#ffffff;fill-rule:evenodd;stroke:none;stroke-opacity:1;stroke-width:1pt;stroke-linejoin:miter;stroke-linecap:butt;fill-opacity:1;"
     d="M 17.8987 70.9965 C 15.3576 70.3336 11.7114 69.6706 13.0373 65.6932 C 15.468 55.9705 27.8424 18.6264 33.1456 13.986 C 34.361 12.8811 38.4489 12.4392 46.1829 14.8699 C 55.0218 17.5215 72.9204 23.4877 74.6882 24.3716 C 76.4559 25.2555 77.1189 25.2555 75.793 29.233 C 73.8043 33.2105 64.9655 67.24 62.7557 72.9852 C 61.209 77.0732 60.8775 78.9514 58.2258 78.9514 "
     id="path608"
     sodipodi:nodetypes="cccccccs"
     transform="matrix(1.114903,0.000000,0.000000,1.114903,-8.162471,-8.460684)" />
  <path
     style="fill:url(#linearGradient615);fill-rule:evenodd;stroke:none;stroke-opacity:1;stroke-width:1pt;stroke-linejoin:miter;stroke-linecap:butt;fill-opacity:1;"
     d="M 28.75 13.75 C 28.75 13.75 31.875 7.49995 39.6875 9.37495 C 47.5 11.25 78.125 19.375 77.8125 21.875 C 77.5 24.375 71.875 39.0625 71.5625 40.3125 C 71.25 41.5625 42.5 40.9375 31.5625 47.5 C 20.625 54.0625 12.5 59.6875 12.5 59.6875 C 12.5 59.6875 23.75 24.6875 28.75 13.75 z "
     id="path636"
     transform="matrix(0.946780,0.000000,0.000000,0.946780,-0.480566,0.409517)" />
  <g
     id="g1070">
    <path
       style="font-size:36.000000;font-weight:bold;fill:#000000;fill-opacity:0.29929999;stroke-width:1.0000000;font-family:Bitstream Vera Serif"
       d="M 10.204527,62.387422 L 10.725947,60.241302 L 12.805037,60.788452 L 28.294747,38.974422 L 32.367737,40.046312 L 36.049977,66.905872 L 38.469907,67.542732 L 37.948487,69.688852 L 26.036307,66.553892 L 26.557717,64.407782 L 29.045817,65.062572 L 28.263997,59.101282 L 18.703577,56.585242 L 15.259047,61.434282 L 18.292477,62.232592 L 17.771057,64.378712 L 10.204527,62.387422 z M 20.060037,54.658882 L 27.950367,56.735402 L 26.491327,45.576292 L 20.060037,54.658882 z M 59.593537,63.062722 L 57.301037,72.498572 L 59.891377,73.180282 L 59.369957,75.326402 L 50.746837,73.057032 L 51.328587,70.662592 C 50.291987,71.446552 49.227707,71.946442 48.135737,72.162282 C 47.043757,72.378112 45.872907,72.321602 44.623177,71.992702 C 42.771307,71.505342 41.470447,70.615732 40.720597,69.323912 C 39.984987,68.023232 39.851317,66.409222 40.319587,64.481842 C 40.833817,62.365282 41.928847,60.967682 43.604677,60.289062 C 45.291867,59.613432 47.572647,59.653832 50.447017,60.410292 L 53.616777,61.244482 L 53.888257,60.127082 C 54.258857,58.601742 54.185257,57.387232 53.667467,56.483562 C 53.152547,55.568062 52.167977,54.918952 50.713747,54.536242 C 49.509477,54.219302 48.514657,54.234272 47.729297,54.581122 C 46.958177,54.919152 46.294087,55.637582 45.737007,56.736432 L 43.811287,56.229632 L 44.798097,52.167962 C 45.975097,52.049982 47.167417,52.042972 48.375097,52.146932 C 49.582777,52.250892 50.828517,52.471802 52.112327,52.809672 C 55.350257,53.661802 57.566807,54.911892 58.761967,56.559952 C 59.968477,58.211002 60.245667,60.378582 59.593537,63.062722 z M 52.186117,67.133022 L 53.103977,63.355142 L 50.837427,62.758642 C 49.712677,62.462632 48.771667,62.554652 48.014387,63.034712 C 47.257107,63.514762 46.733407,64.351912 46.443247,65.546182 C 46.153097,66.740432 46.152057,67.689982 46.440147,68.394822 C 46.739587,69.102652 47.338067,69.574662 48.235607,69.810872 C 49.167217,70.056052 49.994627,69.934122 50.717817,69.445112 C 51.440997,68.956092 51.930437,68.185392 52.186117,67.133022 z "
       id="path631" />
    <path
       style="font-size:36.000000;font-weight:bold;fill:#3d4e67;stroke-width:1.0000000;font-family:Bitstream Vera Serif"
       d="M 9.6349124,61.185432 L 10.156328,59.123384 L 12.235420,59.649109 L 27.725132,38.689614 L 31.798117,39.719520 L 35.480359,65.526891 L 37.900283,66.138800 L 37.378868,68.200848 L 25.466687,65.188700 L 25.988102,63.126652 L 28.476201,63.755799 L 27.694379,58.028030 L 18.133958,55.610555 L 14.689431,60.269637 L 17.722856,61.036678 L 17.201440,63.098726 L 9.6349124,61.185432 z M 19.490421,53.759659 L 27.380747,55.754830 L 25.921712,45.032870 L 19.490421,53.759659 z M 59.023921,61.834287 L 56.731414,70.900493 L 59.321755,71.555494 L 58.800340,73.617543 L 50.177217,71.437075 L 50.758963,69.136437 C 49.722367,69.889683 48.658084,70.369993 47.566114,70.577378 C 46.474134,70.784761 45.303289,70.730455 44.053554,70.414443 C 42.201690,69.946176 40.900826,69.091421 40.150979,67.850193 C 39.415366,66.600475 39.281699,65.049686 39.749969,63.197813 C 40.264201,61.164171 41.359232,59.821318 43.035054,59.169274 C 44.722247,58.520116 47.003026,58.558937 49.877397,59.285758 L 53.047161,60.087274 L 53.318641,59.013645 C 53.689235,57.548054 53.615638,56.381124 53.097852,55.512856 C 52.582931,54.633213 51.598360,54.009538 50.144131,53.641817 C 48.939855,53.337300 47.945036,53.351672 47.159681,53.684944 C 46.388561,54.009727 45.724464,54.700019 45.167389,55.755821 L 43.241669,55.268878 L 44.228482,51.366319 C 45.405477,51.252956 46.597800,51.246225 47.805474,51.346111 C 49.013159,51.445999 50.258897,51.658255 51.542710,51.982884 C 54.780638,52.801635 56.997183,54.002756 58.192343,55.586255 C 59.398855,57.172624 59.676052,59.255299 59.023921,61.834287 z M 51.616497,65.745136 L 52.534362,62.115244 L 50.267810,61.542118 C 49.143061,61.257710 48.202043,61.346121 47.444771,61.807372 C 46.687492,62.268612 46.163786,63.072971 45.873630,64.220455 C 45.583476,65.367929 45.582436,66.280273 45.870526,66.957503 C 46.169969,67.637603 46.768451,68.091128 47.665991,68.318082 C 48.597599,68.553651 49.425005,68.436503 50.148197,67.966644 C 50.871380,67.496782 51.360816,66.756281 51.616497,65.745136 z "
       id="path630" />
  </g>
  <path
     style="font-size:12.000000;font-style:normal;font-variant:normal;font-weight:normal;font-stretch:normal;fill:#3d4e67;fill-opacity:1.0000000;stroke:none;stroke-width:1.0000000pt;stroke-linecap:butt;stroke-linejoin:miter;stroke-opacity:1.0000000;font-family:Kid Kosmic;text-anchor:start;writing-mode:lr"
     d="M 26.341112,19.794665 C 26.642649,20.018506 26.805476,20.295841 26.829592,20.626670 C 26.857838,20.981061 26.728757,21.282956 26.442351,21.532355 C 26.158994,21.771510 25.834998,21.903683 25.470365,21.928874 C 25.058618,21.962343 24.712224,21.870215 24.431184,21.652488 C 24.136834,21.441960 23.979133,21.166153 23.958076,20.825067 C 23.937020,20.483988 24.059447,20.185690 24.325361,19.930172 C 24.591272,19.674662 24.911670,19.535837 25.286558,19.513695 C 25.674745,19.484370 26.026264,19.578026 26.341112,19.794665 M 29.032393,23.007751 C 29.406236,20.518916 29.914043,18.198365 30.555814,16.046091 C 30.726950,15.472164 31.025641,14.601457 31.451887,13.433967 C 31.977000,11.972342 32.306084,11.205557 32.439137,11.133615 C 32.434995,11.110076 32.425734,11.084994 32.411354,11.058369 C 32.478953,11.056223 32.517881,11.056670 32.528135,11.059711 C 32.871896,10.805106 33.279951,10.709159 33.752300,10.771867 C 33.925444,10.790033 34.083761,10.820500 34.227252,10.863269 C 34.473219,10.936630 34.686470,11.044858 34.867006,11.187955 C 36.527838,11.381881 38.145894,11.719275 39.721176,12.200141 C 41.265689,12.671865 42.126520,13.190814 42.303672,13.756988 C 43.028753,16.115957 43.203356,17.925741 42.827477,19.186346 C 42.570755,20.047258 42.057006,20.647377 41.286229,20.986702 C 39.741577,21.675616 37.396056,21.550969 34.249659,20.612759 C 33.480986,20.383561 32.665120,20.106803 31.802057,19.782484 C 31.595881,20.848187 31.473676,21.894281 31.435440,22.920769 C 31.290908,23.480322 30.969261,23.791758 30.470498,23.855074 C 30.308674,23.873785 30.156021,23.861747 30.012540,23.818961 C 29.674324,23.718114 29.347609,23.447710 29.032393,23.007751 M 33.990891,13.789290 C 33.262579,15.034112 32.696281,16.371869 32.291992,17.802567 C 32.978849,18.118986 33.882371,18.438623 35.002563,18.761475 C 37.608825,19.527468 39.387509,19.438453 40.338619,18.494431 C 40.479743,18.357961 40.582399,18.182109 40.646589,17.966876 C 40.808546,17.423693 40.702780,16.655585 40.329286,15.662552 C 39.714677,15.066374 38.982050,14.641455 38.131404,14.387793 C 37.260240,14.128041 35.880069,13.928539 33.990891,13.789290 M 58.411563,21.154821 C 58.443748,21.421115 58.432343,21.646497 58.377350,21.830969 C 58.258148,22.230683 57.937395,22.464264 57.415091,22.531712 C 57.125237,22.568056 56.872705,22.554137 56.657493,22.489951 C 56.298768,22.382998 56.038670,22.132459 55.877200,21.738335 C 55.785654,21.521328 55.700589,21.189059 55.622003,20.741528 C 55.543390,20.294015 55.461921,19.968398 55.377596,19.764677 C 52.954711,19.019908 50.931228,19.125209 49.307141,20.080579 C 48.224404,20.717510 47.516485,21.594533 47.183382,22.711653 C 46.883885,23.716049 46.968893,24.628630 47.438408,25.449392 C 47.910969,26.259916 48.644322,26.813394 49.638471,27.109826 C 51.278283,27.598796 53.335923,27.397660 55.811395,26.506416 C 56.142216,26.482308 56.404998,26.499284 56.599740,26.557344 C 56.958436,26.664310 57.113529,26.911438 57.065020,27.298731 C 57.047750,27.394030 57.026898,27.482673 57.002465,27.564662 C 56.867984,28.015615 56.567822,28.311137 56.101977,28.451227 C 55.228871,28.871655 54.315043,29.129273 53.360492,29.224083 C 52.217489,29.351990 51.233074,29.359777 50.407246,29.247448 C 49.880595,29.179694 49.386674,29.077055 48.925480,28.939532 C 47.285654,28.450567 46.119948,27.550547 45.428359,26.239467 C 44.546692,24.592718 44.387743,22.955003 44.951511,21.326318 C 45.742687,19.084692 47.383477,17.699046 49.873890,17.169374 C 51.923957,16.731631 54.166094,16.903572 56.600309,17.685198 C 57.396837,18.045487 57.924133,18.504041 58.182196,19.060861 C 58.392934,19.514321 58.469389,20.212307 58.411563,21.154821 M 62.261041,25.985519 C 62.826886,26.221215 64.191235,26.455059 66.354093,26.687051 C 68.519989,26.908810 70.010008,26.945763 70.824155,26.797911 C 71.423980,27.144183 71.641927,27.610936 71.477996,28.198171 C 71.310980,28.795669 70.918130,29.102613 70.299446,29.119004 L 61.458271,28.340880 C 61.272370,28.664900 61.138165,28.965266 61.055657,29.241981 C 60.936466,29.641693 60.922732,30.005882 61.014455,30.334551 C 61.153648,30.878267 61.136150,31.442216 60.961960,32.026399 C 60.728058,32.436543 60.323152,32.578071 59.747242,32.450981 C 59.171328,32.323896 58.830319,32.082712 58.724218,31.727428 C 58.863640,29.949902 59.204353,28.171014 59.746354,26.390757 C 60.256711,24.679203 60.962228,22.668709 61.862906,20.359269 C 62.477797,19.906507 63.929337,19.904086 66.217528,20.352007 C 67.187921,20.540937 68.181968,20.781545 69.199676,21.073830 C 70.207109,21.363087 71.109011,21.632019 71.905382,21.880626 C 72.586674,22.552519 72.837174,23.190800 72.656884,23.795473 C 72.534626,24.205440 72.146808,24.458083 71.493429,24.553406 C 70.284570,23.891634 69.075463,23.380438 67.866107,23.019813 C 66.653673,22.669461 65.211394,22.696963 63.539267,23.102321 C 62.985000,24.287438 62.558925,25.248503 62.261041,25.985519"
     id="text1073" />
</svg>
