<?xml version="1.0" encoding="UTF-8" standalone="no"?>
<!DOCTYPE svg PUBLIC "-//W3C//DTD SVG 20010904//EN"
"http://www.w3.org/TR/2001/REC-SVG-20010904/DTD/svg10.dtd">
<!-- Created with Sodipodi ("http://www.sodipodi.com/") -->
<svg
   xmlns="http://www.w3.org/2000/svg"
   xmlns:sodipodi="http://sodipodi.sourceforge.net/DTD/sodipodi-0.dtd"
   xmlns:xlink="http://www.w3.org/1999/xlink"
   id="svg548"
   sodipodi:version="0.34"
   width="72pt"
   height="72pt"
   sodipodi:docbase="/home/zeus/.icons/gartoon/scalable/mimetypes/"
   sodipodi:docname="/home/zeus/.icons/gartoon/scalable/mimetypes/gnome-mime-x-directory-smb-server.svg">
  <defs
     id="defs550">
    <linearGradient
       id="linearGradient565">
      <stop
         style="stop-color:#7fa8e3;stop-opacity:0.741176;"
         offset="0.000000"
         id="stop566" />
      <stop
         style="stop-color:#ffffff;stop-opacity:0;"
         offset="1.000000"
         id="stop567" />
    </linearGradient>
    <linearGradient
       xlink:href="#linearGradient565"
       id="linearGradient568"
       x1="17.4567051"
       y1="66.1161575"
       x2="85.5157166"
       y2="39.7912674"
       gradientUnits="userSpaceOnUse"
       spreadMethod="pad" />
    <linearGradient
       xlink:href="#linearGradient565"
       id="linearGradient738" />
  </defs>
  <sodipodi:namedview
     id="base" />
  <path
     style="fill:#000000;fill-rule:evenodd;stroke:none;stroke-opacity:1;stroke-width:1pt;stroke-linejoin:miter;stroke-linecap:butt;fill-opacity:0.3;"
     d="M 3.31456 15.5328 L 12.1534 74.532 C 12.1534 74.532 46.1829 86.9064 50.3814 87.3483 C 56.1266 88.4532 68.28 88.0112 76.8979 80.0563 C 81.3173 72.3223 84.8528 38.0719 83.969 24.1506 C 84.4109 18.4054 81.0963 14.4279 77.3398 12.4392 C 73.5833 10.4504 64.9655 5.81006 28.9472 4.26326 L 3.31456 15.5328 z "
     id="path571"
     sodipodi:nodetypes="cccccccc"
     transform="translate(2.651654,1.767769)" />
  <path
     style="fill:#3d4e67;fill-rule:evenodd;stroke:none;stroke-opacity:1;stroke-width:1pt;stroke-linejoin:miter;stroke-linecap:butt;fill-opacity:1;"
     d="M 3.31456 15.5328 L 12.1534 74.532 C 12.1534 74.532 46.1829 86.9064 50.3814 87.3483 C 56.1266 88.4532 68.28 88.0112 76.8979 80.0563 C 81.3173 72.3223 84.8528 38.0719 83.969 24.1506 C 84.4109 18.4054 81.0963 14.4279 77.3398 12.4392 C 73.5833 10.4504 64.9655 5.81006 28.9472 4.26326 L 3.31456 15.5328 z "
     id="path558"
     sodipodi:nodetypes="cccccccc"
     transform="translate(-2.872629,-1.767769)" />
  <path
     style="fill:#ffffff;fill-rule:evenodd;stroke:none;stroke-opacity:1;stroke-width:1pt;stroke-linejoin:miter;stroke-linecap:butt;fill-opacity:1;"
     d="M 8.17593 17.0796 L 56.1266 29.675 L 51.7072 83.1499 C 39.0382 79.7617 27.695 75.9315 15.6889 70.3336 L 8.17593 17.0796 z "
     id="path737"
     sodipodi:nodetypes="ccccc"
     transform="translate(-2.872629,-1.767769)" />
  <path
     style="fill:url(#linearGradient568);fill-rule:evenodd;stroke:none;stroke-opacity:1;stroke-width:1pt;stroke-linejoin:miter;stroke-linecap:butt;fill-opacity:0.741176;"
     d="M 8.17593 17.0796 L 56.1266 29.675 L 51.7072 83.1499 C 39.0382 79.7617 27.695 75.9315 15.6889 70.3336 L 8.17593 17.0796 z "
     id="path552"
     sodipodi:nodetypes="ccccc"
     transform="translate(-2.872629,-1.767769)" />
  <path
     style="fill:#ffffff;fill-rule:evenodd;stroke:none;stroke-opacity:1;stroke-width:1pt;stroke-linejoin:miter;stroke-linecap:butt;fill-opacity:1;"
     d="M 8.17593 17.3005 L 30.273 7.7988 C 36.6812 8.46171 44.6362 8.01976 57.8944 11.1134 C 72.4785 14.4279 78.8866 17.3006 79.1076 20.6151 C 79.3286 23.9297 68.0591 31.0008 56.3476 29.8959 C 44.6361 28.791 10.4503 17.3676 8.07215 17.1956 "
     id="path553"
     sodipodi:nodetypes="cccccc"
     transform="translate(-2.872629,-1.767769)" />
  <path
     style="fill:#fcffff;fill-rule:evenodd;stroke:none;stroke-opacity:1;stroke-width:1pt;stroke-linejoin:miter;stroke-linecap:butt;fill-opacity:1;"
     d="M 55.6066 29.7665 L 50.6024 83.1499 C 50.6024 83.1499 71.1527 83.1499 73.8043 77.1837 C 76.456 71.2175 80.8754 29.8959 80.6544 26.8023 C 80.4334 23.7087 79.0942 20.0694 79.0942 20.0694 C 79.0942 20.0694 74.1413 30.5711 55.6066 29.7665 z "
     id="path554"
     sodipodi:nodetypes="cccccc"
     transform="translate(-2.872629,-1.767769)" />
  <path
     style="fill:#3d4e67;fill-rule:evenodd;stroke:none;stroke-opacity:1;stroke-width:1pt;stroke-linejoin:miter;stroke-linecap:butt;fill-opacity:1;"
     d="M 58.2582 32.6647 C 58.0372 39.4412 57.8944 46.1004 57.6734 52.8769 C 66.9542 53.9817 72.7788 53.5677 79.9 49.0154 C 80.4892 41.7234 81.391 34.3153 81.9802 27.0233 C 73.215 32.4002 69.0121 33.254 58.2582 32.6647 z "
     id="path559"
     sodipodi:nodetypes="ccccc"
     transform="translate(-2.872629,-1.767769)" />
  <path
     style="fill:#e0f3f9;fill-rule:evenodd;stroke:none;stroke-opacity:1;stroke-width:1pt;stroke-linejoin:round;stroke-linecap:butt;fill-opacity:1;"
     d="M 59.2202 33.4314 C 71.5287 35.082 79.5373 30.0253 80.6422 28.6995 C 80.7704 30.2643 79.4067 38.1733 79.2505 39.1889 C 78.0005 39.8139 66.2836 44.6875 58.9992 42.2702 C 58.9993 38.2928 59.219 34.629 59.2202 33.4314 z "
     id="path555"
     sodipodi:nodetypes="ccccc"
     transform="translate(-2.872629,-1.767769)" />
  <path
     style="fill:#e0f3f9;fill-rule:evenodd;stroke:none;stroke-opacity:1;stroke-width:1pt;stroke-linejoin:miter;stroke-linecap:butt;fill-opacity:1;"
     d="M 59.0249 43.1541 L 58.7002 51.6939 C 59.1299 51.8111 73.8911 53.2039 78.5864 48.03 C 78.9636 43.8316 79.2103 41.7245 79.3286 40.0605 C 74.2463 42.0493 66.317 44.9219 59.0249 43.1541 z "
     id="path556"
     sodipodi:nodetypes="ccccc"
     transform="translate(-2.872629,-1.767769)" />
  <path
     style="fill:#004086;fill-rule:evenodd;stroke:none;stroke-opacity:1;stroke-width:1pt;stroke-linejoin:miter;stroke-linecap:butt;fill-opacity:1;"
     d="M 58.9992 62.8206 C 58.9992 63.8518 58.9992 64.883 58.9992 65.9142 C 64.5971 66.3561 69.9741 65.4722 75.1301 63.9254 C 75.2774 62.7469 75.4248 61.5684 75.5721 60.3899 C 70.0478 62.526 64.9654 63.1152 58.9992 62.8206 z "
     id="path557"
     sodipodi:nodetypes="ccccc"
     transform="translate(-2.091379,-5.674019)" />
  <path
     style="fill:#3d4e67;fill-rule:evenodd;stroke:none;stroke-opacity:1;stroke-width:1pt;stroke-linejoin:miter;stroke-linecap:butt;fill-opacity:1;"
     d="M 9.06251 16.7187 L 39.0625 25.4687 L 55.4688 29.6874 C 55.4688 29.6874 37.9688 26.0937 35.4688 25.6249 C 32.9688 25.1562 7.50001 17.8124 7.50001 17.8124 L 7.96876 16.5624 L 9.06251 16.7187 z "
     id="path560"
     transform="translate(-2.872629,-1.767769)" />
  <path
     style="fill:#3d4e67;fill-rule:evenodd;stroke:none;stroke-opacity:1;stroke-width:1pt;stroke-linejoin:miter;stroke-linecap:butt;fill-opacity:1;"
     d="M 78.7501 18.2811 C 78.5938 18.2811 75.6251 24.6875 70.1563 26.5625 C 64.6876 28.4375 56.5626 29.3749 56.5626 29.3749 C 56.5626 29.3749 64.5313 29.5312 67.3438 28.5937 C 70.1563 27.6562 75.0001 25.625 76.4063 23.2812 C 77.8126 20.9375 79.3751 19.5312 79.3751 19.5312 L 78.7501 18.2811 z "
     id="path561"
     sodipodi:nodetypes="ccccccc"
     transform="translate(-2.872629,-1.767769)" />
  <path
     style="fill:#3d4e67;fill-rule:evenodd;stroke:none;stroke-opacity:1;stroke-width:1pt;stroke-linejoin:miter;stroke-linecap:butt;fill-opacity:1;"
     d="M 51.2501 83.5937 C 51.1459 64.8958 54.948 52.9166 55.6251 30.7812 C 52.5001 47.9166 51.8751 65.3645 50.0001 82.6562 C 50.4168 82.9687 50.8334 83.2812 51.2501 83.5937 z "
     id="path562"
     sodipodi:nodetypes="cccc"
     transform="translate(-2.872629,-1.767769)" />
  <path
     style="fill:#398096;fill-rule:evenodd;stroke:none;stroke-opacity:1;stroke-width:1pt;stroke-linejoin:miter;stroke-linecap:butt;fill-opacity:1;"
     d="M 75.6251 60.1562 L 73.1251 58.4375 C 73.1251 58.4375 65.7813 60.3125 63.2813 60.3125 C 60.7813 60.3125 59.6876 60 59.6876 60 L 59.8438 61.7187 C 59.8438 61.7187 66.8751 63.2812 75.6251 60.1562 z "
     id="path563"
     transform="translate(-2.872629,-1.767769)" />
  <g
     id="g645"
     transform="matrix(0.567107,0.000000,0.000000,0.567107,1.201556,38.71270)">
    <path
       style="fill:#000000;fill-rule:evenodd;stroke:none;stroke-opacity:1;stroke-width:1pt;stroke-linejoin:miter;stroke-linecap:butt;fill-opacity:0.394495;"
       d="M 14.3442 10.804 C 7.87919 32.2193 2.6264 49.5939 -2.0203 75.0497 C 6.86904 72.8274 20.6071 66.7665 31.3148 77.0701 C 40.8102 82.9289 52.5279 86.3635 70.7107 78.8883 C 73.135 73.0294 87.0752 17.269 88.6915 11.8142 C 77.7818 13.6325 67.0742 17.269 53.7402 9.38981 C 45.2548 1.51062 21.8193 1.71265 14.3442 10.804 z "
       id="path572"
       sodipodi:nodetypes="ccccccc"
       transform="matrix(0.899777,0.000000,0.000000,0.899777,8.888897,14.59805)" />
    <path
       style="fill:#000000;fill-rule:evenodd;stroke:none;stroke-opacity:1;stroke-width:1pt;stroke-linejoin:miter;stroke-linecap:butt;fill-opacity:1;"
       d="M 13.2215 10.5795 L -3.14297 74.8252 C 5.74637 72.6029 19.7757 67.8389 31.3148 77.0701 C 39.9788 84.0013 52.3034 86.8126 70.4862 79.3374 L 89.5896 11.5897 C 78.6799 13.408 66.8989 17.0595 54.4138 8.0426 C 45.0795 1.30118 20.6966 1.48812 13.2215 10.5795 z "
       id="path674"
       sodipodi:nodetypes="ccsccsc"
       transform="matrix(0.899777,0.000000,0.000000,0.899777,3.636097,7.729015)" />
    <path
       style="fill:#2e70ff;fill-rule:evenodd;stroke:none;stroke-opacity:1;stroke-width:1pt;stroke-linejoin:miter;stroke-linecap:butt;fill-opacity:1;"
       d="M 41.1429 43.7143 C 37.9524 52.4762 36.0477 57.8095 32.9999 69 C 28 66.4286 18.5714 60.7142 4.57142 67.5713 C 6.71429 58.4285 9.28571 49 11.4286 41.4286 C 16.8571 37.7142 32.8571 36 41.1429 43.7143 z "
       id="path567"
       sodipodi:nodetypes="ccccc"
       transform="matrix(0.899777,0.000000,0.000000,0.899777,3.636097,7.729015)" />
    <path
       style="fill:#ffd80d;fill-rule:evenodd;stroke:none;stroke-opacity:1;stroke-width:1pt;stroke-linejoin:miter;stroke-linecap:butt;fill-opacity:1;"
       d="M 43.1429 44.8572 C 55.7143 53.1429 70 48.5715 72.2858 48.2857 C 70.8572 54 66.8571 69.7143 65.1429 74 C 50.2858 80.2858 42.8572 76.5714 35.1429 70.8572 C 36.8571 64.5715 41.5715 48.5714 43.1429 44.8572 z "
       id="path568"
       sodipodi:nodetypes="ccccc"
       transform="matrix(0.899777,0.000000,0.000000,0.899777,3.636097,7.729015)" />
    <path
       style="fill:#55c800;fill-rule:evenodd;stroke:none;stroke-opacity:1;stroke-width:1pt;stroke-linejoin:miter;stroke-linecap:butt;fill-opacity:1;"
       d="M 43.8572 45.0001 C 56.4286 53.2858 70.8571 47.4286 73.1429 47.1428 C 71.7143 52.8571 66.8571 69.7143 65.1429 74 C 54.1429 80.1429 41.8572 76.7142 35.1429 71.4286 C 37.1428 65 42.4286 49.7143 43.8572 45.0001 z "
       id="path569"
       sodipodi:nodetypes="ccccc"
       transform="matrix(0.899777,0.000000,0.000000,0.899777,11.34848,-19.00723)" />
    <path
       style="fill:#f13009;fill-rule:evenodd;stroke:none;stroke-opacity:1;stroke-width:1pt;stroke-linejoin:miter;stroke-linecap:butt;fill-opacity:1;"
       d="M 41.1429 43.7143 C 37.9524 52.6191 35.9048 58.9523 32.5714 69.4285 C 28.2857 67.7142 17.7143 61.1428 3.71428 67.9999 C 6 58.5714 8.57143 48.5714 11.4286 41.4286 C 16.8571 37.7142 32.8571 36 41.1429 43.7143 z "
       id="path570"
       sodipodi:nodetypes="ccccc"
       transform="matrix(0.899777,0.000000,0.000000,0.899777,11.60555,-19.26431)" />
  </g>
</svg>
