<?xml version="1.0" encoding="UTF-8" standalone="no"?>
<!DOCTYPE svg PUBLIC "-//W3C//DTD SVG 20010904//EN"
"http://www.w3.org/TR/2001/REC-SVG-20010904/DTD/svg10.dtd">
<!-- Created with Sodipodi ("http://www.sodipodi.com/") -->
<svg
   id="svg548"
   sodipodi:version="0.32"
   width="72pt"
   height="72pt"
   sodipodi:docbase="/home/zeus/.icons/gartoon/scalable/mimetypes"
   sodipodi:docname="gnome-mime-application-x-gzip.svg"
   xmlns="http://www.w3.org/2000/svg"
   xmlns:sodipodi="http://sodipodi.sourceforge.net/DTD/sodipodi-0.dtd"
   xmlns:xlink="http://www.w3.org/1999/xlink"
   xmlns:inkscape="http://www.inkscape.org/namespaces/inkscape"
   inkscape:version="0.40"
   xmlns:rdf="http://www.w3.org/1999/02/22-rdf-syntax-ns#"
   xmlns:cc="http://web.resource.org/cc/"
   xmlns:dc="http://purl.org/dc/elements/1.1/">
  <metadata
     id="metadata25">
    <rdf:RDF
       id="RDF26">
      <cc:Work
         rdf:about=""
         id="Work27">
        <dc:format
           id="format28">image/svg+xml</dc:format>
        <dc:type
           id="type30"
           rdf:resource="http://purl.org/dc/dcmitype/StillImage" />
      </cc:Work>
    </rdf:RDF>
  </metadata>
  <defs
     id="defs550">
    <linearGradient
       id="linearGradient569">
      <stop
         style="stop-color:#c57700;stop-opacity:1;"
         offset="0.000000"
         id="stop570" />
      <stop
         style="stop-color:#ffa75f;stop-opacity:0;"
         offset="1.000000"
         id="stop571" />
    </linearGradient>
    <linearGradient
       id="linearGradient559">
      <stop
         style="stop-color:#945700;stop-opacity:1;"
         offset="0.000000"
         id="stop560" />
      <stop
         style="stop-color:#ffa75f;stop-opacity:0;"
         offset="1.000000"
         id="stop561" />
    </linearGradient>
    <linearGradient
       xlink:href="#linearGradient559"
       id="linearGradient562"
       x1="40.9153252"
       y1="31.7318363"
       x2="42.7533417"
       y2="35.4855690"
       gradientUnits="userSpaceOnUse"
       spreadMethod="pad"
       gradientTransform="scale(1.299591,0.769473)" />
    <linearGradient
       xlink:href="#linearGradient559"
       id="linearGradient566"
       x1="59.0300407"
       y1="48.8431816"
       x2="58.3435440"
       y2="23.6183739"
       gradientUnits="userSpaceOnUse"
       spreadMethod="pad"
       gradientTransform="scale(0.606477,1.648866)" />
    <linearGradient
       xlink:href="#linearGradient569"
       id="linearGradient568"
       x1="92.7804184"
       y1="64.9443817"
       x2="90.8925323"
       y2="42.8786545"
       gradientUnits="userSpaceOnUse"
       spreadMethod="pad"
       gradientTransform="scale(0.771721,1.295805)" />
  </defs>
  <sodipodi:namedview
     id="base"
     inkscape:zoom="5.0416667"
     inkscape:cx="36.000000"
     inkscape:cy="36.000000"
     inkscape:window-width="640"
     inkscape:window-height="536"
     inkscape:window-x="5"
     inkscape:window-y="48"
     inkscape:current-layer="svg548" />
  <path
     style="fill:#000000;fill-rule:evenodd;stroke:none;stroke-opacity:1;stroke-width:1pt;stroke-linejoin:miter;stroke-linecap:butt;fill-opacity:0.3;"
     d="M 49.1214 87.5023 C 48.0807 87.086 6.66053 80.6336 6.66053 80.6336 L 2.91398 81.8825 L 1.87327 78.3441 L 4.99539 75.4301 L 1.87327 74.3894 L 19.5653 64.1905 L 21.2304 65.2312 L 21.6467 62.9416 L 26.6421 62.7335 L 80.7589 74.1813 L 49.1214 87.5023 z "
     id="path594" />
  <path
     style="fill:#3f2801;fill-rule:evenodd;stroke:none;stroke-opacity:1;stroke-width:1pt;stroke-linejoin:miter;stroke-linecap:butt;fill-opacity:1;"
     d="M 25.1851 33.1774 C 28.6757 48.9306 27.9492 73.7206 22.1019 85.8591 L 50.5784 90.4163 L 85.7103 77.7197 C 83.903 60.422 82.3968 40.7145 86.0115 24.0192 L 92.2066 9.86562 L 85.9623 10.6981 L 86.7949 6.53532 C 78.8653 1.0456 68.8271 0.0742763 58.4877 3.62133 L 57.8633 8.20047 L 51.8272 2.99691 C 38.6195 3.56701 26.6167 7.14937 15.8188 17.3587 L 25.1851 33.1774 z "
     id="path564"
     sodipodi:nodetypes="ccccccccccccc"
     transform="matrix(0.945504,0.000000,0.000000,0.945504,1.278344,2.129040)" />
  <path
     style="fill:url(#linearGradient562);fill-rule:evenodd;stroke:none;stroke-opacity:1;stroke-width:1pt;stroke-linejoin:miter;stroke-linecap:butt;fill-opacity:1;"
     d="M 59.9448 18.3993 C 59.5285 18.3993 29.7642 29.0146 29.7642 29.0146 C 29.7642 29.0146 32.4701 48.788 38.298 49.2043 C 44.126 49.6206 79.9263 21.3134 79.9263 21.3134 "
     id="path558"
     sodipodi:nodetypes="cccc"
     transform="matrix(0.945504,0.000000,0.000000,0.945504,1.278344,2.129040)" />
  <path
     style="fill:#e9a93d;fill-rule:evenodd;stroke:none;stroke-opacity:1;stroke-width:1pt;stroke-linejoin:miter;stroke-linecap:butt;fill-opacity:1;"
     d="M 29.5561 31.3041 L 48.7051 32.9693 C 46.5728 51.4262 46.2478 68.9794 49.5376 85.629 C 49.5376 85.629 29.9724 83.7558 29.9724 82.5069 C 29.9724 81.2581 35.2794 53.1074 29.5561 31.3041 z "
     id="path552"
     sodipodi:nodetypes="ccccc"
     transform="matrix(0.945504,0.000000,0.000000,0.945504,1.278344,2.129040)" />
  <path
     style="fill:#ffe6ba;fill-rule:evenodd;stroke:none;stroke-opacity:1;stroke-width:1pt;stroke-linejoin:miter;stroke-linecap:butt;fill-opacity:1;"
     d="M 80.9451 23.2797 L 48.2888 33.3856 L 49.1214 85.8372 C 49.1214 85.8372 80.3426 74.1813 80.3426 72.9324 C 80.3426 71.6836 76.1254 36.0463 80.9451 23.2797 z "
     id="path553"
     sodipodi:nodetypes="ccccc"
     transform="matrix(0.945504,0.000000,0.000000,0.945504,1.278344,2.129040)" />
  <path
     style="fill:#e3c084;fill-rule:evenodd;stroke:none;stroke-opacity:1;stroke-width:1pt;stroke-linejoin:miter;stroke-linecap:butt;fill-opacity:1;"
     d="M 60.7773 18.3994 L 52.8679 8.40859 C 43.1546 9.74532 32.5377 11.0821 23.7281 19.6482 L 29.1398 29.639 L 60.7773 18.3994 z "
     id="path556"
     sodipodi:nodetypes="ccccc"
     transform="matrix(0.945504,0.000000,0.000000,0.945504,1.278344,2.129040)" />
  <path
     style="fill:#e3b463;fill-rule:evenodd;stroke:none;stroke-opacity:1;stroke-width:1pt;stroke-linejoin:miter;stroke-linecap:butt;fill-opacity:1;"
     d="M 59.9447 18.6076 L 81.1751 22.5622 L 82.8403 11.7389 C 75.3235 9.23773 68.4092 7.94146 61.1936 9.65745 L 59.9447 18.6076 z "
     id="path557"
     sodipodi:nodetypes="ccccc"
     transform="matrix(0.945504,0.000000,0.000000,0.945504,1.278344,2.129040)" />
  <path
     style="fill:#c89134;fill-rule:evenodd;stroke:none;stroke-opacity:1;stroke-width:1pt;stroke-linejoin:miter;stroke-linecap:butt;fill-opacity:1;"
     d="M 48.7051 32.9693 C 47.4562 30.1941 46.2074 27.4188 44.9585 24.6436 C 38.0442 21.5163 30.5274 19.5939 23.3118 23.3948 C 25.2545 26.0312 27.1971 28.6677 29.1398 31.3041 C 35.6616 31.8592 42.1833 32.4142 48.7051 32.9693 z "
     id="path554"
     sodipodi:nodetypes="ccccc"
     transform="matrix(0.945504,0.000000,0.000000,0.945504,1.278344,2.129040)" />
  <path
     style="fill:#e3c084;fill-rule:evenodd;stroke:none;stroke-opacity:1;stroke-width:1pt;stroke-linejoin:miter;stroke-linecap:butt;fill-opacity:1;"
     d="M 48.2888 34.2181 L 53.2842 24.2273 C 63.9688 18.0235 74.9546 15.1333 85.3379 14.6528 C 83.7422 17.5668 82.1464 20.4808 80.5507 23.3948 L 48.2888 34.2181 z "
     id="path555"
     sodipodi:nodetypes="ccccc"
     transform="matrix(0.945504,0.000000,0.000000,0.945504,1.278344,2.129040)" />
  <path
     style="fill:url(#linearGradient566);fill-rule:evenodd;stroke:none;stroke-opacity:1;stroke-width:1pt;stroke-linejoin:miter;stroke-linecap:butt;fill-opacity:1;"
     d="M 29.5561 31.3041 C 35.9391 31.8592 42.3221 32.4142 48.7051 32.9693 C 45.0667 51.7274 46.5491 68.6782 49.5376 85.629 C 49.5376 85.629 29.9724 83.7558 29.9724 82.5069 C 36.2981 60.4735 29.5561 31.7204 29.5561 31.3041 z "
     id="path565"
     sodipodi:nodetypes="ccccc"
     transform="matrix(0.945504,0.000000,0.000000,0.945504,1.563158,2.413845)" />
  <path
     style="fill:url(#linearGradient568);fill-rule:evenodd;stroke:none;stroke-opacity:1;stroke-width:1pt;stroke-linejoin:miter;stroke-linecap:butt;fill-opacity:1;"
     d="M 70.4022 32.0153 L 48.2888 33.3856 L 49.1214 85.8372 C 49.1214 85.8372 80.3426 74.1813 80.3426 72.9324 C 80.3426 71.6836 70.4022 32.4316 70.4022 32.0153 z "
     id="path567"
     sodipodi:nodetypes="ccccc"
     transform="matrix(0.945504,0.000000,0.000000,0.945504,1.278344,2.129040)" />
  <path
     style="font-size:12;fill:#ffffff;fill-rule:evenodd;stroke-width:1pt;fill-opacity:0.704348;"
     d="M 32.0538 71.4754 L 32.0538 78.5522 L 44.3341 80.4255 L 44.3341 73.3487 L 32.0538 71.4754 z "
     id="path573"
     sodipodi:nodetypes="ccccc"
     transform="translate(-0.624425,-0.416279)" />
  <path
     style="font-size:12.000000;font-style:normal;font-variant:normal;font-weight:normal;font-stretch:normal;fill:#3f2801;fill-opacity:1.0000000;stroke:none;stroke-width:1.0000000pt;stroke-linecap:butt;stroke-linejoin:miter;stroke-opacity:1.0000000;font-family:Kid Kosmic;text-anchor:start;writing-mode:lr"
     d="M 55.008724,65.269223 C 55.086606,65.433179 55.134155,65.584458 55.151369,65.723060 C 55.189605,66.031098 55.092033,66.287901 54.858657,66.493470 C 54.729420,66.611113 54.606110,66.683759 54.488727,66.711407 C 54.186866,66.782536 53.886303,66.516499 53.587037,65.913295 C 53.457587,65.658470 53.341857,65.467775 53.239848,65.341206 C 51.851630,65.652439 50.928917,66.353320 50.471704,67.443849 C 50.089441,68.350292 49.945633,69.184693 50.040281,69.947054 C 50.061312,70.116476 50.092569,70.275556 50.134051,70.424295 C 50.371752,71.319408 50.899731,71.864752 51.717988,72.060332 C 51.913926,72.109282 52.118104,72.108731 52.330525,72.058680 C 53.012492,71.898007 53.794575,71.246112 54.676775,70.102994 C 54.666253,70.018294 54.658532,69.932927 54.653611,69.846897 C 54.648679,69.760879 54.633529,69.685189 54.608160,69.619827 C 54.374412,69.405424 54.056304,69.345631 53.653834,69.440450 C 53.558801,69.462847 53.459138,69.494255 53.354846,69.534673 C 52.805410,69.743390 52.387155,70.012340 52.100081,70.341528 C 51.879203,70.369796 51.698380,70.234066 51.557610,69.934337 C 51.506050,69.843455 51.474056,69.747955 51.461630,69.647840 C 51.436771,69.447628 51.486496,69.245690 51.610804,69.042026 C 51.760412,68.578783 52.219967,68.248583 52.989468,68.051423 C 53.213062,67.998750 53.503811,67.954025 53.861716,67.917248 C 54.343548,67.859213 54.635253,67.822189 54.736833,67.806174 C 55.357524,68.032461 55.706776,68.366285 55.784592,68.807649 C 55.852025,69.211842 55.877540,69.625904 55.861138,70.049839 C 55.849063,70.369725 55.771058,70.621918 55.627121,70.806420 C 55.309951,71.356707 54.936118,71.821267 54.505621,72.200100 C 54.012814,72.633250 53.546236,72.953216 53.105884,73.160001 C 52.839622,73.286144 52.580719,73.378847 52.329176,73.438111 C 51.434785,73.648839 50.669157,73.436894 50.032287,72.802275 C 49.226178,72.009388 48.768523,70.987771 48.659321,69.737418 C 48.502981,68.014704 48.954464,66.576775 50.013772,65.423627 C 50.885371,64.473245 51.991557,63.859915 53.332332,63.583636 C 53.795630,63.561676 54.154043,63.691231 54.407573,63.972302 C 54.614318,64.201010 54.814700,64.633317 55.008724,65.269223 M 63.299661,60.938032 C 63.483606,61.029447 63.599004,61.263814 63.645855,61.641134 C 63.655410,61.718154 63.663131,61.803519 63.669020,61.897232 C 63.689305,62.431427 63.619717,62.844119 63.460259,63.135308 L 63.460259,63.135308 L 63.468644,63.133332 C 62.176514,65.886890 60.858249,68.175003 59.513848,69.997677 C 60.894929,69.489991 62.469966,68.992085 64.238964,68.503958 C 64.415406,68.581280 64.522751,68.773952 64.560999,69.081974 C 64.578201,69.220591 64.583346,69.377897 64.576436,69.553893 C 64.546557,70.147454 64.387717,70.490026 64.099915,70.581611 C 63.080485,70.758391 62.071430,70.972354 61.072749,71.223501 C 60.069428,71.483672 59.078942,71.824038 58.101291,72.244600 C 57.800391,72.323423 57.617582,72.148530 57.552864,71.719924 C 57.483513,71.300341 57.514262,70.991910 57.645114,70.794632 L 57.603189,70.804510 C 58.973855,68.729944 60.228498,66.369636 61.367123,63.723579 C 59.826066,64.054970 58.441087,64.508097 57.212180,65.082961 C 56.906647,65.170809 56.709644,64.927928 56.621171,64.354318 C 56.534611,63.796129 56.593164,63.433592 56.796831,63.266707 C 58.459547,62.478673 60.627154,61.702449 63.299661,60.938032 M 64.913088,60.795674 C 64.964579,60.561629 65.088147,60.421552 65.283793,60.375444 C 65.390003,60.350432 65.513533,60.349068 65.654383,60.371353 C 66.066711,60.448587 66.303322,60.686100 66.364215,61.083889 C 66.482302,63.100968 66.634082,64.856467 66.819553,66.350393 C 66.947661,67.382290 67.109309,68.406279 67.304497,69.422363 C 67.356268,69.885723 67.209271,70.138320 66.863506,70.180153 C 66.518696,70.229691 66.303928,70.121775 66.219201,69.856400 C 65.849713,67.946124 65.509614,65.739623 65.198902,63.236894 C 65.098520,62.428331 65.003248,61.614592 64.913088,60.795674 M 69.207750,69.390053 C 68.800527,67.639259 68.496532,65.955290 68.295764,64.338139 C 68.242228,63.906909 68.179574,63.240041 68.107803,62.337533 C 68.013898,61.210408 67.990115,60.601752 68.036453,60.511564 C 68.028952,60.497490 68.018655,60.484064 68.005562,60.471286 C 68.037191,60.447994 68.055799,60.435684 68.061388,60.434355 C 68.164955,60.156336 68.336369,59.961394 68.575633,59.849528 C 68.662204,59.805365 68.744619,59.774059 68.822878,59.755608 C 68.957037,59.724012 69.083839,59.725840 69.203286,59.761093 C 70.038321,59.350363 70.886741,59.047432 71.748548,58.852297 C 72.593579,58.661139 73.124730,58.722255 73.341999,59.035647 C 74.241064,60.345610 74.749394,61.474177 74.866991,62.421351 C 74.947292,63.068217 74.844127,63.627524 74.557494,64.099273 C 73.985169,65.050494 72.840956,65.728265 71.124851,66.132587 C 70.705605,66.231370 70.252748,66.314289 69.766279,66.381345 C 69.918737,67.145949 70.106501,67.870524 70.329572,68.555076 C 70.392376,68.968282 70.312677,69.276356 70.090476,69.479299 C 70.017952,69.543943 69.942561,69.585483 69.864303,69.603921 C 69.679834,69.647384 69.460984,69.576096 69.207750,69.390053 M 69.398199,61.748172 C 69.344561,62.799116 69.389776,63.858464 69.533846,64.926217 C 69.934699,64.911038 70.439300,64.827817 71.047648,64.676553 C 72.466531,64.334334 73.291089,63.700173 73.521325,62.774067 C 73.556334,62.639012 73.563802,62.490623 73.543730,62.328899 C 73.493056,61.920772 73.262260,61.452038 72.851341,60.922695 C 72.419080,60.731291 71.970969,60.690240 71.507008,60.799542 C 71.031862,60.911500 70.328926,61.227710 69.398199,61.748172"
     id="text1081" />
</svg>
