<?xml version="1.0" encoding="UTF-8" standalone="no"?>
<!DOCTYPE svg PUBLIC "-//W3C//DTD SVG 20010904//EN"
"http://www.w3.org/TR/2001/REC-SVG-20010904/DTD/svg10.dtd">
<!-- Created with Sodipodi ("http://www.sodipodi.com/") -->
<svg
   id="svg604"
   sodipodi:version="0.32"
   width="72pt"
   height="72pt"
   sodipodi:docbase="/home/zeus/.icons/gartoon/scalable/mimetypes"
   sodipodi:docname="gnome-mime-application-x-perl.svg"
   inkscape:version="0.40"
   xmlns="http://www.w3.org/2000/svg"
   xmlns:cc="http://web.resource.org/cc/"
   xmlns:inkscape="http://www.inkscape.org/namespaces/inkscape"
   xmlns:sodipodi="http://sodipodi.sourceforge.net/DTD/sodipodi-0.dtd"
   xmlns:rdf="http://www.w3.org/1999/02/22-rdf-syntax-ns#"
   xmlns:dc="http://purl.org/dc/elements/1.1/"
   xmlns:xlink="http://www.w3.org/1999/xlink">
  <metadata
     id="metadata94">
    <rdf:RDF
       id="RDF95">
      <cc:Work
         rdf:about=""
         id="Work96">
        <dc:format
           id="format97">image/svg+xml</dc:format>
        <dc:type
           id="type99"
           rdf:resource="http://purl.org/dc/dcmitype/StillImage" />
      </cc:Work>
    </rdf:RDF>
  </metadata>
  <defs
     id="defs606">
    <linearGradient
       id="linearGradient863">
      <stop
         style="stop-color:#d70025;stop-opacity:0.741176;"
         offset="0.000000"
         id="stop864" />
      <stop
         style="stop-color:#ffffff;stop-opacity:0;"
         offset="1.000000"
         id="stop865" />
    </linearGradient>
    <linearGradient
       id="linearGradient612">
      <stop
         style="stop-color:#7fa8e3;stop-opacity:0.741176;"
         offset="0.000000"
         id="stop613" />
      <stop
         style="stop-color:#ffffff;stop-opacity:0;"
         offset="1.000000"
         id="stop614" />
    </linearGradient>
    <linearGradient
       xlink:href="#linearGradient612"
       id="linearGradient615"
       x1="50.6438866"
       y1="5.36792946"
       x2="35.7520943"
       y2="68.0443573"
       gradientUnits="userSpaceOnUse"
       spreadMethod="pad" />
    <defs
       id="defs561" />
    <sodipodi:namedview
       id="namedview611"
       showgrid="true"
       gridspacingx="1mm"
       gridspacingy="1mm"
       gridtolerance="1px"
       snaptogrid="true" />
    <linearGradient
       xlink:href="#linearGradient863"
       id="linearGradient862"
       x1="76.9552307"
       y1="34.6717224"
       x2="27.4362392"
       y2="67.2046585"
       gradientUnits="userSpaceOnUse"
       spreadMethod="pad"
       gradientTransform="scale(0.903424,1.106900)" />
    <linearGradient
       xlink:href="#linearGradient863"
       id="linearGradient866"
       x1="19.1633530"
       y1="61.2014313"
       x2="35.6168938"
       y2="33.2990570"
       gradientUnits="userSpaceOnUse"
       spreadMethod="pad"
       gradientTransform="scale(0.827637,1.208259)" />
    <linearGradient
       xlink:href="#linearGradient863"
       id="linearGradient980"
       x1="0.20752650"
       y1="0.80468732"
       x2="1.45282888"
       y2="0.26562491"
       gradientUnits="objectBoundingBox"
       spreadMethod="pad" />
    <linearGradient
       inkscape:collect="always"
       xlink:href="#linearGradient1828"
       id="linearGradient1196"
       gradientUnits="userSpaceOnUse"
       gradientTransform="matrix(0.999990,0.000000,0.000000,1.000010,-0.701263,-7.713892)"
       x1="32.051327"
       y1="14.657825"
       x2="32.051327"
       y2="75.934349" />
    <linearGradient
       inkscape:collect="always"
       xlink:href="#linearGradient1828"
       id="linearGradient1197"
       gradientUnits="userSpaceOnUse"
       gradientTransform="matrix(0.500064,0.000000,0.000000,0.500075,52.06230,47.59928)"
       x1="32.051327"
       y1="14.657825"
       x2="32.051327"
       y2="75.934349" />
    <metadata
       id="metadata18">
      <rdf:RDF
         id="RDF19">
        <cc:Work
           rdf:about=""
           id="Work20">
          <dc:format
             id="format21">image/svg+xml</dc:format>
          <dc:type
             id="type23"
             rdf:resource="http://purl.org/dc/dcmitype/StillImage" />
        </cc:Work>
      </rdf:RDF>
    </metadata>
    <sodipodi:namedview
       id="namedview1157"
       inkscape:zoom="2.5208333"
       inkscape:cx="34.288064"
       inkscape:cy="56.314502"
       inkscape:window-width="734"
       inkscape:window-height="537"
       inkscape:window-x="5"
       inkscape:window-y="46"
       inkscape:current-layer="svg548" />
    <defs
       id="defs550">
      <linearGradient
         id="linearGradient1828">
        <stop
           style="stop-color:#ffc93f;stop-opacity:1.0000000;"
           offset="0.0000000"
           id="stop1829" />
        <stop
           style="stop-color:#f1e36c;stop-opacity:1.0000000;"
           offset="1.0000000"
           id="stop1830" />
      </linearGradient>
      <linearGradient
         id="linearGradient1825">
        <stop
           offset="0.0000000"
           style="stop-color:#ffd800;stop-opacity:1.0000000;"
           id="stop1827" />
        <stop
           offset="1.0000000"
           style="stop-color:#ffd58f;stop-opacity:0.0000000;"
           id="stop1826" />
      </linearGradient>
      <linearGradient
         x1="0.0000000"
         y1="0.0000000"
         x2="1.0000000"
         y2="0.0000000"
         id="linearGradient632"
         gradientUnits="objectBoundingBox"
         spreadMethod="pad">
        <stop
           style="stop-color:#ffb700;stop-opacity:1;"
           offset="0.00000000"
           id="stop633" />
        <stop
           style="stop-color:#ffd58f;stop-opacity:0;"
           offset="1.00000000"
           id="stop634" />
      </linearGradient>
      <linearGradient
         x1="0.0000000"
         y1="0.0000000"
         x2="1.0000000"
         y2="0.0000000"
         id="linearGradient556"
         gradientUnits="objectBoundingBox"
         spreadMethod="pad">
        <stop
           style="stop-color:#000000;stop-opacity:1;"
           offset="0.00000000"
           id="stop557" />
        <stop
           style="stop-color:#bdf2ff;stop-opacity:0.384314;"
           offset="1.00000000"
           id="stop558" />
      </linearGradient>
      <linearGradient
         x1="60.644615"
         y1="19.295689"
         x2="35.370575"
         y2="69.142799"
         id="linearGradient559"
         xlink:href="#linearGradient632"
         gradientUnits="userSpaceOnUse"
         spreadMethod="pad"
         gradientTransform="matrix(1.418885,-0.200635,0.127692,1.110535,-136.7997,-1.332303)" />
      <linearGradient
         x1="85.637657"
         y1="17.443844"
         x2="73.916298"
         y2="54.628181"
         id="linearGradient631"
         xlink:href="#linearGradient632"
         gradientUnits="userSpaceOnUse"
         gradientTransform="matrix(1.050920,-0.148604,0.172402,1.499373,-123.6994,-3.008376)"
         spreadMethod="pad" />
      <defs
         id="defs3">
        <sodipodi:namedview
           id="namedview909" />
        <defs
           id="defs1721">
          <linearGradient
             x1="0.0000000"
             y1="0.0000000"
             x2="1.0000000"
             y2="0.0000000"
             id="linearGradient1722"
             gradientUnits="objectBoundingBox"
             spreadMethod="pad"
             xlink:href="#linearGradient1825" />
          <linearGradient
             x1="0.0000000"
             y1="0.0000000"
             x2="1.0000000"
             y2="0.0000000"
             id="linearGradient1725"
             gradientUnits="objectBoundingBox"
             spreadMethod="pad">
            <stop
               style="stop-color:#000000;stop-opacity:1;"
               offset="0.000000"
               id="stop1726" />
            <stop
               style="stop-color:#bdf2ff;stop-opacity:0.384314;"
               offset="1.000000"
               id="stop1727" />
          </linearGradient>
          <linearGradient
             id="linearGradient1728"
             xlink:href="#linearGradient632"
             x1="60.644615"
             y1="19.295689"
             x2="35.370575"
             y2="69.142799"
             gradientUnits="userSpaceOnUse"
             spreadMethod="pad" />
          <linearGradient
             xlink:href="#linearGradient632"
             id="linearGradient1729"
             x1="85.637657"
             y1="17.443844"
             x2="73.916298"
             y2="54.628181"
             gradientUnits="userSpaceOnUse"
             spreadMethod="pad"
             gradientTransform="scale(0.740666,1.350136)" />
        </defs>
      </defs>
      <sodipodi:namedview
         id="namedview1730"
         pagecolor="#ffffff"
         bordercolor="#666666"
         borderopacity="1.0"
         inkscape:pageopacity="0.0"
         inkscape:pageshadow="2"
         inkscape:zoom="2.4559706"
         inkscape:cx="113.94414"
         inkscape:cy="73.007956"
         inkscape:window-width="812"
         inkscape:window-height="560"
         inkscape:window-x="103"
         inkscape:window-y="56" />
      <metadata
         id="metadata4">
        <rdf:RDF
           id="RDF5">
          <cc:Work
             rdf:about=""
             id="Work6">
            <dc:format
               id="format7">image/svg+xml</dc:format>
            <dc:type
               id="type9"
               rdf:resource="http://purl.org/dc/dcmitype/StillImage" />
          </cc:Work>
        </rdf:RDF>
      </metadata>
      <linearGradient
         inkscape:collect="always"
         xlink:href="#linearGradient1828"
         id="linearGradient1831"
         gradientTransform="matrix(0.563776,0.000000,0.000000,0.563788,50.39821,45.07308)"
         x1="32.051327"
         y1="14.657825"
         x2="32.051327"
         y2="75.934349"
         gradientUnits="userSpaceOnUse" />
    </defs>
    <linearGradient
       inkscape:collect="always"
       xlink:href="#linearGradient1828"
       id="linearGradient1247"
       gradientUnits="userSpaceOnUse"
       gradientTransform="matrix(0.371303,0.000000,0.000000,0.371311,15.54777,23.27107)"
       x1="32.051327"
       y1="14.657825"
       x2="32.051327"
       y2="75.934349" />
    <linearGradient
       inkscape:collect="always"
       xlink:href="#linearGradient1828"
       id="linearGradient1250"
       gradientUnits="userSpaceOnUse"
       gradientTransform="matrix(0.371303,0.000000,0.000000,0.371311,23.64788,46.09866)"
       x1="32.051327"
       y1="14.657825"
       x2="32.051327"
       y2="75.934349" />
    <linearGradient
       inkscape:collect="always"
       xlink:href="#linearGradient1828"
       id="linearGradient1253"
       gradientUnits="userSpaceOnUse"
       gradientTransform="matrix(0.371303,0.000000,0.000000,0.371311,43.16179,31.73937)"
       x1="32.051327"
       y1="14.657825"
       x2="32.051327"
       y2="75.934349" />
  </defs>
  <sodipodi:namedview
     id="base"
     inkscape:zoom="2.5208333"
     inkscape:cx="29.256199"
     inkscape:cy="17.752066"
     inkscape:window-width="640"
     inkscape:window-height="537"
     inkscape:window-x="5"
     inkscape:window-y="444"
     inkscape:current-layer="svg604" />
  <path
     style="fill:#000000;fill-rule:evenodd;stroke:none;stroke-opacity:1;stroke-width:1pt;stroke-linejoin:miter;stroke-linecap:butt;fill-opacity:0.301471;"
     d="M 12.8163 74.753 C 10.3856 73.6481 7.07107 70.1126 8.83884 65.2512 C 9.72267 59.948 25.6326 13.1021 29.1682 10.8924 C 31.3778 8.90368 34.582 8.13026 39.1119 9.34561 C 42.8684 10.2295 76.6769 19.0684 78.6656 20.8361 C 80.6544 22.6039 82.2012 24.0402 80.6544 27.9072 C 79.5496 29.8959 66.4017 74.532 66.1808 77.4047 C 65.2969 80.4983 62.7558 84.2548 58.5573 84.0338 C 54.3589 83.8128 15.9099 75.4159 12.8163 74.753 z "
     id="path794"
     sodipodi:nodetypes="ccccccccc"
     transform="matrix(1.114903,0.000000,0.000000,1.114903,-5.305332,-3.889256)" />
  <path
     style="fill:#3d4e67;fill-rule:evenodd;stroke:none;stroke-opacity:1;stroke-width:1pt;stroke-linejoin:miter;stroke-linecap:butt;fill-opacity:1;"
     d="M 12.8163 74.753 C 10.3856 73.6481 7.07107 70.1126 8.83884 65.2512 C 9.72267 59.948 25.6326 13.1021 29.1682 10.8924 C 31.3778 8.90368 34.582 8.13026 39.1119 9.34561 C 42.8684 10.2295 76.6769 19.0684 78.6656 20.8361 C 80.6544 22.6039 82.2012 24.0402 80.6544 27.9072 C 79.5496 29.8959 66.4017 74.532 66.1808 77.4047 C 65.2969 80.4983 62.7558 84.2548 58.5573 84.0338 C 54.3589 83.8128 15.9099 75.4159 12.8163 74.753 z "
     id="path609"
     sodipodi:nodetypes="ccccccccc"
     transform="matrix(1.114903,0.000000,0.000000,1.114903,-8.162471,-8.460684)" />
  <path
     style="fill:#ffffff;fill-rule:evenodd;stroke:none;stroke-opacity:1;stroke-width:1pt;stroke-linejoin:miter;stroke-linecap:butt;fill-opacity:1;"
     d="M 17.8987 70.9965 C 15.3576 70.3336 11.7114 69.6706 13.0373 65.6932 C 15.468 55.9705 27.8424 18.6264 33.1456 13.986 C 34.361 12.8811 38.4489 12.4392 46.1829 14.8699 C 55.0218 17.5215 72.9204 23.4877 74.6882 24.3716 C 76.4559 25.2555 77.1189 25.2555 75.793 29.233 C 73.8043 33.2105 64.9655 67.24 62.7557 72.9852 C 61.209 77.0732 60.8775 78.9514 58.2258 78.9514 "
     id="path608"
     sodipodi:nodetypes="cccccccs"
     transform="matrix(1.114903,0.000000,0.000000,1.114903,-8.162471,-8.460684)" />
  <path
     style="fill:url(#linearGradient615);fill-rule:evenodd;stroke:none;stroke-opacity:1;stroke-width:1pt;stroke-linejoin:miter;stroke-linecap:butt;fill-opacity:1;"
     d="M 28.75 13.75 C 28.75 13.75 31.875 7.49995 39.6875 9.37495 C 47.5 11.25 78.125 19.375 77.8125 21.875 C 77.5 24.375 71.875 39.0625 71.5625 40.3125 C 71.25 41.5625 42.5 40.9375 31.5625 47.5 C 20.625 54.0625 12.5 59.6875 12.5 59.6875 C 12.5 59.6875 23.75 24.6875 28.75 13.75 z "
     id="path636"
     transform="matrix(0.946780,0.000000,0.000000,0.946780,-0.480566,0.409517)" />
  <path
     style="fill:#000000;fill-opacity:0.34444442;stroke:none;stroke-width:3.8674629;stroke-linecap:round;stroke-linejoin:round;stroke-miterlimit:4.0000000;stroke-opacity:1.0000000"
     d="M 40.735440,51.702279 C 39.663417,51.392861 38.555772,52.004321 38.246356,53.076343 L 37.785912,54.671619 C 37.335591,54.685710 36.893091,54.727546 36.456547,54.811046 L 35.659099,53.366489 C 35.119855,52.389662 33.893778,52.035781 32.916952,52.575025 L 31.858824,53.166398 C 30.881999,53.705643 30.530605,54.923096 31.069849,55.899922 L 31.861164,57.333369 C 31.553431,57.657483 31.273653,58.005431 31.017558,58.379001 L 29.456777,57.928514 C 28.384753,57.619097 27.265998,58.236690 26.956580,59.308714 L 26.620581,60.472833 C 26.311163,61.544856 26.931246,62.654989 28.003269,62.964406 L 29.529559,63.404938 C 29.541513,63.871667 29.587315,64.330303 29.673789,64.782397 L 28.284791,65.549175 C 27.307965,66.088418 26.956571,67.305872 27.495815,68.282698 L 28.087190,69.340825 C 28.626433,70.317653 29.843887,70.669046 30.820715,70.129801 L 32.187487,69.375292 C 32.528304,69.699208 32.890566,69.995619 33.286015,70.262189 L 32.855439,71.753986 C 32.546022,72.826009 33.157482,73.933653 34.229505,74.243070 L 35.393624,74.579069 C 36.465648,74.888487 37.573292,74.277026 37.882709,73.205003 L 38.315774,71.704584 C 38.788621,71.689228 39.249448,71.637357 39.706833,71.545596 L 40.461343,72.912370 C 41.000587,73.889197 42.218040,74.240589 43.194867,73.701345 L 44.259128,73.121083 C 45.235954,72.581838 45.589837,71.355762 45.050592,70.378937 L 44.289950,69.001051 C 44.604030,68.664568 44.887178,68.300877 45.145999,67.912302 L 46.672288,68.352834 C 47.744312,68.662252 48.851954,68.050792 49.161372,66.978768 L 49.497371,65.814649 C 49.806788,64.742627 49.197818,63.626359 48.125795,63.316943 L 46.565014,62.866454 C 46.547313,62.412427 46.487909,61.969215 46.399716,61.529622 L 47.833161,60.738307 C 48.809989,60.199064 49.161382,58.981609 48.622137,58.004783 L 48.041872,56.940522 C 47.502631,55.963696 46.285179,55.612302 45.308350,56.151547 L 43.852681,56.955129 C 43.528947,56.652643 43.185279,56.374086 42.813182,56.122636 L 43.273626,54.527362 C 43.583043,53.455339 42.971583,52.347695 41.899560,52.038278 L 40.735440,51.702279 z M 39.190173,59.224540 C 41.379887,59.856556 42.643930,62.146340 42.011914,64.336053 C 41.379899,66.525768 39.090116,67.789811 36.900402,67.157796 C 34.710688,66.525780 33.446644,64.235996 34.078660,62.046282 C 34.710676,59.856569 37.000458,58.592525 39.190173,59.224540 z "
     id="path1248" />
  <path
     style="fill:#000000;fill-opacity:0.34444442;stroke:none;stroke-width:3.8674629;stroke-linecap:round;stroke-linejoin:round;stroke-miterlimit:4.0000000;stroke-opacity:1.0000000"
     d="M 60.249355,37.342983 C 59.177333,37.033566 58.069687,37.645025 57.760271,38.717048 L 57.299827,40.312323 C 56.849507,40.326414 56.407006,40.368251 55.970462,40.451750 L 55.173015,39.007193 C 54.633770,38.030367 53.407693,37.676486 52.430867,38.215729 L 51.372739,38.807103 C 50.395914,39.346346 50.044520,40.563800 50.583764,41.540627 L 51.375079,42.974073 C 51.067345,43.298187 50.787568,43.646135 50.531473,44.019705 L 48.970692,43.569218 C 47.898668,43.259801 46.779913,43.877395 46.470495,44.949418 L 46.134495,46.113537 C 45.825078,47.185560 46.445161,48.295693 47.517185,48.605110 L 49.043474,49.045642 C 49.055429,49.512371 49.101230,49.971007 49.187703,50.423101 L 47.798706,51.189879 C 46.821880,51.729122 46.470487,52.946576 47.009730,53.923402 L 47.601104,54.981529 C 48.140348,55.958357 49.357802,56.309750 50.334629,55.770506 L 51.701402,55.015996 C 52.042219,55.339913 52.404482,55.636323 52.799930,55.902893 L 52.369354,57.394690 C 52.059937,58.466713 52.671397,59.574358 53.743420,59.883774 L 54.907539,60.219773 C 55.979563,60.529191 57.087207,59.917730 57.396624,58.845707 L 57.829689,57.345289 C 58.302536,57.329932 58.763362,57.278061 59.220749,57.186300 L 59.975257,58.553075 C 60.514502,59.529902 61.731954,59.881294 62.708781,59.342049 L 63.773043,58.761787 C 64.749869,58.222543 65.103752,56.996466 64.564507,56.019641 L 63.803865,54.641755 C 64.117945,54.305272 64.401093,53.941582 64.659914,53.553006 L 66.186203,53.993539 C 67.258227,54.302956 68.365869,53.691496 68.675287,52.619472 L 69.011286,51.455353 C 69.320703,50.383331 68.711733,49.267063 67.639711,48.957647 L 66.078929,48.507159 C 66.061229,48.053131 66.001823,47.609918 65.913631,47.170326 L 67.347076,46.379011 C 68.323904,45.839768 68.675297,44.622313 68.136052,43.645487 L 67.555788,42.581227 C 67.016546,41.604399 65.799094,41.253007 64.822265,41.792251 L 63.366597,42.595833 C 63.042862,42.293348 62.699194,42.014790 62.327097,41.763340 L 62.787540,40.168067 C 63.096958,39.096044 62.485498,37.988399 61.413475,37.678982 L 60.249355,37.342983 z M 58.704088,44.865245 C 60.893802,45.497260 62.157846,47.787044 61.525829,49.976757 C 60.893814,52.166472 58.604031,53.430515 56.414318,52.798500 C 54.224603,52.166484 52.960559,49.876701 53.592575,47.686986 C 54.224591,45.497273 56.514373,44.233229 58.704088,44.865245 z "
     id="path1251" />
  <path
     style="fill:#000000;fill-opacity:0.34444442;stroke:none;stroke-width:3.8674629;stroke-linecap:round;stroke-linejoin:round;stroke-miterlimit:4.0000000;stroke-opacity:1.0000000"
     d="M 32.635324,28.874680 C 31.563301,28.565263 30.455657,29.176723 30.146240,30.248745 L 29.685797,31.844019 C 29.235475,31.858110 28.792975,31.899947 28.356432,31.983447 L 27.558983,30.538890 C 27.019740,29.562064 25.793662,29.208183 24.816836,29.747426 L 23.758709,30.338800 C 22.781884,30.878043 22.430489,32.095498 22.969733,33.072324 L 23.761049,34.505770 C 23.453315,34.829885 23.173536,35.177832 22.917442,35.551402 L 21.356661,35.100915 C 20.284637,34.791497 19.165882,35.409092 18.856463,36.481114 L 18.520465,37.645234 C 18.211048,38.717257 18.831131,39.827390 19.903154,40.136807 L 21.429444,40.577339 C 21.441398,41.044069 21.487199,41.502704 21.573673,41.954798 L 20.184675,42.721575 C 19.207850,43.260819 18.856455,44.478274 19.395700,45.455099 L 19.987074,46.513226 C 20.526318,47.490054 21.743772,47.841446 22.720599,47.302203 L 24.087372,46.547693 C 24.428188,46.871610 24.790451,47.168020 25.185900,47.434590 L 24.755323,48.926386 C 24.445906,49.998410 25.057366,51.106055 26.129389,51.415471 L 27.293508,51.751470 C 28.365532,52.060888 29.473177,51.449428 29.782593,50.377405 L 30.215658,48.876985 C 30.688505,48.861628 31.149332,48.809758 31.606717,48.717998 L 32.361227,50.084772 C 32.900471,51.061598 34.117924,51.412991 35.094751,50.873747 L 36.159012,50.293483 C 37.135839,49.754240 37.489721,48.528164 36.950476,47.551338 L 36.189834,46.173453 C 36.503914,45.836970 36.787061,45.473279 37.045883,45.084703 L 38.572172,45.525235 C 39.644195,45.834653 40.751838,45.223193 41.061255,44.151169 L 41.397255,42.987050 C 41.706673,41.915028 41.097703,40.798760 40.025680,40.489343 L 38.464898,40.038856 C 38.447198,39.584827 38.387793,39.141615 38.299600,38.702024 L 39.733045,37.910708 C 40.709873,37.371465 41.061266,36.154011 40.522022,35.177184 L 39.941757,34.112924 C 39.402515,33.136097 38.185063,32.784704 37.208235,33.323947 L 35.752565,34.127531 C 35.428831,33.825044 35.085163,33.546487 34.713066,33.295037 L 35.173510,31.699764 C 35.482927,30.627740 34.871466,29.520096 33.799444,29.210679 L 32.635324,28.874680 z M 31.090057,36.396942 C 33.279772,37.028958 34.543815,39.318741 33.911799,41.508455 C 33.279783,43.698169 30.990000,44.962213 28.800286,44.330197 C 26.610573,43.698181 25.346528,41.408398 25.978545,39.218684 C 26.610560,37.028970 28.900343,35.764926 31.090057,36.396942 z "
     id="path1863" />
  <path
     style="fill:url(#linearGradient1250);fill-opacity:1.0000000;stroke:#593a28;stroke-width:1.4360162;stroke-linecap:round;stroke-linejoin:round;stroke-miterlimit:4.0000000;stroke-opacity:1.0000000"
     d="M 39.078367,50.045206 C 38.006344,49.735789 36.898700,50.347249 36.589283,51.419272 L 36.128840,53.014545 C 35.678518,53.028637 35.236018,53.070474 34.799475,53.153973 L 34.002026,51.709416 C 33.462783,50.732589 32.236705,50.378709 31.259879,50.917951 L 30.201752,51.509326 C 29.224927,52.048569 28.873532,53.266024 29.412776,54.242850 L 30.204091,55.676296 C 29.896358,56.000411 29.616580,56.348358 29.360485,56.721929 L 27.799704,56.271441 C 26.727679,55.962024 25.608924,56.579618 25.299506,57.651641 L 24.963508,58.815760 C 24.654091,59.887783 25.274174,60.997916 26.346197,61.307334 L 27.872487,61.747865 C 27.884441,62.214595 27.930242,62.673230 28.016716,63.125324 L 26.627717,63.892101 C 25.650892,64.431345 25.299498,65.648800 25.838743,66.625626 L 26.430116,67.683752 C 26.969360,68.660579 28.186815,69.011972 29.163642,68.472728 L 30.530415,67.718219 C 30.871231,68.042136 31.233494,68.338546 31.628943,68.605116 L 31.198366,70.096913 C 30.888949,71.168936 31.500409,72.276581 32.572432,72.585998 L 33.736551,72.921996 C 34.808575,73.231413 35.916219,72.619954 36.225636,71.547930 L 36.658701,70.047511 C 37.131548,70.032154 37.592375,69.980285 38.049760,69.888523 L 38.804270,71.255298 C 39.343514,72.232124 40.560967,72.583516 41.537794,72.044273 L 42.602056,71.464010 C 43.578882,70.924766 43.932764,69.698690 43.393519,68.721864 L 42.632876,67.343978 C 42.946957,67.007496 43.230104,66.643806 43.488926,66.255229 L 45.015215,66.695761 C 46.087238,67.005179 47.194880,66.393719 47.504298,65.321696 L 47.840298,64.157576 C 48.149715,63.085553 47.540746,61.969286 46.468723,61.659869 L 44.907941,61.209382 C 44.890240,60.755354 44.830834,60.312141 44.742643,59.872549 L 46.176088,59.081235 C 47.152916,58.541992 47.504310,57.324536 46.965065,56.347711 L 46.384801,55.283449 C 45.845558,54.306623 44.628105,53.955231 43.651277,54.494473 L 42.195608,55.298056 C 41.871873,54.995570 41.528205,54.717013 41.156109,54.465563 L 41.616553,52.870290 C 41.925970,51.798266 41.314509,50.690622 40.242487,50.381205 L 39.078367,50.045206 z M 37.533100,57.567469 C 39.722815,58.199484 40.986858,60.489267 40.354843,62.678980 C 39.722825,64.868695 37.433043,66.132739 35.243329,65.500723 C 33.053615,64.868707 31.789571,62.578924 32.421588,60.389209 C 33.053603,58.199496 35.343386,56.935452 37.533100,57.567469 z "
     id="path1249" />
  <path
     style="fill:url(#linearGradient1253);fill-opacity:1.0000000;stroke:#593a28;stroke-width:1.4360162;stroke-linecap:round;stroke-linejoin:round;stroke-miterlimit:4.0000000;stroke-opacity:1.0000000"
     d="M 58.592282,35.685910 C 57.520259,35.376493 56.412615,35.987953 56.103198,37.059976 L 55.642755,38.655249 C 55.192434,38.669341 54.749933,38.711178 54.313390,38.794677 L 53.515941,37.350120 C 52.976698,36.373293 51.750620,36.019413 50.773794,36.558656 L 49.715667,37.150030 C 48.738841,37.689273 48.387448,38.906729 48.926691,39.883554 L 49.718005,41.317000 C 49.410273,41.641116 49.130495,41.989063 48.874401,42.362633 L 47.313619,41.912145 C 46.241595,41.602728 45.122839,42.220322 44.813422,43.292345 L 44.477423,44.456464 C 44.168006,45.528487 44.788089,46.638620 45.860112,46.948038 L 47.386401,47.388569 C 47.398355,47.855299 47.444158,48.313934 47.530631,48.766028 L 46.141633,49.532805 C 45.164808,50.072050 44.813413,51.289504 45.352658,52.266330 L 45.944031,53.324457 C 46.483275,54.301284 47.700730,54.652676 48.677557,54.113432 L 50.044330,53.358923 C 50.385146,53.682840 50.747409,53.979250 51.142857,54.245820 L 50.712280,55.737616 C 50.402864,56.809640 51.014325,57.917285 52.086347,58.226701 L 53.250466,58.562700 C 54.322490,58.872118 55.430134,58.260659 55.739551,57.188635 L 56.172616,55.688215 C 56.645463,55.672859 57.106290,55.620989 57.563675,55.529228 L 58.318185,56.896002 C 58.857429,57.872828 60.074882,58.224220 61.051709,57.684978 L 62.115971,57.104714 C 63.092797,56.565470 63.446679,55.339394 62.907434,54.362568 L 62.146792,52.984683 C 62.460873,52.648200 62.744020,52.284510 63.002841,51.895933 L 64.529130,52.336465 C 65.601154,52.645883 66.708795,52.034423 67.018214,50.962400 L 67.354213,49.798280 C 67.663630,48.726257 67.054660,47.609990 65.982638,47.300573 L 64.421855,46.850086 C 64.404156,46.396057 64.344749,45.952845 64.256558,45.513254 L 65.690003,44.721939 C 66.666831,44.182696 67.018225,42.965241 66.478979,41.988415 L 65.898715,40.924153 C 65.359473,39.947327 64.142019,39.595935 63.165192,40.135178 L 61.709523,40.938761 C 61.385789,40.636274 61.042121,40.357717 60.670024,40.106267 L 61.130468,38.510994 C 61.439885,37.438970 60.828425,36.331326 59.756402,36.021909 L 58.592282,35.685910 z M 57.047015,43.208173 C 59.236730,43.840188 60.500773,46.129971 59.868757,48.319685 C 59.236741,50.509399 56.946958,51.773443 54.757245,51.141427 C 52.567531,50.509411 51.303486,48.219628 51.935503,46.029913 C 52.567518,43.840200 54.857301,42.576156 57.047015,43.208173 z "
     id="path1252" />
  <path
     style="fill:url(#linearGradient1247);fill-opacity:1.0000000;stroke:#593a28;stroke-width:1.4360162;stroke-linecap:round;stroke-linejoin:round;stroke-miterlimit:4.0000000;stroke-opacity:1.0000000"
     d="M 30.978252,27.217607 C 29.906229,26.908190 28.798584,27.519650 28.489167,28.591673 L 28.028725,30.186947 C 27.578403,30.201038 27.135902,30.242875 26.699360,30.326375 L 25.901911,28.881818 C 25.362666,27.904990 24.136590,27.551110 23.159764,28.090353 L 22.101636,28.681727 C 21.124811,29.220971 20.773416,30.438425 21.312661,31.415251 L 22.103975,32.848697 C 21.796242,33.172813 21.516465,33.520760 21.260370,33.894330 L 19.699589,33.443843 C 18.627564,33.134426 17.508809,33.752019 17.199391,34.824042 L 16.863392,35.988161 C 16.553974,37.060185 17.174058,38.170317 18.246081,38.479735 L 19.772371,38.920266 C 19.784325,39.386996 19.830127,39.845632 19.916600,40.297725 L 18.527602,41.064503 C 17.550776,41.603747 17.199383,42.821201 17.738627,43.798027 L 18.330001,44.856154 C 18.869245,45.832981 20.086699,46.184374 21.063526,45.645129 L 22.430300,44.890620 C 22.771115,45.214537 23.133378,45.510947 23.528827,45.777517 L 23.098250,47.269314 C 22.788834,48.341338 23.400294,49.448982 24.472317,49.758399 L 25.636436,50.094398 C 26.708459,50.403815 27.816103,49.792355 28.125520,48.720332 L 28.558586,47.219912 C 29.031433,47.204556 29.492259,47.152687 29.949645,47.060925 L 30.704155,48.427698 C 31.243399,49.404526 32.460851,49.755917 33.437678,49.216674 L 34.501940,48.636412 C 35.478766,48.097167 35.832648,46.871091 35.293404,45.894266 L 34.532761,44.516379 C 34.846841,44.179896 35.129989,43.816206 35.388810,43.427631 L 36.915100,43.868162 C 37.987123,44.177580 39.094765,43.566121 39.404183,42.494097 L 39.740183,41.329978 C 40.049600,40.257955 39.440630,39.141688 38.368608,38.832270 L 36.807825,38.381783 C 36.790124,37.927755 36.730719,37.484543 36.642528,37.044950 L 38.075973,36.253637 C 39.052801,35.714393 39.404194,34.496938 38.864949,33.520113 L 38.284685,32.455850 C 37.745442,31.479024 36.527989,31.127631 35.551162,31.666875 L 34.095493,32.470458 C 33.771758,32.167971 33.428090,31.889414 33.055994,31.637965 L 33.516437,30.042691 C 33.825855,28.970667 33.214394,27.863024 32.142372,27.553607 L 30.978252,27.217607 z M 29.432985,34.739870 C 31.622699,35.371885 32.886743,37.661668 32.254726,39.851381 C 31.622710,42.041096 29.332927,43.305140 27.143214,42.673124 C 24.953499,42.041109 23.689456,39.751325 24.321471,37.561610 C 24.953488,35.371898 27.243270,34.107854 29.432985,34.739870 z "
     id="path1864" />
  <path
     transform="matrix(0.964249,0.264999,-0.264999,0.964249,1.741907,-4.615140)"
     style="font-size:12.000000;font-style:normal;font-variant:normal;font-weight:normal;font-stretch:normal;fill:#3d4e67;fill-opacity:1.0000000;stroke:none;stroke-width:1.0000000pt;stroke-linecap:butt;stroke-linejoin:miter;stroke-opacity:1.0000000;font-family:Kid Kosmic;text-anchor:start;writing-mode:lr"
     d="M 31.602951,17.266464 C 31.345138,15.446156 31.216232,13.715689 31.216232,12.075058 C 31.216232,11.637566 31.243576,10.965692 31.298264,10.059433 C 31.360763,8.9266311 31.431076,8.3211630 31.509201,8.2430267 C 31.501388,8.2274131 31.489670,8.2117881 31.474045,8.1961517 C 31.520920,8.1805381 31.548263,8.1727256 31.556076,8.1727142 C 31.743576,7.9227259 32.009200,7.7703823 32.352951,7.7156830 C 32.477950,7.6922574 32.595137,7.6805386 32.704514,7.6805267 C 32.892012,7.6805386 33.063887,7.7117886 33.220139,7.7742767 C 34.423260,7.5633513 35.626384,7.4617889 36.829514,7.4695892 C 38.009194,7.4774138 38.720131,7.6610074 38.962326,8.0203705 C 39.962317,9.5203805 40.462317,10.750848 40.462326,11.711777 C 40.462317,12.368034 40.227942,12.895377 39.759201,13.293808 C 38.821693,14.098501 37.153726,14.500844 34.755295,14.500839 C 34.169354,14.500844 33.540449,14.477407 32.868576,14.430527 C 32.946699,15.219594 33.079512,15.977405 33.267014,16.703964 C 33.282637,17.125842 33.122480,17.410998 32.786545,17.559433 C 32.677168,17.606310 32.567793,17.629747 32.458420,17.629745 C 32.200606,17.629747 31.915450,17.508654 31.602951,17.266464 M 33.149826,9.7781830 C 32.899824,10.801629 32.782637,11.856316 32.798264,12.942245 C 33.345136,13.020377 34.044354,13.055533 34.895920,13.047714 C 36.880289,13.039908 38.106850,12.606315 38.575607,11.746933 C 38.645912,11.621941 38.681069,11.477410 38.681076,11.313339 C 38.681069,10.899285 38.446694,10.383661 37.977951,9.7664642 C 37.423257,9.4774118 36.821695,9.3328807 36.173264,9.3328705 C 35.509197,9.3328807 34.501385,9.4813181 33.149826,9.7781830 M 44.106857,12.450058 C 44.591230,12.496940 45.649823,12.340690 47.282639,11.981308 C 48.915445,11.614128 50.013100,11.286004 50.575607,10.996933 C 51.067786,11.114129 51.317786,11.399285 51.325607,11.852402 C 51.333411,12.305534 51.122474,12.602409 50.692795,12.743027 L 44.048264,14.266464 C 44.079512,14.875844 44.212324,15.340687 44.446701,15.660995 C 44.813886,15.778187 45.231854,15.836780 45.700607,15.836777 C 46.966228,15.836780 48.829507,15.371937 51.290451,14.442245 C 51.735754,14.668813 51.958410,14.922719 51.958420,15.203964 C 51.958410,15.266469 51.950598,15.325062 51.934982,15.379745 C 51.817785,15.739124 51.642004,16.024280 51.407639,16.235214 C 50.259193,16.789905 48.642007,17.200060 46.556076,17.465683 C 45.665448,17.582872 44.868574,17.625841 44.165451,17.594589 C 43.462325,17.571154 43.020919,17.446154 42.841232,17.219589 C 42.567795,15.946155 42.434982,14.625844 42.442795,13.258652 C 42.442795,11.953972 42.513107,10.403192 42.653732,8.6063080 C 42.989669,8.1531944 44.009199,7.8446010 45.712326,7.6805267 C 46.431072,7.6102262 47.177165,7.5711637 47.950607,7.5633392 C 48.716226,7.5555388 49.403725,7.5555388 50.013107,7.5633392 C 50.630287,7.8914759 50.938880,8.2860068 50.938889,8.7469330 C 50.938880,9.0672560 50.720130,9.3289745 50.282639,9.5320892 C 49.298257,9.3211620 48.345133,9.2156934 47.423264,9.2156830 C 46.501384,9.2156934 45.493573,9.5320993 44.399826,10.164902 L 44.247482,11.360214 C 44.192793,11.743035 44.145918,12.106315 44.106857,12.450058 M 54.184982,17.266464 C 53.974045,15.836780 53.845139,14.379751 53.798264,12.895370 C 53.759201,11.411004 53.845139,9.8758489 54.056076,8.2899017 L 54.079514,8.2430267 L 54.056076,8.1961517 C 54.087326,8.1805381 54.110763,8.1727256 54.126389,8.1727142 C 54.313888,7.9227259 54.579513,7.7703823 54.923264,7.7156830 C 55.048262,7.6922574 55.165450,7.6805386 55.274826,7.6805267 C 55.470137,7.6805386 55.645918,7.7117886 55.802170,7.7742767 C 56.997479,7.5633513 58.196697,7.4617889 59.399826,7.4695892 C 60.579507,7.4774138 61.290444,7.6610074 61.532639,8.0203705 C 62.532630,9.5203805 63.032629,10.739129 63.032639,11.676620 C 63.032629,12.036003 62.958411,12.360221 62.809982,12.649277 C 62.278724,13.688345 60.954506,14.289907 58.837326,14.453964 C 59.329508,14.914906 59.974039,15.305531 60.770920,15.625839 C 61.231850,15.813343 61.954505,16.039905 62.938889,16.305527 C 63.071692,16.461780 63.138098,16.610217 63.138107,16.750839 C 63.138098,16.961779 63.040442,17.137560 62.845139,17.278183 C 62.649817,17.410998 62.446692,17.477404 62.235764,17.477402 C 62.110755,17.477404 61.974037,17.457873 61.825607,17.418808 C 59.481852,16.817248 57.360760,15.868030 55.462326,14.571152 C 55.548262,15.352406 55.677168,16.063343 55.849045,16.703964 C 55.864668,17.125842 55.700605,17.410998 55.356857,17.559433 C 55.255293,17.606310 55.145918,17.629747 55.028732,17.629745 C 54.770919,17.629747 54.489669,17.508654 54.184982,17.266464 M 55.720139,9.7781830 C 55.485762,10.754754 55.368574,11.809441 55.368576,12.942245 C 55.915449,13.020377 56.618573,13.055533 57.477951,13.047714 C 59.462320,13.039908 60.684975,12.606315 61.145920,11.746933 C 61.216225,11.621941 61.251381,11.477410 61.251389,11.313339 C 61.251381,10.899285 61.020913,10.383661 60.559982,9.7664642 C 59.997476,9.4774118 59.395914,9.3328807 58.755295,9.3328705 C 58.099041,9.3328807 57.087323,9.4813181 55.720139,9.7781830 M 65.352951,8.2313080 C 65.431076,7.8719447 65.724044,7.6922574 66.231857,7.6922455 C 66.544356,7.6922574 66.802168,7.7742885 67.005295,7.9383392 C 67.231855,8.1258507 67.313886,8.3719442 67.251389,8.6766205 C 66.993574,9.9110052 66.849043,11.082879 66.817795,12.192245 C 66.786543,13.325064 66.892012,14.438344 67.134201,15.532089 C 67.657636,15.602406 68.184979,15.637562 68.716232,15.637558 C 69.302166,15.637562 69.895915,15.594593 70.497482,15.508652 C 71.278726,15.399281 72.380288,15.243031 73.802170,15.039902 C 74.091223,15.000844 74.274817,15.192250 74.352951,15.614120 C 74.360754,15.692249 74.364661,15.766468 74.364670,15.836777 C 74.364661,16.149280 74.231848,16.332874 73.966232,16.387558 C 73.036537,16.590686 71.813882,16.793811 70.298264,16.996933 C 69.079510,17.168810 67.884198,17.258654 66.712326,17.266464 C 66.196700,17.180529 65.915450,17.121935 65.868576,17.090683 C 65.751388,17.020373 65.622482,16.778186 65.481857,16.364120 C 65.255295,15.215687 65.153732,13.938345 65.177170,12.532089 C 65.200607,11.125848 65.259201,9.6922554 65.352951,8.2313080"
     id="text1126" />
</svg>
