<?xml version="1.0" encoding="UTF-8" standalone="no"?>
<!DOCTYPE svg PUBLIC "-//W3C//DTD SVG 20010904//EN"
"http://www.w3.org/TR/2001/REC-SVG-20010904/DTD/svg10.dtd">
<!-- Created with Sodipodi ("http://www.sodipodi.com/") -->
<svg
   id="svg604"
   sodipodi:version="0.32"
   width="72pt"
   height="72pt"
   sodipodi:docbase="/home/zeus/desktop/icons/gartoon/svg"
   sodipodi:docname="/home/zeus/desktop/icons/gartoon/svg/gnome-mime-text-x-install.svg"
   xmlns="http://www.w3.org/2000/svg"
   xmlns:sodipodi="http://sodipodi.sourceforge.net/DTD/sodipodi-0.dtd"
   xmlns:xlink="http://www.w3.org/1999/xlink">
  <defs
     id="defs606">
    <linearGradient
       id="linearGradient612">
      <stop
         style="stop-color:#7fa8e3;stop-opacity:0.741176;"
         offset="0.000000"
         id="stop613" />
      <stop
         style="stop-color:#ffffff;stop-opacity:0;"
         offset="1.000000"
         id="stop614" />
    </linearGradient>
    <linearGradient
       xlink:href="#linearGradient612"
       id="linearGradient615"
       x1="50.6438866"
       y1="5.36792946"
       x2="35.7520943"
       y2="68.0443573"
       gradientUnits="userSpaceOnUse"
       spreadMethod="pad" />
  </defs>
  <sodipodi:namedview
     id="base" />
  <path
     style="fill:#000000;fill-rule:evenodd;stroke:none;stroke-opacity:1;stroke-width:1pt;stroke-linejoin:miter;stroke-linecap:butt;fill-opacity:0.301471;"
     d="M 12.8163 74.753 C 10.3856 73.6481 7.07107 70.1126 8.83884 65.2512 C 9.72267 59.948 25.6326 13.1021 29.1682 10.8924 C 31.3778 8.90368 34.582 8.13026 39.1119 9.34561 C 42.8684 10.2295 76.6769 19.0684 78.6656 20.8361 C 80.6544 22.6039 82.2012 24.0402 80.6544 27.9072 C 79.5496 29.8959 66.4017 74.532 66.1808 77.4047 C 65.2969 80.4983 62.7558 84.2548 58.5573 84.0338 C 54.3589 83.8128 15.9099 75.4159 12.8163 74.753 z "
     id="path794"
     sodipodi:nodetypes="ccccccccc"
     transform="matrix(1.114903,0.000000,0.000000,1.114903,-5.305332,-3.889256)" />
  <path
     style="fill:#3d4e67;fill-rule:evenodd;stroke:none;stroke-opacity:1;stroke-width:1pt;stroke-linejoin:miter;stroke-linecap:butt;fill-opacity:1;"
     d="M 12.8163 74.753 C 10.3856 73.6481 7.07107 70.1126 8.83884 65.2512 C 9.72267 59.948 25.6326 13.1021 29.1682 10.8924 C 31.3778 8.90368 34.582 8.13026 39.1119 9.34561 C 42.8684 10.2295 76.6769 19.0684 78.6656 20.8361 C 80.6544 22.6039 82.2012 24.0402 80.6544 27.9072 C 79.5496 29.8959 66.4017 74.532 66.1808 77.4047 C 65.2969 80.4983 62.7558 84.2548 58.5573 84.0338 C 54.3589 83.8128 15.9099 75.4159 12.8163 74.753 z "
     id="path609"
     sodipodi:nodetypes="ccccccccc"
     transform="matrix(1.114903,0.000000,0.000000,1.114903,-8.162471,-8.460684)" />
  <path
     style="fill:#ffffff;fill-rule:evenodd;stroke:none;stroke-opacity:1;stroke-width:1pt;stroke-linejoin:miter;stroke-linecap:butt;fill-opacity:1;"
     d="M 17.8987 70.9965 C 15.3576 70.3336 11.7114 69.6706 13.0373 65.6932 C 15.468 55.9705 27.8424 18.6264 33.1456 13.986 C 34.361 12.8811 38.4489 12.4392 46.1829 14.8699 C 55.0218 17.5215 72.9204 23.4877 74.6882 24.3716 C 76.4559 25.2555 77.1189 25.2555 75.793 29.233 C 73.8043 33.2105 64.9655 67.24 62.7557 72.9852 C 61.209 77.0732 60.8775 78.9514 58.2258 78.9514 "
     id="path608"
     sodipodi:nodetypes="cccccccs"
     transform="matrix(1.114903,0.000000,0.000000,1.114903,-8.162471,-8.460684)" />
  <path
     style="fill:url(#linearGradient615);fill-rule:evenodd;stroke:none;stroke-opacity:1;stroke-width:1pt;stroke-linejoin:miter;stroke-linecap:butt;fill-opacity:1;"
     d="M 28.75 13.75 C 28.75 13.75 31.875 7.49995 39.6875 9.37495 C 47.5 11.25 78.125 19.375 77.8125 21.875 C 77.5 24.375 71.875 39.0625 71.5625 40.3125 C 71.25 41.5625 42.5 40.9375 31.5625 47.5 C 20.625 54.0625 12.5 59.6875 12.5 59.6875 C 12.5 59.6875 23.75 24.6875 28.75 13.75 z "
     id="path636"
     transform="matrix(0.946780,0.000000,0.000000,0.946780,-0.480566,0.409517)" />
  <g
     id="g588"
     transform="matrix(0.578108,0.000000,0.000000,0.578108,16.81730,12.31448)">
    <defs
       id="defs668">
      <linearGradient
         id="linearGradient689">
        <stop
           style="stop-color:#ffb700;stop-opacity:1;"
           offset="0.000000"
           id="stop690" />
        <stop
           style="stop-color:#fdffff;stop-opacity:0;"
           offset="1.000000"
           id="stop691" />
      </linearGradient>
      <linearGradient
         id="linearGradient684">
        <stop
           style="stop-color:#ffffff;stop-opacity:0.647059;"
           offset="0.000000"
           id="stop685" />
        <stop
           style="stop-color:#fdffff;stop-opacity:0;"
           offset="1.000000"
           id="stop686" />
      </linearGradient>
      <linearGradient
         id="linearGradient677">
        <stop
           style="stop-color:#000000;stop-opacity:1;"
           offset="0.000000"
           id="stop678" />
        <stop
           style="stop-color:#6a6762;stop-opacity:1;"
           offset="1.000000"
           id="stop679" />
      </linearGradient>
      <linearGradient
         xlink:href="#linearGradient677"
         id="linearGradient680"
         x1="68.3116760"
         y1="71.2960510"
         x2="52.5783653"
         y2="39.5797806"
         gradientUnits="userSpaceOnUse"
         spreadMethod="pad"
         gradientTransform="scale(1.011562,0.988570)" />
      <linearGradient
         xlink:href="#linearGradient684"
         id="linearGradient683"
         x1="49.0257645"
         y1="44.3401871"
         x2="56.4553261"
         y2="53.1827507"
         gradientUnits="userSpaceOnUse"
         spreadMethod="pad"
         gradientTransform="scale(1.017548,0.982755)" />
      <linearGradient
         xlink:href="#linearGradient689"
         id="linearGradient688"
         x1="26.2959213"
         y1="98.9529343"
         x2="31.7159863"
         y2="102.827583"
         gradientUnits="userSpaceOnUse"
         spreadMethod="pad"
         gradientTransform="scale(1.326975,0.753594)" />
      <linearGradient
         xlink:href="#linearGradient689"
         id="linearGradient693"
         x1="33.5794411"
         y1="53.8219566"
         x2="-14.0691185"
         y2="26.5526485"
         gradientUnits="userSpaceOnUse"
         spreadMethod="pad"
         gradientTransform="scale(0.780786,1.280761)" />
      <linearGradient
         xlink:href="#linearGradient689"
         id="linearGradient698" />
    </defs>
    <sodipodi:namedview
       id="namedview604" />
    <path
       style="fill:#000000;fill-rule:evenodd;stroke:none;stroke-opacity:1;stroke-width:1pt;stroke-linejoin:miter;stroke-linecap:butt;fill-opacity:0.298246;"
       d="M 1.43587 43.3341 C 1.43587 43.3341 13.9829 62.1334 24.4099 77.6156 C 26.361 79.271 38.7518 85.1307 41.6404 83.718 C 44.2164 82.1492 79.0892 55.3067 79.7142 52.1225 C 80.6982 48.5327 79.4883 46.2058 78.6141 44.411 C 77.8962 42.6161 54.5632 6.53978 53.6658 5.64236 C 52.7684 4.74493 50.2556 3.48854 47.2044 4.56545 C 39.4401 9.04617 15.007 24.332 2.58248 37.1683 C 0.96712 38.9632 1.25639 41.5392 1.43587 43.3341 z "
       id="path699"
       sodipodi:nodetypes="ccccccccc"
       transform="matrix(1.120973,0.000000,0.000000,0.970624,-0.312708,8.246927)" />
    <path
       style="fill:none;fill-rule:evenodd;stroke:black;stroke-opacity:1;stroke-width:1pt;stroke-linejoin:miter;stroke-linecap:butt;fill-opacity:1;"
       d="M 8.79473 37.4111 C 8.79473 37.4709 8.79473 37.5307 8.79473 37.5906 "
       id="path671" />
    <path
       style="fill:#261d14;fill-rule:evenodd;stroke:none;stroke-opacity:1;stroke-width:1pt;stroke-linejoin:miter;stroke-linecap:butt;fill-opacity:1;"
       d="M 1.43587 43.3341 C 1.43587 43.3341 13.9829 62.1334 24.4099 77.6156 C 26.361 79.271 38.7518 85.1307 41.6404 83.718 C 44.2164 82.1492 79.0892 55.3067 79.7142 52.1225 C 80.6982 48.5327 79.4883 46.2058 78.6141 44.411 C 77.8962 42.6161 54.5632 6.53978 53.6658 5.64236 C 52.7684 4.74493 50.2556 3.48854 47.2044 4.56545 C 39.4401 9.04617 15.007 24.332 2.58248 37.1683 C 0.96712 38.9632 1.25639 41.5392 1.43587 43.3341 z "
       id="path676"
       sodipodi:nodetypes="ccccccccc" />
    <path
       style="fill:#f1e36c;fill-rule:evenodd;stroke:none;stroke-opacity:1;stroke-width:1pt;stroke-linejoin:miter;stroke-linecap:butt;fill-opacity:1;"
       d="M 8.61525 37.5906 C 8.61525 37.5906 27.2816 66.8465 27.9995 68.1029 C 28.7175 69.3593 30.3329 71.1542 33.5636 72.0516 C 38.4097 74.0259 43.0762 75.8207 43.4352 75.8207 C 43.7942 75.8207 46.1275 73.6669 46.1275 73.6669 L 35.5379 60.3851 L 59.7683 39.2059 L 69.9989 54.1031 L 75.5629 49.616 C 75.5629 49.616 50.4351 8.69359 50.0761 8.69359 C 49.7172 8.69359 43.7942 12.2833 43.7942 12.2833 L 56.3581 31.3086 C 56.3581 31.3086 31.7687 49.4366 29.6149 51.2314 C 27.6406 51.2314 13.4613 33.4624 13.4613 33.4624 L 8.61525 37.5906 z "
       id="path672"
       sodipodi:nodetypes="ccccccccccccccc" />
    <path
       style="fill:#ffffff;fill-rule:evenodd;stroke:none;stroke-opacity:1;stroke-width:1pt;stroke-linejoin:miter;stroke-linecap:butt;fill-opacity:1;"
       d="M 14.8972 32.565 L 29.6149 49.2571 L 54.2043 30.7702 L 42.3583 12.8217 L 14.8972 32.565 z "
       id="path673"
       sodipodi:nodetypes="ccccc" />
    <path
       style="fill:url(#linearGradient680);fill-rule:evenodd;stroke:none;stroke-opacity:1;stroke-width:1pt;stroke-linejoin:miter;stroke-linecap:butt;fill-opacity:1;"
       d="M 37.5122 60.5646 L 47.0249 72.4105 L 49.3582 70.6157 L 41.1019 60.3851 C 41.1019 60.3851 43.7942 57.3338 45.589 57.1544 C 48.4608 59.8466 54.2043 67.026 54.2043 67.026 L 69.1015 55.7185 L 59.2298 41.5392 L 37.5122 60.5646 z "
       id="path674"
       sodipodi:nodetypes="ccccccccc" />
    <path
       style="fill:#f1e36c;fill-rule:evenodd;stroke:none;stroke-opacity:1;stroke-width:1pt;stroke-linejoin:miter;stroke-linecap:butt;fill-opacity:1;"
       d="M 7.92054 38.5345 C 7.20261 38.355 28.897 71.872 29.4355 71.872 C 29.9739 71.872 41.4609 76.7182 41.4609 76.7182 L 40.743 79.0514 L 28.7175 75.6413 L 5.40776 41.25 L 7.92054 38.5345 z "
       id="path675"
       sodipodi:nodetypes="ccccccc"
       transform="" />
    <path
       style="fill:#f1e36c;fill-rule:evenodd;stroke:none;stroke-opacity:1;stroke-width:1pt;stroke-linejoin:miter;stroke-linecap:butt;fill-opacity:1;"
       d="M 42.3583 60.2056 L 49.7172 69.7183 L 52.9479 67.026 L 45.2301 57.6928 L 42.3583 60.2056 z "
       id="path681" />
    <path
       style="fill:url(#linearGradient683);fill-rule:evenodd;stroke:none;stroke-opacity:1;stroke-width:1pt;stroke-linejoin:miter;stroke-linecap:butt;fill-opacity:1;"
       d="M 59.0625 42.5 L 45.1563 54.6875 C 46.3542 58.2291 50.3646 60.9895 52.0313 62.9687 C 54.5834 43.802 59.948 45.4166 65.3126 52.3437 L 59.0625 42.5 z "
       id="path682"
       sodipodi:nodetypes="ccccc" />
    <path
       style="fill:url(#linearGradient688);fill-rule:evenodd;stroke:none;stroke-opacity:1;stroke-width:1pt;stroke-linejoin:miter;stroke-linecap:butt;fill-opacity:1;"
       d="M 41.25 76.7187 L 40.625 79.0625 L 28.5938 75.9375 L 29.0625 71.875 L 41.25 76.7187 z "
       id="path687" />
    <path
       style="fill:url(#linearGradient693);fill-rule:evenodd;stroke:none;stroke-opacity:1;stroke-width:1pt;stroke-linejoin:miter;stroke-linecap:butt;fill-opacity:1;"
       d="M 28.5938 75.7812 L 29.375 72.1875 L 12.5 46.5625 L 11.5625 50 L 28.5938 75.7812 z "
       id="path692" />
    <path
       style="fill:#bae6ff;fill-rule:evenodd;stroke:none;stroke-opacity:1;stroke-width:1pt;stroke-linejoin:miter;stroke-linecap:butt;fill-opacity:1;"
       d="M 14.8438 32.5 L 21.0938 39.5312 L 47.8126 20.7812 L 42.3438 12.8125 L 14.8438 32.5 z "
       id="path697"
       sodipodi:nodetypes="ccccc" />
  </g>
</svg>
