<?xml version="1.0" encoding="UTF-8" standalone="no"?>
<!DOCTYPE svg PUBLIC "-//W3C//DTD SVG 20010904//EN"
"http://www.w3.org/TR/2001/REC-SVG-20010904/DTD/svg10.dtd">
<!-- Created with Sodipodi ("http://www.sodipodi.com/") -->
<svg
   id="svg596"
   sodipodi:version="0.32"
   width="72pt"
   height="72pt"
   sodipodi:docbase="/home/zeus/.icons/gartoon/scalable/mimetypes"
   sodipodi:docname="gnome-mime-image-png.svg"
   xmlns="http://www.w3.org/2000/svg"
   xmlns:sodipodi="http://sodipodi.sourceforge.net/DTD/sodipodi-0.dtd"
   xmlns:xlink="http://www.w3.org/1999/xlink"
   xmlns:inkscape="http://www.inkscape.org/namespaces/inkscape"
   inkscape:version="0.40"
   xmlns:rdf="http://www.w3.org/1999/02/22-rdf-syntax-ns#"
   xmlns:cc="http://web.resource.org/cc/"
   xmlns:dc="http://purl.org/dc/elements/1.1/">
  <metadata
     id="metadata40">
    <rdf:RDF
       id="RDF41">
      <cc:Work
         rdf:about=""
         id="Work42">
        <dc:format
           id="format43">image/svg+xml</dc:format>
        <dc:type
           id="type45"
           rdf:resource="http://purl.org/dc/dcmitype/StillImage" />
      </cc:Work>
    </rdf:RDF>
  </metadata>
  <defs
     id="defs598">
    <linearGradient
       id="linearGradient612">
      <stop
         style="stop-color:#7fa8e3;stop-opacity:0.741176;"
         offset="0.000000"
         id="stop613" />
      <stop
         style="stop-color:#ffffff;stop-opacity:0;"
         offset="1.000000"
         id="stop614" />
    </linearGradient>
    <linearGradient
       id="linearGradient626">
      <stop
         style="stop-color:#ff0047;stop-opacity:1;"
         offset="0.000000"
         id="stop627" />
      <stop
         style="stop-color:#ab322d;stop-opacity:0;"
         offset="1.000000"
         id="stop628" />
    </linearGradient>
    <linearGradient
       id="linearGradient618">
      <stop
         style="stop-color:#956d47;stop-opacity:1;"
         offset="0.000000"
         id="stop619" />
      <stop
         style="stop-color:#ab322d;stop-opacity:0;"
         offset="1.000000"
         id="stop620" />
    </linearGradient>
    <linearGradient
       id="linearGradient614">
      <stop
         style="stop-color:#000;stop-opacity:1;"
         offset="0"
         id="stop615" />
      <stop
         style="stop-color:#fff;stop-opacity:1;"
         offset="1"
         id="stop616" />
    </linearGradient>
    <linearGradient
       xlink:href="#linearGradient618"
       id="linearGradient617"
       x1="-0.19608469"
       y1="0.57031226"
       x2="1.07843077"
       y2="0.52343726"
       gradientUnits="objectBoundingBox"
       spreadMethod="pad" />
    <linearGradient
       xlink:href="#linearGradient626"
       id="linearGradient625"
       x1="42.9995728"
       y1="77.3980103"
       x2="28.5382881"
       y2="63.0152588"
       gradientUnits="userSpaceOnUse"
       spreadMethod="pad"
       gradientTransform="matrix(0.934001,0.000000,0.000000,1.070663,-1.516226e-6,-1.716230e-7)" />
    <linearGradient
       xlink:href="#linearGradient612"
       id="linearGradient636"
       x1="16.4110699"
       y1="10.6072874"
       x2="24.6243172"
       y2="61.6665344"
       gradientUnits="userSpaceOnUse"
       spreadMethod="pad" />
    <linearGradient
       inkscape:collect="always"
       xlink:href="#linearGradient618"
       id="linearGradient1112"
       gradientUnits="userSpaceOnUse"
       spreadMethod="pad"
       x1="14.043809"
       y1="22.932673"
       x2="54.455856"
       y2="21.446371"
       gradientTransform="scale(0.627016,1.594855)" />
    <linearGradient
       inkscape:collect="always"
       xlink:href="#linearGradient626"
       id="linearGradient1113"
       gradientUnits="userSpaceOnUse"
       gradientTransform="matrix(0.934001,0.000000,0.000000,1.070663,-1.516226e-6,-1.716230e-7)"
       spreadMethod="pad"
       x1="42.9995728"
       y1="77.3980103"
       x2="28.5382881"
       y2="63.0152588" />
  </defs>
  <sodipodi:namedview
     id="base"
     inkscape:zoom="5.0416667"
     inkscape:cx="36.000000"
     inkscape:cy="36.000000"
     inkscape:window-width="640"
     inkscape:window-height="536"
     inkscape:window-x="5"
     inkscape:window-y="48"
     inkscape:current-layer="svg596" />
  <g
     id="g898"
     transform="translate(-1.146498,1.146498)">
    <path
       style="fill:#000000;fill-rule:evenodd;stroke:none;stroke-opacity:1;stroke-width:1pt;stroke-linejoin:miter;stroke-linecap:butt;fill-opacity:0.301471;"
       d="M 12.8163 74.753 C 10.3856 73.6481 7.07107 70.1126 8.83884 65.2512 C 9.72267 59.948 25.6326 13.1021 29.1682 10.8924 C 31.3778 8.90368 34.582 8.13026 39.1119 9.34561 C 42.8684 10.2295 76.6769 19.0684 78.6656 20.8361 C 80.6544 22.6039 82.2012 24.0402 80.6544 27.9072 C 79.5496 29.8959 66.4017 74.532 66.1808 77.4047 C 65.2969 80.4983 62.7558 84.2548 58.5573 84.0338 C 54.3589 83.8128 15.9099 75.4159 12.8163 74.753 z "
       id="path794"
       sodipodi:nodetypes="ccccccccc"
       transform="matrix(1.114903,0.000000,0.000000,1.114903,1.287023,-5.035753)" />
    <path
       style="fill:#3d4e67;fill-rule:evenodd;stroke:none;stroke-opacity:1;stroke-width:1pt;stroke-linejoin:miter;stroke-linecap:butt;fill-opacity:1;"
       d="M 12.8163 74.753 C 10.3856 73.6481 7.07107 70.1126 8.83884 65.2512 C 9.72267 59.948 25.6326 13.1021 29.1682 10.8924 C 31.3778 8.90368 34.582 8.13026 39.1119 9.34561 C 42.8684 10.2295 76.6769 19.0684 78.6656 20.8361 C 80.6544 22.6039 82.2012 24.0402 80.6544 27.9072 C 79.5496 29.8959 66.4017 74.532 66.1808 77.4047 C 65.2969 80.4983 62.7558 84.2548 58.5573 84.0338 C 54.3589 83.8128 15.9099 75.4159 12.8163 74.753 z "
       id="path895"
       sodipodi:nodetypes="ccccccccc"
       transform="matrix(1.114903,0.000000,0.000000,1.114903,-1.570116,-9.607182)" />
    <path
       style="fill:#ffffff;fill-rule:evenodd;stroke:none;stroke-opacity:1;stroke-width:1pt;stroke-linejoin:miter;stroke-linecap:butt;fill-opacity:1;"
       d="M 17.8987 70.9965 C 15.3576 70.3336 11.7114 69.6706 13.0373 65.6932 C 15.468 55.9705 27.8424 18.6264 33.1456 13.986 C 34.361 12.8811 38.4489 12.4392 46.1829 14.8699 C 55.0218 17.5215 72.9204 23.4877 74.6882 24.3716 C 76.4559 25.2555 77.1189 25.2555 75.793 29.233 C 73.8043 33.2105 64.9655 67.24 62.7557 72.9852 C 61.209 77.0732 60.8775 78.9514 58.2258 78.9514 "
       id="path896"
       sodipodi:nodetypes="cccccccs"
       transform="matrix(1.114903,0.000000,0.000000,1.114903,-1.570116,-9.607182)" />
    <path
       style="fill:url(#linearGradient636);fill-rule:evenodd;stroke:none;stroke-opacity:1;stroke-width:1pt;stroke-linejoin:miter;stroke-linecap:butt;fill-opacity:1;"
       d="M 28.75 13.75 C 28.75 13.75 31.875 7.49995 39.6875 9.37495 C 47.5 11.25 78.125 19.375 77.8125 21.875 C 77.5 24.375 71.875 39.0625 71.5625 40.3125 C 71.25 41.5625 42.5 40.9375 31.5625 47.5 C 20.625 54.0625 12.5 59.6875 12.5 59.6875 C 12.5 59.6875 23.75 24.6875 28.75 13.75 z "
       id="path636"
       transform="matrix(0.946780,0.000000,0.000000,0.946780,6.111789,-0.736980)" />
  </g>
  <g
     id="g1096"
     transform="translate(-5.206612,12.64463)">
    <path
       style="font-size:12.000000;fill:#470000;fill-rule:evenodd;stroke-width:1.0000000pt"
       d="M 67.911000,66.486600 C 67.911000,68.183200 66.451200,69.560000 64.652500,69.560000 C 62.853700,69.560000 61.393900,68.183200 61.393900,66.486600 C 61.393900,64.790100 62.853700,63.413200 64.652500,63.413200 C 66.451200,63.413200 67.911000,64.790100 67.911000,66.486600 z "
       id="path613"
       transform="matrix(0.665098,0.000000,0.000000,0.665098,26.75834,4.099827)" />
    <path
       style="font-size:12.000000;fill:#470000;fill-rule:evenodd;stroke-width:1.0000000pt"
       d="M 61.245800,74.299800 C 59.690500,72.522300 57.172600,73.485100 56.357900,74.744100 C 55.469200,77.854500 56.876400,80.668700 60.579300,79.335700 C 64.282200,78.002600 65.615200,75.929000 65.615200,76.077100 C 65.615200,76.225300 62.652900,84.075400 58.209400,84.667800 C 53.765900,85.260300 51.322000,85.408400 46.434200,85.482500 C 41.398300,86.371200 38.954400,86.297100 38.954400,86.297100 L 45.175200,77.410200 C 45.175200,77.410200 46.804500,76.521500 49.470600,72.078000 C 52.136700,67.634600 56.876300,66.597700 59.246200,68.078900 C 61.393900,68.967500 62.578800,70.152500 63.171300,72.448300 C 63.023200,74.966200 62.578800,75.929000 61.245800,74.299800 z "
       id="path610"
       sodipodi:nodetypes="cccccccccccc"
       transform="matrix(0.665098,0.000000,0.000000,0.665098,26.75834,4.099827)" />
    <path
       style="font-size:12.000000;fill:#230000;fill-opacity:0.99899000;fill-rule:evenodd;stroke-width:1.0000000pt"
       d="M 37.917600,76.447400 C 40.139300,77.039900 37.547300,80.224300 36.140200,78.002600 C 35.029300,79.557800 35.547700,75.780900 35.547700,75.780900 L 30.808000,85.704600 C 30.808000,85.704600 38.954400,88.667000 42.064800,84.371600 C 45.175200,80.076300 45.545600,77.854500 43.842300,76.077100 C 41.842600,73.337100 40.065200,74.447900 39.324700,74.892200 C 38.584100,75.336600 38.287900,75.632800 37.917600,76.447400 z "
       id="path609"
       sodipodi:nodetypes="cccccccc"
       transform="matrix(0.665098,0.000000,0.000000,0.665098,26.95536,4.099827)" />
    <path
       style="font-size:12.000000;fill:#230000;fill-rule:evenodd;stroke-width:1.0000000pt"
       d="M 36.140200,62.006200 C 36.140200,62.006200 37.028800,56.674000 36.732600,53.859800 C 36.288300,47.787000 23.550300,-3.3128100 14.071000,5.5741300 C 3.1104200,9.8694900 16.144600,58.895700 17.773900,61.709900 C 19.403100,64.524100 21.773000,66.597700 21.773000,66.597700 C 21.773000,66.597700 18.070000,83.483000 31.918900,85.852700 C 36.954900,76.521500 40.508700,72.800600 39.695000,68.597300 C 39.250600,66.227500 38.658200,64.005700 36.140200,62.006200 z "
       id="path608"
       sodipodi:nodetypes="cccccccc"
       transform="matrix(0.665098,0.000000,0.000000,0.665098,26.75834,4.099827)" />
    <path
       style="font-size:12.000000;fill:#f2962c;fill-rule:evenodd;stroke-width:1.0000000pt"
       d="M 19.403100,58.303300 C 22.069200,55.044800 25.031500,52.674900 32.585400,53.415500 C 30.215600,40.233100 21.773000,4.6854300 15.700200,7.9439800 C 8.8869700,9.1289100 15.255900,48.823900 19.403100,58.303300 z "
       id="path600"
       sodipodi:nodetypes="cccc"
       transform="matrix(0.665098,0.000000,0.000000,0.665098,26.75834,4.099827)" />
    <path
       style="font-size:12.000000;fill:#8b8b8b;fill-rule:evenodd;stroke-width:1.0000000pt"
       d="M 19.847500,59.636300 C 19.847500,59.636300 21.180500,63.931600 24.735300,64.227900 C 26.364600,61.709900 30.067500,61.265600 33.177900,61.413700 C 33.918500,58.599500 34.510900,55.192800 33.326000,55.044700 C 31.844900,54.156000 23.550400,52.526800 19.847500,59.636300 z "
       id="path601"
       sodipodi:nodetypes="ccccc"
       transform="matrix(0.665098,0.000000,0.000000,0.665098,26.75834,4.099827)" />
    <path
       style="font-size:12.000000;fill:#65532d;fill-rule:evenodd;stroke-width:1.0000000pt"
       d="M 24.883400,66.449600 C 25.624000,63.191100 31.252400,60.969400 33.770300,63.635400 C 39.843100,67.042100 37.177000,75.484700 34.510900,75.632800 C 33.770300,86.149000 40.879900,80.372400 40.731800,78.150800 C 46.063900,77.410200 41.768600,84.964100 38.213800,84.519700 C 33.326000,85.260300 20.291800,80.816900 24.883400,66.449600 z "
       id="path602"
       sodipodi:nodetypes="cccccc"
       transform="matrix(0.665098,0.000000,0.000000,0.665098,26.75834,4.099827)" />
    <path
       style="font-size:12.000000;fill:#bc0000;fill-rule:evenodd;stroke-width:1.0000000pt"
       d="M 44.582800,81.261200 C 44.730900,81.409300 46.656400,81.261200 47.693200,79.483800 C 48.730000,77.706400 52.284800,70.448700 54.802800,70.300600 C 60.875500,68.078900 60.875500,72.226100 60.875500,72.226100 C 60.875500,72.226100 55.247100,70.152500 54.654600,73.707300 C 54.062200,77.262100 53.025400,79.335700 59.838600,82.149900 C 55.987700,83.482900 43.966000,83.740000 43.225300,83.740000 C 42.484700,83.740000 44.730900,81.113100 44.582800,81.261200 z "
       id="path603"
       sodipodi:nodetypes="cccccccc"
       transform="matrix(0.665098,0.000000,0.000000,0.665098,26.75834,4.099827)" />
    <path
       style="font-size:12.000000;fill:#470000;fill-rule:evenodd;stroke-width:1.0000000pt"
       d="M 46.656400,67.634600 C 48.433800,64.968500 54.580600,66.301500 57.394700,65.709100 C 60.801400,64.820400 59.020000,58.595400 55.169000,58.595500 C 52.514200,58.064800 46.952700,58.155100 46.656400,67.634600 z "
       id="path611"
       sodipodi:nodetypes="cccc"
       transform="matrix(0.665098,0.000000,0.000000,0.665098,26.75834,4.099827)" />
    <path
       style="font-size:12.000000;fill:#bc0000;fill-rule:evenodd;stroke-width:1.0000000pt"
       d="M 48.137600,64.820400 C 48.137600,64.820400 54.506500,64.227900 56.135800,64.227900 C 58.061300,64.639700 58.191500,61.718100 56.580100,60.673100 C 53.766000,58.747600 49.914900,58.599500 48.137600,64.820400 z "
       id="path604"
       sodipodi:nodetypes="cccc"
       transform="matrix(0.665098,0.000000,0.000000,0.665098,26.75834,4.099827)" />
    <path
       style="font-size:12.000000;fill:#bc0000;fill-rule:evenodd;stroke-width:1.0000000pt"
       d="M 66.800100,66.597700 C 66.800100,67.742400 65.838000,68.671400 64.652400,68.671400 C 63.466900,68.671400 62.504800,67.742400 62.504800,66.597700 C 62.504800,65.453100 63.466900,64.524100 64.652400,64.524100 C 65.838000,64.524100 66.800100,65.453100 66.800100,66.597700 z "
       id="path606"
       transform="matrix(0.665098,0.000000,0.000000,0.665098,26.75834,4.099827)" />
    <path
       style="font-size:12.000000;fill:url(#linearGradient1112);fill-rule:evenodd;stroke-width:1.0000000pt"
       d="M 19.403100,58.303300 C 22.069200,55.044800 25.031500,52.674900 32.585400,53.415500 C 30.215600,40.233100 21.773000,4.6854300 15.700200,7.9439800 C 8.8869700,9.1289100 15.255900,48.823900 19.403100,58.303300 z "
       id="path621"
       sodipodi:nodetypes="cccc"
       transform="matrix(0.665098,0.000000,0.000000,0.665098,26.75834,4.099827)" />
    <path
       style="font-size:12.000000;fill:#f2d0a8;fill-rule:evenodd;stroke-width:1.0000000pt"
       d="M 28.438200,52.526700 C 25.136900,52.677500 14.601700,8.0041700 18.662500,10.462000 C 19.617900,11.129800 34.374900,52.522000 28.438200,52.526700 z "
       id="path622"
       sodipodi:nodetypes="css"
       transform="matrix(0.665098,0.000000,0.000000,0.665098,26.75834,4.099827)" />
    <path
       style="font-size:12.000000;fill:#f2f2f2;fill-rule:evenodd;stroke-width:1.0000000pt"
       d="M 30.511800,54.452300 L 31.104300,61.265600 L 27.697600,62.006200 L 26.216500,54.600300 C 26.216500,54.600300 30.215600,54.156100 30.511800,54.452300 z "
       id="path623"
       sodipodi:nodetypes="ccccc"
       transform="matrix(0.665098,0.000000,0.000000,0.665098,26.75834,4.099827)" />
    <path
       style="font-size:12.000000;fill:url(#linearGradient1113);fill-rule:nonzero;stroke-width:1.0000000pt"
       d="M 24.883400,66.449600 C 25.624000,63.191100 31.252400,60.969400 33.770300,63.635400 C 39.843100,67.042100 37.177000,75.484700 34.510900,75.632800 C 33.770300,86.149000 40.879900,80.372400 40.731800,78.150800 C 46.063900,77.410200 41.768600,84.964100 38.213800,84.519700 C 33.326000,85.260300 20.291800,80.816900 24.883400,66.449600 z "
       id="path624"
       sodipodi:nodetypes="cccccc"
       transform="matrix(0.665098,0.000000,0.000000,0.665098,26.75834,4.099827)" />
  </g>
  <path
     style="font-size:13.000000;font-weight:bold;fill:#3d4e67;fill-opacity:1.0000000;stroke-width:1.0000000pt;font-family:Kid Kosmic"
     d="M 75.909685,23.818284 C 75.743701,24.120964 75.454055,24.322771 75.040936,24.423767 C 74.662611,24.526776 74.299853,24.523781 73.952660,24.414782 C 73.516643,24.277895 73.261829,23.945091 73.188344,23.416300 C 73.175267,22.977539 73.156924,22.541525 73.133191,22.108326 C 71.066067,21.459361 69.319818,21.483304 67.894635,22.180215 C 66.443109,22.904282 65.545286,23.757951 65.201130,24.741001 C 64.872692,25.702364 65.167186,26.544436 66.084642,27.267125 C 66.304592,27.442562 66.567969,27.578493 66.874804,27.674823 C 67.900351,27.996789 69.437107,27.933699 71.484975,27.485522 C 71.534550,27.412415 71.598286,27.308221 71.676277,27.172973 C 71.518602,26.883975 71.173273,26.655865 70.640320,26.488546 C 69.655225,26.179280 68.707597,26.103559 67.797655,26.261347 C 67.349978,26.076465 67.135116,25.729581 67.152973,25.220663 C 67.156626,25.124229 67.171107,25.035702 67.196478,24.954891 C 67.308023,24.599589 67.596637,24.344318 68.062377,24.188885 C 68.706071,23.805488 69.669971,23.815359 70.953885,24.218439 C 71.341436,24.340109 71.821157,24.521740 72.392830,24.763368 C 73.147746,25.071329 73.560235,25.240762 73.630420,25.271601 C 74.357526,25.978970 74.636176,26.603090 74.466311,27.144152 C 74.385199,27.402519 74.195687,27.737745 73.897775,28.149832 C 73.448566,28.789448 72.976021,29.164527 72.480076,29.274946 C 71.450582,29.643606 70.317894,29.846863 69.081822,29.884656 C 67.818998,29.922854 66.678949,29.782321 65.661510,29.462900 C 64.175711,28.996440 63.216488,28.180772 62.783745,27.015867 C 62.415460,26.013219 62.383482,25.027375 62.687716,24.058310 C 62.822057,23.630402 63.015454,23.212021 63.267946,22.803388 C 64.410916,20.971221 66.171445,19.856159 68.549474,19.458389 C 70.575115,19.109724 72.698643,19.310611 74.920188,20.061301 C 75.646310,20.404557 76.088752,20.831800 76.247638,21.342960 C 76.372867,21.763687 76.320774,22.381657 76.091515,23.196709 C 76.066447,23.446153 76.005815,23.653304 75.909685,23.818284 z M 53.858237,13.994536 C 54.431841,13.580331 55.068680,13.487523 55.768657,13.716082 C 56.492840,13.952345 56.821315,14.290562 56.754082,14.730735 C 57.160755,18.832472 57.882611,21.605093 58.919711,23.048405 C 59.315590,22.267845 60.375456,20.121145 62.099186,16.608370 C 62.691460,16.191117 63.290487,16.077529 63.896046,16.267642 C 64.178742,16.356393 64.405768,16.480912 64.577220,16.641228 C 64.813701,16.848477 64.893962,17.073238 64.817882,17.315576 C 64.782418,17.428540 64.716136,17.540842 64.619002,17.652264 C 63.769448,18.663002 62.920027,19.984133 62.070681,21.615845 C 61.477885,22.769241 60.699451,24.401101 59.735408,26.511329 C 59.585956,26.845820 59.340014,27.092374 58.997486,27.250957 C 58.665584,27.404072 58.326005,27.426067 57.978812,27.317068 C 57.631620,27.208067 57.322520,26.906958 57.051482,26.413832 L 57.078816,26.369168 C 56.286483,25.304350 55.602873,24.020752 55.027766,22.518411 C 54.607058,21.428347 54.181011,20.030450 53.749564,18.324909 C 52.606764,20.015318 51.756869,21.846421 51.199946,23.818344 C 51.031822,24.155884 50.784622,24.406443 50.458219,24.570089 C 50.134427,24.725750 49.798854,24.749003 49.451662,24.640003 C 49.104470,24.531004 48.798119,24.235159 48.532645,23.752689 C 49.949134,20.116835 51.724331,16.864118 53.858237,13.994536 z M 38.550000,14.098617 C 38.726639,13.790373 39.167791,13.077270 39.873645,11.959369 C 40.631526,10.760220 41.041082,10.148090 41.102125,10.122918 C 41.130314,10.202726 41.145885,10.251950 41.148932,10.270621 L 41.352351,9.9618746 L 41.416615,9.9688439 C 41.934069,9.7054445 42.503624,9.6713792 43.125401,9.8665839 C 43.343411,9.9350275 43.531068,10.029368 43.688441,10.149733 C 45.175044,10.359236 46.595396,10.680947 47.949465,11.114961 C 49.376267,11.571703 50.125339,12.081899 50.196810,12.645483 C 50.381557,14.175992 50.320603,15.429802 50.013853,16.406882 C 49.636113,17.610081 48.896445,18.398004 47.794722,18.770716 C 46.200632,19.299201 44.018716,19.128721 41.249003,18.259181 C 40.635333,18.066522 39.995642,17.843577 39.329987,17.590158 C 38.987637,18.369811 38.715068,19.153551 38.512055,19.941417 C 38.335918,20.276440 38.084585,20.525808 37.758277,20.689484 C 37.442434,20.847535 37.110964,20.872077 36.763772,20.763078 C 36.416580,20.654077 36.106192,20.357070 35.832638,19.871958 C 36.657845,17.780297 37.563664,15.855860 38.550000,14.098617 z M 40.330799,15.589159 C 40.851583,15.823615 41.543954,16.076408 42.407975,16.347664 C 44.601330,17.018546 46.188547,17.006725 47.169373,16.312330 C 47.373095,16.172218 47.516689,15.968894 47.600349,15.702417 C 47.714411,15.339102 47.716848,14.865276 47.607566,14.280912 C 47.182004,13.827945 46.630078,13.495041 45.951818,13.282105 C 45.225089,13.053951 44.043882,12.860563 42.408223,12.701845 C 41.604724,13.593930 40.912365,14.556335 40.330799,15.589159 z M 35.609525,17.912461 C 35.482763,18.316231 35.177442,18.610697 34.693468,18.795832 C 34.217698,18.983543 33.761662,19.008910 33.325644,18.872024 C 33.164117,18.821314 33.022411,18.750203 32.900333,18.658632 C 32.547245,18.370440 32.435369,18.020356 32.564647,17.608572 C 32.653368,17.325971 32.840516,17.083076 33.126060,16.879980 C 33.668354,16.509084 34.230149,16.414937 34.811473,16.597441 C 34.981110,16.650698 35.133675,16.729620 35.269426,16.834392 C 35.633044,17.117087 35.746411,17.476444 35.609525,17.912461 z "
     id="path1002" />
</svg>
