<?xml version="1.0" encoding="UTF-8" standalone="no"?>
<!DOCTYPE svg PUBLIC "-//W3C//DTD SVG 20010904//EN"
"http://www.w3.org/TR/2001/REC-SVG-20010904/DTD/svg10.dtd">
<!-- Created with Sodipodi ("http://www.sodipodi.com/") -->
<svg
   id="svg596"
   sodipodi:version="0.32"
   width="72pt"
   height="72pt"
   sodipodi:docbase="/home/zeus/.icons/gartoon/scalable/mimetypes"
   sodipodi:docname="gnome-mime-image-svg.svg"
   xmlns="http://www.w3.org/2000/svg"
   xmlns:sodipodi="http://sodipodi.sourceforge.net/DTD/sodipodi-0.dtd"
   xmlns:xlink="http://www.w3.org/1999/xlink"
   xmlns:inkscape="http://www.inkscape.org/namespaces/inkscape"
   inkscape:version="0.40"
   xmlns:rdf="http://www.w3.org/1999/02/22-rdf-syntax-ns#"
   xmlns:cc="http://web.resource.org/cc/"
   xmlns:dc="http://purl.org/dc/elements/1.1/">
  <metadata
     id="metadata46">
    <rdf:RDF
       id="RDF47">
      <cc:Work
         rdf:about=""
         id="Work48">
        <dc:format
           id="format49">image/svg+xml</dc:format>
        <dc:type
           id="type51"
           rdf:resource="http://purl.org/dc/dcmitype/StillImage" />
      </cc:Work>
    </rdf:RDF>
  </metadata>
  <defs
     id="defs598">
    <linearGradient
       id="linearGradient612">
      <stop
         style="stop-color:#7fa8e3;stop-opacity:0.741176;"
         offset="0.000000"
         id="stop613" />
      <stop
         style="stop-color:#ffffff;stop-opacity:0;"
         offset="1.000000"
         id="stop614" />
    </linearGradient>
    <linearGradient
       id="linearGradient626">
      <stop
         style="stop-color:#ff0047;stop-opacity:1;"
         offset="0.000000"
         id="stop627" />
      <stop
         style="stop-color:#ab322d;stop-opacity:0;"
         offset="1.000000"
         id="stop628" />
    </linearGradient>
    <linearGradient
       id="linearGradient618">
      <stop
         style="stop-color:#956d47;stop-opacity:1;"
         offset="0.000000"
         id="stop619" />
      <stop
         style="stop-color:#ab322d;stop-opacity:0;"
         offset="1.000000"
         id="stop620" />
    </linearGradient>
    <linearGradient
       id="linearGradient614">
      <stop
         style="stop-color:#000;stop-opacity:1;"
         offset="0"
         id="stop615" />
      <stop
         style="stop-color:#fff;stop-opacity:1;"
         offset="1"
         id="stop616" />
    </linearGradient>
    <linearGradient
       xlink:href="#linearGradient618"
       id="linearGradient617"
       y2="21.446371"
       x2="54.455856"
       y1="22.932673"
       x1="14.043809"
       spreadMethod="pad"
       gradientUnits="userSpaceOnUse"
       gradientTransform="matrix(0.417027,0.000000,0.000000,1.060735,23.03933,16.49652)" />
    <linearGradient
       xlink:href="#linearGradient626"
       id="linearGradient625"
       x1="42.9995728"
       y1="77.3980103"
       x2="28.5382881"
       y2="63.0152588"
       gradientUnits="userSpaceOnUse"
       spreadMethod="pad"
       gradientTransform="matrix(0.621202,0.000000,0.000000,0.712096,23.03933,16.49652)" />
    <linearGradient
       xlink:href="#linearGradient612"
       id="linearGradient636"
       x1="16.4110699"
       y1="10.6072874"
       x2="24.6243172"
       y2="61.6665344"
       gradientUnits="userSpaceOnUse"
       spreadMethod="pad" />
  </defs>
  <sodipodi:namedview
     id="base"
     inkscape:zoom="5.0416667"
     inkscape:cx="36.000000"
     inkscape:cy="36.000000"
     inkscape:window-width="640"
     inkscape:window-height="536"
     inkscape:window-x="5"
     inkscape:window-y="48"
     inkscape:current-layer="svg596" />
  <g
     id="g898"
     transform="translate(-1.146498,1.146498)">
    <path
       style="fill:#000000;fill-rule:evenodd;stroke:none;stroke-opacity:1;stroke-width:1pt;stroke-linejoin:miter;stroke-linecap:butt;fill-opacity:0.301471;"
       d="M 12.8163 74.753 C 10.3856 73.6481 7.07107 70.1126 8.83884 65.2512 C 9.72267 59.948 25.6326 13.1021 29.1682 10.8924 C 31.3778 8.90368 34.582 8.13026 39.1119 9.34561 C 42.8684 10.2295 76.6769 19.0684 78.6656 20.8361 C 80.6544 22.6039 82.2012 24.0402 80.6544 27.9072 C 79.5496 29.8959 66.4017 74.532 66.1808 77.4047 C 65.2969 80.4983 62.7558 84.2548 58.5573 84.0338 C 54.3589 83.8128 15.9099 75.4159 12.8163 74.753 z "
       id="path794"
       sodipodi:nodetypes="ccccccccc"
       transform="matrix(1.114903,0.000000,0.000000,1.114903,1.287023,-5.035753)" />
    <path
       style="fill:#3d4e67;fill-rule:evenodd;stroke:none;stroke-opacity:1;stroke-width:1pt;stroke-linejoin:miter;stroke-linecap:butt;fill-opacity:1;"
       d="M 12.8163 74.753 C 10.3856 73.6481 7.07107 70.1126 8.83884 65.2512 C 9.72267 59.948 25.6326 13.1021 29.1682 10.8924 C 31.3778 8.90368 34.582 8.13026 39.1119 9.34561 C 42.8684 10.2295 76.6769 19.0684 78.6656 20.8361 C 80.6544 22.6039 82.2012 24.0402 80.6544 27.9072 C 79.5496 29.8959 66.4017 74.532 66.1808 77.4047 C 65.2969 80.4983 62.7558 84.2548 58.5573 84.0338 C 54.3589 83.8128 15.9099 75.4159 12.8163 74.753 z "
       id="path895"
       sodipodi:nodetypes="ccccccccc"
       transform="matrix(1.114903,0.000000,0.000000,1.114903,-1.570116,-9.607182)" />
    <path
       style="fill:#ffffff;fill-rule:evenodd;stroke:none;stroke-opacity:1;stroke-width:1pt;stroke-linejoin:miter;stroke-linecap:butt;fill-opacity:1;"
       d="M 17.8987 70.9965 C 15.3576 70.3336 11.7114 69.6706 13.0373 65.6932 C 15.468 55.9705 27.8424 18.6264 33.1456 13.986 C 34.361 12.8811 38.4489 12.4392 46.1829 14.8699 C 55.0218 17.5215 72.9204 23.4877 74.6882 24.3716 C 76.4559 25.2555 77.1189 25.2555 75.793 29.233 C 73.8043 33.2105 64.9655 67.24 62.7557 72.9852 C 61.209 77.0732 60.8775 78.9514 58.2258 78.9514 "
       id="path896"
       sodipodi:nodetypes="cccccccs"
       transform="matrix(1.114903,0.000000,0.000000,1.114903,-1.570116,-9.607182)" />
    <path
       style="fill:url(#linearGradient636);fill-rule:evenodd;stroke:none;stroke-opacity:1;stroke-width:1pt;stroke-linejoin:miter;stroke-linecap:butt;fill-opacity:1;"
       d="M 28.75 13.75 C 28.75 13.75 31.875 7.49995 39.6875 9.37495 C 47.5 11.25 78.125 19.375 77.8125 21.875 C 77.5 24.375 71.875 39.0625 71.5625 40.3125 C 71.25 41.5625 42.5 40.9375 31.5625 47.5 C 20.625 54.0625 12.5 59.6875 12.5 59.6875 C 12.5 59.6875 23.75 24.6875 28.75 13.75 z "
       id="path636"
       transform="matrix(0.946780,0.000000,0.000000,0.946780,6.111789,-0.736980)" />
  </g>
  <path
     style="font-size:12.000000;fill:#470000;fill-rule:evenodd;stroke-width:1.0000000pt"
     d="M 68.206802,60.716626 C 68.206802,61.845031 67.235892,62.760738 66.039580,62.760738 C 64.843202,62.760738 63.872292,61.845031 63.872292,60.716626 C 63.872292,59.588287 64.843202,58.672514 66.039580,58.672514 C 67.235892,58.672514 68.206802,59.588287 68.206802,60.716626 z "
     id="path613" />
  <path
     style="font-size:12.000000;fill:#470000;fill-rule:evenodd;stroke-width:1.0000000pt"
     d="M 63.773791,65.913170 C 62.739364,64.730958 61.064714,65.371314 60.522858,66.208673 C 59.931786,68.277393 60.867712,70.149112 63.330503,69.262537 C 65.793294,68.375894 66.679870,66.996747 66.679870,67.095248 C 66.679870,67.193816 64.709650,72.414902 61.754287,72.808906 C 58.798924,73.202976 57.173491,73.301477 53.922625,73.350761 C 50.573258,73.941834 48.947825,73.892550 48.947825,73.892550 L 53.085267,67.981890 C 53.085267,67.981890 54.168911,67.390818 55.942129,64.435455 C 57.715347,61.480158 60.867645,60.790518 62.443861,61.775661 C 63.872292,62.366668 64.660366,63.154809 65.054437,64.681741 C 64.955936,66.356391 64.660366,66.996747 63.773791,65.913170 z "
     id="path610"
     sodipodi:nodetypes="cccccccccccc" />
  <path
     style="font-size:12.000000;fill:#230000;fill-opacity:0.99899000;fill-rule:evenodd;stroke-width:1.0000000pt"
     d="M 48.455272,67.341534 C 49.932920,67.735605 48.208986,69.853543 47.273126,68.375894 C 46.534269,69.410255 46.879056,66.898246 46.879056,66.898246 L 43.726691,73.498479 C 43.726691,73.498479 49.144845,75.468766 51.213566,72.611904 C 53.282287,69.755108 53.528639,68.277393 52.395778,67.095248 C 51.065781,65.272880 49.883636,66.011671 49.391131,66.307174 C 48.898559,66.602743 48.701557,66.799745 48.455272,67.341534 z "
     id="path609"
     sodipodi:nodetypes="cccccccc" />
  <path
     style="font-size:12.000000;fill:#230000;fill-rule:evenodd;stroke-width:1.0000000pt"
     d="M 47.076106,57.736721 C 47.076106,57.736721 47.667113,54.190285 47.470111,52.318566 C 47.174607,48.279559 38.702589,14.293178 32.397926,20.203864 C 25.108066,23.060699 33.777073,55.667933 34.860717,57.539652 C 35.944295,59.411371 37.520510,60.790518 37.520510,60.790518 C 37.520510,60.790518 35.057653,72.020898 44.268528,73.596980 C 47.617962,67.390818 49.981587,64.916055 49.440397,62.120448 C 49.144827,60.544299 48.750823,59.066584 47.076106,57.736721 z "
     id="path608"
     sodipodi:nodetypes="cccccccc" />
  <path
     style="font-size:12.000000;fill:#f2962c;fill-rule:evenodd;stroke-width:1.0000000pt"
     d="M 35.944295,55.273929 C 37.717513,53.106708 39.687732,51.530492 44.711816,52.023063 C 43.135667,43.255476 37.520510,19.612791 33.481503,21.780046 C 28.950038,22.568141 33.186000,48.969199 35.944295,55.273929 z "
     id="path600"
     sodipodi:nodetypes="cccc" />
  <path
     style="font-size:12.000000;fill:#8b8b8b;fill-rule:evenodd;stroke-width:1.0000000pt"
     d="M 36.239864,56.160505 C 36.239864,56.160505 37.126440,59.017301 39.490730,59.214369 C 40.574374,57.539652 43.037166,57.244149 45.105887,57.342650 C 45.598458,55.470931 45.992462,53.205142 45.204388,53.106641 C 44.219311,52.515569 38.702656,51.431991 36.239864,56.160505 z "
     id="path601"
     sodipodi:nodetypes="ccccc" />
  <path
     style="font-size:12.000000;fill:#65532d;fill-rule:evenodd;stroke-width:1.0000000pt"
     d="M 39.589231,60.692017 C 40.081803,58.524795 43.825240,57.047147 45.499891,58.820298 C 49.538898,61.086088 47.765680,66.701244 45.992462,66.799745 C 45.499891,73.794049 50.228471,69.952044 50.129970,68.474462 C 53.676339,67.981890 50.819544,73.005974 48.455254,72.710405 C 45.204388,73.202976 36.535367,70.247680 39.589231,60.692017 z "
     id="path602"
     sodipodi:nodetypes="cccccc" />
  <path
     style="font-size:12.000000;fill:#bc0000;fill-rule:evenodd;stroke-width:1.0000000pt"
     d="M 52.691263,70.543183 C 52.789764,70.641684 54.070410,70.543183 54.759984,69.361038 C 55.449557,68.178892 57.813848,63.351811 59.488564,63.253310 C 63.527505,61.775661 63.527505,64.533956 63.527505,64.533956 C 63.527505,64.533956 59.784067,63.154809 59.389997,65.519099 C 58.995993,67.883389 58.306419,69.262537 62.837865,71.134255 C 60.276639,72.020831 52.281030,72.191828 51.788392,72.191828 C 51.295821,72.191828 52.789764,70.444682 52.691263,70.543183 z "
     id="path603"
     sodipodi:nodetypes="cccccccc" />
  <path
     style="font-size:12.000000;fill:#470000;fill-rule:evenodd;stroke-width:1.0000000pt"
     d="M 54.070410,61.480158 C 55.252555,59.706941 59.340780,60.593516 61.212432,60.199512 C 63.478221,59.608440 62.293416,55.468205 59.732123,55.468271 C 57.966421,55.115304 54.267479,55.175362 54.070410,61.480158 z "
     id="path611"
     sodipodi:nodetypes="cccc" />
  <path
     style="font-size:12.000000;fill:#bc0000;fill-rule:evenodd;stroke-width:1.0000000pt"
     d="M 55.055553,59.608440 C 55.055553,59.608440 59.291496,59.214369 60.375140,59.214369 C 61.655786,59.488256 61.742382,57.545106 60.670643,56.850079 C 58.798991,55.569432 56.237632,55.470931 55.055553,59.608440 z "
     id="path604"
     sodipodi:nodetypes="cccc" />
  <path
     style="font-size:12.000000;fill:#bc0000;fill-rule:evenodd;stroke-width:1.0000000pt"
     d="M 67.467945,60.790518 C 67.467945,61.551856 66.828054,62.169732 66.039514,62.169732 C 65.251040,62.169732 64.611149,61.551856 64.611149,60.790518 C 64.611149,60.029247 65.251040,59.411371 66.039514,59.411371 C 66.828054,59.411371 67.467945,60.029247 67.467945,60.790518 z "
     id="path606" />
  <path
     style="font-size:12.000000;fill:url(#linearGradient617);fill-rule:evenodd;stroke-width:1.0000000pt"
     d="M 35.944295,55.273929 C 37.717513,53.106708 39.687732,51.530492 44.711816,52.023063 C 43.135667,43.255476 37.520510,19.612791 33.481503,21.780046 C 28.950038,22.568141 33.186000,48.969199 35.944295,55.273929 z "
     id="path621"
     sodipodi:nodetypes="cccc" />
  <path
     style="font-size:12.000000;fill:#f2d0a8;fill-rule:evenodd;stroke-width:1.0000000pt"
     d="M 41.953522,51.431924 C 39.757834,51.532221 32.750893,21.820079 35.451723,23.454776 C 36.087158,23.898929 45.902009,51.428798 41.953522,51.431924 z "
     id="path622"
     sodipodi:nodetypes="css" />
  <path
     style="font-size:12.000000;fill:#f2f2f2;fill-rule:evenodd;stroke-width:1.0000000pt"
     d="M 43.332669,52.712637 L 43.726739,57.244149 L 41.460950,57.736721 L 40.475873,52.811072 C 40.475873,52.811072 43.135667,52.515635 43.332669,52.712637 z "
     id="path623"
     sodipodi:nodetypes="ccccc" />
  <path
     style="font-size:12.000000;fill:url(#linearGradient625);fill-rule:nonzero;stroke-width:1.0000000pt"
     d="M 39.589231,60.692017 C 40.081803,58.524795 43.825240,57.047147 45.499891,58.820298 C 49.538898,61.086088 47.765680,66.701244 45.992462,66.799745 C 45.499891,73.794049 50.228471,69.952044 50.129970,68.474462 C 53.676339,67.981890 50.819544,73.005974 48.455254,72.710405 C 45.204388,73.202976 36.535367,70.247680 39.589231,60.692017 z "
     id="path624"
     sodipodi:nodetypes="cccccc" />
  <path
     style="font-size:12.000000;fill:none;fill-rule:evenodd;stroke:#3d4e67;stroke-width:1.3625000;stroke-linejoin:round;stroke-opacity:1.0000000"
     d="M 28.096292,62.842594 L 28.096292,68.001794 L 33.255492,68.001794 L 33.255492,62.842594 L 28.096292,62.842594 z "
     id="path1064" />
  <path
     style="font-size:12.000000;fill:none;fill-rule:evenodd;stroke:#3d4e67;stroke-width:1.3625000;stroke-linejoin:round;stroke-opacity:1.0000000"
     d="M 23.796928,41.632404 L 23.796928,46.791604 L 28.956128,46.791604 L 28.956128,41.632404 L 23.796928,41.632404 z "
     id="path1065" />
  <path
     style="font-size:12.000000;fill:none;fill-rule:evenodd;stroke:#3d4e67;stroke-width:1.0000000pt;stroke-opacity:1.0000000"
     d="M 28.669492,45.071894 L 34.688592,55.390294 L 30.389292,62.555894"
     id="path1066" />
  <path
     style="font-size:12.000000;fill:none;fill-rule:evenodd;stroke:#3d4e67;stroke-width:1.4066126;stroke-linejoin:round;stroke-opacity:1.0000000"
     d="M 55.988637,45.067510 L 58.043670,49.799761 L 53.000036,51.990017 L 50.945003,47.257766 L 55.988637,45.067510 z "
     id="path1072" />
  <path
     style="font-size:12.000000;fill:none;fill-rule:evenodd;stroke:#3d4e67;stroke-width:1.4066126;stroke-linejoin:round;stroke-opacity:1.0000000"
     d="M 50.023427,24.647220 L 52.078460,29.379471 L 47.034826,31.569727 L 44.979793,26.837476 L 50.023427,24.647220 z "
     id="path1073" />
  <path
     style="font-size:12.000000;fill:none;fill-rule:evenodd;stroke:#3d4e67;stroke-width:1.0323763pt;stroke-opacity:1.0000000"
     d="M 46.630041,29.870647 L 44.855835,41.890461 L 51.913061,46.637873"
     id="path1074" />
  <path
     style="font-size:13.000000;font-weight:bold;fill:#3d4e67;stroke-width:1.0000000pt;font-family:Kid Kosmic"
     d="M 74.814447,22.891765 C 74.641006,23.190347 74.346465,23.384939 73.931009,23.475606 C 73.550256,23.569239 73.187683,23.557286 72.843288,23.439745 C 72.410784,23.292132 72.164268,22.953135 72.103833,22.422787 C 72.101597,21.983836 72.094029,21.547502 72.081034,21.113755 C 70.030569,20.413935 68.284262,20.394741 66.842303,21.056241 C 65.373305,21.744332 64.454704,22.575471 64.086374,23.549721 C 63.734260,24.502772 64.007899,25.351767 64.907227,26.096894 C 65.122744,26.277804 65.382683,26.420199 65.687045,26.524077 C 66.704327,26.871274 68.242172,26.846158 70.300484,26.448695 C 70.351882,26.376740 70.418170,26.274153 70.499447,26.140967 C 70.348957,25.848162 70.009400,25.611499 69.480742,25.431068 C 68.503587,25.097567 67.558118,24.998464 66.644430,25.133793 C 66.201551,24.937943 65.995322,24.585859 66.025742,24.077536 C 66.031775,23.981223 66.048471,23.892986 66.075797,23.812921 C 66.196084,23.460483 66.490946,23.212322 66.960384,23.068440 C 67.613318,22.701153 68.576679,22.734828 69.850246,23.169494 C 70.234673,23.300699 70.709762,23.494122 71.275325,23.749700 C 72.022405,24.076213 72.430583,24.255781 72.499953,24.288438 C 73.209398,25.013455 73.472516,25.644361 73.289373,26.180969 C 73.201904,26.437253 73.004138,26.767791 72.696140,27.172394 C 72.231270,27.800719 71.749638,28.163919 71.251119,28.262054 C 70.212801,28.605271 69.075439,28.780491 67.838811,28.787744 C 66.575430,28.794742 65.439232,28.626000 64.429899,28.281516 C 62.956169,27.778534 62.017288,26.939392 61.613511,25.764281 C 61.270134,24.752749 61.262514,23.766418 61.590558,22.805257 C 61.735457,22.380703 61.939096,21.967322 62.201603,21.565049 C 63.389507,19.761576 65.177005,18.690430 67.564132,18.351515 C 69.597798,18.052891 71.715684,18.306257 73.918009,19.111584 C 74.635433,19.472670 75.067188,19.910709 75.213401,20.425637 C 75.328201,20.849329 75.260892,21.465730 75.011540,22.274965 C 74.980258,22.523586 74.914623,22.729208 74.814447,22.891765 z M 54.976738,12.351838 C 55.433375,12.507687 55.645222,12.830309 55.612217,13.319890 C 54.926059,15.330322 54.491473,16.773930 54.308556,17.650430 C 53.912136,19.571984 54.022423,20.794645 54.639671,21.318287 C 55.534204,21.239079 56.895636,20.420341 58.724186,18.862358 C 59.505069,18.198819 60.723048,17.053965 62.377996,15.427857 C 62.716291,15.275036 63.013692,15.242345 63.269976,15.329814 C 63.550299,15.425489 63.768435,15.611731 63.924384,15.888540 C 64.083078,16.157305 64.115929,16.427922 64.023000,16.700201 C 63.951907,16.908503 63.784533,17.110677 63.520843,17.306818 C 61.328303,19.617052 58.312816,21.928011 54.474258,24.239756 C 53.870231,24.489752 53.371997,24.547729 52.979527,24.413779 C 52.627088,24.293493 52.357348,24.022541 52.170367,23.601053 C 51.454208,20.825769 51.676697,17.409515 52.837838,13.352292 C 52.915699,12.940571 53.198924,12.634868 53.687482,12.434959 C 54.138501,12.240094 54.568273,12.212430 54.976738,12.351838 z M 50.702780,13.240570 C 50.545748,13.491076 50.295402,13.700753 49.951554,13.869536 C 49.583570,14.057025 49.263360,14.104225 48.990986,14.011265 C 48.766785,13.934745 48.619440,13.763684 48.549111,13.498238 C 47.297090,12.659576 46.006187,12.040104 44.676084,11.639819 C 43.380904,11.242471 42.629132,11.191621 42.420896,11.487203 C 42.385940,11.510987 42.361741,11.529567 42.348333,11.542848 C 42.286019,11.646792 42.437337,11.819211 42.802228,12.059977 C 42.908757,12.141031 43.452387,12.474184 44.433057,13.059308 C 44.856909,13.311216 45.488394,13.701193 46.327671,14.229079 C 47.167044,14.756997 47.721770,15.214605 47.992038,15.601966 C 48.368391,16.490561 48.430390,17.186913 48.177844,17.690957 C 47.947006,18.157714 47.552656,18.658058 46.994791,19.191985 C 46.110125,19.766425 45.190931,20.114479 44.237305,20.236177 C 42.675408,20.436411 41.169660,20.289155 39.719874,19.794344 C 37.941688,19.187452 36.629586,18.144958 35.783663,16.666894 C 35.710205,16.462934 35.706278,16.264847 35.771880,16.072634 C 35.845687,15.856382 36.011864,15.644712 36.270222,15.437876 C 36.636290,15.151360 36.975495,15.061507 37.287900,15.168132 C 37.384054,15.200949 37.485317,15.257804 37.591848,15.338859 C 38.004306,16.043029 38.549678,16.685315 39.228091,17.265653 C 39.478182,17.476220 39.807430,17.651145 40.215989,17.790586 C 40.920772,18.031127 41.860622,18.173008 43.035224,18.216225 C 44.253848,18.104454 44.938977,17.918063 45.090804,17.656799 C 45.212593,17.456924 45.154985,17.101885 44.917756,16.591713 C 44.554495,16.109955 43.911659,15.622276 42.989061,15.128611 C 42.455774,14.857104 41.667751,14.440647 40.625343,13.879146 C 39.868301,13.450862 39.303360,12.918234 38.930520,12.281261 C 38.703030,11.899519 38.672652,11.464382 38.839420,10.975757 C 38.956961,10.631363 39.171070,10.266251 39.481654,9.8803875 C 40.182631,9.1627384 41.287765,8.8200308 42.797087,8.8521707 C 43.947745,8.8872165 45.135835,9.1138210 46.361326,9.5320788 C 48.724196,10.338524 50.228639,11.419930 50.874718,12.776111 C 50.827918,12.965866 50.770553,13.120632 50.702780,13.240570 z M 34.852621,16.054011 C 34.715958,16.454433 34.403458,16.741269 33.915121,16.914520 C 33.434766,17.090391 32.978337,17.104520 32.545738,16.956874 C 32.385608,16.902222 32.245606,16.827601 32.125828,16.733044 C 31.779997,16.436123 31.676770,16.083478 31.816211,15.674918 C 31.911884,15.394596 32.104942,15.156491 32.395414,14.960509 C 32.946703,14.603121 33.510683,14.522783 34.087418,14.719622 C 34.255592,14.777019 34.406224,14.859812 34.539283,14.967777 C 34.895810,15.259367 35.000266,15.621413 34.852621,16.054011 z "
     id="path1085" />
</svg>
