<?xml version="1.0" encoding="UTF-8" standalone="no"?>
<!DOCTYPE svg PUBLIC "-//W3C//DTD SVG 20010904//EN"
"http://www.w3.org/TR/2001/REC-SVG-20010904/DTD/svg10.dtd">
<!-- Created with Sodipodi ("http://www.sodipodi.com/") -->
<svg
   id="svg604"
   sodipodi:version="0.32"
   width="72pt"
   height="72pt"
   sodipodi:docbase="/home/zeus/.icons/gartoon/scalable/mimetypes"
   sodipodi:docname="gnome-mime-application-x-phyton.svg"
   inkscape:version="0.40"
   xmlns="http://www.w3.org/2000/svg"
   xmlns:cc="http://web.resource.org/cc/"
   xmlns:inkscape="http://www.inkscape.org/namespaces/inkscape"
   xmlns:sodipodi="http://sodipodi.sourceforge.net/DTD/sodipodi-0.dtd"
   xmlns:rdf="http://www.w3.org/1999/02/22-rdf-syntax-ns#"
   xmlns:dc="http://purl.org/dc/elements/1.1/"
   xmlns:xlink="http://www.w3.org/1999/xlink">
  <metadata
     id="metadata94">
    <rdf:RDF
       id="RDF95">
      <cc:Work
         rdf:about=""
         id="Work96">
        <dc:format
           id="format97">image/svg+xml</dc:format>
        <dc:type
           id="type99"
           rdf:resource="http://purl.org/dc/dcmitype/StillImage" />
      </cc:Work>
    </rdf:RDF>
  </metadata>
  <defs
     id="defs606">
    <linearGradient
       id="linearGradient863">
      <stop
         style="stop-color:#d70025;stop-opacity:0.741176;"
         offset="0.000000"
         id="stop864" />
      <stop
         style="stop-color:#ffffff;stop-opacity:0;"
         offset="1.000000"
         id="stop865" />
    </linearGradient>
    <linearGradient
       id="linearGradient612">
      <stop
         style="stop-color:#7fa8e3;stop-opacity:0.741176;"
         offset="0.000000"
         id="stop613" />
      <stop
         style="stop-color:#ffffff;stop-opacity:0;"
         offset="1.000000"
         id="stop614" />
    </linearGradient>
    <linearGradient
       xlink:href="#linearGradient612"
       id="linearGradient615"
       x1="50.6438866"
       y1="5.36792946"
       x2="35.7520943"
       y2="68.0443573"
       gradientUnits="userSpaceOnUse"
       spreadMethod="pad" />
    <defs
       id="defs561" />
    <sodipodi:namedview
       id="namedview611"
       showgrid="true"
       gridspacingx="1mm"
       gridspacingy="1mm"
       gridtolerance="1px"
       snaptogrid="true" />
    <linearGradient
       xlink:href="#linearGradient863"
       id="linearGradient862"
       x1="76.9552307"
       y1="34.6717224"
       x2="27.4362392"
       y2="67.2046585"
       gradientUnits="userSpaceOnUse"
       spreadMethod="pad"
       gradientTransform="scale(0.903424,1.106900)" />
    <linearGradient
       xlink:href="#linearGradient863"
       id="linearGradient866"
       x1="19.1633530"
       y1="61.2014313"
       x2="35.6168938"
       y2="33.2990570"
       gradientUnits="userSpaceOnUse"
       spreadMethod="pad"
       gradientTransform="scale(0.827637,1.208259)" />
    <linearGradient
       xlink:href="#linearGradient863"
       id="linearGradient980"
       x1="0.20752650"
       y1="0.80468732"
       x2="1.45282888"
       y2="0.26562491"
       gradientUnits="objectBoundingBox"
       spreadMethod="pad" />
    <linearGradient
       inkscape:collect="always"
       xlink:href="#linearGradient1828"
       id="linearGradient1196"
       gradientUnits="userSpaceOnUse"
       gradientTransform="matrix(0.999990,0.000000,0.000000,1.000010,-0.701263,-7.713892)"
       x1="32.051327"
       y1="14.657825"
       x2="32.051327"
       y2="75.934349" />
    <linearGradient
       inkscape:collect="always"
       xlink:href="#linearGradient1828"
       id="linearGradient1197"
       gradientUnits="userSpaceOnUse"
       gradientTransform="matrix(0.500064,0.000000,0.000000,0.500075,52.06230,47.59928)"
       x1="32.051327"
       y1="14.657825"
       x2="32.051327"
       y2="75.934349" />
    <metadata
       id="metadata18">
      <rdf:RDF
         id="RDF19">
        <cc:Work
           rdf:about=""
           id="Work20">
          <dc:format
             id="format21">image/svg+xml</dc:format>
          <dc:type
             id="type23"
             rdf:resource="http://purl.org/dc/dcmitype/StillImage" />
        </cc:Work>
      </rdf:RDF>
    </metadata>
    <sodipodi:namedview
       id="namedview1157"
       inkscape:zoom="2.5208333"
       inkscape:cx="34.288064"
       inkscape:cy="56.314502"
       inkscape:window-width="734"
       inkscape:window-height="537"
       inkscape:window-x="5"
       inkscape:window-y="46"
       inkscape:current-layer="svg548" />
    <defs
       id="defs550">
      <linearGradient
         id="linearGradient1828">
        <stop
           style="stop-color:#ffc93f;stop-opacity:1.0000000;"
           offset="0.0000000"
           id="stop1829" />
        <stop
           style="stop-color:#f1e36c;stop-opacity:1.0000000;"
           offset="1.0000000"
           id="stop1830" />
      </linearGradient>
      <linearGradient
         id="linearGradient1825">
        <stop
           offset="0.0000000"
           style="stop-color:#ffd800;stop-opacity:1.0000000;"
           id="stop1827" />
        <stop
           offset="1.0000000"
           style="stop-color:#ffd58f;stop-opacity:0.0000000;"
           id="stop1826" />
      </linearGradient>
      <linearGradient
         x1="0.0000000"
         y1="0.0000000"
         x2="1.0000000"
         y2="0.0000000"
         id="linearGradient632"
         gradientUnits="objectBoundingBox"
         spreadMethod="pad">
        <stop
           style="stop-color:#ffb700;stop-opacity:1;"
           offset="0.00000000"
           id="stop633" />
        <stop
           style="stop-color:#ffd58f;stop-opacity:0;"
           offset="1.00000000"
           id="stop634" />
      </linearGradient>
      <linearGradient
         x1="0.0000000"
         y1="0.0000000"
         x2="1.0000000"
         y2="0.0000000"
         id="linearGradient556"
         gradientUnits="objectBoundingBox"
         spreadMethod="pad">
        <stop
           style="stop-color:#000000;stop-opacity:1;"
           offset="0.00000000"
           id="stop557" />
        <stop
           style="stop-color:#bdf2ff;stop-opacity:0.384314;"
           offset="1.00000000"
           id="stop558" />
      </linearGradient>
      <linearGradient
         x1="60.644615"
         y1="19.295689"
         x2="35.370575"
         y2="69.142799"
         id="linearGradient559"
         xlink:href="#linearGradient632"
         gradientUnits="userSpaceOnUse"
         spreadMethod="pad"
         gradientTransform="matrix(1.418885,-0.200635,0.127692,1.110535,-136.7997,-1.332303)" />
      <linearGradient
         x1="85.637657"
         y1="17.443844"
         x2="73.916298"
         y2="54.628181"
         id="linearGradient631"
         xlink:href="#linearGradient632"
         gradientUnits="userSpaceOnUse"
         gradientTransform="matrix(1.050920,-0.148604,0.172402,1.499373,-123.6994,-3.008376)"
         spreadMethod="pad" />
      <defs
         id="defs3">
        <sodipodi:namedview
           id="namedview909" />
        <defs
           id="defs1721">
          <linearGradient
             x1="0.0000000"
             y1="0.0000000"
             x2="1.0000000"
             y2="0.0000000"
             id="linearGradient1722"
             gradientUnits="objectBoundingBox"
             spreadMethod="pad"
             xlink:href="#linearGradient1825" />
          <linearGradient
             x1="0.0000000"
             y1="0.0000000"
             x2="1.0000000"
             y2="0.0000000"
             id="linearGradient1725"
             gradientUnits="objectBoundingBox"
             spreadMethod="pad">
            <stop
               style="stop-color:#000000;stop-opacity:1;"
               offset="0.000000"
               id="stop1726" />
            <stop
               style="stop-color:#bdf2ff;stop-opacity:0.384314;"
               offset="1.000000"
               id="stop1727" />
          </linearGradient>
          <linearGradient
             id="linearGradient1728"
             xlink:href="#linearGradient632"
             x1="60.644615"
             y1="19.295689"
             x2="35.370575"
             y2="69.142799"
             gradientUnits="userSpaceOnUse"
             spreadMethod="pad" />
          <linearGradient
             xlink:href="#linearGradient632"
             id="linearGradient1729"
             x1="85.637657"
             y1="17.443844"
             x2="73.916298"
             y2="54.628181"
             gradientUnits="userSpaceOnUse"
             spreadMethod="pad"
             gradientTransform="scale(0.740666,1.350136)" />
        </defs>
      </defs>
      <sodipodi:namedview
         id="namedview1730"
         pagecolor="#ffffff"
         bordercolor="#666666"
         borderopacity="1.0"
         inkscape:pageopacity="0.0"
         inkscape:pageshadow="2"
         inkscape:zoom="2.4559706"
         inkscape:cx="113.94414"
         inkscape:cy="73.007956"
         inkscape:window-width="812"
         inkscape:window-height="560"
         inkscape:window-x="103"
         inkscape:window-y="56" />
      <metadata
         id="metadata4">
        <rdf:RDF
           id="RDF5">
          <cc:Work
             rdf:about=""
             id="Work6">
            <dc:format
               id="format7">image/svg+xml</dc:format>
            <dc:type
               id="type9"
               rdf:resource="http://purl.org/dc/dcmitype/StillImage" />
          </cc:Work>
        </rdf:RDF>
      </metadata>
      <linearGradient
         inkscape:collect="always"
         xlink:href="#linearGradient1828"
         id="linearGradient1831"
         gradientTransform="matrix(0.563776,0.000000,0.000000,0.563788,50.39821,45.07308)"
         x1="32.051327"
         y1="14.657825"
         x2="32.051327"
         y2="75.934349"
         gradientUnits="userSpaceOnUse" />
    </defs>
    <linearGradient
       inkscape:collect="always"
       xlink:href="#linearGradient1828"
       id="linearGradient1247"
       gradientUnits="userSpaceOnUse"
       gradientTransform="matrix(0.371303,0.000000,0.000000,0.371311,15.05191,23.27107)"
       x1="32.051327"
       y1="14.657825"
       x2="32.051327"
       y2="75.934349" />
    <linearGradient
       inkscape:collect="always"
       xlink:href="#linearGradient1828"
       id="linearGradient1250"
       gradientUnits="userSpaceOnUse"
       gradientTransform="matrix(0.371303,0.000000,0.000000,0.371311,23.15202,46.09866)"
       x1="32.051327"
       y1="14.657825"
       x2="32.051327"
       y2="75.934349" />
    <linearGradient
       inkscape:collect="always"
       xlink:href="#linearGradient1828"
       id="linearGradient1253"
       gradientUnits="userSpaceOnUse"
       gradientTransform="matrix(0.371303,0.000000,0.000000,0.371311,42.66593,31.73937)"
       x1="32.051327"
       y1="14.657825"
       x2="32.051327"
       y2="75.934349" />
  </defs>
  <sodipodi:namedview
     id="base"
     inkscape:zoom="2.5208333"
     inkscape:cx="36.000000"
     inkscape:cy="36.000000"
     inkscape:window-width="640"
     inkscape:window-height="537"
     inkscape:window-x="5"
     inkscape:window-y="444"
     inkscape:current-layer="svg604" />
  <path
     style="fill:#000000;fill-rule:evenodd;stroke:none;stroke-opacity:1;stroke-width:1pt;stroke-linejoin:miter;stroke-linecap:butt;fill-opacity:0.301471;"
     d="M 12.8163 74.753 C 10.3856 73.6481 7.07107 70.1126 8.83884 65.2512 C 9.72267 59.948 25.6326 13.1021 29.1682 10.8924 C 31.3778 8.90368 34.582 8.13026 39.1119 9.34561 C 42.8684 10.2295 76.6769 19.0684 78.6656 20.8361 C 80.6544 22.6039 82.2012 24.0402 80.6544 27.9072 C 79.5496 29.8959 66.4017 74.532 66.1808 77.4047 C 65.2969 80.4983 62.7558 84.2548 58.5573 84.0338 C 54.3589 83.8128 15.9099 75.4159 12.8163 74.753 z "
     id="path794"
     sodipodi:nodetypes="ccccccccc"
     transform="matrix(1.114903,0.000000,0.000000,1.114903,-5.305332,-3.889256)" />
  <path
     style="fill:#3d4e67;fill-rule:evenodd;stroke:none;stroke-opacity:1;stroke-width:1pt;stroke-linejoin:miter;stroke-linecap:butt;fill-opacity:1;"
     d="M 12.8163 74.753 C 10.3856 73.6481 7.07107 70.1126 8.83884 65.2512 C 9.72267 59.948 25.6326 13.1021 29.1682 10.8924 C 31.3778 8.90368 34.582 8.13026 39.1119 9.34561 C 42.8684 10.2295 76.6769 19.0684 78.6656 20.8361 C 80.6544 22.6039 82.2012 24.0402 80.6544 27.9072 C 79.5496 29.8959 66.4017 74.532 66.1808 77.4047 C 65.2969 80.4983 62.7558 84.2548 58.5573 84.0338 C 54.3589 83.8128 15.9099 75.4159 12.8163 74.753 z "
     id="path609"
     sodipodi:nodetypes="ccccccccc"
     transform="matrix(1.114903,0.000000,0.000000,1.114903,-8.162471,-8.460684)" />
  <path
     style="fill:#ffffff;fill-rule:evenodd;stroke:none;stroke-opacity:1;stroke-width:1pt;stroke-linejoin:miter;stroke-linecap:butt;fill-opacity:1;"
     d="M 17.8987 70.9965 C 15.3576 70.3336 11.7114 69.6706 13.0373 65.6932 C 15.468 55.9705 27.8424 18.6264 33.1456 13.986 C 34.361 12.8811 38.4489 12.4392 46.1829 14.8699 C 55.0218 17.5215 72.9204 23.4877 74.6882 24.3716 C 76.4559 25.2555 77.1189 25.2555 75.793 29.233 C 73.8043 33.2105 64.9655 67.24 62.7557 72.9852 C 61.209 77.0732 60.8775 78.9514 58.2258 78.9514 "
     id="path608"
     sodipodi:nodetypes="cccccccs"
     transform="matrix(1.114903,0.000000,0.000000,1.114903,-8.162471,-8.460684)" />
  <path
     style="fill:url(#linearGradient615);fill-rule:evenodd;stroke:none;stroke-opacity:1;stroke-width:1pt;stroke-linejoin:miter;stroke-linecap:butt;fill-opacity:1;"
     d="M 28.75 13.75 C 28.75 13.75 31.875 7.49995 39.6875 9.37495 C 47.5 11.25 78.125 19.375 77.8125 21.875 C 77.5 24.375 71.875 39.0625 71.5625 40.3125 C 71.25 41.5625 42.5 40.9375 31.5625 47.5 C 20.625 54.0625 12.5 59.6875 12.5 59.6875 C 12.5 59.6875 23.75 24.6875 28.75 13.75 z "
     id="path636"
     transform="matrix(0.946780,0.000000,0.000000,0.946780,-0.480566,0.409517)" />
  <path
     style="fill:#000000;fill-opacity:0.34444442;stroke:none;stroke-width:3.8674629;stroke-linecap:round;stroke-linejoin:round;stroke-miterlimit:4.0000000;stroke-opacity:1.0000000"
     d="M 40.239573,51.702279 C 39.167550,51.392861 38.059905,52.004321 37.750489,53.076343 L 37.290045,54.671619 C 36.839724,54.685710 36.397224,54.727546 35.960680,54.811046 L 35.163232,53.366489 C 34.623988,52.389662 33.397911,52.035781 32.421085,52.575025 L 31.362957,53.166398 C 30.386132,53.705643 30.034738,54.923096 30.573982,55.899922 L 31.365297,57.333369 C 31.057564,57.657483 30.777786,58.005431 30.521691,58.379001 L 28.960910,57.928514 C 27.888886,57.619097 26.770131,58.236690 26.460713,59.308714 L 26.124714,60.472833 C 25.815296,61.544856 26.435379,62.654989 27.507402,62.964406 L 29.033692,63.404938 C 29.045646,63.871667 29.091448,64.330303 29.177922,64.782397 L 27.788924,65.549175 C 26.812098,66.088418 26.460704,67.305872 26.999948,68.282698 L 27.591323,69.340825 C 28.130566,70.317653 29.348020,70.669046 30.324848,70.129801 L 31.691620,69.375292 C 32.032437,69.699208 32.394699,69.995619 32.790148,70.262189 L 32.359572,71.753986 C 32.050155,72.826009 32.661615,73.933653 33.733638,74.243070 L 34.897757,74.579069 C 35.969781,74.888487 37.077425,74.277026 37.386842,73.205003 L 37.819907,71.704584 C 38.292754,71.689228 38.753581,71.637357 39.210966,71.545596 L 39.965476,72.912370 C 40.504720,73.889197 41.722173,74.240589 42.699000,73.701345 L 43.763261,73.121083 C 44.740087,72.581838 45.093970,71.355762 44.554725,70.378937 L 43.794083,69.001051 C 44.108163,68.664568 44.391311,68.300877 44.650132,67.912302 L 46.176421,68.352834 C 47.248445,68.662252 48.356087,68.050792 48.665505,66.978768 L 49.001504,65.814649 C 49.310921,64.742627 48.701951,63.626359 47.629928,63.316943 L 46.069147,62.866454 C 46.051446,62.412427 45.992042,61.969215 45.903849,61.529622 L 47.337294,60.738307 C 48.314122,60.199064 48.665515,58.981609 48.126270,58.004783 L 47.546005,56.940522 C 47.006764,55.963696 45.789312,55.612302 44.812483,56.151547 L 43.356814,56.955129 C 43.033080,56.652643 42.689412,56.374086 42.317315,56.122636 L 42.777759,54.527362 C 43.087176,53.455339 42.475716,52.347695 41.403693,52.038278 L 40.239573,51.702279 z M 38.694306,59.224540 C 40.884020,59.856556 42.148063,62.146340 41.516047,64.336053 C 40.884032,66.525768 38.594249,67.789811 36.404535,67.157796 C 34.214821,66.525780 32.950777,64.235996 33.582793,62.046282 C 34.214809,59.856569 36.504591,58.592525 38.694306,59.224540 z "
     id="path1248" />
  <path
     style="fill:#000000;fill-opacity:0.34444442;stroke:none;stroke-width:3.8674629;stroke-linecap:round;stroke-linejoin:round;stroke-miterlimit:4.0000000;stroke-opacity:1.0000000"
     d="M 59.753488,37.342983 C 58.681466,37.033566 57.573820,37.645025 57.264404,38.717048 L 56.803960,40.312323 C 56.353640,40.326414 55.911139,40.368251 55.474595,40.451750 L 54.677148,39.007193 C 54.137903,38.030367 52.911826,37.676486 51.935000,38.215729 L 50.876872,38.807103 C 49.900047,39.346346 49.548653,40.563800 50.087897,41.540627 L 50.879212,42.974073 C 50.571478,43.298187 50.291701,43.646135 50.035606,44.019705 L 48.474825,43.569218 C 47.402801,43.259801 46.284046,43.877395 45.974628,44.949418 L 45.638628,46.113537 C 45.329211,47.185560 45.949294,48.295693 47.021318,48.605110 L 48.547607,49.045642 C 48.559562,49.512371 48.605363,49.971007 48.691836,50.423101 L 47.302839,51.189879 C 46.326013,51.729122 45.974620,52.946576 46.513863,53.923402 L 47.105237,54.981529 C 47.644481,55.958357 48.861935,56.309750 49.838762,55.770506 L 51.205535,55.015996 C 51.546352,55.339913 51.908615,55.636323 52.304063,55.902893 L 51.873487,57.394690 C 51.564070,58.466713 52.175530,59.574358 53.247553,59.883774 L 54.411672,60.219773 C 55.483696,60.529191 56.591340,59.917730 56.900757,58.845707 L 57.333822,57.345289 C 57.806669,57.329932 58.267495,57.278061 58.724882,57.186300 L 59.479390,58.553075 C 60.018635,59.529902 61.236087,59.881294 62.212914,59.342049 L 63.277176,58.761787 C 64.254002,58.222543 64.607885,56.996466 64.068640,56.019641 L 63.307998,54.641755 C 63.622078,54.305272 63.905226,53.941582 64.164047,53.553006 L 65.690336,53.993539 C 66.762360,54.302956 67.870002,53.691496 68.179420,52.619472 L 68.515419,51.455353 C 68.824836,50.383331 68.215866,49.267063 67.143844,48.957647 L 65.583062,48.507159 C 65.565362,48.053131 65.505956,47.609918 65.417764,47.170326 L 66.851209,46.379011 C 67.828037,45.839768 68.179430,44.622313 67.640185,43.645487 L 67.059921,42.581227 C 66.520679,41.604399 65.303227,41.253007 64.326398,41.792251 L 62.870730,42.595833 C 62.546995,42.293348 62.203327,42.014790 61.831230,41.763340 L 62.291673,40.168067 C 62.601091,39.096044 61.989631,37.988399 60.917608,37.678982 L 59.753488,37.342983 z M 58.208221,44.865245 C 60.397935,45.497260 61.661979,47.787044 61.029962,49.976757 C 60.397947,52.166472 58.108164,53.430515 55.918451,52.798500 C 53.728736,52.166484 52.464692,49.876701 53.096708,47.686986 C 53.728724,45.497273 56.018506,44.233229 58.208221,44.865245 z "
     id="path1251" />
  <path
     style="fill:#000000;fill-opacity:0.34444442;stroke:none;stroke-width:3.8674629;stroke-linecap:round;stroke-linejoin:round;stroke-miterlimit:4.0000000;stroke-opacity:1.0000000"
     d="M 32.139457,28.874680 C 31.067434,28.565263 29.959790,29.176723 29.650373,30.248745 L 29.189930,31.844019 C 28.739608,31.858110 28.297108,31.899947 27.860565,31.983447 L 27.063116,30.538890 C 26.523873,29.562064 25.297795,29.208183 24.320969,29.747426 L 23.262842,30.338800 C 22.286017,30.878043 21.934622,32.095498 22.473866,33.072324 L 23.265182,34.505770 C 22.957448,34.829885 22.677669,35.177832 22.421575,35.551402 L 20.860794,35.100915 C 19.788770,34.791497 18.670015,35.409092 18.360596,36.481114 L 18.024598,37.645234 C 17.715181,38.717257 18.335264,39.827390 19.407287,40.136807 L 20.933577,40.577339 C 20.945531,41.044069 20.991332,41.502704 21.077806,41.954798 L 19.688808,42.721575 C 18.711983,43.260819 18.360588,44.478274 18.899833,45.455099 L 19.491207,46.513226 C 20.030451,47.490054 21.247905,47.841446 22.224732,47.302203 L 23.591505,46.547693 C 23.932321,46.871610 24.294584,47.168020 24.690033,47.434590 L 24.259456,48.926386 C 23.950039,49.998410 24.561499,51.106055 25.633522,51.415471 L 26.797641,51.751470 C 27.869665,52.060888 28.977310,51.449428 29.286726,50.377405 L 29.719791,48.876985 C 30.192638,48.861628 30.653465,48.809758 31.110850,48.717998 L 31.865360,50.084772 C 32.404604,51.061598 33.622057,51.412991 34.598884,50.873747 L 35.663145,50.293483 C 36.639972,49.754240 36.993854,48.528164 36.454609,47.551338 L 35.693967,46.173453 C 36.008047,45.836970 36.291194,45.473279 36.550016,45.084703 L 38.076305,45.525235 C 39.148328,45.834653 40.255971,45.223193 40.565388,44.151169 L 40.901388,42.987050 C 41.210806,41.915028 40.601836,40.798760 39.529813,40.489343 L 37.969031,40.038856 C 37.951331,39.584827 37.891926,39.141615 37.803733,38.702024 L 39.237178,37.910708 C 40.214006,37.371465 40.565399,36.154011 40.026155,35.177184 L 39.445890,34.112924 C 38.906648,33.136097 37.689196,32.784704 36.712368,33.323947 L 35.256698,34.127531 C 34.932964,33.825044 34.589296,33.546487 34.217199,33.295037 L 34.677643,31.699764 C 34.987060,30.627740 34.375599,29.520096 33.303577,29.210679 L 32.139457,28.874680 z M 30.594190,36.396942 C 32.783905,37.028958 34.047948,39.318741 33.415932,41.508455 C 32.783916,43.698169 30.494133,44.962213 28.304419,44.330197 C 26.114706,43.698181 24.850661,41.408398 25.482678,39.218684 C 26.114693,37.028970 28.404476,35.764926 30.594190,36.396942 z "
     id="path1863" />
  <path
     style="fill:url(#linearGradient1250);fill-opacity:1.0000000;stroke:#593a28;stroke-width:1.4360162;stroke-linecap:round;stroke-linejoin:round;stroke-miterlimit:4.0000000;stroke-opacity:1.0000000"
     d="M 38.582500,50.045206 C 37.510477,49.735789 36.402833,50.347249 36.093416,51.419272 L 35.632973,53.014545 C 35.182651,53.028637 34.740151,53.070474 34.303608,53.153973 L 33.506159,51.709416 C 32.966916,50.732589 31.740838,50.378709 30.764012,50.917951 L 29.705885,51.509326 C 28.729060,52.048569 28.377665,53.266024 28.916909,54.242850 L 29.708224,55.676296 C 29.400491,56.000411 29.120713,56.348358 28.864618,56.721929 L 27.303837,56.271441 C 26.231812,55.962024 25.113057,56.579618 24.803639,57.651641 L 24.467641,58.815760 C 24.158224,59.887783 24.778307,60.997916 25.850330,61.307334 L 27.376620,61.747865 C 27.388574,62.214595 27.434375,62.673230 27.520849,63.125324 L 26.131850,63.892101 C 25.155025,64.431345 24.803631,65.648800 25.342876,66.625626 L 25.934249,67.683752 C 26.473493,68.660579 27.690948,69.011972 28.667775,68.472728 L 30.034548,67.718219 C 30.375364,68.042136 30.737627,68.338546 31.133076,68.605116 L 30.702499,70.096913 C 30.393082,71.168936 31.004542,72.276581 32.076565,72.585998 L 33.240684,72.921996 C 34.312708,73.231413 35.420352,72.619954 35.729769,71.547930 L 36.162834,70.047511 C 36.635681,70.032154 37.096508,69.980285 37.553893,69.888523 L 38.308403,71.255298 C 38.847647,72.232124 40.065100,72.583516 41.041927,72.044273 L 42.106189,71.464010 C 43.083015,70.924766 43.436897,69.698690 42.897652,68.721864 L 42.137009,67.343978 C 42.451090,67.007496 42.734237,66.643806 42.993059,66.255229 L 44.519348,66.695761 C 45.591371,67.005179 46.699013,66.393719 47.008431,65.321696 L 47.344431,64.157576 C 47.653848,63.085553 47.044879,61.969286 45.972856,61.659869 L 44.412074,61.209382 C 44.394373,60.755354 44.334967,60.312141 44.246776,59.872549 L 45.680221,59.081235 C 46.657049,58.541992 47.008443,57.324536 46.469198,56.347711 L 45.888934,55.283449 C 45.349691,54.306623 44.132238,53.955231 43.155410,54.494473 L 41.699741,55.298056 C 41.376006,54.995570 41.032338,54.717013 40.660242,54.465563 L 41.120686,52.870290 C 41.430103,51.798266 40.818642,50.690622 39.746620,50.381205 L 38.582500,50.045206 z M 37.037233,57.567469 C 39.226948,58.199484 40.490991,60.489267 39.858976,62.678980 C 39.226958,64.868695 36.937176,66.132739 34.747462,65.500723 C 32.557748,64.868707 31.293704,62.578924 31.925721,60.389209 C 32.557736,58.199496 34.847519,56.935452 37.037233,57.567469 z "
     id="path1249" />
  <path
     style="fill:url(#linearGradient1253);fill-opacity:1.0000000;stroke:#593a28;stroke-width:1.4360162;stroke-linecap:round;stroke-linejoin:round;stroke-miterlimit:4.0000000;stroke-opacity:1.0000000"
     d="M 58.096415,35.685910 C 57.024392,35.376493 55.916748,35.987953 55.607331,37.059976 L 55.146888,38.655249 C 54.696567,38.669341 54.254066,38.711178 53.817523,38.794677 L 53.020074,37.350120 C 52.480831,36.373293 51.254753,36.019413 50.277927,36.558656 L 49.219800,37.150030 C 48.242974,37.689273 47.891581,38.906729 48.430824,39.883554 L 49.222138,41.317000 C 48.914406,41.641116 48.634628,41.989063 48.378534,42.362633 L 46.817752,41.912145 C 45.745728,41.602728 44.626972,42.220322 44.317555,43.292345 L 43.981556,44.456464 C 43.672139,45.528487 44.292222,46.638620 45.364245,46.948038 L 46.890534,47.388569 C 46.902488,47.855299 46.948291,48.313934 47.034764,48.766028 L 45.645766,49.532805 C 44.668941,50.072050 44.317546,51.289504 44.856791,52.266330 L 45.448164,53.324457 C 45.987408,54.301284 47.204863,54.652676 48.181690,54.113432 L 49.548463,53.358923 C 49.889279,53.682840 50.251542,53.979250 50.646990,54.245820 L 50.216413,55.737616 C 49.906997,56.809640 50.518458,57.917285 51.590480,58.226701 L 52.754599,58.562700 C 53.826623,58.872118 54.934267,58.260659 55.243684,57.188635 L 55.676749,55.688215 C 56.149596,55.672859 56.610423,55.620989 57.067808,55.529228 L 57.822318,56.896002 C 58.361562,57.872828 59.579015,58.224220 60.555842,57.684978 L 61.620104,57.104714 C 62.596930,56.565470 62.950812,55.339394 62.411567,54.362568 L 61.650925,52.984683 C 61.965006,52.648200 62.248153,52.284510 62.506974,51.895933 L 64.033263,52.336465 C 65.105287,52.645883 66.212928,52.034423 66.522347,50.962400 L 66.858346,49.798280 C 67.167763,48.726257 66.558793,47.609990 65.486771,47.300573 L 63.925988,46.850086 C 63.908289,46.396057 63.848882,45.952845 63.760691,45.513254 L 65.194136,44.721939 C 66.170964,44.182696 66.522358,42.965241 65.983112,41.988415 L 65.402848,40.924153 C 64.863606,39.947327 63.646152,39.595935 62.669325,40.135178 L 61.213656,40.938761 C 60.889922,40.636274 60.546254,40.357717 60.174157,40.106267 L 60.634601,38.510994 C 60.944018,37.438970 60.332558,36.331326 59.260535,36.021909 L 58.096415,35.685910 z M 56.551148,43.208173 C 58.740863,43.840188 60.004906,46.129971 59.372890,48.319685 C 58.740874,50.509399 56.451091,51.773443 54.261378,51.141427 C 52.071664,50.509411 50.807619,48.219628 51.439636,46.029913 C 52.071651,43.840200 54.361434,42.576156 56.551148,43.208173 z "
     id="path1252" />
  <path
     style="fill:url(#linearGradient1247);fill-opacity:1.0000000;stroke:#593a28;stroke-width:1.4360162;stroke-linecap:round;stroke-linejoin:round;stroke-miterlimit:4.0000000;stroke-opacity:1.0000000"
     d="M 30.482385,27.217607 C 29.410362,26.908190 28.302717,27.519650 27.993300,28.591673 L 27.532858,30.186947 C 27.082536,30.201038 26.640035,30.242875 26.203493,30.326375 L 25.406044,28.881818 C 24.866799,27.904990 23.640723,27.551110 22.663897,28.090353 L 21.605769,28.681727 C 20.628944,29.220971 20.277549,30.438425 20.816794,31.415251 L 21.608108,32.848697 C 21.300375,33.172813 21.020598,33.520760 20.764503,33.894330 L 19.203722,33.443843 C 18.131697,33.134426 17.012942,33.752019 16.703524,34.824042 L 16.367525,35.988161 C 16.058107,37.060185 16.678191,38.170317 17.750214,38.479735 L 19.276504,38.920266 C 19.288458,39.386996 19.334260,39.845632 19.420733,40.297725 L 18.031735,41.064503 C 17.054909,41.603747 16.703516,42.821201 17.242760,43.798027 L 17.834134,44.856154 C 18.373378,45.832981 19.590832,46.184374 20.567659,45.645129 L 21.934433,44.890620 C 22.275248,45.214537 22.637511,45.510947 23.032960,45.777517 L 22.602383,47.269314 C 22.292967,48.341338 22.904427,49.448982 23.976450,49.758399 L 25.140569,50.094398 C 26.212592,50.403815 27.320236,49.792355 27.629653,48.720332 L 28.062719,47.219912 C 28.535566,47.204556 28.996392,47.152687 29.453778,47.060925 L 30.208288,48.427698 C 30.747532,49.404526 31.964984,49.755917 32.941811,49.216674 L 34.006073,48.636412 C 34.982899,48.097167 35.336781,46.871091 34.797537,45.894266 L 34.036894,44.516379 C 34.350974,44.179896 34.634122,43.816206 34.892943,43.427631 L 36.419233,43.868162 C 37.491256,44.177580 38.598898,43.566121 38.908316,42.494097 L 39.244316,41.329978 C 39.553733,40.257955 38.944763,39.141688 37.872741,38.832270 L 36.311958,38.381783 C 36.294257,37.927755 36.234852,37.484543 36.146661,37.044950 L 37.580106,36.253637 C 38.556934,35.714393 38.908327,34.496938 38.369082,33.520113 L 37.788818,32.455850 C 37.249575,31.479024 36.032122,31.127631 35.055295,31.666875 L 33.599626,32.470458 C 33.275891,32.167971 32.932223,31.889414 32.560127,31.637965 L 33.020570,30.042691 C 33.329988,28.970667 32.718527,27.863024 31.646505,27.553607 L 30.482385,27.217607 z M 28.937118,34.739870 C 31.126832,35.371885 32.390876,37.661668 31.758859,39.851381 C 31.126843,42.041096 28.837060,43.305140 26.647347,42.673124 C 24.457632,42.041109 23.193589,39.751325 23.825604,37.561610 C 24.457621,35.371898 26.747403,34.107854 28.937118,34.739870 z "
     id="path1864" />
  <path
     style="font-size:12.000000;font-style:normal;font-variant:normal;font-weight:normal;font-stretch:normal;fill:#3d4e67;fill-opacity:1.0000000;stroke:none;stroke-width:1.0000000pt;stroke-linecap:butt;stroke-linejoin:miter;stroke-opacity:1.0000000;font-family:Kid Kosmic;text-anchor:start;writing-mode:lr"
     d="M 33.939073,24.769501 C 34.257922,21.885560 34.738659,19.189463 35.381284,16.681202 C 35.552647,16.012347 35.857621,14.995870 36.296204,13.631768 C 36.835467,11.924376 37.180122,11.026254 37.330169,10.937397 C 37.324340,10.910467 37.312544,10.881988 37.294781,10.851962 C 37.372561,10.846453 37.417425,10.845219 37.429374,10.848262 C 37.813949,10.539512 38.279719,10.410646 38.826685,10.461666 C 39.026962,10.474812 39.210714,10.502798 39.377936,10.545622 C 39.664586,10.619082 39.915115,10.734181 40.129523,10.890918 C 42.051521,11.039702 43.930685,11.355686 45.767020,11.838869 C 47.567497,12.312906 48.582492,12.872061 48.812010,13.516335 C 49.753290,16.201299 50.035741,18.278333 49.659367,19.747442 C 49.402299,20.750749 48.837423,21.465169 47.964731,21.890703 C 46.216238,22.753732 43.508591,22.715518 39.841776,21.776060 C 38.945967,21.546558 37.993650,21.264388 36.984829,20.929548 C 36.795194,22.166503 36.701412,23.377098 36.703484,24.561332 C 36.562122,25.212433 36.205575,25.585659 35.633842,25.681010 C 35.448263,25.709835 35.271865,25.702825 35.104651,25.659981 C 34.710496,25.559000 34.321970,25.262175 33.939073,24.769501 M 39.237109,13.927027 C 38.454019,15.393787 37.861743,16.960331 37.460283,18.626663 C 38.265759,18.960322 39.320980,19.287948 40.625949,19.609547 C 43.662788,20.374879 45.707838,20.192421 46.761107,19.062174 C 46.917551,18.898619 47.027911,18.691425 47.092188,18.440590 C 47.254359,17.807565 47.098004,16.927456 46.623125,15.800258 C 45.888307,15.141072 45.025227,14.684480 44.033883,14.430478 C 43.018628,14.170383 41.419705,14.002565 39.237109,13.927027 M 53.935409,16.470888 C 53.855744,16.285030 53.835806,16.114458 53.875592,15.959168 C 53.982691,15.541143 54.389481,15.269887 55.095964,15.145398 C 55.506004,15.085006 55.931992,15.111413 56.373929,15.224620 C 56.812793,15.349806 57.140364,15.586467 57.356647,15.934606 C 57.642302,17.204247 57.929497,18.467901 58.218230,19.725569 C 58.574067,21.267748 59.071320,22.407026 59.709989,23.143406 C 60.420700,22.803655 61.111336,22.318739 61.781896,21.688658 C 62.172881,21.305177 62.720780,20.681867 63.425596,19.818727 C 64.145389,18.946729 64.708292,18.314535 65.114309,17.922145 C 65.471334,17.720890 65.872348,17.670895 66.317354,17.772159 C 67.287864,18.008099 67.898144,18.482655 68.148195,19.195833 C 68.248071,19.501456 68.156712,19.783523 67.874119,20.042034 C 66.485228,21.289946 65.404682,22.228636 64.632476,22.858104 C 63.797164,23.535072 62.636364,24.389558 61.150076,25.421571 C 60.375376,25.961328 59.898696,26.679251 59.720036,27.575346 C 59.550534,28.435618 59.471067,29.242581 59.481636,29.996239 C 59.401173,30.459296 59.198963,30.776602 58.875000,30.948159 C 58.554081,31.107776 58.180310,31.101110 57.753689,30.928164 C 57.368709,30.791350 57.055993,30.571224 56.815541,30.267782 C 56.548423,29.919331 56.456327,29.558443 56.539253,29.185114 C 56.682180,28.776257 56.845257,27.990714 57.028477,26.828484 C 57.218693,25.489868 57.247175,24.708024 57.113923,24.482955 L 55.623943,20.760099 C 55.323068,20.046626 55.020671,19.339111 54.716747,18.637556 C 54.362866,17.783223 54.102421,17.061000 53.935409,16.470888"
     id="text1126" />
</svg>
