<?xml version="1.0" encoding="UTF-8" standalone="no"?>
<!DOCTYPE svg PUBLIC "-//W3C//DTD SVG 20010904//EN"
"http://www.w3.org/TR/2001/REC-SVG-20010904/DTD/svg10.dtd">
<!-- Created with Sodipodi ("http://www.sodipodi.com/") -->
<svg
   id="svg604"
   sodipodi:version="0.32"
   width="72pt"
   height="72pt"
   sodipodi:docbase="/home/zeus/.icons/gartoon/scalable/mimetypes"
   sodipodi:docname="gnome-x-copying.svg"
   xmlns="http://www.w3.org/2000/svg"
   xmlns:sodipodi="http://sodipodi.sourceforge.net/DTD/sodipodi-0.dtd"
   xmlns:xlink="http://www.w3.org/1999/xlink"
   xmlns:inkscape="http://www.inkscape.org/namespaces/inkscape"
   inkscape:version="0.40"
   xmlns:rdf="http://www.w3.org/1999/02/22-rdf-syntax-ns#"
   xmlns:cc="http://web.resource.org/cc/"
   xmlns:dc="http://purl.org/dc/elements/1.1/">
  <metadata
     id="metadata65">
    <rdf:RDF
       id="RDF66">
      <cc:Work
         rdf:about=""
         id="Work67">
        <dc:format
           id="format68">image/svg+xml</dc:format>
        <dc:type
           id="type70"
           rdf:resource="http://purl.org/dc/dcmitype/StillImage" />
      </cc:Work>
    </rdf:RDF>
  </metadata>
  <defs
     id="defs606">
    <linearGradient
       id="linearGradient1787">
      <stop
         offset="0.0000000"
         style="stop-color:#ffcbcb;stop-opacity:1.0000000;"
         id="stop1789" />
      <stop
         offset="1.0000000"
         style="stop-color:#ea0800;stop-opacity:1.0000000;"
         id="stop1788" />
    </linearGradient>
    <linearGradient
       id="linearGradient612">
      <stop
         style="stop-color:#7fa8e3;stop-opacity:0.741176;"
         offset="0.000000"
         id="stop613" />
      <stop
         style="stop-color:#ffffff;stop-opacity:0;"
         offset="1.000000"
         id="stop614" />
    </linearGradient>
    <linearGradient
       xlink:href="#linearGradient612"
       id="linearGradient615"
       x1="50.6438866"
       y1="5.36792946"
       x2="35.7520943"
       y2="68.0443573"
       gradientUnits="userSpaceOnUse"
       spreadMethod="pad" />
    <defs
       id="defs598">
      <linearGradient
         id="linearGradient697">
        <stop
           style="stop-color:#7fa8e3;stop-opacity:0.741176;"
           offset="0.000000"
           id="stop698" />
        <stop
           style="stop-color:#ffffff;stop-opacity:0;"
           offset="1.000000"
           id="stop699" />
      </linearGradient>
      <linearGradient
         id="linearGradient626"
         x1="0.0000000"
         y1="0.50000000"
         x2="1.0000000"
         y2="0.50000000"
         gradientUnits="objectBoundingBox"
         spreadMethod="pad"
         xlink:href="#linearGradient1787" />
      <linearGradient
         id="linearGradient618">
        <stop
           style="stop-color:#956d47;stop-opacity:1;"
           offset="0.000000"
           id="stop619" />
        <stop
           style="stop-color:#ab322d;stop-opacity:0;"
           offset="1.000000"
           id="stop620" />
      </linearGradient>
      <linearGradient
         id="linearGradient706">
        <stop
           style="stop-color:#000;stop-opacity:1;"
           offset="0"
           id="stop707" />
        <stop
           style="stop-color:#fff;stop-opacity:1;"
           offset="1"
           id="stop708" />
      </linearGradient>
      <linearGradient
         xlink:href="#linearGradient618"
         id="linearGradient617"
         x1="-0.19608469"
         y1="0.57031226"
         x2="1.07843077"
         y2="0.52343726"
         gradientUnits="objectBoundingBox"
         spreadMethod="pad" />
      <linearGradient
         xlink:href="#linearGradient626"
         id="linearGradient625"
         x1="42.9995728"
         y1="77.3980103"
         x2="28.5382881"
         y2="63.0152588"
         gradientUnits="userSpaceOnUse"
         spreadMethod="pad"
         gradientTransform="matrix(0.934001,0.000000,0.000000,1.070663,-1.516226e-6,-1.716230e-7)" />
      <linearGradient
         xlink:href="#linearGradient612"
         id="linearGradient636"
         x1="16.4110699"
         y1="10.6072874"
         x2="24.6243172"
         y2="61.6665344"
         gradientUnits="userSpaceOnUse"
         spreadMethod="pad" />
    </defs>
    <sodipodi:namedview
       id="namedview712" />
    <radialGradient
       inkscape:collect="always"
       xlink:href="#linearGradient1787"
       id="radialGradient1786"
       cx="55.821728"
       cy="67.852768"
       fx="55.988865"
       fy="67.684441"
       r="8.0222836"
       gradientUnits="userSpaceOnUse"
       spreadMethod="reflect" />
    <linearGradient
       inkscape:collect="always"
       xlink:href="#linearGradient1787"
       id="linearGradient1796"
       gradientTransform="matrix(0.654078,0.000000,0.000000,0.603707,17.42260,22.42280)"
       x1="32.572178"
       y1="41.439709"
       x2="65.530708"
       y2="86.700996"
       gradientUnits="userSpaceOnUse" />
  </defs>
  <sodipodi:namedview
     id="base"
     inkscape:zoom="1.0000000"
     inkscape:cx="97.864197"
     inkscape:cy="97.933472"
     inkscape:window-width="640"
     inkscape:window-height="537"
     inkscape:window-x="303"
     inkscape:window-y="84"
     inkscape:current-layer="svg604" />
  <g
     id="g898"
     transform="translate(-1.146498,1.146498)">
    <path
       style="fill:#000000;fill-rule:evenodd;stroke:none;stroke-opacity:1;stroke-width:1pt;stroke-linejoin:miter;stroke-linecap:butt;fill-opacity:0.301471;"
       d="M 12.8163 74.753 C 10.3856 73.6481 7.07107 70.1126 8.83884 65.2512 C 9.72267 59.948 25.6326 13.1021 29.1682 10.8924 C 31.3778 8.90368 34.582 8.13026 39.1119 9.34561 C 42.8684 10.2295 76.6769 19.0684 78.6656 20.8361 C 80.6544 22.6039 82.2012 24.0402 80.6544 27.9072 C 79.5496 29.8959 66.4017 74.532 66.1808 77.4047 C 65.2969 80.4983 62.7558 84.2548 58.5573 84.0338 C 54.3589 83.8128 15.9099 75.4159 12.8163 74.753 z "
       id="path794"
       sodipodi:nodetypes="ccccccccc"
       transform="matrix(1.114903,0.000000,0.000000,1.114903,1.287023,-5.035753)" />
    <path
       style="fill:#3d4e67;fill-rule:evenodd;stroke:none;stroke-opacity:1;stroke-width:1pt;stroke-linejoin:miter;stroke-linecap:butt;fill-opacity:1;"
       d="M 12.8163 74.753 C 10.3856 73.6481 7.07107 70.1126 8.83884 65.2512 C 9.72267 59.948 25.6326 13.1021 29.1682 10.8924 C 31.3778 8.90368 34.582 8.13026 39.1119 9.34561 C 42.8684 10.2295 76.6769 19.0684 78.6656 20.8361 C 80.6544 22.6039 82.2012 24.0402 80.6544 27.9072 C 79.5496 29.8959 66.4017 74.532 66.1808 77.4047 C 65.2969 80.4983 62.7558 84.2548 58.5573 84.0338 C 54.3589 83.8128 15.9099 75.4159 12.8163 74.753 z "
       id="path895"
       sodipodi:nodetypes="ccccccccc"
       transform="matrix(1.114903,0.000000,0.000000,1.114903,-1.570116,-9.607182)" />
    <path
       style="fill:#ffffff;fill-rule:evenodd;stroke:none;stroke-opacity:1;stroke-width:1pt;stroke-linejoin:miter;stroke-linecap:butt;fill-opacity:1;"
       d="M 17.8987 70.9965 C 15.3576 70.3336 11.7114 69.6706 13.0373 65.6932 C 15.468 55.9705 27.8424 18.6264 33.1456 13.986 C 34.361 12.8811 38.4489 12.4392 46.1829 14.8699 C 55.0218 17.5215 72.9204 23.4877 74.6882 24.3716 C 76.4559 25.2555 77.1189 25.2555 75.793 29.233 C 73.8043 33.2105 64.9655 67.24 62.7557 72.9852 C 61.209 77.0732 60.8775 78.9514 58.2258 78.9514 "
       id="path896"
       sodipodi:nodetypes="cccccccs"
       transform="matrix(1.114903,0.000000,0.000000,1.114903,-1.570116,-9.607182)" />
    <path
       style="fill:url(#linearGradient636);fill-rule:evenodd;stroke:none;stroke-opacity:1;stroke-width:1pt;stroke-linejoin:miter;stroke-linecap:butt;fill-opacity:1;"
       d="M 28.75 13.75 C 28.75 13.75 31.875 7.49995 39.6875 9.37495 C 47.5 11.25 78.125 19.375 77.8125 21.875 C 77.5 24.375 71.875 39.0625 71.5625 40.3125 C 71.25 41.5625 42.5 40.9375 31.5625 47.5 C 20.625 54.0625 12.5 59.6875 12.5 59.6875 C 12.5 59.6875 23.75 24.6875 28.75 13.75 z "
       id="path636"
       transform="matrix(0.946780,0.000000,0.000000,0.946780,6.111789,-0.736980)" />
  </g>
  <path
     style="fill:none;fill-opacity:0.75000000;fill-rule:evenodd;stroke:#3d4e67;stroke-width:1.2500000;stroke-linecap:round;stroke-linejoin:round;stroke-miterlimit:4.0000000;stroke-opacity:1.0000000"
     d="M 22.097087,45.805826 L 60.987960,55.528544"
     id="path2430" />
  <path
     style="fill:none;fill-opacity:1.0000000;fill-rule:evenodd;stroke:#230000;stroke-width:3.1419392;stroke-linecap:butt;stroke-linejoin:miter;stroke-miterlimit:4.0000000;stroke-opacity:1.0000000"
     d="M 43.981925,58.128245 C 43.981925,58.128245 45.601396,61.499574 43.010242,61.806058 C 42.686348,63.338480 42.362453,63.338480 44.305819,66.709809 C 46.249184,70.081139 43.334136,72.226530 47.220867,72.839499 C 51.107598,73.452468 52.403175,73.145983 54.346540,74.065437 C 56.289905,74.984890 59.204953,75.904343 60.500530,72.533014 C 61.796107,69.161685 64.387261,67.016294 64.387261,67.016294 C 65.682838,69.468170 66.330626,58.741214 61.796107,55.369884 C 55.966011,55.676369 51.755386,50.772617 48.516444,54.143946 C 46.896973,55.369884 43.981925,58.128245 43.981925,58.128245 z "
     id="path1797"
     sodipodi:nodetypes="cccccccccc" />
  <path
     style="fill:url(#linearGradient1796);fill-opacity:1.0000000;fill-rule:evenodd;stroke:none;stroke-width:0.25000000pt;stroke-linecap:butt;stroke-linejoin:miter;stroke-opacity:1.0000000"
     d="M 43.981925,58.128245 C 43.981925,58.128245 45.601396,61.499574 43.010242,61.806058 C 42.686348,63.338480 42.362453,63.338480 44.305819,66.709809 C 46.249184,70.081139 43.334136,72.226530 47.220867,72.839499 C 51.107598,73.452468 52.403175,73.145983 54.346540,74.065437 C 56.289905,74.984890 59.204953,75.904343 60.500530,72.533014 C 61.796107,69.161685 64.387261,67.016294 64.387261,67.016294 C 65.682838,69.468170 66.330626,58.741214 61.796107,55.369884 C 55.966011,55.676369 53.698751,51.079101 48.516444,54.143946 C 46.896973,55.369884 43.981925,58.128245 43.981925,58.128245 z "
     id="path1790"
     sodipodi:nodetypes="cccccccccc" />
  <path
     sodipodi:type="arc"
     style="fill:url(#radialGradient1786);fill-opacity:1.0000000;fill-rule:nonzero;stroke:none;stroke-width:5.0000000;stroke-linecap:round;stroke-linejoin:round;stroke-miterlimit:4.0000000;stroke-opacity:1.0000000"
     id="path1161"
     sodipodi:cx="56.406685"
     sodipodi:cy="68.189415"
     sodipodi:rx="11.782730"
     sodipodi:ry="11.782730"
     d="M 68.189415 68.189415 A 11.782730 11.782730 0 1 1  44.623955,68.189415 A 11.782730 11.782730 0 1 1  68.189415 68.189415 z"
     transform="matrix(0.645989,0.000000,0.000000,0.611266,17.42260,22.42280)" />
  <text
     xml:space="preserve"
     style="font-size:10.000000;font-style:normal;font-variant:normal;font-weight:normal;font-stretch:normal;fill:#3d4e67;fill-opacity:1.0000000;stroke:none;stroke-width:1.0000000pt;stroke-linecap:butt;stroke-linejoin:miter;stroke-opacity:1.0000000;font-family:Kid Kosmic;text-anchor:start;writing-mode:lr"
     x="32.70369"
     y="27.244272"
     id="text2426"
     sodipodi:linespacing="100%"
     transform="matrix(0.961851,0.273573,-0.273573,0.961851,7.982938,-14.40933)"><tspan
       sodipodi:role="line"
       id="tspan2427"
       x="32.703690"
       y="27.244272">Legal</tspan></text>
  <path
     style="fill:none;fill-opacity:0.75000000;fill-rule:evenodd;stroke:#3d4e67;stroke-width:1.0000000pt;stroke-linecap:butt;stroke-linejoin:miter;stroke-opacity:1.0000000;"
     d="M 17.677670,57.738253 C 15.186888,57.927859 15.798766,69.266652 20.329320,61.715729 C 27.423201,49.892594 18.728056,69.924332 24.306796,66.577088 C 27.200900,64.840625 26.074563,62.352696 26.074563,65.693204 C 26.074563,66.515605 30.829856,51.091448 27.842330,63.041554 C 27.313721,65.155989 22.995921,54.508975 36.239223,64.809321 C 42.077838,69.350466 17.880672,60.440654 30.052038,63.483496 C 38.253282,65.533807 28.202236,71.994188 26.516504,65.251263"
     id="path2429" />
  <path
     style="fill:none;fill-opacity:0.75000000;fill-rule:evenodd;stroke:#3d4e67;stroke-width:1.2500000;stroke-linecap:round;stroke-linejoin:round;stroke-miterlimit:4.0000000;stroke-opacity:1.0000000"
     d="M 30.052038,28.128157 L 68.942911,37.850875"
     id="path3052" />
  <path
     style="fill:none;fill-opacity:0.75000000;fill-rule:evenodd;stroke:#3d4e67;stroke-width:1.2500000;stroke-linecap:round;stroke-linejoin:round;stroke-miterlimit:4.0000000;stroke-opacity:1.0000000"
     d="M 26.516505,37.850875 L 65.407378,47.573593"
     id="path3053" />
</svg>
