<?xml version="1.0" encoding="UTF-8" standalone="no"?>
<!DOCTYPE svg PUBLIC "-//W3C//DTD SVG 20010904//EN"
"http://www.w3.org/TR/2001/REC-SVG-20010904/DTD/svg10.dtd">
<!-- Created with Sodipodi ("http://www.sodipodi.com/") -->
<svg
   xmlns="http://www.w3.org/2000/svg"
   xmlns:sodipodi="http://sodipodi.sourceforge.net/DTD/sodipodi-0.dtd"
   xmlns:xlink="http://www.w3.org/1999/xlink"
   id="svg604"
   sodipodi:version="0.34"
   width="72pt"
   height="72pt"
   sodipodi:docbase="/home/zeus/.icons/gartoon/scalable/mimetypes/"
   sodipodi:docname="/home/zeus/.icons/gartoon/scalable/mimetypes/gnome-mime-application-vnd.sun.xml.stardivision.impress.svg">
  <defs
     id="defs606">
    <linearGradient
       id="linearGradient612">
      <stop
         style="stop-color:#7fa8e3;stop-opacity:0.741176;"
         offset="0.000000"
         id="stop613" />
      <stop
         style="stop-color:#ffffff;stop-opacity:0;"
         offset="1.000000"
         id="stop614" />
    </linearGradient>
    <linearGradient
       xlink:href="#linearGradient612"
       id="linearGradient615"
       x1="50.6438866"
       y1="5.36792946"
       x2="35.7520943"
       y2="68.0443573"
       gradientUnits="userSpaceOnUse"
       spreadMethod="pad" />
  </defs>
  <sodipodi:namedview
     id="base" />
  <path
     style="fill:#000000;fill-rule:evenodd;stroke:none;stroke-opacity:1;stroke-width:1pt;stroke-linejoin:miter;stroke-linecap:butt;fill-opacity:0.301471;"
     d="M 14.47588 78.82306 C 12.05158 77.72107 8.745783 74.19488 10.50889 69.34628 C 11.39039 64.05704 27.25843 17.33450 30.78472 15.13062 C 32.98850 13.14714 36.18426 12.37575 40.70223 13.58790 C 44.44885 14.46947 78.16832 23.28510 80.15179 25.04814 C 82.13535 26.81129 83.67808 28.24380 82.13535 32.10062 C 81.03346 34.08408 67.92018 78.60264 67.69986 81.46778 C 66.81829 84.55323 64.28388 88.29984 60.09644 88.07942 C 55.90909 87.85900 17.56133 79.48421 14.47588 78.82306 z "
     id="path794"
     sodipodi:nodetypes="ccccccccc" />
  <g
     id="g613"
     transform="matrix(0.894577,0,0,0.894577,6.439353,7.746143)">
    <path
       style="fill:#3d4e67;fill-rule:evenodd;stroke:none;stroke-opacity:1;stroke-width:1pt;stroke-linejoin:miter;stroke-linecap:butt;fill-opacity:1;"
       d="M 12.8163 74.753 C 10.3856 73.6481 7.07107 70.1126 8.83884 65.2512 C 9.72267 59.948 25.6326 13.1021 29.1682 10.8924 C 31.3778 8.90368 34.582 8.13026 39.1119 9.34561 C 42.8684 10.2295 76.6769 19.0684 78.6656 20.8361 C 80.6544 22.6039 82.2012 24.0402 80.6544 27.9072 C 79.5496 29.8959 66.4017 74.532 66.1808 77.4047 C 65.2969 80.4983 62.7558 84.2548 58.5573 84.0338 C 54.3589 83.8128 15.9099 75.4159 12.8163 74.753 z "
       id="path609"
       sodipodi:nodetypes="ccccccccc"
       transform="matrix(1.114903,0.000000,0.000000,1.114903,-8.162471,-8.460684)" />
    <path
       style="fill:#ffffff;fill-rule:evenodd;stroke:none;stroke-opacity:1;stroke-width:1pt;stroke-linejoin:miter;stroke-linecap:butt;fill-opacity:1;"
       d="M 17.8987 70.9965 C 15.3576 70.3336 11.7114 69.6706 13.0373 65.6932 C 15.468 55.9705 27.8424 18.6264 33.1456 13.986 C 34.361 12.8811 38.4489 12.4392 46.1829 14.8699 C 55.0218 17.5215 72.9204 23.4877 74.6882 24.3716 C 76.4559 25.2555 77.1189 25.2555 75.793 29.233 C 73.8043 33.2105 64.9655 67.24 62.7557 72.9852 C 61.209 77.0732 60.8775 78.9514 58.2258 78.9514 "
       id="path608"
       sodipodi:nodetypes="cccccccs"
       transform="matrix(1.114903,0.000000,0.000000,1.114903,-8.162471,-8.460684)" />
    <path
       style="fill:url(#linearGradient615);fill-rule:evenodd;stroke:none;stroke-opacity:1;stroke-width:1pt;stroke-linejoin:miter;stroke-linecap:butt;fill-opacity:1;"
       d="M 28.75 13.75 C 28.75 13.75 31.875 7.49995 39.6875 9.37495 C 47.5 11.25 78.125 19.375 77.8125 21.875 C 77.5 24.375 71.875 39.0625 71.5625 40.3125 C 71.25 41.5625 42.5 40.9375 31.5625 47.5 C 20.625 54.0625 12.5 59.6875 12.5 59.6875 C 12.5 59.6875 23.75 24.6875 28.75 13.75 z "
       id="path636"
       transform="matrix(0.946780,0.000000,0.000000,0.946780,-0.480566,0.409517)" />
    <path
       style="fill:none;fill-rule:evenodd;stroke:#42667e;stroke-opacity:1;stroke-width:1pt;stroke-linejoin:miter;stroke-linecap:butt;fill-opacity:1;"
       d="M 29.2429 15.8991 L 69.8423 26.6877 "
       id="path671"
       transform="translate(1.135645,0.851736)" />
    <path
       style="fill:none;fill-rule:evenodd;stroke:#42667e;stroke-opacity:1;stroke-width:1pt;stroke-linejoin:miter;stroke-linecap:butt;fill-opacity:1;"
       d="M 27.8233 19.306 L 67.8549 30.9464 "
       id="path672"
       transform="matrix(0.999855,-1.703691e-2,1.703691e-2,0.999855,-0.705041,5.077353)" />
    <path
       style="fill:none;fill-rule:evenodd;stroke:#42667e;stroke-opacity:1;stroke-width:1pt;stroke-linejoin:miter;stroke-linecap:butt;fill-opacity:1;"
       d="M 29.2429 15.8991 L 69.8423 26.6877 "
       id="path673"
       transform="translate(-5.394323,17.03470)" />
    <path
       style="fill:none;fill-rule:evenodd;stroke:#42667e;stroke-opacity:1;stroke-width:1pt;stroke-linejoin:miter;stroke-linecap:butt;fill-opacity:1;"
       d="M 29.2429 15.8991 L 69.8423 26.6877 "
       id="path675"
       transform="translate(-11.35647,34.06940)" />
    <path
       style="fill:none;fill-rule:evenodd;stroke:#42667e;stroke-opacity:1;stroke-width:1pt;stroke-linejoin:miter;stroke-linecap:butt;fill-opacity:1;"
       d="M 27.8233 19.306 L 67.8549 30.9464 "
       id="path676"
       transform="matrix(0.999855,-1.703691e-2,1.703691e-2,0.999855,-13.19715,38.29502)" />
    <path
       style="fill:none;fill-rule:evenodd;stroke:#42667e;stroke-opacity:1;stroke-width:1pt;stroke-linejoin:miter;stroke-linecap:butt;fill-opacity:1;"
       d="M 27.8233 19.306 L 67.8549 30.9464 "
       id="path674"
       transform="matrix(0.999855,-1.703691e-2,1.703691e-2,0.999855,-7.235008,21.26032)" />
    <path
       style="fill:none;fill-rule:evenodd;stroke:#414141;stroke-opacity:1;stroke-width:3.125;stroke-linejoin:round;stroke-linecap:round;fill-opacity:1;stroke-dasharray:none;"
       d="M 6.52997 44.858 C 1.51419 41.593 2.73854 34.2968 8.51734 34.1048 C 14.1459 33.634 18.9274 41.1672 15.6151 45.4258 "
       id="path699"
       sodipodi:nodetypes="csc" />
    <path
       style="fill:none;fill-rule:evenodd;stroke:#414141;stroke-opacity:1;stroke-width:3.125;stroke-linejoin:round;stroke-linecap:round;fill-opacity:1;stroke-dasharray:none;"
       d="M 6.52997 44.858 C 1.51419 41.593 2.73854 34.2968 8.51734 34.1048 C 14.1459 33.634 18.9274 41.1672 15.6151 45.4258 "
       id="path701"
       sodipodi:nodetypes="csc"
       transform="translate(3.690853,-9.369087)" />
    <path
       style="fill:none;fill-rule:evenodd;stroke:#414141;stroke-opacity:1;stroke-width:3.125;stroke-linejoin:round;stroke-linecap:round;fill-opacity:1;stroke-dasharray:none;"
       d="M 6.52997 44.858 C 1.51419 41.593 2.73854 34.2968 8.51734 34.1048 C 14.1459 33.634 18.9274 41.1672 15.6151 45.4258 "
       id="path703"
       sodipodi:nodetypes="csc"
       transform="translate(7.097792,-18.73817)" />
    <path
       style="fill:none;fill-rule:evenodd;stroke:#b9b9b9;stroke-opacity:1;stroke-width:0.75;stroke-linejoin:round;stroke-linecap:round;fill-opacity:1;stroke-dasharray:none;"
       d="M 5.67823 43.8643 C 2.08201 42.1608 2.73854 34.2968 8.51734 34.1048 C 14.1459 33.634 18.7854 40.4574 16.6088 45.4258 "
       id="path704"
       sodipodi:nodetypes="csc"
       transform="translate(7.097792,-19.30599)" />
    <path
       style="fill:none;fill-rule:evenodd;stroke:#b9b9b9;stroke-opacity:1;stroke-width:0.75;stroke-linejoin:round;stroke-linecap:round;fill-opacity:1;stroke-dasharray:none;"
       d="M 5.67823 43.8643 C 2.08201 42.1608 2.73854 34.2968 8.51734 34.1048 C 14.1459 33.634 18.7854 40.4574 16.6088 45.4258 "
       id="path702"
       sodipodi:nodetypes="csc"
       transform="translate(3.690853,-9.936905)" />
    <path
       style="fill:none;fill-rule:evenodd;stroke:#b9b9b9;stroke-opacity:1;stroke-width:0.75;stroke-linejoin:round;stroke-linecap:round;fill-opacity:1;stroke-dasharray:none;"
       d="M 5.67823 43.8643 C 2.08201 42.1608 2.73854 34.2968 8.51734 34.1048 C 14.1459 33.634 18.7854 40.4574 16.6088 45.4258 "
       id="path700"
       sodipodi:nodetypes="csc"
       transform="translate(0.000000,-0.567818)" />
  </g>
  <g
     id="g629"
     transform="matrix(0.894577,0,0,0.894577,-0.164145,-0.127258)">
    <path
       style="fill:#3d4e67;fill-rule:evenodd;stroke:none;stroke-opacity:1;stroke-width:1pt;stroke-linejoin:miter;stroke-linecap:butt;fill-opacity:1;"
       d="M 12.8163 74.753 C 10.3856 73.6481 7.07107 70.1126 8.83884 65.2512 C 9.72267 59.948 25.6326 13.1021 29.1682 10.8924 C 31.3778 8.90368 34.582 8.13026 39.1119 9.34561 C 42.8684 10.2295 76.6769 19.0684 78.6656 20.8361 C 80.6544 22.6039 82.2012 24.0402 80.6544 27.9072 C 79.5496 29.8959 66.4017 74.532 66.1808 77.4047 C 65.2969 80.4983 62.7558 84.2548 58.5573 84.0338 C 54.3589 83.8128 15.9099 75.4159 12.8163 74.753 z "
       id="path630"
       sodipodi:nodetypes="ccccccccc"
       transform="matrix(1.114903,0.000000,0.000000,1.114903,-8.162471,-8.460684)" />
    <path
       style="fill:#ffffff;fill-rule:evenodd;stroke:none;stroke-opacity:1;stroke-width:1pt;stroke-linejoin:miter;stroke-linecap:butt;fill-opacity:1;"
       d="M 17.8987 70.9965 C 15.3576 70.3336 11.7114 69.6706 13.0373 65.6932 C 15.468 55.9705 27.8424 18.6264 33.1456 13.986 C 34.361 12.8811 38.4489 12.4392 46.1829 14.8699 C 55.0218 17.5215 72.9204 23.4877 74.6882 24.3716 C 76.4559 25.2555 77.1189 25.2555 75.793 29.233 C 73.8043 33.2105 64.9655 67.24 62.7557 72.9852 C 61.209 77.0732 60.8775 78.9514 58.2258 78.9514 "
       id="path631"
       sodipodi:nodetypes="cccccccs"
       transform="matrix(1.114903,0.000000,0.000000,1.114903,-8.162471,-8.460684)" />
    <path
       style="fill:url(#linearGradient615);fill-rule:evenodd;stroke:none;stroke-opacity:1;stroke-width:1pt;stroke-linejoin:miter;stroke-linecap:butt;fill-opacity:1;"
       d="M 28.75 13.75 C 28.75 13.75 31.875 7.49995 39.6875 9.37495 C 47.5 11.25 78.125 19.375 77.8125 21.875 C 77.5 24.375 71.875 39.0625 71.5625 40.3125 C 71.25 41.5625 42.5 40.9375 31.5625 47.5 C 20.625 54.0625 12.5 59.6875 12.5 59.6875 C 12.5 59.6875 23.75 24.6875 28.75 13.75 z "
       id="path632"
       transform="matrix(0.946780,0.000000,0.000000,0.946780,-0.480566,0.409517)" />
    <path
       style="fill:none;fill-rule:evenodd;stroke:#42667e;stroke-opacity:1;stroke-width:1pt;stroke-linejoin:miter;stroke-linecap:butt;fill-opacity:1;"
       d="M 29.2429 15.8991 L 69.8423 26.6877 "
       id="path633"
       transform="translate(1.135645,0.851736)" />
    <path
       style="fill:none;fill-rule:evenodd;stroke:#42667e;stroke-opacity:1;stroke-width:1pt;stroke-linejoin:miter;stroke-linecap:butt;fill-opacity:1;"
       d="M 27.8233 19.306 L 67.8549 30.9464 "
       id="path634"
       transform="matrix(0.999855,-1.703691e-2,1.703691e-2,0.999855,-0.705041,5.077353)" />
    <path
       style="fill:none;fill-rule:evenodd;stroke:#42667e;stroke-opacity:1;stroke-width:1pt;stroke-linejoin:miter;stroke-linecap:butt;fill-opacity:1;"
       d="M 29.2429 15.8991 L 69.8423 26.6877 "
       id="path635"
       transform="translate(-5.394323,17.03470)" />
    <path
       style="fill:none;fill-rule:evenodd;stroke:#42667e;stroke-opacity:1;stroke-width:1pt;stroke-linejoin:miter;stroke-linecap:butt;fill-opacity:1;"
       d="M 29.2429 15.8991 L 69.8423 26.6877 "
       id="path637"
       transform="translate(-11.35647,34.06940)" />
    <path
       style="fill:none;fill-rule:evenodd;stroke:#42667e;stroke-opacity:1;stroke-width:1pt;stroke-linejoin:miter;stroke-linecap:butt;fill-opacity:1;"
       d="M 27.8233 19.306 L 67.8549 30.9464 "
       id="path638"
       transform="matrix(0.999855,-1.703691e-2,1.703691e-2,0.999855,-13.19715,38.29502)" />
    <path
       style="fill:none;fill-rule:evenodd;stroke:#42667e;stroke-opacity:1;stroke-width:1pt;stroke-linejoin:miter;stroke-linecap:butt;fill-opacity:1;"
       d="M 27.8233 19.306 L 67.8549 30.9464 "
       id="path639"
       transform="matrix(0.999855,-1.703691e-2,1.703691e-2,0.999855,-7.235008,21.26032)" />
    <path
       style="fill:none;fill-rule:evenodd;stroke:#414141;stroke-opacity:1;stroke-width:3.125;stroke-linejoin:round;stroke-linecap:round;fill-opacity:1;stroke-dasharray:none;"
       d="M 6.52997 44.858 C 1.51419 41.593 2.73854 34.2968 8.51734 34.1048 C 14.1459 33.634 18.9274 41.1672 15.6151 45.4258 "
       id="path640"
       sodipodi:nodetypes="csc" />
    <path
       style="fill:none;fill-rule:evenodd;stroke:#414141;stroke-opacity:1;stroke-width:3.125;stroke-linejoin:round;stroke-linecap:round;fill-opacity:1;stroke-dasharray:none;"
       d="M 6.52997 44.858 C 1.51419 41.593 2.73854 34.2968 8.51734 34.1048 C 14.1459 33.634 18.9274 41.1672 15.6151 45.4258 "
       id="path641"
       sodipodi:nodetypes="csc"
       transform="translate(3.690853,-9.369087)" />
    <path
       style="fill:none;fill-rule:evenodd;stroke:#414141;stroke-opacity:1;stroke-width:3.125;stroke-linejoin:round;stroke-linecap:round;fill-opacity:1;stroke-dasharray:none;"
       d="M 6.52997 44.858 C 1.51419 41.593 2.73854 34.2968 8.51734 34.1048 C 14.1459 33.634 18.9274 41.1672 15.6151 45.4258 "
       id="path642"
       sodipodi:nodetypes="csc"
       transform="translate(7.097792,-18.73817)" />
    <path
       style="fill:none;fill-rule:evenodd;stroke:#b9b9b9;stroke-opacity:1;stroke-width:0.75;stroke-linejoin:round;stroke-linecap:round;fill-opacity:1;stroke-dasharray:none;"
       d="M 5.67823 43.8643 C 2.08201 42.1608 2.73854 34.2968 8.51734 34.1048 C 14.1459 33.634 18.7854 40.4574 16.6088 45.4258 "
       id="path643"
       sodipodi:nodetypes="csc"
       transform="translate(7.097792,-19.30599)" />
    <path
       style="fill:none;fill-rule:evenodd;stroke:#b9b9b9;stroke-opacity:1;stroke-width:0.75;stroke-linejoin:round;stroke-linecap:round;fill-opacity:1;stroke-dasharray:none;"
       d="M 5.67823 43.8643 C 2.08201 42.1608 2.73854 34.2968 8.51734 34.1048 C 14.1459 33.634 18.7854 40.4574 16.6088 45.4258 "
       id="path644"
       sodipodi:nodetypes="csc"
       transform="translate(3.690853,-9.936905)" />
    <path
       style="fill:none;fill-rule:evenodd;stroke:#b9b9b9;stroke-opacity:1;stroke-width:0.75;stroke-linejoin:round;stroke-linecap:round;fill-opacity:1;stroke-dasharray:none;"
       d="M 5.67823 43.8643 C 2.08201 42.1608 2.73854 34.2968 8.51734 34.1048 C 14.1459 33.634 18.7854 40.4574 16.6088 45.4258 "
       id="path645"
       sodipodi:nodetypes="csc"
       transform="translate(0.000000,-0.567818)" />
  </g>
  <path
     style="fill:#000000;fill-rule:evenodd;stroke:none;stroke-opacity:1;stroke-width:1pt;stroke-linejoin:miter;stroke-linecap:butt;fill-opacity:1;"
     d="M 26.65604 17.19745 L 17.19745 42.42038 L 50.15924 51.87898 L 59.90445 24.93631 L 26.65604 17.19745 z "
     id="path683"
     sodipodi:nodetypes="ccccc" />
  <path
     style="fill:#000000;fill-rule:evenodd;stroke:none;stroke-opacity:1;stroke-width:1pt;stroke-linejoin:miter;stroke-linecap:butt;fill-opacity:1;"
     d="M 26.36397 35.55991 L 18.72268 55.79743 L 24.17536 56.75208 L 26.36397 35.55991 z "
     id="path684"
     sodipodi:nodetypes="cccc" />
  <path
     style="fill:#000000;fill-rule:evenodd;stroke:none;stroke-opacity:1;stroke-width:1pt;stroke-linejoin:miter;stroke-linecap:butt;fill-opacity:1;"
     d="M 46.58336 41.28837 L 36.13092 60.22756 L 41.39144 61.95095 L 46.58336 41.28837 z "
     id="path685"
     sodipodi:nodetypes="cccc" />
  <path
     style="fill:#ffffff;fill-rule:evenodd;stroke:none;stroke-opacity:1;stroke-width:1pt;stroke-linejoin:miter;stroke-linecap:butt;fill-opacity:1;"
     d="M 28.37579 19.49044 L 20.92357 41.27388 L 48.72612 48.15287 L 56.17834 26.94268 L 28.37579 19.49044 z "
     id="path682"
     sodipodi:nodetypes="ccccc" />
  <g
     id="g734"
     transform="matrix(0.289564,0,0,0.289564,28.38869,19.84409)">
    <defs
       id="defs598">
      <linearGradient
         id="linearGradient626">
        <stop
           style="stop-color:#ff0047;stop-opacity:1;"
           offset="0.000000"
           id="stop627" />
        <stop
           style="stop-color:#ab322d;stop-opacity:0;"
           offset="1.000000"
           id="stop628" />
      </linearGradient>
      <linearGradient
         id="linearGradient618">
        <stop
           style="stop-color:#956d47;stop-opacity:1;"
           offset="0.000000"
           id="stop619" />
        <stop
           style="stop-color:#ab322d;stop-opacity:0;"
           offset="1.000000"
           id="stop620" />
      </linearGradient>
      <linearGradient
         id="linearGradient614">
        <stop
           style="stop-color:#000;stop-opacity:1;"
           offset="0"
           id="stop615" />
        <stop
           style="stop-color:#fff;stop-opacity:1;"
           offset="1"
           id="stop616" />
      </linearGradient>
      <linearGradient
         xlink:href="#linearGradient618"
         id="linearGradient617"
         x1="26.4784317"
         y1="24.4189796"
         x2="33.3173637"
         y2="23.6758289"
         gradientUnits="userSpaceOnUse"
         spreadMethod="pad"
         gradientTransform="scale(0.627016,1.594855)" />
      <linearGradient
         xlink:href="#linearGradient626"
         id="linearGradient625"
         x1="38.4233131"
         y1="77.3980026"
         x2="31.8332996"
         y2="57.6823311"
         gradientUnits="userSpaceOnUse"
         spreadMethod="pad"
         gradientTransform="scale(0.934001,1.070663)" />
    </defs>
    <sodipodi:namedview
       id="namedview747" />
    <path
       style="font-size:12;fill:#470000;fill-rule:evenodd;stroke-width:1pt;"
       d="M 67.911 66.4866 C 67.911 68.1832 66.4512 69.56 64.6525 69.56 C 62.8537 69.56 61.3939 68.1832 61.3939 66.4866 C 61.3939 64.7901 62.8537 63.4132 64.6525 63.4132 C 66.4512 63.4132 67.911 64.7901 67.911 66.4866 z "
       id="path613" />
    <path
       style="fill:#470000;fill-rule:evenodd;stroke:none;stroke-opacity:1;stroke-width:1pt;stroke-linejoin:miter;stroke-linecap:butt;fill-opacity:1;"
       d="M 61.2458 74.2998 C 59.6905 72.5223 57.1726 73.4851 56.3579 74.7441 C 55.4692 77.8545 56.8764 80.6687 60.5793 79.3357 C 64.2822 78.0026 65.6152 75.929 65.6152 76.0771 C 65.6152 76.2253 62.6529 84.0754 58.2094 84.6678 C 53.7659 85.2603 51.322 85.4084 46.4342 85.4825 C 41.3983 86.3712 38.9544 86.2971 38.9544 86.2971 L 45.1752 77.4102 C 45.1752 77.4102 46.8045 76.5215 49.4706 72.078 C 52.1367 67.6346 56.8763 66.5977 59.2462 68.0789 C 61.3939 68.9675 62.5788 70.1525 63.1713 72.4483 C 63.0232 74.9662 62.5788 75.929 61.2458 74.2998 z "
       id="path610"
       sodipodi:nodetypes="cccccccccccc" />
    <path
       style="fill:#230000;fill-rule:evenodd;stroke:none;stroke-opacity:1;stroke-width:1pt;stroke-linejoin:miter;stroke-linecap:butt;fill-opacity:0.99899;"
       d="M 37.9176 76.4474 C 40.1393 77.0399 37.5473 80.2243 36.1402 78.0026 C 35.0293 79.5578 35.5477 75.7809 35.5477 75.7809 L 30.808 85.7046 C 30.808 85.7046 38.9544 88.667 42.0648 84.3716 C 45.1752 80.0763 45.5456 77.8545 43.8423 76.0771 C 41.8426 73.3371 40.0652 74.4479 39.3247 74.8922 C 38.5841 75.3366 38.2879 75.6328 37.9176 76.4474 z "
       id="path750"
       sodipodi:nodetypes="cccccccc"
       transform="translate(0.296233,0.000000)" />
    <path
       style="fill:#230000;fill-rule:evenodd;stroke:none;stroke-opacity:1;stroke-width:1pt;stroke-linejoin:miter;stroke-linecap:butt;fill-opacity:1;"
       d="M 36.1402 62.0062 C 36.1402 62.0062 37.0288 56.674 36.7326 53.8598 C 36.2883 47.787 23.5503 -3.31281 14.071 5.57413 C 3.11042 9.86949 16.1446 58.8957 17.7739 61.7099 C 19.4031 64.5241 21.773 66.5977 21.773 66.5977 C 21.773 66.5977 18.07 83.483 31.9189 85.8527 C 36.9549 76.5215 40.5087 72.8006 39.695 68.5973 C 39.2506 66.2275 38.6582 64.0057 36.1402 62.0062 z "
       id="path751"
       sodipodi:nodetypes="cccccccc" />
    <path
       style="fill:#f2962c;fill-rule:evenodd;stroke:none;stroke-opacity:1;stroke-width:1pt;stroke-linejoin:miter;stroke-linecap:butt;fill-opacity:1;"
       d="M 19.4031 58.3033 C 22.0692 55.0448 25.0315 52.6749 32.5854 53.4155 C 30.2156 40.2331 21.773 4.68543 15.7002 7.94398 C 8.88697 9.12891 15.2559 48.8239 19.4031 58.3033 z "
       id="path600"
       sodipodi:nodetypes="cccc" />
    <path
       style="fill:#8b8b8b;fill-rule:evenodd;stroke:none;stroke-opacity:1;stroke-width:1pt;stroke-linejoin:miter;stroke-linecap:butt;fill-opacity:1;"
       d="M 19.8475 59.6363 C 19.8475 59.6363 21.1805 63.9316 24.7353 64.2279 C 26.3646 61.7099 30.0675 61.2656 33.1779 61.4137 C 33.9185 58.5995 34.5109 55.1928 33.326 55.0447 C 31.8449 54.156 23.5504 52.5268 19.8475 59.6363 z "
       id="path601"
       sodipodi:nodetypes="ccccc" />
    <path
       style="fill:#65532d;fill-rule:evenodd;stroke:none;stroke-opacity:1;stroke-width:1pt;stroke-linejoin:miter;stroke-linecap:butt;fill-opacity:1;"
       d="M 24.8834 66.4496 C 25.624 63.1911 31.2524 60.9694 33.7703 63.6354 C 39.8431 67.0421 37.177 75.4847 34.5109 75.6328 C 33.7703 86.149 40.8799 80.3724 40.7318 78.1508 C 46.0639 77.4102 41.7686 84.9641 38.2138 84.5197 C 33.326 85.2603 20.2918 80.8169 24.8834 66.4496 z "
       id="path602"
       sodipodi:nodetypes="cccccc" />
    <path
       style="fill:#bc0000;fill-rule:evenodd;stroke:none;stroke-opacity:1;stroke-width:1pt;stroke-linejoin:miter;stroke-linecap:butt;fill-opacity:1;"
       d="M 44.5828 81.2612 C 44.7309 81.4093 46.6564 81.2612 47.6932 79.4838 C 48.73 77.7064 52.2848 70.4487 54.8028 70.3006 C 60.8755 68.0789 60.8755 72.2261 60.8755 72.2261 C 60.8755 72.2261 55.2471 70.1525 54.6546 73.7073 C 54.0622 77.2621 53.0254 79.3357 59.8386 82.1499 C 55.9877 83.4829 43.966 83.74 43.2253 83.74 C 42.4847 83.74 44.7309 81.1131 44.5828 81.2612 z "
       id="path603"
       sodipodi:nodetypes="cccccccc" />
    <path
       style="fill:#470000;fill-rule:evenodd;stroke:none;stroke-opacity:1;stroke-width:1pt;stroke-linejoin:miter;stroke-linecap:butt;fill-opacity:1;"
       d="M 46.6564 67.6346 C 48.4338 64.9685 54.5806 66.3015 57.3947 65.7091 C 60.8014 64.8204 59.02 58.5954 55.169 58.5955 C 52.5142 58.0648 46.9527 58.1551 46.6564 67.6346 z "
       id="path611"
       sodipodi:nodetypes="cccc" />
    <path
       style="fill:#bc0000;fill-rule:evenodd;stroke:none;stroke-opacity:1;stroke-width:1pt;stroke-linejoin:miter;stroke-linecap:butt;fill-opacity:1;"
       d="M 48.1376 64.8204 C 48.1376 64.8204 54.5065 64.2279 56.1358 64.2279 C 58.0613 64.6397 58.1915 61.7181 56.5801 60.6731 C 53.766 58.7476 49.9149 58.5995 48.1376 64.8204 z "
       id="path604"
       sodipodi:nodetypes="cccc" />
    <path
       style="font-size:12;fill:#bc0000;fill-rule:evenodd;stroke-width:1pt;"
       d="M 66.8001 66.5977 C 66.8001 67.7424 65.838 68.6714 64.6524 68.6714 C 63.4669 68.6714 62.5048 67.7424 62.5048 66.5977 C 62.5048 65.4531 63.4669 64.5241 64.6524 64.5241 C 65.838 64.5241 66.8001 65.4531 66.8001 66.5977 z "
       id="path606" />
    <path
       style="fill:url(#linearGradient617);fill-rule:evenodd;stroke:none;stroke-opacity:1;stroke-width:1pt;stroke-linejoin:miter;stroke-linecap:butt;fill-opacity:1;"
       d="M 19.4031 58.3033 C 22.0692 55.0448 25.0315 52.6749 32.5854 53.4155 C 30.2156 40.2331 21.773 4.68543 15.7002 7.94398 C 8.88697 9.12891 15.2559 48.8239 19.4031 58.3033 z "
       id="path621"
       sodipodi:nodetypes="cccc" />
    <path
       style="fill:#f2d0a8;fill-rule:evenodd;stroke:none;stroke-opacity:1;stroke-width:1pt;stroke-linejoin:miter;stroke-linecap:butt;fill-opacity:1;"
       d="M 28.4382 52.5267 C 25.1369 52.6775 14.6017 8.00417 18.6625 10.462 C 19.6179 11.1298 34.3749 52.522 28.4382 52.5267 z "
       id="path622"
       sodipodi:nodetypes="css" />
    <path
       style="fill:#f2f2f2;fill-rule:evenodd;stroke:none;stroke-opacity:1;stroke-width:1pt;stroke-linejoin:miter;stroke-linecap:butt;fill-opacity:1;"
       d="M 30.5118 54.4523 L 31.1043 61.2656 L 27.6976 62.0062 L 26.2165 54.6003 C 26.2165 54.6003 30.2156 54.1561 30.5118 54.4523 z "
       id="path623"
       sodipodi:nodetypes="ccccc" />
    <path
       style="fill:url(#linearGradient625);fill-rule:evenodd;stroke:none;stroke-opacity:1;stroke-width:1pt;stroke-linejoin:miter;stroke-linecap:butt;fill-opacity:1;"
       d="M 24.8834 66.4496 C 25.624 63.1911 31.2524 60.9694 33.7703 63.6354 C 39.8431 67.0421 37.177 75.4847 34.5109 75.6328 C 33.7703 86.149 40.8799 80.3724 40.7318 78.1508 C 46.0639 77.4102 41.7686 84.9641 38.2138 84.5197 C 33.326 85.2603 20.2918 80.8169 24.8834 66.4496 z "
       id="path624"
       sodipodi:nodetypes="cccccc" />
  </g>
  <g
     id="g895"
     transform="matrix(1.970396,0,0,1.970396,44.46404,59.31387)">
    <defs
       id="defs550">
      <linearGradient
         id="linearGradient585">
        <stop
           style="stop-color:#5cb2ff;stop-opacity:1;"
           offset="0.000000"
           id="stop586" />
        <stop
           style="stop-color:#ffffff;stop-opacity:1;"
           offset="1.000000"
           id="stop587" />
      </linearGradient>
      <linearGradient
         id="linearGradient576">
        <stop
           style="stop-color:#ffffff;stop-opacity:1;"
           offset="0.000000"
           id="stop577" />
        <stop
           style="stop-color:#370000;stop-opacity:0;"
           offset="1.000000"
           id="stop578" />
      </linearGradient>
      <linearGradient
         id="linearGradient569">
        <stop
           style="stop-color:#ff3a00;stop-opacity:1;"
           offset="0.000000"
           id="stop570" />
        <stop
           style="stop-color:#370000;stop-opacity:1;"
           offset="1.000000"
           id="stop571" />
      </linearGradient>
      <linearGradient
         id="linearGradient562">
        <stop
           style="stop-color:#000;stop-opacity:1;"
           offset="0"
           id="stop563" />
        <stop
           style="stop-color:#fff;stop-opacity:1;"
           offset="1"
           id="stop564" />
      </linearGradient>
      <linearGradient
         xlink:href="#linearGradient562"
         id="linearGradient565"
         x1="30.5917225"
         y1="65.8304825"
         x2="18.4360981"
         y2="42.3886795"
         gradientUnits="userSpaceOnUse"
         spreadMethod="pad"
         gradientTransform="scale(1.323326,0.755672)" />
      <linearGradient
         xlink:href="#linearGradient562"
         id="linearGradient567"
         x1="24.9874783"
         y1="44.9967537"
         x2="33.7596359"
         y2="60.7528610"
         gradientUnits="userSpaceOnUse"
         spreadMethod="pad"
         gradientTransform="scale(1.587744,0.629824)" />
      <linearGradient
         xlink:href="#linearGradient576"
         id="linearGradient568"
         x1="0.82734060"
         y1="0.11727467"
         x2="0.57553899"
         y2="0.88281417"
         gradientUnits="objectBoundingBox"
         spreadMethod="pad" />
      <radialGradient
         xlink:href="#linearGradient569"
         id="radialGradient573"
         cx="39.9771919"
         cy="62.0348434"
         fx="39.9771919"
         fy="62.0348434"
         r="2.87974644"
         gradientUnits="userSpaceOnUse"
         spreadMethod="pad"
         gradientTransform="scale(1.181249,0.846561)" />
      <radialGradient
         xlink:href="#linearGradient576"
         id="radialGradient575" />
      <linearGradient
         xlink:href="#linearGradient562"
         id="linearGradient580"
         x1="0.48992321"
         y1="-0.04502178"
         x2="0.53917038"
         y2="1.25967419"
         gradientUnits="objectBoundingBox"
         spreadMethod="pad" />
      <linearGradient
         xlink:href="#linearGradient585"
         id="linearGradient584"
         x1="38.9676552"
         y1="112.427650"
         x2="34.3394775"
         y2="55.2668114"
         gradientUnits="userSpaceOnUse"
         spreadMethod="pad"
         gradientTransform="scale(1.107407,0.903010)" />
      <linearGradient
         xlink:href="#linearGradient585"
         id="linearGradient588"
         x1="18.5747337"
         y1="70.6098175"
         x2="21.0069866"
         y2="44.9572525"
         gradientUnits="userSpaceOnUse"
         spreadMethod="pad"
         gradientTransform="scale(0.777781,1.285709)" />
    </defs>
    <sodipodi:namedview
       id="namedview917">
      <sodipodi:guide
         orientation="vertical"
         position="0.00000000"
         id="guide552" />
      <sodipodi:guide
         orientation="horizontal"
         position="72.0658264"
         id="guide553" />
      <sodipodi:guide
         orientation="vertical"
         position="72.0658264"
         id="guide554" />
      <sodipodi:guide
         orientation="horizontal"
         position="0.23474211"
         id="guide555" />
    </sodipodi:namedview>
    <path
       style="font-size:12.000;fill:#000000;fill-rule:evenodd;stroke:none;stroke-width:3.087459;fill-opacity:0.3000;"
       d="M 84.38710 67.01163 C 84.38710 77.69897 75.65323 86.36275 64.87945 86.36275 C 54.10567 86.36275 45.37180 77.69897 45.37180 67.01163 C 45.37180 56.32429 54.10567 47.66048 64.87945 47.66048 C 75.65323 47.66048 84.38710 56.32429 84.38710 67.01163 z "
       id="path757"
       transform="matrix(1.724454,0.000000,0.000000,1.724454,-63.45049,-66.08647)" />
    <path
       style="font-size:12.000;fill:#ffffff;fill-rule:evenodd;stroke-width:3.427870;stroke:#000000;stroke-opacity:1.0000;"
       d="M 50.28572 81 C 50.28572 92.91357 40.62786 102.5714 28.71429 102.5714 C 16.80071 102.5714 7.142857 92.91357 7.142857 81 C 7.142857 69.08643 16.80071 59.42857 28.71429 59.42857 C 40.62786 59.42857 50.28572 69.08643 50.28572 81 z "
       id="path753"
       transform="matrix(1.559471,0.000000,0.000000,1.546961,-3.691949,-83.17577)" />
    <path
       style="font-size:12.000;fill-opacity:0.312977;fill-rule:evenodd;stroke-width:1;"
       d="M 3.99999 44.1699 C 24.5714 49.3128 36.5715 60.417 38.5715 60.6835 C 48.762 52.874 58.9524 45.408 70.8572 42.1699 C 60 40.7413 50.0001 45.9963 40.2858 52.8534 C 27.7143 46.6629 16 42.6461 3.99999 44.1699 z "
       id="path1142"
       sodipodi:nodetypes="ccccc"
       transform="matrix(0.944558,0.000000,0.000000,1.012973,17.70232,-7.562551)" />
    <path
       style="font-size:12.000;fill-opacity:0.312977;fill-rule:evenodd;stroke-width:1;"
       d="M 2.85168 46.2147 C 23.4231 51.3576 32.2421 58.2857 36.9864 60.4717 C 47.1769 52.6622 57.7986 47.4528 69.7034 44.2147 C 58.8462 42.7861 47.132 44.5503 37.4177 51.4074 C 24.8462 45.2169 16.1456 45.4196 2.85168 46.2147 z "
       id="path1143"
       sodipodi:nodetypes="ccccc"
       transform="matrix(0.625720,0.000000,0.000000,0.740732,38.85733,-14.26960)" />
    <path
       style="font-size:12.000;fill-rule:evenodd;stroke-width:1;"
       d="M 3.71428 42.5714 C 24.2857 47.7143 39.1429 58.2857 39.1429 58.2857 C 49.3334 50.4762 59.5238 43.8095 71.4286 40.5714 C 60.5714 39.1428 49.1429 42 39.4286 48.8571 C 26.8571 42.6666 15.7143 41.0476 3.71428 42.5714 z "
       id="path1136"
       sodipodi:nodetypes="ccccc"
       transform="matrix(0.944558,0.000000,0.000000,0.944558,14.73366,-6.003733)" />
    <path
       style="font-size:12.000;fill:#4b6983;fill-rule:evenodd;stroke-width:1;"
       d="M 3.71428 42.5714 C 24.2857 47.7143 39.1429 58.2857 39.1429 58.2857 C 49.3334 50.4762 59.5238 43.8095 71.4286 40.5714 C 60.5714 39.1428 48.8572 42 39.1429 48.8571 C 26.5714 42.6666 15.7143 41.0476 3.71428 42.5714 z "
       id="path1137"
       sodipodi:nodetypes="ccccc"
       transform="matrix(0.625720,0.000000,0.000000,0.690703,35.88863,-12.25779)" />
  </g>
</svg>
