<?xml version="1.0" encoding="UTF-8" standalone="no"?>
<!-- Created with Sodipodi ("http://www.sodipodi.com/") -->
<svg
   xmlns:dc="http://purl.org/dc/elements/1.1/"
   xmlns:cc="http://creativecommons.org/ns#"
   xmlns:rdf="http://www.w3.org/1999/02/22-rdf-syntax-ns#"
   xmlns:svg="http://www.w3.org/2000/svg"
   xmlns="http://www.w3.org/2000/svg"
   xmlns:xlink="http://www.w3.org/1999/xlink"
   xmlns:sodipodi="http://sodipodi.sourceforge.net/DTD/sodipodi-0.dtd"
   xmlns:inkscape="http://www.inkscape.org/namespaces/inkscape"
   id="svg604"
   sodipodi:version="0.32"
   width="72pt"
   height="72pt"
   sodipodi:docbase="/home/tweenk/GNUtoon/mimetypes"
   sodipodi:docname="text-x-c++.svg"
   inkscape:version="0.46+devel"
   inkscape:output_extension="org.inkscape.output.svg.inkscape">
  <metadata
     id="metadata94">
    <rdf:RDF>
      <cc:Work
         rdf:about="">
        <dc:format>image/svg+xml</dc:format>
        <dc:type
           rdf:resource="http://purl.org/dc/dcmitype/StillImage" />
      </cc:Work>
    </rdf:RDF>
  </metadata>
  <defs
     id="defs606">
    <inkscape:perspective
       sodipodi:type="inkscape:persp3d"
       inkscape:vp_x="0 : 45 : 1"
       inkscape:vp_y="0 : 1000 : 0"
       inkscape:vp_z="90 : 45 : 1"
       inkscape:persp3d-origin="45 : 30 : 1"
       id="perspective51" />
    <linearGradient
       id="linearGradient612">
      <stop
         style="stop-color:#7fa8e3;stop-opacity:0.741176;"
         offset="0.000000"
         id="stop613" />
      <stop
         style="stop-color:#ffffff;stop-opacity:0;"
         offset="1.000000"
         id="stop614" />
    </linearGradient>
    <linearGradient
       xlink:href="#linearGradient612"
       id="linearGradient615"
       x1="50.6438866"
       y1="5.36792946"
       x2="35.7520943"
       y2="68.0443573"
       gradientUnits="userSpaceOnUse"
       spreadMethod="pad" />
    <defs
       id="defs550">
      <linearGradient
         id="linearGradient1828">
        <stop
           style="stop-color:#ffc93f;stop-opacity:1.0000000;"
           offset="0.0000000"
           id="stop1829" />
        <stop
           style="stop-color:#f1e36c;stop-opacity:1.0000000;"
           offset="1.0000000"
           id="stop1830" />
      </linearGradient>
      <linearGradient
         id="linearGradient1825">
        <stop
           offset="0.0000000"
           style="stop-color:#ffd800;stop-opacity:1.0000000;"
           id="stop1827" />
        <stop
           offset="1.0000000"
           style="stop-color:#ffd58f;stop-opacity:0.0000000;"
           id="stop1826" />
      </linearGradient>
      <linearGradient
         x1="0.0000000"
         y1="0.0000000"
         x2="1.0000000"
         y2="0.0000000"
         id="linearGradient632"
         gradientUnits="objectBoundingBox"
         spreadMethod="pad">
        <stop
           style="stop-color:#ffb700;stop-opacity:1;"
           offset="0.00000000"
           id="stop633" />
        <stop
           style="stop-color:#ffd58f;stop-opacity:0;"
           offset="1.00000000"
           id="stop634" />
      </linearGradient>
      <linearGradient
         x1="0.0000000"
         y1="0.0000000"
         x2="1.0000000"
         y2="0.0000000"
         id="linearGradient556"
         gradientUnits="objectBoundingBox"
         spreadMethod="pad">
        <stop
           style="stop-color:#000000;stop-opacity:1;"
           offset="0.00000000"
           id="stop557" />
        <stop
           style="stop-color:#bdf2ff;stop-opacity:0.384314;"
           offset="1.00000000"
           id="stop558" />
      </linearGradient>
      <linearGradient
         x1="60.644615"
         y1="19.295689"
         x2="35.370575"
         y2="69.142799"
         id="linearGradient559"
         xlink:href="#linearGradient632"
         gradientUnits="userSpaceOnUse"
         spreadMethod="pad"
         gradientTransform="matrix(1.418885,-0.200635,0.127692,1.110535,-136.7997,-1.332303)" />
      <linearGradient
         x1="85.637657"
         y1="17.443844"
         x2="73.916298"
         y2="54.628181"
         id="linearGradient631"
         xlink:href="#linearGradient632"
         gradientUnits="userSpaceOnUse"
         gradientTransform="matrix(1.050920,-0.148604,0.172402,1.499373,-123.6994,-3.008376)"
         spreadMethod="pad" />
      <defs
         id="defs3">
        <sodipodi:namedview
           id="namedview909" />
        <defs
           id="defs1721">
          <linearGradient
             x1="0.0000000"
             y1="0.0000000"
             x2="1.0000000"
             y2="0.0000000"
             id="linearGradient1722"
             gradientUnits="objectBoundingBox"
             spreadMethod="pad"
             xlink:href="#linearGradient1825" />
          <linearGradient
             x1="0.0000000"
             y1="0.0000000"
             x2="1.0000000"
             y2="0.0000000"
             id="linearGradient1725"
             gradientUnits="objectBoundingBox"
             spreadMethod="pad">
            <stop
               style="stop-color:#000000;stop-opacity:1;"
               offset="0.000000"
               id="stop1726" />
            <stop
               style="stop-color:#bdf2ff;stop-opacity:0.384314;"
               offset="1.000000"
               id="stop1727" />
          </linearGradient>
          <linearGradient
             id="linearGradient1728"
             xlink:href="#linearGradient632"
             x1="60.644615"
             y1="19.295689"
             x2="35.370575"
             y2="69.142799"
             gradientUnits="userSpaceOnUse"
             spreadMethod="pad" />
          <linearGradient
             xlink:href="#linearGradient632"
             id="linearGradient1729"
             x1="85.637657"
             y1="17.443844"
             x2="73.916298"
             y2="54.628181"
             gradientUnits="userSpaceOnUse"
             spreadMethod="pad"
             gradientTransform="scale(0.740666,1.350136)" />
        </defs>
      </defs>
      <sodipodi:namedview
         id="namedview1730"
         pagecolor="#ffffff"
         bordercolor="#666666"
         borderopacity="1.0"
         inkscape:pageopacity="0.0"
         inkscape:pageshadow="2"
         inkscape:zoom="2.4559706"
         inkscape:cx="113.94414"
         inkscape:cy="73.007956"
         inkscape:window-width="812"
         inkscape:window-height="560"
         inkscape:window-x="103"
         inkscape:window-y="56" />
      <metadata
         id="metadata4">
        <rdf:RDF>
          <cc:Work
             rdf:about="">
            <dc:format>image/svg+xml</dc:format>
            <dc:type
               rdf:resource="http://purl.org/dc/dcmitype/StillImage" />
          </cc:Work>
        </rdf:RDF>
      </metadata>
      <linearGradient
         inkscape:collect="always"
         xlink:href="#linearGradient1828"
         id="linearGradient1831"
         gradientTransform="matrix(0.563776,0.000000,0.000000,0.563788,50.39821,45.07308)"
         x1="32.051327"
         y1="14.657825"
         x2="32.051327"
         y2="75.934349"
         gradientUnits="userSpaceOnUse" />
    </defs>
    <linearGradient
       inkscape:collect="always"
       xlink:href="#linearGradient1828"
       id="linearGradient3209"
       gradientUnits="userSpaceOnUse"
       gradientTransform="matrix(0.371303,0,0,0.371311,44.15353,27.77243)"
       x1="32.051327"
       y1="14.657825"
       x2="32.051327"
       y2="75.934349" />
    <linearGradient
       inkscape:collect="always"
       xlink:href="#linearGradient1828"
       id="linearGradient2208"
       gradientUnits="userSpaceOnUse"
       gradientTransform="matrix(0.371303,0,0,0.371311,44.15353,27.77243)"
       x1="32.051327"
       y1="14.657825"
       x2="32.051327"
       y2="75.934349" />
    <linearGradient
       inkscape:collect="always"
       xlink:href="#linearGradient1828"
       id="linearGradient2213"
       gradientUnits="userSpaceOnUse"
       gradientTransform="matrix(0.371303,0,0,0.371311,44.15353,27.77243)"
       x1="32.051327"
       y1="14.657825"
       x2="32.051327"
       y2="75.934349" />
    <inkscape:perspective
       id="perspective3343"
       inkscape:persp3d-origin="0.5 : 0.33333333 : 1"
       inkscape:vp_z="1 : 0.5 : 1"
       inkscape:vp_y="0 : 1000 : 0"
       inkscape:vp_x="0 : 0.5 : 1"
       sodipodi:type="inkscape:persp3d" />
    <inkscape:perspective
       id="perspective2551"
       inkscape:persp3d-origin="0.5 : 0.33333333 : 1"
       inkscape:vp_z="1 : 0.5 : 1"
       inkscape:vp_y="0 : 1000 : 0"
       inkscape:vp_x="0 : 0.5 : 1"
       sodipodi:type="inkscape:persp3d" />
  </defs>
  <sodipodi:namedview
     id="base"
     inkscape:zoom="5.0416669"
     inkscape:cx="21.954344"
     inkscape:cy="45.465798"
     inkscape:window-width="795"
     inkscape:window-height="724"
     inkscape:window-x="34"
     inkscape:window-y="9"
     inkscape:current-layer="svg604"
     showgrid="false" />
  <path
     style="fill:#000000;fill-rule:evenodd;stroke:none;stroke-opacity:1;stroke-width:1pt;stroke-linejoin:miter;stroke-linecap:butt;fill-opacity:0.301471;"
     d="M 12.8163 74.753 C 10.3856 73.6481 7.07107 70.1126 8.83884 65.2512 C 9.72267 59.948 25.6326 13.1021 29.1682 10.8924 C 31.3778 8.90368 34.582 8.13026 39.1119 9.34561 C 42.8684 10.2295 76.6769 19.0684 78.6656 20.8361 C 80.6544 22.6039 82.2012 24.0402 80.6544 27.9072 C 79.5496 29.8959 66.4017 74.532 66.1808 77.4047 C 65.2969 80.4983 62.7558 84.2548 58.5573 84.0338 C 54.3589 83.8128 15.9099 75.4159 12.8163 74.753 z "
     id="path794"
     sodipodi:nodetypes="ccccccccc"
     transform="matrix(1.114903,0.000000,0.000000,1.114903,-5.305332,-3.889256)" />
  <path
     style="fill:#3d4e67;fill-rule:evenodd;stroke:none;stroke-opacity:1;stroke-width:1pt;stroke-linejoin:miter;stroke-linecap:butt;fill-opacity:1;"
     d="M 12.8163 74.753 C 10.3856 73.6481 7.07107 70.1126 8.83884 65.2512 C 9.72267 59.948 25.6326 13.1021 29.1682 10.8924 C 31.3778 8.90368 34.582 8.13026 39.1119 9.34561 C 42.8684 10.2295 76.6769 19.0684 78.6656 20.8361 C 80.6544 22.6039 82.2012 24.0402 80.6544 27.9072 C 79.5496 29.8959 66.4017 74.532 66.1808 77.4047 C 65.2969 80.4983 62.7558 84.2548 58.5573 84.0338 C 54.3589 83.8128 15.9099 75.4159 12.8163 74.753 z "
     id="path609"
     sodipodi:nodetypes="ccccccccc"
     transform="matrix(1.114903,0.000000,0.000000,1.114903,-8.162471,-8.460684)" />
  <path
     style="fill:#ffffff;fill-rule:evenodd;stroke:none;stroke-opacity:1;stroke-width:1pt;stroke-linejoin:miter;stroke-linecap:butt;fill-opacity:1;"
     d="M 17.8987 70.9965 C 15.3576 70.3336 11.7114 69.6706 13.0373 65.6932 C 15.468 55.9705 27.8424 18.6264 33.1456 13.986 C 34.361 12.8811 38.4489 12.4392 46.1829 14.8699 C 55.0218 17.5215 72.9204 23.4877 74.6882 24.3716 C 76.4559 25.2555 77.1189 25.2555 75.793 29.233 C 73.8043 33.2105 64.9655 67.24 62.7557 72.9852 C 61.209 77.0732 60.8775 78.9514 58.2258 78.9514 "
     id="path608"
     sodipodi:nodetypes="cccccccs"
     transform="matrix(1.114903,0.000000,0.000000,1.114903,-8.162471,-8.460684)" />
  <path
     style="fill:url(#linearGradient615);fill-rule:evenodd;stroke:none;stroke-opacity:1;stroke-width:1pt;stroke-linejoin:miter;stroke-linecap:butt;fill-opacity:1;"
     d="M 28.75 13.75 C 28.75 13.75 31.875 7.49995 39.6875 9.37495 C 47.5 11.25 78.125 19.375 77.8125 21.875 C 77.5 24.375 71.875 39.0625 71.5625 40.3125 C 71.25 41.5625 42.5 40.9375 31.5625 47.5 C 20.625 54.0625 12.5 59.6875 12.5 59.6875 C 12.5 59.6875 23.75 24.6875 28.75 13.75 z "
     id="path636"
     transform="matrix(0.946780,0.000000,0.000000,0.946780,-0.480566,0.409517)" />
  <g
     transform="matrix(0.8867671,0.2673995,-0.2673995,0.8867671,8.2253745,10.235781)"
     id="use3211">
    <path
       style="fill:#000000;fill-opacity:0.34444442;stroke:none;stroke-width:3.86746287;stroke-linecap:round;stroke-linejoin:round;stroke-miterlimit:4;stroke-opacity:1"
       d="M 61.241091,33.376041 C 60.169069,33.066624 59.061423,33.678083 58.752007,34.750106 L 58.291563,36.345381 C 57.841243,36.359472 57.398742,36.401309 56.962198,36.484808 L 56.164751,35.040251 C 55.625506,34.063425 54.399429,33.709544 53.422603,34.248787 L 52.364475,34.840161 C 51.38765,35.379404 51.036256,36.596858 51.5755,37.573685 L 52.366815,39.007131 C 52.059081,39.331245 51.779304,39.679193 51.523209,40.052763 L 49.962428,39.602276 C 48.890404,39.292859 47.771649,39.910453 47.462231,40.982476 L 47.126231,42.146595 C 46.816814,43.218618 47.436897,44.328751 48.508921,44.638168 L 50.03521,45.0787 C 50.047165,45.545429 50.092966,46.004065 50.179439,46.456159 L 48.790442,47.222937 C 47.813616,47.76218 47.462223,48.979634 48.001466,49.95646 L 48.59284,51.014587 C 49.132084,51.991415 50.349538,52.342808 51.326365,51.803564 L 52.693138,51.049054 C 53.033955,51.372971 53.396218,51.669381 53.791666,51.935951 L 53.36109,53.427748 C 53.051673,54.499771 53.663133,55.607416 54.735156,55.916832 L 55.899275,56.252831 C 56.971299,56.562249 58.078943,55.950788 58.38836,54.878765 L 58.821425,53.378347 C 59.294272,53.36299 59.755098,53.311119 60.212485,53.219358 L 60.966993,54.586133 C 61.506238,55.56296 62.72369,55.914352 63.700517,55.375107 L 64.764779,54.794845 C 65.741605,54.255601 66.095488,53.029524 65.556243,52.052699 L 64.795601,50.674813 C 65.109681,50.33833 65.392829,49.97464 65.65165,49.586064 L 67.177939,50.026597 C 68.249963,50.336014 69.357605,49.724554 69.667023,48.65253 L 70.003022,47.488411 C 70.312439,46.416389 69.703469,45.300121 68.631447,44.990705 L 67.070665,44.540217 C 67.052965,44.086189 66.993559,43.642976 66.905367,43.203384 L 68.338812,42.412069 C 69.31564,41.872826 69.667033,40.655371 69.127788,39.678545 L 68.547524,38.614285 C 68.008282,37.637457 66.79083,37.286065 65.814001,37.825309 L 64.358333,38.628891 C 64.034598,38.326406 63.69093,38.047848 63.318833,37.796398 L 63.779276,36.201125 C 64.088694,35.129102 63.477234,34.021457 62.405211,33.71204 L 61.241091,33.376041 z M 59.695824,40.898303 C 61.885538,41.530318 63.149582,43.820102 62.517565,46.009815 C 61.88555,48.19953 59.595767,49.463573 57.406054,48.831558 C 55.216339,48.199542 53.952295,45.909759 54.584311,43.720044 C 55.216327,41.530331 57.506109,40.266287 59.695824,40.898303 z "
       id="path2204" />
    <path
       style="fill:url(#linearGradient2213);fill-opacity:1;stroke:#593a28;stroke-width:1.4360162;stroke-linecap:round;stroke-linejoin:round;stroke-miterlimit:4;stroke-opacity:1"
       d="M 59.584018,31.718968 C 58.511995,31.409551 57.404351,32.021011 57.094934,33.093034 L 56.634491,34.688307 C 56.18417,34.702399 55.741669,34.744236 55.305126,34.827735 L 54.507677,33.383178 C 53.968434,32.406351 52.742356,32.052471 51.76553,32.591714 L 50.707403,33.183088 C 49.730577,33.722331 49.379184,34.939787 49.918427,35.916612 L 50.709741,37.350058 C 50.402009,37.674174 50.122231,38.022121 49.866137,38.395691 L 48.305355,37.945203 C 47.233331,37.635786 46.114575,38.25338 45.805158,39.325403 L 45.469159,40.489522 C 45.159742,41.561545 45.779825,42.671678 46.851848,42.981096 L 48.378137,43.421627 C 48.390091,43.888357 48.435894,44.346992 48.522367,44.799086 L 47.133369,45.565863 C 46.156544,46.105108 45.805149,47.322562 46.344394,48.299388 L 46.935767,49.357515 C 47.475011,50.334342 48.692466,50.685734 49.669293,50.14649 L 51.036066,49.391981 C 51.376882,49.715898 51.739145,50.012308 52.134593,50.278878 L 51.704016,51.770674 C 51.3946,52.842698 52.006061,53.950343 53.078083,54.259759 L 54.242202,54.595758 C 55.314226,54.905176 56.42187,54.293717 56.731287,53.221693 L 57.164352,51.721273 C 57.637199,51.705917 58.098026,51.654047 58.555411,51.562286 L 59.309921,52.92906 C 59.849165,53.905886 61.066618,54.257278 62.043445,53.718036 L 63.107707,53.137772 C 64.084533,52.598528 64.438415,51.372452 63.89917,50.395626 L 63.138528,49.017741 C 63.452609,48.681258 63.735756,48.317568 63.994577,47.928991 L 65.520866,48.369523 C 66.59289,48.678941 67.700531,48.067481 68.00995,46.995458 L 68.345949,45.831338 C 68.655366,44.759315 68.046396,43.643048 66.974374,43.333631 L 65.413591,42.883144 C 65.395892,42.429115 65.336485,41.985903 65.248294,41.546312 L 66.681739,40.754997 C 67.658567,40.215754 68.009961,38.998299 67.470715,38.021473 L 66.890451,36.957211 C 66.351209,35.980385 65.133755,35.628993 64.156928,36.168236 L 62.701259,36.971819 C 62.377525,36.669332 62.033857,36.390775 61.66176,36.139325 L 62.122204,34.544052 C 62.431621,33.472028 61.820161,32.364384 60.748138,32.054967 L 59.584018,31.718968 z M 58.038751,39.241231 C 60.228466,39.873246 61.492509,42.163029 60.860493,44.352743 C 60.228477,46.542457 57.938694,47.806501 55.748981,47.174485 C 53.559267,46.542469 52.295222,44.252686 52.927239,42.062971 C 53.559254,39.873258 55.849037,38.609214 58.038751,39.241231 z "
       id="path2206" />
  </g>
  <use
     x="0"
     y="0"
     xlink:href="#use3211"
     id="use2215"
     transform="translate(-22.720918,-5.6101033)"
     width="90"
     height="90" />
  <g
     id="g2853"
     transform="matrix(1.0332698,0,0,1.0332698,-0.6933266,-0.5614471)">
    <path
       style="font-size:14px;font-style:normal;font-variant:normal;font-weight:normal;font-stretch:normal;writing-mode:lr-tb;text-anchor:start;fill:#000000;fill-opacity:0.30196078;stroke:none;font-family:Kid Kosmic"
       d="m 50.592241,27.560337 c 0.082769,0.540908 0.074024,1.001203 -0.02623,1.380887 -0.217318,0.822705 -0.856304,1.319636 -1.916957,1.490792 -0.588681,0.092773 -1.104497,0.080647 -1.547453,-0.03637 -0.738336,-0.194985 -1.284814,-0.689094 -1.639436,-1.482331 -0.200636,-0.436589 -0.39548,-1.108618 -0.584535,-2.016087 -0.189104,-0.907429 -0.376188,-1.566125 -0.561247,-1.976091 -4.988287,-1.362604 -9.107448,-1.017609 -12.357496,1.034986 -2.166723,1.368435 -3.553723,3.202294 -4.161003,5.50158 -0.546013,2.06728 -0.31392,3.922582 0.69628,5.565913 1.015753,1.622256 2.546718,2.703594 4.592904,3.244019 3.375109,0.891445 7.557743,0.348834 12.547921,-1.627823 0.673003,-0.070459 1.209916,-0.052763 1.610739,0.053083 0.73828,0.195014 1.070432,0.688927 0.996455,1.481753 -0.029078,0.195429 -0.065888,0.37752 -0.11043,0.546267 -0.245174,0.928167 -0.838186,1.550069 -1.779037,1.865715 -1.753221,0.91348 -3.599956,1.497609 -5.54021,1.752389 -2.322381,0.3344 -4.329131,0.413662 -6.020251,0.237789 -1.078218,-0.104239 -2.091945,-0.281721 -3.041188,-0.53244 -3.375137,-0.891434 -5.809999,-2.651548 -7.304586,-5.280347 -1.903769,-3.301004 -2.333318,-6.630117 -1.288644,-9.987354 1.468901,-4.62168 4.725304,-7.552702 9.769223,-8.793068 4.151963,-1.024563 8.734817,-0.818337 13.74858,0.618693 1.647344,0.683355 2.752039,1.58441 3.314089,2.703166 0.458899,0.911048 0.659733,2.329341 0.602512,4.254879"
       id="path2550"
       sodipodi:nodetypes="ccccccccccccccccccccccccc" />
    <path
       sodipodi:nodetypes="ccccccccccccccccccccccccc"
       id="text1127"
       d="m 48.82913,25.091981 c 0.082768,0.540908 0.074024,1.001203 -0.026229,1.380887 -0.217319,0.822706 -0.856305,1.319637 -1.916958,1.490792 -0.588679,0.092773 -1.104498,0.080649 -1.547453,-0.03637 -0.738335,-0.194983 -1.284815,-0.689093 -1.639436,-1.482329 -0.200636,-0.436589 -0.39548,-1.108619 -0.584535,-2.016088 -0.189105,-0.907429 -0.376187,-1.566126 -0.561246,-1.976092 -4.988288,-1.362603 -9.107448,-1.017608 -12.357497,1.034987 -2.166723,1.368434 -3.553723,3.202293 -4.161004,5.50158 -0.546011,2.067279 -0.313919,3.922582 0.696281,5.565912 1.015754,1.622257 2.546718,2.703594 4.592903,3.244019 3.375109,0.891443 7.557746,0.348834 12.547922,-1.627823 0.673002,-0.07046 1.209914,-0.052763 1.610739,0.053084 0.73828,0.195013 1.070431,0.688926 0.996455,1.481751 -0.029079,0.19543 -0.065887,0.377522 -0.11043,0.546267 -0.245174,0.928167 -0.838187,1.55007 -1.779038,1.865715 -1.75322,0.913482 -3.599954,1.497611 -5.54021,1.75239 -2.322379,0.334401 -4.32913,0.413662 -6.02025,0.237789 -1.078217,-0.104239 -2.091947,-0.281722 -3.041188,-0.53244 -3.375137,-0.891433 -5.809998,-2.651547 -7.304586,-5.280347 -1.903769,-3.301003 -2.333319,-6.630118 -1.288643,-9.987355 1.468899,-4.62168 4.725302,-7.552701 9.769222,-8.793066 4.151962,-1.024566 8.734817,-0.818337 13.748579,0.618692 1.647344,0.683355 2.75204,1.584409 3.314089,2.703166 0.458899,0.911048 0.659733,2.32934 0.602513,4.254879"
       style="font-size:14px;font-style:normal;font-variant:normal;font-weight:normal;font-stretch:normal;writing-mode:lr-tb;text-anchor:start;fill:#3d4e67;fill-opacity:1;stroke:none;font-family:Kid Kosmic" />
  </g>
  <g
     id="g2839"
     transform="matrix(0.9988629,4.7675817e-2,-4.7675817e-2,0.9988629,1.7501337,-2.4656887)">
    <path
       id="path2837"
       d="m 54.630135,29.139744 c -1.025904,-0.149009 -1.748506,0.19791 -2.134292,1.046098 -0.04395,1.069731 -0.257102,2.610418 -0.656198,4.602782 l -2.622224,-0.701657 c -0.841783,-0.217798 -1.550662,-0.412648 -2.131463,-0.546314 -0.849633,0.262501 -1.357511,0.805724 -1.504898,1.632443 -0.162978,0.822711 0.260086,1.416792 1.280316,1.780559 1.148196,-0.002266 2.597686,0.205042 4.351665,0.62561 l -0.657993,2.786819 c -0.214332,0.89258 -0.39212,1.676014 -0.502652,2.296056 0.27807,0.853667 0.836882,1.345533 1.667656,1.477331 0.815169,0.127771 1.424205,-0.33867 1.792028,-1.374483 -0.081325,-1.035592 0.062359,-2.495796 0.472487,-4.402171 2.052535,0.680799 3.552049,1.278665 4.492707,1.82143 1.133692,-0.139077 1.783244,-0.718028 1.963467,-1.735864 0.176151,-1.002227 -0.127612,-1.725671 -0.948107,-2.154212 -0.710653,-0.017544 -1.531741,-0.099473 -2.420812,-0.263007 -0.506912,-0.097886 -1.290979,-0.282982 -2.355013,-0.541687 0.630524,-2.115433 1.216829,-3.574437 1.715792,-4.41001 -0.189898,-1.130203 -0.796205,-1.779122 -1.802466,-1.939723 z"
       style="font-size:14px;font-style:normal;font-variant:normal;font-weight:normal;font-stretch:normal;writing-mode:lr-tb;text-anchor:start;fill:#000000;fill-opacity:0.30196078;stroke:none;font-family:Kid Kosmic" />
    <path
       id="path2835"
       d="M 54.630135,29.139744"
       style="font-size:14px;font-style:normal;font-variant:normal;font-weight:normal;font-stretch:normal;writing-mode:lr-tb;text-anchor:start;fill:#000000;fill-opacity:0.30196078;stroke:none;font-family:Kid Kosmic" />
    <path
       id="path2833"
       d="M 54.630135,29.139744"
       style="font-size:14px;font-style:normal;font-variant:normal;font-weight:normal;font-stretch:normal;writing-mode:lr-tb;text-anchor:start;fill:#000000;fill-opacity:0.30196078;stroke:none;font-family:Kid Kosmic" />
    <path
       id="path2831"
       d="M 54.630135,29.139744"
       style="font-size:14px;font-style:normal;font-variant:normal;font-weight:normal;font-stretch:normal;writing-mode:lr-tb;text-anchor:start;fill:#000000;fill-opacity:0.30196078;stroke:none;font-family:Kid Kosmic" />
    <path
       id="path2829"
       d="M 54.630135,29.139744"
       style="font-size:14px;font-style:normal;font-variant:normal;font-weight:normal;font-stretch:normal;writing-mode:lr-tb;text-anchor:start;fill:#000000;fill-opacity:0.30196078;stroke:none;font-family:Kid Kosmic" />
    <path
       id="path2827"
       d="M 54.630135,29.139744"
       style="font-size:14px;font-style:normal;font-variant:normal;font-weight:normal;font-stretch:normal;writing-mode:lr-tb;text-anchor:start;fill:#000000;fill-opacity:0.30196078;stroke:none;font-family:Kid Kosmic" />
    <path
       id="path2825"
       d="M 54.630135,29.139744"
       style="font-size:14px;font-style:normal;font-variant:normal;font-weight:normal;font-stretch:normal;writing-mode:lr-tb;text-anchor:start;fill:#000000;fill-opacity:0.30196078;stroke:none;font-family:Kid Kosmic" />
    <path
       id="path2823"
       d="M 54.630135,29.139744"
       style="font-size:14px;font-style:normal;font-variant:normal;font-weight:normal;font-stretch:normal;writing-mode:lr-tb;text-anchor:start;fill:#000000;fill-opacity:0.30196078;stroke:none;font-family:Kid Kosmic" />
    <path
       id="path2821"
       d="M 54.630135,29.139744"
       style="font-size:14px;font-style:normal;font-variant:normal;font-weight:normal;font-stretch:normal;writing-mode:lr-tb;text-anchor:start;fill:#000000;fill-opacity:0.30196078;stroke:none;font-family:Kid Kosmic" />
    <path
       id="path2801"
       d="m 46.167133,31.191599 c 0.5808,0.133666 1.292089,0.309396 2.133872,0.527194 l 2.636187,0.707066 c 0.399095,-1.992363 0.62062,-3.523409 0.664569,-4.59314 0.385789,-0.848188 1.091632,-1.197776 2.117536,-1.048769 1.00626,0.160601 1.604337,0.806001 1.794236,1.936204 -0.498961,0.835573 -1.063702,2.311076 -1.694225,4.426509 1.064032,0.258704 1.849505,0.436996 2.356416,0.534883 0.88907,0.163535 1.688932,0.254077 2.399585,0.271621 0.820498,0.428541 1.142671,1.143922 0.966519,2.14615 -0.180221,1.017836 -0.837176,1.596292 -1.970868,1.735369 -0.940661,-0.542764 -2.437254,-1.154541 -4.48979,-1.83534 -0.410126,1.906374 -0.574528,3.377357 -0.493203,4.412949 -0.367821,1.035815 -0.959315,1.489837 -1.774484,1.362066 -0.830774,-0.131798 -1.385195,-0.624529 -1.663265,-1.478195 0.110535,-0.620042 0.272969,-1.376354 0.487299,-2.268936 l 0.67322,-2.794635 c -1.753978,-0.420568 -3.205067,-0.629718 -4.353264,-0.627451 -1.020229,-0.363767 -1.448849,-0.957004 -1.28587,-1.779715 0.147388,-0.826719 0.645896,-1.37133 1.49553,-1.63383"
       style="font-size:14px;font-style:normal;font-variant:normal;font-weight:normal;font-stretch:normal;writing-mode:lr-tb;text-anchor:start;fill:#3d4e67;fill-opacity:1;stroke:none;font-family:Kid Kosmic" />
  </g>
  <use
     x="0"
     y="0"
     xlink:href="#g2839"
     id="use2851"
     transform="translate(12.495867,-3.3719007)"
     width="90"
     height="90" />
</svg>
