<?xml version="1.0" encoding="UTF-8" standalone="no"?>
<!-- Created with Sodipodi ("http://www.sodipodi.com/") -->

<svg
   xmlns:dc="http://purl.org/dc/elements/1.1/"
   xmlns:cc="http://creativecommons.org/ns#"
   xmlns:rdf="http://www.w3.org/1999/02/22-rdf-syntax-ns#"
   xmlns:svg="http://www.w3.org/2000/svg"
   xmlns="http://www.w3.org/2000/svg"
   xmlns:xlink="http://www.w3.org/1999/xlink"
   xmlns:sodipodi="http://sodipodi.sourceforge.net/DTD/sodipodi-0.dtd"
   xmlns:inkscape="http://www.inkscape.org/namespaces/inkscape"
   id="svg604"
   sodipodi:version="0.32"
   width="72pt"
   height="72pt"
   sodipodi:docname="text-x-chdr.svg"
   inkscape:version="0.46+devel r21210 custom"
   inkscape:output_extension="org.inkscape.output.svg.inkscape">
  <metadata
     id="metadata94">
    <rdf:RDF>
      <cc:Work
         rdf:about="">
        <dc:format>image/svg+xml</dc:format>
        <dc:type
           rdf:resource="http://purl.org/dc/dcmitype/StillImage" />
        <dc:title></dc:title>
      </cc:Work>
    </rdf:RDF>
  </metadata>
  <defs
     id="defs606">
    <linearGradient
       inkscape:collect="always"
       id="linearGradient3803">
      <stop
         style="stop-color:#ffffff;stop-opacity:1;"
         offset="0"
         id="stop3805" />
      <stop
         style="stop-color:#ffbfbc;stop-opacity:1"
         offset="1"
         id="stop3807" />
    </linearGradient>
    <linearGradient
       inkscape:collect="always"
       id="linearGradient3685">
      <stop
         style="stop-color:#593a28;stop-opacity:1;"
         offset="0"
         id="stop3687" />
      <stop
         style="stop-color:#ae714e;stop-opacity:1"
         offset="1"
         id="stop3689" />
    </linearGradient>
    <linearGradient
       id="linearGradient612">
      <stop
         style="stop-color:#7fa8e3;stop-opacity:0.741176;"
         offset="0.000000"
         id="stop613" />
      <stop
         style="stop-color:#ffffff;stop-opacity:0;"
         offset="1.000000"
         id="stop614" />
    </linearGradient>
    <linearGradient
       xlink:href="#linearGradient612"
       id="linearGradient615"
       x1="50.6438866"
       y1="5.36792946"
       x2="35.7520943"
       y2="68.0443573"
       gradientUnits="userSpaceOnUse"
       spreadMethod="pad" />
    <defs
       id="defs550">
      <linearGradient
         id="linearGradient1828">
        <stop
           style="stop-color:#ffc93f;stop-opacity:1.0000000;"
           offset="0.0000000"
           id="stop1829" />
        <stop
           style="stop-color:#f1e36c;stop-opacity:1.0000000;"
           offset="1.0000000"
           id="stop1830" />
      </linearGradient>
      <linearGradient
         id="linearGradient1825">
        <stop
           offset="0.0000000"
           style="stop-color:#ffd800;stop-opacity:1.0000000;"
           id="stop1827" />
        <stop
           offset="1.0000000"
           style="stop-color:#ffd58f;stop-opacity:0.0000000;"
           id="stop1826" />
      </linearGradient>
      <linearGradient
         x1="0.0000000"
         y1="0.0000000"
         x2="1.0000000"
         y2="0.0000000"
         id="linearGradient632"
         gradientUnits="objectBoundingBox"
         spreadMethod="pad">
        <stop
           style="stop-color:#ffb700;stop-opacity:1;"
           offset="0.00000000"
           id="stop633" />
        <stop
           style="stop-color:#ffd58f;stop-opacity:0;"
           offset="1.00000000"
           id="stop634" />
      </linearGradient>
      <linearGradient
         x1="0.0000000"
         y1="0.0000000"
         x2="1.0000000"
         y2="0.0000000"
         id="linearGradient556"
         gradientUnits="objectBoundingBox"
         spreadMethod="pad">
        <stop
           style="stop-color:#000000;stop-opacity:1;"
           offset="0.00000000"
           id="stop557" />
        <stop
           style="stop-color:#bdf2ff;stop-opacity:0.384314;"
           offset="1.00000000"
           id="stop558" />
      </linearGradient>
      <linearGradient
         x1="60.644615"
         y1="19.295689"
         x2="35.370575"
         y2="69.142799"
         id="linearGradient559"
         xlink:href="#linearGradient632"
         gradientUnits="userSpaceOnUse"
         spreadMethod="pad"
         gradientTransform="matrix(1.418885,-0.200635,0.127692,1.110535,-136.7997,-1.332303)" />
      <linearGradient
         x1="85.637657"
         y1="17.443844"
         x2="73.916298"
         y2="54.628181"
         id="linearGradient631"
         xlink:href="#linearGradient632"
         gradientUnits="userSpaceOnUse"
         gradientTransform="matrix(1.050920,-0.148604,0.172402,1.499373,-123.6994,-3.008376)"
         spreadMethod="pad" />
      <defs
         id="defs3">
        <sodipodi:namedview
           id="namedview909" />
        <defs
           id="defs1721">
          <linearGradient
             x1="0.0000000"
             y1="0.0000000"
             x2="1.0000000"
             y2="0.0000000"
             id="linearGradient1722"
             gradientUnits="objectBoundingBox"
             spreadMethod="pad"
             xlink:href="#linearGradient1825" />
          <linearGradient
             x1="0.0000000"
             y1="0.0000000"
             x2="1.0000000"
             y2="0.0000000"
             id="linearGradient1725"
             gradientUnits="objectBoundingBox"
             spreadMethod="pad">
            <stop
               style="stop-color:#000000;stop-opacity:1;"
               offset="0.000000"
               id="stop1726" />
            <stop
               style="stop-color:#bdf2ff;stop-opacity:0.384314;"
               offset="1.000000"
               id="stop1727" />
          </linearGradient>
          <linearGradient
             id="linearGradient1728"
             xlink:href="#linearGradient632"
             x1="60.644615"
             y1="19.295689"
             x2="35.370575"
             y2="69.142799"
             gradientUnits="userSpaceOnUse"
             spreadMethod="pad" />
          <linearGradient
             xlink:href="#linearGradient632"
             id="linearGradient1729"
             x1="85.637657"
             y1="17.443844"
             x2="73.916298"
             y2="54.628181"
             gradientUnits="userSpaceOnUse"
             spreadMethod="pad"
             gradientTransform="scale(0.740666,1.350136)" />
        </defs>
      </defs>
      <sodipodi:namedview
         id="namedview1730"
         pagecolor="#ffffff"
         bordercolor="#666666"
         borderopacity="1.0"
         inkscape:pageopacity="0.0"
         inkscape:pageshadow="2"
         inkscape:zoom="2.4559706"
         inkscape:cx="113.94414"
         inkscape:cy="73.007956"
         inkscape:window-width="812"
         inkscape:window-height="560"
         inkscape:window-x="103"
         inkscape:window-y="56" />
      <metadata
         id="metadata4">
        <rdf:RDF>
          <cc:Work
             rdf:about="">
            <dc:format>image/svg+xml</dc:format>
            <dc:type
               rdf:resource="http://purl.org/dc/dcmitype/StillImage" />
          </cc:Work>
        </rdf:RDF>
      </metadata>
      <linearGradient
         inkscape:collect="always"
         xlink:href="#linearGradient1828"
         id="linearGradient1831"
         gradientTransform="matrix(0.563776,0.000000,0.000000,0.563788,50.39821,45.07308)"
         x1="32.051327"
         y1="14.657825"
         x2="32.051327"
         y2="75.934349"
         gradientUnits="userSpaceOnUse" />
    </defs>
    <linearGradient
       inkscape:collect="always"
       xlink:href="#linearGradient3803"
       id="linearGradient3890"
       gradientUnits="userSpaceOnUse"
       gradientTransform="matrix(0.60417062,0,0,0.60417062,-11.504485,26.226133)"
       x1="-37.495239"
       y1="35.12294"
       x2="-30.294556"
       y2="52.106915" />
    <linearGradient
       inkscape:collect="always"
       xlink:href="#linearGradient3803"
       id="linearGradient3892"
       gradientUnits="userSpaceOnUse"
       gradientTransform="matrix(0.60417062,0,0,0.60417062,-11.504485,25.887187)"
       x1="-52.409317"
       y1="29.624578"
       x2="-55.969109"
       y2="21.274149" />
    <linearGradient
       inkscape:collect="always"
       xlink:href="#linearGradient3685"
       id="linearGradient3894"
       gradientUnits="userSpaceOnUse"
       gradientTransform="matrix(0.62740793,0,0,0.64483595,-10.951092,25.183129)"
       x1="-43.33884"
       y1="25.034069"
       x2="-39.285904"
       y2="36.94215" />
    <linearGradient
       inkscape:collect="always"
       xlink:href="#linearGradient3803"
       id="linearGradient3896"
       gradientUnits="userSpaceOnUse"
       gradientTransform="matrix(0.60417062,0,0,0.60417062,-11.504485,26.226133)"
       x1="-14.431431"
       y1="42.062061"
       x2="-7.6509409"
       y2="47.18462" />
  </defs>
  <sodipodi:namedview
     id="base"
     inkscape:zoom="5.041667"
     inkscape:cx="33.667784"
     inkscape:cy="62.657363"
     inkscape:window-width="1024"
     inkscape:window-height="737"
     inkscape:window-x="0"
     inkscape:window-y="1"
     inkscape:current-layer="svg604"
     showgrid="false"
     inkscape:snap-global="false" />
  <path
     style="fill:#000000;fill-rule:evenodd;stroke:none;stroke-opacity:1;stroke-width:1pt;stroke-linejoin:miter;stroke-linecap:butt;fill-opacity:0.301471;"
     d="M 12.8163 74.753 C 10.3856 73.6481 7.07107 70.1126 8.83884 65.2512 C 9.72267 59.948 25.6326 13.1021 29.1682 10.8924 C 31.3778 8.90368 34.582 8.13026 39.1119 9.34561 C 42.8684 10.2295 76.6769 19.0684 78.6656 20.8361 C 80.6544 22.6039 82.2012 24.0402 80.6544 27.9072 C 79.5496 29.8959 66.4017 74.532 66.1808 77.4047 C 65.2969 80.4983 62.7558 84.2548 58.5573 84.0338 C 54.3589 83.8128 15.9099 75.4159 12.8163 74.753 z "
     id="path794"
     sodipodi:nodetypes="ccccccccc"
     transform="matrix(1.114903,0.000000,0.000000,1.114903,-5.305332,-3.889256)" />
  <path
     style="fill:#3d4e67;fill-rule:evenodd;stroke:none;stroke-opacity:1;stroke-width:1pt;stroke-linejoin:miter;stroke-linecap:butt;fill-opacity:1;"
     d="M 12.8163 74.753 C 10.3856 73.6481 7.07107 70.1126 8.83884 65.2512 C 9.72267 59.948 25.6326 13.1021 29.1682 10.8924 C 31.3778 8.90368 34.582 8.13026 39.1119 9.34561 C 42.8684 10.2295 76.6769 19.0684 78.6656 20.8361 C 80.6544 22.6039 82.2012 24.0402 80.6544 27.9072 C 79.5496 29.8959 66.4017 74.532 66.1808 77.4047 C 65.2969 80.4983 62.7558 84.2548 58.5573 84.0338 C 54.3589 83.8128 15.9099 75.4159 12.8163 74.753 z "
     id="path609"
     sodipodi:nodetypes="ccccccccc"
     transform="matrix(1.114903,0.000000,0.000000,1.114903,-8.162471,-8.460684)" />
  <path
     style="fill:#ffffff;fill-rule:evenodd;stroke:none;stroke-opacity:1;stroke-width:1pt;stroke-linejoin:miter;stroke-linecap:butt;fill-opacity:1;"
     d="M 17.8987 70.9965 C 15.3576 70.3336 11.7114 69.6706 13.0373 65.6932 C 15.468 55.9705 27.8424 18.6264 33.1456 13.986 C 34.361 12.8811 38.4489 12.4392 46.1829 14.8699 C 55.0218 17.5215 72.9204 23.4877 74.6882 24.3716 C 76.4559 25.2555 77.1189 25.2555 75.793 29.233 C 73.8043 33.2105 64.9655 67.24 62.7557 72.9852 C 61.209 77.0732 60.8775 78.9514 58.2258 78.9514 "
     id="path608"
     sodipodi:nodetypes="cccccccs"
     transform="matrix(1.114903,0.000000,0.000000,1.114903,-8.162471,-8.460684)" />
  <path
     style="fill:url(#linearGradient615);fill-rule:evenodd;stroke:none;stroke-opacity:1;stroke-width:1pt;stroke-linejoin:miter;stroke-linecap:butt;fill-opacity:1;"
     d="M 28.75 13.75 C 28.75 13.75 31.875 7.49995 39.6875 9.37495 C 47.5 11.25 78.125 19.375 77.8125 21.875 C 77.5 24.375 71.875 39.0625 71.5625 40.3125 C 71.25 41.5625 42.5 40.9375 31.5625 47.5 C 20.625 54.0625 12.5 59.6875 12.5 59.6875 C 12.5 59.6875 23.75 24.6875 28.75 13.75 z "
     id="path636"
     transform="matrix(0.946780,0.000000,0.000000,0.946780,-0.480566,0.409517)" />
  <g
     id="g3881"
     transform="matrix(1.2635226,0,0,1.2635226,84.094967,-10.807908)">
    <path
       id="path3748"
       d="m -35.681655,56.384388 c -9.679315,0 -17.540814,2.277818 -17.540814,5.099319 0,2.821501 7.861499,5.120479 17.540814,5.120479 6.814664,0 12.695104,-1.15842 15.594185,-2.814148 0.12911,0.002 0.249993,0.02116 0.380862,0.02116 3.893977,0 7.045947,-0.917337 7.045947,-2.052424 0,-1.088475 -2.908351,-1.959936 -6.58045,-2.031263 -2.457129,-1.956166 -8.878581,-3.343123 -16.440544,-3.343123 z"
       style="color:#000000;fill:#000000;fill-opacity:0.29411765;fill-rule:evenodd;stroke:none;stroke-width:0.40000001;marker:none;visibility:visible;display:inline;overflow:visible;enable-background:accumulate" />
    <path
       transform="matrix(0.60417062,0,0,0.60417062,-11.504485,26.226133)"
       d="m -38.875,12.59375 c -4.159066,0.04569 -10.222191,0.05168 -16.03125,1.03125 -5.809059,0.97957 -12.068445,2.708736 -15.0625,8.5 a 4.5667499,4.5667499 0 0 0 -0.46875,1.59375 c -0.125589,1.106236 -0.212989,2.261798 -0.1875,3.5 0.195847,9.513896 5.247123,18.015229 11.53125,25 0.02851,2.413961 1.301498,4.652138 2.8125,5.96875 1.560338,1.359601 3.282453,2.127408 5.125,2.71875 3.685095,1.182684 7.931979,1.572313 12.15625,1.5 4.224271,-0.07231 8.346061,-0.588712 11.8125,-1.84375 1.733219,-0.627519 3.355576,-1.390597 4.8125,-2.90625 1.051037,-1.093404 1.863341,-2.942543 1.96875,-4.78125 0.533753,-0.406056 1.082168,-0.807253 1.59375,-1.28125 2.250247,0.339056 4.506577,0.109995 6.78125,-0.34375 3.3964769,-0.677519 6.7829754,-1.976568 9.65625,-4 C 1.8423062,44.280066 2.7153837,39.373621 2.5,35.8125 2.3923081,34.031939 2.0418923,32.449565 1.59375,31.09375 1.3696788,30.415842 1.1044358,29.803834 0.78125,29.1875 0.45806417,28.571166 0.31673322,27.964112 -0.96875,27 -0.07800579,27.668058 -2.4502301,25.087057 -5.65625,24.4375 -6.7509005,24.215718 -7.9256516,24.290656 -9.125,24.5 c -0.8710418,-3.033775 -3.083131,-4.950602 -5.34375,-6.34375 -2.326518,-1.433759 -4.973679,-2.443304 -7.78125,-3.25 -5.615142,-1.613392 -11.813787,-2.365352 -16.625,-2.3125 z"
       id="path3724"
       style="color:#000000;fill:#593a28;fill-opacity:1;fill-rule:evenodd;stroke:none;stroke-width:0.40000001;marker:none;visibility:visible;display:inline;overflow:visible;enable-background:accumulate"
       inkscape:original="M -38.8125 17.15625 C -47.168043 17.24804 -62.335473 17.311959 -65.90625 24.21875 C -66.016584 25.190615 -66.082448 26.155964 -66.0625 27.125 C -65.887578 35.622392 -60.87137 43.938779 -54.40625 50.6875 C -54.48523 51.164218 -54.581549 51.580841 -54.59375 52.09375 C -54.788459 60.279236 -22.868805 59.226228 -25 52.09375 C -26.998979 52.611716 -34.141293 55.157401 -42.53125 53.09375 C -34.21676 53.02379 -28.409818 52.318786 -24.25 50.0625 C -22.95149 49.265424 -21.561187 48.051107 -20.21875 46.5 C -16.69414 48.131149 -9.3588957 46.600894 -5 43.53125 C -0.021034 40.024936 -2.59673 31.497765 -3.71875 30.65625 C -4.7282648 29.899114 -6.9539663 26.422121 -13.71875 31.65625 C -13.472715 29.818787 -13.347006 27.884327 -13.46875 25.875 C -14.958425 20.03904 -30.316723 17.062922 -38.8125 17.15625 z M -9.125 33.84375 C -7.7484974 33.9099 -6.7088449 34.904933 -6.65625 37.71875 C -6.603518 40.539915 -14.06485 43.009553 -17.5625 42.75 C -16.443275 40.870655 -15.443001 38.745953 -14.71875 36.375 C -13.137507 35.184657 -10.866774 33.760041 -9.125 33.84375 z "
       inkscape:radius="4.5662932"
       sodipodi:type="inkscape:offset" />
    <path
       sodipodi:nodetypes="cscscccsz"
       id="path2861"
       d="m -34.949245,36.593294 c -5.048174,0.05546 -16.208445,1.29558 -16.465,5.155441 -0.418699,6.341709 2.440129,11.608703 7.032699,15.103155 -0.04772,0.288019 -0.103121,0.545432 -0.110493,0.855316 -0.117637,4.94543 19.176107,4.309234 17.888502,0 -1.207724,0.31294 -5.537372,1.849681 -10.606337,0.602884 5.02337,-0.04227 8.533708,-0.476333 11.046948,-1.839515 3.038896,-1.865394 7.021481,-7.48042 6.514614,-14.609669 -0.257037,-3.615312 -10.168034,-5.323999 -15.300933,-5.267612 z"
       style="color:#000000;fill:url(#linearGradient3890);fill-opacity:1;fill-rule:evenodd;stroke:none;stroke-width:0.40000001;marker:none;visibility:visible;display:inline;overflow:visible;enable-background:accumulate" />
    <path
       sodipodi:nodetypes="cscsss"
       id="path3766"
       d="m -34.953857,37.130695 c -5.047996,-0.02077 -15.083941,1.578392 -15.335667,4.505497 -0.15888,1.847483 1.22547,2.418904 2.780246,3.414532 3.474196,1.821835 18.040618,1.055049 21.769023,0.207684 3.728406,-0.847365 5.489866,-2.485215 5.492773,-3.5168 0.0075,-2.720854 -8.103288,-4.583747 -14.706375,-4.610913 z"
       style="color:#000000;fill:url(#linearGradient3892);fill-opacity:1;fill-rule:evenodd;stroke:none;stroke-width:0.40000001;marker:none;visibility:visible;display:inline;overflow:visible;enable-background:accumulate" />
    <path
       sodipodi:nodetypes="cscc"
       id="path2871"
       d="m -48.541614,44.39563 c 0.684445,-1.790619 8.026674,-3.069633 12.506677,-3.069633 4.480003,0 13.315566,0.703458 13.377788,2.813829 -5.528892,3.138275 -22.249905,3.143867 -25.884465,0.255804 z"
       style="color:#000000;fill:url(#linearGradient3894);fill-opacity:1;fill-rule:evenodd;stroke:none;stroke-width:0.40000001;marker:none;visibility:visible;display:inline;overflow:visible;enable-background:accumulate" />
    <path
       sodipodi:nodetypes="cssccscc"
       id="path2866"
       d="m -21.253314,46.60263 c 5.253662,-4.914716 6.821288,-2.372621 7.49918,-1.864202 0.677891,0.508419 2.245516,5.677344 -0.762629,7.795756 -2.900717,2.042759 -8.007598,2.965777 -9.787065,1.440521 -0.127104,-1.101575 0.508419,-2.160781 1.271047,-2.203149 1.101575,1.016838 7.53722,-0.718851 7.499181,-2.753936 -0.08474,-4.533402 -4.36393,-1.313415 -5.634978,-0.211841 -0.804996,-0.08474 -0.508418,-1.69473 -0.08474,-2.203149 z"
       style="color:#000000;fill:url(#linearGradient3896);fill-opacity:1;fill-rule:evenodd;stroke:none;stroke-width:0.40000001;marker:none;visibility:visible;display:inline;overflow:visible;enable-background:accumulate" />
    <path
       sodipodi:nodetypes="cscscsccsccsc"
       id="path3865"
       d="m -33.601357,43.155639 c -9.818566,-0.584107 -8.230269,-3.855109 -5.920018,-4.205573 2.310251,-0.350464 5.486845,-1.401858 7.219534,-1.401858 -3.058439,-0.109927 -8.564735,-1.024391 -9.735687,-2.696954 -0.900027,-1.285581 -0.932752,-3.130332 6.992264,-3.377763 -11.587261,-1.218487 -13.595487,-4.740622 -9.693886,-6.493429 3.409258,-1.53162 8.013789,-1.096393 9.982667,-0.632681 -1.010735,-1.168215 -4.042939,-4.439217 -15.594192,-5.140145 12.706378,-2.102787 25.898604,0.283274 27.434228,4.672859 1.386688,3.963853 -3.12053,3.902749 -10.68491,3.97193 11.840034,1.869144 8.374659,6.366772 -0.649759,6.366771 7.941487,0.233643 12.912083,5.084322 1.227321,5.665842 -3.267696,0.160639 -4.909282,1.6355 -0.577562,3.271001 z"
       style="color:#000000;fill:#ff7068;fill-opacity:0.58823529;fill-rule:evenodd;stroke:none;stroke-width:0.40000001;marker:none;visibility:visible;display:inline;overflow:visible;enable-background:accumulate" />
  </g>
</svg>
