<?xml version="1.0" encoding="UTF-8" standalone="no"?>
<!-- Created with Sodipodi ("http://www.sodipodi.com/") -->
<svg
   xmlns:dc="http://purl.org/dc/elements/1.1/"
   xmlns:cc="http://creativecommons.org/ns#"
   xmlns:rdf="http://www.w3.org/1999/02/22-rdf-syntax-ns#"
   xmlns:svg="http://www.w3.org/2000/svg"
   xmlns="http://www.w3.org/2000/svg"
   xmlns:xlink="http://www.w3.org/1999/xlink"
   xmlns:sodipodi="http://sodipodi.sourceforge.net/DTD/sodipodi-0.dtd"
   xmlns:inkscape="http://www.inkscape.org/namespaces/inkscape"
   id="svg604"
   sodipodi:version="0.32"
   width="72pt"
   height="72pt"
   sodipodi:docbase="/home/zeus/images/icons/gartoon/svg"
   sodipodi:docname="text-csv.svg"
   inkscape:version="0.46+devel"
   inkscape:output_extension="org.inkscape.output.svg.inkscape">
  <metadata
     id="metadata2787">
    <rdf:RDF>
      <cc:Work
         rdf:about="">
        <dc:format>image/svg+xml</dc:format>
        <dc:type
           rdf:resource="http://purl.org/dc/dcmitype/StillImage" />
      </cc:Work>
    </rdf:RDF>
  </metadata>
  <defs
     id="defs606">
    <linearGradient
       id="linearGradient3337"
       inkscape:collect="always">
      <stop
         id="stop3339"
         offset="0"
         style="stop-color:#b01911;stop-opacity:1" />
      <stop
         id="stop3341"
         offset="1"
         style="stop-color:#593a28;stop-opacity:1" />
    </linearGradient>
    <linearGradient
       inkscape:collect="always"
       id="linearGradient2499">
      <stop
         style="stop-color:#593a28;stop-opacity:1;"
         offset="0"
         id="stop2501" />
      <stop
         style="stop-color:#000000;stop-opacity:1"
         offset="1"
         id="stop2503" />
    </linearGradient>
    <linearGradient
       id="linearGradient612">
      <stop
         style="stop-color:#7fa8e3;stop-opacity:0.741176;"
         offset="0.000000"
         id="stop613" />
      <stop
         style="stop-color:#ffffff;stop-opacity:0;"
         offset="1.000000"
         id="stop614" />
    </linearGradient>
    <linearGradient
       xlink:href="#linearGradient612"
       id="linearGradient615"
       x1="50.6438866"
       y1="5.36792946"
       x2="35.7520943"
       y2="68.0443573"
       gradientUnits="userSpaceOnUse"
       spreadMethod="pad" />
    <linearGradient
       inkscape:collect="always"
       xlink:href="#linearGradient2499"
       id="linearGradient2505"
       x1="47.74028"
       y1="14.60055"
       x2="58.904037"
       y2="43.141682"
       gradientUnits="userSpaceOnUse"
       gradientTransform="translate(8.5396651e-2,0.9175442)" />
    <linearGradient
       inkscape:collect="always"
       xlink:href="#linearGradient2499"
       id="linearGradient3305"
       gradientUnits="userSpaceOnUse"
       gradientTransform="translate(8.5396651e-2,0.9175442)"
       x1="47.74028"
       y1="14.60055"
       x2="58.904037"
       y2="43.141682" />
    <linearGradient
       inkscape:collect="always"
       xlink:href="#linearGradient2499"
       id="linearGradient3309"
       gradientUnits="userSpaceOnUse"
       gradientTransform="translate(8.5396649e-2,0.9175442)"
       x1="47.74028"
       y1="14.60055"
       x2="58.904037"
       y2="43.141682" />
    <linearGradient
       inkscape:collect="always"
       xlink:href="#linearGradient3337"
       id="linearGradient3335"
       gradientUnits="userSpaceOnUse"
       gradientTransform="translate(8.5396649e-2,0.9175442)"
       x1="47.74028"
       y1="14.60055"
       x2="58.904037"
       y2="43.141682" />
  </defs>
  <sodipodi:namedview
     id="base"
     showgrid="false"
     inkscape:zoom="5.5333333"
     inkscape:cx="42.379518"
     inkscape:cy="45"
     inkscape:window-width="689"
     inkscape:window-height="724"
     inkscape:window-x="0"
     inkscape:window-y="1"
     inkscape:current-layer="svg604" />
  <g
     id="g3287">
    <path
       transform="matrix(1.114903,0.000000,0.000000,1.114903,-5.305332,-3.889256)"
       sodipodi:nodetypes="ccccccccc"
       id="path794"
       d="M 12.8163 74.753 C 10.3856 73.6481 7.07107 70.1126 8.83884 65.2512 C 9.72267 59.948 25.6326 13.1021 29.1682 10.8924 C 31.3778 8.90368 34.582 8.13026 39.1119 9.34561 C 42.8684 10.2295 76.6769 19.0684 78.6656 20.8361 C 80.6544 22.6039 82.2012 24.0402 80.6544 27.9072 C 79.5496 29.8959 66.4017 74.532 66.1808 77.4047 C 65.2969 80.4983 62.7558 84.2548 58.5573 84.0338 C 54.3589 83.8128 15.9099 75.4159 12.8163 74.753 z "
       style="fill:#000000;fill-rule:evenodd;stroke:none;stroke-opacity:1;stroke-width:1pt;stroke-linejoin:miter;stroke-linecap:butt;fill-opacity:0.301471;" />
    <path
       transform="matrix(1.114903,0.000000,0.000000,1.114903,-8.162471,-8.460684)"
       sodipodi:nodetypes="ccccccccc"
       id="path609"
       d="M 12.8163 74.753 C 10.3856 73.6481 7.07107 70.1126 8.83884 65.2512 C 9.72267 59.948 25.6326 13.1021 29.1682 10.8924 C 31.3778 8.90368 34.582 8.13026 39.1119 9.34561 C 42.8684 10.2295 76.6769 19.0684 78.6656 20.8361 C 80.6544 22.6039 82.2012 24.0402 80.6544 27.9072 C 79.5496 29.8959 66.4017 74.532 66.1808 77.4047 C 65.2969 80.4983 62.7558 84.2548 58.5573 84.0338 C 54.3589 83.8128 15.9099 75.4159 12.8163 74.753 z "
       style="fill:#3d4e67;fill-rule:evenodd;stroke:none;stroke-opacity:1;stroke-width:1pt;stroke-linejoin:miter;stroke-linecap:butt;fill-opacity:1;" />
    <path
       transform="matrix(1.114903,0.000000,0.000000,1.114903,-8.162471,-8.460684)"
       sodipodi:nodetypes="cccccccs"
       id="path608"
       d="M 17.8987 70.9965 C 15.3576 70.3336 11.7114 69.6706 13.0373 65.6932 C 15.468 55.9705 27.8424 18.6264 33.1456 13.986 C 34.361 12.8811 38.4489 12.4392 46.1829 14.8699 C 55.0218 17.5215 72.9204 23.4877 74.6882 24.3716 C 76.4559 25.2555 77.1189 25.2555 75.793 29.233 C 73.8043 33.2105 64.9655 67.24 62.7557 72.9852 C 61.209 77.0732 60.8775 78.9514 58.2258 78.9514 "
       style="fill:#ffffff;fill-rule:evenodd;stroke:none;stroke-opacity:1;stroke-width:1pt;stroke-linejoin:miter;stroke-linecap:butt;fill-opacity:1;" />
    <path
       transform="matrix(0.946780,0.000000,0.000000,0.946780,-0.480566,0.409517)"
       id="path636"
       d="M 28.75 13.75 C 28.75 13.75 31.875 7.49995 39.6875 9.37495 C 47.5 11.25 78.125 19.375 77.8125 21.875 C 77.5 24.375 71.875 39.0625 71.5625 40.3125 C 71.25 41.5625 42.5 40.9375 31.5625 47.5 C 20.625 54.0625 12.5 59.6875 12.5 59.6875 C 12.5 59.6875 23.75 24.6875 28.75 13.75 z "
       style="fill:url(#linearGradient615);fill-rule:evenodd;stroke:none;stroke-opacity:1;stroke-width:1pt;stroke-linejoin:miter;stroke-linecap:butt;fill-opacity:1;" />
    <path
       transform="translate(1.135645,0.851736)"
       id="path671"
       d="M 29.2429 15.8991 L 69.8423 26.6877 "
       style="fill:none;fill-rule:evenodd;stroke:#42667e;stroke-opacity:1;stroke-width:1pt;stroke-linejoin:miter;stroke-linecap:butt;fill-opacity:1;" />
    <path
       transform="matrix(0.999855,-1.703691e-2,1.703691e-2,0.999855,-0.705041,5.077353)"
       id="path672"
       d="M 27.8233 19.306 L 67.8549 30.9464 "
       style="fill:none;fill-rule:evenodd;stroke:#42667e;stroke-opacity:1;stroke-width:1pt;stroke-linejoin:miter;stroke-linecap:butt;fill-opacity:1;" />
    <path
       transform="translate(-5.394323,17.03470)"
       id="path673"
       d="M 29.2429 15.8991 L 69.8423 26.6877 "
       style="fill:none;fill-rule:evenodd;stroke:#42667e;stroke-opacity:1;stroke-width:1pt;stroke-linejoin:miter;stroke-linecap:butt;fill-opacity:1;" />
    <path
       transform="translate(-11.35647,34.06940)"
       id="path675"
       d="M 29.2429 15.8991 L 69.8423 26.6877 "
       style="fill:none;fill-rule:evenodd;stroke:#42667e;stroke-opacity:1;stroke-width:1pt;stroke-linejoin:miter;stroke-linecap:butt;fill-opacity:1;" />
    <path
       transform="matrix(0.999855,-1.703691e-2,1.703691e-2,0.999855,-13.19715,38.29502)"
       id="path676"
       d="M 27.8233 19.306 L 67.8549 30.9464 "
       style="fill:none;fill-rule:evenodd;stroke:#42667e;stroke-opacity:1;stroke-width:1pt;stroke-linejoin:miter;stroke-linecap:butt;fill-opacity:1;" />
    <path
       transform="matrix(0.999855,-1.703691e-2,1.703691e-2,0.999855,-7.235008,21.26032)"
       id="path674"
       d="M 27.8233 19.306 L 67.8549 30.9464 "
       style="fill:none;fill-rule:evenodd;stroke:#42667e;stroke-opacity:1;stroke-width:1pt;stroke-linejoin:miter;stroke-linecap:butt;fill-opacity:1;" />
    <path
       sodipodi:nodetypes="csc"
       id="path699"
       d="M 6.52997 44.858 C 1.51419 41.593 2.73854 34.2968 8.51734 34.1048 C 14.1459 33.634 18.9274 41.1672 15.6151 45.4258 "
       style="fill:none;fill-rule:evenodd;stroke:#414141;stroke-opacity:1;stroke-width:3.125;stroke-linejoin:round;stroke-linecap:round;fill-opacity:1;stroke-dasharray:none;" />
    <path
       transform="translate(3.690853,-9.369087)"
       sodipodi:nodetypes="csc"
       id="path701"
       d="M 6.52997 44.858 C 1.51419 41.593 2.73854 34.2968 8.51734 34.1048 C 14.1459 33.634 18.9274 41.1672 15.6151 45.4258 "
       style="fill:none;fill-rule:evenodd;stroke:#414141;stroke-opacity:1;stroke-width:3.125;stroke-linejoin:round;stroke-linecap:round;fill-opacity:1;stroke-dasharray:none;" />
    <path
       transform="translate(7.097792,-18.73817)"
       sodipodi:nodetypes="csc"
       id="path703"
       d="M 6.52997 44.858 C 1.51419 41.593 2.73854 34.2968 8.51734 34.1048 C 14.1459 33.634 18.9274 41.1672 15.6151 45.4258 "
       style="fill:none;fill-rule:evenodd;stroke:#414141;stroke-opacity:1;stroke-width:3.125;stroke-linejoin:round;stroke-linecap:round;fill-opacity:1;stroke-dasharray:none;" />
    <path
       transform="translate(7.097792,-19.30599)"
       sodipodi:nodetypes="csc"
       id="path704"
       d="M 5.67823 43.8643 C 2.08201 42.1608 2.73854 34.2968 8.51734 34.1048 C 14.1459 33.634 18.7854 40.4574 16.6088 45.4258 "
       style="fill:none;fill-rule:evenodd;stroke:#b9b9b9;stroke-opacity:1;stroke-width:0.75;stroke-linejoin:round;stroke-linecap:round;fill-opacity:1;stroke-dasharray:none;" />
    <path
       transform="translate(3.690853,-9.936905)"
       sodipodi:nodetypes="csc"
       id="path702"
       d="M 5.67823 43.8643 C 2.08201 42.1608 2.73854 34.2968 8.51734 34.1048 C 14.1459 33.634 18.7854 40.4574 16.6088 45.4258 "
       style="fill:none;fill-rule:evenodd;stroke:#b9b9b9;stroke-opacity:1;stroke-width:0.75;stroke-linejoin:round;stroke-linecap:round;fill-opacity:1;stroke-dasharray:none;" />
    <path
       transform="translate(0.000000,-0.567818)"
       sodipodi:nodetypes="csc"
       id="path700"
       d="M 5.67823 43.8643 C 2.08201 42.1608 2.73854 34.2968 8.51734 34.1048 C 14.1459 33.634 18.7854 40.4574 16.6088 45.4258 "
       style="fill:none;fill-rule:evenodd;stroke:#b9b9b9;stroke-opacity:1;stroke-width:0.75;stroke-linejoin:round;stroke-linecap:round;fill-opacity:1;stroke-dasharray:none;" />
  </g>
  <g
     id="g3315"
     transform="matrix(1.067484,0,0,1.067484,-1.3934401,-3.8658654)">
    <path
       id="text2507"
       d="m 46.744771,16.033573 17.192699,0 0,13.240354 c -2.3e-05,4.874557 -1.014457,8.721501 -3.043306,11.540846 -2.028887,2.819328 -5.493772,5.309302 -10.394666,7.469932 l -3.754727,-7.035174 c 3.056472,-1.422851 5.151212,-2.845694 6.284228,-4.268532 1.159342,-1.396498 1.804891,-3.056481 1.936648,-4.979954 l -8.2208766,0 0,-15.967472"
       style="font-size:80.9440155px;font-style:normal;font-variant:normal;font-weight:normal;font-stretch:normal;text-align:center;text-anchor:middle;fill:#000000;fill-opacity:0.29411765;stroke:none;font-family:Arial Black;-inkscape-font-specification:Arial Black"
       transform="matrix(0.9581869,0.286143,-0.286143,0.9581869,0,0)" />
    <path
       id="text2495"
       d="m 44.255448,13.381993 17.192699,0 0,13.240354 c -2.2e-05,4.874556 -1.014456,8.721501 -3.043306,11.540846 -2.028887,2.819327 -5.493772,5.309302 -10.394666,7.469931 l -3.754727,-7.035173 c 3.056472,-1.422852 5.151212,-2.845695 6.284228,-4.268533 1.159342,-1.396498 1.804891,-3.056481 1.936649,-4.979954 l -8.2208766,0 0,-15.967472"
       style="font-size:80.9440155px;font-style:normal;font-variant:normal;font-weight:normal;font-stretch:normal;text-align:center;text-anchor:middle;fill:url(#linearGradient3335);fill-opacity:1;stroke:none;font-family:Arial Black;-inkscape-font-specification:Arial Black"
       transform="matrix(0.9581869,0.286143,-0.286143,0.9581869,0,0)" />
  </g>
</svg>
