<?xml version="1.0" encoding="UTF-8" standalone="no"?>
<!-- Created with Sodipodi ("http://www.sodipodi.com/") -->
<svg
   xmlns:dc="http://purl.org/dc/elements/1.1/"
   xmlns:cc="http://web.resource.org/cc/"
   xmlns:rdf="http://www.w3.org/1999/02/22-rdf-syntax-ns#"
   xmlns:svg="http://www.w3.org/2000/svg"
   xmlns="http://www.w3.org/2000/svg"
   xmlns:xlink="http://www.w3.org/1999/xlink"
   xmlns:sodipodi="http://sodipodi.sourceforge.net/DTD/sodipodi-0.dtd"
   xmlns:inkscape="http://www.inkscape.org/namespaces/inkscape"
   id="svg548"
   sodipodi:version="0.32"
   width="72pt"
   height="72pt"
   sodipodi:docbase="/home/tweenk/GNUtoon/places"
   sodipodi:docname="gnome-mime-x-directory-nfs-server.svg"
   inkscape:version="0.45.1"
   inkscape:output_extension="org.inkscape.output.svg.inkscape">
  <metadata
     id="metadata31">
    <rdf:RDF>
      <cc:Work
         rdf:about="">
        <dc:format>image/svg+xml</dc:format>
        <dc:type
           rdf:resource="http://purl.org/dc/dcmitype/StillImage" />
      </cc:Work>
    </rdf:RDF>
  </metadata>
  <defs
     id="defs550">
    <linearGradient
       id="linearGradient734">
      <stop
         style="stop-color:#7fa8e3;stop-opacity:0.741176;"
         offset="0.000000"
         id="stop735" />
      <stop
         style="stop-color:#ffffff;stop-opacity:0.290196;"
         offset="1.000000"
         id="stop736" />
    </linearGradient>
    <linearGradient
       id="linearGradient714">
      <stop
         style="stop-color:#7fa8e3;stop-opacity:0.741176;"
         offset="0.000000"
         id="stop715" />
      <stop
         style="stop-color:#ffffff;stop-opacity:0.290196;"
         offset="1.000000"
         id="stop716" />
    </linearGradient>
    <linearGradient
       x1="0.00000000"
       y1="0.00000000"
       x2="1.00000000"
       y2="0.00000000"
       id="linearGradient632"
       gradientUnits="objectBoundingBox"
       spreadMethod="pad">
      <stop
         style="stop-color:#ffb700;stop-opacity:1;"
         offset="0.000000"
         id="stop633" />
      <stop
         style="stop-color:#ffd58f;stop-opacity:0;"
         offset="1.000000"
         id="stop634" />
    </linearGradient>
    <linearGradient
       id="linearGradient565">
      <stop
         style="stop-color:#7fa8e3;stop-opacity:0.741176;"
         offset="0.000000"
         id="stop566" />
      <stop
         style="stop-color:#ffffff;stop-opacity:0;"
         offset="1.000000"
         id="stop567" />
    </linearGradient>
    <linearGradient
       xlink:href="#linearGradient565"
       id="linearGradient568"
       x1="17.4567051"
       y1="66.1161575"
       x2="85.5157166"
       y2="39.7912674"
       gradientUnits="userSpaceOnUse"
       spreadMethod="pad" />
    <linearGradient
       inkscape:collect="always"
       xlink:href="#linearGradient632"
       id="linearGradient2497"
       gradientUnits="userSpaceOnUse"
       gradientTransform="matrix(1.472159,-0.3758807,0.436076,1.6305167,-109.31046,55.209883)"
       spreadMethod="pad"
       x1="85.6376572"
       y1="17.4438438"
       x2="73.9162979"
       y2="54.6281815" />
    <linearGradient
       inkscape:collect="always"
       xlink:href="#linearGradient632"
       id="linearGradient2499"
       gradientUnits="userSpaceOnUse"
       gradientTransform="matrix(1.9876152,-0.5074902,0.3229867,1.2076685,-140.78456,61.37568)"
       spreadMethod="pad"
       x1="60.6446152"
       y1="19.2956886"
       x2="35.3705750"
       y2="69.1427994" />
    <linearGradient
       inkscape:collect="always"
       xlink:href="#linearGradient714"
       id="linearGradient2501"
       gradientUnits="userSpaceOnUse"
       gradientTransform="scale(1.615491,0.619007)"
       spreadMethod="pad"
       x1="52.6992607"
       y1="118.880966"
       x2="27.7516518"
       y2="95.9015198" />
    <linearGradient
       inkscape:collect="always"
       xlink:href="#linearGradient734"
       id="linearGradient2503"
       gradientUnits="userSpaceOnUse"
       gradientTransform="matrix(1.615491,0,0,0.619007,7.394509e-8,-1.278808e-6)"
       spreadMethod="pad"
       x1="8.76167965"
       y1="64.3047867"
       x2="27.9378262"
       y2="87.7629700" />
    <linearGradient
       inkscape:collect="always"
       xlink:href="#linearGradient714"
       id="linearGradient2505"
       gradientUnits="userSpaceOnUse"
       gradientTransform="matrix(1.066005,0,0,0.938082,7.394509e-8,-1.278808e-6)"
       spreadMethod="pad"
       x1="21.6558495"
       y1="86.0028992"
       x2="33.8251724"
       y2="57.5816307" />
    <linearGradient
       inkscape:collect="always"
       xlink:href="#linearGradient714"
       id="linearGradient2507"
       gradientUnits="userSpaceOnUse"
       gradientTransform="scale(1.519424,0.658144)"
       spreadMethod="pad"
       x1="43.4018326"
       y1="124.642860"
       x2="42.5384789"
       y2="116.731438" />
    <linearGradient
       inkscape:collect="always"
       xlink:href="#linearGradient714"
       id="linearGradient2509"
       gradientUnits="userSpaceOnUse"
       gradientTransform="matrix(1.519424,0,0,0.658144,7.394509e-8,-1.278808e-6)"
       spreadMethod="pad"
       x1="42.1643028"
       y1="103.865761"
       x2="46.2594757"
       y2="115.265465" />
  </defs>
  <sodipodi:namedview
     id="base"
     inkscape:zoom="2.2611111"
     inkscape:cx="-3.2324292"
     inkscape:cy="11.610021"
     inkscape:window-width="795"
     inkscape:window-height="619"
     inkscape:window-x="114"
     inkscape:window-y="74"
     inkscape:current-layer="svg548" />
  <path
     style="fill:#000000;fill-rule:evenodd;stroke:none;stroke-opacity:1;stroke-width:1pt;stroke-linejoin:miter;stroke-linecap:butt;fill-opacity:0.3;"
     d="M 3.31456 15.5328 L 12.1534 74.532 C 12.1534 74.532 46.1829 86.9064 50.3814 87.3483 C 56.1266 88.4532 68.28 88.0112 76.8979 80.0563 C 81.3173 72.3223 84.8528 38.0719 83.969 24.1506 C 84.4109 18.4054 81.0963 14.4279 77.3398 12.4392 C 73.5833 10.4504 64.9655 5.81006 28.9472 4.26326 L 3.31456 15.5328 z "
     id="path571"
     sodipodi:nodetypes="cccccccc"
     transform="translate(2.651654,1.767769)" />
  <path
     style="fill:#3d4e67;fill-rule:evenodd;stroke:none;stroke-opacity:1;stroke-width:1pt;stroke-linejoin:miter;stroke-linecap:butt;fill-opacity:1;"
     d="M 3.31456 15.5328 L 12.1534 74.532 C 12.1534 74.532 46.1829 86.9064 50.3814 87.3483 C 56.1266 88.4532 68.28 88.0112 76.8979 80.0563 C 81.3173 72.3223 84.8528 38.0719 83.969 24.1506 C 84.4109 18.4054 81.0963 14.4279 77.3398 12.4392 C 73.5833 10.4504 64.9655 5.81006 28.9472 4.26326 L 3.31456 15.5328 z "
     id="path558"
     sodipodi:nodetypes="cccccccc"
     transform="translate(-2.872629,-1.767769)" />
  <path
     style="fill:#ffffff;fill-rule:evenodd;stroke:none;stroke-opacity:1;stroke-width:1pt;stroke-linejoin:miter;stroke-linecap:butt;fill-opacity:1;"
     d="M 8.17593 17.0796 L 56.1266 29.675 L 51.7072 83.1499 C 39.0382 79.7617 27.695 75.9315 15.6889 70.3336 L 8.17593 17.0796 z "
     id="path737"
     sodipodi:nodetypes="ccccc"
     transform="translate(-2.872629,-1.767769)" />
  <path
     style="fill:url(#linearGradient568);fill-rule:evenodd;stroke:none;stroke-opacity:1;stroke-width:1pt;stroke-linejoin:miter;stroke-linecap:butt;fill-opacity:0.741176;"
     d="M 8.17593 17.0796 L 56.1266 29.675 L 51.7072 83.1499 C 39.0382 79.7617 27.695 75.9315 15.6889 70.3336 L 8.17593 17.0796 z "
     id="path552"
     sodipodi:nodetypes="ccccc"
     transform="translate(-2.872629,-1.767769)" />
  <path
     style="fill:#ffffff;fill-rule:evenodd;stroke:none;stroke-opacity:1;stroke-width:1pt;stroke-linejoin:miter;stroke-linecap:butt;fill-opacity:1;"
     d="M 8.17593 17.3005 L 30.273 7.7988 C 36.6812 8.46171 44.6362 8.01976 57.8944 11.1134 C 72.4785 14.4279 78.8866 17.3006 79.1076 20.6151 C 79.3286 23.9297 68.0591 31.0008 56.3476 29.8959 C 44.6361 28.791 10.4503 17.3676 8.07215 17.1956 "
     id="path553"
     sodipodi:nodetypes="cccccc"
     transform="translate(-2.872629,-1.767769)" />
  <path
     style="fill:#fcffff;fill-rule:evenodd;stroke:none;stroke-opacity:1;stroke-width:1pt;stroke-linejoin:miter;stroke-linecap:butt;fill-opacity:1;"
     d="M 55.6066 29.7665 L 50.6024 83.1499 C 50.6024 83.1499 71.1527 83.1499 73.8043 77.1837 C 76.456 71.2175 80.8754 29.8959 80.6544 26.8023 C 80.4334 23.7087 79.0942 20.0694 79.0942 20.0694 C 79.0942 20.0694 74.1413 30.5711 55.6066 29.7665 z "
     id="path554"
     sodipodi:nodetypes="cccccc"
     transform="translate(-2.872629,-1.767769)" />
  <path
     style="fill:#3d4e67;fill-rule:evenodd;stroke:none;stroke-opacity:1;stroke-width:1pt;stroke-linejoin:miter;stroke-linecap:butt;fill-opacity:1;"
     d="M 58.2582 32.6647 C 58.0372 39.4412 57.8944 46.1004 57.6734 52.8769 C 66.9542 53.9817 72.7788 53.5677 79.9 49.0154 C 80.4892 41.7234 81.391 34.3153 81.9802 27.0233 C 73.215 32.4002 69.0121 33.254 58.2582 32.6647 z "
     id="path559"
     sodipodi:nodetypes="ccccc"
     transform="translate(-2.872629,-1.767769)" />
  <path
     style="fill:#e0f3f9;fill-rule:evenodd;stroke:none;stroke-opacity:1;stroke-width:1pt;stroke-linejoin:round;stroke-linecap:butt;fill-opacity:1;"
     d="M 59.2202 33.4314 C 71.5287 35.082 79.5373 30.0253 80.6422 28.6995 C 80.7704 30.2643 79.4067 38.1733 79.2505 39.1889 C 78.0005 39.8139 66.2836 44.6875 58.9992 42.2702 C 58.9993 38.2928 59.219 34.629 59.2202 33.4314 z "
     id="path555"
     sodipodi:nodetypes="ccccc"
     transform="translate(-2.872629,-1.767769)" />
  <path
     style="fill:#e0f3f9;fill-rule:evenodd;stroke:none;stroke-opacity:1;stroke-width:1pt;stroke-linejoin:miter;stroke-linecap:butt;fill-opacity:1;"
     d="M 59.0249 43.1541 L 58.7002 51.6939 C 59.1299 51.8111 73.8911 53.2039 78.5864 48.03 C 78.9636 43.8316 79.2103 41.7245 79.3286 40.0605 C 74.2463 42.0493 66.317 44.9219 59.0249 43.1541 z "
     id="path556"
     sodipodi:nodetypes="ccccc"
     transform="translate(-2.872629,-1.767769)" />
  <path
     style="fill:#004086;fill-rule:evenodd;stroke:none;stroke-opacity:1;stroke-width:1pt;stroke-linejoin:miter;stroke-linecap:butt;fill-opacity:1;"
     d="M 58.9992 62.8206 C 58.9992 63.8518 58.9992 64.883 58.9992 65.9142 C 64.5971 66.3561 69.9741 65.4722 75.1301 63.9254 C 75.2774 62.7469 75.4248 61.5684 75.5721 60.3899 C 70.0478 62.526 64.9654 63.1152 58.9992 62.8206 z "
     id="path557"
     sodipodi:nodetypes="ccccc"
     transform="translate(-2.091379,-5.674019)" />
  <path
     style="fill:#3d4e67;fill-rule:evenodd;stroke:none;stroke-opacity:1;stroke-width:1pt;stroke-linejoin:miter;stroke-linecap:butt;fill-opacity:1;"
     d="M 9.06251 16.7187 L 39.0625 25.4687 L 55.4688 29.6874 C 55.4688 29.6874 37.9688 26.0937 35.4688 25.6249 C 32.9688 25.1562 7.50001 17.8124 7.50001 17.8124 L 7.96876 16.5624 L 9.06251 16.7187 z "
     id="path560"
     transform="translate(-2.872629,-1.767769)" />
  <path
     style="fill:#3d4e67;fill-rule:evenodd;stroke:none;stroke-opacity:1;stroke-width:1pt;stroke-linejoin:miter;stroke-linecap:butt;fill-opacity:1;"
     d="M 78.7501 18.2811 C 78.5938 18.2811 75.6251 24.6875 70.1563 26.5625 C 64.6876 28.4375 56.5626 29.3749 56.5626 29.3749 C 56.5626 29.3749 64.5313 29.5312 67.3438 28.5937 C 70.1563 27.6562 75.0001 25.625 76.4063 23.2812 C 77.8126 20.9375 79.3751 19.5312 79.3751 19.5312 L 78.7501 18.2811 z "
     id="path561"
     sodipodi:nodetypes="ccccccc"
     transform="translate(-2.872629,-1.767769)" />
  <path
     style="fill:#3d4e67;fill-rule:evenodd;stroke:none;stroke-opacity:1;stroke-width:1pt;stroke-linejoin:miter;stroke-linecap:butt;fill-opacity:1;"
     d="M 51.2501 83.5937 C 51.1459 64.8958 54.948 52.9166 55.6251 30.7812 C 52.5001 47.9166 51.8751 65.3645 50.0001 82.6562 C 50.4168 82.9687 50.8334 83.2812 51.2501 83.5937 z "
     id="path562"
     sodipodi:nodetypes="cccc"
     transform="translate(-2.872629,-1.767769)" />
  <path
     style="fill:#398096;fill-rule:evenodd;stroke:none;stroke-opacity:1;stroke-width:1pt;stroke-linejoin:miter;stroke-linecap:butt;fill-opacity:1;"
     d="M 75.6251 60.1562 L 73.1251 58.4375 C 73.1251 58.4375 65.7813 60.3125 63.2813 60.3125 C 60.7813 60.3125 59.6876 60 59.6876 60 L 59.8438 61.7187 C 59.8438 61.7187 66.8751 63.2812 75.6251 60.1562 z "
     id="path563"
     transform="translate(-2.872629,-1.767769)" />
  <g
     id="g2450"
     transform="matrix(0.5900056,0,0,0.5900056,9.2850837,28.263148)">
    <path
       id="path783"
       style="font-size:12px;fill:#000009;fill-opacity:0.30147101;fill-rule:evenodd;stroke-width:1pt"
       d="M 7.8027045,25.3162 C 7.117573,25.236681 -2.9342372,22.07315 -2.73918,27.688512 C -2.5441216,33.303885 0.76390851,74.008701 4.9495938,79.0599 C 6.9004658,82.310887 11.489636,86.952234 19.003057,89.593058 C 25.106453,91.727781 60.728765,103.5271 63.409119,103.32438 C 66.089487,103.12176 71.791693,103.72619 72.221762,97.669739 C 72.65196,91.613155 74.799687,75.1881 74.577509,68.739937 C 73.697474,63.045136 76.363479,58.788622 69.306865,54.587708 C 64.633427,53.13244 16.901585,32.211083 14.323149,31.341342 C 11.744842,30.471471 9.6430858,30.16329 7.8027045,25.3162 z " />
    <path
       id="path2391"
       style="font-size:12px;fill:#593a28;fill-rule:evenodd;stroke-width:1pt"
       d="M -3.4842245,24.289648 C -4.1693497,24.210184 -14.221161,21.046642 -14.026103,26.662016 C -13.831048,32.277356 -5.947624,72.453585 -1.7619515,77.504673 C 0.18892049,80.75566 4.7780908,85.397007 12.291512,88.03783 C 18.394907,90.172554 57.768835,100.4489 60.449202,100.24629 C 63.129557,100.04356 68.831763,100.64799 69.261832,94.591539 C 69.692043,88.535065 75.849233,53.756464 75.487805,52.573231 C 74.607757,46.878319 69.255911,41.569587 66.657646,40.526139 C 61.984208,39.07087 10.525062,21.951873 7.9466255,21.082133 C 5.3683234,20.212305 -1.7683147,21.57822 -3.4842245,24.289648 z " />
    <path
       id="path2393"
       style="font-size:12px;fill:#f1e36c;fill-rule:evenodd;stroke-width:1pt"
       d="M 7.3174143,25.544599 C 3.2378686,26.564432 3.953906,33.999462 -1.9988626,29.369906 C -5.5042012,27.595863 -10.343663,28.083917 -9.2795944,31.460301 C -8.5989232,35.419982 -2.8106339,73.892156 6.1505372,79.326026 C 15.129359,86.873509 59.990303,96.255248 61.15874,96.619111 C 62.327022,96.982882 64.745856,96.464565 64.710412,92.237361 C 64.674969,88.010156 71.468362,55.822562 70.583854,54.007812 C 70.244536,51.058029 68.737066,47.744343 64.467126,45.879333 C 60.197185,44.014324 8.6476189,25.356503 7.3174143,25.544599 z " />
    <path
       id="path2395"
       style="font-size:12px;fill:url(#linearGradient2497);fill-rule:evenodd;stroke-width:1pt"
       d="M 8.7555974,29.760572 C 17.118419,32.412204 63.606982,49.278953 65.719764,51.977963 C 67.832559,54.677083 60.883874,90.309653 60.983627,91.177203 C 61.083392,92.044864 49.546337,61.778195 44.85294,60.149349 C 40.159557,58.520615 20.474625,53.488523 18.102463,48.533684 C 15.7303,43.578845 3.8224857,32.811355 6.8622799,28.970239" />
    <path
       id="path2397"
       style="font-size:12px;fill:#593a28;fill-rule:evenodd;stroke-width:1pt"
       d="M 59.624443,92.991858 C 52.346046,78.679319 50.446428,68.975475 46.965561,64.177523 C 43.78639,60.042054 42.859696,59.82052 38.629814,58.302644 C 31.457735,56.671608 17.173591,52.259818 16.732484,50.382369 C 13.608573,50.647702 15.320321,38.912197 7.6672436,35.056781 C 2.6523225,32.591745 -10.257264,26.129056 -10.257264,26.129056 L -2.1363665,26.215187 C 0.78341085,28.094715 13.653094,34.210362 14.941229,35.61524 C 17.499591,36.311646 16.27575,44.451313 18.792042,46.740693 C 21.286211,50.796512 41.917492,55.545136 43.589179,56.366808 C 45.260725,57.1885 48.763715,60.220012 50.25124,63.360233 C 56.962007,77.371121 58.604575,87.076665 59.624443,92.991858 z " />
    <path
       id="path635"
       style="font-size:12px;fill:url(#linearGradient2499);fill-rule:evenodd;stroke-width:1pt"
       d="M -8.7055051,33.086615 C -6.0538641,33.494455 4.1517581,38.181288 7.489042,41.52233 C 9.1945204,45.271417 8.2815466,53.062293 15.060062,56.59276 C 21.838564,60.123116 37.533825,61.185471 40.180012,64.801426 C 42.826211,68.417491 53.942551,90.062866 54.823639,92.182707 C 55.704598,94.302678 5.8629466,81.840498 3.6462515,76.418107 C 0.61368841,70.995628 -4.0341371,59.858505 -8.7055051,33.086615 z " />
    <g
       transform="matrix(0.666827,0,0,0.666827,-12.922403,43.077526)"
       id="g578">
      <defs
         id="defs697" />
      <sodipodi:namedview
         id="namedview599" />
      <path
         transform="matrix(0.994837,0,0,1.423897,-4.089137,-34.46167)"
         sodipodi:nodetypes="ccccccc"
         id="path780"
         d="M 5.08233,49.7833 C 3.68284,55.0129 4.49307,60.6846 5.52427,65.4723 C 15.3206,71.8067 29.5364,79.0251 42.8684,87.7903 C 58.5573,83.9601 75.358,81.2348 91.2679,78.9515 C 90.605,72.4697 90.384,66.4298 91.2679,60.169 C 87.9533,57.5173 49.4974,39.6186 46.4039,38.0719 C 26.7375,35.6412 5.3033,47.5736 5.08233,49.7833 z "
         style="font-size:12px;fill:#000000;fill-opacity:0.3;fill-rule:evenodd;stroke-width:1pt" />
      <path
         transform="matrix(0.994837,0,0,1.423897,-1.745386,-40.08667)"
         sodipodi:nodetypes="ccccccc"
         id="path726"
         d="M 5.08233,49.7833 C 3.68284,55.0129 4.49307,60.6846 5.52427,65.4723 C 15.3206,71.8067 29.5364,79.0251 42.8684,87.7903 C 58.5573,83.9601 75.358,81.2348 91.2679,78.9515 C 90.605,72.4697 90.384,66.4298 91.2679,60.169 C 87.9533,57.5173 49.4974,39.6186 46.4039,38.0719 C 26.7375,35.6412 5.3033,47.5736 5.08233,49.7833 z "
         style="font-size:12px;fill:#3d4e67;fill-rule:evenodd;stroke-width:1pt" />
      <path
         transform="matrix(0.994837,0,0,1.423897,-1.745386,-40.08667)"
         sodipodi:nodetypes="ccccccc"
         id="path727"
         d="M 9.50172,52.4349 C 9.64904,55.6022 9.79637,58.7694 9.94369,61.9367 C 9.94369,61.9367 43.5313,82.266 43.3103,82.266 C 43.0893,82.266 85.5157,74.0901 85.5157,74.0901 C 85.5157,70.4072 85.5157,66.7244 85.5157,63.0415 C 72.2575,56.2651 58.9992,49.4886 45.741,42.7122 C 34.3242,41.0918 20.6976,44.3327 9.50172,52.4349 z "
         style="font-size:12px;fill:#ffffff;fill-rule:evenodd;stroke-width:1pt" />
      <path
         transform="matrix(0.994837,0,0,1.423897,-1.745386,-40.08667)"
         sodipodi:nodetypes="ccccc"
         id="path702"
         d="M 9.94369,51.772 C 22.9073,59.0641 31.2306,63.9254 44.1942,71.2174 C 57.5997,66.8717 71.0053,62.7469 85.7367,62.8205 C 70.2687,54.7183 61.2089,50.8145 45.7409,42.7122 C 33.2929,40.5762 20.8449,45.0692 9.94369,51.772 z "
         style="font-size:12px;fill:url(#linearGradient2501);fill-rule:evenodd;stroke-width:1pt" />
      <path
         transform="matrix(0.994837,0,0,1.423897,-1.745386,-40.08667)"
         sodipodi:nodetypes="ccccc"
         id="path718"
         d="M 9.94369,51.772 C 22.9073,59.0641 31.2306,63.9254 44.1942,71.2174 C 57.5997,66.8717 71.0053,62.7469 85.7367,62.8205 C 70.2687,54.7183 61.2089,50.8145 45.7409,42.7122 C 33.2929,40.5762 20.8449,45.0692 9.94369,51.772 z "
         style="font-size:12px;fill:url(#linearGradient2503);fill-rule:evenodd;stroke-width:1pt" />
      <path
         transform="matrix(0.994837,0,0,1.423897,-1.745386,-40.08667)"
         sodipodi:nodetypes="ccccc"
         id="path720"
         d="M 9.72272,52.8769 C 20.6976,59.2114 31.0096,65.104 42.6474,71.8804 C 42.7211,75.2686 42.7947,78.6568 42.8684,82.045 C 31.8198,75.4159 20.7713,68.7868 9.72272,62.1577 C 9.05981,59.2851 8.83884,55.9705 9.72272,52.8769 z "
         style="font-size:12px;fill:url(#linearGradient2505);fill-rule:evenodd;stroke-width:1pt" />
      <path
         transform="matrix(0.994837,0,0,1.423897,-1.745386,-40.08667)"
         id="path722"
         d="M 43.9732,72.3223 L 44.1942,81.3821 L 85.2948,73.6482 L 84.8528,63.4835 L 43.9732,72.3223 z "
         style="font-size:12px;fill:url(#linearGradient2507);fill-rule:evenodd;stroke-width:1pt" />
      <path
         transform="matrix(0.994837,0,0,1.423897,-1.745386,-40.08667)"
         sodipodi:nodetypes="ccccc"
         id="path724"
         d="M 44.1942,73.2062 C 44.1942,75.9315 44.1942,78.6568 44.1942,81.3821 C 57.8944,78.8041 71.5946,76.2262 85.2948,73.6482 C 85.1475,70.26 85.663,66.6507 85.5157,63.2625 C 68.4273,64.7356 53.1067,68.6395 44.1942,73.2062 z "
         style="font-size:12px;fill:url(#linearGradient2509);fill-rule:evenodd;stroke-width:1pt" />
      <path
         transform="matrix(0.994837,0,0,1.423897,-1.745386,-40.08667)"
         id="path728"
         d="M 8.61787,51.772 L 43.3103,71.2175 L 43.0893,83.1499"
         style="font-size:12px;fill:none;fill-rule:evenodd;stroke:#3d4e67;stroke-width:2" />
      <path
         transform="matrix(0.994837,0,0,1.423897,-1.745386,-40.08667)"
         sodipodi:nodetypes="cc"
         id="path729"
         d="M 43.5313,71.6594 C 58.41,66.3561 70.4161,64.1464 86.1787,62.5996"
         style="font-size:12px;fill:none;fill-rule:evenodd;stroke:#3d4e67;stroke-width:2" />
      <path
         sodipodi:nodetypes="ccccccccc"
         transform="matrix(0.859958,-0.246416,0.212199,0.998628,-8.377747,10.1903)"
         id="path758"
         d="M 47.0668,64.1464 C 45.8426,64.1464 44.8571,65.1319 44.8571,66.3561 L 44.5634,68.7146 C 44.5634,69.9388 45.5489,70.9243 46.7731,70.9243 L 51.6713,70.7121 C 52.8337,70.594 53.5011,70.4665 53.7225,68.7762 L 54.0887,66.1875 C 54.0887,64.9633 53.36,64.0412 52.1359,64.0412 L 47.0668,64.1464 z "
         style="font-size:12px;fill:#810b0b;fill-opacity:1;fill-rule:evenodd;stroke-width:1pt" />
      <path
         sodipodi:nodetypes="ccccccccc"
         transform="matrix(0.758064,-0.223914,0.203866,0.800327,-3.183137,22.06495)"
         id="path759"
         d="M 47.0668,64.1464 C 45.8426,64.1464 44.8571,65.1319 44.8571,66.3561 L 44.5634,68.7146 C 44.5634,69.9388 45.5489,70.9243 46.7731,70.9243 L 51.6713,70.7121 C 52.8337,70.594 53.5011,70.4665 53.7225,68.7762 L 54.0887,66.1875 C 54.0887,64.9633 53.36,64.0412 52.1359,64.0412 L 47.0668,64.1464 z "
         style="font-size:12px;fill:#d01111;fill-opacity:1;fill-rule:evenodd;stroke-width:1pt" />
      <path
         id="path584"
         d="M 61.6088,38.1861 C 61.6088,44.69 53.5957,49.9685 43.7224,49.9685 C 33.8491,49.9685 25.836,44.69 25.836,38.1861 C 25.836,31.6823 33.8491,26.4038 43.7224,26.4038 C 53.5957,26.4038 61.6088,31.6823 61.6088,38.1861 z "
         style="font-size:12px;fill:none;fill-rule:evenodd;stroke:#3d4e67;stroke-width:2.875"
         transform="translate(1.987381,3.406944)" />
      <path
         sodipodi:nodetypes="ccc"
         id="path587"
         d="M 62.7445,72.9653 C 62.4606,68.4227 62.1766,63.8801 61.8927,59.3375 C 68.9905,55.3628 76.3723,53.9432 84.0379,55.0789"
         style="fill:none;fill-opacity:1;fill-rule:evenodd;stroke:#3d4e67;stroke-width:1.25;stroke-linecap:butt;stroke-linejoin:miter;stroke-dasharray:none;stroke-opacity:1" />
      <path
         sodipodi:nodetypes="cc"
         id="path588"
         d="M 67.0032,56.7823 L 68.1388,70.9779"
         style="fill:none;fill-opacity:1;fill-rule:evenodd;stroke:#3d4e67;stroke-width:1.25;stroke-linecap:butt;stroke-linejoin:miter;stroke-dasharray:none;stroke-opacity:1" />
      <path
         sodipodi:nodetypes="cc"
         id="path589"
         d="M 72.6814,55.0789 L 73.5332,69.2745"
         style="fill:none;fill-opacity:1;fill-rule:evenodd;stroke:#3d4e67;stroke-width:1.25;stroke-linecap:butt;stroke-linejoin:miter;stroke-dasharray:none;stroke-opacity:1" />
      <path
         sodipodi:nodetypes="cc"
         id="path590"
         d="M 78.6435,54.2271 L 78.9274,67.2871"
         style="fill:none;fill-opacity:1;fill-rule:evenodd;stroke:#3d4e67;stroke-width:1.25;stroke-linecap:butt;stroke-linejoin:miter;stroke-dasharray:none;stroke-opacity:1" />
    </g>
  </g>
</svg>
