<?xml version="1.0" encoding="UTF-8" standalone="no"?>
<!-- Created with Inkscape (http://www.inkscape.org/) -->

<svg
   xmlns:dc="http://purl.org/dc/elements/1.1/"
   xmlns:cc="http://creativecommons.org/ns#"
   xmlns:rdf="http://www.w3.org/1999/02/22-rdf-syntax-ns#"
   xmlns:svg="http://www.w3.org/2000/svg"
   xmlns="http://www.w3.org/2000/svg"
   xmlns:xlink="http://www.w3.org/1999/xlink"
   xmlns:sodipodi="http://sodipodi.sourceforge.net/DTD/sodipodi-0.dtd"
   xmlns:inkscape="http://www.inkscape.org/namespaces/inkscape"
   width="90"
   height="90"
   id="svg2"
   sodipodi:version="0.32"
   inkscape:version="0.46+devel r21383"
   version="1.0"
   sodipodi:docname="computer-laptop.svg"
   inkscape:output_extension="org.inkscape.output.svg.inkscape">
  <defs
     id="defs4">
    <linearGradient
       inkscape:collect="always"
       id="linearGradient1042">
      <stop
         style="stop-color:#ffffff;stop-opacity:1;"
         offset="0"
         id="stop1044" />
      <stop
         style="stop-color:#bbd1f0;stop-opacity:1"
         offset="1"
         id="stop1046" />
    </linearGradient>
    <linearGradient
       inkscape:collect="always"
       xlink:href="#linearGradient1042"
       id="linearGradient1040"
       x1="50.535713"
       y1="69.285713"
       x2="50.535713"
       y2="79.107147"
       gradientUnits="userSpaceOnUse"
       gradientTransform="matrix(0.94836431,0,0,0.94836431,2.3257765,2.3247426)" />
    <linearGradient
       inkscape:collect="always"
       xlink:href="#linearGradient1042"
       id="linearGradient1048"
       x1="35"
       y1="60.714287"
       x2="34.107143"
       y2="83.98909"
       gradientUnits="userSpaceOnUse"
       gradientTransform="matrix(0.94836431,0,0,0.94836431,2.3257765,2.3247426)" />
    <linearGradient
       id="linearGradient724">
      <stop
         id="stop725"
         offset="0.000000"
         style="stop-color:#ffffff;stop-opacity:0.490196;" />
      <stop
         id="stop726"
         offset="1.000000"
         style="stop-color:#ffffff;stop-opacity:0.176471;" />
    </linearGradient>
    <linearGradient
       inkscape:collect="always"
       xlink:href="#linearGradient724"
       id="linearGradient1377"
       gradientUnits="userSpaceOnUse"
       gradientTransform="matrix(0.94836431,0,0,0.94836431,2.5135687,5.3327949)"
       x1="33.567039"
       y1="19.811888"
       x2="40.425854"
       y2="33.503941" />
  </defs>
  <sodipodi:namedview
     id="base"
     pagecolor="#ffffff"
     bordercolor="#666666"
     borderopacity="1.0"
     gridtolerance="10000"
     guidetolerance="10"
     objecttolerance="10"
     inkscape:pageopacity="0.0"
     inkscape:pageshadow="2"
     inkscape:zoom="5.6"
     inkscape:cx="34.564062"
     inkscape:cy="46.243622"
     inkscape:document-units="px"
     inkscape:current-layer="layer1"
     showgrid="false"
     inkscape:window-width="1024"
     inkscape:window-height="737"
     inkscape:window-x="0"
     inkscape:window-y="1" />
  <metadata
     id="metadata7">
    <rdf:RDF>
      <cc:Work
         rdf:about="">
        <dc:format>image/svg+xml</dc:format>
        <dc:type
           rdf:resource="http://purl.org/dc/dcmitype/StillImage" />
        <dc:title />
        <cc:license
           rdf:resource="http://creativecommons.org/licenses/by-sa/3.0/" />
      </cc:Work>
      <cc:License
         rdf:about="http://creativecommons.org/licenses/by-sa/3.0/">
        <cc:permits
           rdf:resource="http://creativecommons.org/ns#Reproduction" />
        <cc:permits
           rdf:resource="http://creativecommons.org/ns#Distribution" />
        <cc:requires
           rdf:resource="http://creativecommons.org/ns#Notice" />
        <cc:requires
           rdf:resource="http://creativecommons.org/ns#Attribution" />
        <cc:permits
           rdf:resource="http://creativecommons.org/ns#DerivativeWorks" />
        <cc:requires
           rdf:resource="http://creativecommons.org/ns#ShareAlike" />
      </cc:License>
    </rdf:RDF>
  </metadata>
  <g
     inkscape:label="Layer 1"
     inkscape:groupmode="layer"
     id="layer1">
    <path
       style="fill:#000000;fill-opacity:0.29411765;stroke-width:1px"
       d="m 7.0047311,58.285936 c -8.6368893,4.064418 -6.26597844,4.741821 -4.0644183,8.80624 2.2015599,4.064419 13.8867642,21.676899 29.8057362,22.0156 C 48.665022,89.446478 78.132055,82.333745 84.567385,75.221013 91.002714,68.108281 60.350224,54.560219 53.576194,54.221518 46.802163,53.882816 15.133569,58.455286 7.0047311,58.285936 z"
       id="path228"
       sodipodi:nodetypes="cssssc" />
    <path
       sodipodi:type="inkscape:offset"
       inkscape:radius="5.6189842"
       inkscape:original="M 53.40625 3.59375 C 41.899903 3.4985352 6.7981653 7.8734583 5.1875 13.03125 C 2.4046681 21.942641 7.0983662 48.264957 9.59375 59.59375 C 9.7198927 59.758677 9.9978494 60.128474 10.1875 60.375 C 10.28083 61.855074 9.6564799 63.330724 10.21875 64.78125 C 20.863554 78.108007 28.952906 83.18106 32.6875 83.40625 C 43.068801 84.032226 72.321428 79.816964 85 69.28125 C 85.884221 68.065443 86.162605 67.390598 86.40625 64.90625 C 86.40865 64.88199 86.40385 64.86836 86.40625 64.84375 C 86.49834 64.529372 86.49755 64.227604 86.40625 63.9375 C 85.222034 60.174673 69.629464 47.504464 60.34375 45.71875 C 53.683483 45.052723 25.626868 52.461055 13.3125 57.0625 C 26.763594 49.290088 48.531752 43.70377 59.09375 43.40625 C 61.772322 33.049107 61.245536 5.7232143 56.78125 3.9375 C 56.223214 3.7142857 55.050014 3.6073521 53.40625 3.59375 z M 10.375 60.625 C 13.362838 64.49037 22.372696 75.668835 31.65625 79.84375 C 29.445619 79.317147 27.315152 78.488068 25 76.96875 C 21.161839 74.449957 13.849068 68.779641 10.375 60.625 z M 85.8125 65.875 C 78.874556 76.409117 45.741824 81.301303 42.84375 81.0625 C 42.694728 81.050221 42.584195 81.042878 42.4375 81.03125 C 55.8195 79.244999 81.401908 71.361358 85.8125 65.875 z "
       style="fill:#3d4e67;fill-opacity:1;stroke-width:1px"
       id="path1032"
       d="M 53.4375,-2.03125 C 46.924976,-2.085141 35.368882,-0.96338267 24.65625,0.8125 19.299934,1.7004413 14.24262,2.7370333 10.125,4 8.0661898,4.6314833 6.2730489,5.2815885 4.59375,6.1875 2.9144511,7.0934115 0.84564436,8.0353386 -0.1875,11.34375 c -2.1285763,6.816285 -1.1374446,15.389497 0.03125,24.75 1.1686946,9.360503 2.9648515,18.884304 4.25,24.71875 a 5.6195461,5.6195461 0 0 0 0.25,0.78125 c -0.2357547,0.868683 -0.441103,2.468452 0.625,5.21875 a 5.6195461,5.6195461 0 0 0 0.875,1.46875 c 5.538591,6.934037 10.461883,11.830781 14.75,15.15625 4.288117,3.325469 7.595553,5.311994 11.75,5.5625 6.263552,0.377682 16.225331,-0.605377 26.875,-3 10.649669,-2.394623 21.685261,-6.016186 29.375,-12.40625 a 5.6195461,5.6195461 0 0 0 0.9375,-1 c 0.999463,-1.374265 1.854398,-3.714286 2.25,-6.15625 l 0.03125,0 c 0.03042,-0.103834 0.0056,-0.23584 0.03125,-0.34375 0.03042,-0.217283 0.13485,-0.406795 0.15625,-0.625 0.09496,-0.959866 0.0873,-0.988941 0,-0.09375 l -0.03125,0 c 0.135869,-1.025649 0.126743,-2.126499 -0.1875,-3.125 -1.084975,-3.44749 -2.669183,-4.514166 -4.6875,-6.5 -2.018317,-1.985834 -4.554237,-4.118961 -7.34375,-6.1875 -4.475186,-3.318536 -9.405792,-6.4607 -14.53125,-8.25 1.053326,-6.103317 1.311337,-13.769503 1,-21.09375 -0.186379,-4.384606 -0.56808,-8.514434 -1.3125,-12 -0.37221,-1.7427828 -0.808186,-3.3203805 -1.53125,-4.875 -0.723064,-1.5546195 -1.665557,-3.49122268 -4.5,-4.625 -2.504925,-1.0019694 -3.572191,-0.7345646 -5.4375,-0.75 z"
       transform="matrix(0.94836431,0,0,0.94836431,2.1564258,2.8327949)" />
    <path
       style="fill:url(#linearGradient1040);fill-opacity:1;stroke-width:1px"
       d="M 52.805007,6.2409792 C 41.892798,6.1506809 8.6035632,10.299702 7.0760657,15.191167 4.4369272,23.642412 8.888263,48.605557 11.254795,59.349381 13.516353,62.306292 26.888236,79.943298 38.219672,80.052512 49.864656,79.888811 85.881904,69.082942 84.113731,63.464605 82.990663,59.896074 68.190524,47.871631 59.384284,46.178124 53.067925,45.546488 26.468501,52.593455 14.789994,56.957301 27.546532,49.586223 48.182208,45.172747 58.198829,44.89059 60.203377,35.068246 60.239507,8.2604871 56.005737,6.5669794 55.476515,6.3552909 54.363894,6.2538789 52.805007,6.2409792 z"
       id="path187"
       sodipodi:nodetypes="csccscccsc" />
    <path
       d="m 16.19931,60.200487 1.811106,2.406921 5.573818,-2.034051 -3.316195,-2.18121 -4.068729,1.80834 z"
       style="font-size:12px;fill:#7a889e;fill-rule:evenodd;stroke-width:1"
       id="path660"
       sodipodi:nodetypes="ccccc" />
    <path
       d="m 21.840645,57.997012 3.461286,2.255906 9.180206,-2.618626 -3.682894,-2.181219 -8.958598,2.543939 z"
       style="font-size:12px;fill:#7a889e;fill-rule:evenodd;stroke-width:1"
       id="path661"
       sodipodi:nodetypes="ccccc" />
    <path
       d="m 33.013065,55.057589 4.030486,2.043951 8.706638,-2.731457 -2.708729,-2.2732 -10.028395,2.960706 z"
       style="font-size:12px;fill:#7a889e;fill-rule:evenodd;stroke-width:1"
       id="path662"
       sodipodi:nodetypes="ccccc" />
    <path
       d="m 45.269841,51.959525 2.525376,1.820163 8.706648,-2.409383 -1.791957,-2.014829 -9.440067,2.604049 z"
       style="font-size:12px;fill:#7a889e;fill-rule:evenodd;stroke-width:1"
       id="path663"
       sodipodi:nodetypes="ccccc" />
    <path
       d="m 63.558335,50.982553 8.93947,4.559005 -6.479354,2.484616 -3.03722,-1.254254 1.619862,-1.936288 -6.276908,-3.071665 5.23415,-0.781414 z"
       style="font-size:12px;fill:#7a889e;fill-rule:evenodd;stroke-width:1"
       id="path665"
       sodipodi:nodetypes="ccccccc" />
    <path
       d="M 56.906828,52.2236 18.840557,63.479197 c 0,0 9.743167,8.75245 12.715614,8.813513 4.11885,0.08462 10.616711,-1.671762 10.616711,-1.671762 l -2.726709,-3.167246 35.076445,-10.145534 -1.417368,-1.150747 -7.491773,2.567545 -3.847111,-2.1112 1.012396,-2.015367 -5.871934,-2.374799 z"
       style="font-size:12px;fill:#9b9a9a;fill-rule:evenodd;stroke-width:1"
       id="path666"
       sodipodi:nodetypes="ccscccccccc" />
    <g
       id="g4132"
       style="fill:#558ada;stroke:#558ada"
       transform="matrix(1.0880238,0.14164038,0,0.6744554,1.4936713,23.551912)">
      <path
         id="path668"
         style="font-size:12px;fill:#558ada;fill-rule:evenodd;stroke:#ffffff;stroke-width:0.829521"
         d="M 17.19537,58.8603 C 17.75595,58.62055 55.03456,33.44749 55.03456,33.44749" />
      <path
         id="path669"
         style="font-size:12px;fill:#558ada;fill-rule:evenodd;stroke:#ffffff;stroke-width:0.829521"
         d="M 21.68001,63.17568 56.9966,38.24236" />
      <path
         id="path671"
         style="font-size:12px;fill:#558ada;fill-rule:evenodd;stroke:#ffffff;stroke-width:0.829521"
         d="M 21.96031,50.70903 33.458261,65.321489"
         sodipodi:nodetypes="cc" />
      <path
         id="path672"
         style="font-size:12px;fill:#558ada;fill-rule:evenodd;stroke:#ffffff;stroke-width:0.829521"
         d="m 27.272047,47.419498 8.242952,9.781535"
         sodipodi:nodetypes="cc" />
      <path
         id="path673"
         style="font-size:12px;fill:#558ada;fill-rule:evenodd;stroke:#ffffff;stroke-width:0.829521"
         d="m 32.735789,44.190894 9.458821,9.758115"
         sodipodi:nodetypes="cc" />
      <path
         id="path674"
         style="font-size:12px;fill:#558ada;fill-rule:evenodd;stroke:#ffffff;stroke-width:0.829521"
         d="m 36.89278,40.737875 12.61306,9.58974" />
      <path
         id="path675"
         style="font-size:12px;fill:#558ada;fill-rule:evenodd;stroke:#ffffff;stroke-width:0.829521"
         d="m 46.06528,34.64621 10.37074,3.8359" />
      <path
         d="m 43.732098,36.61032 12.61306,9.58974"
         style="font-size:12px;fill:#558ada;fill-rule:evenodd;stroke:#ffffff;stroke-width:0.829521"
         id="path197" />
    </g>
    <path
       d="m 41.34274,67.763213 c 0,0 1.933664,2.785552 3.351034,2.325906 1.417356,-0.459631 33.068522,-9.138452 32.461078,-9.969035 -0.607433,-0.830588 -2.0248,-1.981333 -3.442158,-1.736415 -1.417359,0.244926 -31.560028,8.840823 -32.369954,9.379544 z"
       style="font-size:12px;fill:#9b9a9a;fill-rule:evenodd;stroke-width:1"
       id="path653"
       sodipodi:nodetypes="csssc" />
    <path
       style="fill:#7a889e;stroke-width:1px"
       d="m 48.521217,70.136562 6.07457,4.144847 14.249142,-3.932777 -6.929301,-3.993588 -13.394411,3.781518 z"
       id="path199"
       sodipodi:nodetypes="ccccc" />
    <path
       style="fill:#558ada;fill-opacity:1;stroke:#000000;stroke-width:0.66385495999999999;stroke-miterlimit:4;stroke-opacity:1;stroke-dasharray:none"
       d="m 13.718381,54.989453 c 0,0 -6.1472662,-33.968721 -3.263767,-37.592492 2.986195,-3.752832 40.474834,-9.8223445 43.861849,-8.1288369 3.387016,1.6935079 2.709613,31.9762539 2.20156,34.5165149 -17.95118,1.016105 -37.041715,8.833904 -42.799642,11.204814 z"
       id="path203"
       sodipodi:nodetypes="csscc" />
    <path
       style="fill:url(#linearGradient1048);fill-opacity:1;stroke-width:1px"
       d="m 11.809419,59.904004 c 0.158299,1.464255 -0.520328,2.931982 0.03602,4.367227 11.523724,15.852906 17.760425,17.970525 21.30218,18.184087 9.845255,0.593653 39.203012,-3.565586 49.619775,-13.914424 0.846752,-1.164287 1.100779,-1.799353 1.333637,-4.2126 C 79.020506,74.997391 45.6377,79.951822 42.800611,79.718044 35.584455,79.123431 31.284759,79.379342 25.865534,75.822975 22.159892,73.391147 15.027085,67.863489 11.809419,59.904004 z"
       id="path206"
       sodipodi:nodetypes="ccsccssc" />
    <path
       style="fill:url(#linearGradient1377);fill-opacity:1;stroke-width:1px"
       d="m 12.433206,40.275234 c 0.235477,8.316589 2.207705,12.690537 2.207705,12.690537 5.757926,-2.37091 23.077117,-9.074794 41.028297,-10.090898 0.366204,-1.831018 0.677984,-13.081247 0.113646,-21.627169 -10.545639,1.090962 -29.258635,7.906619 -43.349648,19.02753 z"
       id="path208"
       sodipodi:nodetypes="ccccc" />
  </g>
</svg>
