<?xml version="1.0" encoding="UTF-8" standalone="no"?>
<!DOCTYPE svg PUBLIC "-//W3C//DTD SVG 20010904//EN"
"http://www.w3.org/TR/2001/REC-SVG-20010904/DTD/svg10.dtd"
[
 <!ATTLIST svg
  xmlns:xlink CDATA #FIXED "http://www.w3.org/1999/xlink">
]>
<!-- Created with Sodipodi ("http://www.sodipodi.com/") -->
<svg
   id="svg548"
   sodipodi:version="0.32"
   xmlns="http://www.w3.org/2000/svg"
   xmlns:sodipodi="http://sodipodi.sourceforge.net/DTD/sodipodi-0.dtd"
   xmlns:xlink="http://www.w3.org/1999/xlink"
   width="72pt"
   height="72pt"
   sodipodi:docbase="/home/zeus/Desktop/icons/gartoon/svg"
   sodipodi:docname="/home/zeus/Desktop/icons/gartoon/svg/dadu.svg">
  <defs
     id="defs550">
    <linearGradient
       id="linearGradient574">
      <stop
         style="stop-color:#ffffff;stop-opacity:1;"
         offset="0.000000"
         id="stop575" />
      <stop
         style="stop-color:#173a7f;stop-opacity:1;"
         offset="1.000000"
         id="stop576" />
    </linearGradient>
    <linearGradient
       id="linearGradient565">
      <stop
         style="stop-color:#ffffff;stop-opacity:1;"
         offset="0.000000"
         id="stop566" />
      <stop
         style="stop-color:#000000;stop-opacity:1;"
         offset="1.000000"
         id="stop567" />
    </linearGradient>
    <linearGradient
       xlink:href="#linearGradient574"
       id="linearGradient568"
       x1="0.49044588"
       y1="0.00781182"
       x2="0.61783445"
       y2="-0.06250000"
       gradientUnits="objectBoundingBox"
       spreadMethod="pad" />
    <radialGradient
       xlink:href="#linearGradient565"
       id="radialGradient569"
       cx="54.2847137"
       cy="47.6432419"
       fx="54.2847137"
       fy="47.6432419"
       r="6.79547358"
       gradientUnits="userSpaceOnUse"
       spreadMethod="pad"
       gradientTransform="scale(1.020622,0.979795)" />
    <radialGradient
       xlink:href="#linearGradient565"
       id="radialGradient570"
       cx="0.51111370"
       cy="0.49218348"
       fx="0.51111370"
       fy="0.49218348"
       r="0.81770825"
       gradientUnits="objectBoundingBox"
       spreadMethod="pad" />
  </defs>
  <sodipodi:namedview
     id="base" />
  <path
     style="fill:#0f1725;fill-rule:evenodd;stroke:none;stroke-opacity:1;stroke-width:1pt;stroke-linejoin:miter;stroke-linecap:butt;fill-opacity:0.409091;"
     d="M 2.4977 31.9286 L 2.91398 72.308 L 41.0038 89.7919 L 77.0123 69.6022 L 77.2204 30.8878 L 39.3387 11.947 L 2.4977 31.9286 z "
     id="path612"
     sodipodi:nodetypes="ccccccc"
     transform="matrix(1.029333,0.000000,0.000000,1.067318,5.227965,-6.044512)" />
  <path
     style="fill:#0f1725;fill-rule:evenodd;stroke:none;stroke-opacity:1;stroke-width:1pt;stroke-linejoin:miter;stroke-linecap:butt;fill-opacity:1;"
     d="M 2.4977 31.9286 L 2.91398 72.308 L 41.0038 89.7919 L 77.0123 69.6022 L 77.2204 30.8878 L 39.3387 11.947 L 2.4977 31.9286 z "
     id="path590"
     sodipodi:nodetypes="ccccccc"
     transform="matrix(1.029333,0.000000,0.000000,1.067318,1.591873,-9.180679)" />
  <path
     transform="matrix(1.336202,0.000000,0.000000,1.264126,-24.64137,-2.879009)"
     style="font-size:12;fill:#98a5a9;fill-rule:evenodd;stroke-width:1pt;fill-opacity:1;"
     d="M 51.4109 67.3126 L 38.4947 60.3361 L 25.4183 53.3597 L 25.1623 38.6857 L 24.746 24.0117 L 37.2459 16.3142 L 49.7458 8.61674 L 62.6619 15.5932 L 75.5781 22.5697 L 75.9944 37.2436 L 75.9297 51.9176 L 63.9108 59.6151 L 51.4109 67.3126 z "
     id="path587"
     sodipodi:nodetypes="ccccccccccccc" />
  <path
     style="fill:#d6e2e6;fill-rule:evenodd;stroke:none;stroke-opacity:1;stroke-width:1pt;stroke-linejoin:miter;stroke-linecap:butt;fill-opacity:1;"
     d="M 6.66052 34.4263 L 41.0038 47.7473 L 41.212 85.2127 L 7.49309 68.9777 L 6.66052 34.4263 z "
     id="path588"
     sodipodi:nodetypes="ccccc"
     transform="matrix(1.029333,0.000000,0.000000,1.067318,1.591873,-9.180679)" />
  <path
     style="fill:#ffffff;fill-rule:evenodd;stroke:none;stroke-opacity:1;stroke-width:1pt;stroke-linejoin:miter;stroke-linecap:butt;fill-opacity:1;"
     d="M 6.45238 34.2181 L 40.7957 48.1636 L 72.4331 32.553 L 38.9224 16.1099 L 6.45238 34.2181 z "
     id="path589"
     sodipodi:nodetypes="ccccc"
     transform="matrix(1.029333,0.000000,0.000000,1.067318,1.591873,-9.180679)" />
  <g
     id="g594"
     transform="matrix(1.029333,0.000000,0.000000,1.067318,1.591873,-9.180679)">
    <path
       transform="matrix(1.162164,0.000000,0.000000,1.181819,-3.037749,-9.286861)"
       style="font-size:12;fill:#450000;fill-rule:evenodd;stroke-width:1pt;fill-opacity:1;"
       d="M 18.7327 48.788 C 18.7327 51.3157 17.0076 53.3671 14.8821 53.3671 C 12.7566 53.3671 11.0315 51.3157 11.0315 48.788 C 11.0315 46.2603 12.7566 44.2089 14.8821 44.2089 C 17.0076 44.2089 18.7327 46.2603 18.7327 48.788 z "
       id="path593" />
    <path
       transform="matrix(1.000000,0.000000,0.000000,1.022728,0.000000,-1.212902)"
       style="font-size:12;fill:#cf0000;fill-rule:evenodd;stroke-width:1pt;"
       d="M 18.7327 48.788 C 18.7327 51.3157 17.0076 53.3671 14.8821 53.3671 C 12.7566 53.3671 11.0315 51.3157 11.0315 48.788 C 11.0315 46.2603 12.7566 44.2089 14.8821 44.2089 C 17.0076 44.2089 18.7327 46.2603 18.7327 48.788 z "
       id="path592" />
  </g>
  <g
     id="g597"
     transform="matrix(1.029333,0.000000,0.000000,1.067318,9.519008,1.926994)">
    <path
       transform="matrix(1.162164,0.000000,0.000000,1.181819,-3.037749,-9.286861)"
       style="font-size:12;fill:#450000;fill-rule:evenodd;stroke-width:1pt;fill-opacity:1;"
       d="M 18.7327 48.788 C 18.7327 51.3157 17.0076 53.3671 14.8821 53.3671 C 12.7566 53.3671 11.0315 51.3157 11.0315 48.788 C 11.0315 46.2603 12.7566 44.2089 14.8821 44.2089 C 17.0076 44.2089 18.7327 46.2603 18.7327 48.788 z "
       id="path598" />
    <path
       transform="matrix(1.000000,0.000000,0.000000,1.022728,0.000000,-1.212902)"
       style="font-size:12;fill:#cf0000;fill-rule:evenodd;stroke-width:1pt;"
       d="M 18.7327 48.788 C 18.7327 51.3157 17.0076 53.3671 14.8821 53.3671 C 12.7566 53.3671 11.0315 51.3157 11.0315 48.788 C 11.0315 46.2603 12.7566 44.2089 14.8821 44.2089 C 17.0076 44.2089 18.7327 46.2603 18.7327 48.788 z "
       id="path599" />
  </g>
  <g
     id="g600"
     transform="matrix(1.029333,0.000000,0.000000,1.067318,19.16010,15.25616)">
    <path
       transform="matrix(1.162164,0.000000,0.000000,1.181819,-3.037749,-9.286861)"
       style="font-size:12;fill:#450000;fill-rule:evenodd;stroke-width:1pt;fill-opacity:1;"
       d="M 18.7327 48.788 C 18.7327 51.3157 17.0076 53.3671 14.8821 53.3671 C 12.7566 53.3671 11.0315 51.3157 11.0315 48.788 C 11.0315 46.2603 12.7566 44.2089 14.8821 44.2089 C 17.0076 44.2089 18.7327 46.2603 18.7327 48.788 z "
       id="path601" />
    <path
       transform="matrix(1.000000,0.000000,0.000000,1.022728,0.000000,-1.212902)"
       style="font-size:12;fill:#cf0000;fill-rule:evenodd;stroke-width:1pt;"
       d="M 18.7327 48.788 C 18.7327 51.3157 17.0076 53.3671 14.8821 53.3671 C 12.7566 53.3671 11.0315 51.3157 11.0315 48.788 C 11.0315 46.2603 12.7566 44.2089 14.8821 44.2089 C 17.0076 44.2089 18.7327 46.2603 18.7327 48.788 z "
       id="path602" />
  </g>
  <g
     id="g603"
     transform="matrix(1.082281,-5.807244e-2,1.426624e-2,1.145106,53.03043,-4.563904)">
    <path
       transform="matrix(1.162164,0.000000,0.000000,1.181819,-3.037749,-9.286861)"
       style="font-size:12;fill:#450000;fill-rule:evenodd;stroke-width:1pt;fill-opacity:1;"
       d="M 18.7327 48.788 C 18.7327 51.3157 17.0076 53.3671 14.8821 53.3671 C 12.7566 53.3671 11.0315 51.3157 11.0315 48.788 C 11.0315 46.2603 12.7566 44.2089 14.8821 44.2089 C 17.0076 44.2089 18.7327 46.2603 18.7327 48.788 z "
       id="path604" />
    <path
       transform="matrix(1.000000,0.000000,0.000000,1.022728,0.000000,-1.212902)"
       style="font-size:12;fill:#cf0000;fill-rule:evenodd;stroke-width:1pt;"
       d="M 18.7327 48.788 C 18.7327 51.3157 17.0076 53.3671 14.8821 53.3671 C 12.7566 53.3671 11.0315 51.3157 11.0315 48.788 C 11.0315 46.2603 12.7566 44.2089 14.8821 44.2089 C 17.0076 44.2089 18.7327 46.2603 18.7327 48.788 z "
       id="path605" />
  </g>
  <g
     id="g606"
     transform="matrix(1.082281,-5.599247e-2,1.426624e-2,1.104092,38.89016,3.388481)">
    <path
       transform="matrix(1.162164,0.000000,0.000000,1.181819,-3.037749,-9.286861)"
       style="font-size:12;fill:#450000;fill-rule:evenodd;stroke-width:1pt;fill-opacity:1;"
       d="M 18.7327 48.788 C 18.7327 51.3157 17.0076 53.3671 14.8821 53.3671 C 12.7566 53.3671 11.0315 51.3157 11.0315 48.788 C 11.0315 46.2603 12.7566 44.2089 14.8821 44.2089 C 17.0076 44.2089 18.7327 46.2603 18.7327 48.788 z "
       id="path607" />
    <path
       transform="matrix(1.000000,0.000000,0.000000,1.022728,0.000000,-1.212902)"
       style="font-size:12;fill:#cf0000;fill-rule:evenodd;stroke-width:1pt;"
       d="M 18.7327 48.788 C 18.7327 51.3157 17.0076 53.3671 14.8821 53.3671 C 12.7566 53.3671 11.0315 51.3157 11.0315 48.788 C 11.0315 46.2603 12.7566 44.2089 14.8821 44.2089 C 17.0076 44.2089 18.7327 46.2603 18.7327 48.788 z "
       id="path608" />
  </g>
  <g
     id="g609"
     transform="matrix(2.493807,-6.535231e-2,3.287249e-2,1.288657,5.114486,-35.72956)">
    <path
       transform="matrix(1.162164,0.000000,0.000000,1.181819,-3.037749,-9.286861)"
       style="font-size:12;fill:#450000;fill-rule:evenodd;stroke-width:1pt;fill-opacity:1;"
       d="M 18.7327 48.788 C 18.7327 51.3157 17.0076 53.3671 14.8821 53.3671 C 12.7566 53.3671 11.0315 51.3157 11.0315 48.788 C 11.0315 46.2603 12.7566 44.2089 14.8821 44.2089 C 17.0076 44.2089 18.7327 46.2603 18.7327 48.788 z "
       id="path610" />
    <path
       transform="matrix(1.000000,0.000000,0.000000,1.022728,0.000000,-1.212902)"
       style="font-size:12;fill:#cf0000;fill-rule:evenodd;stroke-width:1pt;"
       d="M 18.7327 48.788 C 18.7327 51.3157 17.0076 53.3671 14.8821 53.3671 C 12.7566 53.3671 11.0315 51.3157 11.0315 48.788 C 11.0315 46.2603 12.7566 44.2089 14.8821 44.2089 C 17.0076 44.2089 18.7327 46.2603 18.7327 48.788 z "
       id="path611" />
  </g>
</svg>
