<?xml version="1.0" encoding="UTF-8" standalone="no"?>
<!-- Created with Sodipodi ("http://www.sodipodi.com/") -->
<svg
   xmlns:dc="http://purl.org/dc/elements/1.1/"
   xmlns:cc="http://creativecommons.org/ns#"
   xmlns:rdf="http://www.w3.org/1999/02/22-rdf-syntax-ns#"
   xmlns:svg="http://www.w3.org/2000/svg"
   xmlns="http://www.w3.org/2000/svg"
   xmlns:xlink="http://www.w3.org/1999/xlink"
   xmlns:sodipodi="http://sodipodi.sourceforge.net/DTD/sodipodi-0.dtd"
   xmlns:inkscape="http://www.inkscape.org/namespaces/inkscape"
   id="svg548"
   sodipodi:version="0.32"
   width="72pt"
   height="72pt"
   sodipodi:docbase="/home/zeus"
   sodipodi:docname="media-optical-bd-r.svg"
   inkscape:version="0.46+devel"
   inkscape:output_extension="org.inkscape.output.svg.inkscape">
  <metadata
     id="metadata24">
    <rdf:RDF>
      <cc:Work
         rdf:about="">
        <dc:format>image/svg+xml</dc:format>
        <dc:type
           rdf:resource="http://purl.org/dc/dcmitype/StillImage" />
      </cc:Work>
    </rdf:RDF>
  </metadata>
  <defs
     id="defs550">
    <linearGradient
       inkscape:collect="always"
       id="linearGradient3261">
      <stop
         style="stop-color:#558ada;stop-opacity:1;"
         offset="0"
         id="stop3263" />
      <stop
         style="stop-color:#31baff;stop-opacity:1"
         offset="1"
         id="stop3265" />
    </linearGradient>
    <linearGradient
       id="linearGradient660">
      <stop
         style="stop-color:#ffff00;stop-opacity:1;"
         offset="0"
         id="stop661" />
      <stop
         style="stop-color:#ff0000;stop-opacity:1;"
         offset="1"
         id="stop662" />
    </linearGradient>
    <linearGradient
       id="linearGradient558">
      <stop
         style="stop-color:#ee8d92;stop-opacity:1;"
         offset="0"
         id="stop559" />
      <stop
         style="stop-color:#ffffff;stop-opacity:0;"
         offset="1.000000"
         id="stop560" />
    </linearGradient>
    <linearGradient
       xlink:href="#linearGradient558"
       id="linearGradient563"
       x1="23.9531670"
       y1="24.2094688"
       x2="45.7012291"
       y2="18.4172096"
       gradientUnits="userSpaceOnUse"
       gradientTransform="scale(0.986297,1.013893)"
       spreadMethod="pad" />
    <linearGradient
       inkscape:collect="always"
       xlink:href="#linearGradient558"
       id="linearGradient4204"
       gradientUnits="userSpaceOnUse"
       gradientTransform="scale(0.766548,1.30455)"
       spreadMethod="pad"
       x1="73.0144653"
       y1="38.8011742"
       x2="46.2984352"
       y2="43.8150940" />
    <linearGradient
       inkscape:collect="always"
       xlink:href="#linearGradient660"
       id="linearGradient5855"
       gradientUnits="userSpaceOnUse"
       gradientTransform="matrix(0.999999,0,0,1.000001,98.474823,-6.5943201)"
       x1="-18.038553"
       y1="20.085562"
       x2="-21.105526"
       y2="54.213623" />
    <linearGradient
       inkscape:collect="always"
       xlink:href="#linearGradient3261"
       id="linearGradient3267"
       x1="5.7739606"
       y1="40.776752"
       x2="75.16352"
       y2="40.776752"
       gradientUnits="userSpaceOnUse" />
  </defs>
  <sodipodi:namedview
     id="base"
     showgrid="false"
     inkscape:zoom="3.9126575"
     inkscape:cx="29.621762"
     inkscape:cy="40.350641"
     inkscape:window-width="954"
     inkscape:window-height="724"
     inkscape:window-x="60"
     inkscape:window-y="9"
     inkscape:current-layer="svg548" />
  <path
     id="path2421"
     d="M 50.147213,8.8878012 C 31.789583,8.9112875 13.972647,21.40043 8.1784639,39.481552 C 1.5565073,60.145794 13.133894,80.340435 34.022213,84.544052 C 54.910426,88.747648 77.244009,75.395796 83.865963,54.731552 C 90.487887,34.06741 78.910427,13.872648 58.022213,9.6690512 C 55.411173,9.1435989 52.769732,8.884446 50.147213,8.8878012 z M 44.084713,37.325302 C 44.643189,37.324609 45.216181,37.372966 45.772213,37.481552 C 50.220445,38.350237 52.682371,42.523759 51.272213,46.794052 C 49.862046,51.064365 45.095444,53.850237 40.647213,52.981552 C 36.19896,52.112862 33.737048,47.939366 35.147213,43.669052 C 36.381101,39.932544 40.175381,37.330154 44.084713,37.325302 z"
     style="font-size:12px;fill:#000000;fill-opacity:0.29411765;fill-rule:evenodd;stroke-width:1pt" />
  <path
     style="font-size:12;fill:#601432;fill-rule:evenodd;stroke-width:1pt;fill-opacity:1"
     d="M 44.90625 2.5625 C 26.54862 2.5859863 8.7316839 15.075128 2.9375 33.15625 C -3.6844565 53.820492 7.8929302 74.015133 28.78125 78.21875 C 49.669463 82.422346 72.003046 69.070494 78.625 48.40625 C 85.246924 27.742108 73.669464 7.5473465 52.78125 3.34375 C 50.17021 2.8182977 47.528769 2.5591448 44.90625 2.5625 z M 38.84375 31 C 39.402226 30.999307 39.975218 31.047664 40.53125 31.15625 C 44.979482 32.024935 47.441408 36.198457 46.03125 40.46875 C 44.621083 44.739063 39.854481 47.524935 35.40625 46.65625 C 30.957997 45.78756 28.496085 41.614064 29.90625 37.34375 C 31.140138 33.607242 34.934418 31.004852 38.84375 31 z "
     id="path613" />
  <path
     style="font-size:12;fill:url(#linearGradient3267);fill-rule:evenodd;stroke-width:1pt;fill-opacity:1"
     d="M 44.0625 7.25 C 28.016595 7.2706008 12.470783 18.23085 7.40625 34.09375 C 1.6181836 52.222866 11.710836 69.937087 29.96875 73.625 C 48.226569 77.312896 67.743181 65.597864 73.53125 47.46875 C 79.319288 29.339722 69.226567 11.625396 50.96875 7.9375 C 48.686511 7.4765106 46.354772 7.247057 44.0625 7.25 z M 39.65625 26.3125 C 40.524333 26.311395 41.385716 26.38945 42.25 26.5625 C 49.164236 27.946895 53.004417 34.600822 50.8125 41.40625 C 48.620573 48.21171 41.226735 52.634396 34.3125 51.25 C 27.39823 49.865599 23.558073 43.211711 25.75 36.40625 C 27.667928 30.451502 33.579669 26.320232 39.65625 26.3125 z "
     id="path612" />
  <path
     style="fill:url(#linearGradient563);fill-rule:evenodd;stroke:none;stroke-opacity:1;stroke-width:1pt;stroke-linejoin:miter;stroke-linecap:butt;fill-opacity:1"
     d="M 41.28125 10.25 C 31.933144 10.039175 18.75 20.3125 18.75 20.3125 C 18.75 20.3125 24.672412 31.18788 26.59375 34.375 C 29.068156 29.526711 34.294055 26.319323 39.65625 26.3125 C 40.524333 26.311395 41.385716 26.38945 42.25 26.5625 C 42.499116 26.612379 42.727753 26.686679 42.96875 26.75 L 42.1875 10.3125 C 41.894531 10.283202 41.582802 10.256801 41.28125 10.25 z M 38.84375 31 C 36.42371 31.003004 34.064266 32.009586 32.3125 33.65625 C 35.513707 32.586525 37.780221 31.804732 39.96875 31.0625 C 39.593353 31.016179 39.215568 30.999539 38.84375 31 z "
     id="path562" />
  <path
     style="fill:url(#linearGradient4204);fill-rule:evenodd;stroke:none;stroke-opacity:1;stroke-width:1pt;stroke-linejoin:miter;stroke-linecap:butt;fill-opacity:1"
     d="M 48.65625 45.5 C 45.376117 49.863235 39.706935 52.330095 34.3125 51.25 C 33.999833 51.187397 33.706071 51.114931 33.40625 51.03125 L 28.875 73.375 C 29.238523 73.461224 29.598445 73.550202 29.96875 73.625 C 35.51274 74.74483 41.174739 74.437659 46.53125 72.96875 C 49.729672 71.925417 53.619215 70.15822 58.59375 67.3125 C 58.978585 67.046567 59.374361 66.779315 59.75 66.5 C 59.755263 66.492558 59.744855 66.476285 59.75 66.46875 C 61.920082 63.290708 53.691958 51.935458 48.65625 45.5 z "
     id="path557" />
  <path
     style="fill:url(#linearGradient5855);fill-opacity:1;fill-rule:evenodd;stroke:none;stroke-width:0.37500000000000000;stroke-linecap:butt;stroke-linejoin:bevel;stroke-dasharray:0.37500000000000000, 0.37500000000000000;stroke-dashoffset:0;stroke-opacity:1"
     d="M 73.701293,9.834892 C 76.362573,14.29243 79.023853,22.88914 76.029903,28.93867 C 73.035963,34.9882 70.707343,40.40094 74.699263,47.08725 C 78.691203,53.77358 79.023853,58.86792 79.023853,58.86792 C 79.023853,58.86792 77.027883,48.67924 76.029903,42.94811 C 75.031923,37.21698 83.348463,30.21225 82.017813,24.16273 C 80.687163,18.1132 75.031923,10.79008 73.701293,9.834892 z"
     id="path622" />
  <use
     x="0"
     y="0"
     xlink:href="#path622"
     id="use5621"
     transform="translate(-7.6674229,-4.6004537)"
     width="90"
     height="90" />
  <use
     x="0"
     y="0"
     xlink:href="#path622"
     id="use5857"
     transform="translate(-16.61275,-2.8113884)"
     width="90"
     height="90" />
</svg>
