<?xml version="1.0" encoding="UTF-8" standalone="no"?>
<!-- Created with Sodipodi ("http://www.sodipodi.com/") -->
<svg
   xmlns:dc="http://purl.org/dc/elements/1.1/"
   xmlns:cc="http://creativecommons.org/ns#"
   xmlns:rdf="http://www.w3.org/1999/02/22-rdf-syntax-ns#"
   xmlns:svg="http://www.w3.org/2000/svg"
   xmlns="http://www.w3.org/2000/svg"
   xmlns:xlink="http://www.w3.org/1999/xlink"
   xmlns:sodipodi="http://sodipodi.sourceforge.net/DTD/sodipodi-0.dtd"
   xmlns:inkscape="http://www.inkscape.org/namespaces/inkscape"
   id="svg548"
   sodipodi:version="0.32"
   width="72pt"
   height="72pt"
   sodipodi:docbase="/home/tweenk/dev/GartoonRedux/scalable/mimetypes"
   sodipodi:docname="system-software-installer.svg"
   inkscape:version="0.45+devel"
   inkscape:output_extension="org.inkscape.output.svg.inkscape">
  <metadata
     id="metadata27">
    <rdf:RDF>
      <cc:Work
         rdf:about="">
        <dc:format>image/svg+xml</dc:format>
        <dc:type
           rdf:resource="http://purl.org/dc/dcmitype/StillImage" />
      </cc:Work>
      <cc:Work
         rdf:about="">
        <dc:format>image/svg+xml</dc:format>
        <dc:type
           rdf:resource="http://purl.org/dc/dcmitype/StillImage" />
      </cc:Work>
    </rdf:RDF>
  </metadata>
  <defs
     id="defs550">
    <linearGradient
       inkscape:collect="always"
       xlink:href="#linearGradient558"
       id="linearGradient4204"
       gradientUnits="userSpaceOnUse"
       gradientTransform="scale(0.766548,1.30455)"
       spreadMethod="pad"
       x1="73.0144653"
       y1="38.8011742"
       x2="46.2984352"
       y2="43.8150940" />
    <linearGradient
       id="linearGradient558">
      <stop
         style="stop-color:#7fa8e3;stop-opacity:0.741176;"
         offset="0.000000"
         id="stop559" />
      <stop
         style="stop-color:#ffffff;stop-opacity:0;"
         offset="1.000000"
         id="stop3377" />
    </linearGradient>
    <linearGradient
       xlink:href="#linearGradient558"
       id="linearGradient563"
       x1="23.9531670"
       y1="24.2094688"
       x2="45.7012291"
       y2="18.4172096"
       gradientUnits="userSpaceOnUse"
       gradientTransform="scale(0.986297,1.013893)"
       spreadMethod="pad" />
    <linearGradient
       xlink:href="#linearGradient689"
       id="linearGradient693"
       x1="33.579441"
       y1="53.821957"
       x2="-14.069118"
       y2="26.552649"
       gradientUnits="userSpaceOnUse"
       spreadMethod="pad"
       gradientTransform="scale(0.780786,1.280761)" />
    <linearGradient
       id="linearGradient689">
      <stop
         style="stop-color:#ffb700;stop-opacity:1;"
         offset="0.000000"
         id="stop690" />
      <stop
         style="stop-color:#fdffff;stop-opacity:0;"
         offset="1.000000"
         id="stop691" />
    </linearGradient>
    <linearGradient
       xlink:href="#linearGradient689"
       id="linearGradient688"
       x1="26.295921"
       y1="98.952934"
       x2="31.715986"
       y2="102.82758"
       gradientUnits="userSpaceOnUse"
       spreadMethod="pad"
       gradientTransform="scale(1.326975,0.753594)" />
    <linearGradient
       id="linearGradient684">
      <stop
         style="stop-color:#ffffff;stop-opacity:0.647059;"
         offset="0.000000"
         id="stop685" />
      <stop
         style="stop-color:#fdffff;stop-opacity:0;"
         offset="1.000000"
         id="stop686" />
    </linearGradient>
    <linearGradient
       xlink:href="#linearGradient684"
       id="linearGradient683"
       x1="49.025764"
       y1="44.340187"
       x2="56.455326"
       y2="53.182751"
       gradientUnits="userSpaceOnUse"
       spreadMethod="pad"
       gradientTransform="scale(1.017548,0.982755)" />
    <linearGradient
       id="linearGradient677">
      <stop
         style="stop-color:#000000;stop-opacity:1;"
         offset="0.000000"
         id="stop678" />
      <stop
         style="stop-color:#6a6762;stop-opacity:1;"
         offset="1.000000"
         id="stop679" />
    </linearGradient>
    <linearGradient
       xlink:href="#linearGradient677"
       id="linearGradient680"
       x1="68.311676"
       y1="71.296051"
       x2="52.578365"
       y2="39.579781"
       gradientUnits="userSpaceOnUse"
       spreadMethod="pad"
       gradientTransform="scale(1.011562,0.98857)" />
    <linearGradient
       id="linearGradient569">
      <stop
         style="stop-color:#c57700;stop-opacity:1;"
         offset="0.000000"
         id="stop570" />
      <stop
         style="stop-color:#ffa75f;stop-opacity:0;"
         offset="1.000000"
         id="stop571" />
    </linearGradient>
    <linearGradient
       id="linearGradient559">
      <stop
         style="stop-color:#945700;stop-opacity:1;"
         offset="0.000000"
         id="stop560" />
      <stop
         style="stop-color:#ffa75f;stop-opacity:0;"
         offset="1.000000"
         id="stop561" />
    </linearGradient>
    <linearGradient
       xlink:href="#linearGradient559"
       id="linearGradient562"
       x1="40.9153252"
       y1="31.7318363"
       x2="42.7533417"
       y2="35.4855690"
       gradientUnits="userSpaceOnUse"
       spreadMethod="pad"
       gradientTransform="matrix(1.2287685,0,0,0.7275398,-7.1389191,1.8739714)" />
    <linearGradient
       xlink:href="#linearGradient559"
       id="linearGradient566"
       x1="59.0300407"
       y1="48.8431816"
       x2="58.3435440"
       y2="23.6183739"
       gradientUnits="userSpaceOnUse"
       spreadMethod="pad"
       gradientTransform="matrix(0.5734264,0,0,1.5590094,-6.8541051,2.1587764)" />
    <linearGradient
       xlink:href="#linearGradient569"
       id="linearGradient568"
       x1="92.7804184"
       y1="64.9443817"
       x2="90.8925323"
       y2="42.8786545"
       gradientUnits="userSpaceOnUse"
       spreadMethod="pad"
       gradientTransform="matrix(0.7296653,0,0,1.2251888,-7.1389191,1.8739714)" />
  </defs>
  <sodipodi:namedview
     id="base"
     showgrid="false"
     inkscape:zoom="5.5666667"
     inkscape:cx="45"
     inkscape:cy="45"
     inkscape:window-width="795"
     inkscape:window-height="711"
     inkscape:window-x="112"
     inkscape:window-y="1"
     inkscape:current-layer="svg548" />
  <path
     style="fill:#000000;fill-opacity:0.3;fill-rule:evenodd;stroke:none;stroke-width:1pt;stroke-linecap:butt;stroke-linejoin:miter;stroke-opacity:1"
     d="M 41.126783,86.944379 C 40.267791,86.568459 6.0797264,81.723193 6.0797264,81.723193 L 2.987337,83.117462 L 2.1283386,79.619442 L 4.7053256,76.584302 L 2.1283386,75.664742 L 16.731279,64.779378 L 18.105647,65.755471 L 18.44926,63.449718 L 22.572446,63.047793 L 67.240265,72.39582 L 41.126783,86.944379 z "
     id="path594" />
  <path
     style="fill:#593a28;fill-opacity:1;fill-rule:evenodd;stroke:none;stroke-width:1pt;stroke-linecap:butt;stroke-linejoin:miter;stroke-opacity:1"
     d="M 16.673693,33.243336 C 19.97407,48.138049 19.287161,71.577094 13.758515,83.054094 L 40.68316,87.362945 L 73.900512,75.358259 C 72.191703,59.003214 70.767585,40.369694 74.185298,24.584221 L 80.04279,11.201955 L 74.138779,11.989068 L 74.926006,8.0531426 C 67.428537,2.8625904 57.937379,1.9442 48.161435,5.2979534 L 47.571062,9.6275486 L 41.863905,4.7075618 C 29.375972,5.2465936 18.027277,8.6337294 7.8178196,18.286692 L 16.673693,33.243336 z "
     id="path564"
     sodipodi:nodetypes="ccccccccccccc" />
  <path
     style="fill:url(#linearGradient562);fill-opacity:1;fill-rule:evenodd;stroke:none;stroke-width:1pt;stroke-linecap:butt;stroke-linejoin:miter;stroke-opacity:1"
     d="M 49.539129,19.270583 C 49.145515,19.270583 21.003251,29.307392 21.003251,29.307392 C 21.003251,29.307392 23.56169,48.003221 29.071993,48.396834 C 34.58239,48.790447 68.431717,22.025876 68.431717,22.025876"
     id="path558"
     sodipodi:nodetypes="cccc" />
  <path
     style="fill:#e9a93d;fill-opacity:1;fill-rule:evenodd;stroke:none;stroke-width:1pt;stroke-linecap:butt;stroke-linejoin:miter;stroke-opacity:1"
     d="M 20.806491,31.472123 L 38.911947,33.046576 C 36.895849,50.497649 36.58856,67.09427 39.699079,82.836533 C 39.699079,82.836533 21.200105,81.065415 21.200105,79.884575 C 21.200105,78.70383 26.217894,52.087231 20.806491,31.472123 z "
     id="path552"
     sodipodi:nodetypes="ccccc" />
  <path
     style="fill:#ffe6ba;fill-opacity:1;fill-rule:evenodd;stroke:none;stroke-width:1pt;stroke-linecap:butt;stroke-linejoin:miter;stroke-opacity:1"
     d="M 69.394996,23.885021 L 38.518334,33.44019 L 39.305561,83.033387 C 39.305561,83.033387 68.82533,72.012687 68.82533,70.831847 C 68.82533,69.651102 64.837951,35.955892 69.394996,23.885021 z "
     id="path553"
     sodipodi:nodetypes="ccccc" />
  <path
     style="fill:#e3c084;fill-opacity:1;fill-rule:evenodd;stroke:none;stroke-width:1pt;stroke-linecap:butt;stroke-linejoin:miter;stroke-opacity:1"
     d="M 50.326261,19.270678 L 42.847891,9.8243269 C 33.663927,11.08821 23.625606,12.352141 15.296094,20.451423 L 20.412878,29.897764 L 50.326261,19.270678 z "
     id="path556"
     sodipodi:nodetypes="ccccc" />
  <path
     style="fill:#e3b463;fill-opacity:1;fill-rule:evenodd;stroke:none;stroke-width:1pt;stroke-linecap:butt;stroke-linejoin:miter;stroke-opacity:1"
     d="M 49.539034,19.467532 L 69.612462,23.206622 L 71.186916,12.973148 C 64.079751,10.608282 57.542253,9.3826536 50.719874,11.005129 L 49.539034,19.467532 z "
     id="path557"
     sodipodi:nodetypes="ccccc" />
  <path
     style="fill:#c89134;fill-opacity:1;fill-rule:evenodd;stroke:none;stroke-width:1pt;stroke-linecap:butt;stroke-linejoin:miter;stroke-opacity:1"
     d="M 38.911947,33.046576 C 37.731107,30.422614 36.550362,27.798556 35.369522,25.174594 C 28.832024,22.217719 21.724859,20.400082 14.902481,23.993848 C 16.739311,26.486575 18.576047,28.979396 20.412878,31.472123 C 26.579266,31.996972 32.745559,32.521727 38.911947,33.046576 z "
     id="path554"
     sodipodi:nodetypes="ccccc" />
  <path
     style="fill:#e3c084;fill-opacity:1;fill-rule:evenodd;stroke:none;stroke-width:1pt;stroke-linecap:butt;stroke-linejoin:miter;stroke-opacity:1"
     d="M 38.518334,34.227322 L 43.241505,24.78098 C 53.343837,18.915263 63.730955,16.182567 73.548406,15.728252 C 72.039666,18.483451 70.53083,21.23865 69.02209,23.993848 L 38.518334,34.227322 z "
     id="path555"
     sodipodi:nodetypes="ccccc" />
  <path
     style="fill:url(#linearGradient566);fill-opacity:1;fill-rule:evenodd;stroke:none;stroke-width:1pt;stroke-linecap:butt;stroke-linejoin:miter;stroke-opacity:1"
     d="M 21.091305,31.756928 C 27.126457,32.281777 33.161609,32.806532 39.196761,33.331381 C 35.75664,51.06724 37.158255,66.823205 39.983893,82.850254 C 39.983893,82.850254 21.123473,81.079136 21.123473,79.898296 C 25.658665,49.125869 21.99492,37.572228 21.091305,31.756928 z "
     id="path565"
     sodipodi:nodetypes="ccccc" />
  <path
     style="fill:url(#linearGradient568);fill-opacity:1;fill-rule:evenodd;stroke:none;stroke-width:1pt;stroke-linecap:butt;stroke-linejoin:miter;stroke-opacity:1"
     d="M 59.426642,32.144566 L 38.518334,33.44019 L 39.305561,83.033387 C 39.305561,83.033387 68.82533,72.012687 68.82533,70.831847 C 67.740993,53.386042 59.426642,32.538179 59.426642,32.144566 z "
     id="path567"
     sodipodi:nodetypes="ccccc" />
  <path
     style="font-size:12px;fill:#ffffff;fill-opacity:0.70434804;fill-rule:evenodd;stroke-width:1pt"
     d="M 23.012112,70.804052 L 23.012112,77.880852 L 35.292412,79.754152 L 35.292412,72.677352 L 23.012112,70.804052 z "
     id="path573"
     sodipodi:nodetypes="ccccc" />
  <g
     id="g3817"
     transform="matrix(0.6772557,0,0,0.6772557,28.570898,28.570262)">
    <path
       style="font-size:12px;fill:#000000;fill-opacity:0.29411765;fill-rule:evenodd;stroke-width:1pt"
       d="M 50.147213,8.8878012 C 31.789583,8.9112875 13.972647,21.40043 8.1784639,39.481552 C 1.5565073,60.145794 13.133894,80.340435 34.022213,84.544052 C 54.910426,88.747648 77.244009,75.395796 83.865963,54.731552 C 90.487887,34.06741 78.910427,13.872648 58.022213,9.6690512 C 55.411173,9.1435989 52.769732,8.884446 50.147213,8.8878012 z M 44.084713,37.325302 C 44.643189,37.324609 45.216181,37.372966 45.772213,37.481552 C 50.220445,38.350237 52.682371,42.523759 51.272213,46.794052 C 49.862046,51.064365 45.095444,53.850237 40.647213,52.981552 C 36.19896,52.112862 33.737048,47.939366 35.147213,43.669052 C 36.381101,39.932544 40.175381,37.330154 44.084713,37.325302 z"
       id="path2421" />
    <path
       id="path613"
       d="M 44.90625,2.5625 C 26.54862,2.5859863 8.7316839,15.075128 2.9375,33.15625 C -3.6844565,53.820492 7.8929302,74.015133 28.78125,78.21875 C 49.669463,82.422346 72.003046,69.070494 78.625,48.40625 C 85.246924,27.742108 73.669464,7.5473465 52.78125,3.34375 C 50.17021,2.8182977 47.528769,2.5591448 44.90625,2.5625 z M 38.84375,31 C 39.402226,30.999307 39.975218,31.047664 40.53125,31.15625 C 44.979482,32.024935 47.441408,36.198457 46.03125,40.46875 C 44.621083,44.739063 39.854481,47.524935 35.40625,46.65625 C 30.957997,45.78756 28.496085,41.614064 29.90625,37.34375 C 31.140138,33.607242 34.934418,31.004852 38.84375,31 z"
       style="font-size:12px;fill:#143c69;fill-rule:evenodd;stroke-width:1pt" />
    <path
       id="path612"
       d="M 44.0625,7.25 C 28.016595,7.2706008 12.470783,18.23085 7.40625,34.09375 C 1.6181836,52.222866 11.710836,69.937087 29.96875,73.625 C 48.226569,77.312896 67.743181,65.597864 73.53125,47.46875 C 79.319288,29.339722 69.226567,11.625396 50.96875,7.9375 C 48.686511,7.4765106 46.354772,7.247057 44.0625,7.25 z M 39.65625,26.3125 C 40.524333,26.311395 41.385716,26.38945 42.25,26.5625 C 49.164236,27.946895 53.004417,34.600822 50.8125,41.40625 C 48.620573,48.21171 41.226735,52.634396 34.3125,51.25 C 27.39823,49.865599 23.558073,43.211711 25.75,36.40625 C 27.667928,30.451502 33.579669,26.320232 39.65625,26.3125 z"
       style="font-size:12px;fill:#ffffff;fill-rule:evenodd;stroke-width:1pt" />
    <path
       id="path562"
       d="M 41.28125,10.25 C 31.933144,10.039175 18.75,20.3125 18.75,20.3125 C 18.75,20.3125 24.672412,31.18788 26.59375,34.375 C 29.068156,29.526711 34.294055,26.319323 39.65625,26.3125 C 40.524333,26.311395 41.385716,26.38945 42.25,26.5625 C 42.499116,26.612379 42.727753,26.686679 42.96875,26.75 L 42.1875,10.3125 C 41.894531,10.283202 41.582802,10.256801 41.28125,10.25 z"
       style="fill:url(#linearGradient563);fill-opacity:1;fill-rule:evenodd;stroke:none;stroke-width:1pt;stroke-linecap:butt;stroke-linejoin:miter;stroke-opacity:1"
       sodipodi:nodetypes="cccssccc" />
    <path
       id="path3385"
       d="M 48.65625,45.5 C 45.376117,49.863235 39.706935,52.330095 34.3125,51.25 C 33.999833,51.187397 33.706071,51.114931 33.40625,51.03125 L 28.875,73.375 C 29.238523,73.461224 29.598445,73.550202 29.96875,73.625 C 35.51274,74.74483 41.174739,74.437659 46.53125,72.96875 C 49.729672,71.925417 53.619215,70.15822 58.59375,67.3125 C 58.978585,67.046567 59.374361,66.779315 59.75,66.5 C 59.755263,66.492558 59.744855,66.476285 59.75,66.46875 C 61.920082,63.290708 53.691958,51.935458 48.65625,45.5 z"
       style="fill:url(#linearGradient4204);fill-opacity:1;fill-rule:evenodd;stroke:none;stroke-width:1pt;stroke-linecap:butt;stroke-linejoin:miter;stroke-opacity:1" />
  </g>
  <g
     id="g725"
     transform="matrix(0.50143,0,0,0.50143,43.929162,43.709771)">
    <defs
       id="defs668" />
    <sodipodi:namedview
       id="namedview741" />
    <path
       style="fill:#000000;fill-opacity:0.29824602;fill-rule:evenodd;stroke:none;stroke-width:1pt;stroke-linecap:butt;stroke-linejoin:miter;stroke-opacity:1"
       d="M 1.43587,43.3341 C 1.43587,43.3341 13.9829,62.1334 24.4099,77.6156 C 26.361,79.271 38.7518,85.1307 41.6404,83.718 C 44.2164,82.1492 79.0892,55.3067 79.7142,52.1225 C 80.6982,48.5327 79.4883,46.2058 78.6141,44.411 C 77.8962,42.6161 54.5632,6.53978 53.6658,5.64236 C 52.7684,4.74493 50.2556,3.48854 47.2044,4.56545 C 39.4401,9.04617 15.007,24.332 2.58248,37.1683 C 0.96712,38.9632 1.25639,41.5392 1.43587,43.3341 z"
       id="path699"
       sodipodi:nodetypes="ccccccccc"
       transform="matrix(1.120973,0,0,0.970624,-0.312708,8.246927)" />
    <path
       style="fill:none;fill-opacity:1;fill-rule:evenodd;stroke:#000000;stroke-width:1pt;stroke-linecap:butt;stroke-linejoin:miter;stroke-opacity:1"
       d="M 8.79473,37.4111 C 8.79473,37.4709 8.79473,37.5307 8.79473,37.5906"
       id="path671" />
    <path
       style="fill:#261d14;fill-opacity:1;fill-rule:evenodd;stroke:none;stroke-width:1pt;stroke-linecap:butt;stroke-linejoin:miter;stroke-opacity:1"
       d="M 1.43587,43.3341 C 1.43587,43.3341 13.9829,62.1334 24.4099,77.6156 C 26.361,79.271 38.7518,85.1307 41.6404,83.718 C 44.2164,82.1492 79.0892,55.3067 79.7142,52.1225 C 80.6982,48.5327 79.4883,46.2058 78.6141,44.411 C 77.8962,42.6161 54.5632,6.53978 53.6658,5.64236 C 52.7684,4.74493 50.2556,3.48854 47.2044,4.56545 C 39.4401,9.04617 15.007,24.332 2.58248,37.1683 C 0.96712,38.9632 1.25639,41.5392 1.43587,43.3341 z"
       id="path676"
       sodipodi:nodetypes="ccccccccc" />
    <path
       style="fill:#f1e36c;fill-opacity:1;fill-rule:evenodd;stroke:none;stroke-width:1pt;stroke-linecap:butt;stroke-linejoin:miter;stroke-opacity:1"
       d="M 8.61525,37.5906 C 8.61525,37.5906 27.2816,66.8465 27.9995,68.1029 C 28.7175,69.3593 30.3329,71.1542 33.5636,72.0516 C 38.4097,74.0259 43.0762,75.8207 43.4352,75.8207 C 43.7942,75.8207 46.1275,73.6669 46.1275,73.6669 L 35.5379,60.3851 L 59.7683,39.2059 L 69.9989,54.1031 L 75.5629,49.616 C 75.5629,49.616 50.4351,8.69359 50.0761,8.69359 C 49.7172,8.69359 43.7942,12.2833 43.7942,12.2833 L 56.3581,31.3086 C 56.3581,31.3086 31.7687,49.4366 29.6149,51.2314 C 27.6406,51.2314 13.4613,33.4624 13.4613,33.4624 L 8.61525,37.5906 z"
       id="path672"
       sodipodi:nodetypes="ccccccccccccccc" />
    <path
       style="fill:#ffffff;fill-opacity:1;fill-rule:evenodd;stroke:none;stroke-width:1pt;stroke-linecap:butt;stroke-linejoin:miter;stroke-opacity:1"
       d="M 14.8972,32.565 L 29.6149,49.2571 L 54.2043,30.7702 L 42.3583,12.8217 L 14.8972,32.565 z"
       id="path673"
       sodipodi:nodetypes="ccccc" />
    <path
       style="fill:url(#linearGradient680);fill-opacity:1;fill-rule:evenodd;stroke:none;stroke-width:1pt;stroke-linecap:butt;stroke-linejoin:miter;stroke-opacity:1"
       d="M 37.5122,60.5646 L 47.0249,72.4105 L 49.3582,70.6157 L 41.1019,60.3851 C 41.1019,60.3851 43.7942,57.3338 45.589,57.1544 C 48.4608,59.8466 54.2043,67.026 54.2043,67.026 L 69.1015,55.7185 L 59.2298,41.5392 L 37.5122,60.5646 z"
       id="path674"
       sodipodi:nodetypes="ccccccccc" />
    <path
       style="fill:#f1e36c;fill-opacity:1;fill-rule:evenodd;stroke:none;stroke-width:1pt;stroke-linecap:butt;stroke-linejoin:miter;stroke-opacity:1"
       d="M 7.92054,38.5345 C 7.20261,38.355 28.897,71.872 29.4355,71.872 C 29.9739,71.872 41.4609,76.7182 41.4609,76.7182 L 40.743,79.0514 L 28.7175,75.6413 L 5.40776,41.25 L 7.92054,38.5345 z"
       id="path675"
       sodipodi:nodetypes="ccccccc" />
    <path
       style="fill:#f1e36c;fill-opacity:1;fill-rule:evenodd;stroke:none;stroke-width:1pt;stroke-linecap:butt;stroke-linejoin:miter;stroke-opacity:1"
       d="M 42.3583,60.2056 L 49.7172,69.7183 L 52.9479,67.026 L 45.2301,57.6928 L 42.3583,60.2056 z"
       id="path681" />
    <path
       style="fill:url(#linearGradient683);fill-opacity:1;fill-rule:evenodd;stroke:none;stroke-width:1pt;stroke-linecap:butt;stroke-linejoin:miter;stroke-opacity:1"
       d="M 59.0625,42.5 L 45.1563,54.6875 C 46.3542,58.2291 50.3646,60.9895 52.0313,62.9687 C 54.5834,43.802 59.948,45.4166 65.3126,52.3437 L 59.0625,42.5 z"
       id="path682"
       sodipodi:nodetypes="ccccc" />
    <path
       style="fill:url(#linearGradient688);fill-opacity:1;fill-rule:evenodd;stroke:none;stroke-width:1pt;stroke-linecap:butt;stroke-linejoin:miter;stroke-opacity:1"
       d="M 41.25,76.7187 L 40.625,79.0625 L 28.5938,75.9375 L 29.0625,71.875 L 41.25,76.7187 z"
       id="path687" />
    <path
       style="fill:url(#linearGradient693);fill-opacity:1;fill-rule:evenodd;stroke:none;stroke-width:1pt;stroke-linecap:butt;stroke-linejoin:miter;stroke-opacity:1"
       d="M 28.5938,75.7812 L 29.375,72.1875 L 12.5,46.5625 L 11.5625,50 L 28.5938,75.7812 z"
       id="path692" />
    <path
       style="fill:#bae6ff;fill-opacity:1;fill-rule:evenodd;stroke:none;stroke-width:1pt;stroke-linecap:butt;stroke-linejoin:miter;stroke-opacity:1"
       d="M 14.8438,32.5 L 21.0938,39.5312 L 47.8126,20.7812 L 42.3438,12.8125 L 14.8438,32.5 z"
       id="path697"
       sodipodi:nodetypes="ccccc" />
  </g>
</svg>
