<?xml version="1.0" encoding="UTF-8" standalone="no"?>
<svg
   xmlns:dc="http://purl.org/dc/elements/1.1/"
   xmlns:cc="http://creativecommons.org/ns#"
   xmlns:rdf="http://www.w3.org/1999/02/22-rdf-syntax-ns#"
   xmlns:svg="http://www.w3.org/2000/svg"
   xmlns="http://www.w3.org/2000/svg"
   xmlns:xlink="http://www.w3.org/1999/xlink"
   xmlns:sodipodi="http://sodipodi.sourceforge.net/DTD/sodipodi-0.dtd"
   xmlns:inkscape="http://www.inkscape.org/namespaces/inkscape"
   width="90"
   height="90"
   viewBox="0 0 360.267 93.793"
   id="svg2"
   sodipodi:version="0.32"
   inkscape:version="0.46+devel"
   sodipodi:docname="ubuntu.svg"
   inkscape:output_extension="org.inkscape.output.svg.inkscape"
   version="1.0">
  <metadata
     id="metadata31">
    <rdf:RDF>
      <cc:Work
         rdf:about="">
        <dc:format>image/svg+xml</dc:format>
        <dc:type
           rdf:resource="http://purl.org/dc/dcmitype/StillImage" />
      </cc:Work>
    </rdf:RDF>
  </metadata>
  <defs
     id="defs29">
    <inkscape:perspective
       sodipodi:type="inkscape:persp3d"
       inkscape:vp_x="0 : 79.047997 : 1"
       inkscape:vp_y="0 : 1000 : 0"
       inkscape:vp_z="607.28699 : 79.047997 : 1"
       inkscape:persp3d-origin="303.64349 : 52.698664 : 1"
       id="perspective33" />
    <linearGradient
       spreadMethod="pad"
       gradientUnits="userSpaceOnUse"
       y2="60.732933"
       x2="6.9733135"
       y1="52.570902"
       x1="0.93126918"
       id="linearGradient591"
       xlink:href="#linearGradient577"
       gradientTransform="scale(0.9497636,1.0528935)" />
    <linearGradient
       spreadMethod="pad"
       gradientUnits="userSpaceOnUse"
       y2="50.903113"
       x2="65.301711"
       y1="42.958833"
       x1="61.635069"
       id="linearGradient588"
       xlink:href="#linearGradient568"
       gradientTransform="scale(1.0817637,0.9244163)" />
    <linearGradient
       gradientTransform="scale(0.99172,1.008349)"
       spreadMethod="pad"
       gradientUnits="userSpaceOnUse"
       y2="62.9485321"
       x2="73.0329590"
       y1="48.1304512"
       x1="67.5966949"
       id="linearGradient583"
       xlink:href="#linearGradient577" />
    <linearGradient
       gradientTransform="scale(1.301968,0.768068)"
       spreadMethod="pad"
       gradientUnits="userSpaceOnUse"
       y2="64.2783432"
       x2="12.9325171"
       y1="54.6343613"
       x1="3.44396615"
       id="linearGradient581"
       xlink:href="#linearGradient568" />
    <linearGradient
       gradientTransform="scale(1.045857,0.956154)"
       spreadMethod="pad"
       gradientUnits="userSpaceOnUse"
       y2="73.3503952"
       x2="24.1922855"
       y1="57.0723801"
       x1="25.7572994"
       id="linearGradient573"
       xlink:href="#linearGradient577" />
    <linearGradient
       spreadMethod="pad"
       gradientTransform="scale(1.566986,0.638168)"
       gradientUnits="userSpaceOnUse"
       y2="61.8460312"
       x2="29.5057697"
       y1="36.1659203"
       x1="23.4216499"
       id="linearGradient571"
       xlink:href="#linearGradient568" />
    <linearGradient
       gradientTransform="scale(1.241185,0.805681)"
       spreadMethod="pad"
       gradientUnits="userSpaceOnUse"
       y2="41.1385117"
       x2="49.2034531"
       y1="45.3989868"
       x1="55.4934044"
       id="linearGradient565"
       xlink:href="#linearGradient557" />
    <radialGradient
       gradientTransform="scale(1.494434,0.66915)"
       spreadMethod="pad"
       gradientUnits="userSpaceOnUse"
       r="27.1401024"
       fy="42.2030029"
       fx="22.8891735"
       cy="42.2030029"
       cx="22.8891735"
       id="radialGradient561"
       xlink:href="#linearGradient557" />
    <linearGradient
       gradientTransform="scale(1.395965,0.71635)"
       spreadMethod="pad"
       gradientUnits="userSpaceOnUse"
       y2="59.1887779"
       x2="30.0717945"
       y1="49.7517815"
       x1="19.4011784"
       id="linearGradient560"
       xlink:href="#linearGradient557" />
    <linearGradient
       id="linearGradient557">
      <stop
         id="stop558"
         offset="0.000000"
         style="stop-color:#ffff00;stop-opacity:1;" />
      <stop
         id="stop559"
         offset="1.000000"
         style="stop-color:#9d0000;stop-opacity:1;" />
    </linearGradient>
    <linearGradient
       id="linearGradient568">
      <stop
         id="stop569"
         offset="0.000000"
         style="stop-color:#cfd2c2;stop-opacity:1;" />
      <stop
         id="stop570"
         offset="1.000000"
         style="stop-color:#595a59;stop-opacity:1;" />
    </linearGradient>
    <linearGradient
       id="linearGradient577">
      <stop
         id="stop578"
         offset="0.000000"
         style="stop-color:#ffbd00;stop-opacity:1;" />
      <stop
         id="stop579"
         offset="1.000000"
         style="stop-color:#ff6d19;stop-opacity:1;" />
    </linearGradient>
    <inkscape:perspective
       id="perspective2571"
       inkscape:persp3d-origin="45 : 30 : 1"
       inkscape:vp_z="90 : 45 : 1"
       inkscape:vp_y="0 : 1000 : 0"
       inkscape:vp_x="0 : 45 : 1"
       sodipodi:type="inkscape:persp3d" />
    <inkscape:perspective
       id="perspective3431"
       inkscape:persp3d-origin="0.5 : 0.33333333 : 1"
       inkscape:vp_z="1 : 0.5 : 1"
       inkscape:vp_y="0 : 1000 : 0"
       inkscape:vp_x="0 : 0.5 : 1"
       sodipodi:type="inkscape:persp3d" />
  </defs>
  <sodipodi:namedview
     inkscape:window-height="724"
     inkscape:window-width="736"
     inkscape:pageshadow="2"
     inkscape:pageopacity="0.0"
     guidetolerance="10.0"
     gridtolerance="10.0"
     objecttolerance="10.0"
     borderopacity="1.0"
     bordercolor="#666666"
     pagecolor="#ffffff"
     id="base"
     showgrid="false"
     inkscape:zoom="2.5290118"
     inkscape:cx="51.309132"
     inkscape:cy="11.634711"
     inkscape:window-x="278"
     inkscape:window-y="9"
     inkscape:current-layer="svg2" />
  <path
     style="fill:#000000;fill-opacity:0.29411765"
     d="m 295.04801,-113.55354 c -18.234561,0 -32.920661,14.686105 -32.920665,32.920665 0,18.234561 14.686108,33.040818 32.920665,33.040814 18.234561,0 33.040818,-14.806253 33.040814,-33.040814 0,-18.234562 -14.806249,-32.920665 -33.040814,-32.920665 z m 0,0 m 0,0 m 0,0 m 0,0 m 0,0 m 0,0 m 0,0 m 0,0 m 0,0 m 0,0 m 0,0 m 0,0 m -78.81736,31.71918 c -20.65144,-1e-06 -40.72305,4.548126 -58.87273,13.096177 l 28.355025,49.020552 c 9.4097354,-3.7870665 19.771989,-5.7671238 30.517697,-5.7671238 41.132738,0 75.208251,30.448895 80.859882,70.046526 l 56.589903,0 C 351.10987,13.447018 338.24216,-15.46981 316.67473,-38.340635 c -13.81229,7.034668 -30.8682,7.125712 -45.29596,-1.201484 -14.43865,-8.338058 -22.74534,-23.071814 -23.54909,-38.567641 -10.24968,-2.389544 -20.8135,-3.724601 -31.59903,-3.724601 z m 0,0 m 0,0 m 0,0 m 0,0 m 0,0 m 0,0 m 0,0 m 0,0 m 0,0 m 0,0 m 0,0 m 0,0 m -78.81736,24.750573 c -6.64366,4.641509 -13.00892,9.888679 -18.8633,15.739442 -16.393715,16.393719 -28.132873,36.187741 -34.602744,57.791387 13.033877,8.443062 21.746863,23.082145 21.746863,39.769125 -4e-06,16.683359 -8.71299,31.329693 -21.746863,39.769128 6.469871,21.603635 18.209029,41.397675 34.602744,57.791385 5.85075,5.85076 12.22326,11.09431 18.8633,15.73945 l 28.23488,-49.02056 c -19.02222,-14.9781 -31.23859,-38.247862 -31.23859,-64.279403 0,-26.042401 12.212754,-49.301308 31.238587,-64.279402 z m 0,0 m 0,0 m 0,0 m 0,0 m 0,0 m 0,0 m 0,0 m 0,0 m 0,0 m 0,0 m 0,0 m 0,0 m -79.1778,80.259141 c -18.234562,0 -33.040814,14.806253 -33.040814,33.040814 0,18.234561 14.806253,33.040814 33.040814,33.040814 18.234561,0 33.04081,-14.806253 33.040814,-33.040814 0,-18.234561 -14.806249,-33.040814 -33.040814,-33.040814 z m 0,0 m 0,0 m 0,0 m 0,0 m 0,0 m 0,0 m 0,0 m 0,0 m 0,0 m 0,0 m 0,0 m 0,0 m 238.85505,44.575061 c -5.63713,39.612105 -39.71629,70.166675 -80.85988,70.166675 -10.75294,0 -21.10797,-2.09296 -30.5177,-5.88727 l -28.35503,49.1407 c 18.14606,8.55168 38.09389,12.97603 58.75258,12.97603 10.79277,-1e-05 21.46587,-1.21492 31.71918,-3.60446 0.78928,-15.51392 9.21975,-30.34611 23.66924,-38.68778 14.4314,-8.33446 31.3599,-8.1305 45.17581,-1.08134 21.54933,-22.87446 34.44238,-51.918669 37.00571,-83.022555 z m 0,0 m 0,0 m 0,0 m 0,0 m 0,0 m 0,0 m 0,0 m 0,0 m 0,0 m 0,0 m 0,0 m 0,0 m -1.92237,92.153835 c -18.234561,0 -33.040814,14.806241 -33.040814,33.040814 0,18.234561 14.806253,33.040802 33.040814,33.040814 18.234561,0 33.040814,-14.806264 33.040814,-33.040814 0,-18.234561 -14.806253,-33.040825 -33.040814,-33.040814 z"
     id="circle2615" />
  <g
     id="g2502"
     transform="matrix(3.6205203,0,0,3.6205203,7.6425239,-129.17231)"
     style="stroke:none">
    <circle
       style="fill:#ff6309;stroke:none;stroke-opacity:1;stroke-width:0.99949222000000004;stroke-miterlimit:4;stroke-dasharray:none"
       sodipodi:ry="9.1239996"
       sodipodi:rx="9.1239996"
       sodipodi:cy="46.903999"
       sodipodi:cx="9.1239996"
       id="circle4"
       r="9.1239996"
       cy="46.903999"
       cx="9.1239996" />
    <circle
       style="fill:#ffb515;stroke:none;stroke-opacity:1;stroke-width:0.99949222000000004;stroke-miterlimit:4;stroke-dasharray:none"
       sodipodi:ry="9.1239996"
       sodipodi:rx="9.1239996"
       sodipodi:cy="84.667"
       sodipodi:cx="74.547997"
       id="circle6"
       r="9.1239996"
       cy="84.667"
       cx="74.547997" />
    <circle
       style="fill:#c90016;stroke:none;stroke-opacity:1;stroke-width:0.99949222000000004;stroke-miterlimit:4;stroke-dasharray:none"
       sodipodi:ry="9.1239996"
       sodipodi:rx="9.1239996"
       sodipodi:cy="9.1260004"
       sodipodi:cx="74.540001"
       id="circle8"
       r="9.1239996"
       cy="9.1260004"
       cx="74.540001" />
    <path
       style="fill:#ff6309;stroke:none;stroke-opacity:1;stroke-width:0.99949222000000004;stroke-miterlimit:4;stroke-dasharray:none"
       id="path10"
       d="m 52.739,24.327 c 11.361,0 20.787,8.436 22.348,19.373 l 15.632,0 C 90.009,35.106 86.446,27.096 80.489,20.779 76.674,22.722 71.983,22.759 67.998,20.459 64.01,18.156 61.696,14.072 61.474,9.792 58.643,9.132 55.718,8.79 52.739,8.79 c -5.704,0 -11.216,1.245 -16.229,3.606 l 7.826,13.555 c 2.599,-1.046 5.435,-1.624 8.403,-1.624 z" />
    <path
       style="fill:#ffb515;stroke:none;stroke-opacity:1;stroke-width:0.99949222000000004;stroke-miterlimit:4;stroke-dasharray:none"
       id="path12"
       d="m 30.163,46.904 c 0,-7.193 3.381,-13.61 8.636,-17.747 L 30.975,15.604 c -1.835,1.282 -3.571,2.733 -5.188,4.349 -4.528,4.528 -7.775,9.995 -9.562,15.962 3.6,2.332 5.984,6.38 5.984,10.989 0,4.608 -2.384,8.657 -5.984,10.988 1.787,5.967 5.034,11.434 9.562,15.962 1.616,1.616 3.35,3.065 5.184,4.348 L 38.796,64.648 C 33.542,60.511 30.163,54.094 30.163,46.904 z" />
    <path
       style="fill:#c90016;stroke:none;stroke-opacity:1;stroke-width:0.99949222000000004;stroke-miterlimit:4;stroke-dasharray:none"
       id="path14"
       d="M 75.088,50.098 C 73.531,61.039 64.103,69.48 52.739,69.48 c -2.97,0 -5.807,-0.578 -8.406,-1.626 L 36.506,81.41 c 5.012,2.362 10.526,3.608 16.232,3.608 2.981,0 5.91,-0.344 8.742,-1.004 0.218,-4.285 2.533,-8.376 6.524,-10.68 3.986,-2.302 8.679,-2.265 12.495,-0.318 5.952,-6.318 9.511,-14.327 10.219,-22.918 z" />
  </g>
  <path
     style="fill:#000000;fill-opacity:1;stroke:none"
     d="M 272.03125 -134.0625 C 253.96453 -131.96569 238.23323 -115.29526 238.9375 -96.8125 C 241.24569 -77.42976 258.50853 -60.599991 278.21875 -59.96875 C 297.18772 -60.636023 313.25987 -78.429785 313.125 -97.1875 C 312.38243 -113.27206 299.94557 -127.41287 284.95571 -132.33648 C 280.81107 -133.72049 276.39365 -134.29535 272.03125 -134.0625 z M 282.84375 -123.03125 C 300.74115 -121.37765 312.6221 -99.197333 304.35188 -83.318484 C 296.79872 -67.692574 274.28899 -62.131439 260.40625 -72.5625 C 249.12888 -81.497056 248.81661 -99.384996 257.1411 -110.40307 C 263.03455 -118.19203 272.97309 -123.45216 282.84375 -123.03125 z M 196.9375 -100.625 C 175.8923 -98.406006 155.01123 -94.026635 135.125 -86.71875 C 142.5735 -67.658224 152.64968 -49.744724 163.75 -32.59375 C 170.6664 -28.912452 177.87097 -33.910241 184.81817 -34.790988 C 202.60446 -37.529687 221.94858 -34.586811 236.64008 -23.699073 C 249.33574 -14.981496 262.85702 -5.4424959 269.125 9.1875 C 272.05418 15.771211 273.07173 23.025749 275.18556 29.817036 C 278.52035 34.490519 285.0354 33.379082 290.02583 33.506544 C 305.56812 33.237112 321.11092 32.942367 336.65625 32.96875 C 341.00685 30.255055 339.72158 24.358953 338.71875 20.21875 C 333.47166 -7.5883651 320.25721 -33.5841 302.15625 -55.21875 C 291.68039 -56.902688 281.37591 -50.206465 271 -53.6875 C 253.60311 -56.355974 238.42812 -70.83467 235.90625 -88.40625 C 236.83556 -92.559513 234.69639 -98.229708 229.81307 -98.296645 C 219.02251 -100.57479 207.92248 -100.763 196.9375 -100.625 z M 200.15625 -93.25 C 208.97083 -92.812287 217.63173 -91.006109 226.34375 -89.71875 C 231.35867 -68.796671 248.25699 -51.03647 269.15625 -45.59375 C 278.9322 -45.140151 288.80765 -46.595176 298 -49.96875 C 314.76453 -30.799518 326.23515 -7.0505293 330.6875 18.03125 C 333.65104 21.13459 329.9032 27.272342 325.78125 25.71875 C 311.55225 24.991872 297.30485 24.798866 283.0625 24.5 C 278.92631 8.1583533 272.33756 -8.1088793 260.86172 -20.709063 C 247.78236 -34.211676 229.70214 -42.762965 210.96721 -44.335514 C 198.4088 -45.595721 185.75756 -44.173022 173.40625 -41.9375 C 169.19822 -42.794437 168.05589 -47.811528 165.87136 -50.919047 C 160.63141 -60.517271 154.62686 -69.701087 148.53125 -78.75 C 145.85719 -83.351667 152.36614 -83.670651 155.03931 -85.279607 C 169.27037 -91.21343 184.78922 -93.603991 200.15625 -93.25 z M 120.15625 -78.6875 C 95.304972 -61.494039 77.068904 -35.909711 66.15625 -7.9375 C 63.110488 -3.6360275 63.352574 3.4737405 68.25 6.34375 C 86.553074 22.713264 88.098809 54.20899 71.3125 72.1875 C 67.489546 75.149949 63.085487 80.237122 65.59375 85.34375 C 73.256342 107.1942 82.7815 129.50742 100.3125 145.34375 C 105.60008 150.01393 111.31269 154.18069 117.21875 158.03125 C 122.61853 158.64482 125.5042 152.95064 127.5 148.875 C 135.48609 133.88072 143.77036 119.04869 152 104.1875 C 123.39916 80.468225 114.32494 36.256507 131.57509 3.298352 C 135.94282 -5.1235563 142.31885 -12.3266 149.45937 -18.47587 C 153.67322 -23.753199 151.46941 -31.328869 147.59066 -36.126526 C 139.02044 -50.317235 130.52064 -64.552314 121.65625 -78.5625 C 121.20909 -78.859405 120.65126 -78.802492 120.15625 -78.6875 z M 128.78125 -44.8125 C 132.60848 -38.633524 136.50422 -32.498043 140.46875 -26.40625 C 138.24298 -17.916164 130.16684 -12.868562 126.61357 -5.0660815 C 114.13318 14.331752 108.3444 39.088782 115.3125 61.53125 C 119.97332 77.132784 129.78226 90.640838 141.09375 102.125 C 144.02641 108.01228 139.95802 114.2024 136.5 118.84375 C 130.66667 127.78125 124.83333 136.71875 119 145.65625 C 105.68119 135.94574 95.465969 122.7763 85.33153 109.95209 C 79.530477 101.88435 74.600151 93.206052 70.4375 84.1875 C 73.86712 74.573066 84.992039 70.080469 87.539017 59.952722 C 95.798665 42.362878 91.656819 19.892095 77.65012 6.4119943 C 75.15174 3.6887187 69.051209 1.0639556 71.820337 -3.4860925 C 80.675673 -26.610873 96.509489 -46.644227 115.60862 -62.205827 C 119.0413 -64.962623 120.30455 -56.739823 122.73198 -54.673644 C 124.7484 -51.386596 126.76483 -48.099548 128.78125 -44.8125 z M 36.28125 4.75 C 15.342008 6.1802929 -1.6293417 28.762946 3.90625 49.25 C 7.6479362 65.596958 24.818988 76.752573 41.23126 75.316413 C 59.011417 75.085636 76.28763 60.395769 77.094635 42.206436 C 78.013503 26.788869 66.85244 12.363406 52.548788 7.4217132 C 47.38779 5.4243703 41.807947 4.54017 36.28125 4.75 z M 45.375 11.125 C 63.86897 14.64077 75.367203 38.094985 66.096681 54.678807 C 59.754416 67.487199 42.497291 74.619101 29.465587 67.749634 C 15.291597 59.95041 8.6822151 39.831003 17.487436 25.767074 C 23.156573 16.313278 34.22234 9.901656 45.375 11.125 z M 278.21875 47.84375 C 272.45577 55.019545 273.47738 65.266016 267.86727 72.548083 C 252.92954 100.4634 221.54998 119.5693 189.625 117.5 C 183.92796 117.19072 178.30232 116.18478 172.75 114.90625 C 169.85199 111.75519 163.7343 114.1697 163.625 118.40625 C 154.04167 134.46875 144.45833 150.53125 134.875 166.59375 C 153.66624 175.83438 174.24875 181.50912 195.125 183.125 C 204.92098 183.51016 214.75825 182.51669 224.28125 180.1875 C 228.73615 180.32586 234.4679 177.94028 234.78125 172.875 C 238.13014 156.52235 249.89825 141.18253 266.45516 136.7732 C 276.04232 133.82844 286.67596 134.10838 295.96875 137.96875 C 303.48905 138.05777 307.91456 131.01992 312.125 125.84375 C 328.46451 105.13287 338.29046 79.4017 340.09375 53.09375 C 338.53209 48.141483 332.39221 47.825407 328.0625 48.15625 C 311.66667 47.9375 295.27083 47.71875 278.875 47.5 L 278.22677 47.839547 L 278.21875 47.84375 z M 288.21875 56.5 C 301.97814 56.731549 315.73955 56.632712 329.5 56.59375 C 331.52489 61.558464 327.84086 66.346994 327.15155 71.196819 C 321.17641 90.773935 312.19943 109.35773 301.25 126.625 C 298.17165 130.28216 292.8307 129.4278 288.9423 127.777 C 267.60721 122.34487 242.47508 131.74462 232.04373 151.62125 C 229.27926 156.82184 227.58911 162.52496 226.59375 168.3125 C 219.08824 173.70944 209.41338 171.37364 200.83073 172.125 C 183.43692 172.26143 165.81828 171.00135 149.125 165.8125 C 145.98999 163.21315 146.5385 157.98616 149.3125 155.3125 C 155.625 144.25 161.9375 133.1875 168.25 122.125 C 176.64462 120.40205 184.38677 125.75292 192.72752 125.54753 C 218.98484 128.99327 247.39673 119.16077 263.8696 97.965416 C 272.98751 86.814575 278.6767 73.269074 282.4375 59.46875 C 283.37491 57.263042 285.95851 56.283073 288.21875 56.5 z M 271.96875 141.09375 C 251.07787 143.43686 235.77307 167.59742 243.21875 187.40625 C 249.01261 202.73705 263.98241 215.19269 280.8125 215.03125 C 299.7565 213.99891 315.39812 195.32132 313.38904 176.50738 C 312.51459 157.69673 295.59983 141.20079 276.70616 141.06853 C 275.12794 140.98711 273.54779 141.08866 271.96875 141.09375 z M 281.09375 147.75 C 297.96429 149.85374 310.83848 168.85182 305.4375 185.21875 C 299.46153 202.07443 276.9251 210.93769 261.40625 201.5625 C 246.46566 192.62288 244.30915 169.01977 256.91693 157.19463 C 263.12149 150.72733 272.22037 147.50261 281.09375 147.75 z "
     id="circle3439" />
</svg>
