<?xml version="1.0" encoding="UTF-8" standalone="no"?>
<!-- Created with Sodipodi ("http://www.sodipodi.com/") -->
<svg
   xmlns:dc="http://purl.org/dc/elements/1.1/"
   xmlns:cc="http://creativecommons.org/ns#"
   xmlns:rdf="http://www.w3.org/1999/02/22-rdf-syntax-ns#"
   xmlns:svg="http://www.w3.org/2000/svg"
   xmlns="http://www.w3.org/2000/svg"
   xmlns:xlink="http://www.w3.org/1999/xlink"
   xmlns:sodipodi="http://sodipodi.sourceforge.net/DTD/sodipodi-0.dtd"
   xmlns:inkscape="http://www.inkscape.org/namespaces/inkscape"
   id="svg548"
   sodipodi:version="0.32"
   width="72pt"
   height="72pt"
   sodipodi:docname="totem.svg"
   inkscape:version="0.45+devel"
   sodipodi:docbase="/home/zeus/.icons/gartoon/scalable/apps"
   inkscape:output_extension="org.inkscape.output.svg.inkscape">
  <metadata
     id="metadata42">
    <rdf:RDF>
      <cc:Work
         rdf:about="">
        <dc:format>image/svg+xml</dc:format>
        <dc:type
           rdf:resource="http://purl.org/dc/dcmitype/StillImage" />
      </cc:Work>
    </rdf:RDF>
  </metadata>
  <defs
     id="defs550">
    <linearGradient
       id="linearGradient1979">
      <stop
         style="stop-color:#2aaf18;stop-opacity:1.0000000;"
         offset="0.0000000"
         id="stop1980" />
      <stop
         style="stop-color:#8bdbbe;stop-opacity:1.0000000;"
         offset="1.0000000"
         id="stop1981" />
    </linearGradient>
    <linearGradient
       id="linearGradient558">
      <stop
         style="stop-color:#7fa8e3;stop-opacity:0.741176;"
         offset="0.000000"
         id="stop559" />
      <stop
         style="stop-color:#ffffff;stop-opacity:0;"
         offset="1.000000"
         id="stop560" />
    </linearGradient>
    <linearGradient
       inkscape:collect="always"
       xlink:href="#linearGradient1979"
       id="linearGradient1983"
       gradientTransform="scale(0.936811,1.067452)"
       x1="-83.824181"
       y1="16.380545"
       x2="-81.145020"
       y2="-19.374353"
       gradientUnits="userSpaceOnUse" />
    <linearGradient
       inkscape:collect="always"
       xlink:href="#linearGradient558"
       id="linearGradient2718"
       gradientUnits="userSpaceOnUse"
       gradientTransform="matrix(0.846102,0,0,0.869775,0.9453482,34.670057)"
       spreadMethod="pad"
       x1="23.9531670"
       y1="24.2094688"
       x2="45.7012291"
       y2="18.4172096" />
    <linearGradient
       inkscape:collect="always"
       xlink:href="#linearGradient558"
       id="linearGradient2720"
       gradientUnits="userSpaceOnUse"
       gradientTransform="matrix(0.766548,0,0,1.30455,-2.7430808,22.371927)"
       spreadMethod="pad"
       x1="73.0144653"
       y1="38.8011742"
       x2="46.2984352"
       y2="43.8150940" />
  </defs>
  <sodipodi:namedview
     id="base"
     inkscape:zoom="2.8284271"
     inkscape:cx="68.332586"
     inkscape:cy="27.102759"
     inkscape:window-width="768"
     inkscape:window-height="708"
     inkscape:window-x="67"
     inkscape:window-y="25"
     inkscape:current-layer="svg548"
     showgrid="false" />
  <g
     id="g2711"
     transform="matrix(0.8496539,0,0,0.8496539,4.6986535,-11.80756)">
    <path
       style="font-size:12px;fill:#000000;fill-opacity:0.29411765;fill-rule:evenodd;stroke-width:1pt"
       d="M 47.404132,31.259728 C 29.046502,31.283214 11.229566,43.772357 5.4353831,61.853479 C -1.1865735,82.517721 10.390813,102.71236 31.279132,106.91598 C 52.167345,111.11957 74.500928,97.767723 81.122882,77.103479 C 87.744806,56.439337 76.167346,36.244575 55.279132,32.040978 C 52.668092,31.515526 50.026651,31.256373 47.404132,31.259728 z M 41.341632,59.697229 C 41.900108,59.696536 42.4731,59.744893 43.029132,59.853479 C 47.477364,60.722164 49.93929,64.895686 48.529132,69.165979 C 47.118965,73.436292 42.352363,76.222164 37.904132,75.353479 C 33.455879,74.484789 30.993967,70.311293 32.404132,66.040979 C 33.63802,62.304471 37.4323,59.702081 41.341632,59.697229 z"
       id="path2421" />
    <path
       id="path613"
       d="M 42.163169,24.934427 C 23.805539,24.957913 5.9886031,37.447055 0.19441922,55.528177 C -6.4275373,76.192419 5.1498494,96.38706 26.038169,100.59068 C 46.926382,104.79427 69.259965,91.442421 75.881919,70.778177 C 82.503843,50.114035 70.926383,29.919273 50.038169,25.715677 C 47.427129,25.190225 44.785688,24.931072 42.163169,24.934427 z M 36.100669,53.371927 C 36.659145,53.371234 37.232137,53.419591 37.788169,53.528177 C 42.236401,54.396862 44.698327,58.570384 43.288169,62.840677 C 41.878002,67.11099 37.1114,69.896862 32.663169,69.028177 C 28.214916,68.159487 25.753004,63.985991 27.163169,59.715677 C 28.397057,55.979169 32.191337,53.376779 36.100669,53.371927 z"
       style="font-size:12px;fill:#143c69;fill-rule:evenodd;stroke-width:1pt" />
    <path
       id="path612"
       d="M 41.319419,29.621927 C 25.273514,29.642528 9.7277022,40.602777 4.6631692,56.465677 C -1.1248972,74.594793 8.9677552,92.309014 27.225669,95.996927 C 45.483488,99.684823 65.0001,87.969791 70.788169,69.840677 C 76.576207,51.711649 66.483486,33.997323 48.225669,30.309427 C 45.94343,29.848437 43.611691,29.618984 41.319419,29.621927 z M 36.913169,48.684427 C 37.781252,48.683322 38.642635,48.761377 39.506919,48.934427 C 46.421155,50.318822 50.261336,56.972749 48.069419,63.778177 C 45.877492,70.583637 38.483654,75.006323 31.569419,73.621927 C 24.655149,72.237526 20.814992,65.583638 23.006919,58.778177 C 24.924847,52.823429 30.836588,48.692159 36.913169,48.684427 z"
       style="font-size:12px;fill:#ffffff;fill-rule:evenodd;stroke-width:1pt" />
    <path
       id="path562"
       d="M 38.538169,32.621927 C 29.190063,32.411102 16.006919,42.684427 16.006919,42.684427 C 16.006919,42.684427 21.929331,53.559807 23.850669,56.746927 C 26.325075,51.898638 31.550974,48.69125 36.913169,48.684427 C 37.781252,48.683322 38.642635,48.761377 39.506919,48.934427 C 39.756035,48.984306 39.984672,49.058606 40.225669,49.121927 L 39.444419,32.684427 C 39.15145,32.655129 38.839721,32.628728 38.538169,32.621927 z M 36.100669,53.371927 C 33.680629,53.374931 31.321185,54.381513 29.569419,56.028177 C 32.770626,54.958452 35.03714,54.176659 37.225669,53.434427 C 36.850272,53.388106 36.472487,53.371466 36.100669,53.371927 z"
       style="fill:url(#linearGradient2718);fill-opacity:1;fill-rule:evenodd;stroke:none;stroke-width:1pt;stroke-linecap:butt;stroke-linejoin:miter;stroke-opacity:1" />
    <path
       id="path557"
       d="M 45.913169,67.871927 C 42.633036,72.235162 36.963854,74.702022 31.569419,73.621927 C 31.256752,73.559324 30.96299,73.486858 30.663169,73.403177 L 26.131919,95.746927 C 26.495442,95.833151 26.855364,95.922129 27.225669,95.996927 C 32.769659,97.116757 38.431658,96.809586 43.788169,95.340677 C 46.986591,94.297344 50.876134,92.530147 55.850669,89.684427 C 56.235504,89.418494 56.63128,89.151242 57.006919,88.871927 C 57.012182,88.864485 57.001774,88.848212 57.006919,88.840677 C 59.177001,85.662635 50.948877,74.307385 45.913169,67.871927 z"
       style="fill:url(#linearGradient2720);fill-opacity:1;fill-rule:evenodd;stroke:none;stroke-width:1pt;stroke-linecap:butt;stroke-linejoin:miter;stroke-opacity:1" />
  </g>
  <g
     id="g2486"
     transform="translate(-1.767767,-2.4748737)">
    <path
       transform="matrix(0.502794,0,0,0.502794,111.3526,24.0816)"
       d="M -47.13092,4.7632313 L -115.57103,44.277147 L -115.57103,-34.750684 L -47.13092,4.7632313 z"
       inkscape:randomized="0"
       inkscape:rounded="0"
       inkscape:flatsided="true"
       sodipodi:arg2="1.0471976"
       sodipodi:arg1="0"
       sodipodi:r2="22.81337"
       sodipodi:r1="45.62674"
       sodipodi:cy="4.7632313"
       sodipodi:cx="-92.75766"
       sodipodi:sides="3"
       id="path1100"
       style="opacity:0.99450546;fill:url(#linearGradient1983);fill-opacity:1;fill-rule:nonzero;stroke:#0d3c07;stroke-width:7.48318386;stroke-linecap:butt;stroke-linejoin:round;marker:none;marker-start:none;marker-mid:none;marker-end:none;stroke-miterlimit:4;stroke-dashoffset:0;stroke-opacity:1;visibility:visible;display:block"
       sodipodi:type="star" />
    <path
       id="path1984"
       d="M 57.244012,40.685157 L 81.812252,27.147552 L 70.781612,23.13641 C 70.781612,23.13641 74.291362,23.637803 71.784402,27.147552 C 69.277432,30.657302 56.742622,34.668444 56.742622,34.668444 L 57.244012,40.685157 z"
       style="fill:#2a7b18;fill-opacity:1;fill-rule:evenodd;stroke:none;stroke-width:0.25pt;stroke-linecap:butt;stroke-linejoin:miter;stroke-opacity:1" />
    <path
       id="path1985"
       d="M 68.274652,19.626661 L 56.742622,12.105769 L 56.742622,21.130839 C 56.742622,21.130839 56.742622,14.612733 68.274652,19.626661 z"
       style="fill:#ffffff;fill-opacity:1;fill-rule:evenodd;stroke:none;stroke-width:0.25pt;stroke-linecap:butt;stroke-linejoin:miter;stroke-opacity:1" />
  </g>
  <g
     id="g2450"
     transform="matrix(1.1668627,-0.1235429,0.1235429,1.1668627,-17.757763,-1.9342744)">
    <path
       sodipodi:nodetypes="ccccccccccccc"
       id="path559"
       d="M 77.983856,47.109258 C 78.123502,47.947064 79.299759,49.969629 79.439405,50.807362 C 78.112946,51.296088 77.230717,52.006929 75.904258,52.495656 C 77.021284,57.452485 77.69408,60.261836 78.811106,65.218665 C 80.364004,64.956379 81.324377,64.101639 82.432972,63.098896 C 82.642406,64.285782 83.148065,65.990936 83.357498,67.177822 C 72.329087,74.110741 54.19197,81.04366 37.313725,81.089989 C 36.964645,80.04275 37.281984,78.106904 36.932904,77.059739 C 38.551338,77.085102 39.05905,76.962462 40.455369,76.765711 C 39.617563,72.576828 39.075911,67.869677 38.238178,63.680794 C 36.623996,63.803507 35.972385,63.703958 34.284209,63.75256 C 34.004938,62.286454 33.861062,61.351445 33.581798,59.88534 C 50.686366,58.349448 64.64926,54.509571 77.983856,47.109258 z"
       style="font-size:12px;fill-rule:evenodd;stroke-width:1pt" />
    <path
       sodipodi:nodetypes="cccc"
       id="path560"
       d="M 43.673984,75.357663 C 48.413169,75.629186 52.930167,74.271573 57.151011,72.913959 C 56.237701,68.076031 55.47254,65.829958 54.55923,60.99203 C 50.585278,62.6705 46.092911,63.534403 41.452467,63.731887"
       style="font-size:12px;fill:#f1e36c;fill-opacity:1;fill-rule:evenodd;stroke-width:1pt" />
    <path
       sodipodi:nodetypes="cccc"
       id="path561"
       d="M 61.371782,71.803311 C 67.369766,71.112189 71.220272,68.495777 74.996886,66.397634 C 74.083575,61.559706 73.096227,60.128127 72.182916,55.290199 C 67.986849,57.412973 62.976288,59.609712 58.483921,60.177462"
       style="font-size:12px;fill:#f1e36c;fill-opacity:1;fill-rule:evenodd;stroke-width:1pt" />
    <path
       sodipodi:nodetypes="ccccc"
       id="path563"
       d="M 44.035372,76.954345 C 44.170549,77.865377 44.367578,78.62288 44.502755,79.533913 C 45.858439,79.335342 47.15221,79.290383 48.489938,78.870401 C 48.35476,77.959369 48.237457,77.269684 48.10228,76.358651 C 46.844349,76.84644 45.408941,76.977193 44.035372,76.954345 z"
       style="font-size:12px;fill:#ffffff;fill-rule:evenodd;stroke-width:1pt" />
    <path
       sodipodi:nodetypes="ccccc"
       id="path564"
       d="M 51.265853,75.665779 C 51.50634,76.554835 51.790353,77.284196 52.030839,78.173252 C 53.354121,77.817955 54.633825,77.622442 55.913455,77.049339 C 55.672968,76.160283 55.476043,75.48898 55.235555,74.599924 C 54.043085,75.231068 52.632715,75.528306 51.265853,75.665779 z"
       style="font-size:12px;fill:#ffffff;fill-rule:evenodd;stroke-width:1pt" />
    <path
       sodipodi:nodetypes="ccccc"
       id="path565"
       d="M 57.930328,73.888639 C 58.170815,74.777695 58.454828,75.507057 58.695315,76.396113 C 60.018597,76.040815 61.2983,75.845302 62.57793,75.272199 C 62.337443,74.383143 62.140518,73.711841 61.900031,72.822785 C 60.70756,73.453929 59.297191,73.751167 57.930328,73.888639 z"
       style="font-size:12px;fill:#ffffff;fill-rule:evenodd;stroke-width:1pt" />
    <path
       sodipodi:nodetypes="ccccc"
       id="path566"
       d="M 64.594803,71.889311 C 64.83529,72.778367 65.119303,73.507729 65.35979,74.396785 C 66.683072,74.041487 67.962775,73.845974 69.242405,73.272871 C 69.001918,72.383815 68.804993,71.712513 68.564506,70.823457 C 67.372035,71.454601 65.961666,71.751839 64.594803,71.889311 z"
       style="font-size:12px;fill:#ffffff;fill-rule:evenodd;stroke-width:1pt" />
    <path
       sodipodi:nodetypes="ccccc"
       id="path567"
       d="M 64.594803,71.889311 C 64.83529,72.778367 65.119303,73.507729 65.35979,74.396785 C 66.683072,74.041487 67.962775,73.845974 69.242405,73.272871 C 69.001918,72.383815 68.804993,71.712513 68.564506,70.823457 C 67.372035,71.454601 65.961666,71.751839 64.594803,71.889311 z"
       style="font-size:12px;fill:#ffffff;fill-rule:evenodd;stroke-width:1pt" />
    <path
       sodipodi:nodetypes="ccccc"
       id="path568"
       d="M 70.889014,69.29753 C 71.129501,70.186586 71.413514,70.915948 71.654001,71.805003 C 72.977282,71.449706 74.256986,71.254193 75.536616,70.68109 C 75.296129,69.792034 75.099204,69.120732 74.858716,68.231676 C 73.666246,68.862819 72.255876,69.160058 70.889014,69.29753 z"
       style="font-size:12px;fill:#ffffff;fill-rule:evenodd;stroke-width:1pt" />
    <path
       sodipodi:nodetypes="ccccc"
       id="path569"
       d="M 40.777246,60.219191 C 40.912423,61.130224 41.109452,61.887727 41.244629,62.79876 C 42.600313,62.600188 43.894084,62.555229 45.231812,62.135248 C 45.096634,61.224215 44.979331,60.534531 44.844153,59.623497 C 43.586223,60.111287 42.150814,60.24204 40.777246,60.219191 z"
       style="font-size:12px;fill:#ffffff;fill-rule:evenodd;stroke-width:1pt" />
    <path
       sodipodi:nodetypes="ccccc"
       id="path570"
       d="M 48.007653,58.930625 C 48.24814,59.819681 48.532153,60.549043 48.77264,61.438099 C 50.095922,61.082801 51.375625,60.887288 52.655255,60.314185 C 52.414768,59.42513 52.217843,58.753827 51.977356,57.864771 C 50.784885,58.495915 49.374516,58.793153 48.007653,58.930625 z"
       style="font-size:12px;fill:#ffffff;fill-rule:evenodd;stroke-width:1pt" />
    <path
       sodipodi:nodetypes="ccccc"
       id="path571"
       d="M 54.672129,57.153412 C 54.912615,58.042468 55.196629,58.77183 55.437115,59.660886 C 56.760397,59.305588 58.040101,59.110075 59.319731,58.536972 C 59.079244,57.647917 58.882319,56.976614 58.641831,56.087558 C 57.44936,56.718702 56.038991,57.01594 54.672129,57.153412 z"
       style="font-size:12px;fill:#ffffff;fill-rule:evenodd;stroke-width:1pt" />
    <path
       sodipodi:nodetypes="ccccc"
       id="path572"
       d="M 61.336604,55.154084 C 61.577091,56.04314 61.861104,56.772502 62.101591,57.661558 C 63.424873,57.30626 64.704576,57.110747 65.984206,56.537644 C 65.743719,55.648589 65.546794,54.977286 65.306307,54.08823 C 64.113836,54.719374 62.703467,55.016612 61.336604,55.154084 z"
       style="font-size:12px;fill:#ffffff;fill-rule:evenodd;stroke-width:1pt" />
    <path
       sodipodi:nodetypes="ccccc"
       id="path573"
       d="M 67.630815,52.562377 C 67.871301,53.451432 68.155314,54.180794 68.395801,55.06985 C 69.719083,54.714553 70.998786,54.519039 72.278416,53.945937 C 72.03793,53.056881 71.841004,52.385578 71.600517,51.496522 C 70.408046,52.127666 68.997677,52.424904 67.630815,52.562377 z"
       style="font-size:12px;fill:#ffffff;fill-rule:evenodd;stroke-width:1pt" />
  </g>
</svg>
