<?xml version="1.0" encoding="UTF-8" standalone="no"?>
<!-- Created with Sodipodi ("http://www.sodipodi.com/") -->
<svg
   xmlns:dc="http://purl.org/dc/elements/1.1/"
   xmlns:cc="http://web.resource.org/cc/"
   xmlns:rdf="http://www.w3.org/1999/02/22-rdf-syntax-ns#"
   xmlns:svg="http://www.w3.org/2000/svg"
   xmlns="http://www.w3.org/2000/svg"
   xmlns:xlink="http://www.w3.org/1999/xlink"
   xmlns:sodipodi="http://sodipodi.sourceforge.net/DTD/sodipodi-0.dtd"
   xmlns:inkscape="http://www.inkscape.org/namespaces/inkscape"
   id="svg602"
   sodipodi:version="0.32"
   width="72pt"
   height="72pt"
   xml:space="preserve"
   sodipodi:docbase="/home/tweenk/GNUtoon/apps"
   sodipodi:docname="preferences-desktop-accessibility.svg"
   inkscape:version="0.45.1"
   inkscape:output_extension="org.inkscape.output.svg.inkscape"><metadata
     id="metadata27"><rdf:RDF><cc:Work
         rdf:about=""><dc:format>image/svg+xml</dc:format><dc:type
           rdf:resource="http://purl.org/dc/dcmitype/StillImage" /></cc:Work></rdf:RDF></metadata><defs
     id="defs604"><linearGradient
       id="linearGradient675"><stop
         style="stop-color:#ffffff;stop-opacity:0;"
         offset="0"
         id="stop676" /><stop
         style="stop-color:#ffffff;stop-opacity:1;"
         offset="1"
         id="stop677" /></linearGradient><linearGradient
       xlink:href="#linearGradient675"
       id="linearGradient674"
       x1="45.8717728"
       y1="50.6311722"
       x2="0.36620894"
       y2="3.20784521"
       gradientUnits="userSpaceOnUse"
       gradientTransform="scale(1.0962,0.912242)" /></defs><sodipodi:namedview
     id="base"
     inkscape:zoom="4.5222222"
     inkscape:cx="35.490826"
     inkscape:cy="45.999895"
     inkscape:window-width="795"
     inkscape:window-height="619"
     inkscape:window-x="114"
     inkscape:window-y="74"
     inkscape:current-layer="svg602" /><rect
     style="font-size:12px;fill:#000000;fill-opacity:0.37039998;fill-rule:evenodd;stroke:none;stroke-width:6.32089615"
     id="rect648"
     width="77.850578"
     height="75.067635"
     x="11.125624"
     y="12.158266"
     ry="6.7224698" /><rect
     style="font-size:12;fill:#ed0000;fill-rule:evenodd;stroke:#593a28;stroke-width:5;stroke-miterlimit:4;stroke-dasharray:none"
     id="rect610"
     width="75.0606842"
     height="72.1875603"
     x="6.0634303"
     y="6.24994128"
     ry="6.46455329" /><path
     style="font-size:12px;fill:#4a4a4a;fill-opacity:1;fill-rule:evenodd"
     d="M 46.400075,23.618585 C 46.400075,28.360178 42.282106,32.204001 37.202333,32.204001 C 32.122572,32.204001 28.004601,28.360178 28.004601,23.618585 C 28.004601,18.877 32.122572,15.033179 37.202333,15.033179 C 42.282106,15.033179 46.400075,18.877 46.400075,23.618585 z "
     id="path649" /><path
     style="font-size:12px;fill:none;fill-rule:evenodd;stroke:#4a4a4a;stroke-width:4.12323952;stroke-opacity:1"
     d="M 37.57022,30.486883 L 41.617222,52.465535 L 55.229869,44.910371 L 62.220147,55.899697 L 71.049971,55.899697"
     id="path607" /><path
     style="font-size:12px;fill:none;fill-rule:evenodd;stroke:#4a4a4a;stroke-width:4.4644599;stroke-opacity:1"
     d="M 53.098785,60.144727 C 45.547284,72.566449 33.061355,71.373489 26.90797,62.458266 C 23.329946,56.290376 25.025113,46.276141 34.048233,42.096408"
     id="path646"
     sodipodi:nodetypes="ccc" /><path
     style="font-size:12px;fill:#ffffff;fill-opacity:1;fill-rule:evenodd"
     d="M 44.290722,21.334414 C 44.290722,26.076009 40.172746,29.919827 35.092972,29.919827 C 30.013219,29.919827 25.895244,26.076009 25.895244,21.334414 C 25.895244,16.592828 30.013219,12.749001 35.092972,12.749001 C 40.172746,12.749001 44.290722,16.592828 44.290722,21.334414 z "
     id="path663" /><path
     style="font-size:12px;fill:none;fill-rule:evenodd;stroke:#555555;stroke-width:4.97632456;stroke-opacity:1"
     d="M 39.687129,37.957519 L 58.450511,34.866781"
     id="path669" /><path
     style="font-size:12px;fill:none;fill-rule:evenodd;stroke:#ffffff;stroke-width:4.12323952;stroke-opacity:1"
     d="M 35.460865,28.202712 L 39.507868,50.181361 L 53.120514,42.6262 L 60.110789,53.61552 L 68.940613,53.61552"
     id="path664" /><path
     style="font-size:12px;fill:none;fill-rule:evenodd;stroke:#ffffff;stroke-width:4.97632456;stroke-opacity:1"
     d="M 37.577774,35.042855 L 56.341155,31.952117"
     id="path665" /><path
     style="font-size:12px;fill:none;fill-rule:evenodd;stroke:#ffffff;stroke-width:4.46445942;stroke-opacity:1"
     d="M 50.989425,57.860551 C 43.437925,70.282277 30.951999,69.089316 24.798612,60.174091 C 21.220593,54.006203 22.915757,43.991966 31.938871,39.812233"
     id="path666"
     sodipodi:nodetypes="ccc" /><path
     style="fill:url(#linearGradient674);fill-rule:evenodd;stroke:none;stroke-opacity:1;stroke-width:1pt;stroke-linejoin:miter;stroke-linecap:butt;fill-opacity:1;"
     d="M 11.25001 55.31248 C 11.25001 55.31248 10.00001 13.43745 10.93751 11.87495 C 11.87501 10.31245 13.43751 10.31245 17.50001 10.31245 C 21.56251 10.31245 64.68754 10.93745 64.68754 10.93745 C 64.68754 10.93745 23.12502 9.687443 17.50001 20.62496 C 14.68751 30.93747 10.93751 55.93748 11.25001 55.31248 z "
     id="path670"
     sodipodi:nodetypes="cccccc" /></svg>