<?xml version="1.0" encoding="UTF-8" standalone="no"?>
<!-- Created with Sodipodi ("http://www.sodipodi.com/") -->
<svg
   xmlns:dc="http://purl.org/dc/elements/1.1/"
   xmlns:cc="http://web.resource.org/cc/"
   xmlns:rdf="http://www.w3.org/1999/02/22-rdf-syntax-ns#"
   xmlns:svg="http://www.w3.org/2000/svg"
   xmlns="http://www.w3.org/2000/svg"
   xmlns:xlink="http://www.w3.org/1999/xlink"
   xmlns:sodipodi="http://sodipodi.sourceforge.net/DTD/sodipodi-0.dtd"
   xmlns:inkscape="http://www.inkscape.org/namespaces/inkscape"
   version="1"
   x="0.00000000"
   y="0.00000000"
   width="90.0000000"
   height="90.0000000"
   id="svg548"
   sodipodi:version="0.32"
   inkscape:version="0.45.1"
   sodipodi:docname="calc-shit.svg"
   sodipodi:docbase="/home/tweenk/GNUtoon additions"
   inkscape:output_extension="org.inkscape.output.svg.inkscape">
  <metadata
     id="metadata27">
    <rdf:RDF>
      <cc:Work
         rdf:about="">
        <dc:format>image/svg+xml</dc:format>
        <dc:type
           rdf:resource="http://purl.org/dc/dcmitype/StillImage" />
      </cc:Work>
    </rdf:RDF>
  </metadata>
  <sodipodi:namedview
     id="base"
     pagecolor="#ffffff"
     bordercolor="#666666"
     borderopacity="1.0"
     inkscape:pageopacity="0.0"
     inkscape:pageshadow="2"
     inkscape:zoom="0.39971175"
     inkscape:cx="571.86256"
     inkscape:cy="-52.23568"
     inkscape:window-width="795"
     inkscape:window-height="623"
     inkscape:window-x="186"
     inkscape:window-y="96"
     inkscape:current-layer="svg548" />
  <defs
     id="defs550">
    <linearGradient
       id="linearGradient3154">
      <stop
         style="stop-color:#c2c2c2;stop-opacity:1;"
         offset="0"
         id="stop3156" />
      <stop
         style="stop-color:#ffffff;stop-opacity:1;"
         offset="1"
         id="stop3158" />
    </linearGradient>
    <linearGradient
       id="linearGradient3146">
      <stop
         style="stop-color:#2aaf18;stop-opacity:1;"
         offset="0"
         id="stop3148" />
      <stop
         style="stop-color:#cbff87;stop-opacity:1;"
         offset="1"
         id="stop3150" />
    </linearGradient>
    <linearGradient
       inkscape:collect="always"
       xlink:href="#linearGradient3146"
       id="linearGradient3152"
       x1="28.656925"
       y1="38.573059"
       x2="49.363117"
       y2="-5.4318562"
       gradientUnits="userSpaceOnUse"
       gradientTransform="matrix(0.9438202,0,0,0.9438202,4.8105616,3.0259125e-2)" />
    <linearGradient
       inkscape:collect="always"
       xlink:href="#linearGradient3154"
       id="linearGradient3160"
       x1="37.627258"
       y1="82.837067"
       x2="62.993549"
       y2="16.964901"
       gradientUnits="userSpaceOnUse"
       gradientTransform="matrix(0.9438202,0,0,0.9438202,4.8105616,3.0259125e-2)" />
  </defs>
  <path
     style="fill:#000000;fill-opacity:0.29019608;fill-rule:evenodd;stroke:none;stroke-width:1px;stroke-linecap:butt;stroke-linejoin:miter;stroke-opacity:1"
     d="M 7.4220846,19.931314 C 3.5562848,41.445565 19.064397,74.937172 33.284769,89.861309 C 51.444906,88.876998 65.135334,86.13509 81.901864,77.006307 C 80.804631,56.940078 74.751489,17.227833 57.722833,5.8276392 C 38.252666,4.8928268 18.014769,9.3917119 7.4220846,19.931314 z "
     id="path5138"
     sodipodi:nodetypes="ccccc" />
  <path
     style="fill:#283d53;fill-opacity:1;fill-rule:evenodd;stroke:none;stroke-width:1px;stroke-linecap:butt;stroke-linejoin:miter;stroke-opacity:1"
     d="M 11.14817,14.762522 C 7.2823698,36.276773 22.790483,69.76838 37.010853,84.692517 C 55.17099,83.708206 68.861418,80.966298 85.627948,71.837515 C 84.530715,51.771286 78.477573,12.059042 61.448917,0.65884728 C 41.97875,-0.27596532 21.740854,4.22292 11.14817,14.762522 z "
     id="path2173"
     sodipodi:nodetypes="ccccc" />
  <path
     style="fill:url(#linearGradient3160);fill-opacity:1;fill-rule:evenodd;stroke:none;stroke-width:1px;stroke-linecap:butt;stroke-linejoin:miter;stroke-opacity:1"
     d="M 16.626201,18.591963 C 13.33026,36.934791 26.552316,65.489387 38.676457,78.213552 C 54.159601,77.374338 65.831919,75.036616 80.126888,67.25351 C 79.191399,50.145252 74.030553,16.287003 59.512097,6.5673149 C 42.912034,5.7703037 25.657414,9.6060068 16.626201,18.591963 z "
     id="path4121"
     sodipodi:nodetypes="ccccc" />
  <path
     style="fill:url(#linearGradient3152);fill-opacity:1;fill-rule:evenodd;stroke:none;stroke-width:1px;stroke-linecap:butt;stroke-linejoin:miter;stroke-opacity:1"
     d="M 24.092431,22.157903 C 32.219839,16.096967 43.535282,12.866628 56.43983,13.210749 C 58.160438,14.931357 61.085469,17.512264 62.461953,20.953479 C 51.637315,22.433702 36.342277,25.534214 24.780672,32.137419 C 24.26449,30.244753 23.616807,24.95809 24.092431,22.157903 z "
     id="path5092"
     sodipodi:nodetypes="ccccc" />
  <path
     style="fill:#283d53;fill-opacity:1;fill-rule:evenodd;stroke:none;stroke-width:0.85369498px;stroke-linecap:butt;stroke-linejoin:miter;stroke-opacity:1"
     d="M 26.88997,38.951104 L 34.061092,34.94083 L 35.984074,41.61098 L 28.612641,44.925597 L 26.88997,38.951104 z "
     id="path8083" />
  <path
     style="fill:#283d53;fill-opacity:1;fill-rule:evenodd;stroke:none;stroke-width:0.84372413px;stroke-linecap:butt;stroke-linejoin:miter;stroke-opacity:1"
     d="M 36.982064,33.914572 L 38.859902,40.627381 L 46.253896,37.925886 L 44.102206,31.090281 L 36.982064,33.914572 z "
     id="path8085" />
  <path
     style="fill:#283d53;fill-opacity:1;fill-rule:evenodd;stroke:none;stroke-width:0.84142709px;stroke-linecap:butt;stroke-linejoin:miter;stroke-opacity:1"
     d="M 49.061992,37.148993 L 57.232472,34.733902 L 55.053676,28.184505 L 46.922104,30.353993 L 49.061992,37.148993 z "
     id="path8087" />
  <path
     style="fill:#283d53;fill-opacity:1;fill-rule:evenodd;stroke:none;stroke-width:0.82419598px;stroke-linecap:butt;stroke-linejoin:miter;stroke-opacity:1"
     d="M 58.196965,27.686193 L 60.2864,34.156933 L 66.853196,32.805451 L 64.726448,26.53948 L 58.196965,27.686193 z "
     id="path8089" />
  <path
     style="fill:#283d53;fill-opacity:1;fill-rule:evenodd;stroke:none;stroke-width:0.85369498px;stroke-linecap:butt;stroke-linejoin:miter;stroke-opacity:1"
     d="M 29.614194,47.912841 L 32.057985,53.641806 L 39.189044,50.449955 L 36.985626,44.516384 L 29.614194,47.912841 z "
     id="path8091" />
  <path
     style="fill:#283d53;fill-opacity:1;fill-rule:evenodd;stroke:none;stroke-width:0.84372413px;stroke-linecap:butt;stroke-linejoin:miter;stroke-opacity:1"
     d="M 39.759701,43.656332 L 41.911394,49.591436 L 49.227142,46.726213 L 47.192815,40.750176 L 39.759701,43.656332 z "
     id="path8093" />
  <path
     style="fill:#283d53;fill-opacity:1;fill-rule:evenodd;stroke:none;stroke-width:0.84142709px;stroke-linecap:butt;stroke-linejoin:miter;stroke-opacity:1"
     d="M 50.034668,39.973421 L 58.088427,37.558332 L 59.683616,43.329989 L 52.018928,45.826946 L 50.034668,39.973421 z "
     id="path8095" />
  <path
     style="fill:#283d53;fill-opacity:1;fill-rule:evenodd;stroke:none;stroke-width:0.82419598px;stroke-linecap:butt;stroke-linejoin:miter;stroke-opacity:1"
     d="M 61.069937,36.941809 L 62.487769,42.716329 L 68.830696,40.99626 L 67.599422,35.508417 L 61.069937,36.941809 z "
     id="path8097" />
  <path
     style="fill:#283d53;fill-opacity:1;fill-rule:evenodd;stroke:none;stroke-width:0.82419598px;stroke-linecap:butt;stroke-linejoin:miter;stroke-opacity:1"
     d="M 69.427678,43.576365 L 70.472395,50.047104 L 64.689138,53.077704 L 63.122061,45.501206 L 69.427678,43.576365 z "
     id="path8099" />
  <path
     style="fill:#283d53;fill-opacity:1;fill-rule:evenodd;stroke:none;stroke-width:0.84142709px;stroke-linecap:butt;stroke-linejoin:miter;stroke-opacity:1"
     d="M 60.345035,46.072549 L 62.056946,53.768091 L 55.442747,56.101314 L 52.874881,48.528573 L 60.345035,46.072549 z "
     id="path8101" />
  <path
     style="fill:#283d53;fill-opacity:1;fill-rule:evenodd;stroke:none;stroke-width:0.84372413px;stroke-linecap:butt;stroke-linejoin:miter;stroke-opacity:1"
     d="M 42.889434,52.170138 L 45.667069,58.678286 L 52.70897,56.836357 L 50.126939,49.386778 L 42.889434,52.170138 z "
     id="path8103" />
  <path
     style="fill:#283d53;fill-opacity:1;fill-rule:evenodd;stroke:none;stroke-width:0.85369498px;stroke-linecap:butt;stroke-linejoin:miter;stroke-opacity:1"
     d="M 43.115133,59.248008 L 35.823826,60.884856 L 33.139662,55.933392 L 40.230659,53.068909 L 43.115133,59.248008 z "
     id="path8105" />
  <path
     style="fill:#283d53;fill-opacity:1;fill-rule:evenodd;stroke:none;stroke-width:0.85369498px;stroke-linecap:butt;stroke-linejoin:miter;stroke-opacity:1"
     d="M 37.025689,62.889991 L 40.591218,68.168824 L 47.361718,67.309479 L 44.156749,61.41683 L 37.025689,62.889991 z "
     id="path8107" />
  <path
     style="fill:#283d53;fill-opacity:1;fill-rule:evenodd;stroke:none;stroke-width:0.84372413px;stroke-linecap:butt;stroke-linejoin:miter;stroke-opacity:1"
     d="M 46.723356,60.970464 L 49.774846,66.946501 L 55.916946,65.595753 L 53.530523,59.046671 L 46.723356,60.970464 z "
     id="path8109" />
  <path
     style="fill:#283d53;fill-opacity:1;fill-rule:evenodd;stroke:none;stroke-width:0.84142709px;stroke-linecap:butt;stroke-linejoin:miter;stroke-opacity:1"
     d="M 56.143075,58.475472 L 58.43859,65.024868 L 63.691041,63.100984 L 62.562739,56.060381 L 56.143075,58.475472 z "
     id="path8111" />
  <path
     style="fill:#283d53;fill-opacity:1;fill-rule:evenodd;stroke:none;stroke-width:0.82419598px;stroke-linecap:butt;stroke-linejoin:miter;stroke-opacity:1"
     d="M 66.14428,62.415228 L 65.099562,55.371132 L 70.770886,52.42244 L 71.554423,59.261766 L 66.14428,62.415228 z "
     id="path8113" />
</svg>
