<?xml version="1.0" encoding="UTF-8" standalone="no"?>
<!-- Created with Sodipodi ("http://www.sodipodi.com/") -->

<svg
   xmlns:dc="http://purl.org/dc/elements/1.1/"
   xmlns:cc="http://creativecommons.org/ns#"
   xmlns:rdf="http://www.w3.org/1999/02/22-rdf-syntax-ns#"
   xmlns:svg="http://www.w3.org/2000/svg"
   xmlns="http://www.w3.org/2000/svg"
   xmlns:xlink="http://www.w3.org/1999/xlink"
   xmlns:sodipodi="http://sodipodi.sourceforge.net/DTD/sodipodi-0.dtd"
   xmlns:inkscape="http://www.inkscape.org/namespaces/inkscape"
   version="1.0"
   x="0"
   y="0"
   width="90"
   height="90"
   id="svg683"
   xml:space="preserve"
   sodipodi:version="0.32"
   inkscape:version="0.47+devel r9192 custom"
   sodipodi:docname="bazaar.svg"
   inkscape:output_extension="org.inkscape.output.svg.inkscape"><metadata
     id="metadata9"><rdf:RDF><cc:Work
         rdf:about=""><dc:format>image/svg+xml</dc:format><dc:type
           rdf:resource="http://purl.org/dc/dcmitype/StillImage" /><dc:title></dc:title></cc:Work></rdf:RDF></metadata><sodipodi:namedview
     inkscape:window-height="619"
     inkscape:window-width="795"
     inkscape:pageshadow="2"
     inkscape:pageopacity="0.0"
     guidetolerance="10.0"
     gridtolerance="10.0"
     objecttolerance="10.0"
     borderopacity="1.0"
     bordercolor="#666666"
     pagecolor="#ffffff"
     id="base"
     inkscape:zoom="3.197694"
     inkscape:cx="43.993625"
     inkscape:cy="48.944652"
     inkscape:window-x="198"
     inkscape:window-y="34"
     inkscape:current-layer="svg683"
     showgrid="false"
     inkscape:snap-global="false"
     inkscape:object-nodes="true"
     inkscape:window-maximized="0" /><defs
     id="defs685"><linearGradient
       inkscape:collect="always"
       id="linearGradient920"><stop
         style="stop-color:#ff933d;stop-opacity:1"
         offset="0"
         id="stop922" /><stop
         style="stop-color:#f1e36c;stop-opacity:1"
         offset="1"
         id="stop924" /></linearGradient><linearGradient
       xlink:href="#linearGradient920"
       gradientTransform="matrix(0.79473821,0,0,0.79473821,26.460192,-32.430568)"
       gradientUnits="userSpaceOnUse"
       y2="14.373464"
       x2="26.535625"
       y1="86.686882"
       x1="67.665848"
       id="linearGradient926"
       inkscape:collect="always" /></defs><g
     id="g2987"><rect
       transform="matrix(0.70684473,0.70736874,-0.70684473,0.70736874,0,0)"
       ry="5.3426042"
       y="-32.149479"
       x="36.159042"
       height="59.659115"
       width="61.870827"
       id="rect648"
       style="font-size:12px;fill:#000000;fill-opacity:0.29411765;fill-rule:evenodd;stroke:none" /><rect
       transform="matrix(0.70684473,0.70736874,-0.70684473,0.70736874,0,0)"
       id="rect610"
       style="font-size:12px;fill:url(#linearGradient926);fill-opacity:1;fill-rule:evenodd;stroke:#593a28;stroke-width:5;stroke-miterlimit:4;stroke-dasharray:none"
       y="-27.463499"
       x="31.279034"
       ry="5.1376271"
       height="57.370216"
       width="59.653595" /><g
       id="g947"><path
         sodipodi:nodetypes="csccssccccsc"
         d="m 42.275592,17.576996 c 3.964515,0.862104 18.618564,16.024226 17.072786,20.425876 -0.353918,1.007794 -6.790586,3.568974 -8.888327,3.666588 0.04637,1.448526 0.277017,2.651587 -0.0098,4.063902 7.392262,4.235058 12.460349,7.318076 12.728201,9.885678 0.763697,7.32073 -4.354643,11.246682 -8.267602,10.963463 -1.709019,-0.123699 -4.323921,-2.32813 -4.982576,-4.125547 0.568153,3.574047 -0.382007,6.748643 -1.164333,7.275806 C 45.719246,70.036242 36.10684,72.3382 33.591919,67.184307 31.94927,61.230597 35.34788,42.397525 33.846506,40.967565 30.937867,40.006692 24.948314,39.273463 25.297181,37.200237 25.724121,34.663039 38.15755,16.025029 42.275609,17.576996 z"
         style="font-size:12px;fill:#000000;fill-opacity:0.29411765;fill-rule:evenodd;stroke-width:1pt"
         id="path945" /><path
         id="path582"
         style="font-size:12px;fill:#000000;fill-rule:evenodd;stroke-width:1pt"
         d="m 39.930152,14.91883 c 3.964515,0.862104 18.618564,16.024226 17.072786,20.425876 -0.353918,1.007794 -6.790586,3.568974 -8.888327,3.666588 0.04637,1.448526 0.277017,2.651587 -0.0098,4.063902 7.392262,4.235058 12.460349,7.318076 12.728201,9.885678 0.763697,7.32073 -4.354643,11.246682 -8.267602,10.963463 -1.709019,-0.123699 -4.323921,-2.32813 -4.982576,-4.125547 0.568153,3.574047 -0.382007,6.748643 -1.164333,7.275806 -3.044695,0.30348 -12.657101,2.605438 -15.172022,-2.548455 -1.642649,-5.95371 1.755961,-24.786782 0.254587,-26.216742 -2.908639,-0.960873 -8.898192,-1.694102 -8.549325,-3.767328 0.42694,-2.537198 12.860369,-21.175208 16.978428,-19.623241 z"
         sodipodi:nodetypes="csccssccccsc" /><path
         sodipodi:nodetypes="csssscsscsscc"
         style="font-size:12px;fill:#515969;fill-rule:evenodd;stroke-width:1pt"
         d="m 39.27854,20.031515 c -3.466966,0.573793 -10.928968,12.073746 -11.23652,13.421396 -0.328055,1.437494 3.667622,1.472356 5.84526,2.099753 2.177639,0.627399 -0.05644,24.891214 0.17025,27.211671 0.226664,2.320269 6.696471,1.395026 9.023265,1.248503 1.674438,-0.105442 2.091304,-5.30518 2.156505,-11.151394 2.372594,3.226127 6.12305,7.682383 7.462637,7.491013 1.987686,-0.283955 5.817499,-3.68712 4.965634,-5.958761 -0.772429,-2.059808 -10.555861,-8.40383 -12.456647,-9.619141 -0.05889,-3.723138 -0.115512,-6.838511 0.141876,-7.803138 0.521105,-1.952969 5.243535,-0.65832 6.639761,-3.234155 1.396146,-2.575725 -9.070353,-13.149329 -12.059395,-13.648998 -0.192135,-0.06503 -0.421496,-0.095 -0.652626,-0.05675 z"
         id="path581" /><path
         d="m 40.340369,21.681699 c 0,0 6.337366,6.402595 6.779436,7.996728 0.44198,1.594033 -2.604595,0.698744 -2.604595,0.698744 0,0 -3.021587,-8.098185 -4.174841,-8.695472 z"
         style="font-size:12px;fill:#ffffff;fill-rule:evenodd;stroke-width:1pt"
         id="path589" /><path
         style="color:#000000;fill:#393f4b;fill-opacity:1;fill-rule:evenodd;stroke:none;stroke-width:5;marker:none;visibility:visible;display:inline;overflow:visible;enable-background:accumulate"
         d="m 44.754923,49.286188 c -1.625362,0.213866 -0.783046,5.044684 0.368877,7.264012 0.05739,-1.170348 0.09924,-2.410002 0.1135,-3.688756 2.372594,3.226127 6.12305,7.682383 7.462637,7.491013 0.662563,-0.09465 1.524828,-0.561378 2.355129,-1.191752 -0.80416,-2.642076 -9.449663,-9.471774 -10.300143,-9.874517 z"
         id="path867"
         sodipodi:nodetypes="cccscc" /><path
         style="color:#000000;fill:#393f4b;fill-opacity:1;fill-rule:evenodd;stroke:none;stroke-width:5;marker:none;visibility:visible;display:inline;overflow:visible;enable-background:accumulate"
         d="m 34.085906,24.429646 c -2.987016,3.595801 -5.855944,8.19973 -6.043886,9.023265 -0.328055,1.437494 3.667622,1.472356 5.84526,2.099753 2.177639,0.627399 -0.05644,24.891214 0.17025,27.211671 0.114422,1.171286 1.813659,1.52577 3.773882,1.560628 1.597876,-3.21276 0.964751,-19.05956 0.964751,-22.274412 0,-3.407462 -1.13449,-8.086173 -1.844378,-9.080015 -0.709888,-0.993844 -3.97179,-0.283342 -4.965633,-0.851252 -0.932653,-0.532945 -0.524267,-1.18801 2.099754,-7.689638 z"
         id="path869" /><path
         style="color:#000000;fill:#ffffff;fill-opacity:1;fill-rule:evenodd;stroke:none;stroke-width:5;marker:none;visibility:visible;display:inline;overflow:visible;enable-background:accumulate"
         d="m 45.183483,45.738523 c -2.363284,1.165582 5.685855,4.932824 7.595798,5.537124 -1.419774,-1.70373 -6.743933,-5.040203 -7.595798,-5.537124 z"
         id="path898"
         sodipodi:nodetypes="ccc" /></g></g><g
     id="g1271"
     style="font-size:12px"
     transform="matrix(0.85299212,-0.2221186,0.2221186,0.85299212,25.399127,46.178632)"><defs
       id="defs1272"><linearGradient
         id="linearGradient621"><stop
           id="stop623"
           offset="0"
           style="stop-color:#666565;stop-opacity:1;" /><stop
           id="stop622"
           offset="1"
           style="stop-color:#ffffff;stop-opacity:1;" /></linearGradient><linearGradient
         id="linearGradient610"><stop
           id="stop612"
           offset="0"
           style="stop-color:#666565;stop-opacity:1;" /><stop
           id="stop611"
           offset="1"
           style="stop-color:#ffffff;stop-opacity:1;" /></linearGradient><defs
         id="defs1283"><linearGradient
           spreadMethod="pad"
           gradientUnits="objectBoundingBox"
           xlink:href="#linearGradient610"
           id="linearGradient554"
           y2="0"
           x2="1"
           y1="0"
           x1="0" /><linearGradient
           spreadMethod="pad"
           gradientTransform="scale(1.122498,0.89087)"
           gradientUnits="userSpaceOnUse"
           xlink:href="#linearGradient554"
           id="linearGradient557"
           y2="72.29023"
           x2="8.3357515"
           y1="79.96035"
           x1="12.9236" /><linearGradient
           spreadMethod="pad"
           gradientTransform="scale(1.122498,0.89087)"
           gradientUnits="userSpaceOnUse"
           xlink:href="#linearGradient554"
           id="linearGradient559"
           y2="78.428917"
           x2="12.994576"
           y1="68.656029"
           x1="7.798367" /><linearGradient
           xlink:href="#linearGradient554"
           id="linearGradient563" /></defs><defs
         id="defs573"><linearGradient
           spreadMethod="pad"
           gradientUnits="objectBoundingBox"
           xlink:href="#linearGradient621"
           id="linearGradient604"
           y2="0"
           x2="1"
           y1="0"
           x1="0" /><linearGradient
           id="linearGradient600"><stop
             id="stop601"
             offset="0"
             style="stop-color:#000000;stop-opacity:1;" /><stop
             id="stop602"
             offset="1"
             style="stop-color:#ffffff;stop-opacity:1;" /></linearGradient><linearGradient
           spreadMethod="pad"
           gradientTransform="scale(0.994399,1.005632)"
           gradientUnits="userSpaceOnUse"
           xlink:href="#linearGradient604"
           id="linearGradient603"
           y2="14.15477"
           x2="79.628151"
           y1="28.657213"
           x1="61.04689" /></defs></defs><path
       id="path634"
       style="fill:none;stroke:#000000;stroke-width:4.30358124"
       d="M 48.81122,55.61913 39.40311,47.06217 C 39.31588,46.98283 30.45357,50.30231 26.40083,50.26261 16.98036,50.16918 3.817009,44.17875 2.741079,27.77976 1.890729,14.71088 10.51725,2.547793 26.23738,2.522773 39.15413,2.502398 51.08589,11.9679 49.8154,27.53133 49.2088,35.19649 45.52692,39.62464 46.16072,40.3028 l 10.3121,11.0338 c 1.67569,1.79296 -0.23896,11.03364 -7.6616,4.28253 z"
       inkscape:connector-curvature="0" /><path
       id="path620"
       style="fill:none;stroke:#efe16b;stroke-width:3.25"
       d="m 47.76238,26.53993 c 0,3.02175 -0.6131,5.90117 -1.72163,8.52057 -0.55426,1.3097 -1.70537,4.57037 -2.60027,5.65485 l 8.3026,11.08066 -0.78685,1.18252 -11.10871,-9.63797 c -1.08448,0.8949 -4.1516,2.82021 -5.4613,3.37447 -2.6194,1.10852 -5.49882,1.72163 -8.52057,1.72163 -12.08699,0 -21.89673,-9.80973 -21.89673,-21.89673 0,-12.08699 9.80974,-21.896733 21.89673,-21.896733 12.087,0 21.89673,9.809743 21.89673,21.896733 z"
       inkscape:connector-curvature="0" /><path
       id="path562"
       style="fill:#ffc83d;fill-rule:evenodd"
       d="m 44.24797,38.76775 11.91834,13.30281 c 1.92841,2.74655 -1.1645,6.19535 -4.37187,4.52296 L 38.14389,44.66903 c 0.2607,-2.76584 4.09625,-5.40882 6.10408,-5.90128 z"
       inkscape:connector-curvature="0" /><path
       id="path567"
       style="fill:#ff933d;fill-rule:evenodd"
       d="m 43.86792,39.16621 11.89502,13.11666 c 0.83409,2.11662 -0.53462,-1.44297 -2.29362,2.23907 L 41.29443,41.50412 c 0.02179,-0.85513 0.48208,-1.9203 2.57349,-2.33791 z"
       inkscape:connector-curvature="0" /><path
       id="path568"
       style="fill:#ffffff;fill-rule:evenodd"
       d="m 40.04615,42.27535 12.65327,12.48017 c 0.51713,0.14775 -0.60624,0.40213 -0.41976,1.70134 C 51.83815,55.8353 38.85772,43.95679 38.85772,43.95679 z"
       inkscape:connector-curvature="0" /><ellipse
       id="path611"
       style="fill:#bae6ff;fill-opacity:0.431;fill-rule:evenodd;stroke-width:1"
       transform="matrix(1.106369,0,0,1.106369,-7.012474,-6.130595)"
       ry="18.451067"
       rx="18.451067"
       cy="28.953592"
       cx="29.499611"
       sodipodi:cx="29.499611"
       sodipodi:cy="28.953592"
       sodipodi:rx="18.451067"
       sodipodi:ry="18.451067"
       d="m 47.950678,28.953592 c 0,10.190243 -8.260824,18.451067 -18.451067,18.451067 -10.190243,0 -18.451067,-8.260824 -18.451067,-18.451067 0,-10.190243 8.260824,-18.451067 18.451067,-18.451067 10.190243,0 18.451067,8.260824 18.451067,18.451067 z" /><path
       id="path610"
       style="fill:#437caf;fill-opacity:0.34479998;fill-rule:evenodd;stroke-width:1"
       d="m 38.94959,11.01917 c 4.25334,3.03534 7.34957,7.69212 8.27822,13.24924 0.92864,5.55712 -0.48527,10.96758 -3.52061,15.22092 -3.03535,4.25335 -7.69213,7.34957 -13.24925,8.27821 -5.55711,0.92865 -9.21286,-0.19281 -15.22092,-3.5206 m 0,0 c 29.2168,-8.79323 22.0325,-15.93489 23.71256,-33.22777"
       inkscape:connector-curvature="0" /><path
       id="path651"
       style="fill:#ff0000;fill-rule:evenodd;stroke-width:1"
       d="m 44.19708,38.5588 c -2.0449,0.76964 -1.41633,0.65419 -3.29481,1.86762 -0.10454,0.17099 -1.23455,0.05918 -2.70765,4.31979 l 3.13238,2.80668 c 0.84957,-1.12667 2.09479,-3.17528 2.83341,-3.69175 1.07102,-0.79427 1.60107,-1.20024 3.17135,-1.82809 z"
       inkscape:connector-curvature="0" /><path
       id="path652"
       style="fill:#ffffff;fill-rule:evenodd;stroke-width:1"
       d="m 41.76381,44.43223 -0.98475,1.40744 -1.89339,-1.57431 0.88755,-1.38681 z"
       inkscape:connector-curvature="0" /></g></svg>