<?xml version="1.0" encoding="UTF-8" standalone="no"?>
<!-- Created with Sodipodi ("http://www.sodipodi.com/") -->
<svg
   xmlns:dc="http://purl.org/dc/elements/1.1/"
   xmlns:cc="http://creativecommons.org/ns#"
   xmlns:rdf="http://www.w3.org/1999/02/22-rdf-syntax-ns#"
   xmlns:svg="http://www.w3.org/2000/svg"
   xmlns="http://www.w3.org/2000/svg"
   xmlns:xlink="http://www.w3.org/1999/xlink"
   xmlns:sodipodi="http://sodipodi.sourceforge.net/DTD/sodipodi-0.dtd"
   xmlns:inkscape="http://www.inkscape.org/namespaces/inkscape"
   id="svg548"
   sodipodi:version="0.32"
   width="72pt"
   height="72pt"
   sodipodi:docname="disksearch.svg"
   inkscape:version="0.46+devel"
   inkscape:output_extension="org.inkscape.output.svg.inkscape">
  <metadata
     id="metadata24">
    <rdf:RDF>
      <cc:Work
         rdf:about="">
        <dc:format>image/svg+xml</dc:format>
        <dc:type
           rdf:resource="http://purl.org/dc/dcmitype/StillImage" />
        <dc:title></dc:title>
      </cc:Work>
    </rdf:RDF>
  </metadata>
  <defs
     id="defs550">
    <linearGradient
       id="linearGradient558">
      <stop
         style="stop-color:#7fa8e3;stop-opacity:0.741176;"
         offset="0.000000"
         id="stop559" />
      <stop
         style="stop-color:#ffffff;stop-opacity:0;"
         offset="1.000000"
         id="stop560" />
    </linearGradient>
    <linearGradient
       xlink:href="#linearGradient558"
       id="linearGradient563"
       x1="23.9531670"
       y1="24.2094688"
       x2="45.7012291"
       y2="18.4172096"
       gradientUnits="userSpaceOnUse"
       gradientTransform="scale(0.986297,1.013893)"
       spreadMethod="pad" />
    <linearGradient
       inkscape:collect="always"
       xlink:href="#linearGradient558"
       id="linearGradient4204"
       gradientUnits="userSpaceOnUse"
       gradientTransform="scale(0.766548,1.30455)"
       spreadMethod="pad"
       x1="73.0144653"
       y1="38.8011742"
       x2="46.2984352"
       y2="43.8150940" />
  </defs>
  <sodipodi:namedview
     id="base"
     showgrid="false"
     inkscape:zoom="2.7666667"
     inkscape:cx="45.479658"
     inkscape:cy="41.628668"
     inkscape:window-width="687"
     inkscape:window-height="724"
     inkscape:window-x="0"
     inkscape:window-y="9"
     inkscape:current-layer="svg548" />
  <path
     id="path2421"
     d="M 50.147213,8.8878012 C 31.789583,8.9112875 13.972647,21.40043 8.1784639,39.481552 C 1.5565073,60.145794 13.133894,80.340435 34.022213,84.544052 C 54.910426,88.747648 77.244009,75.395796 83.865963,54.731552 C 90.487887,34.06741 78.910427,13.872648 58.022213,9.6690512 C 55.411173,9.1435989 52.769732,8.884446 50.147213,8.8878012 z M 44.084713,37.325302 C 44.643189,37.324609 45.216181,37.372966 45.772213,37.481552 C 50.220445,38.350237 52.682371,42.523759 51.272213,46.794052 C 49.862046,51.064365 45.095444,53.850237 40.647213,52.981552 C 36.19896,52.112862 33.737048,47.939366 35.147213,43.669052 C 36.381101,39.932544 40.175381,37.330154 44.084713,37.325302 z"
     style="font-size:12px;fill:#000000;fill-opacity:0.29411765;fill-rule:evenodd;stroke-width:1pt" />
  <path
     style="font-size:12;fill:#143c69;fill-rule:evenodd;stroke-width:1pt;"
     d="M 44.90625 2.5625 C 26.54862 2.5859863 8.7316839 15.075128 2.9375 33.15625 C -3.6844565 53.820492 7.8929302 74.015133 28.78125 78.21875 C 49.669463 82.422346 72.003046 69.070494 78.625 48.40625 C 85.246924 27.742108 73.669464 7.5473465 52.78125 3.34375 C 50.17021 2.8182977 47.528769 2.5591448 44.90625 2.5625 z M 38.84375 31 C 39.402226 30.999307 39.975218 31.047664 40.53125 31.15625 C 44.979482 32.024935 47.441408 36.198457 46.03125 40.46875 C 44.621083 44.739063 39.854481 47.524935 35.40625 46.65625 C 30.957997 45.78756 28.496085 41.614064 29.90625 37.34375 C 31.140138 33.607242 34.934418 31.004852 38.84375 31 z "
     id="path613" />
  <path
     style="font-size:12;fill:#ffffff;fill-rule:evenodd;stroke-width:1pt;"
     d="M 44.0625 7.25 C 28.016595 7.2706008 12.470783 18.23085 7.40625 34.09375 C 1.6181836 52.222866 11.710836 69.937087 29.96875 73.625 C 48.226569 77.312896 67.743181 65.597864 73.53125 47.46875 C 79.319288 29.339722 69.226567 11.625396 50.96875 7.9375 C 48.686511 7.4765106 46.354772 7.247057 44.0625 7.25 z M 39.65625 26.3125 C 40.524333 26.311395 41.385716 26.38945 42.25 26.5625 C 49.164236 27.946895 53.004417 34.600822 50.8125 41.40625 C 48.620573 48.21171 41.226735 52.634396 34.3125 51.25 C 27.39823 49.865599 23.558073 43.211711 25.75 36.40625 C 27.667928 30.451502 33.579669 26.320232 39.65625 26.3125 z "
     id="path612" />
  <path
     style="fill:url(#linearGradient563);fill-rule:evenodd;stroke:none;stroke-opacity:1;stroke-width:1pt;stroke-linejoin:miter;stroke-linecap:butt;fill-opacity:1"
     d="M 41.28125 10.25 C 31.933144 10.039175 18.75 20.3125 18.75 20.3125 C 18.75 20.3125 24.672412 31.18788 26.59375 34.375 C 29.068156 29.526711 34.294055 26.319323 39.65625 26.3125 C 40.524333 26.311395 41.385716 26.38945 42.25 26.5625 C 42.499116 26.612379 42.727753 26.686679 42.96875 26.75 L 42.1875 10.3125 C 41.894531 10.283202 41.582802 10.256801 41.28125 10.25 z M 38.84375 31 C 36.42371 31.003004 34.064266 32.009586 32.3125 33.65625 C 35.513707 32.586525 37.780221 31.804732 39.96875 31.0625 C 39.593353 31.016179 39.215568 30.999539 38.84375 31 z "
     id="path562" />
  <path
     style="fill:url(#linearGradient4204);fill-rule:evenodd;stroke:none;stroke-opacity:1;stroke-width:1pt;stroke-linejoin:miter;stroke-linecap:butt;fill-opacity:1"
     d="M 48.65625 45.5 C 45.376117 49.863235 39.706935 52.330095 34.3125 51.25 C 33.999833 51.187397 33.706071 51.114931 33.40625 51.03125 L 28.875 73.375 C 29.238523 73.461224 29.598445 73.550202 29.96875 73.625 C 35.51274 74.74483 41.174739 74.437659 46.53125 72.96875 C 49.729672 71.925417 53.619215 70.15822 58.59375 67.3125 C 58.978585 67.046567 59.374361 66.779315 59.75 66.5 C 59.755263 66.492558 59.744855 66.476285 59.75 66.46875 C 61.920082 63.290708 53.691958 51.935458 48.65625 45.5 z "
     id="path557" />
  <g
     id="g1271"
     style="font-size:12px"
     transform="matrix(0.99023786,0,0,0.99023786,30.047682,27.000401)">
    <defs
       id="defs1272">
      <linearGradient
         id="linearGradient621">
        <stop
           id="stop623"
           offset="0"
           style="stop-color:#666565;stop-opacity:1;" />
        <stop
           id="stop622"
           offset="1"
           style="stop-color:#ffffff;stop-opacity:1;" />
      </linearGradient>
      <linearGradient
         id="linearGradient610">
        <stop
           id="stop612"
           offset="0"
           style="stop-color:#666565;stop-opacity:1;" />
        <stop
           id="stop611"
           offset="1"
           style="stop-color:#ffffff;stop-opacity:1;" />
      </linearGradient>
      <defs
         id="defs1283">
        <linearGradient
           spreadMethod="pad"
           gradientUnits="objectBoundingBox"
           xlink:href="#linearGradient610"
           id="linearGradient554"
           y2="0"
           x2="1"
           y1="0"
           x1="0" />
        <linearGradient
           spreadMethod="pad"
           gradientTransform="scale(1.122498,0.89087)"
           gradientUnits="userSpaceOnUse"
           xlink:href="#linearGradient554"
           id="linearGradient557"
           y2="72.29023"
           x2="8.3357515"
           y1="79.96035"
           x1="12.9236" />
        <linearGradient
           spreadMethod="pad"
           gradientTransform="scale(1.122498,0.89087)"
           gradientUnits="userSpaceOnUse"
           xlink:href="#linearGradient554"
           id="linearGradient559"
           y2="78.428917"
           x2="12.994576"
           y1="68.656029"
           x1="7.798367" />
        <linearGradient
           xlink:href="#linearGradient554"
           id="linearGradient563-4" />
      </defs>
      <defs
         id="defs573">
        <linearGradient
           spreadMethod="pad"
           gradientUnits="objectBoundingBox"
           xlink:href="#linearGradient621"
           id="linearGradient604"
           y2="0"
           x2="1"
           y1="0"
           x1="0" />
        <linearGradient
           id="linearGradient600">
          <stop
             id="stop601"
             offset="0"
             style="stop-color:#000000;stop-opacity:1;" />
          <stop
             id="stop602"
             offset="1"
             style="stop-color:#ffffff;stop-opacity:1;" />
        </linearGradient>
        <linearGradient
           spreadMethod="pad"
           gradientTransform="scale(0.994399,1.005632)"
           gradientUnits="userSpaceOnUse"
           xlink:href="#linearGradient604"
           id="linearGradient603"
           y2="14.15477"
           x2="79.628151"
           y1="28.657213"
           x1="61.04689" />
      </defs>
    </defs>
    <path
       id="path634"
       style="fill:none;stroke:#000000;stroke-width:4.30358124"
       d="M 48.81122,55.61913 39.40311,47.06217 C 39.31588,46.98283 30.45357,50.30231 26.40083,50.26261 16.98036,50.16918 3.817009,44.17875 2.741079,27.77976 1.890729,14.71088 10.51725,2.547793 26.23738,2.522773 39.15413,2.502398 51.08589,11.9679 49.8154,27.53133 49.2088,35.19649 45.52692,39.62464 46.16072,40.3028 l 10.3121,11.0338 c 1.67569,1.79296 -0.23896,11.03364 -7.6616,4.28253 z" />
    <path
       id="path620"
       style="fill:none;stroke:#efe16b;stroke-width:3.25"
       d="m 47.76238,26.53993 c 0,3.02175 -0.6131,5.90117 -1.72163,8.52057 -0.55426,1.3097 -1.70537,4.57037 -2.60027,5.65485 l 8.3026,11.08066 -0.78685,1.18252 -11.10871,-9.63797 c -1.08448,0.8949 -4.1516,2.82021 -5.4613,3.37447 -2.6194,1.10852 -5.49882,1.72163 -8.52057,1.72163 -12.08699,0 -21.89673,-9.80973 -21.89673,-21.89673 0,-12.08699 9.80974,-21.896733 21.89673,-21.896733 12.087,0 21.89673,9.809743 21.89673,21.896733 z" />
    <path
       id="path562-3"
       style="fill:#ffc83d;fill-rule:evenodd"
       d="m 44.24797,38.76775 11.91834,13.30281 c 1.92841,2.74655 -1.1645,6.19535 -4.37187,4.52296 L 38.14389,44.66903 c 0.2607,-2.76584 4.09625,-5.40882 6.10408,-5.90128 z" />
    <path
       id="path567"
       style="fill:#ff933d;fill-rule:evenodd"
       d="m 43.86792,39.16621 11.89502,13.11666 c 0.83409,2.11662 -0.53462,-1.44297 -2.29362,2.23907 L 41.29443,41.50412 c 0.02179,-0.85513 0.48208,-1.9203 2.57349,-2.33791 z" />
    <path
       id="path568"
       style="fill:#ffffff;fill-rule:evenodd"
       d="m 40.04615,42.27535 12.65327,12.48017 c 0.51713,0.14775 -0.60624,0.40213 -0.41976,1.70134 C 51.83815,55.8353 38.85772,43.95679 38.85772,43.95679 z" />
    <ellipse
       id="path611"
       style="fill:#bae6ff;fill-opacity:0.431;fill-rule:evenodd;stroke-width:1"
       transform="matrix(1.106369,0,0,1.106369,-7.012474,-6.130595)"
       ry="18.451067"
       rx="18.451067"
       cy="28.953592"
       cx="29.499611"
       sodipodi:cx="29.499611"
       sodipodi:cy="28.953592"
       sodipodi:rx="18.451067"
       sodipodi:ry="18.451067"
       d="m 47.950678,28.953592 c 0,10.184989 -8.266078,18.451067 -18.451067,18.451067 -10.184989,0 -18.451067,-8.266078 -18.451067,-18.451067 0,-10.184989 8.266078,-18.451067 18.451067,-18.451067 10.184989,0 18.451067,8.266078 18.451067,18.451067 z" />
    <path
       id="path610"
       style="fill:#437caf;fill-opacity:0.34479998;fill-rule:evenodd;stroke-width:1"
       d="m 38.94959,11.01917 c 4.25334,3.03534 7.34957,7.69212 8.27822,13.24924 0.92864,5.55712 -0.48527,10.96758 -3.52061,15.22092 -3.03535,4.25335 -7.69213,7.34957 -13.24925,8.27821 -5.55711,0.92865 -9.21286,-0.19281 -15.22092,-3.5206 m 0,0 c 29.2168,-8.79323 22.0325,-15.93489 23.71256,-33.22777" />
    <path
       id="path651"
       style="fill:#ff0000;fill-rule:evenodd;stroke-width:1"
       d="m 44.19708,38.5588 c -2.0449,0.76964 -1.41633,0.65419 -3.29481,1.86762 -0.10454,0.17099 -1.23455,0.05918 -2.70765,4.31979 l 3.13238,2.80668 c 0.84957,-1.12667 2.09479,-3.17528 2.83341,-3.69175 1.07102,-0.79427 1.60107,-1.20024 3.17135,-1.82809 z" />
    <path
       id="path652"
       style="fill:#ffffff;fill-rule:evenodd;stroke-width:1"
       d="m 41.76381,44.43223 -0.98475,1.40744 -1.89339,-1.57431 0.88755,-1.38681 z" />
  </g>
</svg>
