<?xml version="1.0" encoding="UTF-8" standalone="no"?>
<!-- Created with Sodipodi ("http://www.sodipodi.com/") -->
<svg
   xmlns:dc="http://purl.org/dc/elements/1.1/"
   xmlns:cc="http://web.resource.org/cc/"
   xmlns:rdf="http://www.w3.org/1999/02/22-rdf-syntax-ns#"
   xmlns:svg="http://www.w3.org/2000/svg"
   xmlns="http://www.w3.org/2000/svg"
   xmlns:xlink="http://www.w3.org/1999/xlink"
   xmlns:sodipodi="http://sodipodi.sourceforge.net/DTD/sodipodi-0.dtd"
   xmlns:inkscape="http://www.inkscape.org/namespaces/inkscape"
   id="svg695"
   sodipodi:version="0.32"
   width="72pt"
   height="72pt"
   sodipodi:docbase="/home/tweenk/GNUtoon/apps"
   sodipodi:docname="gparted.svg"
   inkscape:version="0.45.1"
   inkscape:output_extension="org.inkscape.output.svg.inkscape">
  <metadata
     id="metadata41">
    <rdf:RDF>
      <cc:Work
         rdf:about="">
        <dc:format>image/svg+xml</dc:format>
        <dc:type
           rdf:resource="http://purl.org/dc/dcmitype/StillImage" />
      </cc:Work>
    </rdf:RDF>
  </metadata>
  <defs
     id="defs697">
    <linearGradient
       id="linearGradient734">
      <stop
         style="stop-color:#7fa8e3;stop-opacity:0.741176;"
         offset="0.000000"
         id="stop735" />
      <stop
         style="stop-color:#ffffff;stop-opacity:0.290196;"
         offset="1.000000"
         id="stop736" />
    </linearGradient>
    <linearGradient
       id="linearGradient714">
      <stop
         style="stop-color:#7fa8e3;stop-opacity:0.741176;"
         offset="0.000000"
         id="stop715" />
      <stop
         style="stop-color:#ffffff;stop-opacity:0.290196;"
         offset="1.000000"
         id="stop716" />
    </linearGradient>
    <linearGradient
       xlink:href="#linearGradient714"
       id="linearGradient717"
       x1="52.6992607"
       y1="118.880966"
       x2="27.7516518"
       y2="95.9015198"
       gradientUnits="userSpaceOnUse"
       gradientTransform="scale(1.615491,0.619007)"
       spreadMethod="pad" />
    <linearGradient
       xlink:href="#linearGradient734"
       id="linearGradient719"
       x1="8.76167965"
       y1="64.3047867"
       x2="27.9378262"
       y2="87.7629700"
       gradientUnits="userSpaceOnUse"
       gradientTransform="matrix(1.615491,0.000000,0.000000,0.619007,7.394509e-8,-1.278808e-6)"
       spreadMethod="pad" />
    <linearGradient
       xlink:href="#linearGradient714"
       id="linearGradient721"
       x1="21.6558495"
       y1="86.0028992"
       x2="33.8251724"
       y2="57.5816307"
       gradientUnits="userSpaceOnUse"
       spreadMethod="pad"
       gradientTransform="matrix(1.066005,0.000000,0.000000,0.938082,7.394509e-8,-1.278808e-6)" />
    <linearGradient
       xlink:href="#linearGradient714"
       id="linearGradient723"
       x1="43.4018326"
       y1="124.642860"
       x2="42.5384789"
       y2="116.731438"
       gradientUnits="userSpaceOnUse"
       gradientTransform="scale(1.519424,0.658144)"
       spreadMethod="pad" />
    <linearGradient
       xlink:href="#linearGradient714"
       id="linearGradient725"
       x1="42.1643028"
       y1="103.865761"
       x2="46.2594757"
       y2="115.265465"
       gradientUnits="userSpaceOnUse"
       gradientTransform="matrix(1.519424,0.000000,0.000000,0.658144,7.394509e-8,-1.278808e-6)"
       spreadMethod="pad" />
  </defs>
  <sodipodi:namedview
     id="base"
     inkscape:zoom="3.197694"
     inkscape:cx="57.208726"
     inkscape:cy="63.993089"
     inkscape:window-width="795"
     inkscape:window-height="623"
     inkscape:window-x="114"
     inkscape:window-y="72"
     inkscape:current-layer="svg695" />
  <path
     style="font-size:12;fill:#000000;fill-rule:evenodd;stroke-width:1pt;fill-opacity:0.3;"
     d="M 5.08233 49.7833 C 3.68284 55.0129 4.49307 60.6846 5.52427 65.4723 C 15.3206 71.8067 29.5364 79.0251 42.8684 87.7903 C 58.5573 83.9601 75.358 81.2348 91.2679 78.9515 C 90.605 72.4697 90.384 66.4298 91.2679 60.169 C 87.9533 57.5173 49.4974 39.6186 46.4039 38.0719 C 26.7375 35.6412 5.3033 47.5736 5.08233 49.7833 z "
     id="path780"
     sodipodi:nodetypes="ccccccc"
     transform="matrix(0.994837,0.000000,0.000000,1.423897,-4.089137,-34.46167)" />
  <path
     sodipodi:type="arc"
     style="opacity:1;fill:#000000;fill-opacity:1;stroke:none;stroke-width:0;stroke-linecap:round;stroke-linejoin:miter;stroke-miterlimit:4;stroke-dasharray:none;stroke-opacity:1"
     id="path2193"
     sodipodi:cx="63.243244"
     sodipodi:cy="28.746929"
     sodipodi:rx="24.103193"
     sodipodi:ry="24.103193"
     d="M 87.346437 28.746929 A 24.103193 24.103193 0 1 1  39.140051,28.746929 A 24.103193 24.103193 0 1 1  87.346437 28.746929 z"
     transform="matrix(1.1146789,0,0,1.1146789,-9.5745336,-4.955143)" />
  <path
     sodipodi:type="arc"
     style="opacity:1;fill:#ffc93f;fill-opacity:1;stroke:none;stroke-width:0;stroke-linecap:round;stroke-linejoin:miter;stroke-miterlimit:4;stroke-dasharray:none;stroke-opacity:1"
     id="path3185"
     sodipodi:cx="63.243244"
     sodipodi:cy="28.746929"
     sodipodi:rx="24.103193"
     sodipodi:ry="24.103193"
     d="M 87.346437 28.746929 A 24.103193 24.103193 0 1 1  39.140051,28.746929 A 24.103193 24.103193 0 1 1  87.346437 28.746929 z"
     transform="translate(-3.5380847,-0.442261)" />
  <path
     style="opacity:1;fill:#31baff;fill-opacity:1;stroke:none;stroke-width:0;stroke-linecap:round;stroke-linejoin:miter;stroke-miterlimit:4;stroke-dasharray:none;stroke-opacity:1"
     d="M 63.683902,4.6002924 C 56.458517,3.4034203 49.444453,5.5628116 44.238721,9.93171 L 59.958492,29.767317 L 82.131854,19.439574 C 79.09681,11.884567 72.297903,6.0271859 63.683902,4.6002924 z "
     id="path4156"
     inkscape:transform-center-x="-4.5206892"
     inkscape:transform-center-y="-12.776555" />
  <path
     style="opacity:1;fill:#ed0000;fill-opacity:1;stroke:none;stroke-width:0;stroke-linecap:round;stroke-linejoin:miter;stroke-miterlimit:4;stroke-dasharray:none;stroke-opacity:1"
     d="M 38.509461,16.647039 C 34.946428,23.04575 34.614371,30.377175 36.972165,36.751163 L 60.946588,28.640085 L 58.700025,4.2828845 C 50.564081,4.5928084 42.757256,9.0185888 38.509461,16.647039 z "
     id="path4161" />
  <g
     id="g3167">
    <path
       transform="matrix(0.994837,0.000000,0.000000,1.423897,-1.745386,-40.08667)"
       sodipodi:nodetypes="ccccccc"
       id="path726"
       d="M 5.08233 49.7833 C 3.68284 55.0129 4.49307 60.6846 5.52427 65.4723 C 15.3206 71.8067 29.5364 79.0251 42.8684 87.7903 C 58.5573 83.9601 75.358 81.2348 91.2679 78.9515 C 90.605 72.4697 90.384 66.4298 91.2679 60.169 C 87.9533 57.5173 49.4974 39.6186 46.4039 38.0719 C 26.7375 35.6412 5.3033 47.5736 5.08233 49.7833 z "
       style="font-size:12;fill:#3d4e67;fill-rule:evenodd;stroke-width:1pt;" />
    <path
       transform="matrix(0.994837,0.000000,0.000000,1.423897,-1.745386,-40.08667)"
       sodipodi:nodetypes="ccccccc"
       id="path727"
       d="M 9.50172 52.4349 C 9.64904 55.6022 9.79637 58.7694 9.94369 61.9367 C 9.94369 61.9367 43.5313 82.266 43.3103 82.266 C 43.0893 82.266 85.5157 74.0901 85.5157 74.0901 C 85.5157 70.4072 85.5157 66.7244 85.5157 63.0415 C 72.2575 56.2651 58.9992 49.4886 45.741 42.7122 C 34.3242 41.0918 20.6976 44.3327 9.50172 52.4349 z "
       style="font-size:12;fill:#ffffff;fill-rule:evenodd;stroke-width:1pt;" />
    <path
       transform="matrix(0.994837,0.000000,0.000000,1.423897,-1.745386,-40.08667)"
       sodipodi:nodetypes="ccccc"
       id="path702"
       d="M 9.94369 51.772 C 22.9073 59.0641 31.2306 63.9254 44.1942 71.2174 C 57.5997 66.8717 71.0053 62.7469 85.7367 62.8205 C 70.2687 54.7183 61.2089 50.8145 45.7409 42.7122 C 33.2929 40.5762 20.8449 45.0692 9.94369 51.772 z "
       style="font-size:12;fill:url(#linearGradient717);fill-rule:evenodd;stroke-width:1pt;" />
    <path
       transform="matrix(0.994837,0.000000,0.000000,1.423897,-1.745386,-40.08667)"
       sodipodi:nodetypes="ccccc"
       id="path718"
       d="M 9.94369 51.772 C 22.9073 59.0641 31.2306 63.9254 44.1942 71.2174 C 57.5997 66.8717 71.0053 62.7469 85.7367 62.8205 C 70.2687 54.7183 61.2089 50.8145 45.7409 42.7122 C 33.2929 40.5762 20.8449 45.0692 9.94369 51.772 z "
       style="font-size:12;fill:url(#linearGradient719);fill-rule:evenodd;stroke-width:1pt;" />
    <path
       transform="matrix(0.994837,0.000000,0.000000,1.423897,-1.745386,-40.08667)"
       sodipodi:nodetypes="ccccc"
       id="path720"
       d="M 9.72272 52.8769 C 20.6976 59.2114 31.0096 65.104 42.6474 71.8804 C 42.7211 75.2686 42.7947 78.6568 42.8684 82.045 C 31.8198 75.4159 20.7713 68.7868 9.72272 62.1577 C 9.05981 59.2851 8.83884 55.9705 9.72272 52.8769 z "
       style="font-size:12;fill:url(#linearGradient721);fill-rule:evenodd;stroke-width:1pt;" />
    <path
       transform="matrix(0.994837,0.000000,0.000000,1.423897,-1.745386,-40.08667)"
       id="path722"
       d="M 43.9732 72.3223 L 44.1942 81.3821 L 85.2948 73.6482 L 84.8528 63.4835 L 43.9732 72.3223 z "
       style="font-size:12;fill:url(#linearGradient723);fill-rule:evenodd;stroke-width:1pt;" />
    <path
       transform="matrix(0.994837,0.000000,0.000000,1.423897,-1.745386,-40.08667)"
       sodipodi:nodetypes="ccccc"
       id="path724"
       d="M 44.1942 73.2062 C 44.1942 75.9315 44.1942 78.6568 44.1942 81.3821 C 57.8944 78.8041 71.5946 76.2262 85.2948 73.6482 C 85.1475 70.26 85.663 66.6507 85.5157 63.2625 C 68.4273 64.7356 53.1067 68.6395 44.1942 73.2062 z "
       style="font-size:12;fill:url(#linearGradient725);fill-rule:evenodd;stroke-width:1pt;" />
    <path
       transform="matrix(0.994837,0.000000,0.000000,1.423897,-1.745386,-40.08667)"
       id="path728"
       d="M 8.61787 51.772 L 43.3103 71.2175 L 43.0893 83.1499 "
       style="font-size:12;fill:none;fill-rule:evenodd;stroke:#3d4e67;stroke-width:2;" />
    <path
       transform="matrix(0.994837,0.000000,0.000000,1.423897,-1.745386,-40.08667)"
       sodipodi:nodetypes="cc"
       id="path729"
       d="M 43.5313 71.6594 C 58.41 66.3561 70.4161 64.1464 86.1787 62.5996 "
       style="font-size:12;fill:none;fill-rule:evenodd;stroke:#3d4e67;stroke-width:2;" />
    <path
       sodipodi:nodetypes="ccccccccc"
       transform="matrix(0.859958,-0.246416,0.212199,0.998628,-8.377747,10.19030)"
       id="path758"
       d="M 47.0668 64.1464 C 45.8426 64.1464 44.8571 65.1319 44.8571 66.3561 L 44.5634 68.7146 C 44.5634 69.9388 45.5489 70.9243 46.7731 70.9243 L 51.6713 70.7121 C 52.8337 70.594 53.5011 70.4665 53.7225 68.7762 L 54.0887 66.1875 C 54.0887 64.9633 53.36 64.0412 52.1359 64.0412 L 47.0668 64.1464 z "
       style="font-size:12;fill:#810b0b;fill-rule:evenodd;stroke-width:1pt;fill-opacity:1;" />
    <path
       sodipodi:nodetypes="ccccccccc"
       transform="matrix(0.758064,-0.223914,0.203866,0.800327,-3.183137,22.06495)"
       id="path759"
       d="M 47.0668 64.1464 C 45.8426 64.1464 44.8571 65.1319 44.8571 66.3561 L 44.5634 68.7146 C 44.5634 69.9388 45.5489 70.9243 46.7731 70.9243 L 51.6713 70.7121 C 52.8337 70.594 53.5011 70.4665 53.7225 68.7762 L 54.0887 66.1875 C 54.0887 64.9633 53.36 64.0412 52.1359 64.0412 L 47.0668 64.1464 z "
       style="font-size:12;fill:#d01111;fill-rule:evenodd;stroke-width:1pt;fill-opacity:1;" />
    <path
       id="path584"
       d="M 61.6088 38.1861 C 61.6088 44.69 53.5957 49.9685 43.7224 49.9685 C 33.8491 49.9685 25.836 44.69 25.836 38.1861 C 25.836 31.6823 33.8491 26.4038 43.7224 26.4038 C 53.5957 26.4038 61.6088 31.6823 61.6088 38.1861 z "
       style="font-size:12;fill:none;fill-rule:evenodd;stroke:#3d4e67;stroke-width:2.875;"
       transform="translate(1.987381,3.406944)" />
    <path
       sodipodi:nodetypes="ccc"
       id="path587"
       d="M 62.7445 72.9653 C 62.4606 68.4227 62.1766 63.8801 61.8927 59.3375 C 68.9905 55.3628 76.3723 53.9432 84.0379 55.0789 "
       style="fill:none;fill-rule:evenodd;stroke:#3d4e67;stroke-opacity:1;stroke-width:1.25;stroke-linejoin:miter;stroke-linecap:butt;fill-opacity:1;stroke-dasharray:none;" />
    <path
       sodipodi:nodetypes="cc"
       id="path588"
       d="M 67.0032 56.7823 L 68.1388 70.9779 "
       style="fill:none;fill-rule:evenodd;stroke:#3d4e67;stroke-opacity:1;stroke-width:1.25;stroke-linejoin:miter;stroke-linecap:butt;fill-opacity:1;stroke-dasharray:none;" />
    <path
       sodipodi:nodetypes="cc"
       id="path589"
       d="M 72.6814 55.0789 L 73.5332 69.2745 "
       style="fill:none;fill-rule:evenodd;stroke:#3d4e67;stroke-opacity:1;stroke-width:1.25;stroke-linejoin:miter;stroke-linecap:butt;fill-opacity:1;stroke-dasharray:none;" />
    <path
       sodipodi:nodetypes="cc"
       id="path590"
       d="M 78.6435 54.2271 L 78.9274 67.2871 "
       style="fill:none;fill-rule:evenodd;stroke:#3d4e67;stroke-opacity:1;stroke-width:1.25;stroke-linejoin:miter;stroke-linecap:butt;fill-opacity:1;stroke-dasharray:none;" />
  </g>
</svg>
