<?xml version="1.0" encoding="UTF-8" standalone="no"?>
<!-- Created with Inkscape (http://www.inkscape.org/) -->
<svg
   xmlns:dc="http://purl.org/dc/elements/1.1/"
   xmlns:cc="http://creativecommons.org/ns#"
   xmlns:rdf="http://www.w3.org/1999/02/22-rdf-syntax-ns#"
   xmlns:svg="http://www.w3.org/2000/svg"
   xmlns="http://www.w3.org/2000/svg"
   xmlns:xlink="http://www.w3.org/1999/xlink"
   xmlns:sodipodi="http://sodipodi.sourceforge.net/DTD/sodipodi-0.dtd"
   xmlns:inkscape="http://www.inkscape.org/namespaces/inkscape"
   width="90"
   height="90"
   id="svg2"
   sodipodi:version="0.32"
   inkscape:version="0.46+devel"
   version="1.0"
   sodipodi:docname="fontforge.svg"
   inkscape:output_extension="org.inkscape.output.svg.inkscape">
  <defs
     id="defs4">
    <linearGradient
       id="linearGradient3317">
      <stop
         style="stop-color:#ff7068;stop-opacity:1"
         offset="0"
         id="stop3319" />
      <stop
         style="stop-color:#b01911;stop-opacity:1"
         offset="1"
         id="stop3321" />
    </linearGradient>
    <linearGradient
       inkscape:collect="always"
       xlink:href="#linearGradient3317"
       id="linearGradient4329"
       x1="20.590405"
       y1="47.98893"
       x2="27.06642"
       y2="58.865314"
       gradientUnits="userSpaceOnUse"
       gradientTransform="matrix(1.2488881,0,0,1.2488881,-5.5269434,-22.798698)" />
    <linearGradient
       inkscape:collect="always"
       xlink:href="#linearGradient3317"
       id="linearGradient2529"
       gradientUnits="userSpaceOnUse"
       x1="39.249233"
       y1="60.447422"
       x2="40.526421"
       y2="77.990944"
       gradientTransform="matrix(1.2488881,0,0,1.2488881,-5.5269434,-22.798698)" />
    <linearGradient
       inkscape:collect="always"
       xlink:href="#linearGradient3317"
       id="linearGradient2531"
       gradientUnits="userSpaceOnUse"
       x1="61.856617"
       y1="44.665302"
       x2="65.561142"
       y2="53.615368"
       gradientTransform="matrix(1.2488881,0,0,1.2488881,-5.5269434,-22.798698)" />
    <linearGradient
       inkscape:collect="always"
       xlink:href="#linearGradient3317"
       id="linearGradient2502"
       gradientUnits="userSpaceOnUse"
       gradientTransform="matrix(1.2488881,0,0,1.2488881,-5.5269434,-22.798698)"
       x1="36.760696"
       y1="43.566292"
       x2="43.459194"
       y2="60.26738" />
  </defs>
  <sodipodi:namedview
     id="base"
     pagecolor="#ffffff"
     bordercolor="#666666"
     borderopacity="1.0"
     gridtolerance="10000"
     guidetolerance="10"
     objecttolerance="10"
     inkscape:pageopacity="0.0"
     inkscape:pageshadow="2"
     inkscape:zoom="6.0222222"
     inkscape:cx="45"
     inkscape:cy="45"
     inkscape:document-units="px"
     inkscape:current-layer="layer1"
     showgrid="false"
     inkscape:window-width="1023"
     inkscape:window-height="736"
     inkscape:window-x="0"
     inkscape:window-y="1" />
  <metadata
     id="metadata7">
    <rdf:RDF>
      <cc:Work
         rdf:about="">
        <dc:format>image/svg+xml</dc:format>
        <dc:type
           rdf:resource="http://purl.org/dc/dcmitype/StillImage" />
      </cc:Work>
    </rdf:RDF>
  </metadata>
  <g
     inkscape:label="Layer 1"
     inkscape:groupmode="layer"
     id="layer1">
    <path
       sodipodi:type="inkscape:offset"
       inkscape:radius="4.9314828"
       inkscape:original="M 37.78125 7.65625 L 37.78125 14.1875 L 40 14.1875 L 34.84375 28.4375 L 32.78125 28.4375 L 32.78125 32.78125 C 26.488019 34.246626 20.098574 36.013118 21.4375 36.5 C 25.84749 36.5 41.593541 44.301649 43.78125 47.28125 C 43.959716 47.524315 54.109284 45.482696 62 43.0625 C 54.387183 47.039994 43.983636 48.310024 43.9375 48.53125 C 43.437791 50.92744 40.193302 55.186136 37.53125 56.53125 C 38.545402 57.569071 41.100857 58.31074 43.625 58.25 C 44.171795 57.355705 45.170938 55.464382 45.625 52 C 46.123193 55.254342 45.334285 56.744744 44.8125 58.125 C 50.124768 57.111319 64.873845 53.291002 67.46875 51.4375 C 68.893353 47.890957 71.546846 40.251714 67.5625 37.78125 C 70.315522 35.570452 78.603951 35.183995 80.53125 33.90625 C 82.096755 32.868364 75.549594 30.266568 73.75 29.125 C 72.047561 28.836444 67.605282 29.145194 62.46875 29.71875 L 62.46875 28.4375 L 60.46875 28.4375 L 55.25 14.1875 L 57.4375 14.1875 L 57.4375 7.65625 L 37.78125 7.65625 z M 46.1875 14.59375 L 48.5 22.15625 L 43.59375 22.15625 L 46.1875 14.59375 z M 42.5625 25.5625 L 49.5625 25.5625 L 50.59375 29 L 48.21875 29 L 48.21875 31.375 C 46.291226 30.944817 44.562263 30.705407 43.59375 30.71875 L 43.59375 29 L 41.375 29 L 42.5625 25.5625 z M 80.46875 34.75 C 75.854541 35.47583 68.875 37.8125 68.875 37.8125 C 72.29677 40.819509 69.810355 46.258581 69.34375 48.125 C 72.661828 46.880722 80.261371 44.911616 80.46875 34.75 z M 21.21875 37.75 C 8.3588727 42.929855 -11.863992 60.731294 42.59375 47.5 C 38.653531 44.181921 26.403248 37.95738 21.21875 37.75 z M 42.78125 48.75 C 36.974612 49.99428 12.732767 57.25551 6.71875 51.65625 C 6.71875 56.840749 27.230262 57.457381 32 57.25 C 36.769739 57.042619 41.329591 52.897598 42.78125 48.75 z M 64.15625 53.9375 C 61.662862 55.540393 49.844778 58.503088 45.375 59.3125 C 44.075682 59.751566 43.540627 66.86632 44.15625 68.53125 C 42.990974 67.233565 43.122753 61.183606 43.84375 59.53125 C 41.97733 59.53125 37.193146 58.048271 36.15625 57.21875 C 34.42497 58.552614 28.892424 58.204446 26.9375 58.25 C 26.211669 59.740984 23.345544 60.740089 21.1875 61.53125 C 22.103408 62.873162 31.624306 67.947615 40.71875 72.15625 C 34.342692 70.786843 21.349453 63.273085 20.40625 62.53125 C 19.47304 63.360769 18.742921 66.434711 19.46875 68.09375 C 20.381628 70.272905 37.309455 79.395484 44.5625 78.90625 C 51.914807 78.41032 70.245797 71.439325 70.15625 70.53125 C 71.60791 69.49435 70.801131 65.74142 70.59375 63.875 C 67.466911 65.540978 51.876882 72.002164 46.34375 72.28125 C 53.962022 69.841847 68.551829 63.998657 69.53125 62.84375 C 65.098518 60.170765 63.645837 57.275455 64.15625 53.9375 z "
       style="opacity:1;color:#000000;fill:#000000;fill-opacity:1;fill-rule:evenodd;stroke:none;stroke-width:1;marker:none;marker-start:none;marker-mid:none;marker-end:none;visibility:visible;display:inline;overflow:visible;enable-background:accumulate"
       id="path3342"
       d="m 37.78125,2.71875 c -1.309956,-0.0014681 -2.566682,0.5182599 -3.492961,1.4445392 -0.926279,0.9262793 -1.446007,2.1830049 -1.444539,3.4929608 l 0,6.53125 c 0.007541,1.008088 0.323823,1.989654 0.90625,2.8125 l -2.4375,6.71875 c -2.066069,0.641859 -3.472622,2.555278 -3.46875,4.71875 l 0,0.53125 c -1.752587,0.446027 -3.671057,0.882098 -5.0625,1.3125 -1.220048,0.377386 -2.158177,0.698844 -3.25,1.25 -0.545911,0.275578 -1.196663,0.074812 -2.46875,2.1875 -0.085513,0.14202 -0.084557,0.462828 -0.15625,0.65625 -2.935043,1.399214 -5.878534,3.066733 -8.4375,5.03125 -1.6387762,1.258088 -3.1133933,2.56457 -4.34375,4.09375 -1.2303567,1.52918 -2.4957212,3.363148 -2.375,6.25 0.0108382,0.259178 0.1394352,0.495526 0.1875,0.75 -0.0976496,0.377877 -0.1500998,0.766009 -0.15625,1.15625 0,2.273937 1.2768853,4.27849 2.53125,5.40625 1.2543647,1.12776 2.5391879,1.757193 3.875,2.28125 2.23588,0.877166 4.711553,1.385804 7.25,1.78125 -0.497789,0.991403 -0.773781,1.927774 -0.96875,2.9375 -0.335028,1.735078 -0.585835,3.589519 0.46875,6 0.926535,2.211757 1.669638,2.321644 2.46875,2.96875 0.799112,0.647106 1.694008,1.259559 2.71875,1.90625 2.049484,1.293382 4.616142,2.70762 7.40625,4.03125 5.580215,2.64726 11.437944,5.244218 17.375,4.84375 4.949578,-0.33386 11.194727,-2.296732 16.875,-4.28125 2.840137,-0.992259 5.422528,-1.984184 7.40625,-2.84375 0.991861,-0.429783 1.809642,-0.80524 2.5625,-1.21875 0.376429,-0.206755 0.722591,-0.398885 1.21875,-0.78125 0.248079,-0.191183 0.541173,-0.409867 0.96875,-0.9375 0.12925,-0.159495 0.327498,-0.483629 0.5,-0.75 0.624607,-0.884506 1.039319,-1.77663 1.21875,-2.53125 0.288904,-1.215024 0.313443,-2.217561 0.28125,-3.125 -0.064385,-1.814877 -0.371258,-3.403828 -0.4375,-4 -0.152768,-1.408789 -0.904117,-2.683805 -2.0625,-3.5 -0.377946,-0.488792 -0.844372,-0.902215 -1.375,-1.21875 -1.746092,-1.052912 -2.515909,-1.956096 -2.8125,-2.46875 -0.018521,-0.032012 0.016605,-0.063907 0,-0.09375 0.363696,-0.206009 0.699658,-0.343506 1.09375,-0.625 0.754738,-0.545073 1.339787,-1.292635 1.6875,-2.15625 0.109024,-0.271415 0.253388,-0.717072 0.375,-1.03125 1.680151,-0.586139 4.166189,-1.513299 6.78125,-3.65625 3.272181,-2.681437 6.09012,-7.447091 6.21875,-13.75 0.002112,-0.08332 0.002112,-0.16668 0,-0.25 0.202013,-0.709139 0.308303,-1.424788 0.1875,-2.0625 -0.368367,-1.944593 -1.214872,-2.64 -1.78125,-3.1875 -1.132756,-1.095 -2.052898,-1.551809 -3.03125,-2.09375 -1.956704,-1.083883 -4.328487,-2.251744 -4.375,-2.28125 -0.559713,-0.361686 -1.18692,-0.60619 -1.84375,-0.71875 -1.833723,-0.310808 -3.333697,-0.183254 -5.4375,-0.0625 -1.074501,0.061674 -2.451805,0.200349 -3.6875,0.3125 -0.43451,-0.327591 -0.920239,-0.581014 -1.4375,-0.75 l -2.5,-6.78125 c 0.565296,-0.817715 0.870294,-1.78717 0.875,-2.78125 l 0,-6.53125 c 0.001468,-1.3099559 -0.51826,-2.5666815 -1.444539,-3.4929608 -0.926279,-0.9262793 -2.183005,-1.4460073 -3.492961,-1.4445392 z" />
    <path
       style="opacity:1;color:#000000;fill:url(#linearGradient4329);fill-opacity:1.0;fill-rule:evenodd;stroke:none;stroke-width:1;marker:none;marker-start:none;marker-mid:none;marker-end:none;visibility:visible;display:inline;overflow:visible;enable-background:accumulate"
       d="M 21.225068,37.756242 C 8.3651898,42.936096 -11.872542,60.734393 42.5852,47.503099 38.644982,44.185019 26.409566,37.963622 21.225068,37.756242 z"
       id="path4311"
       sodipodi:nodetypes="ccc" />
    <path
       style="opacity:1;color:#000000;fill:#b01911;fill-opacity:1;fill-rule:evenodd;stroke:none;stroke-width:1;marker:none;marker-start:none;marker-mid:none;marker-end:none;visibility:visible;display:inline;overflow:visible;enable-background:accumulate"
       d="M 6.7084727,51.650697 C 12.72249,57.249956 36.985943,49.991658 42.792581,48.747378 41.340921,52.894977 36.778563,57.042575 32.008824,57.249956 27.239085,57.457335 6.7084727,56.835196 6.7084727,51.650697 z"
       id="path4313"
       sodipodi:nodetypes="ccsc" />
    <path
       style="opacity:1;color:#000000;fill:url(#linearGradient2502);fill-opacity:1;fill-rule:evenodd;stroke:none;stroke-width:1;marker:none;marker-start:none;marker-mid:none;marker-end:none;visibility:visible;display:inline;overflow:visible;enable-background:accumulate"
       d="M 72.15625 29.03125 C 70.344276 29.012083 67.587099 29.184452 64.46875 29.5 L 64.46875 36.875 L 46.71875 36.875 L 46.71875 31.0625 C 46.151958 30.959288 45.638395 30.904453 45.15625 30.84375 L 45.15625 36.8125 L 31.25 36.8125 L 31.25 33.15625 C 25.506298 34.538255 20.207987 36.052904 21.4375 36.5 C 25.84749 36.5 41.593541 44.301649 43.78125 47.28125 C 43.959716 47.524315 54.109284 45.482696 62 43.0625 C 54.387183 47.039994 43.983636 48.310024 43.9375 48.53125 C 43.437791 50.92744 40.193302 55.186136 37.53125 56.53125 C 38.545402 57.569071 41.100857 58.31074 43.625 58.25 C 44.171795 57.355705 45.170938 55.464382 45.625 52 C 46.123193 55.254342 45.334285 56.744744 44.8125 58.125 C 50.124768 57.111319 64.873845 53.291002 67.46875 51.4375 C 68.893353 47.890957 71.546846 40.251714 67.5625 37.78125 C 70.315522 35.570452 78.603951 35.183995 80.53125 33.90625 C 82.096755 32.868364 75.549594 30.266568 73.75 29.125 C 73.356059 29.058229 72.816378 29.038233 72.15625 29.03125 z "
       id="path4315" />
    <path
       style="opacity:1;color:#000000;fill:url(#linearGradient2529);fill-opacity:1;fill-rule:evenodd;stroke:none;stroke-width:1;marker:none;marker-start:none;marker-mid:none;marker-end:none;visibility:visible;display:inline;overflow:visible;enable-background:accumulate"
       d="m 64.152714,53.931876 c -0.510409,3.337956 0.943691,6.237705 5.376423,8.91069 -0.979421,1.154908 -15.563297,7.011703 -23.181569,9.451106 5.533133,-0.279087 21.107084,-6.741581 24.233923,-8.407559 0.20738,1.866419 1.036901,5.599258 -0.414759,6.636158 0.089548,0.908074 -18.259117,7.902956 -25.611424,8.398886 -7.253044,0.489235 -24.180092,-8.656446 -25.09297,-10.835601 -0.72583,-1.659039 0,-4.717894 0.93321,-5.547413 0.943203,0.741835 13.932585,8.236138 20.308643,9.605545 -9.094446,-4.208639 -18.589289,-9.260241 -19.505197,-10.602153 2.158044,-0.791162 5.003191,-1.806646 5.729022,-3.29763 1.954925,-0.045555 7.508629,0.314756 9.239909,-1.019108 1.036898,0.82952 5.802505,2.306338 7.668925,2.306338 -0.720998,1.652357 -0.85651,7.687323 0.308766,8.985008 -0.615624,-1.664929 -0.073452,-8.753432 1.225866,-9.192498 4.469779,-0.80941 16.287844,-3.788876 18.781232,-5.391769 z"
       id="path4317"
       sodipodi:nodetypes="cccccscccccccccc" />
    <path
       style="opacity:1;color:#000000;fill:url(#linearGradient2531);fill-opacity:1.0;fill-rule:evenodd;stroke:none;stroke-width:1;marker:none;marker-start:none;marker-mid:none;marker-end:none;visibility:visible;display:inline;overflow:visible;enable-background:accumulate"
       d="m 80.483883,34.749233 c -4.614205,0.72583 -11.613276,3.058854 -11.613276,3.058854 3.421768,3.007008 0.93321,8.450732 0.466605,10.317151 3.318078,-1.244279 10.939292,-3.214389 11.146671,-13.376005 z"
       id="path4321"
       sodipodi:nodetypes="cccc" />
    <path
       style="font-size:40.26725769000000099px;font-style:normal;font-variant:normal;font-weight:bold;font-stretch:normal;text-align:center;text-anchor:middle;fill:#ffffff;fill-opacity:1;stroke:none;font-family:Purisa;-inkscape-font-specification:Purisa Bold"
       d="m 46.181327,14.584259 -2.575689,7.569773 4.895775,0 -2.320086,-7.569773 m -2.575689,20.408894 -10.833623,0 0,-6.547362 2.084146,0 5.131716,-14.254767 -2.202116,0 0,-6.5473613 19.661747,0 0,6.5473613 -2.202116,0 5.230025,14.254767 2.005498,0 0,6.547362 -14.274428,0 0,-5.996833 2.398733,0 -1.042073,-3.440806 -6.999582,0 -1.199366,3.440806 2.241439,0 0,5.996833"
       id="text4287" />
  </g>
</svg>
