<?xml version="1.0" encoding="UTF-8" standalone="no"?>
<!-- Created with Sodipodi ("http://www.sodipodi.com/") -->
<svg
   xmlns:dc="http://purl.org/dc/elements/1.1/"
   xmlns:cc="http://creativecommons.org/ns#"
   xmlns:rdf="http://www.w3.org/1999/02/22-rdf-syntax-ns#"
   xmlns:svg="http://www.w3.org/2000/svg"
   xmlns="http://www.w3.org/2000/svg"
   xmlns:xlink="http://www.w3.org/1999/xlink"
   xmlns:sodipodi="http://sodipodi.sourceforge.net/DTD/sodipodi-0.dtd"
   xmlns:inkscape="http://www.inkscape.org/namespaces/inkscape"
   id="svg548"
   sodipodi:version="0.32"
   width="72pt"
   height="72pt"
   sodipodi:docname="gchempaint.svg"
   inkscape:version="0.46+devel"
   inkscape:output_extension="org.inkscape.output.svg.inkscape">
  <metadata
     id="metadata51">
    <rdf:RDF>
      <cc:Work
         rdf:about="">
        <dc:format>image/svg+xml</dc:format>
        <dc:type
           rdf:resource="http://purl.org/dc/dcmitype/StillImage" />
        <dc:title></dc:title>
      </cc:Work>
    </rdf:RDF>
  </metadata>
  <defs
     id="defs550">
    <linearGradient
       id="linearGradient3403"
       inkscape:collect="always">
      <stop
         id="stop3405"
         offset="0"
         style="stop-color:#a9e2f5;stop-opacity:1;" />
      <stop
         id="stop3407"
         offset="1"
         style="stop-color:#31baff;stop-opacity:1" />
    </linearGradient>
    <linearGradient
       inkscape:collect="always"
       id="linearGradient3383">
      <stop
         style="stop-color:#34674b;stop-opacity:1"
         offset="0"
         id="stop3385" />
      <stop
         style="stop-color:#52ed17;stop-opacity:1"
         offset="1"
         id="stop3387" />
    </linearGradient>
    <linearGradient
       inkscape:collect="always"
       id="linearGradient3375">
      <stop
         style="stop-color:#34674b;stop-opacity:1"
         offset="0"
         id="stop3377" />
      <stop
         style="stop-color:#52ed17;stop-opacity:1"
         offset="1"
         id="stop3379" />
    </linearGradient>
    <linearGradient
       inkscape:collect="always"
       id="linearGradient2555">
      <stop
         style="stop-color:#31baff;stop-opacity:1"
         offset="0"
         id="stop2557" />
      <stop
         style="stop-color:#31baff;stop-opacity:0;"
         offset="1"
         id="stop2559" />
    </linearGradient>
    <linearGradient
       gradientTransform="matrix(0.9327808,0,0,1.0692642,10.126058,-0.9192864)"
       spreadMethod="pad"
       gradientUnits="userSpaceOnUse"
       y2="57.682331"
       x2="31.8333"
       y1="77.398003"
       x1="38.423313"
       id="linearGradient625"
       xlink:href="#linearGradient626" />
    <linearGradient
       gradientTransform="matrix(0.626197,0,0,1.5927716,10.126058,-0.9192864)"
       spreadMethod="pad"
       gradientUnits="userSpaceOnUse"
       y2="23.675829"
       x2="33.317364"
       y1="24.41898"
       x1="26.478432"
       id="linearGradient617"
       xlink:href="#linearGradient618" />
    <linearGradient
       id="linearGradient618">
      <stop
         id="stop619"
         offset="0.000000"
         style="stop-color:#956d47;stop-opacity:1;" />
      <stop
         id="stop620"
         offset="1.000000"
         style="stop-color:#ab322d;stop-opacity:0;" />
    </linearGradient>
    <linearGradient
       id="linearGradient626">
      <stop
         id="stop627"
         offset="0.000000"
         style="stop-color:#ff0047;stop-opacity:1;" />
      <stop
         id="stop628"
         offset="1.000000"
         style="stop-color:#ab322d;stop-opacity:0;" />
    </linearGradient>
    <linearGradient
       inkscape:collect="always"
       xlink:href="#linearGradient3403"
       id="linearGradient2800"
       gradientUnits="userSpaceOnUse"
       gradientTransform="matrix(1.1599577,0,0,1.1599577,-0.619092,-13.673352)"
       x1="27.174749"
       y1="47.428062"
       x2="61.502853"
       y2="75.030785" />
    <linearGradient
       inkscape:collect="always"
       xlink:href="#linearGradient3375"
       id="linearGradient2802"
       gradientUnits="userSpaceOnUse"
       gradientTransform="matrix(1.01643,0,0,1.01643,-2.5199734,-2.8807022)"
       x1="42.968586"
       y1="78.670265"
       x2="43.974384"
       y2="54.569012" />
    <linearGradient
       inkscape:collect="always"
       xlink:href="#linearGradient2555"
       id="linearGradient2804"
       gradientUnits="userSpaceOnUse"
       gradientTransform="matrix(1.1599577,0,0,1.1599577,-0.619092,-13.673352)"
       x1="40.892921"
       y1="16.648321"
       x2="39.968403"
       y2="38.883846" />
    <radialGradient
       inkscape:collect="always"
       xlink:href="#linearGradient2555"
       id="radialGradient2806"
       gradientUnits="userSpaceOnUse"
       gradientTransform="matrix(1.1599577,5.7247951e-8,-3.6094981e-8,0.7313563,-0.6190908,-7.7384939)"
       cx="39.718483"
       cy="32.919632"
       fx="39.718483"
       fy="32.919632"
       r="10.772212" />
    <linearGradient
       inkscape:collect="always"
       xlink:href="#linearGradient3383"
       id="linearGradient2808"
       gradientUnits="userSpaceOnUse"
       gradientTransform="matrix(0.9946821,0,0,0.9276888,-1.0517058,1.9311336)"
       x1="46.005692"
       y1="66.965622"
       x2="47.290428"
       y2="48.368496" />
  </defs>
  <sodipodi:namedview
     id="base"
     showgrid="false"
     inkscape:zoom="1.9563288"
     inkscape:cx="69.393606"
     inkscape:cy="55.428511"
     inkscape:window-width="691"
     inkscape:window-height="724"
     inkscape:window-x="326"
     inkscape:window-y="1"
     inkscape:current-layer="svg548" />
  <g
     id="g2790"
     transform="matrix(0.95348731,0,0,0.95348731,7.44358,3.1324294)">
    <path
       sodipodi:type="inkscape:offset"
       inkscape:radius="4.8806639"
       inkscape:original="M 45.6875 9.09375 C 37.850291 9.09375 34.96244 11.150092 33.3125 13.625 C 31.662562 16.099908 32.40633 17.526037 36.9375 20.0625 C 37.129085 22.874827 36.789521 30.958679 36.71875 36.4375 C 17.317722 57.801078 14.487877 63.915098 16.3125 70.65625 C 21.343254 89.242588 74.815042 85.29714 75.75 69.625 C 76.126218 63.391399 76.083909 59.559091 58.03125 36.5625 C 58.34306 32.200318 58.015092 22.506158 58.03125 20.03125 C 60.967377 18.223527 61.6875 18.174878 61.6875 14.875 C 61.6875 11.575122 53.524709 9.0937498 45.6875 9.09375 z "
       style="color:#000000;fill:#000000;fill-opacity:0.29411765;fill-rule:nonzero;stroke:none;stroke-width:2;marker:none;visibility:visible;display:inline;overflow:visible;enable-background:accumulate"
       id="path3409"
       d="m 45.6875,4.21875 c -4.34547,0 -7.680686,0.5288829 -10.4375,1.71875 -2.756814,1.1898671 -4.792092,3.156889 -6,4.96875 -0.626366,0.939549 -1.234995,2.05242 -1.5,3.5625 -0.265005,1.51008 0.03626,3.377791 0.78125,4.71875 0.936505,1.685675 2.15659,2.705948 3.5,3.59375 0.01188,2.649811 -0.07391,7.233983 -0.15625,11.78125 -8.878585,9.844217 -14.440757,16.612589 -17.5625,22.03125 -3.291581,5.713463 -3.894537,10.999753 -2.71875,15.34375 1.838757,6.793367 7.806495,10.929305 14.375,13.21875 6.568505,2.289445 14.260887,3.051602 21.8125,2.71875 7.551613,-0.332852 14.924948,-1.77774 20.9375,-4.40625 6.012552,-2.62851 11.508543,-6.895977 11.90625,-13.5625 0.192395,-3.187818 0.104348,-7.376103 -2.4375,-12.65625 -2.415652,-5.018002 -7.007925,-11.699065 -15.25,-22.28125 0.16414,-4.245091 0.06357,-9.098078 0,-12.25 0.557649,-0.39434 1.119361,-0.81247 1.75,-1.5625 1.534756,-1.825313 1.875,-4.27628 1.875,-6.28125 0,-2.837157 -1.695931,-4.905379 -3.25,-6.125 C 61.758431,7.530379 60.070008,6.7580495 58.21875,6.125 54.516235,4.858901 50.1212,4.2187499 45.6875,4.21875 z"
       transform="matrix(1.01643,0,0,1.01643,2.5916418,-0.06931384)" />
    <path
       transform="matrix(1.01643,0,0,1.01643,-2.5199734,-2.8807022)"
       d="m 45.6875,4.21875 c -4.34547,0 -7.680686,0.5288829 -10.4375,1.71875 -2.756814,1.1898671 -4.792092,3.156889 -6,4.96875 -0.626366,0.939549 -1.234995,2.05242 -1.5,3.5625 -0.265005,1.51008 0.03626,3.377791 0.78125,4.71875 0.936505,1.685675 2.15659,2.705948 3.5,3.59375 0.01188,2.649811 -0.07391,7.233983 -0.15625,11.78125 -8.878585,9.844217 -14.440757,16.612589 -17.5625,22.03125 -3.291581,5.713463 -3.894537,10.999753 -2.71875,15.34375 1.838757,6.793367 7.806495,10.929305 14.375,13.21875 6.568505,2.289445 14.260887,3.051602 21.8125,2.71875 7.551613,-0.332852 14.924948,-1.77774 20.9375,-4.40625 6.012552,-2.62851 11.508543,-6.895977 11.90625,-13.5625 0.192395,-3.187818 0.104348,-7.376103 -2.4375,-12.65625 -2.415652,-5.018002 -7.007925,-11.699065 -15.25,-22.28125 0.16414,-4.245091 0.06357,-9.098078 0,-12.25 0.557649,-0.39434 1.119361,-0.81247 1.75,-1.5625 1.534756,-1.825313 1.875,-4.27628 1.875,-6.28125 0,-2.837157 -1.695931,-4.905379 -3.25,-6.125 C 61.758431,7.530379 60.070008,6.7580495 58.21875,6.125 54.516235,4.858901 50.1212,4.2187499 45.6875,4.21875 z"
       id="path3401"
       style="color:#000000;fill:#283d53;fill-opacity:1;fill-rule:nonzero;stroke:none;stroke-width:2;marker:none;visibility:visible;display:inline;overflow:visible;enable-background:accumulate"
       inkscape:original="M 45.6875 9.09375 C 37.850291 9.09375 34.96244 11.150092 33.3125 13.625 C 31.662562 16.099908 32.40633 17.526037 36.9375 20.0625 C 37.129085 22.874827 36.789521 30.958679 36.71875 36.4375 C 17.317722 57.801078 14.487877 63.915098 16.3125 70.65625 C 21.343254 89.242588 74.815042 85.29714 75.75 69.625 C 76.126218 63.391399 76.083909 59.559091 58.03125 36.5625 C 58.34306 32.200318 58.015092 22.506158 58.03125 20.03125 C 60.967377 18.223527 61.6875 18.174878 61.6875 14.875 C 61.6875 11.575122 53.524709 9.0937498 45.6875 9.09375 z "
       inkscape:radius="4.8806639"
       sodipodi:type="inkscape:offset" />
    <path
       sodipodi:nodetypes="ccsssccssc"
       id="path2526"
       d="m 34.793634,34.168998 c 0.07193,-5.568841 0.414898,-13.79712 0.220166,-16.655652 -4.605618,-2.578138 -5.348674,-4.018957 -3.671628,-6.534528 1.677047,-2.5155699 4.61188,-4.6118784 12.577854,-4.6118784 7.965974,0 16.253845,2.5155709 16.253845,5.8696654 0,3.354094 -0.712691,3.392814 -3.697059,5.230238 -0.01642,2.515571 0.316933,12.37003 0,16.803882 C 74.826074,57.64515 74.863049,61.562991 74.480649,67.89901 73.530332,83.828643 19.16848,87.812937 14.055071,68.921227 12.200468,62.069317 15.073848,55.883578 34.793634,34.168998 z"
       style="color:#000000;fill:url(#linearGradient2800);fill-opacity:1;fill-rule:nonzero;stroke:none;stroke-width:2;marker:none;visibility:visible;display:inline;overflow:visible;enable-background:accumulate" />
    <path
       sodipodi:nodetypes="csscc"
       id="path3373"
       d="m 25.882914,51.078309 c -12.044818,13.417175 -7.717612,19.183225 -3.05337,22.089541 5.625021,3.504984 32.492453,7.564102 44.531286,-2.105004 5.007242,-4.021614 1.948349,-12.664272 -4.611094,-20.522614 -0.649449,7.014059 -32.44002,8.637684 -36.866822,0.538077 z"
       style="color:#000000;fill:url(#linearGradient2802);fill-opacity:1;fill-rule:nonzero;stroke:none;stroke-width:2;marker:none;visibility:visible;display:inline;overflow:visible;enable-background:accumulate" />
    <path
       sodipodi:nodetypes="ccccc"
       id="path2536"
       d="m 56.472576,17.424777 c -4.298154,1.588725 -11.747473,2.22151 -21.422159,0.06718 0.1127,2.403249 -0.04229,7.569568 -0.146614,12.654929 9.117667,9.105477 20.805025,6.613269 21.677518,-2.184823 -0.03664,-4.439262 -0.11493,-8.80838 -0.108745,-10.537285 z"
       style="color:#000000;fill:url(#linearGradient2804);fill-opacity:1;fill-rule:nonzero;stroke:none;stroke-width:2;marker:none;visibility:visible;display:inline;overflow:visible;enable-background:accumulate" />
    <path
       sodipodi:nodetypes="csss"
       id="path3361"
       d="m 35.994073,15.050693 c 3.325541,1.396394 14.674913,2.149354 20.011243,-0.370579 C 61.685748,11.997688 53.947585,8.112322 45.184422,7.7132359 38.284521,7.3935979 27.701533,11.568656 35.994073,15.050693 z"
       style="color:#000000;fill:url(#radialGradient2806);fill-opacity:1;fill-rule:nonzero;stroke:none;stroke-width:2;marker:none;visibility:visible;display:inline;overflow:visible;enable-background:accumulate" />
    <path
       sodipodi:nodetypes="css"
       id="path2528"
       d="m 25.687403,51.775316 c 0.334123,8.409245 37.940578,7.03483 38.04481,0.765315 0.130076,-7.823812 -38.301408,-7.2235 -38.04481,-0.765315 z"
       style="color:#000000;fill:url(#linearGradient2808);fill-opacity:1;fill-rule:nonzero;stroke:none;stroke-width:2;marker:none;visibility:visible;display:inline;overflow:visible;enable-background:accumulate" />
    <path
       sodipodi:nodetypes="csscc"
       id="path2534"
       d="M 39.873135,40.753505 C 28.508995,51.360037 20.044446,64.845556 23.924387,62.61546 c 2.678698,-1.539651 0.740715,-2.429698 8.692822,-9.819393 3.240322,-3.011149 7.773164,-8.692214 14.402247,-11.154444 -3.409241,0.568207 -5.062896,0.248297 -7.146322,-0.888118 z"
       style="color:#000000;fill:#ffffff;fill-opacity:1;fill-rule:nonzero;stroke:none;stroke-width:2;marker:none;visibility:visible;display:inline;overflow:visible;enable-background:accumulate" />
  </g>
  <g
     id="g2767"
     transform="translate(-16.81504,0.89593687)">
    <g
       transform="matrix(2.9031095,0,0,2.9031095,-89.595266,7.0615336)"
       id="g704">
      <path
         transform="matrix(0.344009,0,0,0.344009,34.34986,-2.175808)"
         id="path642"
         d="m 67.911,66.4866 c 0,1.6966 -1.4598,3.0734 -3.2585,3.0734 -1.7988,0 -3.2586,-1.3768 -3.2586,-3.0734 0,-1.6965 1.4598,-3.0734 3.2586,-3.0734 1.7987,0 3.2585,1.3769 3.2585,3.0734 z"
         style="font-size:12px;fill-opacity:0.389706;fill-rule:evenodd;stroke-width:1pt" />
      <path
         transform="matrix(0.344009,0,0,0.344009,34.34986,-2.175808)"
         sodipodi:nodetypes="cccccccccccc"
         id="path643"
         d="m 61.2458,74.2998 c -1.5553,-1.7775 -4.0732,-0.8147 -4.8879,0.4443 -0.8887,3.1104 0.5185,5.9246 4.2214,4.5916 3.7029,-1.3331 5.0359,-3.4067 5.0359,-3.2586 0,0.1482 -2.9623,7.9983 -7.4058,8.5907 -4.4435,0.5925 -6.8874,0.7406 -11.7752,0.8147 -5.0359,0.8887 -7.4798,0.8146 -7.4798,0.8146 l 6.2208,-8.8869 c 0,0 1.6293,-0.8887 4.2954,-5.3322 2.6661,-4.4434 7.4057,-5.4803 9.7756,-3.9991 2.1477,0.8886 3.3326,2.0736 3.9251,4.3694 -0.1481,2.5179 -0.5925,3.4807 -1.9255,1.8515 z"
         style="font-size:12px;fill-opacity:0.389706;fill-rule:evenodd;stroke-width:1pt" />
      <path
         transform="matrix(0.344009,0,0,0.344009,34.45177,-2.175808)"
         sodipodi:nodetypes="cccccccc"
         id="path644"
         d="m 37.9176,76.4474 c 2.2217,0.5925 -0.3703,3.7769 -1.7774,1.5552 -1.1109,1.5552 -0.5925,-2.2217 -0.5925,-2.2217 l -4.7397,9.9237 c 0,0 8.1464,2.9624 11.2568,-1.333 3.1104,-4.2953 3.4808,-6.5171 1.7775,-8.2945 -1.9997,-2.74 -3.7771,-1.6292 -4.5176,-1.1849 -0.7406,0.4444 -1.0368,0.7406 -1.4071,1.5552 z"
         style="font-size:12px;fill-opacity:0.389706;fill-rule:evenodd;stroke-width:1pt" />
      <path
         transform="matrix(0.344009,0,0,0.344009,34.34986,-2.175808)"
         sodipodi:nodetypes="cccccccc"
         id="path645"
         d="m 36.1402,62.0062 c 0,0 0.8886,-5.3322 0.5924,-8.1464 C 36.2883,47.787 23.5503,-3.31281 14.071,5.57413 3.11042,9.86949 16.1446,58.8957 17.7739,61.7099 c 1.6292,2.8142 3.9991,4.8878 3.9991,4.8878 0,0 -3.703,16.8853 10.1459,19.255 5.036,-9.3312 8.5898,-13.0521 7.7761,-17.2554 -0.4444,-2.3698 -1.0368,-4.5916 -3.5548,-6.5911 z"
         style="font-size:12px;fill-opacity:0.389706;fill-rule:evenodd;stroke-width:1pt" />
      <path
         transform="matrix(0.344009,0,0,0.344009,34.34986,-2.175808)"
         sodipodi:nodetypes="cccc"
         id="path650"
         d="m 46.6564,67.6346 c 1.7774,-2.6661 7.9242,-1.3331 10.7383,-1.9255 3.4067,-0.8887 1.6253,-7.1137 -2.2257,-7.1136 -2.6548,-0.5307 -8.2163,-0.4404 -8.5126,9.0391 z"
         style="font-size:12px;fill-opacity:0.389706;fill-rule:evenodd;stroke-width:1pt" />
    </g>
    <path
       id="path613"
       d="m 77.948342,65.480459 c 0,1.694384 -1.457892,3.069385 -3.254244,3.069385 -1.796449,0 -3.254343,-1.375001 -3.254343,-3.069385 0,-1.694283 1.457894,-3.069386 3.254343,-3.069386 1.796352,0 3.254244,1.375103 3.254244,3.069386 z"
       style="font-size:12px;fill:#470000;fill-rule:evenodd;stroke-width:1pt" />
    <path
       sodipodi:nodetypes="cccccccccccc"
       id="path610"
       d="m 71.291849,73.283451 c -1.553267,-1.775178 -4.067879,-0.813635 -4.881514,0.44372 -0.887539,3.106338 0.517822,5.916862 4.215884,4.585602 3.698063,-1.331358 5.029322,-3.40225 5.029322,-3.254344 0,0.148008 -2.958429,7.987852 -7.396124,8.579478 -4.437697,0.591727 -6.878404,0.739634 -11.759818,0.813637 -5.029321,0.887538 -7.47003,0.813535 -7.47003,0.813535 l 6.212675,-8.87529 c 0,0 1.627171,-0.887539 4.289789,-5.325234 2.662615,-4.437595 7.396024,-5.473142 9.762829,-3.993876 2.144893,0.88744 3.328247,2.070891 3.919972,4.363692 -0.147906,2.51461 -0.591725,3.476152 -1.922985,1.84908 z"
       style="fill:#470000;fill-opacity:1;fill-rule:evenodd;stroke:none" />
    <path
       sodipodi:nodetypes="cccccccc"
       id="path609"
       d="m 48.289991,75.428247 c 2.218797,0.591726 -0.369816,3.771965 -1.775077,1.553168 -1.10945,1.553168 -0.591727,-2.218799 -0.591727,-2.218799 l -4.733508,9.910738 c 0,0 8.135758,2.95853 11.242095,-1.33126 3.106337,-4.289687 3.476253,-6.508585 1.775178,-8.283665 -1.997087,-2.73642 -3.772167,-1.627071 -4.511699,-1.183351 -0.739632,0.44382 -1.035446,0.739632 -1.405262,1.553169 z"
       style="fill:#230000;fill-opacity:0.99898999;fill-rule:evenodd;stroke:none" />
    <path
       sodipodi:nodetypes="cccccccc"
       id="path608"
       d="m 46.219047,61.005911 c 0,0 0.887439,-5.325234 0.591626,-8.135758 C 46.366953,46.805287 33.645592,-4.2277687 24.178677,4.6475618 13.232415,8.9373105 26.249568,57.899476 27.87674,60.709999 c 1.627072,2.810524 3.993874,4.881414 3.993874,4.881414 0,0 -3.698162,16.863243 10.132647,19.229848 5.029421,-9.319011 8.578578,-13.03505 7.765942,-17.232859 -0.443821,-2.366706 -1.035447,-4.585602 -3.550156,-6.582491 z"
       style="fill:#230000;fill-opacity:1;fill-rule:evenodd;stroke:none" />
    <path
       sodipodi:nodetypes="cccc"
       id="path600"
       d="M 29.503812,57.30785 C 32.166427,54.053606 35.124858,51.686801 42.668891,52.426435 40.302185,39.261255 31.870614,3.7600226 25.805748,7.0143159 19.001419,8.1976979 25.362029,47.840832 29.503812,57.30785 z"
       style="fill:#f2962c;fill-opacity:1;fill-rule:evenodd;stroke:none" />
    <path
       sodipodi:nodetypes="ccccc"
       id="path601"
       d="m 29.94763,58.639108 c 0,0 1.331259,4.289689 4.881415,4.585602 1.627173,-2.514711 5.325234,-2.958431 8.431571,-2.810525 0.739632,-2.810522 1.331258,-6.212772 0.147907,-6.360678 -1.479165,-0.887541 -9.76283,-2.514612 -13.460893,4.585601 z"
       style="fill:#8b8b8b;fill-opacity:1;fill-rule:evenodd;stroke:none" />
    <path
       sodipodi:nodetypes="cccccc"
       id="path602"
       d="m 34.976952,65.443507 c 0.739632,-3.254242 6.36068,-5.473041 8.87529,-2.810523 6.064868,3.40225 3.40225,11.833819 0.739632,11.981726 -0.739632,10.502463 6.360681,4.733409 6.212774,2.514711 5.325135,-0.739632 1.035446,6.8044 -2.514711,6.360579 C 43.408523,84.229634 30.39135,79.792039 34.976952,65.443507 z"
       style="fill:#65532d;fill-opacity:1;fill-rule:evenodd;stroke:none" />
    <path
       sodipodi:nodetypes="cccccccc"
       id="path603"
       d="m 54.650618,80.235758 c 0.147906,0.147907 2.07089,0 3.106335,-1.775079 1.035446,-1.775077 4.585602,-9.023296 7.100313,-9.171203 6.064767,-2.218797 6.064767,1.922986 6.064767,1.922986 0,0 -5.621047,-2.070892 -6.212773,1.479264 -0.591626,3.550156 -1.627071,5.621047 5.177228,8.431571 -3.84587,1.331258 -15.851865,1.588023 -16.591598,1.588023 -0.739632,0 1.503634,-2.623468 1.355728,-2.475562 z"
       style="fill:#bc0000;fill-opacity:1;fill-rule:evenodd;stroke:none" />
    <path
       sodipodi:nodetypes="cccc"
       id="path611"
       d="m 56.721508,66.62696 c 1.775078,-2.662618 7.913849,-1.33136 10.724272,-1.922986 3.40225,-0.887539 1.623178,-7.104407 -2.222792,-7.104307 -2.651332,-0.530007 -8.205567,-0.439825 -8.50148,9.027293 z"
       style="fill:#470000;fill-opacity:1;fill-rule:evenodd;stroke:none" />
    <path
       sodipodi:nodetypes="cccc"
       id="path604"
       d="m 58.200774,63.816435 c 0,0 6.36058,-0.591725 7.98775,-0.591725 1.922986,0.411262 2.053016,-2.506522 0.44372,-3.550157 -2.810423,-1.922983 -6.656492,-2.07089 -8.43147,4.141882 z"
       style="fill:#bc0000;fill-opacity:1;fill-rule:evenodd;stroke:none" />
    <path
       id="path606"
       d="m 76.838894,65.591413 c 0,1.143205 -0.960843,2.070992 -2.144895,2.070992 -1.183951,0 -2.144794,-0.927787 -2.144794,-2.070992 0,-1.143103 0.960843,-2.07089 2.144794,-2.07089 1.184052,0 2.144895,0.927787 2.144895,2.07089 z"
       style="font-size:12px;fill:#bc0000;fill-rule:evenodd;stroke-width:1pt" />
    <path
       sodipodi:nodetypes="cccc"
       id="path621"
       d="M 29.503812,57.30785 C 32.166427,54.053606 35.124858,51.686801 42.668891,52.426435 40.302185,39.261255 31.870614,3.7600226 25.805748,7.0143159 19.001419,8.1976979 25.362029,47.840832 29.503812,57.30785 z"
       style="fill:url(#linearGradient617);fill-opacity:1;fill-rule:evenodd;stroke:none" />
    <path
       sodipodi:nodetypes="css"
       id="path622"
       d="M 38.527108,51.538796 C 35.23012,51.689398 24.708683,7.0744272 28.764178,9.5290465 29.718331,10.195974 44.456053,51.534101 38.527108,51.538796 z"
       style="fill:#f2d0a8;fill-opacity:1;fill-rule:evenodd;stroke:none" />
    <path
       sodipodi:nodetypes="ccccc"
       id="path623"
       d="m 40.597998,53.46188 0.591728,6.804399 -3.40225,0.739632 -1.479165,-7.396225 c 0,0 3.993874,-0.443619 4.289687,-0.147806 z"
       style="fill:#f2f2f2;fill-opacity:1;fill-rule:evenodd;stroke:none" />
    <path
       sodipodi:nodetypes="cccccc"
       id="path624"
       d="m 34.976952,65.443507 c 0.739632,-3.254242 6.36068,-5.473041 8.87529,-2.810523 6.064868,3.40225 3.40225,11.833819 0.739632,11.981726 -0.739632,10.502463 6.360681,4.733409 6.212774,2.514711 5.325135,-0.739632 1.035446,6.8044 -2.514711,6.360579 C 43.408523,84.229634 30.39135,79.792039 34.976952,65.443507 z"
       style="fill:url(#linearGradient625);fill-opacity:1;fill-rule:evenodd;stroke:none" />
  </g>
</svg>
