<?xml version="1.0" encoding="UTF-8" standalone="no"?>
<!-- Created with Inkscape (http://www.inkscape.org/) -->
<svg
   xmlns:dc="http://purl.org/dc/elements/1.1/"
   xmlns:cc="http://creativecommons.org/ns#"
   xmlns:rdf="http://www.w3.org/1999/02/22-rdf-syntax-ns#"
   xmlns:svg="http://www.w3.org/2000/svg"
   xmlns="http://www.w3.org/2000/svg"
   xmlns:xlink="http://www.w3.org/1999/xlink"
   xmlns:sodipodi="http://sodipodi.sourceforge.net/DTD/sodipodi-0.dtd"
   xmlns:inkscape="http://www.inkscape.org/namespaces/inkscape"
   width="90"
   height="90"
   id="svg2"
   sodipodi:version="0.32"
   inkscape:version="0.46+devel"
   version="1.0"
   sodipodi:docname="modem.svg"
   inkscape:output_extension="org.inkscape.output.svg.inkscape">
  <defs
     id="defs4">
    <inkscape:perspective
       sodipodi:type="inkscape:persp3d"
       inkscape:vp_x="0 : 45 : 1"
       inkscape:vp_y="0 : 1000 : 0"
       inkscape:vp_z="90 : 45 : 1"
       inkscape:persp3d-origin="45 : 30 : 1"
       id="perspective43" />
    <linearGradient
       inkscape:collect="always"
       id="linearGradient3342">
      <stop
         style="stop-color:#a9e2f5;stop-opacity:1"
         offset="0"
         id="stop3344" />
      <stop
         style="stop-color:#ffffff;stop-opacity:1"
         offset="1"
         id="stop3346" />
    </linearGradient>
    <linearGradient
       inkscape:collect="always"
       id="linearGradient2544">
      <stop
         style="stop-color:#ed0000;stop-opacity:1;"
         offset="0"
         id="stop2546" />
      <stop
         style="stop-color:#ff933d;stop-opacity:1"
         offset="1"
         id="stop2548" />
    </linearGradient>
    <linearGradient
       inkscape:collect="always"
       id="linearGradient2536">
      <stop
         style="stop-color:#ff933d;stop-opacity:1"
         offset="0"
         id="stop2538" />
      <stop
         style="stop-color:#ed0000;stop-opacity:1"
         offset="1"
         id="stop2540" />
    </linearGradient>
    <linearGradient
       inkscape:collect="always"
       xlink:href="#linearGradient2544"
       id="linearGradient2550"
       x1="47.713867"
       y1="36.841614"
       x2="41.757477"
       y2="14.285604"
       gradientUnits="userSpaceOnUse"
       gradientTransform="matrix(1.0069898,0,0,1.0069898,0.8835168,-5.8989637)" />
    <linearGradient
       inkscape:collect="always"
       xlink:href="#linearGradient2536"
       id="linearGradient3518"
       gradientUnits="userSpaceOnUse"
       gradientTransform="matrix(1.0069898,0,0,1.0069898,0.8835168,-5.8989637)"
       x1="38.09219"
       y1="43.752869"
       x2="48.152187"
       y2="72.0737" />
    <linearGradient
       inkscape:collect="always"
       xlink:href="#linearGradient3342"
       id="linearGradient3520"
       gradientUnits="userSpaceOnUse"
       gradientTransform="matrix(1.0069898,0,0,1.0069898,0.8835168,-5.8989637)"
       x1="51.25"
       y1="81.785713"
       x2="52.142857"
       y2="50.17857" />
  </defs>
  <sodipodi:namedview
     id="base"
     pagecolor="#ffffff"
     bordercolor="#666666"
     borderopacity="1.0"
     gridtolerance="10000"
     guidetolerance="10"
     objecttolerance="10"
     inkscape:pageopacity="0.0"
     inkscape:pageshadow="2"
     inkscape:zoom="5.6"
     inkscape:cx="53.984109"
     inkscape:cy="44.50001"
     inkscape:document-units="px"
     inkscape:current-layer="layer1"
     showgrid="false"
     inkscape:window-width="736"
     inkscape:window-height="724"
     inkscape:window-x="186"
     inkscape:window-y="3" />
  <metadata
     id="metadata7">
    <rdf:RDF>
      <cc:Work
         rdf:about="">
        <dc:format>image/svg+xml</dc:format>
        <dc:type
           rdf:resource="http://purl.org/dc/dcmitype/StillImage" />
      </cc:Work>
    </rdf:RDF>
  </metadata>
  <g
     inkscape:label="Layer 1"
     inkscape:groupmode="layer"
     id="layer1">
    <path
       transform="matrix(1.0100657,0,0,1.0100657,-0.3721118,3.216293)"
       d="M 52.96875,2.40625 C 50.151084,2.3919143 47.717734,2.6872826 46.625,2.75 42.646034,2.9783727 35.638961,4.327765 28.40625,6.1875 24.789895,7.1173675 21.180164,8.1897538 18.03125,9.34375 14.882336,10.497746 12.236054,11.59759 10.09375,13.3125 9.2481716,13.989384 6.4128231,15.361918 4.25,18.625 2.0871769,21.888082 1.0315251,26.652674 1.71875,33.78125 c 0.3018254,3.130827 2.3370365,5.174306 4.53125,6.6875 0.8032647,0.553955 1.7322825,0.995983 2.65625,1.4375 -0.754647,2.127559 -1.2509102,4.81297 -0.96875,7.78125 -3.5707643,1.862098 -5.661564,5.382253 -6.34375,8.59375 -0.4089934,1.9254 -0.4686484,3.8071 -0.21875,5.5625 0.2498984,1.7554 0.6865598,3.394736 2.0625,5 1.2247159,1.428835 2.6156647,2.421485 4.8125,3.90625 2.196835,1.484765 4.989819,3.148225 8.21875,4.75 6.457862,3.20355 14.561869,6.164341 22.78125,5.9375 5.682476,-0.15882 14.80197,-1.398121 23.6875,-3.6875 8.88553,-2.289379 17.448986,-5.088001 22.125,-11.03125 0.28962917,-0.37542804 0.51169395,-0.79840857 0.65625,-1.25 0.639371,-1.918115 1.48368,-4.93915 1.21875,-8.4375 -0.223034,-2.945115 -1.787957,-6.444262 -4.875,-8.625 0.827929,-3.177794 0.614555,-6.300217 -0.1875,-8.71875 -1.20962,-3.647512 -3.366636,-6.286962 -3.84375,-6.90625 -0.496812,-0.644857 -3.22339,-4.023512 -5.875,-7.21875 1.888855,-2.319649 2.691224,-5.414816 2.3125,-8.34375 -0.487063,-3.766792 -2.563506,-7.395875 -5.8125,-10.625 L 68.6875,8.5625 C 68.646024,8.5157827 68.604271,8.4835316 68.5625,8.4375 68.52914,8.4048053 68.50236,8.3763576 68.46875,8.34375 L 68.4375,8.375 C 63.854246,3.4087491 57.584219,2.4297325 52.96875,2.40625 z"
       id="path2513"
       style="opacity:1;color:#000000;fill:#000000;fill-opacity:0.29411765;fill-rule:nonzero;stroke:none;stroke-width:2;marker:none;marker-start:none;marker-mid:none;marker-end:none;visibility:visible;display:inline;overflow:visible;enable-background:accumulate"
       inkscape:original="M 52.9375 6.5 C 50.433125 6.4872583 48.230547 6.7641549 46.84375 6.84375 C 40.378019 7.2148505 18.219259 12.046821 12.65625 16.5 C 9.7228921 18.848147 4.51185 20.207529 5.78125 33.375 C 6.2886932 38.638696 21.001762 43.680453 32.75 38.1875 C 35.676125 32.064378 34.005487 27.441437 31.84375 24.84375 C 35.395544 23.730454 55.007133 15.74021 58.96875 17.78125 C 62.930366 19.82229 67.78125 26.125 67.78125 26.125 C 71.965333 23.341763 71.36251 16.847721 65.625 11.28125 C 62.124435 7.3383334 57.111459 6.5212362 52.9375 6.5 z M 56.65625 19.09375 C 51.478747 19.385483 37.58242 24.126446 34.4375 25.75 C 36.888086 27.791039 36.24172 36.349571 34.28125 39.875 C 29.543449 44.328178 16.976317 43.205095 13.21875 41.90625 C 12.075142 44.503936 10.832819 49.699894 13.375 53.78125 C 17.053115 59.686297 29.627654 65.093473 39.875 65.0625 C 51.283521 65.027404 71.950977 59.391937 76.59375 52.84375 C 81.600316 45.782468 75.924861 38.765641 74.78125 37.28125 C 73.637643 35.796858 62.202187 21.13674 58.28125 19.28125 C 57.954505 19.118895 57.395893 19.052074 56.65625 19.09375 z M 11.1875 52.65625 C 4.5983033 54.348873 4.3949186 63.695113 6.53125 66.1875 C 8.6675821 68.679888 24.883791 79.736784 39.125 79.34375 C 49.503352 79.053684 75.24857 74.570024 81.84375 66.1875 C 82.910284 62.987893 84.531705 55.49565 78.65625 53 C 78.120534 57.980426 51.683517 67.955471 38.6875 66.53125 C 37.364055 68.507963 35.703257 69.636091 35.84375 76.09375 C 34.329136 71.724403 35.835887 67.595523 37.25 66.25 C 23.944828 65.453342 12.054826 57.334759 11.1875 52.65625 z "
       inkscape:radius="4.0851498"
       sodipodi:type="inkscape:offset" />
    <path
       sodipodi:type="inkscape:offset"
       inkscape:radius="4.0851498"
       inkscape:original="M 52.9375 6.5 C 50.433125 6.4872583 48.230547 6.7641549 46.84375 6.84375 C 40.378019 7.2148505 18.219259 12.046821 12.65625 16.5 C 9.7228921 18.848147 4.51185 20.207529 5.78125 33.375 C 6.2886932 38.638696 21.001762 43.680453 32.75 38.1875 C 35.676125 32.064378 34.005487 27.441437 31.84375 24.84375 C 35.395544 23.730454 55.007133 15.74021 58.96875 17.78125 C 62.930366 19.82229 67.78125 26.125 67.78125 26.125 C 71.965333 23.341763 71.36251 16.847721 65.625 11.28125 C 62.124435 7.3383334 57.111459 6.5212362 52.9375 6.5 z M 56.65625 19.09375 C 51.478747 19.385483 37.58242 24.126446 34.4375 25.75 C 36.888086 27.791039 36.24172 36.349571 34.28125 39.875 C 29.543449 44.328178 16.976317 43.205095 13.21875 41.90625 C 12.075142 44.503936 10.832819 49.699894 13.375 53.78125 C 17.053115 59.686297 29.627654 65.093473 39.875 65.0625 C 51.283521 65.027404 71.950977 59.391937 76.59375 52.84375 C 81.600316 45.782468 75.924861 38.765641 74.78125 37.28125 C 73.637643 35.796858 62.202187 21.13674 58.28125 19.28125 C 57.954505 19.118895 57.395893 19.052074 56.65625 19.09375 z M 11.1875 52.65625 C 4.5983033 54.348873 4.3949186 63.695113 6.53125 66.1875 C 8.6675821 68.679888 24.883791 79.736784 39.125 79.34375 C 49.503352 79.053684 75.24857 74.570024 81.84375 66.1875 C 82.910284 62.987893 84.531705 55.49565 78.65625 53 C 78.120534 57.980426 51.683517 67.955471 38.6875 66.53125 C 37.364055 68.507963 35.703257 69.636091 35.84375 76.09375 C 34.329136 71.724403 35.835887 67.595523 37.25 66.25 C 23.944828 65.453342 12.054826 57.334759 11.1875 52.65625 z "
       style="opacity:1;color:#000000;fill:#000000;fill-opacity:1;fill-rule:nonzero;stroke:none;stroke-width:2;marker:none;marker-start:none;marker-mid:none;marker-end:none;visibility:visible;display:inline;overflow:visible;enable-background:accumulate"
       id="path3516"
       d="M 52.96875,2.40625 C 50.151084,2.3919143 47.717734,2.6872826 46.625,2.75 42.646034,2.9783727 35.638961,4.327765 28.40625,6.1875 24.789895,7.1173675 21.180164,8.1897538 18.03125,9.34375 14.882336,10.497746 12.236054,11.59759 10.09375,13.3125 9.2481716,13.989384 6.4128231,15.361918 4.25,18.625 2.0871769,21.888082 1.0315251,26.652674 1.71875,33.78125 c 0.3018254,3.130827 2.3370365,5.174306 4.53125,6.6875 0.8032647,0.553955 1.7322825,0.995983 2.65625,1.4375 -0.754647,2.127559 -1.2509102,4.81297 -0.96875,7.78125 -3.5707643,1.862098 -5.661564,5.382253 -6.34375,8.59375 -0.4089934,1.9254 -0.4686484,3.8071 -0.21875,5.5625 0.2498984,1.7554 0.6865598,3.394736 2.0625,5 1.2247159,1.428835 2.6156647,2.421485 4.8125,3.90625 2.196835,1.484765 4.989819,3.148225 8.21875,4.75 6.457862,3.20355 14.561869,6.164341 22.78125,5.9375 5.682476,-0.15882 14.80197,-1.398121 23.6875,-3.6875 8.88553,-2.289379 17.448986,-5.088001 22.125,-11.03125 0.28962917,-0.37542804 0.51169395,-0.79840857 0.65625,-1.25 0.639371,-1.918115 1.48368,-4.93915 1.21875,-8.4375 -0.223034,-2.945115 -1.787957,-6.444262 -4.875,-8.625 0.827929,-3.177794 0.614555,-6.300217 -0.1875,-8.71875 -1.20962,-3.647512 -3.366636,-6.286962 -3.84375,-6.90625 -0.496812,-0.644857 -3.22339,-4.023512 -5.875,-7.21875 1.888855,-2.319649 2.691224,-5.414816 2.3125,-8.34375 -0.487063,-3.766792 -2.563506,-7.395875 -5.8125,-10.625 L 68.6875,8.5625 C 68.646024,8.5157827 68.604271,8.4835316 68.5625,8.4375 68.52914,8.4048053 68.50236,8.3763576 68.46875,8.34375 L 68.4375,8.375 C 63.854246,3.4087491 57.584219,2.4297325 52.96875,2.40625 z"
       transform="matrix(1.0100657,0,0,1.0100657,1.6449999,-0.8179303)" />
    <path
       style="opacity:1;color:#000000;fill:url(#linearGradient2550);fill-opacity:1;fill-rule:nonzero;stroke:none;stroke-width:2;marker:none;marker-start:none;marker-mid:none;marker-end:none;visibility:visible;display:inline;overflow:visible;enable-background:accumulate"
       d="M 67.928343,10.585493 C 62.27106,4.213324 52.690515,5.8730999 48.955166,6.0874904 42.424354,6.4623255 20.053725,11.335157 14.43472,15.833162 11.471836,18.204944 6.359983,19.574104 7.4878994,32.888084 8.0004503,38.938258 28.364625,41.658617 33.262911,36.47712 35.301622,29.375496 33.605223,25.790506 31.421727,23.166671 35.009273,22.042169 57.216967,13.433129 61.218461,15.494714 65.219951,17.556297 71.567585,24.295214 71.567585,24.295214 74.69354,20.383719 72.806735,14.55763 67.928342,10.585493 z"
       id="path2481"
       sodipodi:nodetypes="csssccsccc" />
    <path
       style="opacity:1;color:#000000;fill:url(#linearGradient3518);fill-opacity:1;fill-rule:nonzero;stroke:none;stroke-width:2;marker:none;marker-start:none;marker-mid:none;marker-end:none;visibility:visible;display:inline;overflow:visible;enable-background:accumulate"
       d="m 60.519229,18.644412 c 3.9604035,1.874167 15.511589,16.680089 16.666707,18.179422 1.1551182,1.4993332 6.891357,8.610647 1.8343951,15.743007 C 74.330824,59.18094 53.453875,64.852898 41.930518,64.888347 31.580028,64.919634 18.854716,59.468408 15.139578,53.503924 12.571809,49.381484 13.829045,44.133087 14.984165,41.509253 18.779555,42.821171 31.476252,43.94567 36.261743,39.447668 38.241946,35.88675 38.810327,27.35727 36.610135,25.020624 40.240506,23.146457 57.878957,17.332495 60.519229,18.644412 z"
       id="path2483"
       sodipodi:nodetypes="csssscccc" />
    <g
       id="g3324"
       transform="matrix(1.0092031,0,0,1.0092031,1.6810087,-5.2601544)">
      <path
         style="opacity:1;color:#000000;fill:#383e49;fill-opacity:1;fill-rule:nonzero;stroke:none;stroke-width:2;marker:none;marker-start:none;marker-mid:none;marker-end:none;visibility:visible;display:inline;overflow:visible;enable-background:accumulate"
         d="M 47.440794,29.486931 C 63.201547,25.462184 81.867196,46.619237 65.574935,54.302127 43.010282,64.942868 25.400001,35.115381 47.440794,29.486931 z"
         id="path3524"
         sodipodi:nodetypes="css" />
      <path
         sodipodi:nodetypes="css"
         id="path2485"
         d="M 48.388161,31.246361 C 62.062855,27.754322 78.257959,46.111073 64.122106,52.777072 44.544061,62.009428 29.264639,36.129842 48.388161,31.246361 z"
         style="opacity:1;color:#000000;fill:#ffffff;fill-opacity:1;fill-rule:nonzero;stroke:none;stroke-width:2;marker:none;marker-start:none;marker-mid:none;marker-end:none;visibility:visible;display:inline;overflow:visible;enable-background:accumulate" />
      <path
         style="opacity:1;color:#000000;fill:#c2c2c2;fill-opacity:1;fill-rule:nonzero;stroke:none;stroke-width:2;marker:none;marker-start:none;marker-mid:none;marker-end:none;visibility:visible;display:inline;overflow:visible;enable-background:accumulate"
         d="m 51.435081,36.905042 c 6.965511,-1.778749 15.21485,7.571673 8.014437,10.967149 C 49.477002,52.5749 41.694086,39.392552 51.435081,36.905042 z"
         id="path2512"
         sodipodi:nodetypes="css" />
      <path
         sodipodi:nodetypes="css"
         id="path2514"
         d="m 49.604843,32.099767 c 2.36741,-0.604553 5.171159,2.573429 2.723913,3.727469 -3.389417,1.598337 -6.03464,-2.882025 -2.723913,-3.727469 z"
         style="opacity:1;color:#000000;fill:#9b9a9a;fill-opacity:1;fill-rule:nonzero;stroke:none;stroke-width:2;marker:none;marker-start:none;marker-mid:none;marker-end:none;visibility:visible;display:inline;overflow:visible;enable-background:accumulate" />
      <path
         id="path2516"
         d="m 63.30486,46.056059 c -0.506323,1.721495 7.392301,4.15184 7.797358,2.734138 0.405058,-1.417701 -1.518966,-2.025287 -2.835403,-2.126552 -1.316438,-0.101264 -4.354368,-1.822759 -4.961955,-0.607586 z"
         style="opacity:1;color:#000000;fill:#383e49;fill-opacity:1;fill-rule:nonzero;stroke:none;stroke-width:2;marker:none;marker-start:none;marker-mid:none;marker-end:none;visibility:visible;display:inline;overflow:visible;enable-background:accumulate" />
      <use
         height="90"
         width="90"
         transform="translate(6.0758644,0.2025288)"
         id="use2518"
         xlink:href="#path2514"
         y="0"
         x="0" />
      <use
         height="90"
         width="90"
         transform="translate(11.544143,3.4429896)"
         id="use2520"
         xlink:href="#path2514"
         y="0"
         x="0" />
      <use
         height="90"
         width="90"
         transform="translate(14.582074,7.8986235)"
         id="use2522"
         xlink:href="#path2514"
         y="0"
         x="0" />
      <use
         height="90"
         width="90"
         transform="translate(-4.9619557,2.3290814)"
         id="use2524"
         xlink:href="#path2514"
         y="0"
         x="0" />
      <use
         height="90"
         width="90"
         transform="translate(-7.0885083,7.0885081)"
         id="use2526"
         xlink:href="#path2514"
         y="0"
         x="0" />
      <use
         height="90"
         width="90"
         transform="translate(-5.8733354,12.151727)"
         id="use2528"
         xlink:href="#path2514"
         y="0"
         x="0" />
      <use
         height="90"
         width="90"
         transform="translate(-1.4177016,16.303567)"
         id="use2530"
         xlink:href="#path2514"
         y="0"
         x="0" />
      <use
         height="90"
         width="90"
         transform="translate(4.8606915,17.822534)"
         id="use2532"
         xlink:href="#path2514"
         y="0"
         x="0" />
      <use
         height="90"
         width="90"
         transform="translate(10.531498,16.506097)"
         id="use2534"
         xlink:href="#path2514"
         y="0"
         x="0" />
      <path
         sodipodi:nodetypes="css"
         id="path3322"
         d="m 52.528495,37.428836 c 5.54088,-1.414948 12.103012,6.023065 6.375274,8.724077 -7.932874,3.740881 -14.123978,-6.745328 -6.375274,-8.724077 z"
         style="opacity:1;color:#000000;fill:#ffffff;fill-opacity:1;fill-rule:nonzero;stroke:none;stroke-width:2;marker:none;marker-start:none;marker-mid:none;marker-end:none;visibility:visible;display:inline;overflow:visible;enable-background:accumulate" />
    </g>
    <path
       style="opacity:1;color:#000000;fill:url(#linearGradient3520);fill-opacity:1;fill-rule:nonzero;stroke:none;stroke-width:1.5;marker:none;marker-start:none;marker-mid:none;marker-end:none;visibility:visible;display:inline;overflow:visible;enable-background:accumulate"
       d="M 12.933076,52.362587 C 6.277555,54.072246 6.0982848,63.511401 8.2561202,66.028876 10.413955,68.546349 26.77855,79.732515 41.163108,79.335525 51.645924,79.042542 77.651654,74.490284 84.31322,66.023384 85.390488,62.791574 87.014357,55.249587 81.079761,52.728816 80.538655,57.759372 53.837917,67.827071 40.711086,66.388515 39.374319,68.385124 37.695939,69.5135 37.837845,76.036162 36.307985,71.622834 37.83741,67.455003 39.265757,66.095937 25.82666,65.291262 13.809133,57.088187 12.933076,52.362587 z"
       id="path3340"
       sodipodi:nodetypes="csscccccc" />
    <path
       style="opacity:1;color:#000000;fill:#2aaf18;fill-opacity:1;fill-rule:nonzero;stroke:none;stroke-width:1.5;marker:none;marker-start:none;marker-mid:none;marker-end:none;visibility:visible;display:inline;overflow:visible;enable-background:accumulate"
       d="M 49.260483,67.824873 48.721022,72.859821 57.532183,71.601084 57.891821,66.745956 z"
       id="path3350"
       sodipodi:nodetypes="ccccc" />
    <path
       sodipodi:nodetypes="ccccc"
       id="path3352"
       d="M 70.298826,62.968644 69.759365,68.183413 78.390707,64.764095 78.750348,59.728596 z"
       style="opacity:1;color:#000000;fill:#31baff;fill-opacity:1;fill-rule:nonzero;stroke:none;stroke-width:1.5;marker:none;marker-start:none;marker-mid:none;marker-end:none;visibility:visible;display:inline;overflow:visible;enable-background:accumulate" />
    <path
       style="opacity:1;color:#000000;fill:#ed0000;fill-opacity:1;fill-rule:nonzero;stroke:none;stroke-width:1.5;marker:none;marker-start:none;marker-mid:none;marker-end:none;visibility:visible;display:inline;overflow:visible;enable-background:accumulate"
       d="M 59.5091,65.846307 58.96964,70.881257 67.780802,68.903242 68.140441,63.688472 z"
       id="path3354"
       sodipodi:nodetypes="ccccc" />
  </g>
</svg>
