<?xml version="1.0" encoding="UTF-8" standalone="no"?>
<!-- Created with Sodipodi ("http://www.sodipodi.com/") -->
<svg
   xmlns:dc="http://purl.org/dc/elements/1.1/"
   xmlns:cc="http://creativecommons.org/ns#"
   xmlns:rdf="http://www.w3.org/1999/02/22-rdf-syntax-ns#"
   xmlns:svg="http://www.w3.org/2000/svg"
   xmlns="http://www.w3.org/2000/svg"
   xmlns:xlink="http://www.w3.org/1999/xlink"
   xmlns:sodipodi="http://sodipodi.sourceforge.net/DTD/sodipodi-0.dtd"
   xmlns:inkscape="http://www.inkscape.org/namespaces/inkscape"
   id="svg704"
   sodipodi:version="0.32"
   width="72pt"
   height="72pt"
   sodipodi:docbase="/home/tweenk/dev/GartoonRedux/scalable/categories"
   sodipodi:docname="preferences-system-network.svg"
   inkscape:version="0.46+devel"
   inkscape:output_extension="org.inkscape.output.svg.inkscape">
  <metadata
     id="metadata2453">
    <rdf:RDF>
      <cc:Work
         rdf:about="">
        <dc:format>image/svg+xml</dc:format>
        <dc:type
           rdf:resource="http://purl.org/dc/dcmitype/StillImage" />
      </cc:Work>
    </rdf:RDF>
  </metadata>
  <defs
     id="defs706">
    <inkscape:perspective
       sodipodi:type="inkscape:persp3d"
       inkscape:vp_x="0 : 45 : 1"
       inkscape:vp_y="0 : 1000 : 0"
       inkscape:vp_z="90 : 45 : 1"
       inkscape:persp3d-origin="45 : 30 : 1"
       id="perspective109" />
    <linearGradient
       id="linearGradient604">
      <stop
         offset="0.000000"
         style="stop-color:#666565;stop-opacity:1;"
         id="stop606" />
      <stop
         offset="1.000000"
         style="stop-color:#ffffff;stop-opacity:1;"
         id="stop605" />
    </linearGradient>
    <linearGradient
       xlink:href="#linearGradient604"
       id="linearGradient603"
       x1="61.0468903"
       y1="28.6572132"
       x2="79.6281509"
       y2="14.1547699"
       gradientUnits="userSpaceOnUse"
       spreadMethod="pad"
       gradientTransform="scale(0.994399,1.005632)" />
    <linearGradient
       xlink:href="#linearGradient554"
       id="linearGradient559"
       x1="7.79836702"
       y1="68.6560287"
       x2="12.9945765"
       y2="78.4289169"
       gradientUnits="userSpaceOnUse"
       spreadMethod="pad"
       gradientTransform="matrix(0.7018935,-0.4051791,0.319711,0.5602958,-9.0867255,40.798403)" />
    <linearGradient
       id="linearGradient554">
      <stop
         style="stop-color:#666565;stop-opacity:1;"
         offset="0.000000"
         id="stop555" />
      <stop
         style="stop-color:#ffffff;stop-opacity:1;"
         offset="1.000000"
         id="stop556" />
    </linearGradient>
    <linearGradient
       xlink:href="#linearGradient554"
       id="linearGradient557"
       x1="12.9236002"
       y1="79.9603500"
       x2="8.33575153"
       y2="72.2902298"
       gradientUnits="userSpaceOnUse"
       spreadMethod="pad"
       gradientTransform="matrix(0.940577,-0.5429624,0.428431,0.7508279,-19.758146,27.856673)" />
    <linearGradient
       id="linearGradient1341">
      <stop
         style="stop-color:#545554;stop-opacity:1;"
         offset="0.000000"
         id="stop1342" />
      <stop
         style="stop-color:#ffffff;stop-opacity:1;"
         offset="1.000000"
         id="stop1343" />
    </linearGradient>
    <linearGradient
       id="linearGradient734">
      <stop
         style="stop-color:#2a2535;stop-opacity:1;"
         offset="0.000000"
         id="stop735" />
      <stop
         style="stop-color:#e3e1cf;stop-opacity:1;"
         offset="1.000000"
         id="stop736" />
    </linearGradient>
    <linearGradient
       id="linearGradient724">
      <stop
         style="stop-color:#ffffff;stop-opacity:0.490196;"
         offset="0.000000"
         id="stop725" />
      <stop
         style="stop-color:#ffffff;stop-opacity:0.176471;"
         offset="1.000000"
         id="stop726" />
    </linearGradient>
    <linearGradient
       id="linearGradient718">
      <stop
         style="stop-color:#e3e1cf;stop-opacity:1;"
         offset="0.000000"
         id="stop719" />
      <stop
         style="stop-color:#ffffff;stop-opacity:1;"
         offset="1.000000"
         id="stop720" />
    </linearGradient>
    <linearGradient
       xlink:href="#linearGradient718"
       id="linearGradient721"
       x1="45.4330635"
       y1="41.9262352"
       x2="24.0375099"
       y2="27.2048512"
       gradientUnits="userSpaceOnUse"
       spreadMethod="pad"
       gradientTransform="scale(1.033999,0.967119)" />
    <linearGradient
       xlink:href="#linearGradient724"
       id="linearGradient723"
       x1="40.2607956"
       y1="39.8445053"
       x2="37.3197212"
       y2="68.6665039"
       gradientUnits="userSpaceOnUse"
       spreadMethod="pad"
       gradientTransform="scale(1.185464,0.843551)" />
    <linearGradient
       xlink:href="#linearGradient1341"
       id="linearGradient732"
       x1="50.9139214"
       y1="48.5837708"
       x2="36.7141457"
       y2="33.2703362"
       gradientUnits="userSpaceOnUse"
       spreadMethod="reflect"
       gradientTransform="scale(0.992891,1.007159)" />
    <radialGradient
       xlink:href="#linearGradient734"
       id="radialGradient733"
       cx="33.2134209"
       cy="118.190964"
       fx="33.2134209"
       fy="118.190964"
       r="14.8945398"
       gradientUnits="userSpaceOnUse"
       spreadMethod="pad"
       gradientTransform="scale(1.559286,0.641319)" />
    <radialGradient
       xlink:href="#linearGradient734"
       id="radialGradient738" />
    <linearGradient
       xlink:href="#linearGradient1341"
       id="linearGradient1345" />
    <radialGradient
       inkscape:collect="always"
       xlink:href="#linearGradient734"
       id="radialGradient2558"
       gradientUnits="userSpaceOnUse"
       gradientTransform="scale(1.559286,0.641319)"
       spreadMethod="pad"
       cx="33.2134209"
       cy="118.190964"
       fx="33.2134209"
       fy="118.190964"
       r="14.8945398" />
    <linearGradient
       inkscape:collect="always"
       xlink:href="#linearGradient718"
       id="linearGradient2560"
       gradientUnits="userSpaceOnUse"
       gradientTransform="scale(1.033999,0.967119)"
       spreadMethod="pad"
       x1="45.4330635"
       y1="41.9262352"
       x2="24.0375099"
       y2="27.2048512" />
    <linearGradient
       inkscape:collect="always"
       xlink:href="#linearGradient724"
       id="linearGradient2562"
       gradientUnits="userSpaceOnUse"
       gradientTransform="scale(1.185464,0.843551)"
       spreadMethod="pad"
       x1="40.2607956"
       y1="39.8445053"
       x2="37.3197212"
       y2="68.6665039" />
    <linearGradient
       inkscape:collect="always"
       xlink:href="#linearGradient718"
       id="linearGradient2566"
       gradientUnits="userSpaceOnUse"
       gradientTransform="scale(1.033999,0.967119)"
       spreadMethod="pad"
       x1="45.4330635"
       y1="41.9262352"
       x2="24.0375099"
       y2="27.2048512" />
    <linearGradient
       inkscape:collect="always"
       xlink:href="#linearGradient724"
       id="linearGradient2568"
       gradientUnits="userSpaceOnUse"
       gradientTransform="scale(1.185464,0.843551)"
       spreadMethod="pad"
       x1="40.2607956"
       y1="39.8445053"
       x2="37.3197212"
       y2="68.6665039" />
    <linearGradient
       inkscape:collect="always"
       xlink:href="#linearGradient718"
       id="linearGradient2654"
       gradientUnits="userSpaceOnUse"
       gradientTransform="scale(1.033999,0.967119)"
       spreadMethod="pad"
       x1="45.4330635"
       y1="41.9262352"
       x2="24.0375099"
       y2="27.2048512" />
    <linearGradient
       inkscape:collect="always"
       xlink:href="#linearGradient724"
       id="linearGradient2656"
       gradientUnits="userSpaceOnUse"
       gradientTransform="scale(1.185464,0.843551)"
       spreadMethod="pad"
       x1="40.2607956"
       y1="39.8445053"
       x2="37.3197212"
       y2="68.6665039" />
    <radialGradient
       inkscape:collect="always"
       xlink:href="#linearGradient734"
       id="radialGradient2337"
       gradientUnits="userSpaceOnUse"
       gradientTransform="scale(1.559286,0.641319)"
       spreadMethod="pad"
       cx="33.2134209"
       cy="118.190964"
       fx="33.2134209"
       fy="118.190964"
       r="14.8945398" />
    <linearGradient
       inkscape:collect="always"
       xlink:href="#linearGradient718"
       id="linearGradient2339"
       gradientUnits="userSpaceOnUse"
       gradientTransform="matrix(0.5521588,0,0,0.5164446,-1.1028713,34.362747)"
       spreadMethod="pad"
       x1="45.4330635"
       y1="41.9262352"
       x2="24.0375099"
       y2="27.2048512" />
    <linearGradient
       inkscape:collect="always"
       xlink:href="#linearGradient724"
       id="linearGradient2341"
       gradientUnits="userSpaceOnUse"
       gradientTransform="matrix(0.6330416,0,0,0.4504589,-1.1028713,34.362747)"
       spreadMethod="pad"
       x1="40.2607956"
       y1="39.8445053"
       x2="37.3197212"
       y2="68.6665039" />
    <radialGradient
       inkscape:collect="always"
       xlink:href="#linearGradient734"
       id="radialGradient2343"
       gradientUnits="userSpaceOnUse"
       gradientTransform="scale(1.559286,0.641319)"
       spreadMethod="pad"
       cx="33.2134209"
       cy="118.190964"
       fx="33.2134209"
       fy="118.190964"
       r="14.8945398" />
    <linearGradient
       inkscape:collect="always"
       xlink:href="#linearGradient718"
       id="linearGradient2345"
       gradientUnits="userSpaceOnUse"
       gradientTransform="matrix(0.5521588,0,0,0.5164446,-1.1028713,34.362747)"
       spreadMethod="pad"
       x1="45.4330635"
       y1="41.9262352"
       x2="24.0375099"
       y2="27.2048512" />
    <linearGradient
       inkscape:collect="always"
       xlink:href="#linearGradient724"
       id="linearGradient2347"
       gradientUnits="userSpaceOnUse"
       gradientTransform="matrix(0.6330416,0,0,0.4504589,-1.1028713,34.362747)"
       spreadMethod="pad"
       x1="40.2607956"
       y1="39.8445053"
       x2="37.3197212"
       y2="68.6665039" />
    <linearGradient
       inkscape:collect="always"
       xlink:href="#linearGradient724"
       id="linearGradient2357"
       gradientUnits="userSpaceOnUse"
       gradientTransform="matrix(0.6330416,0,0,0.4504589,-1.1028713,34.362747)"
       spreadMethod="pad"
       x1="40.2607956"
       y1="39.8445053"
       x2="37.3197212"
       y2="68.6665039" />
    <linearGradient
       inkscape:collect="always"
       xlink:href="#linearGradient718"
       id="linearGradient2363"
       gradientUnits="userSpaceOnUse"
       gradientTransform="matrix(0.5521588,0,0,0.5164446,-1.1028713,34.362747)"
       spreadMethod="pad"
       x1="45.4330635"
       y1="41.9262352"
       x2="24.0375099"
       y2="27.2048512" />
    <linearGradient
       inkscape:collect="always"
       xlink:href="#linearGradient724"
       id="linearGradient2377"
       gradientUnits="userSpaceOnUse"
       gradientTransform="matrix(0.6330416,0,0,0.4504589,-1.1028713,34.362747)"
       spreadMethod="pad"
       x1="40.2607956"
       y1="39.8445053"
       x2="37.3197212"
       y2="68.6665039" />
    <linearGradient
       inkscape:collect="always"
       xlink:href="#linearGradient718"
       id="linearGradient2383"
       gradientUnits="userSpaceOnUse"
       gradientTransform="matrix(0.5521588,0,0,0.5164446,-1.1028713,34.362747)"
       spreadMethod="pad"
       x1="45.4330635"
       y1="41.9262352"
       x2="24.0375099"
       y2="27.2048512" />
    <linearGradient
       inkscape:collect="always"
       xlink:href="#linearGradient604"
       id="linearGradient2805"
       gradientUnits="userSpaceOnUse"
       gradientTransform="scale(0.994399,1.005632)"
       spreadMethod="pad"
       x1="61.0468903"
       y1="28.6572132"
       x2="79.6281509"
       y2="14.1547699" />
  </defs>
  <sodipodi:namedview
     id="base"
     inkscape:zoom="4.5222222"
     inkscape:cx="48.238389"
     inkscape:cy="36.209995"
     inkscape:window-width="795"
     inkscape:window-height="724"
     inkscape:window-x="128"
     inkscape:window-y="9"
     inkscape:current-layer="svg704"
     showgrid="false" />
  <g
     id="g692"
     transform="matrix(-0.9353851,0,0,0.9353864,83.254054,4.582869)">
    <defs
       id="defs573">
      <linearGradient
         id="linearGradient2781">
        <stop
           offset="0.000000"
           style="stop-color:#666565;stop-opacity:1;"
           id="stop2783" />
        <stop
           offset="1.000000"
           style="stop-color:#ffffff;stop-opacity:1;"
           id="stop2785" />
      </linearGradient>
      <linearGradient
         id="linearGradient600">
        <stop
           style="stop-color:#000;stop-opacity:1;"
           offset="0"
           id="stop601" />
        <stop
           style="stop-color:#fff;stop-opacity:1;"
           offset="1"
           id="stop602" />
      </linearGradient>
      <linearGradient
         xlink:href="#linearGradient604"
         id="linearGradient2790"
         x1="61.04689"
         y1="28.657213"
         x2="79.628151"
         y2="14.15477"
         gradientUnits="userSpaceOnUse"
         spreadMethod="pad"
         gradientTransform="scale(0.994399,1.005632)" />
    </defs>
    <sodipodi:namedview
       id="namedview701" />
    <path
       style="fill:#000000;fill-opacity:0.30275197;fill-rule:evenodd;stroke:none"
       d="M 1.25,73.9062 31.7187,41.8749 c 3.6459,-0.9896 6.5105,-1.9792 7.9689,-0.1562 L 53.5938,27.9686 54.0626,15.6249 73.5938,3.12489 86.4064,16.0937 c -0.625,1.4062 -11.4063,19.9999 -12.1876,21.0937 -0.9375,-0.1562 -9.375,0.4688 -10.9375,0.4688 -1.25,-0.3125 -12.0312,11.5625 -12.6562,12.8125 1.4583,1.6667 1.3542,4.7396 0.4687,6.875 L 20.1562,89.6875 C 10.3646,93.3333 -0.208344,88.2291 1.25,73.9062 z"
       id="path613"
       sodipodi:nodetypes="ccccccccccccc"
       transform="matrix(0.949606,0,0,0.949606,3.089142,0.15748)" />
    <path
       style="fill:#000000;fill-opacity:1;fill-rule:evenodd;stroke:none"
       d="M 1.25,73.9062 31.7187,41.8749 c 3.6459,-0.9896 6.5105,-1.9792 7.9689,-0.1562 L 53.5938,27.9686 54.0626,15.6249 73.5938,3.12489 86.4064,16.0937 c -0.625,1.4062 -11.4063,19.9999 -12.1876,21.0937 -0.9375,-0.1562 -9.375,0.4688 -10.9375,0.4688 -1.25,-0.3125 -12.0312,11.5625 -12.6562,12.8125 1.4583,1.6667 1.3542,4.7396 0.4687,6.875 L 20.1562,89.6875 C 10.3646,93.3333 -0.208344,88.2291 1.25,73.9062 z"
       id="path612"
       sodipodi:nodetypes="ccccccccccccc"
       transform="matrix(0.949606,0,0,0.949606,-4.456341e-3,-2.494173)" />
    <path
       sodipodi:type="arc"
       style="fill:#ff933d;fill-opacity:1;fill-rule:evenodd;stroke:none"
       id="path596"
       d="m 22.980988,78.619995 a 7.1815591,6.2976718 0 1 1 -14.363118,0 7.1815591,6.2976718 0 1 1 14.363118,0 z"
       sodipodi:cx="15.799429"
       sodipodi:cy="78.619995"
       sodipodi:rx="7.1815591"
       sodipodi:ry="6.2976718"
       transform="matrix(0.877883,0.215653,2.038332e-2,0.922358,-3.265319,-3.362741)" />
    <path
       style="fill:#c2c2c2;fill-opacity:1;fill-rule:evenodd;stroke:none"
       d="m 39.5538,47.3526 c -0.2209,0 18.1197,-17.8987 18.1197,-17.8987 L 58.1154,18.6263 72.6995,8.46167 81.5384,17.0796 71.5946,33.2104 61.6509,32.7685 43.7523,51.772 z"
       id="path598"
       sodipodi:nodetypes="ccccccccc"
       transform="matrix(0.949606,0,0,0.949606,-4.456341e-3,-2.494173)" />
    <path
       style="fill:#ffffff;fill-opacity:0.98165134;fill-rule:evenodd;stroke:none"
       d="m 41.7635,47.5735 c 0.663,-0.4419 16.5729,-16.7938 16.5729,-16.7938 l 1.1048,1.5468 -16.1309,16.5729 z"
       id="path607"
       transform="matrix(0.949606,0,0,0.949606,-4.456341e-3,-2.494173)" />
    <path
       style="fill:#e32116;fill-opacity:1;fill-rule:evenodd;stroke:none"
       d="m 29.6875,50.3125 c 0,0.1562 4.0625,-4.0625 5.3125,-4.8437 5,-2.3438 10.9375,4.3749 11.4063,8.9062 -0.9375,0.7812 -5,5.7812 -5,5.7812 -2.5,-6.25 -5.7813,-8.9062 -11.7188,-9.8437 z"
       id="path597"
       sodipodi:nodetypes="ccccc"
       transform="matrix(0.949606,0,0,0.949606,-4.456341e-3,-2.494173)" />
    <path
       style="fill:#ffc93f;fill-opacity:1;fill-rule:evenodd;stroke:none"
       d="M 8.61787,72.7643 C 15.6889,72.5433 19.2245,79.3934 18.7825,83.8128 21.4342,80.7192 41.5426,59.9479 41.5426,59.9479 41.6899,53.0242 35.65,48.0892 29.3891,50.4462 z"
       id="path575"
       sodipodi:nodetypes="ccccc"
       transform="matrix(0.949606,0,0,0.949606,-4.456341e-3,-2.494173)" />
    <path
       style="fill:#b01911;fill-opacity:1;fill-rule:evenodd;stroke:none"
       d="m 37.7529,51.3069 c 4.9719,-2.6059 2.2948,-2.8472 3.5448,-3.6284 0.2491,-2.3438 4.6398,2.1652 5.1086,6.6965 -0.9375,0.7812 -5,5.7812 -5,5.7812 -2.5,-6.25 -1.9143,-6.6965 -3.6534,-8.8493 z"
       id="path610"
       sodipodi:nodetypes="ccccc"
       transform="matrix(0.949606,0,0,0.949606,-4.456341e-3,-2.494173)" />
    <path
       style="fill:url(#linearGradient2805);fill-opacity:1;fill-rule:evenodd;stroke:none"
       d="m 60.1041,19.9522 9.9437,10.3856 c 0,0 9.5018,-13.4792 9.2808,-13.4792 -0.2209,0 -6.6291,-5.9663 -6.6291,-5.9663 z"
       id="path599"
       transform="matrix(0.949606,0,0,0.949606,-4.456341e-3,-2.494173)" />
    <path
       style="fill:#ff933d;fill-opacity:1;fill-rule:evenodd;stroke:none"
       d="m 13.9212,76.0789 c 3.5355,1.5467 5.3033,3.3145 4.8613,7.7339 2.6517,-3.0936 22.7601,-23.8649 22.7601,-23.8649 0.1473,-4.714 -2.799,-7.8813 -4.4195,-7.513 z"
       id="path608"
       sodipodi:nodetypes="ccccc"
       transform="matrix(0.949606,0,0,0.949606,-4.456341e-3,-2.494173)" />
    <path
       style="fill:#ffffff;fill-opacity:1;fill-rule:evenodd;stroke:none"
       d="M 31.3779,50.8881 11.9324,70.7755 15.468,72.7643 15.6889,70.1126 32.9247,51.772 z"
       id="path609"
       transform="matrix(0.949606,0,0,0.949606,-4.456341e-3,-2.494173)" />
    <path
       style="fill:#ffffff;fill-opacity:1;fill-rule:evenodd;stroke:none"
       d="m 36.5707,46.2477 -3.7565,2.7622 c 0,0 2.0992,0.6629 2.2097,0.5524 0.1105,-0.1105 3.5356,-3.3146 3.5356,-3.3146 0,0 -2.2097,0.3315 -1.9888,0 z"
       id="path611"
       transform="matrix(0.949606,0,0,0.949606,-4.456341e-3,-2.494173)" />
  </g>
  <g
     id="g1350"
     transform="translate(-5.678229,-4.258671)">
    <path
       style="fill:none;fill-rule:evenodd;stroke:#818181;stroke-opacity:1;stroke-width:3.375;stroke-linejoin:miter;stroke-linecap:butt;fill-opacity:1;stroke-dasharray:none;"
       d="M 77.5079 41.1672 C 85.1735 45.4259 88.0125 71.2177 68.9905 68.1388 C 47.0476 64.6331 57.918 87.1609 34.3533 78.0757 "
       id="path1347"
       sodipodi:nodetypes="css"
       transform="translate(3.974767,3.974762)" />
    <path
       style="fill:none;fill-rule:evenodd;stroke:#565656;stroke-opacity:1;stroke-width:1.125;stroke-linejoin:miter;stroke-linecap:butt;fill-opacity:1;stroke-dasharray:none;"
       d="M 77.7918 38.8959 C 85.4574 43.1546 88.0125 71.2177 68.9905 68.1388 C 47.0476 64.6331 57.918 87.1609 34.3533 78.0757 "
       id="path1348"
       sodipodi:nodetypes="css"
       transform="translate(5.110407,5.394316)" />
    <path
       style="fill:none;fill-rule:evenodd;stroke:#d7d7d7;stroke-opacity:1;stroke-width:0.875;stroke-linejoin:miter;stroke-linecap:butt;fill-opacity:1;stroke-dasharray:none;"
       d="M 77.5079 41.1672 C 85.1735 45.4259 88.0125 71.2177 68.9905 68.1388 C 47.0476 64.6331 57.918 87.1609 34.3533 78.0757 "
       id="path1349"
       sodipodi:nodetypes="css"
       transform="translate(3.974767,3.974762)" />
  </g>
  <use
     x="0"
     y="0"
     xlink:href="#g2400"
     id="use2469"
     transform="matrix(-1,0,0,1,89.309255,-32.288889)"
     width="90"
     height="90" />
  <g
     id="g2400">
    <path
       style="font-size:12px;fill:#000000;fill-opacity:0.3;fill-rule:evenodd;stroke-width:1pt"
       d="M 38.653045,80.261352 C 38.296978,84.033646 31.697076,86.266442 23.921115,85.245315 C 16.145155,84.224187 10.12321,80.333908 10.479277,76.561614 C 10.835344,72.78932 17.435246,70.556524 25.211207,71.577651 C 32.987167,72.598779 39.009112,76.489057 38.653045,80.261352 z "
       id="path744" />
    <path
       style="fill:#000000;fill-opacity:0.3;fill-rule:evenodd;stroke:none;stroke-width:1pt;stroke-linecap:butt;stroke-linejoin:miter;stroke-opacity:1"
       d="M 7.2799973,67.655904 C 6.2555371,66.193417 1.2863779,54.180569 5.5463895,36.765222 C 23.066049,33.170431 38.249476,39.870946 46.132046,44.909714 C 47.74058,48.24725 44.994032,73.320347 39.111645,75.777164 C 35.166875,77.063529 14.525148,76.708925 7.2799973,67.655904 z "
       id="path743"
       sodipodi:nodetypes="ccccc" />
    <path
       style="font-size:12px;fill:#211301;fill-rule:evenodd;stroke-width:1pt"
       d="M 36.544721,79.322447 C 36.215282,82.698136 30.108995,84.696181 22.914612,83.782407 C 15.720228,82.868632 10.148676,79.387359 10.478115,76.011669 C 10.807553,72.63598 16.91384,70.637935 24.108224,71.551709 C 31.302607,72.465484 36.874159,75.946757 36.544721,79.322447 z "
       id="path739" />
    <path
       sodipodi:type="arc"
       style="fill:url(#radialGradient2558);fill-opacity:1;fill-rule:evenodd;stroke:none;stroke-width:1pt;stroke-linecap:butt;stroke-linejoin:miter;stroke-opacity:1"
       id="path731"
       d="M 67.656265 79.6875 A 19.375004 7.9687538 0 1 1  28.906258,79.6875 A 19.375004 7.9687538 0 1 1  67.656265 79.6875 z"
       sodipodi:cx="48.281261"
       sodipodi:cy="79.6875"
       sodipodi:rx="19.375004"
       sodipodi:ry="7.9687538"
       transform="matrix(0.5565352,6.7525836e-2,-6.1961585e-2,0.6065106,1.578691,25.366342)" />
    <path
       style="font-size:12px;fill:#211301;fill-opacity:1;fill-rule:evenodd;stroke-width:1pt"
       d="M 31.981202,75.807991 C 31.741233,77.627842 28.107106,78.79758 23.869264,78.41901 C 19.631483,78.040445 16.386869,76.256223 16.626838,74.436373 C 16.866806,72.616522 20.500934,71.446784 24.738714,71.825349 C 28.976556,72.203919 32.22117,73.988141 31.981202,75.807991 z "
       id="path730" />
    <path
       style="font-size:12px;fill:#bebdae;fill-opacity:1;fill-rule:evenodd;stroke-width:1pt"
       d="M 30.98158,75.251388 C 30.772857,76.701134 27.611917,77.632981 23.925871,77.3314 C 20.239879,77.029825 17.417737,75.608462 17.62646,74.158716 C 17.835184,72.708971 20.996124,71.777124 24.682116,72.078699 C 28.368162,72.380279 31.190304,73.801643 30.98158,75.251388 z "
       id="path728" />
    <path
       style="fill:url(#linearGradient2383);fill-opacity:1;fill-rule:evenodd;stroke:none;stroke-width:1pt;stroke-linecap:butt;stroke-linejoin:miter;stroke-opacity:1"
       d="M 7.1575174,66.820102 C 6.323084,65.234807 1.6505827,56.306914 4.8212534,39.118702 C 22.760397,35.86462 34.692004,42.789958 42.118013,46.961858 C 42.952393,49.96568 40.198912,72.493886 35.69326,73.828894 C 31.855112,75.080491 12.664372,74.329522 7.1575174,66.820102 z "
       id="path713"
       sodipodi:nodetypes="ccccc" />
    <path
       style="fill:#b5a794;fill-opacity:1;fill-rule:evenodd;stroke:none;stroke-width:1pt;stroke-linecap:butt;stroke-linejoin:miter;stroke-opacity:1"
       d="M 9.0765647,44.542183 L 7.7415567,44.959346 C 7.5746807,46.210943 5.4887574,56.390379 7.4912694,60.896031 C 9.8275334,64.81759 10.912201,65.568559 10.661913,65.151342 C 7.824968,60.395403 6.9071767,53.13627 9.0765647,44.542183 z "
       id="path717"
       sodipodi:nodetypes="ccccc" />
    <path
       style="fill:#000000;fill-opacity:1;fill-rule:evenodd;stroke:none;stroke-width:1pt;stroke-linecap:butt;stroke-linejoin:miter;stroke-opacity:1"
       d="M 8.9541572,44.340833 C 8.9541572,44.340833 5.5803132,56.625242 9.9057898,64.065006 C 13.193152,68.650039 23.833797,72.283439 32.571287,69.688153 C 34.214996,67.611924 37.934823,56.365685 34.474497,50.136999 C 33.176826,47.974233 17.518629,41.313027 8.9541572,44.340833 z "
       id="path711"
       sodipodi:nodetypes="ccccc" />
    <path
       style="fill:#437caf;fill-opacity:1;fill-rule:evenodd;stroke:none;stroke-width:1pt;stroke-linecap:butt;stroke-linejoin:miter;stroke-opacity:1"
       d="M 9.4103167,44.79247 C 9.4103167,44.79247 6.1562614,56.64072 10.328161,63.816334 C 13.498805,68.238575 23.761653,71.742971 32.188917,69.239831 C 33.774266,67.237319 37.36202,56.390379 34.024553,50.382843 C 32.772957,48.296866 17.670705,41.872167 9.4103167,44.79247 z "
       id="path710"
       sodipodi:nodetypes="ccccc" />
    <path
       style="fill:url(#linearGradient2377);fill-opacity:1;fill-rule:evenodd;stroke:none;stroke-width:1pt;stroke-linecap:butt;stroke-linejoin:miter;stroke-opacity:1"
       d="M 8.3256494,56.724131 C 8.3256494,56.724131 15.250977,47.29561 21.842552,53.303146 C 24.512621,62.230986 34.274841,64.316962 34.274841,64.316962 L 32.355793,69.072955 C 25.096661,71.65956 11.162541,66.319474 10.495037,64.316962 C 9.8275334,62.31445 10.328161,65.401683 8.3256494,56.724131 z "
       id="path722"
       sodipodi:nodetypes="cccccc" />
    <path
       style="fill:#000000;fill-opacity:1;fill-rule:evenodd;stroke:none;stroke-width:1pt;stroke-linecap:butt;stroke-linejoin:miter;stroke-opacity:1"
       d="M 11.746588,60.968852 L 11.668539,65.256477 C 14.971089,69.492941 25.107429,71.468548 28.183848,70.069013 C 28.095055,69.358388 28.006206,67.77041 27.839307,67.102931 C 25.669915,66.602293 15.544319,65.121924 11.746588,60.968852 z "
       id="path709"
       sodipodi:nodetypes="ccccc" />
    <path
       style="fill:#b5a794;fill-opacity:1;fill-rule:evenodd;stroke:none;stroke-width:1pt;stroke-linecap:butt;stroke-linejoin:miter;stroke-opacity:1"
       d="M 42.284889,47.128734 C 42.284889,47.128734 39.531461,47.212199 39.44805,47.212199 C 39.364532,47.212199 39.865213,54.304402 39.531461,56.891007 C 39.197709,59.477558 38.363329,65.568559 37.862701,67.153854 C 37.362073,68.739203 34.441717,73.828894 34.191429,74.162646 C 33.941089,74.496398 34.858933,74.079182 36.277353,73.662018 C 40.115501,69.239778 42.034601,58.643232 42.284889,47.128734 z "
       id="path716"
       sodipodi:nodetypes="ccccccc" />
    <path
       style="fill:#c7bda8;fill-opacity:1;fill-rule:evenodd;stroke:none;stroke-width:1pt;stroke-linecap:butt;stroke-linejoin:miter;stroke-opacity:1"
       d="M 12.080333,61.813855 L 12.163798,64.901034 C 15.501318,68.488842 25.180126,70.65823 27.599801,69.657027 C 27.51639,68.98947 27.432925,67.654515 27.432925,67.654515 C 27.432925,67.654515 15.334389,65.401662 12.080333,61.813855 z "
       id="path708"
       sodipodi:nodetypes="ccccc" />
    <path
       style="fill:#211301;fill-opacity:1;fill-rule:evenodd;stroke:none;stroke-width:1pt;stroke-linecap:butt;stroke-linejoin:miter;stroke-opacity:1"
       d="M 34.024553,73.99577 C 34.024553,73.99577 40.532717,68.906079 38.863957,47.545951 C 37.445485,46.127478 35.276097,44.542183 35.276097,44.542183 C 35.276097,44.542183 39.447997,46.544695 39.698337,47.212199 C 40.115501,48.12999 40.365788,70.241087 34.024553,73.99577 z "
       id="path712"
       sodipodi:nodetypes="ccccc" />
    <path
       style="fill:#fbfbfb;fill-opacity:1;fill-rule:evenodd;stroke:none;stroke-width:1pt;stroke-linecap:butt;stroke-linejoin:miter;stroke-opacity:1"
       d="M 13.081589,76.332034 L 13.832557,75.747995 C 16.502573,80.420523 27.432925,80.921151 28.267305,80.754275 C 29.101685,80.587399 19.00566,83.758043 13.081589,76.332034 z "
       id="path740"
       sodipodi:nodetypes="cccc" />
    <path
       style="fill:none;fill-opacity:1;fill-rule:evenodd;stroke:#000000;stroke-width:0.46725279;stroke-linecap:round;stroke-linejoin:round;stroke-dasharray:none;stroke-opacity:1"
       d="M 13.582217,63.482582 C 13.582217,62.648202 13.582217,65.985776 13.582217,65.985776"
       id="path741"
       sodipodi:nodetypes="cc" />
    <path
       style="fill:none;fill-opacity:1;fill-rule:evenodd;stroke:#000000;stroke-width:0.46725279;stroke-linecap:round;stroke-linejoin:round;stroke-dasharray:none;stroke-opacity:1"
       d="M 24.262274,67.237294 C 24.262274,66.402914 24.262274,69.740488 24.262274,69.740488"
       id="path742"
       sodipodi:nodetypes="cc" />
    <path
       style="fill:#211301;fill-opacity:1;fill-rule:evenodd;stroke:none;stroke-width:1pt;stroke-linecap:butt;stroke-linejoin:miter;stroke-opacity:1"
       d="M 4.7983313,67.779984 C 3.7738711,66.317497 -1.1952881,54.304649 3.0647235,36.889302 C 20.584383,33.294511 35.76781,39.995026 43.65038,45.033794 C 45.258914,48.37133 42.512366,73.444427 36.629979,75.901244 C 32.685209,77.187609 12.043482,76.833005 4.7983313,67.779984 z "
       id="path715"
       sodipodi:nodetypes="ccccc" />
    <path
       style="fill:url(#linearGradient2363);fill-opacity:1;fill-rule:evenodd;stroke:none;stroke-width:1pt;stroke-linecap:butt;stroke-linejoin:miter;stroke-opacity:1"
       d="M 7.1575174,66.820102 C 6.323084,65.234807 1.6505827,56.306914 4.8212534,39.118702 C 22.760397,35.86462 34.692004,42.789958 42.118013,46.961858 C 42.952393,49.96568 40.198912,72.493886 35.69326,73.828894 C 31.855112,75.080491 12.664372,74.329522 7.1575174,66.820102 z "
       id="path1250"
       sodipodi:nodetypes="ccccc" />
    <path
       style="fill:#b5a794;fill-opacity:1;fill-rule:evenodd;stroke:none;stroke-width:1pt;stroke-linecap:butt;stroke-linejoin:miter;stroke-opacity:1"
       d="M 9.0765647,44.542183 L 7.7415567,44.959346 C 7.5746807,46.210943 5.4887574,56.390379 7.4912694,60.896031 C 9.8275334,64.81759 10.912201,65.568559 10.661913,65.151342 C 7.824968,60.395403 6.9071767,53.13627 9.0765647,44.542183 z "
       id="path1251"
       sodipodi:nodetypes="ccccc" />
    <path
       style="fill:#000000;fill-opacity:1;fill-rule:evenodd;stroke:none;stroke-width:1pt;stroke-linecap:butt;stroke-linejoin:miter;stroke-opacity:1"
       d="M 8.9541572,44.340833 C 8.9541572,44.340833 5.5803132,56.625242 9.9057898,64.065006 C 13.193152,68.650039 23.833797,72.283439 32.571287,69.688153 C 34.214996,67.611924 37.934823,56.365685 34.474497,50.136999 C 33.176826,47.974233 17.518629,41.313027 8.9541572,44.340833 z "
       id="path1252"
       sodipodi:nodetypes="ccccc" />
    <path
       style="fill:#437caf;fill-opacity:1;fill-rule:evenodd;stroke:none;stroke-width:1pt;stroke-linecap:butt;stroke-linejoin:miter;stroke-opacity:1"
       d="M 9.4103167,44.79247 C 9.4103167,44.79247 6.1562614,56.64072 10.328161,63.816334 C 13.498805,68.238575 23.761653,71.742971 32.188917,69.239831 C 33.774266,67.237319 37.36202,56.390379 34.024553,50.382843 C 32.772957,48.296866 17.670705,41.872167 9.4103167,44.79247 z "
       id="path1253"
       sodipodi:nodetypes="ccccc" />
    <path
       style="fill:url(#linearGradient2357);fill-opacity:1;fill-rule:evenodd;stroke:none;stroke-width:1pt;stroke-linecap:butt;stroke-linejoin:miter;stroke-opacity:1"
       d="M 8.3256494,56.724131 C 8.3256494,56.724131 15.250977,47.29561 21.842552,53.303146 C 24.512621,62.230986 34.274841,64.316962 34.274841,64.316962 L 32.355793,69.072955 C 25.096661,71.65956 11.162541,66.319474 10.495037,64.316962 C 9.8275334,62.31445 10.328161,65.401683 8.3256494,56.724131 z "
       id="path1254"
       sodipodi:nodetypes="cccccc" />
    <path
       style="fill:#000000;fill-opacity:1;fill-rule:evenodd;stroke:none;stroke-width:1pt;stroke-linecap:butt;stroke-linejoin:miter;stroke-opacity:1"
       d="M 11.746588,60.968852 L 11.668539,65.256477 C 14.971089,69.492941 25.107429,71.468548 28.183848,70.069013 C 28.095055,69.358388 28.006206,67.77041 27.839307,67.102931 C 25.669915,66.602293 15.544319,65.121924 11.746588,60.968852 z "
       id="path1255"
       sodipodi:nodetypes="ccccc" />
    <path
       style="fill:#b5a794;fill-opacity:1;fill-rule:evenodd;stroke:none;stroke-width:1pt;stroke-linecap:butt;stroke-linejoin:miter;stroke-opacity:1"
       d="M 42.284889,47.128734 C 42.284889,47.128734 39.531461,47.212199 39.44805,47.212199 C 39.364532,47.212199 39.865213,54.304402 39.531461,56.891007 C 39.197709,59.477558 38.363329,65.568559 37.862701,67.153854 C 37.362073,68.739203 34.441717,73.828894 34.191429,74.162646 C 33.941089,74.496398 34.858933,74.079182 36.277353,73.662018 C 40.115501,69.239778 42.034601,58.643232 42.284889,47.128734 z "
       id="path1256"
       sodipodi:nodetypes="ccccccc" />
    <path
       style="fill:#211301;fill-opacity:1;fill-rule:evenodd;stroke:none;stroke-width:1pt;stroke-linecap:butt;stroke-linejoin:miter;stroke-opacity:1"
       d="M 34.024553,73.99577 C 34.024553,73.99577 40.532717,68.906079 38.863957,47.545951 C 37.445485,46.127478 35.276097,44.542183 35.276097,44.542183 C 35.276097,44.542183 39.447997,46.544695 39.698337,47.212199 C 40.115501,48.12999 40.365788,70.241087 34.024553,73.99577 z "
       id="path1258"
       sodipodi:nodetypes="ccccc" />
    <path
       style="fill:#c7bda8;fill-opacity:1;fill-rule:evenodd;stroke:none;stroke-width:1pt;stroke-linecap:butt;stroke-linejoin:miter;stroke-opacity:1"
       d="M 12.080333,61.813855 L 12.163798,64.901034 C 15.501318,68.488842 25.180126,70.65823 27.599801,69.657027 C 27.51639,68.98947 27.432925,67.654515 27.432925,67.654515 C 27.432925,67.654515 15.334389,65.401662 12.080333,61.813855 z "
       id="path1257"
       sodipodi:nodetypes="ccccc" />
    <path
       style="fill:none;fill-opacity:1;fill-rule:evenodd;stroke:#000000;stroke-width:0.46725279;stroke-linecap:round;stroke-linejoin:round;stroke-dasharray:none;stroke-opacity:1"
       d="M 13.582217,63.482582 C 13.582217,62.648202 13.582217,65.985776 13.582217,65.985776"
       id="path1260"
       sodipodi:nodetypes="cc" />
    <path
       style="fill:none;fill-opacity:1;fill-rule:evenodd;stroke:#000000;stroke-width:0.46725279;stroke-linecap:round;stroke-linejoin:round;stroke-dasharray:none;stroke-opacity:1"
       d="M 24.262274,67.237294 C 24.262274,66.402914 24.262274,69.740488 24.262274,69.740488"
       id="path1261"
       sodipodi:nodetypes="cc" />
  </g>
</svg>
