<?xml version="1.0" encoding="UTF-8" standalone="no"?>
<!-- Created with Sodipodi ("http://www.sodipodi.com/") -->
<svg
   xmlns:dc="http://purl.org/dc/elements/1.1/"
   xmlns:cc="http://creativecommons.org/ns#"
   xmlns:rdf="http://www.w3.org/1999/02/22-rdf-syntax-ns#"
   xmlns:svg="http://www.w3.org/2000/svg"
   xmlns="http://www.w3.org/2000/svg"
   xmlns:xlink="http://www.w3.org/1999/xlink"
   xmlns:sodipodi="http://sodipodi.sourceforge.net/DTD/sodipodi-0.dtd"
   xmlns:inkscape="http://www.inkscape.org/namespaces/inkscape"
   id="svg604"
   sodipodi:version="0.32"
   width="90"
   height="90"
   sodipodi:docbase="/home/tweenk/GNUtoon/apps"
   sodipodi:docname="filter-note-all.svg"
   inkscape:version="0.46+devel"
   inkscape:output_extension="org.inkscape.output.svg.inkscape"
   version="1.0">
  <metadata
     id="metadata39">
    <rdf:RDF>
      <cc:Work
         rdf:about="">
        <dc:format>image/svg+xml</dc:format>
        <dc:type
           rdf:resource="http://purl.org/dc/dcmitype/StillImage" />
      </cc:Work>
    </rdf:RDF>
  </metadata>
  <defs
     id="defs606">
    <inkscape:perspective
       sodipodi:type="inkscape:persp3d"
       inkscape:vp_x="0 : 45 : 1"
       inkscape:vp_y="0 : 1000 : 0"
       inkscape:vp_z="90 : 45 : 1"
       inkscape:persp3d-origin="45 : 30 : 1"
       id="perspective33" />
    <linearGradient
       id="linearGradient6184">
      <stop
         id="stop6186"
         offset="0.000000"
         style="stop-color:#593a28;stop-opacity:1" />
      <stop
         id="stop6188"
         offset="1.000000"
         style="stop-color:#ff933d;stop-opacity:0" />
    </linearGradient>
    <linearGradient
       id="linearGradient4218">
      <stop
         id="stop4220"
         offset="0"
         style="stop-color:#b01911;stop-opacity:1" />
      <stop
         id="stop4222"
         offset="1"
         style="stop-color:#ffc93f;stop-opacity:1" />
    </linearGradient>
    <linearGradient
       id="linearGradient3233">
      <stop
         style="stop-color:#b01911;stop-opacity:1"
         offset="0"
         id="stop3235" />
      <stop
         style="stop-color:#ffc93f;stop-opacity:1"
         offset="1"
         id="stop3237" />
    </linearGradient>
    <linearGradient
       id="linearGradient3217">
      <stop
         style="stop-color:#ffe6ba;stop-opacity:1"
         offset="0"
         id="stop3219" />
      <stop
         style="stop-color:#ffc93f;stop-opacity:1"
         offset="1"
         id="stop3221" />
    </linearGradient>
    <linearGradient
       inkscape:collect="always"
       xlink:href="#linearGradient619"
       id="linearGradient1095"
       gradientUnits="userSpaceOnUse"
       gradientTransform="scale(1.004516,0.995504)"
       spreadMethod="pad"
       x1="66.331696"
       y1="23.212469"
       x2="63.465496"
       y2="20.962799" />
    <linearGradient
       inkscape:collect="always"
       xlink:href="#linearGradient626"
       id="linearGradient1096"
       gradientUnits="userSpaceOnUse"
       gradientTransform="scale(0.912664,1.095694)"
       spreadMethod="pad"
       x1="56.327614"
       y1="43.377247"
       x2="51.654526"
       y2="39.762909" />
    <linearGradient
       inkscape:collect="always"
       xlink:href="#linearGradient3217"
       id="linearGradient3223"
       x1="10.446366"
       y1="7.4949131"
       x2="17.217117"
       y2="16.213354"
       gradientUnits="userSpaceOnUse"
       gradientTransform="matrix(2.821578,5.4962751e-2,-5.4962751e-2,2.821578,5.1121527,-0.2645439)" />
    <linearGradient
       inkscape:collect="always"
       xlink:href="#linearGradient3217"
       id="linearGradient3231"
       x1="4.0171032"
       y1="12.270078"
       x2="5.4030128"
       y2="23.278341"
       gradientUnits="userSpaceOnUse"
       gradientTransform="matrix(2.821578,5.4962751e-2,-5.4962751e-2,2.821578,5.1121527,-0.2645439)" />
    <linearGradient
       inkscape:collect="always"
       xlink:href="#linearGradient3233"
       id="linearGradient3239"
       x1="16.898888"
       y1="16.441101"
       x2="27.8909"
       y2="22.496422"
       gradientUnits="userSpaceOnUse"
       gradientTransform="matrix(2.821578,5.4962751e-2,-5.4962751e-2,2.821578,5.1121527,-0.2645439)" />
    <linearGradient
       inkscape:collect="always"
       xlink:href="#linearGradient4218"
       id="linearGradient4216"
       x1="25.096966"
       y1="19.736431"
       x2="22.915148"
       y2="17.301367"
       gradientUnits="userSpaceOnUse"
       gradientTransform="matrix(2.821578,5.4962751e-2,-5.4962751e-2,2.821578,5.1121527,-0.2645439)" />
    <linearGradient
       inkscape:collect="always"
       xlink:href="#linearGradient6184"
       id="linearGradient5212"
       gradientUnits="userSpaceOnUse"
       gradientTransform="matrix(2.821578,5.4962751e-2,-5.4962751e-2,2.821578,5.1121527,-0.2645439)"
       x1="25.653496"
       y1="20.317675"
       x2="18.965466"
       y2="15.304358" />
  </defs>
  <sodipodi:namedview
     id="base"
     inkscape:zoom="5.0416665"
     inkscape:cx="80.04916"
     inkscape:cy="48.591109"
     inkscape:window-width="1014"
     inkscape:window-height="724"
     inkscape:window-x="0"
     inkscape:window-y="1"
     inkscape:current-layer="svg604"
     width="90px"
     height="90px"
     showgrid="false" />
  <path
     sodipodi:nodetypes="cccccccc"
     id="path2441"
     d="M 20.172311,17.469713 C 18.607092,17.427475 17.06162,17.733124 15.698139,18.330143 11.088836,20.84121 8.2135014,19.509215 4.2213934,18.982972 2.1929044,30.47858 -1.9129831,66.793434 4.165849,79.883817 25.194462,83.801451 47.828191,82.956282 67.699819,80.804761 73.474782,79.794487 80.235991,78.019642 83.488611,70.80137 78.921413,53.148568 77.46398,36.29641 78.646203,14.817066 66.575703,19.122702 33.229454,18.958356 20.172311,17.469713 z"
     style="fill:#000000;fill-opacity:0.29411765;fill-rule:evenodd;stroke:none" />
  <path
     style="fill:#593a28;fill-opacity:1;fill-rule:evenodd;stroke:none"
     d="M 22.842073,13.311992 C 21.276536,13.340053 19.746342,13.714762 18.41103,14.37238 13.919084,17.087802 10.98686,15.886211 6.9751553,15.539681 5.4646883,27.114756 2.9929288,63.577301 9.6531933,76.381642 30.836456,79.351461 53.409441,77.491231 73.16447,74.449944 78.888264,73.181479 85.562998,71.104947 88.488349,63.747955 83.13341,46.317943 80.921037,29.548185 81.137969,8.0374233 69.272893,12.880505 35.952873,14.21307 22.842073,13.311992 z"
     id="path3206"
     sodipodi:nodetypes="cccccccc" />
  <path
     style="fill:url(#linearGradient3231);fill-opacity:1;fill-rule:evenodd;stroke:none"
     d="M 11.271583,20.641695 C 15.131152,21.337873 18.163777,20.170092 20.958761,18.372866 18.350332,38.86102 20.522771,50.8967 24.925064,67.317796 24.039464,68.477374 22.922022,69.349781 21.708477,69.993046 20.480998,68.266941 19.322176,62.525175 17.883053,51.763199 18.594051,62.117318 19.628113,65.865208 20.631122,70.496555 19.364848,71.015176 18.041103,71.318655 16.798356,71.46622 15.749504,66.011404 13.837209,60.120837 13.292042,43.293336 12.958827,54.080703 14.718241,66.48863 15.68552,71.559519 14.671364,71.609169 13.748257,71.557069 13.004043,71.440778 8.9049051,58.295328 9.7847772,34.086646 11.271583,20.641695 z"
     id="path2187"
     sodipodi:nodetypes="ccccccccccc" />
  <path
     style="fill:url(#linearGradient3223);fill-opacity:1;fill-rule:evenodd;stroke:none"
     d="M 22.865922,18.084062 C 38.285467,18.161066 60.114216,18.990155 76.559809,13.871977 76.388675,22.336556 76.447132,31.365715 78.298775,40.319333 77.177821,47.007667 70.217497,45.629774 64.162243,47.66768 66.207802,52.94891 67.080374,60.974958 62.308889,63.314879 52.640736,68.056109 28.048374,67.90963 26.982526,66.498381 22.678076,50.951989 21.056213,34.142256 22.865922,18.084062 z"
     id="path2189"
     sodipodi:nodetypes="ccccscc" />
  <path
     style="fill:#ffc93f;fill-opacity:1;fill-rule:evenodd;stroke:none"
     d="M 13.935178,72.547724 C 16.751912,72.66971 19.18445,72.122158 21.191893,71.328729 22.856864,71.418765 42.046253,70.974083 44.052642,71.066517 42.76225,70.821312 24.149551,71.110789 22.292287,70.85159 23.836151,70.121783 25.076589,69.276188 25.9896,68.56343 36.43088,70.536124 71.061397,67.399905 82.977114,63.549012 81.843673,65.840636 78.408011,67.543013 76.210033,68.588994 70.157649,71.873601 24.653856,74.253615 13.935178,72.547724 z"
     id="path2191"
     sodipodi:nodetypes="cccccccc" />
  <path
     style="fill:url(#linearGradient4216);fill-opacity:1;fill-rule:evenodd;stroke:none"
     d="M 65.028114,63.564824 C 70.427512,61.772155 76.94337,52.476719 78.406265,43.895575 75.335742,48.994867 70.222908,48.562555 67.576093,49.524211 68.342577,52.097011 70.286232,60.161294 65.028114,63.564824 z"
     id="path3164"
     sodipodi:nodetypes="cccc" />
  <path
     id="path3166"
     d="M 79.323962,46.628287 C 79.547756,52.104968 69.719015,64.673645 67.136292,64.509938 68.921677,64.312314 79.750744,62.853821 82.641841,61.16002 81.896327,57.510626 80.262097,50.550674 79.323962,46.628287 z"
     style="fill:url(#linearGradient3239);fill-opacity:1;fill-rule:evenodd;stroke:none"
     sodipodi:nodetypes="cccc" />
  <path
     style="fill:url(#linearGradient5212);fill-opacity:1;fill-rule:evenodd;stroke:none"
     d="M 76.572028,24.837328 C 49.258187,28.613441 41.414951,33.720125 37.522412,67.346161 45.722606,67.209321 56.582857,66.13152 62.292653,63.331458 67.064134,60.99154 66.216389,52.931342 64.170832,47.650115 70.226083,45.612208 77.213313,47.04256 78.334272,40.354228 77.264846,35.183001 76.746382,29.935633 76.572028,24.837328 z"
     id="path4224"
     sodipodi:nodetypes="ccsccc" />
</svg>
