<?xml version="1.0" encoding="UTF-8" standalone="no"?>
<!-- Created with Inkscape (http://www.inkscape.org/) -->
<svg
   xmlns:dc="http://purl.org/dc/elements/1.1/"
   xmlns:cc="http://web.resource.org/cc/"
   xmlns:rdf="http://www.w3.org/1999/02/22-rdf-syntax-ns#"
   xmlns:svg="http://www.w3.org/2000/svg"
   xmlns="http://www.w3.org/2000/svg"
   xmlns:xlink="http://www.w3.org/1999/xlink"
   xmlns:sodipodi="http://sodipodi.sourceforge.net/DTD/sodipodi-0.dtd"
   xmlns:inkscape="http://www.inkscape.org/namespaces/inkscape"
   width="72.000000pt"
   height="72.000000pt"
   id="svg1"
   sodipodi:version="0.32"
   inkscape:version="0.45.1"
   sodipodi:docbase="/home/tweenk/dev/GartoonRedux/scalable/apps"
   sodipodi:docname="gnome-power-manager.svg"
   inkscape:output_extension="org.inkscape.output.svg.inkscape">
  <defs
     id="defs3">
    <linearGradient
       id="linearGradient3167">
      <stop
         style="stop-color:#558ada;stop-opacity:1;"
         offset="0"
         id="stop3169" />
      <stop
         style="stop-color:#31baff;stop-opacity:1"
         offset="1"
         id="stop3171" />
    </linearGradient>
    <linearGradient
       id="linearGradient6204">
      <stop
         style="stop-color:#002f77;stop-opacity:1;"
         offset="0"
         id="stop6206" />
      <stop
         style="stop-color:#558ada;stop-opacity:1;"
         offset="1"
         id="stop6208" />
    </linearGradient>
    <linearGradient
       inkscape:collect="always"
       xlink:href="#linearGradient6204"
       id="linearGradient6210"
       x1="22.106703"
       y1="79.9944"
       x2="42.098572"
       y2="33.161335"
       gradientUnits="userSpaceOnUse"
       gradientTransform="translate(19.500823,-0.5944443)" />
    <linearGradient
       id="linearGradient3738">
      <stop
         style="stop-color:#7a889e;stop-opacity:1;"
         offset="0"
         id="stop3740" />
      <stop
         style="stop-color:#ffffff;stop-opacity:1;"
         offset="1"
         id="stop3742" />
    </linearGradient>
    <linearGradient
       id="linearGradient897">
      <stop
         style="stop-color:#437caf;stop-opacity:1.0000000;"
         offset="0.0000000"
         id="stop898" />
      <stop
         style="stop-color:#fff;stop-opacity:1;"
         offset="1"
         id="stop899" />
    </linearGradient>
    <linearGradient
       id="linearGradient830">
      <stop
         style="stop-color:#999999;stop-opacity:1.0000000;"
         offset="0.0000000"
         id="stop831" />
      <stop
         style="stop-color:#fff;stop-opacity:1;"
         offset="1"
         id="stop832" />
    </linearGradient>
    <linearGradient
       id="linearGradient3315">
      <stop
         style="stop-color:#cbff87;stop-opacity:1;"
         offset="0"
         id="stop3317" />
      <stop
         style="stop-color:#f1e36c;stop-opacity:1;"
         offset="1"
         id="stop3319" />
    </linearGradient>
    <linearGradient
       inkscape:collect="always"
       xlink:href="#linearGradient897"
       id="linearGradient2532"
       gradientUnits="userSpaceOnUse"
       gradientTransform="matrix(-0.1562143,0.3956806,-0.4703156,-0.1856801,134.29252,39.190386)"
       x1="38.139547"
       y1="26.691782"
       x2="38.139547"
       y2="38.486990" />
    <linearGradient
       inkscape:collect="always"
       xlink:href="#linearGradient3738"
       id="linearGradient3744"
       x1="40.722557"
       y1="20.368029"
       x2="35.127563"
       y2="5.3680286"
       gradientUnits="userSpaceOnUse" />
    <linearGradient
       inkscape:collect="always"
       xlink:href="#linearGradient830"
       id="linearGradient2195"
       gradientUnits="userSpaceOnUse"
       gradientTransform="matrix(-0.3979488,0.7241578,-1.2202678,-0.6705775,117.33357,46.332814)"
       spreadMethod="reflect"
       x1="11.506772"
       y1="36.528698"
       x2="14.366564"
       y2="36.528698" />
    <linearGradient
       inkscape:collect="always"
       xlink:href="#linearGradient6204"
       id="linearGradient8655"
       gradientUnits="userSpaceOnUse"
       gradientTransform="translate(19.500823,-0.5944443)"
       x1="23.520954"
       y1="75.58506"
       x2="66.277199"
       y2="20.612318" />
    <linearGradient
       inkscape:collect="always"
       xlink:href="#linearGradient3167"
       id="linearGradient3173"
       x1="45.22599"
       y1="75.31813"
       x2="27.152992"
       y2="33.818127"
       gradientUnits="userSpaceOnUse" />
  </defs>
  <sodipodi:namedview
     id="base"
     pagecolor="#ffffff"
     bordercolor="#666666"
     borderopacity="1.0"
     inkscape:pageopacity="0.0"
     inkscape:pageshadow="2"
     inkscape:zoom="4"
     inkscape:cx="57.724879"
     inkscape:cy="64.617157"
     inkscape:current-layer="svg1"
     inkscape:window-width="824"
     inkscape:window-height="619"
     inkscape:window-x="100"
     inkscape:window-y="74"
     showguides="true"
     inkscape:guide-bbox="true" />
  <metadata
     id="metadata4">
    <rdf:RDF>
      <cc:Work
         rdf:about="">
        <dc:format>image/svg+xml</dc:format>
        <dc:type
           rdf:resource="http://purl.org/dc/dcmitype/StillImage" />
      </cc:Work>
    </rdf:RDF>
  </metadata>
  <path
     style="fill:none;fill-opacity:0.75;fill-rule:evenodd;stroke:#000000;stroke-width:6.70390749;stroke-linecap:round"
     d="M 77.250014,54.941007 C 76.687824,52.562546 83.121227,47.237356 82.55904,44.858871 C 81.996827,42.480409 72.622858,41.801948 70.891021,37.1785 C 68.903274,33.749602 76.769505,32.798395 76.207295,30.41991 C 75.645083,28.041446 69.589164,24.972054 62.758229,25.221274"
     id="path850"
     sodipodi:nodetypes="ccccc" />
  <path
     style="fill:none;fill-opacity:0.75;fill-rule:evenodd;stroke:url(#linearGradient2195);stroke-width:2.5;stroke-linecap:round;stroke-opacity:1;stroke-miterlimit:4;stroke-dasharray:none"
     d="M 78.625886,51.983569 C 78.063698,49.605086 83.316732,47.27478 82.754519,44.896315 C 82.192332,42.517833 72.818364,41.839372 71.086504,37.215922 C 69.098779,33.787026 76.964987,32.835817 76.4028,30.457334 C 76.96242,26.20915 69.40615,27.056969 63.203735,24.508696"
     id="path937"
     sodipodi:nodetypes="ccccc" />
  <g
     inkscape:label="Layer 1"
     inkscape:groupmode="layer"
     id="layer1" />
  <path
     style="fill:#283d53;fill-rule:evenodd;stroke:none;stroke-width:1.11305237px;stroke-linecap:butt;stroke-linejoin:miter;stroke-opacity:1"
     d="M 13.226726,81.563873 C 5.6923222,72.120918 4.2011813,33.035591 9.5583443,19.591261 C 12.567766,17.165124 17.834023,15.142097 24.329156,14.080279 C 30.997106,1.1618794 42.216263,1.8866712 49.832101,13.656948 C 56.169663,14.333914 61.249007,16.716882 64.755095,18.855853 C 70.247311,32.739119 63.906653,71.897255 57.590607,83.053448 C 51.549172,86.524266 20.458602,85.757831 13.226726,81.563873 z "
     id="path2183"
     sodipodi:nodetypes="ccccccc" />
  <path
     sodipodi:nodetypes="ccccc"
     id="path2185"
     d="M 16.762555,77.791719 C 10.354373,69.743791 9.284858,35.77838 12.436904,26.297868 C 21.91772,31.566382 53.010681,30.440383 61.884255,24.445058 C 64.609646,37.179599 59.607712,69.858486 54.414257,78.809384 C 49.138223,81.658846 23.078213,81.234865 16.762555,77.791719 z "
     style="fill:url(#linearGradient3173);fill-opacity:1.0;fill-rule:evenodd;stroke:none;stroke-width:0.95335031px;stroke-linecap:butt;stroke-linejoin:miter;stroke-opacity:1" />
  <path
     style="fill:#a9e2f5;fill-rule:evenodd;stroke:none;stroke-width:0.99561542px;stroke-linecap:butt;stroke-linejoin:miter;stroke-opacity:1"
     d="M 13.316413,23.256823 C 20.194855,15.83916 53.29937,15.065435 60.825083,22.075476 C 51.025461,29.634183 19.284092,29.104994 13.316413,23.256823 z "
     id="path2187"
     sodipodi:nodetypes="ccc" />
  <path
     style="fill:url(#linearGradient3744);fill-rule:evenodd;stroke:none;stroke-width:0.99561542px;stroke-linecap:butt;stroke-linejoin:miter;stroke-opacity:1;fill-opacity:1.0"
     d="M 27.722558,20.01781 C 28.0504,6.721969 45.191934,5.5659692 46.127565,20.01781 C 41.445121,23.917154 30.34407,23.052601 27.722558,20.01781 z "
     id="path2189"
     sodipodi:nodetypes="ccc" />
  <path
     style="fill:#ffffff;fill-opacity:1;fill-rule:evenodd;stroke:none;stroke-width:1px;stroke-linecap:butt;stroke-linejoin:miter;stroke-opacity:1"
     d="M 15,30.75 C 12.927765,39.403484 13.057356,55.930068 16.25,63.5 C 18.41686,60.622542 17.443245,49.709503 19.413837,41.207116 C 20.523178,36.420711 21.871945,40.252507 31.722765,33.276409 C 21.73694,33.238864 19.143469,32.536723 15,30.75 z "
     id="path3281"
     sodipodi:nodetypes="ccscc" />
  <g
     id="g8644"
     transform="matrix(-0.5858741,-0.4714021,-0.4714021,0.5858741,124.45063,65.508953)">
    <g
       style="fill:#000000;fill-opacity:1"
       transform="matrix(1.4003852,1.1298005,-1.1495103,1.4248151,61.330446,37.608088)"
       id="g923">
      <path
         transform="translate(-29.92996,-22.17539)"
         sodipodi:nodetypes="cczcc"
         id="path912"
         d="M 50.440459,27.334954 C 50.440459,36.972895 44.787923,44.041557 38.069359,44.041557 C 31.350795,44.041557 21.696045,43.971427 21.696045,27.450899 C 21.696045,10.930371 32.509967,11.005138 39.228531,11.005138 C 45.947095,11.005138 50.440459,17.697015 50.440459,27.334954 z "
         style="fill:#000000;fill-rule:evenodd;stroke:none;stroke-width:1.32821875pt" />
      <path
         transform="matrix(1.328219,0,0,1.328219,-32.14185,-30.4415)"
         d="M 36.872729 26.781818 A 4.4727273 10.527273 0 1 1  27.927274,26.781818 A 4.4727273 10.527273 0 1 1  36.872729 26.781818 z"
         sodipodi:ry="10.527273"
         sodipodi:rx="4.4727273"
         sodipodi:cy="26.781818"
         sodipodi:cx="32.400002"
         id="path913"
         style="fill-rule:evenodd;stroke:#000000;stroke-width:1pt"
         sodipodi:type="arc" />
      <path
         transform="matrix(0.556433,0,0,0.88939,-6.56716,-18.96738)"
         d="M 36.872729 26.781818 A 4.4727273 10.527273 0 1 1  27.927274,26.781818 A 4.4727273 10.527273 0 1 1  36.872729 26.781818 z"
         sodipodi:ry="10.527273"
         sodipodi:rx="4.4727273"
         sodipodi:cy="26.781818"
         sodipodi:cx="32.400002"
         id="path914"
         style="fill-rule:evenodd;stroke:#000000;stroke-width:1pt"
         sodipodi:type="arc" />
    </g>
    <path
       sodipodi:nodetypes="cczcc"
       id="path845"
       d="M 81.709725,66.528741 C 71.767234,78.85244 59.068985,82.97861 50.478209,76.047742 C 41.8874,69.116865 29.614577,59.067392 46.657132,37.943183 C 63.699691,16.818977 77.449918,28.070176 86.040724,35.001053 C 94.631499,41.93192 91.652217,54.205044 81.709725,66.528741 z "
       style="fill:url(#linearGradient8655);fill-opacity:1;fill-rule:evenodd;stroke:none;stroke-width:1.56446753pt" />
    <path
       transform="matrix(1.6983442,1.3701876,-1.3701876,1.6983442,52.932523,-32.390251)"
       d="M 36.872729 26.781818 A 4.4727273 10.527273 0 1 1  27.927274,26.781818 A 4.4727273 10.527273 0 1 1  36.872729 26.781818 z"
       sodipodi:ry="10.527273"
       sodipodi:rx="4.4727273"
       sodipodi:cy="26.781818"
       sodipodi:cx="32.400002"
       id="path843"
       style="fill:#a9e2f5;fill-opacity:1;fill-rule:evenodd;stroke:#000000;stroke-width:1pt"
       sodipodi:type="arc" />
    <path
       transform="matrix(0.7114907,0.5740154,-0.9174931,1.1372306,73.797255,8.6640561)"
       d="M 36.872729 26.781818 A 4.4727273 10.527273 0 1 1  27.927274,26.781818 A 4.4727273 10.527273 0 1 1  36.872729 26.781818 z"
       sodipodi:ry="10.527273"
       sodipodi:rx="4.4727273"
       sodipodi:cy="26.781818"
       sodipodi:cx="32.400002"
       id="path895"
       style="fill:#558ada;fill-rule:evenodd;stroke:#000000;stroke-width:1pt"
       sodipodi:type="arc" />
    <path
       sodipodi:nodetypes="cssccc"
       id="path846"
       d="M 79.919228,49.641157 L 99.367835,65.331868 C 100.57832,66.30846 95.972019,71.912173 94.761536,70.93558 L 75.19551,55.150138 C 75.982783,54.231976 75.303862,55.06193 78.293554,52.826732 C 80.258766,49.439361 79.131956,50.559319 79.919228,49.641157 z "
       style="fill:#ffe6ba;fill-rule:evenodd;stroke:#000000;stroke-width:2.08484268pt;stroke-opacity:1" />
    <path
       sodipodi:nodetypes="cssccc"
       id="path902"
       d="M 69.940937,61.667902 L 89.389544,77.358612 C 90.600028,78.335204 85.993721,83.938952 84.783234,82.962358 L 65.217219,67.176883 C 66.004492,66.258721 65.325572,67.088674 68.315255,64.853511 C 70.280475,61.466107 69.153653,62.586098 69.940937,61.667902 z "
       style="fill:#ffe6ba;fill-rule:evenodd;stroke:#000000;stroke-width:2.08484268pt" />
  </g>
</svg>
