<?xml version="1.0" encoding="UTF-8" standalone="no"?>
<!-- Created with Sodipodi ("http://www.sodipodi.com/") -->
<svg
   xmlns:dc="http://purl.org/dc/elements/1.1/"
   xmlns:cc="http://web.resource.org/cc/"
   xmlns:rdf="http://www.w3.org/1999/02/22-rdf-syntax-ns#"
   xmlns:svg="http://www.w3.org/2000/svg"
   xmlns="http://www.w3.org/2000/svg"
   xmlns:xlink="http://www.w3.org/1999/xlink"
   xmlns:sodipodi="http://sodipodi.sourceforge.net/DTD/sodipodi-0.dtd"
   xmlns:inkscape="http://www.inkscape.org/namespaces/inkscape"
   version="1.0"
   x="0"
   y="0"
   width="90"
   height="90"
   id="svg602"
   xml:space="preserve"
   sodipodi:version="0.32"
   inkscape:version="0.45.1"
   sodipodi:docname="gswitchit-properties-capplet.svg"
   sodipodi:docbase="/home/tweenk/GNUtoon/apps"
   inkscape:output_extension="org.inkscape.output.svg.inkscape"><metadata
     id="metadata4130"><rdf:RDF><cc:Work
         rdf:about=""><dc:format>image/svg+xml</dc:format><dc:type
           rdf:resource="http://purl.org/dc/dcmitype/StillImage" /></cc:Work></rdf:RDF></metadata><sodipodi:namedview
     inkscape:window-height="619"
     inkscape:window-width="795"
     inkscape:pageshadow="2"
     inkscape:pageopacity="0.0"
     guidetolerance="10.0"
     gridtolerance="10.0"
     objecttolerance="10.0"
     borderopacity="1.0"
     bordercolor="#666666"
     pagecolor="#ffffff"
     id="base"
     inkscape:zoom="2.2611112"
     inkscape:cx="114.65108"
     inkscape:cy="43.340191"
     inkscape:window-x="114"
     inkscape:window-y="74"
     inkscape:current-layer="svg602" /><defs
     id="defs604"><linearGradient
       id="linearGradient1828"><stop
         style="stop-color:#ffc93f;stop-opacity:1.0000000;"
         offset="0.0000000"
         id="stop1829" /><stop
         style="stop-color:#f1e36c;stop-opacity:1.0000000;"
         offset="1.0000000"
         id="stop1830" /></linearGradient><linearGradient
       inkscape:collect="always"
       xlink:href="#linearGradient1828"
       id="linearGradient1857"
       gradientUnits="userSpaceOnUse"
       gradientTransform="matrix(0.99999,0,0,1.00001,-0.701263,-7.713892)"
       x1="32.051327"
       y1="14.657825"
       x2="32.051327"
       y2="75.934349" /><linearGradient
       id="linearGradient584"><stop
         style="stop-color:#ffffff;stop-opacity:0;"
         offset="0.000000"
         id="stop585" /><stop
         style="stop-color:#ffffff;stop-opacity:1;"
         offset="1.000000"
         id="stop586" /></linearGradient><linearGradient
       xlink:href="#linearGradient584"
       id="linearGradient587"
       x1="28.2520447"
       y1="32.8688049"
       x2="68.3603058"
       y2="21.4794312"
       gradientUnits="userSpaceOnUse"
       spreadMethod="pad"
       gradientTransform="matrix(0.9679558,-0.6892545,0.8857119,0.9928755,93.318557,52.275473)" /></defs><g
     id="g2315"
     transform="matrix(0.7578306,0,0,0.7578306,-72.041628,-11.366847)"><path
       transform="matrix(0.941981,0,0,0.941981,129.07377,19.767893)"
       sodipodi:ry="40.459522"
       sodipodi:rx="40.459526"
       sodipodi:cy="45.390781"
       sodipodi:cx="43.364311"
       d="M 83.823837 45.390781 A 40.459526 40.459522 0 1 1  2.9047852,45.390781 A 40.459526 40.459522 0 1 1  83.823837 45.390781 z"
       id="path589"
       style="font-size:12px;fill:none;fill-rule:evenodd;stroke:#000000;stroke-width:8.5;stroke-opacity:0.3"
       sodipodi:type="arc" /><path
       transform="matrix(0.846155,0,0,0.846155,129.41466,20.131081)"
       sodipodi:ry="40.459522"
       sodipodi:rx="40.459526"
       sodipodi:cy="45.390781"
       sodipodi:cx="43.364311"
       d="M 83.823837 45.390781 A 40.459526 40.459522 0 1 1  2.9047852,45.390781 A 40.459526 40.459522 0 1 1  83.823837 45.390781 z"
       id="path573"
       style="font-size:12px;fill:#31baff;fill-rule:evenodd;stroke-width:1pt"
       sodipodi:type="arc" /><path
       sodipodi:nodetypes="ccccccccc"
       id="path576"
       d="M 151.66521,27.820513 L 156.66571,36.459413 L 144.58551,51.423413 C 144.58551,51.423413 150.46201,65.142613 154.71671,64.970713 C 152.07591,65.532413 152.08021,76.874713 153.40061,80.395813 C 157.53561,76.824313 138.02591,71.878413 139.68581,61.919213 C 141.34561,51.959913 140.17201,49.409413 135.60731,56.463913 C 131.04263,63.518313 130.21269,65.385713 130.62766,62.065913 C 131.04263,58.746213 129.62152,34.170913 151.66521,27.820513 z "
       style="font-size:12px;fill:#e48e6f;fill-rule:evenodd;stroke-width:1pt" /><path
       id="path574"
       d="M 153.86591,26.793513 L 160.92041,36.752813 L 147.22641,51.276713 C 147.22641,51.276713 156.77071,64.555713 156.77071,64.970713 C 156.77071,65.385713 153.03601,75.759913 153.03601,75.759913 C 153.03601,75.759913 139.75701,68.705413 141.41691,58.746213 C 143.07671,48.786913 141.41691,45.052213 136.85221,52.106713 C 132.28754,59.161113 130.21269,65.385713 130.62766,62.065913 C 131.04263,58.746213 132.70251,30.943213 153.86591,26.793513 z "
       style="font-size:12px;fill:#fffcac;fill-rule:evenodd;stroke-width:1pt" /><path
       sodipodi:nodetypes="ccccccccc"
       id="path575"
       d="M 151.66521,27.820513 L 156.66571,36.459413 L 144.58551,51.423413 C 144.58551,51.423413 150.46201,65.142613 154.71671,64.970713 C 152.07591,65.532413 150.83531,71.065113 152.15571,74.586213 C 150.68861,70.184813 139.68581,70.633513 141.34571,60.674313 C 143.00551,50.715013 141.41691,45.052213 136.85221,52.106713 C 132.28754,59.161113 130.21269,65.385713 130.62766,62.065913 C 131.04263,58.746213 129.62152,34.170913 151.66521,27.820513 z "
       style="font-size:12px;fill:#ffd87c;fill-rule:evenodd;stroke-width:1pt" /><path
       id="path577"
       d="M 165.99871,33.089813 C 165.99871,33.089813 171.28041,36.904413 165.41181,42.479513 C 159.54321,48.054713 151.32731,50.108713 158.36951,53.923213 C 165.41181,57.737813 175.09491,58.324613 174.21461,51.575813 C 173.33441,44.827013 172.16071,30.449013 165.99871,33.089813 z "
       style="font-size:12px;fill:#e48e6f;fill-rule:evenodd;stroke-width:1pt" /><path
       id="path578"
       d="M 166.8463,33.070219 C 166.8463,33.070219 171.96149,36.651324 166.2779,41.885166 C 160.59432,47.119103 152.63743,49.047376 159.45762,52.628386 C 166.2779,56.209491 175.65574,56.760372 174.80319,50.424673 C 173.95074,44.088974 172.81404,30.591065 166.8463,33.070219 z "
       style="font-size:12px;fill:#fffbaa;fill-rule:evenodd;stroke-width:1pt" /><path
       id="path579"
       d="M 165.37892,33.054562 C 165.37892,33.054562 169.74482,36.448873 164.89378,41.409714 C 160.04274,46.370644 153.25139,48.198336 159.07254,51.592559 C 164.89378,54.98687 172.89793,55.509017 172.17026,49.503793 C 171.44268,43.498569 170.47249,30.704722 165.37892,33.054562 z "
       style="font-size:12px;fill:#ffd87c;fill-rule:evenodd;stroke-width:1pt" /><path
       id="path580"
       d="M 200.32971,61.552313 C 200.32971,61.552313 186.24521,59.498313 185.36491,60.085213 C 184.48461,60.672113 172.16061,61.845813 173.33441,68.301213 C 174.50811,74.756613 178.61611,80.038313 173.33441,83.852913 C 168.05271,87.667413 162.18411,90.601713 167.46581,92.362313 C 172.74751,94.122813 180.08321,92.068813 182.43061,90.014813 C 184.77801,87.960813 179.78981,86.787113 180.37661,80.918613 C 180.96351,75.050013 179.20291,71.235513 185.36491,73.289413 C 191.52691,75.343413 191.23351,77.690913 195.34141,73.289413 C 199.44941,68.888013 202.97061,67.714313 200.32971,61.552313 z "
       style="font-size:12px;fill:#e48e6f;fill-rule:evenodd;stroke-width:1pt" /><path
       sodipodi:nodetypes="cccccccccc"
       id="path582"
       d="M 200.32971,61.468526 C 201.50341,60.00138 186.24521,56.002775 185.36491,58.319042 C 184.48461,56.527263 169.51971,59.105585 170.69361,65.217005 C 171.86731,71.328614 176.85551,78.089489 171.57381,81.700882 C 166.29211,85.31218 162.18411,88.970435 167.46581,90.637246 C 172.74751,92.303963 180.08321,90.359381 182.43061,88.4148 C 184.77801,86.470219 178.61611,85.359043 179.20291,79.803164 C 179.78981,74.24719 179.20291,69.168746 185.36491,71.113233 C 191.52691,73.057814 191.23351,75.28026 195.34141,71.113233 C 199.44941,66.9463 202.97061,67.30227 200.32971,61.468526 z "
       style="font-size:12px;fill:#fffcac;fill-rule:evenodd;stroke-width:1pt" /><path
       sodipodi:nodetypes="cccccccccc"
       id="path581"
       d="M 200.32971,61.468526 C 200.32971,61.468526 186.24521,59.523944 185.36491,60.07958 C 184.48461,60.635215 172.16061,61.746391 173.33441,67.857905 C 174.50811,73.969419 178.61611,78.969758 173.33441,82.58115 C 168.05271,86.192448 162.18411,88.970435 167.46581,90.637246 C 172.74751,92.303963 180.08321,90.359381 182.43061,88.4148 C 184.77801,86.470219 178.61611,85.359043 179.20291,79.803164 C 179.78981,74.24719 179.20291,69.168746 185.36491,71.113233 C 191.52691,73.057814 191.23351,75.28026 195.34141,71.113233 C 199.44941,66.9463 202.97061,67.30227 200.32971,61.468526 z "
       style="font-size:12px;fill:#ffd87c;fill-rule:evenodd;stroke-width:1pt" /><path
       id="path654"
       d="M 203.33936,58.123748 C 203.33936,78.675663 186.65956,95.355551 166.10756,95.355551 C 145.55564,95.355551 128.87575,78.675663 128.87575,58.123748 C 128.87575,37.571741 145.55564,20.891908 166.10756,20.891908 C 186.65956,20.891908 203.33936,37.571741 203.33936,58.123748 z "
       style="font-size:12px;fill:none;fill-rule:evenodd;stroke:#283d53;stroke-width:7.82190418" /><path
       id="path588"
       d="M 188.65595,35.619887 C 197.5805,45.624235 196.90794,59.380184 187.15453,66.325288 C 177.40121,73.270326 162.24246,70.787365 153.31791,60.783017 C 144.39327,50.778565 145.06583,37.022616 154.81914,30.077579 C 164.57256,23.132475 179.73131,25.615436 188.65595,35.619887 z "
       style="font-size:12px;fill:url(#linearGradient587);fill-rule:evenodd;stroke-width:1pt" /></g><g
     id="g2330"
     transform="matrix(0.8198143,0.4374774,-0.4374774,0.8198143,21.912361,4.1773437)"><path
       id="path684"
       style="font-size:12px;fill:none;fill-rule:evenodd;stroke:#283d53;stroke-width:5.3499999;stroke-linecap:round"
       d="M 28.40699,28.65262 C 28.40699,28.65262 6.264039,21.81993 11.16912,37.04364 C 16.0742,52.26735 30.22888,60.29875 30.22888,60.29875" /><path
       id="path683"
       style="font-size:12px;fill:#283d53;fill-rule:evenodd;stroke-width:1"
       d="M 10.21814,44.17174 C 10.21814,44.17174 3.589016,50.35892 4.030957,53.89446 C 4.472899,57.43 9.334263,63.17525 11.10203,64.50107 C 13.31174,67.59467 12.42785,65.8269 15.96339,66.26883 C 22.15057,75.54961 30.10552,81.73681 35.85077,83.94652 C 39.38631,82.62069 86.23215,34.44901 87.99991,30.47154 C 87.55797,26.93601 84.90634,21.63271 79.16108,18.98106 C 73.41583,16.3294 61.04146,11.0261 58.83175,12.35192 C 55.29621,11.0261 39.38631,22.51659 36.73465,25.16824 C 34.96689,23.40048 31.87329,22.95853 30.10553,23.40047 C 28.33776,23.84241 22.59251,29.58766 23.4764,30.91348 C 24.36028,32.23931 25.24417,33.56514 25.24417,33.56514 L 10.21814,44.17174 z " /><path
       id="path682"
       style="font-size:12px;fill:none;fill-rule:evenodd;stroke:#ffc93f;stroke-width:1.97011197;stroke-linecap:round"
       d="M 28.40699,28.65262 C 28.40699,28.65262 6.264039,21.81993 11.16912,37.04364 C 16.0742,52.26735 30.22888,60.29875 30.22888,60.29875" /><path
       id="path676"
       style="font-size:12px;fill:#437caf;fill-rule:evenodd;stroke-width:1"
       d="M 30.64932,32.48851 L 26.72525,30.57056 C 26.72525,30.57056 28.26684,26.25519 30.50916,27.21416 C 32.75148,28.17314 34.99381,29.97121 34.99381,29.97121 L 30.64932,32.48851 z " /><path
       id="path652"
       style="font-size:12px;fill:#437caf;fill-rule:evenodd;stroke-width:1"
       d="M 9.057813,48.52887 C 9.057813,48.52887 7.755119,50.75737 8.127319,54.1001 C 9.057813,56.96529 9.243913,59.35296 17.80447,63.65078 C 19.66546,65.87926 34.36728,80.04609 36.60046,78.93185 C 38.83366,77.8176 83.12525,31.65601 84.80014,29.26835 C 84.98625,27.83575 85.17234,25.92561 83.31135,26.08479 C 81.45036,26.24397 9.057813,48.52887 9.057813,48.52887 z " /><path
       id="path616"
       style="font-size:12px;fill:#558ada;fill-rule:evenodd;stroke-width:1"
       d="M 9.982833,47.56079 C 9.982833,47.56079 7.350989,50.71235 9.588063,52.96346 C 11.82512,55.21458 34.7221,75.92484 35.90644,75.92484 C 37.09077,75.92484 82.88476,28.76397 84.85863,27.07564 C 86.83251,25.38731 63.40915,14.80707 59.1982,14.91963 C 54.98726,15.03218 13.00945,44.52179 9.982833,47.56079 z " /><g
       style="fill:#a9e2f5"
       id="g4142"><path
         d="M 40.88076,61.89982 C 40.88076,61.89982 43.11394,65.56091 44.41664,64.60583 C 45.71933,63.65077 70.09831,40.72916 69.54001,39.61492 C 68.98172,38.50067 67.67902,37.06806 66.37633,37.70477 C 65.07364,38.34149 41.62516,60.94474 40.88076,61.89982 z "
         style="font-size:12px;fill:#a9e2f5;fill-rule:evenodd;stroke-width:1"
         id="path653" /><path
         d="M 10.9188,49.80229 L 14.26859,52.6675 L 18.54887,48.52887 L 14.82688,46.30038 L 10.9188,49.80229 z "
         style="font-size:12px;fill:#a9e2f5;fill-rule:evenodd;stroke-width:1"
         id="path660" /><path
         d="M 18.54887,44.70861 L 21.89865,47.57381 L 29.15651,41.04753 L 25.43453,38.81903 L 18.54887,44.70861 z "
         style="font-size:12px;fill:#a9e2f5;fill-rule:evenodd;stroke-width:1"
         id="path661" /><path
         d="M 28.22601,36.74971 L 31.7619,39.93327 L 39.76415,34.20287 L 36.60048,31.49684 L 28.22601,36.74971 z "
         style="font-size:12px;fill:#a9e2f5;fill-rule:evenodd;stroke-width:1"
         id="path662" /><path
         d="M 39.39197,29.58671 L 42.55564,32.29273 L 50.5579,27.03986 L 47.39423,24.49301 L 39.39197,29.58671 z "
         style="font-size:12px;fill:#a9e2f5;fill-rule:evenodd;stroke-width:1"
         id="path663" /><path
         d="M 51.1162,21.94617 L 54.46598,24.81137 L 62.28214,19.08097 L 58.93237,16.53412 L 51.1162,21.94617 z "
         style="font-size:12px;fill:#a9e2f5;fill-rule:evenodd;stroke-width:1"
         id="path664" /><path
         d="M 58.56017,29.26835 L 65.25973,33.72533 L 59.30457,38.65984 L 56.51307,37.38642 L 58.00188,34.20287 L 52.23279,30.86013 L 58.56017,29.26835 z "
         style="font-size:12px;fill:#a9e2f5;fill-rule:evenodd;stroke-width:1"
         id="path665" /><path
         d="M 50.9301,31.81519 L 15.94348,55.85105 C 15.94348,55.85105 33.62289,73.04227 33.80898,72.56474 C 33.99509,72.0872 42.55565,65.56091 42.55565,65.56091 L 38.83366,61.42228 L 67.12073,35.95382 L 65.81803,34.52121 L 58.93236,39.77409 L 55.39649,37.38642 L 56.32698,34.20287 L 50.9301,31.81519 z "
         style="font-size:12px;fill:#a9e2f5;fill-rule:evenodd;stroke-width:1"
         id="path666" /><path
         d="M 63.39875,20.19522 L 80.51986,25.76644 L 71.9593,37.38642 L 56.51307,26.7215 L 63.39875,20.19522 z "
         style="font-size:12px;fill:#a9e2f5;fill-rule:evenodd;stroke-width:1"
         id="path667" /></g><g
       style="fill:#558ada;stroke:#558ada"
       id="g4132"><path
         d="M 17.19537,58.8603 C 17.75595,58.62055 55.03456,33.44749 55.03456,33.44749"
         style="font-size:12px;fill:#558ada;fill-rule:evenodd;stroke:#558ada;stroke-width:0.829521"
         id="path668" /><path
         d="M 21.68001,63.17568 L 56.9966,38.24236"
         style="font-size:12px;fill:#558ada;fill-rule:evenodd;stroke:#558ada;stroke-width:0.829521"
         id="path669" /><path
         d="M 26.16465,67.49106 L 59.51922,39.20133"
         style="font-size:12px;fill:#558ada;fill-rule:evenodd;stroke:#558ada;stroke-width:0.829521"
         id="path670" /><path
         d="M 21.96031,50.70903 L 38.77773,68.68978"
         style="font-size:12px;fill:#558ada;fill-rule:evenodd;stroke:#558ada;stroke-width:0.829521"
         id="path671" /><path
         d="M 29.24785,45.43467 L 39.61859,61.49748"
         style="font-size:12px;fill:#558ada;fill-rule:evenodd;stroke:#558ada;stroke-width:0.829521"
         id="path672" /><path
         d="M 36.53541,41.59878 L 46.90614,54.30518"
         style="font-size:12px;fill:#558ada;fill-rule:evenodd;stroke:#558ada;stroke-width:0.829521"
         id="path673" /><path
         d="M 41.30034,38.24236 L 53.9134,47.8321"
         style="font-size:12px;fill:#558ada;fill-rule:evenodd;stroke:#558ada;stroke-width:0.829521"
         id="path674" /><path
         d="M 46.06528,34.64621 L 56.43602,38.48211"
         style="font-size:12px;fill:#558ada;fill-rule:evenodd;stroke:#558ada;stroke-width:0.829521"
         id="path675" /></g><path
       id="path681"
       style="font-size:12px;fill:#ffffff;fill-rule:evenodd;stroke-width:1"
       d="M 29.6683,27.81352 L 33.31207,29.73147 C 33.31207,29.73147 33.03178,30.57056 32.33105,30.33082 C 31.63033,30.09107 28.82743,28.41287 28.82743,28.41287 L 29.6683,27.81352 z " /></g><g
     id="g2547"
     transform="matrix(0.6122825,0,0,0.6122825,45.846415,46.908422)"><path
       id="path1858"
       d="M 45.318751,7.3776937 C 42.43159,6.5443746 39.448495,8.191152 38.615176,11.078313 L 37.375116,15.374687 C 36.162316,15.412638 34.970577,15.525313 33.794884,15.750193 L 31.647204,11.859727 C 30.194919,9.228949 26.892861,8.275879 24.262084,9.728164 L 21.412347,11.320846 C 18.78157,12.773131 17.835201,16.051965 19.287487,18.682743 L 21.418647,22.543283 C 20.589864,23.416188 19.836369,24.353276 19.146658,25.35937 L 14.943178,24.146122 C 12.056016,23.312803 9.0429955,24.976101 8.2096762,27.863261 L 7.3047672,30.998454 C 6.4714475,33.885616 8.141448,36.875413 11.02861,37.708732 L 15.139195,38.895168 C 15.171391,40.15216 15.294743,41.38735 15.527633,42.604925 L 11.786799,44.670002 C 9.1560225,46.122287 8.2096525,49.401121 9.6619397,52.031898 L 11.254622,54.881635 C 12.706906,57.512414 15.985742,58.458781 18.616519,57.006495 L 22.297499,54.974459 C 23.215383,55.846827 24.191024,56.645116 25.256042,57.363041 L 24.096418,61.380731 C 23.263099,64.267892 24.909876,67.250988 27.797037,68.084306 L 30.93223,68.989215 C 33.819392,69.822535 36.802488,68.175757 37.635805,65.288597 L 38.802132,61.247682 C 40.075599,61.206326 41.316691,61.06663 42.548518,60.819499 L 44.580554,64.500479 C 46.032842,67.131259 49.311671,68.077623 51.942451,66.625339 L 54.808708,65.062583 C 57.439486,63.610295 58.392558,60.308241 56.940271,57.677463 L 54.891715,53.966557 C 55.737594,53.060346 56.500164,52.080859 57.197219,51.034351 L 61.307805,52.220787 C 64.194965,53.054106 67.178057,51.407329 68.01138,48.520168 L 68.916289,45.384975 C 69.749608,42.497814 68.109535,39.491496 65.222373,38.658177 L 61.018892,37.444929 C 60.971222,36.222146 60.811231,35.028493 60.573715,33.844587 L 64.434255,31.713428 C 67.065034,30.261143 68.011401,26.982308 66.559115,24.351531 L 64.99636,21.485274 C 63.544072,18.854496 60.265241,17.908128 57.634463,19.360414 L 53.71407,21.524615 C 52.842191,20.709961 51.916628,19.959754 50.914503,19.282552 L 52.154563,14.986178 C 52.987882,12.099017 51.341105,9.115923 48.453944,8.282603 L 45.318751,7.3776937 z M 41.157054,27.636569 C 47.054369,29.338705 50.458676,35.505524 48.756538,41.402836 C 47.054399,47.300151 40.887582,50.704461 34.990269,49.002323 C 29.092955,47.300185 25.688645,41.133366 27.390784,35.236051 C 29.092922,29.338739 35.259739,25.93443 41.157054,27.636569 z "
       style="fill:#000000;fill-opacity:0.34444442;stroke:none;stroke-width:3.86746287;stroke-linecap:round;stroke-linejoin:round;stroke-miterlimit:4;stroke-opacity:1" /><path
       id="path1856"
       d="M 40.855941,2.9148838 C 37.96878,2.0815647 34.985685,3.7283418 34.152366,6.6155028 L 32.912306,10.911877 C 31.699506,10.949828 30.507767,11.062503 29.332074,11.287383 L 27.184394,7.3969168 C 25.732109,4.7661388 22.430051,3.8130688 19.799274,5.2653538 L 16.949537,6.8580358 C 14.31876,8.3103208 13.372391,11.589155 14.824677,14.219933 L 16.955837,18.080473 C 16.127054,18.953378 15.373559,19.890466 14.683848,20.89656 L 10.480368,19.683312 C 7.5932064,18.849993 4.5801856,20.513291 3.7468663,23.400451 L 2.8419573,26.535644 C 2.0086376,29.422806 3.6786381,32.412603 6.5657996,33.245922 L 10.676385,34.432358 C 10.708581,35.68935 10.831933,36.92454 11.064823,38.142115 L 7.3239895,40.207192 C 4.6932126,41.659477 3.7468426,44.938311 5.1991298,47.569088 L 6.7918116,50.418825 C 8.2440962,53.049604 11.522932,53.995971 14.153709,52.543685 L 17.834689,50.511649 C 18.752573,51.384017 19.728214,52.182306 20.793232,52.900231 L 19.633608,56.917921 C 18.800289,59.805082 20.447066,62.788178 23.334227,63.621496 L 26.46942,64.526405 C 29.356582,65.359725 32.339678,63.712947 33.172995,60.825787 L 34.339322,56.784872 C 35.612789,56.743516 36.853881,56.60382 38.085708,56.356689 L 40.117744,60.037669 C 41.570032,62.668449 44.848861,63.614813 47.479641,62.162529 L 50.345898,60.599773 C 52.976676,59.147485 53.929748,55.845431 52.477461,53.214653 L 50.428905,49.503747 C 51.274784,48.597536 52.037354,47.618049 52.734409,46.571541 L 56.844995,47.757977 C 59.732155,48.591296 62.715247,46.944519 63.54857,44.057358 L 64.453479,40.922165 C 65.286798,38.035004 63.646725,35.028686 60.759563,34.195367 L 56.556082,32.982119 C 56.508412,31.759336 56.348421,30.565683 56.110905,29.381777 L 59.971445,27.250618 C 62.602224,25.798333 63.548591,22.519498 62.096305,19.888721 L 60.53355,17.022464 C 59.081262,14.391686 55.802431,13.445318 53.171653,14.897604 L 49.25126,17.061805 C 48.379381,16.247151 47.453818,15.496944 46.451693,14.819742 L 47.691753,10.523368 C 48.525072,7.6362068 46.878295,4.6531128 43.991134,3.8197928 L 40.855941,2.9148838 z M 36.694244,23.173759 C 42.591559,24.875895 45.995866,31.042714 44.293728,36.940026 C 42.591589,42.837341 36.424772,46.241651 30.527459,44.539513 C 24.630145,42.837375 21.225835,36.670556 22.927974,30.773241 C 24.630112,24.875929 30.796929,21.47162 36.694244,23.173759 z "
       style="fill:url(#linearGradient1857);fill-opacity:1;stroke:#593a28;stroke-width:3.86746287;stroke-linecap:round;stroke-linejoin:round;stroke-miterlimit:4;stroke-opacity:1" /></g></svg>