<?xml version="1.0" encoding="UTF-8" standalone="no"?>
<!-- Created with Sodipodi ("http://www.sodipodi.com/") -->
<svg
   xmlns:dc="http://purl.org/dc/elements/1.1/"
   xmlns:cc="http://creativecommons.org/ns#"
   xmlns:rdf="http://www.w3.org/1999/02/22-rdf-syntax-ns#"
   xmlns:svg="http://www.w3.org/2000/svg"
   xmlns="http://www.w3.org/2000/svg"
   xmlns:xlink="http://www.w3.org/1999/xlink"
   xmlns:sodipodi="http://sodipodi.sourceforge.net/DTD/sodipodi-0.dtd"
   xmlns:inkscape="http://www.inkscape.org/namespaces/inkscape"
   id="svg695"
   sodipodi:version="0.32"
   width="72pt"
   height="72pt"
   sodipodi:docname="hubackup.svg"
   inkscape:version="0.46+devel"
   inkscape:output_extension="org.inkscape.output.svg.inkscape">
  <metadata
     id="metadata41">
    <rdf:RDF>
      <cc:Work
         rdf:about="">
        <dc:format>image/svg+xml</dc:format>
        <dc:type
           rdf:resource="http://purl.org/dc/dcmitype/StillImage" />
        <dc:title></dc:title>
      </cc:Work>
    </rdf:RDF>
  </metadata>
  <defs
     id="defs697">
    <linearGradient
       id="linearGradient734">
      <stop
         style="stop-color:#7fa8e3;stop-opacity:0.741176;"
         offset="0.000000"
         id="stop735" />
      <stop
         style="stop-color:#ffffff;stop-opacity:0.290196;"
         offset="1.000000"
         id="stop736" />
    </linearGradient>
    <linearGradient
       id="linearGradient714">
      <stop
         style="stop-color:#7fa8e3;stop-opacity:0.741176;"
         offset="0.000000"
         id="stop715" />
      <stop
         style="stop-color:#ffffff;stop-opacity:0.290196;"
         offset="1.000000"
         id="stop716" />
    </linearGradient>
    <radialGradient
       spreadMethod="pad"
       gradientTransform="scale(1.027411,0.973321)"
       gradientUnits="userSpaceOnUse"
       r="1.28315270"
       fy="71.4012299"
       fx="56.6728058"
       cy="71.4012299"
       cx="56.6728058"
       id="radialGradient675"
       xlink:href="#linearGradient672" />
    <linearGradient
       gradientTransform="scale(0.802339,1.246356)"
       spreadMethod="pad"
       gradientUnits="userSpaceOnUse"
       y2="52.2799377"
       x2="75.5171967"
       y1="32.4178200"
       x1="76.0363464"
       id="linearGradient667"
       xlink:href="#linearGradient663" />
    <linearGradient
       gradientTransform="scale(0.896091,1.115958)"
       spreadMethod="pad"
       gradientUnits="userSpaceOnUse"
       y2="69.7389984"
       x2="35.1832123"
       y1="41.4659500"
       x1="37.8630333"
       id="linearGradient662"
       xlink:href="#linearGradient663" />
    <linearGradient
       gradientTransform="scale(1.382029,0.723574)"
       spreadMethod="pad"
       gradientUnits="userSpaceOnUse"
       y2="21.4785004"
       x2="25.7656593"
       y1="41.5107384"
       x1="24.4638729"
       id="linearGradient653"
       xlink:href="#linearGradient650" />
    <linearGradient
       id="linearGradient650">
      <stop
         id="stop651"
         offset="0.000000"
         style="stop-color:#820000;stop-opacity:0.992157;" />
      <stop
         id="stop652"
         offset="1.000000"
         style="stop-color:#eddd00;stop-opacity:0.521569;" />
    </linearGradient>
    <linearGradient
       id="linearGradient663">
      <stop
         id="stop664"
         offset="0.000000"
         style="stop-color:#ffb700;stop-opacity:1;" />
      <stop
         id="stop665"
         offset="1.000000"
         style="stop-color:#ffffff;stop-opacity:0;" />
    </linearGradient>
    <linearGradient
       id="linearGradient672">
      <stop
         id="stop673"
         offset="0.000000"
         style="stop-color:#ffffff;stop-opacity:0.992157;" />
      <stop
         id="stop674"
         offset="1.000000"
         style="stop-color:#3f0d00;stop-opacity:1;" />
    </linearGradient>
    <linearGradient
       inkscape:collect="always"
       xlink:href="#linearGradient714"
       id="linearGradient2824"
       gradientUnits="userSpaceOnUse"
       gradientTransform="scale(1.615491,0.619007)"
       spreadMethod="pad"
       x1="52.6992607"
       y1="118.880966"
       x2="27.7516518"
       y2="95.9015198" />
    <linearGradient
       inkscape:collect="always"
       xlink:href="#linearGradient734"
       id="linearGradient2826"
       gradientUnits="userSpaceOnUse"
       gradientTransform="matrix(1.615491,0,0,0.619007,7.3945102e-8,-1.278808e-6)"
       spreadMethod="pad"
       x1="8.76167965"
       y1="64.3047867"
       x2="27.9378262"
       y2="87.7629700" />
    <linearGradient
       inkscape:collect="always"
       xlink:href="#linearGradient714"
       id="linearGradient2828"
       gradientUnits="userSpaceOnUse"
       gradientTransform="matrix(1.066005,0,0,0.938082,7.3945102e-8,-1.278808e-6)"
       spreadMethod="pad"
       x1="21.6558495"
       y1="86.0028992"
       x2="33.8251724"
       y2="57.5816307" />
    <linearGradient
       inkscape:collect="always"
       xlink:href="#linearGradient714"
       id="linearGradient2830"
       gradientUnits="userSpaceOnUse"
       gradientTransform="scale(1.519424,0.658144)"
       spreadMethod="pad"
       x1="43.4018326"
       y1="124.642860"
       x2="42.5384789"
       y2="116.731438" />
    <linearGradient
       inkscape:collect="always"
       xlink:href="#linearGradient714"
       id="linearGradient2832"
       gradientUnits="userSpaceOnUse"
       gradientTransform="matrix(1.519424,0,0,0.658144,7.3945102e-8,-1.278808e-6)"
       spreadMethod="pad"
       x1="42.1643028"
       y1="103.865761"
       x2="46.2594757"
       y2="115.265465" />
  </defs>
  <sodipodi:namedview
     id="base"
     showgrid="false"
     inkscape:zoom="1.3111111"
     inkscape:cx="59.483023"
     inkscape:cy="49.137804"
     inkscape:window-width="642"
     inkscape:window-height="436"
     inkscape:window-x="172"
     inkscape:window-y="156"
     inkscape:current-layer="svg695" />
  <g
     id="g2783"
     transform="matrix(0.70594367,0,0,0.70594367,1.1363949,-2.5925167)">
    <path
       transform="matrix(1.060862,0,0,1.060862,-0.623884,-2.29744)"
       sodipodi:nodetypes="ccccccccccc"
       id="path766"
       d="m 11.1855,47.024 c -0.2944,-0.8831 1.3595,13.7826 1.6538,23.9379 2.5021,1.9133 23.6177,14.4667 25.8253,14.761 2.2077,0.2944 4.1553,0.7359 4.4154,0.1472 2.3548,-0.5887 26.0157,-4.7356 27.3403,-6.6489 1.3246,-1.9133 3.61,-22.2559 6.4067,-26.6044 1.4718,2.502 9.7138,2.9435 8.242,-5.4457 0,-6.0343 -6.5196,-32.6303 -13.4369,-35.4266 C 70.7489,10.1255 28.6997,9.7879 27.0807,10.2295 11.7742,12.5843 4.85688,36.5743 4.85688,40.5481 c -0.58871,4.2683 0,8.8307 6.32862,6.4759 z"
       style="fill:#000000;fill-opacity:0.382353;fill-rule:evenodd;stroke:none" />
    <path
       transform="matrix(1.060862,0,0,1.060862,-4.462461,-5.125866)"
       sodipodi:nodetypes="ccccccccccc"
       id="path647"
       d="m 11.1855,47.024 c -0.2944,-0.8831 2.5021,12.0686 2.7964,22.2239 2.5021,1.9133 22.6655,14.2763 24.8731,14.5706 2.2077,0.2944 2.0605,0.7359 4.4154,0.1472 2.3548,-0.5887 24.8731,-3.9738 26.1977,-5.8871 1.3246,-1.9133 4.5622,-21.1133 7.3589,-25.4618 1.4718,2.502 9.7138,2.9435 8.242,-5.4457 0,-6.0343 -9.5666,-32.8207 -16.4839,-35.617 C 67.7019,9.93505 28.6997,9.7879 27.0807,10.2295 11.7742,12.5843 4.85688,36.5743 4.85688,40.5481 c -0.58871,4.2683 0,8.8307 6.32862,6.4759 z"
       style="fill:#2e0000;fill-opacity:1;fill-rule:evenodd;stroke:none" />
    <path
       transform="matrix(1.060862,0,0,1.060862,-4.462461,-5.125866)"
       sodipodi:nodetypes="ccccc"
       id="path641"
       d="M 42.2001,47.5059 C 40.0905,57.2197 39.64,68.2176 39.1494,79.6975 31.9376,75.5275 24.8731,71.2103 17.5142,67.1874 17.0236,58.651 16.3858,51.948 14.7178,45.4721 c 7.3099,0.0491 18.2591,1.5432 27.4823,2.0338 z"
       style="fill:#f1e36c;fill-opacity:1;fill-rule:evenodd;stroke:none" />
    <path
       transform="matrix(1.060862,0,0,1.060862,-4.462461,-5.125866)"
       sodipodi:nodetypes="ccccccc"
       id="path642"
       d="M 43.0429,47.3185 C 40.8352,57.4738 40.1796,79.8447 40.1796,79.8447 48.9612,78.1276 57.7429,76.4106 66.5245,74.6935 68.7678,64.1056 70.6363,55.0164 74.753,47.4259 72.1262,39.206 69.1247,32.8596 65.9358,26.1384 c -6.3823,6.8861 -9.0177,11.7115 -14.4633,18.9723 -4.1213,3.6086 -7.1185,3.2829 -8.4296,2.2078 z"
       style="fill:#f1e36c;fill-opacity:1;fill-rule:evenodd;stroke:none" />
    <path
       transform="matrix(1.060862,0,0,1.060862,-4.462452,-5.402784)"
       sodipodi:nodetypes="ccccccc"
       id="path666"
       d="M 43.0429,47.3185 C 40.8352,57.4738 40.1796,79.8447 40.1796,79.8447 48.9612,78.1276 57.7429,76.4106 66.5245,74.6935 68.7678,64.1056 70.6363,55.0164 74.753,47.4259 72.1262,39.206 69.1247,32.8596 65.9358,26.1384 c -6.3823,6.8861 -9.0177,11.7115 -14.4633,18.9723 -4.1213,3.6086 -7.1185,3.2829 -8.4296,2.2078 z"
       style="fill:url(#linearGradient667);fill-opacity:1;fill-rule:evenodd;stroke:none" />
    <path
       transform="matrix(1.060862,0,0,1.060862,-4.462461,-5.125866)"
       sodipodi:nodetypes="ccccc"
       id="path643"
       d="m 45.7724,78.9616 c 0.2944,-8.7326 1.619,-17.1707 3.9738,-26.1976 4.8078,-1.0303 8.5854,-1.1775 12.6573,-0.8831 -1.4718,7.6532 -3.2379,16.9255 -3.5323,24.4316 -4.5134,0.7849 -8.5853,1.5699 -13.0988,2.6491 z"
       style="fill:#2e0000;fill-opacity:1;fill-rule:evenodd;stroke:none" />
    <path
       transform="matrix(1.060862,0,0,1.060862,-4.462466,-5.679712)"
       sodipodi:nodetypes="ccccc"
       id="path661"
       d="M 42.2001,47.5059 C 40.0905,57.2197 39.64,68.2176 39.1494,79.6975 31.9376,75.5275 24.8731,71.2103 17.5142,67.1874 17.0236,58.651 16.3858,51.948 14.7178,45.4721 c 7.3099,0.0491 18.2591,1.5432 27.4823,2.0338 z"
       style="fill:url(#linearGradient662);fill-opacity:1;fill-rule:evenodd;stroke:none" />
    <path
       transform="matrix(1.060862,0,0,1.060862,-4.462461,-5.125866)"
       sodipodi:nodetypes="ccccc"
       id="path644"
       d="m 20.7521,48.7901 c 0.1472,5.1513 0,10.744 0.1472,16.6312 3.7775,1.3246 8.4382,2.502 12.2157,3.8266 0.9322,-3.0417 1.2756,-14.031 -0.2943,-20.6049 -3.9738,-0.785 -8.5363,-0.3925 -12.0686,0.1471 z"
       style="fill:#ffffff;fill-opacity:1;fill-rule:evenodd;stroke:none" />
    <path
       transform="matrix(1.060862,0,0,1.060862,-4.462461,-5.125866)"
       sodipodi:nodetypes="ccccc"
       id="path645"
       d="M 7.94762,42.0199 C 19.6238,40.6953 31.0055,41.8727 43.8591,43.6389 47.8329,31.5703 57.841,19.5017 64.1697,15.0863 51.3161,14.792 38.4626,14.4976 25.609,14.2033 13.9819,23.034 9.27222,33.6308 7.94762,42.0199 z"
       style="fill:#cc4c4c;fill-opacity:1;fill-rule:evenodd;stroke:none" />
    <path
       transform="matrix(1.060862,0,0,1.060862,-4.462461,-5.125866)"
       sodipodi:nodetypes="ccccccc"
       id="path648"
       d="m 44.8894,42.7558 c -0.1472,1.4718 1.7661,3.3851 4.5625,0.8831 2.3548,-3.6795 15.6008,-22.5182 16.7782,-22.0767 1.1775,0.4415 10.4497,21.1937 12.9517,28.6997 1.9134,0.883 3.8267,-0.1471 3.6795,-3.6794 C 82.1254,43.0502 73.5891,16.9996 67.5548,14.2032 60.3431,18.7657 54.8975,23.1811 44.8894,42.7558 z"
       style="fill:#daa244;fill-opacity:1;fill-rule:evenodd;stroke:none" />
    <path
       transform="matrix(1.060862,0,0,1.060862,-4.462461,-5.125866)"
       sodipodi:nodetypes="ccccc"
       id="path649"
       d="M 7.94762,42.0199 C 19.6238,40.6953 31.0055,41.8727 43.8591,43.6389 47.8329,31.5703 57.841,19.5017 64.1697,15.0863 51.3161,14.792 38.4626,14.4976 25.609,14.2033 13.9819,23.034 9.27222,33.6308 7.94762,42.0199 z"
       style="fill:url(#linearGradient653);fill-opacity:1;fill-rule:evenodd;stroke:none" />
    <path
       transform="matrix(0.954858,0,0,0.954858,0.02267048,-1.253567)"
       sodipodi:nodetypes="ccccc"
       id="path658"
       d="m 18.3164,49.8287 c 0.902,6.2442 0.7632,12.4885 0.2082,18.7327 4.5097,1.5264 9.0195,3.0527 13.5292,4.5791 0.6244,-7.2849 1.0407,-14.5699 -1e-4,-22.4792 -4.5791,-0.2776 -9.1582,-0.5551 -13.7373,-0.8326 z"
       style="fill:none;stroke:#000000;stroke-width:1.75;stroke-linecap:butt;stroke-linejoin:round;stroke-opacity:1;stroke-dasharray:none" />
    <path
       transform="matrix(0.954858,0,0,0.954858,0.02267048,-1.253567)"
       id="path659"
       d="m 24.977,50.6613 c 0,0.4163 1.457,15.4024 -0.6245,19.149"
       style="fill:none;stroke:#000000;stroke-width:1.75;stroke-linecap:butt;stroke-linejoin:round;stroke-opacity:1;stroke-dasharray:none" />
    <path
       transform="matrix(0.954858,0,0,0.954858,0.02267048,-1.253567)"
       id="path660"
       d="m 19.5653,58.3625 12.4885,2.7059"
       style="fill:none;stroke:#000000;stroke-width:1.875;stroke-linecap:butt;stroke-linejoin:miter;stroke-opacity:1;stroke-dasharray:none" />
    <path
       transform="matrix(0.965261,0,0,0.965261,0.708429,1.122103)"
       sodipodi:nodetypes="ccccc"
       id="path668"
       d="m 47.0078,79.5793 c 0.2944,-8.7326 1.619,-17.7884 3.9738,-26.8153 4.8078,-1.0303 6.7323,-1.1775 10.8042,-0.8831 -1.4718,7.6532 -3.2379,17.7491 -3.5323,25.2552 -4.5134,0.7849 -6.7322,1.364 -11.2457,2.4432 z"
       style="fill:#b62020;fill-opacity:1;fill-rule:evenodd;stroke:none" />
    <path
       transform="matrix(0.954858,0,0,0.954858,0.02267048,-1.253567)"
       id="path670"
       d="m 59.5284,70.6429 c 0,1.034 -0.8858,1.8732 -1.9773,1.8732 -1.0915,0 -1.9774,-0.8392 -1.9774,-1.8732 0,-1.0341 0.8859,-1.8733 1.9774,-1.8733 1.0915,0 1.9773,0.8392 1.9773,1.8733 z"
       style="font-size:12px;fill:url(#radialGradient675);fill-rule:evenodd;stroke-width:1pt" />
    <path
       transform="matrix(0.954858,0,0,0.954858,0.02267048,-1.253567)"
       sodipodi:nodetypes="cc"
       id="path703"
       d="m 15.7584,18.0771 c 0,0 24.0417,-2.2223 42.6284,2.8285"
       style="fill:none;stroke:#2e0000;stroke-width:2.5;stroke-linecap:butt;stroke-linejoin:miter;stroke-opacity:1;stroke-dasharray:none" />
    <path
       transform="matrix(0.954858,0,0,0.954858,0.02267048,-1.253567)"
       sodipodi:nodetypes="cc"
       id="path704"
       d="m 6.46498,32.6233 c 0,0 11.31372,-5.2527 42.83042,1.8183"
       style="fill:none;stroke:#2e0000;stroke-width:2.5;stroke-linecap:butt;stroke-linejoin:miter;stroke-opacity:1;stroke-dasharray:none" />
    <path
       transform="matrix(0.954858,0,0,0.954858,0.02267048,-1.253567)"
       sodipodi:nodetypes="cc"
       id="path705"
       d="m 30.5066,43.533 c 0.8081,0 3.8385,-16.9706 24.2438,-32.1228"
       style="fill:none;stroke:#2e0000;stroke-width:2.5;stroke-linecap:butt;stroke-linejoin:miter;stroke-opacity:1;stroke-dasharray:none" />
    <path
       transform="matrix(0.954858,0,0,0.954858,0.02267048,-1.253567)"
       sodipodi:nodetypes="cc"
       id="path706"
       d="M 14.9502,43.129 C 18.1827,28.9868 32.3249,11.0061 39.396,10.804"
       style="fill:none;stroke:#2e0000;stroke-width:2.5;stroke-linecap:butt;stroke-linejoin:miter;stroke-opacity:0.999764;stroke-dasharray:none" />
  </g>
  <g
     id="g2805"
     transform="matrix(-0.69088929,0,0,0.69088929,89.205704,27.224998)">
    <path
       transform="matrix(0.994837,0,0,1.423897,-4.089137,-34.46167)"
       sodipodi:nodetypes="ccccccc"
       id="path780"
       d="M 5.08233,49.7833 C 3.68284,55.0129 4.49307,60.6846 5.52427,65.4723 15.3206,71.8067 29.5364,79.0251 42.8684,87.7903 58.5573,83.9601 75.358,81.2348 91.2679,78.9515 90.605,72.4697 90.384,66.4298 91.2679,60.169 87.9533,57.5173 49.4974,39.6186 46.4039,38.0719 26.7375,35.6412 5.3033,47.5736 5.08233,49.7833 z"
       style="font-size:12px;fill:#000000;fill-opacity:0.3;fill-rule:evenodd;stroke-width:1pt" />
    <path
       transform="matrix(0.994837,0,0,1.423897,-1.745386,-40.08667)"
       sodipodi:nodetypes="ccccccc"
       id="path726"
       d="M 5.08233,49.7833 C 3.68284,55.0129 4.49307,60.6846 5.52427,65.4723 15.3206,71.8067 29.5364,79.0251 42.8684,87.7903 58.5573,83.9601 75.358,81.2348 91.2679,78.9515 90.605,72.4697 90.384,66.4298 91.2679,60.169 87.9533,57.5173 49.4974,39.6186 46.4039,38.0719 26.7375,35.6412 5.3033,47.5736 5.08233,49.7833 z"
       style="font-size:12px;fill:#3d4e67;fill-rule:evenodd;stroke-width:1pt" />
    <path
       transform="matrix(0.994837,0,0,1.423897,-1.745386,-40.08667)"
       sodipodi:nodetypes="ccccccc"
       id="path727"
       d="m 9.50172,52.4349 c 0.14732,3.1673 0.29465,6.3345 0.44197,9.5018 0,0 33.58761,20.3293 33.36661,20.3293 -0.221,0 42.2054,-8.1759 42.2054,-8.1759 0,-3.6829 0,-7.3657 0,-11.0486 C 72.2575,56.2651 58.9992,49.4886 45.741,42.7122 34.3242,41.0918 20.6976,44.3327 9.50172,52.4349 z"
       style="font-size:12px;fill:#ffffff;fill-rule:evenodd;stroke-width:1pt" />
    <path
       transform="matrix(0.994837,0,0,1.423897,-1.745386,-40.08667)"
       sodipodi:nodetypes="ccccc"
       id="path702"
       d="M 9.94369,51.772 C 22.9073,59.0641 31.2306,63.9254 44.1942,71.2174 57.5997,66.8717 71.0053,62.7469 85.7367,62.8205 70.2687,54.7183 61.2089,50.8145 45.7409,42.7122 33.2929,40.5762 20.8449,45.0692 9.94369,51.772 z"
       style="font-size:12px;fill:url(#linearGradient2824);fill-rule:evenodd;stroke-width:1pt" />
    <path
       transform="matrix(0.994837,0,0,1.423897,-1.745386,-40.08667)"
       sodipodi:nodetypes="ccccc"
       id="path718"
       d="M 9.94369,51.772 C 22.9073,59.0641 31.2306,63.9254 44.1942,71.2174 57.5997,66.8717 71.0053,62.7469 85.7367,62.8205 70.2687,54.7183 61.2089,50.8145 45.7409,42.7122 33.2929,40.5762 20.8449,45.0692 9.94369,51.772 z"
       style="font-size:12px;fill:url(#linearGradient2826);fill-rule:evenodd;stroke-width:1pt" />
    <path
       transform="matrix(0.994837,0,0,1.423897,-1.745386,-40.08667)"
       sodipodi:nodetypes="ccccc"
       id="path720"
       d="M 9.72272,52.8769 C 20.6976,59.2114 31.0096,65.104 42.6474,71.8804 c 0.0737,3.3882 0.1473,6.7764 0.221,10.1646 C 31.8198,75.4159 20.7713,68.7868 9.72272,62.1577 c -0.66291,-2.8726 -0.88388,-6.1872 0,-9.2808 z"
       style="font-size:12px;fill:url(#linearGradient2828);fill-rule:evenodd;stroke-width:1pt" />
    <path
       transform="matrix(0.994837,0,0,1.423897,-1.745386,-40.08667)"
       id="path722"
       d="m 43.9732,72.3223 0.221,9.0598 41.1006,-7.7339 -0.442,-10.1647 -40.8796,8.8388 z"
       style="font-size:12px;fill:url(#linearGradient2830);fill-rule:evenodd;stroke-width:1pt" />
    <path
       transform="matrix(0.994837,0,0,1.423897,-1.745386,-40.08667)"
       sodipodi:nodetypes="ccccc"
       id="path724"
       d="m 44.1942,73.2062 c 0,2.7253 0,5.4506 0,8.1759 13.7002,-2.578 27.4004,-5.1559 41.1006,-7.7339 -0.1473,-3.3882 0.3682,-6.9975 0.2209,-10.3857 -17.0884,1.4731 -32.409,5.377 -41.3215,9.9437 z"
       style="font-size:12px;fill:url(#linearGradient2832);fill-rule:evenodd;stroke-width:1pt" />
    <path
       transform="matrix(0.994837,0,0,1.423897,-1.745386,-40.08667)"
       id="path728"
       d="M 8.61787,51.772 43.3103,71.2175 43.0893,83.1499"
       style="font-size:12px;fill:none;stroke:#3d4e67;stroke-width:2" />
    <path
       transform="matrix(0.994837,0,0,1.423897,-1.745386,-40.08667)"
       sodipodi:nodetypes="cc"
       id="path729"
       d="M 43.5313,71.6594 C 58.41,66.3561 70.4161,64.1464 86.1787,62.5996"
       style="font-size:12px;fill:none;stroke:#3d4e67;stroke-width:2" />
    <path
       sodipodi:nodetypes="ccccccccc"
       transform="matrix(0.859958,-0.246416,0.212199,0.998628,-8.377747,10.1903)"
       id="path758"
       d="m 47.0668,64.1464 c -1.2242,0 -2.2097,0.9855 -2.2097,2.2097 l -0.2937,2.3585 c 0,1.2242 0.9855,2.2097 2.2097,2.2097 l 4.8982,-0.2122 c 1.1624,-0.1181 1.8298,-0.2456 2.0512,-1.9359 l 0.3662,-2.5887 c 0,-1.2242 -0.7287,-2.1463 -1.9528,-2.1463 l -5.0691,0.1052 z"
       style="font-size:12px;fill:#810b0b;fill-opacity:1;fill-rule:evenodd;stroke-width:1pt" />
    <path
       sodipodi:nodetypes="ccccccccc"
       transform="matrix(0.758064,-0.223914,0.203866,0.800327,-3.183137,22.06495)"
       id="path759"
       d="m 47.0668,64.1464 c -1.2242,0 -2.2097,0.9855 -2.2097,2.2097 l -0.2937,2.3585 c 0,1.2242 0.9855,2.2097 2.2097,2.2097 l 4.8982,-0.2122 c 1.1624,-0.1181 1.8298,-0.2456 2.0512,-1.9359 l 0.3662,-2.5887 c 0,-1.2242 -0.7287,-2.1463 -1.9528,-2.1463 l -5.0691,0.1052 z"
       style="font-size:12px;fill:#d01111;fill-opacity:1;fill-rule:evenodd;stroke-width:1pt" />
    <path
       id="path584"
       d="m 61.6088,38.1861 c 0,6.5039 -8.0131,11.7824 -17.8864,11.7824 -9.8733,0 -17.8864,-5.2785 -17.8864,-11.7824 0,-6.5038 8.0131,-11.7823 17.8864,-11.7823 9.8733,0 17.8864,5.2785 17.8864,11.7823 z"
       style="font-size:12px;fill:none;stroke:#3d4e67;stroke-width:2.875"
       transform="translate(1.987381,3.406944)" />
    <path
       sodipodi:nodetypes="ccc"
       id="path587"
       d="M 62.7445,72.9653 C 62.4606,68.4227 62.1766,63.8801 61.8927,59.3375 68.9905,55.3628 76.3723,53.9432 84.0379,55.0789"
       style="fill:none;stroke:#3d4e67;stroke-width:1.25;stroke-linecap:butt;stroke-linejoin:miter;stroke-opacity:1;stroke-dasharray:none" />
    <path
       sodipodi:nodetypes="cc"
       id="path588"
       d="m 67.0032,56.7823 1.1356,14.1956"
       style="fill:none;stroke:#3d4e67;stroke-width:1.25;stroke-linecap:butt;stroke-linejoin:miter;stroke-opacity:1;stroke-dasharray:none" />
    <path
       sodipodi:nodetypes="cc"
       id="path589"
       d="m 72.6814,55.0789 0.8518,14.1956"
       style="fill:none;stroke:#3d4e67;stroke-width:1.25;stroke-linecap:butt;stroke-linejoin:miter;stroke-opacity:1;stroke-dasharray:none" />
    <path
       sodipodi:nodetypes="cc"
       id="path590"
       d="m 78.6435,54.2271 0.2839,13.06"
       style="fill:none;stroke:#3d4e67;stroke-width:1.25;stroke-linecap:butt;stroke-linejoin:miter;stroke-opacity:1;stroke-dasharray:none" />
  </g>
</svg>
