<?xml version="1.0" encoding="UTF-8" standalone="no"?>
<!-- Created with Inkscape (http://www.inkscape.org/) -->
<svg
   xmlns:dc="http://purl.org/dc/elements/1.1/"
   xmlns:cc="http://creativecommons.org/ns#"
   xmlns:rdf="http://www.w3.org/1999/02/22-rdf-syntax-ns#"
   xmlns:svg="http://www.w3.org/2000/svg"
   xmlns="http://www.w3.org/2000/svg"
   xmlns:xlink="http://www.w3.org/1999/xlink"
   xmlns:sodipodi="http://sodipodi.sourceforge.net/DTD/sodipodi-0.dtd"
   xmlns:inkscape="http://www.inkscape.org/namespaces/inkscape"
   width="90"
   height="90"
   id="svg2"
   sodipodi:version="0.32"
   inkscape:version="0.46+devel"
   version="1.0"
   sodipodi:docname="invest-applet.svg"
   inkscape:output_extension="org.inkscape.output.svg.inkscape">
  <defs
     id="defs4">
    <linearGradient
       y2="8.3432496"
       x2="64.043017"
       y1="8.3432496"
       x1="60.107236"
       gradientTransform="scale(0.551387,1.813608)"
       gradientUnits="userSpaceOnUse"
       id="linearGradient2188"
       xlink:href="#linearGradient589"
       inkscape:collect="always" />
    <linearGradient
       y2="73.182051"
       x2="11.704953"
       y1="73.182051"
       x1="6.6054738"
       gradientTransform="scale(1.868867,0.535084)"
       gradientUnits="userSpaceOnUse"
       id="linearGradient2187"
       xlink:href="#linearGradient589"
       inkscape:collect="always" />
    <linearGradient
       y2="14.759434"
       x2="70.184024"
       y1="8.8742821"
       x1="64.919166"
       spreadMethod="pad"
       gradientTransform="scale(0.846279,1.181643)"
       gradientUnits="userSpaceOnUse"
       id="linearGradient2186"
       xlink:href="#linearGradient589"
       inkscape:collect="always" />
    <linearGradient
       y2="48.2551422"
       x2="50.0719948"
       y1="25.5889244"
       x1="38.4874878"
       spreadMethod="pad"
       gradientTransform="scale(0.608808,1.642555)"
       gradientUnits="userSpaceOnUse"
       id="linearGradient2185"
       xlink:href="#linearGradient589"
       inkscape:collect="always" />
    <defs
       id="defs1064">
      <sodipodi:namedview
         id="namedview909" />
      <defs
         id="defs550">
        <linearGradient
           spreadMethod="pad"
           gradientUnits="objectBoundingBox"
           id="linearGradient632"
           y2="0.0000000"
           x2="1.0000000"
           y1="0.0000000"
           x1="0.0000000">
          <stop
             id="stop633"
             offset="0.000000"
             style="stop-color:#ffb700;stop-opacity:1;" />
          <stop
             id="stop634"
             offset="1.000000"
             style="stop-color:#ffd58f;stop-opacity:0;" />
        </linearGradient>
        <linearGradient
           spreadMethod="pad"
           gradientUnits="objectBoundingBox"
           id="linearGradient556"
           y2="0.0000000"
           x2="1.0000000"
           y1="0.0000000"
           x1="0.0000000">
          <stop
             id="stop557"
             offset="0.000000"
             style="stop-color:#000000;stop-opacity:1;" />
          <stop
             id="stop558"
             offset="1.000000"
             style="stop-color:#bdf2ff;stop-opacity:0.384314;" />
        </linearGradient>
        <linearGradient
           spreadMethod="pad"
           gradientUnits="userSpaceOnUse"
           y2="69.142799"
           x2="35.370575"
           y1="19.295689"
           x1="60.644615"
           xlink:href="#linearGradient632"
           id="linearGradient559" />
        <linearGradient
           gradientTransform="scale(0.740666,1.350136)"
           spreadMethod="pad"
           gradientUnits="userSpaceOnUse"
           y2="54.628181"
           x2="73.916298"
           y1="17.443844"
           x1="85.637657"
           id="linearGradient631"
           xlink:href="#linearGradient632" />
      </defs>
    </defs>
    <linearGradient
       inkscape:collect="always"
       xlink:href="#linearGradient632"
       id="linearGradient2901"
       gradientUnits="userSpaceOnUse"
       gradientTransform="scale(0.740666,1.350136)"
       spreadMethod="pad"
       x1="85.637657"
       y1="17.443844"
       x2="73.916298"
       y2="54.628181" />
  </defs>
  <sodipodi:namedview
     id="base"
     pagecolor="#ffffff"
     bordercolor="#666666"
     borderopacity="1.0"
     gridtolerance="10000"
     guidetolerance="10"
     objecttolerance="10"
     inkscape:pageopacity="0.0"
     inkscape:pageshadow="2"
     inkscape:zoom="4.5222222"
     inkscape:cx="30.961966"
     inkscape:cy="38.151322"
     inkscape:document-units="px"
     inkscape:current-layer="layer1"
     width="90px"
     height="90px"
     inkscape:window-width="1024"
     inkscape:window-height="736"
     inkscape:window-x="0"
     inkscape:window-y="1"
     showgrid="false" />
  <metadata
     id="metadata7">
    <rdf:RDF>
      <cc:Work
         rdf:about="">
        <dc:format>image/svg+xml</dc:format>
        <dc:type
           rdf:resource="http://purl.org/dc/dcmitype/StillImage" />
        <dc:title></dc:title>
        <cc:license
           rdf:resource="" />
      </cc:Work>
    </rdf:RDF>
  </metadata>
  <g
     inkscape:label="Layer 1"
     inkscape:groupmode="layer"
     id="layer1">
    <path
       style="font-size:medium;font-style:normal;font-variant:normal;font-weight:normal;font-stretch:normal;text-indent:0;text-align:start;text-decoration:none;line-height:normal;letter-spacing:normal;word-spacing:normal;text-transform:none;direction:ltr;block-progression:tb;writing-mode:lr-tb;text-anchor:start;color:#000000;fill:#000000;fill-opacity:0.29411765;fill-rule:evenodd;stroke:none;stroke-width:4.5;marker:none;visibility:visible;display:inline;overflow:visible;enable-background:accumulate;font-family:Bitstream Vera Sans;-inkscape-font-specification:Bitstream Vera Sans"
       d="m 7.3141093,7.7355648 0,2.0167439 0,71.1461993 0,2.016743 2.0167486,0 71.5385831,0 2.016749,0 0,-2.016743 0,-71.1461993 0,-2.0167439 -2.016749,0 -71.5385831,0 -2.0167486,0 z"
       id="path2597" />
    <rect
       style="color:#000000;fill:#ffffff;fill-opacity:1;fill-rule:evenodd;stroke:#383e49;stroke-width:4.18189478;stroke-linecap:butt;stroke-linejoin:miter;stroke-miterlimit:4;stroke-opacity:1;stroke-dasharray:none;stroke-dashoffset:0;marker:none;visibility:visible;display:inline;overflow:visible;enable-background:accumulate"
       id="rect2160"
       width="71.55249"
       height="71.155838"
       x="3.5801904"
       y="3.8013208" />
    <path
       style="color:#000000;fill:none;stroke:#383e49;stroke-width:0.74344796;stroke-linecap:butt;stroke-linejoin:miter;stroke-miterlimit:4;stroke-opacity:1;stroke-dasharray:none;stroke-dashoffset:0;marker:none;visibility:visible;display:inline;overflow:visible;enable-background:accumulate"
       d="m 5.7471967,5.1754964 68.8041183,0"
       id="path3134"
       inkscape:tile-w="78.380538"
       inkscape:tile-h="1.6483516"
       inkscape:tile-cx="44.55774"
       inkscape:tile-cy="7.0761674" />
    <g
       id="g4155"
       transform="matrix(1.0101617,0,0,0.89633009,-0.31121215,-1.9466446)">
      <use
         height="90"
         width="90"
         id="use4121"
         xlink:href="#path3134"
         inkscape:tiled-clone-of="#path3134"
         y="0"
         x="0"
         transform="translate(-0.88452079,2.2113022)" />
      <use
         height="90"
         width="90"
         id="use4123"
         transform="translate(-0.88452079,14.923931)"
         xlink:href="#path3134"
         inkscape:tiled-clone-of="#path3134"
         y="0"
         x="0" />
      <use
         height="90"
         width="90"
         id="use4125"
         transform="translate(-0.88452079,27.636561)"
         xlink:href="#path3134"
         inkscape:tiled-clone-of="#path3134"
         y="0"
         x="0" />
      <use
         height="90"
         width="90"
         id="use4127"
         transform="translate(-0.88452079,40.34919)"
         xlink:href="#path3134"
         inkscape:tiled-clone-of="#path3134"
         y="0"
         x="0" />
      <use
         height="90"
         width="90"
         id="use4129"
         transform="translate(-0.88452079,53.061821)"
         xlink:href="#path3134"
         inkscape:tiled-clone-of="#path3134"
         y="0"
         x="0" />
      <use
         height="90"
         width="90"
         id="use4131"
         transform="translate(-0.88452079,65.77445)"
         xlink:href="#path3134"
         inkscape:tiled-clone-of="#path3134"
         y="0"
         x="0" />
      <use
         height="90"
         width="90"
         id="use4133"
         transform="translate(-0.88452079,78.487079)"
         xlink:href="#path3134"
         inkscape:tiled-clone-of="#path3134"
         y="0"
         x="0" />
    </g>
    <g
       transform="matrix(0,-0.9987372,0.89633305,0,-1.7517748,78.775069)"
       id="g5133">
      <use
         x="0"
         y="0"
         inkscape:tiled-clone-of="#path3134"
         xlink:href="#path3134"
         id="use5135"
         width="90"
         height="90"
         transform="translate(-0.88452079,2.2113022)" />
      <use
         x="0"
         y="0"
         inkscape:tiled-clone-of="#path3134"
         xlink:href="#path3134"
         transform="translate(-0.88452079,14.923931)"
         id="use5137"
         width="90"
         height="90" />
      <use
         x="0"
         y="0"
         inkscape:tiled-clone-of="#path3134"
         xlink:href="#path3134"
         transform="translate(-0.88452079,27.636561)"
         id="use5139"
         width="90"
         height="90" />
      <use
         x="0"
         y="0"
         inkscape:tiled-clone-of="#path3134"
         xlink:href="#path3134"
         transform="translate(-0.88452079,40.34919)"
         id="use5141"
         width="90"
         height="90" />
      <use
         x="0"
         y="0"
         inkscape:tiled-clone-of="#path3134"
         xlink:href="#path3134"
         transform="translate(-0.88452079,53.061821)"
         id="use5143"
         width="90"
         height="90" />
      <use
         x="0"
         y="0"
         inkscape:tiled-clone-of="#path3134"
         xlink:href="#path3134"
         transform="translate(-0.88452079,65.77445)"
         id="use5145"
         width="90"
         height="90" />
      <use
         x="0"
         y="0"
         inkscape:tiled-clone-of="#path3134"
         xlink:href="#path3134"
         transform="translate(-0.88452079,78.487079)"
         id="use5147"
         width="90"
         height="90" />
    </g>
    <path
       style="color:#000000;fill:none;stroke:#ff0000;stroke-width:3.71723962;stroke-linecap:butt;stroke-linejoin:miter;stroke-miterlimit:4;stroke-opacity:1;stroke-dasharray:none;stroke-dashoffset:0;marker:none;visibility:visible;display:inline;overflow:visible;enable-background:accumulate"
       d="M 10.120999,67.425346 21.815171,30.360882 33.509344,36.703463 43.419658,21.441626 54.915626,38.090904 68.988274,13.315194"
       id="path5149"
       sodipodi:nodetypes="cccccc" />
    <path
       style="color:#000000;fill:none;stroke:#558ada;stroke-width:3.71723962;stroke-linecap:butt;stroke-linejoin:miter;stroke-miterlimit:4;stroke-opacity:1;stroke-dasharray:none;stroke-dashoffset:0;marker:none;visibility:visible;display:inline;overflow:visible;enable-background:accumulate"
       d="M 14.481537,68.019963 26.17571,50.974274 36.878851,59.695325 47.383786,45.820926 58.879752,50.577862 68.988274,49.190423"
       id="path6120"
       sodipodi:nodetypes="cccccc" />
    <g
       id="g2819"
       transform="matrix(0.65693433,-0.06964448,0.06964448,0.65693433,27.210157,36.920851)">
      <path
         id="path2191"
         d="m 13.360763,16.209507 -6.1432622,2.599074 3.5441912,8.506057 -9.2148959,3.54419 c 0,0 4.2530284,4.961866 2.8353522,15.830717 -1.4176761,10.86885 2.3627936,33.55167 2.3627936,33.55167 0,0 50.3275041,-6.379544 55.9982081,-6.143264 5.670706,0.23628 13.704204,0.23628 13.704204,0.23628 L 74.793398,62.756541 85.18969,61.811424 71.485486,18.572301 13.360763,16.209507 z"
         style="fill:#000000;fill-opacity:0.29411766;fill-rule:evenodd;stroke:none" />
      <g
         id="layer1-1"
         inkscape:label="Layer 1" />
      <use
         height="90"
         width="90"
         transform="translate(-6.7175145,12.374369)"
         id="use7897"
         xlink:href="#g2122"
         y="0"
         x="0" />
      <g
         transform="matrix(1.0692784,0,0,1.0692784,-1.0522773,2.9085097)"
         id="g2122">
        <path
           sodipodi:nodetypes="ccccc"
           id="path2123"
           d="m 13.772209,12.853107 c 4.583333,13.125 2.291667,26.5625 4.375,39.375 22.083333,-3.541667 42.291667,-2.708333 63.4375,-4.0625 -3.854167,-12.083333 -3.333333,-26.666667 -5,-40 -20.9375,1.5625 -41.5625,0.625 -62.8125,4.6875 z"
           style="fill:none;stroke:#34674b;stroke-width:5;stroke-linecap:butt;stroke-linejoin:miter;stroke-miterlimit:4;stroke-opacity:1" />
        <path
           sodipodi:nodetypes="ccccc"
           id="path2124"
           d="m 13.772209,12.853107 c 4.583333,13.125 2.291667,26.5625 4.375,39.375 22.083333,-3.541667 42.291667,-2.708333 63.4375,-4.0625 -3.854167,-12.083333 -3.333333,-26.666667 -5,-40 -20.9375,1.5625 -41.5625,0.625 -62.8125,4.6875 z"
           style="fill:#cbff87;fill-opacity:1;fill-rule:evenodd;stroke:none" />
        <path
           transform="matrix(0.892618,0,0,0.892618,7.874868,-4.935961)"
           d="m 60.987961,38.071846 c 0,8.904242 -7.375124,16.130873 -16.46233,16.130873 -9.087206,0 -16.46233,-7.226631 -16.46233,-16.130873 0,-8.904242 7.375124,-16.130873 16.46233,-16.130873 9.087206,0 16.46233,7.226631 16.46233,16.130873 z"
           sodipodi:ry="16.130873"
           sodipodi:rx="16.46233"
           sodipodi:cy="38.071846"
           sodipodi:cx="44.525631"
           id="path2125"
           style="opacity:0.75268818;fill:#2aaf18;fill-opacity:1;fill-rule:nonzero;stroke:none"
           sodipodi:type="arc" />
        <g
           transform="matrix(0.372824,0,0,0.372824,30.96996,11.31216)"
           id="g2126">
          <defs
             id="defs2127" />
          <sodipodi:namedview
             id="namedview2136" />
          <path
             transform="matrix(1.259307,0,0,1.259307,-11.09589,-14.04155)"
             sodipodi:nodetypes="cccccccc"
             id="path2137"
             d="M 54.9883,81.4569 C 47.957,81.8163 36.4181,82.8514 28.7969,65.6132 26.3673,59.4294 25.0586,48.4961 33.1836,37.8711 c 4.375,-5.4687 10.6486,-9.8203 19.8673,-7.9453 7.4766,-0.2187 16.3749,10.6912 11.6874,18.3475 -4.6875,7.6562 -13.0942,9.375 -11.4027,11.844 2.3908,2.0941 9.2268,-0.1094 12.426,3.9766 1.7188,3.2813 -4.0545,15.1755 -10.7733,17.363 z"
             style="font-size:12px;fill:#000000;fill-opacity:0.3;fill-rule:evenodd;stroke-width:1pt" />
          <g
             transform="matrix(0.972002,0,0,0.972002,0.967511,1.255798)"
             id="g2138">
            <path
               id="path2139"
               d="m 28.5938,29.1406 c 0,2.8893 -1.435,5.2343 -3.2032,5.2343 -1.7681,0 -3.2031,-2.345 -3.2031,-5.2343 0,-2.8894 1.435,-5.2344 3.2031,-5.2344 1.7682,0 3.2032,2.345 3.2032,5.2344 z"
               style="font-size:12px;fill:#000000;fill-opacity:0.3;fill-rule:evenodd;stroke-width:1pt"
               transform="matrix(-0.02447984,1.881981,1.881981,0.02447849,-42.67223,-5.662441)" />
            <path
               id="path2140"
               d="m 28.5938,29.1406 c 0,2.8893 -1.435,5.2343 -3.2032,5.2343 -1.7681,0 -3.2031,-2.345 -3.2031,-5.2343 0,-2.8894 1.435,-5.2344 3.2031,-5.2344 1.7682,0 3.2032,2.345 3.2032,5.2344 z"
               style="font-size:12px;fill:#000000;fill-opacity:0.3;fill-rule:evenodd;stroke-width:1pt"
               transform="matrix(1.364979,-0.8957,0.8957,1.364979,-38.54071,9.130011)" />
            <path
               id="path2141"
               d="m 28.5938,29.1406 c 0,2.8893 -1.435,5.2343 -3.2032,5.2343 -1.7681,0 -3.2031,-2.345 -3.2031,-5.2343 0,-2.8894 1.435,-5.2344 3.2031,-5.2344 1.7682,0 3.2032,2.345 3.2032,5.2344 z"
               style="font-size:12px;fill:#000000;fill-opacity:0.3;fill-rule:evenodd;stroke-width:1pt"
               transform="matrix(1.710329,-0.0844919,0.08449188,1.710329,-8.95636,-30.89149)" />
            <path
               id="path2142"
               d="m 28.5938,29.1406 c 0,2.8893 -1.435,5.2343 -3.2032,5.2343 -1.7681,0 -3.2031,-2.345 -3.2031,-5.2343 0,-2.8894 1.435,-5.2344 3.2031,-5.2344 1.7682,0 3.2032,2.345 3.2032,5.2344 z"
               style="font-size:12px;fill:#000000;fill-opacity:0.3;fill-rule:evenodd;stroke-width:1pt"
               transform="matrix(2.056255,0.991635,-0.991636,2.056254,34.69159,-72.58045)" />
            <path
               transform="matrix(1.766225,0,0,1.464769,-34.91358,-20.35575)"
               sodipodi:ry="7.2920418"
               sodipodi:rx="5.4137878"
               sodipodi:cy="44.479984"
               sodipodi:cx="41.432053"
               d="m 46.84584,44.479984 c 0,4.025207 -2.425376,7.292042 -5.413787,7.292042 -2.988411,0 -5.413788,-3.266835 -5.413788,-7.292042 0,-4.025207 2.425377,-7.292041 5.413788,-7.292041 2.988411,0 5.413787,3.266834 5.413787,7.292041 z"
               id="path2143"
               style="font-size:12px;fill-rule:evenodd;stroke-width:1pt"
               sodipodi:type="arc" />
            <path
               id="path2144"
               d="m 28.5938,29.1406 c 0,2.8893 -1.435,5.2343 -3.2032,5.2343 -1.7681,0 -3.2031,-2.345 -3.2031,-5.2343 0,-2.8894 1.435,-5.2344 3.2031,-5.2344 1.7682,0 3.2032,2.345 3.2032,5.2344 z"
               style="font-size:12px;fill-rule:evenodd;stroke-width:1pt"
               transform="matrix(1.364979,-0.8957,0.8957,1.364979,-41.04071,8.192511)" />
            <path
               transform="matrix(1.259307,0,0,1.259307,-15.1584,-13.41655)"
               sodipodi:nodetypes="cccccccc"
               id="path2145"
               d="M 54.9883,81.4569 C 47.957,81.8163 36.4181,82.8514 28.7969,65.6132 26.3673,59.4294 25.0586,48.4961 33.1836,37.8711 c 4.375,-5.4687 10.6486,-9.8203 19.8673,-7.9453 7.4766,-0.2187 16.3749,10.6912 11.6874,18.3475 -4.6875,7.6562 -13.0942,9.375 -11.4027,11.844 2.3908,2.0941 9.2268,-0.1094 12.426,3.9766 1.7188,3.2813 -4.0545,15.1755 -10.7733,17.363 z"
               style="font-size:12px;fill-rule:evenodd;stroke-width:1pt" />
            <path
               transform="matrix(1.164757,0,0,1.164757,-10.7657,-8.169355)"
               sodipodi:nodetypes="cccccccc"
               id="path2146"
               d="m 54.8438,80.1562 c -7.0313,0.9375 -18.2812,1.25 -25.4688,-14.6875 -1.875,-4.6874 -3.5938,-16.25 4.5312,-26.875 4.375,-5.4687 10.9376,-9.5313 20.1563,-7.6563 7.1876,0.9375 14.0626,7.6563 9.3751,15.3126 -4.6875,7.6562 -16.5626,9.375 -13.2814,15.3125 2.9689,6.7187 11.2501,0.4687 13.4376,4.8437 1.7188,3.2813 -2.0312,11.5625 -8.75,13.75 z"
               style="font-size:12px;fill:#487196;fill-rule:evenodd;stroke-width:1pt" />
            <path
               transform="matrix(1.164757,0,0,1.164757,-10.7657,-8.169355)"
               id="path2147"
               d="M 42.5,76.5625 C 42.5,76.7187 30.4688,63.125 32.5,55 c 2.0313,-8.125 3.4375,-12.9688 3.4375,-12.9688 0,0 -7.3437,6.7188 -6.0937,16.25 1.25,9.5313 5.4687,16.25 12.6562,18.2813 z"
               style="font-size:12px;fill:url(#linearGradient2185);fill-rule:evenodd;stroke-width:1pt" />
            <path
               transform="matrix(1.164757,0,0,1.164757,-10.7657,-8.169355)"
               sodipodi:nodetypes="cccccccc"
               id="path2148"
               d="m 42.8125,68.2812 c 0,0 2.3437,1.5626 7.8126,2.9687 4.6875,0.6251 11.0937,0.7813 12.9687,-0.7812 1.875,-1.875 3.5938,-5 3.5938,-5 0,0 -2.9688,7.0313 -4.375,9.0625 -1.4063,2.0313 -3.125,4.2188 -5.7813,5.1563 -1.7187,0.625 -4.8437,1.4063 -8.2812,-1.0938 C 45.9376,76.25 43.75,74.8437 42.8125,68.2812 z"
               style="font-size:12px;fill-rule:evenodd;stroke-width:1pt" />
            <path
               transform="matrix(1.411826,0,0,1.411826,-22.03179,-18.64424)"
               sodipodi:ry="7.2920418"
               sodipodi:rx="5.4137878"
               sodipodi:cy="44.479984"
               sodipodi:cx="41.432053"
               d="m 46.84584,44.479984 c 0,4.025207 -2.425376,7.292042 -5.413787,7.292042 -2.988411,0 -5.413788,-3.266835 -5.413788,-7.292042 0,-4.025207 2.425377,-7.292041 5.413788,-7.292041 2.988411,0 5.413787,3.266834 5.413787,7.292041 z"
               id="path2149"
               style="font-size:12px;fill-rule:evenodd;stroke-width:1pt"
               sodipodi:type="arc" />
            <path
               transform="matrix(1.60199,0,0,1.601992,-15.49755,-29.67655)"
               sodipodi:ry="7.2920418"
               sodipodi:rx="5.4137878"
               sodipodi:cy="44.479984"
               sodipodi:cx="41.432053"
               d="m 46.84584,44.479984 c 0,4.025207 -2.425376,7.292042 -5.413787,7.292042 -2.988411,0 -5.413788,-3.266835 -5.413788,-7.292042 0,-4.025207 2.425377,-7.292041 5.413788,-7.292041 2.988411,0 5.413787,3.266834 5.413787,7.292041 z"
               id="path2150"
               style="font-size:12px;fill-rule:evenodd;stroke-width:1pt"
               sodipodi:type="arc" />
            <path
               transform="matrix(1.321643,0,0,1.321643,-3.882174,-17.20666)"
               sodipodi:ry="7.2920418"
               sodipodi:rx="5.4137878"
               sodipodi:cy="44.479984"
               sodipodi:cx="41.432053"
               d="m 46.84584,44.479984 c 0,4.025207 -2.425376,7.292042 -5.413787,7.292042 -2.988411,0 -5.413788,-3.266835 -5.413788,-7.292042 0,-4.025207 2.425377,-7.292041 5.413788,-7.292041 2.988411,0 5.413787,3.266834 5.413787,7.292041 z"
               id="path2151"
               style="font-size:12px;fill:#ffffff;fill-rule:evenodd;stroke-width:1pt"
               sodipodi:type="arc" />
            <path
               transform="matrix(1.164757,0,0,1.164757,-11.79521,-7.6546)"
               sodipodi:ry="7.2920418"
               sodipodi:rx="5.4137878"
               sodipodi:cy="44.479984"
               sodipodi:cx="41.432053"
               d="m 46.84584,44.479984 c 0,4.025207 -2.425376,7.292042 -5.413787,7.292042 -2.988411,0 -5.413788,-3.266835 -5.413788,-7.292042 0,-4.025207 2.425377,-7.292041 5.413788,-7.292041 2.988411,0 5.413787,3.266834 5.413787,7.292041 z"
               id="path2152"
               style="font-size:12px;fill:#ffffff;fill-rule:evenodd;stroke-width:1pt"
               sodipodi:type="arc" />
            <path
               transform="matrix(1.164757,0,0,1.164757,-12.76038,-9.391901)"
               id="path2153"
               d="m 44.6361,46.3582 c 0,1.7687 -1.0889,3.2041 -2.4306,3.2041 -1.3418,0 -2.4307,-1.4354 -2.4307,-3.2041 0,-1.7686 1.0889,-3.204 2.4307,-3.204 1.3417,0 2.4306,1.4354 2.4306,3.204 z"
               style="font-size:12px;fill-rule:evenodd;stroke-width:1pt" />
            <path
               transform="matrix(1.164757,0,0,1.164757,-10.7657,-8.169355)"
               id="path2154"
               d="m 56.3476,44.48 c 0,2.0736 -1.3859,3.7565 -3.0936,3.7565 -1.7077,0 -3.0936,-1.6829 -3.0936,-3.7565 0,-2.0736 1.3859,-3.7565 3.0936,-3.7565 1.7077,0 3.0936,1.6829 3.0936,3.7565 z"
               style="font-size:12px;fill-rule:evenodd;stroke-width:1pt" />
            <path
               transform="matrix(1.164757,0,0,1.164757,-12.76038,-9.391901)"
               sodipodi:ry="1.4363101"
               sodipodi:rx="1.215342"
               sodipodi:cy="45.03241"
               sodipodi:cx="42.315941"
               d="m 43.531283,45.03241 c 0,0.792843 -0.544473,1.43631 -1.215342,1.43631 -0.670869,0 -1.215342,-0.643467 -1.215342,-1.43631 0,-0.792843 0.544473,-1.43631 1.215342,-1.43631 0.670869,0 1.215342,0.643467 1.215342,1.43631 z"
               id="path2155"
               style="font-size:12px;fill:#ffffff;fill-rule:evenodd;stroke-width:1pt"
               sodipodi:type="arc" />
            <path
               transform="matrix(1.076514,0,0,1.164757,-6.475862,-9.352312)"
               sodipodi:ry="1.5467989"
               sodipodi:rx="1.5467989"
               sodipodi:cy="43.5961"
               sodipodi:cx="53.253998"
               d="m 54.800797,43.5961 c 0,0.853833 -0.692966,1.546799 -1.546799,1.546799 -0.853833,0 -1.546799,-0.692966 -1.546799,-1.546799 0,-0.853833 0.692966,-1.546799 1.546799,-1.546799 0.853833,0 1.546799,0.692966 1.546799,1.546799 z"
               id="path2156"
               style="font-size:12px;fill:#ffffff;fill-rule:evenodd;stroke-width:1pt"
               sodipodi:type="arc" />
            <path
               transform="matrix(1.164757,0,0,1.164757,-10.7657,-8.169355)"
               sodipodi:nodetypes="cccc"
               id="path2157"
               d="m 47.1875,71.0937 -0.7812,4.0625 c 0,0 -2.3438,-3.75 -2.3438,-5 0.4687,-0.9374 0.7813,0.9375 3.125,0.9375 z"
               style="font-size:12px;fill:#ffffff;fill-rule:evenodd;stroke-width:1pt" />
            <path
               transform="matrix(1.164757,0,0,1.164757,-10.7657,-8.169355)"
               sodipodi:nodetypes="ccccc"
               id="path2158"
               d="m 48.2813,71.875 c 0,0 -0.4688,4.0624 -0.3125,4.3749 0.1562,0.3125 4.5312,2.9688 5.1562,2.0313 0.6251,-0.9375 0.9376,-5.3125 0.9376,-5.3125 0,0 -3.5938,0.3125 -5.7813,-1.0937 z"
               style="font-size:12px;fill:#ffffff;fill-rule:evenodd;stroke-width:1pt" />
            <path
               transform="matrix(1.164757,0,0,1.164757,-10.7657,-8.169355)"
               sodipodi:nodetypes="ccccc"
               id="path2159"
               d="m 55.4688,72.8125 -0.625,5.625 c 0,0 1.7187,0.4687 3.2813,-0.9375 1.5625,-1.4063 1.7187,-4.6875 1.7187,-4.6875 l -4.375,0 z"
               style="font-size:12px;fill:#ffffff;fill-rule:evenodd;stroke-width:1pt" />
            <path
               transform="matrix(1.164757,0,0,1.164757,-10.7657,-8.169355)"
               sodipodi:nodetypes="cccc"
               id="path2160"
               d="m 60.7813,72.1875 c 0,0.1562 -0.4687,4.0624 -0.4687,4.0624 0,0 3.125,-4.5312 3.2812,-4.5312 0.1563,0 -2.6562,0.4688 -2.8125,0.4688 z"
               style="font-size:12px;fill:#ffffff;fill-rule:evenodd;stroke-width:1pt" />
            <path
               transform="matrix(1.164757,0,0,1.164757,-10.7657,-8.169355)"
               id="path2161"
               d="m 40.1563,71.7187 c 0,-0.4687 0.7812,-2.5 2.9687,-3.4375 2.1875,-0.9375 3.75,-1.5625 3.75,-1.5625 0,0 -7.6562,-1.4062 -6.7187,5 z"
               style="font-size:12px;fill-rule:evenodd;stroke-width:1pt" />
            <path
               id="path2162"
               d="m 28.5938,29.1406 c 0,2.8893 -1.435,5.2343 -3.2032,5.2343 -1.7681,0 -3.2031,-2.345 -3.2031,-5.2343 0,-2.8894 1.435,-5.2344 3.2031,-5.2344 1.7682,0 3.2032,2.345 3.2032,5.2344 z"
               style="font-size:12px;fill:#476f93;fill-rule:evenodd;stroke-width:1pt"
               transform="matrix(0.973815,-0.639018,0.639018,0.973815,-23.62893,13.07393)" />
            <path
               id="path2163"
               d="m 28.5938,29.1406 c 0,2.8893 -1.435,5.2343 -3.2032,5.2343 -1.7681,0 -3.2031,-2.345 -3.2031,-5.2343 0,-2.8894 1.435,-5.2344 3.2031,-5.2344 1.7682,0 3.2032,2.345 3.2032,5.2344 z"
               style="font-size:12px;fill-rule:evenodd;stroke-width:1pt"
               transform="matrix(1.710329,-0.0844919,0.08449188,1.710329,-10.51886,-31.204)" />
            <path
               id="path2164"
               d="m 28.5938,29.1406 c 0,2.8893 -1.435,5.2343 -3.2032,5.2343 -1.7681,0 -3.2031,-2.345 -3.2031,-5.2343 0,-2.8894 1.435,-5.2344 3.2031,-5.2344 1.7682,0 3.2032,2.345 3.2032,5.2344 z"
               style="font-size:12px;fill:#476f93;fill-rule:evenodd;stroke-width:1pt"
               transform="matrix(1.163338,-0.05747005,0.05747005,1.163338,4.157015,-15.95047)" />
            <path
               id="path2165"
               d="m 28.5938,29.1406 c 0,2.8893 -1.435,5.2343 -3.2032,5.2343 -1.7681,0 -3.2031,-2.345 -3.2031,-5.2343 0,-2.8894 1.435,-5.2344 3.2031,-5.2344 1.7682,0 3.2032,2.345 3.2032,5.2344 z"
               style="font-size:12px;fill-rule:evenodd;stroke-width:1pt"
               transform="matrix(2.056255,0.991635,-0.991636,2.056254,33.12909,-73.51795)" />
            <path
               id="path2166"
               d="m 28.5938,29.1406 c 0,2.8893 -1.435,5.2343 -3.2032,5.2343 -1.7681,0 -3.2031,-2.345 -3.2031,-5.2343 0,-2.8894 1.435,-5.2344 3.2031,-5.2344 1.7682,0 3.2032,2.345 3.2032,5.2344 z"
               style="font-size:12px;fill:#476f93;fill-rule:evenodd;stroke-width:1pt"
               transform="matrix(1.549889,0.747436,-0.747436,1.549887,38.87003,-52.56182)" />
            <path
               transform="matrix(1.164757,0,0,1.164757,-12.64071,-7.544346)"
               sodipodi:nodetypes="ccccc"
               id="path2167"
               d="m 58.9063,24.2187 c 0,0 -2.8125,-4.2188 -1.0937,-6.5625 1.7187,-2.3438 3.9062,-1.7188 3.9062,-1.7188 -3.5938,2.0313 -3.75,2.9688 -2.0312,5.1564 0.4687,2.8124 -0.7813,3.4374 -0.7813,3.1249 z"
               style="font-size:12px;fill-rule:evenodd;stroke-width:1pt" />
            <path
               id="path2168"
               d="m 28.5938,29.1406 c 0,2.8893 -1.435,5.2343 -3.2032,5.2343 -1.7681,0 -3.2031,-2.345 -3.2031,-5.2343 0,-2.8894 1.435,-5.2344 3.2031,-5.2344 1.7682,0 3.2032,2.345 3.2032,5.2344 z"
               style="font-size:12px;fill-rule:evenodd;stroke-width:1pt"
               transform="matrix(-0.02447984,1.881981,1.881981,0.02447849,-43.29723,-8.474951)" />
            <path
               id="path2169"
               d="m 28.5938,29.1406 c 0,2.8893 -1.435,5.2343 -3.2032,5.2343 -1.7681,0 -3.2031,-2.345 -3.2031,-5.2343 0,-2.8894 1.435,-5.2344 3.2031,-5.2344 1.7682,0 3.2032,2.345 3.2032,5.2344 z"
               style="font-size:12px;fill:#476f93;fill-rule:evenodd;stroke-width:1pt"
               transform="matrix(-0.01807543,1.38947,1.389471,0.01807398,-29.10785,4.2169)" />
            <path
               transform="matrix(-0.419572,0.841862,0.841862,0.419572,21.98523,-16.79764)"
               sodipodi:nodetypes="ccccc"
               id="path2170"
               d="m 58.9063,24.2187 c 0,0 -2.8125,-4.2188 -1.0937,-6.5625 1.7187,-2.3438 3.9062,-1.7188 3.9062,-1.7188 -3.5938,2.0313 -3.75,2.9688 -2.0312,5.1564 0.4687,2.8124 -0.7813,3.4374 -0.7813,3.1249 z"
               style="font-size:12px;fill-rule:evenodd;stroke-width:1pt" />
            <path
               transform="matrix(1.164757,0,0,1.164757,-12.64071,-7.544346)"
               id="path2171"
               d="m 60.9376,10.3124 c 0,0 -5.3125,2.3438 -5.3125,6.25 0,3.9063 1.0937,-2.9687 5.3125,-6.25 z"
               style="font-size:12px;fill:url(#linearGradient2186);fill-rule:evenodd;stroke-width:1pt" />
            <path
               transform="matrix(1.164757,0,0,1.164757,-9.203198,-7.856855)"
               id="path2172"
               d="m 21.875,40.3125 c 0,0 -7.5,-2.3438 -9.0625,-0.1563 -1.5625,2.1875 0.625,-6.4063 9.0625,0.1563 z"
               style="font-size:12px;fill:url(#linearGradient2187);fill-rule:evenodd;stroke-width:1pt" />
            <path
               transform="translate(-0.3125,0)"
               id="path2173"
               d="m 35.3125,11.5624 c 0,0 -3.125,2.8125 -1.875,6.25 1.25,3.4375 0,-4.0625 1.875,-6.25 z"
               style="fill:url(#linearGradient2188);fill-opacity:1;fill-rule:evenodd;stroke:none" />
            <path
               transform="translate(-0.3125,0)"
               id="path2174"
               d="m 17.1875,20.9374 c 0,0 -1.25,3.75 1.5625,6.25 2.8125,2.5 -0.9375,-3.125 -1.5625,-6.25 z"
               style="fill:url(#linearGradient2901);fill-opacity:1;fill-rule:evenodd;stroke:none" />
          </g>
        </g>
        <g
           transform="matrix(0.791858,0,0,0.791858,6.093485,3.846897)"
           id="g2175">
          <path
             id="path2176"
             d="m 24.015308,50.539806 c -0.08789,-0.386715 -0.234379,-0.666012 -0.439453,-0.83789 -0.205081,-0.173824 -0.494144,-0.260738 -0.867187,-0.260742 -0.453128,4e-6 -0.786135,0.1543 -0.999024,0.46289 -0.210939,0.306644 -0.316407,0.791019 -0.316406,1.453125 -1e-6,0.656252 0.101561,1.13965 0.304688,1.450195 0.203123,0.308595 0.519528,0.462891 0.949218,0.462891 0.16406,0 0.316403,-0.01855 0.457032,-0.05566 0.140621,-0.03711 0.268551,-0.09277 0.383789,-0.166992 l 0,-1.201172 -0.527344,0 0,-0.351563 1.576172,0 0,1.678711 c -0.32813,0.152344 -0.656254,0.265626 -0.984375,0.339844 -0.326175,0.07422 -0.660159,0.111328 -1.001953,0.111328 -0.750002,0 -1.339845,-0.202148 -1.769532,-0.606445 -0.427734,-0.404296 -0.641601,-0.958006 -0.641601,-1.661133 0,-0.705075 0.213867,-1.259762 0.641601,-1.664062 0.429687,-0.404293 1.01953,-0.606441 1.769532,-0.606446 0.312497,5e-6 0.620114,0.03126 0.922851,0.09375 0.302731,0.06251 0.607418,0.157231 0.914063,0.28418 l 0,1.075195 -0.372071,0 m 1.816407,3 0,-0.354492 0.820312,0 0,-3.539062 -0.911133,0.539062 0,-0.436523 1.098633,-0.66211 0.922852,0 0,4.098633 0.823242,0 0,0.354492 -2.753906,0 m 5.4375,-0.257812 c 0.234372,0 0.394528,-0.106445 0.480468,-0.319336 0.08789,-0.21289 0.131834,-0.748046 0.131836,-1.605469 -2e-6,-0.851559 -0.04395,-1.385738 -0.131836,-1.602539 -0.08594,-0.216793 -0.246096,-0.325191 -0.480468,-0.325195 -0.234377,4e-6 -0.39551,0.106449 -0.483399,0.319336 -0.08594,0.212894 -0.128908,0.749026 -0.128906,1.608398 -2e-6,0.857423 0.04297,1.392579 0.128906,1.605469 0.08789,0.212891 0.249022,0.319336 0.483399,0.319336 m 0,0.342773 c -0.583986,0 -1.031251,-0.194336 -1.341797,-0.583008 -0.310548,-0.390624 -0.465821,-0.952146 -0.465821,-1.68457 0,-0.732419 0.155273,-1.293942 0.465821,-1.68457 0.310546,-0.390621 0.757811,-0.585933 1.341797,-0.585938 0.582028,5e-6 1.028317,0.195317 1.338867,0.585938 0.310543,0.390628 0.465816,0.952151 0.46582,1.68457 -4e-6,0.732424 -0.155277,1.293946 -0.46582,1.68457 -0.31055,0.388672 -0.756839,0.583008 -1.338867,0.583008 m 4.171875,-0.342773 c 0.234372,0 0.394528,-0.106445 0.480468,-0.319336 0.08789,-0.21289 0.131834,-0.748046 0.131836,-1.605469 -2e-6,-0.851559 -0.04395,-1.385738 -0.131836,-1.602539 -0.08594,-0.216793 -0.246096,-0.325191 -0.480468,-0.325195 -0.234377,4e-6 -0.39551,0.106449 -0.483399,0.319336 -0.08594,0.212894 -0.128908,0.749026 -0.128906,1.608398 -2e-6,0.857423 0.04297,1.392579 0.128906,1.605469 0.08789,0.212891 0.249022,0.319336 0.483399,0.319336 m 0,0.342773 c -0.583986,0 -1.031251,-0.194336 -1.341797,-0.583008 -0.310548,-0.390624 -0.465821,-0.952146 -0.465821,-1.68457 0,-0.732419 0.155273,-1.293942 0.465821,-1.68457 0.310546,-0.390621 0.757811,-0.585933 1.341797,-0.585938 0.582028,5e-6 1.028317,0.195317 1.338867,0.585938 0.310543,0.390628 0.465816,0.952151 0.46582,1.68457 -4e-6,0.732424 -0.155277,1.293946 -0.46582,1.68457 -0.31055,0.388672 -0.756839,0.583008 -1.338867,0.583008"
             style="font-size:6px;font-style:normal;font-variant:normal;font-weight:bold;font-stretch:normal;writing-mode:lr-tb;text-anchor:start;fill:#34674b;fill-opacity:1;stroke:none;font-family:Bitstream Vera Serif"
             transform="matrix(0.987365,-0.158461,0.158461,0.987365,-9.323903,8.018214)" />
          <path
             id="path2177"
             d="m 20.32932,51.882525 1.325825,6.629126"
             style="fill:none;stroke:#34674b;stroke-width:0.625;stroke-linecap:round;stroke-linejoin:round;stroke-miterlimit:4;stroke-opacity:1" />
        </g>
        <g
           transform="matrix(0.846863,0.0657378,-0.0657378,0.846863,48.8298,-35.05809)"
           id="g2178">
          <path
             id="path2179"
             d="m 24.015308,50.539806 c -0.08789,-0.386715 -0.234379,-0.666012 -0.439453,-0.83789 -0.205081,-0.173824 -0.494144,-0.260738 -0.867187,-0.260742 -0.453128,4e-6 -0.786135,0.1543 -0.999024,0.46289 -0.210939,0.306644 -0.316407,0.791019 -0.316406,1.453125 -1e-6,0.656252 0.101561,1.13965 0.304688,1.450195 0.203123,0.308595 0.519528,0.462891 0.949218,0.462891 0.16406,0 0.316403,-0.01855 0.457032,-0.05566 0.140621,-0.03711 0.268551,-0.09277 0.383789,-0.166992 l 0,-1.201172 -0.527344,0 0,-0.351563 1.576172,0 0,1.678711 c -0.32813,0.152344 -0.656254,0.265626 -0.984375,0.339844 -0.326175,0.07422 -0.660159,0.111328 -1.001953,0.111328 -0.750002,0 -1.339845,-0.202148 -1.769532,-0.606445 -0.427734,-0.404296 -0.641601,-0.958006 -0.641601,-1.661133 0,-0.705075 0.213867,-1.259762 0.641601,-1.664062 0.429687,-0.404293 1.01953,-0.606441 1.769532,-0.606446 0.312497,5e-6 0.620114,0.03126 0.922851,0.09375 0.302731,0.06251 0.607418,0.157231 0.914063,0.28418 l 0,1.075195 -0.372071,0 m 1.816407,3 0,-0.354492 0.820312,0 0,-3.539062 -0.911133,0.539062 0,-0.436523 1.098633,-0.66211 0.922852,0 0,4.098633 0.823242,0 0,0.354492 -2.753906,0 m 5.4375,-0.257812 c 0.234372,0 0.394528,-0.106445 0.480468,-0.319336 0.08789,-0.21289 0.131834,-0.748046 0.131836,-1.605469 -2e-6,-0.851559 -0.04395,-1.385738 -0.131836,-1.602539 -0.08594,-0.216793 -0.246096,-0.325191 -0.480468,-0.325195 -0.234377,4e-6 -0.39551,0.106449 -0.483399,0.319336 -0.08594,0.212894 -0.128908,0.749026 -0.128906,1.608398 -2e-6,0.857423 0.04297,1.392579 0.128906,1.605469 0.08789,0.212891 0.249022,0.319336 0.483399,0.319336 m 0,0.342773 c -0.583986,0 -1.031251,-0.194336 -1.341797,-0.583008 -0.310548,-0.390624 -0.465821,-0.952146 -0.465821,-1.68457 0,-0.732419 0.155273,-1.293942 0.465821,-1.68457 0.310546,-0.390621 0.757811,-0.585933 1.341797,-0.585938 0.582028,5e-6 1.028317,0.195317 1.338867,0.585938 0.310543,0.390628 0.465816,0.952151 0.46582,1.68457 -4e-6,0.732424 -0.155277,1.293946 -0.46582,1.68457 -0.31055,0.388672 -0.756839,0.583008 -1.338867,0.583008 m 4.171875,-0.342773 c 0.234372,0 0.394528,-0.106445 0.480468,-0.319336 0.08789,-0.21289 0.131834,-0.748046 0.131836,-1.605469 -2e-6,-0.851559 -0.04395,-1.385738 -0.131836,-1.602539 -0.08594,-0.216793 -0.246096,-0.325191 -0.480468,-0.325195 -0.234377,4e-6 -0.39551,0.106449 -0.483399,0.319336 -0.08594,0.212894 -0.128908,0.749026 -0.128906,1.608398 -2e-6,0.857423 0.04297,1.392579 0.128906,1.605469 0.08789,0.212891 0.249022,0.319336 0.483399,0.319336 m 0,0.342773 c -0.583986,0 -1.031251,-0.194336 -1.341797,-0.583008 -0.310548,-0.390624 -0.465821,-0.952146 -0.465821,-1.68457 0,-0.732419 0.155273,-1.293942 0.465821,-1.68457 0.310546,-0.390621 0.757811,-0.585933 1.341797,-0.585938 0.582028,5e-6 1.028317,0.195317 1.338867,0.585938 0.310543,0.390628 0.465816,0.952151 0.46582,1.68457 -4e-6,0.732424 -0.155277,1.293946 -0.46582,1.68457 -0.31055,0.388672 -0.756839,0.583008 -1.338867,0.583008"
             style="font-size:6px;font-style:normal;font-variant:normal;font-weight:bold;font-stretch:normal;writing-mode:lr-tb;text-anchor:start;fill:#34674b;fill-opacity:1;stroke:none;font-family:Bitstream Vera Serif"
             transform="matrix(0.987365,-0.158461,0.158461,0.987365,-9.323903,8.018214)" />
          <path
             id="path2180"
             d="m 20.32932,51.882525 1.325825,6.629126"
             style="fill:none;stroke:#34674b;stroke-width:0.625;stroke-linecap:round;stroke-linejoin:round;stroke-miterlimit:4;stroke-opacity:1" />
        </g>
        <path
           id="path2181"
           d="m 16.97951,15.042117 c 0,0 15.324698,-2.934392 21.725377,-2.554138"
           style="fill:none;stroke:#34674b;stroke-width:0.625;stroke-linecap:round;stroke-linejoin:round;stroke-miterlimit:4;stroke-opacity:1" />
        <path
           id="path2182"
           d="m 17.863393,16.809884 c 0,0 15.324698,-2.934392 21.725377,-2.554138"
           style="fill:none;stroke:#34674b;stroke-width:0.625;stroke-linecap:round;stroke-linejoin:round;stroke-miterlimit:4;stroke-opacity:1" />
        <path
           id="path2183"
           d="m 56.091354,44.873184 c 0,0 15.324698,-2.934392 21.725377,-2.554138"
           style="fill:none;stroke:#34674b;stroke-width:0.625;stroke-linecap:round;stroke-linejoin:round;stroke-miterlimit:4;stroke-opacity:1" />
        <path
           id="path2184"
           d="m 56.754266,47.524835 c 0,0 15.324698,-2.934392 21.725377,-2.554138"
           style="fill:none;stroke:#34674b;stroke-width:0.625;stroke-linecap:round;stroke-linejoin:round;stroke-miterlimit:4;stroke-opacity:1" />
      </g>
    </g>
  </g>
</svg>
