<?xml version="1.0" encoding="UTF-8" standalone="no"?>
<!-- Created with Sodipodi ("http://www.sodipodi.com/") -->

<svg
   xmlns:dc="http://purl.org/dc/elements/1.1/"
   xmlns:cc="http://creativecommons.org/ns#"
   xmlns:rdf="http://www.w3.org/1999/02/22-rdf-syntax-ns#"
   xmlns:svg="http://www.w3.org/2000/svg"
   xmlns="http://www.w3.org/2000/svg"
   xmlns:xlink="http://www.w3.org/1999/xlink"
   xmlns:sodipodi="http://sodipodi.sourceforge.net/DTD/sodipodi-0.dtd"
   xmlns:inkscape="http://www.inkscape.org/namespaces/inkscape"
   id="svg548"
   sodipodi:version="0.32"
   width="72pt"
   height="72pt"
   sodipodi:docname="media-optical-audio.svg"
   inkscape:version="0.46+devel r21147 custom"
   inkscape:output_extension="org.inkscape.output.svg.inkscape">
  <metadata
     id="metadata24">
    <rdf:RDF>
      <cc:Work
         rdf:about="">
        <dc:format>image/svg+xml</dc:format>
        <dc:type
           rdf:resource="http://purl.org/dc/dcmitype/StillImage" />
        <dc:title></dc:title>
      </cc:Work>
    </rdf:RDF>
  </metadata>
  <defs
     id="defs550">
    <linearGradient
       id="linearGradient893"
       inkscape:collect="always">
      <stop
         id="stop895"
         offset="0"
         style="stop-color:#d6f9d2;stop-opacity:1" />
      <stop
         id="stop897"
         offset="1"
         style="stop-color:#2aaf18;stop-opacity:1" />
    </linearGradient>
    <linearGradient
       id="linearGradient566">
      <stop
         style="stop-color:#ffffff;stop-opacity:1;"
         offset="0.000000"
         id="stop567" />
      <stop
         style="stop-color:#ffffff;stop-opacity:0;"
         offset="1.000000"
         id="stop568" />
    </linearGradient>
    <linearGradient
       id="linearGradient558">
      <stop
         style="stop-color:#7fa8e3;stop-opacity:0.741176;"
         offset="0.000000"
         id="stop559" />
      <stop
         style="stop-color:#ffffff;stop-opacity:0;"
         offset="1.000000"
         id="stop560" />
    </linearGradient>
    <radialGradient
       xlink:href="#linearGradient566"
       gradientTransform="scale(1.1119503,0.89932075)"
       spreadMethod="pad"
       gradientUnits="userSpaceOnUse"
       r="5.0964995"
       fy="61.866608"
       fx="8.0145878"
       cy="61.866608"
       cx="8.0145878"
       id="radialGradient787" />
    <linearGradient
       xlink:href="#linearGradient558"
       y2="43.8150940"
       x2="46.2984352"
       y1="38.8011742"
       x1="73.0144653"
       spreadMethod="pad"
       gradientTransform="matrix(0.66316692,0,0,1.128611,15.957266,17.786288)"
       gradientUnits="userSpaceOnUse"
       id="linearGradient875"
       inkscape:collect="always" />
    <radialGradient
       xlink:href="#linearGradient893"
       r="29.582804"
       fy="41.344692"
       fx="59.260941"
       cy="41.344692"
       cx="59.260941"
       gradientTransform="matrix(-0.87222555,-0.20182318,0.1199961,-0.51859091,112.59861,73.566377)"
       gradientUnits="userSpaceOnUse"
       id="radialGradient888"
       inkscape:collect="always" />
  </defs>
  <sodipodi:namedview
     id="base"
     showgrid="false"
     inkscape:zoom="2.7666667"
     inkscape:cx="42.858896"
     inkscape:cy="54.187488"
     inkscape:window-width="691"
     inkscape:window-height="708"
     inkscape:window-x="50"
     inkscape:window-y="1"
     inkscape:current-layer="svg548" />
  <path
     id="path2421"
     d="m 58.762268,23.352181 c -15.881814,0.02032 -31.295855,10.825103 -36.308602,26.4677 -5.72888,17.877343 4.287112,35.348418 22.358312,38.985112 18.071108,3.636675 37.392655,-7.914469 43.121535,-25.791815 5.728852,-17.877256 -4.287205,-35.348436 -22.358314,-38.985111 -2.2589,-0.454586 -4.544101,-0.678789 -6.812931,-0.675886 z M 53.51739,47.954435 c 0.483159,-5.98e-4 0.978873,0.04124 1.459916,0.135179 3.848316,0.751528 5.978213,4.362185 4.758237,8.056563 -1.219983,3.694393 -5.343734,6.104546 -9.19205,5.353017 -3.848337,-0.751533 -5.978221,-4.362167 -4.758239,-8.056562 1.067479,-3.232582 4.350041,-5.483998 7.732136,-5.488197 z"
     style="font-size:12px;fill:#000000;fill-opacity:0.29411765;fill-rule:evenodd;stroke-width:1pt" />
  <path
     style="font-size:12px;fill:#143c69;fill-rule:evenodd;stroke-width:1pt"
     d="M 54.807199,20.003195 C 38.925386,20.023504 23.511344,30.828296 18.498597,46.470894 12.769716,64.348237 22.78571,81.819312 40.85691,85.456005 58.928017,89.09268 78.249564,77.541537 83.978444,59.664191 89.707296,41.786935 79.69124,24.315757 61.620131,20.67908 c -2.2589,-0.454587 -4.544102,-0.678789 -6.812932,-0.675885 z"
     id="path613"
     sodipodi:nodetypes="cssssc" />
  <path
     style="font-size:12px;fill:#ffffff;fill-rule:evenodd;stroke-width:1pt"
     d="M 54.077242,24.058511 C 40.195379,24.076335 26.746167,33.55842 22.364665,47.281957 17.357211,62.966076 26.08871,78.291255 41.884257,81.481795 57.679721,84.672321 74.56421,74.537245 79.571667,58.853129 84.579096,43.169085 75.847538,27.843816 60.052076,24.653291 58.077632,24.254474 56.060365,24.055965 54.077242,24.058511 z"
     id="path612"
     sodipodi:nodetypes="cssssc" />
  <path
     sodipodi:nodetypes="cscccscccccs"
     id="path891"
     d="M 47.509036,3.2854406 C 36.200331,3.6903048 17.542666,14.266033 13.06417,18.104744 8.2871051,22.19937 2.7239129,30.380844 3.9523008,36.795757 6.9550263,33.656545 25.920189,22.713131 33.290516,21.075281 L 31.07317,72.809333 C 65.448626,79.614311 76.919796,53.78286 73.690931,44.228732 70.532517,34.883063 54.626731,33.107449 46.507732,38.030699 c 0.272975,-1.0919 3.13742,-28.6730539 3.13742,-34.6785047 -0.682438,-0.068243 -1.382204,-0.093744 -2.136116,-0.066754 z M 58.683029,49.846492 c 2.260328,1.325318 -8.27182,10.165047 -14.54505,9.779003 0.540737,-3.457498 9.561563,-12.701015 14.54505,-9.779003 z"
     style="color:#000000;fill:#000000;fill-opacity:0.29411765;fill-rule:evenodd;stroke:none;stroke-width:5;marker:none;visibility:visible;display:inline;overflow:visible;enable-background:accumulate" />
  <path
     style="fill:url(#linearGradient875);fill-opacity:1;fill-rule:evenodd;stroke:none"
     d="m 58.051453,57.149895 c -2.837756,3.774784 -7.74236,5.908948 -12.409269,4.974521 -0.270499,-0.05416 -0.524643,-0.116852 -0.784029,-0.189247 l -3.920139,19.330342 c 0.314496,0.07459 0.625877,0.151573 0.946241,0.216284 4.796295,0.968803 9.694683,0.703059 14.328786,-0.567744 2.767063,-0.902624 6.132041,-2.431485 10.43568,-4.893417 0.332934,-0.230067 0.675333,-0.461275 1.000312,-0.70292 0.0047,-0.0064 -0.0045,-0.0205 0,-0.02703 1.877412,-2.74943 -5.241019,-12.573245 -9.597582,-18.140779 z"
     id="path557" />
  <path
     style="color:#000000;fill:#0d3c07;fill-opacity:1;fill-rule:evenodd;stroke:none;stroke-width:5;marker:none;visibility:visible;display:inline;overflow:visible;enable-background:accumulate"
     d="M 45.915658,0.77614794 C 34.606953,1.1810122 15.949288,11.75674 11.470791,15.595451 6.6937267,19.690077 1.1305342,27.87155 2.3589221,34.286464 5.3616476,31.147252 24.326811,20.203837 31.697137,18.565987 L 29.479792,70.300041 C 63.855248,77.105018 75.326418,51.273566 72.097552,41.719439 68.939137,32.373772 53.033352,30.598156 44.914354,35.521406 45.187328,34.429505 48.051774,6.8483514 48.051774,0.84290161 47.369336,0.77465799 46.66957,0.74915713 45.915658,0.77614794 z M 57.089651,47.337199 c 2.260327,1.325318 -8.27182,10.165047 -14.545051,9.779002 0.540738,-3.457497 9.561564,-12.701014 14.545051,-9.779002 z"
     id="path863"
     sodipodi:nodetypes="cscccscccccs" />
  <path
     style="color:#000000;fill:url(#radialGradient888);fill-opacity:1;fill-rule:evenodd;stroke:none;stroke-width:5;marker:none;visibility:visible;display:inline;overflow:visible;enable-background:accumulate"
     d="M 44.880977,4.3474666 C 36.822701,4.7715863 12.649404,13.668083 5.863487,28.512276 8.8323257,24.695198 26.780098,14.542888 35.262495,14.542888 L 33.616904,67.433209 C 53.925987,72.141898 68.621666,55.642531 69.045786,46.736014 69.469907,37.829497 56.330514,32.316585 41.910441,39.526623 c 0,0 2.546416,-31.3620779 2.970536,-35.1791564 z m 8.456846,39.9629424 c 6.083209,-1.598314 8.555783,1.957815 6.744078,5.495467 -1.7701,3.45641 -11.572101,12.444725 -21.609272,10.514499 1.965343,-8.476698 6.454038,-13.800002 14.865194,-16.009966 z"
     id="path55"
     sodipodi:nodetypes="ccccscccscs" />
  <path
     style="color:#000000;fill:#cbff87;fill-opacity:1;fill-rule:evenodd;stroke:none;stroke-width:5;marker:none;visibility:visible;display:inline;overflow:visible;enable-background:accumulate"
     d="M 44.8476,4.8814955 43.960265,6.2377346 40.989729,42.676252 c 5.790675,-4.053473 16.401117,-7.358324 23.349927,-3.883918 0.426515,0.213256 0.733247,0.354123 1.101435,0.534028 -4.826001,-3.763762 -13.891624,-4.619255 -23.53065,0.200261 0,0 2.444561,-29.907078 2.937159,-34.6451275 z"
     id="path842"
     sodipodi:nodetypes="cccsccc" />
  <path
     style="color:#000000;fill:#cbff87;fill-opacity:1;fill-rule:evenodd;stroke:none;stroke-width:5;marker:none;visibility:visible;display:inline;overflow:visible;enable-background:accumulate"
     d="M 44.875 4.34375 C 40.308837 4.5840743 30.56929 7.559577 21.75 12.78125 C 27.685537 10.280099 36.958303 6.862665 44.65625 6.84375 C 44.722961 6.1247998 44.837797 4.6785751 44.875 4.34375 z "
     id="path899" />
  <path
     style="color:#000000;fill:#34674b;fill-opacity:1;fill-rule:evenodd;stroke:none;stroke-width:5;marker:none;visibility:visible;display:inline;overflow:visible;enable-background:accumulate"
     d="M 8.9375,25.8125 C 15.215337,21.251816 28.358052,14.53125 35.25,14.53125 L 33.625,67.4375 c 0.666347,0.154493 1.010822,0.291617 1.664777,0.401466 0.110335,-2.333417 3.104712,-53.323582 3.104712,-55.562257 C 27.542619,12.98596 17.021864,18.976118 8.9375,25.8125 z"
     id="path904"
     sodipodi:nodetypes="cccccc" />
</svg>
