<?xml version="1.0" encoding="UTF-8" standalone="no"?>
<!-- Created with Inkscape (http://www.inkscape.org/) -->
<svg
   xmlns:dc="http://purl.org/dc/elements/1.1/"
   xmlns:cc="http://creativecommons.org/ns#"
   xmlns:rdf="http://www.w3.org/1999/02/22-rdf-syntax-ns#"
   xmlns:svg="http://www.w3.org/2000/svg"
   xmlns="http://www.w3.org/2000/svg"
   xmlns:xlink="http://www.w3.org/1999/xlink"
   xmlns:sodipodi="http://sodipodi.sourceforge.net/DTD/sodipodi-0.dtd"
   xmlns:inkscape="http://www.inkscape.org/namespaces/inkscape"
   width="90"
   height="90"
   id="svg2"
   sodipodi:version="0.32"
   inkscape:version="0.46+devel"
   version="1.0"
   sodipodi:docname="nautilus-actions.svg"
   inkscape:output_extension="org.inkscape.output.svg.inkscape">
  <defs
     id="defs4">
    <linearGradient
       inkscape:collect="always"
       id="linearGradient3455">
      <stop
         style="stop-color:#ed0000;stop-opacity:0.68127489"
         offset="0"
         id="stop3457" />
      <stop
         style="stop-color:#ed0000;stop-opacity:0;"
         offset="1"
         id="stop3459" />
    </linearGradient>
    <linearGradient
       inkscape:collect="always"
       id="linearGradient3443">
      <stop
         style="stop-color:#ed0000;stop-opacity:0.58167332"
         offset="0"
         id="stop3445" />
      <stop
         style="stop-color:#ed0000;stop-opacity:0"
         offset="1"
         id="stop3447" />
    </linearGradient>
    <linearGradient
       inkscape:collect="always"
       id="linearGradient3321">
      <stop
         style="stop-color:#b01911;stop-opacity:1"
         offset="0"
         id="stop3323" />
      <stop
         style="stop-color:#ff933d;stop-opacity:1"
         offset="1"
         id="stop3325" />
    </linearGradient>
    <linearGradient
       inkscape:collect="always"
       id="linearGradient3313">
      <stop
         style="stop-color:#f1e36c;stop-opacity:1"
         offset="0"
         id="stop3315" />
      <stop
         style="stop-color:#ff933d;stop-opacity:1"
         offset="1"
         id="stop3317" />
    </linearGradient>
    <linearGradient
       inkscape:collect="always"
       id="linearGradient3303">
      <stop
         style="stop-color:#b01911;stop-opacity:1"
         offset="0"
         id="stop3305" />
      <stop
         style="stop-color:#ff933d;stop-opacity:1"
         offset="1"
         id="stop3307" />
    </linearGradient>
    <radialGradient
       inkscape:collect="always"
       xlink:href="#linearGradient3313"
       id="radialGradient2592"
       gradientUnits="userSpaceOnUse"
       gradientTransform="matrix(1.0927055,9.2098687e-2,-0.1144219,1.3575596,1.7305495,-22.345058)"
       cx="39.982643"
       cy="52.936577"
       fx="39.982643"
       fy="52.936577"
       r="31.671507" />
    <linearGradient
       inkscape:collect="always"
       xlink:href="#linearGradient3303"
       id="linearGradient2594"
       gradientUnits="userSpaceOnUse"
       gradientTransform="matrix(0.9854955,8.439532e-2,-8.439532e-2,0.9854955,4.5589448,-3.8752146)"
       x1="38.791256"
       y1="21.898066"
       x2="19.22401"
       y2="38.160019" />
    <radialGradient
       inkscape:collect="always"
       xlink:href="#linearGradient3443"
       id="radialGradient2598"
       gradientUnits="userSpaceOnUse"
       gradientTransform="matrix(1.2997737,0.7967608,-0.8096296,1.320767,19.703655,-40.780573)"
       cx="35.711781"
       cy="38.159981"
       fx="35.711781"
       fy="38.159981"
       r="10.445317" />
    <radialGradient
       inkscape:collect="always"
       xlink:href="#linearGradient3455"
       id="radialGradient2600"
       gradientUnits="userSpaceOnUse"
       gradientTransform="matrix(1.0932384,1.7416029e-3,-1.5256952e-3,0.9577089,-3.4206675,1.9432778)"
       cx="37.516502"
       cy="50.673042"
       fx="37.516502"
       fy="50.673042"
       r="5.5368166" />
    <linearGradient
       inkscape:collect="always"
       xlink:href="#linearGradient3321"
       id="linearGradient2604"
       gradientUnits="userSpaceOnUse"
       gradientTransform="matrix(0.9854955,8.439532e-2,-8.439532e-2,0.9854955,4.5589448,-3.8752146)"
       x1="41.150127"
       y1="35.878273"
       x2="48.871483"
       y2="11.786496" />
  </defs>
  <sodipodi:namedview
     id="base"
     pagecolor="#ffffff"
     bordercolor="#666666"
     borderopacity="1.0"
     gridtolerance="10000"
     guidetolerance="10"
     objecttolerance="10"
     inkscape:pageopacity="0.0"
     inkscape:pageshadow="2"
     inkscape:zoom="4.1090761"
     inkscape:cx="34.075673"
     inkscape:cy="50.634626"
     inkscape:document-units="px"
     inkscape:current-layer="layer1"
     showgrid="false"
     showguides="true"
     inkscape:guide-bbox="true"
     inkscape:window-width="1023"
     inkscape:window-height="736"
     inkscape:window-x="0"
     inkscape:window-y="1" />
  <metadata
     id="metadata7">
    <rdf:RDF>
      <cc:Work
         rdf:about="">
        <dc:format>image/svg+xml</dc:format>
        <dc:type
           rdf:resource="http://purl.org/dc/dcmitype/StillImage" />
      </cc:Work>
    </rdf:RDF>
  </metadata>
  <g
     inkscape:label="Layer 1"
     inkscape:groupmode="layer"
     id="layer1">
    <g
       id="g3714"
       transform="matrix(1.0350654,0,0,1.0350654,-5.8966919,-0.873746)">
      <path
         style="fill:#000000;fill-opacity:1;fill-rule:evenodd;stroke:none"
         d="m 80.331314,18.21497 4.417956,16.963613 -8.147867,1.710438 0.395659,6.548404 8.192289,2.043919 -5.285021,15.701817 -8.142471,-2.955463 -3.236749,5.05954 5.175453,5.903922 -10.430332,9.945236 -4.318049,-5.753823 -5.19178,1.349091 0.009739,6.539898 -15.466267,2.212109 0,-7.519822 -5.899939,-2.823815 -5.550244,5.98663 -9.974461,-7.733141 6.843791,-11.175413 40.159192,-37.889985 c 1.513707,-1.26142 14.023671,-3.152727 16.449101,-4.113155 z"
         id="path621"
         sodipodi:nodetypes="ccccccccccccccccccccc" />
      <path
         sodipodi:nodetypes="cccccccccccccccccccc"
         style="fill:#000000;fill-opacity:0.29411765;fill-rule:evenodd;stroke:none"
         d="m 87.348459,37.679355 -11.202122,1.695347 -0.223669,6.426157 11.047615,3.258334 -4.868917,16.146759 -8.983945,-3.409554 -3.765573,4.725082 5.578496,7.276288 -11.399531,9.944271 -4.608321,-7.03375 -6.548665,0.970169 0.727631,7.276296 -16.978021,2.42543 0.485084,-8.246466 -4.123228,-1.697798 -5.33595,7.03375 -10.875064,-8.545383 11.020634,-16.356619 41.13764,-34.775095 c 0,0.970168 14.554227,-4.151955 14.554227,-4.151955"
         id="path628" />
      <path
         sodipodi:nodetypes="ccccccccccccccccccccc"
         style="fill:#d8d8d8;fill-opacity:1;fill-rule:evenodd;stroke:none"
         d="m 77.903511,21.5006 3.680578,11.614785 -6.811713,2.535551 -0.286612,9.478639 7.393202,2.873386 -3.757447,9.962687 -6.877473,-2.55338 -5.574017,8.519353 4.606678,4.606685 -6.063581,6.063573 -4.850859,-4.365774 -8.48901,3.395606 0.242546,5.821035 -10.671902,0.72763 0,-6.063582 -8.003926,-3.880689 -5.335943,4.123236 -6.79121,-5.335951 3.638151,-6.06358 38.235032,-38.483983 z"
         id="path620" />
      <path
         style="fill:#ffffff;fill-opacity:1;fill-rule:evenodd;stroke:none"
         d="m 74.651378,35.651153 0.510526,-2.152028 4.346803,-1.97738 -3.019203,-7.000806 2.169124,-0.688852 2.98501,9.399549 z"
         id="path624" />
      <path
         sodipodi:nodetypes="ccccccc"
         style="fill:#ffffff;fill-opacity:1;fill-rule:evenodd;stroke:none"
         d="m 75.857021,45.685186 1.812505,2.251408 2.575718,1.054645 -3.043863,8.554449 1.031767,0.509074 3.669352,-10.077061 z"
         id="path625" />
      <path
         sodipodi:nodetypes="ccccc"
         style="fill:#ffffff;fill-opacity:1;fill-rule:evenodd;stroke:none"
         d="m 70.562588,68.687317 -6.013389,5.292614 2.816994,-5.441625 -1.816202,-4.60586 z"
         id="path626" />
      <path
         style="fill:#ffffff;fill-opacity:1;fill-rule:evenodd;stroke:none"
         d="m 50.873257,73.389164 -2.182884,0.727631 0.242539,5.335951 2.42543,0 z"
         id="path627" />
    </g>
    <g
       id="g3605"
       transform="matrix(0.780037,0,0,0.780037,4.0076089,2.3343313)">
      <path
         transform="matrix(0.9854955,8.439532e-2,-8.439532e-2,0.9854955,4.5589448,-3.8752146)"
         d="m 35.4375,-0.25 c -4.360623,-0.2011956 -8.89469,0.14029224 -13.53125,1.09375 -6.69055,1.3758379 -11.769351,6.2893193 -14,11.625 -2.2306485,5.335681 -2.3799138,10.986629 -1.5625,16.28125 0.8174138,5.294621 2.6060773,10.272622 5.4375,14.46875 0.521074,0.772224 1.174132,1.534634 1.8125,2.28125 -0.55003,1.116896 -1.011088,2.270635 -1.40625,3.4375 -1.711586,5.0541 -2.151544,10.863272 -0.90625,16.75 2.490589,11.773456 13.423931,23.518866 31.9375,24.28125 22.141207,0.911771 38.915695,-16.915282 40.71875,-38.78125 1.927213,-23.371679 -18.075889,-50.0337568 -48.5,-51.4375 z"
         id="path3301"
         style="opacity:1;color:#000000;fill:#593a28;fill-opacity:1;fill-rule:evenodd;stroke:none;stroke-width:0.5;marker:none;marker-start:none;marker-mid:none;marker-end:none;visibility:visible;display:inline;overflow:visible;enable-background:accumulate"
         inkscape:original="M 35.09375 7.125 C 31.37021 6.9531989 27.477356 7.2565716 23.40625 8.09375 C 5.7069503 11.733416 14.518284 44.563337 25.1875 43.875 C 14.756766 47.614073 11.72632 81.284032 43.53125 82.59375 C 61.731473 83.343232 75.020306 69.296206 76.5625 50.59375 C 78.075737 32.242433 61.158532 8.3276074 35.09375 7.125 z "
         inkscape:radius="7.3908501"
         sodipodi:type="inkscape:offset" />
      <path
         sodipodi:nodetypes="csssc"
         id="path3253"
         d="M 25.672066,41.483881 C 15.077063,44.288413 9.2605774,77.226522 40.493658,81.201432 58.366643,83.476055 72.631503,70.741955 75.729728,52.440924 79.204075,31.918147 59.602032,2.2189421 26.940345,6.0705687 9.1905967,8.1637058 15.099509,41.261803 25.672066,41.483881 z"
         style="opacity:1;color:#000000;fill:url(#radialGradient2592);fill-opacity:1;fill-rule:evenodd;stroke:none;stroke-width:0.5;marker:none;marker-start:none;marker-mid:none;marker-end:none;visibility:visible;display:inline;overflow:visible;enable-background:accumulate" />
      <path
         sodipodi:nodetypes="csc"
         id="path2481"
         d="M 25.688208,6.0031698 C 9.5321658,8.9206043 13.994871,38.696599 24.512859,39.393488 35.94767,40.152347 43.027999,7.1512425 25.688208,6.0031698 z"
         style="opacity:1;color:#000000;fill:url(#linearGradient2594);fill-opacity:1;fill-rule:evenodd;stroke:none;stroke-width:0.5;marker:none;marker-start:none;marker-mid:none;marker-end:none;visibility:visible;display:inline;overflow:visible;enable-background:accumulate" />
      <path
         sodipodi:nodetypes="ccccc"
         id="path3257"
         d="M 41.582932,6.8974433 C 47.912828,9.2742522 50.80205,31.448978 39.35395,37.628527 40.175174,37.96735 41.000205,38.261752 41.724974,38.681818 45.456573,39.001384 59.472928,23.733856 53.70964,11.605409 49.170566,8.1737228 45.006143,7.6828432 41.582932,6.8974433 z"
         style="opacity:1;color:#000000;fill:url(#linearGradient2604);fill-opacity:1;fill-rule:evenodd;stroke:none;stroke-width:0.5;marker:none;marker-start:none;marker-mid:none;marker-end:none;visibility:visible;display:inline;overflow:visible;enable-background:accumulate" />
      <use
         height="90"
         width="90"
         transform="matrix(0.7423346,0.5180452,-0.5180452,0.7423346,37.515102,-6.1674414)"
         id="use3265"
         xlink:href="#path3257"
         y="0"
         x="0" />
      <use
         height="90"
         width="90"
         transform="matrix(0.351725,0.7938671,-0.7938671,0.351725,65.662385,3.6558367)"
         id="use3267"
         xlink:href="#path3257"
         y="0"
         x="0" />
      <use
         x="0"
         y="0"
         xlink:href="#path3257"
         id="use3269"
         transform="matrix(-9.2655082e-2,0.812547,-0.812547,-9.2655082e-2,83.359252,25.637665)"
         width="90"
         height="90" />
      <use
         height="90"
         width="90"
         transform="matrix(-0.482939,0.6051689,-0.6051689,-0.482939,88.078719,52.137439)"
         id="use3271"
         xlink:href="#path3257"
         y="0"
         x="0" />
      <use
         x="0"
         y="0"
         xlink:href="#path3257"
         id="use3273"
         transform="matrix(-0.6633744,0.2103526,-0.2103526,-0.6633744,76.082352,76.924265)"
         width="90"
         height="90" />
      <use
         height="90"
         width="90"
         transform="matrix(-0.688544,-0.1187513,0.1187513,-0.688544,60.906073,89.019118)"
         id="use3275"
         xlink:href="#path3257"
         y="0"
         x="0" />
      <use
         x="0"
         y="0"
         xlink:href="#path3257"
         id="use3277"
         transform="matrix(-0.3677137,-0.5023282,0.5023282,-0.3677137,31.373205,90.713178)"
         width="90"
         height="90" />
      <use
         height="90"
         width="90"
         transform="matrix(3.2054687e-2,-0.5278139,0.5278139,3.2054687e-2,13.017492,74.01968)"
         id="use3279"
         xlink:href="#path3257"
         y="0"
         x="0" />
      <use
         x="0"
         y="0"
         xlink:href="#path3257"
         id="use3281"
         transform="matrix(0.2857647,-0.3091708,0.3091708,0.2857647,12.765636,52.422246)"
         width="90"
         height="90" />
      <use
         height="90"
         width="90"
         transform="matrix(0.3539641,-3.4236262e-2,3.4236262e-2,0.3539641,22.826957,37.95947)"
         id="use3283"
         xlink:href="#path3257"
         y="0"
         x="0" />
      <use
         x="0"
         y="0"
         xlink:href="#path3257"
         id="use3285"
         transform="matrix(0.2572048,0.2118378,-0.2118378,0.2572048,37.336692,32.069988)"
         width="90"
         height="90" />
      <use
         height="90"
         width="90"
         transform="matrix(3.1918134e-2,0.2932443,-0.2932443,3.1918134e-2,50.220959,38.324917)"
         id="use3287"
         xlink:href="#path3257"
         y="0"
         x="0" />
      <use
         x="0"
         y="0"
         xlink:href="#path3257"
         id="use3289"
         transform="matrix(-0.1661428,0.1919386,-0.1919386,-0.1661428,54.194887,50.93811)"
         width="90"
         height="90" />
      <use
         height="90"
         width="90"
         transform="matrix(-0.1978602,1.6925135e-2,-1.6925135e-2,-0.1978602,48.08925,59.753817)"
         id="use3291"
         xlink:href="#path3257"
         y="0"
         x="0" />
      <use
         x="0"
         y="0"
         xlink:href="#path3257"
         id="use3293"
         transform="matrix(-5.8911381e-2,-0.1224193,0.1224193,-5.8911381e-2,36.553901,60.358204)"
         width="90"
         height="90" />
      <path
         id="path3441"
         d="m 36.223709,21.25239 c 10.755259,0 21.338433,12.820268 13.766731,25.210325 -2.06501,-3.699809 -6.367113,-9.636711 -18.32696,-8.087954 2.839388,-6.625239 5.334608,-10.152964 4.560229,-17.122371 z"
         style="opacity:1;color:#000000;fill:url(#radialGradient2598);fill-opacity:1;fill-rule:evenodd;stroke:none;stroke-width:0.5;marker:none;marker-start:none;marker-mid:none;marker-end:none;visibility:visible;display:inline;overflow:visible;enable-background:accumulate" />
      <path
         sodipodi:nodetypes="cscsc"
         id="path3453"
         d="m 34.416826,54.206501 c -7.445548,-5.506692 -1.634799,-10.066922 3.011472,-9.722754 4.646272,0.344168 10.841301,9.034418 3.097515,7.571702 0.172084,-2.409178 -2.06501,-1.892925 -3.355641,-1.634799 -1.290631,0.258126 -2.753346,2.06501 -2.753346,3.785851 z"
         style="opacity:1;color:#000000;fill:url(#radialGradient2600);fill-opacity:1;fill-rule:evenodd;stroke:none;stroke-width:0.5;marker:none;marker-start:none;marker-mid:none;marker-end:none;visibility:visible;display:inline;overflow:visible;enable-background:accumulate" />
      <path
         sodipodi:nodetypes="cssssssscccsccc"
         id="path3255"
         d="m 34.752796,39.192632 c 17.280879,0.051039 14.213065,12.256875 13.549471,14.661084 -1.008785,3.654833 -9.84048,9.155793 -12.878866,0.77624 -1.853715,-5.112363 7.582168,-4.429261 3.440021,-2.267884 -3.20228,1.670955 2.372335,1.544574 2.546611,-0.490482 0.174277,-2.035058 -1.9514,-4.004979 -5.793142,-2.041843 -3.873113,1.979166 -2.096805,11.164797 6.296745,11.000234 7.705025,-0.15248 11.878082,-11.276483 8.019139,-17.390583 -4.595107,-7.280479 -13.291991,-7.910896 -16.064357,-7.648296 3.761765,-2.891502 8.534057,-27.9442303 -5.734881,-29.9588047 -1.030518,0.078152 -2.457978,0.1427155 -3.651709,0.400677 13.220145,0.3135177 12.086806,21.2098697 6.998456,29.0254317 -1.229633,1.888676 -8.131394,6.955263 -13.246795,-0.447219 -2.356883,3.321286 4.655732,6.852947 7.280963,6.703224 2.873098,-1.208976 6.577958,-2.175914 9.238344,-2.321779 z"
         style="opacity:1;color:#000000;fill:#593a28;fill-opacity:1;fill-rule:evenodd;stroke:none;stroke-width:0.5;marker:none;marker-start:none;marker-mid:none;marker-end:none;visibility:visible;display:inline;overflow:visible;enable-background:accumulate" />
    </g>
  </g>
</svg>
