<?xml version="1.0" encoding="UTF-8" standalone="no"?>
<!-- Created with Sodipodi ("http://www.sodipodi.com/") -->
<svg
   xmlns:dc="http://purl.org/dc/elements/1.1/"
   xmlns:cc="http://creativecommons.org/ns#"
   xmlns:rdf="http://www.w3.org/1999/02/22-rdf-syntax-ns#"
   xmlns:svg="http://www.w3.org/2000/svg"
   xmlns="http://www.w3.org/2000/svg"
   xmlns:xlink="http://www.w3.org/1999/xlink"
   xmlns:sodipodi="http://sodipodi.sourceforge.net/DTD/sodipodi-0.dtd"
   xmlns:inkscape="http://www.inkscape.org/namespaces/inkscape"
   id="svg704"
   sodipodi:version="0.32"
   width="72pt"
   height="72pt"
   sodipodi:docname="ndisgtk.svg"
   inkscape:version="0.46+devel"
   inkscape:output_extension="org.inkscape.output.svg.inkscape">
  <metadata
     id="metadata104">
    <rdf:RDF>
      <cc:Work
         rdf:about="">
        <dc:format>image/svg+xml</dc:format>
        <dc:type
           rdf:resource="http://purl.org/dc/dcmitype/StillImage" />
        <dc:title></dc:title>
      </cc:Work>
    </rdf:RDF>
  </metadata>
  <defs
     id="defs706">
    <linearGradient
       inkscape:collect="always"
       id="linearGradient3637">
      <stop
         style="stop-color:#c2c2c2;stop-opacity:1"
         offset="0"
         id="stop3639" />
      <stop
         style="stop-color:#ffffff;stop-opacity:1"
         offset="1"
         id="stop3641" />
    </linearGradient>
    <defs
       id="defs3">
      <sodipodi:namedview
         id="namedview909" />
      <defs
         id="defs550">
        <linearGradient
           x1="0.0000000"
           y1="0.0000000"
           x2="1.0000000"
           y2="0.0000000"
           id="linearGradient632"
           gradientUnits="objectBoundingBox"
           spreadMethod="pad">
          <stop
             style="stop-color:#ffb700;stop-opacity:1;"
             offset="0.000000"
             id="stop633" />
          <stop
             style="stop-color:#ffd58f;stop-opacity:0;"
             offset="1.000000"
             id="stop634" />
        </linearGradient>
        <linearGradient
           x1="0.0000000"
           y1="0.0000000"
           x2="1.0000000"
           y2="0.0000000"
           id="linearGradient556"
           gradientUnits="objectBoundingBox"
           spreadMethod="pad">
          <stop
             style="stop-color:#000000;stop-opacity:1;"
             offset="0.000000"
             id="stop557" />
          <stop
             style="stop-color:#bdf2ff;stop-opacity:0.384314;"
             offset="1.000000"
             id="stop558" />
        </linearGradient>
        <linearGradient
           id="linearGradient559"
           xlink:href="#linearGradient632"
           x1="60.644615"
           y1="19.295689"
           x2="35.370575"
           y2="69.142799"
           gradientUnits="userSpaceOnUse"
           spreadMethod="pad" />
        <linearGradient
           xlink:href="#linearGradient632"
           id="linearGradient631"
           x1="85.637657"
           y1="17.443844"
           x2="73.916298"
           y2="54.628181"
           gradientUnits="userSpaceOnUse"
           spreadMethod="pad"
           gradientTransform="scale(0.740666,1.350136)" />
      </defs>
    </defs>
    <linearGradient
       inkscape:collect="always"
       xlink:href="#linearGradient3637"
       id="linearGradient2740"
       gradientUnits="userSpaceOnUse"
       gradientTransform="matrix(0.9819556,0,0,0.9819556,0.4295869,0.5736568)"
       x1="39.061699"
       y1="76.055305"
       x2="47.057175"
       y2="29.210941" />
  </defs>
  <sodipodi:namedview
     id="base"
     inkscape:zoom="3.5649966"
     inkscape:cx="38.067756"
     inkscape:cy="47.663179"
     inkscape:window-width="883"
     inkscape:window-height="732"
     inkscape:window-x="5"
     inkscape:window-y="1"
     inkscape:current-layer="svg704"
     showgrid="false" />
  <g
     id="g2732"
     transform="matrix(0.99172326,0,0,0.99172326,-7.1517307,-0.55056628)">
    <path
       sodipodi:nodetypes="csscc"
       id="path3667"
       d="m 18.057978,83.440784 c 8.263308,6.88609 22.586376,4.682541 28.646136,4.682541 6.059759,0 22.175298,2.063739 26.718031,-2.478993 4.957985,-4.957984 6.610646,-20.382826 8.538751,-28.921579 -8.76727,1.845321 -66.106467,17.077504 -63.902918,26.718031 z"
       style="color:#000000;fill:#000000;fill-opacity:0.29411765;fill-rule:nonzero;stroke:none;stroke-width:7;marker:none;visibility:visible;display:inline;overflow:visible;enable-background:accumulate" />
    <path
       transform="matrix(0.8898846,0,0,0.8898846,6.2591291,9.877615)"
       d="M 45.15625,9.1875 A 6.3979371,6.3979371 0 0 0 39.375,13.15625 L 36.71875,19.625 A 6.3979371,6.3979371 0 0 0 36.6875,19.65625 L 13.28125,76.9375 a 6.3979371,6.3979371 0 0 0 5.9375,8.8125 l 6.1875,0 a 6.3979371,6.3979371 0 0 0 5.90625,-4 l 3.9375,-9.65625 26.65625,13 a 6.3979371,6.3979371 0 0 0 2.8125,0.65625 l 6.8125,0 A 6.3979371,6.3979371 0 0 0 77.4375,76.875 L 76.25,74.03125 53.84375,19.625 51.1875,13.15625 A 6.3979371,6.3979371 0 0 0 45.15625,9.1875 z"
       id="path3587"
       style="color:#000000;fill:#383e49;fill-opacity:1;stroke:none;stroke-width:5.73831511;marker:none;visibility:visible;display:inline;overflow:visible;enable-background:accumulate"
       inkscape:original="M 45.28125 15.59375 L 42.625 22.0625 L 19.21875 79.34375 L 25.40625 79.34375 L 31.9375 63.375 L 33.0625 63.90625 L 64.71875 79.34375 L 71.53125 79.34375 L 70.34375 76.5 L 47.9375 22.0625 L 45.28125 15.59375 z M 45.28125 30.71875 L 51.96875 46.9375 L 41.59375 39.71875 L 45.28125 30.71875 z M 39.375 45.15625 L 47.84375 51.0625 L 34.03125 58.25 L 39.375 45.15625 z M 54.84375 53.90625 L 62.1875 71.71875 L 40.71875 61.25 L 54.71875 53.96875 L 54.84375 53.90625 z "
       inkscape:radius="6.3972974"
       sodipodi:type="inkscape:offset" />
    <path
       id="path3567"
       d="m 46.554214,23.754252 -2.363756,5.756441 -20.82886,50.9737 5.506161,0 5.812058,-14.210344 1.001121,0.472751 28.170409,13.737593 6.062338,0 -1.056739,-2.53061 -19.938975,-48.443091 z m 0,0 m 0,0 m 0,0 m 0,0 m 0,0 m 0,0 m 0,0 m 0,0 m 0,13.459504 5.951103,14.432815 -9.232552,-6.423854 z m 0,0 m 0,0 m 0,0 m 0,0 m 0,0 m 0,0 m 0,0 m 0,0 m -5.255881,12.847709 7.536211,5.25588 -12.291531,6.396046 z m 0,0 m 0,0 m 0,0 m 0,0 m 0,0 m 0,0 m 0,0 m 0,0 M 55.063736,57.847954 61.598825,73.699023 42.494116,64.383044 54.9525,57.903572 z"
       clip-path="none"
       style="color:#000000;fill:url(#linearGradient2740);fill-opacity:1;stroke:none;stroke-width:5.73831511;marker:none;visibility:visible;display:inline;overflow:visible;enable-background:accumulate" />
    <path
       id="path3589"
       d="m 55.481461,12.91856 -5.1345,2.879483 c 3.970109,1.459264 6.765051,5.253244 6.765051,9.74861 10e-7,4.848285 -3.269051,8.859953 -7.736442,10.026151 l 5.307962,3.12233 c 4.443644,-2.705071 7.42421,-7.585047 7.424208,-13.148481 2e-6,-5.220746 -2.631123,-9.842346 -6.626279,-12.628094 z m 0,0 m 0,0 m 0,0 m 0,0 m 0,0 m 0,0 m 0,0 m 0,0 m 0,0 m -18.074826,0.381617 c -3.711696,2.816066 -6.105892,7.257433 -6.105891,12.246476 0,5.342829 2.737261,10.074254 6.90382,12.836249 l 5.030421,-3.052947 c -4.051476,-1.422783 -6.938512,-5.238179 -6.938512,-9.783302 -3e-6,-4.286942 2.55209,-7.945091 6.244661,-9.540456 z"
       style="color:#000000;fill:#558ada;fill-opacity:1;stroke:none;stroke-width:3.53705025;marker:none;visibility:visible;display:inline;overflow:visible;enable-background:accumulate" />
    <path
       id="path3593"
       d="m 66.132077,6.882054 -4.544726,2.5672497 c 4.311939,4.0057663 7.007898,9.7208633 7.007898,16.0973503 0,6.751217 -3.007577,12.769214 -7.771135,16.7912 l 4.510034,2.636634 c 5.099161,-4.91387 8.291525,-11.807635 8.291523,-19.427835 -10e-7,-7.226483 -2.849573,-13.812791 -7.493594,-18.6645996 z m 0,0 m 0,0 m 0,0 m 0,0 m 0,0 m 0,0 m 0,0 m 0,0 m 0,0 M 26.651941,7.6105978 c -4.269262,4.7734932 -6.86913,11.0613112 -6.869128,17.9360562 0,7.453869 3.053129,14.224589 7.97929,19.115602 l 4.47534,-2.706019 c -4.541001,-4.017234 -7.424208,-9.86018 -7.424208,-16.409583 -2e-6,-6.064421 2.449888,-11.53934 6.418123,-15.507576 z"
       style="color:#000000;fill:#558ada;fill-opacity:1;stroke:none;stroke-width:1.8686018;marker:none;visibility:visible;display:inline;overflow:visible;enable-background:accumulate" />
    <path
       id="path3595"
       d="m 76.088844,1.2618586 -4.405956,2.4978646 c 5.087349,5.8186029 8.187444,13.4297478 8.187444,21.7869288 2e-6,8.800589 -3.441469,16.766366 -9.020067,22.688937 l 4.405956,2.601943 c 5.977709,-6.73145 9.609842,-15.595138 9.609841,-25.29088 -10e-7,-9.234176 -3.299428,-17.6837242 -8.777219,-24.2847942 z m 0,0 m 0,0 m 0,0 m 0,0 m 0,0 m 0,0 m 0,0 m 0,0 m 0,0 M 16.556405,2.2332505 C 11.528164,8.6829087 8.5424211,16.765008 8.5424222,25.546654 c 0,9.566381 3.5728028,18.315932 9.4363768,25.013338 L 22.31537,47.95805 C 16.869304,42.0663 13.538151,34.203232 13.538151,25.546654 c -2e-6,-7.950991 2.81566,-15.219388 7.493594,-20.919616 z"
       style="color:#000000;fill:#558ada;fill-opacity:1;stroke:none;stroke-width:1.28077888;marker:none;visibility:visible;display:inline;overflow:visible;enable-background:accumulate" />
  </g>
  <g
     id="g645"
     transform="matrix(0.567107,0,0,0.567107,38.489846,38.196056)">
    <path
       style="fill:#000000;fill-opacity:0.39449499;fill-rule:evenodd;stroke:none"
       d="M 14.3442,10.804 C 7.87919,32.2193 2.6264,49.5939 -2.0203,75.0497 c 8.88934,-2.2223 22.6274,-8.2832 33.3351,2.0204 9.4954,5.8588 21.2131,9.2934 39.3959,1.8182 C 73.135,73.0294 87.0752,17.269 88.6915,11.8142 77.7818,13.6325 67.0742,17.269 53.7402,9.38981 45.2548,1.51062 21.8193,1.71265 14.3442,10.804 z"
       id="path572"
       sodipodi:nodetypes="ccccccc"
       transform="matrix(0.899777,0,0,0.899777,8.888897,14.59805)" />
    <path
       style="fill:#000000;fill-opacity:1;fill-rule:evenodd;stroke:none"
       d="M 13.2215,10.5795 -3.14297,74.8252 c 8.88934,-2.2223 22.91867,-6.9863 34.45777,2.2449 8.664,6.9312 20.9886,9.7425 39.1714,2.2673 L 89.5896,11.5897 C 78.6799,13.408 66.8989,17.0595 54.4138,8.0426 45.0795,1.30118 20.6966,1.48812 13.2215,10.5795 z"
       id="path571"
       sodipodi:nodetypes="ccsccsc"
       transform="matrix(0.899777,0,0,0.899777,3.636097,7.729015)" />
    <path
       style="fill:#2e70ff;fill-opacity:1;fill-rule:evenodd;stroke:none"
       d="M 41.1429,43.7143 C 37.9524,52.4762 36.0477,57.8095 32.9999,69 28,66.4286 18.5714,60.7142 4.57142,67.5713 6.71429,58.4285 9.28571,49 11.4286,41.4286 16.8571,37.7142 32.8571,36 41.1429,43.7143 z"
       id="path567"
       sodipodi:nodetypes="ccccc"
       transform="matrix(0.899777,0,0,0.899777,3.636097,7.729015)" />
    <path
       style="fill:#ffd80d;fill-opacity:1;fill-rule:evenodd;stroke:none"
       d="M 43.1429,44.8572 C 55.7143,53.1429 70,48.5715 72.2858,48.2857 70.8572,54 66.8571,69.7143 65.1429,74 c -14.8571,6.2858 -22.2857,2.5714 -30,-3.1428 1.7142,-6.2857 6.4286,-22.2858 8,-26 z"
       id="path568"
       sodipodi:nodetypes="ccccc"
       transform="matrix(0.899777,0,0,0.899777,3.636097,7.729015)" />
    <path
       style="fill:#55c800;fill-opacity:1;fill-rule:evenodd;stroke:none"
       d="m 43.8572,45.0001 c 12.5714,8.2857 26.9999,2.4285 29.2857,2.1427 -1.4286,5.7143 -6.2858,22.5715 -8,26.8572 -11,6.1429 -23.2857,2.7142 -30,-2.5714 C 37.1428,65 42.4286,49.7143 43.8572,45.0001 z"
       id="path569"
       sodipodi:nodetypes="ccccc"
       transform="matrix(0.899777,0,0,0.899777,11.34848,-19.00723)" />
    <path
       style="fill:#f13009;fill-opacity:1;fill-rule:evenodd;stroke:none"
       d="M 41.1429,43.7143 C 37.9524,52.6191 35.9048,58.9523 32.5714,69.4285 28.2857,67.7142 17.7143,61.1428 3.71428,67.9999 6,58.5714 8.57143,48.5714 11.4286,41.4286 16.8571,37.7142 32.8571,36 41.1429,43.7143 z"
       id="path570"
       sodipodi:nodetypes="ccccc"
       transform="matrix(0.899777,0,0,0.899777,11.60555,-19.26431)" />
  </g>
</svg>
