<?xml version="1.0" encoding="UTF-8" standalone="no"?>
<!-- Created with Sodipodi ("http://www.sodipodi.com/") -->
<svg
   xmlns:dc="http://purl.org/dc/elements/1.1/"
   xmlns:cc="http://creativecommons.org/ns#"
   xmlns:rdf="http://www.w3.org/1999/02/22-rdf-syntax-ns#"
   xmlns:svg="http://www.w3.org/2000/svg"
   xmlns="http://www.w3.org/2000/svg"
   xmlns:xlink="http://www.w3.org/1999/xlink"
   xmlns:sodipodi="http://sodipodi.sourceforge.net/DTD/sodipodi-0.dtd"
   xmlns:inkscape="http://www.inkscape.org/namespaces/inkscape"
   version="1.0"
   x="0"
   y="0"
   width="90"
   height="90"
   id="svg602"
   xml:space="preserve"
   sodipodi:version="0.32"
   inkscape:version="0.46+devel"
   sodipodi:docname="onboard.svg"
   sodipodi:docbase="/home/tweenk/GNUtoon/devices"
   inkscape:output_extension="org.inkscape.output.svg.inkscape"><metadata
     id="metadata4130"><rdf:RDF><cc:Work
         rdf:about=""><dc:format>image/svg+xml</dc:format><dc:type
           rdf:resource="http://purl.org/dc/dcmitype/StillImage" /></cc:Work></rdf:RDF></metadata><sodipodi:namedview
     inkscape:window-height="724"
     inkscape:window-width="795"
     inkscape:pageshadow="2"
     inkscape:pageopacity="0.0"
     guidetolerance="10.0"
     gridtolerance="10.0"
     objecttolerance="10.0"
     borderopacity="1.0"
     bordercolor="#666666"
     pagecolor="#ffffff"
     id="base"
     inkscape:zoom="4.5222224"
     inkscape:cx="17.768944"
     inkscape:cy="48.391108"
     inkscape:window-x="114"
     inkscape:window-y="9"
     inkscape:current-layer="svg602"
     showgrid="false" /><defs
     id="defs604"><inkscape:perspective
       sodipodi:type="inkscape:persp3d"
       inkscape:vp_x="0 : 45 : 1"
       inkscape:vp_y="0 : 1000 : 0"
       inkscape:vp_z="90 : 45 : 1"
       inkscape:persp3d-origin="45 : 30 : 1"
       id="perspective32" /><linearGradient
       gradientTransform="matrix(1.0412793,0,0,1.0412793,23.072054,25.892801)"
       y2="8.9076576"
       x2="9.8321218"
       y1="17.663967"
       x1="53.999454"
       gradientUnits="userSpaceOnUse"
       id="linearGradient12165"
       xlink:href="#linearGradient12147"
       inkscape:collect="always" /><linearGradient
       gradientTransform="matrix(1.0412793,0,0,1.0412793,23.072054,25.892801)"
       y2="48.034405"
       x2="25.697926"
       y1="22.390924"
       x1="31.135588"
       gradientUnits="userSpaceOnUse"
       id="linearGradient12163"
       xlink:href="#linearGradient11160"
       inkscape:collect="always" /><linearGradient
       gradientUnits="userSpaceOnUse"
       y2="8.9076576"
       x2="9.8321218"
       y1="17.663967"
       x1="53.999454"
       id="linearGradient12153"
       xlink:href="#linearGradient12147"
       inkscape:collect="always" /><linearGradient
       gradientUnits="userSpaceOnUse"
       y2="48.034405"
       x2="25.697926"
       y1="22.390924"
       x1="31.135588"
       id="linearGradient11166"
       xlink:href="#linearGradient11160"
       inkscape:collect="always" /><linearGradient
       id="linearGradient11160"><stop
         id="stop11162"
         offset="0"
         style="stop-color:#ffffff;stop-opacity:1;" /><stop
         id="stop11164"
         offset="1"
         style="stop-color:#c2c2c2;stop-opacity:1;" /></linearGradient><linearGradient
       id="linearGradient12147"><stop
         id="stop12149"
         offset="0"
         style="stop-color:#ff933d;stop-opacity:1;" /><stop
         id="stop12151"
         offset="1"
         style="stop-color:#ffc93f;stop-opacity:1;" /></linearGradient><inkscape:perspective
       id="perspective2530"
       inkscape:persp3d-origin="45 : 30 : 1"
       inkscape:vp_z="90 : 45 : 1"
       inkscape:vp_y="0 : 1000 : 0"
       inkscape:vp_x="0 : 45 : 1"
       sodipodi:type="inkscape:persp3d" /><linearGradient
       gradientTransform="matrix(1.0412793,0,0,1.0412793,23.072054,25.892801)"
       y2="8.9076576"
       x2="9.8321218"
       y1="17.663967"
       x1="53.999454"
       gradientUnits="userSpaceOnUse"
       id="linearGradient2682"
       xlink:href="#linearGradient12147"
       inkscape:collect="always" /><linearGradient
       gradientTransform="matrix(1.0412793,0,0,1.0412793,23.072054,25.892801)"
       y2="48.034405"
       x2="25.697926"
       y1="22.390924"
       x1="31.135588"
       gradientUnits="userSpaceOnUse"
       id="linearGradient2680"
       xlink:href="#linearGradient11160"
       inkscape:collect="always" /><linearGradient
       gradientUnits="userSpaceOnUse"
       y2="8.9076576"
       x2="9.8321218"
       y1="17.663967"
       x1="53.999454"
       id="linearGradient2678"
       xlink:href="#linearGradient12147"
       inkscape:collect="always" /><linearGradient
       gradientUnits="userSpaceOnUse"
       y2="48.034405"
       x2="25.697926"
       y1="22.390924"
       x1="31.135588"
       id="linearGradient2676"
       xlink:href="#linearGradient11160"
       inkscape:collect="always" /><linearGradient
       id="linearGradient2670"><stop
         id="stop2672"
         offset="0"
         style="stop-color:#ffffff;stop-opacity:1;" /><stop
         id="stop2674"
         offset="1"
         style="stop-color:#c2c2c2;stop-opacity:1;" /></linearGradient><linearGradient
       id="linearGradient2664"><stop
         id="stop2666"
         offset="0"
         style="stop-color:#ff933d;stop-opacity:1;" /><stop
         id="stop2668"
         offset="1"
         style="stop-color:#ffc93f;stop-opacity:1;" /></linearGradient><inkscape:perspective
       id="perspective2661"
       inkscape:persp3d-origin="45 : 30 : 1"
       inkscape:vp_z="90 : 45 : 1"
       inkscape:vp_y="0 : 1000 : 0"
       inkscape:vp_x="0 : 45 : 1"
       sodipodi:type="inkscape:persp3d" /><linearGradient
       inkscape:collect="always"
       xlink:href="#linearGradient11160"
       id="linearGradient2710"
       gradientUnits="userSpaceOnUse"
       gradientTransform="matrix(1.0158809,0,0,1.0158809,23.871848,26.639164)"
       x1="31.135588"
       y1="22.390924"
       x2="25.697926"
       y2="48.034405" /><linearGradient
       inkscape:collect="always"
       xlink:href="#linearGradient12147"
       id="linearGradient2712"
       gradientUnits="userSpaceOnUse"
       gradientTransform="matrix(1.0158809,0,0,1.0158809,23.871848,26.639164)"
       x1="53.999454"
       y1="17.663967"
       x2="9.8321218"
       y2="8.9076576" /></defs><g
     id="g2600"
     transform="matrix(1.0552891,0,0,1.0552891,-3.7597816,-11.948996)"><path
       id="path684"
       style="font-size:12px;fill:none;stroke:#593a28;stroke-width:5.3499999;stroke-linecap:round"
       d="m 28.40699,28.65262 c 0,0 -22.142951,-6.83269 -17.23787,8.39102 4.90508,15.22371 19.05976,23.25511 19.05976,23.25511" /><path
       id="path683"
       style="font-size:12px;fill:#593a28;fill-rule:evenodd;stroke-width:1"
       d="m 10.21814,44.17174 c 0,0 -6.629124,6.18718 -6.187183,9.72272 0.441942,3.53554 5.303306,9.28079 7.071073,10.60661 2.20971,3.0936 1.32582,1.32583 4.86136,1.76776 6.18718,9.28078 14.14213,15.46798 19.88738,17.67769 C 39.38631,82.62069 86.23215,34.44901 87.99991,30.47154 87.55797,26.93601 84.90634,21.63271 79.16108,18.98106 73.41583,16.3294 61.04146,11.0261 58.83175,12.35192 55.29621,11.0261 39.38631,22.51659 36.73465,25.16824 c -1.76776,-1.76776 -4.86136,-2.20971 -6.62912,-1.76777 -1.76777,0.44194 -7.51302,6.18719 -6.62913,7.51301 0.88388,1.32583 1.76777,2.65166 1.76777,2.65166 z" /><path
       id="path682"
       style="font-size:12px;fill:none;stroke:#ed0000;stroke-width:1.97011197;stroke-linecap:round"
       d="m 28.40699,28.65262 c 0,0 -22.142951,-6.83269 -17.23787,8.39102 4.90508,15.22371 19.05976,23.25511 19.05976,23.25511" /><path
       id="path676"
       style="font-size:12px;fill:#ff7068;fill-rule:evenodd;stroke-width:1"
       d="m 30.64932,32.48851 -3.92407,-1.91795 c 0,0 1.54159,-4.31537 3.78391,-3.3564 2.24232,0.95898 4.48465,2.75705 4.48465,2.75705 z" /><path
       id="path652"
       style="font-size:12px;fill:#ff7068;fill-rule:evenodd;stroke-width:1"
       d="m 9.057813,48.52887 c 0,0 -1.302694,2.2285 -0.930494,5.57123 0.930494,2.86519 1.116594,5.25286 9.677151,9.55068 1.86099,2.22848 16.56281,16.39531 18.79599,15.28107 2.2332,-1.11425 46.52479,-47.27584 48.19968,-49.6635 0.18611,-1.4326 0.3722,-3.34274 -1.48879,-3.18356 C 81.45036,26.24397 9.057813,48.52887 9.057813,48.52887 z" /><path
       id="path616"
       style="font-size:12px;fill:#ff933d;fill-rule:evenodd;stroke-width:1"
       d="m 9.982833,47.56079 c 0,0 -2.631844,3.15156 -0.39477,5.40267 2.237057,2.25112 25.134037,22.96138 26.318377,22.96138 1.18433,0 46.97832,-47.16087 48.95219,-48.8492 C 86.83251,25.38731 63.40915,14.80707 59.1982,14.91963 54.98726,15.03218 13.00945,44.52179 9.982833,47.56079 z" /><g
       style="fill:#ffe6ba"
       id="g4142"><path
         d="m 40.88076,61.89982 c 0,0 2.23318,3.66109 3.53588,2.70601 1.30269,-0.95506 25.68167,-23.87667 25.12337,-24.99091 -0.55829,-1.11425 -1.86099,-2.54686 -3.16368,-1.91015 -1.30269,0.63672 -24.75117,23.23997 -25.49557,24.19505 z"
         style="font-size:12px;fill:#ffe6ba;fill-rule:evenodd;stroke-width:1"
         id="path653" /><path
         d="m 10.9188,49.80229 3.34979,2.86521 4.28028,-4.13863 -3.72199,-2.22849 z"
         style="font-size:12px;fill:#ffe6ba;fill-rule:evenodd;stroke-width:1"
         id="path660" /><path
         d="m 18.54887,44.70861 3.34978,2.8652 7.25786,-6.52628 -3.72198,-2.2285 z"
         style="font-size:12px;fill:#ffe6ba;fill-rule:evenodd;stroke-width:1"
         id="path661" /><path
         d="m 28.22601,36.74971 3.53589,3.18356 8.00225,-5.7304 -3.16367,-2.70603 z"
         style="font-size:12px;fill:#ffe6ba;fill-rule:evenodd;stroke-width:1"
         id="path662" /><path
         d="m 39.39197,29.58671 3.16367,2.70602 8.00226,-5.25287 -3.16367,-2.54685 z"
         style="font-size:12px;fill:#ffe6ba;fill-rule:evenodd;stroke-width:1"
         id="path663" /><path
         d="m 51.1162,21.94617 3.34978,2.8652 7.81616,-5.7304 -3.34977,-2.54685 z"
         style="font-size:12px;fill:#ffe6ba;fill-rule:evenodd;stroke-width:1"
         id="path664" /><path
         d="m 58.56017,29.26835 6.69956,4.45698 -5.95516,4.93451 -2.7915,-1.27342 1.48881,-3.18355 -5.76909,-3.34274 z"
         style="font-size:12px;fill:#ffe6ba;fill-rule:evenodd;stroke-width:1"
         id="path665" /><path
         d="M 50.9301,31.81519 15.94348,55.85105 c 0,0 17.67941,17.19122 17.8655,16.71369 0.18611,-0.47754 8.74667,-7.00383 8.74667,-7.00383 l -3.72199,-4.13863 28.28707,-25.46846 -1.3027,-1.43261 -6.88567,5.25288 -3.53587,-2.38767 0.93049,-3.18355 z"
         style="font-size:12px;fill:#ffe6ba;fill-rule:evenodd;stroke-width:1"
         id="path666" /><path
         d="M 63.39875,20.19522 80.51986,25.76644 71.9593,37.38642 56.51307,26.7215 z"
         style="font-size:12px;fill:#ffe6ba;fill-rule:evenodd;stroke-width:1"
         id="path667" /></g><g
       style="fill:#558ada;stroke:#ff933d"
       id="g4132"><path
         d="M 17.19537,58.8603 C 17.75595,58.62055 55.03456,33.44749 55.03456,33.44749"
         style="font-size:12px;fill:#558ada;fill-rule:evenodd;stroke:#ff933d;stroke-width:0.829521"
         id="path668" /><path
         d="M 21.68001,63.17568 56.9966,38.24236"
         style="font-size:12px;fill:#558ada;fill-rule:evenodd;stroke:#ff933d;stroke-width:0.829521"
         id="path669" /><path
         d="M 26.16465,67.49106 59.51922,39.20133"
         style="font-size:12px;fill:#558ada;fill-rule:evenodd;stroke:#ff933d;stroke-width:0.829521"
         id="path670" /><path
         d="M 21.96031,50.70903 38.77773,68.68978"
         style="font-size:12px;fill:#558ada;fill-rule:evenodd;stroke:#ff933d;stroke-width:0.829521"
         id="path671" /><path
         d="M 29.24785,45.43467 39.61859,61.49748"
         style="font-size:12px;fill:#558ada;fill-rule:evenodd;stroke:#ff933d;stroke-width:0.829521"
         id="path672" /><path
         d="m 36.53541,41.59878 10.37073,12.7064"
         style="font-size:12px;fill:#558ada;fill-rule:evenodd;stroke:#ff933d;stroke-width:0.829521"
         id="path673" /><path
         d="M 41.30034,38.24236 53.9134,47.8321"
         style="font-size:12px;fill:#558ada;fill-rule:evenodd;stroke:#ff933d;stroke-width:0.829521"
         id="path674" /><path
         d="m 46.06528,34.64621 10.37074,3.8359"
         style="font-size:12px;fill:#558ada;fill-rule:evenodd;stroke:#ff933d;stroke-width:0.829521"
         id="path675" /></g><path
       id="path681"
       style="font-size:12px;fill:#ffffff;fill-rule:evenodd;stroke-width:1"
       d="m 29.6683,27.81352 3.64377,1.91795 c 0,0 -0.28029,0.83909 -0.98102,0.59935 -0.70072,-0.23975 -3.50362,-1.91795 -3.50362,-1.91795 z" /></g><g
     id="g2389"
     transform="matrix(0.9657687,0,0,0.9657687,11.665759,4.8985494)"><path
       d="m 37.834002,81.244032 c -3.459274,-4.384396 0.353426,-3.43671 -1.474759,-6.81357 C 31.944501,71.20697 31.656652,68.181045 27.15009,62.271689 21.703223,53.004442 15.543269,46.620461 25.204223,42.540864 c 8.510723,-1.85344 7.39271,11.39031 10.797007,12.008127 3.063856,-4.32472 3.098393,-23.281079 3.438845,-26.370142 0.774024,-4.66798 7.367563,-7.413806 10.431431,-3.089074 3.744713,4.015806 2.010648,16.180408 2.010648,16.180408 0.830071,-1.308834 6.341131,-1.631545 7.951438,3.086107 3.247096,-2.913339 8.267424,-1.577465 9.350934,3.175712 4.994201,-4.277281 10.521604,5.870676 8.755217,12.433942 -1.485856,5.520913 -5.262072,13.989755 -12.867567,17.419866 -3.340752,4.358204 -5.70358,7.112747 -7.763136,8.471618 -6.127713,0.617817 -17.341934,0.345152 -19.475038,-4.613396 z"
       style="font-size:12px;fill:#000001;fill-opacity:1;fill-rule:evenodd;stroke-width:1"
       id="path647"
       sodipodi:nodetypes="ccccccccccsccc" /><path
       d="m 40.199128,73.381411 c -2.820469,-1.517397 -5.835138,-4.285296 -9.336205,-9.89024 -4.668108,-8.007042 -12.351428,-14.904482 -5.34926,-18.107327 7.293941,-1.601423 3.889645,7.811887 11.232772,13.288228 5.008843,-6.825688 4.386125,-26.455931 4.677897,-29.124937 -0.068653,-4.494586 6.116412,-5.658434 7.439662,-2.360092 2.942889,7.335466 0.691371,19.487064 0.691371,19.487064 1.502556,-5.966834 8.553458,-4.113683 9.372977,2.302467 1.179154,-5.472169 8.727557,-4.140979 9.064452,3.079821 2.571158,-6.565315 8.87182,0.632094 7.181114,7.828349 C 72.603936,70.823469 64.123214,75.783521 58.871596,76.317313 53.619967,76.851128 40.782637,75.783521 40.199128,73.381411 z"
       style="font-size:12px;fill:#ffffff;fill-rule:evenodd;stroke-width:1"
       id="path648"
       sodipodi:nodetypes="cccccscccscc" /><path
       d="m 67.738913,56.811238 c 0.178328,2.281647 -4.477272,7.077955 -2.871212,7.622219 1.606092,0.544238 5.990015,-1.640051 2.871212,-7.622219 z"
       style="font-size:12px;fill:#5fa2c7;fill-rule:evenodd;stroke-width:1"
       id="path651" /><path
       d="m 41.290362,75.616673 c 0,0 -3.267547,2.904494 -0.363053,4.356741 2.904482,1.452236 12.707112,5.082836 15.974648,1.452236 3.267535,-3.6306 5.445888,-5.082836 3.267535,-5.808953 -4.356718,5.082823 -18.516054,0.726094 -18.87913,-2.4e-05 z"
       style="font-size:12px;fill:#ffffff;fill-rule:evenodd;stroke-width:1"
       id="path2698" /><use
       height="90"
       width="90"
       transform="matrix(0.9973524,-7.2720577e-2,7.2720577e-2,0.9973524,-12.92207,3.0691572)"
       id="use2282"
       xlink:href="#path651"
       y="0"
       x="0" /><use
       height="90"
       width="90"
       transform="matrix(0.9833145,-0.1819136,0.1819136,0.9833145,-27.531435,9.6433297)"
       id="use2286"
       xlink:href="#path651"
       y="0"
       x="0" /></g></svg>