<?xml version="1.0" encoding="UTF-8" standalone="no"?>
<!-- Created with Sodipodi ("http://www.sodipodi.com/") -->
<svg
   xmlns:dc="http://purl.org/dc/elements/1.1/"
   xmlns:cc="http://web.resource.org/cc/"
   xmlns:rdf="http://www.w3.org/1999/02/22-rdf-syntax-ns#"
   xmlns:svg="http://www.w3.org/2000/svg"
   xmlns="http://www.w3.org/2000/svg"
   xmlns:xlink="http://www.w3.org/1999/xlink"
   xmlns:sodipodi="http://sodipodi.sourceforge.net/DTD/sodipodi-0.dtd"
   xmlns:inkscape="http://www.inkscape.org/namespaces/inkscape"
   version="1.0"
   x="0"
   y="0"
   width="90"
   height="90"
   id="svg683"
   xml:space="preserve"
   sodipodi:version="0.32"
   inkscape:version="0.45.1"
   sodipodi:docname="preferences-desktop-font.svg"
   sodipodi:docbase="/home/tweenk/GNUtoon/apps"
   inkscape:output_extension="org.inkscape.output.svg.inkscape"><metadata
     id="metadata9"><rdf:RDF><cc:Work
         rdf:about=""><dc:format>image/svg+xml</dc:format><dc:type
           rdf:resource="http://purl.org/dc/dcmitype/StillImage" /></cc:Work></rdf:RDF></metadata><sodipodi:namedview
     inkscape:window-height="619"
     inkscape:window-width="795"
     inkscape:pageshadow="2"
     inkscape:pageopacity="0.0"
     guidetolerance="10.0"
     gridtolerance="10.0"
     objecttolerance="10.0"
     borderopacity="1.0"
     bordercolor="#666666"
     pagecolor="#ffffff"
     id="base"
     inkscape:zoom="4.5222222"
     inkscape:cx="45"
     inkscape:cy="45"
     inkscape:window-x="0"
     inkscape:window-y="1"
     inkscape:current-layer="svg683" /><defs
     id="defs685"><linearGradient
       id="linearGradient675"><stop
         style="stop-color:#ffffff;stop-opacity:0;"
         offset="0"
         id="stop676" /><stop
         style="stop-color:#ffffff;stop-opacity:1;"
         offset="1"
         id="stop677" /></linearGradient><linearGradient
       xlink:href="#linearGradient675"
       id="linearGradient674"
       x1="45.8717728"
       y1="50.6311722"
       x2="0.36620894"
       y2="3.20784521"
       gradientUnits="userSpaceOnUse"
       gradientTransform="scale(1.0962,0.912242)" /></defs><rect
     style="font-size:12px;fill:#000000;fill-opacity:0.37039998;fill-rule:evenodd;stroke:none;stroke-width:6.32089615"
     id="rect648"
     width="77.850578"
     height="75.067635"
     x="11.125624"
     y="12.158266"
     ry="6.7224698" /><rect
     width="75.0606842"
     height="72.187561"
     ry="6.46455336"
     x="6.06343031"
     y="6.24994135"
     style="font-size:12;fill:#558ada;fill-rule:evenodd;stroke:#002f77;stroke-width:5;stroke-miterlimit:4;stroke-dasharray:none"
     id="rect610" /><path
     transform="matrix(1.1315288,0,0,1.1315288,-4.9780262,-4.5863173)"
     d="M 35.0625,24.125 L 35.0625,24.1875 C 34.205222,24.150914 33.706376,24.474316 33.3125,24.75 C 32.728672,25.154221 32.655752,25.391245 32.4375,25.71875 C 32.219248,26.046255 31.982556,26.429793 31.71875,26.90625 C 31.191138,27.859164 30.537762,29.161051 29.71875,30.84375 C 28.081799,34.206933 26.786941,37.065944 25.84375,39.5 C 24.39965,43.272327 23.421082,45.738897 22.96875,46.75 C 22.502265,47.792723 22.049434,48.519398 21.875,48.71875 C 21.864456,48.729039 21.854039,48.739456 21.84375,48.75 C 21.088763,49.672762 20.547778,50.855549 20.0625,52.34375 C 20.06241,52.354166 20.06241,52.364584 20.0625,52.375 C 19.862126,53.01619 19.649919,53.470322 19.53125,53.6875 C 19.412581,53.904678 19.348405,53.761725 19.90625,53.5625 C 19.360394,53.757453 18.784262,54.184607 18.46875,54.71875 C 18.153238,55.252893 18.062495,55.804484 18.0625,56.3125 C 18.062502,56.119159 17.98755,56.589708 17.46875,57.25 C 17.46866,57.260416 17.46866,57.270834 17.46875,57.28125 C 16.795533,58.178871 16.271794,59.001418 16.1875,60.125 C 16.145353,60.686791 16.264124,61.342318 16.625,61.875 C 16.985876,62.407682 17.514654,62.768903 18,62.96875 C 18.010416,62.96884 18.020834,62.96884 18.03125,62.96875 C 19.013328,63.342876 20.371081,63.187412 21.25,62.53125 L 21.28125,62.5625 C 21.305931,62.544401 21.319655,62.518448 21.34375,62.5 C 21.361385,62.485731 21.389061,62.483483 21.40625,62.46875 L 21.375,62.4375 C 22.222021,61.767541 22.734044,60.882026 23.21875,59.71875 C 23.229166,59.71884 23.239584,59.71884 23.25,59.71875 C 24.024081,57.838827 25.591159,54.61979 27.96875,50.1875 L 28.78125,48.625 L 30.90625,48.4375 C 32.851452,48.287882 34.626353,48.088933 36.28125,47.84375 L 36.84375,47.78125 L 37.28125,49.6875 C 37.867862,52.180713 38.245131,54.002172 38.40625,54.96875 C 38.40616,54.979166 38.40616,54.989584 38.40625,55 C 38.70492,56.605531 39.524593,58.04087 40.875,58.8125 C 40.885416,58.81259 40.895834,58.81259 40.90625,58.8125 C 41.60117,59.204517 42.170486,59.530223 43.0625,59.5625 C 43.508507,59.578639 44.093667,59.489038 44.59375,59.125 C 45.093833,58.760962 45.390842,58.177129 45.5,57.71875 C 45.746981,56.81301 45.599699,56.241479 45.4375,55.375 C 45.275301,54.508521 45.007961,53.491458 44.625,52.28125 C 43.753576,49.492786 43.210659,47.327306 43.03125,45.96875 C 43.03134,45.958334 43.03134,45.947916 43.03125,45.9375 C 42.780316,44.337984 42.387835,42.589863 41.84375,40.625 C 41.84384,40.614584 41.84384,40.604166 41.84375,40.59375 C 41.390788,38.980177 41.168383,37.78557 41.125,37.15625 L 41.09375,37.15625 C 41.067497,35.62229 40.526631,33.849043 39.5625,30.78125 C 39.083488,29.209545 38.688268,27.996551 38.34375,27.09375 C 38.171491,26.642349 38.010764,26.267942 37.84375,25.9375 C 37.676736,25.607058 37.67086,25.33175 37,24.84375 C 36.959154,24.821314 36.917456,24.800465 36.875,24.78125 C 36.483992,24.540677 36.103836,24.267196 35.375,24.1875 L 35.375,24.15625 C 35.320387,24.147159 35.301636,24.162397 35.25,24.15625 C 35.174426,24.151496 35.146779,24.125013 35.0625,24.125 z M 62.0625,34.0625 C 61.017425,34.210552 59.899056,34.500292 58.6875,34.96875 C 58.676956,34.979039 58.666539,34.989456 58.65625,35 C 57.217649,35.604231 55.746259,36.137541 54.3125,36.625 C 54.301956,36.635289 54.291539,36.645706 54.28125,36.65625 C 52.736159,37.215134 51.443832,37.843018 50.84375,39.34375 L 50.8125,39.34375 C 50.804895,39.361494 50.820052,39.388609 50.8125,39.40625 C 50.806735,39.421517 50.786866,39.422055 50.78125,39.4375 C 50.562514,39.949744 50.369772,40.431558 50.4375,41.1875 C 50.473227,41.586262 50.642271,42.116225 51.03125,42.53125 C 51.420229,42.946275 51.932487,43.132684 52.34375,43.1875 C 52.354166,43.18759 52.364584,43.18759 52.375,43.1875 C 53.115224,43.280059 53.594465,43.148246 54.1875,42.96875 C 54.780535,42.789254 55.449779,42.532761 56.21875,42.1875 C 56.867558,41.927995 57.537259,41.622014 58.34375,41.21875 L 59.46875,40.71875 C 59.479294,40.708461 59.489711,40.698044 59.5,40.6875 C 59.950339,40.472131 60.79396,40.218584 61.96875,40 C 63.186865,39.778543 64.087569,39.862916 63.78125,39.78125 C 63.791666,39.78134 63.802084,39.78134 63.8125,39.78125 C 63.772391,39.771411 64.036014,39.832779 64.375,40.8125 C 64.713986,41.792221 64.977793,43.457139 65.0625,45.6875 C 65.074264,45.965977 65.08508,46.098172 65.09375,46.34375 C 63.878952,45.311722 62.305098,45.20691 60.625,45.4375 C 58.866123,45.644439 57.168622,46.219707 55.5,47.1875 C 53.916712,48.074148 52.689364,48.953716 51.78125,49.9375 C 51.78116,49.947916 51.78116,49.958334 51.78125,49.96875 C 50.874167,50.994153 50.317417,52.254027 50.125,53.5625 C 49.930551,54.690278 49.975811,55.82566 50.25,57.09375 C 50.260013,57.114783 50.270432,57.13562 50.28125,57.15625 C 50.586006,58.375295 50.853237,59.377505 51.90625,60.1875 C 52.790765,60.915933 53.780837,61.234659 55.125,61.5625 C 55.14563,61.573318 55.166467,61.583737 55.1875,61.59375 C 56.548487,61.885392 57.636657,62.009241 58.71875,61.8125 C 60.285415,61.538331 61.867103,60.776582 63.5625,59.625 C 64.15207,59.23195 64.609156,58.829233 65.09375,58.4375 C 65.155468,58.725697 65.171378,59.085593 65.25,59.34375 C 65.453856,60.013119 65.685359,60.605179 66.3125,61.1875 C 66.535277,61.410293 66.703812,61.587767 67.0625,61.78125 C 67.346057,61.934206 67.885764,62.061825 68.5,61.9375 L 68.5,62 C 68.636482,61.9727 68.616499,61.909476 68.71875,61.875 C 68.80801,61.844935 68.876176,61.890029 68.96875,61.84375 L 68.9375,61.78125 C 69.186138,61.655413 69.512682,61.531342 69.65625,61.40625 C 69.886438,61.205685 70.068458,60.998241 70.28125,60.75 C 70.28134,60.739584 70.28134,60.729166 70.28125,60.71875 C 71.01524,59.855199 71.549005,58.635558 71.1875,57.40625 C 71.177211,57.395706 71.166794,57.385289 71.15625,57.375 C 71.228119,57.602556 71.15992,57.268149 71.125,56.875 C 71.09008,56.481851 71.031388,55.905274 71,55.1875 C 70.937225,53.751952 70.904372,51.706984 70.875,49.0625 C 70.815787,45.037488 70.770327,42.727988 70.65625,41.625 C 70.542089,40.483688 70.149233,39.326712 69.53125,38.125 C 68.52658,36.150374 67.050874,34.634699 65.09375,34.15625 C 64.100661,33.891447 63.111014,33.913961 62.0625,34.0625 z M 34.34375,35.9375 C 34.825718,37.969628 35.192869,39.699222 35.375,41 C 35.37491,41.010416 35.37491,41.020834 35.375,41.03125 C 35.425205,41.346863 35.404599,41.450735 35.40625,41.625 C 35.245399,41.67712 35.367927,41.636029 35.0625,41.6875 C 34.397747,41.799526 33.430935,41.915588 32.1875,42.03125 L 31.65625,42.0625 C 32.356374,40.287245 33.104394,38.456157 34.125,36.34375 C 34.218871,36.153874 34.256148,36.112045 34.34375,35.9375 z M 61.53125,51.28125 C 61.552082,51.28161 61.572918,51.28161 61.59375,51.28125 C 62.86161,51.357331 63.481303,51.676926 63.5625,51.75 C 63.582821,51.771339 63.603661,51.792179 63.625,51.8125 C 63.493731,51.964035 63.405784,52.070759 63.1875,52.28125 C 62.688663,52.748905 62.299082,53.134377 61.96875,53.53125 C 61.751272,53.792536 61.534441,54.094547 61.375,54.53125 C 61.188668,54.667148 60.829516,54.875741 60.28125,55.15625 C 59.162903,55.71542 58.273033,56.01544 57.59375,56.125 C 56.953728,56.225004 56.521578,56.159341 56.09375,55.9375 C 55.814101,55.782143 55.871565,55.795464 55.90625,55.84375 C 55.955158,55.931919 55.874996,55.734067 55.875,55.1875 C 55.874996,54.650997 56.056165,54.026557 56.65625,53.21875 C 56.666794,53.208461 56.677211,53.198044 56.6875,53.1875 C 57.287558,52.356648 57.916107,51.869436 58.625,51.59375 C 59.328005,51.312552 60.285847,51.179594 61.53125,51.28125 z "
     id="path2159"
     style="font-size:44.27548599px;font-style:normal;font-weight:normal;fill:#000000;fill-opacity:1;stroke:none;stroke-width:1px;stroke-linecap:butt;stroke-linejoin:miter;stroke-opacity:1;font-family:Bitstream Vera Sans"
     inkscape:original="M 35.0625 25.9375 C 34.885379 25.908017 34.638901 26.012166 34.34375 26.21875 C 33.96001 26.484437 32.967167 28.289612 31.34375 31.625 C 29.7203 34.960445 28.446263 37.794911 27.53125 40.15625 C 26.084906 43.93444 25.126778 46.37837 24.625 47.5 C 24.123202 48.621657 23.663229 49.43399 23.25 49.90625 C 22.718686 50.555634 22.223998 51.548476 21.78125 52.90625 C 21.338488 54.323072 20.913233 55.102421 20.5 55.25 C 20.086757 55.39759 19.874995 55.751679 19.875 56.3125 C 19.874995 56.843809 19.55562 57.548527 18.90625 58.375 C 17.755085 59.909884 17.683919 60.868014 18.6875 61.28125 C 19.307352 61.517385 19.805506 61.447954 20.21875 61.09375 C 20.661499 60.769063 21.119738 60.093863 21.5625 59.03125 C 22.388969 57.024097 23.984115 53.800823 26.375 49.34375 L 27.65625 46.90625 L 30.75 46.625 C 32.668587 46.477429 34.437314 46.298651 36.03125 46.0625 L 38.21875 45.78125 L 39.03125 49.28125 C 39.621565 51.790202 40.010374 53.593647 40.1875 54.65625 C 40.42361 55.925485 40.954749 56.777733 41.78125 57.25 C 42.932385 57.899376 43.602388 57.932358 43.75 57.3125 C 43.927073 56.663129 43.644146 55.144347 42.90625 52.8125 C 42.020714 49.978879 41.456594 47.783165 41.25 46.21875 C 41.013839 44.713399 40.62503 43.012372 40.09375 41.09375 C 39.621453 39.411302 39.37151 38.137264 39.3125 37.28125 C 39.312476 36.395764 38.817786 34.41181 37.84375 31.3125 C 36.899184 28.213248 36.262166 26.54867 35.9375 26.3125 C 35.553759 26.076398 35.269099 25.937533 35.0625 25.9375 z M 34.78125 31.71875 C 35.076399 31.807329 35.499925 32.975485 36.03125 35.21875 C 36.562534 37.432547 36.949609 39.274171 37.15625 40.75 C 37.362847 42.048765 37.223985 42.828115 36.78125 43.09375 C 36.367991 43.359419 34.882192 43.607629 32.34375 43.84375 L 28.875 44.09375 L 29.40625 42.71875 C 30.203194 40.564029 31.230752 38.189535 32.5 35.5625 C 33.798729 32.935515 34.545093 31.659745 34.78125 31.71875 z M 62.3125 35.84375 C 61.42699 35.969197 60.45063 36.228266 59.34375 36.65625 C 57.86789 37.27613 56.38209 37.841984 54.90625 38.34375 C 53.518946 38.84556 52.704882 39.413145 52.46875 40.0625 C 52.114542 40.888994 52.15099 41.347236 52.59375 41.40625 C 53.066016 41.465303 54.02241 41.180643 55.46875 40.53125 C 56.059082 40.295134 56.7638 39.977493 57.53125 39.59375 L 58.71875 39.0625 C 59.397629 38.737835 60.355755 38.454909 61.625 38.21875 C 62.923732 37.982636 63.807226 37.913204 64.25 38.03125 C 65.814383 38.414993 66.697879 40.961334 66.875 45.625 C 66.963532 47.720719 66.965266 48.925324 66.90625 49.25 C 66.876713 49.545181 66.664955 49.512196 66.28125 49.1875 C 65.749926 48.774273 65.395832 48.56251 65.21875 48.5625 C 65.041631 48.562511 64.652819 48.312567 64.0625 47.78125 C 63.442627 47.190923 62.380353 47.012143 60.875 47.21875 C 59.369621 47.395864 57.882091 47.894019 56.40625 48.75 C 54.930394 49.576486 53.833404 50.388817 53.125 51.15625 C 52.446105 51.9237 52.05383 52.80893 51.90625 53.8125 C 51.758661 54.668498 51.795109 55.626628 52.03125 56.71875 C 52.296899 57.781364 52.616273 58.454831 53 58.75 C 53.501783 59.163238 54.352297 59.517332 55.5625 59.8125 C 56.802205 60.078153 57.756867 60.149318 58.40625 60.03125 C 59.586918 59.824631 60.966836 59.187613 62.53125 58.125 C 64.125152 57.062391 65.222145 56.069546 65.8125 55.125 C 66.048618 54.711767 66.190948 54.604154 66.25 54.78125 C 66.338533 54.92884 66.446148 55.600576 66.59375 56.78125 C 66.80035 58.46372 67.117994 59.491278 67.53125 59.875 C 67.8264 60.17017 68.038162 60.277784 68.15625 60.21875 C 68.303815 60.189233 68.552023 59.975737 68.90625 59.5625 C 69.408018 58.972162 69.585063 58.408042 69.4375 57.90625 C 69.260377 57.34543 69.121511 54.406816 69.0625 49.09375 C 69.003445 45.079454 68.932283 42.668511 68.84375 41.8125 C 68.755178 40.92701 68.468782 39.970616 67.9375 38.9375 C 67.081488 37.255054 65.984497 36.23096 64.65625 35.90625 C 63.99211 35.72916 63.19801 35.718303 62.3125 35.84375 z M 61.6875 49.46875 C 63.163334 49.557311 64.190894 49.874952 64.78125 50.40625 C 65.460123 50.967082 65.777764 51.428788 65.71875 51.8125 C 65.689216 52.196229 65.263957 52.796799 64.4375 53.59375 C 63.492941 54.479265 62.999985 55.048586 63 55.34375 C 62.999985 55.638925 62.362966 56.131881 61.09375 56.78125 C 59.854024 57.401109 58.790014 57.758669 57.875 57.90625 C 56.930448 58.053837 56.04695 57.944492 55.25 57.53125 C 54.718687 57.236083 54.39758 56.953156 54.25 56.6875 C 54.131925 56.42185 54.062494 55.925429 54.0625 55.1875 C 54.062493 54.183928 54.451304 53.158101 55.21875 52.125 C 55.986184 51.062397 56.906129 50.319499 57.96875 49.90625 C 59.001834 49.493023 60.241156 49.350692 61.6875 49.46875 z "
     inkscape:radius="1.8083173"
     sodipodi:type="inkscape:offset" /><path
     sodipodi:type="inkscape:offset"
     inkscape:radius="1.8083173"
     inkscape:original="M 35.0625 25.9375 C 34.885379 25.908017 34.638901 26.012166 34.34375 26.21875 C 33.96001 26.484437 32.967167 28.289612 31.34375 31.625 C 29.7203 34.960445 28.446263 37.794911 27.53125 40.15625 C 26.084906 43.93444 25.126778 46.37837 24.625 47.5 C 24.123202 48.621657 23.663229 49.43399 23.25 49.90625 C 22.718686 50.555634 22.223998 51.548476 21.78125 52.90625 C 21.338488 54.323072 20.913233 55.102421 20.5 55.25 C 20.086757 55.39759 19.874995 55.751679 19.875 56.3125 C 19.874995 56.843809 19.55562 57.548527 18.90625 58.375 C 17.755085 59.909884 17.683919 60.868014 18.6875 61.28125 C 19.307352 61.517385 19.805506 61.447954 20.21875 61.09375 C 20.661499 60.769063 21.119738 60.093863 21.5625 59.03125 C 22.388969 57.024097 23.984115 53.800823 26.375 49.34375 L 27.65625 46.90625 L 30.75 46.625 C 32.668587 46.477429 34.437314 46.298651 36.03125 46.0625 L 38.21875 45.78125 L 39.03125 49.28125 C 39.621565 51.790202 40.010374 53.593647 40.1875 54.65625 C 40.42361 55.925485 40.954749 56.777733 41.78125 57.25 C 42.932385 57.899376 43.602388 57.932358 43.75 57.3125 C 43.927073 56.663129 43.644146 55.144347 42.90625 52.8125 C 42.020714 49.978879 41.456594 47.783165 41.25 46.21875 C 41.013839 44.713399 40.62503 43.012372 40.09375 41.09375 C 39.621453 39.411302 39.37151 38.137264 39.3125 37.28125 C 39.312476 36.395764 38.817786 34.41181 37.84375 31.3125 C 36.899184 28.213248 36.262166 26.54867 35.9375 26.3125 C 35.553759 26.076398 35.269099 25.937533 35.0625 25.9375 z M 34.78125 31.71875 C 35.076399 31.807329 35.499925 32.975485 36.03125 35.21875 C 36.562534 37.432547 36.949609 39.274171 37.15625 40.75 C 37.362847 42.048765 37.223985 42.828115 36.78125 43.09375 C 36.367991 43.359419 34.882192 43.607629 32.34375 43.84375 L 28.875 44.09375 L 29.40625 42.71875 C 30.203194 40.564029 31.230752 38.189535 32.5 35.5625 C 33.798729 32.935515 34.545093 31.659745 34.78125 31.71875 z M 62.3125 35.84375 C 61.42699 35.969197 60.45063 36.228266 59.34375 36.65625 C 57.86789 37.27613 56.38209 37.841984 54.90625 38.34375 C 53.518946 38.84556 52.704882 39.413145 52.46875 40.0625 C 52.114542 40.888994 52.15099 41.347236 52.59375 41.40625 C 53.066016 41.465303 54.02241 41.180643 55.46875 40.53125 C 56.059082 40.295134 56.7638 39.977493 57.53125 39.59375 L 58.71875 39.0625 C 59.397629 38.737835 60.355755 38.454909 61.625 38.21875 C 62.923732 37.982636 63.807226 37.913204 64.25 38.03125 C 65.814383 38.414993 66.697879 40.961334 66.875 45.625 C 66.963532 47.720719 66.965266 48.925324 66.90625 49.25 C 66.876713 49.545181 66.664955 49.512196 66.28125 49.1875 C 65.749926 48.774273 65.395832 48.56251 65.21875 48.5625 C 65.041631 48.562511 64.652819 48.312567 64.0625 47.78125 C 63.442627 47.190923 62.380353 47.012143 60.875 47.21875 C 59.369621 47.395864 57.882091 47.894019 56.40625 48.75 C 54.930394 49.576486 53.833404 50.388817 53.125 51.15625 C 52.446105 51.9237 52.05383 52.80893 51.90625 53.8125 C 51.758661 54.668498 51.795109 55.626628 52.03125 56.71875 C 52.296899 57.781364 52.616273 58.454831 53 58.75 C 53.501783 59.163238 54.352297 59.517332 55.5625 59.8125 C 56.802205 60.078153 57.756867 60.149318 58.40625 60.03125 C 59.586918 59.824631 60.966836 59.187613 62.53125 58.125 C 64.125152 57.062391 65.222145 56.069546 65.8125 55.125 C 66.048618 54.711767 66.190948 54.604154 66.25 54.78125 C 66.338533 54.92884 66.446148 55.600576 66.59375 56.78125 C 66.80035 58.46372 67.117994 59.491278 67.53125 59.875 C 67.8264 60.17017 68.038162 60.277784 68.15625 60.21875 C 68.303815 60.189233 68.552023 59.975737 68.90625 59.5625 C 69.408018 58.972162 69.585063 58.408042 69.4375 57.90625 C 69.260377 57.34543 69.121511 54.406816 69.0625 49.09375 C 69.003445 45.079454 68.932283 42.668511 68.84375 41.8125 C 68.755178 40.92701 68.468782 39.970616 67.9375 38.9375 C 67.081488 37.255054 65.984497 36.23096 64.65625 35.90625 C 63.99211 35.72916 63.19801 35.718303 62.3125 35.84375 z M 61.6875 49.46875 C 63.163334 49.557311 64.190894 49.874952 64.78125 50.40625 C 65.460123 50.967082 65.777764 51.428788 65.71875 51.8125 C 65.689216 52.196229 65.263957 52.796799 64.4375 53.59375 C 63.492941 54.479265 62.999985 55.048586 63 55.34375 C 62.999985 55.638925 62.362966 56.131881 61.09375 56.78125 C 59.854024 57.401109 58.790014 57.758669 57.875 57.90625 C 56.930448 58.053837 56.04695 57.944492 55.25 57.53125 C 54.718687 57.236083 54.39758 56.953156 54.25 56.6875 C 54.131925 56.42185 54.062494 55.925429 54.0625 55.1875 C 54.062493 54.183928 54.451304 53.158101 55.21875 52.125 C 55.986184 51.062397 56.906129 50.319499 57.96875 49.90625 C 59.001834 49.493023 60.241156 49.350692 61.6875 49.46875 z "
     style="font-size:44.27548599px;font-style:normal;font-weight:normal;fill:#ffffff;fill-opacity:1;stroke:none;stroke-width:1px;stroke-linecap:butt;stroke-linejoin:miter;stroke-opacity:1;font-family:Bitstream Vera Sans"
     id="path3137"
     d="M 35.0625,24.125 L 35.0625,24.1875 C 34.205222,24.150914 33.706376,24.474316 33.3125,24.75 C 32.728672,25.154221 32.655752,25.391245 32.4375,25.71875 C 32.219248,26.046255 31.982556,26.429793 31.71875,26.90625 C 31.191138,27.859164 30.537762,29.161051 29.71875,30.84375 C 28.081799,34.206933 26.786941,37.065944 25.84375,39.5 C 24.39965,43.272327 23.421082,45.738897 22.96875,46.75 C 22.502265,47.792723 22.049434,48.519398 21.875,48.71875 C 21.864456,48.729039 21.854039,48.739456 21.84375,48.75 C 21.088763,49.672762 20.547778,50.855549 20.0625,52.34375 C 20.06241,52.354166 20.06241,52.364584 20.0625,52.375 C 19.862126,53.01619 19.649919,53.470322 19.53125,53.6875 C 19.412581,53.904678 19.348405,53.761725 19.90625,53.5625 C 19.360394,53.757453 18.784262,54.184607 18.46875,54.71875 C 18.153238,55.252893 18.062495,55.804484 18.0625,56.3125 C 18.062502,56.119159 17.98755,56.589708 17.46875,57.25 C 17.46866,57.260416 17.46866,57.270834 17.46875,57.28125 C 16.795533,58.178871 16.271794,59.001418 16.1875,60.125 C 16.145353,60.686791 16.264124,61.342318 16.625,61.875 C 16.985876,62.407682 17.514654,62.768903 18,62.96875 C 18.010416,62.96884 18.020834,62.96884 18.03125,62.96875 C 19.013328,63.342876 20.371081,63.187412 21.25,62.53125 L 21.28125,62.5625 C 21.305931,62.544401 21.319655,62.518448 21.34375,62.5 C 21.361385,62.485731 21.389061,62.483483 21.40625,62.46875 L 21.375,62.4375 C 22.222021,61.767541 22.734044,60.882026 23.21875,59.71875 C 23.229166,59.71884 23.239584,59.71884 23.25,59.71875 C 24.024081,57.838827 25.591159,54.61979 27.96875,50.1875 L 28.78125,48.625 L 30.90625,48.4375 C 32.851452,48.287882 34.626353,48.088933 36.28125,47.84375 L 36.84375,47.78125 L 37.28125,49.6875 C 37.867862,52.180713 38.245131,54.002172 38.40625,54.96875 C 38.40616,54.979166 38.40616,54.989584 38.40625,55 C 38.70492,56.605531 39.524593,58.04087 40.875,58.8125 C 40.885416,58.81259 40.895834,58.81259 40.90625,58.8125 C 41.60117,59.204517 42.170486,59.530223 43.0625,59.5625 C 43.508507,59.578639 44.093667,59.489038 44.59375,59.125 C 45.093833,58.760962 45.390842,58.177129 45.5,57.71875 C 45.746981,56.81301 45.599699,56.241479 45.4375,55.375 C 45.275301,54.508521 45.007961,53.491458 44.625,52.28125 C 43.753576,49.492786 43.210659,47.327306 43.03125,45.96875 C 43.03134,45.958334 43.03134,45.947916 43.03125,45.9375 C 42.780316,44.337984 42.387835,42.589863 41.84375,40.625 C 41.84384,40.614584 41.84384,40.604166 41.84375,40.59375 C 41.390788,38.980177 41.168383,37.78557 41.125,37.15625 L 41.09375,37.15625 C 41.067497,35.62229 40.526631,33.849043 39.5625,30.78125 C 39.083488,29.209545 38.688268,27.996551 38.34375,27.09375 C 38.171491,26.642349 38.010764,26.267942 37.84375,25.9375 C 37.676736,25.607058 37.67086,25.33175 37,24.84375 C 36.959154,24.821314 36.917456,24.800465 36.875,24.78125 C 36.483992,24.540677 36.103836,24.267196 35.375,24.1875 L 35.375,24.15625 C 35.320387,24.147159 35.301636,24.162397 35.25,24.15625 C 35.174426,24.151496 35.146779,24.125013 35.0625,24.125 z M 62.0625,34.0625 C 61.017425,34.210552 59.899056,34.500292 58.6875,34.96875 C 58.676956,34.979039 58.666539,34.989456 58.65625,35 C 57.217649,35.604231 55.746259,36.137541 54.3125,36.625 C 54.301956,36.635289 54.291539,36.645706 54.28125,36.65625 C 52.736159,37.215134 51.443832,37.843018 50.84375,39.34375 L 50.8125,39.34375 C 50.804895,39.361494 50.820052,39.388609 50.8125,39.40625 C 50.806735,39.421517 50.786866,39.422055 50.78125,39.4375 C 50.562514,39.949744 50.369772,40.431558 50.4375,41.1875 C 50.473227,41.586262 50.642271,42.116225 51.03125,42.53125 C 51.420229,42.946275 51.932487,43.132684 52.34375,43.1875 C 52.354166,43.18759 52.364584,43.18759 52.375,43.1875 C 53.115224,43.280059 53.594465,43.148246 54.1875,42.96875 C 54.780535,42.789254 55.449779,42.532761 56.21875,42.1875 C 56.867558,41.927995 57.537259,41.622014 58.34375,41.21875 L 59.46875,40.71875 C 59.479294,40.708461 59.489711,40.698044 59.5,40.6875 C 59.950339,40.472131 60.79396,40.218584 61.96875,40 C 63.186865,39.778543 64.087569,39.862916 63.78125,39.78125 C 63.791666,39.78134 63.802084,39.78134 63.8125,39.78125 C 63.772391,39.771411 64.036014,39.832779 64.375,40.8125 C 64.713986,41.792221 64.977793,43.457139 65.0625,45.6875 C 65.074264,45.965977 65.08508,46.098172 65.09375,46.34375 C 63.878952,45.311722 62.305098,45.20691 60.625,45.4375 C 58.866123,45.644439 57.168622,46.219707 55.5,47.1875 C 53.916712,48.074148 52.689364,48.953716 51.78125,49.9375 C 51.78116,49.947916 51.78116,49.958334 51.78125,49.96875 C 50.874167,50.994153 50.317417,52.254027 50.125,53.5625 C 49.930551,54.690278 49.975811,55.82566 50.25,57.09375 C 50.260013,57.114783 50.270432,57.13562 50.28125,57.15625 C 50.586006,58.375295 50.853237,59.377505 51.90625,60.1875 C 52.790765,60.915933 53.780837,61.234659 55.125,61.5625 C 55.14563,61.573318 55.166467,61.583737 55.1875,61.59375 C 56.548487,61.885392 57.636657,62.009241 58.71875,61.8125 C 60.285415,61.538331 61.867103,60.776582 63.5625,59.625 C 64.15207,59.23195 64.609156,58.829233 65.09375,58.4375 C 65.155468,58.725697 65.171378,59.085593 65.25,59.34375 C 65.453856,60.013119 65.685359,60.605179 66.3125,61.1875 C 66.535277,61.410293 66.703812,61.587767 67.0625,61.78125 C 67.346057,61.934206 67.885764,62.061825 68.5,61.9375 L 68.5,62 C 68.636482,61.9727 68.616499,61.909476 68.71875,61.875 C 68.80801,61.844935 68.876176,61.890029 68.96875,61.84375 L 68.9375,61.78125 C 69.186138,61.655413 69.512682,61.531342 69.65625,61.40625 C 69.886438,61.205685 70.068458,60.998241 70.28125,60.75 C 70.28134,60.739584 70.28134,60.729166 70.28125,60.71875 C 71.01524,59.855199 71.549005,58.635558 71.1875,57.40625 C 71.177211,57.395706 71.166794,57.385289 71.15625,57.375 C 71.228119,57.602556 71.15992,57.268149 71.125,56.875 C 71.09008,56.481851 71.031388,55.905274 71,55.1875 C 70.937225,53.751952 70.904372,51.706984 70.875,49.0625 C 70.815787,45.037488 70.770327,42.727988 70.65625,41.625 C 70.542089,40.483688 70.149233,39.326712 69.53125,38.125 C 68.52658,36.150374 67.050874,34.634699 65.09375,34.15625 C 64.100661,33.891447 63.111014,33.913961 62.0625,34.0625 z M 34.34375,35.9375 C 34.825718,37.969628 35.192869,39.699222 35.375,41 C 35.37491,41.010416 35.37491,41.020834 35.375,41.03125 C 35.425205,41.346863 35.404599,41.450735 35.40625,41.625 C 35.245399,41.67712 35.367927,41.636029 35.0625,41.6875 C 34.397747,41.799526 33.430935,41.915588 32.1875,42.03125 L 31.65625,42.0625 C 32.356374,40.287245 33.104394,38.456157 34.125,36.34375 C 34.218871,36.153874 34.256148,36.112045 34.34375,35.9375 z M 61.53125,51.28125 C 61.552082,51.28161 61.572918,51.28161 61.59375,51.28125 C 62.86161,51.357331 63.481303,51.676926 63.5625,51.75 C 63.582821,51.771339 63.603661,51.792179 63.625,51.8125 C 63.493731,51.964035 63.405784,52.070759 63.1875,52.28125 C 62.688663,52.748905 62.299082,53.134377 61.96875,53.53125 C 61.751272,53.792536 61.534441,54.094547 61.375,54.53125 C 61.188668,54.667148 60.829516,54.875741 60.28125,55.15625 C 59.162903,55.71542 58.273033,56.01544 57.59375,56.125 C 56.953728,56.225004 56.521578,56.159341 56.09375,55.9375 C 55.814101,55.782143 55.871565,55.795464 55.90625,55.84375 C 55.955158,55.931919 55.874996,55.734067 55.875,55.1875 C 55.874996,54.650997 56.056165,54.026557 56.65625,53.21875 C 56.666794,53.208461 56.677211,53.198044 56.6875,53.1875 C 57.287558,52.356648 57.916107,51.869436 58.625,51.59375 C 59.328005,51.312552 60.285847,51.179594 61.53125,51.28125 z "
     transform="matrix(1.1315288,0,0,1.1315288,-7.852719,-7.23988)" /><path
     style="fill:url(#linearGradient674);fill-rule:evenodd;stroke:none;stroke-opacity:1;stroke-width:1pt;stroke-linejoin:miter;stroke-linecap:butt;fill-opacity:1"
     d="M 11.25001 55.31248 C 11.25001 55.31248 10.00001 13.43745 10.93751 11.87495 C 11.87501 10.31245 13.43751 10.31245 17.50001 10.31245 C 21.56251 10.31245 64.68754 10.93745 64.68754 10.93745 C 64.68754 10.93745 23.12502 9.687443 17.50001 20.62496 C 14.68751 30.93747 10.93751 55.93748 11.25001 55.31248 z "
     id="path670"
     sodipodi:nodetypes="cccccc" /></svg>