<?xml version="1.0" encoding="UTF-8" standalone="no"?>
<!-- Created with Inkscape (http://www.inkscape.org/) -->
<svg
   xmlns:dc="http://purl.org/dc/elements/1.1/"
   xmlns:cc="http://creativecommons.org/ns#"
   xmlns:rdf="http://www.w3.org/1999/02/22-rdf-syntax-ns#"
   xmlns:svg="http://www.w3.org/2000/svg"
   xmlns="http://www.w3.org/2000/svg"
   xmlns:xlink="http://www.w3.org/1999/xlink"
   xmlns:sodipodi="http://sodipodi.sourceforge.net/DTD/sodipodi-0.dtd"
   xmlns:inkscape="http://www.inkscape.org/namespaces/inkscape"
   width="90"
   height="90"
   id="svg2"
   sodipodi:version="0.32"
   inkscape:version="0.46+devel"
   version="1.0"
   sodipodi:docname="qtiplot.svg"
   inkscape:output_extension="org.inkscape.output.svg.inkscape">
  <defs
     id="defs4">
    <linearGradient
       inkscape:collect="always"
       id="linearGradient3510">
      <stop
         style="stop-color:#ffffff;stop-opacity:1;"
         offset="0"
         id="stop3512" />
      <stop
         style="stop-color:#ffffff;stop-opacity:0;"
         offset="1"
         id="stop3514" />
    </linearGradient>
    <linearGradient
       id="linearGradient3572"
       inkscape:collect="always">
      <stop
         id="stop3574"
         offset="0"
         style="stop-color:#cbff87;stop-opacity:1" />
      <stop
         id="stop3576"
         offset="1"
         style="stop-color:#2aaf18;stop-opacity:1" />
    </linearGradient>
    <linearGradient
       inkscape:collect="always"
       id="linearGradient3544">
      <stop
         style="stop-color:#ffc93f;stop-opacity:1;"
         offset="0"
         id="stop3546" />
      <stop
         style="stop-color:#ffe6ba;stop-opacity:1"
         offset="1"
         id="stop3548" />
    </linearGradient>
    <linearGradient
       inkscape:collect="always"
       id="linearGradient3514">
      <stop
         style="stop-color:#558ada;stop-opacity:1;"
         offset="0"
         id="stop3516" />
      <stop
         style="stop-color:#31baff;stop-opacity:1"
         offset="1"
         id="stop3518" />
    </linearGradient>
    <linearGradient
       inkscape:collect="always"
       id="linearGradient3498">
      <stop
         style="stop-color:#ff7068;stop-opacity:1"
         offset="0"
         id="stop3500" />
      <stop
         style="stop-color:#ed0000;stop-opacity:1"
         offset="1"
         id="stop3502" />
    </linearGradient>
    <linearGradient
       inkscape:collect="always"
       xlink:href="#linearGradient3498"
       id="linearGradient3504"
       x1="39.314098"
       y1="16.607143"
       x2="44.285713"
       y2="67.321426"
       gradientUnits="userSpaceOnUse"
       gradientTransform="matrix(0.94240313,0,0,0.94235186,4.3355449,1.4616586)" />
    <linearGradient
       inkscape:collect="always"
       xlink:href="#linearGradient3498"
       id="linearGradient3512"
       x1="54.034992"
       y1="15.357142"
       x2="52.784992"
       y2="64.285713"
       gradientUnits="userSpaceOnUse"
       gradientTransform="matrix(0.94240313,0,0,0.94235186,4.3355449,1.4616586)" />
    <linearGradient
       inkscape:collect="always"
       xlink:href="#linearGradient3514"
       id="linearGradient3520"
       x1="33.392857"
       y1="72.678574"
       x2="32.597645"
       y2="54.107143"
       gradientUnits="userSpaceOnUse"
       gradientTransform="matrix(0.94240313,0,0,0.94235186,4.3355449,1.4616586)" />
    <linearGradient
       inkscape:collect="always"
       xlink:href="#linearGradient3514"
       id="linearGradient3534"
       x1="12.857142"
       y1="70"
       x2="11.428572"
       y2="53.75"
       gradientUnits="userSpaceOnUse"
       gradientTransform="matrix(0.94240313,0,0,0.94235186,4.3355449,1.4616586)" />
    <linearGradient
       inkscape:collect="always"
       xlink:href="#linearGradient3544"
       id="linearGradient3542"
       x1="71.785713"
       y1="58.035713"
       x2="75.263771"
       y2="28.392857"
       gradientUnits="userSpaceOnUse"
       gradientTransform="matrix(0.94240313,0,0,0.94235186,4.3355449,1.4616586)" />
    <linearGradient
       inkscape:collect="always"
       xlink:href="#linearGradient3544"
       id="linearGradient3550"
       x1="61.25"
       y1="60.535713"
       x2="62.325573"
       y2="31.071428"
       gradientUnits="userSpaceOnUse"
       gradientTransform="matrix(0.94240313,0,0,0.94235186,4.3355449,1.4616586)" />
    <linearGradient
       inkscape:collect="always"
       xlink:href="#linearGradient3572"
       id="linearGradient3597"
       gradientUnits="userSpaceOnUse"
       x1="36.250004"
       y1="38.39286"
       x2="47.544125"
       y2="56.022694"
       gradientTransform="matrix(0.94240313,0,0,0.94235186,4.3355449,1.4616586)" />
    <linearGradient
       inkscape:collect="always"
       xlink:href="#linearGradient3510"
       id="linearGradient3508"
       x1="43.562828"
       y1="8.4301825"
       x2="44.067905"
       y2="11.839447"
       gradientUnits="userSpaceOnUse" />
    <linearGradient
       inkscape:collect="always"
       xlink:href="#linearGradient3510"
       id="linearGradient3516"
       x1="33.71384"
       y1="16.763941"
       x2="38.133259"
       y2="17.774092"
       gradientUnits="userSpaceOnUse" />
    <linearGradient
       inkscape:collect="always"
       xlink:href="#linearGradient3510"
       id="linearGradient3535"
       x1="23.359777"
       y1="40.502525"
       x2="23.738585"
       y2="43.154175"
       gradientUnits="userSpaceOnUse" />
    <linearGradient
       inkscape:collect="always"
       xlink:href="#linearGradient3510"
       id="linearGradient3545"
       x1="9.0913725"
       y1="51.993011"
       x2="12.753177"
       y2="52.750626"
       gradientUnits="userSpaceOnUse" />
    <linearGradient
       inkscape:collect="always"
       xlink:href="#linearGradient3510"
       id="linearGradient3555"
       x1="67.301414"
       y1="20.046936"
       x2="67.680222"
       y2="22.951124"
       gradientUnits="userSpaceOnUse" />
  </defs>
  <sodipodi:namedview
     id="base"
     pagecolor="#ffffff"
     bordercolor="#666666"
     borderopacity="1.0"
     gridtolerance="10000"
     guidetolerance="10"
     objecttolerance="10"
     inkscape:pageopacity="0.0"
     inkscape:pageshadow="2"
     inkscape:zoom="5.6"
     inkscape:cx="31.940579"
     inkscape:cy="52.236503"
     inkscape:document-units="px"
     inkscape:current-layer="layer1"
     showgrid="false"
     inkscape:window-width="1024"
     inkscape:window-height="736"
     inkscape:window-x="0"
     inkscape:window-y="1" />
  <metadata
     id="metadata7">
    <rdf:RDF>
      <cc:Work
         rdf:about="">
        <dc:format>image/svg+xml</dc:format>
        <dc:type
           rdf:resource="http://purl.org/dc/dcmitype/StillImage" />
        <dc:title />
        <cc:license
           rdf:resource="http://creativecommons.org/licenses/by-sa/3.0/" />
      </cc:Work>
      <cc:License
         rdf:about="http://creativecommons.org/licenses/by-sa/3.0/">
        <cc:permits
           rdf:resource="http://creativecommons.org/ns#Reproduction" />
        <cc:permits
           rdf:resource="http://creativecommons.org/ns#Distribution" />
        <cc:requires
           rdf:resource="http://creativecommons.org/ns#Notice" />
        <cc:requires
           rdf:resource="http://creativecommons.org/ns#Attribution" />
        <cc:permits
           rdf:resource="http://creativecommons.org/ns#DerivativeWorks" />
        <cc:requires
           rdf:resource="http://creativecommons.org/ns#ShareAlike" />
      </cc:License>
    </rdf:RDF>
  </metadata>
  <g
     inkscape:label="Layer 1"
     inkscape:groupmode="layer"
     id="layer1">
    <path
       style="font-size:medium;font-style:normal;font-variant:normal;font-weight:normal;font-stretch:normal;text-indent:0;text-align:start;text-decoration:none;line-height:normal;letter-spacing:normal;word-spacing:normal;text-transform:none;direction:ltr;block-progression:tb;writing-mode:lr-tb;text-anchor:start;color:#000000;fill:#000000;fill-opacity:0.29411765;fill-rule:nonzero;stroke:none;stroke-width:4.5;marker:none;visibility:visible;display:inline;overflow:visible;enable-background:accumulate;font-family:Bitstream Vera Sans;-inkscape-font-specification:Bitstream Vera Sans"
       d="m 43.330357,5.2276786 c -10.679662,0.133115 -14.499268,5.8744194 -17.28125,8.6562504 -1.851149,3.365542 -1.516894,15.143916 -0.84375,21.875 -3.766312,0.301289 -7.65375,1.052764 -11.3125,2.125 l -1.125,-20.34375 4.1875,3.3125 L 9.6428569,5.3214286 3.9553572,22.383929 l 4.3125,-4.34375 1.1874997,21.34375 c -2.7657072,1.086732 -5.2844812,2.367859 -7.3124997,3.78125 -2.86086665,5.553145 0.5261695,24.740133 3.21875,30.125 0.3728722,0.127835 0.7499824,0.303563 1.125,0.46875 l -4.1875,7 a 3.0942148,3.0940465 0 0 0 1.0625,4.25 l 4.03125,2.40625 a 3.0942148,3.0940465 0 0 0 4.2499998,-1.0625 l 3.9375,-6.625 c 2.785942,2.052335 5.662895,4.045521 8.625,5.15625 1.358706,-1.53879 8.529003,-4.632232 16.5,-5.84375 l 1.4375,-4.0625 5.21875,2 c 3.254629,-2.790207 6.879796,-4.49387 11.03125,-4.59375 l 0.21875,-3.8125 5.125,3.03125 c 5.681008,-1.511275 10.170063,-2.48387 11.78125,-2.53125 -0.515065,-9.336418 8.928658,-47.300528 11.125,-49.125 -0.831485,-0.287806 -1.930642,-0.610595 -3.125,-0.9375 l 2.4375,-4.34375 a 3.0942148,3.0940465 0 0 0 -1.21875,-4.21875 l -4.125,-2.3125004 a 3.0942148,3.0940465 0 0 0 -1.8125,-0.375 3.0942148,3.0940465 0 0 0 -2.40625,1.5625 l -4.0625,7.1875004 c -1.550272,-0.265421 -2.82725,-0.4375 -3.53125,-0.4375 -2.692579,0 -4.223165,-0.519325 -8.09375,1.5 0,-1.009662 0.170825,-7.7234792 -1.34375,-9.4062504 -6.626272,-2.1770852 -11.852252,-2.9895885 -16.03125,-2.9375 z"
       id="path3576" />
    <path
       style="font-size:medium;font-style:normal;font-variant:normal;font-weight:normal;font-stretch:normal;text-indent:0;text-align:start;text-decoration:none;line-height:normal;letter-spacing:normal;word-spacing:normal;text-transform:none;direction:ltr;block-progression:tb;writing-mode:lr-tb;text-anchor:start;color:#000000;fill:#002f77;fill-opacity:1;fill-rule:nonzero;stroke:none;stroke-width:4.50000000000000000;marker:none;visibility:visible;display:inline;overflow:visible;enable-background:accumulate;font-family:Bitstream Vera Sans;-inkscape-font-specification:Bitstream Vera Sans"
       d="M 12.5 3 L 6.8125 20.0625 L 11.125 15.71875 L 14.40625 74.71875 L 18.90625 74.46875 L 15.625 15.21875 L 19.8125 18.53125 L 12.5 3 z "
       id="path3557" />
    <path
       style="fill:#593a28;fill-opacity:1;stroke:none"
       d="M 8.2061292,70.960108 C 5.5135487,65.575241 2.1478233,46.391649 5.0086899,40.838504 10.562136,36.96813 19.649596,34.107419 28.063909,33.43431 27.390765,26.703226 27.054191,14.923828 28.90534,11.558286 32.775924,7.6879121 38.665944,-1.9038838 62.226023,5.8368636 c 1.514575,1.6827712 1.34629,8.4138564 1.34629,9.4235184 3.870585,-2.019325 5.385162,-1.514494 8.077741,-1.514494 2.69258,0 13.462903,2.35588 17.838345,3.870374 -2.196342,1.824472 -11.621959,39.8005 -11.106894,49.136918 -1.611187,0.04738 -6.098584,1.014598 -11.779592,2.525873 l -5.142597,-3.039541 -0.21064,3.827045 c -4.151454,0.09988 -7.771984,1.792434 -11.026613,4.582641 l -5.207084,-1.982689 -1.459097,4.04458 C 35.584885,77.922607 28.412897,81.032441 27.054191,82.571231 20.322741,80.047073 14.096149,72.979434 8.2061292,70.960108 z"
       id="path3494"
       sodipodi:nodetypes="ccccccscccccccccc" />
    <path
       style="color:#000000;fill:url(#linearGradient3534);fill-opacity:1;stroke:none;stroke-width:2.44221544;marker:none;visibility:visible;display:inline;overflow:visible;enable-background:accumulate"
       d="m 11.684588,68.330762 c 5.424377,2.099138 9.824901,5.904385 13.958344,10.154682 0.546797,-8.562581 0.0754,-17.125164 0.349308,-25.509176 -3.690118,-3.00427 -11.224821,-5.651397 -17.749339,-8.655667 -0.7995632,8.392673 -0.088069,16.483192 3.441687,24.010161 z"
       id="path2700"
       sodipodi:nodetypes="ccccc" />
    <path
       style="fill:url(#linearGradient3520);fill-opacity:1;stroke:none"
       d="m 27.94896,77.856642 c 0.256129,-7.96481 -1.019273,-20.215334 -1.490707,-24.965858 4.641753,-1.835942 9.904326,-3.516107 15.930715,-7.659776 0.359669,9.517524 1.031487,19.035048 -1.539493,28.552571 -4.300171,-0.555991 -8.600343,1.644889 -12.900515,4.073063 z"
       id="path3474"
       sodipodi:nodetypes="ccccc" />
    <path
       style="fill:#31baff;fill-opacity:1;stroke:none"
       d="m 10.548929,42.853398 15.839356,10.138697 c 4.798539,-2.800632 9.778272,-5.057684 14.135799,-9.181353 -4.563904,-2.179862 -8.099371,-4.816721 -16.348625,-5.358949 -4.979788,0.810906 -9.51444,2.289393 -13.62653,4.401605 z"
       id="path3476"
       sodipodi:nodetypes="ccccc" />
    <path
       style="fill:url(#linearGradient3504);fill-opacity:1;stroke:none"
       d="M 43.671879,68.84383 C 44.956994,65.155051 46.342494,54.658968 45.139351,43.272598 42.024822,40.707065 37.159747,38.635793 33.612421,37.801128 32.105774,29.486986 31.675165,20.847511 32.980294,13.50936 l 18.292887,1.436175 c 0.162878,2.987073 -0.908277,37.224146 -2.989248,55.925504 -1.784249,-2.319518 -3.259776,-2.299038 -4.612054,-2.027209 z"
       id="path3478"
       sodipodi:nodetypes="ccccccc" />
    <path
       style="fill:url(#linearGradient3512);fill-opacity:1;stroke:none"
       d="m 50.380324,70.311034 c 1.969357,-18.444823 2.664073,-50.461074 0.605683,-55.513041 3.320579,-2.206769 4.902097,-3.219521 9.150248,-4.573439 -0.21862,18.811942 -0.46309,37.623884 -2.378048,56.435826 -2.459294,0.328879 -4.918589,0.770913 -7.377883,3.650654 z"
       id="path3480"
       sodipodi:nodetypes="ccccc" />
    <path
       style="fill:#ff7068;fill-opacity:1;stroke:none"
       d="m 35.286321,12.042159 c 5.617482,0.29614 12.088716,2.516227 16.048995,4.169201 0.478901,-1.048001 4.39063,-6.008668 6.56372,-7.0566695 C 54.840209,8.0987521 49.869325,7.0226707 43.462238,7.6405535 40.932164,7.936578 38.249373,9.1487505 35.286321,12.042159 z"
       id="path3482"
       sodipodi:nodetypes="ccccc" />
    <path
       style="fill:url(#linearGradient3542);fill-opacity:1;stroke:none"
       d="m 66.040245,65.168106 c 0.126243,-12.576014 0.665175,-25.152032 2.515667,-37.728048 5.310852,-3.536079 10.621705,-4.615214 15.932558,-6.078407 -5.161289,14.043217 -7.941385,28.086436 -9.643391,42.129653 -3.922182,-0.0991 -6.075424,0.98087 -8.804834,1.676802 z"
       id="path3484"
       sodipodi:nodetypes="ccccc" />
    <path
       style="fill:url(#linearGradient3550);fill-opacity:1;stroke:none"
       d="m 63.72214,64.333526 -3.063264,-2.439986 1.9803,-35.455517 3.686096,1.13305 c -2.050065,12.254152 -2.71849,24.508303 -2.603132,36.762453 z"
       id="path3488"
       sodipodi:nodetypes="ccccc" />
    <path
       style="fill:#ffe6ba;fill-opacity:1;stroke:none"
       d="m 62.639176,23.992426 4.336881,1.301328 c 4.982222,-2.909318 10.202806,-4.627042 15.618787,-5.36797 -4.952488,-0.994622 -9.708738,-2.146206 -16.757658,-1.463991 l -3.19801,1.452766 0,4.077867 z"
       id="path3490"
       sodipodi:nodetypes="cccccc" />
    <path
       style="fill:url(#linearGradient3555);fill-opacity:1;stroke:none"
       d="m 63.260803,20.425743 c 0,0 1.767767,0.252539 3.030458,-1.010152 2.146574,0.505076 8.965104,0.757614 11.490485,0.252538 -8.08122,2.525381 -13.005714,2.77792 -14.647212,2.399112 0.126269,-0.631345 0.126269,-1.641498 0.126269,-1.641498 z"
       id="path3547" />
    <path
       sodipodi:type="inkscape:offset"
       inkscape:radius="3.2829957"
       inkscape:original="M 82.375 7.5 L 64.3125 39.59375 L 56.9375 32.59375 L 54.875 30.625 L 53.1875 32.90625 L 33.34375 59.90625 L 27.25 50.78125 L 25.0625 47.5 L 23.03125 50.90625 L 3.6875 83.375 L 7.96875 85.9375 L 25.28125 56.84375 L 31.15625 65.65625 L 33.125 68.625 L 35.25 65.75 L 55.53125 38.15625 L 63.21875 45.4375 L 65.53125 47.65625 L 67.09375 44.84375 L 86.75 9.9375 L 82.375 7.5 z "
       style="font-size:medium;font-style:normal;font-variant:normal;font-weight:normal;font-stretch:normal;text-indent:0;text-align:start;text-decoration:none;line-height:normal;letter-spacing:normal;word-spacing:normal;text-transform:none;direction:ltr;block-progression:tb;writing-mode:lr-tb;text-anchor:start;color:#000000;fill:#002f77;fill-opacity:1;stroke:none;stroke-width:5;marker:none;visibility:visible;display:inline;overflow:visible;enable-background:accumulate;font-family:Bitstream Vera Sans;-inkscape-font-specification:Bitstream Vera Sans"
       id="path3588"
       d="M 82.0625,4.21875 A 3.283324,3.283324 0 0 0 79.5,5.875 L 63.5,34.3125 59.1875,30.21875 57.15625,28.25 A 3.283324,3.283324 0 0 0 52.25,28.6875 l -1.6875,2.28125 a 3.283324,3.283324 0 0 0 -0.03125,0 l -17.0625,23.21875 -3.5,-5.21875 -2.1875,-3.28125 A 3.283324,3.283324 0 0 0 22.25,45.8125 L 20.21875,49.21875 0.875,81.6875 A 3.283324,3.283324 0 0 0 2,86.1875 L 6.28125,88.75 a 3.283324,3.283324 0 0 0 4.5,-1.125 l 14.65625,-24.65625 3,4.5 1.9375,2.96875 a 3.283324,3.283324 0 0 0 5.375,0.125 l 2.125,-2.875 a 3.283324,3.283324 0 0 0 0.03125,0 l 18.0625,-24.59375 5,4.71875 2.28125,2.21875 A 3.283324,3.283324 0 0 0 68.40625,49.25 l 1.5625,-2.8125 19.65625,-34.875 a 3.283324,3.283324 0 0 0 -1.28125,-4.5 L 83.96875,4.625 A 3.283324,3.283324 0 0 0 82.0625,4.21875 z"
       transform="matrix(0.94240313,0,0,0.94235186,4.3355449,1.4616586)" />
    <path
       style="fill:none;stroke:url(#linearGradient3597);stroke-width:5;stroke-miterlimit:4;stroke-opacity:1;stroke-dasharray:none"
       d="M 9.8312949,81.22838 28.059375,50.624649 35.661349,62.02815 56.367292,33.875756 65.523545,42.569922 84.025563,9.6831952"
       id="path3492"
       sodipodi:nodetypes="cccccc" />
    <path
       style="fill:url(#linearGradient3508);fill-opacity:1;stroke:none"
       d="M 37.204134,11.093093 C 40.239848,8.5930929 43.780638,6.7117476 52.530638,8.6760333 46.338888,10.499944 42.557643,10.374569 37.204134,11.093093 z"
       id="path2726"
       sodipodi:nodetypes="ccc" />
    <path
       style="fill:url(#linearGradient3516);fill-opacity:1;stroke:none"
       d="m 33.713841,14.491097 c -0.499834,0 -1.839387,11.490485 0.126269,19.445437 -0.992549,-11.364216 3.337257,-17.046325 4.293149,-18.940361 -0.252538,-0.126269 -4.419418,-0.505076 -4.419418,-0.505076 z"
       id="path3500"
       sodipodi:nodetypes="cccc" />
    <path
       style="fill:#ffffff;fill-opacity:1;stroke:none"
       d="M 16.920055,65.377532 27.905464,47.068517 29.7995,49.846436 c -3.969103,-0.477695 -5.682108,5.177032 -12.879445,15.531096 z"
       id="path3518"
       sodipodi:nodetypes="cccc" />
    <path
       sodipodi:nodetypes="cccc"
       id="path3520"
       d="M 16.920055,65.377532 27.905464,47.068517 29.7995,49.846436 c -3.969103,-0.477695 -5.682108,5.177032 -12.879445,15.531096 z"
       style="fill:#ffffff;fill-opacity:1;stroke:none" />
    <path
       style="fill:#ffffff;fill-opacity:1;stroke:none"
       d="m 43.689097,47.9524 12.500638,-17.172593 2.146574,2.146574 C 55.882435,32.574955 51.896587,37.219529 43.689097,47.9524 z"
       id="path3522"
       sodipodi:nodetypes="cccc" />
    <path
       sodipodi:nodetypes="cccc"
       id="path3524"
       d="M 72.225906,26.486658 82.074894,8.9352582 84.221468,11.081832 C 81.262518,10.856675 79.92832,14.491097 72.225906,26.486658 z"
       style="fill:#ffffff;fill-opacity:1;stroke:none" />
    <path
       style="fill:url(#linearGradient3535);fill-opacity:1;stroke:none"
       d="m 13.763328,43.154176 c 0,0 7.449875,-6.439723 21.465742,-0.883884 -9.722718,-0.378807 -15.783634,0 -21.465742,0.883884 z"
       id="path3526" />
    <path
       style="fill:url(#linearGradient3545);fill-opacity:1;stroke:none"
       d="M 8.8388348,45.679557 C 7.8286822,53.129432 8.9651038,59.695424 11.364216,64.619917 10.85914,56.917504 12.2481,52.119279 14.015866,47.826131 13.384521,47.699862 9.217642,45.932095 8.8388348,45.679557 z"
       id="path3537"
       sodipodi:nodetypes="cccc" />
  </g>
</svg>
