<?xml version="1.0" encoding="UTF-8" standalone="no"?>
<!-- Created with Sodipodi ("http://www.sodipodi.com/") -->
<svg
   xmlns:dc="http://purl.org/dc/elements/1.1/"
   xmlns:cc="http://web.resource.org/cc/"
   xmlns:rdf="http://www.w3.org/1999/02/22-rdf-syntax-ns#"
   xmlns:svg="http://www.w3.org/2000/svg"
   xmlns="http://www.w3.org/2000/svg"
   xmlns:xlink="http://www.w3.org/1999/xlink"
   xmlns:sodipodi="http://sodipodi.sourceforge.net/DTD/sodipodi-0.dtd"
   xmlns:inkscape="http://www.inkscape.org/namespaces/inkscape"
   id="svg548"
   sodipodi:version="0.32"
   width="72pt"
   height="72pt"
   sodipodi:docbase="/home/tweenk/GNUtoon/apps"
   sodipodi:docname="restricted-manager.svg"
   inkscape:version="0.45.1"
   inkscape:output_extension="org.inkscape.output.svg.inkscape">
  <metadata
     id="metadata47">
    <rdf:RDF>
      <cc:Work
         rdf:about="">
        <dc:format>image/svg+xml</dc:format>
        <dc:type
           rdf:resource="http://purl.org/dc/dcmitype/StillImage" />
      </cc:Work>
    </rdf:RDF>
  </metadata>
  <defs
     id="defs550">
    <linearGradient
       id="linearGradient3704">
      <stop
         style="stop-color:#c2c2c2;stop-opacity:1;"
         offset="0"
         id="stop3706" />
      <stop
         style="stop-color:#ffffff;stop-opacity:1;"
         offset="1"
         id="stop3708" />
    </linearGradient>
    <linearGradient
       id="linearGradient3304">
      <stop
         style="stop-color:#cbff87;stop-opacity:1;"
         offset="0"
         id="stop3306" />
      <stop
         style="stop-color:#2aaf18;stop-opacity:1;"
         offset="1"
         id="stop3308" />
    </linearGradient>
    <linearGradient
       id="linearGradient577">
      <stop
         style="stop-color:#ffbd00;stop-opacity:1;"
         offset="0.000000"
         id="stop578" />
      <stop
         style="stop-color:#ff6d19;stop-opacity:1;"
         offset="1.000000"
         id="stop579" />
    </linearGradient>
    <linearGradient
       id="linearGradient568">
      <stop
         style="stop-color:#cfd2c2;stop-opacity:1;"
         offset="0.000000"
         id="stop569" />
      <stop
         style="stop-color:#595a59;stop-opacity:1;"
         offset="1.000000"
         id="stop570" />
    </linearGradient>
    <linearGradient
       id="linearGradient557">
      <stop
         style="stop-color:#ffff00;stop-opacity:1;"
         offset="0.000000"
         id="stop558" />
      <stop
         style="stop-color:#9d0000;stop-opacity:1;"
         offset="1.000000"
         id="stop559" />
    </linearGradient>
    <linearGradient
       inkscape:collect="always"
       xlink:href="#linearGradient3304"
       id="linearGradient3310"
       x1="44.29969"
       y1="11.090661"
       x2="19.698538"
       y2="74.261185"
       gradientUnits="userSpaceOnUse"
       gradientTransform="matrix(1,0,0,0.9334758,12.423928,13.417555)" />
    <linearGradient
       inkscape:collect="always"
       xlink:href="#linearGradient577"
       id="linearGradient3315"
       gradientUnits="userSpaceOnUse"
       gradientTransform="matrix(0.3079422,-0.2652036,0.2696505,0.3131058,7.1986981,41.409084)"
       spreadMethod="pad"
       x1="67.5966949"
       y1="48.1304512"
       x2="73.0329590"
       y2="62.9485321" />
    <linearGradient
       inkscape:collect="always"
       xlink:href="#linearGradient568"
       id="linearGradient3319"
       gradientUnits="userSpaceOnUse"
       gradientTransform="matrix(0.335902,-0.2892829,0.2472054,0.2870436,7.1986981,41.409084)"
       spreadMethod="pad"
       x1="61.635069"
       y1="42.958833"
       x2="65.301711"
       y2="50.903113" />
    <linearGradient
       inkscape:collect="always"
       xlink:href="#linearGradient577"
       id="linearGradient3324"
       gradientUnits="userSpaceOnUse"
       gradientTransform="matrix(0.3247525,-0.2796808,0.2556926,0.2968985,7.1986981,41.409084)"
       spreadMethod="pad"
       x1="25.7572994"
       y1="57.0723801"
       x2="24.1922855"
       y2="73.3503952" />
    <linearGradient
       inkscape:collect="always"
       xlink:href="#linearGradient568"
       id="linearGradient3328"
       gradientUnits="userSpaceOnUse"
       gradientTransform="matrix(0.4042784,-0.3481694,0.2053951,0.2384953,7.1986981,41.409084)"
       spreadMethod="pad"
       x1="3.44396615"
       y1="54.6343613"
       x2="12.9325171"
       y2="64.2783432" />
    <linearGradient
       inkscape:collect="always"
       xlink:href="#linearGradient557"
       id="linearGradient3331"
       gradientUnits="userSpaceOnUse"
       gradientTransform="matrix(0.3854045,-0.331915,0.2154534,0.2501747,7.1986981,41.409084)"
       spreadMethod="pad"
       x1="55.4934044"
       y1="45.3989868"
       x2="49.2034531"
       y2="41.1385117" />
    <linearGradient
       inkscape:collect="always"
       xlink:href="#linearGradient557"
       id="linearGradient3334"
       gradientUnits="userSpaceOnUse"
       gradientTransform="matrix(0.4334657,-0.3733059,0.1915647,0.2224362,7.1986981,41.409084)"
       spreadMethod="pad"
       x1="19.4011784"
       y1="49.7517815"
       x2="30.0717945"
       y2="59.1887779" />
    <radialGradient
       inkscape:collect="always"
       xlink:href="#linearGradient557"
       id="radialGradient3337"
       gradientUnits="userSpaceOnUse"
       gradientTransform="matrix(0.4640416,-0.3996383,0.1789426,0.20778,7.1986981,41.409084)"
       spreadMethod="pad"
       cx="22.8891735"
       cy="42.2030029"
       fx="22.8891735"
       fy="42.2030029"
       r="27.1401024" />
    <linearGradient
       inkscape:collect="always"
       xlink:href="#linearGradient568"
       id="linearGradient3341"
       gradientUnits="userSpaceOnUse"
       gradientTransform="matrix(0.48657,-0.4190399,0.1706575,0.1981597,7.1986981,41.409084)"
       spreadMethod="pad"
       x1="23.4216499"
       y1="36.1659203"
       x2="29.5057697"
       y2="61.8460312" />
    <linearGradient
       inkscape:collect="always"
       xlink:href="#linearGradient577"
       id="linearGradient3345"
       gradientUnits="userSpaceOnUse"
       gradientTransform="matrix(0.2949142,-0.2539837,0.2815625,0.3269374,7.1986981,41.409084)"
       spreadMethod="pad"
       x1="0.93126918"
       y1="52.570902"
       x2="6.9733135"
       y2="60.732933" />
    <linearGradient
       inkscape:collect="always"
       xlink:href="#linearGradient577"
       id="linearGradient3352"
       gradientUnits="userSpaceOnUse"
       gradientTransform="matrix(0.3079422,-0.2652036,0.2696505,0.3131058,3.62266,26.876622)"
       spreadMethod="pad"
       x1="67.5966949"
       y1="48.1304512"
       x2="73.0329590"
       y2="62.9485321" />
    <linearGradient
       inkscape:collect="always"
       xlink:href="#linearGradient568"
       id="linearGradient3356"
       gradientUnits="userSpaceOnUse"
       gradientTransform="matrix(0.335902,-0.2892829,0.2472054,0.2870436,3.62266,26.876622)"
       spreadMethod="pad"
       x1="61.635069"
       y1="42.958833"
       x2="65.301711"
       y2="50.903113" />
    <linearGradient
       inkscape:collect="always"
       xlink:href="#linearGradient577"
       id="linearGradient3361"
       gradientUnits="userSpaceOnUse"
       gradientTransform="matrix(0.3247525,-0.2796808,0.2556926,0.2968985,3.62266,26.876622)"
       spreadMethod="pad"
       x1="25.7572994"
       y1="57.0723801"
       x2="24.1922855"
       y2="73.3503952" />
    <linearGradient
       inkscape:collect="always"
       xlink:href="#linearGradient568"
       id="linearGradient3365"
       gradientUnits="userSpaceOnUse"
       gradientTransform="matrix(0.4042784,-0.3481694,0.2053951,0.2384953,3.62266,26.876622)"
       spreadMethod="pad"
       x1="3.44396615"
       y1="54.6343613"
       x2="12.9325171"
       y2="64.2783432" />
    <linearGradient
       inkscape:collect="always"
       xlink:href="#linearGradient557"
       id="linearGradient3368"
       gradientUnits="userSpaceOnUse"
       gradientTransform="matrix(0.3854045,-0.331915,0.2154534,0.2501747,3.62266,26.876622)"
       spreadMethod="pad"
       x1="55.4934044"
       y1="45.3989868"
       x2="49.2034531"
       y2="41.1385117" />
    <linearGradient
       inkscape:collect="always"
       xlink:href="#linearGradient557"
       id="linearGradient3371"
       gradientUnits="userSpaceOnUse"
       gradientTransform="matrix(0.4334657,-0.3733059,0.1915647,0.2224362,3.62266,26.876622)"
       spreadMethod="pad"
       x1="19.4011784"
       y1="49.7517815"
       x2="30.0717945"
       y2="59.1887779" />
    <radialGradient
       inkscape:collect="always"
       xlink:href="#linearGradient557"
       id="radialGradient3374"
       gradientUnits="userSpaceOnUse"
       gradientTransform="matrix(0.4640416,-0.3996383,0.1789426,0.20778,3.62266,26.876622)"
       spreadMethod="pad"
       cx="22.8891735"
       cy="42.2030029"
       fx="22.8891735"
       fy="42.2030029"
       r="27.1401024" />
    <linearGradient
       inkscape:collect="always"
       xlink:href="#linearGradient568"
       id="linearGradient3378"
       gradientUnits="userSpaceOnUse"
       gradientTransform="matrix(0.48657,-0.4190399,0.1706575,0.1981597,3.62266,26.876622)"
       spreadMethod="pad"
       x1="23.4216499"
       y1="36.1659203"
       x2="29.5057697"
       y2="61.8460312" />
    <linearGradient
       inkscape:collect="always"
       xlink:href="#linearGradient577"
       id="linearGradient3382"
       gradientUnits="userSpaceOnUse"
       gradientTransform="matrix(0.2949142,-0.2539837,0.2815625,0.3269374,3.62266,26.876622)"
       spreadMethod="pad"
       x1="0.93126918"
       y1="52.570902"
       x2="6.9733135"
       y2="60.732933" />
    <linearGradient
       inkscape:collect="always"
       xlink:href="#linearGradient3704"
       id="linearGradient3710"
       x1="66.203819"
       y1="72.367126"
       x2="81.710876"
       y2="21.705616"
       gradientUnits="userSpaceOnUse" />
  </defs>
  <sodipodi:namedview
     id="base"
     inkscape:zoom="4.5222222"
     inkscape:cx="55.859866"
     inkscape:cy="51.580566"
     inkscape:window-width="816"
     inkscape:window-height="626"
     inkscape:window-x="207"
     inkscape:window-y="86"
     inkscape:current-layer="svg548">
    <sodipodi:guide
       orientation="vertical"
       position="0.00000000"
       id="guide552" />
    <sodipodi:guide
       orientation="horizontal"
       position="72.0000076"
       id="guide553" />
    <sodipodi:guide
       orientation="vertical"
       position="71.7500076"
       id="guide554" />
    <sodipodi:guide
       orientation="horizontal"
       position="0.25000003"
       id="guide555" />
  </sodipodi:namedview>
  <path
     sodipodi:type="arc"
     style="opacity:1;fill:#000000;fill-opacity:0.3019608;stroke:none;stroke-width:0.30000001;stroke-linecap:round;stroke-linejoin:miter;stroke-miterlimit:4;stroke-dasharray:none;stroke-opacity:1"
     id="path3730"
     sodipodi:cx="45.110565"
     sodipodi:cy="82.702705"
     sodipodi:rx="40.245701"
     sodipodi:ry="3.7592137"
     d="M 85.356266 82.702705 A 40.245701 3.7592137 0 1 1  4.8648643,82.702705 A 40.245701 3.7592137 0 1 1  85.356266 82.702705 z"
     transform="matrix(1,0,0,2.1176471,0,-93.980348)" />
  <path
     style="fill:#0d3c07;fill-opacity:1;fill-rule:evenodd;stroke:none;stroke-width:1px;stroke-linecap:butt;stroke-linejoin:miter;stroke-opacity:1"
     d="M 9.7971932,76.033561 L 31.220001,24.357801 L 75.419217,16.403306 L 77.878477,11.353358 L 85.624545,10.121031 L 90.958498,18.8722 L 87.387077,21.055085 L 68.579896,84.780939 L 63.574384,87.53715 L 61.271486,89.966665 L 56.212319,88.536033 L 55.242711,84.859829 L 51.796223,82.247261 L 52.360162,81.024309 L 14.611581,81.379372 L 16.493797,76.08875 L 9.7971932,76.033561 z "
     id="path2242"
     sodipodi:nodetypes="ccccccccccccccccc" />
  <path
     style="fill:url(#linearGradient3310);fill-opacity:1;fill-rule:evenodd;stroke:none;stroke-width:1px;stroke-linecap:butt;stroke-linejoin:miter;stroke-opacity:1"
     d="M 74.496756,19.545392 L 33.808796,27.154937 L 14.19297,72.866433 L 21.017422,72.94867 L 18.413951,79.081721 L 53.172058,78.523488 L 74.496756,19.545392 z "
     id="path2238"
     sodipodi:nodetypes="ccccccc" />
  <path
     style="fill:url(#linearGradient3710);fill-opacity:1.0;fill-rule:evenodd;stroke:none;stroke-width:1px;stroke-linecap:butt;stroke-linejoin:miter;stroke-opacity:1"
     d="M 60.608096,86.791001 L 57.79817,84.720613 L 58.666976,83.135657 L 55.883879,79.895353 L 79.426389,13.623975 L 82.8905,12.910793 L 87.965382,18.584212 L 85.34325,18.880344 L 66.158576,82.541499 L 61.999645,83.823795"
     id="path3220"
     sodipodi:nodetypes="cccccccccc" />
  <path
     style="fill:#fbff00;fill-opacity:1;fill-rule:evenodd;stroke:none;stroke-width:1px;stroke-linecap:butt;stroke-linejoin:miter;stroke-opacity:1"
     d="M 20.711154,78.309517 L 23.873213,70.386504 L 28.008211,70.386504 L 25.332624,77.856774 L 20.711154,78.309517 z "
     id="path3222" />
  <path
     style="fill:#fbff00;fill-opacity:1;fill-rule:evenodd;stroke:none;stroke-width:1px;stroke-linecap:butt;stroke-linejoin:miter;stroke-opacity:1"
     d="M 27.278508,78.196332 L 30.440566,70.273319 L 34.575565,70.273319 L 31.899978,77.743589 L 27.278508,78.196332 z "
     id="path3224" />
  <path
     style="fill:#fbff00;fill-opacity:1;fill-rule:evenodd;stroke:none;stroke-width:1px;stroke-linecap:butt;stroke-linejoin:miter;stroke-opacity:1"
     d="M 34.089093,77.96996 L 37.251151,70.046947 L 41.38615,70.046947 L 38.710564,77.517217 L 34.089093,77.96996 z "
     id="path3226" />
  <path
     style="fill:#fbff00;fill-opacity:1;fill-rule:evenodd;stroke:none;stroke-width:1px;stroke-linecap:butt;stroke-linejoin:miter;stroke-opacity:1"
     d="M 40.656445,77.743589 L 43.818504,69.820576 L 47.953502,69.820576 L 45.277915,77.290845 L 40.656445,77.743589 z "
     id="path3228" />
  <path
     style="fill:#fbff00;fill-opacity:1;fill-rule:evenodd;stroke:none;stroke-width:1px;stroke-linecap:butt;stroke-linejoin:miter;stroke-opacity:1"
     d="M 47.467034,77.517217 L 50.629092,69.594204 L 54.764091,69.594204 L 52.088504,77.064473 L 47.467034,77.517217 z "
     id="path3230" />
  <g
     id="g3386"
     transform="matrix(0.9365374,0,0,0.9365374,14.226771,12.937278)">
    <path
       sodipodi:nodetypes="cccc"
       id="path592"
       d="M 17.6134,40.178412 C 18.923555,42.092185 18.150036,43.941386 21.867432,47.669134 C 24.473921,45.593399 24.549197,42.148466 24.549197,42.148466 C 23.23822,41.869101 20.509398,41.120802 18.489483,40.606956"
       style="fill:#000000;fill-opacity:1;fill-rule:evenodd;stroke:none;stroke-width:1pt;stroke-linecap:butt;stroke-linejoin:miter;stroke-opacity:1" />
    <path
       sodipodi:nodetypes="cccc"
       id="path590"
       d="M 19.977477,41.35354 C 19.59303,43.262031 20.750419,45.194662 22.155775,46.237773 C 22.870013,44.777636 23.584264,43.317489 24.298493,41.85736 C 22.831221,42.050608 21.474457,41.979734 19.977477,41.35354 z "
       style="fill:url(#linearGradient3382);fill-opacity:1;fill-rule:evenodd;stroke:none;stroke-width:1pt;stroke-linecap:butt;stroke-linejoin:miter;stroke-opacity:1" />
    <path
       sodipodi:nodetypes="ccccccc"
       id="path589"
       d="M 14.470277,38.491172 C 16.710383,40.111075 19.743004,42.062487 21.98311,43.68239 C 26.926634,41.11502 33.579125,38.765919 38.522648,36.19855 C 40.61232,30.906142 42.324496,24.586743 44.414168,19.294336 C 43.33137,17.579124 41.914242,15.475766 40.831445,13.760554 C 41.119787,12.329193 24.264619,15.521716 21.027577,21.182585 C 19.892851,23.004851 15.297665,35.919557 14.470277,38.491172 z "
       style="fill:#000000;fill-opacity:1;fill-rule:evenodd;stroke:none;stroke-width:1pt;stroke-linecap:butt;stroke-linejoin:miter;stroke-opacity:1" />
    <path
       sodipodi:nodetypes="ccccc"
       id="path567"
       d="M 33.548966,29.834615 C 33.368363,29.821148 16.60782,37.833331 16.60782,37.833331 C 18.729816,32.513085 20.851817,27.192782 22.973813,21.872536 C 27.910082,18.184731 33.6012,16.55087 39.335511,15.555885 C 37.406682,20.315463 35.477796,25.075037 33.548966,29.834615 z "
       style="fill:url(#linearGradient3378);fill-opacity:1;fill-rule:evenodd;stroke:none;stroke-width:1pt;stroke-linecap:butt;stroke-linejoin:miter;stroke-opacity:1" />
    <path
       sodipodi:nodetypes="ccccccc"
       id="path566"
       d="M 20.591447,30.684468 C 20.981422,31.13729 21.371424,31.590142 21.7614,32.042964 C 25.022035,30.530554 28.881141,29.516819 32.629718,28.767225 C 33.186584,25.358204 34.482153,23.003108 35.721031,20.189766 C 35.279843,19.612044 34.838597,19.034318 34.397409,18.456596 C 30.941772,19.74258 27.486136,21.028564 24.030499,22.314547 C 22.369264,24.702902 21.125895,27.576464 20.591447,30.684468 z "
       style="fill:#000000;fill-opacity:1;fill-rule:evenodd;stroke:none;stroke-width:1pt;stroke-linecap:butt;stroke-linejoin:miter;stroke-opacity:1" />
    <path
       sodipodi:nodetypes="ccccc"
       id="path556"
       d="M 21.631901,30.126426 C 24.800922,29.030927 27.969939,27.935485 31.13896,26.839985 C 32.142462,24.342058 33.145967,21.844073 34.149469,19.346146 C 30.943606,20.529674 27.73777,21.713232 24.531908,22.89676 C 23.147408,24.821482 22.277756,27.147782 21.631901,30.126426 z "
       style="fill:url(#radialGradient3374);fill-opacity:1;fill-rule:evenodd;stroke:none;stroke-width:1pt;stroke-linecap:butt;stroke-linejoin:miter;stroke-opacity:1" />
    <path
       sodipodi:nodetypes="ccccc"
       id="path562"
       d="M 31.209061,27.117624 L 31.586499,28.144611 L 21.912304,31.236982 L 21.340795,30.377131 L 31.209061,27.117624 z "
       style="fill:url(#linearGradient3371);fill-opacity:1;fill-rule:evenodd;stroke:none;stroke-width:1pt;stroke-linecap:butt;stroke-linejoin:miter;stroke-opacity:1" />
    <path
       sodipodi:nodetypes="ccccc"
       id="path564"
       d="M 31.389664,27.131091 L 31.877605,27.893907 L 34.901581,20.219465 L 34.316605,19.540217 L 31.389664,27.131091 z "
       style="fill:url(#linearGradient3368);fill-opacity:1;fill-rule:evenodd;stroke:none;stroke-width:1pt;stroke-linecap:butt;stroke-linejoin:miter;stroke-opacity:1" />
    <path
       sodipodi:nodetypes="ccccc"
       id="path580"
       d="M 33.508564,30.376425 L 37.018423,34.451912 L 22.047683,41.598716 L 16.871991,37.943834 L 33.508564,30.376425 z "
       style="fill:url(#linearGradient3365);fill-opacity:1;fill-rule:evenodd;stroke:none;stroke-width:1pt;stroke-linecap:butt;stroke-linejoin:miter;stroke-opacity:1" />
    <path
       sodipodi:nodetypes="ccccc"
       id="path574"
       d="M 33.249921,32.627235 C 33.268916,34.807944 35.762491,37.89961 38.560639,40.559968 C 36.118522,41.649116 26.226086,46.450487 26.226086,46.450487 C 24.238411,43.880813 21.779021,41.548434 21.136374,37.989411 C 24.822896,36.448233 28.911085,34.392183 33.249921,32.627235 z "
       style="fill:#000000;fill-opacity:1;fill-rule:evenodd;stroke:none;stroke-width:1pt;stroke-linecap:butt;stroke-linejoin:miter;stroke-opacity:1" />
    <path
       sodipodi:nodetypes="ccccc"
       id="path572"
       d="M 22.470699,38.361321 L 32.252632,33.824123 C 33.365129,36.358784 34.865824,38.559177 36.754604,40.425294 C 36.754604,40.425294 26.514428,45.019126 26.417393,45.102694 C 24.872766,43.897867 22.252457,40.070321 22.470699,38.361321 z "
       style="fill:url(#linearGradient3361);fill-opacity:1;fill-rule:evenodd;stroke:none;stroke-width:1pt;stroke-linecap:butt;stroke-linejoin:miter;stroke-opacity:1" />
    <path
       id="path575"
       d="M 25.023318,37.008001 C 25.023318,37.008001 27.010309,43.240026 29.929663,44.274953"
       style="fill:none;fill-opacity:1;fill-rule:evenodd;stroke:#000000;stroke-width:1.07570815;stroke-linecap:butt;stroke-linejoin:miter;stroke-dasharray:none;stroke-opacity:1" />
    <path
       sodipodi:nodetypes="cc"
       id="path576"
       d="M 29.185137,34.775834 C 29.17167,34.956437 30.196246,39.482228 33.730275,42.015851"
       style="fill:none;fill-opacity:1;fill-rule:evenodd;stroke:#000000;stroke-width:1.02448404;stroke-linecap:butt;stroke-linejoin:miter;stroke-dasharray:none;stroke-opacity:1" />
    <path
       sodipodi:nodetypes="ccccc"
       id="path587"
       d="M 34.007209,29.777982 L 37.336464,33.840001 L 42.691701,19.256698 L 40.154961,15.526186 L 34.007209,29.777982 z "
       style="fill:url(#linearGradient3356);fill-opacity:1;fill-rule:evenodd;stroke:none;stroke-width:1pt;stroke-linecap:butt;stroke-linejoin:miter;stroke-opacity:1" />
    <path
       sodipodi:nodetypes="ccccc"
       id="path584"
       d="M 35.298368,29.511046 C 37.967948,30.648429 40.014887,32.829 41.342203,36.136388 C 42.282858,34.481258 46.762366,25.553296 47.328347,24.051835 C 46.4495,22.442635 43.91276,18.712123 40.30069,18.442776 C 39.45707,20.014338 35.918218,27.287171 35.298368,29.511046 z "
       style="fill:#000000;fill-opacity:1;fill-rule:evenodd;stroke:none;stroke-width:1pt;stroke-linecap:butt;stroke-linejoin:miter;stroke-opacity:1" />
    <path
       sodipodi:nodetypes="ccccc"
       id="path582"
       d="M 36.602994,29.063507 C 38.54923,29.753458 40.193657,32.055373 41.23964,33.858644 C 42.430999,32.49462 45.789248,25.20832 46.231259,24.151634 C 45.101708,22.251328 42.761802,19.534337 40.734762,19.928006 C 40.583857,20.733988 37.292945,27.117271 36.602994,29.063507 z "
       style="fill:url(#linearGradient3352);fill-opacity:1;fill-rule:evenodd;stroke:none;stroke-width:1pt;stroke-linecap:butt;stroke-linejoin:miter;stroke-opacity:1" />
    <path
       sodipodi:nodetypes="cc"
       id="path585"
       d="M 37.818524,26.15762 C 37.818524,26.15762 41.754163,28.176368 42.983513,31.173763"
       style="fill:none;fill-opacity:1;fill-rule:evenodd;stroke:#000000;stroke-width:0.81958717;stroke-linecap:butt;stroke-linejoin:miter;stroke-dasharray:none;stroke-opacity:1" />
    <path
       sodipodi:nodetypes="cc"
       id="path586"
       d="M 39.670136,22.027911 C 39.670136,22.027911 43.40894,23.033139 45.112764,26.973953"
       style="fill:none;fill-opacity:1;fill-rule:evenodd;stroke:#000000;stroke-width:0.81958717;stroke-linecap:butt;stroke-linejoin:miter;stroke-dasharray:none;stroke-opacity:1" />
    <path
       sodipodi:nodetypes="cccc"
       id="path3242"
       d="M 21.189439,54.710874 C 22.499593,56.624647 21.726074,58.473848 25.44347,62.201596 C 28.049959,60.125861 28.125235,56.680928 28.125235,56.680928 C 26.814258,56.401563 24.085436,55.653264 22.065521,55.139418"
       style="fill:#000000;fill-opacity:1;fill-rule:evenodd;stroke:none;stroke-width:1pt;stroke-linecap:butt;stroke-linejoin:miter;stroke-opacity:1" />
    <path
       sodipodi:nodetypes="cccc"
       id="path3244"
       d="M 23.553515,55.886002 C 23.169068,57.794493 24.326457,59.727124 25.731813,60.770235 C 26.446051,59.310098 27.160302,57.849951 27.874531,56.389822 C 26.407259,56.58307 25.050495,56.512196 23.553515,55.886002 z "
       style="fill:url(#linearGradient3345);fill-opacity:1;fill-rule:evenodd;stroke:none;stroke-width:1pt;stroke-linecap:butt;stroke-linejoin:miter;stroke-opacity:1" />
    <path
       sodipodi:nodetypes="ccccccc"
       id="path3246"
       d="M 18.046315,53.023634 C 20.286421,54.643537 23.319042,56.594949 25.559149,58.214852 C 30.502672,55.647482 37.155163,53.298381 42.098686,50.731012 C 44.188358,45.438604 45.900534,39.119205 47.990206,33.826798 C 46.907408,32.111586 45.49028,30.008228 44.407483,28.293016 C 44.695825,26.861655 27.840658,30.054178 24.603615,35.715047 C 23.468889,37.537313 18.873704,50.452019 18.046315,53.023634 z "
       style="fill:#000000;fill-opacity:1;fill-rule:evenodd;stroke:none;stroke-width:1pt;stroke-linecap:butt;stroke-linejoin:miter;stroke-opacity:1" />
    <path
       sodipodi:nodetypes="ccccc"
       id="path3248"
       d="M 37.125005,44.367077 C 36.944401,44.35361 20.183858,52.365793 20.183858,52.365793 C 22.305854,47.045547 24.427855,41.725244 26.549851,36.404998 C 31.48612,32.717193 37.177238,31.083332 42.91155,30.088347 C 40.98272,34.847925 39.053834,39.607499 37.125005,44.367077 z "
       style="fill:url(#linearGradient3341);fill-opacity:1;fill-rule:evenodd;stroke:none;stroke-width:1pt;stroke-linecap:butt;stroke-linejoin:miter;stroke-opacity:1" />
    <path
       sodipodi:nodetypes="ccccccc"
       id="path3250"
       d="M 24.167485,45.21693 C 24.55746,45.669752 24.947462,46.122604 25.337438,46.575426 C 28.598073,45.063016 32.457179,44.049281 36.205756,43.299687 C 36.762622,39.890666 38.058191,37.53557 39.297069,34.722228 C 38.855881,34.144506 38.414635,33.56678 37.973447,32.989058 C 34.517811,34.275042 31.062174,35.561026 27.606537,36.847009 C 25.945302,39.235364 24.701933,42.108926 24.167485,45.21693 z "
       style="fill:#000000;fill-opacity:1;fill-rule:evenodd;stroke:none;stroke-width:1pt;stroke-linecap:butt;stroke-linejoin:miter;stroke-opacity:1" />
    <path
       sodipodi:nodetypes="ccccc"
       id="path3252"
       d="M 25.20794,44.658888 C 28.376961,43.563389 31.545977,42.467947 34.714998,41.372447 C 35.7185,38.87452 36.722005,36.376535 37.725507,33.878608 C 34.519644,35.062136 31.313808,36.245694 28.107946,37.429222 C 26.723446,39.353944 25.853795,41.680244 25.20794,44.658888 z "
       style="fill:url(#radialGradient3337);fill-opacity:1;fill-rule:evenodd;stroke:none;stroke-width:1pt;stroke-linecap:butt;stroke-linejoin:miter;stroke-opacity:1" />
    <path
       sodipodi:nodetypes="ccccc"
       id="path3254"
       d="M 34.785099,41.650086 L 35.162537,42.677073 L 25.488342,45.769444 L 24.916833,44.909593 L 34.785099,41.650086 z "
       style="fill:url(#linearGradient3334);fill-opacity:1;fill-rule:evenodd;stroke:none;stroke-width:1pt;stroke-linecap:butt;stroke-linejoin:miter;stroke-opacity:1" />
    <path
       sodipodi:nodetypes="ccccc"
       id="path3256"
       d="M 34.965702,41.663553 L 35.453643,42.426369 L 38.47762,34.751927 L 37.892643,34.072679 L 34.965702,41.663553 z "
       style="fill:url(#linearGradient3331);fill-opacity:1;fill-rule:evenodd;stroke:none;stroke-width:1pt;stroke-linecap:butt;stroke-linejoin:miter;stroke-opacity:1" />
    <path
       sodipodi:nodetypes="ccccc"
       id="path3258"
       d="M 37.084603,44.908887 L 40.594461,48.984374 L 25.623721,56.131178 L 20.448029,52.476296 L 37.084603,44.908887 z "
       style="fill:url(#linearGradient3328);fill-opacity:1;fill-rule:evenodd;stroke:none;stroke-width:1pt;stroke-linecap:butt;stroke-linejoin:miter;stroke-opacity:1" />
    <path
       sodipodi:nodetypes="ccccc"
       id="path3260"
       d="M 36.825959,47.159697 C 36.844954,49.340406 39.338529,52.432072 42.136677,55.09243 C 39.69456,56.181578 29.802124,60.982949 29.802124,60.982949 C 27.814449,58.413275 25.355059,56.080896 24.712412,52.521873 C 28.398934,50.980695 32.487123,48.924645 36.825959,47.159697 z "
       style="fill:#000000;fill-opacity:1;fill-rule:evenodd;stroke:none;stroke-width:1pt;stroke-linecap:butt;stroke-linejoin:miter;stroke-opacity:1" />
    <path
       sodipodi:nodetypes="ccccc"
       id="path3262"
       d="M 26.046737,52.893783 L 35.82867,48.356585 C 36.941167,50.891246 38.441863,53.091639 40.330642,54.957756 C 40.330642,54.957756 30.090467,59.551588 29.993431,59.635156 C 28.448804,58.430329 25.828495,54.602783 26.046737,52.893783 z "
       style="fill:url(#linearGradient3324);fill-opacity:1;fill-rule:evenodd;stroke:none;stroke-width:1pt;stroke-linecap:butt;stroke-linejoin:miter;stroke-opacity:1" />
    <path
       id="path3264"
       d="M 28.599356,51.540463 C 28.599356,51.540463 30.586347,57.772488 33.505701,58.807415"
       style="fill:none;fill-opacity:1;fill-rule:evenodd;stroke:#000000;stroke-width:1.07570815;stroke-linecap:butt;stroke-linejoin:miter;stroke-dasharray:none;stroke-opacity:1" />
    <path
       sodipodi:nodetypes="cc"
       id="path3266"
       d="M 32.761175,49.308296 C 32.747708,49.488899 33.772284,54.01469 37.306313,56.548313"
       style="fill:none;fill-opacity:1;fill-rule:evenodd;stroke:#000000;stroke-width:1.02448404;stroke-linecap:butt;stroke-linejoin:miter;stroke-dasharray:none;stroke-opacity:1" />
    <path
       sodipodi:nodetypes="ccccc"
       id="path3268"
       d="M 37.583247,44.310444 L 40.912502,48.372463 L 46.267739,33.78916 L 43.730999,30.058648 L 37.583247,44.310444 z "
       style="fill:url(#linearGradient3319);fill-opacity:1;fill-rule:evenodd;stroke:none;stroke-width:1pt;stroke-linecap:butt;stroke-linejoin:miter;stroke-opacity:1" />
    <path
       sodipodi:nodetypes="ccccc"
       id="path3270"
       d="M 38.874406,44.043508 C 41.543986,45.180891 43.590925,47.361462 44.918241,50.66885 C 45.858896,49.01372 50.338404,40.085758 50.904385,38.584297 C 50.025538,36.975097 47.488798,33.244585 43.876728,32.975238 C 43.033108,34.5468 39.494256,41.819633 38.874406,44.043508 z "
       style="fill:#000000;fill-opacity:1;fill-rule:evenodd;stroke:none;stroke-width:1pt;stroke-linecap:butt;stroke-linejoin:miter;stroke-opacity:1" />
    <path
       sodipodi:nodetypes="ccccc"
       id="path3272"
       d="M 40.179032,43.595969 C 42.125268,44.28592 43.769695,46.587835 44.815678,48.391106 C 46.007037,47.027082 49.365286,39.740782 49.807297,38.684096 C 48.677746,36.78379 46.33784,34.066799 44.3108,34.460468 C 44.159895,35.26645 40.868983,41.649733 40.179032,43.595969 z "
       style="fill:url(#linearGradient3315);fill-opacity:1;fill-rule:evenodd;stroke:none;stroke-width:1pt;stroke-linecap:butt;stroke-linejoin:miter;stroke-opacity:1" />
    <path
       sodipodi:nodetypes="cc"
       id="path3274"
       d="M 41.394562,40.690082 C 41.394562,40.690082 45.330201,42.70883 46.559551,45.706225"
       style="fill:none;fill-opacity:1;fill-rule:evenodd;stroke:#000000;stroke-width:0.81958717;stroke-linecap:butt;stroke-linejoin:miter;stroke-dasharray:none;stroke-opacity:1" />
    <path
       sodipodi:nodetypes="cc"
       id="path3276"
       d="M 43.246174,36.560373 C 43.246174,36.560373 46.984978,37.565601 48.688802,41.506415"
       style="fill:none;fill-opacity:1;fill-rule:evenodd;stroke:#000000;stroke-width:0.81958717;stroke-linecap:butt;stroke-linejoin:miter;stroke-dasharray:none;stroke-opacity:1" />
  </g>
  <path
     sodipodi:type="arc"
     style="opacity:1;fill:#002f77;fill-opacity:1;stroke:none;stroke-width:0.30000001;stroke-linecap:round;stroke-linejoin:miter;stroke-miterlimit:4;stroke-dasharray:none;stroke-opacity:1"
     id="path3424"
     sodipodi:cx="68.799576"
     sodipodi:cy="23.858587"
     sodipodi:rx="1.8763522"
     sodipodi:ry="2.3454401"
     d="M 70.675928 23.858587 A 1.8763522 2.3454401 0 1 1  66.923224,23.858587 A 1.8763522 2.3454401 0 1 1  70.675928 23.858587 z"
     transform="matrix(1.2083333,0,0,1.0333333,-5.49875,6.7883035)" />
  <path
     sodipodi:type="arc"
     style="opacity:1;fill:#002f77;fill-opacity:1;stroke:none;stroke-width:0.30000001;stroke-linecap:round;stroke-linejoin:miter;stroke-miterlimit:4;stroke-dasharray:none;stroke-opacity:1"
     id="path3426"
     sodipodi:cx="68.799576"
     sodipodi:cy="23.858587"
     sodipodi:rx="1.8763522"
     sodipodi:ry="2.3454401"
     d="M 70.675928 23.858587 A 1.8763522 2.3454401 0 1 1  66.923224,23.858587 A 1.8763522 2.3454401 0 1 1  70.675928 23.858587 z"
     transform="matrix(1.2083333,0,0,1.0333333,-7.922367,13.902806)" />
  <path
     sodipodi:type="arc"
     style="opacity:1;fill:#002f77;fill-opacity:1;stroke:none;stroke-width:0.30000001;stroke-linecap:round;stroke-linejoin:miter;stroke-miterlimit:4;stroke-dasharray:none;stroke-opacity:1"
     id="path3428"
     sodipodi:cx="68.799576"
     sodipodi:cy="23.858587"
     sodipodi:rx="1.8763522"
     sodipodi:ry="2.3454401"
     d="M 70.675928 23.858587 A 1.8763522 2.3454401 0 1 1  66.923224,23.858587 A 1.8763522 2.3454401 0 1 1  70.675928 23.858587 z"
     transform="matrix(1.2083333,0,0,1.0333333,-10.267807,20.782766)" />
  <path
     style="fill:#002f77;fill-opacity:1;fill-rule:evenodd;stroke:none;stroke-width:1px;stroke-linecap:butt;stroke-linejoin:miter;stroke-opacity:1"
     d="M 69.314015,50.127518 L 63.348779,65.978004 L 66.927921,67.17105 L 72.552286,51.831871 L 69.314015,50.127518 z "
     id="path3430" />
  <g
     id="g2798"
     transform="matrix(1.0793157,0,0,1.0793157,0.7714637,0.2195751)">
    <path
       transform="matrix(1.6376017,0,0,1.6376017,-5.7391003,1.0676345)"
       d="M 13.6875,1.0625 C 11.815211,1.0610059 10.071976,1.5951981 8.75,2.6875 C 7.4280237,3.7798019 6.6065843,5.4588227 6.59375,7.375 L 6.59375,10.84375 C 6.1890138,11.06895 5.7303381,11.237376 5.40625,11.5625 C 4.9406638,12.029574 4.6599583,12.676237 4.53125,13.375 C 4.5252509,13.407569 4.5049203,13.435845 4.5,13.46875 C 4.4890709,13.489323 4.478651,13.510163 4.46875,13.53125 C 4.4075765,13.690892 4.3758142,13.860291 4.375,14.03125 L 4.40625,23.78125 C 4.4033746,23.833294 4.4033746,23.885456 4.40625,23.9375 C 4.5993342,25.649465 5.277791,27.098984 6.4375,28.03125 C 7.597209,28.963516 9.0786341,29.345906 10.71875,29.5 C 10.760396,29.50184 10.802104,29.50184 10.84375,29.5 L 19.9375,29.5 C 21.623605,29.532908 23.078778,28.936991 24.03125,27.90625 C 24.983722,26.875509 25.377507,25.51897 25.375,24.15625 L 25.375,16.46875 L 25.375,16.25 C 25.387162,16.165603 25.40625,16.121589 25.40625,15.96875 L 25.40625,13.875 C 25.40625,12.537489 24.516057,11.636668 23.4375,10.96875 L 23.4375,7.5 C 23.437501,3.7433833 20.031138,1.097535 16.4375,1.0625 L 13.6875,1.0625 z M 13.65625,7.21875 L 16.375,7.21875 C 17.22378,7.2187501 17.28125,7.9430555 17.28125,7.5 L 17.28125,9.8125 L 12.75,9.8125 L 12.75,7.375 C 12.75,7.8179961 12.727893,7.2187501 13.65625,7.21875 z "
       id="path3240"
       style="font-size:12px;fill:#000000;fill-rule:evenodd"
       inkscape:original="M 13.6875 2.46875 C 10.481183 2.4661913 8.0206471 4.2923732 8 7.375 L 8 11.625 C 6.690965 12.088687 5.8125 12.91445 5.8125 13.875 L 5.8125 14.03125 L 5.78125 14.03125 L 5.8125 23.78125 C 6.1416031 26.699215 7.8611266 27.813523 10.84375 28.09375 L 19.9375 28.09375 C 22.663239 28.146948 23.972703 26.304865 23.96875 24.15625 L 23.96875 16.25 C 23.982136 16.159331 24 16.065706 24 15.96875 L 24 13.875 C 24 12.965512 23.22541 12.163533 22.03125 11.6875 L 22.03125 7.5 C 22.031251 4.6228379 19.350915 2.4971534 16.4375 2.46875 L 13.6875 2.46875 z M 13.65625 5.8125 L 16.375 5.8125 C 17.858289 5.8125001 18.6875 6.8094536 18.6875 7.5 L 18.6875 11.21875 L 11.34375 11.21875 L 11.34375 7.375 C 11.34375 6.6844342 12.172955 5.8125001 13.65625 5.8125 z "
       inkscape:radius="1.4160534"
       sodipodi:type="inkscape:offset" />
    <path
       style="font-size:12px;fill:#ff933d;fill-opacity:1;fill-rule:evenodd"
       d="M 3.7401271,24.045234 L 3.779459,40.01185 C 4.3183987,44.790315 7.134294,46.615107 12.018642,47.074008 L 26.910583,47.074008 C 31.374258,47.161125 33.542321,44.144527 33.535848,40.625951 L 33.524006,27.165221 L 3.7401271,24.045234 z "
       id="path3177"
       sodipodi:nodetypes="ccccccc" />
    <path
       id="path3179"
       style="font-size:12px;fill:#ffd056;fill-opacity:1;fill-rule:evenodd"
       d="M 11.232569,19.462827 C 7.1060077,19.462827 3.7839051,21.395837 3.7839051,23.796934 L 3.75593,26.534248 C 3.75593,28.935334 6.049455,30.868342 10.176006,30.868342 L 26.913953,30.868342 C 31.040505,30.868342 33.578525,29.642791 33.578525,27.241703 L 33.578525,23.796934 C 33.578525,21.395837 30.256424,19.462827 26.129873,19.462827 L 11.232569,19.462827 z "
       sodipodi:nodetypes="ccccccccc" />
    <path
       sodipodi:nodetypes="ccsccccccsccccc"
       id="path3187"
       d="M 7.3617127,13.144947 L 7.3617127,23.738184 C 7.3617127,25.250265 8.5874968,26.476049 10.099578,26.476049 C 11.611659,26.476049 12.837443,25.250265 12.837443,23.738184 L 12.837443,13.144947 C 12.837443,12.014075 14.195351,10.586195 16.624397,10.586195 L 21.076627,10.60142 C 23.505664,10.60142 24.863581,12.218807 24.863581,13.349648 L 24.863581,23.942884 C 24.863581,25.454965 26.089365,26.680749 27.601446,26.680749 C 29.113527,26.680749 30.339311,25.454965 30.339311,23.942884 L 30.339311,13.349648 C 30.339313,8.6380022 25.94999,5.1722027 21.178977,5.1256893 L 16.675573,5.1104636 C 11.424902,5.1062735 7.3955243,8.0968322 7.3617127,13.144947 z "
       style="font-size:12px;fill:#955801;fill-opacity:1;fill-rule:evenodd;stroke:none;stroke-width:3.33820772;stroke-linecap:round;stroke-opacity:1" />
    <path
       id="path3181"
       d="M 19.592551,32.693818 C 17.307101,32.693818 15.447371,34.4808 15.447371,36.685472 C 15.447371,38.118516 16.267623,39.358904 17.443198,40.063025 C 17.423771,40.171577 17.392023,40.254063 17.392023,40.370076 L 17.392023,43.491754 C 17.392023,44.344766 17.932465,45.027006 18.620225,45.027006 L 21.076627,45.027006 C 21.764387,45.027004 22.356003,44.344766 22.356003,43.491754 L 22.356003,40.370076 C 22.356003,40.131227 22.280086,39.957322 22.202478,39.755975 C 23.122168,39.023802 23.73773,37.925605 23.73773,36.685472 C 23.73773,34.4808 21.877991,32.693818 19.592551,32.693818 z "
       style="font-size:12px;fill:#593a28;fill-rule:evenodd" />
    <path
       style="font-size:12px;fill:#b01911;fill-rule:evenodd"
       d="M 18.824925,32.949693 C 16.972493,32.949693 15.447371,34.647152 15.447371,36.736647 C 15.447371,38.107477 16.117308,39.296996 17.084973,39.960675 C 17.068934,40.064453 17.033798,40.156729 17.033798,40.267726 L 17.033798,43.184704 C 17.033798,43.993163 17.448691,44.617605 18.006124,44.617605 L 20.053126,44.617605 C 20.61057,44.617605 21.025452,43.993161 21.025452,43.184704 L 21.025452,40.267726 C 21.025452,40.03892 20.987286,39.846001 20.923102,39.653625 C 21.668533,38.9597 22.151305,37.912 22.151303,36.736647 C 22.151303,34.647152 20.677334,32.949693 18.824925,32.949693 z "
       id="path3185" />
    <path
       sodipodi:nodetypes="cccscccccccssccccc"
       id="path3189"
       d="M 15.856772,6.7992404 C 11.893492,6.7992404 8.4875638,9.4295518 8.4875638,12.889072 L 8.4875638,23.533484 C 8.4875638,23.971563 8.8426974,24.326697 9.2807772,24.326697 C 9.7188569,24.326697 10.07399,23.971563 10.07399,23.533484 L 10.07399,12.889072 C 10.07399,10.485748 12.556652,8.408964 15.805597,8.3856675 L 15.856772,8.3856675 L 20.257826,8.4249994 C 23.534112,8.4249994 26.040609,10.728113 26.040607,13.144947 L 26.040607,23.738184 C 25.966131,24.055092 26.094057,24.385192 26.36264,24.569152 C 26.631221,24.753112 26.985245,24.753112 27.253826,24.569152 C 27.522409,24.385192 27.650335,24.055092 27.575859,23.738184 L 27.575859,13.144947 C 27.57586,9.7007484 24.249339,6.8617427 20.309001,6.8385733 L 20.257826,6.8385733 L 15.856772,6.7992404 z "
       style="font-size:12px;fill:#e9a93d;fill-opacity:1;fill-rule:evenodd;stroke:none;stroke-width:0.96294451;stroke-linecap:round;stroke-opacity:1" />
  </g>
</svg>
