<?xml version="1.0" encoding="UTF-8" standalone="no"?>
<!-- Created with Sodipodi ("http://www.sodipodi.com/") -->
<svg
   xmlns:dc="http://purl.org/dc/elements/1.1/"
   xmlns:cc="http://creativecommons.org/ns#"
   xmlns:rdf="http://www.w3.org/1999/02/22-rdf-syntax-ns#"
   xmlns:svg="http://www.w3.org/2000/svg"
   xmlns="http://www.w3.org/2000/svg"
   xmlns:sodipodi="http://sodipodi.sourceforge.net/DTD/sodipodi-0.dtd"
   xmlns:inkscape="http://www.inkscape.org/namespaces/inkscape"
   id="svg604"
   sodipodi:version="0.32"
   width="90"
   height="90"
   sodipodi:docbase="/home/tweenk/GNUtoon/stock/document"
   sodipodi:docname="seahorse-key.svg"
   inkscape:version="0.46+devel"
   inkscape:output_extension="org.inkscape.output.svg.inkscape"
   version="1.0">
  <metadata
     id="metadata23">
    <rdf:RDF>
      <cc:Work
         rdf:about="">
        <dc:format>image/svg+xml</dc:format>
        <dc:type
           rdf:resource="http://purl.org/dc/dcmitype/StillImage" />
      </cc:Work>
    </rdf:RDF>
  </metadata>
  <defs
     id="defs606" />
  <sodipodi:namedview
     id="base"
     inkscape:zoom="3.5649968"
     inkscape:cx="43.113533"
     inkscape:cy="57.075168"
     inkscape:window-width="874"
     inkscape:window-height="724"
     inkscape:window-x="140"
     inkscape:window-y="9"
     inkscape:current-layer="svg604"
     width="90px"
     height="90px"
     showgrid="false" />
  <path
     sodipodi:nodetypes="ccccccccccccccccccccccccccccccc"
     id="path2514"
     d="M 52.136515,5.2265722 89.736405,25.802276 89.267772,35.307684 74.373087,56.289222 56.145161,52.083508 45.756402,60.555734 48.501614,71.317555 42.851512,69.743304 41.328834,71.745356 l 0,0 L 42.655686,74.002174 36.895414,79.46485 32.431767,75.923595 30.858687,78.362744 34.095117,81.98394 28.259242,88.102261 22.362774,89.30469 13.501787,88.688912 6.3608882,84.359121 10.521433,61.401627 33.276836,41.06816 28.606966,33.553855 31.090045,22.58292 z m 0,0 m 0,0 m 0,0 m 0,0 m 0,0 m 0,0 m 0,0 m 0,0 m 0,0 m 0,0 m 0,0 m 0,0 m 0,0 m 0,0 m 0,0 m 0,0 m 0,0 m 0,0 m 0,0 m 0,0 m 0,0 m 0,0 m 0,0 m 0,0 m 0,0 m 0,0 m 0,0 m 0,0 m 0,0 m 0,0 m 0,0 M 52.356939,26.126793 50.111249,28.4127 50.469854,29.707096 59.799195,34.897642 65.964078,36.853377 67.276437,35.060981 z"
     style="font-size:12px;fill:#000000;fill-opacity:0.29411765;fill-rule:evenodd;stroke-width:1pt" />
  <path
     style="font-size:12px;fill:#421f00;fill-opacity:1;fill-rule:evenodd;stroke-width:1pt"
     d="M 48.209442,1.2994997 85.809332,21.875203 85.340698,31.380612 70.446014,52.36215 52.218088,48.156436 41.829328,56.628662 44.574541,67.390482 38.924439,65.816231 37.401761,67.818283 l 0,0 L 38.728613,70.075101 32.968341,75.537778 28.504694,71.996523 26.931614,74.435671 30.168044,78.056868 24.332169,84.175189 18.435701,85.377618 9.5747141,84.76184 2.433815,80.432048 6.5943598,57.474554 29.349763,37.141087 24.679893,29.626783 27.162971,18.655848 z m 0,0 m 0,0 m 0,0 m 0,0 m 0,0 m 0,0 m 0,0 m 0,0 m 0,0 m 0,0 m 0,0 m 0,0 m 0,0 m 0,0 m 0,0 m 0,0 m 0,0 m 0,0 m 0,0 m 0,0 m 0,0 m 0,0 m 0,0 m 0,0 m 0,0 m 0,0 m 0,0 m 0,0 m 0,0 M 48.429866,22.19972 46.184175,24.485628 46.542781,25.780024 55.872122,30.97057 62.037004,32.926304 63.349364,31.133908 z"
     id="path2322"
     sodipodi:nodetypes="ccccccccccccccccccccccccccccccc" />
  <path
     style="font-size:12px;fill:#b95900;fill-rule:evenodd;stroke-width:1pt"
     d="M 48.662582,10.173018 80.703122,24.866575 80.476655,31.631729 67.454779,49.175227 50.615125,44.133052 36.657086,56.991876 40.074125,59.046809 40.52692,63.12211 34.534949,60.99171 31.283577,63.901695 36.227873,63.918329 36.274041,68.315697 33.199284,72.574774 27.785771,68.628716 23.007521,73.577177 25.795502,74.286542 25.969423,77.978716 22.760053,80.524453 15.105283,80.010857 8.9380735,76.199343 9.0148479,72.332745 38.194017,38.862208 30.18822,27.309234 30.504407,21.366426 z m 0,0 m 0,0 m 0,0 m 0,0 m 0,0 m 0,0 m 0,0 m 0,0 m 0,0 m 0,0 m 0,0 m 0,0 m 0,0 m 0,0 m 0,0 m 0,0 m 0,0 m 0,0 m 0,0 m 0,0 m 0,0 m 0,0 m 0,0 m 0,0 m 0,0 m 0,0 m 0,0 m 0,0 m 0,0 M 47.903859,18.353158 42.949063,22.912171 c 0,0 -0.098801326,0.58837043 -0.18205482,0.93864252 L 42.747384,23.700914 C 42.508666,24.684095 42.08451,26.65102 42.512242,26.700342 43.055077,26.762937 52.296392,32.774386 52.658284,32.816116 53.020174,32.857847 67.226265,38.17853 64.296157,36.557191 L 68.305218,30.597307 68.236569,30.552482 z"
     id="path2324"
     sodipodi:nodetypes="cccccccccccccccccccccccccccccsscccc" />
  <path
     style="font-size:12px;fill:#763900;fill-rule:evenodd;stroke-width:1pt"
     d="M 66.734581,44.159373 67.416551,49.201127 50.581248,44.142747 c 0,0 -1.4266285,-4.9441825 -0.90465637,-4.7006411 C 50.198564,39.685648 66.671985,44.70221 66.734581,44.159373 z"
     id="path2326"
     sodipodi:nodetypes="cccsc" />
  <path
     style="font-size:12px;fill:#fcc500;fill-rule:evenodd;stroke-width:1pt"
     d="M 46.792113,7.189151 80.788748,24.922486 66.72174,44.32943 49.840084,39.651502 35.552914,53.764191 40.39637,59.453058 33.294856,57.342352 30.564654,60.533888 36.227494,63.918152 32.484561,69.170542 26.520476,65.197906 21.132852,70.629734 25.843072,74.27324 22.790625,77.058527 13.330042,76.521245 8.9938469,72.514869 10.392516,60.385434 39.001972,33.455924 30.491806,21.4757 z m 0,0 m 0,0 m 0,0 m 0,0 m 0,0 m 0,0 m 0,0 m 0,0 m 0,0 m 0,0 m 0,0 m 0,0 m 0,0 m 0,0 m 0,0 m 0,0 m 0,0 m 0,0 m 0,0 m 0,0 m 0,0 m 0,0 m 0,0 m 0,0 m 0,0 m 0,0 m 0,0 m 0,0 m 0,0 M 48.632009,13.638944 42.740017,18.643523 42.876751,26.742375 52.89661,32.75126 64.018989,36.432892 70.077223,28.033461 C 71.545741,28.019447 48.812956,13.659811 48.632009,13.638944 z"
     id="path2328"
     sodipodi:nodetypes="ccccccccccccccccccccccccccc" />
  <path
     style="font-size:12px;fill:#763900;fill-rule:evenodd;stroke-width:1pt"
     d="M 40.318799,59.405154 40.529038,63.141364 34.447345,61.019339 33.325099,57.218915 z"
     id="path2330"
     sodipodi:nodetypes="ccccc" />
  <path
     style="font-size:12px;fill:#763900;fill-rule:evenodd;stroke-width:1pt"
     d="M 32.697586,69.020993 33.123618,72.510375 27.470043,68.878564 26.509052,65.235244 z"
     id="path2332"
     sodipodi:nodetypes="ccccc" />
  <path
     style="font-size:12px;fill:#763900;fill-rule:evenodd;stroke-width:1pt"
     d="M 22.787876,77.046049 22.370572,80.664964 12.89871,80.122801 8.6879572,76.886974 9.0093335,72.522176 13.314856,76.502425 z"
     id="path2334"
     sodipodi:nodetypes="ccccccc" />
  <path
     style="font-size:12px;fill:#e49f00;fill-rule:evenodd;stroke-width:1pt"
     d="M 13.148087,63.649722 C 13.530843,63.510506 41.206611,34.981645 41.206611,34.981645 L 44.094893,36.964952 15.611891,66.134049 z"
     id="path2336"
     sodipodi:nodetypes="ccccc" />
  <path
     style="font-size:12px;fill:none;stroke:#946900;stroke-width:0.87234097pt"
     d="m 41.505907,35.566212 c -0.04173,0.361892 -27.794118,27.96516 -27.794118,27.96516"
     id="path2338" />
</svg>
