<?xml version="1.0" encoding="UTF-8" standalone="no"?>
<!-- Created with Sodipodi ("http://www.sodipodi.com/") -->
<svg
   xmlns:dc="http://purl.org/dc/elements/1.1/"
   xmlns:cc="http://creativecommons.org/ns#"
   xmlns:rdf="http://www.w3.org/1999/02/22-rdf-syntax-ns#"
   xmlns:svg="http://www.w3.org/2000/svg"
   xmlns="http://www.w3.org/2000/svg"
   xmlns:xlink="http://www.w3.org/1999/xlink"
   xmlns:sodipodi="http://sodipodi.sourceforge.net/DTD/sodipodi-0.dtd"
   xmlns:inkscape="http://www.inkscape.org/namespaces/inkscape"
   id="svg604"
   sodipodi:version="0.32"
   width="90"
   height="90"
   sodipodi:docbase="/home/tweenk/GNUtoon/stock/document"
   sodipodi:docname="seahorse-applet.svg"
   inkscape:version="0.46+devel"
   inkscape:output_extension="org.inkscape.output.svg.inkscape"
   version="1.0">
  <metadata
     id="metadata23">
    <rdf:RDF>
      <cc:Work
         rdf:about="">
        <dc:format>image/svg+xml</dc:format>
        <dc:type
           rdf:resource="http://purl.org/dc/dcmitype/StillImage" />
      </cc:Work>
    </rdf:RDF>
  </metadata>
  <defs
     id="defs606">
    <linearGradient
       id="linearGradient671">
      <stop
         style="stop-color:#7fa8e3;stop-opacity:0.741176;"
         offset="0.000000"
         id="stop672" />
      <stop
         style="stop-color:#ffffff;stop-opacity:0;"
         offset="1.000000"
         id="stop673" />
    </linearGradient>
    <linearGradient
       id="linearGradient612">
      <stop
         style="stop-color:#955801;stop-opacity:0.4471;"
         offset="0"
         id="stop613" />
      <stop
         style="stop-color:#000500;stop-opacity:0;"
         offset="1"
         id="stop614" />
    </linearGradient>
    <linearGradient
       xlink:href="#linearGradient612"
       id="linearGradient615"
       x1="36.216915"
       y1="12.409"
       x2="37.964546"
       y2="72.903305"
       gradientUnits="userSpaceOnUse"
       spreadMethod="pad"
       gradientTransform="matrix(0.9890292,0,0,0.9890292,1.104983,-1.209964)" />
    <linearGradient
       inkscape:collect="always"
       xlink:href="#linearGradient671"
       id="linearGradient2180"
       gradientUnits="userSpaceOnUse"
       gradientTransform="matrix(0.321682,0,0,0.321682,0.752234,0.87654)"
       x1="36.216915"
       y1="12.409"
       x2="37.964546"
       y2="72.903305" />
  </defs>
  <sodipodi:namedview
     id="base"
     inkscape:zoom="3.5649968"
     inkscape:cx="31.580379"
     inkscape:cy="34.931031"
     inkscape:window-width="874"
     inkscape:window-height="724"
     inkscape:window-x="140"
     inkscape:window-y="9"
     inkscape:current-layer="svg604"
     width="90px"
     height="90px"
     showgrid="false" />
  <path
     style="fill:#000000;fill-opacity:0.27981651;fill-rule:evenodd;stroke:none;stroke-width:1pt;stroke-linecap:butt;stroke-linejoin:miter;stroke-opacity:1"
     d="M 47.848509,5.297292 C 44.413512,5.407213 32.956134,7.411049 32.956134,7.411049 C 32.956134,7.411049 33.384834,9.397354 33.72477,11.158163 C 28.544338,11.912672 24.36746,12.581935 23.155985,12.791521 C 17.969792,13.529692 14.982689,15.655645 13.644079,18.556312 C 11.053436,22.240687 16.423296,75.123482 17.967672,80.719979 C 18.40562,86.259122 23.430933,88.356878 26.4227,88.406369 C 29.887392,87.737798 73.052184,79.604954 77.441106,78.029744 C 81.830097,76.454507 82.673841,71.651561 82.149018,68.229599 C 81.049128,65.308133 73.867794,15.700827 74.07831,13.27192 C 73.873551,8.805751 71.64027,8.109451 68.793918,7.218889 C 67.529808,6.823391 58.997055,7.844145 49.770108,9.044406 C 49.4973,7.532952 49.235337,5.74144 48.713229,5.393372 C 48.60555,5.321587 48.339225,5.281589 47.848509,5.297292 z "
     id="path2188" />
  <path
     style="fill:#7e0000;fill-opacity:1;fill-rule:evenodd;stroke:none;stroke-width:1pt;stroke-linecap:butt;stroke-linejoin:miter;stroke-opacity:1"
     d="M 20.957196,84.729437 C 17.965428,84.679946 12.94976,82.615799 12.511812,77.076662 C 10.967436,71.480162 5.598713,18.583664 8.189356,14.899289 C 9.527966,11.998622 12.442897,9.869272 17.629089,9.131101 C 21.872612,8.396969 60.472257,2.659627 63.318516,3.550129 C 66.164865,4.44069 68.406996,5.193736 68.611755,9.659905 C 68.401242,12.088811 75.570651,61.631195 76.670544,64.552658 C 77.195364,67.97462 76.333857,72.756614 71.944866,74.331854 C 67.555947,75.907064 24.421887,84.060866 20.957196,84.729437 z "
     id="path609"
     sodipodi:nodetypes="ccccccccc" />
  <path
     style="fill:#ffd056;fill-opacity:1;fill-rule:evenodd;stroke:none;stroke-width:1pt;stroke-linecap:butt;stroke-linejoin:miter;stroke-opacity:1"
     d="M 24.413569,78.862334 C 21.513011,79.294976 17.484009,80.199413 17.002756,75.718925 C 14.998773,65.1125 10.403982,23.076759 13.677983,16.245508 C 14.409232,14.639155 18.379437,12.458748 27.398047,11.548514 C 37.646757,10.383892 58.675539,8.612854 60.888459,8.727898 C 63.101265,8.842972 63.778236,8.559893 64.25955,13.040486 C 64.064079,17.804071 70.739724,55.068065 71.134089,61.665746 C 71.440947,66.349361 71.969031,68.33933 69.261399,69.471599"
     id="path608"
     sodipodi:nodetypes="cccccccs" />
  <path
     style="fill:url(#linearGradient615);fill-opacity:1;fill-rule:evenodd;stroke:none;stroke-width:1pt;stroke-linecap:butt;stroke-linejoin:miter;stroke-opacity:1"
     d="M 12.726614,21.368915 C 12.726614,21.368915 12.98748,15.012349 20.496465,13.746509 C 28.005441,12.480699 57.744249,8.166229 58.452831,10.368901 C 59.161383,12.571561 60.038634,26.88612 60.257424,28.044127 C 60.476217,29.202094 35.301837,39.104696 28.389085,48.555239 C 21.476317,58.005758 16.634985,65.652965 16.634985,65.652965 C 16.634985,65.652965 12.67652,32.322821 12.726614,21.368915 z "
     id="path636" />
  <g
     id="g2175"
     transform="matrix(2.9183007,0,0,2.9183007,-11.938322,-12.175405)">
    <path
       sodipodi:nodetypes="ccccccccc"
       id="path703"
       d="M 12.849031,28.48975 C 12.078719,28.477007 10.787295,27.945537 10.67454,26.519332 C 10.276895,25.078363 8.8945711,11.458716 9.5616017,10.510075 C 9.9062658,9.7632181 10.656792,9.2149588 11.992118,9.024896 C 13.084732,8.8358754 23.023256,7.3586394 23.756112,7.5879217 C 24.488997,7.8172233 25.066273,8.0111141 25.119003,9.1610513 C 25.064809,9.7864404 26.91077,22.542476 27.193973,23.294689 C 27.329063,24.175768 27.10727,25.40702 25.977193,25.81261 C 24.847145,26.218187 13.741108,28.317608 12.849031,28.48975 z "
       style="fill:#3d4e67;fill-opacity:1;fill-rule:evenodd;stroke:none;stroke-width:1pt;stroke-linecap:butt;stroke-linejoin:miter;stroke-opacity:1" />
    <path
       sodipodi:nodetypes="cccccccs"
       id="path704"
       d="M 13.738965,26.979103 C 12.992141,27.090499 11.954761,27.323371 11.830849,26.169747 C 11.314874,23.438832 10.131819,12.615585 10.974798,10.856693 C 11.163078,10.443093 12.185314,9.8816873 14.507404,9.6473257 C 17.146212,9.347463 22.560651,8.891459 23.130414,8.9210795 C 23.700187,8.9507097 23.874469,8.8778229 23.998393,10.031475 C 23.948069,11.257986 25.666911,20.852621 25.768441,22.551371 C 25.847465,23.757297 25.983408,24.26967 25.286281,24.561204"
       style="fill:#ffffff;fill-opacity:1;fill-rule:evenodd;stroke:none;stroke-width:1pt;stroke-linecap:butt;stroke-linejoin:miter;stroke-opacity:1" />
    <path
       id="path705"
       d="M 11.16164,12.489891 C 11.16164,12.489891 11.228807,10.853216 13.162199,10.527294 C 15.09559,10.201375 22.752659,9.0904968 22.935088,9.6576355 C 23.117518,10.224771 23.343416,13.910444 23.399723,14.208604 C 23.456085,14.506755 16.974248,17.056451 15.19437,19.48975 C 13.414487,21.923042 12.167956,23.892027 12.167956,23.892027 C 12.167956,23.892027 11.148741,15.31027 11.16164,12.489891 z "
       style="fill:url(#linearGradient2180);fill-opacity:1;fill-rule:evenodd;stroke:none;stroke-width:1pt;stroke-linecap:butt;stroke-linejoin:miter;stroke-opacity:1" />
  </g>
  <path
     style="fill:#4e4e4e;fill-opacity:1;fill-rule:evenodd;stroke:none;stroke-width:1pt;stroke-linecap:butt;stroke-linejoin:miter;stroke-opacity:1"
     d="M 27.475864,3.74249 C 27.475864,3.74249 42.407037,1.158247 43.268448,1.732522 C 44.129868,2.306796 44.129859,6.901007 44.991273,7.475281 C 45.852687,8.049557 50.159757,7.188139 50.734035,8.33669 C 51.308307,9.48524 51.882579,14.366588 51.882579,14.366588 L 24.317356,18.673656 C 24.317356,18.673656 20.584559,13.792308 23.455941,12.069486 C 26.327323,10.346654 28.624426,11.20807 28.624426,9.772382 C 28.624426,8.33669 27.475864,3.74249 27.475864,3.74249 z "
     id="path674" />
  <path
     style="fill:#a4a4a4;fill-opacity:1;fill-rule:evenodd;stroke:none;stroke-width:1pt;stroke-linecap:butt;stroke-linejoin:miter;stroke-opacity:1"
     d="M 28.978182,4.608595 C 28.978182,4.608595 41.584989,2.373049 42.312312,2.869828 C 43.039638,3.36662 42.752496,8.202348 43.479819,8.699138 C 44.207136,9.195928 48.130851,7.589325 48.615735,8.582896 C 49.100604,9.576477 49.011195,11.502079 49.29834,13.22491 L 26.598495,16.950815 C 25.73709,15.802264 23.733938,13.876671 26.158316,12.386312 C 28.582719,10.895943 31.096497,11.066846 31.096497,9.824872 C 31.096497,8.582896 28.978182,4.608595 28.978182,4.608595 z "
     id="path675"
     sodipodi:nodetypes="ccccccccc" />
  <path
     style="fill:#f8f8f8;fill-opacity:1;fill-rule:evenodd;stroke:none;stroke-width:1pt;stroke-linecap:butt;stroke-linejoin:miter;stroke-opacity:1"
     d="M 47.575509,9.772382 L 47.862642,12.930901 L 28.911559,15.802273 C 28.911559,15.802273 46.714101,13.218037 47.575509,9.772382 z "
     id="path676" />
  <path
     style="fill:#656565;fill-opacity:1;fill-rule:evenodd;stroke:none;stroke-width:1pt;stroke-linecap:butt;stroke-linejoin:miter;stroke-opacity:1"
     d="M 30.347244,5.178182 L 32.357214,9.198106 C 32.357214,9.198106 25.465898,12.356621 25.465898,13.505172 C 25.465898,14.653723 27.475864,16.376554 27.475864,16.376554 L 29.485831,15.802273 C 29.485831,15.802273 27.188727,14.366588 28.337279,13.218037 C 29.485831,12.069486 35.802864,11.20806 34.654314,8.910964 C 33.505761,6.613865 30.921516,4.89104 30.347244,5.178182 z "
     id="path677" />
  <g
     id="g2509"
     transform="matrix(0.492354,-7.1494599e-2,7.1494599e-2,0.492354,15.331627,21.262082)">
    <path
       transform="matrix(3,0,0,3,0.21875,-0.5638767)"
       d="M 13.6875,1.0625 C 11.815211,1.0610059 10.071976,1.5951981 8.75,2.6875 7.4280237,3.7798019 6.6065843,5.4588227 6.59375,7.375 l 0,3.46875 C 6.1890138,11.06895 5.7303381,11.237376 5.40625,11.5625 4.9406638,12.029574 4.6599583,12.676237 4.53125,13.375 4.5252509,13.407569 4.5049203,13.435845 4.5,13.46875 4.4890709,13.489323 4.478651,13.510163 4.46875,13.53125 4.4075765,13.690892 4.3758142,13.860291 4.375,14.03125 l 0.03125,9.75 C 4.4033746,23.833294 4.4033746,23.885456 4.40625,23.9375 4.5993342,25.649465 5.277791,27.098984 6.4375,28.03125 7.597209,28.963516 9.0786341,29.345906 10.71875,29.5 10.760396,29.50184 10.802104,29.50184 10.84375,29.5 L 19.9375,29.5 c 1.686105,0.032908 3.141278,-0.563009 4.09375,-1.59375 0.952472,-1.030741 1.346257,-2.38728 1.34375,-3.75 l 0,-7.6875 0,-0.21875 c 0.012162,-0.084397 0.03125,-0.128411 0.03125,-0.28125 l 0,-2.09375 c 0,-1.337511 -0.890193,-2.238332 -1.96875,-2.90625 l 0,-3.46875 c 1e-06,-3.7566167 -3.406362,-6.402465 -7,-6.4375 z m 0,0 m -0.03125,6.15625 2.71875,0 c 0.84878,1e-07 0.90625,0.7243055 0.90625,0.28125 l 0,2.3125 -4.53125,0 0,-2.4375 c 0,0.4429961 -0.022107,-0.1562499 0.90625,-0.15625 z"
       id="path3240"
       style="font-size:12px;fill:#593a28;fill-rule:evenodd"
       inkscape:original="M 13.6875 2.46875 C 10.481183 2.4661913 8.0206471 4.2923732 8 7.375 L 8 11.625 C 6.690965 12.088687 5.8125 12.91445 5.8125 13.875 L 5.8125 14.03125 L 5.78125 14.03125 L 5.8125 23.78125 C 6.1416031 26.699215 7.8611266 27.813523 10.84375 28.09375 L 19.9375 28.09375 C 22.663239 28.146948 23.972703 26.304865 23.96875 24.15625 L 23.96875 16.25 C 23.982136 16.159331 24 16.065706 24 15.96875 L 24 13.875 C 24 12.965512 23.22541 12.163533 22.03125 11.6875 L 22.03125 7.5 C 22.031251 4.6228379 19.350915 2.4971534 16.4375 2.46875 L 13.6875 2.46875 z M 13.65625 5.8125 L 16.375 5.8125 C 17.858289 5.8125001 18.6875 6.8094536 18.6875 7.5 L 18.6875 11.21875 L 11.34375 11.21875 L 11.34375 7.375 C 11.34375 6.6844342 12.172955 5.8125001 13.65625 5.8125 z "
       inkscape:radius="1.4160534"
       sodipodi:type="inkscape:offset" />
    <path
       style="font-size:12px;fill:#ff933d;fill-opacity:1;fill-rule:evenodd"
       d="m 17.584193,41.529873 0.072057,29.25 c 0.987309,8.753895 6.145881,12.096819 15.09375,12.9375 l 27.28125,0 c 8.177217,0.159594 12.148995,-5.366655 12.137136,-11.8125 L 72.146693,47.245524 z"
       id="path3177"
       sodipodi:nodetypes="ccccccc" />
    <path
       id="path3179"
       style="font-size:12px;fill:#ffd056;fill-opacity:1;fill-rule:evenodd"
       d="m 31.309955,33.135144 c -7.559646,0 -13.64556,3.541173 -13.64556,7.939857 l -0.051249,5.014614 c 0,4.398663 4.201617,7.939833 11.761242,7.939833 l 30.663036,0 c 7.559625,0 12.209145,-2.245146 12.209145,-6.643812 l 0,-6.310635 c 0,-4.398684 -6.085914,-7.939857 -13.645539,-7.939857 z"
       sodipodi:nodetypes="ccccccccc" />
    <path
       sodipodi:nodetypes="ccsccccccsccccc"
       id="path3187"
       d="m 24.21875,21.561123 0,19.40625 c 0,2.770053 2.245572,5.015625 5.015625,5.015625 2.770053,0 5.015625,-2.245572 5.015625,-5.015625 l 0,-19.40625 c 0,-2.071698 2.487615,-4.6875 6.9375,-4.6875 l 8.15625,0.027894 c 4.449867,0 6.9375,2.962968 6.9375,5.034606 l 0,19.40625 c 0,2.770053 2.245572,5.015625 5.015625,5.015625 2.770053,0 5.015625,-2.245572 5.015625,-5.015625 l 0,-19.40625 C 66.312503,13.304637 58.271495,6.955476 49.53125,6.870267 l -8.25,-0.027894 c -9.618951,-0.007677 -17.000559,5.470869 -17.0625,14.71875 z"
       style="font-size:12px;fill:#955801;fill-opacity:1;fill-rule:evenodd;stroke:none" />
    <path
       id="path3181"
       d="m 46.625,57.373623 c -4.186824,0 -7.59375,3.273657 -7.59375,7.3125 0,2.625261 1.502658,4.897587 3.65625,6.1875 -0.035589,0.198861 -0.09375,0.349971 -0.09375,0.5625 l 0,5.71875 c 0,1.562673 0.99006,2.8125 2.25,2.8125 l 4.5,0 c 1.25994,-3e-06 2.34375,-1.249827 2.34375,-2.8125 l 0,-5.71875 c 0,-0.437559 -0.139077,-0.756144 -0.28125,-1.125 1.684824,-1.341303 2.8125,-3.353142 2.8125,-5.625 0,-4.038843 -3.406944,-7.3125 -7.59375,-7.3125 z"
       style="font-size:12px;fill:#593a28;fill-rule:evenodd" />
    <path
       style="font-size:12px;fill:#b01911;fill-rule:evenodd"
       d="m 45.21875,57.842373 c -3.393558,0 -6.1875,3.109656 -6.1875,6.9375 0,2.511288 1.227288,4.690425 3,5.90625 -0.029382,0.190116 -0.09375,0.35916 -0.09375,0.5625 l 0,5.34375 c 0,1.481055 0.760062,2.625 1.78125,2.625 l 3.75,0 c 1.021209,0 1.78125,-1.143948 1.78125,-2.625 l 0,-5.34375 c 0,-0.41916 -0.069918,-0.772578 -0.1875,-1.125 1.365591,-1.271235 2.250003,-3.190566 2.25,-5.34375 0,-3.827844 -2.700234,-6.9375 -6.09375,-6.9375 z"
       id="path3185" />
    <path
       sodipodi:nodetypes="cccscccccccssccccc"
       id="path3189"
       d="m 39.78125,9.9361233 c -7.260519,0 -13.5,4.8185937 -13.5,11.15625 l 0,19.5 c 0,0.802539 0.650586,1.453125 1.453125,1.453125 0.802539,0 1.453125,-0.650586 1.453125,-1.453125 l 0,-19.5 c 0,-4.402764 4.548105,-8.207319 10.5,-8.25 l 0.09375,0 8.0625,0.072057 c 6.001983,0 10.593753,4.219179 10.59375,8.646693 l 0,19.40625 c -0.136437,0.58056 0.097917,1.185285 0.589947,1.52229 0.492027,0.337005 1.140579,0.337005 1.632606,0 0.49203,-0.337005 0.726384,-0.94173 0.589947,-1.52229 l 0,-19.40625 c 3e-06,-6.309588 -6.094008,-11.510499 -13.3125,-11.552943 l -0.09375,0 z"
       style="font-size:12px;fill:#e9a93d;fill-opacity:1;fill-rule:evenodd;stroke:none" />
  </g>
</svg>
