<?xml version="1.0" encoding="UTF-8" standalone="no"?>
<!DOCTYPE svg PUBLIC "-//W3C//DTD SVG 20010904//EN"
"http://www.w3.org/TR/2001/REC-SVG-20010904/DTD/svg10.dtd">
<!-- Created with Sodipodi ("http://www.sodipodi.com/") -->
<svg
   id="svg548"
   sodipodi:version="0.32"
   width="72pt"
   height="72pt"
   sodipodi:docbase="/home/zeus/.icons/gartoon/scalable/apps"
   sodipodi:docname="synaptic.svg"
   xmlns="http://www.w3.org/2000/svg"
   xmlns:sodipodi="http://sodipodi.sourceforge.net/DTD/sodipodi-0.dtd"
   xmlns:xlink="http://www.w3.org/1999/xlink"
   xmlns:inkscape="http://www.inkscape.org/namespaces/inkscape"
   inkscape:version="0.40"
   xmlns:rdf="http://www.w3.org/1999/02/22-rdf-syntax-ns#"
   xmlns:cc="http://web.resource.org/cc/"
   xmlns:dc="http://purl.org/dc/elements/1.1/">
  <metadata
     id="metadata25">
    <rdf:RDF
       id="RDF26">
      <cc:Work
         rdf:about=""
         id="Work27">
        <dc:format
           id="format28">image/svg+xml</dc:format>
        <dc:type
           id="type30"
           rdf:resource="http://purl.org/dc/dcmitype/StillImage" />
      </cc:Work>
    </rdf:RDF>
  </metadata>
  <defs
     id="defs550">
    <linearGradient
       id="linearGradient569">
      <stop
         style="stop-color:#c57700;stop-opacity:1;"
         offset="0.000000"
         id="stop570" />
      <stop
         style="stop-color:#ffa75f;stop-opacity:0;"
         offset="1.000000"
         id="stop571" />
    </linearGradient>
    <linearGradient
       id="linearGradient559">
      <stop
         style="stop-color:#945700;stop-opacity:1;"
         offset="0.000000"
         id="stop560" />
      <stop
         style="stop-color:#ffa75f;stop-opacity:0;"
         offset="1.000000"
         id="stop561" />
    </linearGradient>
    <linearGradient
       xlink:href="#linearGradient559"
       id="linearGradient562"
       x1="40.9153252"
       y1="31.7318363"
       x2="42.7533417"
       y2="35.4855690"
       gradientUnits="userSpaceOnUse"
       spreadMethod="pad"
       gradientTransform="scale(1.299591,0.769473)" />
    <linearGradient
       xlink:href="#linearGradient559"
       id="linearGradient566"
       x1="59.0300407"
       y1="48.8431816"
       x2="58.3435440"
       y2="23.6183739"
       gradientUnits="userSpaceOnUse"
       spreadMethod="pad"
       gradientTransform="scale(0.606477,1.648866)" />
    <linearGradient
       xlink:href="#linearGradient569"
       id="linearGradient568"
       x1="92.7804184"
       y1="64.9443817"
       x2="90.8925323"
       y2="42.8786545"
       gradientUnits="userSpaceOnUse"
       spreadMethod="pad"
       gradientTransform="scale(0.771721,1.295805)" />
    <linearGradient
       inkscape:collect="always"
       xlink:href="#linearGradient558"
       id="linearGradient1130"
       gradientUnits="userSpaceOnUse"
       gradientTransform="scale(0.766548,1.304550)"
       spreadMethod="pad"
       x1="73.0144653"
       y1="38.8011742"
       x2="46.2984352"
       y2="43.8150940" />
    <linearGradient
       inkscape:collect="always"
       xlink:href="#linearGradient558"
       id="linearGradient1131"
       gradientUnits="userSpaceOnUse"
       gradientTransform="scale(0.986297,1.013893)"
       spreadMethod="pad"
       x1="23.9531670"
       y1="24.2094688"
       x2="45.7012291"
       y2="18.4172096" />
    <linearGradient
       inkscape:collect="always"
       xlink:href="#linearGradient677"
       id="linearGradient1132"
       gradientUnits="userSpaceOnUse"
       gradientTransform="scale(1.011562,0.988570)"
       spreadMethod="pad"
       x1="68.3116760"
       y1="71.2960510"
       x2="52.5783653"
       y2="39.5797806" />
    <linearGradient
       inkscape:collect="always"
       xlink:href="#linearGradient684"
       id="linearGradient1133"
       gradientUnits="userSpaceOnUse"
       gradientTransform="scale(1.017548,0.982755)"
       spreadMethod="pad"
       x1="49.0257645"
       y1="44.3401871"
       x2="56.4553261"
       y2="53.1827507" />
    <linearGradient
       inkscape:collect="always"
       xlink:href="#linearGradient689"
       id="linearGradient1134"
       gradientUnits="userSpaceOnUse"
       gradientTransform="scale(1.326975,0.753594)"
       spreadMethod="pad"
       x1="26.2959213"
       y1="98.9529343"
       x2="31.7159863"
       y2="102.827583" />
    <linearGradient
       inkscape:collect="always"
       xlink:href="#linearGradient689"
       id="linearGradient1135"
       gradientUnits="userSpaceOnUse"
       gradientTransform="scale(0.780786,1.280761)"
       spreadMethod="pad"
       x1="33.5794411"
       y1="53.8219566"
       x2="-14.0691185"
       y2="26.5526485" />
  </defs>
  <sodipodi:namedview
     id="base"
     inkscape:zoom="4.9861111"
     inkscape:cx="36.000000"
     inkscape:cy="36.000000"
     inkscape:window-width="640"
     inkscape:window-height="539"
     inkscape:window-x="32"
     inkscape:window-y="348"
     inkscape:current-layer="svg548" />
  <path
     style="fill:#000000;fill-rule:evenodd;stroke:none;stroke-opacity:1;stroke-width:1pt;stroke-linejoin:miter;stroke-linecap:butt;fill-opacity:0.3;"
     d="M 49.1214 87.5023 C 48.0807 87.086 6.66053 80.6336 6.66053 80.6336 L 2.91398 81.8825 L 1.87327 78.3441 L 4.99539 75.4301 L 1.87327 74.3894 L 19.5653 64.1905 L 21.2304 65.2312 L 21.6467 62.9416 L 26.6421 62.7335 L 80.7589 74.1813 L 49.1214 87.5023 z "
     id="path594" />
  <path
     style="fill:#000000;fill-rule:evenodd;stroke:none;stroke-opacity:1;stroke-width:1pt;stroke-linejoin:miter;stroke-linecap:butt;fill-opacity:1;"
     d="M 25.1851 33.1774 C 28.6757 48.9306 27.9492 73.7206 22.1019 85.8591 L 50.5784 90.4163 L 85.7103 77.7197 C 83.903 60.422 82.3968 40.7145 86.0115 24.0192 L 92.2066 9.86562 L 85.9623 10.6981 L 86.7949 6.53532 C 78.8653 1.0456 68.8271 0.0742763 58.4877 3.62133 L 57.8633 8.20047 L 51.8272 2.99691 C 38.6195 3.56701 26.6167 7.14937 15.8188 17.3587 L 25.1851 33.1774 z "
     id="path564"
     sodipodi:nodetypes="ccccccccccccc"
     transform="matrix(0.945504,0.000000,0.000000,0.945504,1.278344,2.129040)" />
  <path
     style="fill:url(#linearGradient562);fill-rule:evenodd;stroke:none;stroke-opacity:1;stroke-width:1pt;stroke-linejoin:miter;stroke-linecap:butt;fill-opacity:1;"
     d="M 59.9448 18.3993 C 59.5285 18.3993 29.7642 29.0146 29.7642 29.0146 C 29.7642 29.0146 32.4701 48.788 38.298 49.2043 C 44.126 49.6206 79.9263 21.3134 79.9263 21.3134 "
     id="path558"
     sodipodi:nodetypes="cccc"
     transform="matrix(0.945504,0.000000,0.000000,0.945504,1.278344,2.129040)" />
  <path
     style="fill:#e9a93d;fill-rule:evenodd;stroke:none;stroke-opacity:1;stroke-width:1pt;stroke-linejoin:miter;stroke-linecap:butt;fill-opacity:1;"
     d="M 29.5561 31.3041 L 48.7051 32.9693 C 46.5728 51.4262 46.2478 68.9794 49.5376 85.629 C 49.5376 85.629 29.9724 83.7558 29.9724 82.5069 C 29.9724 81.2581 35.2794 53.1074 29.5561 31.3041 z "
     id="path552"
     sodipodi:nodetypes="ccccc"
     transform="matrix(0.945504,0.000000,0.000000,0.945504,1.278344,2.129040)" />
  <path
     style="fill:#ffe6ba;fill-rule:evenodd;stroke:none;stroke-opacity:1;stroke-width:1pt;stroke-linejoin:miter;stroke-linecap:butt;fill-opacity:1;"
     d="M 80.9451 23.2797 L 48.2888 33.3856 L 49.1214 85.8372 C 49.1214 85.8372 80.3426 74.1813 80.3426 72.9324 C 80.3426 71.6836 76.1254 36.0463 80.9451 23.2797 z "
     id="path553"
     sodipodi:nodetypes="ccccc"
     transform="matrix(0.945504,0.000000,0.000000,0.945504,1.278344,2.129040)" />
  <path
     style="fill:#e3c084;fill-rule:evenodd;stroke:none;stroke-opacity:1;stroke-width:1pt;stroke-linejoin:miter;stroke-linecap:butt;fill-opacity:1;"
     d="M 60.7773 18.3994 L 52.8679 8.40859 C 43.1546 9.74532 32.5377 11.0821 23.7281 19.6482 L 29.1398 29.639 L 60.7773 18.3994 z "
     id="path556"
     sodipodi:nodetypes="ccccc"
     transform="matrix(0.945504,0.000000,0.000000,0.945504,1.278344,2.129040)" />
  <path
     style="fill:#e3b463;fill-rule:evenodd;stroke:none;stroke-opacity:1;stroke-width:1pt;stroke-linejoin:miter;stroke-linecap:butt;fill-opacity:1;"
     d="M 59.9447 18.6076 L 81.1751 22.5622 L 82.8403 11.7389 C 75.3235 9.23773 68.4092 7.94146 61.1936 9.65745 L 59.9447 18.6076 z "
     id="path557"
     sodipodi:nodetypes="ccccc"
     transform="matrix(0.945504,0.000000,0.000000,0.945504,1.278344,2.129040)" />
  <path
     style="fill:#c89134;fill-rule:evenodd;stroke:none;stroke-opacity:1;stroke-width:1pt;stroke-linejoin:miter;stroke-linecap:butt;fill-opacity:1;"
     d="M 48.7051 32.9693 C 47.4562 30.1941 46.2074 27.4188 44.9585 24.6436 C 38.0442 21.5163 30.5274 19.5939 23.3118 23.3948 C 25.2545 26.0312 27.1971 28.6677 29.1398 31.3041 C 35.6616 31.8592 42.1833 32.4142 48.7051 32.9693 z "
     id="path554"
     sodipodi:nodetypes="ccccc"
     transform="matrix(0.945504,0.000000,0.000000,0.945504,1.278344,2.129040)" />
  <path
     style="fill:#e3c084;fill-rule:evenodd;stroke:none;stroke-opacity:1;stroke-width:1pt;stroke-linejoin:miter;stroke-linecap:butt;fill-opacity:1;"
     d="M 48.2888 34.2181 L 53.2842 24.2273 C 63.9688 18.0235 74.9546 15.1333 85.3379 14.6528 C 83.7422 17.5668 82.1464 20.4808 80.5507 23.3948 L 48.2888 34.2181 z "
     id="path555"
     sodipodi:nodetypes="ccccc"
     transform="matrix(0.945504,0.000000,0.000000,0.945504,1.278344,2.129040)" />
  <path
     style="fill:url(#linearGradient566);fill-rule:evenodd;stroke:none;stroke-opacity:1;stroke-width:1pt;stroke-linejoin:miter;stroke-linecap:butt;fill-opacity:1;"
     d="M 29.5561 31.3041 C 35.9391 31.8592 42.3221 32.4142 48.7051 32.9693 C 45.0667 51.7274 46.5491 68.6782 49.5376 85.629 C 49.5376 85.629 29.9724 83.7558 29.9724 82.5069 C 36.2981 60.4735 29.5561 31.7204 29.5561 31.3041 z "
     id="path565"
     sodipodi:nodetypes="ccccc"
     transform="matrix(0.945504,0.000000,0.000000,0.945504,1.563158,2.413845)" />
  <path
     style="fill:url(#linearGradient568);fill-rule:evenodd;stroke:none;stroke-opacity:1;stroke-width:1pt;stroke-linejoin:miter;stroke-linecap:butt;fill-opacity:1;"
     d="M 70.4022 32.0153 L 48.2888 33.3856 L 49.1214 85.8372 C 49.1214 85.8372 80.3426 74.1813 80.3426 72.9324 C 80.3426 71.6836 70.4022 32.4316 70.4022 32.0153 z "
     id="path567"
     sodipodi:nodetypes="ccccc"
     transform="matrix(0.945504,0.000000,0.000000,0.945504,1.278344,2.129040)" />
  <path
     style="font-size:12;fill:#ffffff;fill-rule:evenodd;stroke-width:1pt;fill-opacity:0.704348;"
     d="M 32.0538 71.4754 L 32.0538 78.5522 L 44.3341 80.4255 L 44.3341 73.3487 L 32.0538 71.4754 z "
     id="path573"
     sodipodi:nodetypes="ccccc"
     transform="translate(-0.624425,-0.416279)" />
  <g
     id="g1081"
     transform="matrix(0.596516,0.000000,0.000000,0.596516,35.66374,35.38349)">
    <defs
       id="defs1082">
      <linearGradient
         id="linearGradient1083">
        <stop
           style="stop-color:#b89282;stop-opacity:1;"
           offset="0.000000"
           id="stop567" />
        <stop
           style="stop-color:#ffffff;stop-opacity:0;"
           offset="1.000000"
           id="stop568" />
      </linearGradient>
      <linearGradient
         id="linearGradient558">
        <stop
           style="stop-color:#7fa8e3;stop-opacity:0.741176;"
           offset="0.000000"
           id="stop559" />
        <stop
           style="stop-color:#ffffff;stop-opacity:0;"
           offset="1.000000"
           id="stop1088" />
      </linearGradient>
      <linearGradient
         xlink:href="#linearGradient558"
         id="linearGradient561"
         x1="73.014465"
         y1="38.801174"
         x2="46.298435"
         y2="43.815094"
         gradientUnits="userSpaceOnUse"
         gradientTransform="scale(0.766548,1.304550)"
         spreadMethod="pad" />
      <linearGradient
         xlink:href="#linearGradient558"
         id="linearGradient563"
         x1="23.953167"
         y1="24.209469"
         x2="45.701229"
         y2="18.417210"
         gradientUnits="userSpaceOnUse"
         gradientTransform="scale(0.986297,1.013893)"
         spreadMethod="pad" />
      <linearGradient
         xlink:href="#linearGradient566"
         id="linearGradient565"
         x1="23.810970"
         y1="38.847637"
         x2="46.792309"
         y2="38.847637"
         gradientUnits="userSpaceOnUse"
         spreadMethod="pad"
         gradientTransform="scale(0.839949,1.190549)" />
      <linearGradient
         xlink:href="#linearGradient566"
         id="linearGradient570"
         x1="37.232796"
         y1="15.755128"
         x2="53.123920"
         y2="17.694983"
         gradientUnits="userSpaceOnUse"
         spreadMethod="pad"
         gradientTransform="scale(0.982487,1.017825)" />
    </defs>
    <sodipodi:namedview
       id="namedview1093" />
    <path
       transform="matrix(0.340965,0.853908,-0.974660,0.385714,75.14535,-7.185087)"
       style="font-size:12.000000;fill-opacity:0.29824600;fill-rule:evenodd;stroke-width:1.0000000pt"
       d="M 85.000000,46.718700 C 85.000000,68.195000 66.730000,85.625000 44.218800,85.625000 C 21.707500,85.625000 3.4375000,68.195000 3.4375000,46.718700 C 3.4375000,25.242500 21.707500,7.8124600 44.218800,7.8124600 C 66.730000,7.8124600 85.000000,25.242500 85.000000,46.718700 z "
       id="path616" />
    <path
       transform="matrix(1.076368,0.216611,-0.321239,1.002447,10.48794,-10.49991)"
       style="font-size:12.000000;fill:#143c69;fill-rule:evenodd;stroke-width:1.0000000pt"
       d="M 75.937500,42.343700 C 75.937500,62.957500 60.187500,79.687500 40.781300,79.687500 C 21.375000,79.687500 5.6250000,62.957500 5.6250000,42.343700 C 5.6250000,21.730000 21.375000,4.9999600 40.781300,4.9999600 C 60.187500,4.9999600 75.937500,21.730000 75.937500,42.343700 z "
       id="path613" />
    <path
       transform="matrix(0.940824,0.190037,-0.280786,0.879465,13.99018,-4.208603)"
       style="font-size:12.000000;fill:#ffffff;fill-rule:evenodd;stroke-width:1.0000000pt"
       d="M 75.937500,42.343700 C 75.937500,62.957500 60.187500,79.687500 40.781300,79.687500 C 21.375000,79.687500 5.6250000,62.957500 5.6250000,42.343700 C 5.6250000,21.730000 21.375000,4.9999600 40.781300,4.9999600 C 60.187500,4.9999600 75.937500,21.730000 75.937500,42.343700 z "
       id="path612" />
    <path
       style="fill:url(#linearGradient1130);fill-opacity:1.0000000;fill-rule:evenodd;stroke:none;stroke-width:1.0000000pt;stroke-linecap:butt;stroke-linejoin:miter;stroke-opacity:1.0000000"
       d="M 34.062500,47.812500 L 28.750000,74.062500 C 38.125000,74.062500 42.187500,76.875000 59.375000,66.875000 C 64.062500,63.437500 45.000000,40.937500 45.000000,40.937500 L 34.062500,47.812500 z "
       id="path1097"
       sodipodi:nodetypes="ccccc" />
    <path
       style="fill:url(#linearGradient1131);fill-opacity:1.0000000;fill-rule:evenodd;stroke:none;stroke-width:1.0000000pt;stroke-linecap:butt;stroke-linejoin:miter;stroke-opacity:1.0000000"
       d="M 42.187500,10.312500 L 43.125000,30.000000 C 43.125000,30.000000 27.500000,35.312500 27.187500,35.312500 C 26.875000,35.312500 18.750000,20.312500 18.750000,20.312500 C 18.750000,20.312500 32.812500,9.3749600 42.187500,10.312500 z "
       id="path562"
       sodipodi:nodetypes="ccccc" />
    <path
       transform="matrix(0.356290,7.133780e-2,-0.106333,0.330141,28.25376,22.01754)"
       style="font-size:12.000000;fill:#143c69;fill-rule:evenodd;stroke-width:1.0000000pt"
       d="M 75.937500,42.343700 C 75.937500,62.957500 60.187500,79.687500 40.781300,79.687500 C 21.375000,79.687500 5.6250000,62.957500 5.6250000,42.343700 C 5.6250000,21.730000 21.375000,4.9999600 40.781300,4.9999600 C 60.187500,4.9999600 75.937500,21.730000 75.937500,42.343700 z "
       id="path614" />
    <path
       transform="matrix(0.229217,4.476326e-2,-6.840878e-2,0.207158,31.51759,28.30885)"
       style="font-size:12.000000;fill:#bebebe;fill-rule:evenodd;stroke-width:1.0000000pt"
       d="M 75.937500,42.343700 C 75.937500,62.957500 60.187500,79.687500 40.781300,79.687500 C 21.375000,79.687500 5.6250000,62.957500 5.6250000,42.343700 C 5.6250000,21.730000 21.375000,4.9999600 40.781300,4.9999600 C 60.187500,4.9999600 75.937500,21.730000 75.937500,42.343700 z "
       id="path615" />
    <g
       id="g725"
       transform="matrix(0.740385,0.000000,0.000000,0.740385,23.40009,21.26986)">
      <defs
         id="defs668">
        <linearGradient
           id="linearGradient689">
          <stop
             style="stop-color:#ffb700;stop-opacity:1;"
             offset="0.000000"
             id="stop690" />
          <stop
             style="stop-color:#fdffff;stop-opacity:0;"
             offset="1.000000"
             id="stop691" />
        </linearGradient>
        <linearGradient
           id="linearGradient684">
          <stop
             style="stop-color:#ffffff;stop-opacity:0.647059;"
             offset="0.000000"
             id="stop685" />
          <stop
             style="stop-color:#fdffff;stop-opacity:0;"
             offset="1.000000"
             id="stop686" />
        </linearGradient>
        <linearGradient
           id="linearGradient677">
          <stop
             style="stop-color:#000000;stop-opacity:1;"
             offset="0.000000"
             id="stop678" />
          <stop
             style="stop-color:#6a6762;stop-opacity:1;"
             offset="1.000000"
             id="stop679" />
        </linearGradient>
        <linearGradient
           xlink:href="#linearGradient677"
           id="linearGradient680"
           x1="68.311676"
           y1="71.296051"
           x2="52.578365"
           y2="39.579781"
           gradientUnits="userSpaceOnUse"
           spreadMethod="pad"
           gradientTransform="scale(1.011562,0.988570)" />
        <linearGradient
           xlink:href="#linearGradient684"
           id="linearGradient683"
           x1="49.025764"
           y1="44.340187"
           x2="56.455326"
           y2="53.182751"
           gradientUnits="userSpaceOnUse"
           spreadMethod="pad"
           gradientTransform="scale(1.017548,0.982755)" />
        <linearGradient
           xlink:href="#linearGradient689"
           id="linearGradient688"
           x1="26.295921"
           y1="98.952934"
           x2="31.715986"
           y2="102.82758"
           gradientUnits="userSpaceOnUse"
           spreadMethod="pad"
           gradientTransform="scale(1.326975,0.753594)" />
        <linearGradient
           xlink:href="#linearGradient689"
           id="linearGradient693"
           x1="33.579441"
           y1="53.821957"
           x2="-14.069118"
           y2="26.552649"
           gradientUnits="userSpaceOnUse"
           spreadMethod="pad"
           gradientTransform="scale(0.780786,1.280761)" />
        <linearGradient
           xlink:href="#linearGradient689"
           id="linearGradient698" />
      </defs>
      <sodipodi:namedview
         id="namedview741" />
      <path
         style="fill:#000000;fill-opacity:0.29824600;fill-rule:evenodd;stroke:none;stroke-width:1.0000000pt;stroke-linecap:butt;stroke-linejoin:miter;stroke-opacity:1.0000000"
         d="M 1.4358700,43.334100 C 1.4358700,43.334100 13.982900,62.133400 24.409900,77.615600 C 26.361000,79.271000 38.751800,85.130700 41.640400,83.718000 C 44.216400,82.149200 79.089200,55.306700 79.714200,52.122500 C 80.698200,48.532700 79.488300,46.205800 78.614100,44.411000 C 77.896200,42.616100 54.563200,6.5397800 53.665800,5.6423600 C 52.768400,4.7449300 50.255600,3.4885400 47.204400,4.5654500 C 39.440100,9.0461700 15.007000,24.332000 2.5824800,37.168300 C 0.96712000,38.963200 1.2563900,41.539200 1.4358700,43.334100 z "
         id="path699"
         sodipodi:nodetypes="ccccccccc"
         transform="matrix(1.120973,0.000000,0.000000,0.970624,-0.312708,8.246927)" />
      <path
         style="fill:none;fill-opacity:1.0000000;fill-rule:evenodd;stroke:#000000;stroke-width:1.0000000pt;stroke-linecap:butt;stroke-linejoin:miter;stroke-opacity:1.0000000"
         d="M 8.7947300,37.411100 C 8.7947300,37.470900 8.7947300,37.530700 8.7947300,37.590600"
         id="path671" />
      <path
         style="fill:#261d14;fill-opacity:1.0000000;fill-rule:evenodd;stroke:none;stroke-width:1.0000000pt;stroke-linecap:butt;stroke-linejoin:miter;stroke-opacity:1.0000000"
         d="M 1.4358700,43.334100 C 1.4358700,43.334100 13.982900,62.133400 24.409900,77.615600 C 26.361000,79.271000 38.751800,85.130700 41.640400,83.718000 C 44.216400,82.149200 79.089200,55.306700 79.714200,52.122500 C 80.698200,48.532700 79.488300,46.205800 78.614100,44.411000 C 77.896200,42.616100 54.563200,6.5397800 53.665800,5.6423600 C 52.768400,4.7449300 50.255600,3.4885400 47.204400,4.5654500 C 39.440100,9.0461700 15.007000,24.332000 2.5824800,37.168300 C 0.96712000,38.963200 1.2563900,41.539200 1.4358700,43.334100 z "
         id="path676"
         sodipodi:nodetypes="ccccccccc" />
      <path
         style="fill:#f1e36c;fill-opacity:1.0000000;fill-rule:evenodd;stroke:none;stroke-width:1.0000000pt;stroke-linecap:butt;stroke-linejoin:miter;stroke-opacity:1.0000000"
         d="M 8.6152500,37.590600 C 8.6152500,37.590600 27.281600,66.846500 27.999500,68.102900 C 28.717500,69.359300 30.332900,71.154200 33.563600,72.051600 C 38.409700,74.025900 43.076200,75.820700 43.435200,75.820700 C 43.794200,75.820700 46.127500,73.666900 46.127500,73.666900 L 35.537900,60.385100 L 59.768300,39.205900 L 69.998900,54.103100 L 75.562900,49.616000 C 75.562900,49.616000 50.435100,8.6935900 50.076100,8.6935900 C 49.717200,8.6935900 43.794200,12.283300 43.794200,12.283300 L 56.358100,31.308600 C 56.358100,31.308600 31.768700,49.436600 29.614900,51.231400 C 27.640600,51.231400 13.461300,33.462400 13.461300,33.462400 L 8.6152500,37.590600 z "
         id="path672"
         sodipodi:nodetypes="ccccccccccccccc" />
      <path
         style="fill:#ffffff;fill-opacity:1.0000000;fill-rule:evenodd;stroke:none;stroke-width:1.0000000pt;stroke-linecap:butt;stroke-linejoin:miter;stroke-opacity:1.0000000"
         d="M 14.897200,32.565000 L 29.614900,49.257100 L 54.204300,30.770200 L 42.358300,12.821700 L 14.897200,32.565000 z "
         id="path673"
         sodipodi:nodetypes="ccccc" />
      <path
         style="fill:url(#linearGradient1132);fill-opacity:1.0000000;fill-rule:evenodd;stroke:none;stroke-width:1.0000000pt;stroke-linecap:butt;stroke-linejoin:miter;stroke-opacity:1.0000000"
         d="M 37.512200,60.564600 L 47.024900,72.410500 L 49.358200,70.615700 L 41.101900,60.385100 C 41.101900,60.385100 43.794200,57.333800 45.589000,57.154400 C 48.460800,59.846600 54.204300,67.026000 54.204300,67.026000 L 69.101500,55.718500 L 59.229800,41.539200 L 37.512200,60.564600 z "
         id="path674"
         sodipodi:nodetypes="ccccccccc" />
      <path
         style="fill:#f1e36c;fill-opacity:1.0000000;fill-rule:evenodd;stroke:none;stroke-width:1.0000000pt;stroke-linecap:butt;stroke-linejoin:miter;stroke-opacity:1.0000000"
         d="M 7.9205400,38.534500 C 7.2026100,38.355000 28.897000,71.872000 29.435500,71.872000 C 29.973900,71.872000 41.460900,76.718200 41.460900,76.718200 L 40.743000,79.051400 L 28.717500,75.641300 L 5.4077600,41.250000 L 7.9205400,38.534500 z "
         id="path675"
         sodipodi:nodetypes="ccccccc" />
      <path
         style="fill:#f1e36c;fill-opacity:1.0000000;fill-rule:evenodd;stroke:none;stroke-width:1.0000000pt;stroke-linecap:butt;stroke-linejoin:miter;stroke-opacity:1.0000000"
         d="M 42.358300,60.205600 L 49.717200,69.718300 L 52.947900,67.026000 L 45.230100,57.692800 L 42.358300,60.205600 z "
         id="path681" />
      <path
         style="fill:url(#linearGradient1133);fill-opacity:1.0000000;fill-rule:evenodd;stroke:none;stroke-width:1.0000000pt;stroke-linecap:butt;stroke-linejoin:miter;stroke-opacity:1.0000000"
         d="M 59.062500,42.500000 L 45.156300,54.687500 C 46.354200,58.229100 50.364600,60.989500 52.031300,62.968700 C 54.583400,43.802000 59.948000,45.416600 65.312600,52.343700 L 59.062500,42.500000 z "
         id="path682"
         sodipodi:nodetypes="ccccc" />
      <path
         style="fill:url(#linearGradient1134);fill-opacity:1.0000000;fill-rule:evenodd;stroke:none;stroke-width:1.0000000pt;stroke-linecap:butt;stroke-linejoin:miter;stroke-opacity:1.0000000"
         d="M 41.250000,76.718700 L 40.625000,79.062500 L 28.593800,75.937500 L 29.062500,71.875000 L 41.250000,76.718700 z "
         id="path687" />
      <path
         style="fill:url(#linearGradient1135);fill-opacity:1.0000000;fill-rule:evenodd;stroke:none;stroke-width:1.0000000pt;stroke-linecap:butt;stroke-linejoin:miter;stroke-opacity:1.0000000"
         d="M 28.593800,75.781200 L 29.375000,72.187500 L 12.500000,46.562500 L 11.562500,50.000000 L 28.593800,75.781200 z "
         id="path692" />
      <path
         style="fill:#bae6ff;fill-opacity:1.0000000;fill-rule:evenodd;stroke:none;stroke-width:1.0000000pt;stroke-linecap:butt;stroke-linejoin:miter;stroke-opacity:1.0000000"
         d="M 14.843800,32.500000 L 21.093800,39.531200 L 47.812600,20.781200 L 42.343800,12.812500 L 14.843800,32.500000 z "
         id="path697"
         sodipodi:nodetypes="ccccc" />
    </g>
  </g>
</svg>
