<?xml version="1.0" encoding="UTF-8" standalone="no"?>
<!-- Created with Sodipodi ("http://www.sodipodi.com/") -->
<svg
   xmlns:dc="http://purl.org/dc/elements/1.1/"
   xmlns:cc="http://creativecommons.org/ns#"
   xmlns:rdf="http://www.w3.org/1999/02/22-rdf-syntax-ns#"
   xmlns:svg="http://www.w3.org/2000/svg"
   xmlns="http://www.w3.org/2000/svg"
   xmlns:xlink="http://www.w3.org/1999/xlink"
   xmlns:sodipodi="http://sodipodi.sourceforge.net/DTD/sodipodi-0.dtd"
   xmlns:inkscape="http://www.inkscape.org/namespaces/inkscape"
   id="svg548"
   sodipodi:version="0.32"
   width="72pt"
   height="72pt"
   sodipodi:docname="media-optical-video-new.svg"
   inkscape:version="0.46+devel"
   inkscape:output_extension="org.inkscape.output.svg.inkscape">
  <metadata
     id="metadata24">
    <rdf:RDF>
      <cc:Work
         rdf:about="">
        <dc:format>image/svg+xml</dc:format>
        <dc:type
           rdf:resource="http://purl.org/dc/dcmitype/StillImage" />
        <dc:title></dc:title>
      </cc:Work>
    </rdf:RDF>
  </metadata>
  <defs
     id="defs550">
    <linearGradient
       id="linearGradient558">
      <stop
         style="stop-color:#7fa8e3;stop-opacity:0.741176;"
         offset="0.000000"
         id="stop559" />
      <stop
         style="stop-color:#ffffff;stop-opacity:0;"
         offset="1.000000"
         id="stop560" />
    </linearGradient>
    <linearGradient
       xlink:href="#linearGradient558"
       id="linearGradient563"
       x1="23.9531670"
       y1="24.2094688"
       x2="45.7012291"
       y2="18.4172096"
       gradientUnits="userSpaceOnUse"
       gradientTransform="scale(0.986297,1.013893)"
       spreadMethod="pad" />
    <linearGradient
       inkscape:collect="always"
       xlink:href="#linearGradient558"
       id="linearGradient4204"
       gradientUnits="userSpaceOnUse"
       gradientTransform="scale(0.766548,1.30455)"
       spreadMethod="pad"
       x1="73.0144653"
       y1="38.8011742"
       x2="46.2984352"
       y2="43.8150940" />
  </defs>
  <sodipodi:namedview
     id="base"
     showgrid="false"
     inkscape:zoom="2.7666667"
     inkscape:cx="62.345229"
     inkscape:cy="28.798698"
     inkscape:window-width="695"
     inkscape:window-height="724"
     inkscape:window-x="319"
     inkscape:window-y="1"
     inkscape:current-layer="svg548" />
  <path
     id="path2421"
     d="M 50.147213,8.8878012 C 31.789583,8.9112875 13.972647,21.40043 8.1784639,39.481552 C 1.5565073,60.145794 13.133894,80.340435 34.022213,84.544052 C 54.910426,88.747648 77.244009,75.395796 83.865963,54.731552 C 90.487887,34.06741 78.910427,13.872648 58.022213,9.6690512 C 55.411173,9.1435989 52.769732,8.884446 50.147213,8.8878012 z M 44.084713,37.325302 C 44.643189,37.324609 45.216181,37.372966 45.772213,37.481552 C 50.220445,38.350237 52.682371,42.523759 51.272213,46.794052 C 49.862046,51.064365 45.095444,53.850237 40.647213,52.981552 C 36.19896,52.112862 33.737048,47.939366 35.147213,43.669052 C 36.381101,39.932544 40.175381,37.330154 44.084713,37.325302 z"
     style="font-size:12px;fill:#000000;fill-opacity:0.29411765;fill-rule:evenodd;stroke-width:1pt" />
  <path
     style="font-size:12;fill:#143c69;fill-rule:evenodd;stroke-width:1pt;"
     d="M 44.90625 2.5625 C 26.54862 2.5859863 8.7316839 15.075128 2.9375 33.15625 C -3.6844565 53.820492 7.8929302 74.015133 28.78125 78.21875 C 49.669463 82.422346 72.003046 69.070494 78.625 48.40625 C 85.246924 27.742108 73.669464 7.5473465 52.78125 3.34375 C 50.17021 2.8182977 47.528769 2.5591448 44.90625 2.5625 z M 38.84375 31 C 39.402226 30.999307 39.975218 31.047664 40.53125 31.15625 C 44.979482 32.024935 47.441408 36.198457 46.03125 40.46875 C 44.621083 44.739063 39.854481 47.524935 35.40625 46.65625 C 30.957997 45.78756 28.496085 41.614064 29.90625 37.34375 C 31.140138 33.607242 34.934418 31.004852 38.84375 31 z "
     id="path613" />
  <path
     style="font-size:12;fill:#ffffff;fill-rule:evenodd;stroke-width:1pt;"
     d="M 44.0625 7.25 C 28.016595 7.2706008 12.470783 18.23085 7.40625 34.09375 C 1.6181836 52.222866 11.710836 69.937087 29.96875 73.625 C 48.226569 77.312896 67.743181 65.597864 73.53125 47.46875 C 79.319288 29.339722 69.226567 11.625396 50.96875 7.9375 C 48.686511 7.4765106 46.354772 7.247057 44.0625 7.25 z M 39.65625 26.3125 C 40.524333 26.311395 41.385716 26.38945 42.25 26.5625 C 49.164236 27.946895 53.004417 34.600822 50.8125 41.40625 C 48.620573 48.21171 41.226735 52.634396 34.3125 51.25 C 27.39823 49.865599 23.558073 43.211711 25.75 36.40625 C 27.667928 30.451502 33.579669 26.320232 39.65625 26.3125 z "
     id="path612" />
  <path
     style="fill:url(#linearGradient563);fill-rule:evenodd;stroke:none;stroke-opacity:1;stroke-width:1pt;stroke-linejoin:miter;stroke-linecap:butt;fill-opacity:1"
     d="M 41.28125 10.25 C 31.933144 10.039175 18.75 20.3125 18.75 20.3125 C 18.75 20.3125 24.672412 31.18788 26.59375 34.375 C 29.068156 29.526711 34.294055 26.319323 39.65625 26.3125 C 40.524333 26.311395 41.385716 26.38945 42.25 26.5625 C 42.499116 26.612379 42.727753 26.686679 42.96875 26.75 L 42.1875 10.3125 C 41.894531 10.283202 41.582802 10.256801 41.28125 10.25 z M 38.84375 31 C 36.42371 31.003004 34.064266 32.009586 32.3125 33.65625 C 35.513707 32.586525 37.780221 31.804732 39.96875 31.0625 C 39.593353 31.016179 39.215568 30.999539 38.84375 31 z "
     id="path562" />
  <path
     style="fill:url(#linearGradient4204);fill-rule:evenodd;stroke:none;stroke-opacity:1;stroke-width:1pt;stroke-linejoin:miter;stroke-linecap:butt;fill-opacity:1"
     d="M 48.65625 45.5 C 45.376117 49.863235 39.706935 52.330095 34.3125 51.25 C 33.999833 51.187397 33.706071 51.114931 33.40625 51.03125 L 28.875 73.375 C 29.238523 73.461224 29.598445 73.550202 29.96875 73.625 C 35.51274 74.74483 41.174739 74.437659 46.53125 72.96875 C 49.729672 71.925417 53.619215 70.15822 58.59375 67.3125 C 58.978585 67.046567 59.374361 66.779315 59.75 66.5 C 59.755263 66.492558 59.744855 66.476285 59.75 66.46875 C 61.920082 63.290708 53.691958 51.935458 48.65625 45.5 z "
     id="path557" />
  <g
     id="g3564"
     transform="matrix(0.47525837,-0.83157469,0.83157469,0.47525837,-35.184436,-9.9817944)">
    <path
       style="font-size:12px;fill:#000000;fill-opacity:0.29411765;fill-rule:evenodd;stroke-width:1pt"
       d="m 22.332261,105.71606 c 0.1905,1.1429 1.7951,3.902 1.9856,5.0448 -1.8095,0.6667 -3.013,1.6364 -4.8225,2.3031 1.5238,6.7619 2.4416,10.5943 3.9654,17.3562 2.1184,-0.3578 3.4285,-1.5238 4.9408,-2.8917 0.2857,1.6191 0.9755,3.9452 1.2612,5.5643 -15.0445,9.4576 -39.786402,18.9152 -62.811,18.9784 -0.4762,-1.4286 -0.0433,-4.0694 -0.5195,-5.4979 2.2078,0.0346 2.9004,-0.1327 4.8052,-0.4011 -1.1429,-5.7143 -1.8818,-12.1356 -3.0246,-17.8499 -2.202,0.1674 -3.0909,0.0316 -5.39384,0.0979 -0.38097,-2 -0.57724,-3.2755 -0.9582,-5.2755 23.333341,-2.0952 42.3809388,-7.3334 60.57144,-17.4286 z"
       id="path2790"
       sodipodi:nodetypes="ccccccccccccc" />
    <path
       sodipodi:nodetypes="ccccccccccccc"
       id="path559"
       d="m 22.581469,101.18801 c 0.1905,1.1429 1.7951,3.902 1.9856,5.0448 -1.8095,0.6667 -3.013,1.6364 -4.8225,2.3031 1.5238,6.7619 2.4416,10.5943 3.9654,17.3562 2.1184,-0.3578 3.4285,-1.5238 4.9408,-2.8917 0.2857,1.6191 0.9755,3.9452 1.2612,5.5643 -15.0445,9.4576 -39.7864,18.9152 -62.811,18.9784 -0.4762,-1.4286 -0.0433,-4.0694 -0.5195,-5.4979 2.2078,0.0346 2.9004,-0.1327 4.8052,-0.4011 -1.1429,-5.7143 -1.8818,-12.1356 -3.0246,-17.8499 -2.202,0.1674 -3.0909,0.0316 -5.39384,0.0979 -0.38097,-2 -0.57724,-3.2755 -0.9582,-5.2755 23.33334,-2.0952 42.38094,-7.3334 60.57144,-17.4286 z"
       style="font-size:12px;fill:#000000;fill-opacity:1;fill-rule:evenodd;stroke-width:1pt" />
    <path
       sodipodi:nodetypes="cccc"
       id="path560"
       d="m -24.222631,139.72331 c 6.465,0.3704 12.6269,-1.4816 18.3848,-3.3336 -1.2459,-6.5997 -2.2897,-9.6637 -3.5356,-16.2634 -5.4211,2.2897 -11.5494,3.4682 -17.8797,3.7376"
       style="font-size:12px;fill:#f1e36c;fill-opacity:1;fill-rule:evenodd;stroke-width:1pt" />
    <path
       sodipodi:nodetypes="cccc"
       id="path561"
       d="m -0.079981,134.8746 c 8.1822,-0.9428 13.4349,-4.512 18.5868,-7.3742 -1.2459,-6.5997 -2.5928,-8.5526 -3.8387,-15.1523 -5.7241,2.8958 -12.5593,5.8925 -18.6876,6.667"
       style="font-size:12px;fill:#f1e36c;fill-opacity:1;fill-rule:evenodd;stroke-width:1pt" />
    <path
       sodipodi:nodetypes="ccccc"
       id="path563"
       d="m -23.729551,141.90148 c 0.184403,1.24279 0.45318,2.27615 0.637583,3.51894 1.849368,-0.27088 3.614278,-0.33221 5.43915,-0.90514 -0.184403,-1.24279 -0.344424,-2.18363 -0.528827,-3.42642 -1.716017,0.66542 -3.674141,0.84379 -5.547906,0.81262 z"
       style="font-size:12px;fill:#ffffff;fill-rule:evenodd;stroke-width:1pt" />
    <path
       sodipodi:nodetypes="ccccc"
       id="path564"
       d="m -13.866075,140.14369 c 0.328062,1.21281 0.715502,2.20777 1.043564,3.42059 1.805165,-0.48468 3.5508839,-0.7514 5.2965014,-1.5332 -0.3280624,-1.21281 -0.5966994,-2.12857 -0.9247617,-3.34139 -1.6267187,0.86098 -3.5506867,1.26646 -5.4153037,1.454 z"
       style="font-size:12px;fill:#ffffff;fill-rule:evenodd;stroke-width:1pt" />
    <path
       sodipodi:nodetypes="ccccc"
       id="path565"
       d="m -4.7746989,137.71933 c 0.3280624,1.21281 0.7155014,2.20778 1.0435638,3.42059 1.8051655,-0.48468 3.550884,-0.75139 5.2965015,-1.5332 -0.3280624,-1.21281 -0.59669937,-2.12857 -0.92476175,-3.34139 -1.62671881,0.86098 -3.55068645,1.26646 -5.41530355,1.454 z"
       style="font-size:12px;fill:#ffffff;fill-rule:evenodd;stroke-width:1pt" />
    <path
       sodipodi:nodetypes="ccccc"
       id="path566"
       d="m 4.3166811,134.99191 c 0.3280624,1.21281 0.7155014,2.20778 1.0435638,3.42059 1.8051655,-0.48468 3.550884,-0.75139 5.2965011,-1.5332 -0.328062,-1.21281 -0.596699,-2.12857 -0.9247613,-3.34139 -1.6267189,0.86098 -3.5506865,1.26646 -5.4153036,1.454 z"
       style="font-size:12px;fill:#ffffff;fill-rule:evenodd;stroke-width:1pt" />
    <path
       sodipodi:nodetypes="ccccc"
       id="path567"
       d="m 4.3166811,134.99191 c 0.3280624,1.21281 0.7155014,2.20778 1.0435638,3.42059 1.8051655,-0.48468 3.550884,-0.75139 5.2965011,-1.5332 -0.328062,-1.21281 -0.596699,-2.12857 -0.9247613,-3.34139 -1.6267189,0.86098 -3.5506865,1.26646 -5.4153036,1.454 z"
       style="font-size:12px;fill:#ffffff;fill-rule:evenodd;stroke-width:1pt" />
    <path
       sodipodi:nodetypes="ccccc"
       id="path568"
       d="m 12.902981,131.45637 c 0.328062,1.21281 0.715502,2.20778 1.043564,3.42059 1.805165,-0.48468 3.550884,-0.75139 5.296501,-1.5332 -0.328062,-1.21281 -0.596699,-2.12857 -0.924761,-3.34139 -1.626719,0.86098 -3.550687,1.26646 -5.415304,1.454 z"
       style="font-size:12px;fill:#ffffff;fill-rule:evenodd;stroke-width:1pt" />
    <path
       sodipodi:nodetypes="ccccc"
       id="path569"
       d="m -28.174224,119.07202 c 0.184403,1.24279 0.45318,2.27614 0.637583,3.51894 1.849368,-0.27089 3.614278,-0.33222 5.43915,-0.90514 -0.184403,-1.24279 -0.344424,-2.18363 -0.528827,-3.42642 -1.716017,0.66542 -3.674141,0.84379 -5.547906,0.81262 z"
       style="font-size:12px;fill:#ffffff;fill-rule:evenodd;stroke-width:1pt" />
    <path
       sodipodi:nodetypes="ccccc"
       id="path570"
       d="m -18.310748,117.31422 c 0.328062,1.21281 0.715502,2.20778 1.043564,3.42059 1.805165,-0.48468 3.550884,-0.75139 5.296501,-1.5332 -0.328062,-1.21281 -0.596699,-2.12857 -0.924761,-3.34139 -1.626719,0.86098 -3.550687,1.26646 -5.415304,1.454 z"
       style="font-size:12px;fill:#ffffff;fill-rule:evenodd;stroke-width:1pt" />
    <path
       sodipodi:nodetypes="ccccc"
       id="path571"
       d="m -9.2193679,114.88987 c 0.3280624,1.21281 0.7155014,2.20778 1.0435638,3.42059 1.8051655,-0.48468 3.550884,-0.75139 5.2965015,-1.5332 -0.3280624,-1.21281 -0.5966994,-2.12857 -0.9247617,-3.34139 -1.6267189,0.86098 -3.5506865,1.26646 -5.4153036,1.454 z"
       style="font-size:12px;fill:#ffffff;fill-rule:evenodd;stroke-width:1pt" />
    <path
       sodipodi:nodetypes="ccccc"
       id="path572"
       d="m -0.12798888,112.16246 c 0.32806237,1.21281 0.71550138,2.20778 1.04356375,3.42059 1.80516553,-0.48468 3.55088403,-0.75139 5.29650153,-1.5332 -0.3280624,-1.21281 -0.5966994,-2.12857 -0.9247617,-3.34139 -1.6267189,0.86098 -3.5506865,1.26646 -5.41530358,1.454 z"
       style="font-size:12px;fill:#ffffff;fill-rule:evenodd;stroke-width:1pt" />
    <path
       sodipodi:nodetypes="ccccc"
       id="path573"
       d="m 8.4583111,108.62692 c 0.3280624,1.21281 0.7155014,2.20778 1.0435638,3.42059 1.8051651,-0.48468 3.5508841,-0.75139 5.2965011,-1.5332 -0.328062,-1.21281 -0.596699,-2.12857 -0.924761,-3.34139 -1.626719,0.86098 -3.550687,1.26646 -5.4153039,1.454 z"
       style="font-size:12px;fill:#ffffff;fill-rule:evenodd;stroke-width:1pt" />
  </g>
</svg>
