<?xml version="1.0" encoding="UTF-8" standalone="no"?>
<!DOCTYPE svg PUBLIC "-//W3C//DTD SVG 20010904//EN"
"http://www.w3.org/TR/2001/REC-SVG-20010904/DTD/svg10.dtd">
<!-- Created with Inkscape (http://www.inkscape.org/) -->
<svg
   width="72.000000pt"
   height="72.000000pt"
   xmlns="http://www.w3.org/2000/svg"
   xmlns:cc="http://web.resource.org/cc/"
   xmlns:inkscape="http://www.inkscape.org/namespaces/inkscape"
   xmlns:sodipodi="http://sodipodi.sourceforge.net/DTD/sodipodi-0.dtd"
   xmlns:rdf="http://www.w3.org/1999/02/22-rdf-syntax-ns#"
   xmlns:dc="http://purl.org/dc/elements/1.1/"
   xmlns:xlink="http://www.w3.org/1999/xlink"
   id="svg1"
   sodipodi:version="0.32"
   inkscape:version="0.40"
   sodipodi:docbase="/home/zeus/.icons/gartoon/scalable/apps"
   sodipodi:docname="thunderbird.svg">
  <defs
     id="defs3">
    <linearGradient
       id="linearGradient1808">
      <stop
         style="stop-color:#ff933d;stop-opacity:1.0000000;"
         offset="0.0000000"
         id="stop1809" />
      <stop
         style="stop-color:#ffc93f;stop-opacity:0;"
         offset="1"
         id="stop1810" />
    </linearGradient>
    <linearGradient
       id="linearGradient1798">
      <stop
         style="stop-color:#ffffff;stop-opacity:0.63917524;"
         offset="0.0000000"
         id="stop1799" />
      <stop
         style="stop-color:#ffffff;stop-opacity:0.0000000;"
         offset="1.0000000"
         id="stop1800" />
    </linearGradient>
    <defs
       id="defs1694">
      <sodipodi:namedview
         id="namedview909" />
      <defs
         id="defs550">
        <linearGradient
           x1="0.0000000"
           y1="0.0000000"
           x2="1.0000000"
           y2="0.0000000"
           id="linearGradient632"
           gradientUnits="objectBoundingBox"
           spreadMethod="pad">
          <stop
             style="stop-color:#ffb700;stop-opacity:1;"
             offset="0.000000"
             id="stop633" />
          <stop
             style="stop-color:#ffd58f;stop-opacity:0;"
             offset="1.000000"
             id="stop634" />
        </linearGradient>
        <linearGradient
           x1="0.0000000"
           y1="0.0000000"
           x2="1.0000000"
           y2="0.0000000"
           id="linearGradient556"
           gradientUnits="objectBoundingBox"
           spreadMethod="pad">
          <stop
             style="stop-color:#000000;stop-opacity:1;"
             offset="0.000000"
             id="stop557" />
          <stop
             style="stop-color:#bdf2ff;stop-opacity:0.384314;"
             offset="1.000000"
             id="stop558" />
        </linearGradient>
        <linearGradient
           id="linearGradient559"
           xlink:href="#linearGradient632"
           x1="60.644615"
           y1="19.295689"
           x2="35.370575"
           y2="69.142799"
           gradientUnits="userSpaceOnUse"
           spreadMethod="pad" />
        <linearGradient
           xlink:href="#linearGradient632"
           id="linearGradient631"
           x1="85.637657"
           y1="17.443844"
           x2="73.916298"
           y2="54.628181"
           gradientUnits="userSpaceOnUse"
           spreadMethod="pad"
           gradientTransform="scale(0.740666,1.350136)" />
      </defs>
    </defs>
    <sodipodi:namedview
       id="namedview1705"
       pagecolor="#ffffff"
       bordercolor="#666666"
       borderopacity="1.0"
       inkscape:pageopacity="0.0"
       inkscape:pageshadow="2"
       inkscape:zoom="2.4559706"
       inkscape:cx="113.94414"
       inkscape:cy="73.007956"
       inkscape:window-width="812"
       inkscape:window-height="560"
       inkscape:window-x="103"
       inkscape:window-y="56" />
    <metadata
       id="metadata1706">
      <rdf:RDF
         id="RDF1707">
        <cc:Work
           rdf:about=""
           id="Work1708">
          <dc:format
             id="format1709">image/svg+xml</dc:format>
          <dc:type
             id="type1711"
             rdf:resource="http://purl.org/dc/dcmitype/StillImage" />
        </cc:Work>
      </rdf:RDF>
    </metadata>
    <linearGradient
       inkscape:collect="always"
       xlink:href="#linearGradient1798"
       id="linearGradient1801"
       gradientTransform="matrix(0.961629,0.000000,0.000000,1.039902,-1.325825,-1.325825)"
       x1="42.190247"
       y1="11.033928"
       x2="56.970058"
       y2="27.090355"
       gradientUnits="userSpaceOnUse" />
    <radialGradient
       inkscape:collect="always"
       xlink:href="#linearGradient1798"
       id="radialGradient1806"
       gradientTransform="scale(1.232282,0.811503)"
       cx="29.139248"
       cy="46.234493"
       fx="29.139248"
       fy="46.234493"
       r="3.6760285"
       gradientUnits="userSpaceOnUse" />
    <linearGradient
       inkscape:collect="always"
       xlink:href="#linearGradient1808"
       id="linearGradient1811"
       gradientTransform="matrix(1.068729,0.000000,0.000000,0.935691,-1.325825,-1.325825)"
       x1="18.879765"
       y1="74.400581"
       x2="16.676851"
       y2="57.798080"
       gradientUnits="userSpaceOnUse" />
    <linearGradient
       inkscape:collect="always"
       xlink:href="#linearGradient1808"
       id="linearGradient1840"
       gradientTransform="matrix(1.711002,0.000000,0.000000,0.584453,-1.325825,-1.325825)"
       x1="17.292076"
       y1="120.65153"
       x2="10.455746"
       y2="114.13747"
       gradientUnits="userSpaceOnUse" />
    <linearGradient
       inkscape:collect="always"
       xlink:href="#linearGradient1798"
       id="linearGradient1845"
       gradientTransform="matrix(0.969871,0.000000,0.000000,1.031065,-1.325825,-1.325825)"
       x1="17.227962"
       y1="53.228062"
       x2="17.075169"
       y2="58.933395"
       gradientUnits="userSpaceOnUse" />
    <linearGradient
       inkscape:collect="always"
       xlink:href="#linearGradient1808"
       id="linearGradient1850"
       gradientTransform="matrix(0.942620,0.000000,0.000000,1.060873,-1.325825,-1.325825)"
       x1="38.532257"
       y1="76.963470"
       x2="36.981308"
       y2="46.307980"
       gradientUnits="userSpaceOnUse" />
  </defs>
  <sodipodi:namedview
     id="base"
     pagecolor="#ffffff"
     bordercolor="#666666"
     borderopacity="1.0"
     inkscape:pageopacity="0.0"
     inkscape:pageshadow="2"
     inkscape:zoom="1.0000000"
     inkscape:cx="128.82690"
     inkscape:cy="114.60458"
     inkscape:current-layer="svg1"
     inkscape:window-width="849"
     inkscape:window-height="624"
     inkscape:window-x="71"
     inkscape:window-y="28" />
  <metadata
     id="metadata4">
    <rdf:RDF
       id="RDF5">
      <cc:Work
         rdf:about=""
         id="Work6">
        <dc:format
           id="format7">image/svg+xml</dc:format>
        <dc:type
           id="type9"
           rdf:resource="http://purl.org/dc/dcmitype/StillImage" />
      </cc:Work>
    </rdf:RDF>
  </metadata>
  <path
     style="fill:#000000;fill-opacity:0.39215687;fill-rule:evenodd;stroke:none;stroke-width:4.3308191;stroke-linecap:round;stroke-linejoin:round;stroke-miterlimit:4.0000000;stroke-opacity:1.0000000"
     d="M 73.914818,9.1204008 L 52.196068,22.026651 L 58.414818,23.276651 L 48.539818,31.464151 C 47.141564,31.415619 37.682907,33.504612 32.039818,39.307901 C 30.943042,39.449368 24.537735,45.143314 24.039818,50.620401 C 23.950662,51.601117 24.124014,52.913299 24.352318,54.339151 C 18.493847,56.786358 10.335649,57.769237 13.821068,72.526651 C 13.821068,72.526650 22.049700,72.663796 24.571068,73.182901 C 27.022721,73.687654 32.023084,76.270957 33.258568,76.214151 L 25.289818,83.995401 L 35.289818,80.776651 L 38.664818,86.370401 L 49.446068,78.745401 C 47.571069,78.745399 54.446555,84.167519 56.914818,84.307901 C 57.508079,84.604531 60.532858,75.394204 61.571068,75.839151 C 61.600908,75.851937 61.606848,75.687021 61.633568,75.682901 L 61.758568,75.839151 L 62.102318,75.839151 L 61.727318,75.682901 L 61.664818,75.620401 C 61.754576,75.582300 61.796836,75.304686 61.852318,75.089151 L 62.383568,75.839151 L 62.102318,75.839151 L 69.883568,78.807901 L 71.508568,70.214151 L 82.352318,74.370401 C 82.352314,74.370404 76.992700,68.853071 76.696068,66.776651 C 76.399437,64.700234 75.205695,46.989154 70.696068,41.745401 C 68.763220,36.278428 66.506013,32.909853 65.352318,31.932901 L 72.977318,21.089151 L 65.321068,20.557901 L 73.914818,9.1204008 z "
     id="path1856"
     sodipodi:nodetypes="ccccccccccccccccccccccccccccccccc" />
  <path
     style="fill:none;fill-opacity:1.0000000;fill-rule:evenodd;stroke:#000000;stroke-width:4.3308191;stroke-linecap:round;stroke-linejoin:round;stroke-miterlimit:4.0000000;stroke-opacity:1.0000000"
     d="M 65.521933,5.1488740 L 43.808512,18.052342 L 50.008109,19.298194 L 40.130282,27.485221 C 38.732029,27.436690 29.280663,29.513002 23.637574,35.316291 C 22.540799,35.457759 16.156106,41.170525 15.658189,46.647612 C 15.064926,53.173504 22.480712,71.861284 24.853763,72.009600 L 24.705447,79.870333 L 33.307759,76.014124 L 34.642600,82.540016 L 43.541543,76.014124 C 43.541543,76.014124 49.325856,80.018648 49.919119,80.315280 C 50.512382,80.611911 52.143855,71.416337 53.182065,71.861284 C 53.211904,71.874072 53.214671,71.717088 53.241391,71.712968 L 53.360044,71.861284 L 53.716002,71.861284 L 53.330381,71.712968 L 53.271055,71.653642 C 53.360815,71.615543 53.393551,71.335240 53.449033,71.119705 L 53.982970,71.861284 L 53.716002,71.861284 L 61.487745,74.827598 L 63.119218,66.225287 L 73.946266,70.378127 C 73.946266,70.378127 68.606900,64.890445 68.310268,62.814025 C 68.013637,60.737605 66.798277,43.022085 62.288650,37.778332 C 57.855802,32.623858 56.089672,31.440208 56.029727,31.400756 L 64.572712,17.103121 L 56.919621,16.569184 L 65.521933,5.1488740 z "
     id="path1794" />
  <g
     inkscape:label="Layer 1"
     inkscape:groupmode="layer"
     id="layer1" />
  <path
     style="fill:#002f77;fill-opacity:1.0000000;fill-rule:evenodd;stroke:none;stroke-width:0.25000000pt;stroke-linecap:butt;stroke-linejoin:miter;stroke-opacity:1.0000000"
     d="M 65.521933,5.1488740 L 43.808512,18.052342 L 50.008109,19.298194 L 40.130282,27.485221 C 38.621285,27.432846 27.669354,29.786597 22.320726,36.708351 C 19.803724,48.768981 48.435962,64.089540 48.435962,64.089540 L 53.982970,71.861284 L 53.716002,71.861284 L 61.487745,74.827598 L 63.119218,66.225287 L 73.946266,70.378127 C 73.946266,70.378127 68.606900,64.890445 68.310268,62.814025 C 68.013637,60.737605 66.798277,43.022085 62.288650,37.778332 C 57.855802,32.623858 56.089672,31.440208 56.029727,31.400756 L 64.572712,17.103121 L 56.919621,16.569184 L 65.521933,5.1488740 z M 53.716002,71.861284 L 53.330381,71.712968 L 53.033749,71.416337 L 53.360044,71.861284 L 53.716002,71.861284 z "
     id="path1690"
     sodipodi:nodetypes="cccccccccccccccccccccc" />
  <path
     style="fill:#ffe268;fill-opacity:1.0000000;fill-rule:evenodd;stroke:none;stroke-width:0.25000000pt;stroke-linecap:butt;stroke-linejoin:miter;stroke-opacity:1.0000000"
     d="M 24.853763,72.009600 L 24.705447,79.870333 L 33.307759,76.014124 L 34.642600,82.540016 L 43.541543,76.014124 C 43.541543,76.014124 49.325856,80.018648 49.919119,80.315280 C 50.512382,80.611911 52.143855,71.416337 53.182065,71.861284 C 54.220275,72.306231 53.330381,62.220762 53.330381,62.220762 L 57.334905,63.407288 C 57.334905,63.407288 58.818062,56.733081 55.406801,53.173504 C 51.995539,49.613926 44.018112,38.642930 41.941692,38.642930 C 39.865272,38.642930 32.262096,46.665605 25.487379,44.195133 C 22.802790,41.200284 22.035764,38.490247 23.667237,35.820565 C 25.298710,33.150882 16.251451,40.121720 15.658189,46.647612 C 15.064926,53.173504 22.480712,71.861284 24.853763,72.009600 z "
     id="path1689"
     sodipodi:nodetypes="ccccccccccccccc" />
  <path
     style="fill:url(#linearGradient1850);fill-opacity:1.0000000;fill-rule:evenodd;stroke:none;stroke-width:0.25000000pt;stroke-linecap:butt;stroke-linejoin:miter;stroke-opacity:1.0000000"
     d="M 24.853763,72.009600 L 24.705447,79.870333 L 33.307759,76.014124 L 34.642600,82.540016 L 43.541543,76.014124 C 43.541543,76.014124 49.325856,80.018648 49.919119,80.315280 C 50.512382,80.611911 52.143855,71.416337 53.182065,71.861284 C 54.220275,72.306231 53.330381,62.220762 53.330381,62.220762 L 57.334905,63.407288 C 57.334905,63.407288 58.818062,56.733081 55.406801,53.173504 C 51.995539,49.613926 44.018112,38.642930 41.941692,38.642930 C 39.865272,38.642930 32.262096,46.665605 25.487379,44.195133 C 22.802790,41.200284 22.035764,38.490247 23.667237,35.820565 C 25.298710,33.150882 16.251451,40.121720 15.658189,46.647612 C 15.064926,53.173504 22.480712,71.861284 24.853763,72.009600 z "
     id="path1846"
     sodipodi:nodetypes="ccccccccccccccc" />
  <path
     sodipodi:type="arc"
     style="fill:#ffffff;fill-opacity:1.0000000;fill-rule:nonzero;stroke:#000000;stroke-width:1.2500000;stroke-linecap:round;stroke-linejoin:round;stroke-miterlimit:4.0000000;stroke-opacity:1.0000000"
     id="path1685"
     sodipodi:cx="52.701553"
     sodipodi:cy="49.341358"
     sodipodi:rx="11.159029"
     sodipodi:ry="11.711456"
     d="M 63.860582 49.341358 A 11.159029 11.711456 0 1 1  41.542524,49.341358 A 11.159029 11.711456 0 1 1  63.860582 49.341358 z"
     transform="matrix(0.736756,0.598507,-0.598507,0.736756,36.51228,-17.12627)" />
  <path
     sodipodi:type="arc"
     style="fill:#000000;fill-opacity:1.0000000;fill-rule:nonzero;stroke:none;stroke-width:1.2500000;stroke-linecap:round;stroke-linejoin:round;stroke-miterlimit:4.0000000;stroke-opacity:1.0000000"
     id="path1062"
     sodipodi:cx="54.248348"
     sodipodi:cy="51.440582"
     sodipodi:rx="4.0879612"
     sodipodi:ry="4.0879612"
     d="M 58.336309 51.440582 A 4.0879612 4.0879612 0 1 1  50.160387,51.440582 A 4.0879612 4.0879612 0 1 1  58.336309 51.440582 z"
     transform="matrix(1.350552,0.000000,0.000000,1.350552,-27.32428,-17.83464)" />
  <path
     style="fill:#000000;fill-opacity:1.0000000;fill-rule:evenodd;stroke:none;stroke-width:0.25000000pt;stroke-linecap:butt;stroke-linejoin:miter;stroke-opacity:1.0000000"
     d="M 6.9817188,72.306231 C 6.9817188,72.306231 13.655926,68.672496 16.177294,69.191601 C 18.698661,69.710706 24.038027,72.528705 25.076237,72.306231 C 31.972918,71.119705 30.860550,65.261234 29.451550,64.667972 C 30.563918,63.184814 30.912014,58.802912 28.487498,55.027450 C 26.233786,51.517962 23.296448,48.946506 15.954820,50.355505 C 10.096349,52.802714 3.4962996,57.548817 6.9817188,72.306231 z "
     id="path1688"
     sodipodi:nodetypes="ccccscc" />
  <path
     style="fill:#ffc93f;fill-opacity:1.0000000;fill-rule:evenodd;stroke:none;stroke-width:0.25000000pt;stroke-linecap:butt;stroke-linejoin:miter;stroke-opacity:1.0000000"
     d="M 17.807643,65.660778 C 22.117151,64.716270 34.730756,67.155761 25.987897,54.124522 C 23.134025,49.870824 15.118937,49.899832 10.466390,55.802523 C 7.2120508,60.556858 6.9705538,65.730694 7.7396388,70.065529 C 11.095640,68.597279 14.523475,66.380564 17.807643,65.660778 z "
     id="path1686"
     sodipodi:nodetypes="csccs" />
  <path
     style="fill:#ffc93f;fill-opacity:1.0000000;fill-rule:evenodd;stroke:none;stroke-width:0.25000000pt;stroke-linecap:butt;stroke-linejoin:miter;stroke-opacity:1.0000000"
     d="M 13.952558,68.598338 C 13.952558,68.598338 17.512135,67.411812 20.255976,69.043285 C 22.999817,70.674758 24.186342,71.119705 25.076237,71.119705 C 25.966131,71.119705 30.193129,66.892707 28.709972,66.299444 C 27.226815,65.706182 15.435715,65.632024 13.952558,68.598338 z "
     id="path1687" />
  <path
     style="fill:url(#linearGradient1801);fill-opacity:1.0000000;fill-rule:evenodd;stroke:none;stroke-width:0.25000000pt;stroke-linecap:butt;stroke-linejoin:miter;stroke-opacity:1.0000000"
     d="M 41.321553,28.128157 L 52.149125,19.068351 L 46.624854,17.300584 L 60.325048,9.3456328 L 52.149125,15.974759 L 58.115339,18.405439 L 47.508737,29.895924 L 41.321553,28.128157 z "
     id="path1797" />
  <path
     sodipodi:type="arc"
     style="opacity:0.75268817;fill:url(#radialGradient1806);fill-opacity:1.0000000;fill-rule:nonzero;stroke:none;stroke-width:4.5625000;stroke-linecap:round;stroke-linejoin:round;stroke-miterlimit:4.0000000;stroke-opacity:1.0000000"
     id="path1802"
     sodipodi:cx="35.907764"
     sodipodi:cy="37.519417"
     sodipodi:rx="4.5299029"
     sodipodi:ry="2.9831069"
     d="M 40.437667 37.519417 A 4.5299029 2.9831069 0 1 1  31.377861,37.519417 A 4.5299029 2.9831069 0 1 1  40.437667 37.519417 z"
     transform="matrix(1.999999,0.000000,0.000000,2.148148,-37.12312,-45.83999)" />
  <path
     style="fill:url(#linearGradient1811);fill-opacity:1.0000000;fill-rule:evenodd;stroke:none;stroke-width:0.25000000pt;stroke-linecap:butt;stroke-linejoin:miter;stroke-opacity:1.0000000"
     d="M 17.807643,65.660778 C 22.117151,64.716270 34.730756,67.155761 25.987897,54.124522 C 23.134025,49.870824 15.118937,49.899832 10.466390,55.802523 C 7.2120508,60.556858 6.9705538,65.730694 7.7396388,70.065529 C 11.095640,68.597279 14.523475,66.380564 17.807643,65.660778 z "
     id="path1807"
     sodipodi:nodetypes="csccs" />
  <path
     style="fill:url(#linearGradient1840);fill-opacity:1.0000000;fill-rule:evenodd;stroke:none;stroke-width:0.25000000pt;stroke-linecap:butt;stroke-linejoin:miter;stroke-opacity:1.0000000"
     d="M 13.952558,68.598338 C 13.952558,68.598338 17.512135,67.411812 20.255976,69.043285 C 22.999817,70.674758 24.186342,71.119705 25.076237,71.119705 C 25.966131,71.119705 30.193129,66.892707 28.709972,66.299444 C 27.226815,65.706182 15.435715,65.632024 13.952558,68.598338 z "
     id="path1836" />
  <path
     style="fill:url(#linearGradient1845);fill-opacity:1.0000000;fill-rule:evenodd;stroke:none;stroke-width:0.25000000pt;stroke-linecap:butt;stroke-linejoin:miter;stroke-opacity:1.0000000"
     d="M 18.205425,52.736675 C 18.205425,52.736675 10.236675,54.299175 9.4554248,62.267925 C 12.424175,55.861675 19.767925,56.799175 18.205425,52.736675 z "
     id="path1841"
     sodipodi:nodetypes="ccc" />
  <path
     sodipodi:type="arc"
     style="fill:#ffffff;fill-opacity:1.0000000;fill-rule:nonzero;stroke:none;stroke-width:1.2500000;stroke-linecap:round;stroke-linejoin:round;stroke-miterlimit:4.0000000;stroke-opacity:1.0000000"
     id="path1855"
     sodipodi:cx="54.248348"
     sodipodi:cy="51.440582"
     sodipodi:rx="4.0879612"
     sodipodi:ry="4.0879612"
     d="M 58.336309 51.440582 A 4.0879612 4.0879612 0 1 1  50.160387,51.440582 A 4.0879612 4.0879612 0 1 1  58.336309 51.440582 z"
     transform="matrix(0.509668,0.000000,0.000000,0.509668,19.69852,23.85841)" />
</svg>
