<?xml version="1.0" encoding="UTF-8" standalone="no"?>
<!-- Created with Inkscape (http://www.inkscape.org/) -->
<svg
   xmlns:dc="http://purl.org/dc/elements/1.1/"
   xmlns:cc="http://creativecommons.org/ns#"
   xmlns:rdf="http://www.w3.org/1999/02/22-rdf-syntax-ns#"
   xmlns:svg="http://www.w3.org/2000/svg"
   xmlns="http://www.w3.org/2000/svg"
   xmlns:xlink="http://www.w3.org/1999/xlink"
   xmlns:sodipodi="http://sodipodi.sourceforge.net/DTD/sodipodi-0.dtd"
   xmlns:inkscape="http://www.inkscape.org/namespaces/inkscape"
   width="90"
   height="90"
   id="svg1"
   sodipodi:version="0.32"
   inkscape:version="0.46+devel"
   sodipodi:docbase="/home/tweenk/GNUtoon/apps"
   sodipodi:docname="ufraw.svg"
   inkscape:output_extension="org.inkscape.output.svg.inkscape"
   version="1.0">
  <defs
     id="defs3">
    <inkscape:perspective
       sodipodi:type="inkscape:persp3d"
       inkscape:vp_x="0 : 45 : 1"
       inkscape:vp_y="0 : 1000 : 0"
       inkscape:vp_z="90 : 45 : 1"
       inkscape:persp3d-origin="45 : 30 : 1"
       id="perspective67" />
    <linearGradient
       inkscape:collect="always"
       id="linearGradient3748">
      <stop
         style="stop-color:#ff933d;stop-opacity:1;"
         offset="0"
         id="stop3750" />
      <stop
         style="stop-color:#ff933d;stop-opacity:0;"
         offset="1"
         id="stop3752" />
    </linearGradient>
    <linearGradient
       inkscape:collect="always"
       id="linearGradient3740">
      <stop
         style="stop-color:#ff933d;stop-opacity:1;"
         offset="0"
         id="stop3742" />
      <stop
         style="stop-color:#ff933d;stop-opacity:0;"
         offset="1"
         id="stop3744" />
    </linearGradient>
    <linearGradient
       inkscape:collect="always"
       id="linearGradient3732">
      <stop
         style="stop-color:#ff933d;stop-opacity:1;"
         offset="0"
         id="stop3734" />
      <stop
         style="stop-color:#ff933d;stop-opacity:0;"
         offset="1"
         id="stop3736" />
    </linearGradient>
    <linearGradient
       id="linearGradient3690">
      <stop
         style="stop-color:#2aaf18;stop-opacity:1;"
         offset="0"
         id="stop3692" />
      <stop
         style="stop-color:#cbff87;stop-opacity:1;"
         offset="1"
         id="stop3694" />
    </linearGradient>
    <linearGradient
       id="linearGradient3682">
      <stop
         style="stop-color:#558ada;stop-opacity:1;"
         offset="0"
         id="stop3684" />
      <stop
         style="stop-color:#a9e2f5;stop-opacity:1;"
         offset="1"
         id="stop3686" />
    </linearGradient>
    <linearGradient
       id="linearGradient3179">
      <stop
         style="stop-color:#7a889e;stop-opacity:1;"
         offset="0"
         id="stop3181" />
      <stop
         style="stop-color:#c2c2c2;stop-opacity:1;"
         offset="1"
         id="stop3183" />
    </linearGradient>
    <linearGradient
       id="linearGradient7168">
      <stop
         style="stop-color:#a9e2f5;stop-opacity:1;"
         offset="0"
         id="stop7170" />
      <stop
         style="stop-color:#31baff;stop-opacity:1;"
         offset="1"
         id="stop7172" />
    </linearGradient>
    <linearGradient
       id="linearGradient7158">
      <stop
         style="stop-color:#ed0000;stop-opacity:1;"
         offset="0"
         id="stop7160" />
      <stop
         style="stop-color:#ffc93f;stop-opacity:1;"
         offset="1"
         id="stop7162" />
    </linearGradient>
    <linearGradient
       id="linearGradient7142">
      <stop
         style="stop-color:#9b9a9a;stop-opacity:1;"
         offset="0"
         id="stop7144" />
      <stop
         style="stop-color:#ffffff;stop-opacity:1;"
         offset="1"
         id="stop7146" />
    </linearGradient>
    <linearGradient
       id="linearGradient1827">
      <stop
         offset="0.0000000"
         style="stop-color:#545454;stop-opacity:1.0000000;"
         id="stop1829" />
      <stop
         offset="1.0000000"
         style="stop-color:#a098a0;stop-opacity:1.0000000;"
         id="stop1828" />
    </linearGradient>
    <defs
       id="defs1063">
      <sodipodi:namedview
         id="namedview909" />
      <defs
         id="defs550">
        <linearGradient
           x1="0"
           y1="0"
           x2="1"
           y2="0"
           id="linearGradient632"
           gradientUnits="objectBoundingBox"
           spreadMethod="pad">
          <stop
             style="stop-color:#ffb700;stop-opacity:1;"
             offset="0.000000"
             id="stop633" />
          <stop
             style="stop-color:#ffd58f;stop-opacity:0;"
             offset="1.000000"
             id="stop634" />
        </linearGradient>
        <linearGradient
           x1="0"
           y1="0"
           x2="1"
           y2="0"
           id="linearGradient556"
           gradientUnits="objectBoundingBox"
           spreadMethod="pad"
           xlink:href="#linearGradient1827" />
        <linearGradient
           id="linearGradient559"
           xlink:href="#linearGradient632"
           x1="60.644615"
           y1="19.295689"
           x2="35.370575"
           y2="69.142799"
           gradientUnits="userSpaceOnUse"
           spreadMethod="pad" />
        <linearGradient
           xlink:href="#linearGradient632"
           id="linearGradient631"
           x1="85.637657"
           y1="17.443844"
           x2="73.916298"
           y2="54.628181"
           gradientUnits="userSpaceOnUse"
           spreadMethod="pad"
           gradientTransform="scale(0.740666,1.350136)" />
      </defs>
    </defs>
    <linearGradient
       inkscape:collect="always"
       xlink:href="#linearGradient3682"
       id="linearGradient3688"
       x1="50"
       y1="43.78582"
       x2="25.5"
       y2="15.246247"
       gradientUnits="userSpaceOnUse"
       gradientTransform="matrix(0.9766937,-0.2394973,0.2394973,0.9766937,-12.899708,17.002526)" />
    <linearGradient
       inkscape:collect="always"
       xlink:href="#linearGradient3690"
       id="linearGradient3696"
       x1="59.25"
       y1="67.855331"
       x2="14.75"
       y2="18.355331"
       gradientUnits="userSpaceOnUse"
       gradientTransform="matrix(0.9766937,-0.2394973,0.2394973,0.9766937,-12.899708,17.002526)" />
    <linearGradient
       inkscape:collect="always"
       xlink:href="#linearGradient3732"
       id="linearGradient3738"
       x1="18.312071"
       y1="71.921967"
       x2="23.75"
       y2="51.835983"
       gradientUnits="userSpaceOnUse"
       gradientTransform="matrix(0.9766937,-0.2394973,0.2394973,0.9766937,-12.899708,17.002526)" />
    <linearGradient
       inkscape:collect="always"
       xlink:href="#linearGradient3740"
       id="linearGradient3746"
       x1="44.770313"
       y1="75.848122"
       x2="44.770313"
       y2="57.149071"
       gradientUnits="userSpaceOnUse"
       gradientTransform="matrix(0.9766937,-0.2394973,0.2394973,0.9766937,-12.899708,17.002526)" />
    <linearGradient
       inkscape:collect="always"
       xlink:href="#linearGradient3748"
       id="linearGradient3754"
       x1="70.16198"
       y1="71.927597"
       x2="63.823753"
       y2="52.213799"
       gradientUnits="userSpaceOnUse"
       gradientTransform="matrix(0.9766937,-0.2394973,0.2394973,0.9766937,-12.595661,17.186824)" />
  </defs>
  <sodipodi:namedview
     id="base"
     pagecolor="#ffffff"
     bordercolor="#666666"
     borderopacity="1.0"
     inkscape:pageopacity="0.0"
     inkscape:pageshadow="2"
     inkscape:zoom="2.8284271"
     inkscape:cx="5.2565905"
     inkscape:cy="42.377487"
     inkscape:current-layer="svg1"
     inkscape:window-width="795"
     inkscape:window-height="724"
     inkscape:window-x="20"
     inkscape:window-y="9"
     width="90px"
     height="90px"
     showgrid="false" />
  <metadata
     id="metadata4">
    <rdf:RDF>
      <cc:Work
         rdf:about="">
        <dc:format>image/svg+xml</dc:format>
        <dc:type
           rdf:resource="http://purl.org/dc/dcmitype/StillImage" />
      </cc:Work>
    </rdf:RDF>
  </metadata>
  <path
     sodipodi:nodetypes="ccccscccccccc"
     id="path2536"
     d="M 3.7635898,71.047622 C 4.8375672,62.759754 7.7957054,55.821853 13.121675,51.150741 7.638932,19.759852 53.960212,7.0262486 68.910445,30.766265 69.064312,26.384603 67.156602,21.216281 66.072568,18.215351 60.088286,16.917824 58.530443,7.5594665 64.832141,5.7119537 c 5.145143,-1.5125778 10.168135,2.3331839 7.659006,9.1782343 2.836166,4.081265 5.723801,13.920227 5.709332,23.944276 5.00807,2.904604 10.83429,8.378854 11.746982,13.150661 -0.130146,6.318142 -2.589449,6.543426 -5.10041,9.999577 C 88.84131,74.464955 74.766185,83.953313 63.810727,76.626291 62.889278,89.159901 46.358474,91.586648 38.416596,82.639599 31.946869,93.813172 13.008778,90.926909 11.114704,78.143725 6.9179103,75.807709 4.9058785,74.65035 3.7635904,71.047622 z"
     style="fill:#000000;fill-opacity:0.29411765;fill-rule:evenodd;stroke:none" />
  <path
     style="fill:#002f77;fill-opacity:1;fill-rule:evenodd;stroke:none"
     d="M 0.71046684,68.283624 C 1.7844443,59.995756 4.7425824,53.057855 10.068551,48.386743 4.5858091,16.995854 50.907088,4.2622502 65.857322,28.002267 66.011188,23.620605 64.103479,18.452283 63.019445,15.451353 57.035163,14.153825 55.477319,4.7954681 61.779018,2.9479553 66.924161,1.4353775 71.947153,5.2811392 69.438023,12.12619 72.27419,16.207454 75.161824,26.046416 75.147356,36.070465 80.155426,38.975069 85.981646,44.449319 86.894337,49.221126 86.764192,55.539269 84.304889,55.764552 81.793927,59.220704 85.788187,71.700956 71.713061,81.189315 60.757603,73.862293 59.836155,86.395903 43.305351,88.822649 35.363473,79.875601 28.893746,91.049174 9.9556545,88.16291 8.0615799,75.379727 3.8647867,73.043711 1.8527549,71.886351 0.71046684,68.283624 z"
     id="path2701"
     sodipodi:nodetypes="ccccscccccccc" />
  <g
     inkscape:label="Layer 1"
     inkscape:groupmode="layer"
     id="layer1" />
  <path
     style="fill:url(#linearGradient3688);fill-opacity:1;fill-rule:evenodd;stroke:none"
     d="M 14.766638,48.54453 C 29.840973,56.149711 58.757671,45.057443 64.463186,35.861863 62.223909,26.72987 51.626422,17.217737 34.70381,21.119591 17.779429,25.021852 12.297693,38.475923 14.766638,48.54453 z"
     id="path2687"
     sodipodi:nodetypes="cczc" />
  <path
     style="fill:url(#linearGradient3738);fill-opacity:1;fill-rule:evenodd;stroke:none"
     d="M 12.273633,73.213855 C 13.047739,85.510837 30.767139,85.350022 32.940443,74.099772 26.008395,74.960122 18.481467,75.026838 12.273633,73.213855 z"
     id="path2695"
     sodipodi:nodetypes="ccc" />
  <path
     sodipodi:nodetypes="ccc"
     id="path2697"
     d="M 37.489322,73.450288 C 40.416118,85.532128 59.24217,81.036435 56.146536,69.545346 49.582645,71.692102 43.806662,73.002678 37.489322,73.450288 z"
     style="fill:url(#linearGradient3746);fill-opacity:1;fill-rule:evenodd;stroke:none" />
  <path
     sodipodi:nodetypes="ccc"
     id="path2699"
     d="M 76.88661,58.923094 C 81.952475,68.498188 67.211504,76.614561 61.054167,67.723653 67.765147,64.756363 72.463488,62.790176 76.88661,58.923094 z"
     style="fill:url(#linearGradient3754);fill-opacity:1;fill-rule:evenodd;stroke:none" />
  <path
     style="fill:url(#linearGradient3696);fill-opacity:1;fill-rule:evenodd;stroke:none"
     d="M 13.776998,50.842505 C 9.2753123,55.302711 6.269901,59.469249 5.3497621,67.146012 9.8101008,79.865753 71.403719,72.587942 82.319592,49.566343 79.692147,43.909038 70.772031,38.532854 65.23772,37.964851 59.807241,46.031974 33.310878,58.151492 13.776998,50.842505 z"
     id="path2693"
     sodipodi:nodetypes="ccccc" />
  <path
     style="fill:#ffffff;fill-rule:evenodd;stroke:none"
     d="M 31.100639,26.870902 C 25.912672,24.937069 17.52931,36.870471 21.594413,37.861879 25.659516,38.853287 36.288607,28.804736 31.100639,26.870902 z"
     id="path3672"
     sodipodi:nodetypes="css" />
  <path
     style="fill:#ff933d;fill-opacity:1;fill-rule:evenodd;stroke:none"
     d="M 68.566347,37.773484 C 70.721386,31.281691 67.258988,16.953132 64.692283,12.457445 62.393847,8.4316412 63.422157,7.277744 65.050823,9.4409125 66.679489,11.604082 73.323368,22.519024 71.385746,38.820996 z"
     id="path3700"
     sodipodi:nodetypes="csscc" />
  <path
     sodipodi:type="arc"
     style="opacity:1;fill:#558ada;fill-opacity:1;fill-rule:nonzero;stroke:none"
     id="path3702"
     sodipodi:cx="76.279144"
     sodipodi:cy="10.450487"
     sodipodi:rx="3.2703688"
     sodipodi:ry="3.3587573"
     d="m 79.549513,10.450487 a 3.2703688,3.3587573 0 1 1 -6.5407376,0 3.2703688,3.3587573 0 1 1 6.5407376,0 z"
     transform="matrix(0.9766937,-0.2394973,0.2394973,0.9766937,-12.899708,17.002526)" />
  <path
     sodipodi:nodetypes="cs"
     id="path3706"
     d="m 58.043058,43.191019 c 6.62579,3.134272 11.475073,10.59373 13.728882,17.545643"
     style="fill:none;stroke:#002f77;stroke-width:0.96962798;stroke-linecap:butt;stroke-linejoin:miter;stroke-miterlimit:4;stroke-opacity:1;stroke-dasharray:none" />
  <path
     style="fill:none;stroke:#002f77;stroke-width:0.96962798;stroke-linecap:butt;stroke-linejoin:miter;stroke-miterlimit:4;stroke-opacity:1;stroke-dasharray:none"
     d="m 47.834195,48.338943 c 4.610147,9.057667 6.301205,16.403386 7.267077,20.796443"
     id="path3708"
     sodipodi:nodetypes="cs" />
  <path
     style="fill:none;stroke:#002f77;stroke-width:0.96962798;stroke-linecap:butt;stroke-linejoin:miter;stroke-miterlimit:4;stroke-opacity:1;stroke-dasharray:none"
     d="m 23.809733,52.50064 c -4.424239,5.843874 -5.272624,14.700472 -4.054755,21.906408"
     id="path3710"
     sodipodi:nodetypes="cs" />
  <path
     sodipodi:nodetypes="cs"
     id="path3712"
     d="m 35.032187,51.295113 c 0.102968,10.162884 0.887777,17.543324 2.063735,21.884866"
     style="fill:none;stroke:#002f77;stroke-width:0.96962798;stroke-linecap:butt;stroke-linejoin:miter;stroke-miterlimit:4;stroke-opacity:1;stroke-dasharray:none" />
  <path
     sodipodi:type="arc"
     style="opacity:1;fill:#ffffff;fill-opacity:1;fill-rule:nonzero;stroke:none"
     id="path3768"
     sodipodi:cx="14.18633"
     sodipodi:cy="63.571884"
     sodipodi:rx="1.2016121"
     sodipodi:ry="3.800699"
     d="m 15.387942,63.571884 a 1.2016121,3.800699 0 1 1 -2.4032242,0 1.2016121,3.800699 0 1 1 2.4032242,0 z"
     transform="matrix(-1.0010035,-0.6829738,0.6287109,-1.0800528,-13.489654,137.33324)" />
  <path
     transform="matrix(-0.9433784,-0.3779922,0.3192423,-0.998283,18.648074,128.76333)"
     d="m 15.387942,63.571884 a 1.2016121,3.800699 0 1 1 -2.4032242,0 1.2016121,3.800699 0 1 1 2.4032242,0 z"
     sodipodi:ry="3.800699"
     sodipodi:rx="1.2016121"
     sodipodi:cy="63.571884"
     sodipodi:cx="14.18633"
     id="path3770"
     style="opacity:1;fill:#ffffff;fill-opacity:1;fill-rule:nonzero;stroke:none"
     sodipodi:type="arc" />
  <path
     sodipodi:type="arc"
     style="opacity:1;fill:#ffffff;fill-opacity:1;fill-rule:nonzero;stroke:none"
     id="path3772"
     sodipodi:cx="14.18633"
     sodipodi:cy="63.571884"
     sodipodi:rx="1.2016121"
     sodipodi:ry="3.800699"
     d="m 15.387942,63.571884 a 1.2016121,3.800699 0 1 1 -2.4032242,0 1.2016121,3.800699 0 1 1 2.4032242,0 z"
     transform="matrix(-0.8206318,-2.2961501e-2,-3.6906203e-2,-0.8458349,53.106607,112.97589)" />
</svg>
