<?xml version="1.0" encoding="UTF-8" standalone="no"?>
<!-- Created with Inkscape (http://www.inkscape.org/) -->
<svg
   xmlns:dc="http://purl.org/dc/elements/1.1/"
   xmlns:cc="http://creativecommons.org/ns#"
   xmlns:rdf="http://www.w3.org/1999/02/22-rdf-syntax-ns#"
   xmlns:svg="http://www.w3.org/2000/svg"
   xmlns="http://www.w3.org/2000/svg"
   xmlns:xlink="http://www.w3.org/1999/xlink"
   xmlns:sodipodi="http://sodipodi.sourceforge.net/DTD/sodipodi-0.dtd"
   xmlns:inkscape="http://www.inkscape.org/namespaces/inkscape"
   width="72.000000pt"
   height="72.000000pt"
   id="svg2066"
   sodipodi:version="0.32"
   inkscape:version="0.46+devel"
   sodipodi:docname="usb-creator.svg"
   inkscape:output_extension="org.inkscape.output.svg.inkscape">
  <defs
     id="defs3">
    <linearGradient
       id="linearGradient2175">
      <stop
         offset="0.0000000"
         style="stop-color:#7fa8e3;stop-opacity:0.74117601;"
         id="stop2177" />
      <stop
         offset="1.0000000"
         style="stop-color:#ffffff;stop-opacity:0.29019600;"
         id="stop2176" />
    </linearGradient>
    <defs
       id="defs697">
      <linearGradient
         id="linearGradient768">
        <stop
           style="stop-color:#970000;stop-opacity:1;"
           offset="0.000000"
           id="stop769" />
        <stop
           style="stop-color:#ffffff;stop-opacity:0;"
           offset="1.000000"
           id="stop770" />
      </linearGradient>
      <linearGradient
         id="linearGradient762">
        <stop
           style="stop-color:#7d7d7d;stop-opacity:1;"
           offset="0.000000"
           id="stop763" />
        <stop
           style="stop-color:#ffffff;stop-opacity:1;"
           offset="1.000000"
           id="stop764" />
      </linearGradient>
      <linearGradient
         id="linearGradient734">
        <stop
           style="stop-color:#7fa8e3;stop-opacity:0.741176;"
           offset="0.000000"
           id="stop735" />
        <stop
           style="stop-color:#ffffff;stop-opacity:0.290196;"
           offset="1.000000"
           id="stop736" />
      </linearGradient>
      <linearGradient
         id="linearGradient714"
         x1="0.0000000"
         y1="0.50000000"
         x2="1.0000000"
         y2="0.50000000"
         gradientUnits="objectBoundingBox"
         spreadMethod="pad"
         xlink:href="#linearGradient2175" />
      <linearGradient
         xlink:href="#linearGradient714"
         id="linearGradient717"
         x1="52.699261"
         y1="118.88097"
         x2="27.751652"
         y2="95.901520"
         gradientUnits="userSpaceOnUse"
         gradientTransform="scale(1.615491,0.619007)"
         spreadMethod="pad" />
      <linearGradient
         xlink:href="#linearGradient734"
         id="linearGradient719"
         x1="8.7616796"
         y1="64.304787"
         x2="27.937826"
         y2="87.762970"
         gradientUnits="userSpaceOnUse"
         gradientTransform="matrix(1.615491,0.000000,0.000000,0.619007,7.394509e-8,-1.278808e-6)"
         spreadMethod="pad" />
      <linearGradient
         xlink:href="#linearGradient714"
         id="linearGradient721"
         x1="21.655849"
         y1="86.002899"
         x2="33.825172"
         y2="57.581631"
         gradientUnits="userSpaceOnUse"
         spreadMethod="pad"
         gradientTransform="matrix(1.066005,0.000000,0.000000,0.938082,7.394509e-8,-1.278808e-6)" />
      <linearGradient
         xlink:href="#linearGradient714"
         id="linearGradient723"
         x1="43.401833"
         y1="124.64286"
         x2="42.538479"
         y2="116.73144"
         gradientUnits="userSpaceOnUse"
         gradientTransform="scale(1.519424,0.658144)"
         spreadMethod="pad" />
      <linearGradient
         xlink:href="#linearGradient714"
         id="linearGradient725"
         x1="42.164303"
         y1="103.86576"
         x2="46.259476"
         y2="115.26546"
         gradientUnits="userSpaceOnUse"
         gradientTransform="matrix(1.519424,0.000000,0.000000,0.658144,7.394509e-8,-1.278808e-6)"
         spreadMethod="pad" />
      <linearGradient
         xlink:href="#linearGradient762"
         id="linearGradient761"
         x1="28.344616"
         y1="41.447845"
         x2="5.5802660"
         y2="27.469294"
         gradientUnits="userSpaceOnUse"
         spreadMethod="pad"
         gradientTransform="scale(1.517740,0.658874)" />
      <linearGradient
         xlink:href="#linearGradient768"
         id="linearGradient766"
         x1="9.8840704"
         y1="34.840847"
         x2="-1.7216825"
         y2="27.353695"
         gradientUnits="userSpaceOnUse"
         spreadMethod="pad"
         gradientTransform="scale(1.618590,0.617822)" />
    </defs>
    <linearGradient
       inkscape:collect="always"
       xlink:href="#linearGradient2175"
       id="linearGradient2174"
       gradientTransform="matrix(1.500884,0,0,1.009305,-8.619421,-19.4972)"
       x1="12.433195"
       y1="43.176842"
       x2="34.683929"
       y2="60.583855"
       gradientUnits="userSpaceOnUse"
       spreadMethod="reflect" />
    <linearGradient
       inkscape:collect="always"
       xlink:href="#linearGradient2175"
       id="linearGradient2182"
       gradientTransform="matrix(1.177961,0,0,1.285993,-8.619421,-19.4972)"
       x1="20.774443"
       y1="69.179482"
       x2="34.380978"
       y2="45.144821"
       gradientUnits="userSpaceOnUse" />
    <linearGradient
       inkscape:collect="always"
       xlink:href="#linearGradient2175"
       id="linearGradient2191"
       gradientTransform="matrix(1.623648,0,0,0.932991,-8.619421,-19.4972)"
       x1="44.374336"
       y1="95.729675"
       x2="44.693783"
       y2="85.295242"
       gradientUnits="userSpaceOnUse" />
    <defs
       id="defs2196">
      <sodipodi:namedview
         id="namedview909" />
      <defs
         id="defs550">
        <linearGradient
           x1="0.0000000"
           y1="0.0000000"
           x2="1.0000000"
           y2="0.0000000"
           id="linearGradient632"
           gradientUnits="objectBoundingBox"
           spreadMethod="pad">
          <stop
             style="stop-color:#ffb700;stop-opacity:1;"
             offset="0.000000"
             id="stop633" />
          <stop
             style="stop-color:#ffd58f;stop-opacity:0;"
             offset="1.000000"
             id="stop634" />
        </linearGradient>
        <linearGradient
           x1="0.0000000"
           y1="0.0000000"
           x2="1.0000000"
           y2="0.0000000"
           id="linearGradient556"
           gradientUnits="objectBoundingBox"
           spreadMethod="pad">
          <stop
             style="stop-color:#000000;stop-opacity:1;"
             offset="0.000000"
             id="stop557" />
          <stop
             style="stop-color:#bdf2ff;stop-opacity:0.384314;"
             offset="1.000000"
             id="stop558" />
        </linearGradient>
        <linearGradient
           id="linearGradient559"
           xlink:href="#linearGradient632"
           x1="60.644615"
           y1="19.295689"
           x2="35.370575"
           y2="69.142799"
           gradientUnits="userSpaceOnUse"
           spreadMethod="pad" />
        <linearGradient
           xlink:href="#linearGradient632"
           id="linearGradient631"
           x1="85.637657"
           y1="17.443844"
           x2="73.916298"
           y2="54.628181"
           gradientUnits="userSpaceOnUse"
           spreadMethod="pad"
           gradientTransform="scale(0.740666,1.350136)" />
      </defs>
    </defs>
    <linearGradient
       id="linearGradient1828">
      <stop
         id="stop1829"
         offset="0.0000000"
         style="stop-color:#ffc93f;stop-opacity:1.0000000;" />
      <stop
         id="stop1830"
         offset="1.0000000"
         style="stop-color:#f1e36c;stop-opacity:1.0000000;" />
    </linearGradient>
    <linearGradient
       inkscape:collect="always"
       xlink:href="#linearGradient1828"
       id="linearGradient3682"
       gradientUnits="userSpaceOnUse"
       gradientTransform="matrix(0.99999,0,0,1.00001,-0.701263,-7.713892)"
       x1="32.051327"
       y1="14.657825"
       x2="32.051327"
       y2="75.934349" />
  </defs>
  <sodipodi:namedview
     id="base"
     pagecolor="#ffffff"
     bordercolor="#666666"
     borderopacity="1.0"
     inkscape:pageopacity="0.0"
     inkscape:pageshadow="2"
     inkscape:zoom="2"
     inkscape:cx="48.699587"
     inkscape:cy="30.130647"
     inkscape:current-layer="svg2066"
     inkscape:window-width="828"
     inkscape:window-height="536"
     inkscape:window-x="101"
     inkscape:window-y="46"
     showgrid="false" />
  <metadata
     id="metadata4">
    <rdf:RDF>
      <cc:Work
         rdf:about="">
        <dc:format>image/svg+xml</dc:format>
        <dc:type
           rdf:resource="http://purl.org/dc/dcmitype/StillImage" />
        <dc:title></dc:title>
      </cc:Work>
    </rdf:RDF>
  </metadata>
  <g
     id="g2547"
     transform="translate(20.11877,0.66546)">
    <path
       id="path1858"
       d="M 45.318751,7.3776937 C 42.43159,6.5443746 39.448495,8.191152 38.615176,11.078313 l -1.24006,4.296374 c -1.2128,0.03795 -2.404539,0.150626 -3.580232,0.375506 l -2.14768,-3.890466 C 30.194919,9.228949 26.892861,8.275879 24.262084,9.728164 l -2.849737,1.592682 c -2.630777,1.452285 -3.577146,4.731119 -2.12486,7.361897 l 2.13116,3.86054 c -0.828783,0.872905 -1.582278,1.809993 -2.271989,2.816087 l -4.20348,-1.213248 c -2.887162,-0.833319 -5.9001825,0.829979 -6.7335018,3.717139 l -0.904909,3.135193 c -0.8333197,2.887162 0.8366808,5.876959 3.7238428,6.710278 l 4.110585,1.186436 c 0.0322,1.256992 0.155548,2.492182 0.388438,3.709757 l -3.740834,2.065077 c -2.6307765,1.452285 -3.5771465,4.731119 -2.1248593,7.361896 l 1.5926823,2.849737 c 1.452284,2.630779 4.73112,3.577146 7.361897,2.12486 l 3.68098,-2.032036 c 0.917884,0.872368 1.893525,1.670657 2.958543,2.388582 l -1.159624,4.01769 c -0.833319,2.887161 0.813458,5.870257 3.700619,6.703575 l 3.135193,0.904909 c 2.887162,0.83332 5.870258,-0.813458 6.703575,-3.700618 l 1.166327,-4.040915 c 1.273467,-0.04136 2.514559,-0.181052 3.746386,-0.428183 l 2.032036,3.68098 c 1.452288,2.63078 4.731117,3.577144 7.361897,2.12486 l 2.866257,-1.562756 c 2.630778,-1.452288 3.58385,-4.754342 2.131563,-7.38512 l -2.048556,-3.710906 c 0.845879,-0.906211 1.608449,-1.885698 2.305504,-2.932206 l 4.110586,1.186436 c 2.88716,0.833319 5.870252,-0.813458 6.703575,-3.700619 l 0.904909,-3.135193 c 0.833319,-2.887161 -0.806754,-5.893479 -3.693916,-6.726798 l -4.203481,-1.213248 c -0.04767,-1.222783 -0.207661,-2.416436 -0.445177,-3.600342 l 3.86054,-2.131159 c 2.630779,-1.452285 3.577146,-4.73112 2.12486,-7.361897 L 64.99636,21.485274 c -1.452288,-2.630778 -4.731119,-3.577146 -7.361897,-2.12486 l -3.920393,2.164201 c -0.871879,-0.814654 -1.797442,-1.564861 -2.799567,-2.242063 l 1.24006,-4.296374 C 52.987882,12.099017 51.341105,9.115923 48.453944,8.282603 L 45.318751,7.3776937 z M 41.157054,27.636569 c 5.897315,1.702136 9.301622,7.868955 7.599484,13.766267 -1.702139,5.897315 -7.868956,9.301625 -13.766269,7.599487 -5.897314,-1.702138 -9.301624,-7.868957 -7.599485,-13.766272 1.702138,-5.897312 7.868955,-9.301621 13.76627,-7.599482 z"
       style="fill:#000000;fill-opacity:0.34444442;stroke:none" />
    <path
       id="path1856"
       d="m 40.855941,2.9148838 c -2.887161,-0.8333191 -5.870256,0.813458 -6.703575,3.700619 l -1.24006,4.2963742 c -1.2128,0.03795 -2.404539,0.150626 -3.580232,0.375506 l -2.14768,-3.8904662 c -1.452285,-2.630778 -4.754343,-3.583848 -7.38512,-2.131563 l -2.849737,1.592682 c -2.630777,1.452285 -3.577146,4.7311192 -2.12486,7.3618972 l 2.13116,3.86054 c -0.828783,0.872905 -1.582278,1.809993 -2.271989,2.816087 l -4.20348,-1.213248 C 7.5932064,18.849993 4.5801856,20.513291 3.7468663,23.400451 l -0.904909,3.135193 c -0.8333197,2.887162 0.8366808,5.876959 3.7238423,6.710278 l 4.1105854,1.186436 c 0.0322,1.256992 0.155548,2.492182 0.388438,3.709757 l -3.7408335,2.065077 c -2.6307769,1.452285 -3.5771469,4.731119 -2.1248597,7.361896 l 1.5926818,2.849737 c 1.4522846,2.630779 4.7311204,3.577146 7.3618974,2.12486 l 3.68098,-2.032036 c 0.917884,0.872368 1.893525,1.670657 2.958543,2.388582 l -1.159624,4.01769 c -0.833319,2.887161 0.813458,5.870257 3.700619,6.703575 l 3.135193,0.904909 c 2.887162,0.83332 5.870258,-0.813458 6.703575,-3.700618 l 1.166327,-4.040915 c 1.273467,-0.04136 2.514559,-0.181052 3.746386,-0.428183 l 2.032036,3.68098 c 1.452288,2.63078 4.731117,3.577144 7.361897,2.12486 l 2.866257,-1.562756 c 2.630778,-1.452288 3.58385,-4.754342 2.131563,-7.38512 l -2.048556,-3.710906 c 0.845879,-0.906211 1.608449,-1.885698 2.305504,-2.932206 l 4.110586,1.186436 c 2.88716,0.833319 5.870252,-0.813458 6.703575,-3.700619 l 0.904909,-3.135193 c 0.833319,-2.887161 -0.806754,-5.893479 -3.693916,-6.726798 l -4.203481,-1.213248 c -0.04767,-1.222783 -0.207661,-2.416436 -0.445177,-3.600342 l 3.86054,-2.131159 c 2.630779,-1.452285 3.577146,-4.73112 2.12486,-7.361897 L 60.53355,17.022464 c -1.452288,-2.630778 -4.731119,-3.577146 -7.361897,-2.12486 l -3.920393,2.164201 c -0.871879,-0.814654 -1.797442,-1.564861 -2.799567,-2.242063 l 1.24006,-4.296374 C 48.525072,7.6362068 46.878295,4.6531128 43.991134,3.8197928 L 40.855941,2.9148838 z M 36.694244,23.173759 c 5.897315,1.702136 9.301622,7.868955 7.599484,13.766267 -1.702139,5.897315 -7.868956,9.301625 -13.766269,7.599487 -5.897314,-1.702138 -9.301624,-7.868957 -7.599485,-13.766272 1.702138,-5.897312 7.868955,-9.301621 13.76627,-7.599482 z"
       style="fill:url(#linearGradient3682);fill-opacity:1;stroke:#593a28;stroke-width:3.86746287;stroke-linecap:round;stroke-linejoin:round;stroke-miterlimit:4;stroke-opacity:1" />
  </g>
  <g
     inkscape:label="Layer 1"
     inkscape:groupmode="layer"
     id="layer1" />
  <g
     id="g3520"
     transform="matrix(0.88680206,0,0,0.88680206,-1.612947,11.826998)">
    <path
       id="path2322"
       d="M 8.803973,28.349866 3.4192568,30.272979 3.8038794,44.119393 44.573874,83.350897 57.26642,79.504671 68.035852,86.8125 83.420755,81.812406 83.036133,71.812219 8.803973,28.349866 z"
       style="fill:#000000;fill-opacity:0.29411765;fill-rule:evenodd;stroke:none" />
    <path
       sodipodi:nodetypes="ccccccc"
       id="path2083"
       d="M 6.484987,39.919118 C 19.575473,51.858793 33.097513,65.740462 46.188,77.680137 58.487303,75.881992 69.70772,70.631414 80.928137,65.380833 c -0.647331,-4.747099 0,-8.415312 -0.647331,-13.162412 C 65.032547,39.559489 52.157838,27.979443 36.909579,15.32051 27.775009,17.334432 13.893338,22.800789 6.269209,28.051368 5.693802,31.57573 5.765728,36.394756 6.484987,39.919118 z"
       style="fill:#3d4e67;fill-opacity:1;fill-rule:evenodd;stroke:none" />
    <path
       sodipodi:nodetypes="ccccc"
       id="path2077"
       d="M 12.310973,28.914479 C 24.826053,39.775266 37.341134,50.636055 49.856214,61.496844 58.631156,57.82863 65.248325,55.239303 74.239043,53.728862 61.364335,42.436519 48.489625,31.144177 35.614915,19.851834 27.415379,21.793829 19.647399,24.598932 12.310973,28.914479 z"
       style="fill:#ffffff;fill-opacity:1;fill-rule:evenodd;stroke:none" />
    <path
       sodipodi:nodetypes="ccccc"
       id="path2078"
       d="m 9.937423,30.424919 c 12.51508,10.932715 24.814384,22.512759 37.329464,33.445473 -2.157772,2.445475 -1.726217,5.106728 -1.294664,8.199536 -11.867748,-11.076566 -24.167052,-23.01624 -36.0348,-34.092806 -1.294663,-2.301623 -0.86311,-4.819024 0,-7.552203 z"
       style="fill:#ffffff;fill-opacity:1;fill-rule:evenodd;stroke:none" />
    <path
       sodipodi:nodetypes="ccccc"
       id="path2079"
       d="m 49.640436,65.165057 c -1.150811,2.589327 -0.575405,5.178653 -0.863108,7.76798 9.925753,-3.38051 18.988398,-6.761021 28.914152,-10.141531 -0.359629,-2.157772 0.14385,-4.315544 -0.215779,-6.473316 -9.278421,2.948955 -18.556842,5.89791 -27.835265,8.846867 z"
       style="fill:#ffffff;fill-opacity:1;fill-rule:evenodd;stroke:none" />
    <path
       sodipodi:nodetypes="ccccc"
       id="path2183"
       d="m 49.640436,65.165057 c -1.150811,2.589327 -0.575405,5.178653 -0.863108,7.76798 9.925753,-3.38051 18.988398,-6.761021 28.914152,-10.141531 -0.359629,-2.157772 0.14385,-4.315544 -0.215779,-6.473316 -9.278421,2.948955 -18.556842,5.89791 -27.835265,8.846867 z"
       style="fill:url(#linearGradient2191);fill-opacity:1;fill-rule:evenodd;stroke:none" />
    <path
       sodipodi:nodetypes="ccccccc"
       id="path2166"
       d="m 52.372584,70.334911 c 5.327159,4.903261 11.426756,9.898286 16.753916,13.736504 5.005189,-0.578048 13.152217,-4.928543 17.718355,-6.616436 -0.263433,-1.526039 0.716177,-5.63412 0.452745,-7.160157 -6.205268,-4.069437 -8.341181,-7.525784 -14.546445,-11.595218 -3.717306,0.647411 -17.244388,4.934146 -20.347019,6.622037 -0.234162,1.132969 -0.324256,3.880302 -0.03155,5.01327 z"
       style="fill:#3d4e67;fill-opacity:1;fill-rule:evenodd;stroke:none" />
    <path
       sodipodi:nodetypes="ccccc"
       id="path2167"
       d="m 56.175815,65.06658 c 5.093002,3.491391 8.634284,6.58339 13.727282,10.074778 3.570956,-1.17921 10.799599,-4.407944 14.458362,-4.893502 C 79.122107,66.617735 77.34428,63.786397 72.104931,60.156277 68.768136,60.780566 59.16137,63.679274 56.175815,65.06658 z"
       style="fill:#c2c2c2;fill-opacity:1;fill-rule:evenodd;stroke:none" />
    <path
       sodipodi:nodetypes="ccccc"
       id="path2168"
       d="m 54.016272,65.552138 c 5.093,3.514513 9.501377,7.237119 14.594377,10.751631 -0.878101,0.786138 -0.583121,3.771735 -0.407499,4.765972 -4.829569,-3.560757 -9.357305,-7.798363 -14.186878,-11.359119 -0.526859,-0.739896 -0.351238,-3.279855 0,-4.158484 z"
       style="fill:#9b9a9a;fill-opacity:1;fill-rule:evenodd;stroke:none" />
    <path
       sodipodi:nodetypes="ccccc"
       id="path2169"
       d="m 70.412103,76.453699 c -0.468321,0.832386 -0.234162,4.327377 -0.351242,5.159763 4.039275,-1.086723 11.308199,-4.170405 15.347472,-5.25713 -0.146349,-0.693654 0.297268,-4.183046 0.150916,-4.8767 -3.775842,0.947995 -11.371302,4.026073 -15.147146,4.974067 z"
       style="fill:#ffffff;fill-opacity:1;fill-rule:evenodd;stroke:none" />
    <path
       sodipodi:nodetypes="ccccc"
       id="path2170"
       d="M 12.310973,28.914479 C 24.826053,39.775266 37.341134,50.636055 49.856214,61.496844 58.631156,57.82863 65.248325,55.239303 74.239043,53.728862 61.364335,42.436519 48.489625,31.144177 35.614915,19.851834 27.415379,21.793829 19.647399,24.598932 12.310973,28.914479 z"
       style="fill:url(#linearGradient2174);fill-opacity:1;fill-rule:evenodd;stroke:none" />
    <path
       sodipodi:nodetypes="ccccc"
       id="path2178"
       d="M 10.898979,33.886522 C 23.41406,44.819237 41.482702,61.014753 47.266887,63.870392 45.109115,66.315867 45.54067,68.97712 45.972223,72.069928 34.104475,60.993362 21.805171,49.053688 9.937423,37.977122 c -1.294663,-2.301623 0.098448,-1.357421 0.961556,-4.0906 z"
       style="fill:url(#linearGradient2182);fill-opacity:1;fill-rule:evenodd;stroke:none" />
    <path
       sodipodi:nodetypes="ccccc"
       id="path2194"
       d="m 16.919134,28.89963 3.839972,-1.813321 2.638063,2.562131 -3.991637,1.964983 -2.486398,-2.713793 z"
       style="fill:#ffffff;fill-opacity:1;fill-rule:nonzero;stroke:#3d4e67;stroke-width:1.21331108;stroke-linecap:round;stroke-linejoin:round;stroke-miterlimit:4;stroke-opacity:1" />
    <path
       sodipodi:nodetypes="ccccc"
       id="rect2192"
       d="m 29.419368,23.899537 3.839973,-1.813322 2.638062,2.562131 -3.991637,1.964984 -2.486398,-2.713793 z"
       style="fill:#ffffff;fill-opacity:1;fill-rule:nonzero;stroke:#3d4e67;stroke-width:1.21331108;stroke-linecap:round;stroke-linejoin:round;stroke-miterlimit:4;stroke-opacity:1" />
    <path
       sodipodi:nodetypes="ccccc"
       id="path2321"
       d="m 71.49998,77.133622 c -0.468322,0.832386 -0.234163,2.559578 -0.351243,3.391964 4.039276,-1.086723 9.404415,-4.034422 13.443689,-5.121146 -0.14635,-0.693654 0.297267,-1.871309 0.150914,-2.564963 -3.775842,0.947995 -9.467516,3.346152 -13.24336,4.294145 z"
       style="fill:#7a889e;fill-opacity:1;fill-rule:evenodd;stroke:none" />
  </g>
</svg>
