<?xml version="1.0" encoding="UTF-8" standalone="no"?>
<!-- Created with Inkscape (http://www.inkscape.org/) -->
<svg
   xmlns:dc="http://purl.org/dc/elements/1.1/"
   xmlns:cc="http://web.resource.org/cc/"
   xmlns:rdf="http://www.w3.org/1999/02/22-rdf-syntax-ns#"
   xmlns:svg="http://www.w3.org/2000/svg"
   xmlns="http://www.w3.org/2000/svg"
   xmlns:sodipodi="http://sodipodi.sourceforge.net/DTD/sodipodi-0.dtd"
   xmlns:inkscape="http://www.inkscape.org/namespaces/inkscape"
   version="1.0"
   x="0.00000000"
   y="0.00000000"
   width="90"
   height="90"
   id="svg548"
   sodipodi:version="0.32"
   sodipodi:docname="media-playback-pause.svg"
   sodipodi:docbase="/home/tweenk/GNUtoon/actions"
   inkscape:version="0.45.1"
   inkscape:output_extension="org.inkscape.output.svg.inkscape">
  <metadata
     id="metadata23">
    <rdf:RDF>
      <cc:Work
         rdf:about="">
        <dc:format>image/svg+xml</dc:format>
        <dc:type
           rdf:resource="http://purl.org/dc/dcmitype/StillImage" />
      </cc:Work>
    </rdf:RDF>
  </metadata>
  <sodipodi:namedview
     id="base"
     inkscape:zoom="6.8279999"
     inkscape:cx="29.789085"
     inkscape:cy="3.8018074"
     inkscape:window-width="1014"
     inkscape:window-height="696"
     inkscape:window-x="0"
     inkscape:window-y="33"
     showguides="true"
     snaptoguides="true"
     inkscape:current-layer="svg548"
     width="90px"
     height="90px" />
  <defs
     id="defs550" />
  <path
     style="fill:#0d3c07;fill-rule:evenodd;stroke-width:1pt"
     d="M 11.995694,14.794979 C 21.564269,13.577831 31.256138,12.395813 40.883396,12.796328 L 39.758804,77.265284 C 35.114159,78.519227 22.512035,78.692171 18.40589,78.014066 C 15.470963,77.228831 17.701418,77.920631 13.855706,76.586858 C 8.882636,68.300738 8.634617,26.83454 11.995694,14.794979 z "
     id="path590"
     sodipodi:nodetypes="cccccc" />
  <path
     style="fill:#2aaf18;fill-rule:evenodd;stroke-width:1pt"
     d="M 17.10398,20.553599 C 23.169089,19.374965 29.362943,19.117202 35.507147,19.550432 L 34.374857,70.506164 C 28.850471,71.935913 23.400929,71.486462 17.894432,70.36961 C 13.862003,52.35797 14.870006,29.140886 17.10398,20.553599 z "
     id="path591"
     sodipodi:nodetypes="ccccc" />
  <path
     style="fill:#208c11;fill-rule:evenodd;stroke-width:1pt"
     d="M 33.814226,20.948957 L 33.724511,69.405893 C 33.724511,69.405893 31.230602,70.113827 28.821146,70.160804 C 26.411687,70.207802 24.036776,70.322471 24.027527,70.274498 C 23.958026,69.914042 23.511569,69.347345 25.174379,68.241416 C 27.056207,67.063205 30.284147,67.954784 30.31223,66.928304 L 31.566836,21.077486 C 31.574666,20.791961 33.815864,20.077769 33.814226,20.948957 z "
     id="path592"
     sodipodi:nodetypes="ccssssss" />
  <path
     style="fill:#ffffff;fill-rule:evenodd;stroke-width:1pt"
     d="M 18.02432,21.465866 C 19.123898,20.233571 20.496005,20.941364 20.495699,21.029501 C 17.964191,25.452677 17.717909,44.622059 17.717909,44.622059 C 17.456378,45.458984 17.150525,46.35869 17.063747,48.07559 C 16.169825,46.19426 15.992228,45.313163 16.009784,44.540267 C 16.195736,36.354539 16.64504,28.436882 18.02432,21.465866 z "
     id="path577"
     sodipodi:nodetypes="ccscsc" />
  <path
     style="fill:#0d3c07;fill-rule:evenodd;stroke-width:1pt"
     d="M 77.405834,14.466152 C 67.837259,13.249007 58.14539,12.377666 48.518132,12.778181 L 49.642724,77.24714 C 54.287366,78.501083 66.88949,78.674024 70.995635,77.995922 C 73.930562,77.210687 71.700104,78.679187 75.545822,77.345411 C 79.561262,64.818383 83.776586,31.567445 77.405834,14.466152 z "
     id="path2175"
     sodipodi:nodetypes="cccccc" />
  <path
     style="fill:#2aaf18;fill-rule:evenodd;stroke-width:1pt"
     d="M 72.797099,20.650463 C 66.839543,19.473989 60.312689,19.216697 54.277451,19.649135 L 55.389656,70.511504 C 60.816068,71.938631 66.058259,71.490005 71.467106,70.375196 C 75.268673,56.663252 76.966727,35.622113 72.797099,20.650463 z "
     id="path2177"
     sodipodi:nodetypes="ccccc" />
  <path
     style="fill:#ffffff;fill-rule:evenodd;stroke-width:1pt"
     d="M 55.92371,21.472415 C 57.003788,20.394461 58.794404,21.013607 58.794101,21.090704 C 57.525308,24.558455 57.726242,41.828744 57.726242,41.828744 C 57.469349,42.560849 57.100244,44.909495 56.86226,44.950097 C 56.651672,44.986013 56.395559,42.734414 56.380544,42.058274 L 55.92371,21.472415 z "
     id="path2181"
     sodipodi:nodetypes="ccsssc" />
  <path
     style="fill:#208c11;fill-rule:evenodd;stroke-width:1pt"
     d="M 70.101338,21.548171 C 76.935734,38.388524 72.156713,53.740718 70.011845,69.43046 C 70.011845,69.43046 67.484624,69.819272 65.12075,70.183985 C 62.717327,70.554806 60.640016,70.750241 60.144686,70.216496 C 59.877128,69.928184 59.824463,69.857879 61.483115,68.753975 C 63.360227,67.577921 65.205182,68.353349 66.608105,67.443272 C 69.794618,60.918347 74.200631,37.557575 67.85957,21.676466 C 67.867382,21.391463 70.102958,20.678579 70.101338,21.548171 z "
     id="path2183"
     sodipodi:nodetypes="ccsssccc" />
</svg>
