<?xml version="1.0" encoding="UTF-8" standalone="no"?>
<!-- Created with Sodipodi ("http://www.sodipodi.com/") -->
<svg
   xmlns:dc="http://purl.org/dc/elements/1.1/"
   xmlns:cc="http://creativecommons.org/ns#"
   xmlns:rdf="http://www.w3.org/1999/02/22-rdf-syntax-ns#"
   xmlns:svg="http://www.w3.org/2000/svg"
   xmlns="http://www.w3.org/2000/svg"
   xmlns:sodipodi="http://sodipodi.sourceforge.net/DTD/sodipodi-0.dtd"
   xmlns:inkscape="http://www.inkscape.org/namespaces/inkscape"
   version="1.0"
   x="0"
   y="0"
   width="90"
   height="90"
   id="svg548"
   sodipodi:version="0.32"
   inkscape:version="0.46+devel"
   sodipodi:docname="edit-undo.svg"
   sodipodi:docbase="/home/tweenk/GNUtoon/actions"
   inkscape:output_extension="org.inkscape.output.svg.inkscape">
  <metadata
     id="metadata14">
    <rdf:RDF>
      <cc:Work
         rdf:about="">
        <dc:format>image/svg+xml</dc:format>
        <dc:type
           rdf:resource="http://purl.org/dc/dcmitype/StillImage" />
      </cc:Work>
    </rdf:RDF>
  </metadata>
  <sodipodi:namedview
     id="base"
     pagecolor="#ffffff"
     bordercolor="#666666"
     borderopacity="1.0"
     inkscape:pageopacity="0.0"
     inkscape:pageshadow="2"
     inkscape:zoom="4.5222222"
     inkscape:cx="45"
     inkscape:cy="45"
     inkscape:window-width="864"
     inkscape:window-height="708"
     inkscape:window-x="0"
     inkscape:window-y="1"
     inkscape:current-layer="svg548"
     width="90px"
     height="90px"
     showgrid="false" />
  <defs
     id="defs550">
    <inkscape:perspective
       sodipodi:type="inkscape:persp3d"
       inkscape:vp_x="0 : 45 : 1"
       inkscape:vp_y="0 : 1000 : 0"
       inkscape:vp_z="90 : 45 : 1"
       inkscape:persp3d-origin="45 : 30 : 1"
       id="perspective12" />
  </defs>
  <path
     d="M 3.333294,36.612433 C 4.02073,28.662655 32.921713,2.148566 39.470476,4.548626 C 51.490723,6.473772 49.300474,20.193176 54.051934,21.881675 C 58.835842,22.719596 100.35003,27.259527 81.571699,71.803996 C 78.155275,79.783297 75.985273,81.280087 72.414295,83.896048 C 68.93941,86.248084 63.360133,86.385739 58.836055,81.298024 C 54.703441,75.15805 56.487844,69.104959 58.404523,64.019656 C 64.435996,48.796708 53.306647,48.614032 47.150791,45.40033 C 45.712018,50.727499 43.060885,63.299143 39.486757,63.124258 C 35.912599,62.949403 2.443404,52.491625 3.333294,36.612433 z "
     style="font-size:12px;fill:#7e0000;fill-rule:evenodd"
     id="path582" />
  <path
     d="M 8.446422,36.104761 C 8.671492,30.148717 33.16225,8.993489 38.536837,11.070993 C 43.911691,13.148608 41.181391,20.719342 43.48591,24.924444 C 95.83381,26.007369 82.184308,84.496342 65.225914,77.713108 C 55.938361,74.111125 71.765944,58.965703 64.403689,48.701887 C 58.159363,39.747295 41.67184,38.063992 41.332987,40.266598 C 40.655269,44.671885 39.82177,57.843466 36.935407,57.564031 C 34.049002,57.284593 7.187855,42.362458 8.446422,36.104761 z "
     style="font-size:12px;fill:#ff1500;fill-rule:evenodd"
     id="path581" />
  <path
     d="M 79.220233,61.882288 C 77.170849,48.794326 74.154064,41.120473 67.023274,35.725681 C 59.176849,29.485594 45.856939,28.52831 45.454459,27.393359 C 45.052036,26.258437 55.114666,29.27799 62.887078,31.6027 C 77.459005,35.900323 80.496934,52.851127 79.220233,61.882288 z "
     style="font-size:12px;fill:#ffffff;fill-rule:evenodd"
     id="path588" />
  <path
     d="M 20.325056,30.515338 C 21.982149,28.582076 33.648076,18.83561 36.830173,18.157334 C 40.012081,17.479257 37.892134,23.353695 37.892134,23.353695 C 37.892134,23.353695 21.634763,28.322333 20.325056,30.515338 z "
     style="font-size:12px;fill:#ffffff;fill-rule:evenodd"
     id="path589" />
  <path
     d="M 8.605324,36.030604 C 7.224415,44.214739 37.328014,57.854953 37.328014,57.854953 C 40.08982,55.672522 41.746897,40.941094 44.508691,39.031447 C 49.479925,41.213893 64.945993,45.578755 65.774524,51.307645 C 66.603085,57.036538 62.46037,68.494318 61.908004,71.22235 C 60.80329,75.31444 64.39363,79.133686 67.983967,77.496871 C 71.574307,75.860041 72.12667,72.586381 72.12667,72.586381 C 72.12667,72.586381 68.26015,72.586396 67.707787,69.585535 C 67.155436,66.584689 75.164644,51.853261 71.021941,46.124368 C 66.879253,40.395478 50.308471,32.484172 40.08982,33.302572 L 35.947117,50.216416 C 35.947117,50.216416 31.804429,49.943644 8.605324,36.030604 z "
     style="font-size:12px;fill:#cb0000;fill-rule:evenodd;stroke-width:1"
     id="path615" />
</svg>
