<?xml version="1.0" encoding="UTF-8" standalone="no"?>
<!-- Created with Sodipodi ("http://www.sodipodi.com/") -->
<svg
   xmlns:dc="http://purl.org/dc/elements/1.1/"
   xmlns:cc="http://web.resource.org/cc/"
   xmlns:rdf="http://www.w3.org/1999/02/22-rdf-syntax-ns#"
   xmlns:svg="http://www.w3.org/2000/svg"
   xmlns="http://www.w3.org/2000/svg"
   xmlns:sodipodi="http://sodipodi.sourceforge.net/DTD/sodipodi-0.dtd"
   xmlns:inkscape="http://www.inkscape.org/namespaces/inkscape"
   version="1.0"
   x="0"
   y="0"
   width="90"
   height="90"
   id="svg548"
   sodipodi:version="0.32"
   inkscape:version="0.45.1"
   sodipodi:docname="gtk-undo-rtl.svg"
   sodipodi:docbase="/home/tweenk/GNUtoon/gtk"
   inkscape:output_extension="org.inkscape.output.svg.inkscape">
  <metadata
     id="metadata14">
    <rdf:RDF>
      <cc:Work
         rdf:about="">
        <dc:format>image/svg+xml</dc:format>
        <dc:type
           rdf:resource="http://purl.org/dc/dcmitype/StillImage" />
      </cc:Work>
    </rdf:RDF>
  </metadata>
  <sodipodi:namedview
     id="base"
     pagecolor="#ffffff"
     bordercolor="#666666"
     borderopacity="1.0"
     inkscape:pageopacity="0.0"
     inkscape:pageshadow="2"
     inkscape:zoom="2.4559706"
     inkscape:cx="0.80385456"
     inkscape:cy="0.10847787"
     inkscape:window-width="864"
     inkscape:window-height="619"
     inkscape:window-x="0"
     inkscape:window-y="1"
     inkscape:current-layer="svg548"
     width="90px"
     height="90px" />
  <defs
     id="defs550" />
  <path
     d="M 86.400795,36.612433 C 85.713357,28.662655 56.812374,2.148566 50.263611,4.548626 C 38.243364,6.473772 40.433613,20.193176 35.682153,21.881675 C 30.898245,22.719596 -10.615937,27.259527 8.162389,71.803996 C 11.578813,79.783297 13.748815,81.280087 17.319793,83.896048 C 20.794678,86.248084 26.373955,86.385739 30.898032,81.298024 C 35.030646,75.15805 33.246243,69.104959 31.329564,64.019656 C 25.298092,48.796708 36.42744,48.614032 42.583296,45.40033 C 44.022069,50.727499 46.673202,63.299143 50.24733,63.124258 C 53.821488,62.949403 87.290685,52.491625 86.400795,36.612433 z "
     style="font-size:12px;fill:#7e0000;fill-rule:evenodd"
     id="path582" />
  <path
     d="M 81.287664,36.104761 C 81.062595,30.148717 56.571837,8.993489 51.19725,11.070993 C 45.822396,13.148608 48.552696,20.719342 46.248177,24.924444 C -6.099722,26.007369 7.54978,84.496342 24.508174,77.713108 C 33.795726,74.111125 17.968144,58.965703 25.330399,48.701887 C 31.574724,39.747295 48.062247,38.063992 48.4011,40.266598 C 49.078818,44.671885 49.912317,57.843466 52.79868,57.564031 C 55.685085,57.284593 82.546233,42.362458 81.287664,36.104761 z "
     style="font-size:12px;fill:#ff1500;fill-rule:evenodd"
     id="path581" />
  <path
     d="M 10.513855,61.882288 C 12.563239,48.794326 15.580024,41.120473 22.710814,35.725681 C 30.557238,29.485594 43.877148,28.52831 44.279628,27.393359 C 44.682051,26.258437 34.619421,29.27799 26.84701,31.6027 C 12.275083,35.900323 9.237154,52.851127 10.513855,61.882288 z "
     style="font-size:12px;fill:#ffffff;fill-rule:evenodd"
     id="path588" />
  <path
     d="M 69.409032,30.515338 C 67.75194,28.582076 56.086011,18.83561 52.903914,18.157334 C 49.722006,17.479257 51.841953,23.353695 51.841953,23.353695 C 51.841953,23.353695 68.099325,28.322333 69.409032,30.515338 z "
     style="font-size:12px;fill:#ffffff;fill-rule:evenodd"
     id="path589" />
  <path
     d="M 70.536906,53.292562 C 70.536906,53.292562 83.601546,47.838238 83.579472,48.009514 C 83.557398,48.18076 81.148353,45.258637 81.148353,45.258637 L 77.761923,45.866767 L 70.254558,48.7294 L 70.536906,53.292562 z "
     style="font-size:12px;fill:none;fill-rule:evenodd;stroke-width:1"
     id="path576" />
  <path
     d="M 81.128763,36.030604 C 82.509672,44.214739 52.406073,57.854953 52.406073,57.854953 C 49.644267,55.672522 47.98719,40.941094 45.225396,39.031447 C 40.254162,41.213893 24.788095,45.578755 23.959564,51.307645 C 23.131003,57.036538 27.273718,68.494318 27.826084,71.22235 C 28.930798,75.31444 25.340458,79.133686 21.750121,77.496871 C 18.159781,75.860041 17.607418,72.586381 17.607418,72.586381 C 17.607418,72.586381 21.473938,72.586396 22.026301,69.585535 C 22.578652,66.584689 14.569444,51.853261 18.712147,46.124368 C 22.854835,40.395478 39.425616,32.484172 49.644267,33.302572 L 53.78697,50.216416 C 53.78697,50.216416 57.929658,49.943644 81.128763,36.030604 z "
     style="font-size:12px;fill:#cb0000;fill-rule:evenodd;stroke-width:1"
     id="path615" />
</svg>
