<?xml version="1.0" encoding="UTF-8" standalone="no"?>
<!-- Created with Inkscape (http://www.inkscape.org/) -->
<svg
   xmlns:dc="http://purl.org/dc/elements/1.1/"
   xmlns:cc="http://web.resource.org/cc/"
   xmlns:rdf="http://www.w3.org/1999/02/22-rdf-syntax-ns#"
   xmlns:svg="http://www.w3.org/2000/svg"
   xmlns="http://www.w3.org/2000/svg"
   xmlns:sodipodi="http://sodipodi.sourceforge.net/DTD/sodipodi-0.dtd"
   xmlns:inkscape="http://www.inkscape.org/namespaces/inkscape"
   version="1.0"
   x="0.00000000"
   y="0.00000000"
   width="90"
   height="90"
   id="svg548"
   sodipodi:version="0.32"
   sodipodi:docname="media-eject.svg"
   sodipodi:docbase="/home/tweenk/GNUtoon/actions"
   inkscape:version="0.45.1"
   inkscape:output_extension="org.inkscape.output.svg.inkscape">
  <metadata
     id="metadata23">
    <rdf:RDF>
      <cc:Work
         rdf:about="">
        <dc:format>image/svg+xml</dc:format>
        <dc:type
           rdf:resource="http://purl.org/dc/dcmitype/StillImage" />
      </cc:Work>
    </rdf:RDF>
  </metadata>
  <sodipodi:namedview
     id="base"
     inkscape:zoom="5.3777778"
     inkscape:cx="45"
     inkscape:cy="45"
     inkscape:window-width="1014"
     inkscape:window-height="696"
     inkscape:window-x="0"
     inkscape:window-y="1"
     showguides="true"
     snaptoguides="true"
     inkscape:current-layer="svg548"
     width="90px"
     height="90px" />
  <defs
     id="defs550" />
  <g
     transform="matrix(-2.464371,1.854807,-1.854807,-2.464371,239.11295,7.700996)"
     style="font-size:12px"
     id="g584">
    <path
       d="M 51.9665,36.0486 C 53.9602,37.0454 65.4724,34.7713 65.7572,32.6353 C 66.172581,27.312501 55.6307,20.7151 54.0642,20.1455 C 52.4977,19.5759 51.1121,20.0634 50.6849,21.0602 C 50.2577,22.057 49.6881,35.3365 51.9665,36.0486 z "
       transform="matrix(1.369638,0,0,1.207417,-21.85404,-4.997635)"
       style="fill:#0d3c07;fill-rule:evenodd;stroke-width:1pt"
       id="path582"
       sodipodi:nodetypes="ccscc" />
    <path
       d="M 51.5506,35.4589 C 53.5443,36.4557 64.2247,34.8892 64.5095,32.7532 C 64.7943,30.6171 60.955464,29.668153 61.382664,28.244153 C 57.018216,23.149473 50.6962,21.3608 50.269,22.3576 C 49.8418,23.3544 49.2722,34.7468 51.5506,35.4589 z "
       style="fill:#2aaf18;fill-rule:evenodd;stroke-width:1pt"
       id="path581"
       sodipodi:nodetypes="ccccc" />
    <path
       d="M 61.9462,28.3386 C 63.5126,29.6202 65.3639,32.7531 64.3671,33.6076 C 62.6583,35.174 52.8323,36.3133 51.693,35.7437 C 50.5538,35.174 60.0949,33.4652 60.2373,31.0443 C 60.3797,28.6234 57.458082,27.995128 58.312482,26.571028 C 59.166882,25.147028 61.519,27.769 61.9462,28.3386 z "
       style="fill:#208c11;fill-rule:evenodd;stroke-width:1pt"
       id="path583"
       sodipodi:nodetypes="cccccc" />
  </g>
  <path
     d="M 51.23279,21.752677 C 51.23279,21.752677 65.839451,36.046847 66.899831,39.646898 C 67.960004,43.246715 61.016999,41.326016 61.016999,41.326016 C 61.016999,41.326016 53.870339,23.06584 51.23279,21.752677 z "
     style="font-size:12px;fill:#ffffff;fill-rule:evenodd;stroke-width:1pt"
     id="path589" />
  <path
     style="fill:#0d3c07;fill-rule:evenodd;stroke-width:1pt"
     d="M 82.015121,64.420052 L 83.061221,72.92243 C 83.370611,77.145215 83.568896,79.7288 83.192714,85.348232 L 7.217653,85.658987 C 5.645355,80.17652 5.178327,78.08774 5.906191,73.207868 C 6.782713,69.714344 6.00392,72.371072 7.513822,67.787783 C 6.627242,67.420124 78.911312,63.078617 82.015121,64.420052 z "
     id="path590"
     sodipodi:nodetypes="ccccccc" />
  <path
     style="fill:#2aaf18;fill-rule:evenodd;stroke-width:1pt"
     d="M 79.080686,68.719661 C 79.790825,70.563131 79.941377,72.413327 80.091926,74.263499 C 80.242478,76.113698 80.483483,77.764385 79.983992,79.820828 L 9.103153,80.673563 C 8.287467,79.062851 7.938117,77.446592 7.868558,75.826904 C 7.799037,74.207246 7.925826,73.279712 8.685816,70.955528 L 79.080686,68.719661 z "
     id="path591"
     sodipodi:nodetypes="ccccccc" />
  <path
     style="fill:#208c11;fill-rule:evenodd;stroke-width:1pt"
     d="M 79.129664,78.774182 L 9.74358,79.788596 C 9.74358,79.788596 9.274832,77.975351 9.179011,76.146401 C 9.08317,74.317451 9.36023,72.47276 9.359596,72.427865 C 9.358324,72.338063 10.566972,72.054077 12.170246,73.292288 C 13.879613,74.695232 11.780643,77.143199 13.250782,77.141597 L 78.918992,77.070146 C 79.327928,77.069714 80.377133,78.755966 79.129664,78.774182 z "
     id="path592"
     sodipodi:nodetypes="ccssssss" />
  <path
     style="fill:#ffffff;fill-rule:evenodd;stroke-width:1pt"
     d="M 77.811902,70.063943 C 79.578374,71.618807 78.61886,74.257223 78.494276,74.258723 C 72.861983,72.487688 44.960723,73.217387 44.960723,73.217387 C 43.771904,72.859562 39.968453,72.378116 39.89741,72.03056 C 39.834566,71.723009 43.466912,71.291102 44.559098,71.252066 L 77.811902,70.063943 z "
     id="path577"
     sodipodi:nodetypes="ccsssc" />
</svg>
