<?xml version="1.0" encoding="UTF-8" standalone="no"?>
<!-- Created with Sodipodi ("http://www.sodipodi.com/") -->
<svg
   xmlns:dc="http://purl.org/dc/elements/1.1/"
   xmlns:cc="http://web.resource.org/cc/"
   xmlns:rdf="http://www.w3.org/1999/02/22-rdf-syntax-ns#"
   xmlns:svg="http://www.w3.org/2000/svg"
   xmlns="http://www.w3.org/2000/svg"
   xmlns:xlink="http://www.w3.org/1999/xlink"
   xmlns:sodipodi="http://sodipodi.sourceforge.net/DTD/sodipodi-0.dtd"
   xmlns:inkscape="http://www.inkscape.org/namespaces/inkscape"
   version="1.0"
   x="0.00000000"
   y="0.00000000"
   width="90"
   height="90"
   id="svg548"
   sodipodi:version="0.32"
   sodipodi:docname="add.svg"
   sodipodi:docbase="/home/tweenk/GNUtoon/actions"
   inkscape:version="0.45.1"
   inkscape:output_extension="org.inkscape.output.svg.inkscape">
  <metadata
     id="metadata12">
    <rdf:RDF>
      <cc:Work
         rdf:about="">
        <dc:format>image/svg+xml</dc:format>
        <dc:type
           rdf:resource="http://purl.org/dc/dcmitype/StillImage" />
      </cc:Work>
    </rdf:RDF>
  </metadata>
  <sodipodi:namedview
     id="base"
     inkscape:zoom="9.65625"
     inkscape:cx="47.548563"
     inkscape:cy="38.549038"
     inkscape:window-width="1014"
     inkscape:window-height="696"
     inkscape:window-x="10"
     inkscape:window-y="72"
     inkscape:current-layer="svg548"
     width="90px"
     height="90px" />
  <defs
     id="defs550">
    <linearGradient
       x1="0"
       y1="0"
       x2="1"
       y2="0"
       id="linearGradient556"
       gradientUnits="objectBoundingBox"
       spreadMethod="pad">
      <stop
         style="stop-color:#ff8700;stop-opacity:1;"
         offset="0.00000000"
         id="stop557" />
      <stop
         style="stop-color:#ffff8d;stop-opacity:0;"
         offset="1.00000000"
         id="stop558" />
    </linearGradient>
    <linearGradient
       x1="0"
       y1="0"
       x2="1"
       y2="0"
       id="linearGradient559"
       xlink:href="#linearGradient556"
       gradientUnits="objectBoundingBox"
       spreadMethod="pad" />
  </defs>
  <path
     style="font-size:12px;fill:#0d3d07;fill-rule:evenodd;stroke:#0d3d07;stroke-width:1.34464312"
     d="M 8.8332135,32.007807 C 5.4613535,31.942734 4.1147615,41.662431 4.1147615,45.034908 C 4.1147615,48.407388 5.4608905,57.830757 8.8332135,57.797502 L 32.384172,57.565302 L 32.449449,81.792108 C 32.45853,85.164585 41.575038,86.230629 44.947533,86.230629 C 48.32001,86.230629 56.931507,85.164558 56.91657,81.792108 L 56.807781,57.203193 L 80.154462,57.532998 C 83.526609,57.580614 86.324748,48.407388 86.324748,45.034908 C 86.324748,41.662431 84.055878,33.092151 80.683479,33.065838 L 55.572252,32.870025 L 55.064982,8.739106 C 54.994104,5.367367 48.32001,3.839172 44.947533,3.839172 C 41.575038,3.839172 32.994282,5.895675 32.978478,9.268127 L 32.869689,32.471544 L 8.8332135,32.007807 z "
     id="path584"
     sodipodi:nodetypes="csscssscssscssscs" />
  <path
     style="font-size:12px;fill:#2aaf18;fill-opacity:1;fill-rule:evenodd;stroke:none;stroke-width:0.83871002pt"
     d="M 11.177033,36.204072 C 8.9387945,36.208053 7.3813835,42.796659 7.3813835,45.034908 C 7.3813835,47.273154 8.4097655,53.33484 10.648004,53.336715 L 36.322473,53.358162 L 36.365799,80.786259 C 36.369342,83.024508 42.164847,83.871411 44.403093,83.871411 C 46.641324,83.871411 52.975296,83.289018 52.969407,81.050769 L 52.897209,53.557899 L 78.884109,53.336715 C 81.122274,53.317656 82.695162,47.273154 82.695162,45.034908 C 82.695162,42.796659 80.857596,36.766137 78.619581,36.733104 L 51.896913,36.338607 L 52.175886,10.289379 C 52.199838,8.051261 46.641324,7.287272 44.403093,7.287272 C 42.164847,7.287272 36.441429,8.316936 36.365799,10.553894 L 35.500056,36.160731 L 11.177033,36.204072 z "
     id="path589"
     sodipodi:nodetypes="csscssscssscssscs" />
  <path
     style="font-size:12px;fill:#208c11;fill-opacity:1;fill-rule:evenodd;stroke:none;stroke-width:0.83871002pt"
     d="M 46.461954,50.936421 L 46.665546,79.714569 C 46.673619,80.856555 46.953285,81.710844 48.095286,81.710844 C 49.23729,81.710844 51.529959,80.856555 51.521301,79.714569 L 51.302982,50.903358 L 79.843719,51.10695 C 80.985693,51.115101 82.021476,48.822939 82.021476,47.68095 C 82.021476,46.538928 80.985693,46.261122 79.843719,46.251192 L 51.33246,46.003395 C 48.080793,45.975132 46.43895,47.684694 46.461954,50.936421 z "
     id="path592"
     sodipodi:nodetypes="cssscsssss" />
  <path
     style="font-size:12px;fill:#ebf8e9;fill-opacity:1;fill-rule:evenodd;stroke:none;stroke-width:0.83871002pt"
     d="M 43.277409,38.479599 L 43.255299,10.9718 C 43.254384,9.829796 42.786084,8.97553 41.644077,8.97553 C 40.502058,8.97553 38.216535,9.829796 38.218062,10.9718 L 38.254905,38.512647 L 11.347485,38.309058 C 10.20551,38.300418 9.1697405,40.593081 9.1697405,41.735088 C 9.1697405,42.877092 10.20553,43.154319 11.347485,43.164846 L 38.225427,43.412625 C 41.477091,43.442601 43.280022,41.731389 43.277409,38.479599 z "
     id="path594"
     sodipodi:nodetypes="cssscsssss" />
</svg>
