<?xml version="1.0" encoding="UTF-8" standalone="no"?>
<!-- Created with Sodipodi ("http://www.sodipodi.com/") -->
<svg
   xmlns:dc="http://purl.org/dc/elements/1.1/"
   xmlns:cc="http://web.resource.org/cc/"
   xmlns:rdf="http://www.w3.org/1999/02/22-rdf-syntax-ns#"
   xmlns:svg="http://www.w3.org/2000/svg"
   xmlns="http://www.w3.org/2000/svg"
   xmlns:sodipodi="http://sodipodi.sourceforge.net/DTD/sodipodi-0.dtd"
   xmlns:inkscape="http://www.inkscape.org/namespaces/inkscape"
   version="1.0"
   x="0.00000000"
   y="0.00000000"
   width="90"
   height="90"
   id="svg548"
   sodipodi:version="0.32"
   sodipodi:docname="bottom.svg"
   sodipodi:docbase="/home/tweenk/GNUtoon/actions"
   inkscape:version="0.45.1"
   inkscape:output_extension="org.inkscape.output.svg.inkscape">
  <metadata
     id="metadata18">
    <rdf:RDF>
      <cc:Work
         rdf:about="">
        <dc:format>image/svg+xml</dc:format>
        <dc:type
           rdf:resource="http://purl.org/dc/dcmitype/StillImage" />
      </cc:Work>
    </rdf:RDF>
  </metadata>
  <sodipodi:namedview
     id="base"
     inkscape:zoom="2.4140625"
     inkscape:cx="143.25362"
     inkscape:cy="45.98283"
     inkscape:window-width="1014"
     inkscape:window-height="696"
     inkscape:window-x="5"
     inkscape:window-y="36"
     inkscape:current-layer="svg548"
     showborder="true"
     width="90px"
     height="90px">
    <sodipodi:guide
       orientation="horizontal"
       position="8.80258900"
       id="guide587" />
  </sodipodi:namedview>
  <defs
     id="defs550" />
  <path
     d="M 46.315854,71.542168 C 53.331654,70.213576 80.001639,46.556356 77.076576,41.830837 C 73.921983,32.905402 63.621654,35.338603 61.546593,31.904629 C 60.227016,28.359724 63.758808,9.2660593 59.306892,6.7446763 C 49.652844,3.1331083 31.631445,2.5291183 26.856828,11.257519 C 24.00072,20.234254 29.621844,34.928074 24.477558,36.397237 C 19.333287,37.866373 16.491831,41.139343 17.074854,43.833616 C 17.657904,46.527886 39.034323,73.910599 46.315854,71.542168 z "
     style="font-size:12px;fill:#0d3c07;fill-rule:evenodd"
     id="path582" />
  <path
     d="M 46.259592,63.777025 C 51.550512,63.00166 70.034736,47.460796 67.537911,43.593499 C 65.040957,39.726019 56.929914,41.179006 55.725804,38.312863 C 54.52155,35.446552 55.657938,12.658198 51.545046,12.334942 C 47.432208,12.011407 33.451656,10.62052 33.071166,14.115733 C 32.690616,17.611222 36.496083,40.204414 32.643834,41.165836 C 28.791585,42.127261 24.475596,41.569105 25.069851,43.730893 C 25.664079,45.892696 40.822797,65.367223 46.259592,63.777025 z "
     style="font-size:12px;fill:#2aaf18;fill-rule:evenodd"
     id="path581" />
  <path
     d="M 49.626834,12.08686 C 49.626834,12.08686 53.609397,11.767774 54.11499,15.79486 C 54.620628,19.821646 54.620739,39.003934 56.262693,39.424765 C 61.131216,39.637384 69.195363,42.556711 68.481387,45.174979 C 67.402407,49.830823 49.965912,63.630715 46.94244,64.07383 C 43.919037,64.516675 59.989797,50.123458 56.809983,45.959176 C 53.630181,41.794906 47.234409,43.261231 46.858962,39.87661 C 46.483629,36.492145 43.783239,13.207621 45.847605,12.64045 C 47.911773,12.073408 50.716254,12.85324 49.626834,12.08686 z "
     style="font-size:12px;fill:#208c11;fill-rule:evenodd"
     id="path583" />
  <path
     d="M 37.189329,13.953343 C 37.189329,13.953343 35.891427,39.014221 37.663851,40.077544 C 39.436149,41.140714 43.507134,19.774453 37.189329,13.953343 z "
     style="font-size:12px;fill:#ffffff;fill-rule:evenodd"
     id="path588" />
  <path
     d="M 42.459609,59.879944 C 42.459609,59.879944 31.174089,50.288899 30.376428,47.892154 C 29.578935,45.495532 34.984446,46.820011 34.984446,46.820011 C 34.984446,46.820011 40.411053,58.989538 42.459609,59.879944 z "
     style="font-size:12px;fill:#ffffff;fill-rule:evenodd"
     id="path589" />
  <path
     style="font-size:12px;fill:#0d3c07;fill-rule:evenodd;stroke-width:1"
     d="M 13.569195,71.069341 L 12.829758,77.121175 C 12.635832,80.123932 12.509799,81.96121 12.901566,85.946107 L 75.567567,85.105192 C 76.784805,81.190336 77.139693,79.700644 76.468572,76.245799 C 75.694971,73.777414 76.375827,75.652984 75.064023,72.419662 C 75.789909,72.146215 16.109658,70.07347 13.569195,71.069341 z "
     id="path590"
     sodipodi:nodetypes="ccccccc" />
  <path
     style="font-size:12px;fill:#2aaf18;fill-rule:evenodd;stroke-width:1"
     d="M 16.054158,75.107659 C 15.494922,76.312531 15.397332,77.514496 15.299754,78.716428 C 15.202161,79.91839 15.027099,80.992129 15.468627,82.319392 L 73.940973,81.950062 C 74.590587,80.894779 74.855499,79.841965 74.889594,78.790567 C 74.923674,77.739181 74.80578,77.139259 74.145567,75.641722 L 16.054158,75.107659 z "
     id="path591"
     sodipodi:nodetypes="ccccccc" />
  <path
     style="font-size:12px;fill:#208c11;fill-rule:evenodd;stroke-width:1"
     d="M 16.158192,81.629452 L 73.400055,81.384433 C 73.400055,81.384433 73.76061,80.202295 73.813371,79.014829 C 73.866144,77.827363 73.61112,76.634542 73.611009,76.605421 C 73.610769,76.547164 72.60984,76.378699 71.305311,77.202643 C 69.915639,78.134806 71.681958,79.69519 70.469415,79.713274 L 16.307469,80.521507 C 15.9702,80.52655 15.129069,81.633859 16.158192,81.629452 z "
     id="path592"
     sodipodi:nodetypes="ccssssss" />
  <path
     style="font-size:12px;fill:#ffffff;fill-rule:evenodd;stroke-width:1"
     d="M 17.119911,75.963025 C 15.685317,76.994461 16.514607,78.693199 16.617372,78.692551 C 21.237255,77.470594 44.259753,77.580775 44.259753,77.580775 C 45.23511,77.333227 48.365145,76.971472 48.418752,76.745134 C 48.466158,76.544848 45.464103,76.311994 44.562774,76.300888 L 17.119911,75.963025 z "
     id="path577"
     sodipodi:nodetypes="ccsssc" />
</svg>
