<?xml version="1.0" encoding="UTF-8" standalone="no"?>
<!-- Created with Sodipodi ("http://www.sodipodi.com/") -->
<svg
   xmlns:dc="http://purl.org/dc/elements/1.1/"
   xmlns:cc="http://web.resource.org/cc/"
   xmlns:rdf="http://www.w3.org/1999/02/22-rdf-syntax-ns#"
   xmlns:svg="http://www.w3.org/2000/svg"
   xmlns="http://www.w3.org/2000/svg"
   xmlns:xlink="http://www.w3.org/1999/xlink"
   xmlns:sodipodi="http://sodipodi.sourceforge.net/DTD/sodipodi-0.dtd"
   xmlns:inkscape="http://www.inkscape.org/namespaces/inkscape"
   id="svg548"
   sodipodi:version="0.32"
   width="72pt"
   height="72pt"
   sodipodi:docbase="/home/tweenk/dev/GartoonRedux/scalable/actions"
   sodipodi:docname="document-print-preview.svg"
   inkscape:version="0.45.1"
   inkscape:output_extension="org.inkscape.output.svg.inkscape">
  <metadata
     id="metadata42">
    <rdf:RDF>
      <cc:Work
         rdf:about="">
        <dc:format>image/svg+xml</dc:format>
        <dc:type
           rdf:resource="http://purl.org/dc/dcmitype/StillImage" />
      </cc:Work>
    </rdf:RDF>
  </metadata>
  <defs
     id="defs550">
    <linearGradient
       id="linearGradient585">
      <stop
         style="stop-color:#5cb2ff;stop-opacity:1;"
         offset="0.000000"
         id="stop586" />
      <stop
         style="stop-color:#ffffff;stop-opacity:1;"
         offset="1.000000"
         id="stop587" />
    </linearGradient>
    <linearGradient
       id="linearGradient576">
      <stop
         style="stop-color:#ffffff;stop-opacity:1;"
         offset="0.000000"
         id="stop577" />
      <stop
         style="stop-color:#370000;stop-opacity:0;"
         offset="1.000000"
         id="stop578" />
    </linearGradient>
    <linearGradient
       id="linearGradient569">
      <stop
         style="stop-color:#ff3a00;stop-opacity:1;"
         offset="0.000000"
         id="stop570" />
      <stop
         style="stop-color:#370000;stop-opacity:1;"
         offset="1.000000"
         id="stop571" />
    </linearGradient>
    <linearGradient
       id="linearGradient562">
      <stop
         style="stop-color:#000;stop-opacity:1;"
         offset="0"
         id="stop563" />
      <stop
         style="stop-color:#fff;stop-opacity:1;"
         offset="1"
         id="stop564" />
    </linearGradient>
    <linearGradient
       xlink:href="#linearGradient562"
       id="linearGradient565"
       x1="30.5917225"
       y1="65.8304825"
       x2="18.4360981"
       y2="42.3886795"
       gradientUnits="userSpaceOnUse"
       spreadMethod="pad"
       gradientTransform="scale(1.323326,0.755672)" />
    <linearGradient
       xlink:href="#linearGradient562"
       id="linearGradient567"
       x1="24.9874783"
       y1="44.9967537"
       x2="33.7596359"
       y2="60.7528610"
       gradientUnits="userSpaceOnUse"
       spreadMethod="pad"
       gradientTransform="scale(1.587744,0.629824)" />
    <linearGradient
       xlink:href="#linearGradient576"
       id="linearGradient568"
       x1="0.82734060"
       y1="0.11727467"
       x2="0.57553899"
       y2="0.88281417"
       gradientUnits="objectBoundingBox"
       spreadMethod="pad" />
    <radialGradient
       xlink:href="#linearGradient569"
       id="radialGradient573"
       cx="39.9771919"
       cy="62.0348434"
       fx="39.9771919"
       fy="62.0348434"
       r="2.87974644"
       gradientUnits="userSpaceOnUse"
       spreadMethod="pad"
       gradientTransform="scale(1.181249,0.846561)" />
    <radialGradient
       xlink:href="#linearGradient576"
       id="radialGradient575" />
    <linearGradient
       xlink:href="#linearGradient562"
       id="linearGradient580"
       x1="0.48992321"
       y1="-0.04502178"
       x2="0.53917038"
       y2="1.25967419"
       gradientUnits="objectBoundingBox"
       spreadMethod="pad" />
    <linearGradient
       xlink:href="#linearGradient585"
       id="linearGradient584"
       x1="38.9676552"
       y1="112.427650"
       x2="34.3394775"
       y2="55.2668114"
       gradientUnits="userSpaceOnUse"
       spreadMethod="pad"
       gradientTransform="scale(1.107407,0.903010)" />
    <linearGradient
       xlink:href="#linearGradient585"
       id="linearGradient588"
       x1="18.5747337"
       y1="70.6098175"
       x2="21.0069866"
       y2="44.9572525"
       gradientUnits="userSpaceOnUse"
       spreadMethod="pad"
       gradientTransform="scale(0.777781,1.285709)" />
  </defs>
  <sodipodi:namedview
     id="base"
     inkscape:zoom="4.5222222"
     inkscape:cx="45"
     inkscape:cy="45"
     inkscape:window-width="795"
     inkscape:window-height="619"
     inkscape:window-x="114"
     inkscape:window-y="74"
     inkscape:current-layer="svg548">
    <sodipodi:guide
       orientation="vertical"
       position="0.00000000"
       id="guide552" />
    <sodipodi:guide
       orientation="horizontal"
       position="72.0658264"
       id="guide553" />
    <sodipodi:guide
       orientation="vertical"
       position="100.17199"
       id="guide554" />
    <sodipodi:guide
       orientation="horizontal"
       position="0.23474211"
       id="guide555" />
  </sodipodi:namedview>
  <path
     style="fill:#000000;fill-rule:evenodd;stroke:none;stroke-opacity:1;stroke-width:1pt;stroke-linejoin:miter;stroke-linecap:butt;fill-opacity:0.3;"
     d="M 5.2817 42.4647 C 3.66785 50.7295 1.90728 57.2338 0.880279 65.2053 C 4.10798 73.1279 13.0575 79.2899 22.3005 80.4636 C 27.2887 79.73 31.5435 79.5834 36.5318 77.0892 C 44.112 80.1702 51.5455 83.838 59.1257 86.919 C 69.2979 81.0016 83.1378 72.5899 93.31 66.6725 C 87.5392 64.0316 77.8072 61.9777 72.0364 59.3368 C 76.0956 45.1544 73.5525 34.64 59.4191 26.473 C 57.5119 25.0058 52.5236 23.9787 48.1222 25.5927 C 48.1222 25.5927 46.0682 18.8438 43.2806 14.4424 C 39.3193 13.8555 8.80283 22.2182 7.77583 24.2722 C 8.46049 28.8692 10.0254 34.0531 11.0035 38.21 C 8.21596 40.1661 7.62911 40.9486 5.2817 42.4647 z "
     id="path592"
     sodipodi:nodetypes="ccccccccccccc"
     transform="matrix(0.930685,0.000000,0.000000,0.930685,2.343350,-0.949020)" />
  <path
     style="fill:#000000;fill-rule:evenodd;stroke:none;stroke-opacity:1;stroke-width:1pt;stroke-linejoin:miter;stroke-linecap:butt;fill-opacity:1;"
     d="M 5.2817 42.4647 C 3.66785 50.7295 1.90728 57.2338 0.880279 65.2053 C 4.10798 73.1279 13.0575 79.2899 22.3005 80.4636 C 27.2887 79.73 31.5435 79.5834 36.5318 77.0892 C 44.112 80.1702 51.5455 83.838 59.1257 86.919 C 69.2979 81.0016 83.1378 72.5899 93.31 66.6725 C 87.5392 64.0316 77.8072 61.9777 72.0364 59.3368 C 76.0956 45.1544 73.5525 34.64 59.4191 26.473 C 57.5119 25.0058 52.5236 23.9787 48.1222 25.5927 C 48.1222 25.5927 46.0682 18.8438 43.2806 14.4424 C 39.3193 13.8555 8.80283 22.2182 7.77583 24.2722 C 8.46049 28.8692 10.0254 34.0531 11.0035 38.21 C 8.21596 40.1661 7.62911 40.9486 5.2817 42.4647 z "
     id="path561"
     sodipodi:nodetypes="ccccccccccccc"
     transform="matrix(0.930685,0.000000,0.000000,0.930685,0.268503,-5.513678)" />
  <path
     style="fill:#c7eeff;fill-rule:evenodd;stroke:none;stroke-opacity:1;stroke-width:1pt;stroke-linejoin:miter;stroke-linecap:butt;fill-opacity:1;"
     d="M 38.1456 72.8345 L 58.5388 80.757 L 83.7736 67.6995 C 83.7736 67.6995 63.8205 61.0974 63.6738 61.2441 C 63.5271 61.3908 38.2923 72.9812 38.1456 72.8345 z "
     id="path556"
     transform="matrix(0.930685,0.000000,0.000000,0.930685,0.268503,-5.513678)" />
  <path
     style="fill:url(#linearGradient588);fill-rule:evenodd;stroke:none;stroke-opacity:1;stroke-width:1pt;stroke-linejoin:miter;stroke-linecap:butt;fill-opacity:1;"
     d="M 9.68311 44.5187 C 7.23788 51.2186 5.81965 57.9186 4.98827 64.6185 C 9.34079 71.8564 17.0678 74.2527 22.594 75.9155 C 24.4035 71.6608 24.8925 58.75 21.2735 52.8814 C 17.7035 48.1866 13.6933 45.1056 9.68311 44.5187 z "
     id="path557"
     sodipodi:nodetypes="ccccc"
     transform="matrix(0.930685,0.000000,0.000000,0.930685,0.268503,-5.513678)" />
  <path
     style="fill:url(#linearGradient584);fill-rule:evenodd;stroke:black;stroke-opacity:1;stroke-width:1pt;stroke-linejoin:miter;stroke-linecap:butt;fill-opacity:1;"
     d="M 11.0036 42.7582 C 30.1742 52.1478 23.6698 71.514 24.5012 76.0621 C 41.4711 71.9052 53.7461 64.3739 68.2219 57.4295 C 70.227 49.507 71.7919 36.8896 56.6315 28.3802 C 41.2755 30.2386 24.3056 35.1779 11.0036 42.7582 z "
     id="path559"
     sodipodi:nodetypes="ccccc"
     transform="matrix(0.930685,0.000000,0.000000,0.930685,0.268503,-5.513678)" />
  <path
     style="fill:url(#linearGradient565);fill-rule:evenodd;stroke:none;stroke-opacity:1;stroke-width:1pt;stroke-linejoin:miter;stroke-linecap:butt;fill-opacity:1;"
     d="M 21.2735 38.21 C 27.9734 39.9706 28.8048 49.2136 31.6902 49.6537 C 40.493 51.8055 55.898 44.861 56.3381 41.5844 C 57.0717 38.1611 52.2301 30.7765 48.4156 29.994 C 39.0748 32.1458 30.1742 34.4443 21.2735 38.21 z "
     id="path558"
     sodipodi:nodetypes="ccccc"
     transform="matrix(0.930685,0.000000,0.000000,0.930685,0.268503,-5.513678)" />
  <path
     style="fill:#ffffff;fill-rule:evenodd;stroke:none;stroke-opacity:1;stroke-width:1pt;stroke-linejoin:miter;stroke-linecap:butt;fill-opacity:1;"
     d="M 15.8451 39.8239 L 12.6174 26.3262 L 41.0799 18.8438 L 44.1609 29.5539 L 40.0529 30.8743 L 37.5587 24.7123 L 19.6597 29.5539 L 21.5669 37.6232 "
     id="path560"
     sodipodi:nodetypes="cccccccc"
     transform="matrix(0.930685,0.000000,0.000000,0.930685,0.268503,-5.513678)" />
  <path
     style="fill:url(#linearGradient567);fill-rule:evenodd;stroke:none;stroke-opacity:1;stroke-width:1pt;stroke-linejoin:miter;stroke-linecap:butt;fill-opacity:1;"
     d="M 21.2735 38.21 C 23.4087 38.6738 23.6625 39.4178 26.779 42.318 C 39.6898 44.7633 44.8367 35.212 53.3461 33.8426 C 50.8118 30.9381 50.9097 31.0699 48.4156 29.994 C 39.0748 32.1458 30.1742 34.4443 21.2735 38.21 z "
     id="path566"
     sodipodi:nodetypes="ccccc"
     transform="matrix(0.930685,0.000000,0.000000,0.930685,0.268503,-5.513678)" />
  <path
     transform="matrix(0.968550,-0.304545,0.285609,1.032766,-13.70667,1.569653)"
     style="font-size:12;fill:url(#linearGradient580);fill-rule:evenodd;stroke-width:1pt;"
     d="M 50.763 53.5416 C 50.763 55.2828 48.7912 56.696 46.3616 56.696 C 43.932 56.696 41.9602 55.2828 41.9602 53.5416 C 41.9602 51.8004 43.932 50.3873 46.3616 50.3873 C 48.7912 50.3873 50.763 51.8004 50.763 53.5416 z "
     id="path581" />
  <path
     transform="matrix(0.892683,-0.263237,0.263237,0.892683,-9.332854,6.676979)"
     style="font-size:12;fill:url(#radialGradient573);fill-rule:evenodd;stroke-width:1pt;"
     d="M 50.763 53.5416 C 50.763 55.2828 48.7912 56.696 46.3616 56.696 C 43.932 56.696 41.9602 55.2828 41.9602 53.5416 C 41.9602 51.8004 43.932 50.3873 46.3616 50.3873 C 48.7912 50.3873 50.763 51.8004 50.763 53.5416 z "
     id="path583" />
  <path
     transform="matrix(0.930685,0.000000,0.000000,0.930685,-0.414221,-6.059856)"
     style="font-size:12;fill:url(#linearGradient568);fill-rule:evenodd;stroke-width:1pt;"
     d="M 52.5236 51.0475 C 52.5236 52.0598 51.6362 52.8814 50.5429 52.8814 C 49.4496 52.8814 48.5623 52.0598 48.5623 51.0475 C 48.5623 50.0351 49.4496 49.2135 50.5429 49.2135 C 51.6362 49.2135 52.5236 50.0351 52.5236 51.0475 z "
     id="path582" />
  <path
     style="fill:none;fill-rule:evenodd;stroke:black;stroke-opacity:1;stroke-width:1pt;stroke-linejoin:miter;stroke-linecap:butt;fill-opacity:1;"
     d="M 75.5245 67.7991 C 75.3462 67.7189 74.2254 66.8158 73.6571 67.3842 C 72.7977 68.0507 72.8272 68.2448 72.8272 69.459 C 72.5183 70.3857 71.9537 70.0912 71.1673 69.6665 C 70.5158 69.5688 70.2998 69.1942 70.1299 69.874 C 69.8532 70.1506 69.9915 70.8422 69.7149 71.1189 C 68.6386 71.1189 67.2746 70.8242 66.6026 71.1189 C 66.6026 72.2426 66.4557 72.232 65.3577 72.3638 C 64.132 72.3638 63.6824 72.2137 63.0754 72.9862 C 62.6134 73.66 62.4057 74.2395 61.8305 74.4386 C 60.8108 74.4071 59.6278 74.0876 58.9257 74.4386 C 58.6895 75.4425 58.6634 75.7828 57.4733 75.891 C 56.6379 75.891 56.6434 75.8855 56.6434 76.721 C 56.3345 76.8533 56.3297 77.0036 56.0209 77.1359 "
     id="path589"
     transform="matrix(0.930685,0.000000,0.000000,0.930685,0.268503,-5.513678)" />
  <path
     style="fill:none;fill-rule:evenodd;stroke:black;stroke-opacity:1;stroke-width:1pt;stroke-linejoin:miter;stroke-linecap:butt;fill-opacity:1;"
     d="M 69.7149 65.5168 C 69.4961 65.339 68.5475 64.8943 67.64 64.8943 C 67.0956 65.3969 67.1763 65.8585 66.8101 66.3467 C 65.7886 66.3467 64.8975 66.0745 64.3203 66.3467 C 63.6441 67.0229 63.4234 67.3815 63.2829 68.4216 C 62.9122 68.7249 62.9977 68.8365 62.2454 68.8365 C 61.1901 68.7584 60.6929 68.307 60.3781 69.2515 C 59.6124 69.857 59.3797 69.874 58.0957 69.874 C 57.473 69.874 56.7472 69.7701 56.4359 70.0815 C 56.1901 71.1261 56.0757 71.3442 54.9835 71.7413 C 54.1395 72.3177 53.7699 72.1295 53.7386 73.1937 C 53.1836 73.3968 52.3008 73.4012 51.4562 73.4012 "
     id="path590"
     transform="matrix(0.930685,0.000000,0.000000,0.930685,-1.855630,-6.092997)" />
  <g
     id="g1105"
     transform="matrix(0.8367213,-0.1362462,0.1362462,0.8367213,-124.39242,66.661894)">
    <path
       style="font-size:12px;fill:none;fill-rule:evenodd;stroke:#000000;stroke-width:4.79235888"
       d="M 230.25704,37.276672 L 223.83873,24.652742 C 223.77923,24.535692 213.24089,24.493642 209.03663,22.852462 C 199.26439,19.036352 187.92274,7.6024317 193.27607,-9.8978483 C 197.54969,-23.841568 211.33361,-33.101058 227.71217,-26.921448 C 241.16985,-21.843658 249.85727,-7.2774783 242.39056,8.4264817 C 238.73305,16.168432 233.15122,19.325792 233.54345,20.282132 L 239.92531,35.841952 C 240.96234,38.370372 235.32085,47.236482 230.25704,37.276672 z "
       id="path2756"
       sodipodi:nodetypes="cssssssss" />
    <path
       style="font-size:12px;fill:none;fill-rule:evenodd;stroke:#efe16b;stroke-width:3.61911798"
       d="M 240.64421,6.5837417 C 239.45135,9.7301517 237.67627,12.486342 235.48798,14.776202 C 234.39384,15.921132 231.90806,18.861922 230.54813,19.637872 L 234.81908,34.453202 L 233.53295,35.373892 L 225.77061,20.953032 C 224.28812,21.456752 220.33443,22.250722 218.7519,22.310822 C 215.58683,22.431042 212.34659,21.932772 209.20019,20.739902 C 196.61452,15.968452 190.27255,1.8815317 195.044,-10.704118 C 199.81545,-23.289778 213.90238,-29.631738 226.48804,-24.860288 C 239.07369,-20.088838 245.41566,-6.0019083 240.64421,6.5837417 z "
       id="path2758"
       sodipodi:nodetypes="csccccscccc" />
    <path
       style="font-size:12px;fill:#ffc83d;fill-rule:evenodd"
       d="M 232.15777,17.928682 L 239.3164,36.485182 C 240.24015,40.106302 235.65819,42.476432 232.97869,39.468902 L 223.47227,21.663792 C 224.83556,18.886752 229.8727,17.648852 232.15777,17.928682 z "
       id="path1170"
       sodipodi:nodetypes="ccccc" />
    <path
       style="font-size:12px;fill:#ff933d;fill-rule:evenodd"
       d="M 231.60474,18.193552 L 238.81258,36.547022 C 238.84553,39.080222 238.82553,34.833482 235.54045,37.973042 L 228.00217,19.612012 C 228.36244,18.730202 229.26219,17.802782 231.60474,18.193552 z "
       id="path2761"
       sodipodi:nodetypes="ccccc" />
    <path
       style="font-size:12px;fill:#ffffff;fill-rule:evenodd"
       d="M 226.39794,19.922282 L 234.64658,37.912332 C 235.12671,38.270312 233.85658,38.091722 233.53788,39.518152 C 233.32352,38.696662 224.49672,21.203962 224.49672,21.203962 L 226.39794,19.922282 z "
       id="path2763"
       sodipodi:nodetypes="ccccc" />
    <path
       sodipodi:type="arc"
       style="font-size:12px;fill:#bae6ff;fill-opacity:0.66513759;fill-rule:evenodd;stroke:none;stroke-width:1pt"
       id="path2765"
       sodipodi:cx="29.499611"
       sodipodi:cy="28.953592"
       sodipodi:rx="18.451067"
       sodipodi:ry="18.451067"
       d="M 47.950678 28.953592 A 18.451067 18.451067 0 1 1  11.048544,28.953592 A 18.451067 18.451067 0 1 1  47.950678 28.953592 z"
       transform="matrix(1.152014,0.436749,-0.436749,1.152014,196.8115,-47.96003)" />
    <path
       style="font-size:12px;fill:#437caf;fill-opacity:0.34479998;fill-rule:evenodd;stroke-width:1pt"
       d="M 237.5948,-13.056268 C 240.82539,-8.2166583 242.21104,-2.1454983 240.98429,4.0074717 C 239.75752,10.160462 236.14944,15.235982 231.30983,18.466562 C 226.47021,21.697162 220.39906,23.082812 214.24608,21.856032 C 208.09312,20.629282 204.72924,18.018422 199.78699,12.181602 M 199.78699,12.181602 C 233.68037,14.559172 229.0189,4.2868317 237.5948,-13.056268"
       id="path2767"
       sodipodi:nodetypes="ccscscs" />
    <path
       style="fill:#ff0000;fill-opacity:1;fill-rule:evenodd;stroke:none;stroke-width:1pt;stroke-linecap:butt;stroke-linejoin:miter;stroke-opacity:1"
       d="M 232.18726,17.691022 C 229.75417,17.685172 230.45426,17.813092 228.01927,18.335042 C 227.84291,18.471812 226.71042,17.909312 223.49462,21.764182 L 225.64827,25.923182 C 226.97766,25.085412 229.08296,23.443832 230.05594,23.197642 C 231.48469,22.793402 232.19687,22.579922 234.07978,22.546052 L 232.18726,17.691022 z "
       id="path2769"
       sodipodi:nodetypes="ccccccc" />
    <path
       style="fill:#ffffff;fill-opacity:1;fill-rule:evenodd;stroke:none;stroke-width:1pt;stroke-linecap:butt;stroke-linejoin:miter;stroke-opacity:1"
       d="M 227.33501,22.846212 L 225.75404,23.922972 L 224.40402,21.536282 L 225.87563,20.442632 L 227.33501,22.846212 z "
       id="path2771"
       sodipodi:nodetypes="ccccc" />
  </g>
</svg>
