<?xml version="1.0" encoding="UTF-8" standalone="no"?>
<!-- Created with Sodipodi ("http://www.sodipodi.com/") -->
<svg
   xmlns:dc="http://purl.org/dc/elements/1.1/"
   xmlns:cc="http://web.resource.org/cc/"
   xmlns:rdf="http://www.w3.org/1999/02/22-rdf-syntax-ns#"
   xmlns:svg="http://www.w3.org/2000/svg"
   xmlns="http://www.w3.org/2000/svg"
   xmlns:xlink="http://www.w3.org/1999/xlink"
   xmlns:sodipodi="http://sodipodi.sourceforge.net/DTD/sodipodi-0.dtd"
   xmlns:inkscape="http://www.inkscape.org/namespaces/inkscape"
   id="svg666"
   sodipodi:version="0.32"
   width="90"
   height="90"
   sodipodi:docbase="/home/tweenk/GNUtoon/actions"
   sodipodi:docname="document-save.svg"
   inkscape:version="0.45.1"
   inkscape:output_extension="org.inkscape.output.svg.inkscape"
   version="1.0">
  <metadata
     id="metadata30">
    <rdf:RDF>
      <cc:Work
         rdf:about="">
        <dc:format>image/svg+xml</dc:format>
        <dc:type
           rdf:resource="http://purl.org/dc/dcmitype/StillImage" />
      </cc:Work>
    </rdf:RDF>
  </metadata>
  <defs
     id="defs668">
    <linearGradient
       id="linearGradient689">
      <stop
         style="stop-color:#ffb700;stop-opacity:1;"
         offset="0.000000"
         id="stop690" />
      <stop
         style="stop-color:#fdffff;stop-opacity:0;"
         offset="1.000000"
         id="stop691" />
    </linearGradient>
    <linearGradient
       id="linearGradient684">
      <stop
         style="stop-color:#ffffff;stop-opacity:0.647059;"
         offset="0.000000"
         id="stop685" />
      <stop
         style="stop-color:#fdffff;stop-opacity:0;"
         offset="1.000000"
         id="stop686" />
    </linearGradient>
    <linearGradient
       id="linearGradient677">
      <stop
         style="stop-color:#000000;stop-opacity:1;"
         offset="0.000000"
         id="stop678" />
      <stop
         style="stop-color:#6a6762;stop-opacity:1;"
         offset="1.000000"
         id="stop679" />
    </linearGradient>
    <linearGradient
       xlink:href="#linearGradient677"
       id="linearGradient680"
       x1="68.311676"
       y1="71.296051"
       x2="52.578365"
       y2="39.579781"
       gradientUnits="userSpaceOnUse"
       spreadMethod="pad"
       gradientTransform="matrix(0.990099,0,0,0.967596,0.7131335,-1.795932)" />
    <linearGradient
       xlink:href="#linearGradient684"
       id="linearGradient683"
       x1="49.025764"
       y1="44.340187"
       x2="56.455326"
       y2="53.182751"
       gradientUnits="userSpaceOnUse"
       spreadMethod="pad"
       gradientTransform="matrix(0.995958,0,0,0.961902,0.7131335,-1.795932)" />
    <linearGradient
       xlink:href="#linearGradient689"
       id="linearGradient688"
       x1="26.295921"
       y1="98.952934"
       x2="31.715986"
       y2="102.82758"
       gradientUnits="userSpaceOnUse"
       spreadMethod="pad"
       gradientTransform="matrix(1.29882,0,0,0.737604,0.7131335,-1.795932)" />
    <linearGradient
       xlink:href="#linearGradient689"
       id="linearGradient693"
       x1="33.579441"
       y1="53.821957"
       x2="-14.069118"
       y2="26.552649"
       gradientUnits="userSpaceOnUse"
       spreadMethod="pad"
       gradientTransform="matrix(0.76422,0,0,1.253589,0.7131335,-1.795932)" />
    <linearGradient
       xlink:href="#linearGradient689"
       id="linearGradient698" />
  </defs>
  <sodipodi:namedview
     id="base"
     inkscape:zoom="5.0416667"
     inkscape:cx="36"
     inkscape:cy="-10.100718"
     inkscape:window-width="840"
     inkscape:window-height="644"
     inkscape:window-x="52"
     inkscape:window-y="85"
     inkscape:current-layer="svg666"
     width="90px"
     height="90px" />
  <path
     style="fill:#000000;fill-opacity:0.29824602;fill-rule:evenodd;stroke:none;stroke-width:1pt;stroke-linecap:butt;stroke-linejoin:miter;stroke-opacity:1"
     d="M 1.9824785,47.444721 C 1.9824785,47.444721 15.748944,65.304621 27.189336,80.01318 C 29.330061,81.585861 42.925113,87.152751 46.094454,85.810641 C 48.920811,84.320238 87.182874,58.819053 87.868614,55.793967 C 88.948251,52.383546 87.62076,50.172921 86.661597,48.467808 C 85.873926,46.762599 60.27321,12.489006 59.288595,11.63643 C 58.303977,10.783845 55.546959,9.590238 52.199214,10.613334 C 43.680309,14.870151 16.872576,29.392152 3.2405285,41.587026 C 1.4681735,43.292232 1.7855555,45.739512 1.9824785,47.444721 z "
     id="path699"
     sodipodi:nodetypes="ccccccccc" />
  <path
     style="fill:none;fill-opacity:1;fill-rule:evenodd;stroke:#000000;stroke-width:0.97878284pt;stroke-linecap:butt;stroke-linejoin:miter;stroke-opacity:1"
     d="M 9.3212615,34.821411 C 9.3212615,34.879944 9.3212615,34.938474 9.3212615,34.997103"
     id="path671" />
  <path
     style="fill:#261d14;fill-opacity:1;fill-rule:evenodd;stroke:none;stroke-width:1pt;stroke-linecap:butt;stroke-linejoin:miter;stroke-opacity:1"
     d="M 2.1185375,40.618743 C 2.1185375,40.618743 14.399355,59.019177 24.605124,74.172888 C 26.514825,75.793167 38.64273,81.52854 41.470041,80.145813 C 43.991385,78.610296 78.124287,52.337319 78.736026,49.220679 C 79.699146,45.707046 78.51492,43.429515 77.659266,41.672796 C 76.956597,39.915978 54.118656,4.605093 53.240298,3.726714 C 52.361937,2.848323 49.902453,1.61859 46.915989,2.672652 C 39.316425,7.058304 15.401727,22.019811 3.2408195,34.583763 C 1.6597325,36.340581 1.9428635,38.861925 2.1185375,40.618743 z "
     id="path676"
     sodipodi:nodetypes="ccccccccc" />
  <path
     style="fill:#f1e36c;fill-opacity:1;fill-rule:evenodd;stroke:none;stroke-width:1pt;stroke-linecap:butt;stroke-linejoin:miter;stroke-opacity:1"
     d="M 9.1455905,34.997103 C 9.1455905,34.997103 27.415896,63.632277 28.118562,64.862022 C 28.821327,66.091764 30.402453,67.848582 33.564609,68.72694 C 38.307888,70.659351 42.875379,72.41607 43.226763,72.41607 C 43.578144,72.41607 45.861936,70.307967 45.861936,70.307967 L 35.497017,57.307971 L 59.213319,36.578133 L 69.226857,51.159255 L 74.672805,46.767357 C 74.672805,46.767357 50.078142,6.713205 49.726758,6.713205 C 49.375476,6.713205 43.578144,10.226751 43.578144,10.226751 L 55.875474,28.84839 C 55.875474,28.84839 31.807791,46.591764 29.699688,48.348486 C 27.767277,48.348486 13.888821,30.956493 13.888821,30.956493 L 9.1455905,34.997103 z "
     id="path672"
     sodipodi:nodetypes="ccccccccccccccc" />
  <path
     style="fill:#ffffff;fill-opacity:1;fill-rule:evenodd;stroke:none;stroke-width:1pt;stroke-linecap:butt;stroke-linejoin:miter;stroke-opacity:1"
     d="M 15.294255,30.078132 L 29.699688,46.416075 L 53.767371,28.321413 L 42.17271,10.753728 L 15.294255,30.078132 z "
     id="path673"
     sodipodi:nodetypes="ccccc" />
  <path
     style="fill:url(#linearGradient680);fill-opacity:1;fill-rule:evenodd;stroke:none;stroke-width:1pt;stroke-linecap:butt;stroke-linejoin:miter;stroke-opacity:1"
     d="M 37.429431,57.48366 L 46.740297,69.078225 L 49.024092,67.321506 L 40.942968,57.307971 C 40.942968,57.307971 43.578144,54.321408 45.334866,54.145818 C 48.145731,56.780895 53.767371,63.807969 53.767371,63.807969 L 68.348496,52.740384 L 58.686246,38.861925 L 37.429431,57.48366 z "
     id="path674"
     sodipodi:nodetypes="ccccccccc" />
  <path
     style="fill:#f1e36c;fill-opacity:1;fill-rule:evenodd;stroke:none;stroke-width:1pt;stroke-linecap:butt;stroke-linejoin:miter;stroke-opacity:1"
     d="M 8.4656225,35.920977 C 7.7629235,35.745288 28.997022,68.551152 29.524092,68.551152 C 30.051072,68.551152 41.294349,73.294527 41.294349,73.294527 L 40.59168,75.578226 L 28.821327,72.240477 L 6.0061535,38.578863 L 8.4656225,35.920977 z "
     id="path675"
     sodipodi:nodetypes="ccccccc" />
  <path
     style="fill:#f1e36c;fill-opacity:1;fill-rule:evenodd;stroke:none;stroke-width:1pt;stroke-linecap:butt;stroke-linejoin:miter;stroke-opacity:1"
     d="M 42.17271,57.132276 L 49.375476,66.443145 L 52.537629,63.807969 L 44.983578,54.672792 L 42.17271,57.132276 z "
     id="path681" />
  <path
     style="fill:url(#linearGradient683);fill-opacity:1;fill-rule:evenodd;stroke:none;stroke-width:1pt;stroke-linecap:butt;stroke-linejoin:miter;stroke-opacity:1"
     d="M 58.522494,39.802341 L 44.911347,51.731256 C 46.083828,55.197714 50.009139,57.899547 51.640476,59.836752 C 54.138429,41.076717 59.389206,42.657057 64.639986,49.437186 L 58.522494,39.802341 z "
     id="path682"
     sodipodi:nodetypes="ccccc" />
  <path
     style="fill:url(#linearGradient688);fill-opacity:1;fill-rule:evenodd;stroke:none;stroke-width:1pt;stroke-linecap:butt;stroke-linejoin:miter;stroke-opacity:1"
     d="M 41.087925,73.295019 L 40.476186,75.589089 L 28.700253,72.530391 L 29.15901,68.554086 L 41.087925,73.295019 z "
     id="path687" />
  <path
     style="fill:url(#linearGradient693);fill-opacity:1;fill-rule:evenodd;stroke:none;stroke-width:1pt;stroke-linecap:butt;stroke-linejoin:miter;stroke-opacity:1"
     d="M 28.700253,72.377409 L 29.464878,68.859957 L 12.947916,43.778643 L 12.030309,47.143212 L 28.700253,72.377409 z "
     id="path692" />
  <path
     style="fill:#bae6ff;fill-opacity:1;fill-rule:evenodd;stroke:none;stroke-width:1pt;stroke-linecap:butt;stroke-linejoin:miter;stroke-opacity:1"
     d="M 15.241989,30.014511 L 21.359382,36.896529 L 47.511285,18.54435 L 42.158517,10.744722 L 15.241989,30.014511 z "
     id="path697"
     sodipodi:nodetypes="ccccc" />
</svg>
